  0
SECTION
  2
HEADER
  9
$ACADVER
  1
AC1032
  9
$ACADMAINTVER
 90
      251
  9
$DWGCODEPAGE
  3
ANSI_1252
  9
$REQUIREDVERSIONS
160
                 0
  9
$INSBASE
 10
0.0
 20
0.0
 30
0.0
  9
$EXTMIN
 10
1.000000000000000E+20
 20
1.000000000000000E+20
 30
1.000000000000000E+20
  9
$EXTMAX
 10
-1.000000000000000E+20
 20
-1.000000000000000E+20
 30
-1.000000000000000E+20
  9
$LIMMIN
 10
0.0
 20
0.0
  9
$LIMMAX
 10
12.0
 20
9.0
  9
$ORTHOMODE
 70
     0
  9
$REGENMODE
 70
     1
  9
$FILLMODE
 70
     1
  9
$QTEXTMODE
 70
     0
  9
$MIRRTEXT
 70
     0
  9
$LTSCALE
 40
1.0
  9
$ATTMODE
 70
     1
  9
$TEXTSIZE
 40
0.2
  9
$TRACEWID
 40
0.05
  9
$TEXTSTYLE
  7
Standard
  9
$CLAYER
  8
0
  9
$CELTYPE
  6
ByLayer
  9
$CECOLOR
 62
   256
  9
$CELTSCALE
 40
1.0
  9
$DISPSILH
 70
     0
  9
$DIMSCALE
 40
1.0
  9
$DIMASZ
 40
0.18
  9
$DIMEXO
 40
0.0625
  9
$DIMDLI
 40
0.38
  9
$DIMRND
 40
0.0
  9
$DIMDLE
 40
0.0
  9
$DIMEXE
 40
0.18
  9
$DIMTP
 40
0.0
  9
$DIMTM
 40
0.0
  9
$DIMTXT
 40
0.18
  9
$DIMCEN
 40
0.09
  9
$DIMTSZ
 40
0.0
  9
$DIMTOL
 70
     0
  9
$DIMLIM
 70
     0
  9
$DIMTIH
 70
     1
  9
$DIMTOH
 70
     1
  9
$DIMSE1
 70
     0
  9
$DIMSE2
 70
     0
  9
$DIMTAD
 70
     0
  9
$DIMZIN
 70
     0
  9
$DIMBLK
  1

  9
$DIMASO
 70
     1
  9
$DIMSHO
 70
     1
  9
$DIMPOST
  1

  9
$DIMAPOST
  1

  9
$DIMALT
 70
     0
  9
$DIMALTD
 70
     2
  9
$DIMALTF
 40
25.4
  9
$DIMLFAC
 40
1.0
  9
$DIMTOFL
 70
     0
  9
$DIMTVP
 40
0.0
  9
$DIMTIX
 70
     0
  9
$DIMSOXD
 70
     0
  9
$DIMSAH
 70
     0
  9
$DIMBLK1
  1

  9
$DIMBLK2
  1

  9
$DIMSTYLE
  2
Standard
  9
$DIMCLRD
 70
     0
  9
$DIMCLRE
 70
     0
  9
$DIMCLRT
 70
     0
  9
$DIMTFAC
 40
1.0
  9
$DIMGAP
 40
0.09
  9
$DIMJUST
 70
     0
  9
$DIMSD1
 70
     0
  9
$DIMSD2
 70
     0
  9
$DIMTOLJ
 70
     1
  9
$DIMTZIN
 70
     0
  9
$DIMALTZ
 70
     0
  9
$DIMALTTZ
 70
     0
  9
$DIMUPT
 70
     0
  9
$DIMDEC
 70
     4
  9
$DIMTDEC
 70
     4
  9
$DIMALTU
 70
     2
  9
$DIMALTTD
 70
     2
  9
$DIMTXSTY
  7
Standard
  9
$DIMAUNIT
 70
     0
  9
$DIMADEC
 70
     0
  9
$DIMALTRND
 40
0.0
  9
$DIMAZIN
 70
     0
  9
$DIMDSEP
 70
    46
  9
$DIMATFIT
 70
     3
  9
$DIMFRAC
 70
     0
  9
$DIMLDRBLK
  1

  9
$DIMLUNIT
 70
     2
  9
$DIMLWD
 70
    -2
  9
$DIMLWE
 70
    -2
  9
$DIMTMOVE
 70
     0
  9
$DIMFXL
 40
1.0
  9
$DIMFXLON
 70
     0
  9
$DIMJOGANG
 40
0.7853981633974483
  9
$DIMTFILL
 70
     0
  9
$DIMTFILLCLR
 70
     0
  9
$DIMARCSYM
 70
     0
  9
$DIMLTYPE
  6

  9
$DIMLTEX1
  6

  9
$DIMLTEX2
  6

  9
$DIMTXTDIRECTION
 70
     0
  9
$LUNITS
 70
     2
  9
$LUPREC
 70
     4
  9
$SKETCHINC
 40
0.1
  9
$FILLETRAD
 40
0.0
  9
$AUNITS
 70
     0
  9
$AUPREC
 70
     0
  9
$MENU
  1
.
  9
$ELEVATION
 40
0.0
  9
$PELEVATION
 40
0.0
  9
$THICKNESS
 40
0.0
  9
$LIMCHECK
 70
     0
  9
$CHAMFERA
 40
0.0
  9
$CHAMFERB
 40
0.0
  9
$CHAMFERC
 40
0.0
  9
$CHAMFERD
 40
0.0
  9
$SKPOLY
 70
     0
  9
$TDCREATE
 40
2459850.477835648
  9
$TDUCREATE
 40
2459850.394502315
  9
$TDUPDATE
 40
2459850.477835648
  9
$TDUUPDATE
 40
2459850.394502315
  9
$TDINDWG
 40
0.0000000000
  9
$TDUSRTIMER
 40
0.0000000000
  9
$USRTIMER
 70
     1
  9
$ANGBASE
 50
0.0
  9
$ANGDIR
 70
     0
  9
$PDMODE
 70
     0
  9
$PDSIZE
 40
0.0
  9
$PLINEWID
 40
0.0
  9
$SPLFRAME
 70
     0
  9
$SPLINETYPE
 70
     6
  9
$SPLINESEGS
 70
     8
  9
$HANDSEED
  5
A6
  9
$SURFTAB1
 70
     6
  9
$SURFTAB2
 70
     6
  9
$SURFTYPE
 70
     6
  9
$SURFU
 70
     6
  9
$SURFV
 70
     6
  9
$UCSBASE
  2

  9
$UCSNAME
  2

  9
$UCSORG
 10
0.0
 20
0.0
 30
0.0
  9
$UCSXDIR
 10
1.0
 20
0.0
 30
0.0
  9
$UCSYDIR
 10
0.0
 20
1.0
 30
0.0
  9
$UCSORTHOREF
  2

  9
$UCSORTHOVIEW
 70
     0
  9
$UCSORGTOP
 10
0.0
 20
0.0
 30
0.0
  9
$UCSORGBOTTOM
 10
0.0
 20
0.0
 30
0.0
  9
$UCSORGLEFT
 10
0.0
 20
0.0
 30
0.0
  9
$UCSORGRIGHT
 10
0.0
 20
0.0
 30
0.0
  9
$UCSORGFRONT
 10
0.0
 20
0.0
 30
0.0
  9
$UCSORGBACK
 10
0.0
 20
0.0
 30
0.0
  9
$PUCSBASE
  2

  9
$PUCSNAME
  2

  9
$PUCSORG
 10
0.0
 20
0.0
 30
0.0
  9
$PUCSXDIR
 10
1.0
 20
0.0
 30
0.0
  9
$PUCSYDIR
 10
0.0
 20
1.0
 30
0.0
  9
$PUCSORTHOREF
  2

  9
$PUCSORTHOVIEW
 70
     0
  9
$PUCSORGTOP
 10
0.0
 20
0.0
 30
0.0
  9
$PUCSORGBOTTOM
 10
0.0
 20
0.0
 30
0.0
  9
$PUCSORGLEFT
 10
0.0
 20
0.0
 30
0.0
  9
$PUCSORGRIGHT
 10
0.0
 20
0.0
 30
0.0
  9
$PUCSORGFRONT
 10
0.0
 20
0.0
 30
0.0
  9
$PUCSORGBACK
 10
0.0
 20
0.0
 30
0.0
  9
$USERI1
 70
     0
  9
$USERI2
 70
     0
  9
$USERI3
 70
     0
  9
$USERI4
 70
     0
  9
$USERI5
 70
     0
  9
$USERR1
 40
0.0
  9
$USERR2
 40
0.0
  9
$USERR3
 40
0.0
  9
$USERR4
 40
0.0
  9
$USERR5
 40
0.0
  9
$WORLDVIEW
 70
     1
  9
$SHADEDGE
 70
     3
  9
$SHADEDIF
 70
    70
  9
$TILEMODE
 70
     1
  9
$MAXACTVP
 70
    64
  9
$PINSBASE
 10
0.0
 20
0.0
 30
0.0
  9
$PLIMCHECK
 70
     0
  9
$PEXTMIN
 10
1.000000000000000E+20
 20
1.000000000000000E+20
 30
1.000000000000000E+20
  9
$PEXTMAX
 10
-1.000000000000000E+20
 20
-1.000000000000000E+20
 30
-1.000000000000000E+20
  9
$PLIMMIN
 10
0.0
 20
0.0
  9
$PLIMMAX
 10
12.0
 20
9.0
  9
$UNITMODE
 70
     0
  9
$VISRETAIN
 70
     1
  9
$PLINEGEN
 70
     0
  9
$PSLTSCALE
 70
     1
  9
$TREEDEPTH
 70
  3020
  9
$CMLSTYLE
  2
Standard
  9
$CMLJUST
 70
     0
  9
$CMLSCALE
 40
1.0
  9
$PROXYGRAPHICS
 70
     1
  9
$MEASUREMENT
 70
     0
  9
$CELWEIGHT
370
    -1
  9
$ENDCAPS
280
     0
  9
$JOINSTYLE
280
     0
  9
$LWDISPLAY
290
     1
  9
$INSUNITS
 70
     4
  9
$HYPERLINKBASE
  1

  9
$STYLESHEET
  1

  9
$XEDIT
290
     1
  9
$CEPSNTYPE
380
     0
  9
$PSTYLEMODE
290
     1
  9
$FINGERPRINTGUID
  2
{2456DF90-A306-2744-BDE3-556DFEF22F1E}
  9
$VERSIONGUID
  2
{C9F014CF-9A98-2343-B80D-83268FE5D84B}
  9
$EXTNAMES
290
     1
  9
$PSVPSCALE
 40
0.0
  9
$OLESTARTUP
290
     0
  9
$SORTENTS
280
   127
  9
$INDEXCTL
280
     0
  9
$HIDETEXT
280
     1
  9
$XCLIPFRAME
280
     2
  9
$HALOGAP
280
     0
  9
$OBSCOLOR
 70
   257
  9
$OBSLTYPE
280
     0
  9
$INTERSECTIONDISPLAY
280
     0
  9
$INTERSECTIONCOLOR
 70
   257
  9
$DIMASSOC
280
     2
  9
$PROJECTNAME
  1

  9
$CAMERADISPLAY
290
     0
  9
$LENSLENGTH
 40
50.0
  9
$CAMERAHEIGHT
 40
0.0
  9
$STEPSPERSEC
 40
2.0
  9
$STEPSIZE
 40
6.0
  9
$3DDWFPREC
 40
2.0
  9
$PSOLWIDTH
 40
0.25
  9
$PSOLHEIGHT
 40
4.0
  9
$LOFTANG1
 40
1.570796326794896
  9
$LOFTANG2
 40
1.570796326794896
  9
$LOFTMAG1
 40
0.0
  9
$LOFTMAG2
 40
0.0
  9
$LOFTPARAM
 70
     7
  9
$LOFTNORMALS
280
     1
  9
$LATITUDE
 40
37.795
  9
$LONGITUDE
 40
-122.394
  9
$NORTHDIRECTION
 40
0.0
  9
$TIMEZONE
 70
 -8000
  9
$LIGHTGLYPHDISPLAY
280
     1
  9
$TILEMODELIGHTSYNCH
280
     1
  9
$CMATERIAL
347
11
  9
$SOLIDHIST
280
     0
  9
$SHOWHIST
280
     1
  9
$DWFFRAME
280
     2
  9
$DGNFRAME
280
     0
  9
$REALWORLDSCALE
290
     1
  9
$INTERFERECOLOR
 62
     1
  9
$INTERFEREOBJVS
345
33
  9
$INTERFEREVPVS
346
30
  9
$CSHADOW
280
     0
  9
$SHADOWPLANELOCATION
 40
0.0
  0
ENDSEC
  0
SECTION
  2
CLASSES
  0
CLASS
  1
ACDBDICTIONARYWDFLT
  2
AcDbDictionaryWithDefault
  3
ObjectDBX Classes
 90
        0
 91
        1
280
     0
281
     0
  0
CLASS
  1
MATERIAL
  2
AcDbMaterial
  3
ObjectDBX Classes
 90
     1153
 91
        3
280
     0
281
     0
  0
CLASS
  1
VISUALSTYLE
  2
AcDbVisualStyle
  3
ObjectDBX Classes
 90
     4095
 91
       24
280
     0
281
     0
  0
CLASS
  1
SCALE
  2
AcDbScale
  3
ObjectDBX Classes
 90
     1153
 91
       17
280
     0
281
     0
  0
CLASS
  1
TABLESTYLE
  2
AcDbTableStyle
  3
ObjectDBX Classes
 90
     4095
 91
        1
280
     0
281
     0
  0
CLASS
  1
MLEADERSTYLE
  2
AcDbMLeaderStyle
  3
ACDB_MLEADERSTYLE_CLASS
 90
     4095
 91
        1
280
     0
281
     0
  0
CLASS
  1
ACDBSECTIONVIEWSTYLE
  2
AcDbSectionViewStyle
  3
ObjectDBX Classes
 90
     1025
 91
        1
280
     0
281
     0
  0
CLASS
  1
ACDBDETAILVIEWSTYLE
  2
AcDbDetailViewStyle
  3
ObjectDBX Classes
 90
     1025
 91
        1
280
     0
281
     0
  0
CLASS
  1
DICTIONARYVAR
  2
AcDbDictionaryVar
  3
ObjectDBX Classes
 90
        0
 91
        5
280
     0
281
     0
  0
CLASS
  1
CELLSTYLEMAP
  2
AcDbCellStyleMap
  3
ObjectDBX Classes
 90
     1152
 91
        1
280
     0
281
     0
  0
ENDSEC
  0
SECTION
  2
TABLES
  0
TABLE
  2
VPORT
  5
8
330
0
100
AcDbSymbolTable
 70
     1
  0
VPORT
  5
57
330
8
100
AcDbSymbolTableRecord
100
AcDbViewportTableRecord
  2
*Active
 70
     0
 10
0.0
 20
0.0
 11
1.0
 21
1.0
 12
0.0
 22
0.0
 13
0.0
 23
0.0
 14
1.0
 24
1.0
 15
0.0
 25
0.0
 16
0.0
 26
0.0
 36
1.0
 17
500.0624998749843
 27
-122.5266296080402
 37
0.0
 40
3830.195841246228
 41
0.2664321552670728
 42
50.0
 43
0.0
 44
0.0
 50
0.0
 51
0.0
 71
     0
 72
   100
 73
     1
 74
     1
 75
     0
 76
     0
 77
     0
 78
     0
281
     0
 65
     1
110
0.0
120
0.0
130
0.0
111
1.0
121
0.0
131
0.0
112
0.0
122
1.0
132
0.0
 79
     0
146
0.0
 60
     3
 61
     5
292
     1
282
     1
141
0.0
142
0.0
 63
   250
421
  3355443
  0
ENDTAB
  0
TABLE
  2
LTYPE
  5
5
330
0
100
AcDbSymbolTable
 70
     1
  0
LTYPE
  5
5B
330
5
100
AcDbSymbolTableRecord
100
AcDbLinetypeTableRecord
  2
ByBlock
 70
     0
  3

 72
    65
 73
     0
 40
0.0
  0
LTYPE
  5
5C
330
5
100
AcDbSymbolTableRecord
100
AcDbLinetypeTableRecord
  2
ByLayer
 70
     0
  3

 72
    65
 73
     0
 40
0.0
  0
LTYPE
  5
5D
330
5
100
AcDbSymbolTableRecord
100
AcDbLinetypeTableRecord
  2
Continuous
 70
     0
  3
Solid line
 72
    65
 73
     0
 40
0.0
  0
ENDTAB
  0
TABLE
  2
LAYER
  5
2
330
0
100
AcDbSymbolTable
 70
    15
  0
LAYER
  5
54
330
2
100
AcDbSymbolTableRecord
100
AcDbLayerTableRecord
  2
0
 70
     0
 62
     7
  6
Continuous
370
    -3
390
F
347
21
348
0
  0
LAYER
  5
78
330
2
100
AcDbSymbolTableRecord
100
AcDbLayerTableRecord
  2
Guides
 70
     1
 62
     7
  6
Continuous
370
     0
390
F
347
21
348
0
  0
LAYER
  5
79
330
2
100
AcDbSymbolTableRecord
100
AcDbLayerTableRecord
  2
Bounding Box
 70
     0
 62
     7
  6
Continuous
370
     0
390
F
347
21
348
0
  0
LAYER
  5
7B
330
2
100
AcDbSymbolTableRecord
100
AcDbLayerTableRecord
  2
2022-042
 70
     1
 62
     7
  6
Continuous
370
     0
390
F
347
21
348
0
  0
LAYER
  5
7C
330
2
100
AcDbSymbolTableRecord
100
AcDbLayerTableRecord
  2
2022-041
 70
     1
 62
     7
  6
Continuous
370
     0
390
F
347
21
348
0
  0
LAYER
  5
7D
330
2
100
AcDbSymbolTableRecord
100
AcDbLayerTableRecord
  2
2022-040
 70
     1
 62
     7
  6
Continuous
370
     0
390
F
347
21
348
0
  0
LAYER
  5
7E
330
2
100
AcDbSymbolTableRecord
100
AcDbLayerTableRecord
  2
2022-039
 70
     1
 62
     7
  6
Continuous
370
     0
390
F
347
21
348
0
  0
LAYER
  5
7F
330
2
100
AcDbSymbolTableRecord
100
AcDbLayerTableRecord
  2
2022-038
 70
     1
 62
     7
  6
Continuous
370
     0
390
F
347
21
348
0
  0
LAYER
  5
80
330
2
100
AcDbSymbolTableRecord
100
AcDbLayerTableRecord
  2
2022-037
 70
     1
 62
     7
  6
Continuous
370
     0
390
F
347
21
348
0
  0
LAYER
  5
81
330
2
100
AcDbSymbolTableRecord
100
AcDbLayerTableRecord
  2
2022-036
 70
     1
 62
     7
  6
Continuous
370
     0
390
F
347
21
348
0
  0
LAYER
  5
82
330
2
100
AcDbSymbolTableRecord
100
AcDbLayerTableRecord
  2
2022-035
 70
     1
 62
     7
  6
Continuous
370
     0
390
F
347
21
348
0
  0
LAYER
  5
83
330
2
100
AcDbSymbolTableRecord
100
AcDbLayerTableRecord
  2
2022-034
 70
     0
 62
     7
  6
Continuous
370
     0
390
F
347
21
348
0
  0
LAYER
  5
92
330
2
100
AcDbSymbolTableRecord
100
AcDbLayerTableRecord
  2
2022-033
 70
     1
 62
     7
  6
Continuous
370
     0
390
F
347
21
348
0
  0
LAYER
  5
93
330
2
100
AcDbSymbolTableRecord
100
AcDbLayerTableRecord
  2
2022-032
 70
     1
 62
     7
  6
Continuous
370
     0
390
F
347
21
348
0
  0
LAYER
  5
94
330
2
100
AcDbSymbolTableRecord
100
AcDbLayerTableRecord
  2
Screws
 70
     0
 62
     7
  6
Continuous
370
     0
390
F
347
21
348
0
  0
ENDTAB
  0
TABLE
  2
STYLE
  5
3
330
0
100
AcDbSymbolTable
 70
     2
  0
STYLE
  5
55
330
3
100
AcDbSymbolTableRecord
100
AcDbTextStyleTableRecord
  2
Standard
 70
     0
 40
0.0
 41
1.0
 50
0.0
 71
     0
 42
0.2
  3
txt
  4

  0
STYLE
  5
5A
330
3
100
AcDbSymbolTableRecord
100
AcDbTextStyleTableRecord
  2
Annotative
 70
     0
 40
0.0
 41
1.0
 50
0.0
 71
     0
 42
0.2
  3
txt
  4

1001
AcadAnnotative
1000
AnnotativeData
1002
{
1070
     1
1070
     1
1002
}
  0
ENDTAB
  0
TABLE
  2
VIEW
  5
6
330
0
100
AcDbSymbolTable
 70
     0
  0
ENDTAB
  0
TABLE
  2
UCS
  5
7
330
0
100
AcDbSymbolTable
 70
     0
  0
ENDTAB
  0
TABLE
  2
APPID
  5
9
330
0
100
AcDbSymbolTable
 70
     2
  0
APPID
  5
56
330
9
100
AcDbSymbolTableRecord
100
AcDbRegAppTableRecord
  2
ACAD
 70
     0
  0
APPID
  5
5E
330
9
100
AcDbSymbolTableRecord
100
AcDbRegAppTableRecord
  2
AcadAnnotative
 70
     0
  0
ENDTAB
  0
TABLE
  2
DIMSTYLE
  5
A
330
0
100
AcDbSymbolTable
 70
     2
100
AcDbDimStyleTable
 71
     0
  0
DIMSTYLE
105
58
330
A
100
AcDbSymbolTableRecord
100
AcDbDimStyleTableRecord
  2
Standard
 70
     0
340
55
  0
DIMSTYLE
105
59
330
A
100
AcDbSymbolTableRecord
100
AcDbDimStyleTableRecord
  2
Annotative
 70
     0
340
55
1001
AcadAnnotative
1000
AnnotativeData
1002
{
1070
     1
1070
     1
1002
}
  0
ENDTAB
  0
TABLE
  2
BLOCK_RECORD
  5
1
330
0
100
AcDbSymbolTable
 70
     1
  0
BLOCK_RECORD
  5
70
330
1
100
AcDbSymbolTableRecord
100
AcDbBlockTableRecord
  2
*Model_Space
340
73
 70
     0
280
     1
281
     0
  0
BLOCK_RECORD
  5
6C
330
1
100
AcDbSymbolTableRecord
100
AcDbBlockTableRecord
  2
*Paper_Space
340
6F
 70
     0
280
     1
281
     0
  0
BLOCK_RECORD
  5
74
330
1
100
AcDbSymbolTableRecord
100
AcDbBlockTableRecord
  2
*Paper_Space0
340
77
 70
     0
280
     1
281
     0
  0
ENDTAB
  0
ENDSEC
  0
SECTION
  2
BLOCKS
  0
BLOCK
  5
71
330
70
100
AcDbEntity
  8
0
100
AcDbBlockBegin
  2
*Model_Space
 70
     0
 10
0.0
 20
0.0
 30
0.0
  3
*Model_Space
  1

  0
ENDBLK
  5
72
330
70
100
AcDbEntity
  8
0
100
AcDbBlockEnd
  0
BLOCK
  5
6D
330
6C
100
AcDbEntity
 67
     1
  8
0
100
AcDbBlockBegin
  2
*Paper_Space
 70
     0
 10
0.0
 20
0.0
 30
0.0
  3
*Paper_Space
  1

  0
ENDBLK
  5
6E
330
6C
100
AcDbEntity
 67
     1
  8
0
100
AcDbBlockEnd
  0
BLOCK
  5
75
330
74
100
AcDbEntity
 67
     1
  8
0
100
AcDbBlockBegin
  2
*Paper_Space0
 70
     0
 10
0.0
 20
0.0
 30
0.0
  3
*Paper_Space0
  1

  0
ENDBLK
  5
76
330
74
100
AcDbEntity
 67
     1
  8
0
100
AcDbBlockEnd
  0
ENDSEC
  0
SECTION
  2
ENTITIES
  0
LWPOLYLINE
  5
7A
330
70
100
AcDbEntity
  8
Bounding Box
 62
   250
420
  2301728
370
    35
100
AcDbPolyline
 90
        4
 70
     1
 43
0.0
 10
1000.124999749969
 20
-1999.897221722248
 10
0.0
 20
-1999.897221722248
 10
0.0
 20
0.0
 10
1000.124999749969
 20
0.0
  0
SPLINE
  5
84
330
70
100
AcDbEntity
  8
2022-034
100
AcDbSpline
210
0.0
220
0.0
230
1.0
 70
     9
 71
     3
 72
    74
 73
    70
 74
     0
 42
0.0000000001
 43
0.0000000001
 40
0.0
 40
0.0
 40
0.0
 40
0.0
 40
1.0
 40
1.0
 40
1.0
 40
2.0
 40
2.0
 40
2.0
 40
3.0
 40
3.0
 40
3.0
 40
4.0
 40
4.0
 40
4.0
 40
5.0
 40
5.0
 40
5.0
 40
6.0
 40
6.0
 40
6.0
 40
7.0
 40
7.0
 40
7.0
 40
8.0
 40
8.0
 40
8.0
 40
9.0
 40
9.0
 40
9.0
 40
10.0
 40
10.0
 40
10.0
 40
11.0
 40
11.0
 40
11.0
 40
12.0
 40
12.0
 40
12.0
 40
13.0
 40
13.0
 40
13.0
 40
14.0
 40
14.0
 40
14.0
 40
15.0
 40
15.0
 40
15.0
 40
16.0
 40
16.0
 40
16.0
 40
17.0
 40
17.0
 40
17.0
 40
18.0
 40
18.0
 40
18.0
 40
19.0
 40
19.0
 40
19.0
 40
20.0
 40
20.0
 40
20.0
 40
21.0
 40
21.0
 40
21.0
 40
22.0
 40
22.0
 40
22.0
 40
23.0
 40
23.0
 40
23.0
 40
23.0
 10
919.6318832678725
 20
-1918.39248127286
 30
0.0
 10
914.681957035547
 20
-1923.801408573291
 30
0.0
 10
910.6173364899856
 20
-1930.00982930269
 30
0.0
 10
907.6474384589026
 20
-1936.713622166424
 30
0.0
 10
906.1668070145497
 20
-1940.055772774489
 30
0.0
 10
904.9385443030278
 20
-1943.506944158792
 30
0.0
 10
904.0068958313085
 20
-1947.042259295409
 30
0.0
 10
903.5385325657722
 20
-1948.819551688787
 30
0.0
 10
903.1437506601346
 20
-1950.616252240186
 30
0.0
 10
902.8251854367676
 20
-1952.426414222812
 30
0.0
 10
902.4926141834122
 20
-1954.316161738169
 30
0.0
 10
902.103800580282
 20
-1956.279901089688
 30
0.0
 10
902.3943766190043
 20
-1958.198126928672
 30
0.0
 10
902.9388985211902
 20
-1961.792766002355
 30
0.0
 10
906.4898032750354
 20
-1963.796366481907
 30
0.0
 10
909.88699502831
 20
-1963.841498452267
 30
0.0
 10
911.9588935429908
 20
-1963.869023793535
 30
0.0
 10
913.9896605377277
 20
-1963.291374651802
 30
0.0
 10
915.9211765943465
 20
-1962.593605504994
 30
0.0
 10
917.7255404743375
 20
-1961.941770672579
 30
0.0
 10
919.5032555843457
 20
-1961.214588233573
 30
0.0
 10
921.2690120388376
 20
-1960.465288752869
 30
0.0
 10
928.2349100931654
 20
-1957.509307036675
 30
0.0
 10
934.9400393554054
 20
-1953.98740445847
 30
0.0
 10
941.8267634710053
 20
-1950.858243154877
 30
0.0
 10
948.5860358100948
 20
-1947.786992863899
 30
0.0
 10
955.5916034413112
 20
-1945.093973287998
 30
0.0
 10
962.9463907773951
 20
-1943.877596920119
 30
0.0
 10
963.8106252719342
 20
-1943.734664926654
 30
0.0
 10
964.6776955485513
 20
-1943.614508035532
 30
0.0
 10
965.5481684607194
 20
-1943.516634929314
 30
0.0
 10
966.0214472951539
 20
-1943.463421016525
 30
0.0
 10
966.4301129049434
 20
-1943.149379573448
 30
0.0
 10
966.4301129049434
 20
-1942.634690485089
 30
0.0
 10
966.4301129049434
 20
-1942.199228455347
 30
0.0
 10
966.0245802874683
 20
-1941.699179864745
 30
0.0
 10
965.5481684607194
 20
-1941.752746040865
 30
0.0
 10
958.2203123112563
 20
-1942.576666042553
 30
0.0
 10
951.2266944342181
 20
-1944.899066450943
 30
0.0
 10
944.4694663571336
 20
-1947.777351941754
 30
0.0
 10
937.6992986774533
 20
-1950.661149140912
 30
0.0
 10
931.17288019902
 20
-1954.073888389888
 30
0.0
 10
924.4817920051255
 20
-1957.130314680445
 30
0.0
 10
921.1261273050437
 20
-1958.663150822251
 30
0.0
 10
917.7126330168206
 20
-1960.208300481697
 30
0.0
 10
914.1908084586741
 20
-1961.322858735868
 30
0.0
 10
911.1916331079891
 20
-1962.272013240195
 30
0.0
 10
907.1279342865983
 20
-1962.726865987627
 30
0.0
 10
904.9460385721122
 20
-1959.877926360366
 30
0.0
 10
903.8974561273194
 20
-1958.508773811229
 30
0.0
 10
903.9681077469307
 20
-1956.716984369299
 30
0.0
 10
904.1789156903165
 20
-1955.093473176533
 30
0.0
 10
904.4035516265774
 20
-1953.363467414105
 30
0.0
 10
904.7358068427227
 20
-1951.641508981551
 30
0.0
 10
905.1164105677449
 20
-1949.939624406098
 30
0.0
 10
905.8973305466853
 20
-1946.447709904342
 30
0.0
 10
906.9618284401736
 20
-1943.019862862415
 30
0.0
 10
908.2891561942837
 20
-1939.697134488799
 30
0.0
 10
910.9016120068723
 20
-1933.157317155484
 30
0.0
 10
914.5836885796949
 20
-1927.004926440555
 30
0.0
 10
919.1299660871933
 20
-1921.626245406697
 30
0.0
 10
919.6995919637847
 20
-1920.952323523627
 30
0.0
 10
920.2834273563684
 20
-1920.290692631951
 30
0.0
 10
920.8791410621525
 20
-1919.639739067144
 30
0.0
 10
921.6442774988912
 20
-1918.803652392921
 30
0.0
 10
920.4002396608778
 20
-1917.552876059465
 30
0.0
 10
919.6318832678725
 20
-1918.39248127286
 30
0.0
 10
919.6318832678725
 20
-1918.39248127286
 30
0.0
 10
919.6318832678725
 20
-1918.39248127286
 30
0.0
 10
919.6318832678725
 20
-1918.39248127286
 30
0.0
  0
HATCH
  5
85
330
70
100
AcDbEntity
  8
2022-034
 62
    18
420
        0
440
 33554687
100
AcDbHatch
 10
0.0
 20
0.0
 30
0.0
210
0.0
220
0.0
230
1.0
  2
SOLID
 70
     1
 71
     1
 91
        1
 92
        1
 93
        1
 72
     4
 94
        3
 73
     0
 74
     0
 95
       74
 96
       70
 40
0.0
 40
0.0
 40
0.0
 40
0.0
 40
1.0
 40
1.0
 40
1.0
 40
2.0
 40
2.0
 40
2.0
 40
3.0
 40
3.0
 40
3.0
 40
4.0
 40
4.0
 40
4.0
 40
5.0
 40
5.0
 40
5.0
 40
6.0
 40
6.0
 40
6.0
 40
7.0
 40
7.0
 40
7.0
 40
8.0
 40
8.0
 40
8.0
 40
9.0
 40
9.0
 40
9.0
 40
10.0
 40
10.0
 40
10.0
 40
11.0
 40
11.0
 40
11.0
 40
12.0
 40
12.0
 40
12.0
 40
13.0
 40
13.0
 40
13.0
 40
14.0
 40
14.0
 40
14.0
 40
15.0
 40
15.0
 40
15.0
 40
16.0
 40
16.0
 40
16.0
 40
17.0
 40
17.0
 40
17.0
 40
18.0
 40
18.0
 40
18.0
 40
19.0
 40
19.0
 40
19.0
 40
20.0
 40
20.0
 40
20.0
 40
21.0
 40
21.0
 40
21.0
 40
22.0
 40
22.0
 40
22.0
 40
23.0
 40
23.0
 40
23.0
 40
23.0
 10
919.6318832678725
 20
-1918.39248127286
 10
914.681957035547
 20
-1923.801408573291
 10
910.6173364899856
 20
-1930.00982930269
 10
907.6474384589026
 20
-1936.713622166424
 10
906.1668070145497
 20
-1940.055772774489
 10
904.9385443030278
 20
-1943.506944158792
 10
904.0068958313085
 20
-1947.042259295409
 10
903.5385325657722
 20
-1948.819551688787
 10
903.1437506601346
 20
-1950.616252240186
 10
902.8251854367676
 20
-1952.426414222812
 10
902.4926141834122
 20
-1954.316161738169
 10
902.103800580282
 20
-1956.279901089688
 10
902.3943766190043
 20
-1958.198126928672
 10
902.9388985211902
 20
-1961.792766002355
 10
906.4898032750354
 20
-1963.796366481907
 10
909.88699502831
 20
-1963.841498452267
 10
911.9588935429908
 20
-1963.869023793535
 10
913.9896605377277
 20
-1963.291374651802
 10
915.9211765943465
 20
-1962.593605504994
 10
917.7255404743375
 20
-1961.941770672579
 10
919.5032555843457
 20
-1961.214588233573
 10
921.2690120388376
 20
-1960.465288752869
 10
928.2349100931654
 20
-1957.509307036675
 10
934.9400393554054
 20
-1953.98740445847
 10
941.8267634710053
 20
-1950.858243154877
 10
948.5860358100948
 20
-1947.786992863899
 10
955.5916034413112
 20
-1945.093973287998
 10
962.9463907773951
 20
-1943.877596920119
 10
963.8106252719342
 20
-1943.734664926654
 10
964.6776955485513
 20
-1943.614508035532
 10
965.5481684607194
 20
-1943.516634929314
 10
966.0214472951539
 20
-1943.463421016525
 10
966.4301129049434
 20
-1943.149379573448
 10
966.4301129049434
 20
-1942.634690485089
 10
966.4301129049434
 20
-1942.199228455347
 10
966.0245802874683
 20
-1941.699179864745
 10
965.5481684607194
 20
-1941.752746040865
 10
958.2203123112563
 20
-1942.576666042553
 10
951.2266944342181
 20
-1944.899066450943
 10
944.4694663571336
 20
-1947.777351941754
 10
937.6992986774533
 20
-1950.661149140912
 10
931.17288019902
 20
-1954.073888389888
 10
924.4817920051255
 20
-1957.130314680445
 10
921.1261273050437
 20
-1958.663150822251
 10
917.7126330168206
 20
-1960.208300481697
 10
914.1908084586741
 20
-1961.322858735868
 10
911.1916331079891
 20
-1962.272013240195
 10
907.1279342865983
 20
-1962.726865987627
 10
904.9460385721122
 20
-1959.877926360366
 10
903.8974561273194
 20
-1958.508773811229
 10
903.9681077469307
 20
-1956.716984369299
 10
904.1789156903165
 20
-1955.093473176533
 10
904.4035516265774
 20
-1953.363467414105
 10
904.7358068427227
 20
-1951.641508981551
 10
905.1164105677449
 20
-1949.939624406098
 10
905.8973305466853
 20
-1946.447709904342
 10
906.9618284401736
 20
-1943.019862862415
 10
908.2891561942837
 20
-1939.697134488799
 10
910.9016120068723
 20
-1933.157317155484
 10
914.5836885796949
 20
-1927.004926440555
 10
919.1299660871933
 20
-1921.626245406697
 10
919.6995919637847
 20
-1920.952323523627
 10
920.2834273563684
 20
-1920.290692631951
 10
920.8791410621525
 20
-1919.639739067144
 10
921.6442774988912
 20
-1918.803652392921
 10
920.4002396608778
 20
-1917.552876059465
 10
919.6318832678725
 20
-1918.39248127286
 10
919.6318832678725
 20
-1918.39248127286
 10
919.6318832678725
 20
-1918.39248127286
 10
919.6318832678725
 20
-1918.39248127286
 97
        0
 97
        1
330
84
 75
     2
 76
     1
 98
        1
 10
0.0
 20
0.0
450
        0
451
        0
460
0.0
461
0.0
452
        0
462
0.0
453
        0
470

  0
SPLINE
  5
86
330
70
100
AcDbEntity
  8
2022-034
100
AcDbSpline
210
0.0
220
0.0
230
1.0
 70
     9
 71
     3
 72
    47
 73
    43
 74
     0
 42
0.0000000001
 43
0.0000000001
 40
0.0
 40
0.0
 40
0.0
 40
0.0
 40
1.0
 40
1.0
 40
1.0
 40
2.0
 40
2.0
 40
2.0
 40
3.0
 40
3.0
 40
3.0
 40
4.0
 40
4.0
 40
4.0
 40
5.0
 40
5.0
 40
5.0
 40
6.0
 40
6.0
 40
6.0
 40
7.0
 40
7.0
 40
7.0
 40
8.0
 40
8.0
 40
8.0
 40
9.0
 40
9.0
 40
9.0
 40
10.0
 40
10.0
 40
10.0
 40
11.0
 40
11.0
 40
11.0
 40
12.0
 40
12.0
 40
12.0
 40
13.0
 40
13.0
 40
13.0
 40
14.0
 40
14.0
 40
14.0
 40
14.0
 10
928.7209589056541
 20
-1952.128021967331
 30
0.0
 10
928.4419815481241
 20
-1945.757749081546
 30
0.0
 10
929.2764869032854
 20
-1939.390659403201
 30
0.0
 10
931.1891012403078
 20
-1933.307868719825
 30
0.0
 10
930.6517766703622
 20
-1933.378094879654
 30
0.0
 10
930.1144521004133
 20
-1933.448321039487
 30
0.0
 10
929.5771275304684
 20
-1933.518547199319
 30
0.0
 10
932.0434171004306
 20
-1938.512062567223
 30
0.0
 10
934.7556512027731
 20
-1943.382925239262
 30
0.0
 10
937.706613434028
 20
-1948.106335118319
 30
0.0
 10
940.6837268469043
 20
-1952.871603462488
 30
0.0
 10
943.9039329901362
 20
-1957.481122760232
 30
0.0
 10
947.3402575244085
 20
-1961.926333864268
 30
0.0
 10
949.2613119304788
 20
-1964.411399605916
 30
0.0
 10
951.2518845153051
 20
-1966.841904893813
 30
0.0
 10
953.3085894324035
 20
-1969.215908202802
 30
0.0
 10
953.6206438749045
 20
-1969.576104880957
 30
0.0
 10
954.2359972402085
 20
-1969.535758189277
 30
0.0
 10
954.5558472266835
 20
-1969.215908202802
 30
0.0
 10
954.9130895133185
 20
-1968.858665916167
 30
0.0
 10
954.8686766642727
 20
-1968.329741644217
 30
0.0
 10
954.5558472266835
 20
-1967.968650408518
 30
0.0
 10
950.9405986146054
 20
-1963.795658893536
 30
0.0
 10
947.5331166714674
 20
-1959.446706054503
 30
0.0
 10
944.3531055666683
 20
-1954.933109475355
 30
0.0
 10
941.1608244596973
 20
-1950.402097284117
 30
0.0
 10
938.1936364593039
 20
-1945.712471901464
 30
0.0
 10
935.4667078090578
 20
-1940.887053473928
 30
0.0
 10
933.9343707037748
 20
-1938.175516556977
 30
0.0
 10
932.4794056044012
 20
-1935.420779241417
 30
0.0
 10
931.1001938775016
 20
-1932.628278702244
 30
0.0
 10
930.7469663710175
 20
-1931.913096266465
 30
0.0
 10
929.7014214602839
 20
-1932.160901595017
 30
0.0
 10
929.4882201676619
 20
-1932.838957181738
 30
0.0
 10
927.5328690240851
 20
-1939.057666039368
 30
0.0
 10
926.6718570712052
 20
-1945.615363331929
 30
0.0
 10
926.957070017206
 20
-1952.128021967331
 30
0.0
 10
927.0065860812829
 20
-1953.258690216481
 30
0.0
 10
928.7707446994104
 20
-1953.26484932447
 30
0.0
 10
928.7209589056541
 20
-1952.128021967331
 30
0.0
 10
928.7209589056541
 20
-1952.128021967331
 30
0.0
 10
928.7209589056541
 20
-1952.128021967331
 30
0.0
 10
928.7209589056541
 20
-1952.128021967331
 30
0.0
  0
HATCH
  5
87
330
70
100
AcDbEntity
  8
2022-034
 62
    18
420
        0
440
 33554687
100
AcDbHatch
 10
0.0
 20
0.0
 30
0.0
210
0.0
220
0.0
230
1.0
  2
SOLID
 70
     1
 71
     1
 91
        1
 92
        1
 93
        1
 72
     4
 94
        3
 73
     0
 74
     0
 95
       47
 96
       43
 40
0.0
 40
0.0
 40
0.0
 40
0.0
 40
1.0
 40
1.0
 40
1.0
 40
2.0
 40
2.0
 40
2.0
 40
3.0
 40
3.0
 40
3.0
 40
4.0
 40
4.0
 40
4.0
 40
5.0
 40
5.0
 40
5.0
 40
6.0
 40
6.0
 40
6.0
 40
7.0
 40
7.0
 40
7.0
 40
8.0
 40
8.0
 40
8.0
 40
9.0
 40
9.0
 40
9.0
 40
10.0
 40
10.0
 40
10.0
 40
11.0
 40
11.0
 40
11.0
 40
12.0
 40
12.0
 40
12.0
 40
13.0
 40
13.0
 40
13.0
 40
14.0
 40
14.0
 40
14.0
 40
14.0
 10
928.7209589056541
 20
-1952.128021967331
 10
928.4419815481241
 20
-1945.757749081546
 10
929.2764869032854
 20
-1939.390659403201
 10
931.1891012403078
 20
-1933.307868719825
 10
930.6517766703622
 20
-1933.378094879654
 10
930.1144521004133
 20
-1933.448321039487
 10
929.5771275304684
 20
-1933.518547199319
 10
932.0434171004306
 20
-1938.512062567223
 10
934.7556512027731
 20
-1943.382925239262
 10
937.706613434028
 20
-1948.106335118319
 10
940.6837268469043
 20
-1952.871603462488
 10
943.9039329901362
 20
-1957.481122760232
 10
947.3402575244085
 20
-1961.926333864268
 10
949.2613119304788
 20
-1964.411399605916
 10
951.2518845153051
 20
-1966.841904893813
 10
953.3085894324035
 20
-1969.215908202802
 10
953.6206438749045
 20
-1969.576104880957
 10
954.2359972402085
 20
-1969.535758189277
 10
954.5558472266835
 20
-1969.215908202802
 10
954.9130895133185
 20
-1968.858665916167
 10
954.8686766642727
 20
-1968.329741644217
 10
954.5558472266835
 20
-1967.968650408518
 10
950.9405986146054
 20
-1963.795658893536
 10
947.5331166714674
 20
-1959.446706054503
 10
944.3531055666683
 20
-1954.933109475355
 10
941.1608244596973
 20
-1950.402097284117
 10
938.1936364593039
 20
-1945.712471901464
 10
935.4667078090578
 20
-1940.887053473928
 10
933.9343707037748
 20
-1938.175516556977
 10
932.4794056044012
 20
-1935.420779241417
 10
931.1001938775016
 20
-1932.628278702244
 10
930.7469663710175
 20
-1931.913096266465
 10
929.7014214602839
 20
-1932.160901595017
 10
929.4882201676619
 20
-1932.838957181738
 10
927.5328690240851
 20
-1939.057666039368
 10
926.6718570712052
 20
-1945.615363331929
 10
926.957070017206
 20
-1952.128021967331
 10
927.0065860812829
 20
-1953.258690216481
 10
928.7707446994104
 20
-1953.26484932447
 10
928.7209589056541
 20
-1952.128021967331
 10
928.7209589056541
 20
-1952.128021967331
 10
928.7209589056541
 20
-1952.128021967331
 10
928.7209589056541
 20
-1952.128021967331
 97
        0
 97
        1
330
86
 75
     2
 76
     1
 98
        1
 10
0.0
 20
0.0
450
        0
451
        0
460
0.0
461
0.0
452
        0
462
0.0
453
        0
470

  0
SPLINE
  5
88
330
70
100
AcDbEntity
  8
2022-034
100
AcDbSpline
210
0.0
220
0.0
230
1.0
 70
     9
 71
     3
 72
    50
 73
    46
 74
     0
 42
0.0000000001
 43
0.0000000001
 40
0.0
 40
0.0
 40
0.0
 40
0.0
 40
1.0
 40
1.0
 40
1.0
 40
2.0
 40
2.0
 40
2.0
 40
3.0
 40
3.0
 40
3.0
 40
4.0
 40
4.0
 40
4.0
 40
5.0
 40
5.0
 40
5.0
 40
6.0
 40
6.0
 40
6.0
 40
7.0
 40
7.0
 40
7.0
 40
8.0
 40
8.0
 40
8.0
 40
9.0
 40
9.0
 40
9.0
 40
10.0
 40
10.0
 40
10.0
 40
11.0
 40
11.0
 40
11.0
 40
12.0
 40
12.0
 40
12.0
 40
13.0
 40
13.0
 40
13.0
 40
14.0
 40
14.0
 40
14.0
 40
15.0
 40
15.0
 40
15.0
 40
15.0
 10
958.3224405591721
 20
-1956.172940219361
 30
0.0
 10
958.3411649198154
 20
-1955.970952972302
 30
0.0
 10
958.573727929777
 20
-1955.853020017384
 30
0.0
 10
958.7458047501081
 20
-1955.851020047
 30
0.0
 10
958.4518232687011
 20
-1955.557038565592
 30
0.0
 10
958.1578417872949
 20
-1955.263057084182
 30
0.0
 10
957.8638603058843
 20
-1954.969075602775
 30
0.0
 10
957.7685053493198
 20
-1958.812860233459
 30
0.0
 10
956.9098175585033
 20
-1962.63205353232
 30
0.0
 10
955.3169833404895
 20
-1966.134492061362
 30
0.0
 10
954.9617455573448
 20
-1966.915614468562
 30
0.0
 10
955.7001777774154
 20
-1967.785804254812
 30
0.0
 10
956.523650762541
 20
-1967.341159483414
 30
0.0
 10
959.6001705120805
 20
-1965.679953292751
 30
0.0
 10
962.5153826475887
 20
-1963.756038116976
 30
0.0
 10
965.2741188918014
 20
-1961.609345803912
 30
0.0
 10
965.6503626312174
 20
-1961.316574233259
 30
0.0
 10
965.5815225098487
 20
-1960.669491627678
 30
0.0
 10
965.2741188918014
 20
-1960.362088009631
 30
0.0
 10
964.9027216469178
 20
-1959.990690764747
 30
0.0
 10
964.4040895597399
 20
-1960.068550183455
 30
0.0
 10
964.0268610975212
 20
-1960.362088009631
 30
0.0
 10
961.3904332649273
 20
-1962.413606843316
 30
0.0
 10
958.5721054311596
 20
-1964.23129197373
 30
0.0
 10
955.6333822654698
 20
-1965.818093136381
 30
0.0
 10
956.0356047394874
 20
-1966.220315610399
 30
0.0
 10
956.4378272135046
 20
-1966.622538084416
 30
0.0
 10
956.840049687522
 20
-1967.024760558437
 30
0.0
 10
958.5666169032265
 20
-1963.228260288112
 30
0.0
 10
959.5242488403076
 20
-1959.141203454465
 30
0.0
 10
959.6277491943322
 20
-1954.969075602775
 30
0.0
 10
959.6394755070077
 20
-1954.496384700657
 30
0.0
 10
959.2141988485742
 20
-1954.081687227617
 30
0.0
 10
958.7458047501081
 20
-1954.087131158552
 30
0.0
 10
957.5474834979109
 20
-1954.101058699812
 30
0.0
 10
956.6664668741754
 20
-1955.008815297988
 30
0.0
 10
956.5585516707242
 20
-1956.172940219361
 30
0.0
 10
956.5145247116618
 20
-1956.647876823427
 30
0.0
 10
956.9954159041049
 20
-1957.054884663585
 30
0.0
 10
957.4404961149481
 20
-1957.054884663585
 30
0.0
 10
957.9541360012521
 20
-1957.054884663585
 30
0.0
 10
958.2782880015617
 20
-1956.649231705753
 30
0.0
 10
958.3224405591721
 20
-1956.172940219361
 30
0.0
 10
958.3224405591721
 20
-1956.172940219361
 30
0.0
 10
958.3224405591721
 20
-1956.172940219361
 30
0.0
 10
958.3224405591721
 20
-1956.172940219361
 30
0.0
  0
HATCH
  5
89
330
70
100
AcDbEntity
  8
2022-034
 62
    18
420
        0
440
 33554687
100
AcDbHatch
 10
0.0
 20
0.0
 30
0.0
210
0.0
220
0.0
230
1.0
  2
SOLID
 70
     1
 71
     1
 91
        1
 92
        1
 93
        1
 72
     4
 94
        3
 73
     0
 74
     0
 95
       50
 96
       46
 40
0.0
 40
0.0
 40
0.0
 40
0.0
 40
1.0
 40
1.0
 40
1.0
 40
2.0
 40
2.0
 40
2.0
 40
3.0
 40
3.0
 40
3.0
 40
4.0
 40
4.0
 40
4.0
 40
5.0
 40
5.0
 40
5.0
 40
6.0
 40
6.0
 40
6.0
 40
7.0
 40
7.0
 40
7.0
 40
8.0
 40
8.0
 40
8.0
 40
9.0
 40
9.0
 40
9.0
 40
10.0
 40
10.0
 40
10.0
 40
11.0
 40
11.0
 40
11.0
 40
12.0
 40
12.0
 40
12.0
 40
13.0
 40
13.0
 40
13.0
 40
14.0
 40
14.0
 40
14.0
 40
15.0
 40
15.0
 40
15.0
 40
15.0
 10
958.3224405591721
 20
-1956.172940219361
 10
958.3411649198154
 20
-1955.970952972302
 10
958.573727929777
 20
-1955.853020017384
 10
958.7458047501081
 20
-1955.851020047
 10
958.4518232687011
 20
-1955.557038565592
 10
958.1578417872949
 20
-1955.263057084182
 10
957.8638603058843
 20
-1954.969075602775
 10
957.7685053493198
 20
-1958.812860233459
 10
956.9098175585033
 20
-1962.63205353232
 10
955.3169833404895
 20
-1966.134492061362
 10
954.9617455573448
 20
-1966.915614468562
 10
955.7001777774154
 20
-1967.785804254812
 10
956.523650762541
 20
-1967.341159483414
 10
959.6001705120805
 20
-1965.679953292751
 10
962.5153826475887
 20
-1963.756038116976
 10
965.2741188918014
 20
-1961.609345803912
 10
965.6503626312174
 20
-1961.316574233259
 10
965.5815225098487
 20
-1960.669491627678
 10
965.2741188918014
 20
-1960.362088009631
 10
964.9027216469178
 20
-1959.990690764747
 10
964.4040895597399
 20
-1960.068550183455
 10
964.0268610975212
 20
-1960.362088009631
 10
961.3904332649273
 20
-1962.413606843316
 10
958.5721054311596
 20
-1964.23129197373
 10
955.6333822654698
 20
-1965.818093136381
 10
956.0356047394874
 20
-1966.220315610399
 10
956.4378272135046
 20
-1966.622538084416
 10
956.840049687522
 20
-1967.024760558437
 10
958.5666169032265
 20
-1963.228260288112
 10
959.5242488403076
 20
-1959.141203454465
 10
959.6277491943322
 20
-1954.969075602775
 10
959.6394755070077
 20
-1954.496384700657
 10
959.2141988485742
 20
-1954.081687227617
 10
958.7458047501081
 20
-1954.087131158552
 10
957.5474834979109
 20
-1954.101058699812
 10
956.6664668741754
 20
-1955.008815297988
 10
956.5585516707242
 20
-1956.172940219361
 10
956.5145247116618
 20
-1956.647876823427
 10
956.9954159041049
 20
-1957.054884663585
 10
957.4404961149481
 20
-1957.054884663585
 10
957.9541360012521
 20
-1957.054884663585
 10
958.2782880015617
 20
-1956.649231705753
 10
958.3224405591721
 20
-1956.172940219361
 10
958.3224405591721
 20
-1956.172940219361
 10
958.3224405591721
 20
-1956.172940219361
 10
958.3224405591721
 20
-1956.172940219361
 97
        0
 97
        1
330
88
 75
     2
 76
     1
 98
        1
 10
0.0
 20
0.0
450
        0
451
        0
460
0.0
461
0.0
452
        0
462
0.0
453
        0
470

  0
SPLINE
  5
8A
330
70
100
AcDbEntity
  8
2022-034
100
AcDbSpline
210
0.0
220
0.0
230
1.0
 70
     9
 71
     3
 72
    50
 73
    46
 74
     0
 42
0.0000000001
 43
0.0000000001
 40
0.0
 40
0.0
 40
0.0
 40
0.0
 40
1.0
 40
1.0
 40
1.0
 40
2.0
 40
2.0
 40
2.0
 40
3.0
 40
3.0
 40
3.0
 40
4.0
 40
4.0
 40
4.0
 40
5.0
 40
5.0
 40
5.0
 40
6.0
 40
6.0
 40
6.0
 40
7.0
 40
7.0
 40
7.0
 40
8.0
 40
8.0
 40
8.0
 40
9.0
 40
9.0
 40
9.0
 40
10.0
 40
10.0
 40
10.0
 40
11.0
 40
11.0
 40
11.0
 40
12.0
 40
12.0
 40
12.0
 40
13.0
 40
13.0
 40
13.0
 40
14.0
 40
14.0
 40
14.0
 40
15.0
 40
15.0
 40
15.0
 40
15.0
 10
963.3627991165754
 20
-1949.487066771418
 30
0.0
 10
963.3815234772182
 20
-1949.285079524359
 30
0.0
 10
963.6140864871798
 20
-1949.167146569441
 30
0.0
 10
963.7861633075116
 20
-1949.165146599056
 30
0.0
 10
963.4921818261046
 20
-1948.871165117649
 30
0.0
 10
963.1982003446939
 20
-1948.577183636239
 30
0.0
 10
962.9042188632878
 20
-1948.283202154832
 30
0.0
 10
962.8088639067225
 20
-1952.126986785516
 30
0.0
 10
961.950176115906
 20
-1955.946180084377
 30
0.0
 10
960.3573418978923
 20
-1959.44861861342
 30
0.0
 10
960.0021041147483
 20
-1960.229741020619
 30
0.0
 10
960.7405363348181
 20
-1961.099930806869
 30
0.0
 10
961.5640093199445
 20
-1960.655286035471
 30
0.0
 10
964.6405290694833
 20
-1958.994079844808
 30
0.0
 10
967.5557412049917
 20
-1957.070164669032
 30
0.0
 10
970.3144774492049
 20
-1954.923472355968
 30
0.0
 10
970.6907211886203
 20
-1954.630700785315
 30
0.0
 10
970.6218810672515
 20
-1953.983618179735
 30
0.0
 10
970.3144774492049
 20
-1953.676214561688
 30
0.0
 10
969.9430802043208
 20
-1953.304817316804
 30
0.0
 10
969.4444481171434
 20
-1953.382676735513
 30
0.0
 10
969.0672196549241
 20
-1953.676214561688
 30
0.0
 10
966.4307918223302
 20
-1955.727733395373
 30
0.0
 10
963.6124639885593
 20
-1957.545418525787
 30
0.0
 10
960.6737408228701
 20
-1959.132219688439
 30
0.0
 10
961.0759632968875
 20
-1959.534442162456
 30
0.0
 10
961.4781857709049
 20
-1959.936664636473
 30
0.0
 10
961.8804082449216
 20
-1960.338887110493
 30
0.0
 10
963.60697546063
 20
-1956.542386840169
 30
0.0
 10
964.5646073977104
 20
-1952.455330006522
 30
0.0
 10
964.6681077517357
 20
-1948.283202154832
 30
0.0
 10
964.6798340644105
 20
-1947.810511252709
 30
0.0
 10
964.2545574059738
 20
-1947.395813779674
 30
0.0
 10
963.7861633075116
 20
-1947.401257710608
 30
0.0
 10
962.5878420553144
 20
-1947.415185251869
 30
0.0
 10
961.7068254315782
 20
-1948.322941850044
 30
0.0
 10
961.5989102281277
 20
-1949.487066771418
 30
0.0
 10
961.5548832690645
 20
-1949.962003375483
 30
0.0
 10
962.0357744615077
 20
-1950.369011215642
 30
0.0
 10
962.4808546723516
 20
-1950.369011215642
 30
0.0
 10
962.9944945586549
 20
-1950.369011215642
 30
0.0
 10
963.3186465589647
 20
-1949.96335825781
 30
0.0
 10
963.3627991165754
 20
-1949.487066771418
 30
0.0
 10
963.3627991165754
 20
-1949.487066771418
 30
0.0
 10
963.3627991165754
 20
-1949.487066771418
 30
0.0
 10
963.3627991165754
 20
-1949.487066771418
 30
0.0
  0
HATCH
  5
8B
330
70
100
AcDbEntity
  8
2022-034
 62
    18
420
        0
440
 33554687
100
AcDbHatch
 10
0.0
 20
0.0
 30
0.0
210
0.0
220
0.0
230
1.0
  2
SOLID
 70
     1
 71
     1
 91
        1
 92
        1
 93
        1
 72
     4
 94
        3
 73
     0
 74
     0
 95
       50
 96
       46
 40
0.0
 40
0.0
 40
0.0
 40
0.0
 40
1.0
 40
1.0
 40
1.0
 40
2.0
 40
2.0
 40
2.0
 40
3.0
 40
3.0
 40
3.0
 40
4.0
 40
4.0
 40
4.0
 40
5.0
 40
5.0
 40
5.0
 40
6.0
 40
6.0
 40
6.0
 40
7.0
 40
7.0
 40
7.0
 40
8.0
 40
8.0
 40
8.0
 40
9.0
 40
9.0
 40
9.0
 40
10.0
 40
10.0
 40
10.0
 40
11.0
 40
11.0
 40
11.0
 40
12.0
 40
12.0
 40
12.0
 40
13.0
 40
13.0
 40
13.0
 40
14.0
 40
14.0
 40
14.0
 40
15.0
 40
15.0
 40
15.0
 40
15.0
 10
963.3627991165754
 20
-1949.487066771418
 10
963.3815234772182
 20
-1949.285079524359
 10
963.6140864871798
 20
-1949.167146569441
 10
963.7861633075116
 20
-1949.165146599056
 10
963.4921818261046
 20
-1948.871165117649
 10
963.1982003446939
 20
-1948.577183636239
 10
962.9042188632878
 20
-1948.283202154832
 10
962.8088639067225
 20
-1952.126986785516
 10
961.950176115906
 20
-1955.946180084377
 10
960.3573418978923
 20
-1959.44861861342
 10
960.0021041147483
 20
-1960.229741020619
 10
960.7405363348181
 20
-1961.099930806869
 10
961.5640093199445
 20
-1960.655286035471
 10
964.6405290694833
 20
-1958.994079844808
 10
967.5557412049917
 20
-1957.070164669032
 10
970.3144774492049
 20
-1954.923472355968
 10
970.6907211886203
 20
-1954.630700785315
 10
970.6218810672515
 20
-1953.983618179735
 10
970.3144774492049
 20
-1953.676214561688
 10
969.9430802043208
 20
-1953.304817316804
 10
969.4444481171434
 20
-1953.382676735513
 10
969.0672196549241
 20
-1953.676214561688
 10
966.4307918223302
 20
-1955.727733395373
 10
963.6124639885593
 20
-1957.545418525787
 10
960.6737408228701
 20
-1959.132219688439
 10
961.0759632968875
 20
-1959.534442162456
 10
961.4781857709049
 20
-1959.936664636473
 10
961.8804082449216
 20
-1960.338887110493
 10
963.60697546063
 20
-1956.542386840169
 10
964.5646073977104
 20
-1952.455330006522
 10
964.6681077517357
 20
-1948.283202154832
 10
964.6798340644105
 20
-1947.810511252709
 10
964.2545574059738
 20
-1947.395813779674
 10
963.7861633075116
 20
-1947.401257710608
 10
962.5878420553144
 20
-1947.415185251869
 10
961.7068254315782
 20
-1948.322941850044
 10
961.5989102281277
 20
-1949.487066771418
 10
961.5548832690645
 20
-1949.962003375483
 10
962.0357744615077
 20
-1950.369011215642
 10
962.4808546723516
 20
-1950.369011215642
 10
962.9944945586549
 20
-1950.369011215642
 10
963.3186465589647
 20
-1949.96335825781
 10
963.3627991165754
 20
-1949.487066771418
 10
963.3627991165754
 20
-1949.487066771418
 10
963.3627991165754
 20
-1949.487066771418
 10
963.3627991165754
 20
-1949.487066771418
 97
        0
 97
        1
330
8A
 75
     2
 76
     1
 98
        1
 10
0.0
 20
0.0
450
        0
451
        0
460
0.0
461
0.0
452
        0
462
0.0
453
        0
470

  0
SPLINE
  5
8C
330
70
100
AcDbEntity
  8
2022-034
100
AcDbSpline
210
0.0
220
0.0
230
1.0
 70
     9
 71
     3
 72
   155
 73
   151
 74
     0
 42
0.0000000001
 43
0.0000000001
 40
0.0
 40
0.0
 40
0.0
 40
0.0
 40
1.0
 40
1.0
 40
1.0
 40
2.0
 40
2.0
 40
2.0
 40
3.0
 40
3.0
 40
3.0
 40
4.0
 40
4.0
 40
4.0
 40
5.0
 40
5.0
 40
5.0
 40
6.0
 40
6.0
 40
6.0
 40
7.0
 40
7.0
 40
7.0
 40
8.0
 40
8.0
 40
8.0
 40
9.0
 40
9.0
 40
9.0
 40
10.0
 40
10.0
 40
10.0
 40
11.0
 40
11.0
 40
11.0
 40
12.0
 40
12.0
 40
12.0
 40
13.0
 40
13.0
 40
13.0
 40
14.0
 40
14.0
 40
14.0
 40
15.0
 40
15.0
 40
15.0
 40
16.0
 40
16.0
 40
16.0
 40
17.0
 40
17.0
 40
17.0
 40
18.0
 40
18.0
 40
18.0
 40
19.0
 40
19.0
 40
19.0
 40
20.0
 40
20.0
 40
20.0
 40
21.0
 40
21.0
 40
21.0
 40
22.0
 40
22.0
 40
22.0
 40
23.0
 40
23.0
 40
23.0
 40
24.0
 40
24.0
 40
24.0
 40
25.0
 40
25.0
 40
25.0
 40
26.0
 40
26.0
 40
26.0
 40
27.0
 40
27.0
 40
27.0
 40
28.0
 40
28.0
 40
28.0
 40
29.0
 40
29.0
 40
29.0
 40
30.0
 40
30.0
 40
30.0
 40
31.0
 40
31.0
 40
31.0
 40
32.0
 40
32.0
 40
32.0
 40
33.0
 40
33.0
 40
33.0
 40
34.0
 40
34.0
 40
34.0
 40
35.0
 40
35.0
 40
35.0
 40
36.0
 40
36.0
 40
36.0
 40
37.0
 40
37.0
 40
37.0
 40
38.0
 40
38.0
 40
38.0
 40
39.0
 40
39.0
 40
39.0
 40
40.0
 40
40.0
 40
40.0
 40
41.0
 40
41.0
 40
41.0
 40
42.0
 40
42.0
 40
42.0
 40
43.0
 40
43.0
 40
43.0
 40
44.0
 40
44.0
 40
44.0
 40
45.0
 40
45.0
 40
45.0
 40
46.0
 40
46.0
 40
46.0
 40
47.0
 40
47.0
 40
47.0
 40
48.0
 40
48.0
 40
48.0
 40
49.0
 40
49.0
 40
49.0
 40
50.0
 40
50.0
 40
50.0
 40
50.0
 10
390.4616101454402
 20
-880.8757756044339
 30
0.0
 10
390.0307148276245
 20
-873.8997156289663
 30
0.0
 10
390.2089985189862
 20
-866.8870515139659
 30
0.0
 10
390.0302841906869
 20
-859.8930770419711
 30
0.0
 10
389.790247162754
 20
-850.5022635135029
 30
0.0
 10
389.4090473473111
 20
-841.1144644435861
 30
0.0
 10
389.2135381785232
 20
-831.7227035138575
 30
0.0
 10
389.1243102054552
 20
-827.4377798766929
 30
0.0
 10
389.5725601917789
 20
-823.1335637048069
 30
0.0
 10
389.3327384823128
 20
-818.8629372139059
 30
0.0
 10
389.1437749949469
 20
-815.4969927974278
 30
0.0
 10
387.9341589063793
 20
-812.186428290877
 30
0.0
 10
387.7686651320094
 20
-808.8220341673711
 30
0.0
 10
387.1966931540689
 20
-797.1891524971022
 30
0.0
 10
386.888658553995
 20
-785.5430933366003
 30
0.0
 10
386.4693904334401
 20
-773.9022879467154
 30
0.0
 10
386.172983030627
 20
-765.6761750744249
 30
0.0
 10
385.6755112425568
 20
-757.4520431320364
 30
0.0
 10
385.6089778359989
 20
-749.2243799667737
 30
0.0
 10
385.5517461872512
 20
-742.1481538400707
 30
0.0
 10
386.1721217567556
 20
-735.0677074714
 30
0.0
 10
386.1408575152289
 20
-727.990361688662
 30
0.0
 10
386.0996886241801
 20
-718.6877426046163
 30
0.0
 10
385.6811095227223
 20
-709.3875350874101
 30
0.0
 10
385.4893038315791
 20
-700.08474374859
 30
0.0
 10
385.3870706230562
 20
-695.1263039440589
 30
0.0
 10
385.4960217677753
 20
-690.1627826236851
 30
0.0
 10
385.3729887952593
 20
-685.205462475185
 30
0.0
 10
385.234926593686
 20
-679.6417624575842
 30
0.0
 10
384.7732407349699
 20
-674.0827133188925
 30
0.0
 10
384.7540343276415
 20
-668.5204344031824
 30
0.0
 10
384.718205334595
 20
-658.1909184823725
 30
0.0
 10
385.2007770846894
 20
-647.8526606317642
 30
0.0
 10
384.9259015286591
 20
-637.5324034050719
 30
0.0
 10
384.471450370462
 20
-620.4691899761781
 30
0.0
 10
383.5171589210478
 20
-603.419670801836
 30
0.0
 10
382.9205545103916
 20
-586.3592565130229
 30
0.0
 10
382.69903487069
 20
-580.0237689793449
 30
0.0
 10
383.1039627812847
 20
-573.6648117326708
 30
0.0
 10
382.8406282951338
 20
-567.3328554218594
 30
0.0
 10
382.5268662238128
 20
-559.7887422645667
 30
0.0
 10
381.667702473484
 20
-552.2690462215266
 30
0.0
 10
381.2837896453494
 20
-544.726224975039
 30
0.0
 10
380.5417160778266
 20
-530.14645169038
 30
0.0
 10
379.9955823160254
 20
-515.556558437736
 30
0.0
 10
379.3168985054312
 20
-500.9731678028176
 30
0.0
 10
378.1203307160187
 20
-475.2616881136083
 30
0.0
 10
376.8822495260051
 20
-449.5521893543013
 30
0.0
 10
375.6674227305209
 20
-423.8413125568
 30
0.0
 10
374.9521347803939
 20
-408.7018835105623
 30
0.0
 10
374.4776159409934
 20
-393.5467792798704
 30
0.0
 10
373.4649301231042
 20
-378.4275040422214
 30
0.0
 10
372.6880610911803
 20
-366.8279536707704
 30
0.0
 10
371.0708040793262
 20
-355.2874651550472
 30
0.0
 10
370.1277522539317
 20
-343.6963983312308
 30
0.0
 10
368.6533805773265
 20
-325.5740118272437
 30
0.0
 10
367.4776556155959
 20
-307.4273158682387
 30
0.0
 10
366.0918659566541
 20
-289.2975870044986
 30
0.0
 10
364.8562824608693
 20
-273.1319716724397
 30
0.0
 10
363.5543808769934
 20
-256.9704904549631
 30
0.0
 10
362.1952476443697
 20
-240.8147582405776
 30
0.0
 10
360.8073048007478
 20
-224.3158729840144
 30
0.0
 10
359.7396481780243
 20
-207.7744838619019
 30
0.0
 10
357.7550793918981
 20
-191.3457062984635
 30
0.0
 10
355.4772683844399
 20
-172.4895575198116
 30
0.0
 10
355.1752411696167
 20
-153.4535962886765
 30
0.0
 10
352.1104626940905
 20
-134.6742946711925
 30
0.0
 10
351.0913388540132
 20
-128.4298437857097
 30
0.0
 10
351.1812343143315
 20
-122.0128797438023
 30
0.0
 10
350.4140976771534
 20
-115.7175706362182
 30
0.0
 10
348.6030755760979
 20
-100.8547181619065
 30
0.0
 10
346.4880453303159
 20
-86.02905118698883
 30
0.0
 10
344.6722646911214
 20
-71.16667241330674
 30
0.0
 10
342.9967855655637
 20
-57.45256549670457
 30
0.0
 10
341.6775508450277
 20
-43.69423216681082
 30
0.0
 10
339.9589218985172
 20
-29.98611110361459
 30
0.0
 10
339.9589218985172
 20
-29.98611110361459
 30
0.0
 10
291.7416884646623
 20
-29.98611110361459
 30
0.0
 10
291.7416884646623
 20
-29.98611110361459
 30
0.0
 10
292.4555983765932
 20
-37.13903366855845
 30
0.0
 10
293.1917937499442
 20
-44.28954466666199
 30
0.0
 10
293.979385641566
 20
-51.43428512982838
 30
0.0
 10
296.1825887999236
 20
-71.4217602021424
 30
0.0
 10
298.8674378389659
 20
-91.35764496956509
 30
0.0
 10
300.9318467129615
 20
-111.3585128505783
 30
0.0
 10
303.8078770195884
 20
-139.2218853072627
 30
0.0
 10
306.1333595358256
 20
-167.1419941802197
 30
0.0
 10
309.0282302083874
 20
-195.0031919203789
 30
0.0
 10
310.5526634287638
 20
-209.6745186175575
 30
0.0
 10
312.8096962040784
 20
-224.2696010452781
 30
0.0
 10
314.6928284600095
 20
-238.9044312621598
 30
0.0
 10
316.395588435441
 20
-252.1373875305529
 30
0.0
 10
318.4644328698739
 20
-265.3411466147086
 30
0.0
 10
319.6229538860231
 20
-278.6231093663793
 30
0.0
 10
322.197107700755
 20
-308.1359074140142
 30
0.0
 10
324.639788059031
 20
-337.6681056556003
 30
0.0
 10
326.4881248505611
 20
-367.2331399635322
 30
0.0
 10
327.8822042705142
 20
-389.5328554663094
 30
0.0
 10
328.159922030319
 20
-411.9003532227647
 30
0.0
 10
329.165782252778
 20
-434.2272419161828
 30
0.0
 10
329.5284216162941
 20
-442.2766644537764
 30
0.0
 10
330.911821240243
 20
-450.2819036417697
 30
0.0
 10
331.2313753783467
 20
-458.3311969882818
 30
0.0
 10
332.3566296912164
 20
-486.6739975454321
 30
0.0
 10
333.3456950731849
 20
-515.0240328031016
 30
0.0
 10
334.1500818052971
 20
-543.3776854110305
 30
0.0
 10
334.885803478019
 20
-569.3122780966062
 30
0.0
 10
335.710839251196
 20
-595.2563878584548
 30
0.0
 10
335.6631677424189
 20
-621.1945548305974
 30
0.0
 10
335.6467389433236
 20
-630.1522337291807
 30
0.0
 10
336.1849920492003
 20
-639.0669350615874
 30
0.0
 10
336.2599228760045
 20
-648.0051061069865
 30
0.0
 10
336.3358441677607
 20
-657.0635971122097
 30
0.0
 10
337.0294280163286
 20
-666.1166620920418
 30
0.0
 10
337.1005907699458
 20
-675.1748085877167
 30
0.0
 10
337.259194353348
 20
-695.3664270993808
 30
0.0
 10
336.957511648074
 20
-715.5633855090432
 30
0.0
 10
337.2973487858471
 20
-735.7505253965764
 30
0.0
 10
337.6126180864411
 20
-754.4794424925886
 30
0.0
 10
338.551169755857
 20
-773.197249155659
 30
0.0
 10
339.1536092969933
 20
-791.9217737549295
 30
0.0
 10
339.7675253124648
 20
-811.0025212273709
 30
0.0
 10
340.238319142371
 20
-830.087747323947
 30
0.0
 10
340.9153880644565
 20
-849.1661693569378
 30
0.0
 10
341.1465324396699
 20
-855.6790362444136
 30
0.0
 10
342.0314052150564
 20
-862.1714909411412
 30
0.0
 10
342.1961453747917
 20
-868.6837549369089
 30
0.0
 10
342.2896797172163
 20
-872.3822371950989
 30
0.0
 10
342.3035462265444
 20
-870.9649249124671
 30
0.0
 10
342.5472221365855
 20
-879.827777557821
 30
0.0
 10
342.5532492845666
 20
-880.0469938292216
 30
0.0
 10
343.0465671953256
 20
-882.5444076027146
 30
0.0
 10
343.2527776919646
 20
-883.3555553347165
 30
0.0
 10
343.8028733135719
 20
-885.5198504459396
 30
0.0
 10
343.3365365759497
 20
-886.4745725322876
 30
0.0
 10
343.3774255529903
 20
-888.6635862036154
 30
0.0
 10
343.5670349957598
 20
-898.8174883820665
 30
0.0
 10
343.6523011090197
 20
-908.9769027132941
 30
0.0
 10
343.5200309742328
 20
-919.131407783457
 30
0.0
 10
343.4491266027771
 20
-924.5757783061826
 30
0.0
 10
342.8630297333489
 20
-930.0136031474899
 30
0.0
 10
342.5093691499412
 20
-935.4544424473449
 30
0.0
 10
342.5093691499412
 20
-935.4544424473449
 30
0.0
 10
392.4042994895726
 20
-935.8557099439874
 30
0.0
 10
392.4042994895726
 20
-935.8557099439874
 30
0.0
 10
392.7415743375785
 20
-930.6932343593405
 30
0.0
 10
393.5902736103698
 20
-925.5033702655859
 30
0.0
 10
393.3162162645182
 20
-920.3735369606638
 30
0.0
 10
392.6121679384148
 20
-907.1944964366148
 30
0.0
 10
391.275255571671
 20
-894.0505097591262
 30
0.0
 10
390.4616101454402
 20
-880.8757756044339
 30
0.0
  0
HATCH
  5
8D
330
70
100
AcDbEntity
  8
2022-034
 62
    18
420
        0
440
 33554687
100
AcDbHatch
 10
0.0
 20
0.0
 30
0.0
210
0.0
220
0.0
230
1.0
  2
SOLID
 70
     1
 71
     1
 91
        1
 92
        1
 93
        1
 72
     4
 94
        3
 73
     0
 74
     0
 95
      155
 96
      151
 40
0.0
 40
0.0
 40
0.0
 40
0.0
 40
1.0
 40
1.0
 40
1.0
 40
2.0
 40
2.0
 40
2.0
 40
3.0
 40
3.0
 40
3.0
 40
4.0
 40
4.0
 40
4.0
 40
5.0
 40
5.0
 40
5.0
 40
6.0
 40
6.0
 40
6.0
 40
7.0
 40
7.0
 40
7.0
 40
8.0
 40
8.0
 40
8.0
 40
9.0
 40
9.0
 40
9.0
 40
10.0
 40
10.0
 40
10.0
 40
11.0
 40
11.0
 40
11.0
 40
12.0
 40
12.0
 40
12.0
 40
13.0
 40
13.0
 40
13.0
 40
14.0
 40
14.0
 40
14.0
 40
15.0
 40
15.0
 40
15.0
 40
16.0
 40
16.0
 40
16.0
 40
17.0
 40
17.0
 40
17.0
 40
18.0
 40
18.0
 40
18.0
 40
19.0
 40
19.0
 40
19.0
 40
20.0
 40
20.0
 40
20.0
 40
21.0
 40
21.0
 40
21.0
 40
22.0
 40
22.0
 40
22.0
 40
23.0
 40
23.0
 40
23.0
 40
24.0
 40
24.0
 40
24.0
 40
25.0
 40
25.0
 40
25.0
 40
26.0
 40
26.0
 40
26.0
 40
27.0
 40
27.0
 40
27.0
 40
28.0
 40
28.0
 40
28.0
 40
29.0
 40
29.0
 40
29.0
 40
30.0
 40
30.0
 40
30.0
 40
31.0
 40
31.0
 40
31.0
 40
32.0
 40
32.0
 40
32.0
 40
33.0
 40
33.0
 40
33.0
 40
34.0
 40
34.0
 40
34.0
 40
35.0
 40
35.0
 40
35.0
 40
36.0
 40
36.0
 40
36.0
 40
37.0
 40
37.0
 40
37.0
 40
38.0
 40
38.0
 40
38.0
 40
39.0
 40
39.0
 40
39.0
 40
40.0
 40
40.0
 40
40.0
 40
41.0
 40
41.0
 40
41.0
 40
42.0
 40
42.0
 40
42.0
 40
43.0
 40
43.0
 40
43.0
 40
44.0
 40
44.0
 40
44.0
 40
45.0
 40
45.0
 40
45.0
 40
46.0
 40
46.0
 40
46.0
 40
47.0
 40
47.0
 40
47.0
 40
48.0
 40
48.0
 40
48.0
 40
49.0
 40
49.0
 40
49.0
 40
50.0
 40
50.0
 40
50.0
 40
50.0
 10
390.4616101454402
 20
-880.8757756044339
 10
390.0307148276245
 20
-873.8997156289663
 10
390.2089985189862
 20
-866.8870515139659
 10
390.0302841906869
 20
-859.8930770419711
 10
389.790247162754
 20
-850.5022635135029
 10
389.4090473473111
 20
-841.1144644435861
 10
389.2135381785232
 20
-831.7227035138575
 10
389.1243102054552
 20
-827.4377798766929
 10
389.5725601917789
 20
-823.1335637048069
 10
389.3327384823128
 20
-818.8629372139059
 10
389.1437749949469
 20
-815.4969927974278
 10
387.9341589063793
 20
-812.186428290877
 10
387.7686651320094
 20
-808.8220341673711
 10
387.1966931540689
 20
-797.1891524971022
 10
386.888658553995
 20
-785.5430933366003
 10
386.4693904334401
 20
-773.9022879467154
 10
386.172983030627
 20
-765.6761750744249
 10
385.6755112425568
 20
-757.4520431320364
 10
385.6089778359989
 20
-749.2243799667737
 10
385.5517461872512
 20
-742.1481538400707
 10
386.1721217567556
 20
-735.0677074714
 10
386.1408575152289
 20
-727.990361688662
 10
386.0996886241801
 20
-718.6877426046163
 10
385.6811095227223
 20
-709.3875350874101
 10
385.4893038315791
 20
-700.08474374859
 10
385.3870706230562
 20
-695.1263039440589
 10
385.4960217677753
 20
-690.1627826236851
 10
385.3729887952593
 20
-685.205462475185
 10
385.234926593686
 20
-679.6417624575842
 10
384.7732407349699
 20
-674.0827133188925
 10
384.7540343276415
 20
-668.5204344031824
 10
384.718205334595
 20
-658.1909184823725
 10
385.2007770846894
 20
-647.8526606317642
 10
384.9259015286591
 20
-637.5324034050719
 10
384.471450370462
 20
-620.4691899761781
 10
383.5171589210478
 20
-603.419670801836
 10
382.9205545103916
 20
-586.3592565130229
 10
382.69903487069
 20
-580.0237689793449
 10
383.1039627812847
 20
-573.6648117326708
 10
382.8406282951338
 20
-567.3328554218594
 10
382.5268662238128
 20
-559.7887422645667
 10
381.667702473484
 20
-552.2690462215266
 10
381.2837896453494
 20
-544.726224975039
 10
380.5417160778266
 20
-530.14645169038
 10
379.9955823160254
 20
-515.556558437736
 10
379.3168985054312
 20
-500.9731678028176
 10
378.1203307160187
 20
-475.2616881136083
 10
376.8822495260051
 20
-449.5521893543013
 10
375.6674227305209
 20
-423.8413125568
 10
374.9521347803939
 20
-408.7018835105623
 10
374.4776159409934
 20
-393.5467792798704
 10
373.4649301231042
 20
-378.4275040422214
 10
372.6880610911803
 20
-366.8279536707704
 10
371.0708040793262
 20
-355.2874651550472
 10
370.1277522539317
 20
-343.6963983312308
 10
368.6533805773265
 20
-325.5740118272437
 10
367.4776556155959
 20
-307.4273158682387
 10
366.0918659566541
 20
-289.2975870044986
 10
364.8562824608693
 20
-273.1319716724397
 10
363.5543808769934
 20
-256.9704904549631
 10
362.1952476443697
 20
-240.8147582405776
 10
360.8073048007478
 20
-224.3158729840144
 10
359.7396481780243
 20
-207.7744838619019
 10
357.7550793918981
 20
-191.3457062984635
 10
355.4772683844399
 20
-172.4895575198116
 10
355.1752411696167
 20
-153.4535962886765
 10
352.1104626940905
 20
-134.6742946711925
 10
351.0913388540132
 20
-128.4298437857097
 10
351.1812343143315
 20
-122.0128797438023
 10
350.4140976771534
 20
-115.7175706362182
 10
348.6030755760979
 20
-100.8547181619065
 10
346.4880453303159
 20
-86.02905118698883
 10
344.6722646911214
 20
-71.16667241330674
 10
342.9967855655637
 20
-57.45256549670457
 10
341.6775508450277
 20
-43.69423216681082
 10
339.9589218985172
 20
-29.98611110361459
 10
339.9589218985172
 20
-29.98611110361459
 10
291.7416884646623
 20
-29.98611110361459
 10
291.7416884646623
 20
-29.98611110361459
 10
292.4555983765932
 20
-37.13903366855845
 10
293.1917937499442
 20
-44.28954466666199
 10
293.979385641566
 20
-51.43428512982838
 10
296.1825887999236
 20
-71.4217602021424
 10
298.8674378389659
 20
-91.35764496956509
 10
300.9318467129615
 20
-111.3585128505783
 10
303.8078770195884
 20
-139.2218853072627
 10
306.1333595358256
 20
-167.1419941802197
 10
309.0282302083874
 20
-195.0031919203789
 10
310.5526634287638
 20
-209.6745186175575
 10
312.8096962040784
 20
-224.2696010452781
 10
314.6928284600095
 20
-238.9044312621598
 10
316.395588435441
 20
-252.1373875305529
 10
318.4644328698739
 20
-265.3411466147086
 10
319.6229538860231
 20
-278.6231093663793
 10
322.197107700755
 20
-308.1359074140142
 10
324.639788059031
 20
-337.6681056556003
 10
326.4881248505611
 20
-367.2331399635322
 10
327.8822042705142
 20
-389.5328554663094
 10
328.159922030319
 20
-411.9003532227647
 10
329.165782252778
 20
-434.2272419161828
 10
329.5284216162941
 20
-442.2766644537764
 10
330.911821240243
 20
-450.2819036417697
 10
331.2313753783467
 20
-458.3311969882818
 10
332.3566296912164
 20
-486.6739975454321
 10
333.3456950731849
 20
-515.0240328031016
 10
334.1500818052971
 20
-543.3776854110305
 10
334.885803478019
 20
-569.3122780966062
 10
335.710839251196
 20
-595.2563878584548
 10
335.6631677424189
 20
-621.1945548305974
 10
335.6467389433236
 20
-630.1522337291807
 10
336.1849920492003
 20
-639.0669350615874
 10
336.2599228760045
 20
-648.0051061069865
 10
336.3358441677607
 20
-657.0635971122097
 10
337.0294280163286
 20
-666.1166620920418
 10
337.1005907699458
 20
-675.1748085877167
 10
337.259194353348
 20
-695.3664270993808
 10
336.957511648074
 20
-715.5633855090432
 10
337.2973487858471
 20
-735.7505253965764
 10
337.6126180864411
 20
-754.4794424925886
 10
338.551169755857
 20
-773.197249155659
 10
339.1536092969933
 20
-791.9217737549295
 10
339.7675253124648
 20
-811.0025212273709
 10
340.238319142371
 20
-830.087747323947
 10
340.9153880644565
 20
-849.1661693569378
 10
341.1465324396699
 20
-855.6790362444136
 10
342.0314052150564
 20
-862.1714909411412
 10
342.1961453747917
 20
-868.6837549369089
 10
342.2896797172163
 20
-872.3822371950989
 10
342.3035462265444
 20
-870.9649249124671
 10
342.5472221365855
 20
-879.827777557821
 10
342.5532492845666
 20
-880.0469938292216
 10
343.0465671953256
 20
-882.5444076027146
 10
343.2527776919646
 20
-883.3555553347165
 10
343.8028733135719
 20
-885.5198504459396
 10
343.3365365759497
 20
-886.4745725322876
 10
343.3774255529903
 20
-888.6635862036154
 10
343.5670349957598
 20
-898.8174883820665
 10
343.6523011090197
 20
-908.9769027132941
 10
343.5200309742328
 20
-919.131407783457
 10
343.4491266027771
 20
-924.5757783061826
 10
342.8630297333489
 20
-930.0136031474899
 10
342.5093691499412
 20
-935.4544424473449
 10
342.5093691499412
 20
-935.4544424473449
 10
392.4042994895726
 20
-935.8557099439874
 10
392.4042994895726
 20
-935.8557099439874
 10
392.7415743375785
 20
-930.6932343593405
 10
393.5902736103698
 20
-925.5033702655859
 10
393.3162162645182
 20
-920.3735369606638
 10
392.6121679384148
 20
-907.1944964366148
 10
391.275255571671
 20
-894.0505097591262
 10
390.4616101454402
 20
-880.8757756044339
 97
        0
 97
        1
330
8C
 75
     2
 76
     1
 98
        1
 10
0.0
 20
0.0
450
        0
451
        0
460
0.0
461
0.0
452
        0
462
0.0
453
        0
470

  0
SPLINE
  5
8E
330
70
100
AcDbEntity
  8
2022-034
100
AcDbSpline
210
0.0
220
0.0
230
1.0
 70
     9
 71
     3
 72
   122
 73
   118
 74
     0
 42
0.0000000001
 43
0.0000000001
 40
0.0
 40
0.0
 40
0.0
 40
0.0
 40
1.0
 40
1.0
 40
1.0
 40
2.0
 40
2.0
 40
2.0
 40
3.0
 40
3.0
 40
3.0
 40
4.0
 40
4.0
 40
4.0
 40
5.0
 40
5.0
 40
5.0
 40
6.0
 40
6.0
 40
6.0
 40
7.0
 40
7.0
 40
7.0
 40
8.0
 40
8.0
 40
8.0
 40
9.0
 40
9.0
 40
9.0
 40
10.0
 40
10.0
 40
10.0
 40
11.0
 40
11.0
 40
11.0
 40
12.0
 40
12.0
 40
12.0
 40
13.0
 40
13.0
 40
13.0
 40
14.0
 40
14.0
 40
14.0
 40
15.0
 40
15.0
 40
15.0
 40
16.0
 40
16.0
 40
16.0
 40
17.0
 40
17.0
 40
17.0
 40
18.0
 40
18.0
 40
18.0
 40
19.0
 40
19.0
 40
19.0
 40
20.0
 40
20.0
 40
20.0
 40
21.0
 40
21.0
 40
21.0
 40
22.0
 40
22.0
 40
22.0
 40
23.0
 40
23.0
 40
23.0
 40
24.0
 40
24.0
 40
24.0
 40
25.0
 40
25.0
 40
25.0
 40
26.0
 40
26.0
 40
26.0
 40
27.0
 40
27.0
 40
27.0
 40
28.0
 40
28.0
 40
28.0
 40
29.0
 40
29.0
 40
29.0
 40
30.0
 40
30.0
 40
30.0
 40
31.0
 40
31.0
 40
31.0
 40
32.0
 40
32.0
 40
32.0
 40
33.0
 40
33.0
 40
33.0
 40
34.0
 40
34.0
 40
34.0
 40
35.0
 40
35.0
 40
35.0
 40
36.0
 40
36.0
 40
36.0
 40
37.0
 40
37.0
 40
37.0
 40
38.0
 40
38.0
 40
38.0
 40
39.0
 40
39.0
 40
39.0
 40
39.0
 10
210.2824487796234
 20
-58.39462685714614
 30
0.0
 10
212.4528589353308
 20
-84.81118840110623
 30
0.0
 10
214.2489809984126
 20
-111.264397148291
 30
0.0
 10
216.8769644301015
 20
-137.6351389222973
 30
0.0
 10
219.9029425177239
 20
-167.9996507012726
 30
0.0
 10
223.4350481958231
 20
-198.3195269618676
 30
0.0
 10
227.1804698799996
 20
-228.6048230765294
 30
0.0
 10
229.657213619886
 20
-248.6318090876902
 30
0.0
 10
233.3682274129036
 20
-268.5106344611384
 30
0.0
 10
235.662467219459
 20
-288.5545660357173
 30
0.0
 10
237.9895000286645
 20
-308.8849142362011
 30
0.0
 10
239.6524906830882
 20
-329.3125433204497
 30
0.0
 10
240.8882464336473
 20
-349.7409044874888
 30
0.0
 10
242.6052389598023
 20
-378.1252399770833
 30
0.0
 10
243.6549164904644
 20
-406.5503783163311
 30
0.0
 10
244.9867258095216
 20
-434.957860541219
 30
0.0
 10
246.292438530278
 20
-462.8093474184764
 30
0.0
 10
247.8399108267119
 20
-490.6521784933318
 30
0.0
 10
248.8330887914159
 20
-518.5146896761458
 30
0.0
 10
250.0015575207787
 20
-551.2952469189243
 30
0.0
 10
250.2829141626897
 20
-584.1109441356563
 30
0.0
 10
251.7241052634036
 20
-616.8773764869492
 30
0.0
 10
252.6996055818989
 20
-639.0558246286494
 30
0.0
 10
254.9657032647091
 20
-661.1795388158268
 30
0.0
 10
256.7469037579704
 20
-683.320133970882
 30
0.0
 10
257.6348340556
 20
-694.3571002495878
 30
0.0
 10
259.0464188669876
 20
-705.3599170192971
 30
0.0
 10
259.6680002199137
 20
-716.4089841958977
 30
0.0
 10
261.1211845592857
 20
-742.2409991633981
 30
0.0
 10
262.6775495084408
 20
-768.0805933409659
 30
0.0
 10
263.3612287074887
 20
-793.9390494163175
 30
0.0
 10
263.9460767298035
 20
-816.0591462532353
 30
0.0
 10
263.4761226419218
 20
-838.2111963507771
 30
0.0
 10
263.2679958109191
 20
-860.3468822447677
 30
0.0
 10
263.178983156319
 20
-869.8135740012967
 30
0.0
 10
262.1509451316736
 20
-879.2820744329572
 30
0.0
 10
262.2931414478273
 20
-888.7386892851937
 30
0.0
 10
262.5242427593473
 20
-904.1045902958941
 30
0.0
 10
263.3669346468861
 20
-919.4617063131033
 30
0.0
 10
263.9514166278055
 20
-934.822525807961
 30
0.0
 10
263.9514166278055
 20
-934.822525807961
 30
0.0
 10
306.4151898783658
 20
-935.1641070253235
 30
0.0
 10
306.4151898783658
 20
-935.1641070253235
 30
0.0
 10
306.0298344164939
 20
-912.4235484915121
 30
0.0
 10
305.5049956511628
 20
-889.6836789767979
 30
0.0
 10
305.3413751474603
 20
-866.9415701500181
 30
0.0
 10
305.2900647565768
 20
-859.8129785719391
 30
0.0
 10
306.4173430630441
 20
-852.6830089556661
 30
0.0
 10
306.6075984612171
 20
-845.5429624351005
 30
0.0
 10
306.7166787970188
 20
-841.4501028712347
 30
0.0
 10
305.6941959888434
 20
-837.3307160721363
 30
0.0
 10
305.7585331470304
 20
-833.2323443554939
 30
0.0
 10
305.9592960864334
 20
-820.4503510861201
 30
0.0
 10
306.7633383089971
 20
-807.6712861479085
 30
0.0
 10
306.6971924756803
 20
-794.894202139603
 30
0.0
 10
306.6471739956039
 20
-785.2332931250912
 30
0.0
 10
305.6106739551728
 20
-775.5776378811924
 30
0.0
 10
305.0350846269747
 20
-765.9185375418123
 30
0.0
 10
304.7295692529734
 20
-760.7918048228229
 30
0.0
 10
304.5592738767682
 20
-755.6556842186381
 30
0.0
 10
304.1746935613804
 20
-750.5353249263004
 30
0.0
 10
302.8288885419143
 20
-732.6181584539982
 30
0.0
 10
301.2410009690691
 20
-714.7172700578659
 30
0.0
 10
300.1054113697437
 20
-696.7873567322721
 30
0.0
 10
299.5592991397911
 20
-688.1646703059328
 30
0.0
 10
299.9839502220418
 20
-679.4847952945385
 30
0.0
 10
299.6634486826796
 20
-670.8421703780814
 30
0.0
 10
299.3901664833122
 20
-663.4723359886457
 30
0.0
 10
298.4029097764735
 20
-656.1260143758991
 30
0.0
 10
298.2209010756184
 20
-648.7571704514165
 30
0.0
 10
297.8484431899693
 20
-633.6793224869794
 30
0.0
 10
298.0675081991376
 20
-618.5849811279058
 30
0.0
 10
297.5680770130103
 20
-603.513162080568
 30
0.0
 10
296.6652251455603
 20
-576.2705958303247
 30
0.0
 10
295.3017640117323
 20
-549.0435755734615
 30
0.0
 10
294.3499917883917
 20
-521.8021720429455
 30
0.0
 10
293.7667155908921
 20
-505.1086604233114
 30
0.0
 10
293.7799361448167
 20
-488.3945212944586
 30
0.0
 10
293.1788961737213
 20
-471.7018709486997
 30
0.0
 10
292.6067950047021
 20
-455.8127029974825
 30
0.0
 10
291.4992398698878
 20
-439.9438611096321
 30
0.0
 10
290.7885812668211
 20
-424.0587842093084
 30
0.0
 10
290.2600390238434
 20
-412.2445182617411
 30
0.0
 10
290.1171106248991
 20
-400.4128545819733
 30
0.0
 10
289.5654001147832
 20
-388.5999666726002
 30
0.0
 10
289.0816871768073
 20
-378.2428038605194
 30
0.0
 10
288.2829633203989
 20
-367.8998520673133
 30
0.0
 10
287.5968510226646
 20
-357.5524431818247
 30
0.0
 10
286.6093574655113
 20
-342.6604365869695
 30
0.0
 10
285.8017194245348
 20
-327.752754807656
 30
0.0
 10
284.5243426141445
 20
-312.88538064552
 30
0.0
 10
283.6847513125423
 20
-303.1139271296252
 30
0.0
 10
282.1070483032254
 20
-293.4067892400706
 30
0.0
 10
280.9519293188679
 20
-283.6602911345971
 30
0.0
 10
280.4544790626446
 20
-279.4630236456833
 30
0.0
 10
280.3151464821131
 20
-275.2224771447361
 30
0.0
 10
279.797843863156
 20
-271.0284179009929
 30
0.0
 10
277.5199467283088
 20
-252.5613065300129
 30
0.0
 10
275.0902070099493
 20
-234.1126694835725
 30
0.0
 10
272.8561271833051
 20
-215.6402182145904
 30
0.0
 10
270.5821488445724
 20
-196.8380067121294
 30
0.0
 10
268.3865033644355
 20
-178.0250077544307
 30
0.0
 10
266.3211255573346
 20
-159.1990681568148
 30
0.0
 10
264.8846283992194
 20
-146.1050999594047
 30
0.0
 10
263.7425577140123
 20
-132.9793076924496
 30
0.0
 10
262.4397733244183
 20
-119.8708916258482
 30
0.0
 10
260.4890956651295
 20
-100.2426108215648
 30
0.0
 10
258.4375413036632
 20
-80.62442845342244
 30
0.0
 10
256.5706655920531
 20
-60.98852537537787
 30
0.0
 10
255.5887703150633
 20
-50.66120570293832
 30
0.0
 10
254.7363460327786
 20
-40.32148368675122
 30
0.0
 10
253.8395876779681
 20
-29.98611110361459
 30
0.0
 10
253.8395876779681
 20
-29.98611110361459
 30
0.0
 10
207.9536503589817
 20
-29.98611110361459
 30
0.0
 10
207.9536503589817
 20
-29.98611110361459
 30
0.0
 10
208.7289906297839
 20
-39.4556881276147
 30
0.0
 10
209.5044385598201
 20
-48.92526515161417
 30
0.0
 10
210.2824487796234
 20
-58.39462685714614
 30
0.0
  0
HATCH
  5
8F
330
70
100
AcDbEntity
  8
2022-034
 62
    18
420
        0
440
 33554687
100
AcDbHatch
 10
0.0
 20
0.0
 30
0.0
210
0.0
220
0.0
230
1.0
  2
SOLID
 70
     1
 71
     1
 91
        1
 92
        1
 93
        1
 72
     4
 94
        3
 73
     0
 74
     0
 95
      122
 96
      118
 40
0.0
 40
0.0
 40
0.0
 40
0.0
 40
1.0
 40
1.0
 40
1.0
 40
2.0
 40
2.0
 40
2.0
 40
3.0
 40
3.0
 40
3.0
 40
4.0
 40
4.0
 40
4.0
 40
5.0
 40
5.0
 40
5.0
 40
6.0
 40
6.0
 40
6.0
 40
7.0
 40
7.0
 40
7.0
 40
8.0
 40
8.0
 40
8.0
 40
9.0
 40
9.0
 40
9.0
 40
10.0
 40
10.0
 40
10.0
 40
11.0
 40
11.0
 40
11.0
 40
12.0
 40
12.0
 40
12.0
 40
13.0
 40
13.0
 40
13.0
 40
14.0
 40
14.0
 40
14.0
 40
15.0
 40
15.0
 40
15.0
 40
16.0
 40
16.0
 40
16.0
 40
17.0
 40
17.0
 40
17.0
 40
18.0
 40
18.0
 40
18.0
 40
19.0
 40
19.0
 40
19.0
 40
20.0
 40
20.0
 40
20.0
 40
21.0
 40
21.0
 40
21.0
 40
22.0
 40
22.0
 40
22.0
 40
23.0
 40
23.0
 40
23.0
 40
24.0
 40
24.0
 40
24.0
 40
25.0
 40
25.0
 40
25.0
 40
26.0
 40
26.0
 40
26.0
 40
27.0
 40
27.0
 40
27.0
 40
28.0
 40
28.0
 40
28.0
 40
29.0
 40
29.0
 40
29.0
 40
30.0
 40
30.0
 40
30.0
 40
31.0
 40
31.0
 40
31.0
 40
32.0
 40
32.0
 40
32.0
 40
33.0
 40
33.0
 40
33.0
 40
34.0
 40
34.0
 40
34.0
 40
35.0
 40
35.0
 40
35.0
 40
36.0
 40
36.0
 40
36.0
 40
37.0
 40
37.0
 40
37.0
 40
38.0
 40
38.0
 40
38.0
 40
39.0
 40
39.0
 40
39.0
 40
39.0
 10
210.2824487796234
 20
-58.39462685714614
 10
212.4528589353308
 20
-84.81118840110623
 10
214.2489809984126
 20
-111.264397148291
 10
216.8769644301015
 20
-137.6351389222973
 10
219.9029425177239
 20
-167.9996507012726
 10
223.4350481958231
 20
-198.3195269618676
 10
227.1804698799996
 20
-228.6048230765294
 10
229.657213619886
 20
-248.6318090876902
 10
233.3682274129036
 20
-268.5106344611384
 10
235.662467219459
 20
-288.5545660357173
 10
237.9895000286645
 20
-308.8849142362011
 10
239.6524906830882
 20
-329.3125433204497
 10
240.8882464336473
 20
-349.7409044874888
 10
242.6052389598023
 20
-378.1252399770833
 10
243.6549164904644
 20
-406.5503783163311
 10
244.9867258095216
 20
-434.957860541219
 10
246.292438530278
 20
-462.8093474184764
 10
247.8399108267119
 20
-490.6521784933318
 10
248.8330887914159
 20
-518.5146896761458
 10
250.0015575207787
 20
-551.2952469189243
 10
250.2829141626897
 20
-584.1109441356563
 10
251.7241052634036
 20
-616.8773764869492
 10
252.6996055818989
 20
-639.0558246286494
 10
254.9657032647091
 20
-661.1795388158268
 10
256.7469037579704
 20
-683.320133970882
 10
257.6348340556
 20
-694.3571002495878
 10
259.0464188669876
 20
-705.3599170192971
 10
259.6680002199137
 20
-716.4089841958977
 10
261.1211845592857
 20
-742.2409991633981
 10
262.6775495084408
 20
-768.0805933409659
 10
263.3612287074887
 20
-793.9390494163175
 10
263.9460767298035
 20
-816.0591462532353
 10
263.4761226419218
 20
-838.2111963507771
 10
263.2679958109191
 20
-860.3468822447677
 10
263.178983156319
 20
-869.8135740012967
 10
262.1509451316736
 20
-879.2820744329572
 10
262.2931414478273
 20
-888.7386892851937
 10
262.5242427593473
 20
-904.1045902958941
 10
263.3669346468861
 20
-919.4617063131033
 10
263.9514166278055
 20
-934.822525807961
 10
263.9514166278055
 20
-934.822525807961
 10
306.4151898783658
 20
-935.1641070253235
 10
306.4151898783658
 20
-935.1641070253235
 10
306.0298344164939
 20
-912.4235484915121
 10
305.5049956511628
 20
-889.6836789767979
 10
305.3413751474603
 20
-866.9415701500181
 10
305.2900647565768
 20
-859.8129785719391
 10
306.4173430630441
 20
-852.6830089556661
 10
306.6075984612171
 20
-845.5429624351005
 10
306.7166787970188
 20
-841.4501028712347
 10
305.6941959888434
 20
-837.3307160721363
 10
305.7585331470304
 20
-833.2323443554939
 10
305.9592960864334
 20
-820.4503510861201
 10
306.7633383089971
 20
-807.6712861479085
 10
306.6971924756803
 20
-794.894202139603
 10
306.6471739956039
 20
-785.2332931250912
 10
305.6106739551728
 20
-775.5776378811924
 10
305.0350846269747
 20
-765.9185375418123
 10
304.7295692529734
 20
-760.7918048228229
 10
304.5592738767682
 20
-755.6556842186381
 10
304.1746935613804
 20
-750.5353249263004
 10
302.8288885419143
 20
-732.6181584539982
 10
301.2410009690691
 20
-714.7172700578659
 10
300.1054113697437
 20
-696.7873567322721
 10
299.5592991397911
 20
-688.1646703059328
 10
299.9839502220418
 20
-679.4847952945385
 10
299.6634486826796
 20
-670.8421703780814
 10
299.3901664833122
 20
-663.4723359886457
 10
298.4029097764735
 20
-656.1260143758991
 10
298.2209010756184
 20
-648.7571704514165
 10
297.8484431899693
 20
-633.6793224869794
 10
298.0675081991376
 20
-618.5849811279058
 10
297.5680770130103
 20
-603.513162080568
 10
296.6652251455603
 20
-576.2705958303247
 10
295.3017640117323
 20
-549.0435755734615
 10
294.3499917883917
 20
-521.8021720429455
 10
293.7667155908921
 20
-505.1086604233114
 10
293.7799361448167
 20
-488.3945212944586
 10
293.1788961737213
 20
-471.7018709486997
 10
292.6067950047021
 20
-455.8127029974825
 10
291.4992398698878
 20
-439.9438611096321
 10
290.7885812668211
 20
-424.0587842093084
 10
290.2600390238434
 20
-412.2445182617411
 10
290.1171106248991
 20
-400.4128545819733
 10
289.5654001147832
 20
-388.5999666726002
 10
289.0816871768073
 20
-378.2428038605194
 10
288.2829633203989
 20
-367.8998520673133
 10
287.5968510226646
 20
-357.5524431818247
 10
286.6093574655113
 20
-342.6604365869695
 10
285.8017194245348
 20
-327.752754807656
 10
284.5243426141445
 20
-312.88538064552
 10
283.6847513125423
 20
-303.1139271296252
 10
282.1070483032254
 20
-293.4067892400706
 10
280.9519293188679
 20
-283.6602911345971
 10
280.4544790626446
 20
-279.4630236456833
 10
280.3151464821131
 20
-275.2224771447361
 10
279.797843863156
 20
-271.0284179009929
 10
277.5199467283088
 20
-252.5613065300129
 10
275.0902070099493
 20
-234.1126694835725
 10
272.8561271833051
 20
-215.6402182145904
 10
270.5821488445724
 20
-196.8380067121294
 10
268.3865033644355
 20
-178.0250077544307
 10
266.3211255573346
 20
-159.1990681568148
 10
264.8846283992194
 20
-146.1050999594047
 10
263.7425577140123
 20
-132.9793076924496
 10
262.4397733244183
 20
-119.8708916258482
 10
260.4890956651295
 20
-100.2426108215648
 10
258.4375413036632
 20
-80.62442845342244
 10
256.5706655920531
 20
-60.98852537537787
 10
255.5887703150633
 20
-50.66120570293832
 10
254.7363460327786
 20
-40.32148368675122
 10
253.8395876779681
 20
-29.98611110361459
 10
253.8395876779681
 20
-29.98611110361459
 10
207.9536503589817
 20
-29.98611110361459
 10
207.9536503589817
 20
-29.98611110361459
 10
208.7289906297839
 20
-39.4556881276147
 10
209.5044385598201
 20
-48.92526515161417
 10
210.2824487796234
 20
-58.39462685714614
 97
        0
 97
        1
330
8E
 75
     2
 76
     1
 98
        1
 10
0.0
 20
0.0
450
        0
451
        0
460
0.0
461
0.0
452
        0
462
0.0
453
        0
470

  0
SPLINE
  5
90
330
70
100
AcDbEntity
  8
2022-034
100
AcDbSpline
210
0.0
220
0.0
230
1.0
 70
     9
 71
     3
 72
   107
 73
   103
 74
     0
 42
0.0000000001
 43
0.0000000001
 40
0.0
 40
0.0
 40
0.0
 40
0.0
 40
1.0
 40
1.0
 40
1.0
 40
2.0
 40
2.0
 40
2.0
 40
3.0
 40
3.0
 40
3.0
 40
4.0
 40
4.0
 40
4.0
 40
5.0
 40
5.0
 40
5.0
 40
6.0
 40
6.0
 40
6.0
 40
7.0
 40
7.0
 40
7.0
 40
8.0
 40
8.0
 40
8.0
 40
9.0
 40
9.0
 40
9.0
 40
10.0
 40
10.0
 40
10.0
 40
11.0
 40
11.0
 40
11.0
 40
12.0
 40
12.0
 40
12.0
 40
13.0
 40
13.0
 40
13.0
 40
14.0
 40
14.0
 40
14.0
 40
15.0
 40
15.0
 40
15.0
 40
16.0
 40
16.0
 40
16.0
 40
17.0
 40
17.0
 40
17.0
 40
18.0
 40
18.0
 40
18.0
 40
19.0
 40
19.0
 40
19.0
 40
20.0
 40
20.0
 40
20.0
 40
21.0
 40
21.0
 40
21.0
 40
22.0
 40
22.0
 40
22.0
 40
23.0
 40
23.0
 40
23.0
 40
24.0
 40
24.0
 40
24.0
 40
25.0
 40
25.0
 40
25.0
 40
26.0
 40
26.0
 40
26.0
 40
27.0
 40
27.0
 40
27.0
 40
28.0
 40
28.0
 40
28.0
 40
29.0
 40
29.0
 40
29.0
 40
30.0
 40
30.0
 40
30.0
 40
31.0
 40
31.0
 40
31.0
 40
32.0
 40
32.0
 40
32.0
 40
33.0
 40
33.0
 40
33.0
 40
34.0
 40
34.0
 40
34.0
 40
34.0
 10
129.1643381431649
 20
-88.0405778452862
 30
0.0
 10
131.1945113807756
 20
-109.2770292220839
 30
0.0
 10
133.7785913768744
 20
-130.4601246825546
 30
0.0
 10
136.0471006265242
 20
-151.6741183431578
 30
0.0
 10
138.76472113637
 20
-177.0883508875313
 30
0.0
 10
141.1813264281921
 20
-202.5372497052251
 30
0.0
 10
144.1533672396235
 20
-227.9211438774815
 30
0.0
 10
146.7528425061723
 20
-250.1227387544723
 30
0.0
 10
150.4614232005031
 20
-272.2026356334467
 30
0.0
 10
152.7231068547232
 20
-294.4334061628283
 30
0.0
 10
154.9851134866443
 20
-316.6677940424693
 30
0.0
 10
156.1807554066471
 20
-339.0149226718652
 30
0.0
 10
157.6281261473877
 20
-361.3267390725382
 30
0.0
 10
159.8675889357275
 20
-395.8481461277099
 30
0.0
 10
162.1835759075335
 20
-430.3680890172985
 30
0.0
 10
163.9892365787401
 20
-464.9134825497892
 30
0.0
 10
166.0696651467424
 20
-504.7146706908805
 30
0.0
 10
167.6868144993652
 20
-544.5404912646914
 30
0.0
 10
169.3870121850295
 20
-584.3606704946442
 30
0.0
 10
169.9951791974104
 20
-598.6042024599429
 30
0.0
 10
169.3923951467252
 20
-612.9528529012342
 30
0.0
 10
170.8695228997197
 20
-627.0942808490878
 30
0.0
 10
173.5229139106123
 20
-652.4966062821883
 30
0.0
 10
177.0970712854787
 20
-677.8122875638388
 30
0.0
 10
180.7258980193259
 20
-703.1008817822335
 30
0.0
 10
183.9539309571582
 20
-725.5956758168649
 30
0.0
 10
187.4342094800512
 20
-748.0668278837298
 30
0.0
 10
191.4432455643896
 20
-770.4334213026173
 30
0.0
 10
195.0322168498422
 20
-790.4564885176637
 30
0.0
 10
198.6049961865141
 20
-823.4367321075088
 30
0.0
 10
198.8625816695769
 20
-843.7771787441358
 30
0.0
 10
199.1334092384111
 20
-865.1648482808896
 30
0.0
 10
198.9952824412993
 20
-886.5669872186813
 30
0.0
 10
198.4258081575875
 20
-907.9435463224934
 30
0.0
 10
198.1912186868888
 20
-916.7490381280176
 30
0.0
 10
195.4712081420502
 20
-925.4890731193222
 30
0.0
 10
193.8862058366738
 20
-934.2589081865742
 30
0.0
 10
193.8862058366738
 20
-934.2589081865742
 30
0.0
 10
235.2883729134544
 20
-934.5919627926127
 30
0.0
 10
235.2883729134544
 20
-934.5919627926127
 30
0.0
 10
235.4883176426796
 20
-920.9543800594769
 30
0.0
 10
235.9245959221929
 20
-907.3151609059836
 30
0.0
 10
235.8281547804527
 20
-893.6796452301392
 30
0.0
 10
235.7081577983321
 20
-876.7189233919314
 30
0.0
 10
235.4394618823294
 20
-859.7480385220421
 30
0.0
 10
234.6921130123448
 20
-842.8055756899063
 30
0.0
 10
234.0107592527495
 20
-827.3590594448549
 30
0.0
 10
233.0807987901998
 20
-811.8913558625655
 30
0.0
 10
231.3722682798306
 20
-796.5315698963532
 30
0.0
 10
229.9060356413082
 20
-783.349773295916
 30
0.0
 10
226.942995141832
 20
-770.3417817627097
 30
0.0
 10
225.0976082133111
 20
-757.1930580789309
 30
0.0
 10
223.7341901431767
 20
-747.4792668487205
 30
0.0
 10
222.8858784436275
 20
-737.6779701931846
 30
0.0
 10
222.1890863498889
 20
-727.8884729896877
 30
0.0
 10
220.3469291983855
 20
-702.0087865134094
 30
0.0
 10
218.3954979244593
 20
-676.1302627568582
 30
0.0
 10
217.0741100192449
 20
-650.2215513511185
 30
0.0
 10
215.4017745433176
 20
-617.4325105607046
 30
0.0
 10
214.4316571865179
 20
-584.6084159237263
 30
0.0
 10
212.9293802364812
 20
-551.8099011207281
 30
0.0
 10
211.6354669677617
 20
-523.5592999315007
 30
0.0
 10
209.9965273861945
 20
-495.3248906910578
 30
0.0
 10
208.5566927918279
 20
-467.0811366291084
 30
0.0
 10
207.8570800261607
 20
-453.3570819992928
 30
0.0
 10
207.3151019107906
 20
-439.6246299492311
 30
0.0
 10
206.6109459254523
 20
-425.9010490200457
 30
0.0
 10
205.4664852052523
 20
-403.5975869759235
 30
0.0
 10
204.3955557418156
 20
-381.2890434159625
 30
0.0
 10
203.0179481846513
 20
-358.999577072252
 30
0.0
 10
201.6539056909603
 20
-336.9294771835628
 30
0.0
 10
200.2161381538848
 20
-314.8569657280349
 30
0.0
 10
198.2922030483002
 20
-292.8305754883158
 30
0.0
 10
197.1513596783597
 20
-279.7695940801769
 30
0.0
 10
194.9048775079686
 20
-266.8083051226425
 30
0.0
 10
193.356587001357
 20
-253.778523360492
 30
0.0
 10
192.5378815911342
 20
-246.8887199632344
 30
0.0
 10
192.4097240390829
 20
-239.9135212616362
 30
0.0
 10
191.5013815507032
 20
-233.0388116889734
 30
0.0
 10
190.3453366969341
 20
-224.2894318761651
 30
0.0
 10
188.5361878665487
 20
-215.6273206383675
 30
0.0
 10
187.3340217969707
 20
-206.8830008095531
 30
0.0
 10
185.8019663028333
 20
-195.7384829561652
 30
0.0
 10
184.5734237209465
 20
-184.5518057467765
 30
0.0
 10
183.2555885704513
 20
-173.3784136868529
 30
0.0
 10
182.2084948614032
 20
-164.5003164939769
 30
0.0
 10
181.1946678556345
 20
-155.6185804189946
 30
0.0
 10
180.2192536645263
 20
-146.7324949109623
 30
0.0
 10
179.2208865247481
 20
-137.6375720209834
 30
0.0
 10
178.1682806629232
 20
-128.5463741404982
 30
0.0
 10
177.3513839278301
 20
-119.4342473049396
 30
0.0
 10
175.9099775086487
 20
-103.3574293090131
 30
0.0
 10
174.6200260997369
 20
-87.26704624961335
 30
0.0
 10
173.2844487074927
 20
-71.18096955957053
 30
0.0
 10
172.1444450795767
 20
-57.45036924833304
 30
0.0
 10
171.0844537943057
 20
-43.71229738626159
 30
0.0
 10
169.894259431539
 20
-29.98611110361459
 30
0.0
 10
169.894259431539
 20
-29.98611110361459
 30
0.0
 10
124.0191956951779
 20
-29.98611110361459
 30
0.0
 10
124.0191956951779
 20
-29.98611110361459
 30
0.0
 10
125.6800762286168
 20
-49.34283225627323
 30
0.0
 10
127.3155922465456
 20
-68.70187884838475
 30
0.0
 10
129.1643381431649
 20
-88.0405778452862
 30
0.0
  0
HATCH
  5
91
330
70
100
AcDbEntity
  8
2022-034
 62
    18
420
        0
440
 33554687
100
AcDbHatch
 10
0.0
 20
0.0
 30
0.0
210
0.0
220
0.0
230
1.0
  2
SOLID
 70
     1
 71
     1
 91
        1
 92
        1
 93
        1
 72
     4
 94
        3
 73
     0
 74
     0
 95
      107
 96
      103
 40
0.0
 40
0.0
 40
0.0
 40
0.0
 40
1.0
 40
1.0
 40
1.0
 40
2.0
 40
2.0
 40
2.0
 40
3.0
 40
3.0
 40
3.0
 40
4.0
 40
4.0
 40
4.0
 40
5.0
 40
5.0
 40
5.0
 40
6.0
 40
6.0
 40
6.0
 40
7.0
 40
7.0
 40
7.0
 40
8.0
 40
8.0
 40
8.0
 40
9.0
 40
9.0
 40
9.0
 40
10.0
 40
10.0
 40
10.0
 40
11.0
 40
11.0
 40
11.0
 40
12.0
 40
12.0
 40
12.0
 40
13.0
 40
13.0
 40
13.0
 40
14.0
 40
14.0
 40
14.0
 40
15.0
 40
15.0
 40
15.0
 40
16.0
 40
16.0
 40
16.0
 40
17.0
 40
17.0
 40
17.0
 40
18.0
 40
18.0
 40
18.0
 40
19.0
 40
19.0
 40
19.0
 40
20.0
 40
20.0
 40
20.0
 40
21.0
 40
21.0
 40
21.0
 40
22.0
 40
22.0
 40
22.0
 40
23.0
 40
23.0
 40
23.0
 40
24.0
 40
24.0
 40
24.0
 40
25.0
 40
25.0
 40
25.0
 40
26.0
 40
26.0
 40
26.0
 40
27.0
 40
27.0
 40
27.0
 40
28.0
 40
28.0
 40
28.0
 40
29.0
 40
29.0
 40
29.0
 40
30.0
 40
30.0
 40
30.0
 40
31.0
 40
31.0
 40
31.0
 40
32.0
 40
32.0
 40
32.0
 40
33.0
 40
33.0
 40
33.0
 40
34.0
 40
34.0
 40
34.0
 40
34.0
 10
129.1643381431649
 20
-88.0405778452862
 10
131.1945113807756
 20
-109.2770292220839
 10
133.7785913768744
 20
-130.4601246825546
 10
136.0471006265242
 20
-151.6741183431578
 10
138.76472113637
 20
-177.0883508875313
 10
141.1813264281921
 20
-202.5372497052251
 10
144.1533672396235
 20
-227.9211438774815
 10
146.7528425061723
 20
-250.1227387544723
 10
150.4614232005031
 20
-272.2026356334467
 10
152.7231068547232
 20
-294.4334061628283
 10
154.9851134866443
 20
-316.6677940424693
 10
156.1807554066471
 20
-339.0149226718652
 10
157.6281261473877
 20
-361.3267390725382
 10
159.8675889357275
 20
-395.8481461277099
 10
162.1835759075335
 20
-430.3680890172985
 10
163.9892365787401
 20
-464.9134825497892
 10
166.0696651467424
 20
-504.7146706908805
 10
167.6868144993652
 20
-544.5404912646914
 10
169.3870121850295
 20
-584.3606704946442
 10
169.9951791974104
 20
-598.6042024599429
 10
169.3923951467252
 20
-612.9528529012342
 10
170.8695228997197
 20
-627.0942808490878
 10
173.5229139106123
 20
-652.4966062821883
 10
177.0970712854787
 20
-677.8122875638388
 10
180.7258980193259
 20
-703.1008817822335
 10
183.9539309571582
 20
-725.5956758168649
 10
187.4342094800512
 20
-748.0668278837298
 10
191.4432455643896
 20
-770.4334213026173
 10
195.0322168498422
 20
-790.4564885176637
 10
198.6049961865141
 20
-823.4367321075088
 10
198.8625816695769
 20
-843.7771787441358
 10
199.1334092384111
 20
-865.1648482808896
 10
198.9952824412993
 20
-886.5669872186813
 10
198.4258081575875
 20
-907.9435463224934
 10
198.1912186868888
 20
-916.7490381280176
 10
195.4712081420502
 20
-925.4890731193222
 10
193.8862058366738
 20
-934.2589081865742
 10
193.8862058366738
 20
-934.2589081865742
 10
235.2883729134544
 20
-934.5919627926127
 10
235.2883729134544
 20
-934.5919627926127
 10
235.4883176426796
 20
-920.9543800594769
 10
235.9245959221929
 20
-907.3151609059836
 10
235.8281547804527
 20
-893.6796452301392
 10
235.7081577983321
 20
-876.7189233919314
 10
235.4394618823294
 20
-859.7480385220421
 10
234.6921130123448
 20
-842.8055756899063
 10
234.0107592527495
 20
-827.3590594448549
 10
233.0807987901998
 20
-811.8913558625655
 10
231.3722682798306
 20
-796.5315698963532
 10
229.9060356413082
 20
-783.349773295916
 10
226.942995141832
 20
-770.3417817627097
 10
225.0976082133111
 20
-757.1930580789309
 10
223.7341901431767
 20
-747.4792668487205
 10
222.8858784436275
 20
-737.6779701931846
 10
222.1890863498889
 20
-727.8884729896877
 10
220.3469291983855
 20
-702.0087865134094
 10
218.3954979244593
 20
-676.1302627568582
 10
217.0741100192449
 20
-650.2215513511185
 10
215.4017745433176
 20
-617.4325105607046
 10
214.4316571865179
 20
-584.6084159237263
 10
212.9293802364812
 20
-551.8099011207281
 10
211.6354669677617
 20
-523.5592999315007
 10
209.9965273861945
 20
-495.3248906910578
 10
208.5566927918279
 20
-467.0811366291084
 10
207.8570800261607
 20
-453.3570819992928
 10
207.3151019107906
 20
-439.6246299492311
 10
206.6109459254523
 20
-425.9010490200457
 10
205.4664852052523
 20
-403.5975869759235
 10
204.3955557418156
 20
-381.2890434159625
 10
203.0179481846513
 20
-358.999577072252
 10
201.6539056909603
 20
-336.9294771835628
 10
200.2161381538848
 20
-314.8569657280349
 10
198.2922030483002
 20
-292.8305754883158
 10
197.1513596783597
 20
-279.7695940801769
 10
194.9048775079686
 20
-266.8083051226425
 10
193.356587001357
 20
-253.778523360492
 10
192.5378815911342
 20
-246.8887199632344
 10
192.4097240390829
 20
-239.9135212616362
 10
191.5013815507032
 20
-233.0388116889734
 10
190.3453366969341
 20
-224.2894318761651
 10
188.5361878665487
 20
-215.6273206383675
 10
187.3340217969707
 20
-206.8830008095531
 10
185.8019663028333
 20
-195.7384829561652
 10
184.5734237209465
 20
-184.5518057467765
 10
183.2555885704513
 20
-173.3784136868529
 10
182.2084948614032
 20
-164.5003164939769
 10
181.1946678556345
 20
-155.6185804189946
 10
180.2192536645263
 20
-146.7324949109623
 10
179.2208865247481
 20
-137.6375720209834
 10
178.1682806629232
 20
-128.5463741404982
 10
177.3513839278301
 20
-119.4342473049396
 10
175.9099775086487
 20
-103.3574293090131
 10
174.6200260997369
 20
-87.26704624961335
 10
173.2844487074927
 20
-71.18096955957053
 10
172.1444450795767
 20
-57.45036924833304
 10
171.0844537943057
 20
-43.71229738626159
 10
169.894259431539
 20
-29.98611110361459
 10
169.894259431539
 20
-29.98611110361459
 10
124.0191956951779
 20
-29.98611110361459
 10
124.0191956951779
 20
-29.98611110361459
 10
125.6800762286168
 20
-49.34283225627323
 10
127.3155922465456
 20
-68.70187884838475
 10
129.1643381431649
 20
-88.0405778452862
 97
        0
 97
        1
330
90
 75
     2
 76
     1
 98
        1
 10
0.0
 20
0.0
450
        0
451
        0
460
0.0
461
0.0
452
        0
462
0.0
453
        0
470

  0
ELLIPSE
  5
95
330
70
100
AcDbEntity
  8
Screws
100
AcDbEllipse
 10
17.37430555121166
 20
-1982.258332837769
 30
0.0
 11
2.557638888249479
 21
0.0
 31
0.0
210
0.0
220
0.0
230
1.0
 40
0.9655172413793103
 41
0.0
 42
6.283185307179586
  0
HATCH
  5
96
330
70
100
AcDbEntity
  8
Screws
 62
    18
420
        0
440
 33554687
100
AcDbHatch
 10
0.0
 20
0.0
 30
0.0
210
0.0
220
0.0
230
1.0
  2
SOLID
 70
     1
 71
     1
 91
        1
 92
        1
 93
        1
 72
     3
 10
17.37430555121166
 20
-1982.258332837769
 11
2.557638888249479
 21
0.0
 40
0.9655172413793103
 50
0.0
 51
360.0
 73
     1
 97
        1
330
95
 75
     2
 76
     1
 98
        1
 10
0.0
 20
0.0
450
        0
451
        0
460
0.0
461
0.0
452
        0
462
0.0
453
        0
470

  0
ELLIPSE
  5
97
330
70
100
AcDbEntity
  8
Screws
100
AcDbEllipse
 10
982.6519442919968
 20
-1982.640929460185
 30
0.0
 11
2.557638888249479
 21
0.0
 31
0.0
210
0.0
220
0.0
230
1.0
 40
0.9655172413793103
 41
0.0
 42
6.283185307179586
  0
HATCH
  5
98
330
70
100
AcDbEntity
  8
Screws
 62
    18
420
        0
440
 33554687
100
AcDbHatch
 10
0.0
 20
0.0
 30
0.0
210
0.0
220
0.0
230
1.0
  2
SOLID
 70
     1
 71
     1
 91
        1
 92
        1
 93
        1
 72
     3
 10
982.6519442919968
 20
-1982.640929460185
 11
2.557638888249479
 21
0.0
 40
0.9655172413793103
 50
0.0
 51
360.0
 73
     1
 97
        1
330
97
 75
     2
 76
     1
 98
        1
 10
0.0
 20
0.0
450
        0
451
        0
460
0.0
461
0.0
452
        0
462
0.0
453
        0
470

  0
ELLIPSE
  5
99
330
70
100
AcDbEntity
  8
Screws
100
AcDbEllipse
 10
982.6519442919968
 20
-17.43226955226426
 30
0.0
 11
2.557638888249479
 21
0.0
 31
0.0
210
0.0
220
0.0
230
1.0
 40
0.9655172413793103
 41
0.0
 42
6.283185307179586
  0
HATCH
  5
9A
330
70
100
AcDbEntity
  8
Screws
 62
    18
420
        0
440
 33554687
100
AcDbHatch
 10
0.0
 20
0.0
 30
0.0
210
0.0
220
0.0
230
1.0
  2
SOLID
 70
     1
 71
     1
 91
        1
 92
        1
 93
        1
 72
     3
 10
982.6519442919968
 20
-17.43226955226426
 11
2.557638888249479
 21
0.0
 40
0.9655172413793103
 50
0.0
 51
360.0
 73
     1
 97
        1
330
99
 75
     2
 76
     1
 98
        1
 10
0.0
 20
0.0
450
        0
451
        0
460
0.0
461
0.0
452
        0
462
0.0
453
        0
470

  0
ELLIPSE
  5
9B
330
70
100
AcDbEntity
  8
Screws
100
AcDbEllipse
 10
17.46670788238472
 20
-17.43226955226426
 30
0.0
 11
2.557638888249479
 21
0.0
 31
0.0
210
0.0
220
0.0
230
1.0
 40
0.9655172413793103
 41
0.0
 42
6.283185307179586
  0
HATCH
  5
9C
330
70
100
AcDbEntity
  8
Screws
 62
    18
420
        0
440
 33554687
100
AcDbHatch
 10
0.0
 20
0.0
 30
0.0
210
0.0
220
0.0
230
1.0
  2
SOLID
 70
     1
 71
     1
 91
        1
 92
        1
 93
        1
 72
     3
 10
17.46670788238472
 20
-17.43226955226426
 11
2.557638888249479
 21
0.0
 40
0.9655172413793103
 50
0.0
 51
360.0
 73
     1
 97
        1
330
9B
 75
     2
 76
     1
 98
        1
 10
0.0
 20
0.0
450
        0
451
        0
460
0.0
461
0.0
452
        0
462
0.0
453
        0
470

  0
ENDSEC
  0
SECTION
  2
OBJECTS
  0
DICTIONARY
  5
C
330
0
100
AcDbDictionary
281
     1
  3
ACAD_COLOR
350
63
  3
ACAD_DETAILVIEWSTYLE
350
6A
  3
ACAD_GROUP
350
D
  3
ACAD_LAYOUT
350
62
  3
ACAD_MATERIAL
350
10
  3
ACAD_MLEADERSTYLE
350
66
  3
ACAD_MLINESTYLE
350
5F
  3
ACAD_PLOTSETTINGS
350
61
  3
ACAD_PLOTSTYLENAME
350
E
  3
ACAD_SCALELIST
350
42
  3
ACAD_SECTIONVIEWSTYLE
350
68
  3
ACAD_TABLESTYLE
350
64
  3
ACAD_VISUALSTYLE
350
29
  3
ACDB_RECOMPOSE_DATA
350
A5
  3
AcDbVariableDictionary
350
9D
  0
DICTIONARY
  5
63
102
{ACAD_REACTORS
330
C
102
}
330
C
100
AcDbDictionary
281
     1
  0
DICTIONARY
  5
6A
102
{ACAD_REACTORS
330
C
102
}
330
C
100
AcDbDictionary
281
     1
  3
Imperial24
350
6B
  0
DICTIONARY
  5
D
102
{ACAD_REACTORS
330
C
102
}
330
C
100
AcDbDictionary
281
     1
  0
DICTIONARY
  5
62
102
{ACAD_REACTORS
330
C
102
}
330
C
100
AcDbDictionary
281
     1
  3
Layout1
350
6F
  3
Layout2
350
77
  3
Model
350
73
  0
DICTIONARY
  5
10
102
{ACAD_REACTORS
330
C
102
}
330
C
100
AcDbDictionary
281
     1
  3
ByBlock
350
19
  3
ByLayer
350
11
  3
Global
350
21
  0
DICTIONARY
  5
66
102
{ACAD_REACTORS
330
C
102
}
330
C
100
AcDbDictionary
281
     1
  3
Standard
350
67
  0
DICTIONARY
  5
5F
102
{ACAD_REACTORS
330
C
102
}
330
C
100
AcDbDictionary
281
     1
  3
Standard
350
60
  0
DICTIONARY
  5
61
102
{ACAD_REACTORS
330
C
102
}
330
C
100
AcDbDictionary
281
     1
  0
ACDBDICTIONARYWDFLT
  5
E
102
{ACAD_REACTORS
330
C
102
}
330
C
100
AcDbDictionary
281
     1
  3
Normal
350
F
100
AcDbDictionaryWithDefault
340
F
  0
DICTIONARY
  5
42
102
{ACAD_REACTORS
330
C
102
}
330
C
100
AcDbDictionary
281
     1
  3
A0
350
43
  3
A1
350
44
  3
A2
350
45
  3
A3
350
46
  3
A4
350
47
  3
A5
350
48
  3
A6
350
49
  3
A7
350
4A
  3
A8
350
4B
  3
A9
350
4C
  3
B0
350
4D
  3
B1
350
4E
  3
B2
350
4F
  3
B3
350
50
  3
B4
350
51
  3
B5
350
52
  3
B6
350
53
  0
DICTIONARY
  5
68
102
{ACAD_REACTORS
330
C
102
}
330
C
100
AcDbDictionary
281
     1
  3
Imperial24
350
69
  0
DICTIONARY
  5
64
102
{ACAD_REACTORS
330
C
102
}
330
C
100
AcDbDictionary
281
     1
  3
Standard
350
65
  0
DICTIONARY
  5
29
102
{ACAD_REACTORS
330
C
102
}
330
C
100
AcDbDictionary
281
     1
  3
2dWireframe
350
2F
  3
Basic
350
2E
  3
Brighten
350
35
  3
ColorChange
350
39
  3
Conceptual
350
32
  3
Dim
350
34
  3
EdgeColorOff
350
41
  3
Facepattern
350
38
  3
Flat
350
2A
  3
FlatWithEdges
350
2B
  3
Gouraud
350
2C
  3
GouraudWithEdges
350
2D
  3
Hidden
350
31
  3
JitterOff
350
3F
  3
Linepattern
350
37
  3
OverhangOff
350
40
  3
Realistic
350
33
  3
Shaded
350
3E
  3
Shaded with edges
350
3D
  3
Shades of Gray
350
3A
  3
Sketchy
350
3B
  3
Thicken
350
36
  3
Wireframe
350
30
  3
X-Ray
350
3C
  0
XRECORD
  5
A5
102
{ACAD_REACTORS
330
C
102
}
330
C
100
AcDbXrecord
280
     1
 90
        1
330
65
  0
DICTIONARY
  5
9D
102
{ACAD_REACTORS
330
C
102
}
330
C
100
AcDbDictionary
281
     1
  3
CANNOSCALE
350
A2
  3
CMLEADERSTYLE
350
9F
  3
CTABLESTYLE
350
9E
  3
CVIEWDETAILSTYLE
350
A0
  3
CVIEWSECTIONSTYLE
350
A1
  0
ACDBDETAILVIEWSTYLE
  5
6B
102
{ACAD_REACTORS
330
6A
102
}
330
6A
100
AcDbModelDocViewStyle
 70
     0
  3
Imperial24
290
     1
300
Imperial24
 90
        0
100
AcDbDetailViewStyle
 70
     0
 71
     0
 90
        3
 71
     1
340
55
 62
   256
 40
0.24
340
0
 62
   256
 40
0.24
300

 40
0.36
280
     3
 71
     2
340
5D
 90
       25
 62
   256
 71
     3
340
55
 62
   256
 40
0.24
 90
        1
 40
0.75
 90
        1
300
%<\AcVar ViewType \f "%tc1">% %<\AcVar ViewDetailId>%\PSCALE %<\AcVar ViewScale \f "%sn">%
 71
     4
340
5D
 90
       25
 62
   256
340
5D
 90
       25
 62
   256
280
     0
  0
LAYOUT
  5
6F
102
{ACAD_REACTORS
330
62
102
}
330
62
100
AcDbPlotSettings
  1

  2

  4

  6

 40
0.0
 41
0.0
 42
0.0
 43
0.0
 44
0.0
 45
0.0
 46
0.0
 47
0.0
 48
0.0
 49
0.0
140
0.0
141
0.0
142
1.0
143
1.0
 70
   688
 72
     0
 73
     0
 74
     5
  7

 75
    16
147
1.0
 76
     0
 77
     2
 78
   300
148
0.0
149
0.0
100
AcDbLayout
  1
Layout1
 70
     1
 71
     1
 10
0.0
 20
0.0
 11
12.0
 21
9.0
 12
0.0
 22
0.0
 32
0.0
 14
0.0
 24
0.0
 34
0.0
 15
0.0
 25
0.0
 35
0.0
146
0.0
 13
0.0
 23
0.0
 33
0.0
 16
1.0
 26
0.0
 36
0.0
 17
0.0
 27
1.0
 37
0.0
 76
     0
330
6C
  0
LAYOUT
  5
77
102
{ACAD_REACTORS
330
62
102
}
330
62
100
AcDbPlotSettings
  1

  2

  4

  6

 40
0.0
 41
0.0
 42
0.0
 43
0.0
 44
0.0
 45
0.0
 46
0.0
 47
0.0
 48
0.0
 49
0.0
140
0.0
141
0.0
142
1.0
143
1.0
 70
   688
 72
     0
 73
     0
 74
     5
  7

 75
    16
147
1.0
 76
     0
 77
     2
 78
   300
148
0.0
149
0.0
100
AcDbLayout
  1
Layout2
 70
     1
 71
     2
 10
0.0
 20
0.0
 11
12.0
 21
9.0
 12
0.0
 22
0.0
 32
0.0
 14
0.0
 24
0.0
 34
0.0
 15
0.0
 25
0.0
 35
0.0
146
0.0
 13
0.0
 23
0.0
 33
0.0
 16
1.0
 26
0.0
 36
0.0
 17
0.0
 27
1.0
 37
0.0
 76
     0
330
74
  0
LAYOUT
  5
73
102
{ACAD_REACTORS
330
62
102
}
330
62
100
AcDbPlotSettings
  1

  2

  4

  6

 40
0.0
 41
0.0
 42
0.0
 43
0.0
 44
0.0
 45
0.0
 46
0.0
 47
0.0
 48
0.0
 49
0.0
140
0.0
141
0.0
142
1.0
143
1.0
 70
  1712
 72
     0
 73
     0
 74
     0
  7

 75
     0
147
1.0
 76
     0
 77
     2
 78
   300
148
0.0
149
0.0
100
AcDbLayout
  1
Model
 70
     1
 71
     0
 10
0.0
 20
0.0
 11
12.0
 21
9.0
 12
0.0
 22
0.0
 32
0.0
 14
0.0
 24
0.0
 34
0.0
 15
0.0
 25
0.0
 35
0.0
146
0.0
 13
0.0
 23
0.0
 33
0.0
 16
1.0
 26
0.0
 36
0.0
 17
0.0
 27
1.0
 37
0.0
 76
     0
330
70
  0
MATERIAL
  5
19
102
{ACAD_XDICTIONARY
360
1A
102
}
102
{ACAD_REACTORS
330
10
102
}
330
10
100
AcDbMaterial
  1
ByBlock
 72
     0
 43
0.0208333333333333
 43
0.0
 43
0.0
 43
0.0
 43
0.0
 43
0.0208333333333333
 43
0.0
 43
0.0
 43
0.0
 43
0.0
 43
1.0
 43
0.0
 43
0.0
 43
0.0
 43
0.0
 43
1.0
 77
     0
 47
0.0208333333333333
 47
0.0
 47
0.0
 47
0.0
 47
0.0
 47
0.0208333333333333
 47
0.0
 47
0.0
 47
0.0
 47
0.0
 47
1.0
 47
0.0
 47
0.0
 47
0.0
 47
0.0
 47
1.0
171
     0
 49
0.0208333333333333
 49
0.0
 49
0.0
 49
0.0
 49
0.0
 49
0.0208333333333333
 49
0.0
 49
0.0
 49
0.0
 49
0.0
 49
1.0
 49
0.0
 49
0.0
 49
0.0
 49
0.0
 49
1.0
175
     0
142
0.0208333333333333
142
0.0
142
0.0
142
0.0
142
0.0
142
0.0208333333333333
142
0.0
142
0.0
142
0.0
142
0.0
142
1.0
142
0.0
142
0.0
142
0.0
142
0.0
142
1.0
179
     0
144
0.0208333333333333
144
0.0
144
0.0
144
0.0
144
0.0
144
0.0208333333333333
144
0.0
144
0.0
144
0.0
144
0.0
144
1.0
144
0.0
144
0.0
144
0.0
144
0.0
144
1.0
147
0.0208333333333333
147
0.0
147
0.0
147
0.0
147
0.0
147
0.0208333333333333
147
0.0
147
0.0
147
0.0
147
0.0
147
1.0
147
0.0
147
0.0
147
0.0
147
0.0
147
1.0
  0
MATERIAL
  5
11
102
{ACAD_XDICTIONARY
360
12
102
}
102
{ACAD_REACTORS
330
10
102
}
330
10
100
AcDbMaterial
  1
ByLayer
 72
     0
 43
0.0208333333333333
 43
0.0
 43
0.0
 43
0.0
 43
0.0
 43
0.0208333333333333
 43
0.0
 43
0.0
 43
0.0
 43
0.0
 43
1.0
 43
0.0
 43
0.0
 43
0.0
 43
0.0
 43
1.0
 77
     0
 47
0.0208333333333333
 47
0.0
 47
0.0
 47
0.0
 47
0.0
 47
0.0208333333333333
 47
0.0
 47
0.0
 47
0.0
 47
0.0
 47
1.0
 47
0.0
 47
0.0
 47
0.0
 47
0.0
 47
1.0
171
     0
 49
0.0208333333333333
 49
0.0
 49
0.0
 49
0.0
 49
0.0
 49
0.0208333333333333
 49
0.0
 49
0.0
 49
0.0
 49
0.0
 49
1.0
 49
0.0
 49
0.0
 49
0.0
 49
0.0
 49
1.0
175
     0
142
0.0208333333333333
142
0.0
142
0.0
142
0.0
142
0.0
142
0.0208333333333333
142
0.0
142
0.0
142
0.0
142
0.0
142
1.0
142
0.0
142
0.0
142
0.0
142
0.0
142
1.0
179
     0
144
0.0208333333333333
144
0.0
144
0.0
144
0.0
144
0.0
144
0.0208333333333333
144
0.0
144
0.0
144
0.0
144
0.0
144
1.0
144
0.0
144
0.0
144
0.0
144
0.0
144
1.0
147
0.0208333333333333
147
0.0
147
0.0
147
0.0
147
0.0
147
0.0208333333333333
147
0.0
147
0.0
147
0.0
147
0.0
147
1.0
147
0.0
147
0.0
147
0.0
147
0.0
147
1.0
  0
MATERIAL
  5
21
102
{ACAD_XDICTIONARY
360
22
102
}
102
{ACAD_REACTORS
330
10
102
}
330
10
100
AcDbMaterial
  1
Global
 72
     0
 43
0.0208333333333333
 43
0.0
 43
0.0
 43
0.0
 43
0.0
 43
0.0208333333333333
 43
0.0
 43
0.0
 43
0.0
 43
0.0
 43
1.0
 43
0.0
 43
0.0
 43
0.0
 43
0.0
 43
1.0
 77
     0
 47
0.0208333333333333
 47
0.0
 47
0.0
 47
0.0
 47
0.0
 47
0.0208333333333333
 47
0.0
 47
0.0
 47
0.0
 47
0.0
 47
1.0
 47
0.0
 47
0.0
 47
0.0
 47
0.0
 47
1.0
171
     0
 49
0.0208333333333333
 49
0.0
 49
0.0
 49
0.0
 49
0.0
 49
0.0208333333333333
 49
0.0
 49
0.0
 49
0.0
 49
0.0
 49
1.0
 49
0.0
 49
0.0
 49
0.0
 49
0.0
 49
1.0
175
     0
142
0.0208333333333333
142
0.0
142
0.0
142
0.0
142
0.0
142
0.0208333333333333
142
0.0
142
0.0
142
0.0
142
0.0
142
1.0
142
0.0
142
0.0
142
0.0
142
0.0
142
1.0
179
     0
144
0.0208333333333333
144
0.0
144
0.0
144
0.0
144
0.0
144
0.0208333333333333
144
0.0
144
0.0
144
0.0
144
0.0
144
1.0
144
0.0
144
0.0
144
0.0
144
0.0
144
1.0
147
0.0208333333333333
147
0.0
147
0.0
147
0.0
147
0.0
147
0.0208333333333333
147
0.0
147
0.0
147
0.0
147
0.0
147
1.0
147
0.0
147
0.0
147
0.0
147
0.0
147
1.0
  0
MLEADERSTYLE
  5
67
102
{ACAD_REACTORS
330
66
102
}
330
66
100
AcDbMLeaderStyle
179
     2
170
     2
171
     1
172
     0
 90
        2
 40
0.0
 41
0.0
173
     1
 91
-1056964608
340
5B
 92
       -2
290
     1
 42
0.09
291
     1
 43
0.36
  3
Standard
 44
0.18
300

342
55
174
     1
178
     6
175
     1
176
     0
 93
-1056964608
 45
0.18
292
     0
297
     0
 46
0.18
 94
-1056964608
 47
1.0
 49
1.0
140
1.0
293
     1
141
0.0
294
     1
177
     0
142
1.0
295
     1
296
     0
143
0.125
271
     0
272
     9
273
     9
298
     1
  0
MLINESTYLE
  5
60
102
{ACAD_REACTORS
330
5F
102
}
330
5F
100
AcDbMlineStyle
  2
STANDARD
 70
     0
  3

 62
   256
 51
90.0
 52
90.0
 71
     2
 49
0.5
 62
   256
  6
BYLAYER
 49
-0.5
 62
   256
  6
BYLAYER
  0
ACDBPLACEHOLDER
  5
F
102
{ACAD_REACTORS
330
E
102
}
330
E
  0
SCALE
  5
43
102
{ACAD_REACTORS
330
42
102
}
330
42
100
AcDbScale
 70
     0
300
1:1
140
1.0
141
1.0
290
     1
  0
SCALE
  5
44
102
{ACAD_REACTORS
330
42
102
}
330
42
100
AcDbScale
 70
     0
300
1/128" = 1'-0"
140
0.0078125
141
12.0
290
     0
  0
SCALE
  5
45
102
{ACAD_REACTORS
330
42
102
}
330
42
100
AcDbScale
 70
     0
300
1/64" = 1'-0"
140
0.015625
141
12.0
290
     0
  0
SCALE
  5
46
102
{ACAD_REACTORS
330
42
102
}
330
42
100
AcDbScale
 70
     0
300
1/32" = 1'-0"
140
0.03125
141
12.0
290
     0
  0
SCALE
  5
47
102
{ACAD_REACTORS
330
42
102
}
330
42
100
AcDbScale
 70
     0
300
1/16" = 1'-0"
140
0.0625
141
12.0
290
     0
  0
SCALE
  5
48
102
{ACAD_REACTORS
330
42
102
}
330
42
100
AcDbScale
 70
     0
300
3/32" = 1'-0"
140
0.09375
141
12.0
290
     0
  0
SCALE
  5
49
102
{ACAD_REACTORS
330
42
102
}
330
42
100
AcDbScale
 70
     0
300
1/8" = 1'-0"
140
0.125
141
12.0
290
     0
  0
SCALE
  5
4A
102
{ACAD_REACTORS
330
42
102
}
330
42
100
AcDbScale
 70
     0
300
3/16" = 1'-0"
140
0.1875
141
12.0
290
     0
  0
SCALE
  5
4B
102
{ACAD_REACTORS
330
42
102
}
330
42
100
AcDbScale
 70
     0
300
1/4" = 1'-0"
140
0.25
141
12.0
290
     0
  0
SCALE
  5
4C
102
{ACAD_REACTORS
330
42
102
}
330
42
100
AcDbScale
 70
     0
300
3/8" = 1'-0"
140
0.375
141
12.0
290
     0
  0
SCALE
  5
4D
102
{ACAD_REACTORS
330
42
102
}
330
42
100
AcDbScale
 70
     0
300
1/2" = 1'-0"
140
0.5
141
12.0
290
     0
  0
SCALE
  5
4E
102
{ACAD_REACTORS
330
42
102
}
330
42
100
AcDbScale
 70
     0
300
3/4" = 1'-0"
140
0.75
141
12.0
290
     0
  0
SCALE
  5
4F
102
{ACAD_REACTORS
330
42
102
}
330
42
100
AcDbScale
 70
     0
300
1" = 1'-0"
140
1.0
141
12.0
290
     0
  0
SCALE
  5
50
102
{ACAD_REACTORS
330
42
102
}
330
42
100
AcDbScale
 70
     0
300
1-1/2" = 1'-0"
140
1.5
141
12.0
290
     0
  0
SCALE
  5
51
102
{ACAD_REACTORS
330
42
102
}
330
42
100
AcDbScale
 70
     0
300
3" = 1'-0"
140
3.0
141
12.0
290
     0
  0
SCALE
  5
52
102
{ACAD_REACTORS
330
42
102
}
330
42
100
AcDbScale
 70
     0
300
6" = 1'-0"
140
6.0
141
12.0
290
     0
  0
SCALE
  5
53
102
{ACAD_REACTORS
330
42
102
}
330
42
100
AcDbScale
 70
     0
300
1'-0" = 1'-0"
140
12.0
141
12.0
290
     0
  0
ACDBSECTIONVIEWSTYLE
  5
69
102
{ACAD_REACTORS
330
68
102
}
330
68
100
AcDbModelDocViewStyle
 70
     0
  3
Imperial24
290
     1
300
Imperial24
 90
        0
100
AcDbSectionViewStyle
 70
     0
 71
     0
 90
       78
 71
     1
340
55
 62
   256
 40
0.24
340
0
340
0
 62
   256
 40
0.24
300
I, O, Q, S, X, Z
 40
0.48
 90
        3
 40
0.18
 90
        1
 71
     2
340
5D
 90
       25
 62
   256
340
5D
 90
       50
 62
   256
 40
0.24
 40
0.0
 40
0.24
 71
     3
340
55
 62
   256
 40
0.24
 90
        1
 40
0.75
 90
        1
300
%<\AcVar ViewType \f "%tc1">% %<\AcVar ViewSectionStartId>%-%<\AcVar ViewSectionEndId>%\PSCALE %<\AcVar ViewScale \f "%sn">%
 71
     4
 62
   256
 62
   257
300
ANSI31
 40
1.0
 90
        0
290
     0
290
     0
 90
        6
 40
0.0
 40
1.570796326794896
 40
0.2617993877991494
 40
1.308996938995747
 40
-0.2617993877991494
 40
1.832595714594046
  0
TABLESTYLE
  5
65
102
{ACAD_XDICTIONARY
360
A3
102
}
102
{ACAD_REACTORS
330
64
102
}
330
64
100
AcDbTableStyle
280
     0
  3
Standard
 70
     0
 71
     0
 40
0.06
 41
0.06
280
     0
281
     0
  7
Standard
140
0.18
170
     2
 62
     0
 63
     7
283
     0
 90
      512
 91
        0
  1

274
    -2
284
     1
 64
     0
275
    -2
285
     1
 65
     0
276
    -2
286
     1
 66
     0
277
    -2
287
     1
 67
     0
278
    -2
288
     1
 68
     0
279
    -2
289
     1
 69
     0
  7
Standard
140
0.25
170
     5
 62
     0
 63
     7
283
     0
 90
      512
 91
        0
  1

274
    -2
284
     1
 64
     0
275
    -2
285
     1
 65
     0
276
    -2
286
     1
 66
     0
277
    -2
287
     1
 67
     0
278
    -2
288
     1
 68
     0
279
    -2
289
     1
 69
     0
  7
Standard
140
0.18
170
     5
 62
     0
 63
     7
283
     0
 90
      512
 91
        0
  1

274
    -2
284
     1
 64
     0
275
    -2
285
     1
 65
     0
276
    -2
286
     1
 66
     0
277
    -2
287
     1
 67
     0
278
    -2
288
     1
 68
     0
279
    -2
289
     1
 69
     0
  0
VISUALSTYLE
  5
2F
102
{ACAD_REACTORS
330
29
102
}
330
29
100
AcDbVisualStyle
  2
2dWireframe
 70
     4
177
     3
291
     0
 70
    58
 90
        0
176
     1
 90
        2
176
     1
 90
        0
176
     1
 90
        0
176
     1
 40
0.6
176
     1
 40
30.0
176
     1
 62
     7
420
 16777215
176
     1
 90
        1
176
     1
 90
        4
176
     1
 62
     7
176
     1
 62
   257
176
     1
 90
        1
176
     1
 90
        1
176
     1
 40
1.0
176
     1
 90
        0
176
     1
 62
   257
176
     1
 40
1.0
176
     1
 90
        1
176
     1
 90
        6
176
     1
 90
        2
176
     1
 62
     7
176
     1
 90
        5
176
     1
 90
        0
176
     1
 90
        0
176
     1
290
     0
176
     1
 90
        1
176
     1
 40
0.0
176
     1
 90
        0
176
     1
290
     1
176
     1
290
     1
176
     1
290
     0
176
     1
290
     0
176
     1
290
     0
176
     1
290
     0
176
     1
290
     0
176
     1
290
     0
176
     1
290
     0
176
     1
 90
       50
176
     1
 40
0.0
176
     1
 40
1.0
176
     1
 90
        0
176
     1
 62
    18
420
        0
176
     1
 90
       50
176
     1
 90
        3
176
     1
 62
     5
420
      255
176
     1
290
     0
176
     1
 90
       50
176
     1
 90
       50
176
     1
 90
       50
176
     1
290
     0
176
     1
 90
       50
176
     1
 62
   256
176
     0
 40
1.0
176
     0
 90
        2
176
     1
  1
strokes_ogs.tif
176
     1
290
     0
176
     1
 40
1.0
176
     1
 40
1.0
176
     1
  0
VISUALSTYLE
  5
2E
102
{ACAD_REACTORS
330
29
102
}
330
29
100
AcDbVisualStyle
  2
Basic
 70
     7
177
     3
291
     1
 70
    58
 90
        1
176
     1
 90
        0
176
     1
 90
        1
176
     1
 90
        0
176
     1
 40
0.6
176
     1
 40
30.0
176
     1
 62
     7
420
 16777215
176
     1
 90
        0
176
     1
 90
        4
176
     1
 62
     7
176
     1
 62
   257
176
     1
 90
        1
176
     1
 90
        1
176
     1
 40
1.0
176
     1
 90
        8
176
     1
 62
     7
176
     1
 40
1.0
176
     1
 90
        1
176
     1
 90
        6
176
     1
 90
        2
176
     1
 62
     7
176
     1
 90
        5
176
     1
 90
        0
176
     1
 90
        0
176
     1
290
     0
176
     1
 90
        1
176
     1
 40
0.0
176
     1
 90
        0
176
     1
290
     0
176
     1
290
     1
176
     1
290
     1
176
     1
290
     0
176
     1
290
     0
176
     1
290
     0
176
     1
290
     0
176
     1
290
     0
176
     1
290
     0
176
     1
 90
       50
176
     1
 40
0.0
176
     1
 40
1.0
176
     1
 90
        0
176
     1
 62
    18
420
        0
176
     1
 90
       50
176
     1
 90
        3
176
     1
 62
     5
420
      255
176
     1
290
     0
176
     1
 90
       50
176
     1
 90
       50
176
     1
 90
       50
176
     1
290
     0
176
     1
 90
       50
176
     1
 62
   256
176
     0
 40
1.0
176
     0
 90
        2
176
     1
  1
strokes_ogs.tif
176
     1
290
     0
176
     1
 40
1.0
176
     1
 40
1.0
176
     1
  0
VISUALSTYLE
  5
35
102
{ACAD_REACTORS
330
29
102
}
330
29
100
AcDbVisualStyle
  2
Brighten
 70
    12
177
     3
291
     1
 70
    58
 90
        2
176
     1
 90
        2
176
     1
 90
        0
176
     1
 90
        0
176
     1
 40
0.6
176
     1
 40
30.0
176
     1
 62
     7
420
 16777215
176
     1
 90
        1
176
     1
 90
        4
176
     1
 62
     7
176
     1
 62
   257
176
     1
 90
        1
176
     1
 90
        1
176
     1
 40
1.0
176
     1
 90
        8
176
     1
 62
     7
176
     1
 40
1.0
176
     1
 90
        1
176
     1
 90
        6
176
     1
 90
        2
176
     1
 62
     7
176
     1
 90
        5
176
     1
 90
        0
176
     1
 90
        0
176
     1
290
     0
176
     1
 90
        1
176
     1
 40
50.0
176
     1
 90
        0
176
     1
290
     0
176
     1
290
     1
176
     1
290
     1
176
     1
290
     0
176
     1
290
     0
176
     1
290
     0
176
     1
290
     0
176
     1
290
     0
176
     1
290
     0
176
     1
 90
       50
176
     1
 40
0.0
176
     1
 40
1.0
176
     1
 90
        0
176
     1
 62
    18
420
        0
176
     1
 90
       50
176
     1
 90
        3
176
     1
 62
     5
420
      255
176
     1
290
     0
176
     1
 90
       50
176
     1
 90
       50
176
     1
 90
       50
176
     1
290
     0
176
     1
 90
       50
176
     1
 62
   256
176
     0
 40
1.0
176
     0
 90
        2
176
     1
  1
strokes_ogs.tif
176
     1
290
     0
176
     1
 40
1.0
176
     1
 40
1.0
176
     1
  0
VISUALSTYLE
  5
39
102
{ACAD_REACTORS
330
29
102
}
330
29
100
AcDbVisualStyle
  2
ColorChange
 70
    16
177
     3
291
     1
 70
    58
 90
        2
176
     1
 90
        2
176
     1
 90
        3
176
     1
 90
        0
176
     1
 40
0.6
176
     1
 40
30.0
176
     1
 62
     8
420
  8421504
176
     1
 90
        1
176
     1
 90
        4
176
     1
 62
     7
176
     1
 62
   257
176
     1
 90
        1
176
     1
 90
        1
176
     1
 40
1.0
176
     1
 90
        8
176
     1
 62
     8
420
  8421504
176
     1
 40
1.0
176
     1
 90
        1
176
     1
 90
        6
176
     1
 90
        2
176
     1
 62
     7
176
     1
 90
        5
176
     1
 90
        0
176
     1
 90
        0
176
     1
290
     0
176
     1
 90
        1
176
     1
 40
0.0
176
     1
 90
        0
176
     1
290
     0
176
     1
290
     1
176
     1
290
     1
176
     1
290
     0
176
     1
290
     0
176
     1
290
     0
176
     1
290
     0
176
     1
290
     0
176
     1
290
     0
176
     1
 90
       50
176
     1
 40
0.0
176
     1
 40
1.0
176
     1
 90
        0
176
     1
 62
    18
420
        0
176
     1
 90
       50
176
     1
 90
        3
176
     1
 62
     5
420
      255
176
     1
290
     0
176
     1
 90
       50
176
     1
 90
       50
176
     1
 90
       50
176
     1
290
     0
176
     1
 90
       50
176
     1
 62
   256
176
     0
 40
1.0
176
     0
 90
        2
176
     1
  1
strokes_ogs.tif
176
     1
290
     0
176
     1
 40
1.0
176
     1
 40
1.0
176
     1
  0
VISUALSTYLE
  5
32
102
{ACAD_REACTORS
330
29
102
}
330
29
100
AcDbVisualStyle
  2
Conceptual
 70
     9
177
     3
291
     0
 70
    58
 90
        3
176
     1
 90
        2
176
     1
 90
        0
176
     1
 90
        0
176
     1
 40
0.6
176
     1
 40
30.0
176
     1
 62
     7
420
 16777215
176
     1
 90
        2
176
     1
 90
        2
176
     1
 62
     7
176
     1
 62
   257
176
     1
 90
        1
176
     1
 90
        1
176
     1
 40
179.0
176
     1
 90
        8
176
     1
 62
     7
176
     1
 40
1.0
176
     1
 90
        1
176
     1
 90
        6
176
     1
 90
        2
176
     1
 62
     7
176
     1
 90
        3
176
     1
 90
        0
176
     1
 90
        0
176
     1
290
     0
176
     1
 90
        1
176
     1
 40
0.0
176
     1
 90
        0
176
     1
290
     0
176
     1
290
     1
176
     1
290
     1
176
     1
290
     0
176
     1
290
     0
176
     1
290
     0
176
     1
290
     0
176
     1
290
     0
176
     1
290
     0
176
     1
 90
       50
176
     1
 40
0.0
176
     1
 40
1.0
176
     1
 90
        0
176
     1
 62
    18
420
        0
176
     1
 90
       50
176
     1
 90
        3
176
     1
 62
     5
420
      255
176
     1
290
     0
176
     1
 90
       50
176
     1
 90
       50
176
     1
 90
       50
176
     1
290
     0
176
     1
 90
       50
176
     1
 62
   256
176
     0
 40
1.0
176
     0
 90
        2
176
     1
  1
strokes_ogs.tif
176
     1
290
     0
176
     1
 40
1.0
176
     1
 40
1.0
176
     1
  0
VISUALSTYLE
  5
34
102
{ACAD_REACTORS
330
29
102
}
330
29
100
AcDbVisualStyle
  2
Dim
 70
    11
177
     3
291
     1
 70
    58
 90
        2
176
     1
 90
        2
176
     1
 90
        0
176
     1
 90
        0
176
     1
 40
0.6
176
     1
 40
30.0
176
     1
 62
     7
420
 16777215
176
     1
 90
        1
176
     1
 90
        4
176
     1
 62
     7
176
     1
 62
   257
176
     1
 90
        1
176
     1
 90
        1
176
     1
 40
1.0
176
     1
 90
        8
176
     1
 62
     7
176
     1
 40
1.0
176
     1
 90
        1
176
     1
 90
        6
176
     1
 90
        2
176
     1
 62
     7
176
     1
 90
        5
176
     1
 90
        0
176
     1
 90
        0
176
     1
290
     0
176
     1
 90
        1
176
     1
 40
-50.0
176
     1
 90
        0
176
     1
290
     0
176
     1
290
     1
176
     1
290
     1
176
     1
290
     0
176
     1
290
     0
176
     1
290
     0
176
     1
290
     0
176
     1
290
     0
176
     1
290
     0
176
     1
 90
       50
176
     1
 40
0.0
176
     1
 40
1.0
176
     1
 90
        0
176
     1
 62
    18
420
        0
176
     1
 90
       50
176
     1
 90
        3
176
     1
 62
     5
420
      255
176
     1
290
     0
176
     1
 90
       50
176
     1
 90
       50
176
     1
 90
       50
176
     1
290
     0
176
     1
 90
       50
176
     1
 62
   256
176
     0
 40
1.0
176
     0
 90
        2
176
     1
  1
strokes_ogs.tif
176
     1
290
     0
176
     1
 40
1.0
176
     1
 40
1.0
176
     1
  0
VISUALSTYLE
  5
41
102
{ACAD_REACTORS
330
29
102
}
330
29
100
AcDbVisualStyle
  2
EdgeColorOff
 70
    22
177
     3
291
     1
 70
    58
 90
        2
176
     0
 90
        2
176
     0
 90
        0
176
     0
 90
        0
176
     0
 40
0.6
176
     0
 40
30.0
176
     0
 62
     7
420
 16777215
176
     0
 90
        1
176
     0
 90
        4
176
     0
 62
     7
176
     0
 62
   257
176
     0
 90
        1
176
     0
 90
        1
176
     0
 40
1.0
176
     0
 90
        8
176
     2
 62
     7
176
     0
 40
1.0
176
     0
 90
        1
176
     0
 90
        6
176
     0
 90
        2
176
     0
 62
     7
176
     0
 90
        5
176
     0
 90
        0
176
     0
 90
        0
176
     0
290
     0
176
     0
 90
        1
176
     0
 40
0.0
176
     0
 90
        0
176
     0
290
     0
176
     0
290
     1
176
     0
290
     1
176
     0
290
     0
176
     0
290
     0
176
     0
290
     0
176
     0
290
     0
176
     0
290
     0
176
     0
290
     0
176
     0
 90
       50
176
     0
 40
0.0
176
     0
 40
1.0
176
     0
 90
        0
176
     0
 62
    18
420
        0
176
     0
 90
       50
176
     0
 90
        3
176
     0
 62
     5
420
      255
176
     0
290
     0
176
     0
 90
       50
176
     0
 90
       50
176
     0
 90
       50
176
     0
290
     0
176
     0
 90
       50
176
     0
 62
   256
176
     0
 40
1.0
176
     0
 90
        2
176
     0
  1
strokes_ogs.tif
176
     0
290
     0
176
     0
 40
1.0
176
     0
 40
1.0
176
     0
  0
VISUALSTYLE
  5
38
102
{ACAD_REACTORS
330
29
102
}
330
29
100
AcDbVisualStyle
  2
Facepattern
 70
    15
177
     3
291
     1
 70
    58
 90
        2
176
     1
 90
        2
176
     1
 90
        0
176
     1
 90
        0
176
     1
 40
0.6
176
     1
 40
30.0
176
     1
 62
     7
420
 16777215
176
     1
 90
        1
176
     1
 90
        4
176
     1
 62
     7
176
     1
 62
   257
176
     1
 90
        1
176
     1
 90
        1
176
     1
 40
1.0
176
     1
 90
        8
176
     1
 62
     7
176
     1
 40
1.0
176
     1
 90
        1
176
     1
 90
        6
176
     1
 90
        2
176
     1
 62
     7
176
     1
 90
        5
176
     1
 90
        0
176
     1
 90
        0
176
     1
290
     0
176
     1
 90
        1
176
     1
 40
0.0
176
     1
 90
        0
176
     1
290
     0
176
     1
290
     1
176
     1
290
     1
176
     1
290
     0
176
     1
290
     0
176
     1
290
     0
176
     1
290
     0
176
     1
290
     0
176
     1
290
     0
176
     1
 90
       50
176
     1
 40
0.0
176
     1
 40
1.0
176
     1
 90
        0
176
     1
 62
    18
420
        0
176
     1
 90
       50
176
     1
 90
        3
176
     1
 62
     5
420
      255
176
     1
290
     0
176
     1
 90
       50
176
     1
 90
       50
176
     1
 90
       50
176
     1
290
     0
176
     1
 90
       50
176
     1
 62
   256
176
     0
 40
1.0
176
     0
 90
        2
176
     1
  1
strokes_ogs.tif
176
     1
290
     0
176
     1
 40
1.0
176
     1
 40
1.0
176
     1
  0
VISUALSTYLE
  5
2A
102
{ACAD_REACTORS
330
29
102
}
330
29
100
AcDbVisualStyle
  2
Flat
 70
     0
177
     3
291
     1
 70
    58
 90
        2
176
     1
 90
        1
176
     1
 90
        1
176
     1
 90
        2
176
     1
 40
0.6
176
     1
 40
30.0
176
     1
 62
     7
420
 16777215
176
     1
 90
        0
176
     1
 90
        0
176
     1
 62
     7
176
     1
 62
   257
176
     1
 90
        1
176
     1
 90
        1
176
     1
 40
1.0
176
     1
 90
        8
176
     1
 62
     7
176
     1
 40
1.0
176
     1
 90
        1
176
     1
 90
        6
176
     1
 90
        2
176
     1
 62
     7
176
     1
 90
        5
176
     1
 90
        0
176
     1
 90
        0
176
     1
290
     0
176
     1
 90
       13
176
     1
 40
0.0
176
     1
 90
        0
176
     1
290
     0
176
     1
290
     1
176
     1
290
     1
176
     1
290
     0
176
     1
290
     0
176
     1
290
     0
176
     1
290
     0
176
     1
290
     0
176
     1
290
     0
176
     1
 90
       50
176
     1
 40
0.0
176
     1
 40
1.0
176
     1
 90
        0
176
     1
 62
    18
420
        0
176
     1
 90
       50
176
     1
 90
        3
176
     1
 62
     5
420
      255
176
     1
290
     0
176
     1
 90
       50
176
     1
 90
       50
176
     1
 90
       50
176
     1
290
     0
176
     1
 90
       50
176
     1
 62
   256
176
     0
 40
1.0
176
     0
 90
        2
176
     1
  1
strokes_ogs.tif
176
     1
290
     0
176
     1
 40
1.0
176
     1
 40
1.0
176
     1
  0
VISUALSTYLE
  5
2B
102
{ACAD_REACTORS
330
29
102
}
330
29
100
AcDbVisualStyle
  2
FlatWithEdges
 70
     1
177
     3
291
     1
 70
    58
 90
        2
176
     1
 90
        1
176
     1
 90
        1
176
     1
 90
        2
176
     1
 40
0.6
176
     1
 40
30.0
176
     1
 62
     7
420
 16777215
176
     1
 90
        1
176
     1
 90
        0
176
     1
 62
     7
176
     1
 62
   257
176
     1
 90
        1
176
     1
 90
        1
176
     1
 40
1.0
176
     1
 90
        0
176
     1
 62
   257
176
     1
 40
1.0
176
     1
 90
        1
176
     1
 90
        6
176
     1
 90
        2
176
     1
 62
     7
176
     1
 90
        5
176
     1
 90
        0
176
     1
 90
        0
176
     1
290
     0
176
     1
 90
       13
176
     1
 40
0.0
176
     1
 90
        0
176
     1
290
     0
176
     1
290
     1
176
     1
290
     1
176
     1
290
     0
176
     1
290
     0
176
     1
290
     0
176
     1
290
     0
176
     1
290
     0
176
     1
290
     0
176
     1
 90
       50
176
     1
 40
0.0
176
     1
 40
1.0
176
     1
 90
        0
176
     1
 62
    18
420
        0
176
     1
 90
       50
176
     1
 90
        3
176
     1
 62
     5
420
      255
176
     1
290
     0
176
     1
 90
       50
176
     1
 90
       50
176
     1
 90
       50
176
     1
290
     0
176
     1
 90
       50
176
     1
 62
   256
176
     0
 40
1.0
176
     0
 90
        2
176
     1
  1
strokes_ogs.tif
176
     1
290
     0
176
     1
 40
1.0
176
     1
 40
1.0
176
     1
  0
VISUALSTYLE
  5
2C
102
{ACAD_REACTORS
330
29
102
}
330
29
100
AcDbVisualStyle
  2
Gouraud
 70
     2
177
     3
291
     1
 70
    58
 90
        2
176
     1
 90
        2
176
     1
 90
        1
176
     1
 90
        2
176
     1
 40
0.6
176
     1
 40
30.0
176
     1
 62
     7
420
 16777215
176
     1
 90
        0
176
     1
 90
        0
176
     1
 62
     7
176
     1
 62
   257
176
     1
 90
        1
176
     1
 90
        1
176
     1
 40
1.0
176
     1
 90
        0
176
     1
 62
     7
176
     1
 40
1.0
176
     1
 90
        1
176
     1
 90
        6
176
     1
 90
        2
176
     1
 62
     7
176
     1
 90
        5
176
     1
 90
        0
176
     1
 90
        0
176
     1
290
     0
176
     1
 90
       13
176
     1
 40
0.0
176
     1
 90
        0
176
     1
290
     0
176
     1
290
     1
176
     1
290
     1
176
     1
290
     0
176
     1
290
     0
176
     1
290
     0
176
     1
290
     0
176
     1
290
     0
176
     1
290
     0
176
     1
 90
       50
176
     1
 40
0.0
176
     1
 40
1.0
176
     1
 90
        0
176
     1
 62
    18
420
        0
176
     1
 90
       50
176
     1
 90
        3
176
     1
 62
     5
420
      255
176
     1
290
     0
176
     1
 90
       50
176
     1
 90
       50
176
     1
 90
       50
176
     1
290
     0
176
     1
 90
       50
176
     1
 62
   256
176
     0
 40
1.0
176
     0
 90
        2
176
     1
  1
strokes_ogs.tif
176
     1
290
     0
176
     1
 40
1.0
176
     1
 40
1.0
176
     1
  0
VISUALSTYLE
  5
2D
102
{ACAD_REACTORS
330
29
102
}
330
29
100
AcDbVisualStyle
  2
GouraudWithEdges
 70
     3
177
     3
291
     1
 70
    58
 90
        2
176
     1
 90
        2
176
     1
 90
        1
176
     1
 90
        2
176
     1
 40
0.6
176
     1
 40
30.0
176
     1
 62
     7
420
 16777215
176
     1
 90
        1
176
     1
 90
        0
176
     1
 62
     7
176
     1
 62
   257
176
     1
 90
        1
176
     1
 90
        1
176
     1
 40
1.0
176
     1
 90
        0
176
     1
 62
   257
176
     1
 40
1.0
176
     1
 90
        1
176
     1
 90
        6
176
     1
 90
        2
176
     1
 62
     7
176
     1
 90
        5
176
     1
 90
        0
176
     1
 90
        0
176
     1
290
     0
176
     1
 90
       13
176
     1
 40
0.0
176
     1
 90
        0
176
     1
290
     0
176
     1
290
     1
176
     1
290
     1
176
     1
290
     0
176
     1
290
     0
176
     1
290
     0
176
     1
290
     0
176
     1
290
     0
176
     1
290
     0
176
     1
 90
       50
176
     1
 40
0.0
176
     1
 40
1.0
176
     1
 90
        0
176
     1
 62
    18
420
        0
176
     1
 90
       50
176
     1
 90
        3
176
     1
 62
     5
420
      255
176
     1
290
     0
176
     1
 90
       50
176
     1
 90
       50
176
     1
 90
       50
176
     1
290
     0
176
     1
 90
       50
176
     1
 62
   256
176
     0
 40
1.0
176
     0
 90
        2
176
     1
  1
strokes_ogs.tif
176
     1
290
     0
176
     1
 40
1.0
176
     1
 40
1.0
176
     1
  0
VISUALSTYLE
  5
31
102
{ACAD_REACTORS
330
29
102
}
330
29
100
AcDbVisualStyle
  2
Hidden
 70
     6
177
     3
291
     0
 70
    58
 90
        1
176
     1
 90
        2
176
     1
 90
        2
176
     1
 90
        0
176
     1
 40
0.6
176
     1
 40
30.0
176
     1
 62
     7
420
 16777215
176
     1
 90
        2
176
     1
 90
        2
176
     1
 62
     7
176
     1
 62
   257
176
     1
 90
        2
176
     1
 90
        1
176
     1
 40
40.0
176
     1
 90
        0
176
     1
 62
   257
176
     1
 40
1.0
176
     1
 90
        1
176
     1
 90
        6
176
     1
 90
        2
176
     1
 62
     7
176
     1
 90
        3
176
     1
 90
        0
176
     1
 90
        0
176
     1
290
     0
176
     1
 90
        1
176
     1
 40
0.0
176
     1
 90
        0
176
     1
290
     0
176
     1
290
     1
176
     1
290
     1
176
     1
290
     0
176
     1
290
     0
176
     1
290
     0
176
     1
290
     0
176
     1
290
     0
176
     1
290
     0
176
     1
 90
       50
176
     1
 40
0.0
176
     1
 40
1.0
176
     1
 90
        0
176
     1
 62
    18
420
        0
176
     1
 90
       50
176
     1
 90
        3
176
     1
 62
     5
420
      255
176
     1
290
     0
176
     1
 90
       50
176
     1
 90
       50
176
     1
 90
       50
176
     1
290
     0
176
     1
 90
       50
176
     1
 62
   256
176
     0
 40
1.0
176
     0
 90
        2
176
     1
  1
strokes_ogs.tif
176
     1
290
     0
176
     1
 40
1.0
176
     1
 40
1.0
176
     1
  0
VISUALSTYLE
  5
3F
102
{ACAD_REACTORS
330
29
102
}
330
29
100
AcDbVisualStyle
  2
JitterOff
 70
    20
177
     3
291
     1
 70
    58
 90
        2
176
     0
 90
        2
176
     0
 90
        0
176
     0
 90
        0
176
     0
 40
0.6
176
     0
 40
30.0
176
     0
 62
     7
420
 16777215
176
     0
 90
        1
176
     0
 90
        4
176
     0
 62
     7
176
     0
 62
   257
176
     0
 90
        1
176
     0
 90
        1
176
     0
 40
1.0
176
     0
 90
       10
176
     2
 62
     7
176
     0
 40
1.0
176
     0
 90
        1
176
     0
 90
        6
176
     0
 90
        2
176
     0
 62
     7
176
     0
 90
        5
176
     0
 90
        0
176
     0
 90
        0
176
     0
290
     0
176
     0
 90
        1
176
     0
 40
0.0
176
     0
 90
        0
176
     0
290
     0
176
     0
290
     1
176
     0
290
     1
176
     0
290
     0
176
     0
290
     0
176
     0
290
     0
176
     0
290
     0
176
     0
290
     0
176
     0
290
     0
176
     0
 90
       50
176
     0
 40
0.0
176
     0
 40
1.0
176
     0
 90
        0
176
     0
 62
    18
420
        0
176
     0
 90
       50
176
     0
 90
        3
176
     0
 62
     5
420
      255
176
     0
290
     0
176
     0
 90
       50
176
     0
 90
       50
176
     0
 90
       50
176
     0
290
     0
176
     0
 90
       50
176
     0
 62
   256
176
     0
 40
1.0
176
     0
 90
        2
176
     0
  1
strokes_ogs.tif
176
     0
290
     0
176
     0
 40
1.0
176
     0
 40
1.0
176
     0
  0
VISUALSTYLE
  5
37
102
{ACAD_REACTORS
330
29
102
}
330
29
100
AcDbVisualStyle
  2
Linepattern
 70
    14
177
     3
291
     1
 70
    58
 90
        2
176
     1
 90
        2
176
     1
 90
        0
176
     1
 90
        0
176
     1
 40
0.6
176
     1
 40
30.0
176
     1
 62
     7
420
 16777215
176
     1
 90
        1
176
     1
 90
        4
176
     1
 62
     7
176
     1
 62
   257
176
     1
 90
        7
176
     1
 90
        7
176
     1
 40
1.0
176
     1
 90
        8
176
     1
 62
     7
176
     1
 40
1.0
176
     1
 90
        1
176
     1
 90
        6
176
     1
 90
        2
176
     1
 62
     7
176
     1
 90
        5
176
     1
 90
        0
176
     1
 90
        0
176
     1
290
     0
176
     1
 90
        1
176
     1
 40
0.0
176
     1
 90
        0
176
     1
290
     0
176
     1
290
     1
176
     1
290
     1
176
     1
290
     0
176
     1
290
     0
176
     1
290
     0
176
     1
290
     0
176
     1
290
     0
176
     1
290
     0
176
     1
 90
       50
176
     1
 40
0.0
176
     1
 40
1.0
176
     1
 90
        0
176
     1
 62
    18
420
        0
176
     1
 90
       50
176
     1
 90
        3
176
     1
 62
     5
420
      255
176
     1
290
     0
176
     1
 90
       50
176
     1
 90
       50
176
     1
 90
       50
176
     1
290
     0
176
     1
 90
       50
176
     1
 62
   256
176
     0
 40
1.0
176
     0
 90
        2
176
     1
  1
strokes_ogs.tif
176
     1
290
     0
176
     1
 40
1.0
176
     1
 40
1.0
176
     1
  0
VISUALSTYLE
  5
40
102
{ACAD_REACTORS
330
29
102
}
330
29
100
AcDbVisualStyle
  2
OverhangOff
 70
    21
177
     3
291
     1
 70
    58
 90
        2
176
     0
 90
        2
176
     0
 90
        0
176
     0
 90
        0
176
     0
 40
0.6
176
     0
 40
30.0
176
     0
 62
     7
420
 16777215
176
     0
 90
        1
176
     0
 90
        4
176
     0
 62
     7
176
     0
 62
   257
176
     0
 90
        1
176
     0
 90
        1
176
     0
 40
1.0
176
     0
 90
        9
176
     2
 62
     7
176
     0
 40
1.0
176
     0
 90
        1
176
     0
 90
        6
176
     0
 90
        2
176
     0
 62
     7
176
     0
 90
        5
176
     0
 90
        0
176
     0
 90
        0
176
     0
290
     0
176
     0
 90
        1
176
     0
 40
0.0
176
     0
 90
        0
176
     0
290
     0
176
     0
290
     1
176
     0
290
     1
176
     0
290
     0
176
     0
290
     0
176
     0
290
     0
176
     0
290
     0
176
     0
290
     0
176
     0
290
     0
176
     0
 90
       50
176
     0
 40
0.0
176
     0
 40
1.0
176
     0
 90
        0
176
     0
 62
    18
420
        0
176
     0
 90
       50
176
     0
 90
        3
176
     0
 62
     5
420
      255
176
     0
290
     0
176
     0
 90
       50
176
     0
 90
       50
176
     0
 90
       50
176
     0
290
     0
176
     0
 90
       50
176
     0
 62
   256
176
     0
 40
1.0
176
     0
 90
        2
176
     0
  1
strokes_ogs.tif
176
     0
290
     0
176
     0
 40
1.0
176
     0
 40
1.0
176
     0
  0
VISUALSTYLE
  5
33
102
{ACAD_REACTORS
330
29
102
}
330
29
100
AcDbVisualStyle
  2
Realistic
 70
     8
177
     3
291
     0
 70
    58
 90
        2
176
     1
 90
        3
176
     1
 90
        0
176
     1
 90
        2
176
     1
 40
0.6
176
     1
 40
30.0
176
     1
 62
     7
420
 16777215
176
     1
 90
        0
176
     1
 90
        0
176
     1
 62
     7
176
     1
 62
   257
176
     1
 90
        1
176
     1
 90
        1
176
     1
 40
1.0
176
     1
 90
        8
176
     1
 62
   257
176
     1
 40
1.0
176
     1
 90
        1
176
     1
 90
        6
176
     1
 90
        2
176
     1
 62
     7
176
     1
 90
        3
176
     1
 90
        0
176
     1
 90
        0
176
     1
290
     0
176
     1
 90
       13
176
     1
 40
0.0
176
     1
 90
        0
176
     1
290
     0
176
     1
290
     1
176
     1
290
     1
176
     1
290
     0
176
     1
290
     0
176
     1
290
     0
176
     1
290
     0
176
     1
290
     0
176
     1
290
     0
176
     1
 90
       50
176
     1
 40
0.0
176
     1
 40
1.0
176
     1
 90
        0
176
     1
 62
    18
420
        0
176
     1
 90
       50
176
     1
 90
        3
176
     1
 62
     5
420
      255
176
     1
290
     0
176
     1
 90
       50
176
     1
 90
       50
176
     1
 90
       50
176
     1
290
     0
176
     1
 90
       50
176
     1
 62
   256
176
     0
 40
1.0
176
     0
 90
        2
176
     1
  1
strokes_ogs.tif
176
     1
290
     0
176
     1
 40
1.0
176
     1
 40
1.0
176
     1
  0
VISUALSTYLE
  5
3E
102
{ACAD_REACTORS
330
29
102
}
330
29
100
AcDbVisualStyle
  2
Shaded
 70
    27
177
     3
291
     0
 70
    58
 90
        2
176
     1
 90
        2
176
     1
 90
        1
176
     1
 90
        2
176
     1
 40
0.6
176
     1
 40
30.0
176
     1
 62
     7
420
 16777215
176
     1
 90
        0
176
     1
 90
        4
176
     1
 62
     7
176
     1
 62
   257
176
     1
 90
        1
176
     1
 90
        1
176
     1
 40
1.0
176
     1
 90
        8
176
     1
 62
   257
176
     1
 40
1.0
176
     1
 90
        1
176
     1
 90
        6
176
     1
 90
        2
176
     1
 62
     8
420
  7895160
176
     1
 90
        3
176
     1
 90
        0
176
     1
 90
        0
176
     1
290
     0
176
     1
 90
        5
176
     1
 40
0.0
176
     1
 90
        0
176
     1
290
     0
176
     1
290
     1
176
     1
290
     1
176
     1
290
     0
176
     1
290
     0
176
     1
290
     0
176
     1
290
     0
176
     1
290
     0
176
     1
290
     0
176
     1
 90
       50
176
     1
 40
0.0
176
     1
 40
1.0
176
     1
 90
        0
176
     1
 62
    18
420
        0
176
     1
 90
       50
176
     1
 90
        3
176
     1
 62
     5
420
      255
176
     1
290
     0
176
     1
 90
       50
176
     1
 90
       50
176
     1
 90
       50
176
     1
290
     0
176
     1
 90
       50
176
     1
 62
   256
176
     0
 40
1.0
176
     0
 90
        2
176
     1
  1
strokes_ogs.tif
176
     1
290
     0
176
     1
 40
1.0
176
     1
 40
1.0
176
     1
  0
VISUALSTYLE
  5
3D
102
{ACAD_REACTORS
330
29
102
}
330
29
100
AcDbVisualStyle
  2
Shaded with edges
 70
    26
177
     3
291
     0
 70
    58
 90
        2
176
     1
 90
        2
176
     1
 90
        1
176
     1
 90
        2
176
     1
 40
0.6
176
     1
 40
30.0
176
     1
 62
     7
420
 16777215
176
     1
 90
        1
176
     1
 90
        2
176
     1
 62
     7
176
     1
 62
   257
176
     1
 90
        2
176
     1
 90
        1
176
     1
 40
1.0
176
     1
 90
        8
176
     1
 62
   257
176
     1
 40
1.0
176
     1
 90
        1
176
     1
 90
        6
176
     1
 90
        2
176
     1
 62
     7
176
     1
 90
        3
176
     1
 90
        0
176
     1
 90
        0
176
     1
290
     0
176
     1
 90
        5
176
     1
 40
0.0
176
     1
 90
        0
176
     1
290
     0
176
     1
290
     1
176
     1
290
     1
176
     1
290
     0
176
     1
290
     0
176
     1
290
     0
176
     1
290
     0
176
     1
290
     0
176
     1
290
     0
176
     1
 90
       50
176
     1
 40
0.0
176
     1
 40
1.0
176
     1
 90
        0
176
     1
 62
    18
420
        0
176
     1
 90
       50
176
     1
 90
        3
176
     1
 62
     5
420
      255
176
     1
290
     0
176
     1
 90
       50
176
     1
 90
       50
176
     1
 90
       50
176
     1
290
     0
176
     1
 90
       50
176
     1
 62
   256
176
     0
 40
1.0
176
     0
 90
        2
176
     1
  1
strokes_ogs.tif
176
     1
290
     0
176
     1
 40
1.0
176
     1
 40
1.0
176
     1
  0
VISUALSTYLE
  5
3A
102
{ACAD_REACTORS
330
29
102
}
330
29
100
AcDbVisualStyle
  2
Shades of Gray
 70
    23
177
     3
291
     0
 70
    58
 90
        2
176
     1
 90
        2
176
     1
 90
        3
176
     1
 90
        0
176
     1
 40
0.6
176
     1
 40
30.0
176
     1
 62
     7
420
 16777215
176
     1
 90
        2
176
     1
 90
        2
176
     1
 62
     7
176
     1
 62
     7
176
     1
 90
        1
176
     1
 90
        1
176
     1
 40
40.0
176
     1
 90
        8
176
     1
 62
     7
176
     1
 40
1.0
176
     1
 90
        1
176
     1
 90
        6
176
     1
 90
        2
176
     1
 62
     7
176
     1
 90
        3
176
     1
 90
        0
176
     1
 90
        0
176
     1
290
     0
176
     1
 90
        1
176
     1
 40
0.0
176
     1
 90
        0
176
     1
290
     0
176
     1
290
     1
176
     1
290
     1
176
     1
290
     0
176
     1
290
     0
176
     1
290
     0
176
     1
290
     0
176
     1
290
     0
176
     1
290
     0
176
     1
 90
       50
176
     1
 40
0.0
176
     1
 40
1.0
176
     1
 90
        0
176
     1
 62
    18
420
        0
176
     1
 90
       50
176
     1
 90
        3
176
     1
 62
     5
420
      255
176
     1
290
     0
176
     1
 90
       50
176
     1
 90
       50
176
     1
 90
       50
176
     1
290
     0
176
     1
 90
       50
176
     1
 62
   256
176
     0
 40
1.0
176
     0
 90
        2
176
     1
  1
strokes_ogs.tif
176
     1
290
     0
176
     1
 40
1.0
176
     1
 40
1.0
176
     1
  0
VISUALSTYLE
  5
3B
102
{ACAD_REACTORS
330
29
102
}
330
29
100
AcDbVisualStyle
  2
Sketchy
 70
    24
177
     3
291
     0
 70
    58
 90
        1
176
     1
 90
        2
176
     1
 90
        2
176
     1
 90
        0
176
     1
 40
0.6
176
     1
 40
30.0
176
     1
 62
     7
420
 16777215
176
     1
 90
        2
176
     1
 90
        2
176
     1
 62
     7
176
     1
 62
     7
176
     1
 90
        1
176
     1
 90
        1
176
     1
 40
40.0
176
     1
 90
       11
176
     1
 62
     7
176
     1
 40
1.0
176
     1
 90
        1
176
     1
 90
        6
176
     1
 90
        2
176
     1
 62
     7
176
     1
 90
        6
176
     1
 90
        0
176
     1
 90
        0
176
     1
290
     0
176
     1
 90
        1
176
     1
 40
0.0
176
     1
 90
        0
176
     1
290
     0
176
     1
290
     1
176
     1
290
     1
176
     1
290
     0
176
     1
290
     0
176
     1
290
     0
176
     1
290
     0
176
     1
290
     0
176
     1
290
     0
176
     1
 90
       50
176
     1
 40
0.0
176
     1
 40
1.0
176
     1
 90
        0
176
     1
 62
    18
420
        0
176
     1
 90
       50
176
     1
 90
        3
176
     1
 62
     5
420
      255
176
     1
290
     0
176
     1
 90
       50
176
     1
 90
       50
176
     1
 90
       50
176
     1
290
     0
176
     1
 90
       50
176
     1
 62
   256
176
     0
 40
1.0
176
     0
 90
        2
176
     1
  1
strokes_ogs.tif
176
     1
290
     0
176
     1
 40
1.0
176
     1
 40
1.0
176
     1
  0
VISUALSTYLE
  5
36
102
{ACAD_REACTORS
330
29
102
}
330
29
100
AcDbVisualStyle
  2
Thicken
 70
    13
177
     3
291
     1
 70
    58
 90
        2
176
     1
 90
        2
176
     1
 90
        0
176
     1
 90
        0
176
     1
 40
0.6
176
     1
 40
30.0
176
     1
 62
     7
420
 16777215
176
     1
 90
        1
176
     1
 90
        4
176
     1
 62
     7
176
     1
 62
   257
176
     1
 90
        1
176
     1
 90
        1
176
     1
 40
1.0
176
     1
 90
       12
176
     1
 62
     7
176
     1
 40
1.0
176
     1
 90
        1
176
     1
 90
        6
176
     1
 90
        2
176
     1
 62
     7
176
     1
 90
        5
176
     1
 90
        0
176
     1
 90
        0
176
     1
290
     0
176
     1
 90
        1
176
     1
 40
0.0
176
     1
 90
        0
176
     1
290
     0
176
     1
290
     1
176
     1
290
     1
176
     1
290
     0
176
     1
290
     0
176
     1
290
     0
176
     1
290
     0
176
     1
290
     0
176
     1
290
     0
176
     1
 90
       50
176
     1
 40
0.0
176
     1
 40
1.0
176
     1
 90
        0
176
     1
 62
    18
420
        0
176
     1
 90
       50
176
     1
 90
        3
176
     1
 62
     5
420
      255
176
     1
290
     0
176
     1
 90
       50
176
     1
 90
       50
176
     1
 90
       50
176
     1
290
     0
176
     1
 90
       50
176
     1
 62
   256
176
     0
 40
1.0
176
     0
 90
        2
176
     1
  1
strokes_ogs.tif
176
     1
290
     0
176
     1
 40
1.0
176
     1
 40
1.0
176
     1
  0
VISUALSTYLE
  5
30
102
{ACAD_REACTORS
330
29
102
}
330
29
100
AcDbVisualStyle
  2
Wireframe
 70
     5
177
     3
291
     0
 70
    58
 90
        0
176
     1
 90
        2
176
     1
 90
        0
176
     1
 90
        0
176
     1
 40
0.6
176
     1
 40
30.0
176
     1
 62
     7
420
 16777215
176
     1
 90
        1
176
     1
 90
        4
176
     1
 62
     7
176
     1
 62
   257
176
     1
 90
        1
176
     1
 90
        1
176
     1
 40
1.0
176
     1
 90
        0
176
     1
 62
   257
176
     1
 40
1.0
176
     1
 90
        1
176
     1
 90
        6
176
     1
 90
        2
176
     1
 62
     7
176
     1
 90
        3
176
     1
 90
        0
176
     1
 90
        0
176
     1
290
     0
176
     1
 90
        1
176
     1
 40
0.0
176
     1
 90
        0
176
     1
290
     0
176
     1
290
     1
176
     1
290
     1
176
     1
290
     0
176
     1
290
     0
176
     1
290
     0
176
     1
290
     0
176
     1
290
     0
176
     1
290
     0
176
     1
 90
       50
176
     1
 40
0.0
176
     1
 40
1.0
176
     1
 90
        0
176
     1
 62
    18
420
        0
176
     1
 90
       50
176
     1
 90
        3
176
     1
 62
     5
420
      255
176
     1
290
     0
176
     1
 90
       50
176
     1
 90
       50
176
     1
 90
       50
176
     1
290
     0
176
     1
 90
       50
176
     1
 62
   256
176
     0
 40
1.0
176
     0
 90
        2
176
     1
  1
strokes_ogs.tif
176
     1
290
     0
176
     1
 40
1.0
176
     1
 40
1.0
176
     1
  0
VISUALSTYLE
  5
3C
102
{ACAD_REACTORS
330
29
102
}
330
29
100
AcDbVisualStyle
  2
X-Ray
 70
    25
177
     3
291
     0
 70
    58
 90
        2
176
     1
 90
        2
176
     1
 90
        1
176
     1
 90
        1
176
     1
 40
0.5
176
     1
 40
30.0
176
     1
 62
     7
420
 16777215
176
     1
 90
        1
176
     1
 90
        0
176
     1
 62
     7
176
     1
 62
   257
176
     1
 90
        1
176
     1
 90
        1
176
     1
 40
1.0
176
     1
 90
        8
176
     1
 62
     7
176
     1
 40
1.0
176
     1
 90
        1
176
     1
 90
        6
176
     1
 90
        2
176
     1
 62
     7
176
     1
 90
        3
176
     1
 90
        0
176
     1
 90
        0
176
     1
290
     0
176
     1
 90
       13
176
     1
 40
0.0
176
     1
 90
        0
176
     1
290
     0
176
     1
290
     1
176
     1
290
     1
176
     1
290
     0
176
     1
290
     0
176
     1
290
     0
176
     1
290
     0
176
     1
290
     0
176
     1
290
     0
176
     1
 90
       50
176
     1
 40
0.0
176
     1
 40
1.0
176
     1
 90
        0
176
     1
 62
    18
420
        0
176
     1
 90
       50
176
     1
 90
        3
176
     1
 62
     5
420
      255
176
     1
290
     0
176
     1
 90
       50
176
     1
 90
       50
176
     1
 90
       50
176
     1
290
     0
176
     1
 90
       50
176
     1
 62
   256
176
     0
 40
1.0
176
     0
 90
        2
176
     1
  1
strokes_ogs.tif
176
     1
290
     0
176
     1
 40
1.0
176
     1
 40
1.0
176
     1
  0
DICTIONARYVAR
  5
A2
102
{ACAD_REACTORS
330
9D
102
}
330
9D
100
DictionaryVariables
280
     0
  1
1:1
  0
DICTIONARYVAR
  5
9F
102
{ACAD_REACTORS
330
9D
102
}
330
9D
100
DictionaryVariables
280
     0
  1
STANDARD
  0
DICTIONARYVAR
  5
9E
102
{ACAD_REACTORS
330
9D
102
}
330
9D
100
DictionaryVariables
280
     0
  1
STANDARD
  0
DICTIONARYVAR
  5
A0
102
{ACAD_REACTORS
330
9D
102
}
330
9D
100
DictionaryVariables
280
     0
  1
Imperial24
  0
DICTIONARYVAR
  5
A1
102
{ACAD_REACTORS
330
9D
102
}
330
9D
100
DictionaryVariables
280
     0
  1
Imperial24
  0
DICTIONARY
  5
1A
330
19
100
AcDbDictionary
280
     1
281
     1
  3
BUMPTILE
360
1C
  3
DIFFUSETILE
360
1B
  3
OPACITYTILE
360
1F
  3
REFLECTIONTILE
360
1E
  3
REFRACTIONTILE
360
20
  3
SPECULARTILE
360
1D
  0
DICTIONARY
  5
12
330
11
100
AcDbDictionary
280
     1
281
     1
  3
BUMPTILE
360
14
  3
DIFFUSETILE
360
13
  3
OPACITYTILE
360
17
  3
REFLECTIONTILE
360
16
  3
REFRACTIONTILE
360
18
  3
SPECULARTILE
360
15
  0
DICTIONARY
  5
22
330
21
100
AcDbDictionary
280
     1
281
     1
  3
BUMPTILE
360
24
  3
DIFFUSETILE
360
23
  3
OPACITYTILE
360
27
  3
REFLECTIONTILE
360
26
  3
REFRACTIONTILE
360
28
  3
SPECULARTILE
360
25
  0
DICTIONARY
  5
A3
330
65
100
AcDbDictionary
280
     1
281
     1
  3
ACAD_ROUNDTRIP_2008_TABLESTYLE_CELLSTYLEMAP
360
A4
  0
XRECORD
  5
1C
102
{ACAD_REACTORS
330
1A
102
}
330
1A
100
AcDbXrecord
280
     1
270
     1
271
     1
  0
XRECORD
  5
1B
102
{ACAD_REACTORS
330
1A
102
}
330
1A
100
AcDbXrecord
280
     1
270
     1
271
     1
  0
XRECORD
  5
1F
102
{ACAD_REACTORS
330
1A
102
}
330
1A
100
AcDbXrecord
280
     1
270
     1
271
     1
  0
XRECORD
  5
1E
102
{ACAD_REACTORS
330
1A
102
}
330
1A
100
AcDbXrecord
280
     1
270
     1
271
     1
  0
XRECORD
  5
20
102
{ACAD_REACTORS
330
1A
102
}
330
1A
100
AcDbXrecord
280
     1
270
     1
271
     1
  0
XRECORD
  5
1D
102
{ACAD_REACTORS
330
1A
102
}
330
1A
100
AcDbXrecord
280
     1
270
     1
271
     1
  0
XRECORD
  5
14
102
{ACAD_REACTORS
330
12
102
}
330
12
100
AcDbXrecord
280
     1
270
     1
271
     1
  0
XRECORD
  5
13
102
{ACAD_REACTORS
330
12
102
}
330
12
100
AcDbXrecord
280
     1
270
     1
271
     1
  0
XRECORD
  5
17
102
{ACAD_REACTORS
330
12
102
}
330
12
100
AcDbXrecord
280
     1
270
     1
271
     1
  0
XRECORD
  5
16
102
{ACAD_REACTORS
330
12
102
}
330
12
100
AcDbXrecord
280
     1
270
     1
271
     1
  0
XRECORD
  5
18
102
{ACAD_REACTORS
330
12
102
}
330
12
100
AcDbXrecord
280
     1
270
     1
271
     1
  0
XRECORD
  5
15
102
{ACAD_REACTORS
330
12
102
}
330
12
100
AcDbXrecord
280
     1
270
     1
271
     1
  0
XRECORD
  5
24
102
{ACAD_REACTORS
330
22
102
}
330
22
100
AcDbXrecord
280
     1
270
     1
271
     1
  0
XRECORD
  5
23
102
{ACAD_REACTORS
330
22
102
}
330
22
100
AcDbXrecord
280
     1
270
     1
271
     1
  0
XRECORD
  5
27
102
{ACAD_REACTORS
330
22
102
}
330
22
100
AcDbXrecord
280
     1
270
     1
271
     1
  0
XRECORD
  5
26
102
{ACAD_REACTORS
330
22
102
}
330
22
100
AcDbXrecord
280
     1
270
     1
271
     1
  0
XRECORD
  5
28
102
{ACAD_REACTORS
330
22
102
}
330
22
100
AcDbXrecord
280
     1
270
     1
271
     1
  0
XRECORD
  5
25
102
{ACAD_REACTORS
330
22
102
}
330
22
100
AcDbXrecord
280
     1
270
     1
271
     1
  0
CELLSTYLEMAP
  5
A4
102
{ACAD_REACTORS
330
A3
102
}
330
A3
100
AcDbCellStyleMap
 90
        3
300
CELLSTYLE
  1
TABLEFORMAT_BEGIN
 90
        5
170
     1
 91
        0
 92
    32768
 62
   257
 93
        1
300
CONTENTFORMAT
  1
CONTENTFORMAT_BEGIN
 90
        0
 91
        0
 92
      512
 93
        0
300

 40
0.0
140
1.0
 94
        5
 62
     0
340
55
144
0.25
309
CONTENTFORMAT_END
171
     0
 94
        0
309
TABLEFORMAT_END
  1
CELLSTYLE_BEGIN
 90
        1
 91
        1
300
_TITLE
309
CELLSTYLE_END
300
CELLSTYLE
  1
TABLEFORMAT_BEGIN
 90
        5
170
     1
 91
        0
 92
        0
 62
   257
 93
        1
300
CONTENTFORMAT
  1
CONTENTFORMAT_BEGIN
 90
        0
 91
        0
 92
      512
 93
        0
300

 40
0.0
140
1.0
 94
        5
 62
     0
340
55
144
0.18
309
CONTENTFORMAT_END
171
     0
 94
        0
309
TABLEFORMAT_END
  1
CELLSTYLE_BEGIN
 90
        2
 91
        1
300
_HEADER
309
CELLSTYLE_END
300
CELLSTYLE
  1
TABLEFORMAT_BEGIN
 90
        5
170
     1
 91
        0
 92
        0
 62
   257
 93
        1
300
CONTENTFORMAT
  1
CONTENTFORMAT_BEGIN
 90
        0
 91
        0
 92
      512
 93
        0
300

 40
0.0
140
1.0
 94
        2
 62
     0
340
55
144
0.18
309
CONTENTFORMAT_END
171
     0
 94
        0
309
TABLEFORMAT_END
  1
CELLSTYLE_BEGIN
 90
        3
 91
        2
300
_DATA
309
CELLSTYLE_END
  0
ENDSEC
  0
EOF
