  0
SECTION
  2
HEADER
  9
$ACADVER
  1
AC1032
  9
$ACADMAINTVER
 90
      251
  9
$DWGCODEPAGE
  3
ANSI_1252
  9
$REQUIREDVERSIONS
160
                 0
  9
$INSBASE
 10
0.0
 20
0.0
 30
0.0
  9
$EXTMIN
 10
1.000000000000000E+20
 20
1.000000000000000E+20
 30
1.000000000000000E+20
  9
$EXTMAX
 10
-1.000000000000000E+20
 20
-1.000000000000000E+20
 30
-1.000000000000000E+20
  9
$LIMMIN
 10
0.0
 20
0.0
  9
$LIMMAX
 10
12.0
 20
9.0
  9
$ORTHOMODE
 70
     0
  9
$REGENMODE
 70
     1
  9
$FILLMODE
 70
     1
  9
$QTEXTMODE
 70
     0
  9
$MIRRTEXT
 70
     0
  9
$LTSCALE
 40
1.0
  9
$ATTMODE
 70
     1
  9
$TEXTSIZE
 40
0.2
  9
$TRACEWID
 40
0.05
  9
$TEXTSTYLE
  7
Standard
  9
$CLAYER
  8
0
  9
$CELTYPE
  6
ByLayer
  9
$CECOLOR
 62
   256
  9
$CELTSCALE
 40
1.0
  9
$DISPSILH
 70
     0
  9
$DIMSCALE
 40
1.0
  9
$DIMASZ
 40
0.18
  9
$DIMEXO
 40
0.0625
  9
$DIMDLI
 40
0.38
  9
$DIMRND
 40
0.0
  9
$DIMDLE
 40
0.0
  9
$DIMEXE
 40
0.18
  9
$DIMTP
 40
0.0
  9
$DIMTM
 40
0.0
  9
$DIMTXT
 40
0.18
  9
$DIMCEN
 40
0.09
  9
$DIMTSZ
 40
0.0
  9
$DIMTOL
 70
     0
  9
$DIMLIM
 70
     0
  9
$DIMTIH
 70
     1
  9
$DIMTOH
 70
     1
  9
$DIMSE1
 70
     0
  9
$DIMSE2
 70
     0
  9
$DIMTAD
 70
     0
  9
$DIMZIN
 70
     0
  9
$DIMBLK
  1

  9
$DIMASO
 70
     1
  9
$DIMSHO
 70
     1
  9
$DIMPOST
  1

  9
$DIMAPOST
  1

  9
$DIMALT
 70
     0
  9
$DIMALTD
 70
     2
  9
$DIMALTF
 40
25.4
  9
$DIMLFAC
 40
1.0
  9
$DIMTOFL
 70
     0
  9
$DIMTVP
 40
0.0
  9
$DIMTIX
 70
     0
  9
$DIMSOXD
 70
     0
  9
$DIMSAH
 70
     0
  9
$DIMBLK1
  1

  9
$DIMBLK2
  1

  9
$DIMSTYLE
  2
Standard
  9
$DIMCLRD
 70
     0
  9
$DIMCLRE
 70
     0
  9
$DIMCLRT
 70
     0
  9
$DIMTFAC
 40
1.0
  9
$DIMGAP
 40
0.09
  9
$DIMJUST
 70
     0
  9
$DIMSD1
 70
     0
  9
$DIMSD2
 70
     0
  9
$DIMTOLJ
 70
     1
  9
$DIMTZIN
 70
     0
  9
$DIMALTZ
 70
     0
  9
$DIMALTTZ
 70
     0
  9
$DIMUPT
 70
     0
  9
$DIMDEC
 70
     4
  9
$DIMTDEC
 70
     4
  9
$DIMALTU
 70
     2
  9
$DIMALTTD
 70
     2
  9
$DIMTXSTY
  7
Standard
  9
$DIMAUNIT
 70
     0
  9
$DIMADEC
 70
     0
  9
$DIMALTRND
 40
0.0
  9
$DIMAZIN
 70
     0
  9
$DIMDSEP
 70
    46
  9
$DIMATFIT
 70
     3
  9
$DIMFRAC
 70
     0
  9
$DIMLDRBLK
  1

  9
$DIMLUNIT
 70
     2
  9
$DIMLWD
 70
    -2
  9
$DIMLWE
 70
    -2
  9
$DIMTMOVE
 70
     0
  9
$DIMFXL
 40
1.0
  9
$DIMFXLON
 70
     0
  9
$DIMJOGANG
 40
0.7853981633974483
  9
$DIMTFILL
 70
     0
  9
$DIMTFILLCLR
 70
     0
  9
$DIMARCSYM
 70
     0
  9
$DIMLTYPE
  6

  9
$DIMLTEX1
  6

  9
$DIMLTEX2
  6

  9
$DIMTXTDIRECTION
 70
     0
  9
$LUNITS
 70
     2
  9
$LUPREC
 70
     4
  9
$SKETCHINC
 40
0.1
  9
$FILLETRAD
 40
0.0
  9
$AUNITS
 70
     0
  9
$AUPREC
 70
     0
  9
$MENU
  1
.
  9
$ELEVATION
 40
0.0
  9
$PELEVATION
 40
0.0
  9
$THICKNESS
 40
0.0
  9
$LIMCHECK
 70
     0
  9
$CHAMFERA
 40
0.0
  9
$CHAMFERB
 40
0.0
  9
$CHAMFERC
 40
0.0
  9
$CHAMFERD
 40
0.0
  9
$SKPOLY
 70
     0
  9
$TDCREATE
 40
2459807.418009259
  9
$TDUCREATE
 40
2459807.334675926
  9
$TDUPDATE
 40
2459807.418009259
  9
$TDUUPDATE
 40
2459807.334675926
  9
$TDINDWG
 40
0.0000000000
  9
$TDUSRTIMER
 40
0.0000000000
  9
$USRTIMER
 70
     1
  9
$ANGBASE
 50
0.0
  9
$ANGDIR
 70
     0
  9
$PDMODE
 70
     0
  9
$PDSIZE
 40
0.0
  9
$PLINEWID
 40
0.0
  9
$SPLFRAME
 70
     0
  9
$SPLINETYPE
 70
     6
  9
$SPLINESEGS
 70
     8
  9
$HANDSEED
  5
90
  9
$SURFTAB1
 70
     6
  9
$SURFTAB2
 70
     6
  9
$SURFTYPE
 70
     6
  9
$SURFU
 70
     6
  9
$SURFV
 70
     6
  9
$UCSBASE
  2

  9
$UCSNAME
  2

  9
$UCSORG
 10
0.0
 20
0.0
 30
0.0
  9
$UCSXDIR
 10
1.0
 20
0.0
 30
0.0
  9
$UCSYDIR
 10
0.0
 20
1.0
 30
0.0
  9
$UCSORTHOREF
  2

  9
$UCSORTHOVIEW
 70
     0
  9
$UCSORGTOP
 10
0.0
 20
0.0
 30
0.0
  9
$UCSORGBOTTOM
 10
0.0
 20
0.0
 30
0.0
  9
$UCSORGLEFT
 10
0.0
 20
0.0
 30
0.0
  9
$UCSORGRIGHT
 10
0.0
 20
0.0
 30
0.0
  9
$UCSORGFRONT
 10
0.0
 20
0.0
 30
0.0
  9
$UCSORGBACK
 10
0.0
 20
0.0
 30
0.0
  9
$PUCSBASE
  2

  9
$PUCSNAME
  2

  9
$PUCSORG
 10
0.0
 20
0.0
 30
0.0
  9
$PUCSXDIR
 10
1.0
 20
0.0
 30
0.0
  9
$PUCSYDIR
 10
0.0
 20
1.0
 30
0.0
  9
$PUCSORTHOREF
  2

  9
$PUCSORTHOVIEW
 70
     0
  9
$PUCSORGTOP
 10
0.0
 20
0.0
 30
0.0
  9
$PUCSORGBOTTOM
 10
0.0
 20
0.0
 30
0.0
  9
$PUCSORGLEFT
 10
0.0
 20
0.0
 30
0.0
  9
$PUCSORGRIGHT
 10
0.0
 20
0.0
 30
0.0
  9
$PUCSORGFRONT
 10
0.0
 20
0.0
 30
0.0
  9
$PUCSORGBACK
 10
0.0
 20
0.0
 30
0.0
  9
$USERI1
 70
     0
  9
$USERI2
 70
     0
  9
$USERI3
 70
     0
  9
$USERI4
 70
     0
  9
$USERI5
 70
     0
  9
$USERR1
 40
0.0
  9
$USERR2
 40
0.0
  9
$USERR3
 40
0.0
  9
$USERR4
 40
0.0
  9
$USERR5
 40
0.0
  9
$WORLDVIEW
 70
     1
  9
$SHADEDGE
 70
     3
  9
$SHADEDIF
 70
    70
  9
$TILEMODE
 70
     1
  9
$MAXACTVP
 70
    64
  9
$PINSBASE
 10
0.0
 20
0.0
 30
0.0
  9
$PLIMCHECK
 70
     0
  9
$PEXTMIN
 10
1.000000000000000E+20
 20
1.000000000000000E+20
 30
1.000000000000000E+20
  9
$PEXTMAX
 10
-1.000000000000000E+20
 20
-1.000000000000000E+20
 30
-1.000000000000000E+20
  9
$PLIMMIN
 10
0.0
 20
0.0
  9
$PLIMMAX
 10
12.0
 20
9.0
  9
$UNITMODE
 70
     0
  9
$VISRETAIN
 70
     1
  9
$PLINEGEN
 70
     0
  9
$PSLTSCALE
 70
     1
  9
$TREEDEPTH
 70
  3020
  9
$CMLSTYLE
  2
Standard
  9
$CMLJUST
 70
     0
  9
$CMLSCALE
 40
1.0
  9
$PROXYGRAPHICS
 70
     1
  9
$MEASUREMENT
 70
     0
  9
$CELWEIGHT
370
    -1
  9
$ENDCAPS
280
     0
  9
$JOINSTYLE
280
     0
  9
$LWDISPLAY
290
     1
  9
$INSUNITS
 70
     4
  9
$HYPERLINKBASE
  1

  9
$STYLESHEET
  1

  9
$XEDIT
290
     1
  9
$CEPSNTYPE
380
     0
  9
$PSTYLEMODE
290
     1
  9
$FINGERPRINTGUID
  2
{F35D9C73-E052-DB48-A77C-5759C094788A}
  9
$VERSIONGUID
  2
{0ACA06A5-9163-7B42-9F70-4FA8AFA65B83}
  9
$EXTNAMES
290
     1
  9
$PSVPSCALE
 40
0.0
  9
$OLESTARTUP
290
     0
  9
$SORTENTS
280
   127
  9
$INDEXCTL
280
     0
  9
$HIDETEXT
280
     1
  9
$XCLIPFRAME
280
     2
  9
$HALOGAP
280
     0
  9
$OBSCOLOR
 70
   257
  9
$OBSLTYPE
280
     0
  9
$INTERSECTIONDISPLAY
280
     0
  9
$INTERSECTIONCOLOR
 70
   257
  9
$DIMASSOC
280
     2
  9
$PROJECTNAME
  1

  9
$CAMERADISPLAY
290
     0
  9
$LENSLENGTH
 40
50.0
  9
$CAMERAHEIGHT
 40
0.0
  9
$STEPSPERSEC
 40
2.0
  9
$STEPSIZE
 40
6.0
  9
$3DDWFPREC
 40
2.0
  9
$PSOLWIDTH
 40
0.25
  9
$PSOLHEIGHT
 40
4.0
  9
$LOFTANG1
 40
1.570796326794896
  9
$LOFTANG2
 40
1.570796326794896
  9
$LOFTMAG1
 40
0.0
  9
$LOFTMAG2
 40
0.0
  9
$LOFTPARAM
 70
     7
  9
$LOFTNORMALS
280
     1
  9
$LATITUDE
 40
37.795
  9
$LONGITUDE
 40
-122.394
  9
$NORTHDIRECTION
 40
0.0
  9
$TIMEZONE
 70
 -8000
  9
$LIGHTGLYPHDISPLAY
280
     1
  9
$TILEMODELIGHTSYNCH
280
     1
  9
$CMATERIAL
347
11
  9
$SOLIDHIST
280
     0
  9
$SHOWHIST
280
     1
  9
$DWFFRAME
280
     2
  9
$DGNFRAME
280
     0
  9
$REALWORLDSCALE
290
     1
  9
$INTERFERECOLOR
 62
     1
  9
$INTERFEREOBJVS
345
33
  9
$INTERFEREVPVS
346
30
  9
$CSHADOW
280
     0
  9
$SHADOWPLANELOCATION
 40
0.0
  0
ENDSEC
  0
SECTION
  2
CLASSES
  0
CLASS
  1
ACDBDICTIONARYWDFLT
  2
AcDbDictionaryWithDefault
  3
ObjectDBX Classes
 90
        0
 91
        1
280
     0
281
     0
  0
CLASS
  1
MATERIAL
  2
AcDbMaterial
  3
ObjectDBX Classes
 90
     1153
 91
        3
280
     0
281
     0
  0
CLASS
  1
VISUALSTYLE
  2
AcDbVisualStyle
  3
ObjectDBX Classes
 90
     4095
 91
       24
280
     0
281
     0
  0
CLASS
  1
SCALE
  2
AcDbScale
  3
ObjectDBX Classes
 90
     1153
 91
       17
280
     0
281
     0
  0
CLASS
  1
TABLESTYLE
  2
AcDbTableStyle
  3
ObjectDBX Classes
 90
     4095
 91
        1
280
     0
281
     0
  0
CLASS
  1
MLEADERSTYLE
  2
AcDbMLeaderStyle
  3
ACDB_MLEADERSTYLE_CLASS
 90
     4095
 91
        1
280
     0
281
     0
  0
CLASS
  1
ACDBSECTIONVIEWSTYLE
  2
AcDbSectionViewStyle
  3
ObjectDBX Classes
 90
     1025
 91
        1
280
     0
281
     0
  0
CLASS
  1
ACDBDETAILVIEWSTYLE
  2
AcDbDetailViewStyle
  3
ObjectDBX Classes
 90
     1025
 91
        1
280
     0
281
     0
  0
CLASS
  1
DICTIONARYVAR
  2
AcDbDictionaryVar
  3
ObjectDBX Classes
 90
        0
 91
        5
280
     0
281
     0
  0
CLASS
  1
CELLSTYLEMAP
  2
AcDbCellStyleMap
  3
ObjectDBX Classes
 90
     1152
 91
        1
280
     0
281
     0
  0
ENDSEC
  0
SECTION
  2
TABLES
  0
TABLE
  2
VPORT
  5
8
330
0
100
AcDbSymbolTable
 70
     1
  0
VPORT
  5
57
330
8
100
AcDbSymbolTableRecord
100
AcDbViewportTableRecord
  2
*Active
 70
     0
 10
0.0
 20
0.0
 11
1.0
 21
1.0
 12
0.0
 22
0.0
 13
0.0
 23
0.0
 14
1.0
 24
1.0
 15
0.0
 25
0.0
 16
0.0
 26
0.0
 36
1.0
 17
500.0624998749843
 27
-999.9999997499998
 37
0.0
 40
2039.999999489999
 41
0.5000625000000002
 42
50.0
 43
0.0
 44
0.0
 50
0.0
 51
0.0
 71
     0
 72
   100
 73
     1
 74
     1
 75
     0
 76
     0
 77
     0
 78
     0
281
     0
 65
     1
110
0.0
120
0.0
130
0.0
111
1.0
121
0.0
131
0.0
112
0.0
122
1.0
132
0.0
 79
     0
146
0.0
 60
     3
 61
     5
292
     1
282
     1
141
0.0
142
0.0
 63
   250
421
  3355443
  0
ENDTAB
  0
TABLE
  2
LTYPE
  5
5
330
0
100
AcDbSymbolTable
 70
     1
  0
LTYPE
  5
5B
330
5
100
AcDbSymbolTableRecord
100
AcDbLinetypeTableRecord
  2
ByBlock
 70
     0
  3

 72
    65
 73
     0
 40
0.0
  0
LTYPE
  5
5C
330
5
100
AcDbSymbolTableRecord
100
AcDbLinetypeTableRecord
  2
ByLayer
 70
     0
  3

 72
    65
 73
     0
 40
0.0
  0
LTYPE
  5
5D
330
5
100
AcDbSymbolTableRecord
100
AcDbLinetypeTableRecord
  2
Continuous
 70
     0
  3
Solid line
 72
    65
 73
     0
 40
0.0
  0
ENDTAB
  0
TABLE
  2
LAYER
  5
2
330
0
100
AcDbSymbolTable
 70
     4
  0
LAYER
  5
54
330
2
100
AcDbSymbolTableRecord
100
AcDbLayerTableRecord
  2
0
 70
     0
 62
     7
  6
Continuous
370
    -3
390
F
347
21
348
0
  0
LAYER
  5
78
330
2
100
AcDbSymbolTableRecord
100
AcDbLayerTableRecord
  2
Bounding Box
 70
     0
 62
     7
  6
Continuous
370
     0
390
F
347
21
348
0
  0
LAYER
  5
7A
330
2
100
AcDbSymbolTableRecord
100
AcDbLayerTableRecord
  2
Stripes
 70
     0
 62
     7
  6
Continuous
370
     0
390
F
347
21
348
0
  0
LAYER
  5
7E
330
2
100
AcDbSymbolTableRecord
100
AcDbLayerTableRecord
  2
Screws
 70
     0
 62
     7
  6
Continuous
370
     0
390
F
347
21
348
0
  0
ENDTAB
  0
TABLE
  2
STYLE
  5
3
330
0
100
AcDbSymbolTable
 70
     2
  0
STYLE
  5
55
330
3
100
AcDbSymbolTableRecord
100
AcDbTextStyleTableRecord
  2
Standard
 70
     0
 40
0.0
 41
1.0
 50
0.0
 71
     0
 42
0.2
  3
txt
  4

  0
STYLE
  5
5A
330
3
100
AcDbSymbolTableRecord
100
AcDbTextStyleTableRecord
  2
Annotative
 70
     0
 40
0.0
 41
1.0
 50
0.0
 71
     0
 42
0.2
  3
txt
  4

1001
AcadAnnotative
1000
AnnotativeData
1002
{
1070
     1
1070
     1
1002
}
  0
ENDTAB
  0
TABLE
  2
VIEW
  5
6
330
0
100
AcDbSymbolTable
 70
     0
  0
ENDTAB
  0
TABLE
  2
UCS
  5
7
330
0
100
AcDbSymbolTable
 70
     0
  0
ENDTAB
  0
TABLE
  2
APPID
  5
9
330
0
100
AcDbSymbolTable
 70
     2
  0
APPID
  5
56
330
9
100
AcDbSymbolTableRecord
100
AcDbRegAppTableRecord
  2
ACAD
 70
     0
  0
APPID
  5
5E
330
9
100
AcDbSymbolTableRecord
100
AcDbRegAppTableRecord
  2
AcadAnnotative
 70
     0
  0
ENDTAB
  0
TABLE
  2
DIMSTYLE
  5
A
330
0
100
AcDbSymbolTable
 70
     2
100
AcDbDimStyleTable
 71
     0
  0
DIMSTYLE
105
58
330
A
100
AcDbSymbolTableRecord
100
AcDbDimStyleTableRecord
  2
Standard
 70
     0
340
55
  0
DIMSTYLE
105
59
330
A
100
AcDbSymbolTableRecord
100
AcDbDimStyleTableRecord
  2
Annotative
 70
     0
340
55
1001
AcadAnnotative
1000
AnnotativeData
1002
{
1070
     1
1070
     1
1002
}
  0
ENDTAB
  0
TABLE
  2
BLOCK_RECORD
  5
1
330
0
100
AcDbSymbolTable
 70
     1
  0
BLOCK_RECORD
  5
70
330
1
100
AcDbSymbolTableRecord
100
AcDbBlockTableRecord
  2
*Model_Space
340
73
 70
     0
280
     1
281
     0
  0
BLOCK_RECORD
  5
6C
330
1
100
AcDbSymbolTableRecord
100
AcDbBlockTableRecord
  2
*Paper_Space
340
6F
 70
     0
280
     1
281
     0
  0
BLOCK_RECORD
  5
74
330
1
100
AcDbSymbolTableRecord
100
AcDbBlockTableRecord
  2
*Paper_Space0
340
77
 70
     0
280
     1
281
     0
  0
ENDTAB
  0
ENDSEC
  0
SECTION
  2
BLOCKS
  0
BLOCK
  5
71
330
70
100
AcDbEntity
  8
0
100
AcDbBlockBegin
  2
*Model_Space
 70
     0
 10
0.0
 20
0.0
 30
0.0
  3
*Model_Space
  1

  0
ENDBLK
  5
72
330
70
100
AcDbEntity
  8
0
100
AcDbBlockEnd
  0
BLOCK
  5
6D
330
6C
100
AcDbEntity
 67
     1
  8
0
100
AcDbBlockBegin
  2
*Paper_Space
 70
     0
 10
0.0
 20
0.0
 30
0.0
  3
*Paper_Space
  1

  0
ENDBLK
  5
6E
330
6C
100
AcDbEntity
 67
     1
  8
0
100
AcDbBlockEnd
  0
BLOCK
  5
75
330
74
100
AcDbEntity
 67
     1
  8
0
100
AcDbBlockBegin
  2
*Paper_Space0
 70
     0
 10
0.0
 20
0.0
 30
0.0
  3
*Paper_Space0
  1

  0
ENDBLK
  5
76
330
74
100
AcDbEntity
 67
     1
  8
0
100
AcDbBlockEnd
  0
ENDSEC
  0
SECTION
  2
ENTITIES
  0
LWPOLYLINE
  5
79
330
70
100
AcDbEntity
  8
Bounding Box
100
AcDbPolyline
 90
        4
 70
     1
 43
0.0
 10
1000.124999749969
 20
-1999.897221722248
 10
0.0
 20
-1999.897221722248
 10
0.0
 20
0.0
 10
1000.124999749969
 20
0.0
  0
SPLINE
  5
7B
330
70
100
AcDbEntity
  8
Stripes
 62
   250
420
  2301728
370
    35
100
AcDbSpline
210
0.0
220
0.0
230
1.0
 70
     9
 71
     3
 72
   233
 73
   229
 74
     0
 42
0.0000000001
 43
0.0000000001
 40
0.0
 40
0.0
 40
0.0
 40
0.0
 40
1.0
 40
1.0
 40
1.0
 40
2.0
 40
2.0
 40
2.0
 40
3.0
 40
3.0
 40
3.0
 40
4.0
 40
4.0
 40
4.0
 40
5.0
 40
5.0
 40
5.0
 40
6.0
 40
6.0
 40
6.0
 40
7.0
 40
7.0
 40
7.0
 40
8.0
 40
8.0
 40
8.0
 40
9.0
 40
9.0
 40
9.0
 40
10.0
 40
10.0
 40
10.0
 40
11.0
 40
11.0
 40
11.0
 40
12.0
 40
12.0
 40
12.0
 40
13.0
 40
13.0
 40
13.0
 40
14.0
 40
14.0
 40
14.0
 40
15.0
 40
15.0
 40
15.0
 40
16.0
 40
16.0
 40
16.0
 40
17.0
 40
17.0
 40
17.0
 40
18.0
 40
18.0
 40
18.0
 40
19.0
 40
19.0
 40
19.0
 40
20.0
 40
20.0
 40
20.0
 40
21.0
 40
21.0
 40
21.0
 40
22.0
 40
22.0
 40
22.0
 40
23.0
 40
23.0
 40
23.0
 40
24.0
 40
24.0
 40
24.0
 40
25.0
 40
25.0
 40
25.0
 40
26.0
 40
26.0
 40
26.0
 40
27.0
 40
27.0
 40
27.0
 40
28.0
 40
28.0
 40
28.0
 40
29.0
 40
29.0
 40
29.0
 40
30.0
 40
30.0
 40
30.0
 40
31.0
 40
31.0
 40
31.0
 40
32.0
 40
32.0
 40
32.0
 40
33.0
 40
33.0
 40
33.0
 40
34.0
 40
34.0
 40
34.0
 40
35.0
 40
35.0
 40
35.0
 40
36.0
 40
36.0
 40
36.0
 40
37.0
 40
37.0
 40
37.0
 40
38.0
 40
38.0
 40
38.0
 40
39.0
 40
39.0
 40
39.0
 40
40.0
 40
40.0
 40
40.0
 40
41.0
 40
41.0
 40
41.0
 40
42.0
 40
42.0
 40
42.0
 40
43.0
 40
43.0
 40
43.0
 40
44.0
 40
44.0
 40
44.0
 40
45.0
 40
45.0
 40
45.0
 40
46.0
 40
46.0
 40
46.0
 40
47.0
 40
47.0
 40
47.0
 40
48.0
 40
48.0
 40
48.0
 40
49.0
 40
49.0
 40
49.0
 40
50.0
 40
50.0
 40
50.0
 40
51.0
 40
51.0
 40
51.0
 40
52.0
 40
52.0
 40
52.0
 40
53.0
 40
53.0
 40
53.0
 40
54.0
 40
54.0
 40
54.0
 40
55.0
 40
55.0
 40
55.0
 40
56.0
 40
56.0
 40
56.0
 40
57.0
 40
57.0
 40
57.0
 40
58.0
 40
58.0
 40
58.0
 40
59.0
 40
59.0
 40
59.0
 40
60.0
 40
60.0
 40
60.0
 40
61.0
 40
61.0
 40
61.0
 40
62.0
 40
62.0
 40
62.0
 40
63.0
 40
63.0
 40
63.0
 40
64.0
 40
64.0
 40
64.0
 40
65.0
 40
65.0
 40
65.0
 40
66.0
 40
66.0
 40
66.0
 40
67.0
 40
67.0
 40
67.0
 40
68.0
 40
68.0
 40
68.0
 40
69.0
 40
69.0
 40
69.0
 40
70.0
 40
70.0
 40
70.0
 40
71.0
 40
71.0
 40
71.0
 40
72.0
 40
72.0
 40
72.0
 40
73.0
 40
73.0
 40
73.0
 40
74.0
 40
74.0
 40
74.0
 40
75.0
 40
75.0
 40
75.0
 40
76.0
 40
76.0
 40
76.0
 40
76.0
 10
373.5027931592132
 20
-1894.295990697998
 30
0.0
 10
373.6587880974767
 20
-1883.217445626407
 30
0.0
 10
375.4699764070775
 20
-1872.136875522816
 30
0.0
 10
375.2424641009688
 20
-1861.083710852305
 30
0.0
 10
374.8377952758326
 20
-1841.424565183542
 30
0.0
 10
373.6028297228247
 20
-1821.776219685451
 30
0.0
 10
372.4277376056628
 20
-1802.140834392167
 30
0.0
 10
371.4959530414958
 20
-1786.570363335746
 30
0.0
 10
370.286435386249
 20
-1771.012042471333
 30
0.0
 10
368.9208552916833
 20
-1755.473026911998
 30
0.0
 10
367.5697204229025
 20
-1740.097903942617
 30
0.0
 10
365.8927579613051
 20
-1724.751536427653
 30
0.0
 10
364.314380790636
 20
-1709.397068784682
 30
0.0
 10
362.5811561996391
 20
-1692.535842330766
 30
0.0
 10
360.9346367138781
 20
-1675.664220712576
 30
0.0
 10
358.9946563912065
 20
-1658.82648462987
 30
0.0
 10
357.2464465659843
 20
-1643.6534598542
 30
0.0
 10
354.9963663963271
 20
-1628.538620998026
 30
0.0
 10
353.2502491038123
 20
-1613.365326218088
 30
0.0
 10
351.0050290101203
 20
-1593.855087902471
 30
0.0
 10
349.0261343292011
 20
-1574.314339104706
 30
0.0
 10
346.9615808094002
 20
-1554.78358046481
 30
0.0
 10
344.9863649359827
 20
-1536.097260169374
 30
0.0
 10
342.7783716741605
 20
-1517.430650185413
 30
0.0
 10
341.1627001705662
 20
-1498.713009395025
 30
0.0
 10
339.1690565091146
 20
-1475.616439405468
 30
0.0
 10
337.6227423396027
 20
-1452.480988801491
 30
0.0
 10
335.9936043755217
 20
-1429.354313336186
 30
0.0
 10
334.5755084601133
 20
-1409.223470213301
 30
0.0
 10
333.219513515367
 20
-1389.08722700508
 30
0.0
 10
332.0050345325726
 20
-1368.943558679521
 30
0.0
 10
330.8608916491596
 20
-1349.966713792993
 30
0.0
 10
329.7672395549379
 20
-1330.98338880406
 30
0.0
 10
328.9707946061834
 20
-1311.98980365299
 30
0.0
 10
328.3420222782194
 20
-1296.99363167208
 30
0.0
 10
328.1224075955537
 20
-1281.978424390362
 30
0.0
 10
327.8659373368205
 20
-1266.969427206778
 30
0.0
 10
327.6997497392413
 20
-1257.240768467118
 30
0.0
 10
328.0046182544588
 20
-1247.501174554652
 30
0.0
 10
327.723341357988
 20
-1237.77764589606
 30
0.0
 10
327.2856307663952
 20
-1222.644716754011
 30
0.0
 10
326.3405822449077
 20
-1207.525827833835
 30
0.0
 10
325.9531936898686
 20
-1192.392493685385
 30
0.0
 10
325.4190240905828
 20
-1171.522648884234
 30
0.0
 10
325.046823272935
 20
-1150.645648970012
 30
0.0
 10
324.8933933747643
 20
-1129.769594070722
 30
0.0
 10
324.7176206273654
 20
-1105.865576321263
 30
0.0
 10
324.9821235116515
 20
-1081.958318520602
 30
0.0
 10
324.8262635754982
 20
-1058.054030766877
 30
0.0
 10
324.6612572463828
 20
-1032.748960876927
 30
0.0
 10
324.6085051718469
 20
-1007.433495822705
 30
0.0
 10
323.813173990501
 20
-982.1445586876974
 30
0.0
 10
322.8233385189749
 20
-950.6728613480118
 30
0.0
 10
321.1086767181221
 20
-919.2241818720736
 30
0.0
 10
319.7361440148841
 20
-887.7643647201283
 30
0.0
 10
319.068457328673
 20
-872.4593078579863
 30
0.0
 10
318.6655435309686
 20
-857.1397382665017
 30
0.0
 10
317.779288428445
 20
-841.8477766112999
 30
0.0
 10
316.8935058333074
 20
-826.564590094769
 30
0.0
 10
315.6900632730164
 20
-811.2957813054459
 30
0.0
 10
314.3699788895673
 20
-796.0427002646643
 30
0.0
 10
313.3272900919226
 20
-783.9945698709499
 30
0.0
 10
311.7567767941687
 20
-771.992475204726
 30
0.0
 10
310.6808437269024
 20
-759.9466398472795
 30
0.0
 10
309.7683644644852
 20
-749.731163414556
 30
0.0
 10
309.4654197293372
 20
-739.4592560900685
 30
0.0
 10
308.4715341945069
 20
-729.2534998109494
 30
0.0
 10
306.6495457160951
 20
-710.5438916474989
 30
0.0
 10
304.1525466869965
 20
-691.894426934481
 30
0.0
 10
302.6281703603822
 20
-673.1635559350189
 30
0.0
 10
301.386927209253
 20
-657.9111499049052
 30
0.0
 10
301.2649190522166
 20
-642.5707224838098
 30
0.0
 10
300.4438699688892
 20
-627.2803808542087
 30
0.0
 10
299.6675740850733
 20
-612.8233398930579
 30
0.0
 10
298.5163435908778
 20
-598.3864142497841
 30
0.0
 10
297.7353395084703
 20
-583.9296432929005
 30
0.0
 10
297.0096187901638
 20
-570.4961885072362
 30
0.0
 10
296.6963295183266
 20
-557.0403233674272
 30
0.0
 10
295.9449752743574
 20
-543.6086236094977
 30
0.0
 10
295.0139838475876
 20
-526.9655606031642
 30
0.0
 10
293.8809955135247
 20
-510.3329602621706
 30
0.0
 10
292.718728596826
 20
-493.7039712282454
 30
0.0
 10
291.7337363260008
 20
-479.6118747842259
 30
0.0
 10
290.85080565044
 20
-465.5037468368631
 30
0.0
 10
289.4029248944822
 20
-451.4563023484673
 30
0.0
 10
288.5645955410571
 20
-443.3233688256695
 30
0.0
 10
286.3925803415871
 20
-435.3348200845498
 30
0.0
 10
285.3662774250598
 20
-427.2124842292241
 30
0.0
 10
283.8092305877921
 20
-414.8897594961611
 30
0.0
 10
282.7557078708091
 20
-402.5038537646638
 30
0.0
 10
281.4316240498467
 20
-390.1509560547842
 30
0.0
 10
280.6730809435136
 20
-383.0743129742906
 30
0.0
 10
279.4318715429118
 20
-376.029462896215
 30
0.0
 10
279.0558906661798
 20
-368.935978299579
 30
0.0
 10
278.1415044989564
 20
-351.6833806609162
 30
0.0
 10
277.730406198325
 20
-334.4045251073067
 30
0.0
 10
276.8787622617883
 20
-317.1480799078417
 30
0.0
 10
276.1570072304666
 20
-302.5236531765339
 30
0.0
 10
274.6604750890679
 20
-287.9269187578405
 30
0.0
 10
274.2867892482082
 20
-273.2980200808641
 30
0.0
 10
273.5151509371909
 20
-243.0906514710626
 30
0.0
 10
273.220626958663
 20
-212.8705420349219
 30
0.0
 10
272.8124649539269
 20
-182.6544995380485
 30
0.0
 10
272.5232904340132
 20
-161.2510756798755
 30
0.0
 10
272.1922315094293
 20
-139.8455424133676
 30
0.0
 10
272.1968047059106
 20
-118.4410047875929
 30
0.0
 10
272.2016985324028
 20
-95.63701817166236
 30
0.0
 10
272.5311711821924
 20
-72.83087152159652
 30
0.0
 10
272.6121049472198
 20
-50.02744178946609
 30
0.0
 10
272.6121049472198
 20
-50.02744178946609
 30
0.0
 10
225.7169113315015
 20
-50.02744178946609
 30
0.0
 10
225.7169113315015
 20
-50.02744178946609
 30
0.0
 10
226.5757441304028
 20
-86.7699936732008
 30
0.0
 10
227.6115140699037
 20
-123.5090861272669
 30
0.0
 10
228.5406154671317
 20
-160.250287989668
 30
0.0
 10
228.6257511728373
 20
-163.6172074462884
 30
0.0
 10
228.711629390148
 20
-166.9857469285101
 30
0.0
 10
228.8955528899458
 20
-170.3480931878617
 30
0.0
 10
229.7694552993917
 20
-186.3243975325676
 30
0.0
 10
230.8793751478847
 20
-202.2909310978677
 30
0.0
 10
231.5118094080866
 20
-218.2766349661111
 30
0.0
 10
232.0540116329252
 20
-231.9815284162556
 30
0.0
 10
232.0216955028113
 20
-245.708427214145
 30
0.0
 10
232.3202020435887
 20
-259.4239689575612
 30
0.0
 10
232.6389251503589
 20
-274.0700466560142
 30
0.0
 10
233.0991135932885
 20
-288.7131543075329
 30
0.0
 10
233.3979745146051
 20
-303.3594851349857
 30
0.0
 10
233.580328614873
 20
-312.2963732374849
 30
0.0
 10
233.0977129463958
 20
-321.2720575780716
 30
0.0
 10
233.7536375737616
 20
-330.1684956663491
 30
0.0
 10
235.0934322652911
 20
-348.3403228313751
 30
0.0
 10
236.9580139094511
 20
-366.4744844011807
 30
0.0
 10
238.6922510162738
 20
-384.615868585124
 30
0.0
 10
239.5062124888191
 20
-393.1308243949284
 30
0.0
 10
240.2316800781689
 20
-401.6701480898126
 30
0.0
 10
241.5053574862584
 20
-410.1217541485154
 30
0.0
 10
243.722649018416
 20
-424.8352316620723
 30
0.0
 10
247.0391108560464
 20
-439.4156645731564
 30
0.0
 10
248.5819318459595
 20
-454.1888467802115
 30
0.0
 10
250.1345742393831
 20
-469.0562942269179
 30
0.0
 10
250.1567989617648
 20
-484.0880730205121
 30
0.0
 10
250.7197071352458
 20
-499.0528232548709
 30
0.0
 10
251.1757105127613
 20
-511.1749685682261
 30
0.0
 10
251.3626715600382
 20
-523.3072727921201
 30
0.0
 10
251.8062209928937
 20
-535.4300256150748
 30
0.0
 10
252.4151142601404
 20
-552.0713673442066
 30
0.0
 10
253.1186946323843
 20
-568.7095027726702
 30
0.0
 10
253.8474191476412
 20
-585.3462881798002
 30
0.0
 10
254.4733226807653
 20
-599.6353864869933
 30
0.0
 10
255.0000502887294
 20
-613.9325174211246
 30
0.0
 10
255.9085638641611
 20
-628.2047404616413
 30
0.0
 10
257.8102542133458
 20
-658.0784850492624
 30
0.0
 10
259.8027334815967
 20
-687.9479770696802
 30
0.0
 10
262.0145068025028
 20
-717.8001888170228
 30
0.0
 10
263.4526842817949
 20
-737.2110655624522
 30
0.0
 10
265.3029219517529
 20
-756.5920393353318
 30
0.0
 10
267.0421035108589
 20
-775.9798982170157
 30
0.0
 10
269.0089492534483
 20
-797.9055947035386
 30
0.0
 10
271.2973868976479
 20
-819.8053707804472
 30
0.0
 10
273.0032398108148
 20
-841.7507100773802
 30
0.0
 10
274.6581463026684
 20
-863.0413565283605
 30
0.0
 10
276.1205397854656
 20
-884.3604209284212
 30
0.0
 10
276.9973616155434
 20
-905.694605567424
 30
0.0
 10
278.0701727590122
 20
-931.7974030636724
 30
0.0
 10
278.5802613569018
 20
-957.926323472734
 30
0.0
 10
279.0852029993435
 20
-984.0486962783264
 30
0.0
 10
279.5995104131748
 20
-1010.657346768448
 30
0.0
 10
279.8752522231297
 20
-1037.271532346039
 30
0.0
 10
280.1418138895961
 20
-1063.88430040123
 30
0.0
 10
280.5335900132141
 20
-1102.990030879708
 30
0.0
 10
280.7655236384299
 20
-1142.097381383789
 30
0.0
 10
281.1813470129163
 20
-1181.202841858001
 30
0.0
 10
281.4144787818595
 20
-1203.125298293321
 30
0.0
 10
281.7641679976426
 20
-1225.047484724376
 30
0.0
 10
282.2745772255434
 20
-1246.964946080761
 30
0.0
 10
282.8033298651598
 20
-1269.67243992184
 30
0.0
 10
283.5081252563952
 20
-1292.376558709584
 30
0.0
 10
284.2925718926111
 20
-1315.076897437593
 30
0.0
 10
284.8038248837008
 20
-1329.871646235458
 30
0.0
 10
285.6504568668992
 20
-1344.655189856253
 30
0.0
 10
286.242879876708
 20
-1359.447778619985
 30
0.0
 10
286.7280943358053
 20
-1371.564355095338
 30
0.0
 10
286.8757866442959
 20
-1383.696591818164
 30
0.0
 10
287.498787632052
 20
-1395.805203167645
 30
0.0
 10
288.7002895370087
 20
-1419.158412212807
 30
0.0
 10
290.0995020322623
 20
-1442.501496097962
 30
0.0
 10
291.4832905364327
 20
-1465.844714985251
 30
0.0
 10
292.0711234744974
 20
-1475.761431696747
 30
0.0
 10
292.724145556495
 20
-1485.676663384776
 30
0.0
 10
293.5272562344374
 20
-1495.577854850929
 30
0.0
 10
295.0761185687781
 20
-1514.672691602054
 30
0.0
 10
296.6855799753068
 20
-1533.763613291312
 30
0.0
 10
298.4007311588091
 20
-1552.844274818429
 30
0.0
 10
299.4976739294647
 20
-1565.047117657028
 30
0.0
 10
300.6982476949157
 20
-1577.244155403889
 30
0.0
 10
302.0892419367144
 20
-1589.416622762472
 30
0.0
 10
303.7459878323184
 20
-1603.914906875378
 30
0.0
 10
305.7363914431269
 20
-1618.374850382396
 30
0.0
 10
307.4334692191339
 20
-1632.8686794249
 30
0.0
 10
309.0141751762037
 20
-1646.368622761267
 30
0.0
 10
310.3417859272927
 20
-1659.897861560583
 30
0.0
 10
311.8860413146249
 20
-1673.402124965219
 30
0.0
 10
313.735266468757
 20
-1689.57389552383
 30
0.0
 10
315.8586471580505
 20
-1705.715965613092
 30
0.0
 10
317.5619012805965
 20
-1721.902451404244
 30
0.0
 10
319.1787203021275
 20
-1737.266909205087
 30
0.0
 10
320.5249950949435
 20
-1752.662687500879
 30
0.0
 10
321.7741696200433
 20
-1768.062245856406
 30
0.0
 10
323.2288173567721
 20
-1785.994579236768
 30
0.0
 10
324.4609816159942
 20
-1803.944867900875
 30
0.0
 10
325.7650344988648
 20
-1821.889351473245
 30
0.0
 10
326.3755140409054
 20
-1830.288644205253
 30
0.0
 10
327.322216338243
 20
-1838.687936937262
 30
0.0
 10
327.4201266186194
 20
-1847.095464799409
 30
0.0
 10
327.5928955690682
 20
-1861.92693417756
 30
0.0
 10
327.3615694533476
 20
-1876.767178694386
 30
0.0
 10
327.0541696485654
 20
-1891.598918076806
 30
0.0
 10
326.8001969288695
 20
-1903.84914666423
 30
0.0
 10
325.7539643258338
 20
-1916.096000198319
 30
0.0
 10
325.8676698530968
 20
-1928.337048640672
 30
0.0
 10
325.9367571829597
 20
-1935.774721176427
 30
0.0
 10
326.4815581984178
 20
-1943.206453618313
 30
0.0
 10
327.0175165756628
 20
-1950.640076090065
 30
0.0
 10
327.0175165756628
 20
-1950.640076090065
 30
0.0
 10
373.4173368234964
 20
-1950.679226708754
 30
0.0
 10
373.4173368234964
 20
-1950.679226708754
 30
0.0
 10
373.0649813160381
 20
-1931.892059819662
 30
0.0
 10
373.2383240254548
 20
-1913.086802644692
 30
0.0
 10
373.5027931592132
 20
-1894.295990697998
 30
0.0
  0
SPLINE
  5
7C
330
70
100
AcDbEntity
  8
Stripes
 62
   250
420
  2301728
370
    35
100
AcDbSpline
210
0.0
220
0.0
230
1.0
 70
     9
 71
     3
 72
   233
 73
   229
 74
     0
 42
0.0000000001
 43
0.0000000001
 40
0.0
 40
0.0
 40
0.0
 40
0.0
 40
1.0
 40
1.0
 40
1.0
 40
2.0
 40
2.0
 40
2.0
 40
3.0
 40
3.0
 40
3.0
 40
4.0
 40
4.0
 40
4.0
 40
5.0
 40
5.0
 40
5.0
 40
6.0
 40
6.0
 40
6.0
 40
7.0
 40
7.0
 40
7.0
 40
8.0
 40
8.0
 40
8.0
 40
9.0
 40
9.0
 40
9.0
 40
10.0
 40
10.0
 40
10.0
 40
11.0
 40
11.0
 40
11.0
 40
12.0
 40
12.0
 40
12.0
 40
13.0
 40
13.0
 40
13.0
 40
14.0
 40
14.0
 40
14.0
 40
15.0
 40
15.0
 40
15.0
 40
16.0
 40
16.0
 40
16.0
 40
17.0
 40
17.0
 40
17.0
 40
18.0
 40
18.0
 40
18.0
 40
19.0
 40
19.0
 40
19.0
 40
20.0
 40
20.0
 40
20.0
 40
21.0
 40
21.0
 40
21.0
 40
22.0
 40
22.0
 40
22.0
 40
23.0
 40
23.0
 40
23.0
 40
24.0
 40
24.0
 40
24.0
 40
25.0
 40
25.0
 40
25.0
 40
26.0
 40
26.0
 40
26.0
 40
27.0
 40
27.0
 40
27.0
 40
28.0
 40
28.0
 40
28.0
 40
29.0
 40
29.0
 40
29.0
 40
30.0
 40
30.0
 40
30.0
 40
31.0
 40
31.0
 40
31.0
 40
32.0
 40
32.0
 40
32.0
 40
33.0
 40
33.0
 40
33.0
 40
34.0
 40
34.0
 40
34.0
 40
35.0
 40
35.0
 40
35.0
 40
36.0
 40
36.0
 40
36.0
 40
37.0
 40
37.0
 40
37.0
 40
38.0
 40
38.0
 40
38.0
 40
39.0
 40
39.0
 40
39.0
 40
40.0
 40
40.0
 40
40.0
 40
41.0
 40
41.0
 40
41.0
 40
42.0
 40
42.0
 40
42.0
 40
43.0
 40
43.0
 40
43.0
 40
44.0
 40
44.0
 40
44.0
 40
45.0
 40
45.0
 40
45.0
 40
46.0
 40
46.0
 40
46.0
 40
47.0
 40
47.0
 40
47.0
 40
48.0
 40
48.0
 40
48.0
 40
49.0
 40
49.0
 40
49.0
 40
50.0
 40
50.0
 40
50.0
 40
51.0
 40
51.0
 40
51.0
 40
52.0
 40
52.0
 40
52.0
 40
53.0
 40
53.0
 40
53.0
 40
54.0
 40
54.0
 40
54.0
 40
55.0
 40
55.0
 40
55.0
 40
56.0
 40
56.0
 40
56.0
 40
57.0
 40
57.0
 40
57.0
 40
58.0
 40
58.0
 40
58.0
 40
59.0
 40
59.0
 40
59.0
 40
60.0
 40
60.0
 40
60.0
 40
61.0
 40
61.0
 40
61.0
 40
62.0
 40
62.0
 40
62.0
 40
63.0
 40
63.0
 40
63.0
 40
64.0
 40
64.0
 40
64.0
 40
65.0
 40
65.0
 40
65.0
 40
66.0
 40
66.0
 40
66.0
 40
67.0
 40
67.0
 40
67.0
 40
68.0
 40
68.0
 40
68.0
 40
69.0
 40
69.0
 40
69.0
 40
70.0
 40
70.0
 40
70.0
 40
71.0
 40
71.0
 40
71.0
 40
72.0
 40
72.0
 40
72.0
 40
73.0
 40
73.0
 40
73.0
 40
74.0
 40
74.0
 40
74.0
 40
75.0
 40
75.0
 40
75.0
 40
76.0
 40
76.0
 40
76.0
 40
76.0
 10
287.8422836260313
 20
-1935.391180115421
 30
0.0
 10
287.4045899097028
 20
-1927.923537106049
 30
0.0
 10
286.6083305888499
 20
-1920.444418915337
 30
0.0
 10
286.7328869107147
 20
-1912.982986004102
 30
0.0
 10
286.9909265689793
 20
-1897.523486701344
 30
0.0
 10
288.0455799286346
 20
-1882.076002588457
 30
0.0
 10
288.2158682153088
 20
-1866.617313298497
 30
0.0
 10
288.3400026555804
 20
-1855.350575252938
 30
0.0
 10
287.8866318192121
 20
-1844.052651714564
 30
0.0
 10
287.1238361464092
 20
-1832.807109003949
 30
0.0
 10
286.1618448600987
 20
-1818.625404893881
 30
0.0
 10
284.5448064601395
 20
-1804.489196502769
 30
0.0
 10
283.360702952125
 20
-1790.320992606042
 30
0.0
 10
282.5774713349002
 20
-1780.949414509241
 30
0.0
 10
282.1933565810326
 20
-1771.544355883355
 30
0.0
 10
281.3896215183303
 20
-1762.174937820688
 30
0.0
 10
280.1726112459708
 20
-1747.98810362955
 30
0.0
 10
278.7217941941173
 20
-1733.821384756291
 30
0.0
 10
277.4173700554439
 20
-1719.641840680356
 30
0.0
 10
276.6644632872091
 20
-1711.457201340464
 30
0.0
 10
276.0878861500763
 20
-1703.255956738161
 30
0.0
 10
275.2834592015603
 20
-1695.076852485739
 30
0.0
 10
273.8917899492102
 20
-1680.927683889823
 30
0.0
 10
272.2866317349427
 20
-1666.798630611782
 30
0.0
 10
270.9503133477491
 20
-1652.64460193906
 30
0.0
 10
269.1995722329618
 20
-1634.100168885834
 30
0.0
 10
267.6772209379998
 20
-1615.533865486994
 30
0.0
 10
265.9554040253097
 20
-1596.986462386832
 30
0.0
 10
264.3272110759997
 20
-1579.447255218948
 30
0.0
 10
262.5025225553853
 20
-1561.926408341207
 30
0.0
 10
260.8937024088791
 20
-1544.385851151988
 30
0.0
 10
260.0678270001152
 20
-1535.38134385592
 30
0.0
 10
259.5775837124158
 20
-1526.346866086234
 30
0.0
 10
258.8415353326835
 20
-1517.333718653626
 30
0.0
 10
257.5602134301076
 20
-1501.643230700609
 30
0.0
 10
256.1426912736665
 20
-1485.963812922532
 30
0.0
 10
254.9093288707166
 20
-1470.269679911911
 30
0.0
 10
254.3066794510641
 20
-1462.600883723764
 30
0.0
 10
254.0553392725164
 20
-1454.905222111069
 30
0.0
 10
253.5290335461465
 20
-1447.22954081412
 30
0.0
 10
252.6795833938994
 20
-1434.841205044219
 30
0.0
 10
251.6298238607362
 20
-1422.465424472728
 30
0.0
 10
250.8583036765653
 20
-1410.072498630294
 30
0.0
 10
250.0583824234744
 20
-1397.223400579078
 30
0.0
 10
249.4606099550511
 20
-1384.361342323057
 30
0.0
 10
248.8249187689417
 20
-1371.502524118237
 30
0.0
 10
247.8245193822977
 20
-1351.265839322761
 30
0.0
 10
246.6061928393643
 20
-1331.035094621155
 30
0.0
 10
245.9561914295812
 20
-1310.786529637938
 30
0.0
 10
245.1421455807174
 20
-1285.428538911694
 30
0.0
 10
244.8411583761667
 20
-1260.054482931574
 30
0.0
 10
244.2589449009366
 20
-1234.688527079456
 30
0.0
 10
243.7935588767657
 20
-1214.412826667426
 30
0.0
 10
242.9745348250902
 20
-1194.141716327931
 30
0.0
 10
242.7880462851999
 20
-1173.864260888166
 30
0.0
 10
242.5323691638638
 20
-1146.062731547267
 30
0.0
 10
242.7274640882761
 20
-1118.257219643431
 30
0.0
 10
242.7275147140669
 20
-1090.45346276733
 30
0.0
 10
242.7275315893306
 20
-1075.201326741482
 30
0.0
 10
242.8084147285666
 20
-1059.948448203901
 30
0.0
 10
242.6817489987309
 20
-1044.697392195121
 30
0.0
 10
242.6279000320493
 20
-1038.211687203081
 30
0.0
 10
241.9494469275547
 20
-1031.731854803843
 30
0.0
 10
241.8777776823359
 20
-1025.245677304337
 30
0.0
 10
241.6601036550027
 20
-1005.546098496618
 30
0.0
 10
241.7898406828449
 20
-985.8411196035625
 30
0.0
 10
241.414163560861
 20
-966.1453883566458
 30
0.0
 10
241.1483781565277
 20
-952.210063140043
 30
0.0
 10
240.2959242073307
 20
-938.28540309198
 30
0.0
 10
239.6794201961252
 20
-924.3572329884489
 30
0.0
 10
239.0251999704002
 20
-909.5770644209899
 30
0.0
 10
238.3523494534761
 20
-894.7978408684654
 30
0.0
 10
237.666066226593
 20
-880.0191573244736
 30
0.0
 10
236.6596086202562
 20
-858.3455773220874
 30
0.0
 10
235.6428402277582
 20
-836.6722673239676
 30
0.0
 10
234.6118966136954
 20
-814.9997673386488
 30
0.0
 10
234.2206436232542
 20
-806.7741548512671
 30
0.0
 10
233.9845080573602
 20
-798.5340296345442
 30
0.0
 10
233.3115900393817
 20
-790.3305574970423
 30
0.0
 10
232.2164191714207
 20
-776.9798590191564
 30
0.0
 10
230.5130300467644
 20
-763.6742512538276
 30
0.0
 10
229.625559925249
 20
-750.3124150999366
 30
0.0
 10
228.3890418479751
 20
-731.6948108904021
 30
0.0
 10
227.6448258405797
 20
-713.0443336613843
 30
0.0
 10
226.7322453265797
 20
-694.405871622239
 30
0.0
 10
225.6543716039805
 20
-672.3915462351349
 30
0.0
 10
224.2925209427076
 20
-650.3847809675018
 30
0.0
 10
223.6448314440608
 20
-628.3573603734573
 30
0.0
 10
222.6158284853306
 20
-593.3620398508012
 30
0.0
 10
222.3561688017456
 20
-558.3432289569311
 30
0.0
 10
221.1916574749659
 20
-523.3535110228112
 30
0.0
 10
220.7305577677917
 20
-509.4992545873201
 30
0.0
 10
218.6919921541924
 20
-495.6991340073247
 30
0.0
 10
217.4196816424675
 20
-481.8698529665127
 30
0.0
 10
215.5675201924397
 20
-461.7378623254936
 30
0.0
 10
213.9050873329463
 20
-441.5870388868638
 30
0.0
 10
211.8556034236899
 20
-421.4753660669224
 30
0.0
 10
211.0915589813677
 20
-413.9776513323344
 30
0.0
 10
209.4278098513008
 20
-406.5735605772641
 30
0.0
 10
208.2438750959246
 20
-399.1157727236314
 30
0.0
 10
206.8760505912782
 20
-390.4996665653722
 30
0.0
 10
205.4547315004898
 20
-381.8886229871158
 30
0.0
 10
204.2986578055932
 20
-373.2430863637743
 30
0.0
 10
203.2288167085469
 20
-365.2425899338485
 30
0.0
 10
202.3134349007611
 20
-357.2136080537728
 30
0.0
 10
201.6287885744646
 20
-349.1716659688913
 30
0.0
 10
200.7493004527116
 20
-338.8411339679718
 30
0.0
 10
199.8314211058887
 20
-328.4932541929097
 30
0.0
 10
199.5830678490274
 20
-318.1373755414431
 30
0.0
 10
199.4307010924736
 20
-311.7846476508079
 30
0.0
 10
201.1538005252099
 20
-305.3776489025442
 30
0.0
 10
200.9085523168825
 20
-299.0383874747159
 30
0.0
 10
199.8619315827799
 20
-271.9864743548212
 30
0.0
 10
198.6709092166217
 20
-244.9337005963259
 30
0.0
 10
196.9894241843352
 20
-217.9149305001827
 30
0.0
 10
195.8032112683507
 20
-198.8543842909423
 30
0.0
 10
193.6139664245737
 20
-179.8584028520041
 30
0.0
 10
192.1113085624277
 20
-160.8146644083727
 30
0.0
 10
190.6371698960483
 20
-142.1322929253377
 30
0.0
 10
189.0376986456698
 20
-123.4435932172982
 30
0.0
 10
188.2726248122581
 20
-104.7258343000441
 30
0.0
 10
187.5279869232688
 20
-86.50802203332599
 30
0.0
 10
187.3807839974276
 20
-68.26533562352776
 30
0.0
 10
187.1446990573256
 20
-50.02744178946609
 30
0.0
 10
187.1446990573256
 20
-50.02744178946609
 30
0.0
 10
141.3519832987793
 20
-50.02744178946609
 30
0.0
 10
141.3519832987793
 20
-50.02744178946609
 30
0.0
 10
141.6338339542179
 20
-54.26495625389115
 30
0.0
 10
141.916916503912
 20
-58.50240321724859
 30
0.0
 10
142.1848619420068
 20
-62.74045769020748
 30
0.0
 10
143.0881610609355
 20
-77.02805409866607
 30
0.0
 10
143.805916654743
 20
-91.33158075886756
 30
0.0
 10
144.9872863700267
 20
-105.596412432581
 30
0.0
 10
146.8482398324775
 20
-128.0675344133321
 30
0.0
 10
149.0676070220781
 20
-150.5086184193999
 30
0.0
 10
151.0633600915001
 20
-172.9688558531454
 30
0.0
 10
152.880235364991
 20
-193.415637718735
 30
0.0
 10
154.7887095702093
 20
-213.8569857484545
 30
0.0
 10
156.3095420914328
 20
-234.3263973466564
 30
0.0
 10
157.695878760432
 20
-252.9854134606133
 30
0.0
 10
158.843632950291
 20
-271.6695230961162
 30
0.0
 10
159.6096011726821
 20
-290.3625428724244
 30
0.0
 10
159.8546637531089
 20
-296.3429348791249
 30
0.0
 10
158.2465523676814
 20
-302.3756233372536
 30
0.0
 10
158.0140112329703
 20
-308.404734238847
 30
0.0
 10
157.6332040308008
 20
-318.2772377516522
 30
0.0
 10
156.9905939865476
 20
-328.2187273546282
 30
0.0
 10
157.7305068016823
 20
-338.0352387326026
 30
0.0
 10
158.634936563283
 20
-350.0345996056249
 30
0.0
 10
160.7895196152813
 20
-361.9440490577972
 30
0.0
 10
162.5161122276178
 20
-373.8760101157164
 30
0.0
 10
164.8390597862214
 20
-389.9292150506637
 30
0.0
 10
167.533178771384
 20
-405.9332454585177
 30
0.0
 10
169.5772288457075
 20
-422.0208421869506
 30
0.0
 10
171.486293685158
 20
-437.0460396265416
 30
0.0
 10
172.7676999640532
 20
-452.1514283333765
 30
0.0
 10
174.3008514278264
 20
-467.2240115217936
 30
0.0
 10
176.1232786630968
 20
-485.1406846546813
 30
0.0
 10
178.1257987132894
 20
-503.0420350454279
 30
0.0
 10
179.6727035170332
 20
-520.9826710569955
 30
0.0
 10
181.4381767370888
 20
-541.4580396243342
 30
0.0
 10
183.0129088507846
 20
-561.9556160426186
 30
0.0
 10
184.2593833336817
 20
-582.4685827041104
 30
0.0
 10
185.7113479034715
 20
-606.3630828031647
 30
0.0
 10
186.8781205155955
 20
-630.2779007232959
 30
0.0
 10
187.8661334586352
 20
-654.1963637010297
 30
0.0
 10
188.6246259391772
 20
-672.5577338613582
 30
0.0
 10
188.7319357414727
 20
-690.9458344441012
 30
0.0
 10
189.4561545613037
 20
-709.3090271332312
 30
0.0
 10
190.478373663999
 20
-735.2285592333798
 30
0.0
 10
192.0159801974071
 20
-761.128718527385
 30
0.0
 10
192.9290838445839
 20
-787.0514231776689
 30
0.0
 10
193.6355836374598
 20
-807.1088251399817
 30
0.0
 10
193.5016615442029
 20
-827.1951175588434
 30
0.0
 10
194.1407446583293
 20
-847.2557595723573
 30
0.0
 10
194.9129229777865
 20
-871.4954601265317
 30
0.0
 10
196.2510470182028
 20
-895.7167328894952
 30
0.0
 10
197.0543601993108
 20
-919.9557584330024
 30
0.0
 10
197.4341548856545
 20
-931.4156845314654
 30
0.0
 10
196.9620187559769
 20
-942.9013285363433
 30
0.0
 10
197.1847216119115
 20
-954.3694222638777
 30
0.0
 10
197.7405084240837
 20
-982.987174503352
 30
0.0
 10
198.7134686318423
 20
-1011.598581642557
 30
0.0
 10
199.0859394537115
 20
-1040.2180214087
 30
0.0
 10
199.9226150312862
 20
-1104.505834833595
 30
0.0
 10
200.3973837021116
 20
-1168.798305832094
 30
0.0
 10
201.2366580703071
 20
-1233.086456762323
 30
0.0
 10
201.494005842756
 20
-1252.797578252449
 30
0.0
 10
202.4895282781717
 20
-1272.498709584702
 30
0.0
 10
203.0883132624215
 20
-1292.206186017225
 30
0.0
 10
203.8341661704023
 20
-1316.754028940899
 30
0.0
 10
204.4240578906464
 20
-1341.306731941375
 30
0.0
 10
205.2696942332823
 20
-1365.850929807448
 30
0.0
 10
205.7099698649673
 20
-1378.629691747158
 30
0.0
 10
206.46846234551
 20
-1391.399948552463
 30
0.0
 10
207.2367762295645
 20
-1404.164670270299
 30
0.0
 10
208.5295901867661
 20
-1425.644184705913
 30
0.0
 10
209.9705183340524
 20
-1447.114789000724
 30
0.0
 10
211.3002553683764
 20
-1468.591738395803
 30
0.0
 10
212.3398897432796
 20
-1485.382763740351
 30
0.0
 10
213.1000191244068
 20
-1502.193364394241
 30
0.0
 10
214.3522986980395
 20
-1518.967784476378
 30
0.0
 10
216.2030595011749
 20
-1543.759036246583
 30
0.0
 10
218.301987933269
 20
-1568.532872741578
 30
0.0
 10
220.4411638694487
 20
-1593.301579155506
 30
0.0
 10
222.4370519409813
 20
-1616.411379354136
 30
0.0
 10
224.5854080206498
 20
-1639.508084345825
 30
0.0
 10
226.7351647472113
 20
-1662.60465433538
 30
0.0
 10
229.6315168933591
 20
-1693.721701070607
 30
0.0
 10
232.8805789275044
 20
-1724.80891233435
 30
0.0
 10
235.4419064620826
 20
-1755.953094498391
 30
0.0
 10
237.7325547658361
 20
-1783.806329656385
 30
0.0
 10
238.7058018530791
 20
-1811.77526164271
 30
0.0
 10
241.3437599604241
 20
-1839.590426199084
 30
0.0
 10
244.0529148056032
 20
-1868.156472621464
 30
0.0
 10
245.0501585179227
 20
-1896.719008988376
 30
0.0
 10
244.8127910577739
 20
-1925.376316852937
 30
0.0
 10
244.7477369159519
 20
-1933.233036010786
 30
0.0
 10
244.8125548040809
 20
-1941.186686700421
 30
0.0
 10
245.9215802635946
 20
-1948.938239196345
 30
0.0
 10
245.9994764811438
 20
-1949.482567798239
 30
0.0
 10
246.0680575530937
 20
-1950.027301406534
 30
0.0
 10
246.1418699568113
 20
-1950.571765010563
 30
0.0
 10
246.1418699568113
 20
-1950.571765010563
 30
0.0
 10
288.7797382788246
 20
-1950.607810580181
 30
0.0
 10
288.7797382788246
 20
-1950.607810580181
 30
0.0
 10
288.4601882841295
 20
-1945.535915430239
 30
0.0
 10
288.1396257736087
 20
-1940.464155282428
 30
0.0
 10
287.8422836260313
 20
-1935.391180115421
 30
0.0
  0
SPLINE
  5
7D
330
70
100
AcDbEntity
  8
Stripes
 62
   250
420
  2301728
370
    35
100
AcDbSpline
210
0.0
220
0.0
230
1.0
 70
     9
 71
     3
 72
   215
 73
   211
 74
     0
 42
0.0000000001
 43
0.0000000001
 40
0.0
 40
0.0
 40
0.0
 40
0.0
 40
1.0
 40
1.0
 40
1.0
 40
2.0
 40
2.0
 40
2.0
 40
3.0
 40
3.0
 40
3.0
 40
4.0
 40
4.0
 40
4.0
 40
5.0
 40
5.0
 40
5.0
 40
6.0
 40
6.0
 40
6.0
 40
7.0
 40
7.0
 40
7.0
 40
8.0
 40
8.0
 40
8.0
 40
9.0
 40
9.0
 40
9.0
 40
10.0
 40
10.0
 40
10.0
 40
11.0
 40
11.0
 40
11.0
 40
12.0
 40
12.0
 40
12.0
 40
13.0
 40
13.0
 40
13.0
 40
14.0
 40
14.0
 40
14.0
 40
15.0
 40
15.0
 40
15.0
 40
16.0
 40
16.0
 40
16.0
 40
17.0
 40
17.0
 40
17.0
 40
18.0
 40
18.0
 40
18.0
 40
19.0
 40
19.0
 40
19.0
 40
20.0
 40
20.0
 40
20.0
 40
21.0
 40
21.0
 40
21.0
 40
22.0
 40
22.0
 40
22.0
 40
23.0
 40
23.0
 40
23.0
 40
24.0
 40
24.0
 40
24.0
 40
25.0
 40
25.0
 40
25.0
 40
26.0
 40
26.0
 40
26.0
 40
27.0
 40
27.0
 40
27.0
 40
28.0
 40
28.0
 40
28.0
 40
29.0
 40
29.0
 40
29.0
 40
30.0
 40
30.0
 40
30.0
 40
31.0
 40
31.0
 40
31.0
 40
32.0
 40
32.0
 40
32.0
 40
33.0
 40
33.0
 40
33.0
 40
34.0
 40
34.0
 40
34.0
 40
35.0
 40
35.0
 40
35.0
 40
36.0
 40
36.0
 40
36.0
 40
37.0
 40
37.0
 40
37.0
 40
38.0
 40
38.0
 40
38.0
 40
39.0
 40
39.0
 40
39.0
 40
40.0
 40
40.0
 40
40.0
 40
41.0
 40
41.0
 40
41.0
 40
42.0
 40
42.0
 40
42.0
 40
43.0
 40
43.0
 40
43.0
 40
44.0
 40
44.0
 40
44.0
 40
45.0
 40
45.0
 40
45.0
 40
46.0
 40
46.0
 40
46.0
 40
47.0
 40
47.0
 40
47.0
 40
48.0
 40
48.0
 40
48.0
 40
49.0
 40
49.0
 40
49.0
 40
50.0
 40
50.0
 40
50.0
 40
51.0
 40
51.0
 40
51.0
 40
52.0
 40
52.0
 40
52.0
 40
53.0
 40
53.0
 40
53.0
 40
54.0
 40
54.0
 40
54.0
 40
55.0
 40
55.0
 40
55.0
 40
56.0
 40
56.0
 40
56.0
 40
57.0
 40
57.0
 40
57.0
 40
58.0
 40
58.0
 40
58.0
 40
59.0
 40
59.0
 40
59.0
 40
60.0
 40
60.0
 40
60.0
 40
61.0
 40
61.0
 40
61.0
 40
62.0
 40
62.0
 40
62.0
 40
63.0
 40
63.0
 40
63.0
 40
64.0
 40
64.0
 40
64.0
 40
65.0
 40
65.0
 40
65.0
 40
66.0
 40
66.0
 40
66.0
 40
67.0
 40
67.0
 40
67.0
 40
68.0
 40
68.0
 40
68.0
 40
69.0
 40
69.0
 40
69.0
 40
70.0
 40
70.0
 40
70.0
 40
70.0
 10
207.1177043684236
 20
-1886.688620480551
 30
0.0
 10
206.2780587444252
 20
-1871.389773716545
 30
0.0
 10
205.0034869473557
 20
-1856.113337306684
 30
0.0
 10
203.8057313509548
 20
-1840.836225886157
 30
0.0
 10
201.9914717433481
 20
-1817.695645201111
 30
0.0
 10
200.0784749674395
 20
-1794.562894639803
 30
0.0
 10
198.2002918606827
 20
-1771.427309033691
 30
0.0
 10
197.1395802813351
 20
-1758.36153255836
 30
0.0
 10
196.2597209037795
 20
-1745.276720782219
 30
0.0
 10
194.9427753193907
 20
-1732.236594712233
 30
0.0
 10
193.5410146593084
 20
-1718.356350366062
 30
0.0
 10
191.5340395394809
 20
-1704.537126984187
 30
0.0
 10
190.1263556618162
 20
-1690.65742264655
 30
0.0
 10
188.2315841707771
 20
-1671.975692423648
 30
0.0
 10
186.7833321590157
 20
-1653.248871488189
 30
0.0
 10
184.9101103798066
 20
-1634.564576224752
 30
0.0
 10
183.0564470313042
 20
-1616.076034054754
 30
0.0
 10
180.7852727819375
 20
-1597.629477548246
 30
0.0
 10
178.9320481902927
 20
-1579.140665373981
 30
0.0
 10
177.0805955013433
 20
-1560.669538479193
 30
0.0
 10
175.2213464405334
 20
-1542.190041452135
 30
0.0
 10
173.9071852746667
 20
-1523.675713874657
 30
0.0
 10
172.2412254850458
 20
-1500.205592981965
 30
0.0
 10
170.8752235088858
 20
-1476.707391645525
 30
0.0
 10
169.8420523600054
 20
-1453.200955178948
 30
0.0
 10
168.9613492192615
 20
-1433.163263528112
 30
0.0
 10
168.7805476432602
 20
-1413.095871407928
 30
0.0
 10
168.2071768062438
 20
-1393.043869530952
 30
0.0
 10
167.4327878272327
 20
-1365.963791590975
 30
0.0
 10
166.6512606116484
 20
-1338.883713650999
 30
0.0
 10
165.7317443642405
 20
-1311.808225783558
 30
0.0
 10
165.1953978559289
 20
-1296.014461198485
 30
0.0
 10
164.3387925918445
 20
-1280.23176678835
 30
0.0
 10
163.7083833632949
 20
-1264.440972250213
 30
0.0
 10
163.0439704782546
 20
-1247.798449252413
 30
0.0
 10
162.3227892059017
 20
-1231.155656250346
 30
0.0
 10
161.9115896536875
 20
-1214.50611314161
 30
0.0
 10
161.5043895389859
 20
-1198.018032584427
 30
0.0
 10
161.441681058827
 20
-1181.521581894974
 30
0.0
 10
161.2484930392208
 20
-1165.028371256722
 30
0.0
 10
161.0397122758933
 20
-1147.204849595885
 30
0.0
 10
160.7764750363895
 20
-1129.382002945714
 30
0.0
 10
160.6760334664477
 20
-1111.558008777409
 30
0.0
 10
160.4766522250385
 20
-1076.177729671344
 30
0.0
 10
160.5123096573786
 20
-1040.795628036479
 30
0.0
 10
160.1848114134498
 20
-1005.416698951748
 30
0.0
 10
159.9277673957484
 20
-977.6453425876637
 30
0.0
 10
159.1909933796743
 20
-949.8785762961162
 30
0.0
 10
158.8214082279103
 20
-922.1076924394989
 30
0.0
 10
158.6040379553255
 20
-905.7716242845328
 30
0.0
 10
158.8601032077279
 20
-889.4286710207621
 30
0.0
 10
158.5999372662299
 20
-873.0937503839285
 30
0.0
 10
158.058005045611
 20
-839.0688251961968
 30
0.0
 10
157.7466564291074
 20
-805.0315473132584
 30
0.0
 10
156.5047888932189
 20
-771.0299099935394
 30
0.0
 10
155.6514574303051
 20
-747.6664407862389
 30
0.0
 10
153.4708020957861
 20
-724.3486023000295
 30
0.0
 10
151.7368349931832
 20
-701.0212461634161
 30
0.0
 10
150.1134177435198
 20
-679.1812760316063
 30
0.0
 10
148.116922162492
 20
-657.3680363222112
 30
0.0
 10
146.6078348248502
 20
-635.5206410730646
 30
0.0
 10
144.3503970401906
 20
-602.8395271212595
 30
0.0
 10
145.4692270279527
 20
-570.1550043655852
 30
0.0
 10
146.9027638097087
 20
-537.4705491109779
 30
0.0
 10
147.5602578366048
 20
-522.4799797186059
 30
0.0
 10
148.2240632121493
 20
-507.4595748547505
 30
0.0
 10
147.9703098708823
 20
-492.4680941979771
 30
0.0
 10
147.7481976491793
 20
-479.3460218330151
 30
0.0
 10
146.5082201428327
 20
-466.2197306513834
 30
0.0
 10
145.2275395002801
 20
-453.1434240096463
 30
0.0
 10
144.169392961024
 20
-442.3392707742043
 30
0.0
 10
142.8839366188248
 20
-431.5106146515486
 30
0.0
 10
140.8261163292674
 20
-420.8615113663235
 30
0.0
 10
137.4938254942221
 20
-403.6169463545984
 30
0.0
 10
133.120432136327
 20
-386.5738045259162
 30
0.0
 10
129.7788092804196
 20
-369.3308257892588
 30
0.0
 10
125.1190595716592
 20
-345.2858658125235
 30
0.0
 10
125.8957098360143
 20
-321.5169176975373
 30
0.0
 10
133.9903519835239
 20
-298.0664058647233
 30
0.0
 10
136.1459644266124
 20
-291.8215109281469
 30
0.0
 10
137.2697557419218
 20
-284.7609331015286
 30
0.0
 10
136.8947705057523
 20
-278.1872235937737
 30
0.0
 10
135.6581511768952
 20
-256.5092560220521
 30
0.0
 10
133.5164102006231
 20
-234.8829942674241
 30
0.0
 10
131.7254384570157
 20
-213.2367015712532
 30
0.0
 10
130.6013940127495
 20
-199.6511331317733
 30
0.0
 10
128.7391580302529
 20
-186.0767023683001
 30
0.0
 10
128.5264453304677
 20
-172.4766718252794
 30
0.0
 10
128.1521182295841
 20
-148.5458561523387
 30
0.0
 10
128.9675816006046
 20
-124.5993296061234
 30
0.0
 10
128.9575239433992
 20
-100.6594856655116
 30
0.0
 10
128.9504194573534
 20
-83.78236271038579
 30
0.0
 10
128.9121632343931
 20
-66.90476724779248
 30
0.0
 10
128.8305713340788
 20
-50.02744178946609
 30
0.0
 10
128.8305713340788
 20
-50.02744178946609
 30
0.0
 10
111.0674493143451
 20
-50.02744178946609
 30
0.0
 10
111.0674493143451
 20
-50.02744178946609
 30
0.0
 10
111.144856149245
 20
-54.11923832614538
 30
0.0
 10
111.1878205707961
 20
-58.21091673595795
 30
0.0
 10
111.1697134127735
 20
-62.3024601436369
 30
0.0
 10
111.0681580754228
 20
-85.24212390364143
 30
0.0
 10
109.9560106921132
 20
-108.1800663864446
 30
0.0
 10
110.0067377349965
 20
-131.117148230648
 30
0.0
 10
110.0869121131547
 20
-167.3809656740567
 30
0.0
 10
110.3067799247771
 20
-203.6568995589397
 30
0.0
 10
111.3740559817304
 20
-239.901057316671
 30
0.0
 10
112.0415907905677
 20
-262.5703961797964
 30
0.0
 10
110.1721828209702
 20
-284.946054776962
 30
0.0
 10
107.5188682235969
 20
-307.3681878585534
 30
0.0
 10
105.8613798163871
 20
-321.3749629542605
 30
0.0
 10
103.9186657009851
 20
-335.447990346937
 30
0.0
 10
103.7743146947211
 20
-349.5084287906729
 30
0.0
 10
103.5914205860124
 20
-367.3220952957726
 30
0.0
 10
105.2425132682541
 20
-385.1484520014124
 30
0.0
 10
105.8528578081846
 20
-402.977846255053
 30
0.0
 10
106.7338309531485
 20
-428.7131341936355
 30
0.0
 10
107.9039954932907
 20
-454.4548347335549
 30
0.0
 10
107.9759347427299
 20
-480.1965690240076
 30
0.0
 10
108.0309481026111
 20
-499.8813650981191
 30
0.0
 10
106.670531838758
 20
-519.5745313045009
 30
0.0
 10
105.7664733329605
 20
-539.256121077944
 30
0.0
 10
104.8173747481681
 20
-559.918298847383
 30
0.0
 10
102.5759347135597
 20
-580.5862142074921
 30
0.0
 10
102.8636410855262
 20
-601.2242940961194
 30
0.0
 10
103.2481945962522
 20
-628.8113050470362
 30
0.0
 10
105.069980571499
 20
-656.4059436184908
 30
0.0
 10
107.1342303365518
 20
-683.9328786200426
 30
0.0
 10
108.7502562206862
 20
-705.482729167162
 30
0.0
 10
112.1210395323832
 20
-726.8981175894086
 30
0.0
 10
113.8733331714371
 20
-748.4414880341242
 30
0.0
 10
115.2617792484071
 20
-765.5111577820219
 30
0.0
 10
115.7357716570987
 20
-782.6790415819711
 30
0.0
 10
115.9731053667201
 20
-799.8122973347023
 30
0.0
 10
116.3106612678543
 20
-824.1802499156126
 30
0.0
 10
115.9379204417654
 20
-848.5572476394608
 30
0.0
 10
116.100597984481
 20
-872.9288452779726
 30
0.0
 10
116.2146578922834
 20
-890.0185628426807
 30
0.0
 10
116.8738731960832
 20
-907.1047028508536
 30
0.0
 10
117.0134485027015
 20
-924.1946229187611
 30
0.0
 10
117.3867799630216
 20
-969.9061427869459
 30
0.0
 10
117.5307259629563
 20
-1015.619552684998
 30
0.0
 10
117.9298259510491
 20
-1061.330802548916
 30
0.0
 10
118.1225077127425
 20
-1083.400411309649
 30
0.0
 10
118.6951191628895
 20
-1105.466442513848
 30
0.0
 10
119.075065726607
 20
-1127.534566251114
 30
0.0
 10
119.4115247355969
 20
-1147.075787556347
 30
0.0
 10
119.6823052180039
 20
-1166.617886375448
 30
0.0
 10
120.0524641287368
 20
-1186.158365168948
 30
0.0
 10
120.313710087116
 20
-1199.950183117739
 30
0.0
 10
120.6441615022041
 20
-1213.741056051597
 30
0.0
 10
121.0298119050754
 20
-1227.530038955586
 30
0.0
 10
121.7022742909329
 20
-1251.573108902454
 30
0.0
 10
122.4698287881176
 20
-1275.613613808785
 30
0.0
 10
123.1393380028155
 20
-1299.65654875352
 30
0.0
 10
123.447902200798
 20
-1310.737523863512
 30
0.0
 10
123.623050563437
 20
-1321.822549037507
 30
0.0
 10
123.8517441380094
 20
-1332.905684181633
 30
0.0
 10
124.2931841628944
 20
-1354.300282275336
 30
0.0
 10
124.6233824490267
 20
-1375.697850415971
 30
0.0
 10
125.1995377045649
 20
-1397.088803452073
 30
0.0
 10
125.7277165852132
 20
-1416.69934835281
 30
0.0
 10
126.4704306941327
 20
-1436.304628170345
 30
0.0
 10
127.2093478687053
 20
-1455.908827970811
 30
0.0
 10
127.8485322344135
 20
-1472.867255960783
 30
0.0
 10
128.6137916957265
 20
-1489.820553869682
 30
0.0
 10
129.3275984778132
 20
-1506.776146814849
 30
0.0
 10
129.3914038501167
 20
-1508.291815766604
 30
0.0
 10
129.4478853579451
 20
-1509.809644752491
 30
0.0
 10
129.5729985635151
 20
-1511.320993635975
 30
0.0
 10
130.8026146579089
 20
-1526.173928353341
 30
0.0
 10
132.0257844015431
 20
-1541.027943087772
 30
0.0
 10
133.2934373404685
 20
-1555.877637753935
 30
0.0
 10
134.033653910351
 20
-1564.549094786892
 30
0.0
 10
134.7497388530459
 20
-1573.224331879583
 30
0.0
 10
135.6597543269532
 20
-1581.878778643728
 30
0.0
 10
136.7964889695723
 20
-1592.689749486907
 30
0.0
 10
138.2007640439563
 20
-1603.472504884205
 30
0.0
 10
139.3410087414386
 20
-1614.282935718851
 30
0.0
 10
140.3088051184849
 20
-1623.459165728613
 30
0.0
 10
141.0411915659798
 20
-1632.659696122388
 30
0.0
 10
141.9218947067236
 20
-1641.845511283621
 30
0.0
 10
143.0737158351506
 20
-1653.858811126918
 30
0.0
 10
144.2950968008259
 20
-1665.865495865676
 30
0.0
 10
145.4364383904538
 20
-1677.879740723907
 30
0.0
 10
146.2131392806006
 20
-1686.056144933662
 30
0.0
 10
146.9040632050193
 20
-1694.240919275687
 30
0.0
 10
147.6330745997599
 20
-1702.421778555844
 30
0.0
 10
149.6102142532469
 20
-1724.609649185443
 30
0.0
 10
151.6549899639134
 20
-1746.79198472757
 30
0.0
 10
153.5339493328029
 20
-1768.987955485173
 30
0.0
 10
154.3966465671073
 20
-1779.178861529617
 30
0.0
 10
154.8235907404166
 20
-1789.406488154348
 30
0.0
 10
155.6442854432039
 20
-1799.601579264925
 30
0.0
 10
156.8827441758119
 20
-1814.986287385779
 30
0.0
 10
158.4365340871725
 20
-1830.346290116217
 30
0.0
 10
159.5849970381098
 20
-1845.737208335206
 30
0.0
 10
160.5107571331113
 20
-1858.143364386716
 30
0.0
 10
160.9894071146037
 20
-1870.582730963042
 30
0.0
 10
161.7477814682993
 20
-1883.002252225758
 30
0.0
 10
163.0193325931543
 20
-1903.826061299417
 30
0.0
 10
164.5290274402914
 20
-1924.637045170404
 30
0.0
 10
165.5887433790772
 20
-1945.471249408337
 30
0.0
 10
165.6740140868929
 20
-1947.147570898843
 30
0.0
 10
165.7282849351681
 20
-1948.825242410683
 30
0.0
 10
165.7639086169805
 20
-1950.503858937459
 30
0.0
 10
165.7639086169805
 20
-1950.503858937459
 30
0.0
 10
210.0459170125636
 20
-1950.541254528411
 30
0.0
 10
210.0459170125636
 20
-1950.541254528411
 30
0.0
 10
209.3418472576706
 20
-1929.247908034764
 30
0.0
 10
208.2852701179454
 20
-1907.962661669123
 30
0.0
 10
207.1177043684236
 20
-1886.688620480551
 30
0.0
  0
ELLIPSE
  5
7F
330
70
100
AcDbEntity
  8
Screws
100
AcDbEllipse
 10
52.38749998690281
 20
-1947.68611062419
 30
0.0
 11
2.557638888249479
 21
0.0
 31
0.0
210
0.0
220
0.0
230
1.0
 40
0.9655172413793103
 41
0.0
 42
6.283185307179586
  0
HATCH
  5
80
330
70
100
AcDbEntity
  8
Screws
 62
    18
420
        0
440
 33554687
100
AcDbHatch
 10
0.0
 20
0.0
 30
0.0
210
0.0
220
0.0
230
1.0
  2
SOLID
 70
     1
 71
     1
 91
        1
 92
        1
 93
        1
 72
     3
 10
52.38749998690281
 20
-1947.68611062419
 11
2.557638888249479
 21
0.0
 40
0.9655172413793103
 50
0.0
 51
360.0
 73
     1
 97
        1
330
7F
 75
     2
 76
     1
 98
        1
 10
0.0
 20
0.0
450
        0
451
        0
460
0.0
461
0.0
452
        0
462
0.0
453
        0
470

  0
ELLIPSE
  5
81
330
70
100
AcDbEntity
  8
Screws
100
AcDbEllipse
 10
947.3741665230397
 20
-1947.363151691227
 30
0.0
 11
2.557638888249479
 21
0.0
 31
0.0
210
0.0
220
0.0
230
1.0
 40
0.9655172413793103
 41
0.0
 42
6.283185307179586
  0
HATCH
  5
82
330
70
100
AcDbEntity
  8
Screws
 62
    18
420
        0
440
 33554687
100
AcDbHatch
 10
0.0
 20
0.0
 30
0.0
210
0.0
220
0.0
230
1.0
  2
SOLID
 70
     1
 71
     1
 91
        1
 92
        1
 93
        1
 72
     3
 10
947.3741665230397
 20
-1947.363151691227
 11
2.557638888249479
 21
0.0
 40
0.9655172413793103
 50
0.0
 51
360.0
 73
     1
 97
        1
330
81
 75
     2
 76
     1
 98
        1
 10
0.0
 20
0.0
450
        0
451
        0
460
0.0
461
0.0
452
        0
462
0.0
453
        0
470

  0
ELLIPSE
  5
83
330
70
100
AcDbEntity
  8
Screws
100
AcDbEllipse
 10
947.3741665230397
 20
-52.35726954353301
 30
0.0
 11
2.557638888249479
 21
0.0
 31
0.0
210
0.0
220
0.0
230
1.0
 40
0.9655172413793103
 41
0.0
 42
6.283185307179586
  0
HATCH
  5
84
330
70
100
AcDbEntity
  8
Screws
 62
    18
420
        0
440
 33554687
100
AcDbHatch
 10
0.0
 20
0.0
 30
0.0
210
0.0
220
0.0
230
1.0
  2
SOLID
 70
     1
 71
     1
 91
        1
 92
        1
 93
        1
 72
     3
 10
947.3741665230397
 20
-52.35726954353301
 11
2.557638888249479
 21
0.0
 40
0.9655172413793103
 50
0.0
 51
360.0
 73
     1
 97
        1
330
83
 75
     2
 76
     1
 98
        1
 10
0.0
 20
0.0
450
        0
451
        0
460
0.0
461
0.0
452
        0
462
0.0
453
        0
470

  0
ELLIPSE
  5
85
330
70
100
AcDbEntity
  8
Screws
100
AcDbEllipse
 10
52.65629120692066
 20
-52.35726954353301
 30
0.0
 11
2.557638888249479
 21
0.0
 31
0.0
210
0.0
220
0.0
230
1.0
 40
0.9655172413793103
 41
0.0
 42
6.283185307179586
  0
HATCH
  5
86
330
70
100
AcDbEntity
  8
Screws
 62
    18
420
        0
440
 33554687
100
AcDbHatch
 10
0.0
 20
0.0
 30
0.0
210
0.0
220
0.0
230
1.0
  2
SOLID
 70
     1
 71
     1
 91
        1
 92
        1
 93
        1
 72
     3
 10
52.65629120692066
 20
-52.35726954353301
 11
2.557638888249479
 21
0.0
 40
0.9655172413793103
 50
0.0
 51
360.0
 73
     1
 97
        1
330
85
 75
     2
 76
     1
 98
        1
 10
0.0
 20
0.0
450
        0
451
        0
460
0.0
461
0.0
452
        0
462
0.0
453
        0
470

  0
ENDSEC
  0
SECTION
  2
OBJECTS
  0
DICTIONARY
  5
C
330
0
100
AcDbDictionary
281
     1
  3
ACAD_COLOR
350
63
  3
ACAD_DETAILVIEWSTYLE
350
6A
  3
ACAD_GROUP
350
D
  3
ACAD_LAYOUT
350
62
  3
ACAD_MATERIAL
350
10
  3
ACAD_MLEADERSTYLE
350
66
  3
ACAD_MLINESTYLE
350
5F
  3
ACAD_PLOTSETTINGS
350
61
  3
ACAD_PLOTSTYLENAME
350
E
  3
ACAD_SCALELIST
350
42
  3
ACAD_SECTIONVIEWSTYLE
350
68
  3
ACAD_TABLESTYLE
350
64
  3
ACAD_VISUALSTYLE
350
29
  3
ACDB_RECOMPOSE_DATA
350
8F
  3
AcDbVariableDictionary
350
87
  0
DICTIONARY
  5
63
102
{ACAD_REACTORS
330
C
102
}
330
C
100
AcDbDictionary
281
     1
  0
DICTIONARY
  5
6A
102
{ACAD_REACTORS
330
C
102
}
330
C
100
AcDbDictionary
281
     1
  3
Imperial24
350
6B
  0
DICTIONARY
  5
D
102
{ACAD_REACTORS
330
C
102
}
330
C
100
AcDbDictionary
281
     1
  0
DICTIONARY
  5
62
102
{ACAD_REACTORS
330
C
102
}
330
C
100
AcDbDictionary
281
     1
  3
Layout1
350
6F
  3
Layout2
350
77
  3
Model
350
73
  0
DICTIONARY
  5
10
102
{ACAD_REACTORS
330
C
102
}
330
C
100
AcDbDictionary
281
     1
  3
ByBlock
350
19
  3
ByLayer
350
11
  3
Global
350
21
  0
DICTIONARY
  5
66
102
{ACAD_REACTORS
330
C
102
}
330
C
100
AcDbDictionary
281
     1
  3
Standard
350
67
  0
DICTIONARY
  5
5F
102
{ACAD_REACTORS
330
C
102
}
330
C
100
AcDbDictionary
281
     1
  3
Standard
350
60
  0
DICTIONARY
  5
61
102
{ACAD_REACTORS
330
C
102
}
330
C
100
AcDbDictionary
281
     1
  0
ACDBDICTIONARYWDFLT
  5
E
102
{ACAD_REACTORS
330
C
102
}
330
C
100
AcDbDictionary
281
     1
  3
Normal
350
F
100
AcDbDictionaryWithDefault
340
F
  0
DICTIONARY
  5
42
102
{ACAD_REACTORS
330
C
102
}
330
C
100
AcDbDictionary
281
     1
  3
A0
350
43
  3
A1
350
44
  3
A2
350
45
  3
A3
350
46
  3
A4
350
47
  3
A5
350
48
  3
A6
350
49
  3
A7
350
4A
  3
A8
350
4B
  3
A9
350
4C
  3
B0
350
4D
  3
B1
350
4E
  3
B2
350
4F
  3
B3
350
50
  3
B4
350
51
  3
B5
350
52
  3
B6
350
53
  0
DICTIONARY
  5
68
102
{ACAD_REACTORS
330
C
102
}
330
C
100
AcDbDictionary
281
     1
  3
Imperial24
350
69
  0
DICTIONARY
  5
64
102
{ACAD_REACTORS
330
C
102
}
330
C
100
AcDbDictionary
281
     1
  3
Standard
350
65
  0
DICTIONARY
  5
29
102
{ACAD_REACTORS
330
C
102
}
330
C
100
AcDbDictionary
281
     1
  3
2dWireframe
350
2F
  3
Basic
350
2E
  3
Brighten
350
35
  3
ColorChange
350
39
  3
Conceptual
350
32
  3
Dim
350
34
  3
EdgeColorOff
350
41
  3
Facepattern
350
38
  3
Flat
350
2A
  3
FlatWithEdges
350
2B
  3
Gouraud
350
2C
  3
GouraudWithEdges
350
2D
  3
Hidden
350
31
  3
JitterOff
350
3F
  3
Linepattern
350
37
  3
OverhangOff
350
40
  3
Realistic
350
33
  3
Shaded
350
3E
  3
Shaded with edges
350
3D
  3
Shades of Gray
350
3A
  3
Sketchy
350
3B
  3
Thicken
350
36
  3
Wireframe
350
30
  3
X-Ray
350
3C
  0
XRECORD
  5
8F
102
{ACAD_REACTORS
330
C
102
}
330
C
100
AcDbXrecord
280
     1
 90
        1
330
65
  0
DICTIONARY
  5
87
102
{ACAD_REACTORS
330
C
102
}
330
C
100
AcDbDictionary
281
     1
  3
CANNOSCALE
350
8C
  3
CMLEADERSTYLE
350
89
  3
CTABLESTYLE
350
88
  3
CVIEWDETAILSTYLE
350
8A
  3
CVIEWSECTIONSTYLE
350
8B
  0
ACDBDETAILVIEWSTYLE
  5
6B
102
{ACAD_REACTORS
330
6A
102
}
330
6A
100
AcDbModelDocViewStyle
 70
     0
  3
Imperial24
290
     1
300
Imperial24
 90
        0
100
AcDbDetailViewStyle
 70
     0
 71
     0
 90
        3
 71
     1
340
55
 62
   256
 40
0.24
340
0
 62
   256
 40
0.24
300

 40
0.36
280
     3
 71
     2
340
5D
 90
       25
 62
   256
 71
     3
340
55
 62
   256
 40
0.24
 90
        1
 40
0.75
 90
        1
300
%<\AcVar ViewType \f "%tc1">% %<\AcVar ViewDetailId>%\PSCALE %<\AcVar ViewScale \f "%sn">%
 71
     4
340
5D
 90
       25
 62
   256
340
5D
 90
       25
 62
   256
280
     0
  0
LAYOUT
  5
6F
102
{ACAD_REACTORS
330
62
102
}
330
62
100
AcDbPlotSettings
  1

  2

  4

  6

 40
0.0
 41
0.0
 42
0.0
 43
0.0
 44
0.0
 45
0.0
 46
0.0
 47
0.0
 48
0.0
 49
0.0
140
0.0
141
0.0
142
1.0
143
1.0
 70
   688
 72
     0
 73
     0
 74
     5
  7

 75
    16
147
1.0
 76
     0
 77
     2
 78
   300
148
0.0
149
0.0
100
AcDbLayout
  1
Layout1
 70
     1
 71
     1
 10
0.0
 20
0.0
 11
12.0
 21
9.0
 12
0.0
 22
0.0
 32
0.0
 14
0.0
 24
0.0
 34
0.0
 15
0.0
 25
0.0
 35
0.0
146
0.0
 13
0.0
 23
0.0
 33
0.0
 16
1.0
 26
0.0
 36
0.0
 17
0.0
 27
1.0
 37
0.0
 76
     0
330
6C
  0
LAYOUT
  5
77
102
{ACAD_REACTORS
330
62
102
}
330
62
100
AcDbPlotSettings
  1

  2

  4

  6

 40
0.0
 41
0.0
 42
0.0
 43
0.0
 44
0.0
 45
0.0
 46
0.0
 47
0.0
 48
0.0
 49
0.0
140
0.0
141
0.0
142
1.0
143
1.0
 70
   688
 72
     0
 73
     0
 74
     5
  7

 75
    16
147
1.0
 76
     0
 77
     2
 78
   300
148
0.0
149
0.0
100
AcDbLayout
  1
Layout2
 70
     1
 71
     2
 10
0.0
 20
0.0
 11
12.0
 21
9.0
 12
0.0
 22
0.0
 32
0.0
 14
0.0
 24
0.0
 34
0.0
 15
0.0
 25
0.0
 35
0.0
146
0.0
 13
0.0
 23
0.0
 33
0.0
 16
1.0
 26
0.0
 36
0.0
 17
0.0
 27
1.0
 37
0.0
 76
     0
330
74
  0
LAYOUT
  5
73
102
{ACAD_REACTORS
330
62
102
}
330
62
100
AcDbPlotSettings
  1

  2

  4

  6

 40
0.0
 41
0.0
 42
0.0
 43
0.0
 44
0.0
 45
0.0
 46
0.0
 47
0.0
 48
0.0
 49
0.0
140
0.0
141
0.0
142
1.0
143
1.0
 70
  1712
 72
     0
 73
     0
 74
     0
  7

 75
     0
147
1.0
 76
     0
 77
     2
 78
   300
148
0.0
149
0.0
100
AcDbLayout
  1
Model
 70
     1
 71
     0
 10
0.0
 20
0.0
 11
12.0
 21
9.0
 12
0.0
 22
0.0
 32
0.0
 14
0.0
 24
0.0
 34
0.0
 15
0.0
 25
0.0
 35
0.0
146
0.0
 13
0.0
 23
0.0
 33
0.0
 16
1.0
 26
0.0
 36
0.0
 17
0.0
 27
1.0
 37
0.0
 76
     0
330
70
  0
MATERIAL
  5
19
102
{ACAD_XDICTIONARY
360
1A
102
}
102
{ACAD_REACTORS
330
10
102
}
330
10
100
AcDbMaterial
  1
ByBlock
 72
     0
 43
0.0208333333333333
 43
0.0
 43
0.0
 43
0.0
 43
0.0
 43
0.0208333333333333
 43
0.0
 43
0.0
 43
0.0
 43
0.0
 43
1.0
 43
0.0
 43
0.0
 43
0.0
 43
0.0
 43
1.0
 77
     0
 47
0.0208333333333333
 47
0.0
 47
0.0
 47
0.0
 47
0.0
 47
0.0208333333333333
 47
0.0
 47
0.0
 47
0.0
 47
0.0
 47
1.0
 47
0.0
 47
0.0
 47
0.0
 47
0.0
 47
1.0
171
     0
 49
0.0208333333333333
 49
0.0
 49
0.0
 49
0.0
 49
0.0
 49
0.0208333333333333
 49
0.0
 49
0.0
 49
0.0
 49
0.0
 49
1.0
 49
0.0
 49
0.0
 49
0.0
 49
0.0
 49
1.0
175
     0
142
0.0208333333333333
142
0.0
142
0.0
142
0.0
142
0.0
142
0.0208333333333333
142
0.0
142
0.0
142
0.0
142
0.0
142
1.0
142
0.0
142
0.0
142
0.0
142
0.0
142
1.0
179
     0
144
0.0208333333333333
144
0.0
144
0.0
144
0.0
144
0.0
144
0.0208333333333333
144
0.0
144
0.0
144
0.0
144
0.0
144
1.0
144
0.0
144
0.0
144
0.0
144
0.0
144
1.0
147
0.0208333333333333
147
0.0
147
0.0
147
0.0
147
0.0
147
0.0208333333333333
147
0.0
147
0.0
147
0.0
147
0.0
147
1.0
147
0.0
147
0.0
147
0.0
147
0.0
147
1.0
  0
MATERIAL
  5
11
102
{ACAD_XDICTIONARY
360
12
102
}
102
{ACAD_REACTORS
330
10
102
}
330
10
100
AcDbMaterial
  1
ByLayer
 72
     0
 43
0.0208333333333333
 43
0.0
 43
0.0
 43
0.0
 43
0.0
 43
0.0208333333333333
 43
0.0
 43
0.0
 43
0.0
 43
0.0
 43
1.0
 43
0.0
 43
0.0
 43
0.0
 43
0.0
 43
1.0
 77
     0
 47
0.0208333333333333
 47
0.0
 47
0.0
 47
0.0
 47
0.0
 47
0.0208333333333333
 47
0.0
 47
0.0
 47
0.0
 47
0.0
 47
1.0
 47
0.0
 47
0.0
 47
0.0
 47
0.0
 47
1.0
171
     0
 49
0.0208333333333333
 49
0.0
 49
0.0
 49
0.0
 49
0.0
 49
0.0208333333333333
 49
0.0
 49
0.0
 49
0.0
 49
0.0
 49
1.0
 49
0.0
 49
0.0
 49
0.0
 49
0.0
 49
1.0
175
     0
142
0.0208333333333333
142
0.0
142
0.0
142
0.0
142
0.0
142
0.0208333333333333
142
0.0
142
0.0
142
0.0
142
0.0
142
1.0
142
0.0
142
0.0
142
0.0
142
0.0
142
1.0
179
     0
144
0.0208333333333333
144
0.0
144
0.0
144
0.0
144
0.0
144
0.0208333333333333
144
0.0
144
0.0
144
0.0
144
0.0
144
1.0
144
0.0
144
0.0
144
0.0
144
0.0
144
1.0
147
0.0208333333333333
147
0.0
147
0.0
147
0.0
147
0.0
147
0.0208333333333333
147
0.0
147
0.0
147
0.0
147
0.0
147
1.0
147
0.0
147
0.0
147
0.0
147
0.0
147
1.0
  0
MATERIAL
  5
21
102
{ACAD_XDICTIONARY
360
22
102
}
102
{ACAD_REACTORS
330
10
102
}
330
10
100
AcDbMaterial
  1
Global
 72
     0
 43
0.0208333333333333
 43
0.0
 43
0.0
 43
0.0
 43
0.0
 43
0.0208333333333333
 43
0.0
 43
0.0
 43
0.0
 43
0.0
 43
1.0
 43
0.0
 43
0.0
 43
0.0
 43
0.0
 43
1.0
 77
     0
 47
0.0208333333333333
 47
0.0
 47
0.0
 47
0.0
 47
0.0
 47
0.0208333333333333
 47
0.0
 47
0.0
 47
0.0
 47
0.0
 47
1.0
 47
0.0
 47
0.0
 47
0.0
 47
0.0
 47
1.0
171
     0
 49
0.0208333333333333
 49
0.0
 49
0.0
 49
0.0
 49
0.0
 49
0.0208333333333333
 49
0.0
 49
0.0
 49
0.0
 49
0.0
 49
1.0
 49
0.0
 49
0.0
 49
0.0
 49
0.0
 49
1.0
175
     0
142
0.0208333333333333
142
0.0
142
0.0
142
0.0
142
0.0
142
0.0208333333333333
142
0.0
142
0.0
142
0.0
142
0.0
142
1.0
142
0.0
142
0.0
142
0.0
142
0.0
142
1.0
179
     0
144
0.0208333333333333
144
0.0
144
0.0
144
0.0
144
0.0
144
0.0208333333333333
144
0.0
144
0.0
144
0.0
144
0.0
144
1.0
144
0.0
144
0.0
144
0.0
144
0.0
144
1.0
147
0.0208333333333333
147
0.0
147
0.0
147
0.0
147
0.0
147
0.0208333333333333
147
0.0
147
0.0
147
0.0
147
0.0
147
1.0
147
0.0
147
0.0
147
0.0
147
0.0
147
1.0
  0
MLEADERSTYLE
  5
67
102
{ACAD_REACTORS
330
66
102
}
330
66
100
AcDbMLeaderStyle
179
     2
170
     2
171
     1
172
     0
 90
        2
 40
0.0
 41
0.0
173
     1
 91
-1056964608
340
5B
 92
       -2
290
     1
 42
0.09
291
     1
 43
0.36
  3
Standard
 44
0.18
300

342
55
174
     1
178
     6
175
     1
176
     0
 93
-1056964608
 45
0.18
292
     0
297
     0
 46
0.18
 94
-1056964608
 47
1.0
 49
1.0
140
1.0
293
     1
141
0.0
294
     1
177
     0
142
1.0
295
     1
296
     0
143
0.125
271
     0
272
     9
273
     9
298
     1
  0
MLINESTYLE
  5
60
102
{ACAD_REACTORS
330
5F
102
}
330
5F
100
AcDbMlineStyle
  2
STANDARD
 70
     0
  3

 62
   256
 51
90.0
 52
90.0
 71
     2
 49
0.5
 62
   256
  6
BYLAYER
 49
-0.5
 62
   256
  6
BYLAYER
  0
ACDBPLACEHOLDER
  5
F
102
{ACAD_REACTORS
330
E
102
}
330
E
  0
SCALE
  5
43
102
{ACAD_REACTORS
330
42
102
}
330
42
100
AcDbScale
 70
     0
300
1:1
140
1.0
141
1.0
290
     1
  0
SCALE
  5
44
102
{ACAD_REACTORS
330
42
102
}
330
42
100
AcDbScale
 70
     0
300
1/128" = 1'-0"
140
0.0078125
141
12.0
290
     0
  0
SCALE
  5
45
102
{ACAD_REACTORS
330
42
102
}
330
42
100
AcDbScale
 70
     0
300
1/64" = 1'-0"
140
0.015625
141
12.0
290
     0
  0
SCALE
  5
46
102
{ACAD_REACTORS
330
42
102
}
330
42
100
AcDbScale
 70
     0
300
1/32" = 1'-0"
140
0.03125
141
12.0
290
     0
  0
SCALE
  5
47
102
{ACAD_REACTORS
330
42
102
}
330
42
100
AcDbScale
 70
     0
300
1/16" = 1'-0"
140
0.0625
141
12.0
290
     0
  0
SCALE
  5
48
102
{ACAD_REACTORS
330
42
102
}
330
42
100
AcDbScale
 70
     0
300
3/32" = 1'-0"
140
0.09375
141
12.0
290
     0
  0
SCALE
  5
49
102
{ACAD_REACTORS
330
42
102
}
330
42
100
AcDbScale
 70
     0
300
1/8" = 1'-0"
140
0.125
141
12.0
290
     0
  0
SCALE
  5
4A
102
{ACAD_REACTORS
330
42
102
}
330
42
100
AcDbScale
 70
     0
300
3/16" = 1'-0"
140
0.1875
141
12.0
290
     0
  0
SCALE
  5
4B
102
{ACAD_REACTORS
330
42
102
}
330
42
100
AcDbScale
 70
     0
300
1/4" = 1'-0"
140
0.25
141
12.0
290
     0
  0
SCALE
  5
4C
102
{ACAD_REACTORS
330
42
102
}
330
42
100
AcDbScale
 70
     0
300
3/8" = 1'-0"
140
0.375
141
12.0
290
     0
  0
SCALE
  5
4D
102
{ACAD_REACTORS
330
42
102
}
330
42
100
AcDbScale
 70
     0
300
1/2" = 1'-0"
140
0.5
141
12.0
290
     0
  0
SCALE
  5
4E
102
{ACAD_REACTORS
330
42
102
}
330
42
100
AcDbScale
 70
     0
300
3/4" = 1'-0"
140
0.75
141
12.0
290
     0
  0
SCALE
  5
4F
102
{ACAD_REACTORS
330
42
102
}
330
42
100
AcDbScale
 70
     0
300
1" = 1'-0"
140
1.0
141
12.0
290
     0
  0
SCALE
  5
50
102
{ACAD_REACTORS
330
42
102
}
330
42
100
AcDbScale
 70
     0
300
1-1/2" = 1'-0"
140
1.5
141
12.0
290
     0
  0
SCALE
  5
51
102
{ACAD_REACTORS
330
42
102
}
330
42
100
AcDbScale
 70
     0
300
3" = 1'-0"
140
3.0
141
12.0
290
     0
  0
SCALE
  5
52
102
{ACAD_REACTORS
330
42
102
}
330
42
100
AcDbScale
 70
     0
300
6" = 1'-0"
140
6.0
141
12.0
290
     0
  0
SCALE
  5
53
102
{ACAD_REACTORS
330
42
102
}
330
42
100
AcDbScale
 70
     0
300
1'-0" = 1'-0"
140
12.0
141
12.0
290
     0
  0
ACDBSECTIONVIEWSTYLE
  5
69
102
{ACAD_REACTORS
330
68
102
}
330
68
100
AcDbModelDocViewStyle
 70
     0
  3
Imperial24
290
     1
300
Imperial24
 90
        0
100
AcDbSectionViewStyle
 70
     0
 71
     0
 90
       78
 71
     1
340
55
 62
   256
 40
0.24
340
0
340
0
 62
   256
 40
0.24
300
I, O, Q, S, X, Z
 40
0.48
 90
        3
 40
0.18
 90
        1
 71
     2
340
5D
 90
       25
 62
   256
340
5D
 90
       50
 62
   256
 40
0.24
 40
0.0
 40
0.24
 71
     3
340
55
 62
   256
 40
0.24
 90
        1
 40
0.75
 90
        1
300
%<\AcVar ViewType \f "%tc1">% %<\AcVar ViewSectionStartId>%-%<\AcVar ViewSectionEndId>%\PSCALE %<\AcVar ViewScale \f "%sn">%
 71
     4
 62
   256
 62
   257
300
ANSI31
 40
1.0
 90
        0
290
     0
290
     0
 90
        6
 40
0.0
 40
1.570796326794896
 40
0.2617993877991494
 40
1.308996938995747
 40
-0.2617993877991494
 40
1.832595714594046
  0
TABLESTYLE
  5
65
102
{ACAD_XDICTIONARY
360
8D
102
}
102
{ACAD_REACTORS
330
64
102
}
330
64
100
AcDbTableStyle
280
     0
  3
Standard
 70
     0
 71
     0
 40
0.06
 41
0.06
280
     0
281
     0
  7
Standard
140
0.18
170
     2
 62
     0
 63
     7
283
     0
 90
      512
 91
        0
  1

274
    -2
284
     1
 64
     0
275
    -2
285
     1
 65
     0
276
    -2
286
     1
 66
     0
277
    -2
287
     1
 67
     0
278
    -2
288
     1
 68
     0
279
    -2
289
     1
 69
     0
  7
Standard
140
0.25
170
     5
 62
     0
 63
     7
283
     0
 90
      512
 91
        0
  1

274
    -2
284
     1
 64
     0
275
    -2
285
     1
 65
     0
276
    -2
286
     1
 66
     0
277
    -2
287
     1
 67
     0
278
    -2
288
     1
 68
     0
279
    -2
289
     1
 69
     0
  7
Standard
140
0.18
170
     5
 62
     0
 63
     7
283
     0
 90
      512
 91
        0
  1

274
    -2
284
     1
 64
     0
275
    -2
285
     1
 65
     0
276
    -2
286
     1
 66
     0
277
    -2
287
     1
 67
     0
278
    -2
288
     1
 68
     0
279
    -2
289
     1
 69
     0
  0
VISUALSTYLE
  5
2F
102
{ACAD_REACTORS
330
29
102
}
330
29
100
AcDbVisualStyle
  2
2dWireframe
 70
     4
177
     3
291
     0
 70
    58
 90
        0
176
     1
 90
        2
176
     1
 90
        0
176
     1
 90
        0
176
     1
 40
0.6
176
     1
 40
30.0
176
     1
 62
     7
420
 16777215
176
     1
 90
        1
176
     1
 90
        4
176
     1
 62
     7
176
     1
 62
   257
176
     1
 90
        1
176
     1
 90
        1
176
     1
 40
1.0
176
     1
 90
        0
176
     1
 62
   257
176
     1
 40
1.0
176
     1
 90
        1
176
     1
 90
        6
176
     1
 90
        2
176
     1
 62
     7
176
     1
 90
        5
176
     1
 90
        0
176
     1
 90
        0
176
     1
290
     0
176
     1
 90
        1
176
     1
 40
0.0
176
     1
 90
        0
176
     1
290
     1
176
     1
290
     1
176
     1
290
     0
176
     1
290
     0
176
     1
290
     0
176
     1
290
     0
176
     1
290
     0
176
     1
290
     0
176
     1
290
     0
176
     1
 90
       50
176
     1
 40
0.0
176
     1
 40
1.0
176
     1
 90
        0
176
     1
 62
    18
420
        0
176
     1
 90
       50
176
     1
 90
        3
176
     1
 62
     5
420
      255
176
     1
290
     0
176
     1
 90
       50
176
     1
 90
       50
176
     1
 90
       50
176
     1
290
     0
176
     1
 90
       50
176
     1
 62
   256
176
     0
 40
1.0
176
     0
 90
        2
176
     1
  1
strokes_ogs.tif
176
     1
290
     0
176
     1
 40
1.0
176
     1
 40
1.0
176
     1
  0
VISUALSTYLE
  5
2E
102
{ACAD_REACTORS
330
29
102
}
330
29
100
AcDbVisualStyle
  2
Basic
 70
     7
177
     3
291
     1
 70
    58
 90
        1
176
     1
 90
        0
176
     1
 90
        1
176
     1
 90
        0
176
     1
 40
0.6
176
     1
 40
30.0
176
     1
 62
     7
420
 16777215
176
     1
 90
        0
176
     1
 90
        4
176
     1
 62
     7
176
     1
 62
   257
176
     1
 90
        1
176
     1
 90
        1
176
     1
 40
1.0
176
     1
 90
        8
176
     1
 62
     7
176
     1
 40
1.0
176
     1
 90
        1
176
     1
 90
        6
176
     1
 90
        2
176
     1
 62
     7
176
     1
 90
        5
176
     1
 90
        0
176
     1
 90
        0
176
     1
290
     0
176
     1
 90
        1
176
     1
 40
0.0
176
     1
 90
        0
176
     1
290
     0
176
     1
290
     1
176
     1
290
     1
176
     1
290
     0
176
     1
290
     0
176
     1
290
     0
176
     1
290
     0
176
     1
290
     0
176
     1
290
     0
176
     1
 90
       50
176
     1
 40
0.0
176
     1
 40
1.0
176
     1
 90
        0
176
     1
 62
    18
420
        0
176
     1
 90
       50
176
     1
 90
        3
176
     1
 62
     5
420
      255
176
     1
290
     0
176
     1
 90
       50
176
     1
 90
       50
176
     1
 90
       50
176
     1
290
     0
176
     1
 90
       50
176
     1
 62
   256
176
     0
 40
1.0
176
     0
 90
        2
176
     1
  1
strokes_ogs.tif
176
     1
290
     0
176
     1
 40
1.0
176
     1
 40
1.0
176
     1
  0
VISUALSTYLE
  5
35
102
{ACAD_REACTORS
330
29
102
}
330
29
100
AcDbVisualStyle
  2
Brighten
 70
    12
177
     3
291
     1
 70
    58
 90
        2
176
     1
 90
        2
176
     1
 90
        0
176
     1
 90
        0
176
     1
 40
0.6
176
     1
 40
30.0
176
     1
 62
     7
420
 16777215
176
     1
 90
        1
176
     1
 90
        4
176
     1
 62
     7
176
     1
 62
   257
176
     1
 90
        1
176
     1
 90
        1
176
     1
 40
1.0
176
     1
 90
        8
176
     1
 62
     7
176
     1
 40
1.0
176
     1
 90
        1
176
     1
 90
        6
176
     1
 90
        2
176
     1
 62
     7
176
     1
 90
        5
176
     1
 90
        0
176
     1
 90
        0
176
     1
290
     0
176
     1
 90
        1
176
     1
 40
50.0
176
     1
 90
        0
176
     1
290
     0
176
     1
290
     1
176
     1
290
     1
176
     1
290
     0
176
     1
290
     0
176
     1
290
     0
176
     1
290
     0
176
     1
290
     0
176
     1
290
     0
176
     1
 90
       50
176
     1
 40
0.0
176
     1
 40
1.0
176
     1
 90
        0
176
     1
 62
    18
420
        0
176
     1
 90
       50
176
     1
 90
        3
176
     1
 62
     5
420
      255
176
     1
290
     0
176
     1
 90
       50
176
     1
 90
       50
176
     1
 90
       50
176
     1
290
     0
176
     1
 90
       50
176
     1
 62
   256
176
     0
 40
1.0
176
     0
 90
        2
176
     1
  1
strokes_ogs.tif
176
     1
290
     0
176
     1
 40
1.0
176
     1
 40
1.0
176
     1
  0
VISUALSTYLE
  5
39
102
{ACAD_REACTORS
330
29
102
}
330
29
100
AcDbVisualStyle
  2
ColorChange
 70
    16
177
     3
291
     1
 70
    58
 90
        2
176
     1
 90
        2
176
     1
 90
        3
176
     1
 90
        0
176
     1
 40
0.6
176
     1
 40
30.0
176
     1
 62
     8
420
  8421504
176
     1
 90
        1
176
     1
 90
        4
176
     1
 62
     7
176
     1
 62
   257
176
     1
 90
        1
176
     1
 90
        1
176
     1
 40
1.0
176
     1
 90
        8
176
     1
 62
     8
420
  8421504
176
     1
 40
1.0
176
     1
 90
        1
176
     1
 90
        6
176
     1
 90
        2
176
     1
 62
     7
176
     1
 90
        5
176
     1
 90
        0
176
     1
 90
        0
176
     1
290
     0
176
     1
 90
        1
176
     1
 40
0.0
176
     1
 90
        0
176
     1
290
     0
176
     1
290
     1
176
     1
290
     1
176
     1
290
     0
176
     1
290
     0
176
     1
290
     0
176
     1
290
     0
176
     1
290
     0
176
     1
290
     0
176
     1
 90
       50
176
     1
 40
0.0
176
     1
 40
1.0
176
     1
 90
        0
176
     1
 62
    18
420
        0
176
     1
 90
       50
176
     1
 90
        3
176
     1
 62
     5
420
      255
176
     1
290
     0
176
     1
 90
       50
176
     1
 90
       50
176
     1
 90
       50
176
     1
290
     0
176
     1
 90
       50
176
     1
 62
   256
176
     0
 40
1.0
176
     0
 90
        2
176
     1
  1
strokes_ogs.tif
176
     1
290
     0
176
     1
 40
1.0
176
     1
 40
1.0
176
     1
  0
VISUALSTYLE
  5
32
102
{ACAD_REACTORS
330
29
102
}
330
29
100
AcDbVisualStyle
  2
Conceptual
 70
     9
177
     3
291
     0
 70
    58
 90
        3
176
     1
 90
        2
176
     1
 90
        0
176
     1
 90
        0
176
     1
 40
0.6
176
     1
 40
30.0
176
     1
 62
     7
420
 16777215
176
     1
 90
        2
176
     1
 90
        2
176
     1
 62
     7
176
     1
 62
   257
176
     1
 90
        1
176
     1
 90
        1
176
     1
 40
179.0
176
     1
 90
        8
176
     1
 62
     7
176
     1
 40
1.0
176
     1
 90
        1
176
     1
 90
        6
176
     1
 90
        2
176
     1
 62
     7
176
     1
 90
        3
176
     1
 90
        0
176
     1
 90
        0
176
     1
290
     0
176
     1
 90
        1
176
     1
 40
0.0
176
     1
 90
        0
176
     1
290
     0
176
     1
290
     1
176
     1
290
     1
176
     1
290
     0
176
     1
290
     0
176
     1
290
     0
176
     1
290
     0
176
     1
290
     0
176
     1
290
     0
176
     1
 90
       50
176
     1
 40
0.0
176
     1
 40
1.0
176
     1
 90
        0
176
     1
 62
    18
420
        0
176
     1
 90
       50
176
     1
 90
        3
176
     1
 62
     5
420
      255
176
     1
290
     0
176
     1
 90
       50
176
     1
 90
       50
176
     1
 90
       50
176
     1
290
     0
176
     1
 90
       50
176
     1
 62
   256
176
     0
 40
1.0
176
     0
 90
        2
176
     1
  1
strokes_ogs.tif
176
     1
290
     0
176
     1
 40
1.0
176
     1
 40
1.0
176
     1
  0
VISUALSTYLE
  5
34
102
{ACAD_REACTORS
330
29
102
}
330
29
100
AcDbVisualStyle
  2
Dim
 70
    11
177
     3
291
     1
 70
    58
 90
        2
176
     1
 90
        2
176
     1
 90
        0
176
     1
 90
        0
176
     1
 40
0.6
176
     1
 40
30.0
176
     1
 62
     7
420
 16777215
176
     1
 90
        1
176
     1
 90
        4
176
     1
 62
     7
176
     1
 62
   257
176
     1
 90
        1
176
     1
 90
        1
176
     1
 40
1.0
176
     1
 90
        8
176
     1
 62
     7
176
     1
 40
1.0
176
     1
 90
        1
176
     1
 90
        6
176
     1
 90
        2
176
     1
 62
     7
176
     1
 90
        5
176
     1
 90
        0
176
     1
 90
        0
176
     1
290
     0
176
     1
 90
        1
176
     1
 40
-50.0
176
     1
 90
        0
176
     1
290
     0
176
     1
290
     1
176
     1
290
     1
176
     1
290
     0
176
     1
290
     0
176
     1
290
     0
176
     1
290
     0
176
     1
290
     0
176
     1
290
     0
176
     1
 90
       50
176
     1
 40
0.0
176
     1
 40
1.0
176
     1
 90
        0
176
     1
 62
    18
420
        0
176
     1
 90
       50
176
     1
 90
        3
176
     1
 62
     5
420
      255
176
     1
290
     0
176
     1
 90
       50
176
     1
 90
       50
176
     1
 90
       50
176
     1
290
     0
176
     1
 90
       50
176
     1
 62
   256
176
     0
 40
1.0
176
     0
 90
        2
176
     1
  1
strokes_ogs.tif
176
     1
290
     0
176
     1
 40
1.0
176
     1
 40
1.0
176
     1
  0
VISUALSTYLE
  5
41
102
{ACAD_REACTORS
330
29
102
}
330
29
100
AcDbVisualStyle
  2
EdgeColorOff
 70
    22
177
     3
291
     1
 70
    58
 90
        2
176
     0
 90
        2
176
     0
 90
        0
176
     0
 90
        0
176
     0
 40
0.6
176
     0
 40
30.0
176
     0
 62
     7
420
 16777215
176
     0
 90
        1
176
     0
 90
        4
176
     0
 62
     7
176
     0
 62
   257
176
     0
 90
        1
176
     0
 90
        1
176
     0
 40
1.0
176
     0
 90
        8
176
     2
 62
     7
176
     0
 40
1.0
176
     0
 90
        1
176
     0
 90
        6
176
     0
 90
        2
176
     0
 62
     7
176
     0
 90
        5
176
     0
 90
        0
176
     0
 90
        0
176
     0
290
     0
176
     0
 90
        1
176
     0
 40
0.0
176
     0
 90
        0
176
     0
290
     0
176
     0
290
     1
176
     0
290
     1
176
     0
290
     0
176
     0
290
     0
176
     0
290
     0
176
     0
290
     0
176
     0
290
     0
176
     0
290
     0
176
     0
 90
       50
176
     0
 40
0.0
176
     0
 40
1.0
176
     0
 90
        0
176
     0
 62
    18
420
        0
176
     0
 90
       50
176
     0
 90
        3
176
     0
 62
     5
420
      255
176
     0
290
     0
176
     0
 90
       50
176
     0
 90
       50
176
     0
 90
       50
176
     0
290
     0
176
     0
 90
       50
176
     0
 62
   256
176
     0
 40
1.0
176
     0
 90
        2
176
     0
  1
strokes_ogs.tif
176
     0
290
     0
176
     0
 40
1.0
176
     0
 40
1.0
176
     0
  0
VISUALSTYLE
  5
38
102
{ACAD_REACTORS
330
29
102
}
330
29
100
AcDbVisualStyle
  2
Facepattern
 70
    15
177
     3
291
     1
 70
    58
 90
        2
176
     1
 90
        2
176
     1
 90
        0
176
     1
 90
        0
176
     1
 40
0.6
176
     1
 40
30.0
176
     1
 62
     7
420
 16777215
176
     1
 90
        1
176
     1
 90
        4
176
     1
 62
     7
176
     1
 62
   257
176
     1
 90
        1
176
     1
 90
        1
176
     1
 40
1.0
176
     1
 90
        8
176
     1
 62
     7
176
     1
 40
1.0
176
     1
 90
        1
176
     1
 90
        6
176
     1
 90
        2
176
     1
 62
     7
176
     1
 90
        5
176
     1
 90
        0
176
     1
 90
        0
176
     1
290
     0
176
     1
 90
        1
176
     1
 40
0.0
176
     1
 90
        0
176
     1
290
     0
176
     1
290
     1
176
     1
290
     1
176
     1
290
     0
176
     1
290
     0
176
     1
290
     0
176
     1
290
     0
176
     1
290
     0
176
     1
290
     0
176
     1
 90
       50
176
     1
 40
0.0
176
     1
 40
1.0
176
     1
 90
        0
176
     1
 62
    18
420
        0
176
     1
 90
       50
176
     1
 90
        3
176
     1
 62
     5
420
      255
176
     1
290
     0
176
     1
 90
       50
176
     1
 90
       50
176
     1
 90
       50
176
     1
290
     0
176
     1
 90
       50
176
     1
 62
   256
176
     0
 40
1.0
176
     0
 90
        2
176
     1
  1
strokes_ogs.tif
176
     1
290
     0
176
     1
 40
1.0
176
     1
 40
1.0
176
     1
  0
VISUALSTYLE
  5
2A
102
{ACAD_REACTORS
330
29
102
}
330
29
100
AcDbVisualStyle
  2
Flat
 70
     0
177
     3
291
     1
 70
    58
 90
        2
176
     1
 90
        1
176
     1
 90
        1
176
     1
 90
        2
176
     1
 40
0.6
176
     1
 40
30.0
176
     1
 62
     7
420
 16777215
176
     1
 90
        0
176
     1
 90
        0
176
     1
 62
     7
176
     1
 62
   257
176
     1
 90
        1
176
     1
 90
        1
176
     1
 40
1.0
176
     1
 90
        8
176
     1
 62
     7
176
     1
 40
1.0
176
     1
 90
        1
176
     1
 90
        6
176
     1
 90
        2
176
     1
 62
     7
176
     1
 90
        5
176
     1
 90
        0
176
     1
 90
        0
176
     1
290
     0
176
     1
 90
       13
176
     1
 40
0.0
176
     1
 90
        0
176
     1
290
     0
176
     1
290
     1
176
     1
290
     1
176
     1
290
     0
176
     1
290
     0
176
     1
290
     0
176
     1
290
     0
176
     1
290
     0
176
     1
290
     0
176
     1
 90
       50
176
     1
 40
0.0
176
     1
 40
1.0
176
     1
 90
        0
176
     1
 62
    18
420
        0
176
     1
 90
       50
176
     1
 90
        3
176
     1
 62
     5
420
      255
176
     1
290
     0
176
     1
 90
       50
176
     1
 90
       50
176
     1
 90
       50
176
     1
290
     0
176
     1
 90
       50
176
     1
 62
   256
176
     0
 40
1.0
176
     0
 90
        2
176
     1
  1
strokes_ogs.tif
176
     1
290
     0
176
     1
 40
1.0
176
     1
 40
1.0
176
     1
  0
VISUALSTYLE
  5
2B
102
{ACAD_REACTORS
330
29
102
}
330
29
100
AcDbVisualStyle
  2
FlatWithEdges
 70
     1
177
     3
291
     1
 70
    58
 90
        2
176
     1
 90
        1
176
     1
 90
        1
176
     1
 90
        2
176
     1
 40
0.6
176
     1
 40
30.0
176
     1
 62
     7
420
 16777215
176
     1
 90
        1
176
     1
 90
        0
176
     1
 62
     7
176
     1
 62
   257
176
     1
 90
        1
176
     1
 90
        1
176
     1
 40
1.0
176
     1
 90
        0
176
     1
 62
   257
176
     1
 40
1.0
176
     1
 90
        1
176
     1
 90
        6
176
     1
 90
        2
176
     1
 62
     7
176
     1
 90
        5
176
     1
 90
        0
176
     1
 90
        0
176
     1
290
     0
176
     1
 90
       13
176
     1
 40
0.0
176
     1
 90
        0
176
     1
290
     0
176
     1
290
     1
176
     1
290
     1
176
     1
290
     0
176
     1
290
     0
176
     1
290
     0
176
     1
290
     0
176
     1
290
     0
176
     1
290
     0
176
     1
 90
       50
176
     1
 40
0.0
176
     1
 40
1.0
176
     1
 90
        0
176
     1
 62
    18
420
        0
176
     1
 90
       50
176
     1
 90
        3
176
     1
 62
     5
420
      255
176
     1
290
     0
176
     1
 90
       50
176
     1
 90
       50
176
     1
 90
       50
176
     1
290
     0
176
     1
 90
       50
176
     1
 62
   256
176
     0
 40
1.0
176
     0
 90
        2
176
     1
  1
strokes_ogs.tif
176
     1
290
     0
176
     1
 40
1.0
176
     1
 40
1.0
176
     1
  0
VISUALSTYLE
  5
2C
102
{ACAD_REACTORS
330
29
102
}
330
29
100
AcDbVisualStyle
  2
Gouraud
 70
     2
177
     3
291
     1
 70
    58
 90
        2
176
     1
 90
        2
176
     1
 90
        1
176
     1
 90
        2
176
     1
 40
0.6
176
     1
 40
30.0
176
     1
 62
     7
420
 16777215
176
     1
 90
        0
176
     1
 90
        0
176
     1
 62
     7
176
     1
 62
   257
176
     1
 90
        1
176
     1
 90
        1
176
     1
 40
1.0
176
     1
 90
        0
176
     1
 62
     7
176
     1
 40
1.0
176
     1
 90
        1
176
     1
 90
        6
176
     1
 90
        2
176
     1
 62
     7
176
     1
 90
        5
176
     1
 90
        0
176
     1
 90
        0
176
     1
290
     0
176
     1
 90
       13
176
     1
 40
0.0
176
     1
 90
        0
176
     1
290
     0
176
     1
290
     1
176
     1
290
     1
176
     1
290
     0
176
     1
290
     0
176
     1
290
     0
176
     1
290
     0
176
     1
290
     0
176
     1
290
     0
176
     1
 90
       50
176
     1
 40
0.0
176
     1
 40
1.0
176
     1
 90
        0
176
     1
 62
    18
420
        0
176
     1
 90
       50
176
     1
 90
        3
176
     1
 62
     5
420
      255
176
     1
290
     0
176
     1
 90
       50
176
     1
 90
       50
176
     1
 90
       50
176
     1
290
     0
176
     1
 90
       50
176
     1
 62
   256
176
     0
 40
1.0
176
     0
 90
        2
176
     1
  1
strokes_ogs.tif
176
     1
290
     0
176
     1
 40
1.0
176
     1
 40
1.0
176
     1
  0
VISUALSTYLE
  5
2D
102
{ACAD_REACTORS
330
29
102
}
330
29
100
AcDbVisualStyle
  2
GouraudWithEdges
 70
     3
177
     3
291
     1
 70
    58
 90
        2
176
     1
 90
        2
176
     1
 90
        1
176
     1
 90
        2
176
     1
 40
0.6
176
     1
 40
30.0
176
     1
 62
     7
420
 16777215
176
     1
 90
        1
176
     1
 90
        0
176
     1
 62
     7
176
     1
 62
   257
176
     1
 90
        1
176
     1
 90
        1
176
     1
 40
1.0
176
     1
 90
        0
176
     1
 62
   257
176
     1
 40
1.0
176
     1
 90
        1
176
     1
 90
        6
176
     1
 90
        2
176
     1
 62
     7
176
     1
 90
        5
176
     1
 90
        0
176
     1
 90
        0
176
     1
290
     0
176
     1
 90
       13
176
     1
 40
0.0
176
     1
 90
        0
176
     1
290
     0
176
     1
290
     1
176
     1
290
     1
176
     1
290
     0
176
     1
290
     0
176
     1
290
     0
176
     1
290
     0
176
     1
290
     0
176
     1
290
     0
176
     1
 90
       50
176
     1
 40
0.0
176
     1
 40
1.0
176
     1
 90
        0
176
     1
 62
    18
420
        0
176
     1
 90
       50
176
     1
 90
        3
176
     1
 62
     5
420
      255
176
     1
290
     0
176
     1
 90
       50
176
     1
 90
       50
176
     1
 90
       50
176
     1
290
     0
176
     1
 90
       50
176
     1
 62
   256
176
     0
 40
1.0
176
     0
 90
        2
176
     1
  1
strokes_ogs.tif
176
     1
290
     0
176
     1
 40
1.0
176
     1
 40
1.0
176
     1
  0
VISUALSTYLE
  5
31
102
{ACAD_REACTORS
330
29
102
}
330
29
100
AcDbVisualStyle
  2
Hidden
 70
     6
177
     3
291
     0
 70
    58
 90
        1
176
     1
 90
        2
176
     1
 90
        2
176
     1
 90
        0
176
     1
 40
0.6
176
     1
 40
30.0
176
     1
 62
     7
420
 16777215
176
     1
 90
        2
176
     1
 90
        2
176
     1
 62
     7
176
     1
 62
   257
176
     1
 90
        2
176
     1
 90
        1
176
     1
 40
40.0
176
     1
 90
        0
176
     1
 62
   257
176
     1
 40
1.0
176
     1
 90
        1
176
     1
 90
        6
176
     1
 90
        2
176
     1
 62
     7
176
     1
 90
        3
176
     1
 90
        0
176
     1
 90
        0
176
     1
290
     0
176
     1
 90
        1
176
     1
 40
0.0
176
     1
 90
        0
176
     1
290
     0
176
     1
290
     1
176
     1
290
     1
176
     1
290
     0
176
     1
290
     0
176
     1
290
     0
176
     1
290
     0
176
     1
290
     0
176
     1
290
     0
176
     1
 90
       50
176
     1
 40
0.0
176
     1
 40
1.0
176
     1
 90
        0
176
     1
 62
    18
420
        0
176
     1
 90
       50
176
     1
 90
        3
176
     1
 62
     5
420
      255
176
     1
290
     0
176
     1
 90
       50
176
     1
 90
       50
176
     1
 90
       50
176
     1
290
     0
176
     1
 90
       50
176
     1
 62
   256
176
     0
 40
1.0
176
     0
 90
        2
176
     1
  1
strokes_ogs.tif
176
     1
290
     0
176
     1
 40
1.0
176
     1
 40
1.0
176
     1
  0
VISUALSTYLE
  5
3F
102
{ACAD_REACTORS
330
29
102
}
330
29
100
AcDbVisualStyle
  2
JitterOff
 70
    20
177
     3
291
     1
 70
    58
 90
        2
176
     0
 90
        2
176
     0
 90
        0
176
     0
 90
        0
176
     0
 40
0.6
176
     0
 40
30.0
176
     0
 62
     7
420
 16777215
176
     0
 90
        1
176
     0
 90
        4
176
     0
 62
     7
176
     0
 62
   257
176
     0
 90
        1
176
     0
 90
        1
176
     0
 40
1.0
176
     0
 90
       10
176
     2
 62
     7
176
     0
 40
1.0
176
     0
 90
        1
176
     0
 90
        6
176
     0
 90
        2
176
     0
 62
     7
176
     0
 90
        5
176
     0
 90
        0
176
     0
 90
        0
176
     0
290
     0
176
     0
 90
        1
176
     0
 40
0.0
176
     0
 90
        0
176
     0
290
     0
176
     0
290
     1
176
     0
290
     1
176
     0
290
     0
176
     0
290
     0
176
     0
290
     0
176
     0
290
     0
176
     0
290
     0
176
     0
290
     0
176
     0
 90
       50
176
     0
 40
0.0
176
     0
 40
1.0
176
     0
 90
        0
176
     0
 62
    18
420
        0
176
     0
 90
       50
176
     0
 90
        3
176
     0
 62
     5
420
      255
176
     0
290
     0
176
     0
 90
       50
176
     0
 90
       50
176
     0
 90
       50
176
     0
290
     0
176
     0
 90
       50
176
     0
 62
   256
176
     0
 40
1.0
176
     0
 90
        2
176
     0
  1
strokes_ogs.tif
176
     0
290
     0
176
     0
 40
1.0
176
     0
 40
1.0
176
     0
  0
VISUALSTYLE
  5
37
102
{ACAD_REACTORS
330
29
102
}
330
29
100
AcDbVisualStyle
  2
Linepattern
 70
    14
177
     3
291
     1
 70
    58
 90
        2
176
     1
 90
        2
176
     1
 90
        0
176
     1
 90
        0
176
     1
 40
0.6
176
     1
 40
30.0
176
     1
 62
     7
420
 16777215
176
     1
 90
        1
176
     1
 90
        4
176
     1
 62
     7
176
     1
 62
   257
176
     1
 90
        7
176
     1
 90
        7
176
     1
 40
1.0
176
     1
 90
        8
176
     1
 62
     7
176
     1
 40
1.0
176
     1
 90
        1
176
     1
 90
        6
176
     1
 90
        2
176
     1
 62
     7
176
     1
 90
        5
176
     1
 90
        0
176
     1
 90
        0
176
     1
290
     0
176
     1
 90
        1
176
     1
 40
0.0
176
     1
 90
        0
176
     1
290
     0
176
     1
290
     1
176
     1
290
     1
176
     1
290
     0
176
     1
290
     0
176
     1
290
     0
176
     1
290
     0
176
     1
290
     0
176
     1
290
     0
176
     1
 90
       50
176
     1
 40
0.0
176
     1
 40
1.0
176
     1
 90
        0
176
     1
 62
    18
420
        0
176
     1
 90
       50
176
     1
 90
        3
176
     1
 62
     5
420
      255
176
     1
290
     0
176
     1
 90
       50
176
     1
 90
       50
176
     1
 90
       50
176
     1
290
     0
176
     1
 90
       50
176
     1
 62
   256
176
     0
 40
1.0
176
     0
 90
        2
176
     1
  1
strokes_ogs.tif
176
     1
290
     0
176
     1
 40
1.0
176
     1
 40
1.0
176
     1
  0
VISUALSTYLE
  5
40
102
{ACAD_REACTORS
330
29
102
}
330
29
100
AcDbVisualStyle
  2
OverhangOff
 70
    21
177
     3
291
     1
 70
    58
 90
        2
176
     0
 90
        2
176
     0
 90
        0
176
     0
 90
        0
176
     0
 40
0.6
176
     0
 40
30.0
176
     0
 62
     7
420
 16777215
176
     0
 90
        1
176
     0
 90
        4
176
     0
 62
     7
176
     0
 62
   257
176
     0
 90
        1
176
     0
 90
        1
176
     0
 40
1.0
176
     0
 90
        9
176
     2
 62
     7
176
     0
 40
1.0
176
     0
 90
        1
176
     0
 90
        6
176
     0
 90
        2
176
     0
 62
     7
176
     0
 90
        5
176
     0
 90
        0
176
     0
 90
        0
176
     0
290
     0
176
     0
 90
        1
176
     0
 40
0.0
176
     0
 90
        0
176
     0
290
     0
176
     0
290
     1
176
     0
290
     1
176
     0
290
     0
176
     0
290
     0
176
     0
290
     0
176
     0
290
     0
176
     0
290
     0
176
     0
290
     0
176
     0
 90
       50
176
     0
 40
0.0
176
     0
 40
1.0
176
     0
 90
        0
176
     0
 62
    18
420
        0
176
     0
 90
       50
176
     0
 90
        3
176
     0
 62
     5
420
      255
176
     0
290
     0
176
     0
 90
       50
176
     0
 90
       50
176
     0
 90
       50
176
     0
290
     0
176
     0
 90
       50
176
     0
 62
   256
176
     0
 40
1.0
176
     0
 90
        2
176
     0
  1
strokes_ogs.tif
176
     0
290
     0
176
     0
 40
1.0
176
     0
 40
1.0
176
     0
  0
VISUALSTYLE
  5
33
102
{ACAD_REACTORS
330
29
102
}
330
29
100
AcDbVisualStyle
  2
Realistic
 70
     8
177
     3
291
     0
 70
    58
 90
        2
176
     1
 90
        3
176
     1
 90
        0
176
     1
 90
        2
176
     1
 40
0.6
176
     1
 40
30.0
176
     1
 62
     7
420
 16777215
176
     1
 90
        0
176
     1
 90
        0
176
     1
 62
     7
176
     1
 62
   257
176
     1
 90
        1
176
     1
 90
        1
176
     1
 40
1.0
176
     1
 90
        8
176
     1
 62
   257
176
     1
 40
1.0
176
     1
 90
        1
176
     1
 90
        6
176
     1
 90
        2
176
     1
 62
     7
176
     1
 90
        3
176
     1
 90
        0
176
     1
 90
        0
176
     1
290
     0
176
     1
 90
       13
176
     1
 40
0.0
176
     1
 90
        0
176
     1
290
     0
176
     1
290
     1
176
     1
290
     1
176
     1
290
     0
176
     1
290
     0
176
     1
290
     0
176
     1
290
     0
176
     1
290
     0
176
     1
290
     0
176
     1
 90
       50
176
     1
 40
0.0
176
     1
 40
1.0
176
     1
 90
        0
176
     1
 62
    18
420
        0
176
     1
 90
       50
176
     1
 90
        3
176
     1
 62
     5
420
      255
176
     1
290
     0
176
     1
 90
       50
176
     1
 90
       50
176
     1
 90
       50
176
     1
290
     0
176
     1
 90
       50
176
     1
 62
   256
176
     0
 40
1.0
176
     0
 90
        2
176
     1
  1
strokes_ogs.tif
176
     1
290
     0
176
     1
 40
1.0
176
     1
 40
1.0
176
     1
  0
VISUALSTYLE
  5
3E
102
{ACAD_REACTORS
330
29
102
}
330
29
100
AcDbVisualStyle
  2
Shaded
 70
    27
177
     3
291
     0
 70
    58
 90
        2
176
     1
 90
        2
176
     1
 90
        1
176
     1
 90
        2
176
     1
 40
0.6
176
     1
 40
30.0
176
     1
 62
     7
420
 16777215
176
     1
 90
        0
176
     1
 90
        4
176
     1
 62
     7
176
     1
 62
   257
176
     1
 90
        1
176
     1
 90
        1
176
     1
 40
1.0
176
     1
 90
        8
176
     1
 62
   257
176
     1
 40
1.0
176
     1
 90
        1
176
     1
 90
        6
176
     1
 90
        2
176
     1
 62
     8
420
  7895160
176
     1
 90
        3
176
     1
 90
        0
176
     1
 90
        0
176
     1
290
     0
176
     1
 90
        5
176
     1
 40
0.0
176
     1
 90
        0
176
     1
290
     0
176
     1
290
     1
176
     1
290
     1
176
     1
290
     0
176
     1
290
     0
176
     1
290
     0
176
     1
290
     0
176
     1
290
     0
176
     1
290
     0
176
     1
 90
       50
176
     1
 40
0.0
176
     1
 40
1.0
176
     1
 90
        0
176
     1
 62
    18
420
        0
176
     1
 90
       50
176
     1
 90
        3
176
     1
 62
     5
420
      255
176
     1
290
     0
176
     1
 90
       50
176
     1
 90
       50
176
     1
 90
       50
176
     1
290
     0
176
     1
 90
       50
176
     1
 62
   256
176
     0
 40
1.0
176
     0
 90
        2
176
     1
  1
strokes_ogs.tif
176
     1
290
     0
176
     1
 40
1.0
176
     1
 40
1.0
176
     1
  0
VISUALSTYLE
  5
3D
102
{ACAD_REACTORS
330
29
102
}
330
29
100
AcDbVisualStyle
  2
Shaded with edges
 70
    26
177
     3
291
     0
 70
    58
 90
        2
176
     1
 90
        2
176
     1
 90
        1
176
     1
 90
        2
176
     1
 40
0.6
176
     1
 40
30.0
176
     1
 62
     7
420
 16777215
176
     1
 90
        1
176
     1
 90
        2
176
     1
 62
     7
176
     1
 62
   257
176
     1
 90
        2
176
     1
 90
        1
176
     1
 40
1.0
176
     1
 90
        8
176
     1
 62
   257
176
     1
 40
1.0
176
     1
 90
        1
176
     1
 90
        6
176
     1
 90
        2
176
     1
 62
     7
176
     1
 90
        3
176
     1
 90
        0
176
     1
 90
        0
176
     1
290
     0
176
     1
 90
        5
176
     1
 40
0.0
176
     1
 90
        0
176
     1
290
     0
176
     1
290
     1
176
     1
290
     1
176
     1
290
     0
176
     1
290
     0
176
     1
290
     0
176
     1
290
     0
176
     1
290
     0
176
     1
290
     0
176
     1
 90
       50
176
     1
 40
0.0
176
     1
 40
1.0
176
     1
 90
        0
176
     1
 62
    18
420
        0
176
     1
 90
       50
176
     1
 90
        3
176
     1
 62
     5
420
      255
176
     1
290
     0
176
     1
 90
       50
176
     1
 90
       50
176
     1
 90
       50
176
     1
290
     0
176
     1
 90
       50
176
     1
 62
   256
176
     0
 40
1.0
176
     0
 90
        2
176
     1
  1
strokes_ogs.tif
176
     1
290
     0
176
     1
 40
1.0
176
     1
 40
1.0
176
     1
  0
VISUALSTYLE
  5
3A
102
{ACAD_REACTORS
330
29
102
}
330
29
100
AcDbVisualStyle
  2
Shades of Gray
 70
    23
177
     3
291
     0
 70
    58
 90
        2
176
     1
 90
        2
176
     1
 90
        3
176
     1
 90
        0
176
     1
 40
0.6
176
     1
 40
30.0
176
     1
 62
     7
420
 16777215
176
     1
 90
        2
176
     1
 90
        2
176
     1
 62
     7
176
     1
 62
     7
176
     1
 90
        1
176
     1
 90
        1
176
     1
 40
40.0
176
     1
 90
        8
176
     1
 62
     7
176
     1
 40
1.0
176
     1
 90
        1
176
     1
 90
        6
176
     1
 90
        2
176
     1
 62
     7
176
     1
 90
        3
176
     1
 90
        0
176
     1
 90
        0
176
     1
290
     0
176
     1
 90
        1
176
     1
 40
0.0
176
     1
 90
        0
176
     1
290
     0
176
     1
290
     1
176
     1
290
     1
176
     1
290
     0
176
     1
290
     0
176
     1
290
     0
176
     1
290
     0
176
     1
290
     0
176
     1
290
     0
176
     1
 90
       50
176
     1
 40
0.0
176
     1
 40
1.0
176
     1
 90
        0
176
     1
 62
    18
420
        0
176
     1
 90
       50
176
     1
 90
        3
176
     1
 62
     5
420
      255
176
     1
290
     0
176
     1
 90
       50
176
     1
 90
       50
176
     1
 90
       50
176
     1
290
     0
176
     1
 90
       50
176
     1
 62
   256
176
     0
 40
1.0
176
     0
 90
        2
176
     1
  1
strokes_ogs.tif
176
     1
290
     0
176
     1
 40
1.0
176
     1
 40
1.0
176
     1
  0
VISUALSTYLE
  5
3B
102
{ACAD_REACTORS
330
29
102
}
330
29
100
AcDbVisualStyle
  2
Sketchy
 70
    24
177
     3
291
     0
 70
    58
 90
        1
176
     1
 90
        2
176
     1
 90
        2
176
     1
 90
        0
176
     1
 40
0.6
176
     1
 40
30.0
176
     1
 62
     7
420
 16777215
176
     1
 90
        2
176
     1
 90
        2
176
     1
 62
     7
176
     1
 62
     7
176
     1
 90
        1
176
     1
 90
        1
176
     1
 40
40.0
176
     1
 90
       11
176
     1
 62
     7
176
     1
 40
1.0
176
     1
 90
        1
176
     1
 90
        6
176
     1
 90
        2
176
     1
 62
     7
176
     1
 90
        6
176
     1
 90
        0
176
     1
 90
        0
176
     1
290
     0
176
     1
 90
        1
176
     1
 40
0.0
176
     1
 90
        0
176
     1
290
     0
176
     1
290
     1
176
     1
290
     1
176
     1
290
     0
176
     1
290
     0
176
     1
290
     0
176
     1
290
     0
176
     1
290
     0
176
     1
290
     0
176
     1
 90
       50
176
     1
 40
0.0
176
     1
 40
1.0
176
     1
 90
        0
176
     1
 62
    18
420
        0
176
     1
 90
       50
176
     1
 90
        3
176
     1
 62
     5
420
      255
176
     1
290
     0
176
     1
 90
       50
176
     1
 90
       50
176
     1
 90
       50
176
     1
290
     0
176
     1
 90
       50
176
     1
 62
   256
176
     0
 40
1.0
176
     0
 90
        2
176
     1
  1
strokes_ogs.tif
176
     1
290
     0
176
     1
 40
1.0
176
     1
 40
1.0
176
     1
  0
VISUALSTYLE
  5
36
102
{ACAD_REACTORS
330
29
102
}
330
29
100
AcDbVisualStyle
  2
Thicken
 70
    13
177
     3
291
     1
 70
    58
 90
        2
176
     1
 90
        2
176
     1
 90
        0
176
     1
 90
        0
176
     1
 40
0.6
176
     1
 40
30.0
176
     1
 62
     7
420
 16777215
176
     1
 90
        1
176
     1
 90
        4
176
     1
 62
     7
176
     1
 62
   257
176
     1
 90
        1
176
     1
 90
        1
176
     1
 40
1.0
176
     1
 90
       12
176
     1
 62
     7
176
     1
 40
1.0
176
     1
 90
        1
176
     1
 90
        6
176
     1
 90
        2
176
     1
 62
     7
176
     1
 90
        5
176
     1
 90
        0
176
     1
 90
        0
176
     1
290
     0
176
     1
 90
        1
176
     1
 40
0.0
176
     1
 90
        0
176
     1
290
     0
176
     1
290
     1
176
     1
290
     1
176
     1
290
     0
176
     1
290
     0
176
     1
290
     0
176
     1
290
     0
176
     1
290
     0
176
     1
290
     0
176
     1
 90
       50
176
     1
 40
0.0
176
     1
 40
1.0
176
     1
 90
        0
176
     1
 62
    18
420
        0
176
     1
 90
       50
176
     1
 90
        3
176
     1
 62
     5
420
      255
176
     1
290
     0
176
     1
 90
       50
176
     1
 90
       50
176
     1
 90
       50
176
     1
290
     0
176
     1
 90
       50
176
     1
 62
   256
176
     0
 40
1.0
176
     0
 90
        2
176
     1
  1
strokes_ogs.tif
176
     1
290
     0
176
     1
 40
1.0
176
     1
 40
1.0
176
     1
  0
VISUALSTYLE
  5
30
102
{ACAD_REACTORS
330
29
102
}
330
29
100
AcDbVisualStyle
  2
Wireframe
 70
     5
177
     3
291
     0
 70
    58
 90
        0
176
     1
 90
        2
176
     1
 90
        0
176
     1
 90
        0
176
     1
 40
0.6
176
     1
 40
30.0
176
     1
 62
     7
420
 16777215
176
     1
 90
        1
176
     1
 90
        4
176
     1
 62
     7
176
     1
 62
   257
176
     1
 90
        1
176
     1
 90
        1
176
     1
 40
1.0
176
     1
 90
        0
176
     1
 62
   257
176
     1
 40
1.0
176
     1
 90
        1
176
     1
 90
        6
176
     1
 90
        2
176
     1
 62
     7
176
     1
 90
        3
176
     1
 90
        0
176
     1
 90
        0
176
     1
290
     0
176
     1
 90
        1
176
     1
 40
0.0
176
     1
 90
        0
176
     1
290
     0
176
     1
290
     1
176
     1
290
     1
176
     1
290
     0
176
     1
290
     0
176
     1
290
     0
176
     1
290
     0
176
     1
290
     0
176
     1
290
     0
176
     1
 90
       50
176
     1
 40
0.0
176
     1
 40
1.0
176
     1
 90
        0
176
     1
 62
    18
420
        0
176
     1
 90
       50
176
     1
 90
        3
176
     1
 62
     5
420
      255
176
     1
290
     0
176
     1
 90
       50
176
     1
 90
       50
176
     1
 90
       50
176
     1
290
     0
176
     1
 90
       50
176
     1
 62
   256
176
     0
 40
1.0
176
     0
 90
        2
176
     1
  1
strokes_ogs.tif
176
     1
290
     0
176
     1
 40
1.0
176
     1
 40
1.0
176
     1
  0
VISUALSTYLE
  5
3C
102
{ACAD_REACTORS
330
29
102
}
330
29
100
AcDbVisualStyle
  2
X-Ray
 70
    25
177
     3
291
     0
 70
    58
 90
        2
176
     1
 90
        2
176
     1
 90
        1
176
     1
 90
        1
176
     1
 40
0.5
176
     1
 40
30.0
176
     1
 62
     7
420
 16777215
176
     1
 90
        1
176
     1
 90
        0
176
     1
 62
     7
176
     1
 62
   257
176
     1
 90
        1
176
     1
 90
        1
176
     1
 40
1.0
176
     1
 90
        8
176
     1
 62
     7
176
     1
 40
1.0
176
     1
 90
        1
176
     1
 90
        6
176
     1
 90
        2
176
     1
 62
     7
176
     1
 90
        3
176
     1
 90
        0
176
     1
 90
        0
176
     1
290
     0
176
     1
 90
       13
176
     1
 40
0.0
176
     1
 90
        0
176
     1
290
     0
176
     1
290
     1
176
     1
290
     1
176
     1
290
     0
176
     1
290
     0
176
     1
290
     0
176
     1
290
     0
176
     1
290
     0
176
     1
290
     0
176
     1
 90
       50
176
     1
 40
0.0
176
     1
 40
1.0
176
     1
 90
        0
176
     1
 62
    18
420
        0
176
     1
 90
       50
176
     1
 90
        3
176
     1
 62
     5
420
      255
176
     1
290
     0
176
     1
 90
       50
176
     1
 90
       50
176
     1
 90
       50
176
     1
290
     0
176
     1
 90
       50
176
     1
 62
   256
176
     0
 40
1.0
176
     0
 90
        2
176
     1
  1
strokes_ogs.tif
176
     1
290
     0
176
     1
 40
1.0
176
     1
 40
1.0
176
     1
  0
DICTIONARYVAR
  5
8C
102
{ACAD_REACTORS
330
87
102
}
330
87
100
DictionaryVariables
280
     0
  1
1:1
  0
DICTIONARYVAR
  5
89
102
{ACAD_REACTORS
330
87
102
}
330
87
100
DictionaryVariables
280
     0
  1
STANDARD
  0
DICTIONARYVAR
  5
88
102
{ACAD_REACTORS
330
87
102
}
330
87
100
DictionaryVariables
280
     0
  1
STANDARD
  0
DICTIONARYVAR
  5
8A
102
{ACAD_REACTORS
330
87
102
}
330
87
100
DictionaryVariables
280
     0
  1
Imperial24
  0
DICTIONARYVAR
  5
8B
102
{ACAD_REACTORS
330
87
102
}
330
87
100
DictionaryVariables
280
     0
  1
Imperial24
  0
DICTIONARY
  5
1A
330
19
100
AcDbDictionary
280
     1
281
     1
  3
BUMPTILE
360
1C
  3
DIFFUSETILE
360
1B
  3
OPACITYTILE
360
1F
  3
REFLECTIONTILE
360
1E
  3
REFRACTIONTILE
360
20
  3
SPECULARTILE
360
1D
  0
DICTIONARY
  5
12
330
11
100
AcDbDictionary
280
     1
281
     1
  3
BUMPTILE
360
14
  3
DIFFUSETILE
360
13
  3
OPACITYTILE
360
17
  3
REFLECTIONTILE
360
16
  3
REFRACTIONTILE
360
18
  3
SPECULARTILE
360
15
  0
DICTIONARY
  5
22
330
21
100
AcDbDictionary
280
     1
281
     1
  3
BUMPTILE
360
24
  3
DIFFUSETILE
360
23
  3
OPACITYTILE
360
27
  3
REFLECTIONTILE
360
26
  3
REFRACTIONTILE
360
28
  3
SPECULARTILE
360
25
  0
DICTIONARY
  5
8D
330
65
100
AcDbDictionary
280
     1
281
     1
  3
ACAD_ROUNDTRIP_2008_TABLESTYLE_CELLSTYLEMAP
360
8E
  0
XRECORD
  5
1C
102
{ACAD_REACTORS
330
1A
102
}
330
1A
100
AcDbXrecord
280
     1
270
     1
271
     1
  0
XRECORD
  5
1B
102
{ACAD_REACTORS
330
1A
102
}
330
1A
100
AcDbXrecord
280
     1
270
     1
271
     1
  0
XRECORD
  5
1F
102
{ACAD_REACTORS
330
1A
102
}
330
1A
100
AcDbXrecord
280
     1
270
     1
271
     1
  0
XRECORD
  5
1E
102
{ACAD_REACTORS
330
1A
102
}
330
1A
100
AcDbXrecord
280
     1
270
     1
271
     1
  0
XRECORD
  5
20
102
{ACAD_REACTORS
330
1A
102
}
330
1A
100
AcDbXrecord
280
     1
270
     1
271
     1
  0
XRECORD
  5
1D
102
{ACAD_REACTORS
330
1A
102
}
330
1A
100
AcDbXrecord
280
     1
270
     1
271
     1
  0
XRECORD
  5
14
102
{ACAD_REACTORS
330
12
102
}
330
12
100
AcDbXrecord
280
     1
270
     1
271
     1
  0
XRECORD
  5
13
102
{ACAD_REACTORS
330
12
102
}
330
12
100
AcDbXrecord
280
     1
270
     1
271
     1
  0
XRECORD
  5
17
102
{ACAD_REACTORS
330
12
102
}
330
12
100
AcDbXrecord
280
     1
270
     1
271
     1
  0
XRECORD
  5
16
102
{ACAD_REACTORS
330
12
102
}
330
12
100
AcDbXrecord
280
     1
270
     1
271
     1
  0
XRECORD
  5
18
102
{ACAD_REACTORS
330
12
102
}
330
12
100
AcDbXrecord
280
     1
270
     1
271
     1
  0
XRECORD
  5
15
102
{ACAD_REACTORS
330
12
102
}
330
12
100
AcDbXrecord
280
     1
270
     1
271
     1
  0
XRECORD
  5
24
102
{ACAD_REACTORS
330
22
102
}
330
22
100
AcDbXrecord
280
     1
270
     1
271
     1
  0
XRECORD
  5
23
102
{ACAD_REACTORS
330
22
102
}
330
22
100
AcDbXrecord
280
     1
270
     1
271
     1
  0
XRECORD
  5
27
102
{ACAD_REACTORS
330
22
102
}
330
22
100
AcDbXrecord
280
     1
270
     1
271
     1
  0
XRECORD
  5
26
102
{ACAD_REACTORS
330
22
102
}
330
22
100
AcDbXrecord
280
     1
270
     1
271
     1
  0
XRECORD
  5
28
102
{ACAD_REACTORS
330
22
102
}
330
22
100
AcDbXrecord
280
     1
270
     1
271
     1
  0
XRECORD
  5
25
102
{ACAD_REACTORS
330
22
102
}
330
22
100
AcDbXrecord
280
     1
270
     1
271
     1
  0
CELLSTYLEMAP
  5
8E
102
{ACAD_REACTORS
330
8D
102
}
330
8D
100
AcDbCellStyleMap
 90
        3
300
CELLSTYLE
  1
TABLEFORMAT_BEGIN
 90
        5
170
     1
 91
        0
 92
    32768
 62
   257
 93
        1
300
CONTENTFORMAT
  1
CONTENTFORMAT_BEGIN
 90
        0
 91
        0
 92
      512
 93
        0
300

 40
0.0
140
1.0
 94
        5
 62
     0
340
55
144
0.25
309
CONTENTFORMAT_END
171
     0
 94
        0
309
TABLEFORMAT_END
  1
CELLSTYLE_BEGIN
 90
        1
 91
        1
300
_TITLE
309
CELLSTYLE_END
300
CELLSTYLE
  1
TABLEFORMAT_BEGIN
 90
        5
170
     1
 91
        0
 92
        0
 62
   257
 93
        1
300
CONTENTFORMAT
  1
CONTENTFORMAT_BEGIN
 90
        0
 91
        0
 92
      512
 93
        0
300

 40
0.0
140
1.0
 94
        5
 62
     0
340
55
144
0.18
309
CONTENTFORMAT_END
171
     0
 94
        0
309
TABLEFORMAT_END
  1
CELLSTYLE_BEGIN
 90
        2
 91
        1
300
_HEADER
309
CELLSTYLE_END
300
CELLSTYLE
  1
TABLEFORMAT_BEGIN
 90
        5
170
     1
 91
        0
 92
        0
 62
   257
 93
        1
300
CONTENTFORMAT
  1
CONTENTFORMAT_BEGIN
 90
        0
 91
        0
 92
      512
 93
        0
300

 40
0.0
140
1.0
 94
        2
 62
     0
340
55
144
0.18
309
CONTENTFORMAT_END
171
     0
 94
        0
309
TABLEFORMAT_END
  1
CELLSTYLE_BEGIN
 90
        3
 91
        2
300
_DATA
309
CELLSTYLE_END
  0
ENDSEC
  0
EOF
