  0
SECTION
  2
HEADER
  9
$ACADVER
  1
AC1032
  9
$ACADMAINTVER
 90
      251
  9
$DWGCODEPAGE
  3
ANSI_1252
  9
$REQUIREDVERSIONS
160
                 0
  9
$INSBASE
 10
0.0
 20
0.0
 30
0.0
  9
$EXTMIN
 10
1.000000000000000E+20
 20
1.000000000000000E+20
 30
1.000000000000000E+20
  9
$EXTMAX
 10
-1.000000000000000E+20
 20
-1.000000000000000E+20
 30
-1.000000000000000E+20
  9
$LIMMIN
 10
0.0
 20
0.0
  9
$LIMMAX
 10
12.0
 20
9.0
  9
$ORTHOMODE
 70
     0
  9
$REGENMODE
 70
     1
  9
$FILLMODE
 70
     1
  9
$QTEXTMODE
 70
     0
  9
$MIRRTEXT
 70
     0
  9
$LTSCALE
 40
1.0
  9
$ATTMODE
 70
     1
  9
$TEXTSIZE
 40
0.2
  9
$TRACEWID
 40
0.05
  9
$TEXTSTYLE
  7
Standard
  9
$CLAYER
  8
0
  9
$CELTYPE
  6
ByLayer
  9
$CECOLOR
 62
   256
  9
$CELTSCALE
 40
1.0
  9
$DISPSILH
 70
     0
  9
$DIMSCALE
 40
1.0
  9
$DIMASZ
 40
0.18
  9
$DIMEXO
 40
0.0625
  9
$DIMDLI
 40
0.38
  9
$DIMRND
 40
0.0
  9
$DIMDLE
 40
0.0
  9
$DIMEXE
 40
0.18
  9
$DIMTP
 40
0.0
  9
$DIMTM
 40
0.0
  9
$DIMTXT
 40
0.18
  9
$DIMCEN
 40
0.09
  9
$DIMTSZ
 40
0.0
  9
$DIMTOL
 70
     0
  9
$DIMLIM
 70
     0
  9
$DIMTIH
 70
     1
  9
$DIMTOH
 70
     1
  9
$DIMSE1
 70
     0
  9
$DIMSE2
 70
     0
  9
$DIMTAD
 70
     0
  9
$DIMZIN
 70
     0
  9
$DIMBLK
  1

  9
$DIMASO
 70
     1
  9
$DIMSHO
 70
     1
  9
$DIMPOST
  1

  9
$DIMAPOST
  1

  9
$DIMALT
 70
     0
  9
$DIMALTD
 70
     2
  9
$DIMALTF
 40
25.4
  9
$DIMLFAC
 40
1.0
  9
$DIMTOFL
 70
     0
  9
$DIMTVP
 40
0.0
  9
$DIMTIX
 70
     0
  9
$DIMSOXD
 70
     0
  9
$DIMSAH
 70
     0
  9
$DIMBLK1
  1

  9
$DIMBLK2
  1

  9
$DIMSTYLE
  2
Standard
  9
$DIMCLRD
 70
     0
  9
$DIMCLRE
 70
     0
  9
$DIMCLRT
 70
     0
  9
$DIMTFAC
 40
1.0
  9
$DIMGAP
 40
0.09
  9
$DIMJUST
 70
     0
  9
$DIMSD1
 70
     0
  9
$DIMSD2
 70
     0
  9
$DIMTOLJ
 70
     1
  9
$DIMTZIN
 70
     0
  9
$DIMALTZ
 70
     0
  9
$DIMALTTZ
 70
     0
  9
$DIMUPT
 70
     0
  9
$DIMDEC
 70
     4
  9
$DIMTDEC
 70
     4
  9
$DIMALTU
 70
     2
  9
$DIMALTTD
 70
     2
  9
$DIMTXSTY
  7
Standard
  9
$DIMAUNIT
 70
     0
  9
$DIMADEC
 70
     0
  9
$DIMALTRND
 40
0.0
  9
$DIMAZIN
 70
     0
  9
$DIMDSEP
 70
    46
  9
$DIMATFIT
 70
     3
  9
$DIMFRAC
 70
     0
  9
$DIMLDRBLK
  1

  9
$DIMLUNIT
 70
     2
  9
$DIMLWD
 70
    -2
  9
$DIMLWE
 70
    -2
  9
$DIMTMOVE
 70
     0
  9
$DIMFXL
 40
1.0
  9
$DIMFXLON
 70
     0
  9
$DIMJOGANG
 40
0.7853981633974483
  9
$DIMTFILL
 70
     0
  9
$DIMTFILLCLR
 70
     0
  9
$DIMARCSYM
 70
     0
  9
$DIMLTYPE
  6

  9
$DIMLTEX1
  6

  9
$DIMLTEX2
  6

  9
$DIMTXTDIRECTION
 70
     0
  9
$LUNITS
 70
     2
  9
$LUPREC
 70
     4
  9
$SKETCHINC
 40
0.1
  9
$FILLETRAD
 40
0.0
  9
$AUNITS
 70
     0
  9
$AUPREC
 70
     0
  9
$MENU
  1
.
  9
$ELEVATION
 40
0.0
  9
$PELEVATION
 40
0.0
  9
$THICKNESS
 40
0.0
  9
$LIMCHECK
 70
     0
  9
$CHAMFERA
 40
0.0
  9
$CHAMFERB
 40
0.0
  9
$CHAMFERC
 40
0.0
  9
$CHAMFERD
 40
0.0
  9
$SKPOLY
 70
     0
  9
$TDCREATE
 40
2459870.487418982
  9
$TDUCREATE
 40
2459870.404085648
  9
$TDUPDATE
 40
2459870.487418982
  9
$TDUUPDATE
 40
2459870.404085648
  9
$TDINDWG
 40
0.0000000000
  9
$TDUSRTIMER
 40
0.0000000000
  9
$USRTIMER
 70
     1
  9
$ANGBASE
 50
0.0
  9
$ANGDIR
 70
     0
  9
$PDMODE
 70
     0
  9
$PDSIZE
 40
0.0
  9
$PLINEWID
 40
0.0
  9
$SPLFRAME
 70
     0
  9
$SPLINETYPE
 70
     6
  9
$SPLINESEGS
 70
     8
  9
$HANDSEED
  5
AB
  9
$SURFTAB1
 70
     6
  9
$SURFTAB2
 70
     6
  9
$SURFTYPE
 70
     6
  9
$SURFU
 70
     6
  9
$SURFV
 70
     6
  9
$UCSBASE
  2

  9
$UCSNAME
  2

  9
$UCSORG
 10
0.0
 20
0.0
 30
0.0
  9
$UCSXDIR
 10
1.0
 20
0.0
 30
0.0
  9
$UCSYDIR
 10
0.0
 20
1.0
 30
0.0
  9
$UCSORTHOREF
  2

  9
$UCSORTHOVIEW
 70
     0
  9
$UCSORGTOP
 10
0.0
 20
0.0
 30
0.0
  9
$UCSORGBOTTOM
 10
0.0
 20
0.0
 30
0.0
  9
$UCSORGLEFT
 10
0.0
 20
0.0
 30
0.0
  9
$UCSORGRIGHT
 10
0.0
 20
0.0
 30
0.0
  9
$UCSORGFRONT
 10
0.0
 20
0.0
 30
0.0
  9
$UCSORGBACK
 10
0.0
 20
0.0
 30
0.0
  9
$PUCSBASE
  2

  9
$PUCSNAME
  2

  9
$PUCSORG
 10
0.0
 20
0.0
 30
0.0
  9
$PUCSXDIR
 10
1.0
 20
0.0
 30
0.0
  9
$PUCSYDIR
 10
0.0
 20
1.0
 30
0.0
  9
$PUCSORTHOREF
  2

  9
$PUCSORTHOVIEW
 70
     0
  9
$PUCSORGTOP
 10
0.0
 20
0.0
 30
0.0
  9
$PUCSORGBOTTOM
 10
0.0
 20
0.0
 30
0.0
  9
$PUCSORGLEFT
 10
0.0
 20
0.0
 30
0.0
  9
$PUCSORGRIGHT
 10
0.0
 20
0.0
 30
0.0
  9
$PUCSORGFRONT
 10
0.0
 20
0.0
 30
0.0
  9
$PUCSORGBACK
 10
0.0
 20
0.0
 30
0.0
  9
$USERI1
 70
     0
  9
$USERI2
 70
     0
  9
$USERI3
 70
     0
  9
$USERI4
 70
     0
  9
$USERI5
 70
     0
  9
$USERR1
 40
0.0
  9
$USERR2
 40
0.0
  9
$USERR3
 40
0.0
  9
$USERR4
 40
0.0
  9
$USERR5
 40
0.0
  9
$WORLDVIEW
 70
     1
  9
$SHADEDGE
 70
     3
  9
$SHADEDIF
 70
    70
  9
$TILEMODE
 70
     1
  9
$MAXACTVP
 70
    64
  9
$PINSBASE
 10
0.0
 20
0.0
 30
0.0
  9
$PLIMCHECK
 70
     0
  9
$PEXTMIN
 10
1.000000000000000E+20
 20
1.000000000000000E+20
 30
1.000000000000000E+20
  9
$PEXTMAX
 10
-1.000000000000000E+20
 20
-1.000000000000000E+20
 30
-1.000000000000000E+20
  9
$PLIMMIN
 10
0.0
 20
0.0
  9
$PLIMMAX
 10
12.0
 20
9.0
  9
$UNITMODE
 70
     0
  9
$VISRETAIN
 70
     1
  9
$PLINEGEN
 70
     0
  9
$PSLTSCALE
 70
     1
  9
$TREEDEPTH
 70
  3020
  9
$CMLSTYLE
  2
Standard
  9
$CMLJUST
 70
     0
  9
$CMLSCALE
 40
1.0
  9
$PROXYGRAPHICS
 70
     1
  9
$MEASUREMENT
 70
     0
  9
$CELWEIGHT
370
    -1
  9
$ENDCAPS
280
     0
  9
$JOINSTYLE
280
     0
  9
$LWDISPLAY
290
     1
  9
$INSUNITS
 70
     4
  9
$HYPERLINKBASE
  1

  9
$STYLESHEET
  1

  9
$XEDIT
290
     1
  9
$CEPSNTYPE
380
     0
  9
$PSTYLEMODE
290
     1
  9
$FINGERPRINTGUID
  2
{0A648F0B-45FA-1948-B884-4649049DA96B}
  9
$VERSIONGUID
  2
{F29B1D8A-40B7-9549-86BD-F7B8CAD5CE26}
  9
$EXTNAMES
290
     1
  9
$PSVPSCALE
 40
0.0
  9
$OLESTARTUP
290
     0
  9
$SORTENTS
280
   127
  9
$INDEXCTL
280
     0
  9
$HIDETEXT
280
     1
  9
$XCLIPFRAME
280
     2
  9
$HALOGAP
280
     0
  9
$OBSCOLOR
 70
   257
  9
$OBSLTYPE
280
     0
  9
$INTERSECTIONDISPLAY
280
     0
  9
$INTERSECTIONCOLOR
 70
   257
  9
$DIMASSOC
280
     2
  9
$PROJECTNAME
  1

  9
$CAMERADISPLAY
290
     0
  9
$LENSLENGTH
 40
50.0
  9
$CAMERAHEIGHT
 40
0.0
  9
$STEPSPERSEC
 40
2.0
  9
$STEPSIZE
 40
6.0
  9
$3DDWFPREC
 40
2.0
  9
$PSOLWIDTH
 40
0.25
  9
$PSOLHEIGHT
 40
4.0
  9
$LOFTANG1
 40
1.570796326794896
  9
$LOFTANG2
 40
1.570796326794896
  9
$LOFTMAG1
 40
0.0
  9
$LOFTMAG2
 40
0.0
  9
$LOFTPARAM
 70
     7
  9
$LOFTNORMALS
280
     1
  9
$LATITUDE
 40
37.795
  9
$LONGITUDE
 40
-122.394
  9
$NORTHDIRECTION
 40
0.0
  9
$TIMEZONE
 70
 -8000
  9
$LIGHTGLYPHDISPLAY
280
     1
  9
$TILEMODELIGHTSYNCH
280
     1
  9
$CMATERIAL
347
11
  9
$SOLIDHIST
280
     0
  9
$SHOWHIST
280
     1
  9
$DWFFRAME
280
     2
  9
$DGNFRAME
280
     0
  9
$REALWORLDSCALE
290
     1
  9
$INTERFERECOLOR
 62
     1
  9
$INTERFEREOBJVS
345
33
  9
$INTERFEREVPVS
346
30
  9
$CSHADOW
280
     0
  9
$SHADOWPLANELOCATION
 40
0.0
  0
ENDSEC
  0
SECTION
  2
CLASSES
  0
CLASS
  1
ACDBDICTIONARYWDFLT
  2
AcDbDictionaryWithDefault
  3
ObjectDBX Classes
 90
        0
 91
        1
280
     0
281
     0
  0
CLASS
  1
MATERIAL
  2
AcDbMaterial
  3
ObjectDBX Classes
 90
     1153
 91
        3
280
     0
281
     0
  0
CLASS
  1
VISUALSTYLE
  2
AcDbVisualStyle
  3
ObjectDBX Classes
 90
     4095
 91
       24
280
     0
281
     0
  0
CLASS
  1
SCALE
  2
AcDbScale
  3
ObjectDBX Classes
 90
     1153
 91
       17
280
     0
281
     0
  0
CLASS
  1
TABLESTYLE
  2
AcDbTableStyle
  3
ObjectDBX Classes
 90
     4095
 91
        1
280
     0
281
     0
  0
CLASS
  1
MLEADERSTYLE
  2
AcDbMLeaderStyle
  3
ACDB_MLEADERSTYLE_CLASS
 90
     4095
 91
        1
280
     0
281
     0
  0
CLASS
  1
ACDBSECTIONVIEWSTYLE
  2
AcDbSectionViewStyle
  3
ObjectDBX Classes
 90
     1025
 91
        1
280
     0
281
     0
  0
CLASS
  1
ACDBDETAILVIEWSTYLE
  2
AcDbDetailViewStyle
  3
ObjectDBX Classes
 90
     1025
 91
        1
280
     0
281
     0
  0
CLASS
  1
DICTIONARYVAR
  2
AcDbDictionaryVar
  3
ObjectDBX Classes
 90
        0
 91
        5
280
     0
281
     0
  0
CLASS
  1
CELLSTYLEMAP
  2
AcDbCellStyleMap
  3
ObjectDBX Classes
 90
     1152
 91
        1
280
     0
281
     0
  0
ENDSEC
  0
SECTION
  2
TABLES
  0
TABLE
  2
VPORT
  5
8
330
0
100
AcDbSymbolTable
 70
     1
  0
VPORT
  5
57
330
8
100
AcDbSymbolTableRecord
100
AcDbViewportTableRecord
  2
*Active
 70
     0
 10
0.0
 20
0.0
 11
1.0
 21
1.0
 12
0.0
 22
0.0
 13
0.0
 23
0.0
 14
1.0
 24
1.0
 15
0.0
 25
0.0
 16
0.0
 26
0.0
 36
1.0
 17
240.7708332731407
 27
-123.1439907189969
 37
0.0
 40
3831.455257912579
 41
0.4044943923274643
 42
50.0
 43
0.0
 44
0.0
 50
0.0
 51
0.0
 71
     0
 72
   100
 73
     1
 74
     1
 75
     0
 76
     0
 77
     0
 78
     0
281
     0
 65
     1
110
0.0
120
0.0
130
0.0
111
1.0
121
0.0
131
0.0
112
0.0
122
1.0
132
0.0
 79
     0
146
0.0
 60
     3
 61
     5
292
     1
282
     1
141
0.0
142
0.0
 63
   250
421
  3355443
  0
ENDTAB
  0
TABLE
  2
LTYPE
  5
5
330
0
100
AcDbSymbolTable
 70
     1
  0
LTYPE
  5
5B
330
5
100
AcDbSymbolTableRecord
100
AcDbLinetypeTableRecord
  2
ByBlock
 70
     0
  3

 72
    65
 73
     0
 40
0.0
  0
LTYPE
  5
5C
330
5
100
AcDbSymbolTableRecord
100
AcDbLinetypeTableRecord
  2
ByLayer
 70
     0
  3

 72
    65
 73
     0
 40
0.0
  0
LTYPE
  5
5D
330
5
100
AcDbSymbolTableRecord
100
AcDbLinetypeTableRecord
  2
Continuous
 70
     0
  3
Solid line
 72
    65
 73
     0
 40
0.0
  0
ENDTAB
  0
TABLE
  2
LAYER
  5
2
330
0
100
AcDbSymbolTable
 70
    20
  0
LAYER
  5
54
330
2
100
AcDbSymbolTableRecord
100
AcDbLayerTableRecord
  2
0
 70
     0
 62
     7
  6
Continuous
370
    -3
390
F
347
21
348
0
  0
LAYER
  5
78
330
2
100
AcDbSymbolTableRecord
100
AcDbLayerTableRecord
  2
Guides
 70
     1
 62
     7
  6
Continuous
370
     0
390
F
347
21
348
0
  0
LAYER
  5
79
330
2
100
AcDbSymbolTableRecord
100
AcDbLayerTableRecord
  2
Bounding Box
 70
     0
 62
     7
  6
Continuous
370
     0
390
F
347
21
348
0
  0
LAYER
  5
7B
330
2
100
AcDbSymbolTableRecord
100
AcDbLayerTableRecord
  2
10-2022-053
 70
     1
 62
     7
  6
Continuous
370
     0
390
F
347
21
348
0
  0
LAYER
  5
7C
330
2
100
AcDbSymbolTableRecord
100
AcDbLayerTableRecord
  2
08-2022-052
 70
     1
 62
     7
  6
Continuous
370
     0
390
F
347
21
348
0
  0
LAYER
  5
7D
330
2
100
AcDbSymbolTableRecord
100
AcDbLayerTableRecord
  2
03-2022-051
 70
     1
 62
     7
  6
Continuous
370
     0
390
F
347
21
348
0
  0
LAYER
  5
7E
330
2
100
AcDbSymbolTableRecord
100
AcDbLayerTableRecord
  2
14-2022-045
 70
     0
 62
     7
  6
Continuous
370
     0
390
F
347
21
348
0
  0
LAYER
  5
8D
330
2
100
AcDbSymbolTableRecord
100
AcDbLayerTableRecord
  2
12-2022-044
 70
     1
 62
     7
  6
Continuous
370
     0
390
F
347
21
348
0
  0
LAYER
  5
8E
330
2
100
AcDbSymbolTableRecord
100
AcDbLayerTableRecord
  2
11-2022-042
 70
     1
 62
     7
  6
Continuous
370
     0
390
F
347
21
348
0
  0
LAYER
  5
8F
330
2
100
AcDbSymbolTableRecord
100
AcDbLayerTableRecord
  2
10-2022-041
 70
     1
 62
     7
  6
Continuous
370
     0
390
F
347
21
348
0
  0
LAYER
  5
90
330
2
100
AcDbSymbolTableRecord
100
AcDbLayerTableRecord
  2
09-2022-040
 70
     1
 62
     7
  6
Continuous
370
     0
390
F
347
21
348
0
  0
LAYER
  5
91
330
2
100
AcDbSymbolTableRecord
100
AcDbLayerTableRecord
  2
08-2022-039
 70
     1
 62
     7
  6
Continuous
370
     0
390
F
347
21
348
0
  0
LAYER
  5
92
330
2
100
AcDbSymbolTableRecord
100
AcDbLayerTableRecord
  2
07-2022-038
 70
     1
 62
     7
  6
Continuous
370
     0
390
F
347
21
348
0
  0
LAYER
  5
93
330
2
100
AcDbSymbolTableRecord
100
AcDbLayerTableRecord
  2
06-2022-037
 70
     1
 62
     7
  6
Continuous
370
     0
390
F
347
21
348
0
  0
LAYER
  5
94
330
2
100
AcDbSymbolTableRecord
100
AcDbLayerTableRecord
  2
05-2022-036
 70
     1
 62
     7
  6
Continuous
370
     0
390
F
347
21
348
0
  0
LAYER
  5
95
330
2
100
AcDbSymbolTableRecord
100
AcDbLayerTableRecord
  2
04-2022-035
 70
     1
 62
     7
  6
Continuous
370
     0
390
F
347
21
348
0
  0
LAYER
  5
96
330
2
100
AcDbSymbolTableRecord
100
AcDbLayerTableRecord
  2
03-2022-034
 70
     1
 62
     7
  6
Continuous
370
     0
390
F
347
21
348
0
  0
LAYER
  5
97
330
2
100
AcDbSymbolTableRecord
100
AcDbLayerTableRecord
  2
02-2022-033
 70
     1
 62
     7
  6
Continuous
370
     0
390
F
347
21
348
0
  0
LAYER
  5
98
330
2
100
AcDbSymbolTableRecord
100
AcDbLayerTableRecord
  2
01-2022-032
 70
     1
 62
     7
  6
Continuous
370
     0
390
F
347
21
348
0
  0
LAYER
  5
99
330
2
100
AcDbSymbolTableRecord
100
AcDbLayerTableRecord
  2
Screws
 70
     0
 62
     7
  6
Continuous
370
     0
390
F
347
21
348
0
  0
ENDTAB
  0
TABLE
  2
STYLE
  5
3
330
0
100
AcDbSymbolTable
 70
     2
  0
STYLE
  5
55
330
3
100
AcDbSymbolTableRecord
100
AcDbTextStyleTableRecord
  2
Standard
 70
     0
 40
0.0
 41
1.0
 50
0.0
 71
     0
 42
0.2
  3
txt
  4

  0
STYLE
  5
5A
330
3
100
AcDbSymbolTableRecord
100
AcDbTextStyleTableRecord
  2
Annotative
 70
     0
 40
0.0
 41
1.0
 50
0.0
 71
     0
 42
0.2
  3
txt
  4

1001
AcadAnnotative
1000
AnnotativeData
1002
{
1070
     1
1070
     1
1002
}
  0
ENDTAB
  0
TABLE
  2
VIEW
  5
6
330
0
100
AcDbSymbolTable
 70
     0
  0
ENDTAB
  0
TABLE
  2
UCS
  5
7
330
0
100
AcDbSymbolTable
 70
     0
  0
ENDTAB
  0
TABLE
  2
APPID
  5
9
330
0
100
AcDbSymbolTable
 70
     2
  0
APPID
  5
56
330
9
100
AcDbSymbolTableRecord
100
AcDbRegAppTableRecord
  2
ACAD
 70
     0
  0
APPID
  5
5E
330
9
100
AcDbSymbolTableRecord
100
AcDbRegAppTableRecord
  2
AcadAnnotative
 70
     0
  0
ENDTAB
  0
TABLE
  2
DIMSTYLE
  5
A
330
0
100
AcDbSymbolTable
 70
     2
100
AcDbDimStyleTable
 71
     0
  0
DIMSTYLE
105
58
330
A
100
AcDbSymbolTableRecord
100
AcDbDimStyleTableRecord
  2
Standard
 70
     0
340
55
  0
DIMSTYLE
105
59
330
A
100
AcDbSymbolTableRecord
100
AcDbDimStyleTableRecord
  2
Annotative
 70
     0
340
55
1001
AcadAnnotative
1000
AnnotativeData
1002
{
1070
     1
1070
     1
1002
}
  0
ENDTAB
  0
TABLE
  2
BLOCK_RECORD
  5
1
330
0
100
AcDbSymbolTable
 70
     1
  0
BLOCK_RECORD
  5
70
330
1
100
AcDbSymbolTableRecord
100
AcDbBlockTableRecord
  2
*Model_Space
340
73
 70
     0
280
     1
281
     0
  0
BLOCK_RECORD
  5
6C
330
1
100
AcDbSymbolTableRecord
100
AcDbBlockTableRecord
  2
*Paper_Space
340
6F
 70
     0
280
     1
281
     0
  0
BLOCK_RECORD
  5
74
330
1
100
AcDbSymbolTableRecord
100
AcDbBlockTableRecord
  2
*Paper_Space0
340
77
 70
     0
280
     1
281
     0
  0
ENDTAB
  0
ENDSEC
  0
SECTION
  2
BLOCKS
  0
BLOCK
  5
71
330
70
100
AcDbEntity
  8
0
100
AcDbBlockBegin
  2
*Model_Space
 70
     0
 10
0.0
 20
0.0
 30
0.0
  3
*Model_Space
  1

  0
ENDBLK
  5
72
330
70
100
AcDbEntity
  8
0
100
AcDbBlockEnd
  0
BLOCK
  5
6D
330
6C
100
AcDbEntity
 67
     1
  8
0
100
AcDbBlockBegin
  2
*Paper_Space
 70
     0
 10
0.0
 20
0.0
 30
0.0
  3
*Paper_Space
  1

  0
ENDBLK
  5
6E
330
6C
100
AcDbEntity
 67
     1
  8
0
100
AcDbBlockEnd
  0
BLOCK
  5
75
330
74
100
AcDbEntity
 67
     1
  8
0
100
AcDbBlockBegin
  2
*Paper_Space0
 70
     0
 10
0.0
 20
0.0
 30
0.0
  3
*Paper_Space0
  1

  0
ENDBLK
  5
76
330
74
100
AcDbEntity
 67
     1
  8
0
100
AcDbBlockEnd
  0
ENDSEC
  0
SECTION
  2
ENTITIES
  0
LWPOLYLINE
  5
7A
330
70
100
AcDbEntity
  8
Bounding Box
 62
   250
420
  2301728
370
    35
100
AcDbPolyline
 90
        4
 70
     1
 43
0.0
 10
1000.124999749969
 20
-1999.897221722248
 10
0.0
 20
-1999.897221722248
 10
0.0
 20
0.0
 10
1000.124999749969
 20
0.0
  0
SPLINE
  5
7F
330
70
100
AcDbEntity
  8
14-2022-045
100
AcDbSpline
210
0.0
220
0.0
230
1.0
 70
     9
 71
     3
 72
    59
 73
    55
 74
     0
 42
0.0000000001
 43
0.0000000001
 40
0.0
 40
0.0
 40
0.0
 40
0.0
 40
1.0
 40
1.0
 40
1.0
 40
2.0
 40
2.0
 40
2.0
 40
3.0
 40
3.0
 40
3.0
 40
4.0
 40
4.0
 40
4.0
 40
5.0
 40
5.0
 40
5.0
 40
6.0
 40
6.0
 40
6.0
 40
7.0
 40
7.0
 40
7.0
 40
8.0
 40
8.0
 40
8.0
 40
9.0
 40
9.0
 40
9.0
 40
10.0
 40
10.0
 40
10.0
 40
11.0
 40
11.0
 40
11.0
 40
12.0
 40
12.0
 40
12.0
 40
13.0
 40
13.0
 40
13.0
 40
14.0
 40
14.0
 40
14.0
 40
15.0
 40
15.0
 40
15.0
 40
16.0
 40
16.0
 40
16.0
 40
17.0
 40
17.0
 40
17.0
 40
18.0
 40
18.0
 40
18.0
 40
18.0
 10
917.7389276492499
 20
-1915.18953398693
 30
0.0
 10
912.8480777705592
 20
-1923.820588898615
 30
0.0
 10
909.3492225553257
 20
-1933.244560299567
 30
0.0
 10
907.446185020747
 20
-1942.981618550311
 30
0.0
 10
906.9640372844204
 20
-1945.448569679116
 30
0.0
 10
906.5851608897528
 20
-1947.935910820561
 30
0.0
 10
906.3031584270392
 20
-1950.433623731522
 30
0.0
 10
906.1674173104604
 20
-1951.635891031491
 30
0.0
 10
906.0177400132129
 20
-1952.864333304363
 30
0.0
 10
906.2993430900517
 20
-1954.058418195043
 30
0.0
 10
906.570763419613
 20
-1955.209325060818
 30
0.0
 10
907.2895935943519
 20
-1956.142767882717
 30
0.0
 10
908.2421204845969
 20
-1956.819031431343
 30
0.0
 10
910.1271796579673
 20
-1958.157362998674
 30
0.0
 10
912.6942002201321
 20
-1958.314460479792
 30
0.0
 10
914.9178756004063
 20
-1958.09523300225
 30
0.0
 10
917.5840018346104
 20
-1957.832385225854
 30
0.0
 10
920.1904003602541
 20
-1957.083198992917
 30
0.0
 10
922.7764629030406
 20
-1956.415273287151
 30
0.0
 10
928.6362075515389
 20
-1954.901824167032
 30
0.0
 10
934.451267839232
 20
-1953.217548567317
 30
0.0
 10
940.2142728235938
 20
-1951.369735971248
 30
0.0
 10
941.2909948660745
 20
-1951.024502788569
 30
0.0
 10
940.830664239859
 20
-1949.32087038791
 30
0.0
 10
939.745361285508
 20
-1949.668854898602
 30
0.0
 10
934.8056459299616
 20
-1951.252693239836
 30
0.0
 10
929.8278046062034
 20
-1952.716625123259
 30
0.0
 10
924.8160961619909
 20
-1954.0554278339
 30
0.0
 10
922.3340620670452
 20
-1954.718465999671
 30
0.0
 10
919.8453560350984
 20
-1955.401813541341
 30
0.0
 10
917.3314813159487
 20
-1955.934564814437
 30
0.0
 10
915.0923108065461
 20
-1956.409099575645
 30
0.0
 10
912.6274589574824
 20
-1956.731443670761
 30
0.0
 10
910.4151246826695
 20
-1955.961700165118
 30
0.0
 10
909.6013805279408
 20
-1955.678571939201
 30
0.0
 10
908.7880154259313
 20
-1955.18789358579
 30
0.0
 10
908.3342083969212
 20
-1954.434327388502
 30
0.0
 10
907.7829439786951
 20
-1953.51892898173
 30
0.0
 10
907.869348180727
 20
-1952.392900948456
 30
0.0
 10
907.9667970375254
 20
-1951.371974408596
 30
0.0
 10
908.1902569583487
 20
-1949.030888312147
 30
0.0
 10
908.5423740022365
 20
-1946.698632974162
 30
0.0
 10
908.9692035088321
 20
-1944.386544088782
 30
0.0
 10
909.834061167673
 20
-1939.701704475865
 30
0.0
 10
911.0665577534707
 20
-1935.084918413803
 30
0.0
 10
912.6488664132686
 20
-1930.59142043422
 30
0.0
 10
914.4177266777862
 20
-1925.568146387422
 30
0.0
 10
916.6365819113259
 20
-1920.712959590251
 30
0.0
 10
919.2619939962799
 20
-1916.079802484005
 30
0.0
 10
919.822417572638
 20
-1915.09080327501
 30
0.0
 10
918.2991525923625
 20
-1914.200885313009
 30
0.0
 10
917.7389276492499
 20
-1915.18953398693
 30
0.0
 10
917.7389276492499
 20
-1915.18953398693
 30
0.0
 10
917.7389276492499
 20
-1915.18953398693
 30
0.0
 10
917.7389276492499
 20
-1915.18953398693
 30
0.0
  0
HATCH
  5
80
330
70
100
AcDbEntity
  8
14-2022-045
 62
    18
420
        0
440
 33554687
100
AcDbHatch
 10
0.0
 20
0.0
 30
0.0
210
0.0
220
0.0
230
1.0
  2
SOLID
 70
     1
 71
     1
 91
        1
 92
        1
 93
        1
 72
     4
 94
        3
 73
     0
 74
     0
 95
       59
 96
       55
 40
0.0
 40
0.0
 40
0.0
 40
0.0
 40
1.0
 40
1.0
 40
1.0
 40
2.0
 40
2.0
 40
2.0
 40
3.0
 40
3.0
 40
3.0
 40
4.0
 40
4.0
 40
4.0
 40
5.0
 40
5.0
 40
5.0
 40
6.0
 40
6.0
 40
6.0
 40
7.0
 40
7.0
 40
7.0
 40
8.0
 40
8.0
 40
8.0
 40
9.0
 40
9.0
 40
9.0
 40
10.0
 40
10.0
 40
10.0
 40
11.0
 40
11.0
 40
11.0
 40
12.0
 40
12.0
 40
12.0
 40
13.0
 40
13.0
 40
13.0
 40
14.0
 40
14.0
 40
14.0
 40
15.0
 40
15.0
 40
15.0
 40
16.0
 40
16.0
 40
16.0
 40
17.0
 40
17.0
 40
17.0
 40
18.0
 40
18.0
 40
18.0
 40
18.0
 10
917.7389276492499
 20
-1915.18953398693
 10
912.8480777705592
 20
-1923.820588898615
 10
909.3492225553257
 20
-1933.244560299567
 10
907.446185020747
 20
-1942.981618550311
 10
906.9640372844204
 20
-1945.448569679116
 10
906.5851608897528
 20
-1947.935910820561
 10
906.3031584270392
 20
-1950.433623731522
 10
906.1674173104604
 20
-1951.635891031491
 10
906.0177400132129
 20
-1952.864333304363
 10
906.2993430900517
 20
-1954.058418195043
 10
906.570763419613
 20
-1955.209325060818
 10
907.2895935943519
 20
-1956.142767882717
 10
908.2421204845969
 20
-1956.819031431343
 10
910.1271796579673
 20
-1958.157362998674
 10
912.6942002201321
 20
-1958.314460479792
 10
914.9178756004063
 20
-1958.09523300225
 10
917.5840018346104
 20
-1957.832385225854
 10
920.1904003602541
 20
-1957.083198992917
 10
922.7764629030406
 20
-1956.415273287151
 10
928.6362075515389
 20
-1954.901824167032
 10
934.451267839232
 20
-1953.217548567317
 10
940.2142728235938
 20
-1951.369735971248
 10
941.2909948660745
 20
-1951.024502788569
 10
940.830664239859
 20
-1949.32087038791
 10
939.745361285508
 20
-1949.668854898602
 10
934.8056459299616
 20
-1951.252693239836
 10
929.8278046062034
 20
-1952.716625123259
 10
924.8160961619909
 20
-1954.0554278339
 10
922.3340620670452
 20
-1954.718465999671
 10
919.8453560350984
 20
-1955.401813541341
 10
917.3314813159487
 20
-1955.934564814437
 10
915.0923108065461
 20
-1956.409099575645
 10
912.6274589574824
 20
-1956.731443670761
 10
910.4151246826695
 20
-1955.961700165118
 10
909.6013805279408
 20
-1955.678571939201
 10
908.7880154259313
 20
-1955.18789358579
 10
908.3342083969212
 20
-1954.434327388502
 10
907.7829439786951
 20
-1953.51892898173
 10
907.869348180727
 20
-1952.392900948456
 10
907.9667970375254
 20
-1951.371974408596
 10
908.1902569583487
 20
-1949.030888312147
 10
908.5423740022365
 20
-1946.698632974162
 10
908.9692035088321
 20
-1944.386544088782
 10
909.834061167673
 20
-1939.701704475865
 10
911.0665577534707
 20
-1935.084918413803
 10
912.6488664132686
 20
-1930.59142043422
 10
914.4177266777862
 20
-1925.568146387422
 10
916.6365819113259
 20
-1920.712959590251
 10
919.2619939962799
 20
-1916.079802484005
 10
919.822417572638
 20
-1915.09080327501
 10
918.2991525923625
 20
-1914.200885313009
 10
917.7389276492499
 20
-1915.18953398693
 10
917.7389276492499
 20
-1915.18953398693
 10
917.7389276492499
 20
-1915.18953398693
 10
917.7389276492499
 20
-1915.18953398693
 97
        0
 97
        1
330
7F
 75
     2
 76
     1
 98
        1
 10
0.0
 20
0.0
450
        0
451
        0
460
0.0
461
0.0
452
        0
462
0.0
453
        0
470

  0
SPLINE
  5
81
330
70
100
AcDbEntity
  8
14-2022-045
100
AcDbSpline
210
0.0
220
0.0
230
1.0
 70
     9
 71
     3
 72
    41
 73
    37
 74
     0
 42
0.0000000001
 43
0.0000000001
 40
0.0
 40
0.0
 40
0.0
 40
0.0
 40
1.0
 40
1.0
 40
1.0
 40
2.0
 40
2.0
 40
2.0
 40
3.0
 40
3.0
 40
3.0
 40
4.0
 40
4.0
 40
4.0
 40
5.0
 40
5.0
 40
5.0
 40
6.0
 40
6.0
 40
6.0
 40
7.0
 40
7.0
 40
7.0
 40
8.0
 40
8.0
 40
8.0
 40
9.0
 40
9.0
 40
9.0
 40
10.0
 40
10.0
 40
10.0
 40
11.0
 40
11.0
 40
11.0
 40
12.0
 40
12.0
 40
12.0
 40
12.0
 10
925.0671903898131
 20
-1945.490113938583
 30
0.0
 10
927.1995728229837
 20
-1939.806524179098
 30
0.0
 10
929.3810916216102
 20
-1934.065964853798
 30
0.0
 10
932.9415627156462
 20
-1929.094932724117
 30
0.0
 10
932.3937368430675
 20
-1928.946554641272
 30
0.0
 10
931.8459109704846
 20
-1928.798176558427
 30
0.0
 10
931.2980850979059
 20
-1928.649798475581
 30
0.0
 10
931.8203371947188
 20
-1939.160224070696
 30
0.0
 10
932.3425888370733
 20
-1949.670649688393
 30
0.0
 10
932.8648403749912
 20
-1960.181075311279
 30
0.0
 10
933.0136382981052
 20
-1963.1756658298
 30
0.0
 10
933.1624362129321
 20
-1966.17025634873
 30
0.0
 10
933.3112341277701
 20
-1969.164846867661
 30
0.0
 10
933.3673706163247
 20
-1970.2946059545
 30
0.0
 10
935.1315940072113
 20
-1970.301337889084
 30
0.0
 10
935.0751230162179
 20
-1969.164846867661
 30
0.0
 10
934.5528715094506
 20
-1958.654421285526
 30
0.0
 10
934.0306200027043
 20
-1948.143995703389
 30
0.0
 10
933.5083681382482
 20
-1937.633570139025
 30
0.0
 10
933.3595701194044
 20
-1934.638979582965
 30
0.0
 10
933.2107720708036
 20
-1931.644389028382
 30
0.0
 10
933.0619739863537
 20
-1928.649798475581
 30
0.0
 10
933.0166732873106
 20
-1927.73811304705
 30
0.0
 10
931.9236401282037
 20
-1927.499396358632
 30
0.0
 10
931.4184963686132
 20
-1928.204664227042
 30
0.0
 10
927.7730480007049
 20
-1933.294339296816
 30
0.0
 10
925.5495253616937
 20
-1939.202122220323
 30
0.0
 10
923.3663093171678
 20
-1945.021202400496
 30
0.0
 10
923.1989625693115
 20
-1945.467243526888
 30
0.0
 10
923.5525271668436
 20
-1945.988011063658
 30
0.0
 10
923.9822940844453
 20
-1946.106098705864
 30
0.0
 10
924.4768515336664
 20
-1946.241988930825
 30
0.0
 10
924.8992369587025
 20
-1945.937772100786
 30
0.0
 10
925.0671903898131
 20
-1945.490113938583
 30
0.0
 10
925.0671903898131
 20
-1945.490113938583
 30
0.0
 10
925.0671903898131
 20
-1945.490113938583
 30
0.0
 10
925.0671903898131
 20
-1945.490113938583
 30
0.0
  0
HATCH
  5
82
330
70
100
AcDbEntity
  8
14-2022-045
 62
    18
420
        0
440
 33554687
100
AcDbHatch
 10
0.0
 20
0.0
 30
0.0
210
0.0
220
0.0
230
1.0
  2
SOLID
 70
     1
 71
     1
 91
        1
 92
        1
 93
        1
 72
     4
 94
        3
 73
     0
 74
     0
 95
       41
 96
       37
 40
0.0
 40
0.0
 40
0.0
 40
0.0
 40
1.0
 40
1.0
 40
1.0
 40
2.0
 40
2.0
 40
2.0
 40
3.0
 40
3.0
 40
3.0
 40
4.0
 40
4.0
 40
4.0
 40
5.0
 40
5.0
 40
5.0
 40
6.0
 40
6.0
 40
6.0
 40
7.0
 40
7.0
 40
7.0
 40
8.0
 40
8.0
 40
8.0
 40
9.0
 40
9.0
 40
9.0
 40
10.0
 40
10.0
 40
10.0
 40
11.0
 40
11.0
 40
11.0
 40
12.0
 40
12.0
 40
12.0
 40
12.0
 10
925.0671903898131
 20
-1945.490113938583
 10
927.1995728229837
 20
-1939.806524179098
 10
929.3810916216102
 20
-1934.065964853798
 10
932.9415627156462
 20
-1929.094932724117
 10
932.3937368430675
 20
-1928.946554641272
 10
931.8459109704846
 20
-1928.798176558427
 10
931.2980850979059
 20
-1928.649798475581
 10
931.8203371947188
 20
-1939.160224070696
 10
932.3425888370733
 20
-1949.670649688393
 10
932.8648403749912
 20
-1960.181075311279
 10
933.0136382981052
 20
-1963.1756658298
 10
933.1624362129321
 20
-1966.17025634873
 10
933.3112341277701
 20
-1969.164846867661
 10
933.3673706163247
 20
-1970.2946059545
 10
935.1315940072113
 20
-1970.301337889084
 10
935.0751230162179
 20
-1969.164846867661
 10
934.5528715094506
 20
-1958.654421285526
 10
934.0306200027043
 20
-1948.143995703389
 10
933.5083681382482
 20
-1937.633570139025
 10
933.3595701194044
 20
-1934.638979582965
 10
933.2107720708036
 20
-1931.644389028382
 10
933.0619739863537
 20
-1928.649798475581
 10
933.0166732873106
 20
-1927.73811304705
 10
931.9236401282037
 20
-1927.499396358632
 10
931.4184963686132
 20
-1928.204664227042
 10
927.7730480007049
 20
-1933.294339296816
 10
925.5495253616937
 20
-1939.202122220323
 10
923.3663093171678
 20
-1945.021202400496
 10
923.1989625693115
 20
-1945.467243526888
 10
923.5525271668436
 20
-1945.988011063658
 10
923.9822940844453
 20
-1946.106098705864
 10
924.4768515336664
 20
-1946.241988930825
 10
924.8992369587025
 20
-1945.937772100786
 10
925.0671903898131
 20
-1945.490113938583
 10
925.0671903898131
 20
-1945.490113938583
 10
925.0671903898131
 20
-1945.490113938583
 10
925.0671903898131
 20
-1945.490113938583
 97
        0
 97
        1
330
81
 75
     2
 76
     1
 98
        1
 10
0.0
 20
0.0
450
        0
451
        0
460
0.0
461
0.0
452
        0
462
0.0
453
        0
470

  0
SPLINE
  5
83
330
70
100
AcDbEntity
  8
14-2022-045
100
AcDbSpline
210
0.0
220
0.0
230
1.0
 70
     9
 71
     3
 72
    59
 73
    55
 74
     0
 42
0.0000000001
 43
0.0000000001
 40
0.0
 40
0.0
 40
0.0
 40
0.0
 40
1.0
 40
1.0
 40
1.0
 40
2.0
 40
2.0
 40
2.0
 40
3.0
 40
3.0
 40
3.0
 40
4.0
 40
4.0
 40
4.0
 40
5.0
 40
5.0
 40
5.0
 40
6.0
 40
6.0
 40
6.0
 40
7.0
 40
7.0
 40
7.0
 40
8.0
 40
8.0
 40
8.0
 40
9.0
 40
9.0
 40
9.0
 40
10.0
 40
10.0
 40
10.0
 40
11.0
 40
11.0
 40
11.0
 40
12.0
 40
12.0
 40
12.0
 40
13.0
 40
13.0
 40
13.0
 40
14.0
 40
14.0
 40
14.0
 40
15.0
 40
15.0
 40
15.0
 40
16.0
 40
16.0
 40
16.0
 40
17.0
 40
17.0
 40
17.0
 40
18.0
 40
18.0
 40
18.0
 40
18.0
 10
944.7961271729067
 20
-1946.037709680716
 30
0.0
 10
945.9828349307057
 20
-1945.77807841469
 30
0.0
 10
947.1695426885046
 20
-1945.518447148667
 30
0.0
 10
948.3562504463037
 20
-1945.258815882635
 30
0.0
 10
948.6314858055115
 20
-1945.198599115455
 30
0.0
 10
948.9477971991609
 20
-1945.171474313651
 30
0.0
 10
949.2116364379786
 20
-1945.075629700847
 30
0.0
 10
949.4143279143987
 20
-1945.001998173701
 30
0.0
 10
949.2210080901962
 20
-1945.120167503676
 30
0.0
 10
949.2307009891785
 20
-1945.000182068809
 30
0.0
 10
949.2149264101744
 20
-1945.195450762426
 30
0.0
 10
949.1713060470415
 20
-1945.560937648302
 30
0.0
 10
949.0531260050431
 20
-1945.871141212352
 30
0.0
 10
948.1722574981299
 20
-1948.183279079928
 30
0.0
 10
947.1745319139447
 20
-1950.457764931639
 30
0.0
 10
946.2363251699001
 20
-1952.747359424309
 30
0.0
 10
946.1307706430696
 20
-1953.004954101438
 30
0.0
 10
946.2451643138733
 20
-1953.432766588947
 30
0.0
 10
946.4631368090847
 20
-1953.605444090492
 30
0.0
 10
948.0124348440913
 20
-1954.832795796386
 30
0.0
 10
950.1441295581328
 20
-1955.061039609014
 30
0.0
 10
951.8736348647626
 20
-1954.047686642434
 30
0.0
 10
952.8525080441358
 20
-1953.47414458019
 30
0.0
 10
951.9658140653572
 20
-1951.948983848884
 30
0.0
 10
950.9833663676916
 20
-1952.5246202954
 30
0.0
 10
949.9944005888998
 20
-1953.104075820598
 30
0.0
 10
948.6310315760627
 20
-1953.087513600199
 30
0.0
 10
947.7103946033647
 20
-1952.358186296212
 30
0.0
 10
947.7859984830944
 20
-1952.644214518272
 30
0.0
 10
947.8616023628203
 20
-1952.930242740335
 30
0.0
 10
947.9372062425493
 20
-1953.216270962395
 30
0.0
 10
948.4921873969451
 20
-1951.861898056094
 30
0.0
 10
949.0471685505509
 20
-1950.507525149465
 30
0.0
 10
949.6021499527632
 20
-1949.153152344712
 30
0.0
 10
949.8907403107178
 20
-1948.448878415954
 30
0.0
 10
950.179330734028
 20
-1947.744604513974
 30
0.0
 10
950.4679212612943
 20
-1947.040330654596
 30
0.0
 10
950.6970524669601
 20
-1946.481160816117
 30
0.0
 10
950.9285989974225
 20
-1945.952825121057
 30
0.0
 10
950.9857458635318
 20
-1945.34454579164
 30
0.0
 10
951.036569969985
 20
-1944.803566810676
 30
0.0
 10
950.9274027134829
 20
-1944.208710182314
 30
0.0
 10
950.5325939035021
 20
-1943.806918107148
 30
0.0
 10
950.0133180606278
 20
-1943.278457461856
 30
0.0
 10
949.3234750028282
 20
-1943.25832904358
 30
0.0
 10
948.6385214135705
 20
-1943.39428174328
 30
0.0
 10
947.196559635088
 20
-1943.680488866977
 30
0.0
 10
945.7633723601476
 20
-1944.022622194265
 30
0.0
 10
944.3272156348202
 20
-1944.336828608071
 30
0.0
 10
943.2188180128173
 20
-1944.579326962001
 30
0.0
 10
943.6878730373098
 20
-1946.280176642289
 30
0.0
 10
944.7961271729067
 20
-1946.037709680716
 30
0.0
 10
944.7961271729067
 20
-1946.037709680716
 30
0.0
 10
944.7961271729067
 20
-1946.037709680716
 30
0.0
 10
944.7961271729067
 20
-1946.037709680716
 30
0.0
  0
HATCH
  5
84
330
70
100
AcDbEntity
  8
14-2022-045
 62
    18
420
        0
440
 33554687
100
AcDbHatch
 10
0.0
 20
0.0
 30
0.0
210
0.0
220
0.0
230
1.0
  2
SOLID
 70
     1
 71
     1
 91
        1
 92
        1
 93
        1
 72
     4
 94
        3
 73
     0
 74
     0
 95
       59
 96
       55
 40
0.0
 40
0.0
 40
0.0
 40
0.0
 40
1.0
 40
1.0
 40
1.0
 40
2.0
 40
2.0
 40
2.0
 40
3.0
 40
3.0
 40
3.0
 40
4.0
 40
4.0
 40
4.0
 40
5.0
 40
5.0
 40
5.0
 40
6.0
 40
6.0
 40
6.0
 40
7.0
 40
7.0
 40
7.0
 40
8.0
 40
8.0
 40
8.0
 40
9.0
 40
9.0
 40
9.0
 40
10.0
 40
10.0
 40
10.0
 40
11.0
 40
11.0
 40
11.0
 40
12.0
 40
12.0
 40
12.0
 40
13.0
 40
13.0
 40
13.0
 40
14.0
 40
14.0
 40
14.0
 40
15.0
 40
15.0
 40
15.0
 40
16.0
 40
16.0
 40
16.0
 40
17.0
 40
17.0
 40
17.0
 40
18.0
 40
18.0
 40
18.0
 40
18.0
 10
944.7961271729067
 20
-1946.037709680716
 10
945.9828349307057
 20
-1945.77807841469
 10
947.1695426885046
 20
-1945.518447148667
 10
948.3562504463037
 20
-1945.258815882635
 10
948.6314858055115
 20
-1945.198599115455
 10
948.9477971991609
 20
-1945.171474313651
 10
949.2116364379786
 20
-1945.075629700847
 10
949.4143279143987
 20
-1945.001998173701
 10
949.2210080901962
 20
-1945.120167503676
 10
949.2307009891785
 20
-1945.000182068809
 10
949.2149264101744
 20
-1945.195450762426
 10
949.1713060470415
 20
-1945.560937648302
 10
949.0531260050431
 20
-1945.871141212352
 10
948.1722574981299
 20
-1948.183279079928
 10
947.1745319139447
 20
-1950.457764931639
 10
946.2363251699001
 20
-1952.747359424309
 10
946.1307706430696
 20
-1953.004954101438
 10
946.2451643138733
 20
-1953.432766588947
 10
946.4631368090847
 20
-1953.605444090492
 10
948.0124348440913
 20
-1954.832795796386
 10
950.1441295581328
 20
-1955.061039609014
 10
951.8736348647626
 20
-1954.047686642434
 10
952.8525080441358
 20
-1953.47414458019
 10
951.9658140653572
 20
-1951.948983848884
 10
950.9833663676916
 20
-1952.5246202954
 10
949.9944005888998
 20
-1953.104075820598
 10
948.6310315760627
 20
-1953.087513600199
 10
947.7103946033647
 20
-1952.358186296212
 10
947.7859984830944
 20
-1952.644214518272
 10
947.8616023628203
 20
-1952.930242740335
 10
947.9372062425493
 20
-1953.216270962395
 10
948.4921873969451
 20
-1951.861898056094
 10
949.0471685505509
 20
-1950.507525149465
 10
949.6021499527632
 20
-1949.153152344712
 10
949.8907403107178
 20
-1948.448878415954
 10
950.179330734028
 20
-1947.744604513974
 10
950.4679212612943
 20
-1947.040330654596
 10
950.6970524669601
 20
-1946.481160816117
 10
950.9285989974225
 20
-1945.952825121057
 10
950.9857458635318
 20
-1945.34454579164
 10
951.036569969985
 20
-1944.803566810676
 10
950.9274027134829
 20
-1944.208710182314
 10
950.5325939035021
 20
-1943.806918107148
 10
950.0133180606278
 20
-1943.278457461856
 10
949.3234750028282
 20
-1943.25832904358
 10
948.6385214135705
 20
-1943.39428174328
 10
947.196559635088
 20
-1943.680488866977
 10
945.7633723601476
 20
-1944.022622194265
 10
944.3272156348202
 20
-1944.336828608071
 10
943.2188180128173
 20
-1944.579326962001
 10
943.6878730373098
 20
-1946.280176642289
 10
944.7961271729067
 20
-1946.037709680716
 10
944.7961271729067
 20
-1946.037709680716
 10
944.7961271729067
 20
-1946.037709680716
 10
944.7961271729067
 20
-1946.037709680716
 97
        0
 97
        1
330
83
 75
     2
 76
     1
 98
        1
 10
0.0
 20
0.0
450
        0
451
        0
460
0.0
461
0.0
452
        0
462
0.0
453
        0
470

  0
SPLINE
  5
85
330
70
100
AcDbEntity
  8
14-2022-045
100
AcDbSpline
210
0.0
220
0.0
230
1.0
 70
     9
 71
     3
 72
    59
 73
    55
 74
     0
 42
0.0000000001
 43
0.0000000001
 40
0.0
 40
0.0
 40
0.0
 40
0.0
 40
1.0
 40
1.0
 40
1.0
 40
2.0
 40
2.0
 40
2.0
 40
3.0
 40
3.0
 40
3.0
 40
4.0
 40
4.0
 40
4.0
 40
5.0
 40
5.0
 40
5.0
 40
6.0
 40
6.0
 40
6.0
 40
7.0
 40
7.0
 40
7.0
 40
8.0
 40
8.0
 40
8.0
 40
9.0
 40
9.0
 40
9.0
 40
10.0
 40
10.0
 40
10.0
 40
11.0
 40
11.0
 40
11.0
 40
12.0
 40
12.0
 40
12.0
 40
13.0
 40
13.0
 40
13.0
 40
14.0
 40
14.0
 40
14.0
 40
15.0
 40
15.0
 40
15.0
 40
16.0
 40
16.0
 40
16.0
 40
17.0
 40
17.0
 40
17.0
 40
18.0
 40
18.0
 40
18.0
 40
18.0
 10
957.5762019753881
 20
-1950.336402334388
 30
0.0
 10
957.5531327447921
 20
-1950.368820410355
 30
0.0
 10
957.5172891480717
 20
-1950.380537313307
 30
0.0
 10
957.4937095543761
 20
-1950.404919271377
 30
0.0
 10
957.4799937865424
 20
-1950.419101758171
 30
0.0
 10
957.598667911782
 20
-1950.417311794222
 30
0.0
 10
957.4972866115675
 20
-1950.399950087607
 30
0.0
 10
957.5762400267615
 20
-1950.413470983747
 30
0.0
 10
957.6227711088105
 20
-1950.40177336735
 30
0.0
 10
957.7136487811438
 20
-1950.441030026285
 30
0.0
 10
957.8973793820901
 20
-1950.520396600637
 30
0.0
 10
958.0207101934192
 20
-1950.663040058237
 30
0.0
 10
958.0362553296373
 20
-1950.859975445876
 30
0.0
 10
958.1089205038066
 20
-1951.780542756577
 30
0.0
 10
957.4180346715012
 20
-1952.720761039527
 30
0.0
 10
957.0113507823116
 20
-1953.498810637877
 30
0.0
 10
955.9775348311275
 20
-1955.47666151167
 30
0.0
 10
954.9437198642467
 20
-1957.454512899953
 30
0.0
 10
953.9099048962334
 20
-1959.432364287643
 30
0.0
 10
953.6130864914206
 20
-1960.000224796547
 30
0.0
 10
953.9727069784561
 20
-1960.784087646686
 30
0.0
 10
954.6714380697499
 20
-1960.759442980402
 30
0.0
 10
958.2621266556888
 20
-1960.632797232097
 30
0.0
 10
961.8512285102141
 20
-1960.465318108182
 30
0.0
 10
965.438107680711
 20
-1960.257035248409
 30
0.0
 10
966.5664417551946
 20
-1960.191515157924
 30
0.0
 10
966.573985878856
 20
-1958.427188197387
 30
0.0
 10
965.438107680711
 20
-1958.493146359961
 30
0.0
 10
961.8512285471748
 20
-1958.701429217586
 30
0.0
 10
958.2621266926878
 20
-1958.868908342344
 30
0.0
 10
954.6714380697499
 20
-1958.995554091955
 30
0.0
 10
954.925282460922
 20
-1959.43791365621
 30
0.0
 10
955.179126852094
 20
-1959.880273220462
 30
0.0
 10
955.4329712432666
 20
-1960.322632784718
 30
0.0
 10
956.1131126330822
 20
-1959.021414836345
 30
0.0
 10
956.7932540232019
 20
-1957.720196888129
 30
0.0
 10
957.4733956921042
 20
-1956.418979085629
 30
0.0
 10
958.144649079202
 20
-1955.134765961776
 30
0.0
 10
958.9092755787323
 20
-1953.863291687017
 30
0.0
 10
959.46228992455
 20
-1952.522987549742
 30
0.0
 10
959.9555014411064
 20
-1951.32762355749
 30
0.0
 10
959.9796975208086
 20
-1949.897368496109
 30
0.0
 10
958.842719031247
 20
-1949.074228443045
 30
0.0
 10
957.9296524510031
 20
-1948.413194236848
 30
0.0
 10
956.7188073414303
 20
-1948.510697517743
 30
0.0
 10
956.0531356283556
 20
-1949.446133837317
 30
0.0
 10
955.7768115446226
 20
-1949.83443873118
 30
0.0
 10
955.9844463030332
 20
-1950.427563679869
 30
0.0
 10
956.3695345533366
 20
-1950.652801259369
 30
0.0
 10
956.8120927009513
 20
-1950.911652901503
 30
0.0
 10
957.2992364654702
 20
-1950.725608593504
 30
0.0
 10
957.5762019753881
 20
-1950.336402334388
 30
0.0
 10
957.5762019753881
 20
-1950.336402334388
 30
0.0
 10
957.5762019753881
 20
-1950.336402334388
 30
0.0
 10
957.5762019753881
 20
-1950.336402334388
 30
0.0
  0
HATCH
  5
86
330
70
100
AcDbEntity
  8
14-2022-045
 62
    18
420
        0
440
 33554687
100
AcDbHatch
 10
0.0
 20
0.0
 30
0.0
210
0.0
220
0.0
230
1.0
  2
SOLID
 70
     1
 71
     1
 91
        1
 92
        1
 93
        1
 72
     4
 94
        3
 73
     0
 74
     0
 95
       59
 96
       55
 40
0.0
 40
0.0
 40
0.0
 40
0.0
 40
1.0
 40
1.0
 40
1.0
 40
2.0
 40
2.0
 40
2.0
 40
3.0
 40
3.0
 40
3.0
 40
4.0
 40
4.0
 40
4.0
 40
5.0
 40
5.0
 40
5.0
 40
6.0
 40
6.0
 40
6.0
 40
7.0
 40
7.0
 40
7.0
 40
8.0
 40
8.0
 40
8.0
 40
9.0
 40
9.0
 40
9.0
 40
10.0
 40
10.0
 40
10.0
 40
11.0
 40
11.0
 40
11.0
 40
12.0
 40
12.0
 40
12.0
 40
13.0
 40
13.0
 40
13.0
 40
14.0
 40
14.0
 40
14.0
 40
15.0
 40
15.0
 40
15.0
 40
16.0
 40
16.0
 40
16.0
 40
17.0
 40
17.0
 40
17.0
 40
18.0
 40
18.0
 40
18.0
 40
18.0
 10
957.5762019753881
 20
-1950.336402334388
 10
957.5531327447921
 20
-1950.368820410355
 10
957.5172891480717
 20
-1950.380537313307
 10
957.4937095543761
 20
-1950.404919271377
 10
957.4799937865424
 20
-1950.419101758171
 10
957.598667911782
 20
-1950.417311794222
 10
957.4972866115675
 20
-1950.399950087607
 10
957.5762400267615
 20
-1950.413470983747
 10
957.6227711088105
 20
-1950.40177336735
 10
957.7136487811438
 20
-1950.441030026285
 10
957.8973793820901
 20
-1950.520396600637
 10
958.0207101934192
 20
-1950.663040058237
 10
958.0362553296373
 20
-1950.859975445876
 10
958.1089205038066
 20
-1951.780542756577
 10
957.4180346715012
 20
-1952.720761039527
 10
957.0113507823116
 20
-1953.498810637877
 10
955.9775348311275
 20
-1955.47666151167
 10
954.9437198642467
 20
-1957.454512899953
 10
953.9099048962334
 20
-1959.432364287643
 10
953.6130864914206
 20
-1960.000224796547
 10
953.9727069784561
 20
-1960.784087646686
 10
954.6714380697499
 20
-1960.759442980402
 10
958.2621266556888
 20
-1960.632797232097
 10
961.8512285102141
 20
-1960.465318108182
 10
965.438107680711
 20
-1960.257035248409
 10
966.5664417551946
 20
-1960.191515157924
 10
966.573985878856
 20
-1958.427188197387
 10
965.438107680711
 20
-1958.493146359961
 10
961.8512285471748
 20
-1958.701429217586
 10
958.2621266926878
 20
-1958.868908342344
 10
954.6714380697499
 20
-1958.995554091955
 10
954.925282460922
 20
-1959.43791365621
 10
955.179126852094
 20
-1959.880273220462
 10
955.4329712432666
 20
-1960.322632784718
 10
956.1131126330822
 20
-1959.021414836345
 10
956.7932540232019
 20
-1957.720196888129
 10
957.4733956921042
 20
-1956.418979085629
 10
958.144649079202
 20
-1955.134765961776
 10
958.9092755787323
 20
-1953.863291687017
 10
959.46228992455
 20
-1952.522987549742
 10
959.9555014411064
 20
-1951.32762355749
 10
959.9796975208086
 20
-1949.897368496109
 10
958.842719031247
 20
-1949.074228443045
 10
957.9296524510031
 20
-1948.413194236848
 10
956.7188073414303
 20
-1948.510697517743
 10
956.0531356283556
 20
-1949.446133837317
 10
955.7768115446226
 20
-1949.83443873118
 10
955.9844463030332
 20
-1950.427563679869
 10
956.3695345533366
 20
-1950.652801259369
 10
956.8120927009513
 20
-1950.911652901503
 10
957.2992364654702
 20
-1950.725608593504
 10
957.5762019753881
 20
-1950.336402334388
 10
957.5762019753881
 20
-1950.336402334388
 10
957.5762019753881
 20
-1950.336402334388
 10
957.5762019753881
 20
-1950.336402334388
 97
        0
 97
        1
330
85
 75
     2
 76
     1
 98
        1
 10
0.0
 20
0.0
450
        0
451
        0
460
0.0
461
0.0
452
        0
462
0.0
453
        0
470

  0
SPLINE
  5
87
330
70
100
AcDbEntity
  8
14-2022-045
100
AcDbSpline
210
0.0
220
0.0
230
1.0
 70
     9
 71
     3
 72
   107
 73
   103
 74
     0
 42
0.0000000001
 43
0.0000000001
 40
0.0
 40
0.0
 40
0.0
 40
0.0
 40
1.0
 40
1.0
 40
1.0
 40
2.0
 40
2.0
 40
2.0
 40
3.0
 40
3.0
 40
3.0
 40
4.0
 40
4.0
 40
4.0
 40
5.0
 40
5.0
 40
5.0
 40
6.0
 40
6.0
 40
6.0
 40
7.0
 40
7.0
 40
7.0
 40
8.0
 40
8.0
 40
8.0
 40
9.0
 40
9.0
 40
9.0
 40
10.0
 40
10.0
 40
10.0
 40
11.0
 40
11.0
 40
11.0
 40
12.0
 40
12.0
 40
12.0
 40
13.0
 40
13.0
 40
13.0
 40
14.0
 40
14.0
 40
14.0
 40
15.0
 40
15.0
 40
15.0
 40
16.0
 40
16.0
 40
16.0
 40
17.0
 40
17.0
 40
17.0
 40
18.0
 40
18.0
 40
18.0
 40
19.0
 40
19.0
 40
19.0
 40
20.0
 40
20.0
 40
20.0
 40
21.0
 40
21.0
 40
21.0
 40
22.0
 40
22.0
 40
22.0
 40
23.0
 40
23.0
 40
23.0
 40
24.0
 40
24.0
 40
24.0
 40
25.0
 40
25.0
 40
25.0
 40
26.0
 40
26.0
 40
26.0
 40
27.0
 40
27.0
 40
27.0
 40
28.0
 40
28.0
 40
28.0
 40
29.0
 40
29.0
 40
29.0
 40
30.0
 40
30.0
 40
30.0
 40
31.0
 40
31.0
 40
31.0
 40
32.0
 40
32.0
 40
32.0
 40
33.0
 40
33.0
 40
33.0
 40
34.0
 40
34.0
 40
34.0
 40
34.0
 10
448.9008509891221
 20
-102.6651589030989
 30
0.0
 10
446.4550054493691
 20
-143.4792051168537
 30
0.0
 10
443.0759696700469
 20
-184.2429529365239
 30
0.0
 10
441.0712686071801
 20
-225.0762916849961
 30
0.0
 10
439.3999666599001
 20
-259.1193472320409
 30
0.0
 10
440.1313604314188
 20
-293.2936609170738
 30
0.0
 10
438.0088371029563
 20
-327.2984759042322
 30
0.0
 10
434.0264789767817
 20
-391.0988666828262
 30
0.0
 10
429.1373717188895
 20
-454.8510476564714
 30
0.0
 10
423.8730935626534
 20
-518.5611984651967
 30
0.0
 10
420.4865647006529
 20
-559.5457769054713
 30
0.0
 10
415.5755810864292
 20
-600.4028868127918
 30
0.0
 10
411.6823648059336
 20
-641.3485356740832
 30
0.0
 10
407.8562417600151
 20
-681.5900070181895
 30
0.0
 10
403.5509920594874
 20
-721.8173534708063
 30
0.0
 10
401.137099780358
 20
-762.1514978834658
 30
0.0
 10
399.0445487826174
 20
-797.1161164728149
 30
0.0
 10
392.5135520801476
 20
-830.9373078706096
 30
0.0
 10
382.7568263474532
 20
-864.4639436044155
 30
0.0
 10
375.3607661686372
 20
-889.8784129991035
 30
0.0
 10
368.2721807618835
 20
-915.5598772938985
 30
0.0
 10
363.7738334594037
 20
-941.5937748568344
 30
0.0
 10
358.6604935491144
 20
-971.1868005655819
 30
0.0
 10
356.5880102325771
 20
-1001.304514316733
 30
0.0
 10
353.1807677339724
 20
-1031.193129218115
 30
0.0
 10
346.4742864802218
 20
-1090.021579724241
 30
0.0
 10
340.2642004222039
 20
-1148.912041949102
 30
0.0
 10
332.9179218731507
 20
-1207.660910749519
 30
0.0
 10
323.9125284020948
 20
-1279.677875792279
 30
0.0
 10
313.6078171687769
 20
-1351.531543309037
 30
0.0
 10
304.5188801322036
 20
-1423.53851757489
 30
0.0
 10
297.545705424203
 20
-1478.783810394193
 30
0.0
 10
291.9218884903876
 20
-1534.198515783985
 30
0.0
 10
285.0490952520884
 20
-1589.457158348295
 30
0.0
 10
280.9390963381854
 20
-1622.502169733263
 30
0.0
 10
275.4808162424362
 20
-1655.377682420357
 30
0.0
 10
270.8481102160336
 20
-1688.359993067493
 30
0.0
 10
269.6477528215855
 20
-1696.905552418655
 30
0.0
 10
269.9863195803984
 20
-1705.701914721144
 30
0.0
 10
268.3864172370483
 20
-1714.149977870073
 30
0.0
 10
263.5030374504003
 20
-1739.93617306762
 30
0.0
 10
258.1499188943384
 20
-1765.636585387584
 30
0.0
 10
252.666575728934
 20
-1791.303580281341
 30
0.0
 10
251.4744004362634
 20
-1796.883945948349
 30
0.0
 10
253.1997042552765
 20
-1800.01105912031
 30
0.0
 10
258.3308294710076
 20
-1801.423892778811
 30
0.0
 10
267.1618580468163
 20
-1803.855096662751
 30
0.0
 10
275.9703643108903
 20
-1806.490250199419
 30
0.0
 10
284.9425126105135
 20
-1808.256206145158
 30
0.0
 10
296.1119428106292
 20
-1810.454521574296
 30
0.0
 10
301.2254119119983
 20
-1806.965328866835
 30
0.0
 10
303.6588551080046
 20
-1795.695388005937
 30
0.0
 10
309.0385008993029
 20
-1770.78045745661
 30
0.0
 10
313.9217514948703
 20
-1745.757695418595
 30
0.0
 10
319.3782229154897
 20
-1720.860334856243
 30
0.0
 10
321.9238039695408
 20
-1709.244850918175
 30
0.0
 10
321.9421060393062
 20
-1697.335844844763
 30
0.0
 10
324.7218674589671
 20
-1685.702446410171
 30
0.0
 10
327.383763549339
 20
-1674.562730158616
 30
0.0
 10
327.8422626947322
 20
-1662.914173303889
 30
0.0
 10
329.6699289133508
 20
-1651.55362643173
 30
0.0
 10
338.3284443327356
 20
-1597.735033780254
 30
0.0
 10
346.1838218671216
 20
-1543.849261766815
 30
0.0
 10
351.7217697959671
 20
-1489.566270243928
 30
0.0
 10
360.5217925124096
 20
-1403.310639433246
 30
0.0
 10
370.8987646235306
 20
-1317.214947180464
 30
0.0
 10
380.8643062063238
 20
-1231.080669858247
 30
0.0
 10
384.3468671049776
 20
-1200.979837074974
 30
0.0
 10
388.8930151073133
 20
-1171.002338710072
 30
0.0
 10
392.403352088316
 20
-1140.904606512736
 30
0.0
 10
397.2491372704794
 20
-1099.35744397972
 30
0.0
 10
401.3174505290109
 20
-1057.719675435442
 30
0.0
 10
406.1843369210233
 20
-1016.174924469265
 30
0.0
 10
412.9335373587911
 20
-958.5622481598839
 30
0.0
 10
410.7866399797686
 20
-900.1975075060723
 30
0.0
 10
422.2540709393602
 20
-842.9155603632748
 30
0.0
 10
427.5422063818298
 20
-816.5002907301216
 30
0.0
 10
428.1595674927864
 20
-789.1861956848669
 30
0.0
 10
432.2171148279285
 20
-762.4805045023072
 30
0.0
 10
440.6462299516893
 20
-707.0020648460379
 30
0.0
 10
450.553118783848
 20
-651.7451448294702
 30
0.0
 10
458.7340147778966
 20
-596.2322542183484
 30
0.0
 10
466.4349228434607
 20
-543.9767013885304
 30
0.0
 10
473.608386790237
 20
-491.6071158981505
 30
0.0
 10
479.2948613981904
 20
-439.1017936456519
 30
0.0
 10
483.5675549463823
 20
-399.6499381867648
 30
0.0
 10
485.158672296245
 20
-359.9063046721216
 30
0.0
 10
487.8709959717823
 20
-320.2873620822003
 30
0.0
 10
492.008383394793
 20
-259.851085513108
 30
0.0
 10
496.1739344733977
 20
-199.4161869822097
 30
0.0
 10
500.1450099118561
 20
-138.9688861075646
 30
0.0
 10
502.0550569762677
 20
-109.8946917788957
 30
0.0
 10
503.8118834189709
 20
-80.80533903009165
 30
0.0
 10
505.1422931679852
 20
-51.69979433250691
 30
0.0
 10
505.440595373315
 20
-45.1735561681771
 30
0.0
 10
505.5949787147471
 20
-38.63913590206982
 30
0.0
 10
505.7074180186476
 20
-32.10277776975209
 30
0.0
 10
505.7074180186476
 20
-32.10277776975209
 30
0.0
 10
453.1029200798666
 20
-32.10277776975209
 30
0.0
 10
453.1029200798666
 20
-32.10277776975209
 30
0.0
 10
451.7361645734828
 20
-55.62560982902979
 30
0.0
 10
450.3103687432157
 20
-79.14542742975824
 30
0.0
 10
448.9008509891221
 20
-102.6651589030989
 30
0.0
  0
HATCH
  5
88
330
70
100
AcDbEntity
  8
14-2022-045
 62
    18
420
        0
440
 33554687
100
AcDbHatch
 10
0.0
 20
0.0
 30
0.0
210
0.0
220
0.0
230
1.0
  2
SOLID
 70
     1
 71
     1
 91
        1
 92
        1
 93
        1
 72
     4
 94
        3
 73
     0
 74
     0
 95
      107
 96
      103
 40
0.0
 40
0.0
 40
0.0
 40
0.0
 40
1.0
 40
1.0
 40
1.0
 40
2.0
 40
2.0
 40
2.0
 40
3.0
 40
3.0
 40
3.0
 40
4.0
 40
4.0
 40
4.0
 40
5.0
 40
5.0
 40
5.0
 40
6.0
 40
6.0
 40
6.0
 40
7.0
 40
7.0
 40
7.0
 40
8.0
 40
8.0
 40
8.0
 40
9.0
 40
9.0
 40
9.0
 40
10.0
 40
10.0
 40
10.0
 40
11.0
 40
11.0
 40
11.0
 40
12.0
 40
12.0
 40
12.0
 40
13.0
 40
13.0
 40
13.0
 40
14.0
 40
14.0
 40
14.0
 40
15.0
 40
15.0
 40
15.0
 40
16.0
 40
16.0
 40
16.0
 40
17.0
 40
17.0
 40
17.0
 40
18.0
 40
18.0
 40
18.0
 40
19.0
 40
19.0
 40
19.0
 40
20.0
 40
20.0
 40
20.0
 40
21.0
 40
21.0
 40
21.0
 40
22.0
 40
22.0
 40
22.0
 40
23.0
 40
23.0
 40
23.0
 40
24.0
 40
24.0
 40
24.0
 40
25.0
 40
25.0
 40
25.0
 40
26.0
 40
26.0
 40
26.0
 40
27.0
 40
27.0
 40
27.0
 40
28.0
 40
28.0
 40
28.0
 40
29.0
 40
29.0
 40
29.0
 40
30.0
 40
30.0
 40
30.0
 40
31.0
 40
31.0
 40
31.0
 40
32.0
 40
32.0
 40
32.0
 40
33.0
 40
33.0
 40
33.0
 40
34.0
 40
34.0
 40
34.0
 40
34.0
 10
448.9008509891221
 20
-102.6651589030989
 10
446.4550054493691
 20
-143.4792051168537
 10
443.0759696700469
 20
-184.2429529365239
 10
441.0712686071801
 20
-225.0762916849961
 10
439.3999666599001
 20
-259.1193472320409
 10
440.1313604314188
 20
-293.2936609170738
 10
438.0088371029563
 20
-327.2984759042322
 10
434.0264789767817
 20
-391.0988666828262
 10
429.1373717188895
 20
-454.8510476564714
 10
423.8730935626534
 20
-518.5611984651967
 10
420.4865647006529
 20
-559.5457769054713
 10
415.5755810864292
 20
-600.4028868127918
 10
411.6823648059336
 20
-641.3485356740832
 10
407.8562417600151
 20
-681.5900070181895
 10
403.5509920594874
 20
-721.8173534708063
 10
401.137099780358
 20
-762.1514978834658
 10
399.0445487826174
 20
-797.1161164728149
 10
392.5135520801476
 20
-830.9373078706096
 10
382.7568263474532
 20
-864.4639436044155
 10
375.3607661686372
 20
-889.8784129991035
 10
368.2721807618835
 20
-915.5598772938985
 10
363.7738334594037
 20
-941.5937748568344
 10
358.6604935491144
 20
-971.1868005655819
 10
356.5880102325771
 20
-1001.304514316733
 10
353.1807677339724
 20
-1031.193129218115
 10
346.4742864802218
 20
-1090.021579724241
 10
340.2642004222039
 20
-1148.912041949102
 10
332.9179218731507
 20
-1207.660910749519
 10
323.9125284020948
 20
-1279.677875792279
 10
313.6078171687769
 20
-1351.531543309037
 10
304.5188801322036
 20
-1423.53851757489
 10
297.545705424203
 20
-1478.783810394193
 10
291.9218884903876
 20
-1534.198515783985
 10
285.0490952520884
 20
-1589.457158348295
 10
280.9390963381854
 20
-1622.502169733263
 10
275.4808162424362
 20
-1655.377682420357
 10
270.8481102160336
 20
-1688.359993067493
 10
269.6477528215855
 20
-1696.905552418655
 10
269.9863195803984
 20
-1705.701914721144
 10
268.3864172370483
 20
-1714.149977870073
 10
263.5030374504003
 20
-1739.93617306762
 10
258.1499188943384
 20
-1765.636585387584
 10
252.666575728934
 20
-1791.303580281341
 10
251.4744004362634
 20
-1796.883945948349
 10
253.1997042552765
 20
-1800.01105912031
 10
258.3308294710076
 20
-1801.423892778811
 10
267.1618580468163
 20
-1803.855096662751
 10
275.9703643108903
 20
-1806.490250199419
 10
284.9425126105135
 20
-1808.256206145158
 10
296.1119428106292
 20
-1810.454521574296
 10
301.2254119119983
 20
-1806.965328866835
 10
303.6588551080046
 20
-1795.695388005937
 10
309.0385008993029
 20
-1770.78045745661
 10
313.9217514948703
 20
-1745.757695418595
 10
319.3782229154897
 20
-1720.860334856243
 10
321.9238039695408
 20
-1709.244850918175
 10
321.9421060393062
 20
-1697.335844844763
 10
324.7218674589671
 20
-1685.702446410171
 10
327.383763549339
 20
-1674.562730158616
 10
327.8422626947322
 20
-1662.914173303889
 10
329.6699289133508
 20
-1651.55362643173
 10
338.3284443327356
 20
-1597.735033780254
 10
346.1838218671216
 20
-1543.849261766815
 10
351.7217697959671
 20
-1489.566270243928
 10
360.5217925124096
 20
-1403.310639433246
 10
370.8987646235306
 20
-1317.214947180464
 10
380.8643062063238
 20
-1231.080669858247
 10
384.3468671049776
 20
-1200.979837074974
 10
388.8930151073133
 20
-1171.002338710072
 10
392.403352088316
 20
-1140.904606512736
 10
397.2491372704794
 20
-1099.35744397972
 10
401.3174505290109
 20
-1057.719675435442
 10
406.1843369210233
 20
-1016.174924469265
 10
412.9335373587911
 20
-958.5622481598839
 10
410.7866399797686
 20
-900.1975075060723
 10
422.2540709393602
 20
-842.9155603632748
 10
427.5422063818298
 20
-816.5002907301216
 10
428.1595674927864
 20
-789.1861956848669
 10
432.2171148279285
 20
-762.4805045023072
 10
440.6462299516893
 20
-707.0020648460379
 10
450.553118783848
 20
-651.7451448294702
 10
458.7340147778966
 20
-596.2322542183484
 10
466.4349228434607
 20
-543.9767013885304
 10
473.608386790237
 20
-491.6071158981505
 10
479.2948613981904
 20
-439.1017936456519
 10
483.5675549463823
 20
-399.6499381867648
 10
485.158672296245
 20
-359.9063046721216
 10
487.8709959717823
 20
-320.2873620822003
 10
492.008383394793
 20
-259.851085513108
 10
496.1739344733977
 20
-199.4161869822097
 10
500.1450099118561
 20
-138.9688861075646
 10
502.0550569762677
 20
-109.8946917788957
 10
503.8118834189709
 20
-80.80533903009165
 10
505.1422931679852
 20
-51.69979433250691
 10
505.440595373315
 20
-45.1735561681771
 10
505.5949787147471
 20
-38.63913590206982
 10
505.7074180186476
 20
-32.10277776975209
 10
505.7074180186476
 20
-32.10277776975209
 10
453.1029200798666
 20
-32.10277776975209
 10
453.1029200798666
 20
-32.10277776975209
 10
451.7361645734828
 20
-55.62560982902979
 10
450.3103687432157
 20
-79.14542742975824
 10
448.9008509891221
 20
-102.6651589030989
 97
        0
 97
        1
330
87
 75
     2
 76
     1
 98
        1
 10
0.0
 20
0.0
450
        0
451
        0
460
0.0
461
0.0
452
        0
462
0.0
453
        0
470

  0
SPLINE
  5
89
330
70
100
AcDbEntity
  8
14-2022-045
100
AcDbSpline
210
0.0
220
0.0
230
1.0
 70
     9
 71
     3
 72
   110
 73
   106
 74
     0
 42
0.0000000001
 43
0.0000000001
 40
0.0
 40
0.0
 40
0.0
 40
0.0
 40
1.0
 40
1.0
 40
1.0
 40
2.0
 40
2.0
 40
2.0
 40
3.0
 40
3.0
 40
3.0
 40
4.0
 40
4.0
 40
4.0
 40
5.0
 40
5.0
 40
5.0
 40
6.0
 40
6.0
 40
6.0
 40
7.0
 40
7.0
 40
7.0
 40
8.0
 40
8.0
 40
8.0
 40
9.0
 40
9.0
 40
9.0
 40
10.0
 40
10.0
 40
10.0
 40
11.0
 40
11.0
 40
11.0
 40
12.0
 40
12.0
 40
12.0
 40
13.0
 40
13.0
 40
13.0
 40
14.0
 40
14.0
 40
14.0
 40
15.0
 40
15.0
 40
15.0
 40
16.0
 40
16.0
 40
16.0
 40
17.0
 40
17.0
 40
17.0
 40
18.0
 40
18.0
 40
18.0
 40
19.0
 40
19.0
 40
19.0
 40
20.0
 40
20.0
 40
20.0
 40
21.0
 40
21.0
 40
21.0
 40
22.0
 40
22.0
 40
22.0
 40
23.0
 40
23.0
 40
23.0
 40
24.0
 40
24.0
 40
24.0
 40
25.0
 40
25.0
 40
25.0
 40
26.0
 40
26.0
 40
26.0
 40
27.0
 40
27.0
 40
27.0
 40
28.0
 40
28.0
 40
28.0
 40
29.0
 40
29.0
 40
29.0
 40
30.0
 40
30.0
 40
30.0
 40
31.0
 40
31.0
 40
31.0
 40
32.0
 40
32.0
 40
32.0
 40
33.0
 40
33.0
 40
33.0
 40
34.0
 40
34.0
 40
34.0
 40
35.0
 40
35.0
 40
35.0
 40
35.0
 10
353.4720936209429
 20
-188.1930994199113
 30
0.0
 10
351.2882906565356
 20
-230.9198626470769
 30
0.0
 10
348.4843705047843
 20
-273.6142419766811
 30
0.0
 10
346.0700906524148
 20
-316.3296363887453
 30
0.0
 10
344.0137562209627
 20
-352.7122562798232
 30
0.0
 10
343.2875731563656
 20
-389.2133659237489
 30
0.0
 10
339.9005705937359
 20
-425.4685172818726
 30
0.0
 10
333.5192202264075
 20
-493.7754589965668
 30
0.0
 10
325.5147992485909
 20
-561.9297829812643
 30
0.0
 10
318.4440852746642
 20
-630.1743684676753
 30
0.0
 10
314.6180052924393
 20
-667.1026914836168
 30
0.0
 10
311.5293910625256
 20
-704.1078401288794
 30
0.0
 10
307.729450742295
 20
-741.0392637307577
 30
0.0
 10
304.6755027857018
 20
-770.7197948648306
 30
0.0
 10
302.2741851050955
 20
-800.5453645188326
 30
0.0
 10
297.3899009808826
 20
-829.942019784921
 30
0.0
 10
290.3898114644034
 20
-872.0734705122353
 30
0.0
 10
281.0222523304606
 20
-913.8059791823577
 30
0.0
 10
273.3639342578309
 20
-955.8357995928572
 30
0.0
 10
267.0915780989172
 20
-990.2588491719251
 30
0.0
 10
261.4286162676507
 20
-1024.80626669801
 30
0.0
 10
256.2402163394773
 20
-1059.410183790054
 30
0.0
 10
249.8636029784413
 20
-1101.938509517269
 30
0.0
 10
244.2285464206052
 20
-1144.578800847755
 30
0.0
 10
238.331877924358
 20
-1187.178784561063
 30
0.0
 10
231.5996876455506
 20
-1235.815264583626
 30
0.0
 10
224.6953287198678
 20
-1284.429006975987
 30
0.0
 10
218.3167774926213
 20
-1333.111651278052
 30
0.0
 10
213.7680026049781
 20
-1367.829256521109
 30
0.0
 10
210.1146080339514
 20
-1402.662961482018
 30
0.0
 10
205.7904964356401
 20
-1437.411228074894
 30
0.0
 10
200.0458427776795
 20
-1483.574215666433
 30
0.0
 10
194.0734683081439
 20
-1529.709211857156
 30
0.0
 10
188.1206447554872
 20
-1575.845930595622
 30
0.0
 10
186.2558145693214
 20
-1590.29913968489
 30
0.0
 10
184.3355183458432
 20
-1604.750970735965
 30
0.0
 10
182.0801004590373
 20
-1619.14664673063
 30
0.0
 10
179.8938428640977
 20
-1633.100661484086
 30
0.0
 10
179.0361432793515
 20
-1647.21866278264
 30
0.0
 10
176.3963388637788
 20
-1661.120656594268
 30
0.0
 10
174.6936434838874
 20
-1670.087895632825
 30
0.0
 10
173.5485798719774
 20
-1679.179502618399
 30
0.0
 10
172.5531625952084
 20
-1688.259396279324
 30
0.0
 10
169.4582180023403
 20
-1716.490920252301
 30
0.0
 10
166.5755343550575
 20
-1744.746215384126
 30
0.0
 10
163.5589226207856
 20
-1772.986696605364
 30
0.0
 10
162.9011677652643
 20
-1779.1444602757
 30
0.0
 10
165.4994587802397
 20
-1781.901225682997
 30
0.0
 10
171.6911135774117
 20
-1782.583010079528
 30
0.0
 10
181.4961567742874
 20
-1783.661669475959
 30
0.0
 10
191.329794263691
 20
-1784.930842652726
 30
0.0
 10
200.9656832722412
 20
-1786.989287205162
 30
0.0
 10
214.9676279166357
 20
-1789.979974595908
 30
0.0
 10
214.6514542784769
 20
-1789.956547946608
 30
0.0
 10
217.6630275606016
 20
-1775.771367286092
 30
0.0
 10
223.7151129269271
 20
-1747.262513126552
 30
0.0
 10
221.3164221316284
 20
-1718.011929909039
 30
0.0
 10
225.9553723935979
 20
-1689.406613075912
 30
0.0
 10
227.8848842474993
 20
-1677.507942288956
 30
0.0
 10
229.4965860428863
 20
-1665.558284088819
 30
0.0
 10
231.2423020526495
 20
-1653.629640971141
 30
0.0
 10
234.0305470199429
 20
-1634.578951956807
 30
0.0
 10
237.0944426897498
 20
-1615.563402916421
 30
0.0
 10
239.5387379365346
 20
-1596.468272170327
 30
0.0
 10
246.310977450358
 20
-1543.56331884154
 30
0.0
 10
253.0388613598089
 20
-1490.651475321781
 30
0.0
 10
259.3692243139555
 20
-1437.69234786649
 30
0.0
 10
264.2776671702587
 20
-1396.628876739603
 30
0.0
 10
268.0616308601764
 20
-1355.427946302855
 30
0.0
 10
273.2525715462702
 20
-1314.402715735854
 30
0.0
 10
279.3270930969434
 20
-1266.393932110704
 30
0.0
 10
286.6965829768285
 20
-1218.550513068845
 30
0.0
 10
292.9231193657884
 20
-1170.559988449766
 30
0.0
 10
298.3964286905919
 20
-1128.374449723334
 30
0.0
 10
302.7577042564503
 20
-1086.044906005617
 30
0.0
 10
308.2154675878767
 20
-1043.857300221893
 30
0.0
 10
311.2574438376587
 20
-1020.343145496869
 30
0.0
 10
315.1647419459485
 20
-996.9223528594953
 30
0.0
 10
319.3537196738508
 20
-973.580108399185
 30
0.0
 10
324.0396524255005
 20
-947.4700742260251
 30
0.0
 10
329.2487229265854
 20
-921.4472009686419
 30
0.0
 10
334.6678150611899
 20
-895.4773821817315
 30
0.0
 10
339.936141204621
 20
-870.2299999180782
 30
0.0
 10
347.3149759060098
 20
-845.3209260310762
 30
0.0
 10
350.9629444516473
 20
-819.8616703950799
 30
0.0
 10
356.0910552088298
 20
-784.0733294752076
 30
0.0
 10
358.3636124456749
 20
-747.8843239504007
 30
0.0
 10
362.3334821007134
 20
-711.9189051225864
 30
0.0
 10
369.9908527720856
 20
-642.5474289029502
 30
0.0
 10
377.8030804855199
 20
-573.1921446320946
 30
0.0
 10
385.8831643729322
 20
-503.8685552397032
 30
0.0
 10
394.3885452979948
 20
-430.8966097284322
 30
0.0
 10
395.8044364787399
 20
-357.5657067994429
 30
0.0
 10
398.0860370912357
 20
-284.2513187969385
 30
0.0
 10
400.0383727027267
 20
-221.5171635391845
 30
0.0
 10
401.0092006104701
 20
-158.6572622962189
 30
0.0
 10
405.9659178672585
 20
-96.13463590125931
 30
0.0
 10
407.6578042600647
 20
-74.79345362170963
 30
0.0
 10
409.2512470493818
 20
-53.44988130716704
 30
0.0
 10
410.7536962541918
 20
-32.10277776975209
 30
0.0
 10
410.7536962541918
 20
-32.10277776975209
 30
0.0
 10
360.8930015509453
 20
-32.10277776975209
 30
0.0
 10
360.8930015509453
 20
-32.10277776975209
 30
0.0
 10
358.4015515597052
 20
-84.13198782618923
 30
0.0
 10
356.130889125377
 20
-136.1725021021873
 30
0.0
 10
353.4720936209429
 20
-188.1930994199113
 30
0.0
  0
HATCH
  5
8A
330
70
100
AcDbEntity
  8
14-2022-045
 62
    18
420
        0
440
 33554687
100
AcDbHatch
 10
0.0
 20
0.0
 30
0.0
210
0.0
220
0.0
230
1.0
  2
SOLID
 70
     1
 71
     1
 91
        1
 92
        1
 93
        1
 72
     4
 94
        3
 73
     0
 74
     0
 95
      110
 96
      106
 40
0.0
 40
0.0
 40
0.0
 40
0.0
 40
1.0
 40
1.0
 40
1.0
 40
2.0
 40
2.0
 40
2.0
 40
3.0
 40
3.0
 40
3.0
 40
4.0
 40
4.0
 40
4.0
 40
5.0
 40
5.0
 40
5.0
 40
6.0
 40
6.0
 40
6.0
 40
7.0
 40
7.0
 40
7.0
 40
8.0
 40
8.0
 40
8.0
 40
9.0
 40
9.0
 40
9.0
 40
10.0
 40
10.0
 40
10.0
 40
11.0
 40
11.0
 40
11.0
 40
12.0
 40
12.0
 40
12.0
 40
13.0
 40
13.0
 40
13.0
 40
14.0
 40
14.0
 40
14.0
 40
15.0
 40
15.0
 40
15.0
 40
16.0
 40
16.0
 40
16.0
 40
17.0
 40
17.0
 40
17.0
 40
18.0
 40
18.0
 40
18.0
 40
19.0
 40
19.0
 40
19.0
 40
20.0
 40
20.0
 40
20.0
 40
21.0
 40
21.0
 40
21.0
 40
22.0
 40
22.0
 40
22.0
 40
23.0
 40
23.0
 40
23.0
 40
24.0
 40
24.0
 40
24.0
 40
25.0
 40
25.0
 40
25.0
 40
26.0
 40
26.0
 40
26.0
 40
27.0
 40
27.0
 40
27.0
 40
28.0
 40
28.0
 40
28.0
 40
29.0
 40
29.0
 40
29.0
 40
30.0
 40
30.0
 40
30.0
 40
31.0
 40
31.0
 40
31.0
 40
32.0
 40
32.0
 40
32.0
 40
33.0
 40
33.0
 40
33.0
 40
34.0
 40
34.0
 40
34.0
 40
35.0
 40
35.0
 40
35.0
 40
35.0
 10
353.4720936209429
 20
-188.1930994199113
 10
351.2882906565356
 20
-230.9198626470769
 10
348.4843705047843
 20
-273.6142419766811
 10
346.0700906524148
 20
-316.3296363887453
 10
344.0137562209627
 20
-352.7122562798232
 10
343.2875731563656
 20
-389.2133659237489
 10
339.9005705937359
 20
-425.4685172818726
 10
333.5192202264075
 20
-493.7754589965668
 10
325.5147992485909
 20
-561.9297829812643
 10
318.4440852746642
 20
-630.1743684676753
 10
314.6180052924393
 20
-667.1026914836168
 10
311.5293910625256
 20
-704.1078401288794
 10
307.729450742295
 20
-741.0392637307577
 10
304.6755027857018
 20
-770.7197948648306
 10
302.2741851050955
 20
-800.5453645188326
 10
297.3899009808826
 20
-829.942019784921
 10
290.3898114644034
 20
-872.0734705122353
 10
281.0222523304606
 20
-913.8059791823577
 10
273.3639342578309
 20
-955.8357995928572
 10
267.0915780989172
 20
-990.2588491719251
 10
261.4286162676507
 20
-1024.80626669801
 10
256.2402163394773
 20
-1059.410183790054
 10
249.8636029784413
 20
-1101.938509517269
 10
244.2285464206052
 20
-1144.578800847755
 10
238.331877924358
 20
-1187.178784561063
 10
231.5996876455506
 20
-1235.815264583626
 10
224.6953287198678
 20
-1284.429006975987
 10
218.3167774926213
 20
-1333.111651278052
 10
213.7680026049781
 20
-1367.829256521109
 10
210.1146080339514
 20
-1402.662961482018
 10
205.7904964356401
 20
-1437.411228074894
 10
200.0458427776795
 20
-1483.574215666433
 10
194.0734683081439
 20
-1529.709211857156
 10
188.1206447554872
 20
-1575.845930595622
 10
186.2558145693214
 20
-1590.29913968489
 10
184.3355183458432
 20
-1604.750970735965
 10
182.0801004590373
 20
-1619.14664673063
 10
179.8938428640977
 20
-1633.100661484086
 10
179.0361432793515
 20
-1647.21866278264
 10
176.3963388637788
 20
-1661.120656594268
 10
174.6936434838874
 20
-1670.087895632825
 10
173.5485798719774
 20
-1679.179502618399
 10
172.5531625952084
 20
-1688.259396279324
 10
169.4582180023403
 20
-1716.490920252301
 10
166.5755343550575
 20
-1744.746215384126
 10
163.5589226207856
 20
-1772.986696605364
 10
162.9011677652643
 20
-1779.1444602757
 10
165.4994587802397
 20
-1781.901225682997
 10
171.6911135774117
 20
-1782.583010079528
 10
181.4961567742874
 20
-1783.661669475959
 10
191.329794263691
 20
-1784.930842652726
 10
200.9656832722412
 20
-1786.989287205162
 10
214.9676279166357
 20
-1789.979974595908
 10
214.6514542784769
 20
-1789.956547946608
 10
217.6630275606016
 20
-1775.771367286092
 10
223.7151129269271
 20
-1747.262513126552
 10
221.3164221316284
 20
-1718.011929909039
 10
225.9553723935979
 20
-1689.406613075912
 10
227.8848842474993
 20
-1677.507942288956
 10
229.4965860428863
 20
-1665.558284088819
 10
231.2423020526495
 20
-1653.629640971141
 10
234.0305470199429
 20
-1634.578951956807
 10
237.0944426897498
 20
-1615.563402916421
 10
239.5387379365346
 20
-1596.468272170327
 10
246.310977450358
 20
-1543.56331884154
 10
253.0388613598089
 20
-1490.651475321781
 10
259.3692243139555
 20
-1437.69234786649
 10
264.2776671702587
 20
-1396.628876739603
 10
268.0616308601764
 20
-1355.427946302855
 10
273.2525715462702
 20
-1314.402715735854
 10
279.3270930969434
 20
-1266.393932110704
 10
286.6965829768285
 20
-1218.550513068845
 10
292.9231193657884
 20
-1170.559988449766
 10
298.3964286905919
 20
-1128.374449723334
 10
302.7577042564503
 20
-1086.044906005617
 10
308.2154675878767
 20
-1043.857300221893
 10
311.2574438376587
 20
-1020.343145496869
 10
315.1647419459485
 20
-996.9223528594953
 10
319.3537196738508
 20
-973.580108399185
 10
324.0396524255005
 20
-947.4700742260251
 10
329.2487229265854
 20
-921.4472009686419
 10
334.6678150611899
 20
-895.4773821817315
 10
339.936141204621
 20
-870.2299999180782
 10
347.3149759060098
 20
-845.3209260310762
 10
350.9629444516473
 20
-819.8616703950799
 10
356.0910552088298
 20
-784.0733294752076
 10
358.3636124456749
 20
-747.8843239504007
 10
362.3334821007134
 20
-711.9189051225864
 10
369.9908527720856
 20
-642.5474289029502
 10
377.8030804855199
 20
-573.1921446320946
 10
385.8831643729322
 20
-503.8685552397032
 10
394.3885452979948
 20
-430.8966097284322
 10
395.8044364787399
 20
-357.5657067994429
 10
398.0860370912357
 20
-284.2513187969385
 10
400.0383727027267
 20
-221.5171635391845
 10
401.0092006104701
 20
-158.6572622962189
 10
405.9659178672585
 20
-96.13463590125931
 10
407.6578042600647
 20
-74.79345362170963
 10
409.2512470493818
 20
-53.44988130716704
 10
410.7536962541918
 20
-32.10277776975209
 10
410.7536962541918
 20
-32.10277776975209
 10
360.8930015509453
 20
-32.10277776975209
 10
360.8930015509453
 20
-32.10277776975209
 10
358.4015515597052
 20
-84.13198782618923
 10
356.130889125377
 20
-136.1725021021873
 10
353.4720936209429
 20
-188.1930994199113
 97
        0
 97
        1
330
89
 75
     2
 76
     1
 98
        1
 10
0.0
 20
0.0
450
        0
451
        0
460
0.0
461
0.0
452
        0
462
0.0
453
        0
470

  0
SPLINE
  5
8B
330
70
100
AcDbEntity
  8
14-2022-045
100
AcDbSpline
210
0.0
220
0.0
230
1.0
 70
     9
 71
     3
 72
    98
 73
    94
 74
     0
 42
0.0000000001
 43
0.0000000001
 40
0.0
 40
0.0
 40
0.0
 40
0.0
 40
1.0
 40
1.0
 40
1.0
 40
2.0
 40
2.0
 40
2.0
 40
3.0
 40
3.0
 40
3.0
 40
4.0
 40
4.0
 40
4.0
 40
5.0
 40
5.0
 40
5.0
 40
6.0
 40
6.0
 40
6.0
 40
7.0
 40
7.0
 40
7.0
 40
8.0
 40
8.0
 40
8.0
 40
9.0
 40
9.0
 40
9.0
 40
10.0
 40
10.0
 40
10.0
 40
11.0
 40
11.0
 40
11.0
 40
12.0
 40
12.0
 40
12.0
 40
13.0
 40
13.0
 40
13.0
 40
14.0
 40
14.0
 40
14.0
 40
15.0
 40
15.0
 40
15.0
 40
16.0
 40
16.0
 40
16.0
 40
17.0
 40
17.0
 40
17.0
 40
18.0
 40
18.0
 40
18.0
 40
19.0
 40
19.0
 40
19.0
 40
20.0
 40
20.0
 40
20.0
 40
21.0
 40
21.0
 40
21.0
 40
22.0
 40
22.0
 40
22.0
 40
23.0
 40
23.0
 40
23.0
 40
24.0
 40
24.0
 40
24.0
 40
25.0
 40
25.0
 40
25.0
 40
26.0
 40
26.0
 40
26.0
 40
27.0
 40
27.0
 40
27.0
 40
28.0
 40
28.0
 40
28.0
 40
29.0
 40
29.0
 40
29.0
 40
30.0
 40
30.0
 40
30.0
 40
31.0
 40
31.0
 40
31.0
 40
31.0
 10
261.0326456053148
 20
-55.99755095035608
 30
0.0
 10
257.7487375250811
 20
-106.645277717208
 30
0.0
 10
256.0273525021824
 20
-157.3936012722293
 30
0.0
 10
252.9310298711206
 20
-208.0551084210223
 30
0.0
 10
249.8363436604142
 20
-258.6897438250303
 30
0.0
 10
246.1127552688755
 20
-309.2888947455402
 30
0.0
 10
242.2426641918265
 20
-359.8711646981721
 30
0.0
 10
238.6216104546675
 20
-407.1998649426898
 30
0.0
 10
234.2561146468396
 20
-454.4717426435455
 30
0.0
 10
230.5654269171851
 20
-501.7952967766798
 30
0.0
 10
226.1454124733031
 20
-558.4702180949764
 30
0.0
 10
222.1112917874627
 20
-615.1747672344461
 30
0.0
 10
217.869302652781
 20
-671.8634689346836
 30
0.0
 10
216.8713015543976
 20
-685.2001225771828
 30
0.0
 10
216.2748208712585
 20
-698.6011995052562
 30
0.0
 10
214.4933674593975
 20
-711.8376008691345
 30
0.0
 10
211.7094288614607
 20
-732.5226431816717
 30
0.0
 10
207.5867692216493
 20
-753.0309520958154
 30
0.0
 10
204.9502376467876
 20
-773.7311528284875
 30
0.0
 10
202.8449397957515
 20
-790.2603764571678
 30
0.0
 10
202.9399813674508
 20
-807.0834667307398
 30
0.0
 10
200.5837083103142
 20
-823.564803532175
 30
0.0
 10
196.3662654809649
 20
-853.0648116628208
 30
0.0
 10
190.8532083670002
 20
-882.3767175799719
 30
0.0
 10
186.2161098438539
 20
-911.8198816351112
 30
0.0
 10
178.1408921538155
 20
-963.0925487229875
 30
0.0
 10
170.6329955628105
 20
-1014.456855350771
 30
0.0
 10
162.2832468262915
 20
-1065.684391687791
 30
0.0
 10
156.5817429892834
 20
-1100.664168697275
 30
0.0
 10
149.4128868577208
 20
-1135.404511570534
 30
0.0
 10
143.709574345583
 20
-1170.384288580019
 30
0.0
 10
138.0792547940392
 20
-1204.91620317642
 30
0.0
 10
133.4712673277433
 20
-1239.61451588476
 30
0.0
 10
128.4068908370389
 20
-1274.238759040166
 30
0.0
 10
120.1126512015256
 20
-1330.945030727378
 30
0.0
 10
111.5945664868583
 20
-1387.619952045675
 30
0.0
 10
103.5709821654053
 20
-1444.364464292774
 30
0.0
 10
94.1546749303462
 20
-1510.95790164049
 30
0.0
 10
85.17184683471866
 20
-1577.612231050909
 30
0.0
 10
75.9858011691546
 20
-1644.23831067835
 30
0.0
 10
74.51272140335565
 20
-1654.922585306755
 30
0.0
 10
72.83241914411829
 20
-1665.579643680827
 30
0.0
 10
71.47057289879902
 20
-1676.277354181625
 30
0.0
 10
68.06574196703336
 20
-1703.025420038653
 30
0.0
 10
64.75427312291734
 20
-1729.785199220331
 30
0.0
 10
61.49077723343405
 20
-1756.550835064335
 30
0.0
 10
60.87027247284667
 20
-1761.639930115145
 30
0.0
 10
63.37963696060941
 20
-1764.514517788038
 30
0.0
 10
68.47833521508528
 20
-1765.226619024839
 30
0.0
 10
80.57148164218352
 20
-1766.914715812611
 30
0.0
 10
92.62475108904
 20
-1768.952834301686
 30
0.0
 10
104.7565256492669
 20
-1770.27850704441
 30
0.0
 10
113.3615990249368
 20
-1771.219018111883
 30
0.0
 10
114.7355031044544
 20
-1770.033560755408
 30
0.0
 10
115.5997053069294
 20
-1761.509360996254
 30
0.0
 10
118.3820936118975
 20
-1734.066419379852
 30
0.0
 10
120.5444939206017
 20
-1706.556298401486
 30
0.0
 10
123.6526160037008
 20
-1679.152286364066
 30
0.0
 10
125.2224168252482
 20
-1665.311959761623
 30
0.0
 10
128.6996808895919
 20
-1651.699009461207
 30
0.0
 10
130.6515428004534
 20
-1637.889688718132
 30
0.0
 10
139.5612056807133
 20
-1574.854432114967
 30
0.0
 10
148.3142889711679
 20
-1511.796782391148
 30
0.0
 10
156.971986180375
 20
-1448.726385814033
 30
0.0
 10
165.1794524733539
 20
-1388.935289501943
 30
0.0
 10
172.782605954526
 20
-1329.058496439656
 30
0.0
 10
181.4183837437079
 20
-1269.330186992782
 30
0.0
 10
189.9228603312085
 20
-1210.510349225369
 30
0.0
 10
199.2907209110063
 20
-1151.813845876328
 30
0.0
 10
208.4637613411132
 20
-1093.091848820696
 30
0.0
 10
216.728502346534
 20
-1040.184483925068
 30
0.0
 10
225.3913241352754
 20
-987.3387862386273
 30
0.0
 10
233.6030967976105
 20
-934.4231531138353
 30
0.0
 10
241.1305873691878
 20
-885.9175867197118
 30
0.0
 10
248.7987239639505
 20
-837.4240781597865
 30
0.0
 10
255.4445715371588
 20
-788.7941438186454
 30
0.0
 10
260.4376345513186
 20
-752.2582171784738
 30
0.0
 10
264.5489684397221
 20
-715.5731179037909
 30
0.0
 10
267.9254634611219
 20
-678.8508115978673
 30
0.0
 10
275.0282168230615
 20
-601.6035025894013
 30
0.0
 10
281.5976694038844
 20
-524.3055506773023
 30
0.0
 10
287.9925417709923
 20
-446.9958854405533
 30
0.0
 10
293.4571522296956
 20
-380.9320453963054
 30
0.0
 10
298.9532422483954
 20
-314.8623702215774
 30
0.0
 10
303.3750223037135
 20
-248.7241161148481
 30
0.0
 10
308.2000077218867
 20
-176.5547055968661
 30
0.0
 10
311.2500584142122
 20
-104.2659009884734
 30
0.0
 10
316.1511373789158
 20
-32.10277776975209
 30
0.0
 10
316.1511373789158
 20
-32.10277776975209
 30
0.0
 10
262.6124802674632
 20
-32.10277776975209
 30
0.0
 10
262.6124802674632
 20
-32.10277776975209
 30
0.0
 10
262.068628881423
 20
-40.06682653485092
 30
0.0
 10
261.5490869504005
 20
-48.03253325215202
 30
0.0
 10
261.0326456053148
 20
-55.99755095035608
 30
0.0
  0
HATCH
  5
8C
330
70
100
AcDbEntity
  8
14-2022-045
 62
    18
420
        0
440
 33554687
100
AcDbHatch
 10
0.0
 20
0.0
 30
0.0
210
0.0
220
0.0
230
1.0
  2
SOLID
 70
     1
 71
     1
 91
        1
 92
        1
 93
        1
 72
     4
 94
        3
 73
     0
 74
     0
 95
       98
 96
       94
 40
0.0
 40
0.0
 40
0.0
 40
0.0
 40
1.0
 40
1.0
 40
1.0
 40
2.0
 40
2.0
 40
2.0
 40
3.0
 40
3.0
 40
3.0
 40
4.0
 40
4.0
 40
4.0
 40
5.0
 40
5.0
 40
5.0
 40
6.0
 40
6.0
 40
6.0
 40
7.0
 40
7.0
 40
7.0
 40
8.0
 40
8.0
 40
8.0
 40
9.0
 40
9.0
 40
9.0
 40
10.0
 40
10.0
 40
10.0
 40
11.0
 40
11.0
 40
11.0
 40
12.0
 40
12.0
 40
12.0
 40
13.0
 40
13.0
 40
13.0
 40
14.0
 40
14.0
 40
14.0
 40
15.0
 40
15.0
 40
15.0
 40
16.0
 40
16.0
 40
16.0
 40
17.0
 40
17.0
 40
17.0
 40
18.0
 40
18.0
 40
18.0
 40
19.0
 40
19.0
 40
19.0
 40
20.0
 40
20.0
 40
20.0
 40
21.0
 40
21.0
 40
21.0
 40
22.0
 40
22.0
 40
22.0
 40
23.0
 40
23.0
 40
23.0
 40
24.0
 40
24.0
 40
24.0
 40
25.0
 40
25.0
 40
25.0
 40
26.0
 40
26.0
 40
26.0
 40
27.0
 40
27.0
 40
27.0
 40
28.0
 40
28.0
 40
28.0
 40
29.0
 40
29.0
 40
29.0
 40
30.0
 40
30.0
 40
30.0
 40
31.0
 40
31.0
 40
31.0
 40
31.0
 10
261.0326456053148
 20
-55.99755095035608
 10
257.7487375250811
 20
-106.645277717208
 10
256.0273525021824
 20
-157.3936012722293
 10
252.9310298711206
 20
-208.0551084210223
 10
249.8363436604142
 20
-258.6897438250303
 10
246.1127552688755
 20
-309.2888947455402
 10
242.2426641918265
 20
-359.8711646981721
 10
238.6216104546675
 20
-407.1998649426898
 10
234.2561146468396
 20
-454.4717426435455
 10
230.5654269171851
 20
-501.7952967766798
 10
226.1454124733031
 20
-558.4702180949764
 10
222.1112917874627
 20
-615.1747672344461
 10
217.869302652781
 20
-671.8634689346836
 10
216.8713015543976
 20
-685.2001225771828
 10
216.2748208712585
 20
-698.6011995052562
 10
214.4933674593975
 20
-711.8376008691345
 10
211.7094288614607
 20
-732.5226431816717
 10
207.5867692216493
 20
-753.0309520958154
 10
204.9502376467876
 20
-773.7311528284875
 10
202.8449397957515
 20
-790.2603764571678
 10
202.9399813674508
 20
-807.0834667307398
 10
200.5837083103142
 20
-823.564803532175
 10
196.3662654809649
 20
-853.0648116628208
 10
190.8532083670002
 20
-882.3767175799719
 10
186.2161098438539
 20
-911.8198816351112
 10
178.1408921538155
 20
-963.0925487229875
 10
170.6329955628105
 20
-1014.456855350771
 10
162.2832468262915
 20
-1065.684391687791
 10
156.5817429892834
 20
-1100.664168697275
 10
149.4128868577208
 20
-1135.404511570534
 10
143.709574345583
 20
-1170.384288580019
 10
138.0792547940392
 20
-1204.91620317642
 10
133.4712673277433
 20
-1239.61451588476
 10
128.4068908370389
 20
-1274.238759040166
 10
120.1126512015256
 20
-1330.945030727378
 10
111.5945664868583
 20
-1387.619952045675
 10
103.5709821654053
 20
-1444.364464292774
 10
94.1546749303462
 20
-1510.95790164049
 10
85.17184683471866
 20
-1577.612231050909
 10
75.9858011691546
 20
-1644.23831067835
 10
74.51272140335565
 20
-1654.922585306755
 10
72.83241914411829
 20
-1665.579643680827
 10
71.47057289879902
 20
-1676.277354181625
 10
68.06574196703336
 20
-1703.025420038653
 10
64.75427312291734
 20
-1729.785199220331
 10
61.49077723343405
 20
-1756.550835064335
 10
60.87027247284667
 20
-1761.639930115145
 10
63.37963696060941
 20
-1764.514517788038
 10
68.47833521508528
 20
-1765.226619024839
 10
80.57148164218352
 20
-1766.914715812611
 10
92.62475108904
 20
-1768.952834301686
 10
104.7565256492669
 20
-1770.27850704441
 10
113.3615990249368
 20
-1771.219018111883
 10
114.7355031044544
 20
-1770.033560755408
 10
115.5997053069294
 20
-1761.509360996254
 10
118.3820936118975
 20
-1734.066419379852
 10
120.5444939206017
 20
-1706.556298401486
 10
123.6526160037008
 20
-1679.152286364066
 10
125.2224168252482
 20
-1665.311959761623
 10
128.6996808895919
 20
-1651.699009461207
 10
130.6515428004534
 20
-1637.889688718132
 10
139.5612056807133
 20
-1574.854432114967
 10
148.3142889711679
 20
-1511.796782391148
 10
156.971986180375
 20
-1448.726385814033
 10
165.1794524733539
 20
-1388.935289501943
 10
172.782605954526
 20
-1329.058496439656
 10
181.4183837437079
 20
-1269.330186992782
 10
189.9228603312085
 20
-1210.510349225369
 10
199.2907209110063
 20
-1151.813845876328
 10
208.4637613411132
 20
-1093.091848820696
 10
216.728502346534
 20
-1040.184483925068
 10
225.3913241352754
 20
-987.3387862386273
 10
233.6030967976105
 20
-934.4231531138353
 10
241.1305873691878
 20
-885.9175867197118
 10
248.7987239639505
 20
-837.4240781597865
 10
255.4445715371588
 20
-788.7941438186454
 10
260.4376345513186
 20
-752.2582171784738
 10
264.5489684397221
 20
-715.5731179037909
 10
267.9254634611219
 20
-678.8508115978673
 10
275.0282168230615
 20
-601.6035025894013
 10
281.5976694038844
 20
-524.3055506773023
 10
287.9925417709923
 20
-446.9958854405533
 10
293.4571522296956
 20
-380.9320453963054
 10
298.9532422483954
 20
-314.8623702215774
 10
303.3750223037135
 20
-248.7241161148481
 10
308.2000077218867
 20
-176.5547055968661
 10
311.2500584142122
 20
-104.2659009884734
 10
316.1511373789158
 20
-32.10277776975209
 10
316.1511373789158
 20
-32.10277776975209
 10
262.6124802674632
 20
-32.10277776975209
 10
262.6124802674632
 20
-32.10277776975209
 10
262.068628881423
 20
-40.06682653485092
 10
261.5490869504005
 20
-48.03253325215202
 10
261.0326456053148
 20
-55.99755095035608
 97
        0
 97
        1
330
8B
 75
     2
 76
     1
 98
        1
 10
0.0
 20
0.0
450
        0
451
        0
460
0.0
461
0.0
452
        0
462
0.0
453
        0
470

  0
ELLIPSE
  5
9A
330
70
100
AcDbEntity
  8
Screws
100
AcDbEllipse
 10
17.37430555121166
 20
-1982.258332837769
 30
0.0
 11
2.557638888249479
 21
0.0
 31
0.0
210
0.0
220
0.0
230
1.0
 40
0.9655172413793103
 41
0.0
 42
6.283185307179586
  0
HATCH
  5
9B
330
70
100
AcDbEntity
  8
Screws
 62
    18
420
        0
440
 33554687
100
AcDbHatch
 10
0.0
 20
0.0
 30
0.0
210
0.0
220
0.0
230
1.0
  2
SOLID
 70
     1
 71
     1
 91
        1
 92
        1
 93
        1
 72
     3
 10
17.37430555121166
 20
-1982.258332837769
 11
2.557638888249479
 21
0.0
 40
0.9655172413793103
 50
0.0
 51
360.0
 73
     1
 97
        1
330
9A
 75
     2
 76
     1
 98
        1
 10
0.0
 20
0.0
450
        0
451
        0
460
0.0
461
0.0
452
        0
462
0.0
453
        0
470

  0
ELLIPSE
  5
9C
330
70
100
AcDbEntity
  8
Screws
100
AcDbEllipse
 10
982.6519442919968
 20
-1982.640929460185
 30
0.0
 11
2.557638888249479
 21
0.0
 31
0.0
210
0.0
220
0.0
230
1.0
 40
0.9655172413793103
 41
0.0
 42
6.283185307179586
  0
HATCH
  5
9D
330
70
100
AcDbEntity
  8
Screws
 62
    18
420
        0
440
 33554687
100
AcDbHatch
 10
0.0
 20
0.0
 30
0.0
210
0.0
220
0.0
230
1.0
  2
SOLID
 70
     1
 71
     1
 91
        1
 92
        1
 93
        1
 72
     3
 10
982.6519442919968
 20
-1982.640929460185
 11
2.557638888249479
 21
0.0
 40
0.9655172413793103
 50
0.0
 51
360.0
 73
     1
 97
        1
330
9C
 75
     2
 76
     1
 98
        1
 10
0.0
 20
0.0
450
        0
451
        0
460
0.0
461
0.0
452
        0
462
0.0
453
        0
470

  0
ELLIPSE
  5
9E
330
70
100
AcDbEntity
  8
Screws
100
AcDbEllipse
 10
982.6519442919968
 20
-17.43226955226426
 30
0.0
 11
2.557638888249479
 21
0.0
 31
0.0
210
0.0
220
0.0
230
1.0
 40
0.9655172413793103
 41
0.0
 42
6.283185307179586
  0
HATCH
  5
9F
330
70
100
AcDbEntity
  8
Screws
 62
    18
420
        0
440
 33554687
100
AcDbHatch
 10
0.0
 20
0.0
 30
0.0
210
0.0
220
0.0
230
1.0
  2
SOLID
 70
     1
 71
     1
 91
        1
 92
        1
 93
        1
 72
     3
 10
982.6519442919968
 20
-17.43226955226426
 11
2.557638888249479
 21
0.0
 40
0.9655172413793103
 50
0.0
 51
360.0
 73
     1
 97
        1
330
9E
 75
     2
 76
     1
 98
        1
 10
0.0
 20
0.0
450
        0
451
        0
460
0.0
461
0.0
452
        0
462
0.0
453
        0
470

  0
ELLIPSE
  5
A0
330
70
100
AcDbEntity
  8
Screws
100
AcDbEllipse
 10
17.46670788238472
 20
-17.43226955226426
 30
0.0
 11
2.557638888249479
 21
0.0
 31
0.0
210
0.0
220
0.0
230
1.0
 40
0.9655172413793103
 41
0.0
 42
6.283185307179586
  0
HATCH
  5
A1
330
70
100
AcDbEntity
  8
Screws
 62
    18
420
        0
440
 33554687
100
AcDbHatch
 10
0.0
 20
0.0
 30
0.0
210
0.0
220
0.0
230
1.0
  2
SOLID
 70
     1
 71
     1
 91
        1
 92
        1
 93
        1
 72
     3
 10
17.46670788238472
 20
-17.43226955226426
 11
2.557638888249479
 21
0.0
 40
0.9655172413793103
 50
0.0
 51
360.0
 73
     1
 97
        1
330
A0
 75
     2
 76
     1
 98
        1
 10
0.0
 20
0.0
450
        0
451
        0
460
0.0
461
0.0
452
        0
462
0.0
453
        0
470

  0
ENDSEC
  0
SECTION
  2
OBJECTS
  0
DICTIONARY
  5
C
330
0
100
AcDbDictionary
281
     1
  3
ACAD_COLOR
350
63
  3
ACAD_DETAILVIEWSTYLE
350
6A
  3
ACAD_GROUP
350
D
  3
ACAD_LAYOUT
350
62
  3
ACAD_MATERIAL
350
10
  3
ACAD_MLEADERSTYLE
350
66
  3
ACAD_MLINESTYLE
350
5F
  3
ACAD_PLOTSETTINGS
350
61
  3
ACAD_PLOTSTYLENAME
350
E
  3
ACAD_SCALELIST
350
42
  3
ACAD_SECTIONVIEWSTYLE
350
68
  3
ACAD_TABLESTYLE
350
64
  3
ACAD_VISUALSTYLE
350
29
  3
ACDB_RECOMPOSE_DATA
350
AA
  3
AcDbVariableDictionary
350
A2
  0
DICTIONARY
  5
63
102
{ACAD_REACTORS
330
C
102
}
330
C
100
AcDbDictionary
281
     1
  0
DICTIONARY
  5
6A
102
{ACAD_REACTORS
330
C
102
}
330
C
100
AcDbDictionary
281
     1
  3
Imperial24
350
6B
  0
DICTIONARY
  5
D
102
{ACAD_REACTORS
330
C
102
}
330
C
100
AcDbDictionary
281
     1
  0
DICTIONARY
  5
62
102
{ACAD_REACTORS
330
C
102
}
330
C
100
AcDbDictionary
281
     1
  3
Layout1
350
6F
  3
Layout2
350
77
  3
Model
350
73
  0
DICTIONARY
  5
10
102
{ACAD_REACTORS
330
C
102
}
330
C
100
AcDbDictionary
281
     1
  3
ByBlock
350
19
  3
ByLayer
350
11
  3
Global
350
21
  0
DICTIONARY
  5
66
102
{ACAD_REACTORS
330
C
102
}
330
C
100
AcDbDictionary
281
     1
  3
Standard
350
67
  0
DICTIONARY
  5
5F
102
{ACAD_REACTORS
330
C
102
}
330
C
100
AcDbDictionary
281
     1
  3
Standard
350
60
  0
DICTIONARY
  5
61
102
{ACAD_REACTORS
330
C
102
}
330
C
100
AcDbDictionary
281
     1
  0
ACDBDICTIONARYWDFLT
  5
E
102
{ACAD_REACTORS
330
C
102
}
330
C
100
AcDbDictionary
281
     1
  3
Normal
350
F
100
AcDbDictionaryWithDefault
340
F
  0
DICTIONARY
  5
42
102
{ACAD_REACTORS
330
C
102
}
330
C
100
AcDbDictionary
281
     1
  3
A0
350
43
  3
A1
350
44
  3
A2
350
45
  3
A3
350
46
  3
A4
350
47
  3
A5
350
48
  3
A6
350
49
  3
A7
350
4A
  3
A8
350
4B
  3
A9
350
4C
  3
B0
350
4D
  3
B1
350
4E
  3
B2
350
4F
  3
B3
350
50
  3
B4
350
51
  3
B5
350
52
  3
B6
350
53
  0
DICTIONARY
  5
68
102
{ACAD_REACTORS
330
C
102
}
330
C
100
AcDbDictionary
281
     1
  3
Imperial24
350
69
  0
DICTIONARY
  5
64
102
{ACAD_REACTORS
330
C
102
}
330
C
100
AcDbDictionary
281
     1
  3
Standard
350
65
  0
DICTIONARY
  5
29
102
{ACAD_REACTORS
330
C
102
}
330
C
100
AcDbDictionary
281
     1
  3
2dWireframe
350
2F
  3
Basic
350
2E
  3
Brighten
350
35
  3
ColorChange
350
39
  3
Conceptual
350
32
  3
Dim
350
34
  3
EdgeColorOff
350
41
  3
Facepattern
350
38
  3
Flat
350
2A
  3
FlatWithEdges
350
2B
  3
Gouraud
350
2C
  3
GouraudWithEdges
350
2D
  3
Hidden
350
31
  3
JitterOff
350
3F
  3
Linepattern
350
37
  3
OverhangOff
350
40
  3
Realistic
350
33
  3
Shaded
350
3E
  3
Shaded with edges
350
3D
  3
Shades of Gray
350
3A
  3
Sketchy
350
3B
  3
Thicken
350
36
  3
Wireframe
350
30
  3
X-Ray
350
3C
  0
XRECORD
  5
AA
102
{ACAD_REACTORS
330
C
102
}
330
C
100
AcDbXrecord
280
     1
 90
        1
330
65
  0
DICTIONARY
  5
A2
102
{ACAD_REACTORS
330
C
102
}
330
C
100
AcDbDictionary
281
     1
  3
CANNOSCALE
350
A7
  3
CMLEADERSTYLE
350
A4
  3
CTABLESTYLE
350
A3
  3
CVIEWDETAILSTYLE
350
A5
  3
CVIEWSECTIONSTYLE
350
A6
  0
ACDBDETAILVIEWSTYLE
  5
6B
102
{ACAD_REACTORS
330
6A
102
}
330
6A
100
AcDbModelDocViewStyle
 70
     0
  3
Imperial24
290
     1
300
Imperial24
 90
        0
100
AcDbDetailViewStyle
 70
     0
 71
     0
 90
        3
 71
     1
340
55
 62
   256
 40
0.24
340
0
 62
   256
 40
0.24
300

 40
0.36
280
     3
 71
     2
340
5D
 90
       25
 62
   256
 71
     3
340
55
 62
   256
 40
0.24
 90
        1
 40
0.75
 90
        1
300
%<\AcVar ViewType \f "%tc1">% %<\AcVar ViewDetailId>%\PSCALE %<\AcVar ViewScale \f "%sn">%
 71
     4
340
5D
 90
       25
 62
   256
340
5D
 90
       25
 62
   256
280
     0
  0
LAYOUT
  5
6F
102
{ACAD_REACTORS
330
62
102
}
330
62
100
AcDbPlotSettings
  1

  2

  4

  6

 40
0.0
 41
0.0
 42
0.0
 43
0.0
 44
0.0
 45
0.0
 46
0.0
 47
0.0
 48
0.0
 49
0.0
140
0.0
141
0.0
142
1.0
143
1.0
 70
   688
 72
     0
 73
     0
 74
     5
  7

 75
    16
147
1.0
 76
     0
 77
     2
 78
   300
148
0.0
149
0.0
100
AcDbLayout
  1
Layout1
 70
     1
 71
     1
 10
0.0
 20
0.0
 11
12.0
 21
9.0
 12
0.0
 22
0.0
 32
0.0
 14
0.0
 24
0.0
 34
0.0
 15
0.0
 25
0.0
 35
0.0
146
0.0
 13
0.0
 23
0.0
 33
0.0
 16
1.0
 26
0.0
 36
0.0
 17
0.0
 27
1.0
 37
0.0
 76
     0
330
6C
  0
LAYOUT
  5
77
102
{ACAD_REACTORS
330
62
102
}
330
62
100
AcDbPlotSettings
  1

  2

  4

  6

 40
0.0
 41
0.0
 42
0.0
 43
0.0
 44
0.0
 45
0.0
 46
0.0
 47
0.0
 48
0.0
 49
0.0
140
0.0
141
0.0
142
1.0
143
1.0
 70
   688
 72
     0
 73
     0
 74
     5
  7

 75
    16
147
1.0
 76
     0
 77
     2
 78
   300
148
0.0
149
0.0
100
AcDbLayout
  1
Layout2
 70
     1
 71
     2
 10
0.0
 20
0.0
 11
12.0
 21
9.0
 12
0.0
 22
0.0
 32
0.0
 14
0.0
 24
0.0
 34
0.0
 15
0.0
 25
0.0
 35
0.0
146
0.0
 13
0.0
 23
0.0
 33
0.0
 16
1.0
 26
0.0
 36
0.0
 17
0.0
 27
1.0
 37
0.0
 76
     0
330
74
  0
LAYOUT
  5
73
102
{ACAD_REACTORS
330
62
102
}
330
62
100
AcDbPlotSettings
  1

  2

  4

  6

 40
0.0
 41
0.0
 42
0.0
 43
0.0
 44
0.0
 45
0.0
 46
0.0
 47
0.0
 48
0.0
 49
0.0
140
0.0
141
0.0
142
1.0
143
1.0
 70
  1712
 72
     0
 73
     0
 74
     0
  7

 75
     0
147
1.0
 76
     0
 77
     2
 78
   300
148
0.0
149
0.0
100
AcDbLayout
  1
Model
 70
     1
 71
     0
 10
0.0
 20
0.0
 11
12.0
 21
9.0
 12
0.0
 22
0.0
 32
0.0
 14
0.0
 24
0.0
 34
0.0
 15
0.0
 25
0.0
 35
0.0
146
0.0
 13
0.0
 23
0.0
 33
0.0
 16
1.0
 26
0.0
 36
0.0
 17
0.0
 27
1.0
 37
0.0
 76
     0
330
70
  0
MATERIAL
  5
19
102
{ACAD_XDICTIONARY
360
1A
102
}
102
{ACAD_REACTORS
330
10
102
}
330
10
100
AcDbMaterial
  1
ByBlock
 72
     0
 43
0.0208333333333333
 43
0.0
 43
0.0
 43
0.0
 43
0.0
 43
0.0208333333333333
 43
0.0
 43
0.0
 43
0.0
 43
0.0
 43
1.0
 43
0.0
 43
0.0
 43
0.0
 43
0.0
 43
1.0
 77
     0
 47
0.0208333333333333
 47
0.0
 47
0.0
 47
0.0
 47
0.0
 47
0.0208333333333333
 47
0.0
 47
0.0
 47
0.0
 47
0.0
 47
1.0
 47
0.0
 47
0.0
 47
0.0
 47
0.0
 47
1.0
171
     0
 49
0.0208333333333333
 49
0.0
 49
0.0
 49
0.0
 49
0.0
 49
0.0208333333333333
 49
0.0
 49
0.0
 49
0.0
 49
0.0
 49
1.0
 49
0.0
 49
0.0
 49
0.0
 49
0.0
 49
1.0
175
     0
142
0.0208333333333333
142
0.0
142
0.0
142
0.0
142
0.0
142
0.0208333333333333
142
0.0
142
0.0
142
0.0
142
0.0
142
1.0
142
0.0
142
0.0
142
0.0
142
0.0
142
1.0
179
     0
144
0.0208333333333333
144
0.0
144
0.0
144
0.0
144
0.0
144
0.0208333333333333
144
0.0
144
0.0
144
0.0
144
0.0
144
1.0
144
0.0
144
0.0
144
0.0
144
0.0
144
1.0
147
0.0208333333333333
147
0.0
147
0.0
147
0.0
147
0.0
147
0.0208333333333333
147
0.0
147
0.0
147
0.0
147
0.0
147
1.0
147
0.0
147
0.0
147
0.0
147
0.0
147
1.0
  0
MATERIAL
  5
11
102
{ACAD_XDICTIONARY
360
12
102
}
102
{ACAD_REACTORS
330
10
102
}
330
10
100
AcDbMaterial
  1
ByLayer
 72
     0
 43
0.0208333333333333
 43
0.0
 43
0.0
 43
0.0
 43
0.0
 43
0.0208333333333333
 43
0.0
 43
0.0
 43
0.0
 43
0.0
 43
1.0
 43
0.0
 43
0.0
 43
0.0
 43
0.0
 43
1.0
 77
     0
 47
0.0208333333333333
 47
0.0
 47
0.0
 47
0.0
 47
0.0
 47
0.0208333333333333
 47
0.0
 47
0.0
 47
0.0
 47
0.0
 47
1.0
 47
0.0
 47
0.0
 47
0.0
 47
0.0
 47
1.0
171
     0
 49
0.0208333333333333
 49
0.0
 49
0.0
 49
0.0
 49
0.0
 49
0.0208333333333333
 49
0.0
 49
0.0
 49
0.0
 49
0.0
 49
1.0
 49
0.0
 49
0.0
 49
0.0
 49
0.0
 49
1.0
175
     0
142
0.0208333333333333
142
0.0
142
0.0
142
0.0
142
0.0
142
0.0208333333333333
142
0.0
142
0.0
142
0.0
142
0.0
142
1.0
142
0.0
142
0.0
142
0.0
142
0.0
142
1.0
179
     0
144
0.0208333333333333
144
0.0
144
0.0
144
0.0
144
0.0
144
0.0208333333333333
144
0.0
144
0.0
144
0.0
144
0.0
144
1.0
144
0.0
144
0.0
144
0.0
144
0.0
144
1.0
147
0.0208333333333333
147
0.0
147
0.0
147
0.0
147
0.0
147
0.0208333333333333
147
0.0
147
0.0
147
0.0
147
0.0
147
1.0
147
0.0
147
0.0
147
0.0
147
0.0
147
1.0
  0
MATERIAL
  5
21
102
{ACAD_XDICTIONARY
360
22
102
}
102
{ACAD_REACTORS
330
10
102
}
330
10
100
AcDbMaterial
  1
Global
 72
     0
 43
0.0208333333333333
 43
0.0
 43
0.0
 43
0.0
 43
0.0
 43
0.0208333333333333
 43
0.0
 43
0.0
 43
0.0
 43
0.0
 43
1.0
 43
0.0
 43
0.0
 43
0.0
 43
0.0
 43
1.0
 77
     0
 47
0.0208333333333333
 47
0.0
 47
0.0
 47
0.0
 47
0.0
 47
0.0208333333333333
 47
0.0
 47
0.0
 47
0.0
 47
0.0
 47
1.0
 47
0.0
 47
0.0
 47
0.0
 47
0.0
 47
1.0
171
     0
 49
0.0208333333333333
 49
0.0
 49
0.0
 49
0.0
 49
0.0
 49
0.0208333333333333
 49
0.0
 49
0.0
 49
0.0
 49
0.0
 49
1.0
 49
0.0
 49
0.0
 49
0.0
 49
0.0
 49
1.0
175
     0
142
0.0208333333333333
142
0.0
142
0.0
142
0.0
142
0.0
142
0.0208333333333333
142
0.0
142
0.0
142
0.0
142
0.0
142
1.0
142
0.0
142
0.0
142
0.0
142
0.0
142
1.0
179
     0
144
0.0208333333333333
144
0.0
144
0.0
144
0.0
144
0.0
144
0.0208333333333333
144
0.0
144
0.0
144
0.0
144
0.0
144
1.0
144
0.0
144
0.0
144
0.0
144
0.0
144
1.0
147
0.0208333333333333
147
0.0
147
0.0
147
0.0
147
0.0
147
0.0208333333333333
147
0.0
147
0.0
147
0.0
147
0.0
147
1.0
147
0.0
147
0.0
147
0.0
147
0.0
147
1.0
  0
MLEADERSTYLE
  5
67
102
{ACAD_REACTORS
330
66
102
}
330
66
100
AcDbMLeaderStyle
179
     2
170
     2
171
     1
172
     0
 90
        2
 40
0.0
 41
0.0
173
     1
 91
-1056964608
340
5B
 92
       -2
290
     1
 42
0.09
291
     1
 43
0.36
  3
Standard
 44
0.18
300

342
55
174
     1
178
     6
175
     1
176
     0
 93
-1056964608
 45
0.18
292
     0
297
     0
 46
0.18
 94
-1056964608
 47
1.0
 49
1.0
140
1.0
293
     1
141
0.0
294
     1
177
     0
142
1.0
295
     1
296
     0
143
0.125
271
     0
272
     9
273
     9
298
     1
  0
MLINESTYLE
  5
60
102
{ACAD_REACTORS
330
5F
102
}
330
5F
100
AcDbMlineStyle
  2
STANDARD
 70
     0
  3

 62
   256
 51
90.0
 52
90.0
 71
     2
 49
0.5
 62
   256
  6
BYLAYER
 49
-0.5
 62
   256
  6
BYLAYER
  0
ACDBPLACEHOLDER
  5
F
102
{ACAD_REACTORS
330
E
102
}
330
E
  0
SCALE
  5
43
102
{ACAD_REACTORS
330
42
102
}
330
42
100
AcDbScale
 70
     0
300
1:1
140
1.0
141
1.0
290
     1
  0
SCALE
  5
44
102
{ACAD_REACTORS
330
42
102
}
330
42
100
AcDbScale
 70
     0
300
1/128" = 1'-0"
140
0.0078125
141
12.0
290
     0
  0
SCALE
  5
45
102
{ACAD_REACTORS
330
42
102
}
330
42
100
AcDbScale
 70
     0
300
1/64" = 1'-0"
140
0.015625
141
12.0
290
     0
  0
SCALE
  5
46
102
{ACAD_REACTORS
330
42
102
}
330
42
100
AcDbScale
 70
     0
300
1/32" = 1'-0"
140
0.03125
141
12.0
290
     0
  0
SCALE
  5
47
102
{ACAD_REACTORS
330
42
102
}
330
42
100
AcDbScale
 70
     0
300
1/16" = 1'-0"
140
0.0625
141
12.0
290
     0
  0
SCALE
  5
48
102
{ACAD_REACTORS
330
42
102
}
330
42
100
AcDbScale
 70
     0
300
3/32" = 1'-0"
140
0.09375
141
12.0
290
     0
  0
SCALE
  5
49
102
{ACAD_REACTORS
330
42
102
}
330
42
100
AcDbScale
 70
     0
300
1/8" = 1'-0"
140
0.125
141
12.0
290
     0
  0
SCALE
  5
4A
102
{ACAD_REACTORS
330
42
102
}
330
42
100
AcDbScale
 70
     0
300
3/16" = 1'-0"
140
0.1875
141
12.0
290
     0
  0
SCALE
  5
4B
102
{ACAD_REACTORS
330
42
102
}
330
42
100
AcDbScale
 70
     0
300
1/4" = 1'-0"
140
0.25
141
12.0
290
     0
  0
SCALE
  5
4C
102
{ACAD_REACTORS
330
42
102
}
330
42
100
AcDbScale
 70
     0
300
3/8" = 1'-0"
140
0.375
141
12.0
290
     0
  0
SCALE
  5
4D
102
{ACAD_REACTORS
330
42
102
}
330
42
100
AcDbScale
 70
     0
300
1/2" = 1'-0"
140
0.5
141
12.0
290
     0
  0
SCALE
  5
4E
102
{ACAD_REACTORS
330
42
102
}
330
42
100
AcDbScale
 70
     0
300
3/4" = 1'-0"
140
0.75
141
12.0
290
     0
  0
SCALE
  5
4F
102
{ACAD_REACTORS
330
42
102
}
330
42
100
AcDbScale
 70
     0
300
1" = 1'-0"
140
1.0
141
12.0
290
     0
  0
SCALE
  5
50
102
{ACAD_REACTORS
330
42
102
}
330
42
100
AcDbScale
 70
     0
300
1-1/2" = 1'-0"
140
1.5
141
12.0
290
     0
  0
SCALE
  5
51
102
{ACAD_REACTORS
330
42
102
}
330
42
100
AcDbScale
 70
     0
300
3" = 1'-0"
140
3.0
141
12.0
290
     0
  0
SCALE
  5
52
102
{ACAD_REACTORS
330
42
102
}
330
42
100
AcDbScale
 70
     0
300
6" = 1'-0"
140
6.0
141
12.0
290
     0
  0
SCALE
  5
53
102
{ACAD_REACTORS
330
42
102
}
330
42
100
AcDbScale
 70
     0
300
1'-0" = 1'-0"
140
12.0
141
12.0
290
     0
  0
ACDBSECTIONVIEWSTYLE
  5
69
102
{ACAD_REACTORS
330
68
102
}
330
68
100
AcDbModelDocViewStyle
 70
     0
  3
Imperial24
290
     1
300
Imperial24
 90
        0
100
AcDbSectionViewStyle
 70
     0
 71
     0
 90
       78
 71
     1
340
55
 62
   256
 40
0.24
340
0
340
0
 62
   256
 40
0.24
300
I, O, Q, S, X, Z
 40
0.48
 90
        3
 40
0.18
 90
        1
 71
     2
340
5D
 90
       25
 62
   256
340
5D
 90
       50
 62
   256
 40
0.24
 40
0.0
 40
0.24
 71
     3
340
55
 62
   256
 40
0.24
 90
        1
 40
0.75
 90
        1
300
%<\AcVar ViewType \f "%tc1">% %<\AcVar ViewSectionStartId>%-%<\AcVar ViewSectionEndId>%\PSCALE %<\AcVar ViewScale \f "%sn">%
 71
     4
 62
   256
 62
   257
300
ANSI31
 40
1.0
 90
        0
290
     0
290
     0
 90
        6
 40
0.0
 40
1.570796326794896
 40
0.2617993877991494
 40
1.308996938995747
 40
-0.2617993877991494
 40
1.832595714594046
  0
TABLESTYLE
  5
65
102
{ACAD_XDICTIONARY
360
A8
102
}
102
{ACAD_REACTORS
330
64
102
}
330
64
100
AcDbTableStyle
280
     0
  3
Standard
 70
     0
 71
     0
 40
0.06
 41
0.06
280
     0
281
     0
  7
Standard
140
0.18
170
     2
 62
     0
 63
     7
283
     0
 90
      512
 91
        0
  1

274
    -2
284
     1
 64
     0
275
    -2
285
     1
 65
     0
276
    -2
286
     1
 66
     0
277
    -2
287
     1
 67
     0
278
    -2
288
     1
 68
     0
279
    -2
289
     1
 69
     0
  7
Standard
140
0.25
170
     5
 62
     0
 63
     7
283
     0
 90
      512
 91
        0
  1

274
    -2
284
     1
 64
     0
275
    -2
285
     1
 65
     0
276
    -2
286
     1
 66
     0
277
    -2
287
     1
 67
     0
278
    -2
288
     1
 68
     0
279
    -2
289
     1
 69
     0
  7
Standard
140
0.18
170
     5
 62
     0
 63
     7
283
     0
 90
      512
 91
        0
  1

274
    -2
284
     1
 64
     0
275
    -2
285
     1
 65
     0
276
    -2
286
     1
 66
     0
277
    -2
287
     1
 67
     0
278
    -2
288
     1
 68
     0
279
    -2
289
     1
 69
     0
  0
VISUALSTYLE
  5
2F
102
{ACAD_REACTORS
330
29
102
}
330
29
100
AcDbVisualStyle
  2
2dWireframe
 70
     4
177
     3
291
     0
 70
    58
 90
        0
176
     1
 90
        2
176
     1
 90
        0
176
     1
 90
        0
176
     1
 40
0.6
176
     1
 40
30.0
176
     1
 62
     7
420
 16777215
176
     1
 90
        1
176
     1
 90
        4
176
     1
 62
     7
176
     1
 62
   257
176
     1
 90
        1
176
     1
 90
        1
176
     1
 40
1.0
176
     1
 90
        0
176
     1
 62
   257
176
     1
 40
1.0
176
     1
 90
        1
176
     1
 90
        6
176
     1
 90
        2
176
     1
 62
     7
176
     1
 90
        5
176
     1
 90
        0
176
     1
 90
        0
176
     1
290
     0
176
     1
 90
        1
176
     1
 40
0.0
176
     1
 90
        0
176
     1
290
     1
176
     1
290
     1
176
     1
290
     0
176
     1
290
     0
176
     1
290
     0
176
     1
290
     0
176
     1
290
     0
176
     1
290
     0
176
     1
290
     0
176
     1
 90
       50
176
     1
 40
0.0
176
     1
 40
1.0
176
     1
 90
        0
176
     1
 62
    18
420
        0
176
     1
 90
       50
176
     1
 90
        3
176
     1
 62
     5
420
      255
176
     1
290
     0
176
     1
 90
       50
176
     1
 90
       50
176
     1
 90
       50
176
     1
290
     0
176
     1
 90
       50
176
     1
 62
   256
176
     0
 40
1.0
176
     0
 90
        2
176
     1
  1
strokes_ogs.tif
176
     1
290
     0
176
     1
 40
1.0
176
     1
 40
1.0
176
     1
  0
VISUALSTYLE
  5
2E
102
{ACAD_REACTORS
330
29
102
}
330
29
100
AcDbVisualStyle
  2
Basic
 70
     7
177
     3
291
     1
 70
    58
 90
        1
176
     1
 90
        0
176
     1
 90
        1
176
     1
 90
        0
176
     1
 40
0.6
176
     1
 40
30.0
176
     1
 62
     7
420
 16777215
176
     1
 90
        0
176
     1
 90
        4
176
     1
 62
     7
176
     1
 62
   257
176
     1
 90
        1
176
     1
 90
        1
176
     1
 40
1.0
176
     1
 90
        8
176
     1
 62
     7
176
     1
 40
1.0
176
     1
 90
        1
176
     1
 90
        6
176
     1
 90
        2
176
     1
 62
     7
176
     1
 90
        5
176
     1
 90
        0
176
     1
 90
        0
176
     1
290
     0
176
     1
 90
        1
176
     1
 40
0.0
176
     1
 90
        0
176
     1
290
     0
176
     1
290
     1
176
     1
290
     1
176
     1
290
     0
176
     1
290
     0
176
     1
290
     0
176
     1
290
     0
176
     1
290
     0
176
     1
290
     0
176
     1
 90
       50
176
     1
 40
0.0
176
     1
 40
1.0
176
     1
 90
        0
176
     1
 62
    18
420
        0
176
     1
 90
       50
176
     1
 90
        3
176
     1
 62
     5
420
      255
176
     1
290
     0
176
     1
 90
       50
176
     1
 90
       50
176
     1
 90
       50
176
     1
290
     0
176
     1
 90
       50
176
     1
 62
   256
176
     0
 40
1.0
176
     0
 90
        2
176
     1
  1
strokes_ogs.tif
176
     1
290
     0
176
     1
 40
1.0
176
     1
 40
1.0
176
     1
  0
VISUALSTYLE
  5
35
102
{ACAD_REACTORS
330
29
102
}
330
29
100
AcDbVisualStyle
  2
Brighten
 70
    12
177
     3
291
     1
 70
    58
 90
        2
176
     1
 90
        2
176
     1
 90
        0
176
     1
 90
        0
176
     1
 40
0.6
176
     1
 40
30.0
176
     1
 62
     7
420
 16777215
176
     1
 90
        1
176
     1
 90
        4
176
     1
 62
     7
176
     1
 62
   257
176
     1
 90
        1
176
     1
 90
        1
176
     1
 40
1.0
176
     1
 90
        8
176
     1
 62
     7
176
     1
 40
1.0
176
     1
 90
        1
176
     1
 90
        6
176
     1
 90
        2
176
     1
 62
     7
176
     1
 90
        5
176
     1
 90
        0
176
     1
 90
        0
176
     1
290
     0
176
     1
 90
        1
176
     1
 40
50.0
176
     1
 90
        0
176
     1
290
     0
176
     1
290
     1
176
     1
290
     1
176
     1
290
     0
176
     1
290
     0
176
     1
290
     0
176
     1
290
     0
176
     1
290
     0
176
     1
290
     0
176
     1
 90
       50
176
     1
 40
0.0
176
     1
 40
1.0
176
     1
 90
        0
176
     1
 62
    18
420
        0
176
     1
 90
       50
176
     1
 90
        3
176
     1
 62
     5
420
      255
176
     1
290
     0
176
     1
 90
       50
176
     1
 90
       50
176
     1
 90
       50
176
     1
290
     0
176
     1
 90
       50
176
     1
 62
   256
176
     0
 40
1.0
176
     0
 90
        2
176
     1
  1
strokes_ogs.tif
176
     1
290
     0
176
     1
 40
1.0
176
     1
 40
1.0
176
     1
  0
VISUALSTYLE
  5
39
102
{ACAD_REACTORS
330
29
102
}
330
29
100
AcDbVisualStyle
  2
ColorChange
 70
    16
177
     3
291
     1
 70
    58
 90
        2
176
     1
 90
        2
176
     1
 90
        3
176
     1
 90
        0
176
     1
 40
0.6
176
     1
 40
30.0
176
     1
 62
     8
420
  8421504
176
     1
 90
        1
176
     1
 90
        4
176
     1
 62
     7
176
     1
 62
   257
176
     1
 90
        1
176
     1
 90
        1
176
     1
 40
1.0
176
     1
 90
        8
176
     1
 62
     8
420
  8421504
176
     1
 40
1.0
176
     1
 90
        1
176
     1
 90
        6
176
     1
 90
        2
176
     1
 62
     7
176
     1
 90
        5
176
     1
 90
        0
176
     1
 90
        0
176
     1
290
     0
176
     1
 90
        1
176
     1
 40
0.0
176
     1
 90
        0
176
     1
290
     0
176
     1
290
     1
176
     1
290
     1
176
     1
290
     0
176
     1
290
     0
176
     1
290
     0
176
     1
290
     0
176
     1
290
     0
176
     1
290
     0
176
     1
 90
       50
176
     1
 40
0.0
176
     1
 40
1.0
176
     1
 90
        0
176
     1
 62
    18
420
        0
176
     1
 90
       50
176
     1
 90
        3
176
     1
 62
     5
420
      255
176
     1
290
     0
176
     1
 90
       50
176
     1
 90
       50
176
     1
 90
       50
176
     1
290
     0
176
     1
 90
       50
176
     1
 62
   256
176
     0
 40
1.0
176
     0
 90
        2
176
     1
  1
strokes_ogs.tif
176
     1
290
     0
176
     1
 40
1.0
176
     1
 40
1.0
176
     1
  0
VISUALSTYLE
  5
32
102
{ACAD_REACTORS
330
29
102
}
330
29
100
AcDbVisualStyle
  2
Conceptual
 70
     9
177
     3
291
     0
 70
    58
 90
        3
176
     1
 90
        2
176
     1
 90
        0
176
     1
 90
        0
176
     1
 40
0.6
176
     1
 40
30.0
176
     1
 62
     7
420
 16777215
176
     1
 90
        2
176
     1
 90
        2
176
     1
 62
     7
176
     1
 62
   257
176
     1
 90
        1
176
     1
 90
        1
176
     1
 40
179.0
176
     1
 90
        8
176
     1
 62
     7
176
     1
 40
1.0
176
     1
 90
        1
176
     1
 90
        6
176
     1
 90
        2
176
     1
 62
     7
176
     1
 90
        3
176
     1
 90
        0
176
     1
 90
        0
176
     1
290
     0
176
     1
 90
        1
176
     1
 40
0.0
176
     1
 90
        0
176
     1
290
     0
176
     1
290
     1
176
     1
290
     1
176
     1
290
     0
176
     1
290
     0
176
     1
290
     0
176
     1
290
     0
176
     1
290
     0
176
     1
290
     0
176
     1
 90
       50
176
     1
 40
0.0
176
     1
 40
1.0
176
     1
 90
        0
176
     1
 62
    18
420
        0
176
     1
 90
       50
176
     1
 90
        3
176
     1
 62
     5
420
      255
176
     1
290
     0
176
     1
 90
       50
176
     1
 90
       50
176
     1
 90
       50
176
     1
290
     0
176
     1
 90
       50
176
     1
 62
   256
176
     0
 40
1.0
176
     0
 90
        2
176
     1
  1
strokes_ogs.tif
176
     1
290
     0
176
     1
 40
1.0
176
     1
 40
1.0
176
     1
  0
VISUALSTYLE
  5
34
102
{ACAD_REACTORS
330
29
102
}
330
29
100
AcDbVisualStyle
  2
Dim
 70
    11
177
     3
291
     1
 70
    58
 90
        2
176
     1
 90
        2
176
     1
 90
        0
176
     1
 90
        0
176
     1
 40
0.6
176
     1
 40
30.0
176
     1
 62
     7
420
 16777215
176
     1
 90
        1
176
     1
 90
        4
176
     1
 62
     7
176
     1
 62
   257
176
     1
 90
        1
176
     1
 90
        1
176
     1
 40
1.0
176
     1
 90
        8
176
     1
 62
     7
176
     1
 40
1.0
176
     1
 90
        1
176
     1
 90
        6
176
     1
 90
        2
176
     1
 62
     7
176
     1
 90
        5
176
     1
 90
        0
176
     1
 90
        0
176
     1
290
     0
176
     1
 90
        1
176
     1
 40
-50.0
176
     1
 90
        0
176
     1
290
     0
176
     1
290
     1
176
     1
290
     1
176
     1
290
     0
176
     1
290
     0
176
     1
290
     0
176
     1
290
     0
176
     1
290
     0
176
     1
290
     0
176
     1
 90
       50
176
     1
 40
0.0
176
     1
 40
1.0
176
     1
 90
        0
176
     1
 62
    18
420
        0
176
     1
 90
       50
176
     1
 90
        3
176
     1
 62
     5
420
      255
176
     1
290
     0
176
     1
 90
       50
176
     1
 90
       50
176
     1
 90
       50
176
     1
290
     0
176
     1
 90
       50
176
     1
 62
   256
176
     0
 40
1.0
176
     0
 90
        2
176
     1
  1
strokes_ogs.tif
176
     1
290
     0
176
     1
 40
1.0
176
     1
 40
1.0
176
     1
  0
VISUALSTYLE
  5
41
102
{ACAD_REACTORS
330
29
102
}
330
29
100
AcDbVisualStyle
  2
EdgeColorOff
 70
    22
177
     3
291
     1
 70
    58
 90
        2
176
     0
 90
        2
176
     0
 90
        0
176
     0
 90
        0
176
     0
 40
0.6
176
     0
 40
30.0
176
     0
 62
     7
420
 16777215
176
     0
 90
        1
176
     0
 90
        4
176
     0
 62
     7
176
     0
 62
   257
176
     0
 90
        1
176
     0
 90
        1
176
     0
 40
1.0
176
     0
 90
        8
176
     2
 62
     7
176
     0
 40
1.0
176
     0
 90
        1
176
     0
 90
        6
176
     0
 90
        2
176
     0
 62
     7
176
     0
 90
        5
176
     0
 90
        0
176
     0
 90
        0
176
     0
290
     0
176
     0
 90
        1
176
     0
 40
0.0
176
     0
 90
        0
176
     0
290
     0
176
     0
290
     1
176
     0
290
     1
176
     0
290
     0
176
     0
290
     0
176
     0
290
     0
176
     0
290
     0
176
     0
290
     0
176
     0
290
     0
176
     0
 90
       50
176
     0
 40
0.0
176
     0
 40
1.0
176
     0
 90
        0
176
     0
 62
    18
420
        0
176
     0
 90
       50
176
     0
 90
        3
176
     0
 62
     5
420
      255
176
     0
290
     0
176
     0
 90
       50
176
     0
 90
       50
176
     0
 90
       50
176
     0
290
     0
176
     0
 90
       50
176
     0
 62
   256
176
     0
 40
1.0
176
     0
 90
        2
176
     0
  1
strokes_ogs.tif
176
     0
290
     0
176
     0
 40
1.0
176
     0
 40
1.0
176
     0
  0
VISUALSTYLE
  5
38
102
{ACAD_REACTORS
330
29
102
}
330
29
100
AcDbVisualStyle
  2
Facepattern
 70
    15
177
     3
291
     1
 70
    58
 90
        2
176
     1
 90
        2
176
     1
 90
        0
176
     1
 90
        0
176
     1
 40
0.6
176
     1
 40
30.0
176
     1
 62
     7
420
 16777215
176
     1
 90
        1
176
     1
 90
        4
176
     1
 62
     7
176
     1
 62
   257
176
     1
 90
        1
176
     1
 90
        1
176
     1
 40
1.0
176
     1
 90
        8
176
     1
 62
     7
176
     1
 40
1.0
176
     1
 90
        1
176
     1
 90
        6
176
     1
 90
        2
176
     1
 62
     7
176
     1
 90
        5
176
     1
 90
        0
176
     1
 90
        0
176
     1
290
     0
176
     1
 90
        1
176
     1
 40
0.0
176
     1
 90
        0
176
     1
290
     0
176
     1
290
     1
176
     1
290
     1
176
     1
290
     0
176
     1
290
     0
176
     1
290
     0
176
     1
290
     0
176
     1
290
     0
176
     1
290
     0
176
     1
 90
       50
176
     1
 40
0.0
176
     1
 40
1.0
176
     1
 90
        0
176
     1
 62
    18
420
        0
176
     1
 90
       50
176
     1
 90
        3
176
     1
 62
     5
420
      255
176
     1
290
     0
176
     1
 90
       50
176
     1
 90
       50
176
     1
 90
       50
176
     1
290
     0
176
     1
 90
       50
176
     1
 62
   256
176
     0
 40
1.0
176
     0
 90
        2
176
     1
  1
strokes_ogs.tif
176
     1
290
     0
176
     1
 40
1.0
176
     1
 40
1.0
176
     1
  0
VISUALSTYLE
  5
2A
102
{ACAD_REACTORS
330
29
102
}
330
29
100
AcDbVisualStyle
  2
Flat
 70
     0
177
     3
291
     1
 70
    58
 90
        2
176
     1
 90
        1
176
     1
 90
        1
176
     1
 90
        2
176
     1
 40
0.6
176
     1
 40
30.0
176
     1
 62
     7
420
 16777215
176
     1
 90
        0
176
     1
 90
        0
176
     1
 62
     7
176
     1
 62
   257
176
     1
 90
        1
176
     1
 90
        1
176
     1
 40
1.0
176
     1
 90
        8
176
     1
 62
     7
176
     1
 40
1.0
176
     1
 90
        1
176
     1
 90
        6
176
     1
 90
        2
176
     1
 62
     7
176
     1
 90
        5
176
     1
 90
        0
176
     1
 90
        0
176
     1
290
     0
176
     1
 90
       13
176
     1
 40
0.0
176
     1
 90
        0
176
     1
290
     0
176
     1
290
     1
176
     1
290
     1
176
     1
290
     0
176
     1
290
     0
176
     1
290
     0
176
     1
290
     0
176
     1
290
     0
176
     1
290
     0
176
     1
 90
       50
176
     1
 40
0.0
176
     1
 40
1.0
176
     1
 90
        0
176
     1
 62
    18
420
        0
176
     1
 90
       50
176
     1
 90
        3
176
     1
 62
     5
420
      255
176
     1
290
     0
176
     1
 90
       50
176
     1
 90
       50
176
     1
 90
       50
176
     1
290
     0
176
     1
 90
       50
176
     1
 62
   256
176
     0
 40
1.0
176
     0
 90
        2
176
     1
  1
strokes_ogs.tif
176
     1
290
     0
176
     1
 40
1.0
176
     1
 40
1.0
176
     1
  0
VISUALSTYLE
  5
2B
102
{ACAD_REACTORS
330
29
102
}
330
29
100
AcDbVisualStyle
  2
FlatWithEdges
 70
     1
177
     3
291
     1
 70
    58
 90
        2
176
     1
 90
        1
176
     1
 90
        1
176
     1
 90
        2
176
     1
 40
0.6
176
     1
 40
30.0
176
     1
 62
     7
420
 16777215
176
     1
 90
        1
176
     1
 90
        0
176
     1
 62
     7
176
     1
 62
   257
176
     1
 90
        1
176
     1
 90
        1
176
     1
 40
1.0
176
     1
 90
        0
176
     1
 62
   257
176
     1
 40
1.0
176
     1
 90
        1
176
     1
 90
        6
176
     1
 90
        2
176
     1
 62
     7
176
     1
 90
        5
176
     1
 90
        0
176
     1
 90
        0
176
     1
290
     0
176
     1
 90
       13
176
     1
 40
0.0
176
     1
 90
        0
176
     1
290
     0
176
     1
290
     1
176
     1
290
     1
176
     1
290
     0
176
     1
290
     0
176
     1
290
     0
176
     1
290
     0
176
     1
290
     0
176
     1
290
     0
176
     1
 90
       50
176
     1
 40
0.0
176
     1
 40
1.0
176
     1
 90
        0
176
     1
 62
    18
420
        0
176
     1
 90
       50
176
     1
 90
        3
176
     1
 62
     5
420
      255
176
     1
290
     0
176
     1
 90
       50
176
     1
 90
       50
176
     1
 90
       50
176
     1
290
     0
176
     1
 90
       50
176
     1
 62
   256
176
     0
 40
1.0
176
     0
 90
        2
176
     1
  1
strokes_ogs.tif
176
     1
290
     0
176
     1
 40
1.0
176
     1
 40
1.0
176
     1
  0
VISUALSTYLE
  5
2C
102
{ACAD_REACTORS
330
29
102
}
330
29
100
AcDbVisualStyle
  2
Gouraud
 70
     2
177
     3
291
     1
 70
    58
 90
        2
176
     1
 90
        2
176
     1
 90
        1
176
     1
 90
        2
176
     1
 40
0.6
176
     1
 40
30.0
176
     1
 62
     7
420
 16777215
176
     1
 90
        0
176
     1
 90
        0
176
     1
 62
     7
176
     1
 62
   257
176
     1
 90
        1
176
     1
 90
        1
176
     1
 40
1.0
176
     1
 90
        0
176
     1
 62
     7
176
     1
 40
1.0
176
     1
 90
        1
176
     1
 90
        6
176
     1
 90
        2
176
     1
 62
     7
176
     1
 90
        5
176
     1
 90
        0
176
     1
 90
        0
176
     1
290
     0
176
     1
 90
       13
176
     1
 40
0.0
176
     1
 90
        0
176
     1
290
     0
176
     1
290
     1
176
     1
290
     1
176
     1
290
     0
176
     1
290
     0
176
     1
290
     0
176
     1
290
     0
176
     1
290
     0
176
     1
290
     0
176
     1
 90
       50
176
     1
 40
0.0
176
     1
 40
1.0
176
     1
 90
        0
176
     1
 62
    18
420
        0
176
     1
 90
       50
176
     1
 90
        3
176
     1
 62
     5
420
      255
176
     1
290
     0
176
     1
 90
       50
176
     1
 90
       50
176
     1
 90
       50
176
     1
290
     0
176
     1
 90
       50
176
     1
 62
   256
176
     0
 40
1.0
176
     0
 90
        2
176
     1
  1
strokes_ogs.tif
176
     1
290
     0
176
     1
 40
1.0
176
     1
 40
1.0
176
     1
  0
VISUALSTYLE
  5
2D
102
{ACAD_REACTORS
330
29
102
}
330
29
100
AcDbVisualStyle
  2
GouraudWithEdges
 70
     3
177
     3
291
     1
 70
    58
 90
        2
176
     1
 90
        2
176
     1
 90
        1
176
     1
 90
        2
176
     1
 40
0.6
176
     1
 40
30.0
176
     1
 62
     7
420
 16777215
176
     1
 90
        1
176
     1
 90
        0
176
     1
 62
     7
176
     1
 62
   257
176
     1
 90
        1
176
     1
 90
        1
176
     1
 40
1.0
176
     1
 90
        0
176
     1
 62
   257
176
     1
 40
1.0
176
     1
 90
        1
176
     1
 90
        6
176
     1
 90
        2
176
     1
 62
     7
176
     1
 90
        5
176
     1
 90
        0
176
     1
 90
        0
176
     1
290
     0
176
     1
 90
       13
176
     1
 40
0.0
176
     1
 90
        0
176
     1
290
     0
176
     1
290
     1
176
     1
290
     1
176
     1
290
     0
176
     1
290
     0
176
     1
290
     0
176
     1
290
     0
176
     1
290
     0
176
     1
290
     0
176
     1
 90
       50
176
     1
 40
0.0
176
     1
 40
1.0
176
     1
 90
        0
176
     1
 62
    18
420
        0
176
     1
 90
       50
176
     1
 90
        3
176
     1
 62
     5
420
      255
176
     1
290
     0
176
     1
 90
       50
176
     1
 90
       50
176
     1
 90
       50
176
     1
290
     0
176
     1
 90
       50
176
     1
 62
   256
176
     0
 40
1.0
176
     0
 90
        2
176
     1
  1
strokes_ogs.tif
176
     1
290
     0
176
     1
 40
1.0
176
     1
 40
1.0
176
     1
  0
VISUALSTYLE
  5
31
102
{ACAD_REACTORS
330
29
102
}
330
29
100
AcDbVisualStyle
  2
Hidden
 70
     6
177
     3
291
     0
 70
    58
 90
        1
176
     1
 90
        2
176
     1
 90
        2
176
     1
 90
        0
176
     1
 40
0.6
176
     1
 40
30.0
176
     1
 62
     7
420
 16777215
176
     1
 90
        2
176
     1
 90
        2
176
     1
 62
     7
176
     1
 62
   257
176
     1
 90
        2
176
     1
 90
        1
176
     1
 40
40.0
176
     1
 90
        0
176
     1
 62
   257
176
     1
 40
1.0
176
     1
 90
        1
176
     1
 90
        6
176
     1
 90
        2
176
     1
 62
     7
176
     1
 90
        3
176
     1
 90
        0
176
     1
 90
        0
176
     1
290
     0
176
     1
 90
        1
176
     1
 40
0.0
176
     1
 90
        0
176
     1
290
     0
176
     1
290
     1
176
     1
290
     1
176
     1
290
     0
176
     1
290
     0
176
     1
290
     0
176
     1
290
     0
176
     1
290
     0
176
     1
290
     0
176
     1
 90
       50
176
     1
 40
0.0
176
     1
 40
1.0
176
     1
 90
        0
176
     1
 62
    18
420
        0
176
     1
 90
       50
176
     1
 90
        3
176
     1
 62
     5
420
      255
176
     1
290
     0
176
     1
 90
       50
176
     1
 90
       50
176
     1
 90
       50
176
     1
290
     0
176
     1
 90
       50
176
     1
 62
   256
176
     0
 40
1.0
176
     0
 90
        2
176
     1
  1
strokes_ogs.tif
176
     1
290
     0
176
     1
 40
1.0
176
     1
 40
1.0
176
     1
  0
VISUALSTYLE
  5
3F
102
{ACAD_REACTORS
330
29
102
}
330
29
100
AcDbVisualStyle
  2
JitterOff
 70
    20
177
     3
291
     1
 70
    58
 90
        2
176
     0
 90
        2
176
     0
 90
        0
176
     0
 90
        0
176
     0
 40
0.6
176
     0
 40
30.0
176
     0
 62
     7
420
 16777215
176
     0
 90
        1
176
     0
 90
        4
176
     0
 62
     7
176
     0
 62
   257
176
     0
 90
        1
176
     0
 90
        1
176
     0
 40
1.0
176
     0
 90
       10
176
     2
 62
     7
176
     0
 40
1.0
176
     0
 90
        1
176
     0
 90
        6
176
     0
 90
        2
176
     0
 62
     7
176
     0
 90
        5
176
     0
 90
        0
176
     0
 90
        0
176
     0
290
     0
176
     0
 90
        1
176
     0
 40
0.0
176
     0
 90
        0
176
     0
290
     0
176
     0
290
     1
176
     0
290
     1
176
     0
290
     0
176
     0
290
     0
176
     0
290
     0
176
     0
290
     0
176
     0
290
     0
176
     0
290
     0
176
     0
 90
       50
176
     0
 40
0.0
176
     0
 40
1.0
176
     0
 90
        0
176
     0
 62
    18
420
        0
176
     0
 90
       50
176
     0
 90
        3
176
     0
 62
     5
420
      255
176
     0
290
     0
176
     0
 90
       50
176
     0
 90
       50
176
     0
 90
       50
176
     0
290
     0
176
     0
 90
       50
176
     0
 62
   256
176
     0
 40
1.0
176
     0
 90
        2
176
     0
  1
strokes_ogs.tif
176
     0
290
     0
176
     0
 40
1.0
176
     0
 40
1.0
176
     0
  0
VISUALSTYLE
  5
37
102
{ACAD_REACTORS
330
29
102
}
330
29
100
AcDbVisualStyle
  2
Linepattern
 70
    14
177
     3
291
     1
 70
    58
 90
        2
176
     1
 90
        2
176
     1
 90
        0
176
     1
 90
        0
176
     1
 40
0.6
176
     1
 40
30.0
176
     1
 62
     7
420
 16777215
176
     1
 90
        1
176
     1
 90
        4
176
     1
 62
     7
176
     1
 62
   257
176
     1
 90
        7
176
     1
 90
        7
176
     1
 40
1.0
176
     1
 90
        8
176
     1
 62
     7
176
     1
 40
1.0
176
     1
 90
        1
176
     1
 90
        6
176
     1
 90
        2
176
     1
 62
     7
176
     1
 90
        5
176
     1
 90
        0
176
     1
 90
        0
176
     1
290
     0
176
     1
 90
        1
176
     1
 40
0.0
176
     1
 90
        0
176
     1
290
     0
176
     1
290
     1
176
     1
290
     1
176
     1
290
     0
176
     1
290
     0
176
     1
290
     0
176
     1
290
     0
176
     1
290
     0
176
     1
290
     0
176
     1
 90
       50
176
     1
 40
0.0
176
     1
 40
1.0
176
     1
 90
        0
176
     1
 62
    18
420
        0
176
     1
 90
       50
176
     1
 90
        3
176
     1
 62
     5
420
      255
176
     1
290
     0
176
     1
 90
       50
176
     1
 90
       50
176
     1
 90
       50
176
     1
290
     0
176
     1
 90
       50
176
     1
 62
   256
176
     0
 40
1.0
176
     0
 90
        2
176
     1
  1
strokes_ogs.tif
176
     1
290
     0
176
     1
 40
1.0
176
     1
 40
1.0
176
     1
  0
VISUALSTYLE
  5
40
102
{ACAD_REACTORS
330
29
102
}
330
29
100
AcDbVisualStyle
  2
OverhangOff
 70
    21
177
     3
291
     1
 70
    58
 90
        2
176
     0
 90
        2
176
     0
 90
        0
176
     0
 90
        0
176
     0
 40
0.6
176
     0
 40
30.0
176
     0
 62
     7
420
 16777215
176
     0
 90
        1
176
     0
 90
        4
176
     0
 62
     7
176
     0
 62
   257
176
     0
 90
        1
176
     0
 90
        1
176
     0
 40
1.0
176
     0
 90
        9
176
     2
 62
     7
176
     0
 40
1.0
176
     0
 90
        1
176
     0
 90
        6
176
     0
 90
        2
176
     0
 62
     7
176
     0
 90
        5
176
     0
 90
        0
176
     0
 90
        0
176
     0
290
     0
176
     0
 90
        1
176
     0
 40
0.0
176
     0
 90
        0
176
     0
290
     0
176
     0
290
     1
176
     0
290
     1
176
     0
290
     0
176
     0
290
     0
176
     0
290
     0
176
     0
290
     0
176
     0
290
     0
176
     0
290
     0
176
     0
 90
       50
176
     0
 40
0.0
176
     0
 40
1.0
176
     0
 90
        0
176
     0
 62
    18
420
        0
176
     0
 90
       50
176
     0
 90
        3
176
     0
 62
     5
420
      255
176
     0
290
     0
176
     0
 90
       50
176
     0
 90
       50
176
     0
 90
       50
176
     0
290
     0
176
     0
 90
       50
176
     0
 62
   256
176
     0
 40
1.0
176
     0
 90
        2
176
     0
  1
strokes_ogs.tif
176
     0
290
     0
176
     0
 40
1.0
176
     0
 40
1.0
176
     0
  0
VISUALSTYLE
  5
33
102
{ACAD_REACTORS
330
29
102
}
330
29
100
AcDbVisualStyle
  2
Realistic
 70
     8
177
     3
291
     0
 70
    58
 90
        2
176
     1
 90
        3
176
     1
 90
        0
176
     1
 90
        2
176
     1
 40
0.6
176
     1
 40
30.0
176
     1
 62
     7
420
 16777215
176
     1
 90
        0
176
     1
 90
        0
176
     1
 62
     7
176
     1
 62
   257
176
     1
 90
        1
176
     1
 90
        1
176
     1
 40
1.0
176
     1
 90
        8
176
     1
 62
   257
176
     1
 40
1.0
176
     1
 90
        1
176
     1
 90
        6
176
     1
 90
        2
176
     1
 62
     7
176
     1
 90
        3
176
     1
 90
        0
176
     1
 90
        0
176
     1
290
     0
176
     1
 90
       13
176
     1
 40
0.0
176
     1
 90
        0
176
     1
290
     0
176
     1
290
     1
176
     1
290
     1
176
     1
290
     0
176
     1
290
     0
176
     1
290
     0
176
     1
290
     0
176
     1
290
     0
176
     1
290
     0
176
     1
 90
       50
176
     1
 40
0.0
176
     1
 40
1.0
176
     1
 90
        0
176
     1
 62
    18
420
        0
176
     1
 90
       50
176
     1
 90
        3
176
     1
 62
     5
420
      255
176
     1
290
     0
176
     1
 90
       50
176
     1
 90
       50
176
     1
 90
       50
176
     1
290
     0
176
     1
 90
       50
176
     1
 62
   256
176
     0
 40
1.0
176
     0
 90
        2
176
     1
  1
strokes_ogs.tif
176
     1
290
     0
176
     1
 40
1.0
176
     1
 40
1.0
176
     1
  0
VISUALSTYLE
  5
3E
102
{ACAD_REACTORS
330
29
102
}
330
29
100
AcDbVisualStyle
  2
Shaded
 70
    27
177
     3
291
     0
 70
    58
 90
        2
176
     1
 90
        2
176
     1
 90
        1
176
     1
 90
        2
176
     1
 40
0.6
176
     1
 40
30.0
176
     1
 62
     7
420
 16777215
176
     1
 90
        0
176
     1
 90
        4
176
     1
 62
     7
176
     1
 62
   257
176
     1
 90
        1
176
     1
 90
        1
176
     1
 40
1.0
176
     1
 90
        8
176
     1
 62
   257
176
     1
 40
1.0
176
     1
 90
        1
176
     1
 90
        6
176
     1
 90
        2
176
     1
 62
     8
420
  7895160
176
     1
 90
        3
176
     1
 90
        0
176
     1
 90
        0
176
     1
290
     0
176
     1
 90
        5
176
     1
 40
0.0
176
     1
 90
        0
176
     1
290
     0
176
     1
290
     1
176
     1
290
     1
176
     1
290
     0
176
     1
290
     0
176
     1
290
     0
176
     1
290
     0
176
     1
290
     0
176
     1
290
     0
176
     1
 90
       50
176
     1
 40
0.0
176
     1
 40
1.0
176
     1
 90
        0
176
     1
 62
    18
420
        0
176
     1
 90
       50
176
     1
 90
        3
176
     1
 62
     5
420
      255
176
     1
290
     0
176
     1
 90
       50
176
     1
 90
       50
176
     1
 90
       50
176
     1
290
     0
176
     1
 90
       50
176
     1
 62
   256
176
     0
 40
1.0
176
     0
 90
        2
176
     1
  1
strokes_ogs.tif
176
     1
290
     0
176
     1
 40
1.0
176
     1
 40
1.0
176
     1
  0
VISUALSTYLE
  5
3D
102
{ACAD_REACTORS
330
29
102
}
330
29
100
AcDbVisualStyle
  2
Shaded with edges
 70
    26
177
     3
291
     0
 70
    58
 90
        2
176
     1
 90
        2
176
     1
 90
        1
176
     1
 90
        2
176
     1
 40
0.6
176
     1
 40
30.0
176
     1
 62
     7
420
 16777215
176
     1
 90
        1
176
     1
 90
        2
176
     1
 62
     7
176
     1
 62
   257
176
     1
 90
        2
176
     1
 90
        1
176
     1
 40
1.0
176
     1
 90
        8
176
     1
 62
   257
176
     1
 40
1.0
176
     1
 90
        1
176
     1
 90
        6
176
     1
 90
        2
176
     1
 62
     7
176
     1
 90
        3
176
     1
 90
        0
176
     1
 90
        0
176
     1
290
     0
176
     1
 90
        5
176
     1
 40
0.0
176
     1
 90
        0
176
     1
290
     0
176
     1
290
     1
176
     1
290
     1
176
     1
290
     0
176
     1
290
     0
176
     1
290
     0
176
     1
290
     0
176
     1
290
     0
176
     1
290
     0
176
     1
 90
       50
176
     1
 40
0.0
176
     1
 40
1.0
176
     1
 90
        0
176
     1
 62
    18
420
        0
176
     1
 90
       50
176
     1
 90
        3
176
     1
 62
     5
420
      255
176
     1
290
     0
176
     1
 90
       50
176
     1
 90
       50
176
     1
 90
       50
176
     1
290
     0
176
     1
 90
       50
176
     1
 62
   256
176
     0
 40
1.0
176
     0
 90
        2
176
     1
  1
strokes_ogs.tif
176
     1
290
     0
176
     1
 40
1.0
176
     1
 40
1.0
176
     1
  0
VISUALSTYLE
  5
3A
102
{ACAD_REACTORS
330
29
102
}
330
29
100
AcDbVisualStyle
  2
Shades of Gray
 70
    23
177
     3
291
     0
 70
    58
 90
        2
176
     1
 90
        2
176
     1
 90
        3
176
     1
 90
        0
176
     1
 40
0.6
176
     1
 40
30.0
176
     1
 62
     7
420
 16777215
176
     1
 90
        2
176
     1
 90
        2
176
     1
 62
     7
176
     1
 62
     7
176
     1
 90
        1
176
     1
 90
        1
176
     1
 40
40.0
176
     1
 90
        8
176
     1
 62
     7
176
     1
 40
1.0
176
     1
 90
        1
176
     1
 90
        6
176
     1
 90
        2
176
     1
 62
     7
176
     1
 90
        3
176
     1
 90
        0
176
     1
 90
        0
176
     1
290
     0
176
     1
 90
        1
176
     1
 40
0.0
176
     1
 90
        0
176
     1
290
     0
176
     1
290
     1
176
     1
290
     1
176
     1
290
     0
176
     1
290
     0
176
     1
290
     0
176
     1
290
     0
176
     1
290
     0
176
     1
290
     0
176
     1
 90
       50
176
     1
 40
0.0
176
     1
 40
1.0
176
     1
 90
        0
176
     1
 62
    18
420
        0
176
     1
 90
       50
176
     1
 90
        3
176
     1
 62
     5
420
      255
176
     1
290
     0
176
     1
 90
       50
176
     1
 90
       50
176
     1
 90
       50
176
     1
290
     0
176
     1
 90
       50
176
     1
 62
   256
176
     0
 40
1.0
176
     0
 90
        2
176
     1
  1
strokes_ogs.tif
176
     1
290
     0
176
     1
 40
1.0
176
     1
 40
1.0
176
     1
  0
VISUALSTYLE
  5
3B
102
{ACAD_REACTORS
330
29
102
}
330
29
100
AcDbVisualStyle
  2
Sketchy
 70
    24
177
     3
291
     0
 70
    58
 90
        1
176
     1
 90
        2
176
     1
 90
        2
176
     1
 90
        0
176
     1
 40
0.6
176
     1
 40
30.0
176
     1
 62
     7
420
 16777215
176
     1
 90
        2
176
     1
 90
        2
176
     1
 62
     7
176
     1
 62
     7
176
     1
 90
        1
176
     1
 90
        1
176
     1
 40
40.0
176
     1
 90
       11
176
     1
 62
     7
176
     1
 40
1.0
176
     1
 90
        1
176
     1
 90
        6
176
     1
 90
        2
176
     1
 62
     7
176
     1
 90
        6
176
     1
 90
        0
176
     1
 90
        0
176
     1
290
     0
176
     1
 90
        1
176
     1
 40
0.0
176
     1
 90
        0
176
     1
290
     0
176
     1
290
     1
176
     1
290
     1
176
     1
290
     0
176
     1
290
     0
176
     1
290
     0
176
     1
290
     0
176
     1
290
     0
176
     1
290
     0
176
     1
 90
       50
176
     1
 40
0.0
176
     1
 40
1.0
176
     1
 90
        0
176
     1
 62
    18
420
        0
176
     1
 90
       50
176
     1
 90
        3
176
     1
 62
     5
420
      255
176
     1
290
     0
176
     1
 90
       50
176
     1
 90
       50
176
     1
 90
       50
176
     1
290
     0
176
     1
 90
       50
176
     1
 62
   256
176
     0
 40
1.0
176
     0
 90
        2
176
     1
  1
strokes_ogs.tif
176
     1
290
     0
176
     1
 40
1.0
176
     1
 40
1.0
176
     1
  0
VISUALSTYLE
  5
36
102
{ACAD_REACTORS
330
29
102
}
330
29
100
AcDbVisualStyle
  2
Thicken
 70
    13
177
     3
291
     1
 70
    58
 90
        2
176
     1
 90
        2
176
     1
 90
        0
176
     1
 90
        0
176
     1
 40
0.6
176
     1
 40
30.0
176
     1
 62
     7
420
 16777215
176
     1
 90
        1
176
     1
 90
        4
176
     1
 62
     7
176
     1
 62
   257
176
     1
 90
        1
176
     1
 90
        1
176
     1
 40
1.0
176
     1
 90
       12
176
     1
 62
     7
176
     1
 40
1.0
176
     1
 90
        1
176
     1
 90
        6
176
     1
 90
        2
176
     1
 62
     7
176
     1
 90
        5
176
     1
 90
        0
176
     1
 90
        0
176
     1
290
     0
176
     1
 90
        1
176
     1
 40
0.0
176
     1
 90
        0
176
     1
290
     0
176
     1
290
     1
176
     1
290
     1
176
     1
290
     0
176
     1
290
     0
176
     1
290
     0
176
     1
290
     0
176
     1
290
     0
176
     1
290
     0
176
     1
 90
       50
176
     1
 40
0.0
176
     1
 40
1.0
176
     1
 90
        0
176
     1
 62
    18
420
        0
176
     1
 90
       50
176
     1
 90
        3
176
     1
 62
     5
420
      255
176
     1
290
     0
176
     1
 90
       50
176
     1
 90
       50
176
     1
 90
       50
176
     1
290
     0
176
     1
 90
       50
176
     1
 62
   256
176
     0
 40
1.0
176
     0
 90
        2
176
     1
  1
strokes_ogs.tif
176
     1
290
     0
176
     1
 40
1.0
176
     1
 40
1.0
176
     1
  0
VISUALSTYLE
  5
30
102
{ACAD_REACTORS
330
29
102
}
330
29
100
AcDbVisualStyle
  2
Wireframe
 70
     5
177
     3
291
     0
 70
    58
 90
        0
176
     1
 90
        2
176
     1
 90
        0
176
     1
 90
        0
176
     1
 40
0.6
176
     1
 40
30.0
176
     1
 62
     7
420
 16777215
176
     1
 90
        1
176
     1
 90
        4
176
     1
 62
     7
176
     1
 62
   257
176
     1
 90
        1
176
     1
 90
        1
176
     1
 40
1.0
176
     1
 90
        0
176
     1
 62
   257
176
     1
 40
1.0
176
     1
 90
        1
176
     1
 90
        6
176
     1
 90
        2
176
     1
 62
     7
176
     1
 90
        3
176
     1
 90
        0
176
     1
 90
        0
176
     1
290
     0
176
     1
 90
        1
176
     1
 40
0.0
176
     1
 90
        0
176
     1
290
     0
176
     1
290
     1
176
     1
290
     1
176
     1
290
     0
176
     1
290
     0
176
     1
290
     0
176
     1
290
     0
176
     1
290
     0
176
     1
290
     0
176
     1
 90
       50
176
     1
 40
0.0
176
     1
 40
1.0
176
     1
 90
        0
176
     1
 62
    18
420
        0
176
     1
 90
       50
176
     1
 90
        3
176
     1
 62
     5
420
      255
176
     1
290
     0
176
     1
 90
       50
176
     1
 90
       50
176
     1
 90
       50
176
     1
290
     0
176
     1
 90
       50
176
     1
 62
   256
176
     0
 40
1.0
176
     0
 90
        2
176
     1
  1
strokes_ogs.tif
176
     1
290
     0
176
     1
 40
1.0
176
     1
 40
1.0
176
     1
  0
VISUALSTYLE
  5
3C
102
{ACAD_REACTORS
330
29
102
}
330
29
100
AcDbVisualStyle
  2
X-Ray
 70
    25
177
     3
291
     0
 70
    58
 90
        2
176
     1
 90
        2
176
     1
 90
        1
176
     1
 90
        1
176
     1
 40
0.5
176
     1
 40
30.0
176
     1
 62
     7
420
 16777215
176
     1
 90
        1
176
     1
 90
        0
176
     1
 62
     7
176
     1
 62
   257
176
     1
 90
        1
176
     1
 90
        1
176
     1
 40
1.0
176
     1
 90
        8
176
     1
 62
     7
176
     1
 40
1.0
176
     1
 90
        1
176
     1
 90
        6
176
     1
 90
        2
176
     1
 62
     7
176
     1
 90
        3
176
     1
 90
        0
176
     1
 90
        0
176
     1
290
     0
176
     1
 90
       13
176
     1
 40
0.0
176
     1
 90
        0
176
     1
290
     0
176
     1
290
     1
176
     1
290
     1
176
     1
290
     0
176
     1
290
     0
176
     1
290
     0
176
     1
290
     0
176
     1
290
     0
176
     1
290
     0
176
     1
 90
       50
176
     1
 40
0.0
176
     1
 40
1.0
176
     1
 90
        0
176
     1
 62
    18
420
        0
176
     1
 90
       50
176
     1
 90
        3
176
     1
 62
     5
420
      255
176
     1
290
     0
176
     1
 90
       50
176
     1
 90
       50
176
     1
 90
       50
176
     1
290
     0
176
     1
 90
       50
176
     1
 62
   256
176
     0
 40
1.0
176
     0
 90
        2
176
     1
  1
strokes_ogs.tif
176
     1
290
     0
176
     1
 40
1.0
176
     1
 40
1.0
176
     1
  0
DICTIONARYVAR
  5
A7
102
{ACAD_REACTORS
330
A2
102
}
330
A2
100
DictionaryVariables
280
     0
  1
1:1
  0
DICTIONARYVAR
  5
A4
102
{ACAD_REACTORS
330
A2
102
}
330
A2
100
DictionaryVariables
280
     0
  1
STANDARD
  0
DICTIONARYVAR
  5
A3
102
{ACAD_REACTORS
330
A2
102
}
330
A2
100
DictionaryVariables
280
     0
  1
STANDARD
  0
DICTIONARYVAR
  5
A5
102
{ACAD_REACTORS
330
A2
102
}
330
A2
100
DictionaryVariables
280
     0
  1
Imperial24
  0
DICTIONARYVAR
  5
A6
102
{ACAD_REACTORS
330
A2
102
}
330
A2
100
DictionaryVariables
280
     0
  1
Imperial24
  0
DICTIONARY
  5
1A
330
19
100
AcDbDictionary
280
     1
281
     1
  3
BUMPTILE
360
1C
  3
DIFFUSETILE
360
1B
  3
OPACITYTILE
360
1F
  3
REFLECTIONTILE
360
1E
  3
REFRACTIONTILE
360
20
  3
SPECULARTILE
360
1D
  0
DICTIONARY
  5
12
330
11
100
AcDbDictionary
280
     1
281
     1
  3
BUMPTILE
360
14
  3
DIFFUSETILE
360
13
  3
OPACITYTILE
360
17
  3
REFLECTIONTILE
360
16
  3
REFRACTIONTILE
360
18
  3
SPECULARTILE
360
15
  0
DICTIONARY
  5
22
330
21
100
AcDbDictionary
280
     1
281
     1
  3
BUMPTILE
360
24
  3
DIFFUSETILE
360
23
  3
OPACITYTILE
360
27
  3
REFLECTIONTILE
360
26
  3
REFRACTIONTILE
360
28
  3
SPECULARTILE
360
25
  0
DICTIONARY
  5
A8
330
65
100
AcDbDictionary
280
     1
281
     1
  3
ACAD_ROUNDTRIP_2008_TABLESTYLE_CELLSTYLEMAP
360
A9
  0
XRECORD
  5
1C
102
{ACAD_REACTORS
330
1A
102
}
330
1A
100
AcDbXrecord
280
     1
270
     1
271
     1
  0
XRECORD
  5
1B
102
{ACAD_REACTORS
330
1A
102
}
330
1A
100
AcDbXrecord
280
     1
270
     1
271
     1
  0
XRECORD
  5
1F
102
{ACAD_REACTORS
330
1A
102
}
330
1A
100
AcDbXrecord
280
     1
270
     1
271
     1
  0
XRECORD
  5
1E
102
{ACAD_REACTORS
330
1A
102
}
330
1A
100
AcDbXrecord
280
     1
270
     1
271
     1
  0
XRECORD
  5
20
102
{ACAD_REACTORS
330
1A
102
}
330
1A
100
AcDbXrecord
280
     1
270
     1
271
     1
  0
XRECORD
  5
1D
102
{ACAD_REACTORS
330
1A
102
}
330
1A
100
AcDbXrecord
280
     1
270
     1
271
     1
  0
XRECORD
  5
14
102
{ACAD_REACTORS
330
12
102
}
330
12
100
AcDbXrecord
280
     1
270
     1
271
     1
  0
XRECORD
  5
13
102
{ACAD_REACTORS
330
12
102
}
330
12
100
AcDbXrecord
280
     1
270
     1
271
     1
  0
XRECORD
  5
17
102
{ACAD_REACTORS
330
12
102
}
330
12
100
AcDbXrecord
280
     1
270
     1
271
     1
  0
XRECORD
  5
16
102
{ACAD_REACTORS
330
12
102
}
330
12
100
AcDbXrecord
280
     1
270
     1
271
     1
  0
XRECORD
  5
18
102
{ACAD_REACTORS
330
12
102
}
330
12
100
AcDbXrecord
280
     1
270
     1
271
     1
  0
XRECORD
  5
15
102
{ACAD_REACTORS
330
12
102
}
330
12
100
AcDbXrecord
280
     1
270
     1
271
     1
  0
XRECORD
  5
24
102
{ACAD_REACTORS
330
22
102
}
330
22
100
AcDbXrecord
280
     1
270
     1
271
     1
  0
XRECORD
  5
23
102
{ACAD_REACTORS
330
22
102
}
330
22
100
AcDbXrecord
280
     1
270
     1
271
     1
  0
XRECORD
  5
27
102
{ACAD_REACTORS
330
22
102
}
330
22
100
AcDbXrecord
280
     1
270
     1
271
     1
  0
XRECORD
  5
26
102
{ACAD_REACTORS
330
22
102
}
330
22
100
AcDbXrecord
280
     1
270
     1
271
     1
  0
XRECORD
  5
28
102
{ACAD_REACTORS
330
22
102
}
330
22
100
AcDbXrecord
280
     1
270
     1
271
     1
  0
XRECORD
  5
25
102
{ACAD_REACTORS
330
22
102
}
330
22
100
AcDbXrecord
280
     1
270
     1
271
     1
  0
CELLSTYLEMAP
  5
A9
102
{ACAD_REACTORS
330
A8
102
}
330
A8
100
AcDbCellStyleMap
 90
        3
300
CELLSTYLE
  1
TABLEFORMAT_BEGIN
 90
        5
170
     1
 91
        0
 92
    32768
 62
   257
 93
        1
300
CONTENTFORMAT
  1
CONTENTFORMAT_BEGIN
 90
        0
 91
        0
 92
      512
 93
        0
300

 40
0.0
140
1.0
 94
        5
 62
     0
340
55
144
0.25
309
CONTENTFORMAT_END
171
     0
 94
        0
309
TABLEFORMAT_END
  1
CELLSTYLE_BEGIN
 90
        1
 91
        1
300
_TITLE
309
CELLSTYLE_END
300
CELLSTYLE
  1
TABLEFORMAT_BEGIN
 90
        5
170
     1
 91
        0
 92
        0
 62
   257
 93
        1
300
CONTENTFORMAT
  1
CONTENTFORMAT_BEGIN
 90
        0
 91
        0
 92
      512
 93
        0
300

 40
0.0
140
1.0
 94
        5
 62
     0
340
55
144
0.18
309
CONTENTFORMAT_END
171
     0
 94
        0
309
TABLEFORMAT_END
  1
CELLSTYLE_BEGIN
 90
        2
 91
        1
300
_HEADER
309
CELLSTYLE_END
300
CELLSTYLE
  1
TABLEFORMAT_BEGIN
 90
        5
170
     1
 91
        0
 92
        0
 62
   257
 93
        1
300
CONTENTFORMAT
  1
CONTENTFORMAT_BEGIN
 90
        0
 91
        0
 92
      512
 93
        0
300

 40
0.0
140
1.0
 94
        2
 62
     0
340
55
144
0.18
309
CONTENTFORMAT_END
171
     0
 94
        0
309
TABLEFORMAT_END
  1
CELLSTYLE_BEGIN
 90
        3
 91
        2
300
_DATA
309
CELLSTYLE_END
  0
ENDSEC
  0
EOF
