  0
SECTION
  2
HEADER
  9
$ACADVER
  1
AC1032
  9
$ACADMAINTVER
 90
      141
  9
$DWGCODEPAGE
  3
ANSI_1252
  9
$REQUIREDVERSIONS
160
                 0
  9
$INSBASE
 10
0.0
 20
0.0
 30
0.0
  9
$EXTMIN
 10
1.000000000000000E+20
 20
1.000000000000000E+20
 30
1.000000000000000E+20
  9
$EXTMAX
 10
-1.000000000000000E+20
 20
-1.000000000000000E+20
 30
-1.000000000000000E+20
  9
$LIMMIN
 10
0.0
 20
0.0
  9
$LIMMAX
 10
12.0
 20
9.0
  9
$ORTHOMODE
 70
     0
  9
$REGENMODE
 70
     1
  9
$FILLMODE
 70
     1
  9
$QTEXTMODE
 70
     0
  9
$MIRRTEXT
 70
     0
  9
$LTSCALE
 40
1.0
  9
$ATTMODE
 70
     1
  9
$TEXTSIZE
 40
0.2
  9
$TRACEWID
 40
0.05
  9
$TEXTSTYLE
  7
Standard
  9
$CLAYER
  8
0
  9
$CELTYPE
  6
ByLayer
  9
$CECOLOR
 62
   256
  9
$CELTSCALE
 40
1.0
  9
$DISPSILH
 70
     0
  9
$DIMSCALE
 40
1.0
  9
$DIMASZ
 40
0.18
  9
$DIMEXO
 40
0.0625
  9
$DIMDLI
 40
0.38
  9
$DIMRND
 40
0.0
  9
$DIMDLE
 40
0.0
  9
$DIMEXE
 40
0.18
  9
$DIMTP
 40
0.0
  9
$DIMTM
 40
0.0
  9
$DIMTXT
 40
0.18
  9
$DIMCEN
 40
0.09
  9
$DIMTSZ
 40
0.0
  9
$DIMTOL
 70
     0
  9
$DIMLIM
 70
     0
  9
$DIMTIH
 70
     1
  9
$DIMTOH
 70
     1
  9
$DIMSE1
 70
     0
  9
$DIMSE2
 70
     0
  9
$DIMTAD
 70
     0
  9
$DIMZIN
 70
     0
  9
$DIMBLK
  1

  9
$DIMASO
 70
     1
  9
$DIMSHO
 70
     1
  9
$DIMPOST
  1

  9
$DIMAPOST
  1

  9
$DIMALT
 70
     0
  9
$DIMALTD
 70
     2
  9
$DIMALTF
 40
25.4
  9
$DIMLFAC
 40
1.0
  9
$DIMTOFL
 70
     0
  9
$DIMTVP
 40
0.0
  9
$DIMTIX
 70
     0
  9
$DIMSOXD
 70
     0
  9
$DIMSAH
 70
     0
  9
$DIMBLK1
  1

  9
$DIMBLK2
  1

  9
$DIMSTYLE
  2
Standard
  9
$DIMCLRD
 70
     0
  9
$DIMCLRE
 70
     0
  9
$DIMCLRT
 70
     0
  9
$DIMTFAC
 40
1.0
  9
$DIMGAP
 40
0.09
  9
$DIMJUST
 70
     0
  9
$DIMSD1
 70
     0
  9
$DIMSD2
 70
     0
  9
$DIMTOLJ
 70
     1
  9
$DIMTZIN
 70
     0
  9
$DIMALTZ
 70
     0
  9
$DIMALTTZ
 70
     0
  9
$DIMUPT
 70
     0
  9
$DIMDEC
 70
     4
  9
$DIMTDEC
 70
     4
  9
$DIMALTU
 70
     2
  9
$DIMALTTD
 70
     2
  9
$DIMTXSTY
  7
Standard
  9
$DIMAUNIT
 70
     0
  9
$DIMADEC
 70
     0
  9
$DIMALTRND
 40
0.0
  9
$DIMAZIN
 70
     0
  9
$DIMDSEP
 70
    46
  9
$DIMATFIT
 70
     3
  9
$DIMFRAC
 70
     0
  9
$DIMLDRBLK
  1

  9
$DIMLUNIT
 70
     2
  9
$DIMLWD
 70
    -2
  9
$DIMLWE
 70
    -2
  9
$DIMTMOVE
 70
     0
  9
$DIMFXL
 40
1.0
  9
$DIMFXLON
 70
     0
  9
$DIMJOGANG
 40
0.7853981633974483
  9
$DIMTFILL
 70
     0
  9
$DIMTFILLCLR
 70
     0
  9
$DIMARCSYM
 70
     0
  9
$DIMLTYPE
  6

  9
$DIMLTEX1
  6

  9
$DIMLTEX2
  6

  9
$DIMTXTDIRECTION
 70
     0
  9
$LUNITS
 70
     2
  9
$LUPREC
 70
     4
  9
$SKETCHINC
 40
0.1
  9
$FILLETRAD
 40
0.0
  9
$AUNITS
 70
     0
  9
$AUPREC
 70
     0
  9
$MENU
  1
.
  9
$ELEVATION
 40
0.0
  9
$PELEVATION
 40
0.0
  9
$THICKNESS
 40
0.0
  9
$LIMCHECK
 70
     0
  9
$CHAMFERA
 40
0.0
  9
$CHAMFERB
 40
0.0
  9
$CHAMFERC
 40
0.0
  9
$CHAMFERD
 40
0.0
  9
$SKPOLY
 70
     0
  9
$TDCREATE
 40
2460089.837233796
  9
$TDUCREATE
 40
2460089.753900463
  9
$TDUPDATE
 40
2460089.837233796
  9
$TDUUPDATE
 40
2460089.753900463
  9
$TDINDWG
 40
0.0000000000
  9
$TDUSRTIMER
 40
0.0000000000
  9
$USRTIMER
 70
     1
  9
$ANGBASE
 50
0.0
  9
$ANGDIR
 70
     0
  9
$PDMODE
 70
     0
  9
$PDSIZE
 40
0.0
  9
$PLINEWID
 40
0.0
  9
$SPLFRAME
 70
     0
  9
$SPLINETYPE
 70
     6
  9
$SPLINESEGS
 70
     8
  9
$HANDSEED
  5
9F
  9
$SURFTAB1
 70
     6
  9
$SURFTAB2
 70
     6
  9
$SURFTYPE
 70
     6
  9
$SURFU
 70
     6
  9
$SURFV
 70
     6
  9
$UCSBASE
  2

  9
$UCSNAME
  2

  9
$UCSORG
 10
0.0
 20
0.0
 30
0.0
  9
$UCSXDIR
 10
1.0
 20
0.0
 30
0.0
  9
$UCSYDIR
 10
0.0
 20
1.0
 30
0.0
  9
$UCSORTHOREF
  2

  9
$UCSORTHOVIEW
 70
     0
  9
$UCSORGTOP
 10
0.0
 20
0.0
 30
0.0
  9
$UCSORGBOTTOM
 10
0.0
 20
0.0
 30
0.0
  9
$UCSORGLEFT
 10
0.0
 20
0.0
 30
0.0
  9
$UCSORGRIGHT
 10
0.0
 20
0.0
 30
0.0
  9
$UCSORGFRONT
 10
0.0
 20
0.0
 30
0.0
  9
$UCSORGBACK
 10
0.0
 20
0.0
 30
0.0
  9
$PUCSBASE
  2

  9
$PUCSNAME
  2

  9
$PUCSORG
 10
0.0
 20
0.0
 30
0.0
  9
$PUCSXDIR
 10
1.0
 20
0.0
 30
0.0
  9
$PUCSYDIR
 10
0.0
 20
1.0
 30
0.0
  9
$PUCSORTHOREF
  2

  9
$PUCSORTHOVIEW
 70
     0
  9
$PUCSORGTOP
 10
0.0
 20
0.0
 30
0.0
  9
$PUCSORGBOTTOM
 10
0.0
 20
0.0
 30
0.0
  9
$PUCSORGLEFT
 10
0.0
 20
0.0
 30
0.0
  9
$PUCSORGRIGHT
 10
0.0
 20
0.0
 30
0.0
  9
$PUCSORGFRONT
 10
0.0
 20
0.0
 30
0.0
  9
$PUCSORGBACK
 10
0.0
 20
0.0
 30
0.0
  9
$USERI1
 70
     0
  9
$USERI2
 70
     0
  9
$USERI3
 70
     0
  9
$USERI4
 70
     0
  9
$USERI5
 70
     0
  9
$USERR1
 40
0.0
  9
$USERR2
 40
0.0
  9
$USERR3
 40
0.0
  9
$USERR4
 40
0.0
  9
$USERR5
 40
0.0
  9
$WORLDVIEW
 70
     1
  9
$SHADEDGE
 70
     3
  9
$SHADEDIF
 70
    70
  9
$TILEMODE
 70
     1
  9
$MAXACTVP
 70
    64
  9
$PINSBASE
 10
0.0
 20
0.0
 30
0.0
  9
$PLIMCHECK
 70
     0
  9
$PEXTMIN
 10
1.000000000000000E+20
 20
1.000000000000000E+20
 30
1.000000000000000E+20
  9
$PEXTMAX
 10
-1.000000000000000E+20
 20
-1.000000000000000E+20
 30
-1.000000000000000E+20
  9
$PLIMMIN
 10
0.0
 20
0.0
  9
$PLIMMAX
 10
12.0
 20
9.0
  9
$UNITMODE
 70
     0
  9
$VISRETAIN
 70
     1
  9
$PLINEGEN
 70
     0
  9
$PSLTSCALE
 70
     1
  9
$TREEDEPTH
 70
  3020
  9
$CMLSTYLE
  2
Standard
  9
$CMLJUST
 70
     0
  9
$CMLSCALE
 40
1.0
  9
$PROXYGRAPHICS
 70
     1
  9
$MEASUREMENT
 70
     0
  9
$CELWEIGHT
370
    -1
  9
$ENDCAPS
280
     0
  9
$JOINSTYLE
280
     0
  9
$LWDISPLAY
290
     1
  9
$INSUNITS
 70
     4
  9
$HYPERLINKBASE
  1

  9
$STYLESHEET
  1

  9
$XEDIT
290
     1
  9
$CEPSNTYPE
380
     0
  9
$PSTYLEMODE
290
     1
  9
$FINGERPRINTGUID
  2
{0D733D96-9C5A-E048-BA50-577DACC93B35}
  9
$VERSIONGUID
  2
{EA159B2F-184B-734E-8296-DE3443C17BB1}
  9
$EXTNAMES
290
     1
  9
$PSVPSCALE
 40
0.0
  9
$OLESTARTUP
290
     0
  9
$SORTENTS
280
   127
  9
$INDEXCTL
280
     0
  9
$HIDETEXT
280
     1
  9
$XCLIPFRAME
280
     2
  9
$HALOGAP
280
     0
  9
$OBSCOLOR
 70
   257
  9
$OBSLTYPE
280
     0
  9
$INTERSECTIONDISPLAY
280
     0
  9
$INTERSECTIONCOLOR
 70
   257
  9
$DIMASSOC
280
     2
  9
$PROJECTNAME
  1

  9
$CAMERADISPLAY
290
     0
  9
$LENSLENGTH
 40
50.0
  9
$CAMERAHEIGHT
 40
0.0
  9
$STEPSPERSEC
 40
2.0
  9
$STEPSIZE
 40
6.0
  9
$3DDWFPREC
 40
2.0
  9
$PSOLWIDTH
 40
0.25
  9
$PSOLHEIGHT
 40
4.0
  9
$LOFTANG1
 40
1.570796326794896
  9
$LOFTANG2
 40
1.570796326794896
  9
$LOFTMAG1
 40
0.0
  9
$LOFTMAG2
 40
0.0
  9
$LOFTPARAM
 70
     7
  9
$LOFTNORMALS
280
     1
  9
$LATITUDE
 40
37.795
  9
$LONGITUDE
 40
-122.394
  9
$NORTHDIRECTION
 40
0.0
  9
$TIMEZONE
 70
 -8000
  9
$LIGHTGLYPHDISPLAY
280
     1
  9
$TILEMODELIGHTSYNCH
280
     1
  9
$CMATERIAL
347
11
  9
$SOLIDHIST
280
     0
  9
$SHOWHIST
280
     1
  9
$DWFFRAME
280
     2
  9
$DGNFRAME
280
     0
  9
$REALWORLDSCALE
290
     1
  9
$INTERFERECOLOR
 62
     1
  9
$INTERFEREOBJVS
345
33
  9
$INTERFEREVPVS
346
30
  9
$CSHADOW
280
     0
  9
$SHADOWPLANELOCATION
 40
0.0
  0
ENDSEC
  0
SECTION
  2
CLASSES
  0
CLASS
  1
ACDBDICTIONARYWDFLT
  2
AcDbDictionaryWithDefault
  3
ObjectDBX Classes
 90
        0
 91
        1
280
     0
281
     0
  0
CLASS
  1
MATERIAL
  2
AcDbMaterial
  3
ObjectDBX Classes
 90
     1153
 91
        3
280
     0
281
     0
  0
CLASS
  1
VISUALSTYLE
  2
AcDbVisualStyle
  3
ObjectDBX Classes
 90
     4095
 91
       24
280
     0
281
     0
  0
CLASS
  1
SCALE
  2
AcDbScale
  3
ObjectDBX Classes
 90
     1153
 91
       17
280
     0
281
     0
  0
CLASS
  1
TABLESTYLE
  2
AcDbTableStyle
  3
ObjectDBX Classes
 90
     4095
 91
        1
280
     0
281
     0
  0
CLASS
  1
MLEADERSTYLE
  2
AcDbMLeaderStyle
  3
ACDB_MLEADERSTYLE_CLASS
 90
     4095
 91
        1
280
     0
281
     0
  0
CLASS
  1
ACDBSECTIONVIEWSTYLE
  2
AcDbSectionViewStyle
  3
ObjectDBX Classes
 90
     1025
 91
        1
280
     0
281
     0
  0
CLASS
  1
ACDBDETAILVIEWSTYLE
  2
AcDbDetailViewStyle
  3
ObjectDBX Classes
 90
     1025
 91
        1
280
     0
281
     0
  0
CLASS
  1
DICTIONARYVAR
  2
AcDbDictionaryVar
  3
ObjectDBX Classes
 90
        0
 91
        5
280
     0
281
     0
  0
CLASS
  1
CELLSTYLEMAP
  2
AcDbCellStyleMap
  3
ObjectDBX Classes
 90
     1152
 91
        1
280
     0
281
     0
  0
ENDSEC
  0
SECTION
  2
TABLES
  0
TABLE
  2
VPORT
  5
8
330
0
100
AcDbSymbolTable
 70
     1
  0
VPORT
  5
57
330
8
100
AcDbSymbolTableRecord
100
AcDbViewportTableRecord
  2
*Active
 70
     0
 10
0.0
 20
0.0
 11
1.0
 21
1.0
 12
0.0
 22
0.0
 13
0.0
 23
0.0
 14
1.0
 24
1.0
 15
0.0
 25
0.0
 16
0.0
 26
0.0
 36
1.0
 17
625.1222220659417
 27
-625.1222220659417
 37
0.0
 40
1275.609166347764
 41
1.0
 42
50.0
 43
0.0
 44
0.0
 50
0.0
 51
0.0
 71
     0
 72
   100
 73
     1
 74
     1
 75
     0
 76
     0
 77
     0
 78
     0
281
     0
 65
     1
110
0.0
120
0.0
130
0.0
111
1.0
121
0.0
131
0.0
112
0.0
122
1.0
132
0.0
 79
     0
146
0.0
 60
     3
 61
     5
292
     1
282
     1
141
0.0
142
0.0
 63
   250
421
  3355443
  0
ENDTAB
  0
TABLE
  2
LTYPE
  5
5
330
0
100
AcDbSymbolTable
 70
     1
  0
LTYPE
  5
5B
330
5
100
AcDbSymbolTableRecord
100
AcDbLinetypeTableRecord
  2
ByBlock
 70
     0
  3

 72
    65
 73
     0
 40
0.0
  0
LTYPE
  5
5C
330
5
100
AcDbSymbolTableRecord
100
AcDbLinetypeTableRecord
  2
ByLayer
 70
     0
  3

 72
    65
 73
     0
 40
0.0
  0
LTYPE
  5
5D
330
5
100
AcDbSymbolTableRecord
100
AcDbLinetypeTableRecord
  2
Continuous
 70
     0
  3
Solid line
 72
    65
 73
     0
 40
0.0
  0
ENDTAB
  0
TABLE
  2
LAYER
  5
2
330
0
100
AcDbSymbolTable
 70
    11
  0
LAYER
  5
54
330
2
100
AcDbSymbolTableRecord
100
AcDbLayerTableRecord
  2
0
 70
     0
 62
     7
  6
Continuous
370
    -3
390
F
347
21
348
0
  0
LAYER
  5
78
330
2
100
AcDbSymbolTableRecord
100
AcDbLayerTableRecord
  2
Bounding Box (pattern cutoff)
 70
     5
 62
     7
  6
Continuous
370
     0
390
F
347
21
348
0
  0
LAYER
  5
79
330
2
100
AcDbSymbolTableRecord
100
AcDbLayerTableRecord
  2
Bounding Box
 70
     5
 62
     7
  6
Continuous
370
     0
390
F
347
21
348
0
  0
LAYER
  5
7A
330
2
100
AcDbSymbolTableRecord
100
AcDbLayerTableRecord
  2
Background
 70
     0
 62
     7
  6
Continuous
370
     0
390
F
347
21
348
0
  0
LAYER
  5
7D
330
2
100
AcDbSymbolTableRecord
100
AcDbLayerTableRecord
  2
Screws
 70
     0
 62
     7
  6
Continuous
370
     0
390
F
347
21
348
0
  0
LAYER
  5
86
330
2
100
AcDbSymbolTableRecord
100
AcDbLayerTableRecord
  2
2023-025
 70
     0
 62
     7
  6
Continuous
370
     0
390
F
347
21
348
0
  0
LAYER
  5
91
330
2
100
AcDbSymbolTableRecord
100
AcDbLayerTableRecord
  2
2023-026
 70
     1
 62
     7
  6
Continuous
370
     0
390
F
347
21
348
0
  0
LAYER
  5
92
330
2
100
AcDbSymbolTableRecord
100
AcDbLayerTableRecord
  2
2023-027
 70
     1
 62
     7
  6
Continuous
370
     0
390
F
347
21
348
0
  0
LAYER
  5
93
330
2
100
AcDbSymbolTableRecord
100
AcDbLayerTableRecord
  2
2023-028
 70
     1
 62
     7
  6
Continuous
370
     0
390
F
347
21
348
0
  0
LAYER
  5
94
330
2
100
AcDbSymbolTableRecord
100
AcDbLayerTableRecord
  2
2023-029
 70
     1
 62
     7
  6
Continuous
370
     0
390
F
347
21
348
0
  0
LAYER
  5
95
330
2
100
AcDbSymbolTableRecord
100
AcDbLayerTableRecord
  2
2023-030
 70
     1
 62
     7
  6
Continuous
370
     0
390
F
347
21
348
0
  0
ENDTAB
  0
TABLE
  2
STYLE
  5
3
330
0
100
AcDbSymbolTable
 70
     2
  0
STYLE
  5
55
330
3
100
AcDbSymbolTableRecord
100
AcDbTextStyleTableRecord
  2
Standard
 70
     0
 40
0.0
 41
1.0
 50
0.0
 71
     0
 42
0.2
  3
txt
  4

  0
STYLE
  5
5A
330
3
100
AcDbSymbolTableRecord
100
AcDbTextStyleTableRecord
  2
Annotative
 70
     0
 40
0.0
 41
1.0
 50
0.0
 71
     0
 42
0.2
  3
txt
  4

1001
AcadAnnotative
1000
AnnotativeData
1002
{
1070
     1
1070
     1
1002
}
  0
ENDTAB
  0
TABLE
  2
VIEW
  5
6
330
0
100
AcDbSymbolTable
 70
     0
  0
ENDTAB
  0
TABLE
  2
UCS
  5
7
330
0
100
AcDbSymbolTable
 70
     0
  0
ENDTAB
  0
TABLE
  2
APPID
  5
9
330
0
100
AcDbSymbolTable
 70
     2
  0
APPID
  5
56
330
9
100
AcDbSymbolTableRecord
100
AcDbRegAppTableRecord
  2
ACAD
 70
     0
  0
APPID
  5
5E
330
9
100
AcDbSymbolTableRecord
100
AcDbRegAppTableRecord
  2
AcadAnnotative
 70
     0
  0
ENDTAB
  0
TABLE
  2
DIMSTYLE
  5
A
330
0
100
AcDbSymbolTable
 70
     2
100
AcDbDimStyleTable
 71
     0
  0
DIMSTYLE
105
58
330
A
100
AcDbSymbolTableRecord
100
AcDbDimStyleTableRecord
  2
Standard
 70
     0
340
55
  0
DIMSTYLE
105
59
330
A
100
AcDbSymbolTableRecord
100
AcDbDimStyleTableRecord
  2
Annotative
 70
     0
340
55
1001
AcadAnnotative
1000
AnnotativeData
1002
{
1070
     1
1070
     1
1002
}
  0
ENDTAB
  0
TABLE
  2
BLOCK_RECORD
  5
1
330
0
100
AcDbSymbolTable
 70
     1
  0
BLOCK_RECORD
  5
70
330
1
100
AcDbSymbolTableRecord
100
AcDbBlockTableRecord
  2
*Model_Space
340
73
 70
     0
280
     1
281
     0
  0
BLOCK_RECORD
  5
6C
330
1
100
AcDbSymbolTableRecord
100
AcDbBlockTableRecord
  2
*Paper_Space
340
6F
 70
     0
280
     1
281
     0
  0
BLOCK_RECORD
  5
74
330
1
100
AcDbSymbolTableRecord
100
AcDbBlockTableRecord
  2
*Paper_Space0
340
77
 70
     0
280
     1
281
     0
  0
ENDTAB
  0
ENDSEC
  0
SECTION
  2
BLOCKS
  0
BLOCK
  5
71
330
70
100
AcDbEntity
  8
0
100
AcDbBlockBegin
  2
*Model_Space
 70
     0
 10
0.0
 20
0.0
 30
0.0
  3
*Model_Space
  1

  0
ENDBLK
  5
72
330
70
100
AcDbEntity
  8
0
100
AcDbBlockEnd
  0
BLOCK
  5
6D
330
6C
100
AcDbEntity
 67
     1
  8
0
100
AcDbBlockBegin
  2
*Paper_Space
 70
     0
 10
0.0
 20
0.0
 30
0.0
  3
*Paper_Space
  1

  0
ENDBLK
  5
6E
330
6C
100
AcDbEntity
 67
     1
  8
0
100
AcDbBlockEnd
  0
BLOCK
  5
75
330
74
100
AcDbEntity
 67
     1
  8
0
100
AcDbBlockBegin
  2
*Paper_Space0
 70
     0
 10
0.0
 20
0.0
 30
0.0
  3
*Paper_Space0
  1

  0
ENDBLK
  5
76
330
74
100
AcDbEntity
 67
     1
  8
0
100
AcDbBlockEnd
  0
ENDSEC
  0
SECTION
  2
ENTITIES
  0
LWPOLYLINE
  5
7B
330
70
100
AcDbEntity
  8
Background
 62
   233
420
 12799387
370
    35
100
AcDbPolyline
 90
        4
 70
     1
 43
0.0
 10
1250.244444131883
 20
-1250.244444131883
 10
0.0
 20
-1250.244444131883
 10
0.0
 20
0.0
 10
1250.244444131883
 20
0.0
  0
HATCH
  5
7C
330
70
100
AcDbEntity
  8
Background
 62
   230
420
 15401099
440
 33554687
100
AcDbHatch
 10
0.0
 20
0.0
 30
0.0
210
0.0
220
0.0
230
1.0
  2
SOLID
 70
     1
 71
     1
 91
        1
 92
        1
 93
        4
 72
     1
 10
1250.244444131883
 20
-1250.244444131883
 11
0.0
 21
-1250.244444131883
 72
     1
 10
0.0
 20
-1250.244444131883
 11
0.0
 21
0.0
 72
     1
 10
0.0
 20
0.0
 11
1250.244444131883
 21
0.0
 72
     1
 10
1250.244444131883
 20
0.0
 11
1250.244444131883
 21
-1250.244444131883
 97
        1
330
7B
 75
     2
 76
     1
 98
        1
 10
0.0
 20
0.0
450
        0
451
        0
460
0.0
461
0.0
452
        0
462
0.0
453
        0
470

  0
ELLIPSE
  5
7E
330
70
100
AcDbEntity
  8
Screws
100
AcDbEllipse
 10
1212.6745853038
 20
-37.51513670353807
 30
0.0
 11
2.557638888249479
 21
0.0
 31
0.0
210
0.0
220
0.0
230
1.0
 40
0.9655172413793103
 41
0.0
 42
6.283185307179586
  0
HATCH
  5
7F
330
70
100
AcDbEntity
  8
Screws
 62
    18
420
        0
440
 33554687
100
AcDbHatch
 10
0.0
 20
0.0
 30
0.0
210
0.0
220
0.0
230
1.0
  2
SOLID
 70
     1
 71
     1
 91
        1
 92
        1
 93
        1
 72
     3
 10
1212.6745853038
 20
-37.51513670353807
 11
2.557638888249479
 21
0.0
 40
0.9655172413793103
 50
0.0
 51
360.0
 73
     1
 97
        1
330
7E
 75
     2
 76
     1
 98
        1
 10
0.0
 20
0.0
450
        0
451
        0
460
0.0
461
0.0
452
        0
462
0.0
453
        0
470

  0
ELLIPSE
  5
80
330
70
100
AcDbEntity
  8
Screws
100
AcDbEllipse
 10
37.3219878356064
 20
-37.51513670353775
 30
0.0
 11
2.557638888249479
 21
0.0
 31
0.0
210
0.0
220
0.0
230
1.0
 40
0.9655172413793103
 41
0.0
 42
6.283185307179586
  0
HATCH
  5
81
330
70
100
AcDbEntity
  8
Screws
 62
    18
420
        0
440
 33554687
100
AcDbHatch
 10
0.0
 20
0.0
 30
0.0
210
0.0
220
0.0
230
1.0
  2
SOLID
 70
     1
 71
     1
 91
        1
 92
        1
 93
        1
 72
     3
 10
37.3219878356064
 20
-37.51513670353775
 11
2.557638888249479
 21
0.0
 40
0.9655172413793103
 50
0.0
 51
360.0
 73
     1
 97
        1
330
80
 75
     2
 76
     1
 98
        1
 10
0.0
 20
0.0
450
        0
451
        0
460
0.0
461
0.0
452
        0
462
0.0
453
        0
470

  0
ELLIPSE
  5
82
330
70
100
AcDbEntity
  8
Screws
100
AcDbEllipse
 10
37.33954805773364
 20
-1212.515764532182
 30
0.0
 11
2.557638888249479
 21
0.0
 31
0.0
210
0.0
220
0.0
230
1.0
 40
0.9655172413793103
 41
0.0
 42
6.283185307179586
  0
HATCH
  5
83
330
70
100
AcDbEntity
  8
Screws
 62
    18
420
        0
440
 33554687
100
AcDbHatch
 10
0.0
 20
0.0
 30
0.0
210
0.0
220
0.0
230
1.0
  2
SOLID
 70
     1
 71
     1
 91
        1
 92
        1
 93
        1
 72
     3
 10
37.33954805773364
 20
-1212.515764532182
 11
2.557638888249479
 21
0.0
 40
0.9655172413793103
 50
0.0
 51
360.0
 73
     1
 97
        1
330
82
 75
     2
 76
     1
 98
        1
 10
0.0
 20
0.0
450
        0
451
        0
460
0.0
461
0.0
452
        0
462
0.0
453
        0
470

  0
ELLIPSE
  5
84
330
70
100
AcDbEntity
  8
Screws
100
AcDbEllipse
 10
1212.643721369271
 20
-1212.474237178821
 30
0.0
 11
2.557638888249479
 21
0.0
 31
0.0
210
0.0
220
0.0
230
1.0
 40
0.9655172413793103
 41
0.0
 42
6.283185307179586
  0
HATCH
  5
85
330
70
100
AcDbEntity
  8
Screws
 62
    18
420
        0
440
 33554687
100
AcDbHatch
 10
0.0
 20
0.0
 30
0.0
210
0.0
220
0.0
230
1.0
  2
SOLID
 70
     1
 71
     1
 91
        1
 92
        1
 93
        1
 72
     3
 10
1212.643721369271
 20
-1212.474237178821
 11
2.557638888249479
 21
0.0
 40
0.9655172413793103
 50
0.0
 51
360.0
 73
     1
 97
        1
330
84
 75
     2
 76
     1
 98
        1
 10
0.0
 20
0.0
450
        0
451
        0
460
0.0
461
0.0
452
        0
462
0.0
453
        0
470

  0
SPLINE
  5
87
330
70
100
AcDbEntity
  8
2023-025
100
AcDbSpline
210
0.0
220
0.0
230
1.0
 70
     9
 71
     3
 72
   107
 73
   103
 74
     0
 42
0.0000000001
 43
0.0000000001
 40
0.0
 40
0.0
 40
0.0
 40
0.0
 40
1.0
 40
1.0
 40
1.0
 40
2.0
 40
2.0
 40
2.0
 40
3.0
 40
3.0
 40
3.0
 40
4.0
 40
4.0
 40
4.0
 40
5.0
 40
5.0
 40
5.0
 40
6.0
 40
6.0
 40
6.0
 40
7.0
 40
7.0
 40
7.0
 40
8.0
 40
8.0
 40
8.0
 40
9.0
 40
9.0
 40
9.0
 40
10.0
 40
10.0
 40
10.0
 40
11.0
 40
11.0
 40
11.0
 40
12.0
 40
12.0
 40
12.0
 40
13.0
 40
13.0
 40
13.0
 40
14.0
 40
14.0
 40
14.0
 40
15.0
 40
15.0
 40
15.0
 40
16.0
 40
16.0
 40
16.0
 40
17.0
 40
17.0
 40
17.0
 40
18.0
 40
18.0
 40
18.0
 40
19.0
 40
19.0
 40
19.0
 40
20.0
 40
20.0
 40
20.0
 40
21.0
 40
21.0
 40
21.0
 40
22.0
 40
22.0
 40
22.0
 40
23.0
 40
23.0
 40
23.0
 40
24.0
 40
24.0
 40
24.0
 40
25.0
 40
25.0
 40
25.0
 40
26.0
 40
26.0
 40
26.0
 40
27.0
 40
27.0
 40
27.0
 40
28.0
 40
28.0
 40
28.0
 40
29.0
 40
29.0
 40
29.0
 40
30.0
 40
30.0
 40
30.0
 40
31.0
 40
31.0
 40
31.0
 40
32.0
 40
32.0
 40
32.0
 40
33.0
 40
33.0
 40
33.0
 40
34.0
 40
34.0
 40
34.0
 40
34.0
 10
773.3465079175593
 20
-1065.679999191045
 30
0.0
 10
772.7008970236235
 20
-1039.904828299051
 30
0.0
 10
772.4693004796257
 20
-1014.107436541178
 30
0.0
 10
771.1844521184018
 20
-988.3632715085516
 30
0.0
 10
769.759905135251
 20
-959.8219473240655
 30
0.0
 10
767.9265975727753
 20
-931.2743358403169
 30
0.0
 10
765.1960148911663
 20
-902.8328332975142
 30
0.0
 10
762.740953720992
 20
-877.2597172557304
 30
0.0
 10
758.8162148168065
 20
-851.8284530205498
 30
0.0
 10
755.5650782073761
 20
-826.3314735889901
 30
0.0
 10
752.9691987592403
 20
-805.9719066724237
 30
0.0
 10
751.0972199999446
 20
-785.4907278852246
 30
0.0
 10
747.6530719159513
 20
-765.2769746350696
 30
0.0
 10
743.8325471501983
 20
-742.8537955228388
 30
0.0
 10
738.8821171926686
 20
-720.6076081911608
 30
0.0
 10
733.8831113887968
 20
-698.406207100791
 30
0.0
 10
729.426794251237
 20
-678.6150809392872
 30
0.0
 10
723.4320697247428
 20
-659.1451238043978
 30
0.0
 10
719.5879460549121
 20
-639.2488361032086
 30
0.0
 10
715.6494267687892
 20
-618.8642491806779
 30
0.0
 10
714.4928220870018
 20
-597.9299972734795
 30
0.0
 10
710.3330415433369
 20
-577.6022544264555
 30
0.0
 10
703.9113835588311
 20
-546.2217839888786
 30
0.0
 10
702.9159232183681
 20
-514.4392278444804
 30
0.0
 10
701.1214591074906
 20
-482.7022330878767
 30
0.0
 10
699.5465337064087
 20
-454.8468274145001
 30
0.0
 10
698.6612302940847
 20
-426.9496499583667
 30
0.0
 10
697.7116758509646
 20
-399.0626785976076
 30
0.0
 10
696.7560063633563
 20
-370.9972082270197
 30
0.0
 10
695.8677746198699
 20
-342.9255366845594
 30
0.0
 10
695.3976052135223
 20
-314.8490420084189
 30
0.0
 10
695.13887854258
 20
-299.3955063813143
 30
0.0
 10
696.1409276281573
 20
-283.9229581335006
 30
0.0
 10
695.9749601531541
 20
-268.4652883918138
 30
0.0
 10
695.6742463809879
 20
-240.4564037145712
 30
0.0
 10
694.823264732435
 20
-212.4538709321296
 30
0.0
 10
694.3891396376007
 20
-184.4457398695244
 30
0.0
 10
693.8603174806148
 20
-150.3221121518183
 30
0.0
 10
693.3969952015416
 20
-116.1963958449746
 30
0.0
 10
693.1548480526247
 20
-82.06975366871867
 30
0.0
 10
693.102568728634
 20
-74.70502232697262
 30
0.0
 10
693.0793143341086
 20
-67.3386115011775
 30
0.0
 10
693.097917849729
 20
-59.97222220722917
 30
0.0
 10
693.097917849729
 20
-59.97222220722917
 30
0.0
 10
542.3812346056149
 20
-59.97222220722917
 30
0.0
 10
542.3812346056149
 20
-59.97222220722917
 30
0.0
 10
542.4046181912217
 20
-64.47134465619119
 30
0.0
 10
542.4224465603598
 20
-68.97029485037896
 30
0.0
 10
542.4301118978125
 20
-73.46896513055854
 30
0.0
 10
542.4611177571798
 20
-91.6882234132216
 30
0.0
 10
542.9083772785543
 20
-109.9107545365956
 30
0.0
 10
542.6752304415881
 20
-128.1254480677408
 30
0.0
 10
542.4608593750203
 20
-144.8862251767233
 30
0.0
 10
541.2723014326092
 20
-161.6347937285803
 30
0.0
 10
541.0733902320283
 20
-178.3954201146351
 30
0.0
 10
540.732110460522
 20
-207.1398326779785
 30
0.0
 10
540.507662489658
 20
-235.8930302348093
 30
0.0
 10
540.8274534780743
 20
-264.6360001644183
 30
0.0
 10
541.1660633005815
 20
-295.0667869677915
 30
0.0
 10
542.22706658265
 20
-325.4892409464598
 30
0.0
 10
542.9163871255556
 20
-355.9166041861945
 30
0.0
 10
543.5265135359934
 20
-382.8463127026845
 30
0.0
 10
543.1518594019725
 20
-409.8367840907926
 30
0.0
 10
544.8943025710266
 20
-436.6911742072335
 30
0.0
 10
546.476075099383
 20
-461.0690143704098
 30
0.0
 10
549.766959497975
 20
-485.3820436747708
 30
0.0
 10
553.3388344970819
 20
-509.5707911594996
 30
0.0
 10
556.6013399216135
 20
-531.6648775255039
 30
0.0
 10
560.4701821515491
 20
-553.7334701849173
 30
0.0
 10
565.4789203501686
 20
-575.4890328558031
 30
0.0
 10
572.2302309089165
 20
-604.8134703077829
 30
0.0
 10
580.4622004435352
 20
-633.7934843386229
 30
0.0
 10
587.81248391609
 20
-662.9833908119036
 30
0.0
 10
594.738374688555
 20
-690.4879135101038
 30
0.0
 10
598.9209789898116
 20
-718.431685882677
 30
0.0
 10
600.5527915300924
 20
-746.7673378666936
 30
0.0
 10
601.901761731035
 20
-770.1903698161329
 30
0.0
 10
603.3371607649643
 20
-793.6109901987326
 30
0.0
 10
605.0274968648022
 20
-817.0115429001327
 30
0.0
 10
607.2214197971983
 20
-847.3829879337724
 30
0.0
 10
610.4149371846358
 20
-877.6993975670334
 30
0.0
 10
611.8744949506549
 20
-908.1020207148148
 30
0.0
 10
613.4680238673572
 20
-941.2949989508742
 30
0.0
 10
613.6414844250395
 20
-974.5582571348327
 30
0.0
 10
614.2988517073213
 20
-1007.793437790586
 30
0.0
 10
614.6874584780574
 20
-1027.434788425867
 30
0.0
 10
614.1791777029011
 20
-1047.114465748423
 30
0.0
 10
615.2002609410369
 20
-1066.718178715525
 30
0.0
 10
616.935254091101
 20
-1100.029323726729
 30
0.0
 10
619.5935328312128
 20
-1133.29189289159
 30
0.0
 10
621.7861207891071
 20
-1166.579955763042
 30
0.0
 10
622.2979758508268
 20
-1174.351574413443
 30
0.0
 10
622.5891294830265
 20
-1182.137490210108
 30
0.0
 10
622.9434575536845
 20
-1189.919444146964
 30
0.0
 10
622.9434575536845
 20
-1189.919444146964
 30
0.0
 10
778.7733084533101
 20
-1189.919444146964
 30
0.0
 10
778.7733084533101
 20
-1189.919444146964
 30
0.0
 10
777.4663253535955
 20
-1165.575538174318
 30
0.0
 10
775.7389544772911
 20
-1141.25178601026
 30
0.0
 10
774.5721867638223
 20
-1116.901162101417
 30
0.0
 10
773.755010114721
 20
-1099.847164302948
 30
0.0
 10
773.7743026494383
 20
-1082.753720161169
 30
0.0
 10
773.3465079175593
 20
-1065.679999191045
 30
0.0
  0
HATCH
  5
88
330
70
100
AcDbEntity
  8
2023-025
 62
    18
420
        0
440
 33554687
100
AcDbHatch
 10
0.0
 20
0.0
 30
0.0
210
0.0
220
0.0
230
1.0
  2
SOLID
 70
     1
 71
     1
 91
        1
 92
        1
 93
        1
 72
     4
 94
        3
 73
     0
 74
     0
 95
      107
 96
      103
 40
0.0
 40
0.0
 40
0.0
 40
0.0
 40
1.0
 40
1.0
 40
1.0
 40
2.0
 40
2.0
 40
2.0
 40
3.0
 40
3.0
 40
3.0
 40
4.0
 40
4.0
 40
4.0
 40
5.0
 40
5.0
 40
5.0
 40
6.0
 40
6.0
 40
6.0
 40
7.0
 40
7.0
 40
7.0
 40
8.0
 40
8.0
 40
8.0
 40
9.0
 40
9.0
 40
9.0
 40
10.0
 40
10.0
 40
10.0
 40
11.0
 40
11.0
 40
11.0
 40
12.0
 40
12.0
 40
12.0
 40
13.0
 40
13.0
 40
13.0
 40
14.0
 40
14.0
 40
14.0
 40
15.0
 40
15.0
 40
15.0
 40
16.0
 40
16.0
 40
16.0
 40
17.0
 40
17.0
 40
17.0
 40
18.0
 40
18.0
 40
18.0
 40
19.0
 40
19.0
 40
19.0
 40
20.0
 40
20.0
 40
20.0
 40
21.0
 40
21.0
 40
21.0
 40
22.0
 40
22.0
 40
22.0
 40
23.0
 40
23.0
 40
23.0
 40
24.0
 40
24.0
 40
24.0
 40
25.0
 40
25.0
 40
25.0
 40
26.0
 40
26.0
 40
26.0
 40
27.0
 40
27.0
 40
27.0
 40
28.0
 40
28.0
 40
28.0
 40
29.0
 40
29.0
 40
29.0
 40
30.0
 40
30.0
 40
30.0
 40
31.0
 40
31.0
 40
31.0
 40
32.0
 40
32.0
 40
32.0
 40
33.0
 40
33.0
 40
33.0
 40
34.0
 40
34.0
 40
34.0
 40
34.0
 10
773.3465079175593
 20
-1065.679999191045
 10
772.7008970236235
 20
-1039.904828299051
 10
772.4693004796257
 20
-1014.107436541178
 10
771.1844521184018
 20
-988.3632715085516
 10
769.759905135251
 20
-959.8219473240655
 10
767.9265975727753
 20
-931.2743358403169
 10
765.1960148911663
 20
-902.8328332975142
 10
762.740953720992
 20
-877.2597172557304
 10
758.8162148168065
 20
-851.8284530205498
 10
755.5650782073761
 20
-826.3314735889901
 10
752.9691987592403
 20
-805.9719066724237
 10
751.0972199999446
 20
-785.4907278852246
 10
747.6530719159513
 20
-765.2769746350696
 10
743.8325471501983
 20
-742.8537955228388
 10
738.8821171926686
 20
-720.6076081911608
 10
733.8831113887968
 20
-698.406207100791
 10
729.426794251237
 20
-678.6150809392872
 10
723.4320697247428
 20
-659.1451238043978
 10
719.5879460549121
 20
-639.2488361032086
 10
715.6494267687892
 20
-618.8642491806779
 10
714.4928220870018
 20
-597.9299972734795
 10
710.3330415433369
 20
-577.6022544264555
 10
703.9113835588311
 20
-546.2217839888786
 10
702.9159232183681
 20
-514.4392278444804
 10
701.1214591074906
 20
-482.7022330878767
 10
699.5465337064087
 20
-454.8468274145001
 10
698.6612302940847
 20
-426.9496499583667
 10
697.7116758509646
 20
-399.0626785976076
 10
696.7560063633563
 20
-370.9972082270197
 10
695.8677746198699
 20
-342.9255366845594
 10
695.3976052135223
 20
-314.8490420084189
 10
695.13887854258
 20
-299.3955063813143
 10
696.1409276281573
 20
-283.9229581335006
 10
695.9749601531541
 20
-268.4652883918138
 10
695.6742463809879
 20
-240.4564037145712
 10
694.823264732435
 20
-212.4538709321296
 10
694.3891396376007
 20
-184.4457398695244
 10
693.8603174806148
 20
-150.3221121518183
 10
693.3969952015416
 20
-116.1963958449746
 10
693.1548480526247
 20
-82.06975366871867
 10
693.102568728634
 20
-74.70502232697262
 10
693.0793143341086
 20
-67.3386115011775
 10
693.097917849729
 20
-59.97222220722917
 10
693.097917849729
 20
-59.97222220722917
 10
542.3812346056149
 20
-59.97222220722917
 10
542.3812346056149
 20
-59.97222220722917
 10
542.4046181912217
 20
-64.47134465619119
 10
542.4224465603598
 20
-68.97029485037896
 10
542.4301118978125
 20
-73.46896513055854
 10
542.4611177571798
 20
-91.6882234132216
 10
542.9083772785543
 20
-109.9107545365956
 10
542.6752304415881
 20
-128.1254480677408
 10
542.4608593750203
 20
-144.8862251767233
 10
541.2723014326092
 20
-161.6347937285803
 10
541.0733902320283
 20
-178.3954201146351
 10
540.732110460522
 20
-207.1398326779785
 10
540.507662489658
 20
-235.8930302348093
 10
540.8274534780743
 20
-264.6360001644183
 10
541.1660633005815
 20
-295.0667869677915
 10
542.22706658265
 20
-325.4892409464598
 10
542.9163871255556
 20
-355.9166041861945
 10
543.5265135359934
 20
-382.8463127026845
 10
543.1518594019725
 20
-409.8367840907926
 10
544.8943025710266
 20
-436.6911742072335
 10
546.476075099383
 20
-461.0690143704098
 10
549.766959497975
 20
-485.3820436747708
 10
553.3388344970819
 20
-509.5707911594996
 10
556.6013399216135
 20
-531.6648775255039
 10
560.4701821515491
 20
-553.7334701849173
 10
565.4789203501686
 20
-575.4890328558031
 10
572.2302309089165
 20
-604.8134703077829
 10
580.4622004435352
 20
-633.7934843386229
 10
587.81248391609
 20
-662.9833908119036
 10
594.738374688555
 20
-690.4879135101038
 10
598.9209789898116
 20
-718.431685882677
 10
600.5527915300924
 20
-746.7673378666936
 10
601.901761731035
 20
-770.1903698161329
 10
603.3371607649643
 20
-793.6109901987326
 10
605.0274968648022
 20
-817.0115429001327
 10
607.2214197971983
 20
-847.3829879337724
 10
610.4149371846358
 20
-877.6993975670334
 10
611.8744949506549
 20
-908.1020207148148
 10
613.4680238673572
 20
-941.2949989508742
 10
613.6414844250395
 20
-974.5582571348327
 10
614.2988517073213
 20
-1007.793437790586
 10
614.6874584780574
 20
-1027.434788425867
 10
614.1791777029011
 20
-1047.114465748423
 10
615.2002609410369
 20
-1066.718178715525
 10
616.935254091101
 20
-1100.029323726729
 10
619.5935328312128
 20
-1133.29189289159
 10
621.7861207891071
 20
-1166.579955763042
 10
622.2979758508268
 20
-1174.351574413443
 10
622.5891294830265
 20
-1182.137490210108
 10
622.9434575536845
 20
-1189.919444146964
 10
622.9434575536845
 20
-1189.919444146964
 10
778.7733084533101
 20
-1189.919444146964
 10
778.7733084533101
 20
-1189.919444146964
 10
777.4663253535955
 20
-1165.575538174318
 10
775.7389544772911
 20
-1141.25178601026
 10
774.5721867638223
 20
-1116.901162101417
 10
773.755010114721
 20
-1099.847164302948
 10
773.7743026494383
 20
-1082.753720161169
 10
773.3465079175593
 20
-1065.679999191045
 97
        0
 97
        1
330
87
 75
     2
 76
     1
 98
        1
 10
0.0
 20
0.0
450
        0
451
        0
460
0.0
461
0.0
452
        0
462
0.0
453
        0
470

  0
SPLINE
  5
89
330
70
100
AcDbEntity
  8
2023-025
100
AcDbSpline
210
0.0
220
0.0
230
1.0
 70
     9
 71
     3
 72
   203
 73
   199
 74
     0
 42
0.0000000001
 43
0.0000000001
 40
0.0
 40
0.0
 40
0.0
 40
0.0
 40
1.0
 40
1.0
 40
1.0
 40
2.0
 40
2.0
 40
2.0
 40
3.0
 40
3.0
 40
3.0
 40
4.0
 40
4.0
 40
4.0
 40
5.0
 40
5.0
 40
5.0
 40
6.0
 40
6.0
 40
6.0
 40
7.0
 40
7.0
 40
7.0
 40
8.0
 40
8.0
 40
8.0
 40
9.0
 40
9.0
 40
9.0
 40
10.0
 40
10.0
 40
10.0
 40
11.0
 40
11.0
 40
11.0
 40
12.0
 40
12.0
 40
12.0
 40
13.0
 40
13.0
 40
13.0
 40
14.0
 40
14.0
 40
14.0
 40
15.0
 40
15.0
 40
15.0
 40
16.0
 40
16.0
 40
16.0
 40
17.0
 40
17.0
 40
17.0
 40
18.0
 40
18.0
 40
18.0
 40
19.0
 40
19.0
 40
19.0
 40
20.0
 40
20.0
 40
20.0
 40
21.0
 40
21.0
 40
21.0
 40
22.0
 40
22.0
 40
22.0
 40
23.0
 40
23.0
 40
23.0
 40
24.0
 40
24.0
 40
24.0
 40
25.0
 40
25.0
 40
25.0
 40
26.0
 40
26.0
 40
26.0
 40
27.0
 40
27.0
 40
27.0
 40
28.0
 40
28.0
 40
28.0
 40
29.0
 40
29.0
 40
29.0
 40
30.0
 40
30.0
 40
30.0
 40
31.0
 40
31.0
 40
31.0
 40
32.0
 40
32.0
 40
32.0
 40
33.0
 40
33.0
 40
33.0
 40
34.0
 40
34.0
 40
34.0
 40
35.0
 40
35.0
 40
35.0
 40
36.0
 40
36.0
 40
36.0
 40
37.0
 40
37.0
 40
37.0
 40
38.0
 40
38.0
 40
38.0
 40
39.0
 40
39.0
 40
39.0
 40
40.0
 40
40.0
 40
40.0
 40
41.0
 40
41.0
 40
41.0
 40
42.0
 40
42.0
 40
42.0
 40
43.0
 40
43.0
 40
43.0
 40
44.0
 40
44.0
 40
44.0
 40
45.0
 40
45.0
 40
45.0
 40
46.0
 40
46.0
 40
46.0
 40
47.0
 40
47.0
 40
47.0
 40
48.0
 40
48.0
 40
48.0
 40
49.0
 40
49.0
 40
49.0
 40
50.0
 40
50.0
 40
50.0
 40
51.0
 40
51.0
 40
51.0
 40
52.0
 40
52.0
 40
52.0
 40
53.0
 40
53.0
 40
53.0
 40
54.0
 40
54.0
 40
54.0
 40
55.0
 40
55.0
 40
55.0
 40
56.0
 40
56.0
 40
56.0
 40
57.0
 40
57.0
 40
57.0
 40
58.0
 40
58.0
 40
58.0
 40
59.0
 40
59.0
 40
59.0
 40
60.0
 40
60.0
 40
60.0
 40
61.0
 40
61.0
 40
61.0
 40
62.0
 40
62.0
 40
62.0
 40
63.0
 40
63.0
 40
63.0
 40
64.0
 40
64.0
 40
64.0
 40
65.0
 40
65.0
 40
65.0
 40
66.0
 40
66.0
 40
66.0
 40
66.0
 10
1128.60705446976
 20
-1111.770842335873
 30
0.0
 10
1125.134161146024
 20
-1119.486299345736
 30
0.0
 10
1121.981008728035
 20
-1127.346779259563
 30
0.0
 10
1119.193838726276
 20
-1135.335909493862
 30
0.0
 10
1117.835890728695
 20
-1139.228324881958
 30
0.0
 10
1116.563840019886
 20
-1143.150722570467
 30
0.0
 10
1115.380227724825
 20
-1147.099650716595
 30
0.0
 10
1114.786402389637
 20
-1149.08085147785
 30
0.0
 10
1114.214839899058
 20
-1151.068723155191
 30
0.0
 10
1113.665850742339
 20
-1153.062813830896
 30
0.0
 10
1113.134978601936
 20
-1154.99109815531
 30
0.0
 10
1112.5190654827
 20
-1157.190633683991
 30
0.0
 10
1113.818479650874
 20
-1158.966393877411
 30
0.0
 10
1115.060931438916
 20
-1160.664310124198
 30
0.0
 10
1117.30301206618
 20
-1161.294676864184
 30
0.0
 10
1119.286386842145
 20
-1161.635332567721
 30
0.0
 10
1121.289683695256
 20
-1161.979409999359
 30
0.0
 10
1123.314509668316
 20
-1162.044649338202
 30
0.0
 10
1125.33447412507
 20
-1161.817873126526
 30
0.0
 10
1129.44376135592
 20
-1161.356534023363
 30
0.0
 10
1133.28602521281
 20
-1159.959815775817
 30
0.0
 10
1136.937274702972
 20
-1158.049911596402
 30
0.0
 10
1140.362169400305
 20
-1156.258409614923
 30
0.0
 10
1143.587186707248
 20
-1154.109172181042
 30
0.0
 10
1146.927865507165
 20
-1152.169849654376
 30
0.0
 10
1150.295697511266
 20
-1150.214764217326
 30
0.0
 10
1153.730809033917
 20
-1148.375806012615
 30
0.0
 10
1157.222587649803
 20
-1146.651914219025
 30
0.0
 10
1158.997476437678
 20
-1145.775651273249
 30
0.0
 10
1160.787038033044
 20
-1144.929117241302
 30
0.0
 10
1162.590009934629
 20
-1144.112202155907
 30
0.0
 10
1163.495628673147
 20
-1143.701872073413
 30
0.0
 10
1164.404639696832
 20
-1143.299032643274
 30
0.0
 10
1165.316878000927
 20
-1142.903638227856
 30
0.0
 10
1165.761654221694
 20
-1142.710857423749
 30
0.0
 10
1166.207818513736
 20
-1142.521394924615
 30
0.0
 10
1166.653457641479
 20
-1142.330633058543
 30
0.0
 10
1166.941216151267
 20
-1142.207454129926
 30
0.0
 10
1166.274873859039
 20
-1142.489056414587
 30
0.0
 10
1166.753605547033
 20
-1142.288255652783
 30
0.0
 10
1166.853081897118
 20
-1142.246530971966
 30
0.0
 10
1166.952530090938
 20
-1142.204741512153
 30
0.0
 10
1167.052045869161
 20
-1142.16311048775
 30
0.0
 10
1167.300968579332
 20
-1142.058977177371
 30
0.0
 10
1167.550128818113
 20
-1141.95541069013
 30
0.0
 10
1167.799511687347
 20
-1141.852384266358
 30
0.0
 10
1171.511898523179
 20
-1140.318702580332
 30
0.0
 10
1175.274461070245
 20
-1138.906615710822
 30
0.0
 10
1179.078124870217
 20
-1137.615899678538
 30
0.0
 10
1180.009254307727
 20
-1137.299934925519
 30
0.0
 10
1180.942954013552
 20
-1136.991660461589
 30
0.0
 10
1181.878762498053
 20
-1136.689845367831
 30
0.0
 10
1182.755470761198
 20
-1136.407091160084
 30
0.0
 10
1183.412921677339
 20
-1135.453850077627
 30
0.0
 10
1183.110732032614
 20
-1134.520052757098
 30
0.0
 10
1182.826841902663
 20
-1133.642802833747
 30
0.0
 10
1181.881288988717
 20
-1132.984803547924
 30
0.0
 10
1180.940939421881
 20
-1133.288083222537
 30
0.0
 10
1173.427916288156
 20
-1135.711168521568
 30
0.0
 10
1166.062741334372
 20
-1138.598567096362
 30
0.0
 10
1158.91026425436
 20
-1141.939891963192
 30
0.0
 10
1155.438829050893
 20
-1143.561594855655
 30
0.0
 10
1152.019168051773
 20
-1145.294401371351
 30
0.0
 10
1148.660952858706
 20
-1147.139246323185
 30
0.0
 10
1145.339441540563
 20
-1148.963927898202
 30
0.0
 10
1142.122364067883
 20
-1150.952508538336
 30
0.0
 10
1138.872742715308
 20
-1152.899422578525
 30
0.0
 10
1137.241988437113
 20
-1153.876440531031
 30
0.0
 10
1135.588847877954
 20
-1154.819774081121
 30
0.0
 10
1133.877246208516
 20
-1155.648949537476
 30
0.0
 10
1133.444936144915
 20
-1155.858379628995
 30
0.0
 10
1133.009073565984
 20
-1156.060494255354
 30
0.0
 10
1132.569479186999
 20
-1156.254178830583
 30
0.0
 10
1132.471363786775
 20
-1156.297408317866
 30
0.0
 10
1132.372662404739
 20
-1156.339312545389
 30
0.0
 10
1132.274549766707
 20
-1156.382537851125
 30
0.0
 10
1132.5601609777
 20
-1156.256706641564
 30
0.0
 10
1132.304938978754
 20
-1156.370319985303
 30
0.0
 10
1132.250344339344
 20
-1156.392737827138
 30
0.0
 10
1132.000748944053
 20
-1156.495227561564
 30
0.0
 10
1131.750581161773
 20
-1156.596203828185
 30
0.0
 10
1131.49886018782
 20
-1156.693384623189
 30
0.0
 10
1130.631872946453
 20
-1157.02809852506
 30
0.0
 10
1129.749685337155
 20
-1157.322857825892
 30
0.0
 10
1128.854151626266
 20
-1157.571527801392
 30
0.0
 10
1127.950394679916
 20
-1157.822481188154
 30
0.0
 10
1127.033614946552
 20
-1158.027547104687
 30
0.0
 10
1126.108149246056
 20
-1158.180451949746
 30
0.0
 10
1125.97918498603
 20
-1158.201759341459
 30
0.0
 10
1125.850051168264
 20
-1158.221933855777
 30
0.0
 10
1125.720766301925
 20
-1158.241189524068
 30
0.0
 10
1125.668268699598
 20
-1158.249008508958
 30
0.0
 10
1125.339834520039
 20
-1158.292636876683
 30
0.0
 10
1125.566888601692
 20
-1158.263939694824
 30
0.0
 10
1125.837345016118
 20
-1158.229756927207
 30
0.0
 10
1125.32707959826
 20
-1158.290925446274
 30
0.0
 10
1125.33447412507
 20
-1158.29009534963
 30
0.0
 10
1125.230639443997
 20
-1158.301751649277
 30
0.0
 10
1125.126708458866
 20
-1158.312696883156
 30
0.0
 10
1125.022731040815
 20
-1158.322979825236
 30
0.0
 10
1124.555642346975
 20
-1158.369172989822
 30
0.0
 10
1124.087017913309
 20
-1158.400902782581
 30
0.0
 10
1123.617928106244
 20
-1158.41720361418
 30
0.0
 10
1122.686183370013
 20
-1158.449581665909
 30
0.0
 10
1121.751712200353
 20
-1158.421014799285
 30
0.0
 10
1120.824691822136
 20
-1158.320187340788
 30
0.0
 10
1120.828482957131
 20
-1158.320599683942
 30
0.0
 10
1120.326316843379
 20
-1158.257162878894
 30
0.0
 10
1120.599348257559
 20
-1158.294954882862
 30
0.0
 10
1120.829163468386
 20
-1158.32676505894
 30
0.0
 10
1120.505855021655
 20
-1158.279509807856
 30
0.0
 10
1120.452249885369
 20
-1158.271034298764
 30
0.0
 10
1120.22413847304
 20
-1158.234967599129
 30
0.0
 10
1119.996777682684
 20
-1158.194385115422
 30
0.0
 10
1119.77033841229
 20
-1158.14897782262
 30
0.0
 10
1119.318598020137
 20
-1158.058391467079
 30
0.0
 10
1118.870486510813
 20
-1157.948484541678
 30
0.0
 10
1118.428491296729
 20
-1157.818375934356
 30
0.0
 10
1118.218885069356
 20
-1157.756674871855
 30
0.0
 10
1118.010609575736
 20
-1157.690603108855
 30
0.0
 10
1117.80479300054
 20
-1157.617206429585
 30
0.0
 10
1117.692462533273
 20
-1157.577148026756
 30
0.0
 10
1117.580871106186
 20
-1157.535302076106
 30
0.0
 10
1117.470291372672
 20
-1157.490600380146
 30
0.0
 10
1117.531334923767
 20
-1157.515277146626
 30
0.0
 10
1117.788549365557
 20
-1157.646498404627
 30
0.0
 10
1117.503598326539
 20
-1157.497338328197
 30
0.0
 10
1117.340548951629
 20
-1157.411988728113
 30
0.0
 10
1117.176154671219
 20
-1157.330919230787
 30
0.0
 10
1117.020129913452
 20
-1157.232661089224
 30
0.0
 10
1116.967244191088
 20
-1157.199355780059
 30
0.0
 10
1116.844031890642
 20
-1157.136340996244
 30
0.0
 10
1116.797609157128
 20
-1157.082783923866
 30
0.0
 10
1117.066862716572
 20
-1157.393416910754
 30
0.0
 10
1116.847080221624
 20
-1157.090992957396
 30
0.0
 10
1116.758364594604
 20
-1157.019619716243
 30
0.0
 10
1116.46605204068
 20
-1156.784449260885
 30
0.0
 10
1116.848312614471
 20
-1157.218341216218
 30
0.0
 10
1116.739576658255
 20
-1157.013652892459
 30
0.0
 10
1116.697644981368
 20
-1156.934719254008
 30
0.0
 10
1116.649592554725
 20
-1156.850838006793
 30
0.0
 10
1116.600138745201
 20
-1156.776518595818
 30
0.0
 10
1116.474956235861
 20
-1156.588393748651
 30
0.0
 10
1116.669608902675
 20
-1157.145711022156
 30
0.0
 10
1116.605369286642
 20
-1156.76417299992
 30
0.0
 10
1116.600141873688
 20
-1156.733125852958
 30
0.0
 10
1116.54022027766
 20
-1156.506561037827
 30
0.0
 10
1116.544458457998
 20
-1156.507183879432
 30
0.0
 10
1116.572826064786
 20
-1156.511352773705
 30
0.0
 10
1116.567128478025
 20
-1156.953839571806
 30
0.0
 10
1116.560394679049
 20
-1156.581092495884
 30
0.0
 10
1116.558775235144
 20
-1156.491448747627
 30
0.0
 10
1116.553704390159
 20
-1156.402591425087
 30
0.0
 10
1116.555040384957
 20
-1156.312933301194
 30
0.0
 10
1116.556387775251
 20
-1156.222510429672
 30
0.0
 10
1116.566468644376
 20
-1156.132387281783
 30
0.0
 10
1116.567705109002
 20
-1156.042132773221
 30
0.0
 10
1116.573228018202
 20
-1155.638993495872
 30
0.0
 10
1116.498945311763
 20
-1156.332540886709
 30
0.0
 10
1116.574475576996
 20
-1155.965694561572
 30
0.0
 10
1116.963032494605
 20
-1154.078495080802
 30
0.0
 10
1117.556986703404
 20
-1152.221033836152
 30
0.0
 10
1118.093666192483
 20
-1150.371286879537
 30
0.0
 10
1119.217858549846
 20
-1146.496588043461
 30
0.0
 10
1120.427236085521
 20
-1142.64662183277
 30
0.0
 10
1121.719414964035
 20
-1138.82466886164
 30
0.0
 10
1123.017733712786
 20
-1134.984555637559
 30
0.0
 10
1124.399643268833
 20
-1131.172721419906
 30
0.0
 10
1125.862622534377
 20
-1127.39227916577
 30
0.0
 10
1126.596956163529
 20
-1125.494708950207
 30
0.0
 10
1127.351715030031
 20
-1123.605043093098
 30
0.0
 10
1128.126571203642
 20
-1121.723656645928
 30
0.0
 10
1128.320615112015
 20
-1121.252509106808
 30
0.0
 10
1128.515930793235
 20
-1120.781885462996
 30
0.0
 10
1128.712479045599
 20
-1120.311777181369
 30
0.0
 10
1128.799877677558
 20
-1120.102735278464
 30
0.0
 10
1128.887575816396
 20
-1119.893818978064
 30
0.0
 10
1128.975434049865
 20
-1119.68496987626
 30
0.0
 10
1129.111726029167
 20
-1119.360988203322
 30
0.0
 10
1129.025367507697
 20
-1119.566794916672
 30
0.0
 10
1128.995865181337
 20
-1119.636504174053
 30
0.0
 10
1129.062130135571
 20
-1119.47993073325
 30
0.0
 10
1129.128477958957
 20
-1119.323392473816
 30
0.0
 10
1129.194993118244
 20
-1119.166925146266
 30
0.0
 10
1129.594413779565
 20
-1118.227345596047
 30
0.0
 10
1129.998851115202
 20
-1117.289898154926
 30
0.0
 10
1130.408262350782
 20
-1116.354628682852
 30
0.0
 10
1130.8182647202
 20
-1115.418008809554
 30
0.0
 10
1131.233525228099
 20
-1114.483709615445
 30
0.0
 10
1131.653187163826
 20
-1113.551379330018
 30
0.0
 10
1132.031005644945
 20
-1112.712009393521
 30
0.0
 10
1131.923206461563
 20
-1111.615043954505
 30
0.0
 10
1131.020389313865
 20
-1111.138044485913
 30
0.0
 10
1130.249530075056
 20
-1110.730764398013
 30
0.0
 10
1129.011393000197
 20
-1110.872554868276
 30
0.0
 10
1128.60705446976
 20
-1111.770842335873
 30
0.0
 10
1128.60705446976
 20
-1111.770842335873
 30
0.0
 10
1128.60705446976
 20
-1111.770842335873
 30
0.0
 10
1128.60705446976
 20
-1111.770842335873
 30
0.0
  0
HATCH
  5
8A
330
70
100
AcDbEntity
  8
2023-025
 62
    18
420
        0
440
 33554687
100
AcDbHatch
 10
0.0
 20
0.0
 30
0.0
210
0.0
220
0.0
230
1.0
  2
SOLID
 70
     1
 71
     1
 91
        1
 92
        1
 93
        1
 72
     4
 94
        3
 73
     0
 74
     0
 95
      203
 96
      199
 40
0.0
 40
0.0
 40
0.0
 40
0.0
 40
1.0
 40
1.0
 40
1.0
 40
2.0
 40
2.0
 40
2.0
 40
3.0
 40
3.0
 40
3.0
 40
4.0
 40
4.0
 40
4.0
 40
5.0
 40
5.0
 40
5.0
 40
6.0
 40
6.0
 40
6.0
 40
7.0
 40
7.0
 40
7.0
 40
8.0
 40
8.0
 40
8.0
 40
9.0
 40
9.0
 40
9.0
 40
10.0
 40
10.0
 40
10.0
 40
11.0
 40
11.0
 40
11.0
 40
12.0
 40
12.0
 40
12.0
 40
13.0
 40
13.0
 40
13.0
 40
14.0
 40
14.0
 40
14.0
 40
15.0
 40
15.0
 40
15.0
 40
16.0
 40
16.0
 40
16.0
 40
17.0
 40
17.0
 40
17.0
 40
18.0
 40
18.0
 40
18.0
 40
19.0
 40
19.0
 40
19.0
 40
20.0
 40
20.0
 40
20.0
 40
21.0
 40
21.0
 40
21.0
 40
22.0
 40
22.0
 40
22.0
 40
23.0
 40
23.0
 40
23.0
 40
24.0
 40
24.0
 40
24.0
 40
25.0
 40
25.0
 40
25.0
 40
26.0
 40
26.0
 40
26.0
 40
27.0
 40
27.0
 40
27.0
 40
28.0
 40
28.0
 40
28.0
 40
29.0
 40
29.0
 40
29.0
 40
30.0
 40
30.0
 40
30.0
 40
31.0
 40
31.0
 40
31.0
 40
32.0
 40
32.0
 40
32.0
 40
33.0
 40
33.0
 40
33.0
 40
34.0
 40
34.0
 40
34.0
 40
35.0
 40
35.0
 40
35.0
 40
36.0
 40
36.0
 40
36.0
 40
37.0
 40
37.0
 40
37.0
 40
38.0
 40
38.0
 40
38.0
 40
39.0
 40
39.0
 40
39.0
 40
40.0
 40
40.0
 40
40.0
 40
41.0
 40
41.0
 40
41.0
 40
42.0
 40
42.0
 40
42.0
 40
43.0
 40
43.0
 40
43.0
 40
44.0
 40
44.0
 40
44.0
 40
45.0
 40
45.0
 40
45.0
 40
46.0
 40
46.0
 40
46.0
 40
47.0
 40
47.0
 40
47.0
 40
48.0
 40
48.0
 40
48.0
 40
49.0
 40
49.0
 40
49.0
 40
50.0
 40
50.0
 40
50.0
 40
51.0
 40
51.0
 40
51.0
 40
52.0
 40
52.0
 40
52.0
 40
53.0
 40
53.0
 40
53.0
 40
54.0
 40
54.0
 40
54.0
 40
55.0
 40
55.0
 40
55.0
 40
56.0
 40
56.0
 40
56.0
 40
57.0
 40
57.0
 40
57.0
 40
58.0
 40
58.0
 40
58.0
 40
59.0
 40
59.0
 40
59.0
 40
60.0
 40
60.0
 40
60.0
 40
61.0
 40
61.0
 40
61.0
 40
62.0
 40
62.0
 40
62.0
 40
63.0
 40
63.0
 40
63.0
 40
64.0
 40
64.0
 40
64.0
 40
65.0
 40
65.0
 40
65.0
 40
66.0
 40
66.0
 40
66.0
 40
66.0
 10
1128.60705446976
 20
-1111.770842335873
 10
1125.134161146024
 20
-1119.486299345736
 10
1121.981008728035
 20
-1127.346779259563
 10
1119.193838726276
 20
-1135.335909493862
 10
1117.835890728695
 20
-1139.228324881958
 10
1116.563840019886
 20
-1143.150722570467
 10
1115.380227724825
 20
-1147.099650716595
 10
1114.786402389637
 20
-1149.08085147785
 10
1114.214839899058
 20
-1151.068723155191
 10
1113.665850742339
 20
-1153.062813830896
 10
1113.134978601936
 20
-1154.99109815531
 10
1112.5190654827
 20
-1157.190633683991
 10
1113.818479650874
 20
-1158.966393877411
 10
1115.060931438916
 20
-1160.664310124198
 10
1117.30301206618
 20
-1161.294676864184
 10
1119.286386842145
 20
-1161.635332567721
 10
1121.289683695256
 20
-1161.979409999359
 10
1123.314509668316
 20
-1162.044649338202
 10
1125.33447412507
 20
-1161.817873126526
 10
1129.44376135592
 20
-1161.356534023363
 10
1133.28602521281
 20
-1159.959815775817
 10
1136.937274702972
 20
-1158.049911596402
 10
1140.362169400305
 20
-1156.258409614923
 10
1143.587186707248
 20
-1154.109172181042
 10
1146.927865507165
 20
-1152.169849654376
 10
1150.295697511266
 20
-1150.214764217326
 10
1153.730809033917
 20
-1148.375806012615
 10
1157.222587649803
 20
-1146.651914219025
 10
1158.997476437678
 20
-1145.775651273249
 10
1160.787038033044
 20
-1144.929117241302
 10
1162.590009934629
 20
-1144.112202155907
 10
1163.495628673147
 20
-1143.701872073413
 10
1164.404639696832
 20
-1143.299032643274
 10
1165.316878000927
 20
-1142.903638227856
 10
1165.761654221694
 20
-1142.710857423749
 10
1166.207818513736
 20
-1142.521394924615
 10
1166.653457641479
 20
-1142.330633058543
 10
1166.941216151267
 20
-1142.207454129926
 10
1166.274873859039
 20
-1142.489056414587
 10
1166.753605547033
 20
-1142.288255652783
 10
1166.853081897118
 20
-1142.246530971966
 10
1166.952530090938
 20
-1142.204741512153
 10
1167.052045869161
 20
-1142.16311048775
 10
1167.300968579332
 20
-1142.058977177371
 10
1167.550128818113
 20
-1141.95541069013
 10
1167.799511687347
 20
-1141.852384266358
 10
1171.511898523179
 20
-1140.318702580332
 10
1175.274461070245
 20
-1138.906615710822
 10
1179.078124870217
 20
-1137.615899678538
 10
1180.009254307727
 20
-1137.299934925519
 10
1180.942954013552
 20
-1136.991660461589
 10
1181.878762498053
 20
-1136.689845367831
 10
1182.755470761198
 20
-1136.407091160084
 10
1183.412921677339
 20
-1135.453850077627
 10
1183.110732032614
 20
-1134.520052757098
 10
1182.826841902663
 20
-1133.642802833747
 10
1181.881288988717
 20
-1132.984803547924
 10
1180.940939421881
 20
-1133.288083222537
 10
1173.427916288156
 20
-1135.711168521568
 10
1166.062741334372
 20
-1138.598567096362
 10
1158.91026425436
 20
-1141.939891963192
 10
1155.438829050893
 20
-1143.561594855655
 10
1152.019168051773
 20
-1145.294401371351
 10
1148.660952858706
 20
-1147.139246323185
 10
1145.339441540563
 20
-1148.963927898202
 10
1142.122364067883
 20
-1150.952508538336
 10
1138.872742715308
 20
-1152.899422578525
 10
1137.241988437113
 20
-1153.876440531031
 10
1135.588847877954
 20
-1154.819774081121
 10
1133.877246208516
 20
-1155.648949537476
 10
1133.444936144915
 20
-1155.858379628995
 10
1133.009073565984
 20
-1156.060494255354
 10
1132.569479186999
 20
-1156.254178830583
 10
1132.471363786775
 20
-1156.297408317866
 10
1132.372662404739
 20
-1156.339312545389
 10
1132.274549766707
 20
-1156.382537851125
 10
1132.5601609777
 20
-1156.256706641564
 10
1132.304938978754
 20
-1156.370319985303
 10
1132.250344339344
 20
-1156.392737827138
 10
1132.000748944053
 20
-1156.495227561564
 10
1131.750581161773
 20
-1156.596203828185
 10
1131.49886018782
 20
-1156.693384623189
 10
1130.631872946453
 20
-1157.02809852506
 10
1129.749685337155
 20
-1157.322857825892
 10
1128.854151626266
 20
-1157.571527801392
 10
1127.950394679916
 20
-1157.822481188154
 10
1127.033614946552
 20
-1158.027547104687
 10
1126.108149246056
 20
-1158.180451949746
 10
1125.97918498603
 20
-1158.201759341459
 10
1125.850051168264
 20
-1158.221933855777
 10
1125.720766301925
 20
-1158.241189524068
 10
1125.668268699598
 20
-1158.249008508958
 10
1125.339834520039
 20
-1158.292636876683
 10
1125.566888601692
 20
-1158.263939694824
 10
1125.837345016118
 20
-1158.229756927207
 10
1125.32707959826
 20
-1158.290925446274
 10
1125.33447412507
 20
-1158.29009534963
 10
1125.230639443997
 20
-1158.301751649277
 10
1125.126708458866
 20
-1158.312696883156
 10
1125.022731040815
 20
-1158.322979825236
 10
1124.555642346975
 20
-1158.369172989822
 10
1124.087017913309
 20
-1158.400902782581
 10
1123.617928106244
 20
-1158.41720361418
 10
1122.686183370013
 20
-1158.449581665909
 10
1121.751712200353
 20
-1158.421014799285
 10
1120.824691822136
 20
-1158.320187340788
 10
1120.828482957131
 20
-1158.320599683942
 10
1120.326316843379
 20
-1158.257162878894
 10
1120.599348257559
 20
-1158.294954882862
 10
1120.829163468386
 20
-1158.32676505894
 10
1120.505855021655
 20
-1158.279509807856
 10
1120.452249885369
 20
-1158.271034298764
 10
1120.22413847304
 20
-1158.234967599129
 10
1119.996777682684
 20
-1158.194385115422
 10
1119.77033841229
 20
-1158.14897782262
 10
1119.318598020137
 20
-1158.058391467079
 10
1118.870486510813
 20
-1157.948484541678
 10
1118.428491296729
 20
-1157.818375934356
 10
1118.218885069356
 20
-1157.756674871855
 10
1118.010609575736
 20
-1157.690603108855
 10
1117.80479300054
 20
-1157.617206429585
 10
1117.692462533273
 20
-1157.577148026756
 10
1117.580871106186
 20
-1157.535302076106
 10
1117.470291372672
 20
-1157.490600380146
 10
1117.531334923767
 20
-1157.515277146626
 10
1117.788549365557
 20
-1157.646498404627
 10
1117.503598326539
 20
-1157.497338328197
 10
1117.340548951629
 20
-1157.411988728113
 10
1117.176154671219
 20
-1157.330919230787
 10
1117.020129913452
 20
-1157.232661089224
 10
1116.967244191088
 20
-1157.199355780059
 10
1116.844031890642
 20
-1157.136340996244
 10
1116.797609157128
 20
-1157.082783923866
 10
1117.066862716572
 20
-1157.393416910754
 10
1116.847080221624
 20
-1157.090992957396
 10
1116.758364594604
 20
-1157.019619716243
 10
1116.46605204068
 20
-1156.784449260885
 10
1116.848312614471
 20
-1157.218341216218
 10
1116.739576658255
 20
-1157.013652892459
 10
1116.697644981368
 20
-1156.934719254008
 10
1116.649592554725
 20
-1156.850838006793
 10
1116.600138745201
 20
-1156.776518595818
 10
1116.474956235861
 20
-1156.588393748651
 10
1116.669608902675
 20
-1157.145711022156
 10
1116.605369286642
 20
-1156.76417299992
 10
1116.600141873688
 20
-1156.733125852958
 10
1116.54022027766
 20
-1156.506561037827
 10
1116.544458457998
 20
-1156.507183879432
 10
1116.572826064786
 20
-1156.511352773705
 10
1116.567128478025
 20
-1156.953839571806
 10
1116.560394679049
 20
-1156.581092495884
 10
1116.558775235144
 20
-1156.491448747627
 10
1116.553704390159
 20
-1156.402591425087
 10
1116.555040384957
 20
-1156.312933301194
 10
1116.556387775251
 20
-1156.222510429672
 10
1116.566468644376
 20
-1156.132387281783
 10
1116.567705109002
 20
-1156.042132773221
 10
1116.573228018202
 20
-1155.638993495872
 10
1116.498945311763
 20
-1156.332540886709
 10
1116.574475576996
 20
-1155.965694561572
 10
1116.963032494605
 20
-1154.078495080802
 10
1117.556986703404
 20
-1152.221033836152
 10
1118.093666192483
 20
-1150.371286879537
 10
1119.217858549846
 20
-1146.496588043461
 10
1120.427236085521
 20
-1142.64662183277
 10
1121.719414964035
 20
-1138.82466886164
 10
1123.017733712786
 20
-1134.984555637559
 10
1124.399643268833
 20
-1131.172721419906
 10
1125.862622534377
 20
-1127.39227916577
 10
1126.596956163529
 20
-1125.494708950207
 10
1127.351715030031
 20
-1123.605043093098
 10
1128.126571203642
 20
-1121.723656645928
 10
1128.320615112015
 20
-1121.252509106808
 10
1128.515930793235
 20
-1120.781885462996
 10
1128.712479045599
 20
-1120.311777181369
 10
1128.799877677558
 20
-1120.102735278464
 10
1128.887575816396
 20
-1119.893818978064
 10
1128.975434049865
 20
-1119.68496987626
 10
1129.111726029167
 20
-1119.360988203322
 10
1129.025367507697
 20
-1119.566794916672
 10
1128.995865181337
 20
-1119.636504174053
 10
1129.062130135571
 20
-1119.47993073325
 10
1129.128477958957
 20
-1119.323392473816
 10
1129.194993118244
 20
-1119.166925146266
 10
1129.594413779565
 20
-1118.227345596047
 10
1129.998851115202
 20
-1117.289898154926
 10
1130.408262350782
 20
-1116.354628682852
 10
1130.8182647202
 20
-1115.418008809554
 10
1131.233525228099
 20
-1114.483709615445
 10
1131.653187163826
 20
-1113.551379330018
 10
1132.031005644945
 20
-1112.712009393521
 10
1131.923206461563
 20
-1111.615043954505
 10
1131.020389313865
 20
-1111.138044485913
 10
1130.249530075056
 20
-1110.730764398013
 10
1129.011393000197
 20
-1110.872554868276
 10
1128.60705446976
 20
-1111.770842335873
 10
1128.60705446976
 20
-1111.770842335873
 10
1128.60705446976
 20
-1111.770842335873
 10
1128.60705446976
 20
-1111.770842335873
 97
        0
 97
        1
330
89
 75
     2
 76
     1
 98
        1
 10
0.0
 20
0.0
450
        0
451
        0
460
0.0
461
0.0
452
        0
462
0.0
453
        0
470

  0
SPLINE
  5
8B
330
70
100
AcDbEntity
  8
2023-025
100
AcDbSpline
210
0.0
220
0.0
230
1.0
 70
     9
 71
     3
 72
    50
 73
    46
 74
     0
 42
0.0000000001
 43
0.0000000001
 40
0.0
 40
0.0
 40
0.0
 40
0.0
 40
1.0
 40
1.0
 40
1.0
 40
2.0
 40
2.0
 40
2.0
 40
3.0
 40
3.0
 40
3.0
 40
4.0
 40
4.0
 40
4.0
 40
5.0
 40
5.0
 40
5.0
 40
6.0
 40
6.0
 40
6.0
 40
7.0
 40
7.0
 40
7.0
 40
8.0
 40
8.0
 40
8.0
 40
9.0
 40
9.0
 40
9.0
 40
10.0
 40
10.0
 40
10.0
 40
11.0
 40
11.0
 40
11.0
 40
12.0
 40
12.0
 40
12.0
 40
13.0
 40
13.0
 40
13.0
 40
14.0
 40
14.0
 40
14.0
 40
15.0
 40
15.0
 40
15.0
 40
15.0
 10
1147.048206302834
 20
-1134.012192042463
 30
0.0
 10
1148.096815338353
 20
-1130.398762317613
 30
0.0
 10
1149.145424373873
 20
-1126.785332592763
 30
0.0
 10
1150.194033409392
 20
-1123.171902867912
 30
0.0
 10
1149.119384269499
 20
-1123.312355187575
 30
0.0
 10
1148.044735129605
 20
-1123.452807507237
 30
0.0
 10
1146.970085989712
 20
-1123.593259826899
 30
0.0
 10
1152.185951285933
 20
-1131.782582222558
 30
0.0
 10
1157.204688368639
 20
-1140.097251035042
 30
0.0
 10
1162.012225228151
 20
-1148.532829303318
 30
0.0
 10
1166.78094182123
 20
-1156.900291318832
 30
0.0
 10
1171.342692271622
 20
-1165.385757144674
 30
0.0
 10
1175.687084396204
 20
-1173.981213781287
 30
0.0
 10
1178.122494741064
 20
-1178.799716211846
 30
0.0
 10
1180.488608233671
 20
-1183.65311721154
 30
0.0
 10
1182.785970612225
 20
-1188.538936891446
 30
0.0
 10
1183.179727077951
 20
-1189.376342042369
 30
0.0
 10
1184.448043479854
 20
-1189.656083263435
 30
0.0
 10
1185.199305456331
 20
-1189.171734741407
 30
0.0
 10
1186.06099431681
 20
-1188.616192548281
 30
0.0
 10
1186.253285581281
 20
-1187.654131744914
 30
0.0
 10
1185.83210330629
 20
-1186.758399897302
 30
0.0
 10
1181.751679457015
 20
-1178.080528556126
 30
0.0
 10
1177.45218458659
 20
-1169.506067139891
 30
0.0
 10
1172.940179102261
 20
-1161.044560109654
 30
0.0
 10
1168.392828126793
 20
-1152.516768558532
 30
0.0
 10
1163.630986453088
 20
-1144.103496713832
 30
0.0
 10
1158.665817601193
 20
-1135.812050253774
 30
0.0
 10
1155.847594116758
 20
-1131.105835856907
 30
0.0
 10
1152.963049019828
 20
-1126.439480292291
 30
0.0
 10
1150.016218683777
 20
-1121.812722832754
 30
0.0
 10
1149.205027106518
 20
-1120.539087688143
 30
0.0
 10
1147.224479909366
 20
-1120.744720542249
 30
0.0
 10
1146.792271264097
 20
-1122.23407979174
 30
0.0
 10
1145.743662228578
 20
-1125.847509516591
 30
0.0
 10
1144.695053193058
 20
-1129.460939241441
 30
0.0
 10
1143.646444157539
 20
-1133.074368966292
 30
0.0
 10
1143.389401854343
 20
-1133.960117865502
 30
0.0
 10
1143.958384766378
 20
-1135.034608380208
 30
0.0
 10
1144.8784136921
 20
-1135.244161577025
 30
0.0
 10
1145.821365424674
 20
-1135.45893585692
 30
0.0
 10
1146.772929050006
 20
-1134.960777238899
 30
0.0
 10
1147.048206302834
 20
-1134.012192042463
 30
0.0
 10
1147.048206302834
 20
-1134.012192042463
 30
0.0
 10
1147.048206302834
 20
-1134.012192042463
 30
0.0
 10
1147.048206302834
 20
-1134.012192042463
 30
0.0
  0
HATCH
  5
8C
330
70
100
AcDbEntity
  8
2023-025
 62
    18
420
        0
440
 33554687
100
AcDbHatch
 10
0.0
 20
0.0
 30
0.0
210
0.0
220
0.0
230
1.0
  2
SOLID
 70
     1
 71
     1
 91
        1
 92
        1
 93
        1
 72
     4
 94
        3
 73
     0
 74
     0
 95
       50
 96
       46
 40
0.0
 40
0.0
 40
0.0
 40
0.0
 40
1.0
 40
1.0
 40
1.0
 40
2.0
 40
2.0
 40
2.0
 40
3.0
 40
3.0
 40
3.0
 40
4.0
 40
4.0
 40
4.0
 40
5.0
 40
5.0
 40
5.0
 40
6.0
 40
6.0
 40
6.0
 40
7.0
 40
7.0
 40
7.0
 40
8.0
 40
8.0
 40
8.0
 40
9.0
 40
9.0
 40
9.0
 40
10.0
 40
10.0
 40
10.0
 40
11.0
 40
11.0
 40
11.0
 40
12.0
 40
12.0
 40
12.0
 40
13.0
 40
13.0
 40
13.0
 40
14.0
 40
14.0
 40
14.0
 40
15.0
 40
15.0
 40
15.0
 40
15.0
 10
1147.048206302834
 20
-1134.012192042463
 10
1148.096815338353
 20
-1130.398762317613
 10
1149.145424373873
 20
-1126.785332592763
 10
1150.194033409392
 20
-1123.171902867912
 10
1149.119384269499
 20
-1123.312355187575
 10
1148.044735129605
 20
-1123.452807507237
 10
1146.970085989712
 20
-1123.593259826899
 10
1152.185951285933
 20
-1131.782582222558
 10
1157.204688368639
 20
-1140.097251035042
 10
1162.012225228151
 20
-1148.532829303318
 10
1166.78094182123
 20
-1156.900291318832
 10
1171.342692271622
 20
-1165.385757144674
 10
1175.687084396204
 20
-1173.981213781287
 10
1178.122494741064
 20
-1178.799716211846
 10
1180.488608233671
 20
-1183.65311721154
 10
1182.785970612225
 20
-1188.538936891446
 10
1183.179727077951
 20
-1189.376342042369
 10
1184.448043479854
 20
-1189.656083263435
 10
1185.199305456331
 20
-1189.171734741407
 10
1186.06099431681
 20
-1188.616192548281
 10
1186.253285581281
 20
-1187.654131744914
 10
1185.83210330629
 20
-1186.758399897302
 10
1181.751679457015
 20
-1178.080528556126
 10
1177.45218458659
 20
-1169.506067139891
 10
1172.940179102261
 20
-1161.044560109654
 10
1168.392828126793
 20
-1152.516768558532
 10
1163.630986453088
 20
-1144.103496713832
 10
1158.665817601193
 20
-1135.812050253774
 10
1155.847594116758
 20
-1131.105835856907
 10
1152.963049019828
 20
-1126.439480292291
 10
1150.016218683777
 20
-1121.812722832754
 10
1149.205027106518
 20
-1120.539087688143
 10
1147.224479909366
 20
-1120.744720542249
 10
1146.792271264097
 20
-1122.23407979174
 10
1145.743662228578
 20
-1125.847509516591
 10
1144.695053193058
 20
-1129.460939241441
 10
1143.646444157539
 20
-1133.074368966292
 10
1143.389401854343
 20
-1133.960117865502
 10
1143.958384766378
 20
-1135.034608380208
 10
1144.8784136921
 20
-1135.244161577025
 10
1145.821365424674
 20
-1135.45893585692
 10
1146.772929050006
 20
-1134.960777238899
 10
1147.048206302834
 20
-1134.012192042463
 10
1147.048206302834
 20
-1134.012192042463
 10
1147.048206302834
 20
-1134.012192042463
 10
1147.048206302834
 20
-1134.012192042463
 97
        0
 97
        1
330
8B
 75
     2
 76
     1
 98
        1
 10
0.0
 20
0.0
450
        0
451
        0
460
0.0
461
0.0
452
        0
462
0.0
453
        0
470

  0
SPLINE
  5
8D
330
70
100
AcDbEntity
  8
2023-025
100
AcDbSpline
210
0.0
220
0.0
230
1.0
 70
     9
 71
     3
 72
   122
 73
   118
 74
     0
 42
0.0000000001
 43
0.0000000001
 40
0.0
 40
0.0
 40
0.0
 40
0.0
 40
1.0
 40
1.0
 40
1.0
 40
2.0
 40
2.0
 40
2.0
 40
3.0
 40
3.0
 40
3.0
 40
4.0
 40
4.0
 40
4.0
 40
5.0
 40
5.0
 40
5.0
 40
6.0
 40
6.0
 40
6.0
 40
7.0
 40
7.0
 40
7.0
 40
8.0
 40
8.0
 40
8.0
 40
9.0
 40
9.0
 40
9.0
 40
10.0
 40
10.0
 40
10.0
 40
11.0
 40
11.0
 40
11.0
 40
12.0
 40
12.0
 40
12.0
 40
13.0
 40
13.0
 40
13.0
 40
14.0
 40
14.0
 40
14.0
 40
15.0
 40
15.0
 40
15.0
 40
16.0
 40
16.0
 40
16.0
 40
17.0
 40
17.0
 40
17.0
 40
18.0
 40
18.0
 40
18.0
 40
19.0
 40
19.0
 40
19.0
 40
20.0
 40
20.0
 40
20.0
 40
21.0
 40
21.0
 40
21.0
 40
22.0
 40
22.0
 40
22.0
 40
23.0
 40
23.0
 40
23.0
 40
24.0
 40
24.0
 40
24.0
 40
25.0
 40
25.0
 40
25.0
 40
26.0
 40
26.0
 40
26.0
 40
27.0
 40
27.0
 40
27.0
 40
28.0
 40
28.0
 40
28.0
 40
29.0
 40
29.0
 40
29.0
 40
30.0
 40
30.0
 40
30.0
 40
31.0
 40
31.0
 40
31.0
 40
32.0
 40
32.0
 40
32.0
 40
33.0
 40
33.0
 40
33.0
 40
34.0
 40
34.0
 40
34.0
 40
35.0
 40
35.0
 40
35.0
 40
36.0
 40
36.0
 40
36.0
 40
37.0
 40
37.0
 40
37.0
 40
38.0
 40
38.0
 40
38.0
 40
39.0
 40
39.0
 40
39.0
 40
39.0
 10
1123.450224672755
 20
-1172.535679442873
 30
0.0
 10
1123.740128929234
 20
-1172.361702300683
 30
0.0
 10
1124.030487383786
 20
-1172.187719318204
 30
0.0
 10
1124.330572598342
 20
-1172.031647406369
 30
0.0
 10
1124.46043243267
 20
-1171.964108348691
 30
0.0
 10
1124.59189192174
 20
-1171.899983008243
 30
0.0
 10
1124.725127094272
 20
-1171.839397377351
 30
0.0
 10
1124.339290602826
 20
-1172.014847649309
 30
0.0
 10
1124.913502745831
 20
-1171.783488447854
 30
0.0
 10
1124.993034538359
 20
-1171.760572206355
 30
0.0
 10
1125.118612293062
 20
-1171.724388309799
 30
0.0
 10
1125.302634305288
 20
-1171.643358530003
 30
0.0
 10
1125.429406350131
 20
-1171.658974788338
 30
0.0
 10
1125.189863370051
 20
-1171.686492884746
 30
0.0
 10
1125.164150338714
 20
-1171.692331660275
 30
0.0
 10
1125.35226725612
 20
-1171.676491114926
 30
0.0
 10
1125.41363613144
 20
-1171.672984883158
 30
0.0
 10
1125.475031416018
 20
-1171.671915283256
 30
0.0
 10
1125.536453109856
 20
-1171.67328231522
 30
0.0
 10
1125.598106780363
 20
-1171.673032785116
 30
0.0
 10
1125.659691324633
 20
-1171.675198911551
 30
0.0
 10
1125.721206742666
 20
-1171.679780694527
 30
0.0
 10
1125.919521469679
 20
-1171.698478808596
 30
0.0
 10
1125.885084567253
 20
-1171.692973513022
 30
0.0
 10
1125.617896035389
 20
-1171.663264807806
 30
0.0
 10
1125.665546826802
 20
-1171.700167054499
 30
0.0
 10
1125.906048056162
 20
-1171.735113173485
 30
0.0
 10
1125.968370887334
 20
-1171.751999174195
 30
0.0
 10
1126.150275341542
 20
-1171.817726904491
 30
0.0
 10
1126.117676871864
 20
-1171.80179429313
 30
0.0
 10
1125.8705754783
 20
-1171.704201340113
 30
0.0
 10
1125.92122164182
 20
-1171.728406347072
 30
0.0
 10
1125.970350102873
 20
-1171.755320610532
 30
0.0
 10
1126.017960861459
 20
-1171.784944130491
 30
0.0
 10
1126.131453448387
 20
-1171.855843685304
 30
0.0
 10
1126.086387592404
 20
-1171.815631240682
 30
0.0
 10
1125.882763293511
 20
-1171.664306796625
 30
0.0
 10
1125.936290450047
 20
-1171.70869898663
 30
0.0
 10
1125.986309379714
 20
-1171.756741553486
 30
0.0
 10
1126.032820082508
 20
-1171.808434497192
 30
0.0
 10
1125.879067499943
 20
-1171.592798960606
 30
0.0
 10
1125.836210748329
 20
-1171.542019294969
 30
0.0
 10
1125.904249827665
 20
-1171.656095500281
 30
0.0
 10
1125.963209275678
 20
-1171.761683931799
 30
0.0
 10
1125.941009994781
 20
-1171.712144195779
 30
0.0
 10
1125.837651984974
 20
-1171.50747629222
 30
0.0
 10
1125.776041448124
 20
-1171.299422812147
 30
0.0
 10
1125.906196164025
 20
-1170.962885883592
 30
0.0
 10
1125.792399755588
 20
-1171.347534861674
 30
0.0
 10
1125.77231075706
 20
-1171.419283410846
 30
0.0
 10
1125.74819568087
 20
-1171.489696357934
 30
0.0
 10
1125.720054527018
 20
-1171.558773702942
 30
0.0
 10
1125.799116096099
 20
-1171.368694460181
 30
0.0
 10
1125.795825008147
 20
-1171.36519990499
 30
0.0
 10
1125.710181263163
 20
-1171.548290037369
 30
0.0
 10
1125.640762780708
 20
-1171.674670286205
 30
0.0
 10
1125.577157654379
 20
-1171.804210282692
 30
0.0
 10
1125.507393982571
 20
-1171.930488120429
 30
0.0
 10
1125.343702552854
 20
-1172.226782728566
 30
0.0
 10
1125.167497550732
 20
-1172.516245493243
 30
0.0
 10
1124.981797226024
 20
-1172.799235266726
 30
0.0
 10
1124.793826125251
 20
-1173.085685488676
 30
0.0
 10
1124.593709370272
 20
-1173.362967899801
 30
0.0
 10
1124.389972117991
 20
-1173.638334992839
 30
0.0
 10
1124.572759109636
 20
-1173.391283842542
 30
0.0
 10
1124.380309736379
 20
-1173.650643674433
 30
0.0
 10
1124.301267625828
 20
-1173.7487658378
 30
0.0
 10
1124.207690674197
 20
-1173.864931421831
 30
0.0
 10
1124.112715306205
 20
-1173.979975697883
 30
0.0
 10
1124.016582611963
 20
-1174.094034858789
 30
0.0
 10
1123.561221565489
 20
-1174.634309936683
 30
0.0
 10
1123.078840641526
 20
-1175.151415519738
 30
0.0
 10
1122.581489245134
 20
-1175.653128925159
 30
0.0
 10
1121.602384470248
 20
-1176.640820916048
 30
0.0
 10
1120.564905842774
 20
-1177.568220714197
 30
0.0
 10
1119.527741925525
 20
-1178.493945866276
 30
0.0
 10
1119.003450380736
 20
-1178.961904558206
 30
0.0
 10
1118.903767978268
 20
-1179.80644537008
 30
0.0
 10
1119.163026009966
 20
-1180.420793678137
 30
0.0
 10
1119.437714196672
 20
-1181.071705905003
 30
0.0
 10
1120.063719050039
 20
-1181.489517545133
 30
0.0
 10
1120.774999719806
 20
-1181.505092549005
 30
0.0
 10
1125.419302460534
 20
-1181.606789440604
 30
0.0
 10
1130.06587898109
 20
-1181.539164619304
 30
0.0
 10
1134.705242797831
 20
-1181.302069767612
 30
0.0
 10
1135.625256587877
 20
-1181.255052430381
 30
0.0
 10
1136.513306123972
 20
-1180.524434882403
 30
0.0
 10
1136.469131686279
 20
-1179.538180879164
 30
0.0
 10
1136.428133548602
 20
-1178.62284206511
 30
0.0
 10
1135.692200980164
 20
-1177.723853457954
 30
0.0
 10
1134.705242797831
 20
-1177.774291990716
 30
0.0
 10
1130.065878964742
 20
-1178.011386843243
 30
0.0
 10
1125.419302444064
 20
-1178.079011663347
 30
0.0
 10
1120.774999719806
 20
-1177.977314772109
 30
0.0
 10
1121.1907523179
 20
-1178.981030333019
 30
0.0
 10
1121.606504915994
 20
-1179.984745893928
 30
0.0
 10
1122.022257514087
 20
-1180.988461454838
 30
0.0
 10
1124.01672254936
 20
-1179.20829303846
 30
0.0
 10
1125.980500032852
 20
-1177.406257110988
 30
0.0
 10
1127.567904885437
 20
-1175.241329391507
 30
0.0
 10
1128.37741660496
 20
-1174.137304568864
 30
0.0
 10
1129.342130350407
 20
-1172.737567315825
 30
0.0
 10
1129.337364838672
 20
-1171.319546945975
 30
0.0
 10
1129.331905660496
 20
-1169.695119961451
 30
0.0
 10
1127.963649910042
 20
-1168.487445120322
 30
0.0
 10
1126.434950742245
 20
-1168.241264345603
 30
0.0
 10
1124.676511796398
 20
-1167.958086418182
 30
0.0
 10
1123.152625726422
 20
-1168.599606991673
 30
0.0
 10
1121.66968767861
 20
-1169.489546748808
 30
0.0
 10
1120.878625658188
 20
-1169.964278342195
 30
0.0
 10
1120.516538614558
 20
-1171.095776659625
 30
0.0
 10
1121.03688982865
 20
-1171.902881592913
 30
0.0
 10
1121.549690237098
 20
-1172.698274643303
 30
0.0
 10
1122.603632560058
 20
-1173.043735716887
 30
0.0
 10
1123.450224672755
 20
-1172.535679442873
 30
0.0
 10
1123.450224672755
 20
-1172.535679442873
 30
0.0
 10
1123.450224672755
 20
-1172.535679442873
 30
0.0
 10
1123.450224672755
 20
-1172.535679442873
 30
0.0
  0
HATCH
  5
8E
330
70
100
AcDbEntity
  8
2023-025
 62
    18
420
        0
440
 33554687
100
AcDbHatch
 10
0.0
 20
0.0
 30
0.0
210
0.0
220
0.0
230
1.0
  2
SOLID
 70
     1
 71
     1
 91
        1
 92
        1
 93
        1
 72
     4
 94
        3
 73
     0
 74
     0
 95
      122
 96
      118
 40
0.0
 40
0.0
 40
0.0
 40
0.0
 40
1.0
 40
1.0
 40
1.0
 40
2.0
 40
2.0
 40
2.0
 40
3.0
 40
3.0
 40
3.0
 40
4.0
 40
4.0
 40
4.0
 40
5.0
 40
5.0
 40
5.0
 40
6.0
 40
6.0
 40
6.0
 40
7.0
 40
7.0
 40
7.0
 40
8.0
 40
8.0
 40
8.0
 40
9.0
 40
9.0
 40
9.0
 40
10.0
 40
10.0
 40
10.0
 40
11.0
 40
11.0
 40
11.0
 40
12.0
 40
12.0
 40
12.0
 40
13.0
 40
13.0
 40
13.0
 40
14.0
 40
14.0
 40
14.0
 40
15.0
 40
15.0
 40
15.0
 40
16.0
 40
16.0
 40
16.0
 40
17.0
 40
17.0
 40
17.0
 40
18.0
 40
18.0
 40
18.0
 40
19.0
 40
19.0
 40
19.0
 40
20.0
 40
20.0
 40
20.0
 40
21.0
 40
21.0
 40
21.0
 40
22.0
 40
22.0
 40
22.0
 40
23.0
 40
23.0
 40
23.0
 40
24.0
 40
24.0
 40
24.0
 40
25.0
 40
25.0
 40
25.0
 40
26.0
 40
26.0
 40
26.0
 40
27.0
 40
27.0
 40
27.0
 40
28.0
 40
28.0
 40
28.0
 40
29.0
 40
29.0
 40
29.0
 40
30.0
 40
30.0
 40
30.0
 40
31.0
 40
31.0
 40
31.0
 40
32.0
 40
32.0
 40
32.0
 40
33.0
 40
33.0
 40
33.0
 40
34.0
 40
34.0
 40
34.0
 40
35.0
 40
35.0
 40
35.0
 40
36.0
 40
36.0
 40
36.0
 40
37.0
 40
37.0
 40
37.0
 40
38.0
 40
38.0
 40
38.0
 40
39.0
 40
39.0
 40
39.0
 40
39.0
 10
1123.450224672755
 20
-1172.535679442873
 10
1123.740128929234
 20
-1172.361702300683
 10
1124.030487383786
 20
-1172.187719318204
 10
1124.330572598342
 20
-1172.031647406369
 10
1124.46043243267
 20
-1171.964108348691
 10
1124.59189192174
 20
-1171.899983008243
 10
1124.725127094272
 20
-1171.839397377351
 10
1124.339290602826
 20
-1172.014847649309
 10
1124.913502745831
 20
-1171.783488447854
 10
1124.993034538359
 20
-1171.760572206355
 10
1125.118612293062
 20
-1171.724388309799
 10
1125.302634305288
 20
-1171.643358530003
 10
1125.429406350131
 20
-1171.658974788338
 10
1125.189863370051
 20
-1171.686492884746
 10
1125.164150338714
 20
-1171.692331660275
 10
1125.35226725612
 20
-1171.676491114926
 10
1125.41363613144
 20
-1171.672984883158
 10
1125.475031416018
 20
-1171.671915283256
 10
1125.536453109856
 20
-1171.67328231522
 10
1125.598106780363
 20
-1171.673032785116
 10
1125.659691324633
 20
-1171.675198911551
 10
1125.721206742666
 20
-1171.679780694527
 10
1125.919521469679
 20
-1171.698478808596
 10
1125.885084567253
 20
-1171.692973513022
 10
1125.617896035389
 20
-1171.663264807806
 10
1125.665546826802
 20
-1171.700167054499
 10
1125.906048056162
 20
-1171.735113173485
 10
1125.968370887334
 20
-1171.751999174195
 10
1126.150275341542
 20
-1171.817726904491
 10
1126.117676871864
 20
-1171.80179429313
 10
1125.8705754783
 20
-1171.704201340113
 10
1125.92122164182
 20
-1171.728406347072
 10
1125.970350102873
 20
-1171.755320610532
 10
1126.017960861459
 20
-1171.784944130491
 10
1126.131453448387
 20
-1171.855843685304
 10
1126.086387592404
 20
-1171.815631240682
 10
1125.882763293511
 20
-1171.664306796625
 10
1125.936290450047
 20
-1171.70869898663
 10
1125.986309379714
 20
-1171.756741553486
 10
1126.032820082508
 20
-1171.808434497192
 10
1125.879067499943
 20
-1171.592798960606
 10
1125.836210748329
 20
-1171.542019294969
 10
1125.904249827665
 20
-1171.656095500281
 10
1125.963209275678
 20
-1171.761683931799
 10
1125.941009994781
 20
-1171.712144195779
 10
1125.837651984974
 20
-1171.50747629222
 10
1125.776041448124
 20
-1171.299422812147
 10
1125.906196164025
 20
-1170.962885883592
 10
1125.792399755588
 20
-1171.347534861674
 10
1125.77231075706
 20
-1171.419283410846
 10
1125.74819568087
 20
-1171.489696357934
 10
1125.720054527018
 20
-1171.558773702942
 10
1125.799116096099
 20
-1171.368694460181
 10
1125.795825008147
 20
-1171.36519990499
 10
1125.710181263163
 20
-1171.548290037369
 10
1125.640762780708
 20
-1171.674670286205
 10
1125.577157654379
 20
-1171.804210282692
 10
1125.507393982571
 20
-1171.930488120429
 10
1125.343702552854
 20
-1172.226782728566
 10
1125.167497550732
 20
-1172.516245493243
 10
1124.981797226024
 20
-1172.799235266726
 10
1124.793826125251
 20
-1173.085685488676
 10
1124.593709370272
 20
-1173.362967899801
 10
1124.389972117991
 20
-1173.638334992839
 10
1124.572759109636
 20
-1173.391283842542
 10
1124.380309736379
 20
-1173.650643674433
 10
1124.301267625828
 20
-1173.7487658378
 10
1124.207690674197
 20
-1173.864931421831
 10
1124.112715306205
 20
-1173.979975697883
 10
1124.016582611963
 20
-1174.094034858789
 10
1123.561221565489
 20
-1174.634309936683
 10
1123.078840641526
 20
-1175.151415519738
 10
1122.581489245134
 20
-1175.653128925159
 10
1121.602384470248
 20
-1176.640820916048
 10
1120.564905842774
 20
-1177.568220714197
 10
1119.527741925525
 20
-1178.493945866276
 10
1119.003450380736
 20
-1178.961904558206
 10
1118.903767978268
 20
-1179.80644537008
 10
1119.163026009966
 20
-1180.420793678137
 10
1119.437714196672
 20
-1181.071705905003
 10
1120.063719050039
 20
-1181.489517545133
 10
1120.774999719806
 20
-1181.505092549005
 10
1125.419302460534
 20
-1181.606789440604
 10
1130.06587898109
 20
-1181.539164619304
 10
1134.705242797831
 20
-1181.302069767612
 10
1135.625256587877
 20
-1181.255052430381
 10
1136.513306123972
 20
-1180.524434882403
 10
1136.469131686279
 20
-1179.538180879164
 10
1136.428133548602
 20
-1178.62284206511
 10
1135.692200980164
 20
-1177.723853457954
 10
1134.705242797831
 20
-1177.774291990716
 10
1130.065878964742
 20
-1178.011386843243
 10
1125.419302444064
 20
-1178.079011663347
 10
1120.774999719806
 20
-1177.977314772109
 10
1121.1907523179
 20
-1178.981030333019
 10
1121.606504915994
 20
-1179.984745893928
 10
1122.022257514087
 20
-1180.988461454838
 10
1124.01672254936
 20
-1179.20829303846
 10
1125.980500032852
 20
-1177.406257110988
 10
1127.567904885437
 20
-1175.241329391507
 10
1128.37741660496
 20
-1174.137304568864
 10
1129.342130350407
 20
-1172.737567315825
 10
1129.337364838672
 20
-1171.319546945975
 10
1129.331905660496
 20
-1169.695119961451
 10
1127.963649910042
 20
-1168.487445120322
 10
1126.434950742245
 20
-1168.241264345603
 10
1124.676511796398
 20
-1167.958086418182
 10
1123.152625726422
 20
-1168.599606991673
 10
1121.66968767861
 20
-1169.489546748808
 10
1120.878625658188
 20
-1169.964278342195
 10
1120.516538614558
 20
-1171.095776659625
 10
1121.03688982865
 20
-1171.902881592913
 10
1121.549690237098
 20
-1172.698274643303
 10
1122.603632560058
 20
-1173.043735716887
 10
1123.450224672755
 20
-1172.535679442873
 10
1123.450224672755
 20
-1172.535679442873
 10
1123.450224672755
 20
-1172.535679442873
 10
1123.450224672755
 20
-1172.535679442873
 97
        0
 97
        1
330
8D
 75
     2
 76
     1
 98
        1
 10
0.0
 20
0.0
450
        0
451
        0
460
0.0
461
0.0
452
        0
462
0.0
453
        0
470

  0
SPLINE
  5
8F
330
70
100
AcDbEntity
  8
2023-025
100
AcDbSpline
210
0.0
220
0.0
230
1.0
 70
     9
 71
     3
 72
   203
 73
   199
 74
     0
 42
0.0000000001
 43
0.0000000001
 40
0.0
 40
0.0
 40
0.0
 40
0.0
 40
1.0
 40
1.0
 40
1.0
 40
2.0
 40
2.0
 40
2.0
 40
3.0
 40
3.0
 40
3.0
 40
4.0
 40
4.0
 40
4.0
 40
5.0
 40
5.0
 40
5.0
 40
6.0
 40
6.0
 40
6.0
 40
7.0
 40
7.0
 40
7.0
 40
8.0
 40
8.0
 40
8.0
 40
9.0
 40
9.0
 40
9.0
 40
10.0
 40
10.0
 40
10.0
 40
11.0
 40
11.0
 40
11.0
 40
12.0
 40
12.0
 40
12.0
 40
13.0
 40
13.0
 40
13.0
 40
14.0
 40
14.0
 40
14.0
 40
15.0
 40
15.0
 40
15.0
 40
16.0
 40
16.0
 40
16.0
 40
17.0
 40
17.0
 40
17.0
 40
18.0
 40
18.0
 40
18.0
 40
19.0
 40
19.0
 40
19.0
 40
20.0
 40
20.0
 40
20.0
 40
21.0
 40
21.0
 40
21.0
 40
22.0
 40
22.0
 40
22.0
 40
23.0
 40
23.0
 40
23.0
 40
24.0
 40
24.0
 40
24.0
 40
25.0
 40
25.0
 40
25.0
 40
26.0
 40
26.0
 40
26.0
 40
27.0
 40
27.0
 40
27.0
 40
28.0
 40
28.0
 40
28.0
 40
29.0
 40
29.0
 40
29.0
 40
30.0
 40
30.0
 40
30.0
 40
31.0
 40
31.0
 40
31.0
 40
32.0
 40
32.0
 40
32.0
 40
33.0
 40
33.0
 40
33.0
 40
34.0
 40
34.0
 40
34.0
 40
35.0
 40
35.0
 40
35.0
 40
36.0
 40
36.0
 40
36.0
 40
37.0
 40
37.0
 40
37.0
 40
38.0
 40
38.0
 40
38.0
 40
39.0
 40
39.0
 40
39.0
 40
40.0
 40
40.0
 40
40.0
 40
41.0
 40
41.0
 40
41.0
 40
42.0
 40
42.0
 40
42.0
 40
43.0
 40
43.0
 40
43.0
 40
44.0
 40
44.0
 40
44.0
 40
45.0
 40
45.0
 40
45.0
 40
46.0
 40
46.0
 40
46.0
 40
47.0
 40
47.0
 40
47.0
 40
48.0
 40
48.0
 40
48.0
 40
49.0
 40
49.0
 40
49.0
 40
50.0
 40
50.0
 40
50.0
 40
51.0
 40
51.0
 40
51.0
 40
52.0
 40
52.0
 40
52.0
 40
53.0
 40
53.0
 40
53.0
 40
54.0
 40
54.0
 40
54.0
 40
55.0
 40
55.0
 40
55.0
 40
56.0
 40
56.0
 40
56.0
 40
57.0
 40
57.0
 40
57.0
 40
58.0
 40
58.0
 40
58.0
 40
59.0
 40
59.0
 40
59.0
 40
60.0
 40
60.0
 40
60.0
 40
61.0
 40
61.0
 40
61.0
 40
62.0
 40
62.0
 40
62.0
 40
63.0
 40
63.0
 40
63.0
 40
64.0
 40
64.0
 40
64.0
 40
65.0
 40
65.0
 40
65.0
 40
66.0
 40
66.0
 40
66.0
 40
66.0
 10
1144.43714372925
 20
-1170.674468847977
 30
0.0
 10
1145.36947984903
 20
-1170.67561781056
 30
0.0
 10
1146.301815968811
 20
-1170.676766773142
 30
0.0
 10
1147.234152088591
 20
-1170.677915735724
 30
0.0
 10
1147.478156642824
 20
-1170.678216434256
 30
0.0
 10
1147.722753677092
 20
-1170.673445425549
 30
0.0
 10
1147.966666750048
 20
-1170.67952583087
 30
0.0
 10
1148.00032394225
 20
-1170.680364856708
 30
0.0
 10
1148.231312561065
 20
-1170.666966190872
 30
0.0
 10
1148.246125476159
 20
-1170.692650195238
 30
0.0
 10
1148.23929811228
 20
-1170.6808122793
 30
0.0
 10
1147.919777243641
 20
-1170.620666440208
 30
0.0
 10
1147.870496849939
 20
-1170.589943973797
 30
0.0
 10
1147.586612922607
 20
-1170.412964575562
 30
0.0
 10
1147.37600282507
 20
-1170.051548671387
 30
0.0
 10
1147.375434691493
 20
-1169.715625600745
 30
0.0
 10
1147.375324848622
 20
-1169.650678277995
 30
0.0
 10
1147.455219110678
 20
-1169.305988464194
 30
0.0
 10
1147.391749166752
 20
-1169.549201709051
 30
0.0
 10
1147.315660746361
 20
-1169.84076824393
 30
0.0
 10
1147.549896224024
 20
-1169.326106608859
 30
0.0
 10
1147.42511858346
 20
-1169.484603141751
 30
0.0
 10
1147.38799221974
 20
-1169.531762231327
 30
0.0
 10
1147.33227791163
 20
-1169.623871620292
 30
0.0
 10
1147.311523892435
 20
-1169.679998736118
 30
0.0
 10
1147.241532379857
 20
-1169.869283601687
 30
0.0
 10
1147.539675348371
 20
-1169.416620476577
 30
0.0
 10
1147.378673021852
 20
-1169.604953712289
 30
0.0
 10
1147.253047271405
 20
-1169.751905030213
 30
0.0
 10
1147.129887836899
 20
-1169.900343469106
 30
0.0
 10
1146.999674623944
 20
-1170.043377206378
 30
0.0
 10
1146.718744046169
 20
-1170.351967629278
 30
0.0
 10
1146.421071330894
 20
-1170.645234545967
 30
0.0
 10
1146.109191539883
 20
-1170.922501802246
 30
0.0
 10
1145.95994996038
 20
-1171.055180495973
 30
0.0
 10
1145.806611196069
 20
-1171.182774801917
 30
0.0
 10
1145.652249922581
 20
-1171.309406755441
 30
0.0
 10
1145.525941030442
 20
-1171.413025632104
 30
0.0
 10
1145.51740995272
 20
-1171.408450421716
 30
0.0
 10
1145.651584433046
 20
-1171.311770589045
 30
0.0
 10
1145.569380059661
 20
-1171.371003202015
 30
0.0
 10
1145.488725889967
 20
-1171.432353863602
 30
0.0
 10
1145.406285367731
 20
-1171.491287543653
 30
0.0
 10
1145.030031759674
 20
-1171.760257331255
 30
0.0
 10
1144.638987359442
 20
-1172.006156262967
 30
0.0
 10
1144.238440165368
 20
-1172.237098283773
 30
0.0
 10
1143.588055377219
 20
-1172.61208824625
 30
0.0
 10
1143.190232736129
 20
-1173.494883447214
 30
0.0
 10
1143.427827589793
 20
-1174.229076168891
 30
0.0
 10
1143.657144489101
 20
-1174.937689153695
 30
0.0
 10
1144.337128651176
 20
-1175.573265253322
 30
0.0
 10
1145.128708662441
 20
-1175.524053519253
 30
0.0
 10
1147.294036061843
 20
-1175.389437290147
 30
0.0
 10
1149.459363458351
 20
-1175.254821014483
 30
0.0
 10
1151.624690854239
 20
-1175.120204728843
 30
0.0
 10
1152.143233347078
 20
-1175.087967449407
 30
0.0
 10
1152.661873667115
 20
-1175.048683900027
 30
0.0
 10
1153.180831847305
 20
-1175.023960525323
 30
0.0
 10
1153.277981849637
 20
-1175.019332260461
 30
0.0
 10
1153.388611772346
 20
-1175.026066367631
 30
0.0
 10
1153.48626110609
 20
-1175.014362587149
 30
0.0
 10
1153.88426066847
 20
-1174.966660269772
 30
0.0
 10
1153.347569290443
 20
-1174.922906889841
 30
0.0
 10
1153.538922280698
 20
-1175.001288959785
 30
0.0
 10
1153.789247531462
 20
-1175.103827264976
 30
0.0
 10
1153.241095747016
 20
-1174.764038090469
 30
0.0
 10
1153.539257343122
 20
-1174.986515547374
 30
0.0
 10
1153.477913131945
 20
-1174.937418659852
 30
0.0
 10
1153.416568920767
 20
-1174.888321772329
 30
0.0
 10
1153.35522470959
 20
-1174.839224884807
 30
0.0
 10
1153.4841608662
 20
-1174.973632095262
 30
0.0
 10
1153.457068834332
 20
-1174.932833445372
 30
0.0
 10
1153.273948613987
 20
-1174.716828935137
 30
0.0
 10
1153.409973082262
 20
-1174.913684612886
 30
0.0
 10
1153.152100485756
 20
-1174.692729465153
 30
0.0
 10
1153.220223301903
 20
-1174.569932463961
 30
0.0
 10
1153.224297557481
 20
-1174.56258828186
 30
0.0
 10
1153.257169110078
 20
-1174.754035673553
 30
0.0
 10
1153.26794788804
 20
-1174.769325270185
 30
0.0
 10
1153.109077020133
 20
-1174.543968416597
 30
0.0
 10
1153.252960729798
 20
-1174.413974830083
 30
0.0
 10
1153.230224419137
 20
-1174.615537767589
 30
0.0
 10
1153.224728720462
 20
-1174.664258476284
 30
0.0
 10
1153.193097108352
 20
-1175.024071116225
 30
0.0
 10
1153.236681135723
 20
-1174.704986670878
 30
0.0
 10
1153.278946641102
 20
-1174.395555299931
 30
0.0
 10
1153.17637556275
 20
-1174.911177040491
 30
0.0
 10
1153.148122323059
 20
-1174.999099501729
 30
0.0
 10
1153.125660163547
 20
-1175.069000453643
 30
0.0
 10
1153.099866537189
 20
-1175.137856064701
 30
0.0
 10
1153.074276452741
 20
-1175.206658981419
 30
0.0
 10
1152.927806180312
 20
-1175.600467058753
 30
0.0
 10
1153.112803938478
 20
-1175.255009754078
 30
0.0
 10
1153.080388112931
 20
-1175.211355337825
 30
0.0
 10
1153.142224733517
 20
-1175.294630760529
 30
0.0
 10
1152.673242771971
 20
-1176.046198697708
 30
0.0
 10
1152.617589213223
 20
-1176.145356191416
 30
0.0
 10
1152.425452846922
 20
-1176.487683995087
 30
0.0
 10
1152.2138685445
 20
-1176.819083158809
 30
0.0
 10
1151.985891488527
 20
-1177.138632309544
 30
0.0
 10
1151.939752325032
 20
-1177.203304302291
 30
0.0
 10
1151.892327535611
 20
-1177.266980310743
 30
0.0
 10
1151.845485554316
 20
-1177.331144521104
 30
0.0
 10
1151.764806386586
 20
-1177.441658955953
 30
0.0
 10
1151.654779811187
 20
-1177.473946043619
 30
0.0
 10
1151.902238701739
 20
-1177.258851288161
 30
0.0
 10
1151.772805515697
 20
-1177.371356437756
 30
0.0
 10
1151.667371676825
 20
-1177.547095116765
 30
0.0
 10
1151.555010035794
 20
-1177.676327540734
 30
0.0
 10
1151.300616286394
 20
-1177.968917792846
 30
0.0
 10
1151.032698333601
 20
-1178.249745696501
 30
0.0
 10
1150.752895797843
 20
-1178.518139659095
 30
0.0
 10
1150.482729707178
 20
-1178.777290089722
 30
0.0
 10
1150.201905771514
 20
-1179.025292599159
 30
0.0
 10
1149.911753303445
 20
-1179.261844250817
 30
0.0
 10
1149.851591477428
 20
-1179.310892185533
 30
0.0
 10
1149.782350052057
 20
-1179.37755491917
 30
0.0
 10
1149.714805803235
 20
-1179.419545430605
 30
0.0
 10
1150.061946085815
 20
-1179.203737300979
 30
0.0
 10
1149.808607483143
 20
-1179.346287787486
 30
0.0
 10
1149.718686441268
 20
-1179.41271229625
 30
0.0
 10
1149.547306426088
 20
-1179.539310399243
 30
0.0
 10
1149.373256603489
 20
-1179.662165996804
 30
0.0
 10
1149.19666003552
 20
-1179.781373749432
 30
0.0
 10
1148.530184500424
 20
-1180.231263866967
 30
0.0
 10
1147.828503773081
 20
-1180.628616822628
 30
0.0
 10
1147.101757110385
 20
-1180.972609133713
 30
0.0
 10
1147.021966898363
 20
-1181.01037637895
 30
0.0
 10
1146.941845660827
 20
-1181.04750992878
 30
0.0
 10
1146.861455830133
 20
-1181.083991097533
 30
0.0
 10
1146.689938276582
 20
-1181.161826325707
 30
0.0
 10
1146.527976799895
 20
-1181.242415423018
 30
0.0
 10
1146.795025225581
 20
-1181.118152296607
 30
0.0
 10
1146.57425064344
 20
-1181.220883251633
 30
0.0
 10
1146.338033814817
 20
-1181.301997111005
 30
0.0
 10
1146.109531602639
 20
-1181.385391686168
 30
0.0
 10
1145.665586694673
 20
-1181.547414612083
 30
0.0
 10
1145.214873622301
 20
-1181.690814358294
 30
0.0
 10
1144.758869262295
 20
-1181.814929695836
 30
0.0
 10
1144.320028063201
 20
-1181.934373561575
 30
0.0
 10
1143.87628034541
 20
-1182.036236305969
 30
0.0
 10
1143.429164275056
 20
-1182.119552606867
 30
0.0
 10
1143.208427352812
 20
-1182.160685066763
 30
0.0
 10
1142.975533376207
 20
-1182.22221184663
 30
0.0
 10
1142.751403350451
 20
-1182.231708801774
 30
0.0
 10
1143.168673792981
 20
-1182.21402799947
 30
0.0
 10
1142.852823383263
 20
-1182.217806865108
 30
0.0
 10
1142.74157444234
 20
-1182.230570699245
 30
0.0
 10
1142.581197393385
 20
-1182.248971108592
 30
0.0
 10
1142.420609645361
 20
-1182.264477899648
 30
0.0
 10
1142.259825663364
 20
-1182.278833123657
 30
0.0
 10
1141.343287825356
 20
-1182.360664073575
 30
0.0
 10
1140.450643377126
 20
-1183.031485712933
 30
0.0
 10
1140.495936774916
 20
-1184.042722012105
 30
0.0
 10
1140.53559179194
 20
-1184.928073842957
 30
0.0
 10
1141.275613678272
 20
-1185.894483979351
 30
0.0
 10
1142.259825663364
 20
-1185.806610900553
 30
0.0
 10
1146.285379452668
 20
-1185.447198689881
 30
0.0
 10
1150.194743302899
 20
-1183.890410095068
 30
0.0
 10
1153.157719934252
 20
-1181.097957749956
 30
0.0
 10
1154.41532665465
 20
-1179.912728410501
 30
0.0
 10
1155.488789792598
 20
-1178.477662480338
 30
0.0
 10
1156.171453264294
 20
-1176.885979212848
 30
0.0
 10
1156.616204594613
 20
-1175.849006707342
 30
0.0
 10
1156.949496133543
 20
-1174.763765961511
 30
0.0
 10
1156.621985447199
 20
-1173.632109387789
 30
0.0
 10
1156.197197006679
 20
-1172.164326346814
 30
0.0
 10
1154.787686279043
 20
-1171.448599817411
 30
0.0
 10
1153.333488703284
 20
-1171.489389531154
 30
0.0
 10
1150.599684674072
 20
-1171.566071741081
 30
0.0
 10
1147.858470295123
 20
-1171.826569204006
 30
0.0
 10
1145.128708662441
 20
-1171.996275742357
 30
0.0
 10
1145.425464828132
 20
-1173.091927487518
 30
0.0
 10
1145.722220993822
 20
-1174.187579232677
 30
0.0
 10
1146.018977159513
 20
-1175.283230977838
 30
0.0
 10
1147.065985829682
 20
-1174.679561044141
 30
0.0
 10
1148.056741590434
 20
-1173.95091503225
 30
0.0
 10
1148.930867836491
 20
-1173.115331689236
 30
0.0
 10
1149.729001941048
 20
-1172.35238976149
 30
0.0
 10
1150.586319276044
 20
-1171.445967649496
 30
0.0
 10
1150.825943877825
 20
-1170.334308065206
 30
0.0
 10
1151.005388211651
 20
-1169.501835055086
 30
0.0
 10
1150.826101593507
 20
-1168.661558951604
 30
0.0
 10
1150.250560644007
 20
-1168.02262745898
 30
0.0
 10
1149.698643076023
 20
-1167.409921246115
 30
0.0
 10
1148.901407388119
 20
-1167.199659815661
 30
0.0
 10
1148.106799535479
 20
-1167.155625325537
 30
0.0
 10
1146.890984791999
 20
-1167.088248968587
 30
0.0
 10
1145.6549809809
 20
-1167.148191870422
 30
0.0
 10
1144.43714372925
 20
-1167.146691071081
 30
0.0
 10
1143.514458248558
 20
-1167.145554001445
 30
0.0
 10
1142.630625093994
 20
-1167.958813267257
 30
0.0
 10
1142.673254840802
 20
-1168.910579959529
 30
0.0
 10
1142.716103412973
 20
-1169.867232223665
 30
0.0
 10
1143.448258097262
 20
-1170.673250196715
 30
0.0
 10
1144.43714372925
 20
-1170.674468847977
 30
0.0
 10
1144.43714372925
 20
-1170.674468847977
 30
0.0
 10
1144.43714372925
 20
-1170.674468847977
 30
0.0
 10
1144.43714372925
 20
-1170.674468847977
 30
0.0
  0
HATCH
  5
90
330
70
100
AcDbEntity
  8
2023-025
 62
    18
420
        0
440
 33554687
100
AcDbHatch
 10
0.0
 20
0.0
 30
0.0
210
0.0
220
0.0
230
1.0
  2
SOLID
 70
     1
 71
     1
 91
        1
 92
        1
 93
        1
 72
     4
 94
        3
 73
     0
 74
     0
 95
      203
 96
      199
 40
0.0
 40
0.0
 40
0.0
 40
0.0
 40
1.0
 40
1.0
 40
1.0
 40
2.0
 40
2.0
 40
2.0
 40
3.0
 40
3.0
 40
3.0
 40
4.0
 40
4.0
 40
4.0
 40
5.0
 40
5.0
 40
5.0
 40
6.0
 40
6.0
 40
6.0
 40
7.0
 40
7.0
 40
7.0
 40
8.0
 40
8.0
 40
8.0
 40
9.0
 40
9.0
 40
9.0
 40
10.0
 40
10.0
 40
10.0
 40
11.0
 40
11.0
 40
11.0
 40
12.0
 40
12.0
 40
12.0
 40
13.0
 40
13.0
 40
13.0
 40
14.0
 40
14.0
 40
14.0
 40
15.0
 40
15.0
 40
15.0
 40
16.0
 40
16.0
 40
16.0
 40
17.0
 40
17.0
 40
17.0
 40
18.0
 40
18.0
 40
18.0
 40
19.0
 40
19.0
 40
19.0
 40
20.0
 40
20.0
 40
20.0
 40
21.0
 40
21.0
 40
21.0
 40
22.0
 40
22.0
 40
22.0
 40
23.0
 40
23.0
 40
23.0
 40
24.0
 40
24.0
 40
24.0
 40
25.0
 40
25.0
 40
25.0
 40
26.0
 40
26.0
 40
26.0
 40
27.0
 40
27.0
 40
27.0
 40
28.0
 40
28.0
 40
28.0
 40
29.0
 40
29.0
 40
29.0
 40
30.0
 40
30.0
 40
30.0
 40
31.0
 40
31.0
 40
31.0
 40
32.0
 40
32.0
 40
32.0
 40
33.0
 40
33.0
 40
33.0
 40
34.0
 40
34.0
 40
34.0
 40
35.0
 40
35.0
 40
35.0
 40
36.0
 40
36.0
 40
36.0
 40
37.0
 40
37.0
 40
37.0
 40
38.0
 40
38.0
 40
38.0
 40
39.0
 40
39.0
 40
39.0
 40
40.0
 40
40.0
 40
40.0
 40
41.0
 40
41.0
 40
41.0
 40
42.0
 40
42.0
 40
42.0
 40
43.0
 40
43.0
 40
43.0
 40
44.0
 40
44.0
 40
44.0
 40
45.0
 40
45.0
 40
45.0
 40
46.0
 40
46.0
 40
46.0
 40
47.0
 40
47.0
 40
47.0
 40
48.0
 40
48.0
 40
48.0
 40
49.0
 40
49.0
 40
49.0
 40
50.0
 40
50.0
 40
50.0
 40
51.0
 40
51.0
 40
51.0
 40
52.0
 40
52.0
 40
52.0
 40
53.0
 40
53.0
 40
53.0
 40
54.0
 40
54.0
 40
54.0
 40
55.0
 40
55.0
 40
55.0
 40
56.0
 40
56.0
 40
56.0
 40
57.0
 40
57.0
 40
57.0
 40
58.0
 40
58.0
 40
58.0
 40
59.0
 40
59.0
 40
59.0
 40
60.0
 40
60.0
 40
60.0
 40
61.0
 40
61.0
 40
61.0
 40
62.0
 40
62.0
 40
62.0
 40
63.0
 40
63.0
 40
63.0
 40
64.0
 40
64.0
 40
64.0
 40
65.0
 40
65.0
 40
65.0
 40
66.0
 40
66.0
 40
66.0
 40
66.0
 10
1144.43714372925
 20
-1170.674468847977
 10
1145.36947984903
 20
-1170.67561781056
 10
1146.301815968811
 20
-1170.676766773142
 10
1147.234152088591
 20
-1170.677915735724
 10
1147.478156642824
 20
-1170.678216434256
 10
1147.722753677092
 20
-1170.673445425549
 10
1147.966666750048
 20
-1170.67952583087
 10
1148.00032394225
 20
-1170.680364856708
 10
1148.231312561065
 20
-1170.666966190872
 10
1148.246125476159
 20
-1170.692650195238
 10
1148.23929811228
 20
-1170.6808122793
 10
1147.919777243641
 20
-1170.620666440208
 10
1147.870496849939
 20
-1170.589943973797
 10
1147.586612922607
 20
-1170.412964575562
 10
1147.37600282507
 20
-1170.051548671387
 10
1147.375434691493
 20
-1169.715625600745
 10
1147.375324848622
 20
-1169.650678277995
 10
1147.455219110678
 20
-1169.305988464194
 10
1147.391749166752
 20
-1169.549201709051
 10
1147.315660746361
 20
-1169.84076824393
 10
1147.549896224024
 20
-1169.326106608859
 10
1147.42511858346
 20
-1169.484603141751
 10
1147.38799221974
 20
-1169.531762231327
 10
1147.33227791163
 20
-1169.623871620292
 10
1147.311523892435
 20
-1169.679998736118
 10
1147.241532379857
 20
-1169.869283601687
 10
1147.539675348371
 20
-1169.416620476577
 10
1147.378673021852
 20
-1169.604953712289
 10
1147.253047271405
 20
-1169.751905030213
 10
1147.129887836899
 20
-1169.900343469106
 10
1146.999674623944
 20
-1170.043377206378
 10
1146.718744046169
 20
-1170.351967629278
 10
1146.421071330894
 20
-1170.645234545967
 10
1146.109191539883
 20
-1170.922501802246
 10
1145.95994996038
 20
-1171.055180495973
 10
1145.806611196069
 20
-1171.182774801917
 10
1145.652249922581
 20
-1171.309406755441
 10
1145.525941030442
 20
-1171.413025632104
 10
1145.51740995272
 20
-1171.408450421716
 10
1145.651584433046
 20
-1171.311770589045
 10
1145.569380059661
 20
-1171.371003202015
 10
1145.488725889967
 20
-1171.432353863602
 10
1145.406285367731
 20
-1171.491287543653
 10
1145.030031759674
 20
-1171.760257331255
 10
1144.638987359442
 20
-1172.006156262967
 10
1144.238440165368
 20
-1172.237098283773
 10
1143.588055377219
 20
-1172.61208824625
 10
1143.190232736129
 20
-1173.494883447214
 10
1143.427827589793
 20
-1174.229076168891
 10
1143.657144489101
 20
-1174.937689153695
 10
1144.337128651176
 20
-1175.573265253322
 10
1145.128708662441
 20
-1175.524053519253
 10
1147.294036061843
 20
-1175.389437290147
 10
1149.459363458351
 20
-1175.254821014483
 10
1151.624690854239
 20
-1175.120204728843
 10
1152.143233347078
 20
-1175.087967449407
 10
1152.661873667115
 20
-1175.048683900027
 10
1153.180831847305
 20
-1175.023960525323
 10
1153.277981849637
 20
-1175.019332260461
 10
1153.388611772346
 20
-1175.026066367631
 10
1153.48626110609
 20
-1175.014362587149
 10
1153.88426066847
 20
-1174.966660269772
 10
1153.347569290443
 20
-1174.922906889841
 10
1153.538922280698
 20
-1175.001288959785
 10
1153.789247531462
 20
-1175.103827264976
 10
1153.241095747016
 20
-1174.764038090469
 10
1153.539257343122
 20
-1174.986515547374
 10
1153.477913131945
 20
-1174.937418659852
 10
1153.416568920767
 20
-1174.888321772329
 10
1153.35522470959
 20
-1174.839224884807
 10
1153.4841608662
 20
-1174.973632095262
 10
1153.457068834332
 20
-1174.932833445372
 10
1153.273948613987
 20
-1174.716828935137
 10
1153.409973082262
 20
-1174.913684612886
 10
1153.152100485756
 20
-1174.692729465153
 10
1153.220223301903
 20
-1174.569932463961
 10
1153.224297557481
 20
-1174.56258828186
 10
1153.257169110078
 20
-1174.754035673553
 10
1153.26794788804
 20
-1174.769325270185
 10
1153.109077020133
 20
-1174.543968416597
 10
1153.252960729798
 20
-1174.413974830083
 10
1153.230224419137
 20
-1174.615537767589
 10
1153.224728720462
 20
-1174.664258476284
 10
1153.193097108352
 20
-1175.024071116225
 10
1153.236681135723
 20
-1174.704986670878
 10
1153.278946641102
 20
-1174.395555299931
 10
1153.17637556275
 20
-1174.911177040491
 10
1153.148122323059
 20
-1174.999099501729
 10
1153.125660163547
 20
-1175.069000453643
 10
1153.099866537189
 20
-1175.137856064701
 10
1153.074276452741
 20
-1175.206658981419
 10
1152.927806180312
 20
-1175.600467058753
 10
1153.112803938478
 20
-1175.255009754078
 10
1153.080388112931
 20
-1175.211355337825
 10
1153.142224733517
 20
-1175.294630760529
 10
1152.673242771971
 20
-1176.046198697708
 10
1152.617589213223
 20
-1176.145356191416
 10
1152.425452846922
 20
-1176.487683995087
 10
1152.2138685445
 20
-1176.819083158809
 10
1151.985891488527
 20
-1177.138632309544
 10
1151.939752325032
 20
-1177.203304302291
 10
1151.892327535611
 20
-1177.266980310743
 10
1151.845485554316
 20
-1177.331144521104
 10
1151.764806386586
 20
-1177.441658955953
 10
1151.654779811187
 20
-1177.473946043619
 10
1151.902238701739
 20
-1177.258851288161
 10
1151.772805515697
 20
-1177.371356437756
 10
1151.667371676825
 20
-1177.547095116765
 10
1151.555010035794
 20
-1177.676327540734
 10
1151.300616286394
 20
-1177.968917792846
 10
1151.032698333601
 20
-1178.249745696501
 10
1150.752895797843
 20
-1178.518139659095
 10
1150.482729707178
 20
-1178.777290089722
 10
1150.201905771514
 20
-1179.025292599159
 10
1149.911753303445
 20
-1179.261844250817
 10
1149.851591477428
 20
-1179.310892185533
 10
1149.782350052057
 20
-1179.37755491917
 10
1149.714805803235
 20
-1179.419545430605
 10
1150.061946085815
 20
-1179.203737300979
 10
1149.808607483143
 20
-1179.346287787486
 10
1149.718686441268
 20
-1179.41271229625
 10
1149.547306426088
 20
-1179.539310399243
 10
1149.373256603489
 20
-1179.662165996804
 10
1149.19666003552
 20
-1179.781373749432
 10
1148.530184500424
 20
-1180.231263866967
 10
1147.828503773081
 20
-1180.628616822628
 10
1147.101757110385
 20
-1180.972609133713
 10
1147.021966898363
 20
-1181.01037637895
 10
1146.941845660827
 20
-1181.04750992878
 10
1146.861455830133
 20
-1181.083991097533
 10
1146.689938276582
 20
-1181.161826325707
 10
1146.527976799895
 20
-1181.242415423018
 10
1146.795025225581
 20
-1181.118152296607
 10
1146.57425064344
 20
-1181.220883251633
 10
1146.338033814817
 20
-1181.301997111005
 10
1146.109531602639
 20
-1181.385391686168
 10
1145.665586694673
 20
-1181.547414612083
 10
1145.214873622301
 20
-1181.690814358294
 10
1144.758869262295
 20
-1181.814929695836
 10
1144.320028063201
 20
-1181.934373561575
 10
1143.87628034541
 20
-1182.036236305969
 10
1143.429164275056
 20
-1182.119552606867
 10
1143.208427352812
 20
-1182.160685066763
 10
1142.975533376207
 20
-1182.22221184663
 10
1142.751403350451
 20
-1182.231708801774
 10
1143.168673792981
 20
-1182.21402799947
 10
1142.852823383263
 20
-1182.217806865108
 10
1142.74157444234
 20
-1182.230570699245
 10
1142.581197393385
 20
-1182.248971108592
 10
1142.420609645361
 20
-1182.264477899648
 10
1142.259825663364
 20
-1182.278833123657
 10
1141.343287825356
 20
-1182.360664073575
 10
1140.450643377126
 20
-1183.031485712933
 10
1140.495936774916
 20
-1184.042722012105
 10
1140.53559179194
 20
-1184.928073842957
 10
1141.275613678272
 20
-1185.894483979351
 10
1142.259825663364
 20
-1185.806610900553
 10
1146.285379452668
 20
-1185.447198689881
 10
1150.194743302899
 20
-1183.890410095068
 10
1153.157719934252
 20
-1181.097957749956
 10
1154.41532665465
 20
-1179.912728410501
 10
1155.488789792598
 20
-1178.477662480338
 10
1156.171453264294
 20
-1176.885979212848
 10
1156.616204594613
 20
-1175.849006707342
 10
1156.949496133543
 20
-1174.763765961511
 10
1156.621985447199
 20
-1173.632109387789
 10
1156.197197006679
 20
-1172.164326346814
 10
1154.787686279043
 20
-1171.448599817411
 10
1153.333488703284
 20
-1171.489389531154
 10
1150.599684674072
 20
-1171.566071741081
 10
1147.858470295123
 20
-1171.826569204006
 10
1145.128708662441
 20
-1171.996275742357
 10
1145.425464828132
 20
-1173.091927487518
 10
1145.722220993822
 20
-1174.187579232677
 10
1146.018977159513
 20
-1175.283230977838
 10
1147.065985829682
 20
-1174.679561044141
 10
1148.056741590434
 20
-1173.95091503225
 10
1148.930867836491
 20
-1173.115331689236
 10
1149.729001941048
 20
-1172.35238976149
 10
1150.586319276044
 20
-1171.445967649496
 10
1150.825943877825
 20
-1170.334308065206
 10
1151.005388211651
 20
-1169.501835055086
 10
1150.826101593507
 20
-1168.661558951604
 10
1150.250560644007
 20
-1168.02262745898
 10
1149.698643076023
 20
-1167.409921246115
 10
1148.901407388119
 20
-1167.199659815661
 10
1148.106799535479
 20
-1167.155625325537
 10
1146.890984791999
 20
-1167.088248968587
 10
1145.6549809809
 20
-1167.148191870422
 10
1144.43714372925
 20
-1167.146691071081
 10
1143.514458248558
 20
-1167.145554001445
 10
1142.630625093994
 20
-1167.958813267257
 10
1142.673254840802
 20
-1168.910579959529
 10
1142.716103412973
 20
-1169.867232223665
 10
1143.448258097262
 20
-1170.673250196715
 10
1144.43714372925
 20
-1170.674468847977
 10
1144.43714372925
 20
-1170.674468847977
 10
1144.43714372925
 20
-1170.674468847977
 10
1144.43714372925
 20
-1170.674468847977
 97
        0
 97
        1
330
8F
 75
     2
 76
     1
 98
        1
 10
0.0
 20
0.0
450
        0
451
        0
460
0.0
461
0.0
452
        0
462
0.0
453
        0
470

  0
ENDSEC
  0
SECTION
  2
OBJECTS
  0
DICTIONARY
  5
C
330
0
100
AcDbDictionary
281
     1
  3
ACAD_COLOR
350
63
  3
ACAD_DETAILVIEWSTYLE
350
6A
  3
ACAD_GROUP
350
D
  3
ACAD_LAYOUT
350
62
  3
ACAD_MATERIAL
350
10
  3
ACAD_MLEADERSTYLE
350
66
  3
ACAD_MLINESTYLE
350
5F
  3
ACAD_PLOTSETTINGS
350
61
  3
ACAD_PLOTSTYLENAME
350
E
  3
ACAD_SCALELIST
350
42
  3
ACAD_SECTIONVIEWSTYLE
350
68
  3
ACAD_TABLESTYLE
350
64
  3
ACAD_VISUALSTYLE
350
29
  3
ACDB_RECOMPOSE_DATA
350
9E
  3
AcDbVariableDictionary
350
96
  0
DICTIONARY
  5
63
102
{ACAD_REACTORS
330
C
102
}
330
C
100
AcDbDictionary
281
     1
  0
DICTIONARY
  5
6A
102
{ACAD_REACTORS
330
C
102
}
330
C
100
AcDbDictionary
281
     1
  3
Imperial24
350
6B
  0
DICTIONARY
  5
D
102
{ACAD_REACTORS
330
C
102
}
330
C
100
AcDbDictionary
281
     1
  0
DICTIONARY
  5
62
102
{ACAD_REACTORS
330
C
102
}
330
C
100
AcDbDictionary
281
     1
  3
Layout1
350
6F
  3
Layout2
350
77
  3
Model
350
73
  0
DICTIONARY
  5
10
102
{ACAD_REACTORS
330
C
102
}
330
C
100
AcDbDictionary
281
     1
  3
ByBlock
350
19
  3
ByLayer
350
11
  3
Global
350
21
  0
DICTIONARY
  5
66
102
{ACAD_REACTORS
330
C
102
}
330
C
100
AcDbDictionary
281
     1
  3
Standard
350
67
  0
DICTIONARY
  5
5F
102
{ACAD_REACTORS
330
C
102
}
330
C
100
AcDbDictionary
281
     1
  3
Standard
350
60
  0
DICTIONARY
  5
61
102
{ACAD_REACTORS
330
C
102
}
330
C
100
AcDbDictionary
281
     1
  0
ACDBDICTIONARYWDFLT
  5
E
102
{ACAD_REACTORS
330
C
102
}
330
C
100
AcDbDictionary
281
     1
  3
Normal
350
F
100
AcDbDictionaryWithDefault
340
F
  0
DICTIONARY
  5
42
102
{ACAD_REACTORS
330
C
102
}
330
C
100
AcDbDictionary
281
     1
  3
A0
350
43
  3
A1
350
44
  3
A2
350
45
  3
A3
350
46
  3
A4
350
47
  3
A5
350
48
  3
A6
350
49
  3
A7
350
4A
  3
A8
350
4B
  3
A9
350
4C
  3
B0
350
4D
  3
B1
350
4E
  3
B2
350
4F
  3
B3
350
50
  3
B4
350
51
  3
B5
350
52
  3
B6
350
53
  0
DICTIONARY
  5
68
102
{ACAD_REACTORS
330
C
102
}
330
C
100
AcDbDictionary
281
     1
  3
Imperial24
350
69
  0
DICTIONARY
  5
64
102
{ACAD_REACTORS
330
C
102
}
330
C
100
AcDbDictionary
281
     1
  3
Standard
350
65
  0
DICTIONARY
  5
29
102
{ACAD_REACTORS
330
C
102
}
330
C
100
AcDbDictionary
281
     1
  3
2dWireframe
350
2F
  3
Basic
350
2E
  3
Brighten
350
35
  3
ColorChange
350
39
  3
Conceptual
350
32
  3
Dim
350
34
  3
EdgeColorOff
350
41
  3
Facepattern
350
38
  3
Flat
350
2A
  3
FlatWithEdges
350
2B
  3
Gouraud
350
2C
  3
GouraudWithEdges
350
2D
  3
Hidden
350
31
  3
JitterOff
350
3F
  3
Linepattern
350
37
  3
OverhangOff
350
40
  3
Realistic
350
33
  3
Shaded
350
3E
  3
Shaded with edges
350
3D
  3
Shades of Gray
350
3A
  3
Sketchy
350
3B
  3
Thicken
350
36
  3
Wireframe
350
30
  3
X-Ray
350
3C
  0
XRECORD
  5
9E
102
{ACAD_REACTORS
330
C
102
}
330
C
100
AcDbXrecord
280
     1
 90
        1
330
65
  0
DICTIONARY
  5
96
102
{ACAD_REACTORS
330
C
102
}
330
C
100
AcDbDictionary
281
     1
  3
CANNOSCALE
350
9B
  3
CMLEADERSTYLE
350
98
  3
CTABLESTYLE
350
97
  3
CVIEWDETAILSTYLE
350
99
  3
CVIEWSECTIONSTYLE
350
9A
  0
ACDBDETAILVIEWSTYLE
  5
6B
102
{ACAD_REACTORS
330
6A
102
}
330
6A
100
AcDbModelDocViewStyle
 70
     0
  3
Imperial24
290
     1
300
Imperial24
 90
        0
100
AcDbDetailViewStyle
 70
     0
 71
     0
 90
        3
 71
     1
340
55
 62
   256
 40
0.24
340
0
 62
   256
 40
0.24
300

 40
0.36
280
     3
 71
     2
340
5D
 90
       25
 62
   256
 71
     3
340
55
 62
   256
 40
0.24
 90
        1
 40
0.75
 90
        1
300
%<\AcVar ViewType \f "%tc1">% %<\AcVar ViewDetailId>%\PSCALE %<\AcVar ViewScale \f "%sn">%
 71
     4
340
5D
 90
       25
 62
   256
340
5D
 90
       25
 62
   256
280
     0
  0
LAYOUT
  5
6F
102
{ACAD_REACTORS
330
62
102
}
330
62
100
AcDbPlotSettings
  1

  2

  4

  6

 40
0.0
 41
0.0
 42
0.0
 43
0.0
 44
0.0
 45
0.0
 46
0.0
 47
0.0
 48
0.0
 49
0.0
140
0.0
141
0.0
142
1.0
143
1.0
 70
   688
 72
     0
 73
     0
 74
     5
  7

 75
    16
147
1.0
 76
     0
 77
     2
 78
   300
148
0.0
149
0.0
100
AcDbLayout
  1
Layout1
 70
     1
 71
     1
 10
0.0
 20
0.0
 11
12.0
 21
9.0
 12
0.0
 22
0.0
 32
0.0
 14
0.0
 24
0.0
 34
0.0
 15
0.0
 25
0.0
 35
0.0
146
0.0
 13
0.0
 23
0.0
 33
0.0
 16
1.0
 26
0.0
 36
0.0
 17
0.0
 27
1.0
 37
0.0
 76
     0
330
6C
  0
LAYOUT
  5
77
102
{ACAD_REACTORS
330
62
102
}
330
62
100
AcDbPlotSettings
  1

  2

  4

  6

 40
0.0
 41
0.0
 42
0.0
 43
0.0
 44
0.0
 45
0.0
 46
0.0
 47
0.0
 48
0.0
 49
0.0
140
0.0
141
0.0
142
1.0
143
1.0
 70
   688
 72
     0
 73
     0
 74
     5
  7

 75
    16
147
1.0
 76
     0
 77
     2
 78
   300
148
0.0
149
0.0
100
AcDbLayout
  1
Layout2
 70
     1
 71
     2
 10
0.0
 20
0.0
 11
12.0
 21
9.0
 12
0.0
 22
0.0
 32
0.0
 14
0.0
 24
0.0
 34
0.0
 15
0.0
 25
0.0
 35
0.0
146
0.0
 13
0.0
 23
0.0
 33
0.0
 16
1.0
 26
0.0
 36
0.0
 17
0.0
 27
1.0
 37
0.0
 76
     0
330
74
  0
LAYOUT
  5
73
102
{ACAD_REACTORS
330
62
102
}
330
62
100
AcDbPlotSettings
  1

  2

  4

  6

 40
0.0
 41
0.0
 42
0.0
 43
0.0
 44
0.0
 45
0.0
 46
0.0
 47
0.0
 48
0.0
 49
0.0
140
0.0
141
0.0
142
1.0
143
1.0
 70
  1712
 72
     0
 73
     0
 74
     0
  7

 75
     0
147
1.0
 76
     0
 77
     2
 78
   300
148
0.0
149
0.0
100
AcDbLayout
  1
Model
 70
     1
 71
     0
 10
0.0
 20
0.0
 11
12.0
 21
9.0
 12
0.0
 22
0.0
 32
0.0
 14
0.0
 24
0.0
 34
0.0
 15
0.0
 25
0.0
 35
0.0
146
0.0
 13
0.0
 23
0.0
 33
0.0
 16
1.0
 26
0.0
 36
0.0
 17
0.0
 27
1.0
 37
0.0
 76
     0
330
70
  0
MATERIAL
  5
19
102
{ACAD_XDICTIONARY
360
1A
102
}
102
{ACAD_REACTORS
330
10
102
}
330
10
100
AcDbMaterial
  1
ByBlock
 72
     0
 43
0.0208333333333333
 43
0.0
 43
0.0
 43
0.0
 43
0.0
 43
0.0208333333333333
 43
0.0
 43
0.0
 43
0.0
 43
0.0
 43
1.0
 43
0.0
 43
0.0
 43
0.0
 43
0.0
 43
1.0
 77
     0
 47
0.0208333333333333
 47
0.0
 47
0.0
 47
0.0
 47
0.0
 47
0.0208333333333333
 47
0.0
 47
0.0
 47
0.0
 47
0.0
 47
1.0
 47
0.0
 47
0.0
 47
0.0
 47
0.0
 47
1.0
171
     0
 49
0.0208333333333333
 49
0.0
 49
0.0
 49
0.0
 49
0.0
 49
0.0208333333333333
 49
0.0
 49
0.0
 49
0.0
 49
0.0
 49
1.0
 49
0.0
 49
0.0
 49
0.0
 49
0.0
 49
1.0
175
     0
142
0.0208333333333333
142
0.0
142
0.0
142
0.0
142
0.0
142
0.0208333333333333
142
0.0
142
0.0
142
0.0
142
0.0
142
1.0
142
0.0
142
0.0
142
0.0
142
0.0
142
1.0
179
     0
144
0.0208333333333333
144
0.0
144
0.0
144
0.0
144
0.0
144
0.0208333333333333
144
0.0
144
0.0
144
0.0
144
0.0
144
1.0
144
0.0
144
0.0
144
0.0
144
0.0
144
1.0
147
0.0208333333333333
147
0.0
147
0.0
147
0.0
147
0.0
147
0.0208333333333333
147
0.0
147
0.0
147
0.0
147
0.0
147
1.0
147
0.0
147
0.0
147
0.0
147
0.0
147
1.0
  0
MATERIAL
  5
11
102
{ACAD_XDICTIONARY
360
12
102
}
102
{ACAD_REACTORS
330
10
102
}
330
10
100
AcDbMaterial
  1
ByLayer
 72
     0
 43
0.0208333333333333
 43
0.0
 43
0.0
 43
0.0
 43
0.0
 43
0.0208333333333333
 43
0.0
 43
0.0
 43
0.0
 43
0.0
 43
1.0
 43
0.0
 43
0.0
 43
0.0
 43
0.0
 43
1.0
 77
     0
 47
0.0208333333333333
 47
0.0
 47
0.0
 47
0.0
 47
0.0
 47
0.0208333333333333
 47
0.0
 47
0.0
 47
0.0
 47
0.0
 47
1.0
 47
0.0
 47
0.0
 47
0.0
 47
0.0
 47
1.0
171
     0
 49
0.0208333333333333
 49
0.0
 49
0.0
 49
0.0
 49
0.0
 49
0.0208333333333333
 49
0.0
 49
0.0
 49
0.0
 49
0.0
 49
1.0
 49
0.0
 49
0.0
 49
0.0
 49
0.0
 49
1.0
175
     0
142
0.0208333333333333
142
0.0
142
0.0
142
0.0
142
0.0
142
0.0208333333333333
142
0.0
142
0.0
142
0.0
142
0.0
142
1.0
142
0.0
142
0.0
142
0.0
142
0.0
142
1.0
179
     0
144
0.0208333333333333
144
0.0
144
0.0
144
0.0
144
0.0
144
0.0208333333333333
144
0.0
144
0.0
144
0.0
144
0.0
144
1.0
144
0.0
144
0.0
144
0.0
144
0.0
144
1.0
147
0.0208333333333333
147
0.0
147
0.0
147
0.0
147
0.0
147
0.0208333333333333
147
0.0
147
0.0
147
0.0
147
0.0
147
1.0
147
0.0
147
0.0
147
0.0
147
0.0
147
1.0
  0
MATERIAL
  5
21
102
{ACAD_XDICTIONARY
360
22
102
}
102
{ACAD_REACTORS
330
10
102
}
330
10
100
AcDbMaterial
  1
Global
 72
     0
 43
0.0208333333333333
 43
0.0
 43
0.0
 43
0.0
 43
0.0
 43
0.0208333333333333
 43
0.0
 43
0.0
 43
0.0
 43
0.0
 43
1.0
 43
0.0
 43
0.0
 43
0.0
 43
0.0
 43
1.0
 77
     0
 47
0.0208333333333333
 47
0.0
 47
0.0
 47
0.0
 47
0.0
 47
0.0208333333333333
 47
0.0
 47
0.0
 47
0.0
 47
0.0
 47
1.0
 47
0.0
 47
0.0
 47
0.0
 47
0.0
 47
1.0
171
     0
 49
0.0208333333333333
 49
0.0
 49
0.0
 49
0.0
 49
0.0
 49
0.0208333333333333
 49
0.0
 49
0.0
 49
0.0
 49
0.0
 49
1.0
 49
0.0
 49
0.0
 49
0.0
 49
0.0
 49
1.0
175
     0
142
0.0208333333333333
142
0.0
142
0.0
142
0.0
142
0.0
142
0.0208333333333333
142
0.0
142
0.0
142
0.0
142
0.0
142
1.0
142
0.0
142
0.0
142
0.0
142
0.0
142
1.0
179
     0
144
0.0208333333333333
144
0.0
144
0.0
144
0.0
144
0.0
144
0.0208333333333333
144
0.0
144
0.0
144
0.0
144
0.0
144
1.0
144
0.0
144
0.0
144
0.0
144
0.0
144
1.0
147
0.0208333333333333
147
0.0
147
0.0
147
0.0
147
0.0
147
0.0208333333333333
147
0.0
147
0.0
147
0.0
147
0.0
147
1.0
147
0.0
147
0.0
147
0.0
147
0.0
147
1.0
  0
MLEADERSTYLE
  5
67
102
{ACAD_REACTORS
330
66
102
}
330
66
100
AcDbMLeaderStyle
179
     2
170
     2
171
     1
172
     0
 90
        2
 40
0.0
 41
0.0
173
     1
 91
-1056964608
340
5B
 92
       -2
290
     1
 42
0.09
291
     1
 43
0.36
  3
Standard
 44
0.18
300

342
55
174
     1
178
     6
175
     1
176
     0
 93
-1056964608
 45
0.18
292
     0
297
     0
 46
0.18
 94
-1056964608
 47
1.0
 49
1.0
140
1.0
293
     1
141
0.0
294
     1
177
     0
142
1.0
295
     1
296
     0
143
0.125
271
     0
272
     9
273
     9
298
     1
  0
MLINESTYLE
  5
60
102
{ACAD_REACTORS
330
5F
102
}
330
5F
100
AcDbMlineStyle
  2
STANDARD
 70
     0
  3

 62
   256
 51
90.0
 52
90.0
 71
     2
 49
0.5
 62
   256
  6
BYLAYER
 49
-0.5
 62
   256
  6
BYLAYER
  0
ACDBPLACEHOLDER
  5
F
102
{ACAD_REACTORS
330
E
102
}
330
E
  0
SCALE
  5
43
102
{ACAD_REACTORS
330
42
102
}
330
42
100
AcDbScale
 70
     0
300
1:1
140
1.0
141
1.0
290
     1
  0
SCALE
  5
44
102
{ACAD_REACTORS
330
42
102
}
330
42
100
AcDbScale
 70
     0
300
1/128" = 1'-0"
140
0.0078125
141
12.0
290
     0
  0
SCALE
  5
45
102
{ACAD_REACTORS
330
42
102
}
330
42
100
AcDbScale
 70
     0
300
1/64" = 1'-0"
140
0.015625
141
12.0
290
     0
  0
SCALE
  5
46
102
{ACAD_REACTORS
330
42
102
}
330
42
100
AcDbScale
 70
     0
300
1/32" = 1'-0"
140
0.03125
141
12.0
290
     0
  0
SCALE
  5
47
102
{ACAD_REACTORS
330
42
102
}
330
42
100
AcDbScale
 70
     0
300
1/16" = 1'-0"
140
0.0625
141
12.0
290
     0
  0
SCALE
  5
48
102
{ACAD_REACTORS
330
42
102
}
330
42
100
AcDbScale
 70
     0
300
3/32" = 1'-0"
140
0.09375
141
12.0
290
     0
  0
SCALE
  5
49
102
{ACAD_REACTORS
330
42
102
}
330
42
100
AcDbScale
 70
     0
300
1/8" = 1'-0"
140
0.125
141
12.0
290
     0
  0
SCALE
  5
4A
102
{ACAD_REACTORS
330
42
102
}
330
42
100
AcDbScale
 70
     0
300
3/16" = 1'-0"
140
0.1875
141
12.0
290
     0
  0
SCALE
  5
4B
102
{ACAD_REACTORS
330
42
102
}
330
42
100
AcDbScale
 70
     0
300
1/4" = 1'-0"
140
0.25
141
12.0
290
     0
  0
SCALE
  5
4C
102
{ACAD_REACTORS
330
42
102
}
330
42
100
AcDbScale
 70
     0
300
3/8" = 1'-0"
140
0.375
141
12.0
290
     0
  0
SCALE
  5
4D
102
{ACAD_REACTORS
330
42
102
}
330
42
100
AcDbScale
 70
     0
300
1/2" = 1'-0"
140
0.5
141
12.0
290
     0
  0
SCALE
  5
4E
102
{ACAD_REACTORS
330
42
102
}
330
42
100
AcDbScale
 70
     0
300
3/4" = 1'-0"
140
0.75
141
12.0
290
     0
  0
SCALE
  5
4F
102
{ACAD_REACTORS
330
42
102
}
330
42
100
AcDbScale
 70
     0
300
1" = 1'-0"
140
1.0
141
12.0
290
     0
  0
SCALE
  5
50
102
{ACAD_REACTORS
330
42
102
}
330
42
100
AcDbScale
 70
     0
300
1-1/2" = 1'-0"
140
1.5
141
12.0
290
     0
  0
SCALE
  5
51
102
{ACAD_REACTORS
330
42
102
}
330
42
100
AcDbScale
 70
     0
300
3" = 1'-0"
140
3.0
141
12.0
290
     0
  0
SCALE
  5
52
102
{ACAD_REACTORS
330
42
102
}
330
42
100
AcDbScale
 70
     0
300
6" = 1'-0"
140
6.0
141
12.0
290
     0
  0
SCALE
  5
53
102
{ACAD_REACTORS
330
42
102
}
330
42
100
AcDbScale
 70
     0
300
1'-0" = 1'-0"
140
12.0
141
12.0
290
     0
  0
ACDBSECTIONVIEWSTYLE
  5
69
102
{ACAD_REACTORS
330
68
102
}
330
68
100
AcDbModelDocViewStyle
 70
     0
  3
Imperial24
290
     1
300
Imperial24
 90
        0
100
AcDbSectionViewStyle
 70
     0
 71
     0
 90
       78
 71
     1
340
55
 62
   256
 40
0.24
340
0
340
0
 62
   256
 40
0.24
300
I, O, Q, S, X, Z
 40
0.48
 90
        3
 40
0.18
 90
        1
 71
     2
340
5D
 90
       25
 62
   256
340
5D
 90
       50
 62
   256
 40
0.24
 40
0.0
 40
0.24
 71
     3
340
55
 62
   256
 40
0.24
 90
        1
 40
0.75
 90
        1
300
%<\AcVar ViewType \f "%tc1">% %<\AcVar ViewSectionStartId>%-%<\AcVar ViewSectionEndId>%\PSCALE %<\AcVar ViewScale \f "%sn">%
 71
     4
 62
   256
 62
   257
300
ANSI31
 40
1.0
 90
        0
290
     0
290
     0
 90
        6
 40
0.0
 40
1.570796326794896
 40
0.2617993877991494
 40
1.308996938995747
 40
-0.2617993877991494
 40
1.832595714594046
  0
TABLESTYLE
  5
65
102
{ACAD_XDICTIONARY
360
9C
102
}
102
{ACAD_REACTORS
330
64
102
}
330
64
100
AcDbTableStyle
280
     0
  3
Standard
 70
     0
 71
     0
 40
0.06
 41
0.06
280
     0
281
     0
  7
Standard
140
0.18
170
     2
 62
     0
 63
     7
283
     0
 90
      512
 91
        0
  1

274
    -2
284
     1
 64
     0
275
    -2
285
     1
 65
     0
276
    -2
286
     1
 66
     0
277
    -2
287
     1
 67
     0
278
    -2
288
     1
 68
     0
279
    -2
289
     1
 69
     0
  7
Standard
140
0.25
170
     5
 62
     0
 63
     7
283
     0
 90
      512
 91
        0
  1

274
    -2
284
     1
 64
     0
275
    -2
285
     1
 65
     0
276
    -2
286
     1
 66
     0
277
    -2
287
     1
 67
     0
278
    -2
288
     1
 68
     0
279
    -2
289
     1
 69
     0
  7
Standard
140
0.18
170
     5
 62
     0
 63
     7
283
     0
 90
      512
 91
        0
  1

274
    -2
284
     1
 64
     0
275
    -2
285
     1
 65
     0
276
    -2
286
     1
 66
     0
277
    -2
287
     1
 67
     0
278
    -2
288
     1
 68
     0
279
    -2
289
     1
 69
     0
  0
VISUALSTYLE
  5
2F
102
{ACAD_REACTORS
330
29
102
}
330
29
100
AcDbVisualStyle
  2
2dWireframe
 70
     4
177
     3
291
     0
 70
    58
 90
        0
176
     1
 90
        2
176
     1
 90
        0
176
     1
 90
        0
176
     1
 40
0.6
176
     1
 40
30.0
176
     1
 62
     7
420
 16777215
176
     1
 90
        1
176
     1
 90
        4
176
     1
 62
     7
176
     1
 62
   257
176
     1
 90
        1
176
     1
 90
        1
176
     1
 40
1.0
176
     1
 90
        0
176
     1
 62
   257
176
     1
 40
1.0
176
     1
 90
        1
176
     1
 90
        6
176
     1
 90
        2
176
     1
 62
     7
176
     1
 90
        5
176
     1
 90
        0
176
     1
 90
        0
176
     1
290
     0
176
     1
 90
        1
176
     1
 40
0.0
176
     1
 90
        0
176
     1
290
     1
176
     1
290
     1
176
     1
290
     0
176
     1
290
     0
176
     1
290
     0
176
     1
290
     0
176
     1
290
     0
176
     1
290
     0
176
     1
290
     0
176
     1
 90
       50
176
     1
 40
0.0
176
     1
 40
1.0
176
     1
 90
        0
176
     1
 62
    18
420
        0
176
     1
 90
       50
176
     1
 90
        3
176
     1
 62
     5
420
      255
176
     1
290
     0
176
     1
 90
       50
176
     1
 90
       50
176
     1
 90
       50
176
     1
290
     0
176
     1
 90
       50
176
     1
 62
   256
176
     0
 40
1.0
176
     0
 90
        2
176
     1
  1
strokes_ogs.tif
176
     1
290
     0
176
     1
 40
1.0
176
     1
 40
1.0
176
     1
  0
VISUALSTYLE
  5
2E
102
{ACAD_REACTORS
330
29
102
}
330
29
100
AcDbVisualStyle
  2
Basic
 70
     7
177
     3
291
     1
 70
    58
 90
        1
176
     1
 90
        0
176
     1
 90
        1
176
     1
 90
        0
176
     1
 40
0.6
176
     1
 40
30.0
176
     1
 62
     7
420
 16777215
176
     1
 90
        0
176
     1
 90
        4
176
     1
 62
     7
176
     1
 62
   257
176
     1
 90
        1
176
     1
 90
        1
176
     1
 40
1.0
176
     1
 90
        8
176
     1
 62
     7
176
     1
 40
1.0
176
     1
 90
        1
176
     1
 90
        6
176
     1
 90
        2
176
     1
 62
     7
176
     1
 90
        5
176
     1
 90
        0
176
     1
 90
        0
176
     1
290
     0
176
     1
 90
        1
176
     1
 40
0.0
176
     1
 90
        0
176
     1
290
     0
176
     1
290
     1
176
     1
290
     1
176
     1
290
     0
176
     1
290
     0
176
     1
290
     0
176
     1
290
     0
176
     1
290
     0
176
     1
290
     0
176
     1
 90
       50
176
     1
 40
0.0
176
     1
 40
1.0
176
     1
 90
        0
176
     1
 62
    18
420
        0
176
     1
 90
       50
176
     1
 90
        3
176
     1
 62
     5
420
      255
176
     1
290
     0
176
     1
 90
       50
176
     1
 90
       50
176
     1
 90
       50
176
     1
290
     0
176
     1
 90
       50
176
     1
 62
   256
176
     0
 40
1.0
176
     0
 90
        2
176
     1
  1
strokes_ogs.tif
176
     1
290
     0
176
     1
 40
1.0
176
     1
 40
1.0
176
     1
  0
VISUALSTYLE
  5
35
102
{ACAD_REACTORS
330
29
102
}
330
29
100
AcDbVisualStyle
  2
Brighten
 70
    12
177
     3
291
     1
 70
    58
 90
        2
176
     1
 90
        2
176
     1
 90
        0
176
     1
 90
        0
176
     1
 40
0.6
176
     1
 40
30.0
176
     1
 62
     7
420
 16777215
176
     1
 90
        1
176
     1
 90
        4
176
     1
 62
     7
176
     1
 62
   257
176
     1
 90
        1
176
     1
 90
        1
176
     1
 40
1.0
176
     1
 90
        8
176
     1
 62
     7
176
     1
 40
1.0
176
     1
 90
        1
176
     1
 90
        6
176
     1
 90
        2
176
     1
 62
     7
176
     1
 90
        5
176
     1
 90
        0
176
     1
 90
        0
176
     1
290
     0
176
     1
 90
        1
176
     1
 40
50.0
176
     1
 90
        0
176
     1
290
     0
176
     1
290
     1
176
     1
290
     1
176
     1
290
     0
176
     1
290
     0
176
     1
290
     0
176
     1
290
     0
176
     1
290
     0
176
     1
290
     0
176
     1
 90
       50
176
     1
 40
0.0
176
     1
 40
1.0
176
     1
 90
        0
176
     1
 62
    18
420
        0
176
     1
 90
       50
176
     1
 90
        3
176
     1
 62
     5
420
      255
176
     1
290
     0
176
     1
 90
       50
176
     1
 90
       50
176
     1
 90
       50
176
     1
290
     0
176
     1
 90
       50
176
     1
 62
   256
176
     0
 40
1.0
176
     0
 90
        2
176
     1
  1
strokes_ogs.tif
176
     1
290
     0
176
     1
 40
1.0
176
     1
 40
1.0
176
     1
  0
VISUALSTYLE
  5
39
102
{ACAD_REACTORS
330
29
102
}
330
29
100
AcDbVisualStyle
  2
ColorChange
 70
    16
177
     3
291
     1
 70
    58
 90
        2
176
     1
 90
        2
176
     1
 90
        3
176
     1
 90
        0
176
     1
 40
0.6
176
     1
 40
30.0
176
     1
 62
     8
420
  8421504
176
     1
 90
        1
176
     1
 90
        4
176
     1
 62
     7
176
     1
 62
   257
176
     1
 90
        1
176
     1
 90
        1
176
     1
 40
1.0
176
     1
 90
        8
176
     1
 62
     8
420
  8421504
176
     1
 40
1.0
176
     1
 90
        1
176
     1
 90
        6
176
     1
 90
        2
176
     1
 62
     7
176
     1
 90
        5
176
     1
 90
        0
176
     1
 90
        0
176
     1
290
     0
176
     1
 90
        1
176
     1
 40
0.0
176
     1
 90
        0
176
     1
290
     0
176
     1
290
     1
176
     1
290
     1
176
     1
290
     0
176
     1
290
     0
176
     1
290
     0
176
     1
290
     0
176
     1
290
     0
176
     1
290
     0
176
     1
 90
       50
176
     1
 40
0.0
176
     1
 40
1.0
176
     1
 90
        0
176
     1
 62
    18
420
        0
176
     1
 90
       50
176
     1
 90
        3
176
     1
 62
     5
420
      255
176
     1
290
     0
176
     1
 90
       50
176
     1
 90
       50
176
     1
 90
       50
176
     1
290
     0
176
     1
 90
       50
176
     1
 62
   256
176
     0
 40
1.0
176
     0
 90
        2
176
     1
  1
strokes_ogs.tif
176
     1
290
     0
176
     1
 40
1.0
176
     1
 40
1.0
176
     1
  0
VISUALSTYLE
  5
32
102
{ACAD_REACTORS
330
29
102
}
330
29
100
AcDbVisualStyle
  2
Conceptual
 70
     9
177
     3
291
     0
 70
    58
 90
        3
176
     1
 90
        2
176
     1
 90
        0
176
     1
 90
        0
176
     1
 40
0.6
176
     1
 40
30.0
176
     1
 62
     7
420
 16777215
176
     1
 90
        2
176
     1
 90
        2
176
     1
 62
     7
176
     1
 62
   257
176
     1
 90
        1
176
     1
 90
        1
176
     1
 40
179.0
176
     1
 90
        8
176
     1
 62
     7
176
     1
 40
1.0
176
     1
 90
        1
176
     1
 90
        6
176
     1
 90
        2
176
     1
 62
     7
176
     1
 90
        3
176
     1
 90
        0
176
     1
 90
        0
176
     1
290
     0
176
     1
 90
        1
176
     1
 40
0.0
176
     1
 90
        0
176
     1
290
     0
176
     1
290
     1
176
     1
290
     1
176
     1
290
     0
176
     1
290
     0
176
     1
290
     0
176
     1
290
     0
176
     1
290
     0
176
     1
290
     0
176
     1
 90
       50
176
     1
 40
0.0
176
     1
 40
1.0
176
     1
 90
        0
176
     1
 62
    18
420
        0
176
     1
 90
       50
176
     1
 90
        3
176
     1
 62
     5
420
      255
176
     1
290
     0
176
     1
 90
       50
176
     1
 90
       50
176
     1
 90
       50
176
     1
290
     0
176
     1
 90
       50
176
     1
 62
   256
176
     0
 40
1.0
176
     0
 90
        2
176
     1
  1
strokes_ogs.tif
176
     1
290
     0
176
     1
 40
1.0
176
     1
 40
1.0
176
     1
  0
VISUALSTYLE
  5
34
102
{ACAD_REACTORS
330
29
102
}
330
29
100
AcDbVisualStyle
  2
Dim
 70
    11
177
     3
291
     1
 70
    58
 90
        2
176
     1
 90
        2
176
     1
 90
        0
176
     1
 90
        0
176
     1
 40
0.6
176
     1
 40
30.0
176
     1
 62
     7
420
 16777215
176
     1
 90
        1
176
     1
 90
        4
176
     1
 62
     7
176
     1
 62
   257
176
     1
 90
        1
176
     1
 90
        1
176
     1
 40
1.0
176
     1
 90
        8
176
     1
 62
     7
176
     1
 40
1.0
176
     1
 90
        1
176
     1
 90
        6
176
     1
 90
        2
176
     1
 62
     7
176
     1
 90
        5
176
     1
 90
        0
176
     1
 90
        0
176
     1
290
     0
176
     1
 90
        1
176
     1
 40
-50.0
176
     1
 90
        0
176
     1
290
     0
176
     1
290
     1
176
     1
290
     1
176
     1
290
     0
176
     1
290
     0
176
     1
290
     0
176
     1
290
     0
176
     1
290
     0
176
     1
290
     0
176
     1
 90
       50
176
     1
 40
0.0
176
     1
 40
1.0
176
     1
 90
        0
176
     1
 62
    18
420
        0
176
     1
 90
       50
176
     1
 90
        3
176
     1
 62
     5
420
      255
176
     1
290
     0
176
     1
 90
       50
176
     1
 90
       50
176
     1
 90
       50
176
     1
290
     0
176
     1
 90
       50
176
     1
 62
   256
176
     0
 40
1.0
176
     0
 90
        2
176
     1
  1
strokes_ogs.tif
176
     1
290
     0
176
     1
 40
1.0
176
     1
 40
1.0
176
     1
  0
VISUALSTYLE
  5
41
102
{ACAD_REACTORS
330
29
102
}
330
29
100
AcDbVisualStyle
  2
EdgeColorOff
 70
    22
177
     3
291
     1
 70
    58
 90
        2
176
     0
 90
        2
176
     0
 90
        0
176
     0
 90
        0
176
     0
 40
0.6
176
     0
 40
30.0
176
     0
 62
     7
420
 16777215
176
     0
 90
        1
176
     0
 90
        4
176
     0
 62
     7
176
     0
 62
   257
176
     0
 90
        1
176
     0
 90
        1
176
     0
 40
1.0
176
     0
 90
        8
176
     2
 62
     7
176
     0
 40
1.0
176
     0
 90
        1
176
     0
 90
        6
176
     0
 90
        2
176
     0
 62
     7
176
     0
 90
        5
176
     0
 90
        0
176
     0
 90
        0
176
     0
290
     0
176
     0
 90
        1
176
     0
 40
0.0
176
     0
 90
        0
176
     0
290
     0
176
     0
290
     1
176
     0
290
     1
176
     0
290
     0
176
     0
290
     0
176
     0
290
     0
176
     0
290
     0
176
     0
290
     0
176
     0
290
     0
176
     0
 90
       50
176
     0
 40
0.0
176
     0
 40
1.0
176
     0
 90
        0
176
     0
 62
    18
420
        0
176
     0
 90
       50
176
     0
 90
        3
176
     0
 62
     5
420
      255
176
     0
290
     0
176
     0
 90
       50
176
     0
 90
       50
176
     0
 90
       50
176
     0
290
     0
176
     0
 90
       50
176
     0
 62
   256
176
     0
 40
1.0
176
     0
 90
        2
176
     0
  1
strokes_ogs.tif
176
     0
290
     0
176
     0
 40
1.0
176
     0
 40
1.0
176
     0
  0
VISUALSTYLE
  5
38
102
{ACAD_REACTORS
330
29
102
}
330
29
100
AcDbVisualStyle
  2
Facepattern
 70
    15
177
     3
291
     1
 70
    58
 90
        2
176
     1
 90
        2
176
     1
 90
        0
176
     1
 90
        0
176
     1
 40
0.6
176
     1
 40
30.0
176
     1
 62
     7
420
 16777215
176
     1
 90
        1
176
     1
 90
        4
176
     1
 62
     7
176
     1
 62
   257
176
     1
 90
        1
176
     1
 90
        1
176
     1
 40
1.0
176
     1
 90
        8
176
     1
 62
     7
176
     1
 40
1.0
176
     1
 90
        1
176
     1
 90
        6
176
     1
 90
        2
176
     1
 62
     7
176
     1
 90
        5
176
     1
 90
        0
176
     1
 90
        0
176
     1
290
     0
176
     1
 90
        1
176
     1
 40
0.0
176
     1
 90
        0
176
     1
290
     0
176
     1
290
     1
176
     1
290
     1
176
     1
290
     0
176
     1
290
     0
176
     1
290
     0
176
     1
290
     0
176
     1
290
     0
176
     1
290
     0
176
     1
 90
       50
176
     1
 40
0.0
176
     1
 40
1.0
176
     1
 90
        0
176
     1
 62
    18
420
        0
176
     1
 90
       50
176
     1
 90
        3
176
     1
 62
     5
420
      255
176
     1
290
     0
176
     1
 90
       50
176
     1
 90
       50
176
     1
 90
       50
176
     1
290
     0
176
     1
 90
       50
176
     1
 62
   256
176
     0
 40
1.0
176
     0
 90
        2
176
     1
  1
strokes_ogs.tif
176
     1
290
     0
176
     1
 40
1.0
176
     1
 40
1.0
176
     1
  0
VISUALSTYLE
  5
2A
102
{ACAD_REACTORS
330
29
102
}
330
29
100
AcDbVisualStyle
  2
Flat
 70
     0
177
     3
291
     1
 70
    58
 90
        2
176
     1
 90
        1
176
     1
 90
        1
176
     1
 90
        2
176
     1
 40
0.6
176
     1
 40
30.0
176
     1
 62
     7
420
 16777215
176
     1
 90
        0
176
     1
 90
        0
176
     1
 62
     7
176
     1
 62
   257
176
     1
 90
        1
176
     1
 90
        1
176
     1
 40
1.0
176
     1
 90
        8
176
     1
 62
     7
176
     1
 40
1.0
176
     1
 90
        1
176
     1
 90
        6
176
     1
 90
        2
176
     1
 62
     7
176
     1
 90
        5
176
     1
 90
        0
176
     1
 90
        0
176
     1
290
     0
176
     1
 90
       13
176
     1
 40
0.0
176
     1
 90
        0
176
     1
290
     0
176
     1
290
     1
176
     1
290
     1
176
     1
290
     0
176
     1
290
     0
176
     1
290
     0
176
     1
290
     0
176
     1
290
     0
176
     1
290
     0
176
     1
 90
       50
176
     1
 40
0.0
176
     1
 40
1.0
176
     1
 90
        0
176
     1
 62
    18
420
        0
176
     1
 90
       50
176
     1
 90
        3
176
     1
 62
     5
420
      255
176
     1
290
     0
176
     1
 90
       50
176
     1
 90
       50
176
     1
 90
       50
176
     1
290
     0
176
     1
 90
       50
176
     1
 62
   256
176
     0
 40
1.0
176
     0
 90
        2
176
     1
  1
strokes_ogs.tif
176
     1
290
     0
176
     1
 40
1.0
176
     1
 40
1.0
176
     1
  0
VISUALSTYLE
  5
2B
102
{ACAD_REACTORS
330
29
102
}
330
29
100
AcDbVisualStyle
  2
FlatWithEdges
 70
     1
177
     3
291
     1
 70
    58
 90
        2
176
     1
 90
        1
176
     1
 90
        1
176
     1
 90
        2
176
     1
 40
0.6
176
     1
 40
30.0
176
     1
 62
     7
420
 16777215
176
     1
 90
        1
176
     1
 90
        0
176
     1
 62
     7
176
     1
 62
   257
176
     1
 90
        1
176
     1
 90
        1
176
     1
 40
1.0
176
     1
 90
        0
176
     1
 62
   257
176
     1
 40
1.0
176
     1
 90
        1
176
     1
 90
        6
176
     1
 90
        2
176
     1
 62
     7
176
     1
 90
        5
176
     1
 90
        0
176
     1
 90
        0
176
     1
290
     0
176
     1
 90
       13
176
     1
 40
0.0
176
     1
 90
        0
176
     1
290
     0
176
     1
290
     1
176
     1
290
     1
176
     1
290
     0
176
     1
290
     0
176
     1
290
     0
176
     1
290
     0
176
     1
290
     0
176
     1
290
     0
176
     1
 90
       50
176
     1
 40
0.0
176
     1
 40
1.0
176
     1
 90
        0
176
     1
 62
    18
420
        0
176
     1
 90
       50
176
     1
 90
        3
176
     1
 62
     5
420
      255
176
     1
290
     0
176
     1
 90
       50
176
     1
 90
       50
176
     1
 90
       50
176
     1
290
     0
176
     1
 90
       50
176
     1
 62
   256
176
     0
 40
1.0
176
     0
 90
        2
176
     1
  1
strokes_ogs.tif
176
     1
290
     0
176
     1
 40
1.0
176
     1
 40
1.0
176
     1
  0
VISUALSTYLE
  5
2C
102
{ACAD_REACTORS
330
29
102
}
330
29
100
AcDbVisualStyle
  2
Gouraud
 70
     2
177
     3
291
     1
 70
    58
 90
        2
176
     1
 90
        2
176
     1
 90
        1
176
     1
 90
        2
176
     1
 40
0.6
176
     1
 40
30.0
176
     1
 62
     7
420
 16777215
176
     1
 90
        0
176
     1
 90
        0
176
     1
 62
     7
176
     1
 62
   257
176
     1
 90
        1
176
     1
 90
        1
176
     1
 40
1.0
176
     1
 90
        0
176
     1
 62
     7
176
     1
 40
1.0
176
     1
 90
        1
176
     1
 90
        6
176
     1
 90
        2
176
     1
 62
     7
176
     1
 90
        5
176
     1
 90
        0
176
     1
 90
        0
176
     1
290
     0
176
     1
 90
       13
176
     1
 40
0.0
176
     1
 90
        0
176
     1
290
     0
176
     1
290
     1
176
     1
290
     1
176
     1
290
     0
176
     1
290
     0
176
     1
290
     0
176
     1
290
     0
176
     1
290
     0
176
     1
290
     0
176
     1
 90
       50
176
     1
 40
0.0
176
     1
 40
1.0
176
     1
 90
        0
176
     1
 62
    18
420
        0
176
     1
 90
       50
176
     1
 90
        3
176
     1
 62
     5
420
      255
176
     1
290
     0
176
     1
 90
       50
176
     1
 90
       50
176
     1
 90
       50
176
     1
290
     0
176
     1
 90
       50
176
     1
 62
   256
176
     0
 40
1.0
176
     0
 90
        2
176
     1
  1
strokes_ogs.tif
176
     1
290
     0
176
     1
 40
1.0
176
     1
 40
1.0
176
     1
  0
VISUALSTYLE
  5
2D
102
{ACAD_REACTORS
330
29
102
}
330
29
100
AcDbVisualStyle
  2
GouraudWithEdges
 70
     3
177
     3
291
     1
 70
    58
 90
        2
176
     1
 90
        2
176
     1
 90
        1
176
     1
 90
        2
176
     1
 40
0.6
176
     1
 40
30.0
176
     1
 62
     7
420
 16777215
176
     1
 90
        1
176
     1
 90
        0
176
     1
 62
     7
176
     1
 62
   257
176
     1
 90
        1
176
     1
 90
        1
176
     1
 40
1.0
176
     1
 90
        0
176
     1
 62
   257
176
     1
 40
1.0
176
     1
 90
        1
176
     1
 90
        6
176
     1
 90
        2
176
     1
 62
     7
176
     1
 90
        5
176
     1
 90
        0
176
     1
 90
        0
176
     1
290
     0
176
     1
 90
       13
176
     1
 40
0.0
176
     1
 90
        0
176
     1
290
     0
176
     1
290
     1
176
     1
290
     1
176
     1
290
     0
176
     1
290
     0
176
     1
290
     0
176
     1
290
     0
176
     1
290
     0
176
     1
290
     0
176
     1
 90
       50
176
     1
 40
0.0
176
     1
 40
1.0
176
     1
 90
        0
176
     1
 62
    18
420
        0
176
     1
 90
       50
176
     1
 90
        3
176
     1
 62
     5
420
      255
176
     1
290
     0
176
     1
 90
       50
176
     1
 90
       50
176
     1
 90
       50
176
     1
290
     0
176
     1
 90
       50
176
     1
 62
   256
176
     0
 40
1.0
176
     0
 90
        2
176
     1
  1
strokes_ogs.tif
176
     1
290
     0
176
     1
 40
1.0
176
     1
 40
1.0
176
     1
  0
VISUALSTYLE
  5
31
102
{ACAD_REACTORS
330
29
102
}
330
29
100
AcDbVisualStyle
  2
Hidden
 70
     6
177
     3
291
     0
 70
    58
 90
        1
176
     1
 90
        2
176
     1
 90
        2
176
     1
 90
        0
176
     1
 40
0.6
176
     1
 40
30.0
176
     1
 62
     7
420
 16777215
176
     1
 90
        2
176
     1
 90
        2
176
     1
 62
     7
176
     1
 62
   257
176
     1
 90
        2
176
     1
 90
        1
176
     1
 40
40.0
176
     1
 90
        0
176
     1
 62
   257
176
     1
 40
1.0
176
     1
 90
        1
176
     1
 90
        6
176
     1
 90
        2
176
     1
 62
     7
176
     1
 90
        3
176
     1
 90
        0
176
     1
 90
        0
176
     1
290
     0
176
     1
 90
        1
176
     1
 40
0.0
176
     1
 90
        0
176
     1
290
     0
176
     1
290
     1
176
     1
290
     1
176
     1
290
     0
176
     1
290
     0
176
     1
290
     0
176
     1
290
     0
176
     1
290
     0
176
     1
290
     0
176
     1
 90
       50
176
     1
 40
0.0
176
     1
 40
1.0
176
     1
 90
        0
176
     1
 62
    18
420
        0
176
     1
 90
       50
176
     1
 90
        3
176
     1
 62
     5
420
      255
176
     1
290
     0
176
     1
 90
       50
176
     1
 90
       50
176
     1
 90
       50
176
     1
290
     0
176
     1
 90
       50
176
     1
 62
   256
176
     0
 40
1.0
176
     0
 90
        2
176
     1
  1
strokes_ogs.tif
176
     1
290
     0
176
     1
 40
1.0
176
     1
 40
1.0
176
     1
  0
VISUALSTYLE
  5
3F
102
{ACAD_REACTORS
330
29
102
}
330
29
100
AcDbVisualStyle
  2
JitterOff
 70
    20
177
     3
291
     1
 70
    58
 90
        2
176
     0
 90
        2
176
     0
 90
        0
176
     0
 90
        0
176
     0
 40
0.6
176
     0
 40
30.0
176
     0
 62
     7
420
 16777215
176
     0
 90
        1
176
     0
 90
        4
176
     0
 62
     7
176
     0
 62
   257
176
     0
 90
        1
176
     0
 90
        1
176
     0
 40
1.0
176
     0
 90
       10
176
     2
 62
     7
176
     0
 40
1.0
176
     0
 90
        1
176
     0
 90
        6
176
     0
 90
        2
176
     0
 62
     7
176
     0
 90
        5
176
     0
 90
        0
176
     0
 90
        0
176
     0
290
     0
176
     0
 90
        1
176
     0
 40
0.0
176
     0
 90
        0
176
     0
290
     0
176
     0
290
     1
176
     0
290
     1
176
     0
290
     0
176
     0
290
     0
176
     0
290
     0
176
     0
290
     0
176
     0
290
     0
176
     0
290
     0
176
     0
 90
       50
176
     0
 40
0.0
176
     0
 40
1.0
176
     0
 90
        0
176
     0
 62
    18
420
        0
176
     0
 90
       50
176
     0
 90
        3
176
     0
 62
     5
420
      255
176
     0
290
     0
176
     0
 90
       50
176
     0
 90
       50
176
     0
 90
       50
176
     0
290
     0
176
     0
 90
       50
176
     0
 62
   256
176
     0
 40
1.0
176
     0
 90
        2
176
     0
  1
strokes_ogs.tif
176
     0
290
     0
176
     0
 40
1.0
176
     0
 40
1.0
176
     0
  0
VISUALSTYLE
  5
37
102
{ACAD_REACTORS
330
29
102
}
330
29
100
AcDbVisualStyle
  2
Linepattern
 70
    14
177
     3
291
     1
 70
    58
 90
        2
176
     1
 90
        2
176
     1
 90
        0
176
     1
 90
        0
176
     1
 40
0.6
176
     1
 40
30.0
176
     1
 62
     7
420
 16777215
176
     1
 90
        1
176
     1
 90
        4
176
     1
 62
     7
176
     1
 62
   257
176
     1
 90
        7
176
     1
 90
        7
176
     1
 40
1.0
176
     1
 90
        8
176
     1
 62
     7
176
     1
 40
1.0
176
     1
 90
        1
176
     1
 90
        6
176
     1
 90
        2
176
     1
 62
     7
176
     1
 90
        5
176
     1
 90
        0
176
     1
 90
        0
176
     1
290
     0
176
     1
 90
        1
176
     1
 40
0.0
176
     1
 90
        0
176
     1
290
     0
176
     1
290
     1
176
     1
290
     1
176
     1
290
     0
176
     1
290
     0
176
     1
290
     0
176
     1
290
     0
176
     1
290
     0
176
     1
290
     0
176
     1
 90
       50
176
     1
 40
0.0
176
     1
 40
1.0
176
     1
 90
        0
176
     1
 62
    18
420
        0
176
     1
 90
       50
176
     1
 90
        3
176
     1
 62
     5
420
      255
176
     1
290
     0
176
     1
 90
       50
176
     1
 90
       50
176
     1
 90
       50
176
     1
290
     0
176
     1
 90
       50
176
     1
 62
   256
176
     0
 40
1.0
176
     0
 90
        2
176
     1
  1
strokes_ogs.tif
176
     1
290
     0
176
     1
 40
1.0
176
     1
 40
1.0
176
     1
  0
VISUALSTYLE
  5
40
102
{ACAD_REACTORS
330
29
102
}
330
29
100
AcDbVisualStyle
  2
OverhangOff
 70
    21
177
     3
291
     1
 70
    58
 90
        2
176
     0
 90
        2
176
     0
 90
        0
176
     0
 90
        0
176
     0
 40
0.6
176
     0
 40
30.0
176
     0
 62
     7
420
 16777215
176
     0
 90
        1
176
     0
 90
        4
176
     0
 62
     7
176
     0
 62
   257
176
     0
 90
        1
176
     0
 90
        1
176
     0
 40
1.0
176
     0
 90
        9
176
     2
 62
     7
176
     0
 40
1.0
176
     0
 90
        1
176
     0
 90
        6
176
     0
 90
        2
176
     0
 62
     7
176
     0
 90
        5
176
     0
 90
        0
176
     0
 90
        0
176
     0
290
     0
176
     0
 90
        1
176
     0
 40
0.0
176
     0
 90
        0
176
     0
290
     0
176
     0
290
     1
176
     0
290
     1
176
     0
290
     0
176
     0
290
     0
176
     0
290
     0
176
     0
290
     0
176
     0
290
     0
176
     0
290
     0
176
     0
 90
       50
176
     0
 40
0.0
176
     0
 40
1.0
176
     0
 90
        0
176
     0
 62
    18
420
        0
176
     0
 90
       50
176
     0
 90
        3
176
     0
 62
     5
420
      255
176
     0
290
     0
176
     0
 90
       50
176
     0
 90
       50
176
     0
 90
       50
176
     0
290
     0
176
     0
 90
       50
176
     0
 62
   256
176
     0
 40
1.0
176
     0
 90
        2
176
     0
  1
strokes_ogs.tif
176
     0
290
     0
176
     0
 40
1.0
176
     0
 40
1.0
176
     0
  0
VISUALSTYLE
  5
33
102
{ACAD_REACTORS
330
29
102
}
330
29
100
AcDbVisualStyle
  2
Realistic
 70
     8
177
     3
291
     0
 70
    58
 90
        2
176
     1
 90
        3
176
     1
 90
        0
176
     1
 90
        2
176
     1
 40
0.6
176
     1
 40
30.0
176
     1
 62
     7
420
 16777215
176
     1
 90
        0
176
     1
 90
        0
176
     1
 62
     7
176
     1
 62
   257
176
     1
 90
        1
176
     1
 90
        1
176
     1
 40
1.0
176
     1
 90
        8
176
     1
 62
   257
176
     1
 40
1.0
176
     1
 90
        1
176
     1
 90
        6
176
     1
 90
        2
176
     1
 62
     7
176
     1
 90
        3
176
     1
 90
        0
176
     1
 90
        0
176
     1
290
     0
176
     1
 90
       13
176
     1
 40
0.0
176
     1
 90
        0
176
     1
290
     0
176
     1
290
     1
176
     1
290
     1
176
     1
290
     0
176
     1
290
     0
176
     1
290
     0
176
     1
290
     0
176
     1
290
     0
176
     1
290
     0
176
     1
 90
       50
176
     1
 40
0.0
176
     1
 40
1.0
176
     1
 90
        0
176
     1
 62
    18
420
        0
176
     1
 90
       50
176
     1
 90
        3
176
     1
 62
     5
420
      255
176
     1
290
     0
176
     1
 90
       50
176
     1
 90
       50
176
     1
 90
       50
176
     1
290
     0
176
     1
 90
       50
176
     1
 62
   256
176
     0
 40
1.0
176
     0
 90
        2
176
     1
  1
strokes_ogs.tif
176
     1
290
     0
176
     1
 40
1.0
176
     1
 40
1.0
176
     1
  0
VISUALSTYLE
  5
3E
102
{ACAD_REACTORS
330
29
102
}
330
29
100
AcDbVisualStyle
  2
Shaded
 70
    27
177
     3
291
     0
 70
    58
 90
        2
176
     1
 90
        2
176
     1
 90
        1
176
     1
 90
        2
176
     1
 40
0.6
176
     1
 40
30.0
176
     1
 62
     7
420
 16777215
176
     1
 90
        0
176
     1
 90
        4
176
     1
 62
     7
176
     1
 62
   257
176
     1
 90
        1
176
     1
 90
        1
176
     1
 40
1.0
176
     1
 90
        8
176
     1
 62
   257
176
     1
 40
1.0
176
     1
 90
        1
176
     1
 90
        6
176
     1
 90
        2
176
     1
 62
     8
420
  7895160
176
     1
 90
        3
176
     1
 90
        0
176
     1
 90
        0
176
     1
290
     0
176
     1
 90
        5
176
     1
 40
0.0
176
     1
 90
        0
176
     1
290
     0
176
     1
290
     1
176
     1
290
     1
176
     1
290
     0
176
     1
290
     0
176
     1
290
     0
176
     1
290
     0
176
     1
290
     0
176
     1
290
     0
176
     1
 90
       50
176
     1
 40
0.0
176
     1
 40
1.0
176
     1
 90
        0
176
     1
 62
    18
420
        0
176
     1
 90
       50
176
     1
 90
        3
176
     1
 62
     5
420
      255
176
     1
290
     0
176
     1
 90
       50
176
     1
 90
       50
176
     1
 90
       50
176
     1
290
     0
176
     1
 90
       50
176
     1
 62
   256
176
     0
 40
1.0
176
     0
 90
        2
176
     1
  1
strokes_ogs.tif
176
     1
290
     0
176
     1
 40
1.0
176
     1
 40
1.0
176
     1
  0
VISUALSTYLE
  5
3D
102
{ACAD_REACTORS
330
29
102
}
330
29
100
AcDbVisualStyle
  2
Shaded with edges
 70
    26
177
     3
291
     0
 70
    58
 90
        2
176
     1
 90
        2
176
     1
 90
        1
176
     1
 90
        2
176
     1
 40
0.6
176
     1
 40
30.0
176
     1
 62
     7
420
 16777215
176
     1
 90
        1
176
     1
 90
        2
176
     1
 62
     7
176
     1
 62
   257
176
     1
 90
        2
176
     1
 90
        1
176
     1
 40
1.0
176
     1
 90
        8
176
     1
 62
   257
176
     1
 40
1.0
176
     1
 90
        1
176
     1
 90
        6
176
     1
 90
        2
176
     1
 62
     7
176
     1
 90
        3
176
     1
 90
        0
176
     1
 90
        0
176
     1
290
     0
176
     1
 90
        5
176
     1
 40
0.0
176
     1
 90
        0
176
     1
290
     0
176
     1
290
     1
176
     1
290
     1
176
     1
290
     0
176
     1
290
     0
176
     1
290
     0
176
     1
290
     0
176
     1
290
     0
176
     1
290
     0
176
     1
 90
       50
176
     1
 40
0.0
176
     1
 40
1.0
176
     1
 90
        0
176
     1
 62
    18
420
        0
176
     1
 90
       50
176
     1
 90
        3
176
     1
 62
     5
420
      255
176
     1
290
     0
176
     1
 90
       50
176
     1
 90
       50
176
     1
 90
       50
176
     1
290
     0
176
     1
 90
       50
176
     1
 62
   256
176
     0
 40
1.0
176
     0
 90
        2
176
     1
  1
strokes_ogs.tif
176
     1
290
     0
176
     1
 40
1.0
176
     1
 40
1.0
176
     1
  0
VISUALSTYLE
  5
3A
102
{ACAD_REACTORS
330
29
102
}
330
29
100
AcDbVisualStyle
  2
Shades of Gray
 70
    23
177
     3
291
     0
 70
    58
 90
        2
176
     1
 90
        2
176
     1
 90
        3
176
     1
 90
        0
176
     1
 40
0.6
176
     1
 40
30.0
176
     1
 62
     7
420
 16777215
176
     1
 90
        2
176
     1
 90
        2
176
     1
 62
     7
176
     1
 62
     7
176
     1
 90
        1
176
     1
 90
        1
176
     1
 40
40.0
176
     1
 90
        8
176
     1
 62
     7
176
     1
 40
1.0
176
     1
 90
        1
176
     1
 90
        6
176
     1
 90
        2
176
     1
 62
     7
176
     1
 90
        3
176
     1
 90
        0
176
     1
 90
        0
176
     1
290
     0
176
     1
 90
        1
176
     1
 40
0.0
176
     1
 90
        0
176
     1
290
     0
176
     1
290
     1
176
     1
290
     1
176
     1
290
     0
176
     1
290
     0
176
     1
290
     0
176
     1
290
     0
176
     1
290
     0
176
     1
290
     0
176
     1
 90
       50
176
     1
 40
0.0
176
     1
 40
1.0
176
     1
 90
        0
176
     1
 62
    18
420
        0
176
     1
 90
       50
176
     1
 90
        3
176
     1
 62
     5
420
      255
176
     1
290
     0
176
     1
 90
       50
176
     1
 90
       50
176
     1
 90
       50
176
     1
290
     0
176
     1
 90
       50
176
     1
 62
   256
176
     0
 40
1.0
176
     0
 90
        2
176
     1
  1
strokes_ogs.tif
176
     1
290
     0
176
     1
 40
1.0
176
     1
 40
1.0
176
     1
  0
VISUALSTYLE
  5
3B
102
{ACAD_REACTORS
330
29
102
}
330
29
100
AcDbVisualStyle
  2
Sketchy
 70
    24
177
     3
291
     0
 70
    58
 90
        1
176
     1
 90
        2
176
     1
 90
        2
176
     1
 90
        0
176
     1
 40
0.6
176
     1
 40
30.0
176
     1
 62
     7
420
 16777215
176
     1
 90
        2
176
     1
 90
        2
176
     1
 62
     7
176
     1
 62
     7
176
     1
 90
        1
176
     1
 90
        1
176
     1
 40
40.0
176
     1
 90
       11
176
     1
 62
     7
176
     1
 40
1.0
176
     1
 90
        1
176
     1
 90
        6
176
     1
 90
        2
176
     1
 62
     7
176
     1
 90
        6
176
     1
 90
        0
176
     1
 90
        0
176
     1
290
     0
176
     1
 90
        1
176
     1
 40
0.0
176
     1
 90
        0
176
     1
290
     0
176
     1
290
     1
176
     1
290
     1
176
     1
290
     0
176
     1
290
     0
176
     1
290
     0
176
     1
290
     0
176
     1
290
     0
176
     1
290
     0
176
     1
 90
       50
176
     1
 40
0.0
176
     1
 40
1.0
176
     1
 90
        0
176
     1
 62
    18
420
        0
176
     1
 90
       50
176
     1
 90
        3
176
     1
 62
     5
420
      255
176
     1
290
     0
176
     1
 90
       50
176
     1
 90
       50
176
     1
 90
       50
176
     1
290
     0
176
     1
 90
       50
176
     1
 62
   256
176
     0
 40
1.0
176
     0
 90
        2
176
     1
  1
strokes_ogs.tif
176
     1
290
     0
176
     1
 40
1.0
176
     1
 40
1.0
176
     1
  0
VISUALSTYLE
  5
36
102
{ACAD_REACTORS
330
29
102
}
330
29
100
AcDbVisualStyle
  2
Thicken
 70
    13
177
     3
291
     1
 70
    58
 90
        2
176
     1
 90
        2
176
     1
 90
        0
176
     1
 90
        0
176
     1
 40
0.6
176
     1
 40
30.0
176
     1
 62
     7
420
 16777215
176
     1
 90
        1
176
     1
 90
        4
176
     1
 62
     7
176
     1
 62
   257
176
     1
 90
        1
176
     1
 90
        1
176
     1
 40
1.0
176
     1
 90
       12
176
     1
 62
     7
176
     1
 40
1.0
176
     1
 90
        1
176
     1
 90
        6
176
     1
 90
        2
176
     1
 62
     7
176
     1
 90
        5
176
     1
 90
        0
176
     1
 90
        0
176
     1
290
     0
176
     1
 90
        1
176
     1
 40
0.0
176
     1
 90
        0
176
     1
290
     0
176
     1
290
     1
176
     1
290
     1
176
     1
290
     0
176
     1
290
     0
176
     1
290
     0
176
     1
290
     0
176
     1
290
     0
176
     1
290
     0
176
     1
 90
       50
176
     1
 40
0.0
176
     1
 40
1.0
176
     1
 90
        0
176
     1
 62
    18
420
        0
176
     1
 90
       50
176
     1
 90
        3
176
     1
 62
     5
420
      255
176
     1
290
     0
176
     1
 90
       50
176
     1
 90
       50
176
     1
 90
       50
176
     1
290
     0
176
     1
 90
       50
176
     1
 62
   256
176
     0
 40
1.0
176
     0
 90
        2
176
     1
  1
strokes_ogs.tif
176
     1
290
     0
176
     1
 40
1.0
176
     1
 40
1.0
176
     1
  0
VISUALSTYLE
  5
30
102
{ACAD_REACTORS
330
29
102
}
330
29
100
AcDbVisualStyle
  2
Wireframe
 70
     5
177
     3
291
     0
 70
    58
 90
        0
176
     1
 90
        2
176
     1
 90
        0
176
     1
 90
        0
176
     1
 40
0.6
176
     1
 40
30.0
176
     1
 62
     7
420
 16777215
176
     1
 90
        1
176
     1
 90
        4
176
     1
 62
     7
176
     1
 62
   257
176
     1
 90
        1
176
     1
 90
        1
176
     1
 40
1.0
176
     1
 90
        0
176
     1
 62
   257
176
     1
 40
1.0
176
     1
 90
        1
176
     1
 90
        6
176
     1
 90
        2
176
     1
 62
     7
176
     1
 90
        3
176
     1
 90
        0
176
     1
 90
        0
176
     1
290
     0
176
     1
 90
        1
176
     1
 40
0.0
176
     1
 90
        0
176
     1
290
     0
176
     1
290
     1
176
     1
290
     1
176
     1
290
     0
176
     1
290
     0
176
     1
290
     0
176
     1
290
     0
176
     1
290
     0
176
     1
290
     0
176
     1
 90
       50
176
     1
 40
0.0
176
     1
 40
1.0
176
     1
 90
        0
176
     1
 62
    18
420
        0
176
     1
 90
       50
176
     1
 90
        3
176
     1
 62
     5
420
      255
176
     1
290
     0
176
     1
 90
       50
176
     1
 90
       50
176
     1
 90
       50
176
     1
290
     0
176
     1
 90
       50
176
     1
 62
   256
176
     0
 40
1.0
176
     0
 90
        2
176
     1
  1
strokes_ogs.tif
176
     1
290
     0
176
     1
 40
1.0
176
     1
 40
1.0
176
     1
  0
VISUALSTYLE
  5
3C
102
{ACAD_REACTORS
330
29
102
}
330
29
100
AcDbVisualStyle
  2
X-Ray
 70
    25
177
     3
291
     0
 70
    58
 90
        2
176
     1
 90
        2
176
     1
 90
        1
176
     1
 90
        1
176
     1
 40
0.5
176
     1
 40
30.0
176
     1
 62
     7
420
 16777215
176
     1
 90
        1
176
     1
 90
        0
176
     1
 62
     7
176
     1
 62
   257
176
     1
 90
        1
176
     1
 90
        1
176
     1
 40
1.0
176
     1
 90
        8
176
     1
 62
     7
176
     1
 40
1.0
176
     1
 90
        1
176
     1
 90
        6
176
     1
 90
        2
176
     1
 62
     7
176
     1
 90
        3
176
     1
 90
        0
176
     1
 90
        0
176
     1
290
     0
176
     1
 90
       13
176
     1
 40
0.0
176
     1
 90
        0
176
     1
290
     0
176
     1
290
     1
176
     1
290
     1
176
     1
290
     0
176
     1
290
     0
176
     1
290
     0
176
     1
290
     0
176
     1
290
     0
176
     1
290
     0
176
     1
 90
       50
176
     1
 40
0.0
176
     1
 40
1.0
176
     1
 90
        0
176
     1
 62
    18
420
        0
176
     1
 90
       50
176
     1
 90
        3
176
     1
 62
     5
420
      255
176
     1
290
     0
176
     1
 90
       50
176
     1
 90
       50
176
     1
 90
       50
176
     1
290
     0
176
     1
 90
       50
176
     1
 62
   256
176
     0
 40
1.0
176
     0
 90
        2
176
     1
  1
strokes_ogs.tif
176
     1
290
     0
176
     1
 40
1.0
176
     1
 40
1.0
176
     1
  0
DICTIONARYVAR
  5
9B
102
{ACAD_REACTORS
330
96
102
}
330
96
100
DictionaryVariables
280
     0
  1
1:1
  0
DICTIONARYVAR
  5
98
102
{ACAD_REACTORS
330
96
102
}
330
96
100
DictionaryVariables
280
     0
  1
STANDARD
  0
DICTIONARYVAR
  5
97
102
{ACAD_REACTORS
330
96
102
}
330
96
100
DictionaryVariables
280
     0
  1
STANDARD
  0
DICTIONARYVAR
  5
99
102
{ACAD_REACTORS
330
96
102
}
330
96
100
DictionaryVariables
280
     0
  1
Imperial24
  0
DICTIONARYVAR
  5
9A
102
{ACAD_REACTORS
330
96
102
}
330
96
100
DictionaryVariables
280
     0
  1
Imperial24
  0
DICTIONARY
  5
1A
330
19
100
AcDbDictionary
280
     1
281
     1
  3
BUMPTILE
360
1C
  3
DIFFUSETILE
360
1B
  3
OPACITYTILE
360
1F
  3
REFLECTIONTILE
360
1E
  3
REFRACTIONTILE
360
20
  3
SPECULARTILE
360
1D
  0
DICTIONARY
  5
12
330
11
100
AcDbDictionary
280
     1
281
     1
  3
BUMPTILE
360
14
  3
DIFFUSETILE
360
13
  3
OPACITYTILE
360
17
  3
REFLECTIONTILE
360
16
  3
REFRACTIONTILE
360
18
  3
SPECULARTILE
360
15
  0
DICTIONARY
  5
22
330
21
100
AcDbDictionary
280
     1
281
     1
  3
BUMPTILE
360
24
  3
DIFFUSETILE
360
23
  3
OPACITYTILE
360
27
  3
REFLECTIONTILE
360
26
  3
REFRACTIONTILE
360
28
  3
SPECULARTILE
360
25
  0
DICTIONARY
  5
9C
330
65
100
AcDbDictionary
280
     1
281
     1
  3
ACAD_ROUNDTRIP_2008_TABLESTYLE_CELLSTYLEMAP
360
9D
  0
XRECORD
  5
1C
102
{ACAD_REACTORS
330
1A
102
}
330
1A
100
AcDbXrecord
280
     1
270
     1
271
     1
  0
XRECORD
  5
1B
102
{ACAD_REACTORS
330
1A
102
}
330
1A
100
AcDbXrecord
280
     1
270
     1
271
     1
  0
XRECORD
  5
1F
102
{ACAD_REACTORS
330
1A
102
}
330
1A
100
AcDbXrecord
280
     1
270
     1
271
     1
  0
XRECORD
  5
1E
102
{ACAD_REACTORS
330
1A
102
}
330
1A
100
AcDbXrecord
280
     1
270
     1
271
     1
  0
XRECORD
  5
20
102
{ACAD_REACTORS
330
1A
102
}
330
1A
100
AcDbXrecord
280
     1
270
     1
271
     1
  0
XRECORD
  5
1D
102
{ACAD_REACTORS
330
1A
102
}
330
1A
100
AcDbXrecord
280
     1
270
     1
271
     1
  0
XRECORD
  5
14
102
{ACAD_REACTORS
330
12
102
}
330
12
100
AcDbXrecord
280
     1
270
     1
271
     1
  0
XRECORD
  5
13
102
{ACAD_REACTORS
330
12
102
}
330
12
100
AcDbXrecord
280
     1
270
     1
271
     1
  0
XRECORD
  5
17
102
{ACAD_REACTORS
330
12
102
}
330
12
100
AcDbXrecord
280
     1
270
     1
271
     1
  0
XRECORD
  5
16
102
{ACAD_REACTORS
330
12
102
}
330
12
100
AcDbXrecord
280
     1
270
     1
271
     1
  0
XRECORD
  5
18
102
{ACAD_REACTORS
330
12
102
}
330
12
100
AcDbXrecord
280
     1
270
     1
271
     1
  0
XRECORD
  5
15
102
{ACAD_REACTORS
330
12
102
}
330
12
100
AcDbXrecord
280
     1
270
     1
271
     1
  0
XRECORD
  5
24
102
{ACAD_REACTORS
330
22
102
}
330
22
100
AcDbXrecord
280
     1
270
     1
271
     1
  0
XRECORD
  5
23
102
{ACAD_REACTORS
330
22
102
}
330
22
100
AcDbXrecord
280
     1
270
     1
271
     1
  0
XRECORD
  5
27
102
{ACAD_REACTORS
330
22
102
}
330
22
100
AcDbXrecord
280
     1
270
     1
271
     1
  0
XRECORD
  5
26
102
{ACAD_REACTORS
330
22
102
}
330
22
100
AcDbXrecord
280
     1
270
     1
271
     1
  0
XRECORD
  5
28
102
{ACAD_REACTORS
330
22
102
}
330
22
100
AcDbXrecord
280
     1
270
     1
271
     1
  0
XRECORD
  5
25
102
{ACAD_REACTORS
330
22
102
}
330
22
100
AcDbXrecord
280
     1
270
     1
271
     1
  0
CELLSTYLEMAP
  5
9D
102
{ACAD_REACTORS
330
9C
102
}
330
9C
100
AcDbCellStyleMap
 90
        3
300
CELLSTYLE
  1
TABLEFORMAT_BEGIN
 90
        5
170
     1
 91
        0
 92
    32768
 62
   257
 93
        1
300
CONTENTFORMAT
  1
CONTENTFORMAT_BEGIN
 90
        0
 91
        0
 92
      512
 93
        0
300

 40
0.0
140
1.0
 94
        5
 62
     0
340
55
144
0.25
309
CONTENTFORMAT_END
171
     0
 94
        0
309
TABLEFORMAT_END
  1
CELLSTYLE_BEGIN
 90
        1
 91
        1
300
_TITLE
309
CELLSTYLE_END
300
CELLSTYLE
  1
TABLEFORMAT_BEGIN
 90
        5
170
     1
 91
        0
 92
        0
 62
   257
 93
        1
300
CONTENTFORMAT
  1
CONTENTFORMAT_BEGIN
 90
        0
 91
        0
 92
      512
 93
        0
300

 40
0.0
140
1.0
 94
        5
 62
     0
340
55
144
0.18
309
CONTENTFORMAT_END
171
     0
 94
        0
309
TABLEFORMAT_END
  1
CELLSTYLE_BEGIN
 90
        2
 91
        1
300
_HEADER
309
CELLSTYLE_END
300
CELLSTYLE
  1
TABLEFORMAT_BEGIN
 90
        5
170
     1
 91
        0
 92
        0
 62
   257
 93
        1
300
CONTENTFORMAT
  1
CONTENTFORMAT_BEGIN
 90
        0
 91
        0
 92
      512
 93
        0
300

 40
0.0
140
1.0
 94
        2
 62
     0
340
55
144
0.18
309
CONTENTFORMAT_END
171
     0
 94
        0
309
TABLEFORMAT_END
  1
CELLSTYLE_BEGIN
 90
        3
 91
        2
300
_DATA
309
CELLSTYLE_END
  0
ENDSEC
  0
EOF
