  0
SECTION
  2
HEADER
  9
$ACADVER
  1
AC1032
  9
$ACADMAINTVER
 90
      251
  9
$DWGCODEPAGE
  3
ANSI_1252
  9
$REQUIREDVERSIONS
160
                 0
  9
$INSBASE
 10
0.0
 20
0.0
 30
0.0
  9
$EXTMIN
 10
1.000000000000000E+20
 20
1.000000000000000E+20
 30
1.000000000000000E+20
  9
$EXTMAX
 10
-1.000000000000000E+20
 20
-1.000000000000000E+20
 30
-1.000000000000000E+20
  9
$LIMMIN
 10
0.0
 20
0.0
  9
$LIMMAX
 10
12.0
 20
9.0
  9
$ORTHOMODE
 70
     0
  9
$REGENMODE
 70
     1
  9
$FILLMODE
 70
     1
  9
$QTEXTMODE
 70
     0
  9
$MIRRTEXT
 70
     0
  9
$LTSCALE
 40
1.0
  9
$ATTMODE
 70
     1
  9
$TEXTSIZE
 40
0.2
  9
$TRACEWID
 40
0.05
  9
$TEXTSTYLE
  7
Standard
  9
$CLAYER
  8
0
  9
$CELTYPE
  6
ByLayer
  9
$CECOLOR
 62
   256
  9
$CELTSCALE
 40
1.0
  9
$DISPSILH
 70
     0
  9
$DIMSCALE
 40
1.0
  9
$DIMASZ
 40
0.18
  9
$DIMEXO
 40
0.0625
  9
$DIMDLI
 40
0.38
  9
$DIMRND
 40
0.0
  9
$DIMDLE
 40
0.0
  9
$DIMEXE
 40
0.18
  9
$DIMTP
 40
0.0
  9
$DIMTM
 40
0.0
  9
$DIMTXT
 40
0.18
  9
$DIMCEN
 40
0.09
  9
$DIMTSZ
 40
0.0
  9
$DIMTOL
 70
     0
  9
$DIMLIM
 70
     0
  9
$DIMTIH
 70
     1
  9
$DIMTOH
 70
     1
  9
$DIMSE1
 70
     0
  9
$DIMSE2
 70
     0
  9
$DIMTAD
 70
     0
  9
$DIMZIN
 70
     0
  9
$DIMBLK
  1

  9
$DIMASO
 70
     1
  9
$DIMSHO
 70
     1
  9
$DIMPOST
  1

  9
$DIMAPOST
  1

  9
$DIMALT
 70
     0
  9
$DIMALTD
 70
     2
  9
$DIMALTF
 40
25.4
  9
$DIMLFAC
 40
1.0
  9
$DIMTOFL
 70
     0
  9
$DIMTVP
 40
0.0
  9
$DIMTIX
 70
     0
  9
$DIMSOXD
 70
     0
  9
$DIMSAH
 70
     0
  9
$DIMBLK1
  1

  9
$DIMBLK2
  1

  9
$DIMSTYLE
  2
Standard
  9
$DIMCLRD
 70
     0
  9
$DIMCLRE
 70
     0
  9
$DIMCLRT
 70
     0
  9
$DIMTFAC
 40
1.0
  9
$DIMGAP
 40
0.09
  9
$DIMJUST
 70
     0
  9
$DIMSD1
 70
     0
  9
$DIMSD2
 70
     0
  9
$DIMTOLJ
 70
     1
  9
$DIMTZIN
 70
     0
  9
$DIMALTZ
 70
     0
  9
$DIMALTTZ
 70
     0
  9
$DIMUPT
 70
     0
  9
$DIMDEC
 70
     4
  9
$DIMTDEC
 70
     4
  9
$DIMALTU
 70
     2
  9
$DIMALTTD
 70
     2
  9
$DIMTXSTY
  7
Standard
  9
$DIMAUNIT
 70
     0
  9
$DIMADEC
 70
     0
  9
$DIMALTRND
 40
0.0
  9
$DIMAZIN
 70
     0
  9
$DIMDSEP
 70
    46
  9
$DIMATFIT
 70
     3
  9
$DIMFRAC
 70
     0
  9
$DIMLDRBLK
  1

  9
$DIMLUNIT
 70
     2
  9
$DIMLWD
 70
    -2
  9
$DIMLWE
 70
    -2
  9
$DIMTMOVE
 70
     0
  9
$DIMFXL
 40
1.0
  9
$DIMFXLON
 70
     0
  9
$DIMJOGANG
 40
0.7853981633974483
  9
$DIMTFILL
 70
     0
  9
$DIMTFILLCLR
 70
     0
  9
$DIMARCSYM
 70
     0
  9
$DIMLTYPE
  6

  9
$DIMLTEX1
  6

  9
$DIMLTEX2
  6

  9
$DIMTXTDIRECTION
 70
     0
  9
$LUNITS
 70
     2
  9
$LUPREC
 70
     4
  9
$SKETCHINC
 40
0.1
  9
$FILLETRAD
 40
0.0
  9
$AUNITS
 70
     0
  9
$AUPREC
 70
     0
  9
$MENU
  1
.
  9
$ELEVATION
 40
0.0
  9
$PELEVATION
 40
0.0
  9
$THICKNESS
 40
0.0
  9
$LIMCHECK
 70
     0
  9
$CHAMFERA
 40
0.0
  9
$CHAMFERB
 40
0.0
  9
$CHAMFERC
 40
0.0
  9
$CHAMFERD
 40
0.0
  9
$SKPOLY
 70
     0
  9
$TDCREATE
 40
2460024.639363426
  9
$TDUCREATE
 40
2460024.597696759
  9
$TDUPDATE
 40
2460024.639363426
  9
$TDUUPDATE
 40
2460024.597696759
  9
$TDINDWG
 40
0.0000000000
  9
$TDUSRTIMER
 40
0.0000000000
  9
$USRTIMER
 70
     1
  9
$ANGBASE
 50
0.0
  9
$ANGDIR
 70
     0
  9
$PDMODE
 70
     0
  9
$PDSIZE
 40
0.0
  9
$PLINEWID
 40
0.0
  9
$SPLFRAME
 70
     0
  9
$SPLINETYPE
 70
     6
  9
$SPLINESEGS
 70
     8
  9
$HANDSEED
  5
AD
  9
$SURFTAB1
 70
     6
  9
$SURFTAB2
 70
     6
  9
$SURFTYPE
 70
     6
  9
$SURFU
 70
     6
  9
$SURFV
 70
     6
  9
$UCSBASE
  2

  9
$UCSNAME
  2

  9
$UCSORG
 10
0.0
 20
0.0
 30
0.0
  9
$UCSXDIR
 10
1.0
 20
0.0
 30
0.0
  9
$UCSYDIR
 10
0.0
 20
1.0
 30
0.0
  9
$UCSORTHOREF
  2

  9
$UCSORTHOVIEW
 70
     0
  9
$UCSORGTOP
 10
0.0
 20
0.0
 30
0.0
  9
$UCSORGBOTTOM
 10
0.0
 20
0.0
 30
0.0
  9
$UCSORGLEFT
 10
0.0
 20
0.0
 30
0.0
  9
$UCSORGRIGHT
 10
0.0
 20
0.0
 30
0.0
  9
$UCSORGFRONT
 10
0.0
 20
0.0
 30
0.0
  9
$UCSORGBACK
 10
0.0
 20
0.0
 30
0.0
  9
$PUCSBASE
  2

  9
$PUCSNAME
  2

  9
$PUCSORG
 10
0.0
 20
0.0
 30
0.0
  9
$PUCSXDIR
 10
1.0
 20
0.0
 30
0.0
  9
$PUCSYDIR
 10
0.0
 20
1.0
 30
0.0
  9
$PUCSORTHOREF
  2

  9
$PUCSORTHOVIEW
 70
     0
  9
$PUCSORGTOP
 10
0.0
 20
0.0
 30
0.0
  9
$PUCSORGBOTTOM
 10
0.0
 20
0.0
 30
0.0
  9
$PUCSORGLEFT
 10
0.0
 20
0.0
 30
0.0
  9
$PUCSORGRIGHT
 10
0.0
 20
0.0
 30
0.0
  9
$PUCSORGFRONT
 10
0.0
 20
0.0
 30
0.0
  9
$PUCSORGBACK
 10
0.0
 20
0.0
 30
0.0
  9
$USERI1
 70
     0
  9
$USERI2
 70
     0
  9
$USERI3
 70
     0
  9
$USERI4
 70
     0
  9
$USERI5
 70
     0
  9
$USERR1
 40
0.0
  9
$USERR2
 40
0.0
  9
$USERR3
 40
0.0
  9
$USERR4
 40
0.0
  9
$USERR5
 40
0.0
  9
$WORLDVIEW
 70
     1
  9
$SHADEDGE
 70
     3
  9
$SHADEDIF
 70
    70
  9
$TILEMODE
 70
     1
  9
$MAXACTVP
 70
    64
  9
$PINSBASE
 10
0.0
 20
0.0
 30
0.0
  9
$PLIMCHECK
 70
     0
  9
$PEXTMIN
 10
1.000000000000000E+20
 20
1.000000000000000E+20
 30
1.000000000000000E+20
  9
$PEXTMAX
 10
-1.000000000000000E+20
 20
-1.000000000000000E+20
 30
-1.000000000000000E+20
  9
$PLIMMIN
 10
0.0
 20
0.0
  9
$PLIMMAX
 10
12.0
 20
9.0
  9
$UNITMODE
 70
     0
  9
$VISRETAIN
 70
     1
  9
$PLINEGEN
 70
     0
  9
$PSLTSCALE
 70
     1
  9
$TREEDEPTH
 70
  3020
  9
$CMLSTYLE
  2
Standard
  9
$CMLJUST
 70
     0
  9
$CMLSCALE
 40
1.0
  9
$PROXYGRAPHICS
 70
     1
  9
$MEASUREMENT
 70
     0
  9
$CELWEIGHT
370
    -1
  9
$ENDCAPS
280
     0
  9
$JOINSTYLE
280
     0
  9
$LWDISPLAY
290
     1
  9
$INSUNITS
 70
     4
  9
$HYPERLINKBASE
  1

  9
$STYLESHEET
  1

  9
$XEDIT
290
     1
  9
$CEPSNTYPE
380
     0
  9
$PSTYLEMODE
290
     1
  9
$FINGERPRINTGUID
  2
{BBBA6060-4DBB-8748-BDCD-9A9796C19440}
  9
$VERSIONGUID
  2
{6B49C3BB-7CCA-9E4D-B9FD-6F0ED91E3022}
  9
$EXTNAMES
290
     1
  9
$PSVPSCALE
 40
0.0
  9
$OLESTARTUP
290
     0
  9
$SORTENTS
280
   127
  9
$INDEXCTL
280
     0
  9
$HIDETEXT
280
     1
  9
$XCLIPFRAME
280
     2
  9
$HALOGAP
280
     0
  9
$OBSCOLOR
 70
   257
  9
$OBSLTYPE
280
     0
  9
$INTERSECTIONDISPLAY
280
     0
  9
$INTERSECTIONCOLOR
 70
   257
  9
$DIMASSOC
280
     2
  9
$PROJECTNAME
  1

  9
$CAMERADISPLAY
290
     0
  9
$LENSLENGTH
 40
50.0
  9
$CAMERAHEIGHT
 40
0.0
  9
$STEPSPERSEC
 40
2.0
  9
$STEPSIZE
 40
6.0
  9
$3DDWFPREC
 40
2.0
  9
$PSOLWIDTH
 40
0.25
  9
$PSOLHEIGHT
 40
4.0
  9
$LOFTANG1
 40
1.570796326794896
  9
$LOFTANG2
 40
1.570796326794896
  9
$LOFTMAG1
 40
0.0
  9
$LOFTMAG2
 40
0.0
  9
$LOFTPARAM
 70
     7
  9
$LOFTNORMALS
280
     1
  9
$LATITUDE
 40
37.795
  9
$LONGITUDE
 40
-122.394
  9
$NORTHDIRECTION
 40
0.0
  9
$TIMEZONE
 70
 -8000
  9
$LIGHTGLYPHDISPLAY
280
     1
  9
$TILEMODELIGHTSYNCH
280
     1
  9
$CMATERIAL
347
11
  9
$SOLIDHIST
280
     0
  9
$SHOWHIST
280
     1
  9
$DWFFRAME
280
     2
  9
$DGNFRAME
280
     0
  9
$REALWORLDSCALE
290
     1
  9
$INTERFERECOLOR
 62
     1
  9
$INTERFEREOBJVS
345
33
  9
$INTERFEREVPVS
346
30
  9
$CSHADOW
280
     0
  9
$SHADOWPLANELOCATION
 40
0.0
  0
ENDSEC
  0
SECTION
  2
CLASSES
  0
CLASS
  1
ACDBDICTIONARYWDFLT
  2
AcDbDictionaryWithDefault
  3
ObjectDBX Classes
 90
        0
 91
        1
280
     0
281
     0
  0
CLASS
  1
MATERIAL
  2
AcDbMaterial
  3
ObjectDBX Classes
 90
     1153
 91
        3
280
     0
281
     0
  0
CLASS
  1
VISUALSTYLE
  2
AcDbVisualStyle
  3
ObjectDBX Classes
 90
     4095
 91
       24
280
     0
281
     0
  0
CLASS
  1
SCALE
  2
AcDbScale
  3
ObjectDBX Classes
 90
     1153
 91
       17
280
     0
281
     0
  0
CLASS
  1
TABLESTYLE
  2
AcDbTableStyle
  3
ObjectDBX Classes
 90
     4095
 91
        1
280
     0
281
     0
  0
CLASS
  1
MLEADERSTYLE
  2
AcDbMLeaderStyle
  3
ACDB_MLEADERSTYLE_CLASS
 90
     4095
 91
        1
280
     0
281
     0
  0
CLASS
  1
ACDBSECTIONVIEWSTYLE
  2
AcDbSectionViewStyle
  3
ObjectDBX Classes
 90
     1025
 91
        1
280
     0
281
     0
  0
CLASS
  1
ACDBDETAILVIEWSTYLE
  2
AcDbDetailViewStyle
  3
ObjectDBX Classes
 90
     1025
 91
        1
280
     0
281
     0
  0
CLASS
  1
DICTIONARYVAR
  2
AcDbDictionaryVar
  3
ObjectDBX Classes
 90
        0
 91
        5
280
     0
281
     0
  0
CLASS
  1
CELLSTYLEMAP
  2
AcDbCellStyleMap
  3
ObjectDBX Classes
 90
     1152
 91
        1
280
     0
281
     0
  0
ENDSEC
  0
SECTION
  2
TABLES
  0
TABLE
  2
VPORT
  5
8
330
0
100
AcDbSymbolTable
 70
     1
  0
VPORT
  5
57
330
8
100
AcDbSymbolTableRecord
100
AcDbViewportTableRecord
  2
*Active
 70
     0
 10
0.0
 20
0.0
 11
1.0
 21
1.0
 12
0.0
 22
0.0
 13
0.0
 23
0.0
 14
1.0
 24
1.0
 15
0.0
 25
0.0
 16
0.0
 26
0.0
 36
1.0
 17
600.1763475651845
 27
-999.8195651465769
 37
0.0
 40
2040.449791156557
 41
0.6000881750030807
 42
50.0
 43
0.0
 44
0.0
 50
0.0
 51
0.0
 71
     0
 72
   100
 73
     1
 74
     1
 75
     0
 76
     0
 77
     0
 78
     0
281
     0
 65
     1
110
0.0
120
0.0
130
0.0
111
1.0
121
0.0
131
0.0
112
0.0
122
1.0
132
0.0
 79
     0
146
0.0
 60
     3
 61
     5
292
     1
282
     1
141
0.0
142
0.0
 63
   250
421
  3355443
  0
ENDTAB
  0
TABLE
  2
LTYPE
  5
5
330
0
100
AcDbSymbolTable
 70
     1
  0
LTYPE
  5
5B
330
5
100
AcDbSymbolTableRecord
100
AcDbLinetypeTableRecord
  2
ByBlock
 70
     0
  3

 72
    65
 73
     0
 40
0.0
  0
LTYPE
  5
5C
330
5
100
AcDbSymbolTableRecord
100
AcDbLinetypeTableRecord
  2
ByLayer
 70
     0
  3

 72
    65
 73
     0
 40
0.0
  0
LTYPE
  5
5D
330
5
100
AcDbSymbolTableRecord
100
AcDbLinetypeTableRecord
  2
Continuous
 70
     0
  3
Solid line
 72
    65
 73
     0
 40
0.0
  0
ENDTAB
  0
TABLE
  2
LAYER
  5
2
330
0
100
AcDbSymbolTable
 70
    22
  0
LAYER
  5
54
330
2
100
AcDbSymbolTableRecord
100
AcDbLayerTableRecord
  2
0
 70
     0
 62
     7
  6
Continuous
370
    -3
390
F
347
21
348
0
  0
LAYER
  5
78
330
2
100
AcDbSymbolTableRecord
100
AcDbLayerTableRecord
  2
Bounding Box
 70
     0
 62
     7
  6
Continuous
370
     0
390
F
347
21
348
0
  0
LAYER
  5
7A
330
2
100
AcDbSymbolTableRecord
100
AcDbLayerTableRecord
  2
Screws
 70
     0
 62
     7
  6
Continuous
370
     0
390
F
347
21
348
0
  0
LAYER
  5
83
330
2
100
AcDbSymbolTableRecord
100
AcDbLayerTableRecord
  2
2023-018
 70
     1
 62
     7
  6
Continuous
370
     0
390
F
347
21
348
0
  0
LAYER
  5
84
330
2
100
AcDbSymbolTableRecord
100
AcDbLayerTableRecord
  2
2023-017
 70
     1
 62
     7
  6
Continuous
370
     0
390
F
347
21
348
0
  0
LAYER
  5
85
330
2
100
AcDbSymbolTableRecord
100
AcDbLayerTableRecord
  2
2023-016
 70
     1
 62
     7
  6
Continuous
370
     0
390
F
347
21
348
0
  0
LAYER
  5
86
330
2
100
AcDbSymbolTableRecord
100
AcDbLayerTableRecord
  2
2023-015
 70
     1
 62
     7
  6
Continuous
370
     0
390
F
347
21
348
0
  0
LAYER
  5
87
330
2
100
AcDbSymbolTableRecord
100
AcDbLayerTableRecord
  2
2023-014
 70
     0
 62
     7
  6
Continuous
370
     0
390
F
347
21
348
0
  0
LAYER
  5
96
330
2
100
AcDbSymbolTableRecord
100
AcDbLayerTableRecord
  2
2023-013
 70
     1
 62
     7
  6
Continuous
370
     0
390
F
347
21
348
0
  0
LAYER
  5
97
330
2
100
AcDbSymbolTableRecord
100
AcDbLayerTableRecord
  2
2023-012
 70
     1
 62
     7
  6
Continuous
370
     0
390
F
347
21
348
0
  0
LAYER
  5
98
330
2
100
AcDbSymbolTableRecord
100
AcDbLayerTableRecord
  2
2023-011
 70
     1
 62
     7
  6
Continuous
370
     0
390
F
347
21
348
0
  0
LAYER
  5
99
330
2
100
AcDbSymbolTableRecord
100
AcDbLayerTableRecord
  2
2023-010
 70
     1
 62
     7
  6
Continuous
370
     0
390
F
347
21
348
0
  0
LAYER
  5
9A
330
2
100
AcDbSymbolTableRecord
100
AcDbLayerTableRecord
  2
2023-009
 70
     1
 62
     7
  6
Continuous
370
     0
390
F
347
21
348
0
  0
LAYER
  5
9B
330
2
100
AcDbSymbolTableRecord
100
AcDbLayerTableRecord
  2
2023-008
 70
     1
 62
     7
  6
Continuous
370
     0
390
F
347
21
348
0
  0
LAYER
  5
9C
330
2
100
AcDbSymbolTableRecord
100
AcDbLayerTableRecord
  2
2023-007
 70
     1
 62
     7
  6
Continuous
370
     0
390
F
347
21
348
0
  0
LAYER
  5
9D
330
2
100
AcDbSymbolTableRecord
100
AcDbLayerTableRecord
  2
2023-006
 70
     1
 62
     7
  6
Continuous
370
     0
390
F
347
21
348
0
  0
LAYER
  5
9E
330
2
100
AcDbSymbolTableRecord
100
AcDbLayerTableRecord
  2
2023-005
 70
     1
 62
     7
  6
Continuous
370
     0
390
F
347
21
348
0
  0
LAYER
  5
9F
330
2
100
AcDbSymbolTableRecord
100
AcDbLayerTableRecord
  2
2023-004
 70
     1
 62
     7
  6
Continuous
370
     0
390
F
347
21
348
0
  0
LAYER
  5
A0
330
2
100
AcDbSymbolTableRecord
100
AcDbLayerTableRecord
  2
2023-003
 70
     1
 62
     7
  6
Continuous
370
     0
390
F
347
21
348
0
  0
LAYER
  5
A1
330
2
100
AcDbSymbolTableRecord
100
AcDbLayerTableRecord
  2
2023-002
 70
     1
 62
     7
  6
Continuous
370
     0
390
F
347
21
348
0
  0
LAYER
  5
A2
330
2
100
AcDbSymbolTableRecord
100
AcDbLayerTableRecord
  2
2023-001
 70
     1
 62
     7
  6
Continuous
370
     0
390
F
347
21
348
0
  0
LAYER
  5
A3
330
2
100
AcDbSymbolTableRecord
100
AcDbLayerTableRecord
  2
10-2022-057
 70
     5
 62
     7
  6
Continuous
370
     0
390
F
347
21
348
0
  0
ENDTAB
  0
TABLE
  2
STYLE
  5
3
330
0
100
AcDbSymbolTable
 70
     2
  0
STYLE
  5
55
330
3
100
AcDbSymbolTableRecord
100
AcDbTextStyleTableRecord
  2
Standard
 70
     0
 40
0.0
 41
1.0
 50
0.0
 71
     0
 42
0.2
  3
txt
  4

  0
STYLE
  5
5A
330
3
100
AcDbSymbolTableRecord
100
AcDbTextStyleTableRecord
  2
Annotative
 70
     0
 40
0.0
 41
1.0
 50
0.0
 71
     0
 42
0.2
  3
txt
  4

1001
AcadAnnotative
1000
AnnotativeData
1002
{
1070
     1
1070
     1
1002
}
  0
ENDTAB
  0
TABLE
  2
VIEW
  5
6
330
0
100
AcDbSymbolTable
 70
     0
  0
ENDTAB
  0
TABLE
  2
UCS
  5
7
330
0
100
AcDbSymbolTable
 70
     0
  0
ENDTAB
  0
TABLE
  2
APPID
  5
9
330
0
100
AcDbSymbolTable
 70
     2
  0
APPID
  5
56
330
9
100
AcDbSymbolTableRecord
100
AcDbRegAppTableRecord
  2
ACAD
 70
     0
  0
APPID
  5
5E
330
9
100
AcDbSymbolTableRecord
100
AcDbRegAppTableRecord
  2
AcadAnnotative
 70
     0
  0
ENDTAB
  0
TABLE
  2
DIMSTYLE
  5
A
330
0
100
AcDbSymbolTable
 70
     2
100
AcDbDimStyleTable
 71
     0
  0
DIMSTYLE
105
58
330
A
100
AcDbSymbolTableRecord
100
AcDbDimStyleTableRecord
  2
Standard
 70
     0
340
55
  0
DIMSTYLE
105
59
330
A
100
AcDbSymbolTableRecord
100
AcDbDimStyleTableRecord
  2
Annotative
 70
     0
340
55
1001
AcadAnnotative
1000
AnnotativeData
1002
{
1070
     1
1070
     1
1002
}
  0
ENDTAB
  0
TABLE
  2
BLOCK_RECORD
  5
1
330
0
100
AcDbSymbolTable
 70
     1
  0
BLOCK_RECORD
  5
70
330
1
100
AcDbSymbolTableRecord
100
AcDbBlockTableRecord
  2
*Model_Space
340
73
 70
     0
280
     1
281
     0
  0
BLOCK_RECORD
  5
6C
330
1
100
AcDbSymbolTableRecord
100
AcDbBlockTableRecord
  2
*Paper_Space
340
6F
 70
     0
280
     1
281
     0
  0
BLOCK_RECORD
  5
74
330
1
100
AcDbSymbolTableRecord
100
AcDbBlockTableRecord
  2
*Paper_Space0
340
77
 70
     0
280
     1
281
     0
  0
ENDTAB
  0
ENDSEC
  0
SECTION
  2
BLOCKS
  0
BLOCK
  5
71
330
70
100
AcDbEntity
  8
0
100
AcDbBlockBegin
  2
*Model_Space
 70
     0
 10
0.0
 20
0.0
 30
0.0
  3
*Model_Space
  1

  0
ENDBLK
  5
72
330
70
100
AcDbEntity
  8
0
100
AcDbBlockEnd
  0
BLOCK
  5
6D
330
6C
100
AcDbEntity
 67
     1
  8
0
100
AcDbBlockBegin
  2
*Paper_Space
 70
     0
 10
0.0
 20
0.0
 30
0.0
  3
*Paper_Space
  1

  0
ENDBLK
  5
6E
330
6C
100
AcDbEntity
 67
     1
  8
0
100
AcDbBlockEnd
  0
BLOCK
  5
75
330
74
100
AcDbEntity
 67
     1
  8
0
100
AcDbBlockBegin
  2
*Paper_Space0
 70
     0
 10
0.0
 20
0.0
 30
0.0
  3
*Paper_Space0
  1

  0
ENDBLK
  5
76
330
74
100
AcDbEntity
 67
     1
  8
0
100
AcDbBlockEnd
  0
ENDSEC
  0
SECTION
  2
ENTITIES
  0
LWPOLYLINE
  5
79
330
70
100
AcDbEntity
  8
Bounding Box
 62
    18
420
        0
370
    40
100
AcDbPolyline
 90
        4
 70
     1
 43
0.0
 10
1200.176347415185
 20
-1999.819564896579
 10
0.1763477151839837
 20
-1999.819564896579
 10
0.1763477151839837
 20
0.180434603424631
 10
1200.176347415185
 20
0.180434603424631
  0
ELLIPSE
  5
7B
330
70
100
AcDbEntity
  8
Screws
100
AcDbEllipse
 10
17.342316281568
 20
-1982.358092505099
 30
0.0
 11
2.557638888249479
 21
0.0
 31
0.0
210
0.0
220
0.0
230
1.0
 40
0.9655172413793103
 41
0.0
 42
6.283185307179586
  0
HATCH
  5
7C
330
70
100
AcDbEntity
  8
Screws
 62
    18
420
        0
440
 33554687
100
AcDbHatch
 10
0.0
 20
0.0
 30
0.0
210
0.0
220
0.0
230
1.0
  2
SOLID
 70
     1
 71
     1
 91
        1
 92
        1
 93
        1
 72
     3
 10
17.342316281568
 20
-1982.358092505099
 11
2.557638888249479
 21
0.0
 40
0.9655172413793103
 50
0.0
 51
360.0
 73
     1
 97
        1
330
7B
 75
     2
 76
     1
 98
        1
 10
0.0
 20
0.0
450
        0
451
        0
460
0.0
461
0.0
452
        0
462
0.0
453
        0
470

  0
ELLIPSE
  5
7D
330
70
100
AcDbEntity
  8
Screws
100
AcDbEllipse
 10
1182.38037163908
 20
-1982.387911349827
 30
0.0
 11
2.557638888249479
 21
0.0
 31
0.0
210
0.0
220
0.0
230
1.0
 40
0.9655172413793103
 41
0.0
 42
6.283185307179586
  0
HATCH
  5
7E
330
70
100
AcDbEntity
  8
Screws
 62
    18
420
        0
440
 33554687
100
AcDbHatch
 10
0.0
 20
0.0
 30
0.0
210
0.0
220
0.0
230
1.0
  2
SOLID
 70
     1
 71
     1
 91
        1
 92
        1
 93
        1
 72
     3
 10
1182.38037163908
 20
-1982.387911349827
 11
2.557638888249479
 21
0.0
 40
0.9655172413793103
 50
0.0
 51
360.0
 73
     1
 97
        1
330
7D
 75
     2
 76
     1
 98
        1
 10
0.0
 20
0.0
450
        0
451
        0
460
0.0
461
0.0
452
        0
462
0.0
453
        0
470

  0
ELLIPSE
  5
7F
330
70
100
AcDbEntity
  8
Screws
100
AcDbEllipse
 10
1182.644954972347
 20
-17.53202921959431
 30
0.0
 11
2.557638888249479
 21
0.0
 31
0.0
210
0.0
220
0.0
230
1.0
 40
0.9655172413793103
 41
0.0
 42
6.283185307179586
  0
HATCH
  5
80
330
70
100
AcDbEntity
  8
Screws
 62
    18
420
        0
440
 33554687
100
AcDbHatch
 10
0.0
 20
0.0
 30
0.0
210
0.0
220
0.0
230
1.0
  2
SOLID
 70
     1
 71
     1
 91
        1
 92
        1
 93
        1
 72
     3
 10
1182.644954972347
 20
-17.53202921959431
 11
2.557638888249479
 21
0.0
 40
0.9655172413793103
 50
0.0
 51
360.0
 73
     1
 97
        1
330
7F
 75
     2
 76
     1
 98
        1
 10
0.0
 20
0.0
450
        0
451
        0
460
0.0
461
0.0
452
        0
462
0.0
453
        0
470

  0
ELLIPSE
  5
81
330
70
100
AcDbEntity
  8
Screws
100
AcDbEllipse
 10
17.43471861274107
 20
-17.53202921959431
 30
0.0
 11
2.557638888249479
 21
0.0
 31
0.0
210
0.0
220
0.0
230
1.0
 40
0.9655172413793103
 41
0.0
 42
6.283185307179586
  0
HATCH
  5
82
330
70
100
AcDbEntity
  8
Screws
 62
    18
420
        0
440
 33554687
100
AcDbHatch
 10
0.0
 20
0.0
 30
0.0
210
0.0
220
0.0
230
1.0
  2
SOLID
 70
     1
 71
     1
 91
        1
 92
        1
 93
        1
 72
     3
 10
17.43471861274107
 20
-17.53202921959431
 11
2.557638888249479
 21
0.0
 40
0.9655172413793103
 50
0.0
 51
360.0
 73
     1
 97
        1
330
81
 75
     2
 76
     1
 98
        1
 10
0.0
 20
0.0
450
        0
451
        0
460
0.0
461
0.0
452
        0
462
0.0
453
        0
470

  0
SPLINE
  5
88
330
70
100
AcDbEntity
  8
2023-014
100
AcDbSpline
210
0.0
220
0.0
230
1.0
 70
     9
 71
     3
 72
    98
 73
    94
 74
     0
 42
0.0000000001
 43
0.0000000001
 40
0.0
 40
0.0
 40
0.0
 40
0.0
 40
1.0
 40
1.0
 40
1.0
 40
2.0
 40
2.0
 40
2.0
 40
3.0
 40
3.0
 40
3.0
 40
4.0
 40
4.0
 40
4.0
 40
5.0
 40
5.0
 40
5.0
 40
6.0
 40
6.0
 40
6.0
 40
7.0
 40
7.0
 40
7.0
 40
8.0
 40
8.0
 40
8.0
 40
9.0
 40
9.0
 40
9.0
 40
10.0
 40
10.0
 40
10.0
 40
11.0
 40
11.0
 40
11.0
 40
12.0
 40
12.0
 40
12.0
 40
13.0
 40
13.0
 40
13.0
 40
14.0
 40
14.0
 40
14.0
 40
15.0
 40
15.0
 40
15.0
 40
16.0
 40
16.0
 40
16.0
 40
17.0
 40
17.0
 40
17.0
 40
18.0
 40
18.0
 40
18.0
 40
19.0
 40
19.0
 40
19.0
 40
20.0
 40
20.0
 40
20.0
 40
21.0
 40
21.0
 40
21.0
 40
22.0
 40
22.0
 40
22.0
 40
23.0
 40
23.0
 40
23.0
 40
24.0
 40
24.0
 40
24.0
 40
25.0
 40
25.0
 40
25.0
 40
26.0
 40
26.0
 40
26.0
 40
27.0
 40
27.0
 40
27.0
 40
28.0
 40
28.0
 40
28.0
 40
29.0
 40
29.0
 40
29.0
 40
30.0
 40
30.0
 40
30.0
 40
31.0
 40
31.0
 40
31.0
 40
31.0
 10
474.3447203458554
 20
-1116.791326317515
 30
0.0
 10
494.5112814306172
 20
-1115.913731306499
 30
0.0
 10
522.2795085071882
 20
-1137.688758763458
 30
0.0
 10
529.355449551915
 20
-1161.361560131891
 30
0.0
 10
532.7182644967508
 20
-1172.612057733413
 30
0.0
 10
533.9187902928054
 20
-1184.569725778676
 30
0.0
 10
535.4589543732425
 20
-1196.291232528473
 30
0.0
 10
537.6171120883124
 20
-1212.713421344231
 30
0.0
 10
539.2266498274683
 20
-1229.209012225679
 30
0.0
 10
540.978033459374
 20
-1245.683071260335
 30
0.0
 10
542.1114234566499
 20
-1256.342928772826
 30
0.0
 10
543.0900568306761
 20
-1267.019322743647
 30
0.0
 10
544.1189559822269
 20
-1277.690139966139
 30
0.0
 10
546.2673015420762
 20
-1299.972500796934
 30
0.0
 10
548.4776186084766
 20
-1322.249220283892
 30
0.0
 10
550.5213011795367
 20
-1344.541270445738
 30
0.0
 10
552.2747505282871
 20
-1363.667665430364
 30
0.0
 10
555.7396463158796
 20
-1382.886948802035
 30
0.0
 10
554.9935782344322
 20
-1401.929671030104
 30
0.0
 10
554.0590134872587
 20
-1425.788335299914
 30
0.0
 10
543.4154072399957
 20
-1445.609433789059
 30
0.0
 10
520.3318817712548
 20
-1456.203403850405
 30
0.0
 10
509.2584342689432
 20
-1461.28556564578
 30
0.0
 10
497.2826127742238
 20
-1462.781684487394
 30
0.0
 10
485.2365569054137
 20
-1464.094868758782
 30
0.0
 10
458.580029798871
 20
-1467.000935991199
 30
0.0
 10
431.9856463419111
 20
-1470.474109004104
 30
0.0
 10
405.3399642489463
 20
-1473.484734884519
 30
0.0
 10
396.9726058653179
 20
-1474.430112149223
 30
0.0
 10
388.5079866449905
 20
-1474.478128167528
 30
0.0
 10
380.1137739418205
 20
-1475.226747416374
 30
0.0
 10
371.2941957035287
 20
-1476.013262715512
 30
0.0
 10
362.5253996719985
 20
-1477.413694030055
 30
0.0
 10
353.6989357107303
 20
-1478.060295388838
 30
0.0
 10
343.2952969081806
 20
-1478.822393573762
 30
0.0
 10
332.8365723220481
 20
-1478.827475089615
 30
0.0
 10
322.4319006610584
 20
-1479.578032204639
 30
0.0
 10
298.9366089600657
 20
-1481.272760800964
 30
0.0
 10
275.4595644248312
 20
-1483.219412004573
 30
0.0
 10
251.9758063097695
 20
-1485.072701120599
 30
0.0
 10
234.2566033038769
 20
-1486.471065377843
 30
0.0
 10
216.5553031777119
 20
-1488.165234146143
 30
0.0
 10
198.8157872891523
 20
-1489.217667753025
 30
0.0
 10
177.1393593049061
 20
-1490.503678833768
 30
0.0
 10
155.4334948550463
 20
-1491.983648790295
 30
0.0
 10
133.7367539881397
 20
-1492.040148356246
 30
0.0
 10
111.0169668341428
 20
-1492.099317871221
 30
0.0
 10
93.20463442541518
 20
-1482.659885434185
 30
0.0
 10
81.27124619837793
 20
-1462.230942910444
 30
0.0
 10
73.65787447756862
 20
-1449.197285417902
 30
0.0
 10
68.56459128425277
 20
-1435.663873761619
 30
0.0
 10
70.90479029975063
 20
-1420.911716513906
 30
0.0
 10
73.02412975168921
 20
-1407.552454434384
 30
0.0
 10
77.33175195661766
 20
-1394.878680228912
 30
0.0
 10
86.95558263524675
 20
-1383.914405466666
 30
0.0
 10
101.0873239850596
 20
-1367.814397674264
 30
0.0
 10
118.867379567489
 20
-1363.696216659206
 30
0.0
 10
138.837697548218
 20
-1362.482638711032
 30
0.0
 10
164.4503490558459
 20
-1360.926144571046
 30
0.0
 10
189.9882904694537
 20
-1358.159991278984
 30
0.0
 10
215.5678905069048
 20
-1356.027649428724
 30
0.0
 10
224.8138671387966
 20
-1355.256895441397
 30
0.0
 10
234.0842880871028
 20
-1354.768768474897
 30
0.0
 10
243.3481675986451
 20
-1354.227328655793
 30
0.0
 10
260.6354636325808
 20
-1353.216925213799
 30
0.0
 10
277.9756075901508
 20
-1352.780216297443
 30
0.0
 10
295.2014485467731
 20
-1351.136475114299
 30
0.0
 10
312.1000455202751
 20
-1349.523868981582
 30
0.0
 10
328.8490501627059
 20
-1346.392880077703
 30
0.0
 10
345.7306049719196
 20
-1344.534681700623
 30
0.0
 10
356.1769352567583
 20
-1343.384794955202
 30
0.0
 10
366.8683972785354
 20
-1344.165539719428
 30
0.0
 10
377.225041021949
 20
-1342.594576178404
 30
0.0
 10
385.9631955863923
 20
-1341.269075690648
 30
0.0
 10
394.8041195658291
 20
-1341.599201965482
 30
0.0
 10
403.4395047152507
 20
-1336.770168560895
 30
0.0
 10
414.0803566733402
 20
-1330.81971351231
 30
0.0
 10
416.8695908966429
 20
-1321.993335816747
 30
0.0
 10
416.9274309693988
 20
-1311.89795719943
 30
0.0
 10
416.9854431852326
 20
-1301.761065181522
 30
0.0
 10
414.7329510657781
 20
-1291.625723456575
 30
0.0
 10
413.7493255426311
 20
-1281.464823429519
 30
0.0
 10
412.0110247843181
 20
-1263.510966693096
 30
0.0
 10
410.4472771027606
 20
-1245.54007826587
 30
0.0
 10
408.8480679480231
 20
-1227.57297944367
 30
0.0
 10
407.4934741010293
 20
-1212.354916095351
 30
0.0
 10
405.9281771318283
 20
-1197.149384281881
 30
0.0
 10
404.9316408781526
 20
-1181.907183733306
 30
0.0
 10
403.638157822293
 20
-1162.12456265439
 30
0.0
 10
411.8266595523913
 20
-1146.144530312213
 30
0.0
 10
426.0525631635082
 20
-1133.039774661606
 30
0.0
 10
437.7174942671192
 20
-1122.294177335254
 30
0.0
 10
451.652476083658
 20
-1117.036078819862
 30
0.0
 10
474.3447203458554
 20
-1116.791326317515
 30
0.0
  0
HATCH
  5
89
330
70
100
AcDbEntity
  8
2023-014
 62
    18
420
        0
440
 33554687
100
AcDbHatch
 10
0.0
 20
0.0
 30
0.0
210
0.0
220
0.0
230
1.0
  2
SOLID
 70
     1
 71
     1
 91
        1
 92
        1
 93
        1
 72
     4
 94
        3
 73
     0
 74
     0
 95
       98
 96
       94
 40
0.0
 40
0.0
 40
0.0
 40
0.0
 40
1.0
 40
1.0
 40
1.0
 40
2.0
 40
2.0
 40
2.0
 40
3.0
 40
3.0
 40
3.0
 40
4.0
 40
4.0
 40
4.0
 40
5.0
 40
5.0
 40
5.0
 40
6.0
 40
6.0
 40
6.0
 40
7.0
 40
7.0
 40
7.0
 40
8.0
 40
8.0
 40
8.0
 40
9.0
 40
9.0
 40
9.0
 40
10.0
 40
10.0
 40
10.0
 40
11.0
 40
11.0
 40
11.0
 40
12.0
 40
12.0
 40
12.0
 40
13.0
 40
13.0
 40
13.0
 40
14.0
 40
14.0
 40
14.0
 40
15.0
 40
15.0
 40
15.0
 40
16.0
 40
16.0
 40
16.0
 40
17.0
 40
17.0
 40
17.0
 40
18.0
 40
18.0
 40
18.0
 40
19.0
 40
19.0
 40
19.0
 40
20.0
 40
20.0
 40
20.0
 40
21.0
 40
21.0
 40
21.0
 40
22.0
 40
22.0
 40
22.0
 40
23.0
 40
23.0
 40
23.0
 40
24.0
 40
24.0
 40
24.0
 40
25.0
 40
25.0
 40
25.0
 40
26.0
 40
26.0
 40
26.0
 40
27.0
 40
27.0
 40
27.0
 40
28.0
 40
28.0
 40
28.0
 40
29.0
 40
29.0
 40
29.0
 40
30.0
 40
30.0
 40
30.0
 40
31.0
 40
31.0
 40
31.0
 40
31.0
 10
474.3447203458554
 20
-1116.791326317515
 10
494.5112814306172
 20
-1115.913731306499
 10
522.2795085071882
 20
-1137.688758763458
 10
529.355449551915
 20
-1161.361560131891
 10
532.7182644967508
 20
-1172.612057733413
 10
533.9187902928054
 20
-1184.569725778676
 10
535.4589543732425
 20
-1196.291232528473
 10
537.6171120883124
 20
-1212.713421344231
 10
539.2266498274683
 20
-1229.209012225679
 10
540.978033459374
 20
-1245.683071260335
 10
542.1114234566499
 20
-1256.342928772826
 10
543.0900568306761
 20
-1267.019322743647
 10
544.1189559822269
 20
-1277.690139966139
 10
546.2673015420762
 20
-1299.972500796934
 10
548.4776186084766
 20
-1322.249220283892
 10
550.5213011795367
 20
-1344.541270445738
 10
552.2747505282871
 20
-1363.667665430364
 10
555.7396463158796
 20
-1382.886948802035
 10
554.9935782344322
 20
-1401.929671030104
 10
554.0590134872587
 20
-1425.788335299914
 10
543.4154072399957
 20
-1445.609433789059
 10
520.3318817712548
 20
-1456.203403850405
 10
509.2584342689432
 20
-1461.28556564578
 10
497.2826127742238
 20
-1462.781684487394
 10
485.2365569054137
 20
-1464.094868758782
 10
458.580029798871
 20
-1467.000935991199
 10
431.9856463419111
 20
-1470.474109004104
 10
405.3399642489463
 20
-1473.484734884519
 10
396.9726058653179
 20
-1474.430112149223
 10
388.5079866449905
 20
-1474.478128167528
 10
380.1137739418205
 20
-1475.226747416374
 10
371.2941957035287
 20
-1476.013262715512
 10
362.5253996719985
 20
-1477.413694030055
 10
353.6989357107303
 20
-1478.060295388838
 10
343.2952969081806
 20
-1478.822393573762
 10
332.8365723220481
 20
-1478.827475089615
 10
322.4319006610584
 20
-1479.578032204639
 10
298.9366089600657
 20
-1481.272760800964
 10
275.4595644248312
 20
-1483.219412004573
 10
251.9758063097695
 20
-1485.072701120599
 10
234.2566033038769
 20
-1486.471065377843
 10
216.5553031777119
 20
-1488.165234146143
 10
198.8157872891523
 20
-1489.217667753025
 10
177.1393593049061
 20
-1490.503678833768
 10
155.4334948550463
 20
-1491.983648790295
 10
133.7367539881397
 20
-1492.040148356246
 10
111.0169668341428
 20
-1492.099317871221
 10
93.20463442541518
 20
-1482.659885434185
 10
81.27124619837793
 20
-1462.230942910444
 10
73.65787447756862
 20
-1449.197285417902
 10
68.56459128425277
 20
-1435.663873761619
 10
70.90479029975063
 20
-1420.911716513906
 10
73.02412975168921
 20
-1407.552454434384
 10
77.33175195661766
 20
-1394.878680228912
 10
86.95558263524675
 20
-1383.914405466666
 10
101.0873239850596
 20
-1367.814397674264
 10
118.867379567489
 20
-1363.696216659206
 10
138.837697548218
 20
-1362.482638711032
 10
164.4503490558459
 20
-1360.926144571046
 10
189.9882904694537
 20
-1358.159991278984
 10
215.5678905069048
 20
-1356.027649428724
 10
224.8138671387966
 20
-1355.256895441397
 10
234.0842880871028
 20
-1354.768768474897
 10
243.3481675986451
 20
-1354.227328655793
 10
260.6354636325808
 20
-1353.216925213799
 10
277.9756075901508
 20
-1352.780216297443
 10
295.2014485467731
 20
-1351.136475114299
 10
312.1000455202751
 20
-1349.523868981582
 10
328.8490501627059
 20
-1346.392880077703
 10
345.7306049719196
 20
-1344.534681700623
 10
356.1769352567583
 20
-1343.384794955202
 10
366.8683972785354
 20
-1344.165539719428
 10
377.225041021949
 20
-1342.594576178404
 10
385.9631955863923
 20
-1341.269075690648
 10
394.8041195658291
 20
-1341.599201965482
 10
403.4395047152507
 20
-1336.770168560895
 10
414.0803566733402
 20
-1330.81971351231
 10
416.8695908966429
 20
-1321.993335816747
 10
416.9274309693988
 20
-1311.89795719943
 10
416.9854431852326
 20
-1301.761065181522
 10
414.7329510657781
 20
-1291.625723456575
 10
413.7493255426311
 20
-1281.464823429519
 10
412.0110247843181
 20
-1263.510966693096
 10
410.4472771027606
 20
-1245.54007826587
 10
408.8480679480231
 20
-1227.57297944367
 10
407.4934741010293
 20
-1212.354916095351
 10
405.9281771318283
 20
-1197.149384281881
 10
404.9316408781526
 20
-1181.907183733306
 10
403.638157822293
 20
-1162.12456265439
 10
411.8266595523913
 20
-1146.144530312213
 10
426.0525631635082
 20
-1133.039774661606
 10
437.7174942671192
 20
-1122.294177335254
 10
451.652476083658
 20
-1117.036078819862
 10
474.3447203458554
 20
-1116.791326317515
 97
        0
 97
        1
330
88
 75
     2
 76
     1
 98
        1
 10
0.0
 20
0.0
450
        0
451
        0
460
0.0
461
0.0
452
        0
462
0.0
453
        0
470

  0
SPLINE
  5
8A
330
70
100
AcDbEntity
  8
2023-014
100
AcDbSpline
210
0.0
220
0.0
230
1.0
 70
     9
 71
     3
 72
    80
 73
    76
 74
     0
 42
0.0000000001
 43
0.0000000001
 40
0.0
 40
0.0
 40
0.0
 40
0.0
 40
1.0
 40
1.0
 40
1.0
 40
2.0
 40
2.0
 40
2.0
 40
3.0
 40
3.0
 40
3.0
 40
4.0
 40
4.0
 40
4.0
 40
5.0
 40
5.0
 40
5.0
 40
6.0
 40
6.0
 40
6.0
 40
7.0
 40
7.0
 40
7.0
 40
8.0
 40
8.0
 40
8.0
 40
9.0
 40
9.0
 40
9.0
 40
10.0
 40
10.0
 40
10.0
 40
11.0
 40
11.0
 40
11.0
 40
12.0
 40
12.0
 40
12.0
 40
13.0
 40
13.0
 40
13.0
 40
14.0
 40
14.0
 40
14.0
 40
15.0
 40
15.0
 40
15.0
 40
16.0
 40
16.0
 40
16.0
 40
17.0
 40
17.0
 40
17.0
 40
18.0
 40
18.0
 40
18.0
 40
19.0
 40
19.0
 40
19.0
 40
20.0
 40
20.0
 40
20.0
 40
21.0
 40
21.0
 40
21.0
 40
22.0
 40
22.0
 40
22.0
 40
23.0
 40
23.0
 40
23.0
 40
24.0
 40
24.0
 40
24.0
 40
25.0
 40
25.0
 40
25.0
 40
25.0
 10
584.3419065845501
 20
-1612.968985723112
 30
0.0
 10
583.1968108582477
 20
-1648.645662479995
 30
0.0
 10
557.3417819028646
 20
-1671.803766583003
 30
0.0
 10
524.1915016268404
 20
-1674.259602899297
 30
0.0
 10
495.8340288089797
 20
-1676.360335998471
 30
0.0
 10
467.5404210714421
 20
-1679.344305452536
 30
0.0
 10
439.1769232460119
 20
-1681.345647547021
 30
0.0
 10
418.612711660971
 20
-1682.79663563778
 30
0.0
 10
397.9715521220119
 20
-1683.128915097279
 30
0.0
 10
377.3823797913128
 20
-1684.274667728123
 30
0.0
 10
369.9566440208136
 20
-1684.687906931525
 30
0.0
 10
362.5885761800099
 20
-1686.079553252555
 30
0.0
 10
355.1824647199521
 20
-1686.919639786514
 30
0.0
 10
327.5832821417612
 20
-1690.049767416539
 30
0.0
 10
300.0126753137889
 20
-1693.493743245201
 30
0.0
 10
272.3637433873104
 20
-1696.100130234157
 30
0.0
 10
256.7243729979571
 20
-1697.574458846844
 30
0.0
 10
240.9416074282145
 20
-1697.457928492064
 30
0.0
 10
225.2447412522765
 20
-1698.411014157939
 30
0.0
 10
213.357229154371
 20
-1699.132675534576
 30
0.0
 10
201.5122363956836
 20
-1700.527594696342
 30
0.0
 10
189.6322985930187
 20
-1701.408505611783
 30
0.0
 10
179.6502381780015
 20
-1702.148684376658
 30
0.0
 10
169.6356427220235
 20
-1702.453747581867
 30
0.0
 10
159.6558201669466
 20
-1703.216147212607
 30
0.0
 10
156.2181229850273
 20
-1703.478749615929
 30
0.0
 10
152.8706287737364
 20
-1704.894769987534
 30
0.0
 10
149.4322430195056
 20
-1705.17511463262
 30
0.0
 10
134.173308823053
 20
-1706.419224739546
 30
0.0
 10
118.9716982701538
 20
-1708.666977288526
 30
0.0
 10
103.7047594207923
 20
-1704.191195362167
 30
0.0
 10
90.43364736797233
 20
-1700.300476776524
 30
0.0
 10
80.71892514637779
 20
-1691.702551975323
 30
0.0
 10
70.86459489204624
 20
-1682.707493792125
 30
0.0
 10
58.71051924451959
 20
-1671.613252802703
 30
0.0
 10
55.1354518897715
 20
-1656.928447171709
 30
0.0
 10
52.26427756339182
 20
-1641.870365444966
 30
0.0
 10
51.64232463810587
 20
-1638.608549040064
 30
0.0
 10
52.99760705740582
 20
-1634.998821054876
 30
0.0
 10
53.23654164371755
 20
-1631.535122054532
 30
0.0
 10
53.49871554498022
 20
-1627.736086072447
 30
0.0
 10
52.20884749367751
 20
-1623.156951281569
 30
0.0
 10
53.89404211375108
 20
-1620.253683189194
 30
0.0
 10
59.20956201518509
 20
-1611.095628925894
 30
0.0
 10
62.3713999215054
 20
-1600.584987111567
 30
0.0
 10
71.1748827824194
 20
-1593.476936916419
 30
0.0
 10
80.95562187274927
 20
-1585.579744536823
 30
0.0
 10
92.11970270338238
 20
-1580.990188332107
 30
0.0
 10
104.2514858228615
 20
-1579.91118442627
 30
0.0
 10
126.8319231586809
 20
-1577.902866013479
 30
0.0
 10
149.5375945806088
 20
-1577.34075562146
 30
0.0
 10
172.1415294459839
 20
-1575.550597880193
 30
0.0
 10
195.8754114471551
 20
-1573.670996847447
 30
0.0
 10
219.5347554974081
 20
-1570.86625848595
 30
0.0
 10
243.2579646280233
 20
-1568.830120927075
 30
0.0
 10
259.5600858511306
 20
-1567.430938459659
 30
0.0
 10
275.935884309781
 20
-1566.901987111677
 30
0.0
 10
292.2424812528077
 20
-1565.547031057539
 30
0.0
 10
327.8917625298238
 20
-1562.584894896087
 30
0.0
 10
363.5097137674461
 20
-1559.245305460594
 30
0.0
 10
399.1572736137178
 20
-1556.263273872748
 30
0.0
 10
414.7098838938977
 20
-1554.962276626627
 30
0.0
 10
430.3225721068129
 20
-1554.378419069354
 30
0.0
 10
445.8722559547417
 20
-1553.050507014762
 30
0.0
 10
455.1187490158302
 20
-1552.260848065962
 30
0.0
 10
464.2686698125658
 20
-1549.91697735294
 30
0.0
 10
473.5099985814559
 20
-1549.574793243947
 30
0.0
 10
492.5595232609196
 20
-1548.869280752366
 30
0.0
 10
511.2098481524604
 20
-1541.968323859539
 30
0.0
 10
530.5360067513974
 20
-1545.959165532742
 30
0.0
 10
555.914715821837
 20
-1551.199844784061
 30
0.0
 10
577.5548216175212
 20
-1570.018075977622
 30
0.0
 10
582.0883816066649
 20
-1596.3988946518
 30
0.0
 10
583.0318977936419
 20
-1601.889171071004
 30
0.0
 10
583.6004863660934
 20
-1607.44395690316
 30
0.0
 10
584.3419065845501
 20
-1612.968985723112
 30
0.0
  0
HATCH
  5
8B
330
70
100
AcDbEntity
  8
2023-014
 62
    18
420
        0
440
 33554687
100
AcDbHatch
 10
0.0
 20
0.0
 30
0.0
210
0.0
220
0.0
230
1.0
  2
SOLID
 70
     1
 71
     1
 91
        1
 92
        1
 93
        1
 72
     4
 94
        3
 73
     0
 74
     0
 95
       80
 96
       76
 40
0.0
 40
0.0
 40
0.0
 40
0.0
 40
1.0
 40
1.0
 40
1.0
 40
2.0
 40
2.0
 40
2.0
 40
3.0
 40
3.0
 40
3.0
 40
4.0
 40
4.0
 40
4.0
 40
5.0
 40
5.0
 40
5.0
 40
6.0
 40
6.0
 40
6.0
 40
7.0
 40
7.0
 40
7.0
 40
8.0
 40
8.0
 40
8.0
 40
9.0
 40
9.0
 40
9.0
 40
10.0
 40
10.0
 40
10.0
 40
11.0
 40
11.0
 40
11.0
 40
12.0
 40
12.0
 40
12.0
 40
13.0
 40
13.0
 40
13.0
 40
14.0
 40
14.0
 40
14.0
 40
15.0
 40
15.0
 40
15.0
 40
16.0
 40
16.0
 40
16.0
 40
17.0
 40
17.0
 40
17.0
 40
18.0
 40
18.0
 40
18.0
 40
19.0
 40
19.0
 40
19.0
 40
20.0
 40
20.0
 40
20.0
 40
21.0
 40
21.0
 40
21.0
 40
22.0
 40
22.0
 40
22.0
 40
23.0
 40
23.0
 40
23.0
 40
24.0
 40
24.0
 40
24.0
 40
25.0
 40
25.0
 40
25.0
 40
25.0
 10
584.3419065845501
 20
-1612.968985723112
 10
583.1968108582477
 20
-1648.645662479995
 10
557.3417819028646
 20
-1671.803766583003
 10
524.1915016268404
 20
-1674.259602899297
 10
495.8340288089797
 20
-1676.360335998471
 10
467.5404210714421
 20
-1679.344305452536
 10
439.1769232460119
 20
-1681.345647547021
 10
418.612711660971
 20
-1682.79663563778
 10
397.9715521220119
 20
-1683.128915097279
 10
377.3823797913128
 20
-1684.274667728123
 10
369.9566440208136
 20
-1684.687906931525
 10
362.5885761800099
 20
-1686.079553252555
 10
355.1824647199521
 20
-1686.919639786514
 10
327.5832821417612
 20
-1690.049767416539
 10
300.0126753137889
 20
-1693.493743245201
 10
272.3637433873104
 20
-1696.100130234157
 10
256.7243729979571
 20
-1697.574458846844
 10
240.9416074282145
 20
-1697.457928492064
 10
225.2447412522765
 20
-1698.411014157939
 10
213.357229154371
 20
-1699.132675534576
 10
201.5122363956836
 20
-1700.527594696342
 10
189.6322985930187
 20
-1701.408505611783
 10
179.6502381780015
 20
-1702.148684376658
 10
169.6356427220235
 20
-1702.453747581867
 10
159.6558201669466
 20
-1703.216147212607
 10
156.2181229850273
 20
-1703.478749615929
 10
152.8706287737364
 20
-1704.894769987534
 10
149.4322430195056
 20
-1705.17511463262
 10
134.173308823053
 20
-1706.419224739546
 10
118.9716982701538
 20
-1708.666977288526
 10
103.7047594207923
 20
-1704.191195362167
 10
90.43364736797233
 20
-1700.300476776524
 10
80.71892514637779
 20
-1691.702551975323
 10
70.86459489204624
 20
-1682.707493792125
 10
58.71051924451959
 20
-1671.613252802703
 10
55.1354518897715
 20
-1656.928447171709
 10
52.26427756339182
 20
-1641.870365444966
 10
51.64232463810587
 20
-1638.608549040064
 10
52.99760705740582
 20
-1634.998821054876
 10
53.23654164371755
 20
-1631.535122054532
 10
53.49871554498022
 20
-1627.736086072447
 10
52.20884749367751
 20
-1623.156951281569
 10
53.89404211375108
 20
-1620.253683189194
 10
59.20956201518509
 20
-1611.095628925894
 10
62.3713999215054
 20
-1600.584987111567
 10
71.1748827824194
 20
-1593.476936916419
 10
80.95562187274927
 20
-1585.579744536823
 10
92.11970270338238
 20
-1580.990188332107
 10
104.2514858228615
 20
-1579.91118442627
 10
126.8319231586809
 20
-1577.902866013479
 10
149.5375945806088
 20
-1577.34075562146
 10
172.1415294459839
 20
-1575.550597880193
 10
195.8754114471551
 20
-1573.670996847447
 10
219.5347554974081
 20
-1570.86625848595
 10
243.2579646280233
 20
-1568.830120927075
 10
259.5600858511306
 20
-1567.430938459659
 10
275.935884309781
 20
-1566.901987111677
 10
292.2424812528077
 20
-1565.547031057539
 10
327.8917625298238
 20
-1562.584894896087
 10
363.5097137674461
 20
-1559.245305460594
 10
399.1572736137178
 20
-1556.263273872748
 10
414.7098838938977
 20
-1554.962276626627
 10
430.3225721068129
 20
-1554.378419069354
 10
445.8722559547417
 20
-1553.050507014762
 10
455.1187490158302
 20
-1552.260848065962
 10
464.2686698125658
 20
-1549.91697735294
 10
473.5099985814559
 20
-1549.574793243947
 10
492.5595232609196
 20
-1548.869280752366
 10
511.2098481524604
 20
-1541.968323859539
 10
530.5360067513974
 20
-1545.959165532742
 10
555.914715821837
 20
-1551.199844784061
 10
577.5548216175212
 20
-1570.018075977622
 10
582.0883816066649
 20
-1596.3988946518
 10
583.0318977936419
 20
-1601.889171071004
 10
583.6004863660934
 20
-1607.44395690316
 10
584.3419065845501
 20
-1612.968985723112
 97
        0
 97
        1
330
8A
 75
     2
 76
     1
 98
        1
 10
0.0
 20
0.0
450
        0
451
        0
460
0.0
461
0.0
452
        0
462
0.0
453
        0
470

  0
SPLINE
  5
8C
330
70
100
AcDbEntity
  8
2023-014
100
AcDbSpline
210
0.0
220
0.0
230
1.0
 70
     9
 71
     3
 72
   146
 73
   142
 74
     0
 42
0.0000000001
 43
0.0000000001
 40
0.0
 40
0.0
 40
0.0
 40
0.0
 40
1.0
 40
1.0
 40
1.0
 40
2.0
 40
2.0
 40
2.0
 40
3.0
 40
3.0
 40
3.0
 40
4.0
 40
4.0
 40
4.0
 40
5.0
 40
5.0
 40
5.0
 40
6.0
 40
6.0
 40
6.0
 40
7.0
 40
7.0
 40
7.0
 40
8.0
 40
8.0
 40
8.0
 40
9.0
 40
9.0
 40
9.0
 40
10.0
 40
10.0
 40
10.0
 40
11.0
 40
11.0
 40
11.0
 40
12.0
 40
12.0
 40
12.0
 40
13.0
 40
13.0
 40
13.0
 40
14.0
 40
14.0
 40
14.0
 40
15.0
 40
15.0
 40
15.0
 40
16.0
 40
16.0
 40
16.0
 40
17.0
 40
17.0
 40
17.0
 40
18.0
 40
18.0
 40
18.0
 40
19.0
 40
19.0
 40
19.0
 40
20.0
 40
20.0
 40
20.0
 40
21.0
 40
21.0
 40
21.0
 40
22.0
 40
22.0
 40
22.0
 40
23.0
 40
23.0
 40
23.0
 40
24.0
 40
24.0
 40
24.0
 40
25.0
 40
25.0
 40
25.0
 40
26.0
 40
26.0
 40
26.0
 40
27.0
 40
27.0
 40
27.0
 40
28.0
 40
28.0
 40
28.0
 40
29.0
 40
29.0
 40
29.0
 40
30.0
 40
30.0
 40
30.0
 40
31.0
 40
31.0
 40
31.0
 40
32.0
 40
32.0
 40
32.0
 40
33.0
 40
33.0
 40
33.0
 40
34.0
 40
34.0
 40
34.0
 40
35.0
 40
35.0
 40
35.0
 40
36.0
 40
36.0
 40
36.0
 40
37.0
 40
37.0
 40
37.0
 40
38.0
 40
38.0
 40
38.0
 40
39.0
 40
39.0
 40
39.0
 40
40.0
 40
40.0
 40
40.0
 40
41.0
 40
41.0
 40
41.0
 40
42.0
 40
42.0
 40
42.0
 40
43.0
 40
43.0
 40
43.0
 40
44.0
 40
44.0
 40
44.0
 40
45.0
 40
45.0
 40
45.0
 40
46.0
 40
46.0
 40
46.0
 40
47.0
 40
47.0
 40
47.0
 40
47.0
 10
1130.15039644598
 20
-1069.004688589085
 30
0.0
 10
1122.012305763334
 20
-1069.456426734591
 30
0.0
 10
1113.869650329171
 20
-1069.834267581934
 30
0.0
 10
1105.734918614625
 20
-1070.338801815748
 30
0.0
 10
1093.010113930306
 20
-1071.128073191419
 30
0.0
 10
1081.379040935169
 20
-1074.396952042599
 30
0.0
 10
1070.992853193623
 20
-1082.581809896455
 30
0.0
 10
1060.37222670431
 20
-1090.95141099571
 30
0.0
 10
1054.376813158715
 20
-1102.15908175571
 30
0.0
 10
1049.359462221386
 20
-1113.993070874932
 30
0.0
 10
1038.712308496832
 20
-1139.105491522949
 30
0.0
 10
1029.171461059981
 20
-1164.697555589902
 30
0.0
 10
1018.141901736569
 20
-1189.634534750334
 30
0.0
 10
1007.304578741229
 20
-1214.136915115302
 30
0.0
 10
995.1213430671918
 20
-1238.041140776646
 30
0.0
 10
983.6521034324725
 20
-1262.266449337211
 30
0.0
 10
975.7241635744303
 20
-1279.012024962365
 30
0.0
 10
968.1649350606951
 20
-1295.933300457267
 30
0.0
 10
960.1518152167782
 20
-1312.637190427049
 30
0.0
 10
951.2508081389235
 20
-1331.191785691508
 30
0.0
 10
942.0675616134415
 20
-1349.611677722493
 30
0.0
 10
932.9229001573944
 20
-1368.048450721356
 30
0.0
 10
921.8990252415323
 20
-1390.274225862286
 30
0.0
 10
910.8043536134447
 20
-1412.465033284036
 30
0.0
 10
899.6987438071935
 20
-1434.650242425625
 30
0.0
 10
897.0635041431405
 20
-1439.91486509141
 30
0.0
 10
894.2600576920185
 20
-1440.1424997756
 30
0.0
 10
890.7768939016566
 20
-1435.096899055288
 30
0.0
 10
876.70161178712
 20
-1414.708134954483
 30
0.0
 10
862.6493256849453
 20
-1394.301628611928
 30
0.0
 10
848.8051233500836
 20
-1373.755595902221
 30
0.0
 10
840.5896041464083
 20
-1361.563230725147
 30
0.0
 10
833.0898035297936
 20
-1348.881834243943
 30
0.0
 10
824.714518022988
 20
-1336.804707510851
 30
0.0
 10
810.8354340963364
 20
-1316.791114308389
 30
0.0
 10
796.4098718983387
 20
-1297.157945774888
 30
0.0
 10
782.4027165470209
 20
-1277.232116379911
 30
0.0
 10
770.5150700656178
 20
-1260.321434553628
 30
0.0
 10
758.8932988282907
 20
-1243.223684042493
 30
0.0
 10
746.3248153516133
 20
-1225.007224899911
 30
0.0
 10
749.4005966008443
 20
-1223.875511033007
 30
0.0
 10
751.0277151985278
 20
-1222.855762769373
 30
0.0
 10
752.7271808014015
 20
-1222.716064147446
 30
0.0
 10
771.3449935680145
 20
-1221.186269497221
 30
0.0
 10
789.9681462326295
 20
-1219.708323534049
 30
0.0
 10
808.6026677123459
 20
-1218.398153721008
 30
0.0
 10
818.6675141725032
 20
-1217.690531108338
 30
0.0
 10
828.7832619184571
 20
-1217.633342523283
 30
0.0
 10
838.8297632451536
 20
-1216.752776117252
 30
0.0
 10
857.1867822835331
 20
-1215.143572016092
 30
0.0
 10
875.5248532967438
 20
-1213.280808887218
 30
0.0
 10
893.840961826238
 20
-1211.253542448923
 30
0.0
 10
906.3000635212548
 20
-1209.874470726177
 30
0.0
 10
919.0359786385155
 20
-1209.293799882138
 30
0.0
 10
931.0745203021726
 20
-1206.153853729496
 30
0.0
 10
961.0968910357675
 20
-1198.323410073683
 30
0.0
 10
975.2870670847372
 20
-1174.292663280645
 30
0.0
 10
976.9661204968629
 20
-1145.786048433171
 30
0.0
 10
977.6607378740745
 20
-1133.992108548967
 30
0.0
 10
972.297154840478
 20
-1123.925367286293
 30
0.0
 10
965.9027131103059
 20
-1114.264975036104
 30
0.0
 10
956.2034774085187
 20
-1099.61195040869
 30
0.0
 10
943.2326067791677
 20
-1088.597204995864
 30
0.0
 10
926.0116079770494
 20
-1086.331107313053
 30
0.0
 10
909.9394623918728
 20
-1084.216249322047
 30
0.0
 10
893.32660907029
 20
-1085.250208604555
 30
0.0
 10
877.0181299348253
 20
-1086.130172118877
 30
0.0
 10
853.5839014250589
 20
-1087.394694416738
 30
0.0
 10
830.2128042900616
 20
-1089.813754339092
 30
0.0
 10
806.8089787479506
 20
-1091.667043455382
 30
0.0
 10
792.2069415337191
 20
-1092.823217500232
 30
0.0
 10
777.4983647416083
 20
-1093.131725800936
 30
0.0
 10
763.0075179841614
 20
-1095.083716902878
 30
0.0
 10
737.0482067384809
 20
-1098.580574947796
 30
0.0
 10
711.2681265854227
 20
-1103.402244461562
 30
0.0
 10
685.3160069765654
 20
-1106.961028097826
 30
0.0
 10
665.471352643962
 20
-1109.682309021624
 30
0.0
 10
648.2319225809975
 20
-1117.859673792803
 30
0.0
 10
633.1406818078606
 20
-1130.430224326767
 30
0.0
 10
618.127730829628
 20
-1142.935404173901
 30
0.0
 10
608.1093931585215
 20
-1158.827457392585
 30
0.0
 10
602.2324478339259
 20
-1177.779272166493
 30
0.0
 10
596.4351703424296
 20
-1196.474082817201
 30
0.0
 10
597.0558042940973
 20
-1214.918004389198
 30
0.0
 10
603.9962936586817
 20
-1232.412888282393
 30
0.0
 10
608.9139090817125
 20
-1244.808686347871
 30
0.0
 10
617.0464876115824
 20
-1256.121949284494
 30
0.0
 10
624.8439014144264
 20
-1267.138934009389
 30
0.0
 10
641.2779542803279
 20
-1290.358791452584
 30
0.0
 10
658.8959142097328
 20
-1312.744505151414
 30
0.0
 10
675.1556883077736
 20
-1336.081237458948
 30
0.0
 10
689.5126931056186
 20
-1356.68687032055
 30
0.0
 10
702.6957816168608
 20
-1378.112091398093
 30
0.0
 10
716.3774615722076
 20
-1399.188152048206
 30
0.0
 10
725.1267983213225
 20
-1412.666399115149
 30
0.0
 10
733.9973163041328
 20
-1426.069284718354
 30
0.0
 10
742.5334016427106
 20
-1439.681804381833
 30
0.0
 10
755.6201136077548
 20
-1460.551159302831
 30
0.0
 10
768.1036754807171
 20
-1481.8068816825
 30
0.0
 10
781.5065610839221
 20
-1502.46780832664
 30
0.0
 10
797.6184975219496
 20
-1527.304879718
 30
0.0
 10
814.2638208684825
 20
-1551.801231165869
 30
0.0
 10
830.9769264686901
 20
-1576.240394028683
 30
0.0
 10
847.8448891109554
 20
-1600.906244174426
 30
0.0
 10
867.6309337566166
 20
-1621.589563939221
 30
0.0
 10
899.5798018855671
 20
-1625.569338243781
 30
0.0
 10
917.5909333372274
 20
-1627.813128933324
 30
0.0
 10
933.8202614039166
 20
-1624.09587090474
 30
0.0
 10
948.4094656374637
 20
-1613.293257246416
 30
0.0
 10
966.299846492366
 20
-1600.046176086534
 30
0.0
 10
974.4363007546549
 20
-1580.116126449589
 30
0.0
 10
983.3482460106734
 20
-1560.977415245606
 30
0.0
 10
993.3400564465435
 20
-1539.519810270502
 30
0.0
 10
1001.960115987576
 20
-1517.427101942692
 30
0.0
 10
1011.558324264256
 20
-1495.779844461124
 30
0.0
 10
1018.066454145442
 20
-1481.102015146217
 30
0.0
 10
1025.463504789207
 20
-1466.819510538243
 30
0.0
 10
1032.023311102671
 20
-1452.163213070119
 30
0.0
 10
1036.537936481317
 20
-1442.076317998856
 30
0.0
 10
1039.697002913906
 20
-1431.356128250019
 30
0.0
 10
1044.552606618202
 20
-1421.454579315862
 30
0.0
 10
1050.395316306411
 20
-1409.539974962285
 30
0.0
 10
1057.316082499345
 20
-1398.148249975984
 30
0.0
 10
1063.910512022435
 20
-1386.610452941108
 30
0.0
 10
1075.483362903872
 20
-1366.362593245649
 30
0.0
 10
1087.879333224124
 20
-1346.546231759717
 30
0.0
 10
1098.567139075403
 20
-1325.844394606692
 30
0.0
 10
1106.841569411876
 20
-1309.817035262823
 30
0.0
 10
1113.273821064997
 20
-1292.811182673759
 30
0.0
 10
1120.08977022779
 20
-1276.062937099606
 30
0.0
 10
1127.768888064412
 20
-1257.193718489955
 30
0.0
 10
1134.907556546787
 20
-1238.104961170508
 30
0.0
 10
1142.381346692488
 20
-1219.151165466698
 30
0.0
 10
1147.513247054702
 20
-1206.136283742522
 30
0.0
 10
1155.838750931745
 20
-1196.410348550724
 30
0.0
 10
1170.163888596348
 20
-1194.824140461929
 30
0.0
 10
1170.163888596348
 20
-1194.824140461929
 30
0.0
 10
1170.163888596348
 20
-1066.728169492432
 30
0.0
 10
1170.163888596348
 20
-1066.728169492432
 30
0.0
 10
1156.825856915654
 20
-1067.482128639379
 30
0.0
 10
1143.48911714577
 20
-1068.264337569305
 30
0.0
 10
1130.15039644598
 20
-1069.004688589085
 30
0.0
  0
HATCH
  5
8D
330
70
100
AcDbEntity
  8
2023-014
 62
    18
420
        0
440
 33554687
100
AcDbHatch
 10
0.0
 20
0.0
 30
0.0
210
0.0
220
0.0
230
1.0
  2
SOLID
 70
     1
 71
     1
 91
        1
 92
        1
 93
        1
 72
     4
 94
        3
 73
     0
 74
     0
 95
      146
 96
      142
 40
0.0
 40
0.0
 40
0.0
 40
0.0
 40
1.0
 40
1.0
 40
1.0
 40
2.0
 40
2.0
 40
2.0
 40
3.0
 40
3.0
 40
3.0
 40
4.0
 40
4.0
 40
4.0
 40
5.0
 40
5.0
 40
5.0
 40
6.0
 40
6.0
 40
6.0
 40
7.0
 40
7.0
 40
7.0
 40
8.0
 40
8.0
 40
8.0
 40
9.0
 40
9.0
 40
9.0
 40
10.0
 40
10.0
 40
10.0
 40
11.0
 40
11.0
 40
11.0
 40
12.0
 40
12.0
 40
12.0
 40
13.0
 40
13.0
 40
13.0
 40
14.0
 40
14.0
 40
14.0
 40
15.0
 40
15.0
 40
15.0
 40
16.0
 40
16.0
 40
16.0
 40
17.0
 40
17.0
 40
17.0
 40
18.0
 40
18.0
 40
18.0
 40
19.0
 40
19.0
 40
19.0
 40
20.0
 40
20.0
 40
20.0
 40
21.0
 40
21.0
 40
21.0
 40
22.0
 40
22.0
 40
22.0
 40
23.0
 40
23.0
 40
23.0
 40
24.0
 40
24.0
 40
24.0
 40
25.0
 40
25.0
 40
25.0
 40
26.0
 40
26.0
 40
26.0
 40
27.0
 40
27.0
 40
27.0
 40
28.0
 40
28.0
 40
28.0
 40
29.0
 40
29.0
 40
29.0
 40
30.0
 40
30.0
 40
30.0
 40
31.0
 40
31.0
 40
31.0
 40
32.0
 40
32.0
 40
32.0
 40
33.0
 40
33.0
 40
33.0
 40
34.0
 40
34.0
 40
34.0
 40
35.0
 40
35.0
 40
35.0
 40
36.0
 40
36.0
 40
36.0
 40
37.0
 40
37.0
 40
37.0
 40
38.0
 40
38.0
 40
38.0
 40
39.0
 40
39.0
 40
39.0
 40
40.0
 40
40.0
 40
40.0
 40
41.0
 40
41.0
 40
41.0
 40
42.0
 40
42.0
 40
42.0
 40
43.0
 40
43.0
 40
43.0
 40
44.0
 40
44.0
 40
44.0
 40
45.0
 40
45.0
 40
45.0
 40
46.0
 40
46.0
 40
46.0
 40
47.0
 40
47.0
 40
47.0
 40
47.0
 10
1130.15039644598
 20
-1069.004688589085
 10
1122.012305763334
 20
-1069.456426734591
 10
1113.869650329171
 20
-1069.834267581934
 10
1105.734918614625
 20
-1070.338801815748
 10
1093.010113930306
 20
-1071.128073191419
 10
1081.379040935169
 20
-1074.396952042599
 10
1070.992853193623
 20
-1082.581809896455
 10
1060.37222670431
 20
-1090.95141099571
 10
1054.376813158715
 20
-1102.15908175571
 10
1049.359462221386
 20
-1113.993070874932
 10
1038.712308496832
 20
-1139.105491522949
 10
1029.171461059981
 20
-1164.697555589902
 10
1018.141901736569
 20
-1189.634534750334
 10
1007.304578741229
 20
-1214.136915115302
 10
995.1213430671918
 20
-1238.041140776646
 10
983.6521034324725
 20
-1262.266449337211
 10
975.7241635744303
 20
-1279.012024962365
 10
968.1649350606951
 20
-1295.933300457267
 10
960.1518152167782
 20
-1312.637190427049
 10
951.2508081389235
 20
-1331.191785691508
 10
942.0675616134415
 20
-1349.611677722493
 10
932.9229001573944
 20
-1368.048450721356
 10
921.8990252415323
 20
-1390.274225862286
 10
910.8043536134447
 20
-1412.465033284036
 10
899.6987438071935
 20
-1434.650242425625
 10
897.0635041431405
 20
-1439.91486509141
 10
894.2600576920185
 20
-1440.1424997756
 10
890.7768939016566
 20
-1435.096899055288
 10
876.70161178712
 20
-1414.708134954483
 10
862.6493256849453
 20
-1394.301628611928
 10
848.8051233500836
 20
-1373.755595902221
 10
840.5896041464083
 20
-1361.563230725147
 10
833.0898035297936
 20
-1348.881834243943
 10
824.714518022988
 20
-1336.804707510851
 10
810.8354340963364
 20
-1316.791114308389
 10
796.4098718983387
 20
-1297.157945774888
 10
782.4027165470209
 20
-1277.232116379911
 10
770.5150700656178
 20
-1260.321434553628
 10
758.8932988282907
 20
-1243.223684042493
 10
746.3248153516133
 20
-1225.007224899911
 10
749.4005966008443
 20
-1223.875511033007
 10
751.0277151985278
 20
-1222.855762769373
 10
752.7271808014015
 20
-1222.716064147446
 10
771.3449935680145
 20
-1221.186269497221
 10
789.9681462326295
 20
-1219.708323534049
 10
808.6026677123459
 20
-1218.398153721008
 10
818.6675141725032
 20
-1217.690531108338
 10
828.7832619184571
 20
-1217.633342523283
 10
838.8297632451536
 20
-1216.752776117252
 10
857.1867822835331
 20
-1215.143572016092
 10
875.5248532967438
 20
-1213.280808887218
 10
893.840961826238
 20
-1211.253542448923
 10
906.3000635212548
 20
-1209.874470726177
 10
919.0359786385155
 20
-1209.293799882138
 10
931.0745203021726
 20
-1206.153853729496
 10
961.0968910357675
 20
-1198.323410073683
 10
975.2870670847372
 20
-1174.292663280645
 10
976.9661204968629
 20
-1145.786048433171
 10
977.6607378740745
 20
-1133.992108548967
 10
972.297154840478
 20
-1123.925367286293
 10
965.9027131103059
 20
-1114.264975036104
 10
956.2034774085187
 20
-1099.61195040869
 10
943.2326067791677
 20
-1088.597204995864
 10
926.0116079770494
 20
-1086.331107313053
 10
909.9394623918728
 20
-1084.216249322047
 10
893.32660907029
 20
-1085.250208604555
 10
877.0181299348253
 20
-1086.130172118877
 10
853.5839014250589
 20
-1087.394694416738
 10
830.2128042900616
 20
-1089.813754339092
 10
806.8089787479506
 20
-1091.667043455382
 10
792.2069415337191
 20
-1092.823217500232
 10
777.4983647416083
 20
-1093.131725800936
 10
763.0075179841614
 20
-1095.083716902878
 10
737.0482067384809
 20
-1098.580574947796
 10
711.2681265854227
 20
-1103.402244461562
 10
685.3160069765654
 20
-1106.961028097826
 10
665.471352643962
 20
-1109.682309021624
 10
648.2319225809975
 20
-1117.859673792803
 10
633.1406818078606
 20
-1130.430224326767
 10
618.127730829628
 20
-1142.935404173901
 10
608.1093931585215
 20
-1158.827457392585
 10
602.2324478339259
 20
-1177.779272166493
 10
596.4351703424296
 20
-1196.474082817201
 10
597.0558042940973
 20
-1214.918004389198
 10
603.9962936586817
 20
-1232.412888282393
 10
608.9139090817125
 20
-1244.808686347871
 10
617.0464876115824
 20
-1256.121949284494
 10
624.8439014144264
 20
-1267.138934009389
 10
641.2779542803279
 20
-1290.358791452584
 10
658.8959142097328
 20
-1312.744505151414
 10
675.1556883077736
 20
-1336.081237458948
 10
689.5126931056186
 20
-1356.68687032055
 10
702.6957816168608
 20
-1378.112091398093
 10
716.3774615722076
 20
-1399.188152048206
 10
725.1267983213225
 20
-1412.666399115149
 10
733.9973163041328
 20
-1426.069284718354
 10
742.5334016427106
 20
-1439.681804381833
 10
755.6201136077548
 20
-1460.551159302831
 10
768.1036754807171
 20
-1481.8068816825
 10
781.5065610839221
 20
-1502.46780832664
 10
797.6184975219496
 20
-1527.304879718
 10
814.2638208684825
 20
-1551.801231165869
 10
830.9769264686901
 20
-1576.240394028683
 10
847.8448891109554
 20
-1600.906244174426
 10
867.6309337566166
 20
-1621.589563939221
 10
899.5798018855671
 20
-1625.569338243781
 10
917.5909333372274
 20
-1627.813128933324
 10
933.8202614039166
 20
-1624.09587090474
 10
948.4094656374637
 20
-1613.293257246416
 10
966.299846492366
 20
-1600.046176086534
 10
974.4363007546549
 20
-1580.116126449589
 10
983.3482460106734
 20
-1560.977415245606
 10
993.3400564465435
 20
-1539.519810270502
 10
1001.960115987576
 20
-1517.427101942692
 10
1011.558324264256
 20
-1495.779844461124
 10
1018.066454145442
 20
-1481.102015146217
 10
1025.463504789207
 20
-1466.819510538243
 10
1032.023311102671
 20
-1452.163213070119
 10
1036.537936481317
 20
-1442.076317998856
 10
1039.697002913906
 20
-1431.356128250019
 10
1044.552606618202
 20
-1421.454579315862
 10
1050.395316306411
 20
-1409.539974962285
 10
1057.316082499345
 20
-1398.148249975984
 10
1063.910512022435
 20
-1386.610452941108
 10
1075.483362903872
 20
-1366.362593245649
 10
1087.879333224124
 20
-1346.546231759717
 10
1098.567139075403
 20
-1325.844394606692
 10
1106.841569411876
 20
-1309.817035262823
 10
1113.273821064997
 20
-1292.811182673759
 10
1120.08977022779
 20
-1276.062937099606
 10
1127.768888064412
 20
-1257.193718489955
 10
1134.907556546787
 20
-1238.104961170508
 10
1142.381346692488
 20
-1219.151165466698
 10
1147.513247054702
 20
-1206.136283742522
 10
1155.838750931745
 20
-1196.410348550724
 10
1170.163888596348
 20
-1194.824140461929
 10
1170.163888596348
 20
-1194.824140461929
 10
1170.163888596348
 20
-1066.728169492432
 10
1170.163888596348
 20
-1066.728169492432
 10
1156.825856915654
 20
-1067.482128639379
 10
1143.48911714577
 20
-1068.264337569305
 10
1130.15039644598
 20
-1069.004688589085
 97
        0
 97
        1
330
8C
 75
     2
 76
     1
 98
        1
 10
0.0
 20
0.0
450
        0
451
        0
460
0.0
461
0.0
452
        0
462
0.0
453
        0
470

  0
SPLINE
  5
8E
330
70
100
AcDbEntity
  8
2023-014
100
AcDbSpline
210
0.0
220
0.0
230
1.0
 70
     9
 71
     3
 72
    80
 73
    76
 74
     0
 42
0.0000000001
 43
0.0000000001
 40
0.0
 40
0.0
 40
0.0
 40
0.0
 40
1.0
 40
1.0
 40
1.0
 40
2.0
 40
2.0
 40
2.0
 40
3.0
 40
3.0
 40
3.0
 40
4.0
 40
4.0
 40
4.0
 40
5.0
 40
5.0
 40
5.0
 40
6.0
 40
6.0
 40
6.0
 40
7.0
 40
7.0
 40
7.0
 40
8.0
 40
8.0
 40
8.0
 40
9.0
 40
9.0
 40
9.0
 40
10.0
 40
10.0
 40
10.0
 40
11.0
 40
11.0
 40
11.0
 40
12.0
 40
12.0
 40
12.0
 40
13.0
 40
13.0
 40
13.0
 40
14.0
 40
14.0
 40
14.0
 40
15.0
 40
15.0
 40
15.0
 40
16.0
 40
16.0
 40
16.0
 40
17.0
 40
17.0
 40
17.0
 40
18.0
 40
18.0
 40
18.0
 40
19.0
 40
19.0
 40
19.0
 40
20.0
 40
20.0
 40
20.0
 40
21.0
 40
21.0
 40
21.0
 40
22.0
 40
22.0
 40
22.0
 40
23.0
 40
23.0
 40
23.0
 40
24.0
 40
24.0
 40
24.0
 40
25.0
 40
25.0
 40
25.0
 40
25.0
 10
1118.797665735347
 20
-1912.058937919148
 30
0.0
 10
1117.156290466455
 20
-1916.2898990581
 30
0.0
 10
1116.157855218236
 20
-1920.750329597995
 30
0.0
 10
1115.800828848171
 20
-1925.273842123986
 30
0.0
 10
1115.641743705784
 20
-1927.289445716949
 30
0.0
 10
1115.536370497322
 20
-1929.370422856159
 30
0.0
 10
1115.795509128641
 20
-1931.382069069539
 30
0.0
 10
1116.019912805987
 20
-1933.124074132616
 30
0.0
 10
1116.553417687485
 20
-1935.000983664692
 30
0.0
 10
1117.940834917007
 20
-1936.187361306353
 30
0.0
 10
1119.629825957694
 20
-1937.631614098524
 30
0.0
 10
1121.822202725662
 20
-1937.643321376724
 30
0.0
 10
1123.881551095982
 20
-1937.123843435514
 30
0.0
 10
1125.892199128277
 20
-1936.616650327552
 30
0.0
 10
1127.854945125222
 20
-1935.823040693774
 30
0.0
 10
1129.771951328371
 20
-1935.04172461174
 30
0.0
 10
1133.767936745565
 20
-1933.413076950143
 30
0.0
 10
1137.641446238591
 20
-1931.510704807705
 30
0.0
 10
1141.563331826439
 20
-1929.71571148764
 30
0.0
 10
1145.858632881262
 20
-1927.749811022579
 30
0.0
 10
1150.242405024995
 20
-1925.939761697193
 30
0.0
 10
1154.852415509568
 20
-1924.853288544046
 30
0.0
 10
1155.432070694222
 20
-1924.716677185283
 30
0.0
 10
1155.775929925926
 20
-1924.055847874228
 30
0.0
 10
1155.622396468667
 20
-1923.497168162337
 30
0.0
 10
1155.459399016961
 20
-1922.904050733833
 30
0.0
 10
1154.847709339001
 20
-1922.590156794997
 30
0.0
 10
1154.266276086957
 20
-1922.727187203235
 30
0.0
 10
1146.224797121927
 20
-1924.622378339208
 30
0.0
 10
1138.948993088074
 20
-1928.668277535171
 30
0.0
 10
1131.436427490946
 20
-1931.961276485064
 30
0.0
 10
1129.595989895908
 20
-1932.767999433365
 30
0.0
 10
1127.732901679899
 20
-1933.52454913815
 30
0.0
 10
1125.837048981692
 20
-1934.191745679223
 30
0.0
 10
1124.204643280908
 20
-1934.766228833013
 30
0.0
 10
1122.206504694768
 20
-1935.610371664886
 30
0.0
 10
1120.488117580367
 20
-1935.127351027876
 30
0.0
 10
1120.145422176836
 20
-1935.03102293584
 30
0.0
 10
1119.840007703869
 20
-1934.879513799447
 30
0.0
 10
1119.550383859133
 20
-1934.669315264271
 30
0.0
 10
1119.696129416267
 20
-1934.775092130283
 30
0.0
 10
1119.406830387344
 20
-1934.546072375233
 30
0.0
 10
1119.413752624959
 20
-1934.552354221556
 30
0.0
 10
1119.357299228668
 20
-1934.501123452015
 30
0.0
 10
1119.302188179135
 20
-1934.448000766604
 30
0.0
 10
1119.24880850855
 20
-1934.393626982155
 30
0.0
 10
1119.182040328698
 20
-1934.32561534814
 30
0.0
 10
1119.118465013202
 20
-1934.254953202867
 30
0.0
 10
1119.056382059733
 20
-1934.182690763446
 30
0.0
 10
1119.009082255257
 20
-1934.124732010749
 30
0.0
 10
1119.0070313713
 20
-1934.124695218733
 30
0.0
 10
1119.050229407857
 20
-1934.182580387397
 30
0.0
 10
1119.015746350785
 20
-1934.13670830942
 30
0.0
 10
1118.982431629079
 20
-1934.090010024403
 30
0.0
 10
1118.950285242747
 20
-1934.042485532345
 30
0.0
 10
1118.501364450464
 20
-1933.375539535896
 30
0.0
 10
1118.31959770428
 20
-1932.867422141668
 30
0.0
 10
1118.135715001544
 20
-1932.065150547278
 30
0.0
 10
1117.95425773665
 20
-1931.273461024277
 30
0.0
 10
1117.900809263819
 20
-1930.647064931227
 30
0.0
 10
1117.876477969862
 20
-1929.781563773778
 30
0.0
 10
1117.847310458524
 20
-1928.74403100373
 30
0.0
 10
1117.867640253817
 20
-1927.703570365255
 30
0.0
 10
1117.917372857416
 20
-1926.666999225406
 30
0.0
 10
1118.147771680473
 20
-1921.86482211528
 30
0.0
 10
1119.1856161757
 20
-1917.125496325052
 30
0.0
 10
1120.923767076158
 20
-1912.645077341754
 30
0.0
 10
1121.139168278414
 20
-1912.089839223274
 30
0.0
 10
1120.686475841589
 20
-1911.435324842311
 30
0.0
 10
1120.153786117056
 20
-1911.288956960046
 30
0.0
 10
1119.530418686968
 20
-1911.117673440931
 30
0.0
 10
1119.013852519254
 20
-1911.501674812542
 30
0.0
 10
1118.797665735347
 20
-1912.058937919148
 30
0.0
 10
1118.797665735347
 20
-1912.058937919148
 30
0.0
 10
1118.797665735347
 20
-1912.058937919148
 30
0.0
 10
1118.797665735347
 20
-1912.058937919148
 30
0.0
  0
HATCH
  5
8F
330
70
100
AcDbEntity
  8
2023-014
 62
   250
420
  2301728
440
 33554687
100
AcDbHatch
 10
0.0
 20
0.0
 30
0.0
210
0.0
220
0.0
230
1.0
  2
SOLID
 70
     1
 71
     1
 91
        1
 92
        1
 93
        1
 72
     4
 94
        3
 73
     0
 74
     0
 95
       80
 96
       76
 40
0.0
 40
0.0
 40
0.0
 40
0.0
 40
1.0
 40
1.0
 40
1.0
 40
2.0
 40
2.0
 40
2.0
 40
3.0
 40
3.0
 40
3.0
 40
4.0
 40
4.0
 40
4.0
 40
5.0
 40
5.0
 40
5.0
 40
6.0
 40
6.0
 40
6.0
 40
7.0
 40
7.0
 40
7.0
 40
8.0
 40
8.0
 40
8.0
 40
9.0
 40
9.0
 40
9.0
 40
10.0
 40
10.0
 40
10.0
 40
11.0
 40
11.0
 40
11.0
 40
12.0
 40
12.0
 40
12.0
 40
13.0
 40
13.0
 40
13.0
 40
14.0
 40
14.0
 40
14.0
 40
15.0
 40
15.0
 40
15.0
 40
16.0
 40
16.0
 40
16.0
 40
17.0
 40
17.0
 40
17.0
 40
18.0
 40
18.0
 40
18.0
 40
19.0
 40
19.0
 40
19.0
 40
20.0
 40
20.0
 40
20.0
 40
21.0
 40
21.0
 40
21.0
 40
22.0
 40
22.0
 40
22.0
 40
23.0
 40
23.0
 40
23.0
 40
24.0
 40
24.0
 40
24.0
 40
25.0
 40
25.0
 40
25.0
 40
25.0
 10
1118.797665735347
 20
-1912.058937919148
 10
1117.156290466455
 20
-1916.2898990581
 10
1116.157855218236
 20
-1920.750329597995
 10
1115.800828848171
 20
-1925.273842123986
 10
1115.641743705784
 20
-1927.289445716949
 10
1115.536370497322
 20
-1929.370422856159
 10
1115.795509128641
 20
-1931.382069069539
 10
1116.019912805987
 20
-1933.124074132616
 10
1116.553417687485
 20
-1935.000983664692
 10
1117.940834917007
 20
-1936.187361306353
 10
1119.629825957694
 20
-1937.631614098524
 10
1121.822202725662
 20
-1937.643321376724
 10
1123.881551095982
 20
-1937.123843435514
 10
1125.892199128277
 20
-1936.616650327552
 10
1127.854945125222
 20
-1935.823040693774
 10
1129.771951328371
 20
-1935.04172461174
 10
1133.767936745565
 20
-1933.413076950143
 10
1137.641446238591
 20
-1931.510704807705
 10
1141.563331826439
 20
-1929.71571148764
 10
1145.858632881262
 20
-1927.749811022579
 10
1150.242405024995
 20
-1925.939761697193
 10
1154.852415509568
 20
-1924.853288544046
 10
1155.432070694222
 20
-1924.716677185283
 10
1155.775929925926
 20
-1924.055847874228
 10
1155.622396468667
 20
-1923.497168162337
 10
1155.459399016961
 20
-1922.904050733833
 10
1154.847709339001
 20
-1922.590156794997
 10
1154.266276086957
 20
-1922.727187203235
 10
1146.224797121927
 20
-1924.622378339208
 10
1138.948993088074
 20
-1928.668277535171
 10
1131.436427490946
 20
-1931.961276485064
 10
1129.595989895908
 20
-1932.767999433365
 10
1127.732901679899
 20
-1933.52454913815
 10
1125.837048981692
 20
-1934.191745679223
 10
1124.204643280908
 20
-1934.766228833013
 10
1122.206504694768
 20
-1935.610371664886
 10
1120.488117580367
 20
-1935.127351027876
 10
1120.145422176836
 20
-1935.03102293584
 10
1119.840007703869
 20
-1934.879513799447
 10
1119.550383859133
 20
-1934.669315264271
 10
1119.696129416267
 20
-1934.775092130283
 10
1119.406830387344
 20
-1934.546072375233
 10
1119.413752624959
 20
-1934.552354221556
 10
1119.357299228668
 20
-1934.501123452015
 10
1119.302188179135
 20
-1934.448000766604
 10
1119.24880850855
 20
-1934.393626982155
 10
1119.182040328698
 20
-1934.32561534814
 10
1119.118465013202
 20
-1934.254953202867
 10
1119.056382059733
 20
-1934.182690763446
 10
1119.009082255257
 20
-1934.124732010749
 10
1119.0070313713
 20
-1934.124695218733
 10
1119.050229407857
 20
-1934.182580387397
 10
1119.015746350785
 20
-1934.13670830942
 10
1118.982431629079
 20
-1934.090010024403
 10
1118.950285242747
 20
-1934.042485532345
 10
1118.501364450464
 20
-1933.375539535896
 10
1118.31959770428
 20
-1932.867422141668
 10
1118.135715001544
 20
-1932.065150547278
 10
1117.95425773665
 20
-1931.273461024277
 10
1117.900809263819
 20
-1930.647064931227
 10
1117.876477969862
 20
-1929.781563773778
 10
1117.847310458524
 20
-1928.74403100373
 10
1117.867640253817
 20
-1927.703570365255
 10
1117.917372857416
 20
-1926.666999225406
 10
1118.147771680473
 20
-1921.86482211528
 10
1119.1856161757
 20
-1917.125496325052
 10
1120.923767076158
 20
-1912.645077341754
 10
1121.139168278414
 20
-1912.089839223274
 10
1120.686475841589
 20
-1911.435324842311
 10
1120.153786117056
 20
-1911.288956960046
 10
1119.530418686968
 20
-1911.117673440931
 10
1119.013852519254
 20
-1911.501674812542
 10
1118.797665735347
 20
-1912.058937919148
 10
1118.797665735347
 20
-1912.058937919148
 10
1118.797665735347
 20
-1912.058937919148
 10
1118.797665735347
 20
-1912.058937919148
 97
        0
 97
        1
330
8E
 75
     2
 76
     1
 98
        1
 10
0.0
 20
0.0
450
        0
451
        0
460
0.0
461
0.0
452
        0
462
0.0
453
        0
470

  0
SPLINE
  5
90
330
70
100
AcDbEntity
  8
2023-014
100
AcDbSpline
210
0.0
220
0.0
230
1.0
 70
     9
 71
     3
 72
    83
 73
    79
 74
     0
 42
0.0000000001
 43
0.0000000001
 40
0.0
 40
0.0
 40
0.0
 40
0.0
 40
1.0
 40
1.0
 40
1.0
 40
2.0
 40
2.0
 40
2.0
 40
3.0
 40
3.0
 40
3.0
 40
4.0
 40
4.0
 40
4.0
 40
5.0
 40
5.0
 40
5.0
 40
6.0
 40
6.0
 40
6.0
 40
7.0
 40
7.0
 40
7.0
 40
8.0
 40
8.0
 40
8.0
 40
9.0
 40
9.0
 40
9.0
 40
10.0
 40
10.0
 40
10.0
 40
11.0
 40
11.0
 40
11.0
 40
12.0
 40
12.0
 40
12.0
 40
13.0
 40
13.0
 40
13.0
 40
14.0
 40
14.0
 40
14.0
 40
15.0
 40
15.0
 40
15.0
 40
16.0
 40
16.0
 40
16.0
 40
17.0
 40
17.0
 40
17.0
 40
18.0
 40
18.0
 40
18.0
 40
19.0
 40
19.0
 40
19.0
 40
20.0
 40
20.0
 40
20.0
 40
21.0
 40
21.0
 40
21.0
 40
22.0
 40
22.0
 40
22.0
 40
23.0
 40
23.0
 40
23.0
 40
24.0
 40
24.0
 40
24.0
 40
25.0
 40
25.0
 40
25.0
 40
26.0
 40
26.0
 40
26.0
 40
26.0
 10
1130.36684079728
 20
-1925.118993039409
 30
0.0
 10
1132.387145530916
 20
-1921.930412262119
 30
0.0
 10
1134.407450264554
 20
-1918.741831484832
 30
0.0
 10
1136.42775499819
 20
-1915.553250707543
 30
0.0
 10
1135.793144020258
 20
-1915.553250707543
 30
0.0
 10
1135.158533042329
 20
-1915.553250707543
 30
0.0
 10
1134.523922064401
 20
-1915.553250707543
 30
0.0
 10
1136.069990210579
 20
-1917.59529563508
 30
0.0
 10
1136.734490885586
 20
-1920.070713152297
 30
0.0
 10
1137.465679415851
 20
-1922.483533501561
 30
0.0
 10
1138.198886075116
 20
-1924.903013395541
 30
0.0
 10
1138.947990885111
 20
-1927.318605135837
 30
0.0
 10
1139.786958430727
 20
-1929.703868358849
 30
0.0
 10
1141.459300309837
 20
-1934.458492779548
 30
0.0
 10
1143.485865874256
 20
-1939.162321549741
 30
0.0
 10
1146.429582802051
 20
-1943.280482407757
 30
0.0
 10
1147.257341248156
 20
-1944.438488600697
 30
0.0
 10
1148.147884118194
 20
-1945.555304848955
 30
0.0
 10
1149.110697577563
 20
-1946.604068303824
 30
0.0
 10
1149.541822598413
 20
-1947.073679693184
 30
0.0
 10
1150.03722095509
 20
-1947.464428545822
 30
0.0
 10
1150.682143333226
 20
-1947.57710351511
 30
0.0
 10
1151.467195454876
 20
-1947.714260678041
 30
0.0
 10
1152.385095296323
 20
-1947.361667892904
 30
0.0
 10
1152.527589468531
 20
-1946.48402453749
 30
0.0
 10
1152.622896399683
 20
-1945.897014601895
 30
0.0
 10
1152.375241095935
 20
-1945.297611904105
 30
0.0
 10
1151.75760850943
 20
-1945.127904155781
 30
0.0
 10
1151.231579539848
 20
-1944.983366458239
 30
0.0
 10
1150.497455460728
 20
-1945.30680766346
 30
0.0
 10
1150.40148812772
 20
-1945.897885114883
 30
0.0
 10
1150.39702187201
 20
-1945.925393465487
 30
0.0
 10
1150.392555616301
 20
-1945.952901816092
 30
0.0
 10
1150.388089360586
 20
-1945.980410166696
 30
0.0
 10
1150.5259948276
 20
-1945.626536827927
 30
0.0
 10
1150.749770032629
 20
-1945.438734549902
 30
0.0
 10
1151.059414975678
 20
-1945.417003332621
 30
0.0
 10
1151.099810220111
 20
-1945.42373877412
 30
0.0
 10
1151.14020546454
 20
-1945.430474215618
 30
0.0
 10
1151.180600708973
 20
-1945.437209657117
 30
0.0
 10
1151.119057550682
 20
-1945.424673748469
 30
0.0
 10
1151.058713931067
 20
-1945.407830755729
 30
0.0
 10
1150.999569850132
 20
-1945.386680678901
 30
0.0
 10
1151.218814647977
 20
-1945.462188986809
 30
0.0
 10
1150.946810719958
 20
-1945.34480911917
 30
0.0
 10
1150.91160424557
 20
-1945.321014497445
 30
0.0
 10
1151.122418942372
 20
-1945.463495562421
 30
0.0
 10
1150.827165659227
 20
-1945.215112750441
 30
0.0
 10
1150.818389412565
 20
-1945.205857977286
 30
0.0
 10
1150.41792243559
 20
-1944.783555463381
 30
0.0
 10
1150.036432268471
 20
-1944.34171259826
 30
0.0
 10
1149.664223343748
 20
-1943.894424094391
 30
0.0
 10
1148.952248181167
 20
-1943.038833902673
 30
0.0
 10
1148.293829796871
 20
-1942.141431760115
 30
0.0
 10
1147.676000514043
 20
-1941.215747968754
 30
0.0
 10
1146.386308936845
 20
-1939.283423583932
 30
0.0
 10
1145.281105998451
 20
-1937.232628567048
 30
0.0
 10
1144.309361904358
 20
-1935.123808176456
 30
0.0
 10
1142.358355903462
 20
-1930.889852691814
 30
0.0
 10
1140.963314529773
 20
-1926.421092225929
 30
0.0
 10
1139.613024470572
 20
-1921.967497340943
 30
0.0
 10
1138.824708894615
 20
-1919.367435085504
 30
0.0
 10
1138.093497935105
 20
-1916.640526331828
 30
0.0
 10
1136.42775499819
 20
-1914.4404150862
 30
0.0
 10
1135.930624215132
 20
-1913.78380535242
 30
0.0
 10
1135.00311455841
 20
-1913.684121270924
 30
0.0
 10
1134.523922064401
 20
-1914.4404150862
 30
0.0
 10
1132.503617330765
 20
-1917.628995863491
 30
0.0
 10
1130.483312597126
 20
-1920.81757664078
 30
0.0
 10
1128.46300786349
 20
-1924.00615741807
 30
0.0
 10
1128.144273711416
 20
-1924.509205088779
 30
0.0
 10
1128.357765882958
 20
-1925.221609196905
 30
0.0
 10
1128.858506519716
 20
-1925.514491695634
 30
0.0
 10
1129.38935359982
 20
-1925.824983411009
 30
0.0
 10
1130.047303152909
 20
-1925.623308835689
 30
0.0
 10
1130.36684079728
 20
-1925.118993039409
 30
0.0
 10
1130.36684079728
 20
-1925.118993039409
 30
0.0
 10
1130.36684079728
 20
-1925.118993039409
 30
0.0
 10
1130.36684079728
 20
-1925.118993039409
 30
0.0
  0
HATCH
  5
91
330
70
100
AcDbEntity
  8
2023-014
 62
   250
420
  2301728
440
 33554687
100
AcDbHatch
 10
0.0
 20
0.0
 30
0.0
210
0.0
220
0.0
230
1.0
  2
SOLID
 70
     1
 71
     1
 91
        1
 92
        1
 93
        1
 72
     4
 94
        3
 73
     0
 74
     0
 95
       83
 96
       79
 40
0.0
 40
0.0
 40
0.0
 40
0.0
 40
1.0
 40
1.0
 40
1.0
 40
2.0
 40
2.0
 40
2.0
 40
3.0
 40
3.0
 40
3.0
 40
4.0
 40
4.0
 40
4.0
 40
5.0
 40
5.0
 40
5.0
 40
6.0
 40
6.0
 40
6.0
 40
7.0
 40
7.0
 40
7.0
 40
8.0
 40
8.0
 40
8.0
 40
9.0
 40
9.0
 40
9.0
 40
10.0
 40
10.0
 40
10.0
 40
11.0
 40
11.0
 40
11.0
 40
12.0
 40
12.0
 40
12.0
 40
13.0
 40
13.0
 40
13.0
 40
14.0
 40
14.0
 40
14.0
 40
15.0
 40
15.0
 40
15.0
 40
16.0
 40
16.0
 40
16.0
 40
17.0
 40
17.0
 40
17.0
 40
18.0
 40
18.0
 40
18.0
 40
19.0
 40
19.0
 40
19.0
 40
20.0
 40
20.0
 40
20.0
 40
21.0
 40
21.0
 40
21.0
 40
22.0
 40
22.0
 40
22.0
 40
23.0
 40
23.0
 40
23.0
 40
24.0
 40
24.0
 40
24.0
 40
25.0
 40
25.0
 40
25.0
 40
26.0
 40
26.0
 40
26.0
 40
26.0
 10
1130.36684079728
 20
-1925.118993039409
 10
1132.387145530916
 20
-1921.930412262119
 10
1134.407450264554
 20
-1918.741831484832
 10
1136.42775499819
 20
-1915.553250707543
 10
1135.793144020258
 20
-1915.553250707543
 10
1135.158533042329
 20
-1915.553250707543
 10
1134.523922064401
 20
-1915.553250707543
 10
1136.069990210579
 20
-1917.59529563508
 10
1136.734490885586
 20
-1920.070713152297
 10
1137.465679415851
 20
-1922.483533501561
 10
1138.198886075116
 20
-1924.903013395541
 10
1138.947990885111
 20
-1927.318605135837
 10
1139.786958430727
 20
-1929.703868358849
 10
1141.459300309837
 20
-1934.458492779548
 10
1143.485865874256
 20
-1939.162321549741
 10
1146.429582802051
 20
-1943.280482407757
 10
1147.257341248156
 20
-1944.438488600697
 10
1148.147884118194
 20
-1945.555304848955
 10
1149.110697577563
 20
-1946.604068303824
 10
1149.541822598413
 20
-1947.073679693184
 10
1150.03722095509
 20
-1947.464428545822
 10
1150.682143333226
 20
-1947.57710351511
 10
1151.467195454876
 20
-1947.714260678041
 10
1152.385095296323
 20
-1947.361667892904
 10
1152.527589468531
 20
-1946.48402453749
 10
1152.622896399683
 20
-1945.897014601895
 10
1152.375241095935
 20
-1945.297611904105
 10
1151.75760850943
 20
-1945.127904155781
 10
1151.231579539848
 20
-1944.983366458239
 10
1150.497455460728
 20
-1945.30680766346
 10
1150.40148812772
 20
-1945.897885114883
 10
1150.39702187201
 20
-1945.925393465487
 10
1150.392555616301
 20
-1945.952901816092
 10
1150.388089360586
 20
-1945.980410166696
 10
1150.5259948276
 20
-1945.626536827927
 10
1150.749770032629
 20
-1945.438734549902
 10
1151.059414975678
 20
-1945.417003332621
 10
1151.099810220111
 20
-1945.42373877412
 10
1151.14020546454
 20
-1945.430474215618
 10
1151.180600708973
 20
-1945.437209657117
 10
1151.119057550682
 20
-1945.424673748469
 10
1151.058713931067
 20
-1945.407830755729
 10
1150.999569850132
 20
-1945.386680678901
 10
1151.218814647977
 20
-1945.462188986809
 10
1150.946810719958
 20
-1945.34480911917
 10
1150.91160424557
 20
-1945.321014497445
 10
1151.122418942372
 20
-1945.463495562421
 10
1150.827165659227
 20
-1945.215112750441
 10
1150.818389412565
 20
-1945.205857977286
 10
1150.41792243559
 20
-1944.783555463381
 10
1150.036432268471
 20
-1944.34171259826
 10
1149.664223343748
 20
-1943.894424094391
 10
1148.952248181167
 20
-1943.038833902673
 10
1148.293829796871
 20
-1942.141431760115
 10
1147.676000514043
 20
-1941.215747968754
 10
1146.386308936845
 20
-1939.283423583932
 10
1145.281105998451
 20
-1937.232628567048
 10
1144.309361904358
 20
-1935.123808176456
 10
1142.358355903462
 20
-1930.889852691814
 10
1140.963314529773
 20
-1926.421092225929
 10
1139.613024470572
 20
-1921.967497340943
 10
1138.824708894615
 20
-1919.367435085504
 10
1138.093497935105
 20
-1916.640526331828
 10
1136.42775499819
 20
-1914.4404150862
 10
1135.930624215132
 20
-1913.78380535242
 10
1135.00311455841
 20
-1913.684121270924
 10
1134.523922064401
 20
-1914.4404150862
 10
1132.503617330765
 20
-1917.628995863491
 10
1130.483312597126
 20
-1920.81757664078
 10
1128.46300786349
 20
-1924.00615741807
 10
1128.144273711416
 20
-1924.509205088779
 10
1128.357765882958
 20
-1925.221609196905
 10
1128.858506519716
 20
-1925.514491695634
 10
1129.38935359982
 20
-1925.824983411009
 10
1130.047303152909
 20
-1925.623308835689
 10
1130.36684079728
 20
-1925.118993039409
 10
1130.36684079728
 20
-1925.118993039409
 10
1130.36684079728
 20
-1925.118993039409
 10
1130.36684079728
 20
-1925.118993039409
 97
        0
 97
        1
330
90
 75
     2
 76
     1
 98
        1
 10
0.0
 20
0.0
450
        0
451
        0
460
0.0
461
0.0
452
        0
462
0.0
453
        0
470

  0
SPLINE
  5
92
330
70
100
AcDbEntity
  8
2023-014
100
AcDbSpline
210
0.0
220
0.0
230
1.0
 70
     9
 71
     3
 72
   116
 73
   112
 74
     0
 42
0.0000000001
 43
0.0000000001
 40
0.0
 40
0.0
 40
0.0
 40
0.0
 40
1.0
 40
1.0
 40
1.0
 40
2.0
 40
2.0
 40
2.0
 40
3.0
 40
3.0
 40
3.0
 40
4.0
 40
4.0
 40
4.0
 40
5.0
 40
5.0
 40
5.0
 40
6.0
 40
6.0
 40
6.0
 40
7.0
 40
7.0
 40
7.0
 40
8.0
 40
8.0
 40
8.0
 40
9.0
 40
9.0
 40
9.0
 40
10.0
 40
10.0
 40
10.0
 40
11.0
 40
11.0
 40
11.0
 40
12.0
 40
12.0
 40
12.0
 40
13.0
 40
13.0
 40
13.0
 40
14.0
 40
14.0
 40
14.0
 40
15.0
 40
15.0
 40
15.0
 40
16.0
 40
16.0
 40
16.0
 40
17.0
 40
17.0
 40
17.0
 40
18.0
 40
18.0
 40
18.0
 40
19.0
 40
19.0
 40
19.0
 40
20.0
 40
20.0
 40
20.0
 40
21.0
 40
21.0
 40
21.0
 40
22.0
 40
22.0
 40
22.0
 40
23.0
 40
23.0
 40
23.0
 40
24.0
 40
24.0
 40
24.0
 40
25.0
 40
25.0
 40
25.0
 40
26.0
 40
26.0
 40
26.0
 40
27.0
 40
27.0
 40
27.0
 40
28.0
 40
28.0
 40
28.0
 40
29.0
 40
29.0
 40
29.0
 40
30.0
 40
30.0
 40
30.0
 40
31.0
 40
31.0
 40
31.0
 40
32.0
 40
32.0
 40
32.0
 40
33.0
 40
33.0
 40
33.0
 40
34.0
 40
34.0
 40
34.0
 40
35.0
 40
35.0
 40
35.0
 40
36.0
 40
36.0
 40
36.0
 40
37.0
 40
37.0
 40
37.0
 40
37.0
 10
1134.104995930094
 20
-1948.684214860184
 30
0.0
 10
1134.139567717072
 20
-1948.565643017563
 30
0.0
 10
1134.128855845492
 20
-1948.573105281314
 30
0.0
 10
1134.07286031536
 20
-1948.706601651444
 30
0.0
 10
1134.097015975834
 20
-1948.655537311304
 30
0.0
 10
1134.124961301315
 20
-1948.606638647645
 30
0.0
 10
1134.156696291801
 20
-1948.559905660459
 30
0.0
 10
1134.134308540365
 20
-1948.590000464108
 30
0.0
 10
1134.111920788932
 20
-1948.620095267756
 30
0.0
 10
1134.089533037496
 20
-1948.650190071403
 30
0.0
 10
1134.178687416413
 20
-1948.566914678683
 30
0.0
 10
1134.168064459852
 20
-1948.568313017348
 30
0.0
 10
1134.057664167815
 20
-1948.654385087396
 30
0.0
 10
1134.09217963921
 20
-1948.629361248547
 30
0.0
 10
1134.128259226942
 20
-1948.606919862394
 30
0.0
 10
1134.165902931018
 20
-1948.587060928938
 30
0.0
 10
1134.237567169452
 20
-1948.548863991732
 30
0.0
 10
1134.214169038693
 20
-1948.556990013552
 30
0.0
 10
1134.095708538736
 20
-1948.611438994391
 30
0.0
 10
1134.218484817871
 20
-1948.580988467176
 30
0.0
 10
1134.203297478369
 20
-1948.576519456571
 30
0.0
 10
1134.050146520231
 20
-1948.59803196258
 30
0.0
 10
1134.106623132326
 20
-1948.592890722977
 30
0.0
 10
1134.163127210993
 20
-1948.592574056482
 30
0.0
 10
1134.219658756221
 20
-1948.597081963098
 30
0.0
 10
1133.852181904464
 20
-1948.229605111336
 30
0.0
 10
1133.484705052702
 20
-1947.862128259578
 30
0.0
 10
1133.117228200941
 20
-1947.494651407818
 30
0.0
 10
1133.107728944538
 20
-1947.629265219462
 30
0.0
 10
1133.0959748981
 20
-1947.763432620625
 30
0.0
 10
1133.080353448097
 20
-1947.897487116155
 30
0.0
 10
1133.103589328947
 20
-1947.69808985886
 30
0.0
 10
1133.072524155366
 20
-1947.937283790175
 30
0.0
 10
1133.060711714187
 20
-1948.00456669806
 30
0.0
 10
1133.019907380639
 20
-1948.23698556675
 30
0.0
 10
1132.967985145737
 20
-1948.467494780965
 30
0.0
 10
1132.905357315082
 20
-1948.69500225051
 30
0.0
 10
1132.851665073705
 20
-1948.890049497753
 30
0.0
 10
1132.789965507498
 20
-1949.082864031412
 30
0.0
 10
1132.720859240541
 20
-1949.272991630842
 30
0.0
 10
1132.707599379046
 20
-1949.309472629544
 30
0.0
 10
1132.585078030257
 20
-1949.613714733115
 30
0.0
 10
1132.627196386397
 20
-1949.517314104659
 30
0.0
 10
1132.669464860509
 20
-1949.420569885709
 30
0.0
 10
1132.531732696461
 20
-1949.719180214288
 30
0.0
 10
1132.514774294432
 20
-1949.753617388233
 30
0.0
 10
1132.320968715328
 20
-1950.147175485735
 30
0.0
 10
1132.092592220498
 20
-1950.522158693693
 30
0.0
 10
1131.833503692464
 20
-1950.87609305859
 30
0.0
 10
1131.532514875384
 20
-1951.287266361489
 30
0.0
 10
1131.230926682194
 20
-1951.684954886954
 30
0.0
 10
1131.108679906296
 20
-1952.193256850878
 30
0.0
 10
1130.816234246144
 20
-1953.40924559416
 30
0.0
 10
1131.635378035329
 20
-1954.669005932286
 30
0.0
 10
1132.950313458225
 20
-1954.613372377158
 30
0.0
 10
1133.471832786607
 20
-1954.591307434806
 30
0.0
 10
1134.010948191825
 20
-1954.432021532807
 30
0.0
 10
1134.510679563238
 20
-1954.290198131945
 30
0.0
 10
1135.014251442527
 20
-1954.147284797729
 30
0.0
 10
1135.507495873299
 20
-1953.972713044484
 30
0.0
 10
1135.991502458527
 20
-1953.773649045473
 30
0.0
 10
1136.52276790732
 20
-1953.555148248169
 30
0.0
 10
1136.960277042029
 20
-1953.031821565731
 30
0.0
 10
1136.761483417629
 20
-1952.417528663764
 30
0.0
 10
1136.595832083003
 20
-1951.905648871998
 30
0.0
 10
1135.976455527946
 20
-1951.412666695319
 30
0.0
 10
1135.40536303592
 20
-1951.647547704662
 30
0.0
 10
1134.60136786494
 20
-1951.978217779833
 30
0.0
 10
1133.784277051089
 20
-1952.189953800952
 30
0.0
 10
1132.944700890058
 20
-1952.403034383912
 30
0.0
 10
1132.816264902241
 20
-1952.425926915944
 30
0.0
 10
1132.818135758293
 20
-1952.427752543509
 30
0.0
 10
1132.950313458225
 20
-1952.408511266598
 30
0.0
 10
1132.918277680191
 20
-1952.40981064022
 30
0.0
 10
1132.886241902153
 20
-1952.411110013842
 30
0.0
 10
1132.854206124118
 20
-1952.41240938746
 30
0.0
 10
1132.997462862499
 20
-1952.449976110968
 30
0.0
 10
1133.055221565844
 20
-1952.467821530456
 30
0.0
 10
1133.172857185113
 20
-1952.569675432799
 30
0.0
 10
1132.97888807369
 20
-1952.401728759372
 30
0.0
 10
1133.370804999296
 20
-1952.764103606268
 30
0.0
 10
1133.264296428093
 20
-1952.752694632239
 30
0.0
 10
1133.227353212022
 20
-1952.748737352672
 30
0.0
 10
1133.211520828912
 20
-1952.36338080491
 30
0.0
 10
1133.249319738473
 20
-1952.749544487699
 30
0.0
 10
1133.228693224261
 20
-1952.538818549212
 30
0.0
 10
1133.17540876474
 20
-1952.957319355163
 30
0.0
 10
1133.242987406525
 20
-1952.742874432962
 30
0.0
 10
1133.303133983285
 20
-1952.552013420764
 30
0.0
 10
1133.192540107004
 20
-1952.784772573212
 30
0.0
 10
1133.25906059534
 20
-1952.686583673186
 30
0.0
 10
1133.371159009387
 20
-1952.521118562437
 30
0.0
 10
1133.46733347534
 20
-1952.350039641205
 30
0.0
 10
1133.587690236138
 20
-1952.188733114598
 30
0.0
 10
1134.616203756694
 20
-1950.810281729984
 30
0.0
 10
1135.201031377252
 20
-1949.210161471324
 30
0.0
 10
1135.322089311501
 20
-1947.494651407818
 30
0.0
 10
1135.365154401379
 20
-1946.884376703188
 30
0.0
 10
1134.781540110338
 20
-1946.413004973193
 30
0.0
 10
1134.219658756221
 20
-1946.392220852538
 30
0.0
 10
1133.19049855121
 20
-1946.354151979598
 30
0.0
 10
1132.216211245196
 20
-1947.096005183844
 30
0.0
 10
1131.978894589287
 20
-1948.098075437577
 30
0.0
 10
1131.846253128871
 20
-1948.658154380975
 30
0.0
 10
1132.153977842296
 20
-1949.318697127225
 30
0.0
 10
1132.748875548385
 20
-1949.454195819285
 30
0.0
 10
1133.313955924611
 20
-1949.582903076182
 30
0.0
 10
1133.962843770919
 20
-1949.284452756126
 30
0.0
 10
1134.104995930094
 20
-1948.684214860184
 30
0.0
 10
1134.104995930094
 20
-1948.684214860184
 30
0.0
 10
1134.104995930094
 20
-1948.684214860184
 30
0.0
 10
1134.104995930094
 20
-1948.684214860184
 30
0.0
  0
HATCH
  5
93
330
70
100
AcDbEntity
  8
2023-014
 62
   250
420
  2301728
440
 33554687
100
AcDbHatch
 10
0.0
 20
0.0
 30
0.0
210
0.0
220
0.0
230
1.0
  2
SOLID
 70
     1
 71
     1
 91
        1
 92
        1
 93
        1
 72
     4
 94
        3
 73
     0
 74
     0
 95
      116
 96
      112
 40
0.0
 40
0.0
 40
0.0
 40
0.0
 40
1.0
 40
1.0
 40
1.0
 40
2.0
 40
2.0
 40
2.0
 40
3.0
 40
3.0
 40
3.0
 40
4.0
 40
4.0
 40
4.0
 40
5.0
 40
5.0
 40
5.0
 40
6.0
 40
6.0
 40
6.0
 40
7.0
 40
7.0
 40
7.0
 40
8.0
 40
8.0
 40
8.0
 40
9.0
 40
9.0
 40
9.0
 40
10.0
 40
10.0
 40
10.0
 40
11.0
 40
11.0
 40
11.0
 40
12.0
 40
12.0
 40
12.0
 40
13.0
 40
13.0
 40
13.0
 40
14.0
 40
14.0
 40
14.0
 40
15.0
 40
15.0
 40
15.0
 40
16.0
 40
16.0
 40
16.0
 40
17.0
 40
17.0
 40
17.0
 40
18.0
 40
18.0
 40
18.0
 40
19.0
 40
19.0
 40
19.0
 40
20.0
 40
20.0
 40
20.0
 40
21.0
 40
21.0
 40
21.0
 40
22.0
 40
22.0
 40
22.0
 40
23.0
 40
23.0
 40
23.0
 40
24.0
 40
24.0
 40
24.0
 40
25.0
 40
25.0
 40
25.0
 40
26.0
 40
26.0
 40
26.0
 40
27.0
 40
27.0
 40
27.0
 40
28.0
 40
28.0
 40
28.0
 40
29.0
 40
29.0
 40
29.0
 40
30.0
 40
30.0
 40
30.0
 40
31.0
 40
31.0
 40
31.0
 40
32.0
 40
32.0
 40
32.0
 40
33.0
 40
33.0
 40
33.0
 40
34.0
 40
34.0
 40
34.0
 40
35.0
 40
35.0
 40
35.0
 40
36.0
 40
36.0
 40
36.0
 40
37.0
 40
37.0
 40
37.0
 40
37.0
 10
1134.104995930094
 20
-1948.684214860184
 10
1134.139567717072
 20
-1948.565643017563
 10
1134.128855845492
 20
-1948.573105281314
 10
1134.07286031536
 20
-1948.706601651444
 10
1134.097015975834
 20
-1948.655537311304
 10
1134.124961301315
 20
-1948.606638647645
 10
1134.156696291801
 20
-1948.559905660459
 10
1134.134308540365
 20
-1948.590000464108
 10
1134.111920788932
 20
-1948.620095267756
 10
1134.089533037496
 20
-1948.650190071403
 10
1134.178687416413
 20
-1948.566914678683
 10
1134.168064459852
 20
-1948.568313017348
 10
1134.057664167815
 20
-1948.654385087396
 10
1134.09217963921
 20
-1948.629361248547
 10
1134.128259226942
 20
-1948.606919862394
 10
1134.165902931018
 20
-1948.587060928938
 10
1134.237567169452
 20
-1948.548863991732
 10
1134.214169038693
 20
-1948.556990013552
 10
1134.095708538736
 20
-1948.611438994391
 10
1134.218484817871
 20
-1948.580988467176
 10
1134.203297478369
 20
-1948.576519456571
 10
1134.050146520231
 20
-1948.59803196258
 10
1134.106623132326
 20
-1948.592890722977
 10
1134.163127210993
 20
-1948.592574056482
 10
1134.219658756221
 20
-1948.597081963098
 10
1133.852181904464
 20
-1948.229605111336
 10
1133.484705052702
 20
-1947.862128259578
 10
1133.117228200941
 20
-1947.494651407818
 10
1133.107728944538
 20
-1947.629265219462
 10
1133.0959748981
 20
-1947.763432620625
 10
1133.080353448097
 20
-1947.897487116155
 10
1133.103589328947
 20
-1947.69808985886
 10
1133.072524155366
 20
-1947.937283790175
 10
1133.060711714187
 20
-1948.00456669806
 10
1133.019907380639
 20
-1948.23698556675
 10
1132.967985145737
 20
-1948.467494780965
 10
1132.905357315082
 20
-1948.69500225051
 10
1132.851665073705
 20
-1948.890049497753
 10
1132.789965507498
 20
-1949.082864031412
 10
1132.720859240541
 20
-1949.272991630842
 10
1132.707599379046
 20
-1949.309472629544
 10
1132.585078030257
 20
-1949.613714733115
 10
1132.627196386397
 20
-1949.517314104659
 10
1132.669464860509
 20
-1949.420569885709
 10
1132.531732696461
 20
-1949.719180214288
 10
1132.514774294432
 20
-1949.753617388233
 10
1132.320968715328
 20
-1950.147175485735
 10
1132.092592220498
 20
-1950.522158693693
 10
1131.833503692464
 20
-1950.87609305859
 10
1131.532514875384
 20
-1951.287266361489
 10
1131.230926682194
 20
-1951.684954886954
 10
1131.108679906296
 20
-1952.193256850878
 10
1130.816234246144
 20
-1953.40924559416
 10
1131.635378035329
 20
-1954.669005932286
 10
1132.950313458225
 20
-1954.613372377158
 10
1133.471832786607
 20
-1954.591307434806
 10
1134.010948191825
 20
-1954.432021532807
 10
1134.510679563238
 20
-1954.290198131945
 10
1135.014251442527
 20
-1954.147284797729
 10
1135.507495873299
 20
-1953.972713044484
 10
1135.991502458527
 20
-1953.773649045473
 10
1136.52276790732
 20
-1953.555148248169
 10
1136.960277042029
 20
-1953.031821565731
 10
1136.761483417629
 20
-1952.417528663764
 10
1136.595832083003
 20
-1951.905648871998
 10
1135.976455527946
 20
-1951.412666695319
 10
1135.40536303592
 20
-1951.647547704662
 10
1134.60136786494
 20
-1951.978217779833
 10
1133.784277051089
 20
-1952.189953800952
 10
1132.944700890058
 20
-1952.403034383912
 10
1132.816264902241
 20
-1952.425926915944
 10
1132.818135758293
 20
-1952.427752543509
 10
1132.950313458225
 20
-1952.408511266598
 10
1132.918277680191
 20
-1952.40981064022
 10
1132.886241902153
 20
-1952.411110013842
 10
1132.854206124118
 20
-1952.41240938746
 10
1132.997462862499
 20
-1952.449976110968
 10
1133.055221565844
 20
-1952.467821530456
 10
1133.172857185113
 20
-1952.569675432799
 10
1132.97888807369
 20
-1952.401728759372
 10
1133.370804999296
 20
-1952.764103606268
 10
1133.264296428093
 20
-1952.752694632239
 10
1133.227353212022
 20
-1952.748737352672
 10
1133.211520828912
 20
-1952.36338080491
 10
1133.249319738473
 20
-1952.749544487699
 10
1133.228693224261
 20
-1952.538818549212
 10
1133.17540876474
 20
-1952.957319355163
 10
1133.242987406525
 20
-1952.742874432962
 10
1133.303133983285
 20
-1952.552013420764
 10
1133.192540107004
 20
-1952.784772573212
 10
1133.25906059534
 20
-1952.686583673186
 10
1133.371159009387
 20
-1952.521118562437
 10
1133.46733347534
 20
-1952.350039641205
 10
1133.587690236138
 20
-1952.188733114598
 10
1134.616203756694
 20
-1950.810281729984
 10
1135.201031377252
 20
-1949.210161471324
 10
1135.322089311501
 20
-1947.494651407818
 10
1135.365154401379
 20
-1946.884376703188
 10
1134.781540110338
 20
-1946.413004973193
 10
1134.219658756221
 20
-1946.392220852538
 10
1133.19049855121
 20
-1946.354151979598
 10
1132.216211245196
 20
-1947.096005183844
 10
1131.978894589287
 20
-1948.098075437577
 10
1131.846253128871
 20
-1948.658154380975
 10
1132.153977842296
 20
-1949.318697127225
 10
1132.748875548385
 20
-1949.454195819285
 10
1133.313955924611
 20
-1949.582903076182
 10
1133.962843770919
 20
-1949.284452756126
 10
1134.104995930094
 20
-1948.684214860184
 10
1134.104995930094
 20
-1948.684214860184
 10
1134.104995930094
 20
-1948.684214860184
 10
1134.104995930094
 20
-1948.684214860184
 97
        0
 97
        1
330
92
 75
     2
 76
     1
 98
        1
 10
0.0
 20
0.0
450
        0
451
        0
460
0.0
461
0.0
452
        0
462
0.0
453
        0
470

  0
SPLINE
  5
94
330
70
100
AcDbEntity
  8
2023-014
100
AcDbSpline
210
0.0
220
0.0
230
1.0
 70
     9
 71
     3
 72
   134
 73
   130
 74
     0
 42
0.0000000001
 43
0.0000000001
 40
0.0
 40
0.0
 40
0.0
 40
0.0
 40
1.0
 40
1.0
 40
1.0
 40
2.0
 40
2.0
 40
2.0
 40
3.0
 40
3.0
 40
3.0
 40
4.0
 40
4.0
 40
4.0
 40
5.0
 40
5.0
 40
5.0
 40
6.0
 40
6.0
 40
6.0
 40
7.0
 40
7.0
 40
7.0
 40
8.0
 40
8.0
 40
8.0
 40
9.0
 40
9.0
 40
9.0
 40
10.0
 40
10.0
 40
10.0
 40
11.0
 40
11.0
 40
11.0
 40
12.0
 40
12.0
 40
12.0
 40
13.0
 40
13.0
 40
13.0
 40
14.0
 40
14.0
 40
14.0
 40
15.0
 40
15.0
 40
15.0
 40
16.0
 40
16.0
 40
16.0
 40
17.0
 40
17.0
 40
17.0
 40
18.0
 40
18.0
 40
18.0
 40
19.0
 40
19.0
 40
19.0
 40
20.0
 40
20.0
 40
20.0
 40
21.0
 40
21.0
 40
21.0
 40
22.0
 40
22.0
 40
22.0
 40
23.0
 40
23.0
 40
23.0
 40
24.0
 40
24.0
 40
24.0
 40
25.0
 40
25.0
 40
25.0
 40
26.0
 40
26.0
 40
26.0
 40
27.0
 40
27.0
 40
27.0
 40
28.0
 40
28.0
 40
28.0
 40
29.0
 40
29.0
 40
29.0
 40
30.0
 40
30.0
 40
30.0
 40
31.0
 40
31.0
 40
31.0
 40
32.0
 40
32.0
 40
32.0
 40
33.0
 40
33.0
 40
33.0
 40
34.0
 40
34.0
 40
34.0
 40
35.0
 40
35.0
 40
35.0
 40
36.0
 40
36.0
 40
36.0
 40
37.0
 40
37.0
 40
37.0
 40
38.0
 40
38.0
 40
38.0
 40
39.0
 40
39.0
 40
39.0
 40
40.0
 40
40.0
 40
40.0
 40
41.0
 40
41.0
 40
41.0
 40
42.0
 40
42.0
 40
42.0
 40
43.0
 40
43.0
 40
43.0
 40
43.0
 10
1142.456889106285
 20
-1953.655842896425
 30
0.0
 10
1143.230379211579
 20
-1953.521979108027
 30
0.0
 10
1144.003869316873
 20
-1953.388115319629
 30
0.0
 10
1144.777359422167
 20
-1953.254251531236
 30
0.0
 10
1144.362364029434
 20
-1952.71442870421
 30
0.0
 10
1143.947368636701
 20
-1952.174605877186
 30
0.0
 10
1143.532373243969
 20
-1951.634783050158
 30
0.0
 10
1143.115187827475
 20
-1952.59698330894
 30
0.0
 10
1142.572703508509
 20
-1953.481608555065
 30
0.0
 10
1141.89215373182
 20
-1954.241806748562
 30
0.0
 10
1141.456716214249
 20
-1954.728205871124
 30
0.0
 10
1141.509187141079
 20
-1955.306347227402
 30
0.0
 10
1141.89215373182
 20
-1955.800878991416
 30
0.0
 10
1142.443416729485
 20
-1956.512734984235
 30
0.0
 10
1143.368444556991
 20
-1956.560909953194
 30
0.0
 10
1144.183684576986
 20
-1956.442342253143
 30
0.0
 10
1144.48777555025
 20
-1956.398115563555
 30
0.0
 10
1144.789334824007
 20
-1956.336809949083
 30
0.0
 10
1145.091601582902
 20
-1956.281734922132
 30
0.0
 10
1145.302774038118
 20
-1956.243257887132
 30
0.0
 10
1144.987372184439
 20
-1956.273791554272
 30
0.0
 10
1145.117163681526
 20
-1956.279351909225
 30
0.0
 10
1145.190206121303
 20
-1956.282481096426
 30
0.0
 10
1145.266066979934
 20
-1956.267402715299
 30
0.0
 10
1145.339810191628
 20
-1956.266654815958
 30
0.0
 10
1145.429018004092
 20
-1956.265750075543
 30
0.0
 10
1145.631280616455
 20
-1956.319201660569
 30
0.0
 10
1145.38812883962
 20
-1956.252336098433
 30
0.0
 10
1145.419869784424
 20
-1956.261064704676
 30
0.0
 10
1145.651194680695
 20
-1956.317354770651
 30
0.0
 10
1145.495124562383
 20
-1956.265563011168
 30
0.0
 10
1145.347381915638
 20
-1956.216534717293
 30
0.0
 10
1145.566796359307
 20
-1956.313642426999
 30
0.0
 10
1145.586046815001
 20
-1956.32353457791
 30
0.0
 10
1145.543152926031
 20
-1956.301492875119
 30
0.0
 10
1145.409773608085
 20
-1956.240348932898
 30
0.0
 10
1145.511320142126
 20
-1956.275830330946
 30
0.0
 10
1145.547185015516
 20
-1956.34341244109
 30
0.0
 10
1145.549288052594
 20
-1956.335844632666
 30
0.0
 10
1145.517629253366
 20
-1956.253126905667
 30
0.0
 10
1145.529514698604
 20
-1956.287394336058
 30
0.0
 10
1145.541400143842
 20
-1956.321661766449
 30
0.0
 10
1145.55328558908
 20
-1956.355929196844
 30
0.0
 10
1145.551375974476
 20
-1956.349339326615
 30
0.0
 10
1145.624960009641
 20
-1956.64446786257
 30
0.0
 10
1145.604514592104
 20
-1956.530095481842
 30
0.0
 10
1145.655495670219
 20
-1956.815285415771
 30
0.0
 10
1145.616878649479
 20
-1957.142885360596
 30
0.0
 10
1145.53594127351
 20
-1957.442863740702
 30
0.0
 10
1145.51099458769
 20
-1957.53532369893
 30
0.0
 10
1145.480456671891
 20
-1957.625851447465
 30
0.0
 10
1145.449500665087
 20
-1957.716415334489
 30
0.0
 10
1145.416864331407
 20
-1957.8118951312
 30
0.0
 10
1145.482927593038
 20
-1957.669960974145
 30
0.0
 10
1145.405179945661
 20
-1957.823612782101
 30
0.0
 10
1145.318331079753
 20
-1957.99525122669
 30
0.0
 10
1145.223417985543
 20
-1958.159630601461
 30
0.0
 10
1145.11501972491
 20
-1958.318732410397
 30
0.0
 10
1144.949289261433
 20
-1958.561983698572
 30
0.0
 10
1145.210061777407
 20
-1958.246601580479
 30
0.0
 10
1145.002237848362
 20
-1958.455045156183
 30
0.0
 10
1144.934725601524
 20
-1958.52275869716
 30
0.0
 10
1144.871221702263
 20
-1958.593848102313
 30
0.0
 10
1144.801462763383
 20
-1958.659536586804
 30
0.0
 10
1144.783823824566
 20
-1958.676146288404
 30
0.0
 10
1144.605851543223
 20
-1958.834264102218
 30
0.0
 10
1144.71746606883
 20
-1958.745008260189
 30
0.0
 10
1144.628100739321
 20
-1958.816471877404
 30
0.0
 10
1144.527829426561
 20
-1958.875740109599
 30
0.0
 10
1144.43066987711
 20
-1958.935497371205
 30
0.0
 10
1143.923966251813
 20
-1959.247141684753
 30
0.0
 10
1143.729823922946
 20
-1959.921787622313
 30
0.0
 10
1144.035171220885
 20
-1960.443831648771
 30
0.0
 10
1144.33129098077
 20
-1960.950099602696
 30
0.0
 10
1145.034381003817
 20
-1961.152463556307
 30
0.0
 10
1145.543505498449
 20
-1960.839330304997
 30
0.0
 10
1146.487620758668
 20
-1960.258659203603
 30
0.0
 10
1147.174521827985
 20
-1959.393819763625
 30
0.0
 10
1147.556249323235
 20
-1958.356607955092
 30
0.0
 10
1147.917690314024
 20
-1957.374517672369
 30
0.0
 10
1147.975788900741
 20
-1956.085600883876
 30
0.0
 10
1147.415153075915
 20
-1955.162994709603
 30
0.0
 10
1146.801695295081
 20
-1954.153462476391
 30
0.0
 10
1145.722230841941
 20
-1953.974418560056
 30
0.0
 10
1144.642717192389
 20
-1954.135037520721
 30
0.0
 10
1144.458149013305
 20
-1954.162499099466
 30
0.0
 10
1144.275336602232
 20
-1954.196815651715
 30
0.0
 10
1144.091986263422
 20
-1954.231345303761
 30
0.0
 10
1144.001263119415
 20
-1954.248430838564
 30
0.0
 10
1143.91023672861
 20
-1954.264203359117
 30
0.0
 10
1143.819596862831
 20
-1954.281652567381
 30
0.0
 10
1143.578571481264
 20
-1954.328052703166
 30
0.0
 10
1143.828838662604
 20
-1954.297123134705
 30
0.0
 10
1143.760764837508
 20
-1954.291604176127
 30
0.0
 10
1143.682939819025
 20
-1954.285294657702
 30
0.0
 10
1143.588431620041
 20
-1954.297446999794
 30
0.0
 10
1143.510031157587
 20
-1954.303768392647
 30
0.0
 10
1143.258934908291
 20
-1954.324014166543
 30
0.0
 10
1143.568342864366
 20
-1954.321379429899
 30
0.0
 10
1143.493316094893
 20
-1954.309350246209
 30
0.0
 10
1143.254566075509
 20
-1954.27107100456
 30
0.0
 10
1143.553757586079
 20
-1954.347371302777
 30
0.0
 10
1143.482837631763
 20
-1954.310204778292
 30
0.0
 10
1143.414888732418
 20
-1954.267425062427
 30
0.0
 10
1143.439451652756
 20
-1954.286130933373
 30
0.0
 10
1143.556526392775
 20
-1954.366322391126
 30
0.0
 10
1143.517776960716
 20
-1954.327909097478
 30
0.0
 10
1143.48267682135
 20
-1954.28640388329
 30
0.0
 10
1143.451225974674
 20
-1954.241806748562
 30
0.0
 10
1143.451225974674
 20
-1954.76149749618
 30
0.0
 10
1143.451225974674
 20
-1955.281188243796
 30
0.0
 10
1143.451225974674
 20
-1955.800878991416
 30
0.0
 10
1144.267914979892
 20
-1954.888608460023
 30
0.0
 10
1144.948720845389
 20
-1953.871959298987
 30
0.0
 10
1145.436206177758
 20
-1952.747618671501
 30
0.0
 10
1145.830501553871
 20
-1951.838212211123
 30
0.0
 10
1145.187420388743
 20
-1950.95574312641
 30
0.0
 10
1144.19121999956
 20
-1951.128150190426
 30
0.0
 10
1143.417729894266
 20
-1951.262013978823
 30
0.0
 10
1142.644239788972
 20
-1951.39587776722
 30
0.0
 10
1141.870749683677
 20
-1951.529741555617
 30
0.0
 10
1141.283666479419
 20
-1951.631344900362
 30
0.0
 10
1140.954034163903
 20
-1952.351922146326
 30
0.0
 10
1141.100768724576
 20
-1952.885861937323
 30
0.0
 10
1141.271294180151
 20
-1953.506372372583
 30
0.0
 10
1141.868103016696
 20
-1953.757740950413
 30
0.0
 10
1142.456889106285
 20
-1953.655842896425
 30
0.0
 10
1142.456889106285
 20
-1953.655842896425
 30
0.0
 10
1142.456889106285
 20
-1953.655842896425
 30
0.0
 10
1142.456889106285
 20
-1953.655842896425
 30
0.0
  0
HATCH
  5
95
330
70
100
AcDbEntity
  8
2023-014
 62
   250
420
  2301728
440
 33554687
100
AcDbHatch
 10
0.0
 20
0.0
 30
0.0
210
0.0
220
0.0
230
1.0
  2
SOLID
 70
     1
 71
     1
 91
        1
 92
        1
 93
        1
 72
     4
 94
        3
 73
     0
 74
     0
 95
      134
 96
      130
 40
0.0
 40
0.0
 40
0.0
 40
0.0
 40
1.0
 40
1.0
 40
1.0
 40
2.0
 40
2.0
 40
2.0
 40
3.0
 40
3.0
 40
3.0
 40
4.0
 40
4.0
 40
4.0
 40
5.0
 40
5.0
 40
5.0
 40
6.0
 40
6.0
 40
6.0
 40
7.0
 40
7.0
 40
7.0
 40
8.0
 40
8.0
 40
8.0
 40
9.0
 40
9.0
 40
9.0
 40
10.0
 40
10.0
 40
10.0
 40
11.0
 40
11.0
 40
11.0
 40
12.0
 40
12.0
 40
12.0
 40
13.0
 40
13.0
 40
13.0
 40
14.0
 40
14.0
 40
14.0
 40
15.0
 40
15.0
 40
15.0
 40
16.0
 40
16.0
 40
16.0
 40
17.0
 40
17.0
 40
17.0
 40
18.0
 40
18.0
 40
18.0
 40
19.0
 40
19.0
 40
19.0
 40
20.0
 40
20.0
 40
20.0
 40
21.0
 40
21.0
 40
21.0
 40
22.0
 40
22.0
 40
22.0
 40
23.0
 40
23.0
 40
23.0
 40
24.0
 40
24.0
 40
24.0
 40
25.0
 40
25.0
 40
25.0
 40
26.0
 40
26.0
 40
26.0
 40
27.0
 40
27.0
 40
27.0
 40
28.0
 40
28.0
 40
28.0
 40
29.0
 40
29.0
 40
29.0
 40
30.0
 40
30.0
 40
30.0
 40
31.0
 40
31.0
 40
31.0
 40
32.0
 40
32.0
 40
32.0
 40
33.0
 40
33.0
 40
33.0
 40
34.0
 40
34.0
 40
34.0
 40
35.0
 40
35.0
 40
35.0
 40
36.0
 40
36.0
 40
36.0
 40
37.0
 40
37.0
 40
37.0
 40
38.0
 40
38.0
 40
38.0
 40
39.0
 40
39.0
 40
39.0
 40
40.0
 40
40.0
 40
40.0
 40
41.0
 40
41.0
 40
41.0
 40
42.0
 40
42.0
 40
42.0
 40
43.0
 40
43.0
 40
43.0
 40
43.0
 10
1142.456889106285
 20
-1953.655842896425
 10
1143.230379211579
 20
-1953.521979108027
 10
1144.003869316873
 20
-1953.388115319629
 10
1144.777359422167
 20
-1953.254251531236
 10
1144.362364029434
 20
-1952.71442870421
 10
1143.947368636701
 20
-1952.174605877186
 10
1143.532373243969
 20
-1951.634783050158
 10
1143.115187827475
 20
-1952.59698330894
 10
1142.572703508509
 20
-1953.481608555065
 10
1141.89215373182
 20
-1954.241806748562
 10
1141.456716214249
 20
-1954.728205871124
 10
1141.509187141079
 20
-1955.306347227402
 10
1141.89215373182
 20
-1955.800878991416
 10
1142.443416729485
 20
-1956.512734984235
 10
1143.368444556991
 20
-1956.560909953194
 10
1144.183684576986
 20
-1956.442342253143
 10
1144.48777555025
 20
-1956.398115563555
 10
1144.789334824007
 20
-1956.336809949083
 10
1145.091601582902
 20
-1956.281734922132
 10
1145.302774038118
 20
-1956.243257887132
 10
1144.987372184439
 20
-1956.273791554272
 10
1145.117163681526
 20
-1956.279351909225
 10
1145.190206121303
 20
-1956.282481096426
 10
1145.266066979934
 20
-1956.267402715299
 10
1145.339810191628
 20
-1956.266654815958
 10
1145.429018004092
 20
-1956.265750075543
 10
1145.631280616455
 20
-1956.319201660569
 10
1145.38812883962
 20
-1956.252336098433
 10
1145.419869784424
 20
-1956.261064704676
 10
1145.651194680695
 20
-1956.317354770651
 10
1145.495124562383
 20
-1956.265563011168
 10
1145.347381915638
 20
-1956.216534717293
 10
1145.566796359307
 20
-1956.313642426999
 10
1145.586046815001
 20
-1956.32353457791
 10
1145.543152926031
 20
-1956.301492875119
 10
1145.409773608085
 20
-1956.240348932898
 10
1145.511320142126
 20
-1956.275830330946
 10
1145.547185015516
 20
-1956.34341244109
 10
1145.549288052594
 20
-1956.335844632666
 10
1145.517629253366
 20
-1956.253126905667
 10
1145.529514698604
 20
-1956.287394336058
 10
1145.541400143842
 20
-1956.321661766449
 10
1145.55328558908
 20
-1956.355929196844
 10
1145.551375974476
 20
-1956.349339326615
 10
1145.624960009641
 20
-1956.64446786257
 10
1145.604514592104
 20
-1956.530095481842
 10
1145.655495670219
 20
-1956.815285415771
 10
1145.616878649479
 20
-1957.142885360596
 10
1145.53594127351
 20
-1957.442863740702
 10
1145.51099458769
 20
-1957.53532369893
 10
1145.480456671891
 20
-1957.625851447465
 10
1145.449500665087
 20
-1957.716415334489
 10
1145.416864331407
 20
-1957.8118951312
 10
1145.482927593038
 20
-1957.669960974145
 10
1145.405179945661
 20
-1957.823612782101
 10
1145.318331079753
 20
-1957.99525122669
 10
1145.223417985543
 20
-1958.159630601461
 10
1145.11501972491
 20
-1958.318732410397
 10
1144.949289261433
 20
-1958.561983698572
 10
1145.210061777407
 20
-1958.246601580479
 10
1145.002237848362
 20
-1958.455045156183
 10
1144.934725601524
 20
-1958.52275869716
 10
1144.871221702263
 20
-1958.593848102313
 10
1144.801462763383
 20
-1958.659536586804
 10
1144.783823824566
 20
-1958.676146288404
 10
1144.605851543223
 20
-1958.834264102218
 10
1144.71746606883
 20
-1958.745008260189
 10
1144.628100739321
 20
-1958.816471877404
 10
1144.527829426561
 20
-1958.875740109599
 10
1144.43066987711
 20
-1958.935497371205
 10
1143.923966251813
 20
-1959.247141684753
 10
1143.729823922946
 20
-1959.921787622313
 10
1144.035171220885
 20
-1960.443831648771
 10
1144.33129098077
 20
-1960.950099602696
 10
1145.034381003817
 20
-1961.152463556307
 10
1145.543505498449
 20
-1960.839330304997
 10
1146.487620758668
 20
-1960.258659203603
 10
1147.174521827985
 20
-1959.393819763625
 10
1147.556249323235
 20
-1958.356607955092
 10
1147.917690314024
 20
-1957.374517672369
 10
1147.975788900741
 20
-1956.085600883876
 10
1147.415153075915
 20
-1955.162994709603
 10
1146.801695295081
 20
-1954.153462476391
 10
1145.722230841941
 20
-1953.974418560056
 10
1144.642717192389
 20
-1954.135037520721
 10
1144.458149013305
 20
-1954.162499099466
 10
1144.275336602232
 20
-1954.196815651715
 10
1144.091986263422
 20
-1954.231345303761
 10
1144.001263119415
 20
-1954.248430838564
 10
1143.91023672861
 20
-1954.264203359117
 10
1143.819596862831
 20
-1954.281652567381
 10
1143.578571481264
 20
-1954.328052703166
 10
1143.828838662604
 20
-1954.297123134705
 10
1143.760764837508
 20
-1954.291604176127
 10
1143.682939819025
 20
-1954.285294657702
 10
1143.588431620041
 20
-1954.297446999794
 10
1143.510031157587
 20
-1954.303768392647
 10
1143.258934908291
 20
-1954.324014166543
 10
1143.568342864366
 20
-1954.321379429899
 10
1143.493316094893
 20
-1954.309350246209
 10
1143.254566075509
 20
-1954.27107100456
 10
1143.553757586079
 20
-1954.347371302777
 10
1143.482837631763
 20
-1954.310204778292
 10
1143.414888732418
 20
-1954.267425062427
 10
1143.439451652756
 20
-1954.286130933373
 10
1143.556526392775
 20
-1954.366322391126
 10
1143.517776960716
 20
-1954.327909097478
 10
1143.48267682135
 20
-1954.28640388329
 10
1143.451225974674
 20
-1954.241806748562
 10
1143.451225974674
 20
-1954.76149749618
 10
1143.451225974674
 20
-1955.281188243796
 10
1143.451225974674
 20
-1955.800878991416
 10
1144.267914979892
 20
-1954.888608460023
 10
1144.948720845389
 20
-1953.871959298987
 10
1145.436206177758
 20
-1952.747618671501
 10
1145.830501553871
 20
-1951.838212211123
 10
1145.187420388743
 20
-1950.95574312641
 10
1144.19121999956
 20
-1951.128150190426
 10
1143.417729894266
 20
-1951.262013978823
 10
1142.644239788972
 20
-1951.39587776722
 10
1141.870749683677
 20
-1951.529741555617
 10
1141.283666479419
 20
-1951.631344900362
 10
1140.954034163903
 20
-1952.351922146326
 10
1141.100768724576
 20
-1952.885861937323
 10
1141.271294180151
 20
-1953.506372372583
 10
1141.868103016696
 20
-1953.757740950413
 10
1142.456889106285
 20
-1953.655842896425
 10
1142.456889106285
 20
-1953.655842896425
 10
1142.456889106285
 20
-1953.655842896425
 10
1142.456889106285
 20
-1953.655842896425
 97
        0
 97
        1
330
94
 75
     2
 76
     1
 98
        1
 10
0.0
 20
0.0
450
        0
451
        0
460
0.0
461
0.0
452
        0
462
0.0
453
        0
470

  0
ENDSEC
  0
SECTION
  2
OBJECTS
  0
DICTIONARY
  5
C
330
0
100
AcDbDictionary
281
     1
  3
ACAD_COLOR
350
63
  3
ACAD_DETAILVIEWSTYLE
350
6A
  3
ACAD_GROUP
350
D
  3
ACAD_LAYOUT
350
62
  3
ACAD_MATERIAL
350
10
  3
ACAD_MLEADERSTYLE
350
66
  3
ACAD_MLINESTYLE
350
5F
  3
ACAD_PLOTSETTINGS
350
61
  3
ACAD_PLOTSTYLENAME
350
E
  3
ACAD_SCALELIST
350
42
  3
ACAD_SECTIONVIEWSTYLE
350
68
  3
ACAD_TABLESTYLE
350
64
  3
ACAD_VISUALSTYLE
350
29
  3
ACDB_RECOMPOSE_DATA
350
AC
  3
AcDbVariableDictionary
350
A4
  0
DICTIONARY
  5
63
102
{ACAD_REACTORS
330
C
102
}
330
C
100
AcDbDictionary
281
     1
  0
DICTIONARY
  5
6A
102
{ACAD_REACTORS
330
C
102
}
330
C
100
AcDbDictionary
281
     1
  3
Imperial24
350
6B
  0
DICTIONARY
  5
D
102
{ACAD_REACTORS
330
C
102
}
330
C
100
AcDbDictionary
281
     1
  0
DICTIONARY
  5
62
102
{ACAD_REACTORS
330
C
102
}
330
C
100
AcDbDictionary
281
     1
  3
Layout1
350
6F
  3
Layout2
350
77
  3
Model
350
73
  0
DICTIONARY
  5
10
102
{ACAD_REACTORS
330
C
102
}
330
C
100
AcDbDictionary
281
     1
  3
ByBlock
350
19
  3
ByLayer
350
11
  3
Global
350
21
  0
DICTIONARY
  5
66
102
{ACAD_REACTORS
330
C
102
}
330
C
100
AcDbDictionary
281
     1
  3
Standard
350
67
  0
DICTIONARY
  5
5F
102
{ACAD_REACTORS
330
C
102
}
330
C
100
AcDbDictionary
281
     1
  3
Standard
350
60
  0
DICTIONARY
  5
61
102
{ACAD_REACTORS
330
C
102
}
330
C
100
AcDbDictionary
281
     1
  0
ACDBDICTIONARYWDFLT
  5
E
102
{ACAD_REACTORS
330
C
102
}
330
C
100
AcDbDictionary
281
     1
  3
Normal
350
F
100
AcDbDictionaryWithDefault
340
F
  0
DICTIONARY
  5
42
102
{ACAD_REACTORS
330
C
102
}
330
C
100
AcDbDictionary
281
     1
  3
A0
350
43
  3
A1
350
44
  3
A2
350
45
  3
A3
350
46
  3
A4
350
47
  3
A5
350
48
  3
A6
350
49
  3
A7
350
4A
  3
A8
350
4B
  3
A9
350
4C
  3
B0
350
4D
  3
B1
350
4E
  3
B2
350
4F
  3
B3
350
50
  3
B4
350
51
  3
B5
350
52
  3
B6
350
53
  0
DICTIONARY
  5
68
102
{ACAD_REACTORS
330
C
102
}
330
C
100
AcDbDictionary
281
     1
  3
Imperial24
350
69
  0
DICTIONARY
  5
64
102
{ACAD_REACTORS
330
C
102
}
330
C
100
AcDbDictionary
281
     1
  3
Standard
350
65
  0
DICTIONARY
  5
29
102
{ACAD_REACTORS
330
C
102
}
330
C
100
AcDbDictionary
281
     1
  3
2dWireframe
350
2F
  3
Basic
350
2E
  3
Brighten
350
35
  3
ColorChange
350
39
  3
Conceptual
350
32
  3
Dim
350
34
  3
EdgeColorOff
350
41
  3
Facepattern
350
38
  3
Flat
350
2A
  3
FlatWithEdges
350
2B
  3
Gouraud
350
2C
  3
GouraudWithEdges
350
2D
  3
Hidden
350
31
  3
JitterOff
350
3F
  3
Linepattern
350
37
  3
OverhangOff
350
40
  3
Realistic
350
33
  3
Shaded
350
3E
  3
Shaded with edges
350
3D
  3
Shades of Gray
350
3A
  3
Sketchy
350
3B
  3
Thicken
350
36
  3
Wireframe
350
30
  3
X-Ray
350
3C
  0
XRECORD
  5
AC
102
{ACAD_REACTORS
330
C
102
}
330
C
100
AcDbXrecord
280
     1
 90
        1
330
65
  0
DICTIONARY
  5
A4
102
{ACAD_REACTORS
330
C
102
}
330
C
100
AcDbDictionary
281
     1
  3
CANNOSCALE
350
A9
  3
CMLEADERSTYLE
350
A6
  3
CTABLESTYLE
350
A5
  3
CVIEWDETAILSTYLE
350
A7
  3
CVIEWSECTIONSTYLE
350
A8
  0
ACDBDETAILVIEWSTYLE
  5
6B
102
{ACAD_REACTORS
330
6A
102
}
330
6A
100
AcDbModelDocViewStyle
 70
     0
  3
Imperial24
290
     1
300
Imperial24
 90
        0
100
AcDbDetailViewStyle
 70
     0
 71
     0
 90
        3
 71
     1
340
55
 62
   256
 40
0.24
340
0
 62
   256
 40
0.24
300

 40
0.36
280
     3
 71
     2
340
5D
 90
       25
 62
   256
 71
     3
340
55
 62
   256
 40
0.24
 90
        1
 40
0.75
 90
        1
300
%<\AcVar ViewType \f "%tc1">% %<\AcVar ViewDetailId>%\PSCALE %<\AcVar ViewScale \f "%sn">%
 71
     4
340
5D
 90
       25
 62
   256
340
5D
 90
       25
 62
   256
280
     0
  0
LAYOUT
  5
6F
102
{ACAD_REACTORS
330
62
102
}
330
62
100
AcDbPlotSettings
  1

  2

  4

  6

 40
0.0
 41
0.0
 42
0.0
 43
0.0
 44
0.0
 45
0.0
 46
0.0
 47
0.0
 48
0.0
 49
0.0
140
0.0
141
0.0
142
1.0
143
1.0
 70
   688
 72
     0
 73
     0
 74
     5
  7

 75
    16
147
1.0
 76
     0
 77
     2
 78
   300
148
0.0
149
0.0
100
AcDbLayout
  1
Layout1
 70
     1
 71
     1
 10
0.0
 20
0.0
 11
12.0
 21
9.0
 12
0.0
 22
0.0
 32
0.0
 14
0.0
 24
0.0
 34
0.0
 15
0.0
 25
0.0
 35
0.0
146
0.0
 13
0.0
 23
0.0
 33
0.0
 16
1.0
 26
0.0
 36
0.0
 17
0.0
 27
1.0
 37
0.0
 76
     0
330
6C
  0
LAYOUT
  5
77
102
{ACAD_REACTORS
330
62
102
}
330
62
100
AcDbPlotSettings
  1

  2

  4

  6

 40
0.0
 41
0.0
 42
0.0
 43
0.0
 44
0.0
 45
0.0
 46
0.0
 47
0.0
 48
0.0
 49
0.0
140
0.0
141
0.0
142
1.0
143
1.0
 70
   688
 72
     0
 73
     0
 74
     5
  7

 75
    16
147
1.0
 76
     0
 77
     2
 78
   300
148
0.0
149
0.0
100
AcDbLayout
  1
Layout2
 70
     1
 71
     2
 10
0.0
 20
0.0
 11
12.0
 21
9.0
 12
0.0
 22
0.0
 32
0.0
 14
0.0
 24
0.0
 34
0.0
 15
0.0
 25
0.0
 35
0.0
146
0.0
 13
0.0
 23
0.0
 33
0.0
 16
1.0
 26
0.0
 36
0.0
 17
0.0
 27
1.0
 37
0.0
 76
     0
330
74
  0
LAYOUT
  5
73
102
{ACAD_REACTORS
330
62
102
}
330
62
100
AcDbPlotSettings
  1

  2

  4

  6

 40
0.0
 41
0.0
 42
0.0
 43
0.0
 44
0.0
 45
0.0
 46
0.0
 47
0.0
 48
0.0
 49
0.0
140
0.0
141
0.0
142
1.0
143
1.0
 70
  1712
 72
     0
 73
     0
 74
     0
  7

 75
     0
147
1.0
 76
     0
 77
     2
 78
   300
148
0.0
149
0.0
100
AcDbLayout
  1
Model
 70
     1
 71
     0
 10
0.0
 20
0.0
 11
12.0
 21
9.0
 12
0.0
 22
0.0
 32
0.0
 14
0.0
 24
0.0
 34
0.0
 15
0.0
 25
0.0
 35
0.0
146
0.0
 13
0.0
 23
0.0
 33
0.0
 16
1.0
 26
0.0
 36
0.0
 17
0.0
 27
1.0
 37
0.0
 76
     0
330
70
  0
MATERIAL
  5
19
102
{ACAD_XDICTIONARY
360
1A
102
}
102
{ACAD_REACTORS
330
10
102
}
330
10
100
AcDbMaterial
  1
ByBlock
 72
     0
 43
0.0208333333333333
 43
0.0
 43
0.0
 43
0.0
 43
0.0
 43
0.0208333333333333
 43
0.0
 43
0.0
 43
0.0
 43
0.0
 43
1.0
 43
0.0
 43
0.0
 43
0.0
 43
0.0
 43
1.0
 77
     0
 47
0.0208333333333333
 47
0.0
 47
0.0
 47
0.0
 47
0.0
 47
0.0208333333333333
 47
0.0
 47
0.0
 47
0.0
 47
0.0
 47
1.0
 47
0.0
 47
0.0
 47
0.0
 47
0.0
 47
1.0
171
     0
 49
0.0208333333333333
 49
0.0
 49
0.0
 49
0.0
 49
0.0
 49
0.0208333333333333
 49
0.0
 49
0.0
 49
0.0
 49
0.0
 49
1.0
 49
0.0
 49
0.0
 49
0.0
 49
0.0
 49
1.0
175
     0
142
0.0208333333333333
142
0.0
142
0.0
142
0.0
142
0.0
142
0.0208333333333333
142
0.0
142
0.0
142
0.0
142
0.0
142
1.0
142
0.0
142
0.0
142
0.0
142
0.0
142
1.0
179
     0
144
0.0208333333333333
144
0.0
144
0.0
144
0.0
144
0.0
144
0.0208333333333333
144
0.0
144
0.0
144
0.0
144
0.0
144
1.0
144
0.0
144
0.0
144
0.0
144
0.0
144
1.0
147
0.0208333333333333
147
0.0
147
0.0
147
0.0
147
0.0
147
0.0208333333333333
147
0.0
147
0.0
147
0.0
147
0.0
147
1.0
147
0.0
147
0.0
147
0.0
147
0.0
147
1.0
  0
MATERIAL
  5
11
102
{ACAD_XDICTIONARY
360
12
102
}
102
{ACAD_REACTORS
330
10
102
}
330
10
100
AcDbMaterial
  1
ByLayer
 72
     0
 43
0.0208333333333333
 43
0.0
 43
0.0
 43
0.0
 43
0.0
 43
0.0208333333333333
 43
0.0
 43
0.0
 43
0.0
 43
0.0
 43
1.0
 43
0.0
 43
0.0
 43
0.0
 43
0.0
 43
1.0
 77
     0
 47
0.0208333333333333
 47
0.0
 47
0.0
 47
0.0
 47
0.0
 47
0.0208333333333333
 47
0.0
 47
0.0
 47
0.0
 47
0.0
 47
1.0
 47
0.0
 47
0.0
 47
0.0
 47
0.0
 47
1.0
171
     0
 49
0.0208333333333333
 49
0.0
 49
0.0
 49
0.0
 49
0.0
 49
0.0208333333333333
 49
0.0
 49
0.0
 49
0.0
 49
0.0
 49
1.0
 49
0.0
 49
0.0
 49
0.0
 49
0.0
 49
1.0
175
     0
142
0.0208333333333333
142
0.0
142
0.0
142
0.0
142
0.0
142
0.0208333333333333
142
0.0
142
0.0
142
0.0
142
0.0
142
1.0
142
0.0
142
0.0
142
0.0
142
0.0
142
1.0
179
     0
144
0.0208333333333333
144
0.0
144
0.0
144
0.0
144
0.0
144
0.0208333333333333
144
0.0
144
0.0
144
0.0
144
0.0
144
1.0
144
0.0
144
0.0
144
0.0
144
0.0
144
1.0
147
0.0208333333333333
147
0.0
147
0.0
147
0.0
147
0.0
147
0.0208333333333333
147
0.0
147
0.0
147
0.0
147
0.0
147
1.0
147
0.0
147
0.0
147
0.0
147
0.0
147
1.0
  0
MATERIAL
  5
21
102
{ACAD_XDICTIONARY
360
22
102
}
102
{ACAD_REACTORS
330
10
102
}
330
10
100
AcDbMaterial
  1
Global
 72
     0
 43
0.0208333333333333
 43
0.0
 43
0.0
 43
0.0
 43
0.0
 43
0.0208333333333333
 43
0.0
 43
0.0
 43
0.0
 43
0.0
 43
1.0
 43
0.0
 43
0.0
 43
0.0
 43
0.0
 43
1.0
 77
     0
 47
0.0208333333333333
 47
0.0
 47
0.0
 47
0.0
 47
0.0
 47
0.0208333333333333
 47
0.0
 47
0.0
 47
0.0
 47
0.0
 47
1.0
 47
0.0
 47
0.0
 47
0.0
 47
0.0
 47
1.0
171
     0
 49
0.0208333333333333
 49
0.0
 49
0.0
 49
0.0
 49
0.0
 49
0.0208333333333333
 49
0.0
 49
0.0
 49
0.0
 49
0.0
 49
1.0
 49
0.0
 49
0.0
 49
0.0
 49
0.0
 49
1.0
175
     0
142
0.0208333333333333
142
0.0
142
0.0
142
0.0
142
0.0
142
0.0208333333333333
142
0.0
142
0.0
142
0.0
142
0.0
142
1.0
142
0.0
142
0.0
142
0.0
142
0.0
142
1.0
179
     0
144
0.0208333333333333
144
0.0
144
0.0
144
0.0
144
0.0
144
0.0208333333333333
144
0.0
144
0.0
144
0.0
144
0.0
144
1.0
144
0.0
144
0.0
144
0.0
144
0.0
144
1.0
147
0.0208333333333333
147
0.0
147
0.0
147
0.0
147
0.0
147
0.0208333333333333
147
0.0
147
0.0
147
0.0
147
0.0
147
1.0
147
0.0
147
0.0
147
0.0
147
0.0
147
1.0
  0
MLEADERSTYLE
  5
67
102
{ACAD_REACTORS
330
66
102
}
330
66
100
AcDbMLeaderStyle
179
     2
170
     2
171
     1
172
     0
 90
        2
 40
0.0
 41
0.0
173
     1
 91
-1056964608
340
5B
 92
       -2
290
     1
 42
0.09
291
     1
 43
0.36
  3
Standard
 44
0.18
300

342
55
174
     1
178
     6
175
     1
176
     0
 93
-1056964608
 45
0.18
292
     0
297
     0
 46
0.18
 94
-1056964608
 47
1.0
 49
1.0
140
1.0
293
     1
141
0.0
294
     1
177
     0
142
1.0
295
     1
296
     0
143
0.125
271
     0
272
     9
273
     9
298
     1
  0
MLINESTYLE
  5
60
102
{ACAD_REACTORS
330
5F
102
}
330
5F
100
AcDbMlineStyle
  2
STANDARD
 70
     0
  3

 62
   256
 51
90.0
 52
90.0
 71
     2
 49
0.5
 62
   256
  6
BYLAYER
 49
-0.5
 62
   256
  6
BYLAYER
  0
ACDBPLACEHOLDER
  5
F
102
{ACAD_REACTORS
330
E
102
}
330
E
  0
SCALE
  5
43
102
{ACAD_REACTORS
330
42
102
}
330
42
100
AcDbScale
 70
     0
300
1:1
140
1.0
141
1.0
290
     1
  0
SCALE
  5
44
102
{ACAD_REACTORS
330
42
102
}
330
42
100
AcDbScale
 70
     0
300
1/128" = 1'-0"
140
0.0078125
141
12.0
290
     0
  0
SCALE
  5
45
102
{ACAD_REACTORS
330
42
102
}
330
42
100
AcDbScale
 70
     0
300
1/64" = 1'-0"
140
0.015625
141
12.0
290
     0
  0
SCALE
  5
46
102
{ACAD_REACTORS
330
42
102
}
330
42
100
AcDbScale
 70
     0
300
1/32" = 1'-0"
140
0.03125
141
12.0
290
     0
  0
SCALE
  5
47
102
{ACAD_REACTORS
330
42
102
}
330
42
100
AcDbScale
 70
     0
300
1/16" = 1'-0"
140
0.0625
141
12.0
290
     0
  0
SCALE
  5
48
102
{ACAD_REACTORS
330
42
102
}
330
42
100
AcDbScale
 70
     0
300
3/32" = 1'-0"
140
0.09375
141
12.0
290
     0
  0
SCALE
  5
49
102
{ACAD_REACTORS
330
42
102
}
330
42
100
AcDbScale
 70
     0
300
1/8" = 1'-0"
140
0.125
141
12.0
290
     0
  0
SCALE
  5
4A
102
{ACAD_REACTORS
330
42
102
}
330
42
100
AcDbScale
 70
     0
300
3/16" = 1'-0"
140
0.1875
141
12.0
290
     0
  0
SCALE
  5
4B
102
{ACAD_REACTORS
330
42
102
}
330
42
100
AcDbScale
 70
     0
300
1/4" = 1'-0"
140
0.25
141
12.0
290
     0
  0
SCALE
  5
4C
102
{ACAD_REACTORS
330
42
102
}
330
42
100
AcDbScale
 70
     0
300
3/8" = 1'-0"
140
0.375
141
12.0
290
     0
  0
SCALE
  5
4D
102
{ACAD_REACTORS
330
42
102
}
330
42
100
AcDbScale
 70
     0
300
1/2" = 1'-0"
140
0.5
141
12.0
290
     0
  0
SCALE
  5
4E
102
{ACAD_REACTORS
330
42
102
}
330
42
100
AcDbScale
 70
     0
300
3/4" = 1'-0"
140
0.75
141
12.0
290
     0
  0
SCALE
  5
4F
102
{ACAD_REACTORS
330
42
102
}
330
42
100
AcDbScale
 70
     0
300
1" = 1'-0"
140
1.0
141
12.0
290
     0
  0
SCALE
  5
50
102
{ACAD_REACTORS
330
42
102
}
330
42
100
AcDbScale
 70
     0
300
1-1/2" = 1'-0"
140
1.5
141
12.0
290
     0
  0
SCALE
  5
51
102
{ACAD_REACTORS
330
42
102
}
330
42
100
AcDbScale
 70
     0
300
3" = 1'-0"
140
3.0
141
12.0
290
     0
  0
SCALE
  5
52
102
{ACAD_REACTORS
330
42
102
}
330
42
100
AcDbScale
 70
     0
300
6" = 1'-0"
140
6.0
141
12.0
290
     0
  0
SCALE
  5
53
102
{ACAD_REACTORS
330
42
102
}
330
42
100
AcDbScale
 70
     0
300
1'-0" = 1'-0"
140
12.0
141
12.0
290
     0
  0
ACDBSECTIONVIEWSTYLE
  5
69
102
{ACAD_REACTORS
330
68
102
}
330
68
100
AcDbModelDocViewStyle
 70
     0
  3
Imperial24
290
     1
300
Imperial24
 90
        0
100
AcDbSectionViewStyle
 70
     0
 71
     0
 90
       78
 71
     1
340
55
 62
   256
 40
0.24
340
0
340
0
 62
   256
 40
0.24
300
I, O, Q, S, X, Z
 40
0.48
 90
        3
 40
0.18
 90
        1
 71
     2
340
5D
 90
       25
 62
   256
340
5D
 90
       50
 62
   256
 40
0.24
 40
0.0
 40
0.24
 71
     3
340
55
 62
   256
 40
0.24
 90
        1
 40
0.75
 90
        1
300
%<\AcVar ViewType \f "%tc1">% %<\AcVar ViewSectionStartId>%-%<\AcVar ViewSectionEndId>%\PSCALE %<\AcVar ViewScale \f "%sn">%
 71
     4
 62
   256
 62
   257
300
ANSI31
 40
1.0
 90
        0
290
     0
290
     0
 90
        6
 40
0.0
 40
1.570796326794896
 40
0.2617993877991494
 40
1.308996938995747
 40
-0.2617993877991494
 40
1.832595714594046
  0
TABLESTYLE
  5
65
102
{ACAD_XDICTIONARY
360
AA
102
}
102
{ACAD_REACTORS
330
64
102
}
330
64
100
AcDbTableStyle
280
     0
  3
Standard
 70
     0
 71
     0
 40
0.06
 41
0.06
280
     0
281
     0
  7
Standard
140
0.18
170
     2
 62
     0
 63
     7
283
     0
 90
      512
 91
        0
  1

274
    -2
284
     1
 64
     0
275
    -2
285
     1
 65
     0
276
    -2
286
     1
 66
     0
277
    -2
287
     1
 67
     0
278
    -2
288
     1
 68
     0
279
    -2
289
     1
 69
     0
  7
Standard
140
0.25
170
     5
 62
     0
 63
     7
283
     0
 90
      512
 91
        0
  1

274
    -2
284
     1
 64
     0
275
    -2
285
     1
 65
     0
276
    -2
286
     1
 66
     0
277
    -2
287
     1
 67
     0
278
    -2
288
     1
 68
     0
279
    -2
289
     1
 69
     0
  7
Standard
140
0.18
170
     5
 62
     0
 63
     7
283
     0
 90
      512
 91
        0
  1

274
    -2
284
     1
 64
     0
275
    -2
285
     1
 65
     0
276
    -2
286
     1
 66
     0
277
    -2
287
     1
 67
     0
278
    -2
288
     1
 68
     0
279
    -2
289
     1
 69
     0
  0
VISUALSTYLE
  5
2F
102
{ACAD_REACTORS
330
29
102
}
330
29
100
AcDbVisualStyle
  2
2dWireframe
 70
     4
177
     3
291
     0
 70
    58
 90
        0
176
     1
 90
        2
176
     1
 90
        0
176
     1
 90
        0
176
     1
 40
0.6
176
     1
 40
30.0
176
     1
 62
     7
420
 16777215
176
     1
 90
        1
176
     1
 90
        4
176
     1
 62
     7
176
     1
 62
   257
176
     1
 90
        1
176
     1
 90
        1
176
     1
 40
1.0
176
     1
 90
        0
176
     1
 62
   257
176
     1
 40
1.0
176
     1
 90
        1
176
     1
 90
        6
176
     1
 90
        2
176
     1
 62
     7
176
     1
 90
        5
176
     1
 90
        0
176
     1
 90
        0
176
     1
290
     0
176
     1
 90
        1
176
     1
 40
0.0
176
     1
 90
        0
176
     1
290
     1
176
     1
290
     1
176
     1
290
     0
176
     1
290
     0
176
     1
290
     0
176
     1
290
     0
176
     1
290
     0
176
     1
290
     0
176
     1
290
     0
176
     1
 90
       50
176
     1
 40
0.0
176
     1
 40
1.0
176
     1
 90
        0
176
     1
 62
    18
420
        0
176
     1
 90
       50
176
     1
 90
        3
176
     1
 62
     5
420
      255
176
     1
290
     0
176
     1
 90
       50
176
     1
 90
       50
176
     1
 90
       50
176
     1
290
     0
176
     1
 90
       50
176
     1
 62
   256
176
     0
 40
1.0
176
     0
 90
        2
176
     1
  1
strokes_ogs.tif
176
     1
290
     0
176
     1
 40
1.0
176
     1
 40
1.0
176
     1
  0
VISUALSTYLE
  5
2E
102
{ACAD_REACTORS
330
29
102
}
330
29
100
AcDbVisualStyle
  2
Basic
 70
     7
177
     3
291
     1
 70
    58
 90
        1
176
     1
 90
        0
176
     1
 90
        1
176
     1
 90
        0
176
     1
 40
0.6
176
     1
 40
30.0
176
     1
 62
     7
420
 16777215
176
     1
 90
        0
176
     1
 90
        4
176
     1
 62
     7
176
     1
 62
   257
176
     1
 90
        1
176
     1
 90
        1
176
     1
 40
1.0
176
     1
 90
        8
176
     1
 62
     7
176
     1
 40
1.0
176
     1
 90
        1
176
     1
 90
        6
176
     1
 90
        2
176
     1
 62
     7
176
     1
 90
        5
176
     1
 90
        0
176
     1
 90
        0
176
     1
290
     0
176
     1
 90
        1
176
     1
 40
0.0
176
     1
 90
        0
176
     1
290
     0
176
     1
290
     1
176
     1
290
     1
176
     1
290
     0
176
     1
290
     0
176
     1
290
     0
176
     1
290
     0
176
     1
290
     0
176
     1
290
     0
176
     1
 90
       50
176
     1
 40
0.0
176
     1
 40
1.0
176
     1
 90
        0
176
     1
 62
    18
420
        0
176
     1
 90
       50
176
     1
 90
        3
176
     1
 62
     5
420
      255
176
     1
290
     0
176
     1
 90
       50
176
     1
 90
       50
176
     1
 90
       50
176
     1
290
     0
176
     1
 90
       50
176
     1
 62
   256
176
     0
 40
1.0
176
     0
 90
        2
176
     1
  1
strokes_ogs.tif
176
     1
290
     0
176
     1
 40
1.0
176
     1
 40
1.0
176
     1
  0
VISUALSTYLE
  5
35
102
{ACAD_REACTORS
330
29
102
}
330
29
100
AcDbVisualStyle
  2
Brighten
 70
    12
177
     3
291
     1
 70
    58
 90
        2
176
     1
 90
        2
176
     1
 90
        0
176
     1
 90
        0
176
     1
 40
0.6
176
     1
 40
30.0
176
     1
 62
     7
420
 16777215
176
     1
 90
        1
176
     1
 90
        4
176
     1
 62
     7
176
     1
 62
   257
176
     1
 90
        1
176
     1
 90
        1
176
     1
 40
1.0
176
     1
 90
        8
176
     1
 62
     7
176
     1
 40
1.0
176
     1
 90
        1
176
     1
 90
        6
176
     1
 90
        2
176
     1
 62
     7
176
     1
 90
        5
176
     1
 90
        0
176
     1
 90
        0
176
     1
290
     0
176
     1
 90
        1
176
     1
 40
50.0
176
     1
 90
        0
176
     1
290
     0
176
     1
290
     1
176
     1
290
     1
176
     1
290
     0
176
     1
290
     0
176
     1
290
     0
176
     1
290
     0
176
     1
290
     0
176
     1
290
     0
176
     1
 90
       50
176
     1
 40
0.0
176
     1
 40
1.0
176
     1
 90
        0
176
     1
 62
    18
420
        0
176
     1
 90
       50
176
     1
 90
        3
176
     1
 62
     5
420
      255
176
     1
290
     0
176
     1
 90
       50
176
     1
 90
       50
176
     1
 90
       50
176
     1
290
     0
176
     1
 90
       50
176
     1
 62
   256
176
     0
 40
1.0
176
     0
 90
        2
176
     1
  1
strokes_ogs.tif
176
     1
290
     0
176
     1
 40
1.0
176
     1
 40
1.0
176
     1
  0
VISUALSTYLE
  5
39
102
{ACAD_REACTORS
330
29
102
}
330
29
100
AcDbVisualStyle
  2
ColorChange
 70
    16
177
     3
291
     1
 70
    58
 90
        2
176
     1
 90
        2
176
     1
 90
        3
176
     1
 90
        0
176
     1
 40
0.6
176
     1
 40
30.0
176
     1
 62
     8
420
  8421504
176
     1
 90
        1
176
     1
 90
        4
176
     1
 62
     7
176
     1
 62
   257
176
     1
 90
        1
176
     1
 90
        1
176
     1
 40
1.0
176
     1
 90
        8
176
     1
 62
     8
420
  8421504
176
     1
 40
1.0
176
     1
 90
        1
176
     1
 90
        6
176
     1
 90
        2
176
     1
 62
     7
176
     1
 90
        5
176
     1
 90
        0
176
     1
 90
        0
176
     1
290
     0
176
     1
 90
        1
176
     1
 40
0.0
176
     1
 90
        0
176
     1
290
     0
176
     1
290
     1
176
     1
290
     1
176
     1
290
     0
176
     1
290
     0
176
     1
290
     0
176
     1
290
     0
176
     1
290
     0
176
     1
290
     0
176
     1
 90
       50
176
     1
 40
0.0
176
     1
 40
1.0
176
     1
 90
        0
176
     1
 62
    18
420
        0
176
     1
 90
       50
176
     1
 90
        3
176
     1
 62
     5
420
      255
176
     1
290
     0
176
     1
 90
       50
176
     1
 90
       50
176
     1
 90
       50
176
     1
290
     0
176
     1
 90
       50
176
     1
 62
   256
176
     0
 40
1.0
176
     0
 90
        2
176
     1
  1
strokes_ogs.tif
176
     1
290
     0
176
     1
 40
1.0
176
     1
 40
1.0
176
     1
  0
VISUALSTYLE
  5
32
102
{ACAD_REACTORS
330
29
102
}
330
29
100
AcDbVisualStyle
  2
Conceptual
 70
     9
177
     3
291
     0
 70
    58
 90
        3
176
     1
 90
        2
176
     1
 90
        0
176
     1
 90
        0
176
     1
 40
0.6
176
     1
 40
30.0
176
     1
 62
     7
420
 16777215
176
     1
 90
        2
176
     1
 90
        2
176
     1
 62
     7
176
     1
 62
   257
176
     1
 90
        1
176
     1
 90
        1
176
     1
 40
179.0
176
     1
 90
        8
176
     1
 62
     7
176
     1
 40
1.0
176
     1
 90
        1
176
     1
 90
        6
176
     1
 90
        2
176
     1
 62
     7
176
     1
 90
        3
176
     1
 90
        0
176
     1
 90
        0
176
     1
290
     0
176
     1
 90
        1
176
     1
 40
0.0
176
     1
 90
        0
176
     1
290
     0
176
     1
290
     1
176
     1
290
     1
176
     1
290
     0
176
     1
290
     0
176
     1
290
     0
176
     1
290
     0
176
     1
290
     0
176
     1
290
     0
176
     1
 90
       50
176
     1
 40
0.0
176
     1
 40
1.0
176
     1
 90
        0
176
     1
 62
    18
420
        0
176
     1
 90
       50
176
     1
 90
        3
176
     1
 62
     5
420
      255
176
     1
290
     0
176
     1
 90
       50
176
     1
 90
       50
176
     1
 90
       50
176
     1
290
     0
176
     1
 90
       50
176
     1
 62
   256
176
     0
 40
1.0
176
     0
 90
        2
176
     1
  1
strokes_ogs.tif
176
     1
290
     0
176
     1
 40
1.0
176
     1
 40
1.0
176
     1
  0
VISUALSTYLE
  5
34
102
{ACAD_REACTORS
330
29
102
}
330
29
100
AcDbVisualStyle
  2
Dim
 70
    11
177
     3
291
     1
 70
    58
 90
        2
176
     1
 90
        2
176
     1
 90
        0
176
     1
 90
        0
176
     1
 40
0.6
176
     1
 40
30.0
176
     1
 62
     7
420
 16777215
176
     1
 90
        1
176
     1
 90
        4
176
     1
 62
     7
176
     1
 62
   257
176
     1
 90
        1
176
     1
 90
        1
176
     1
 40
1.0
176
     1
 90
        8
176
     1
 62
     7
176
     1
 40
1.0
176
     1
 90
        1
176
     1
 90
        6
176
     1
 90
        2
176
     1
 62
     7
176
     1
 90
        5
176
     1
 90
        0
176
     1
 90
        0
176
     1
290
     0
176
     1
 90
        1
176
     1
 40
-50.0
176
     1
 90
        0
176
     1
290
     0
176
     1
290
     1
176
     1
290
     1
176
     1
290
     0
176
     1
290
     0
176
     1
290
     0
176
     1
290
     0
176
     1
290
     0
176
     1
290
     0
176
     1
 90
       50
176
     1
 40
0.0
176
     1
 40
1.0
176
     1
 90
        0
176
     1
 62
    18
420
        0
176
     1
 90
       50
176
     1
 90
        3
176
     1
 62
     5
420
      255
176
     1
290
     0
176
     1
 90
       50
176
     1
 90
       50
176
     1
 90
       50
176
     1
290
     0
176
     1
 90
       50
176
     1
 62
   256
176
     0
 40
1.0
176
     0
 90
        2
176
     1
  1
strokes_ogs.tif
176
     1
290
     0
176
     1
 40
1.0
176
     1
 40
1.0
176
     1
  0
VISUALSTYLE
  5
41
102
{ACAD_REACTORS
330
29
102
}
330
29
100
AcDbVisualStyle
  2
EdgeColorOff
 70
    22
177
     3
291
     1
 70
    58
 90
        2
176
     0
 90
        2
176
     0
 90
        0
176
     0
 90
        0
176
     0
 40
0.6
176
     0
 40
30.0
176
     0
 62
     7
420
 16777215
176
     0
 90
        1
176
     0
 90
        4
176
     0
 62
     7
176
     0
 62
   257
176
     0
 90
        1
176
     0
 90
        1
176
     0
 40
1.0
176
     0
 90
        8
176
     2
 62
     7
176
     0
 40
1.0
176
     0
 90
        1
176
     0
 90
        6
176
     0
 90
        2
176
     0
 62
     7
176
     0
 90
        5
176
     0
 90
        0
176
     0
 90
        0
176
     0
290
     0
176
     0
 90
        1
176
     0
 40
0.0
176
     0
 90
        0
176
     0
290
     0
176
     0
290
     1
176
     0
290
     1
176
     0
290
     0
176
     0
290
     0
176
     0
290
     0
176
     0
290
     0
176
     0
290
     0
176
     0
290
     0
176
     0
 90
       50
176
     0
 40
0.0
176
     0
 40
1.0
176
     0
 90
        0
176
     0
 62
    18
420
        0
176
     0
 90
       50
176
     0
 90
        3
176
     0
 62
     5
420
      255
176
     0
290
     0
176
     0
 90
       50
176
     0
 90
       50
176
     0
 90
       50
176
     0
290
     0
176
     0
 90
       50
176
     0
 62
   256
176
     0
 40
1.0
176
     0
 90
        2
176
     0
  1
strokes_ogs.tif
176
     0
290
     0
176
     0
 40
1.0
176
     0
 40
1.0
176
     0
  0
VISUALSTYLE
  5
38
102
{ACAD_REACTORS
330
29
102
}
330
29
100
AcDbVisualStyle
  2
Facepattern
 70
    15
177
     3
291
     1
 70
    58
 90
        2
176
     1
 90
        2
176
     1
 90
        0
176
     1
 90
        0
176
     1
 40
0.6
176
     1
 40
30.0
176
     1
 62
     7
420
 16777215
176
     1
 90
        1
176
     1
 90
        4
176
     1
 62
     7
176
     1
 62
   257
176
     1
 90
        1
176
     1
 90
        1
176
     1
 40
1.0
176
     1
 90
        8
176
     1
 62
     7
176
     1
 40
1.0
176
     1
 90
        1
176
     1
 90
        6
176
     1
 90
        2
176
     1
 62
     7
176
     1
 90
        5
176
     1
 90
        0
176
     1
 90
        0
176
     1
290
     0
176
     1
 90
        1
176
     1
 40
0.0
176
     1
 90
        0
176
     1
290
     0
176
     1
290
     1
176
     1
290
     1
176
     1
290
     0
176
     1
290
     0
176
     1
290
     0
176
     1
290
     0
176
     1
290
     0
176
     1
290
     0
176
     1
 90
       50
176
     1
 40
0.0
176
     1
 40
1.0
176
     1
 90
        0
176
     1
 62
    18
420
        0
176
     1
 90
       50
176
     1
 90
        3
176
     1
 62
     5
420
      255
176
     1
290
     0
176
     1
 90
       50
176
     1
 90
       50
176
     1
 90
       50
176
     1
290
     0
176
     1
 90
       50
176
     1
 62
   256
176
     0
 40
1.0
176
     0
 90
        2
176
     1
  1
strokes_ogs.tif
176
     1
290
     0
176
     1
 40
1.0
176
     1
 40
1.0
176
     1
  0
VISUALSTYLE
  5
2A
102
{ACAD_REACTORS
330
29
102
}
330
29
100
AcDbVisualStyle
  2
Flat
 70
     0
177
     3
291
     1
 70
    58
 90
        2
176
     1
 90
        1
176
     1
 90
        1
176
     1
 90
        2
176
     1
 40
0.6
176
     1
 40
30.0
176
     1
 62
     7
420
 16777215
176
     1
 90
        0
176
     1
 90
        0
176
     1
 62
     7
176
     1
 62
   257
176
     1
 90
        1
176
     1
 90
        1
176
     1
 40
1.0
176
     1
 90
        8
176
     1
 62
     7
176
     1
 40
1.0
176
     1
 90
        1
176
     1
 90
        6
176
     1
 90
        2
176
     1
 62
     7
176
     1
 90
        5
176
     1
 90
        0
176
     1
 90
        0
176
     1
290
     0
176
     1
 90
       13
176
     1
 40
0.0
176
     1
 90
        0
176
     1
290
     0
176
     1
290
     1
176
     1
290
     1
176
     1
290
     0
176
     1
290
     0
176
     1
290
     0
176
     1
290
     0
176
     1
290
     0
176
     1
290
     0
176
     1
 90
       50
176
     1
 40
0.0
176
     1
 40
1.0
176
     1
 90
        0
176
     1
 62
    18
420
        0
176
     1
 90
       50
176
     1
 90
        3
176
     1
 62
     5
420
      255
176
     1
290
     0
176
     1
 90
       50
176
     1
 90
       50
176
     1
 90
       50
176
     1
290
     0
176
     1
 90
       50
176
     1
 62
   256
176
     0
 40
1.0
176
     0
 90
        2
176
     1
  1
strokes_ogs.tif
176
     1
290
     0
176
     1
 40
1.0
176
     1
 40
1.0
176
     1
  0
VISUALSTYLE
  5
2B
102
{ACAD_REACTORS
330
29
102
}
330
29
100
AcDbVisualStyle
  2
FlatWithEdges
 70
     1
177
     3
291
     1
 70
    58
 90
        2
176
     1
 90
        1
176
     1
 90
        1
176
     1
 90
        2
176
     1
 40
0.6
176
     1
 40
30.0
176
     1
 62
     7
420
 16777215
176
     1
 90
        1
176
     1
 90
        0
176
     1
 62
     7
176
     1
 62
   257
176
     1
 90
        1
176
     1
 90
        1
176
     1
 40
1.0
176
     1
 90
        0
176
     1
 62
   257
176
     1
 40
1.0
176
     1
 90
        1
176
     1
 90
        6
176
     1
 90
        2
176
     1
 62
     7
176
     1
 90
        5
176
     1
 90
        0
176
     1
 90
        0
176
     1
290
     0
176
     1
 90
       13
176
     1
 40
0.0
176
     1
 90
        0
176
     1
290
     0
176
     1
290
     1
176
     1
290
     1
176
     1
290
     0
176
     1
290
     0
176
     1
290
     0
176
     1
290
     0
176
     1
290
     0
176
     1
290
     0
176
     1
 90
       50
176
     1
 40
0.0
176
     1
 40
1.0
176
     1
 90
        0
176
     1
 62
    18
420
        0
176
     1
 90
       50
176
     1
 90
        3
176
     1
 62
     5
420
      255
176
     1
290
     0
176
     1
 90
       50
176
     1
 90
       50
176
     1
 90
       50
176
     1
290
     0
176
     1
 90
       50
176
     1
 62
   256
176
     0
 40
1.0
176
     0
 90
        2
176
     1
  1
strokes_ogs.tif
176
     1
290
     0
176
     1
 40
1.0
176
     1
 40
1.0
176
     1
  0
VISUALSTYLE
  5
2C
102
{ACAD_REACTORS
330
29
102
}
330
29
100
AcDbVisualStyle
  2
Gouraud
 70
     2
177
     3
291
     1
 70
    58
 90
        2
176
     1
 90
        2
176
     1
 90
        1
176
     1
 90
        2
176
     1
 40
0.6
176
     1
 40
30.0
176
     1
 62
     7
420
 16777215
176
     1
 90
        0
176
     1
 90
        0
176
     1
 62
     7
176
     1
 62
   257
176
     1
 90
        1
176
     1
 90
        1
176
     1
 40
1.0
176
     1
 90
        0
176
     1
 62
     7
176
     1
 40
1.0
176
     1
 90
        1
176
     1
 90
        6
176
     1
 90
        2
176
     1
 62
     7
176
     1
 90
        5
176
     1
 90
        0
176
     1
 90
        0
176
     1
290
     0
176
     1
 90
       13
176
     1
 40
0.0
176
     1
 90
        0
176
     1
290
     0
176
     1
290
     1
176
     1
290
     1
176
     1
290
     0
176
     1
290
     0
176
     1
290
     0
176
     1
290
     0
176
     1
290
     0
176
     1
290
     0
176
     1
 90
       50
176
     1
 40
0.0
176
     1
 40
1.0
176
     1
 90
        0
176
     1
 62
    18
420
        0
176
     1
 90
       50
176
     1
 90
        3
176
     1
 62
     5
420
      255
176
     1
290
     0
176
     1
 90
       50
176
     1
 90
       50
176
     1
 90
       50
176
     1
290
     0
176
     1
 90
       50
176
     1
 62
   256
176
     0
 40
1.0
176
     0
 90
        2
176
     1
  1
strokes_ogs.tif
176
     1
290
     0
176
     1
 40
1.0
176
     1
 40
1.0
176
     1
  0
VISUALSTYLE
  5
2D
102
{ACAD_REACTORS
330
29
102
}
330
29
100
AcDbVisualStyle
  2
GouraudWithEdges
 70
     3
177
     3
291
     1
 70
    58
 90
        2
176
     1
 90
        2
176
     1
 90
        1
176
     1
 90
        2
176
     1
 40
0.6
176
     1
 40
30.0
176
     1
 62
     7
420
 16777215
176
     1
 90
        1
176
     1
 90
        0
176
     1
 62
     7
176
     1
 62
   257
176
     1
 90
        1
176
     1
 90
        1
176
     1
 40
1.0
176
     1
 90
        0
176
     1
 62
   257
176
     1
 40
1.0
176
     1
 90
        1
176
     1
 90
        6
176
     1
 90
        2
176
     1
 62
     7
176
     1
 90
        5
176
     1
 90
        0
176
     1
 90
        0
176
     1
290
     0
176
     1
 90
       13
176
     1
 40
0.0
176
     1
 90
        0
176
     1
290
     0
176
     1
290
     1
176
     1
290
     1
176
     1
290
     0
176
     1
290
     0
176
     1
290
     0
176
     1
290
     0
176
     1
290
     0
176
     1
290
     0
176
     1
 90
       50
176
     1
 40
0.0
176
     1
 40
1.0
176
     1
 90
        0
176
     1
 62
    18
420
        0
176
     1
 90
       50
176
     1
 90
        3
176
     1
 62
     5
420
      255
176
     1
290
     0
176
     1
 90
       50
176
     1
 90
       50
176
     1
 90
       50
176
     1
290
     0
176
     1
 90
       50
176
     1
 62
   256
176
     0
 40
1.0
176
     0
 90
        2
176
     1
  1
strokes_ogs.tif
176
     1
290
     0
176
     1
 40
1.0
176
     1
 40
1.0
176
     1
  0
VISUALSTYLE
  5
31
102
{ACAD_REACTORS
330
29
102
}
330
29
100
AcDbVisualStyle
  2
Hidden
 70
     6
177
     3
291
     0
 70
    58
 90
        1
176
     1
 90
        2
176
     1
 90
        2
176
     1
 90
        0
176
     1
 40
0.6
176
     1
 40
30.0
176
     1
 62
     7
420
 16777215
176
     1
 90
        2
176
     1
 90
        2
176
     1
 62
     7
176
     1
 62
   257
176
     1
 90
        2
176
     1
 90
        1
176
     1
 40
40.0
176
     1
 90
        0
176
     1
 62
   257
176
     1
 40
1.0
176
     1
 90
        1
176
     1
 90
        6
176
     1
 90
        2
176
     1
 62
     7
176
     1
 90
        3
176
     1
 90
        0
176
     1
 90
        0
176
     1
290
     0
176
     1
 90
        1
176
     1
 40
0.0
176
     1
 90
        0
176
     1
290
     0
176
     1
290
     1
176
     1
290
     1
176
     1
290
     0
176
     1
290
     0
176
     1
290
     0
176
     1
290
     0
176
     1
290
     0
176
     1
290
     0
176
     1
 90
       50
176
     1
 40
0.0
176
     1
 40
1.0
176
     1
 90
        0
176
     1
 62
    18
420
        0
176
     1
 90
       50
176
     1
 90
        3
176
     1
 62
     5
420
      255
176
     1
290
     0
176
     1
 90
       50
176
     1
 90
       50
176
     1
 90
       50
176
     1
290
     0
176
     1
 90
       50
176
     1
 62
   256
176
     0
 40
1.0
176
     0
 90
        2
176
     1
  1
strokes_ogs.tif
176
     1
290
     0
176
     1
 40
1.0
176
     1
 40
1.0
176
     1
  0
VISUALSTYLE
  5
3F
102
{ACAD_REACTORS
330
29
102
}
330
29
100
AcDbVisualStyle
  2
JitterOff
 70
    20
177
     3
291
     1
 70
    58
 90
        2
176
     0
 90
        2
176
     0
 90
        0
176
     0
 90
        0
176
     0
 40
0.6
176
     0
 40
30.0
176
     0
 62
     7
420
 16777215
176
     0
 90
        1
176
     0
 90
        4
176
     0
 62
     7
176
     0
 62
   257
176
     0
 90
        1
176
     0
 90
        1
176
     0
 40
1.0
176
     0
 90
       10
176
     2
 62
     7
176
     0
 40
1.0
176
     0
 90
        1
176
     0
 90
        6
176
     0
 90
        2
176
     0
 62
     7
176
     0
 90
        5
176
     0
 90
        0
176
     0
 90
        0
176
     0
290
     0
176
     0
 90
        1
176
     0
 40
0.0
176
     0
 90
        0
176
     0
290
     0
176
     0
290
     1
176
     0
290
     1
176
     0
290
     0
176
     0
290
     0
176
     0
290
     0
176
     0
290
     0
176
     0
290
     0
176
     0
290
     0
176
     0
 90
       50
176
     0
 40
0.0
176
     0
 40
1.0
176
     0
 90
        0
176
     0
 62
    18
420
        0
176
     0
 90
       50
176
     0
 90
        3
176
     0
 62
     5
420
      255
176
     0
290
     0
176
     0
 90
       50
176
     0
 90
       50
176
     0
 90
       50
176
     0
290
     0
176
     0
 90
       50
176
     0
 62
   256
176
     0
 40
1.0
176
     0
 90
        2
176
     0
  1
strokes_ogs.tif
176
     0
290
     0
176
     0
 40
1.0
176
     0
 40
1.0
176
     0
  0
VISUALSTYLE
  5
37
102
{ACAD_REACTORS
330
29
102
}
330
29
100
AcDbVisualStyle
  2
Linepattern
 70
    14
177
     3
291
     1
 70
    58
 90
        2
176
     1
 90
        2
176
     1
 90
        0
176
     1
 90
        0
176
     1
 40
0.6
176
     1
 40
30.0
176
     1
 62
     7
420
 16777215
176
     1
 90
        1
176
     1
 90
        4
176
     1
 62
     7
176
     1
 62
   257
176
     1
 90
        7
176
     1
 90
        7
176
     1
 40
1.0
176
     1
 90
        8
176
     1
 62
     7
176
     1
 40
1.0
176
     1
 90
        1
176
     1
 90
        6
176
     1
 90
        2
176
     1
 62
     7
176
     1
 90
        5
176
     1
 90
        0
176
     1
 90
        0
176
     1
290
     0
176
     1
 90
        1
176
     1
 40
0.0
176
     1
 90
        0
176
     1
290
     0
176
     1
290
     1
176
     1
290
     1
176
     1
290
     0
176
     1
290
     0
176
     1
290
     0
176
     1
290
     0
176
     1
290
     0
176
     1
290
     0
176
     1
 90
       50
176
     1
 40
0.0
176
     1
 40
1.0
176
     1
 90
        0
176
     1
 62
    18
420
        0
176
     1
 90
       50
176
     1
 90
        3
176
     1
 62
     5
420
      255
176
     1
290
     0
176
     1
 90
       50
176
     1
 90
       50
176
     1
 90
       50
176
     1
290
     0
176
     1
 90
       50
176
     1
 62
   256
176
     0
 40
1.0
176
     0
 90
        2
176
     1
  1
strokes_ogs.tif
176
     1
290
     0
176
     1
 40
1.0
176
     1
 40
1.0
176
     1
  0
VISUALSTYLE
  5
40
102
{ACAD_REACTORS
330
29
102
}
330
29
100
AcDbVisualStyle
  2
OverhangOff
 70
    21
177
     3
291
     1
 70
    58
 90
        2
176
     0
 90
        2
176
     0
 90
        0
176
     0
 90
        0
176
     0
 40
0.6
176
     0
 40
30.0
176
     0
 62
     7
420
 16777215
176
     0
 90
        1
176
     0
 90
        4
176
     0
 62
     7
176
     0
 62
   257
176
     0
 90
        1
176
     0
 90
        1
176
     0
 40
1.0
176
     0
 90
        9
176
     2
 62
     7
176
     0
 40
1.0
176
     0
 90
        1
176
     0
 90
        6
176
     0
 90
        2
176
     0
 62
     7
176
     0
 90
        5
176
     0
 90
        0
176
     0
 90
        0
176
     0
290
     0
176
     0
 90
        1
176
     0
 40
0.0
176
     0
 90
        0
176
     0
290
     0
176
     0
290
     1
176
     0
290
     1
176
     0
290
     0
176
     0
290
     0
176
     0
290
     0
176
     0
290
     0
176
     0
290
     0
176
     0
290
     0
176
     0
 90
       50
176
     0
 40
0.0
176
     0
 40
1.0
176
     0
 90
        0
176
     0
 62
    18
420
        0
176
     0
 90
       50
176
     0
 90
        3
176
     0
 62
     5
420
      255
176
     0
290
     0
176
     0
 90
       50
176
     0
 90
       50
176
     0
 90
       50
176
     0
290
     0
176
     0
 90
       50
176
     0
 62
   256
176
     0
 40
1.0
176
     0
 90
        2
176
     0
  1
strokes_ogs.tif
176
     0
290
     0
176
     0
 40
1.0
176
     0
 40
1.0
176
     0
  0
VISUALSTYLE
  5
33
102
{ACAD_REACTORS
330
29
102
}
330
29
100
AcDbVisualStyle
  2
Realistic
 70
     8
177
     3
291
     0
 70
    58
 90
        2
176
     1
 90
        3
176
     1
 90
        0
176
     1
 90
        2
176
     1
 40
0.6
176
     1
 40
30.0
176
     1
 62
     7
420
 16777215
176
     1
 90
        0
176
     1
 90
        0
176
     1
 62
     7
176
     1
 62
   257
176
     1
 90
        1
176
     1
 90
        1
176
     1
 40
1.0
176
     1
 90
        8
176
     1
 62
   257
176
     1
 40
1.0
176
     1
 90
        1
176
     1
 90
        6
176
     1
 90
        2
176
     1
 62
     7
176
     1
 90
        3
176
     1
 90
        0
176
     1
 90
        0
176
     1
290
     0
176
     1
 90
       13
176
     1
 40
0.0
176
     1
 90
        0
176
     1
290
     0
176
     1
290
     1
176
     1
290
     1
176
     1
290
     0
176
     1
290
     0
176
     1
290
     0
176
     1
290
     0
176
     1
290
     0
176
     1
290
     0
176
     1
 90
       50
176
     1
 40
0.0
176
     1
 40
1.0
176
     1
 90
        0
176
     1
 62
    18
420
        0
176
     1
 90
       50
176
     1
 90
        3
176
     1
 62
     5
420
      255
176
     1
290
     0
176
     1
 90
       50
176
     1
 90
       50
176
     1
 90
       50
176
     1
290
     0
176
     1
 90
       50
176
     1
 62
   256
176
     0
 40
1.0
176
     0
 90
        2
176
     1
  1
strokes_ogs.tif
176
     1
290
     0
176
     1
 40
1.0
176
     1
 40
1.0
176
     1
  0
VISUALSTYLE
  5
3E
102
{ACAD_REACTORS
330
29
102
}
330
29
100
AcDbVisualStyle
  2
Shaded
 70
    27
177
     3
291
     0
 70
    58
 90
        2
176
     1
 90
        2
176
     1
 90
        1
176
     1
 90
        2
176
     1
 40
0.6
176
     1
 40
30.0
176
     1
 62
     7
420
 16777215
176
     1
 90
        0
176
     1
 90
        4
176
     1
 62
     7
176
     1
 62
   257
176
     1
 90
        1
176
     1
 90
        1
176
     1
 40
1.0
176
     1
 90
        8
176
     1
 62
   257
176
     1
 40
1.0
176
     1
 90
        1
176
     1
 90
        6
176
     1
 90
        2
176
     1
 62
     8
420
  7895160
176
     1
 90
        3
176
     1
 90
        0
176
     1
 90
        0
176
     1
290
     0
176
     1
 90
        5
176
     1
 40
0.0
176
     1
 90
        0
176
     1
290
     0
176
     1
290
     1
176
     1
290
     1
176
     1
290
     0
176
     1
290
     0
176
     1
290
     0
176
     1
290
     0
176
     1
290
     0
176
     1
290
     0
176
     1
 90
       50
176
     1
 40
0.0
176
     1
 40
1.0
176
     1
 90
        0
176
     1
 62
    18
420
        0
176
     1
 90
       50
176
     1
 90
        3
176
     1
 62
     5
420
      255
176
     1
290
     0
176
     1
 90
       50
176
     1
 90
       50
176
     1
 90
       50
176
     1
290
     0
176
     1
 90
       50
176
     1
 62
   256
176
     0
 40
1.0
176
     0
 90
        2
176
     1
  1
strokes_ogs.tif
176
     1
290
     0
176
     1
 40
1.0
176
     1
 40
1.0
176
     1
  0
VISUALSTYLE
  5
3D
102
{ACAD_REACTORS
330
29
102
}
330
29
100
AcDbVisualStyle
  2
Shaded with edges
 70
    26
177
     3
291
     0
 70
    58
 90
        2
176
     1
 90
        2
176
     1
 90
        1
176
     1
 90
        2
176
     1
 40
0.6
176
     1
 40
30.0
176
     1
 62
     7
420
 16777215
176
     1
 90
        1
176
     1
 90
        2
176
     1
 62
     7
176
     1
 62
   257
176
     1
 90
        2
176
     1
 90
        1
176
     1
 40
1.0
176
     1
 90
        8
176
     1
 62
   257
176
     1
 40
1.0
176
     1
 90
        1
176
     1
 90
        6
176
     1
 90
        2
176
     1
 62
     7
176
     1
 90
        3
176
     1
 90
        0
176
     1
 90
        0
176
     1
290
     0
176
     1
 90
        5
176
     1
 40
0.0
176
     1
 90
        0
176
     1
290
     0
176
     1
290
     1
176
     1
290
     1
176
     1
290
     0
176
     1
290
     0
176
     1
290
     0
176
     1
290
     0
176
     1
290
     0
176
     1
290
     0
176
     1
 90
       50
176
     1
 40
0.0
176
     1
 40
1.0
176
     1
 90
        0
176
     1
 62
    18
420
        0
176
     1
 90
       50
176
     1
 90
        3
176
     1
 62
     5
420
      255
176
     1
290
     0
176
     1
 90
       50
176
     1
 90
       50
176
     1
 90
       50
176
     1
290
     0
176
     1
 90
       50
176
     1
 62
   256
176
     0
 40
1.0
176
     0
 90
        2
176
     1
  1
strokes_ogs.tif
176
     1
290
     0
176
     1
 40
1.0
176
     1
 40
1.0
176
     1
  0
VISUALSTYLE
  5
3A
102
{ACAD_REACTORS
330
29
102
}
330
29
100
AcDbVisualStyle
  2
Shades of Gray
 70
    23
177
     3
291
     0
 70
    58
 90
        2
176
     1
 90
        2
176
     1
 90
        3
176
     1
 90
        0
176
     1
 40
0.6
176
     1
 40
30.0
176
     1
 62
     7
420
 16777215
176
     1
 90
        2
176
     1
 90
        2
176
     1
 62
     7
176
     1
 62
     7
176
     1
 90
        1
176
     1
 90
        1
176
     1
 40
40.0
176
     1
 90
        8
176
     1
 62
     7
176
     1
 40
1.0
176
     1
 90
        1
176
     1
 90
        6
176
     1
 90
        2
176
     1
 62
     7
176
     1
 90
        3
176
     1
 90
        0
176
     1
 90
        0
176
     1
290
     0
176
     1
 90
        1
176
     1
 40
0.0
176
     1
 90
        0
176
     1
290
     0
176
     1
290
     1
176
     1
290
     1
176
     1
290
     0
176
     1
290
     0
176
     1
290
     0
176
     1
290
     0
176
     1
290
     0
176
     1
290
     0
176
     1
 90
       50
176
     1
 40
0.0
176
     1
 40
1.0
176
     1
 90
        0
176
     1
 62
    18
420
        0
176
     1
 90
       50
176
     1
 90
        3
176
     1
 62
     5
420
      255
176
     1
290
     0
176
     1
 90
       50
176
     1
 90
       50
176
     1
 90
       50
176
     1
290
     0
176
     1
 90
       50
176
     1
 62
   256
176
     0
 40
1.0
176
     0
 90
        2
176
     1
  1
strokes_ogs.tif
176
     1
290
     0
176
     1
 40
1.0
176
     1
 40
1.0
176
     1
  0
VISUALSTYLE
  5
3B
102
{ACAD_REACTORS
330
29
102
}
330
29
100
AcDbVisualStyle
  2
Sketchy
 70
    24
177
     3
291
     0
 70
    58
 90
        1
176
     1
 90
        2
176
     1
 90
        2
176
     1
 90
        0
176
     1
 40
0.6
176
     1
 40
30.0
176
     1
 62
     7
420
 16777215
176
     1
 90
        2
176
     1
 90
        2
176
     1
 62
     7
176
     1
 62
     7
176
     1
 90
        1
176
     1
 90
        1
176
     1
 40
40.0
176
     1
 90
       11
176
     1
 62
     7
176
     1
 40
1.0
176
     1
 90
        1
176
     1
 90
        6
176
     1
 90
        2
176
     1
 62
     7
176
     1
 90
        6
176
     1
 90
        0
176
     1
 90
        0
176
     1
290
     0
176
     1
 90
        1
176
     1
 40
0.0
176
     1
 90
        0
176
     1
290
     0
176
     1
290
     1
176
     1
290
     1
176
     1
290
     0
176
     1
290
     0
176
     1
290
     0
176
     1
290
     0
176
     1
290
     0
176
     1
290
     0
176
     1
 90
       50
176
     1
 40
0.0
176
     1
 40
1.0
176
     1
 90
        0
176
     1
 62
    18
420
        0
176
     1
 90
       50
176
     1
 90
        3
176
     1
 62
     5
420
      255
176
     1
290
     0
176
     1
 90
       50
176
     1
 90
       50
176
     1
 90
       50
176
     1
290
     0
176
     1
 90
       50
176
     1
 62
   256
176
     0
 40
1.0
176
     0
 90
        2
176
     1
  1
strokes_ogs.tif
176
     1
290
     0
176
     1
 40
1.0
176
     1
 40
1.0
176
     1
  0
VISUALSTYLE
  5
36
102
{ACAD_REACTORS
330
29
102
}
330
29
100
AcDbVisualStyle
  2
Thicken
 70
    13
177
     3
291
     1
 70
    58
 90
        2
176
     1
 90
        2
176
     1
 90
        0
176
     1
 90
        0
176
     1
 40
0.6
176
     1
 40
30.0
176
     1
 62
     7
420
 16777215
176
     1
 90
        1
176
     1
 90
        4
176
     1
 62
     7
176
     1
 62
   257
176
     1
 90
        1
176
     1
 90
        1
176
     1
 40
1.0
176
     1
 90
       12
176
     1
 62
     7
176
     1
 40
1.0
176
     1
 90
        1
176
     1
 90
        6
176
     1
 90
        2
176
     1
 62
     7
176
     1
 90
        5
176
     1
 90
        0
176
     1
 90
        0
176
     1
290
     0
176
     1
 90
        1
176
     1
 40
0.0
176
     1
 90
        0
176
     1
290
     0
176
     1
290
     1
176
     1
290
     1
176
     1
290
     0
176
     1
290
     0
176
     1
290
     0
176
     1
290
     0
176
     1
290
     0
176
     1
290
     0
176
     1
 90
       50
176
     1
 40
0.0
176
     1
 40
1.0
176
     1
 90
        0
176
     1
 62
    18
420
        0
176
     1
 90
       50
176
     1
 90
        3
176
     1
 62
     5
420
      255
176
     1
290
     0
176
     1
 90
       50
176
     1
 90
       50
176
     1
 90
       50
176
     1
290
     0
176
     1
 90
       50
176
     1
 62
   256
176
     0
 40
1.0
176
     0
 90
        2
176
     1
  1
strokes_ogs.tif
176
     1
290
     0
176
     1
 40
1.0
176
     1
 40
1.0
176
     1
  0
VISUALSTYLE
  5
30
102
{ACAD_REACTORS
330
29
102
}
330
29
100
AcDbVisualStyle
  2
Wireframe
 70
     5
177
     3
291
     0
 70
    58
 90
        0
176
     1
 90
        2
176
     1
 90
        0
176
     1
 90
        0
176
     1
 40
0.6
176
     1
 40
30.0
176
     1
 62
     7
420
 16777215
176
     1
 90
        1
176
     1
 90
        4
176
     1
 62
     7
176
     1
 62
   257
176
     1
 90
        1
176
     1
 90
        1
176
     1
 40
1.0
176
     1
 90
        0
176
     1
 62
   257
176
     1
 40
1.0
176
     1
 90
        1
176
     1
 90
        6
176
     1
 90
        2
176
     1
 62
     7
176
     1
 90
        3
176
     1
 90
        0
176
     1
 90
        0
176
     1
290
     0
176
     1
 90
        1
176
     1
 40
0.0
176
     1
 90
        0
176
     1
290
     0
176
     1
290
     1
176
     1
290
     1
176
     1
290
     0
176
     1
290
     0
176
     1
290
     0
176
     1
290
     0
176
     1
290
     0
176
     1
290
     0
176
     1
 90
       50
176
     1
 40
0.0
176
     1
 40
1.0
176
     1
 90
        0
176
     1
 62
    18
420
        0
176
     1
 90
       50
176
     1
 90
        3
176
     1
 62
     5
420
      255
176
     1
290
     0
176
     1
 90
       50
176
     1
 90
       50
176
     1
 90
       50
176
     1
290
     0
176
     1
 90
       50
176
     1
 62
   256
176
     0
 40
1.0
176
     0
 90
        2
176
     1
  1
strokes_ogs.tif
176
     1
290
     0
176
     1
 40
1.0
176
     1
 40
1.0
176
     1
  0
VISUALSTYLE
  5
3C
102
{ACAD_REACTORS
330
29
102
}
330
29
100
AcDbVisualStyle
  2
X-Ray
 70
    25
177
     3
291
     0
 70
    58
 90
        2
176
     1
 90
        2
176
     1
 90
        1
176
     1
 90
        1
176
     1
 40
0.5
176
     1
 40
30.0
176
     1
 62
     7
420
 16777215
176
     1
 90
        1
176
     1
 90
        0
176
     1
 62
     7
176
     1
 62
   257
176
     1
 90
        1
176
     1
 90
        1
176
     1
 40
1.0
176
     1
 90
        8
176
     1
 62
     7
176
     1
 40
1.0
176
     1
 90
        1
176
     1
 90
        6
176
     1
 90
        2
176
     1
 62
     7
176
     1
 90
        3
176
     1
 90
        0
176
     1
 90
        0
176
     1
290
     0
176
     1
 90
       13
176
     1
 40
0.0
176
     1
 90
        0
176
     1
290
     0
176
     1
290
     1
176
     1
290
     1
176
     1
290
     0
176
     1
290
     0
176
     1
290
     0
176
     1
290
     0
176
     1
290
     0
176
     1
290
     0
176
     1
 90
       50
176
     1
 40
0.0
176
     1
 40
1.0
176
     1
 90
        0
176
     1
 62
    18
420
        0
176
     1
 90
       50
176
     1
 90
        3
176
     1
 62
     5
420
      255
176
     1
290
     0
176
     1
 90
       50
176
     1
 90
       50
176
     1
 90
       50
176
     1
290
     0
176
     1
 90
       50
176
     1
 62
   256
176
     0
 40
1.0
176
     0
 90
        2
176
     1
  1
strokes_ogs.tif
176
     1
290
     0
176
     1
 40
1.0
176
     1
 40
1.0
176
     1
  0
DICTIONARYVAR
  5
A9
102
{ACAD_REACTORS
330
A4
102
}
330
A4
100
DictionaryVariables
280
     0
  1
1:1
  0
DICTIONARYVAR
  5
A6
102
{ACAD_REACTORS
330
A4
102
}
330
A4
100
DictionaryVariables
280
     0
  1
STANDARD
  0
DICTIONARYVAR
  5
A5
102
{ACAD_REACTORS
330
A4
102
}
330
A4
100
DictionaryVariables
280
     0
  1
STANDARD
  0
DICTIONARYVAR
  5
A7
102
{ACAD_REACTORS
330
A4
102
}
330
A4
100
DictionaryVariables
280
     0
  1
Imperial24
  0
DICTIONARYVAR
  5
A8
102
{ACAD_REACTORS
330
A4
102
}
330
A4
100
DictionaryVariables
280
     0
  1
Imperial24
  0
DICTIONARY
  5
1A
330
19
100
AcDbDictionary
280
     1
281
     1
  3
BUMPTILE
360
1C
  3
DIFFUSETILE
360
1B
  3
OPACITYTILE
360
1F
  3
REFLECTIONTILE
360
1E
  3
REFRACTIONTILE
360
20
  3
SPECULARTILE
360
1D
  0
DICTIONARY
  5
12
330
11
100
AcDbDictionary
280
     1
281
     1
  3
BUMPTILE
360
14
  3
DIFFUSETILE
360
13
  3
OPACITYTILE
360
17
  3
REFLECTIONTILE
360
16
  3
REFRACTIONTILE
360
18
  3
SPECULARTILE
360
15
  0
DICTIONARY
  5
22
330
21
100
AcDbDictionary
280
     1
281
     1
  3
BUMPTILE
360
24
  3
DIFFUSETILE
360
23
  3
OPACITYTILE
360
27
  3
REFLECTIONTILE
360
26
  3
REFRACTIONTILE
360
28
  3
SPECULARTILE
360
25
  0
DICTIONARY
  5
AA
330
65
100
AcDbDictionary
280
     1
281
     1
  3
ACAD_ROUNDTRIP_2008_TABLESTYLE_CELLSTYLEMAP
360
AB
  0
XRECORD
  5
1C
102
{ACAD_REACTORS
330
1A
102
}
330
1A
100
AcDbXrecord
280
     1
270
     1
271
     1
  0
XRECORD
  5
1B
102
{ACAD_REACTORS
330
1A
102
}
330
1A
100
AcDbXrecord
280
     1
270
     1
271
     1
  0
XRECORD
  5
1F
102
{ACAD_REACTORS
330
1A
102
}
330
1A
100
AcDbXrecord
280
     1
270
     1
271
     1
  0
XRECORD
  5
1E
102
{ACAD_REACTORS
330
1A
102
}
330
1A
100
AcDbXrecord
280
     1
270
     1
271
     1
  0
XRECORD
  5
20
102
{ACAD_REACTORS
330
1A
102
}
330
1A
100
AcDbXrecord
280
     1
270
     1
271
     1
  0
XRECORD
  5
1D
102
{ACAD_REACTORS
330
1A
102
}
330
1A
100
AcDbXrecord
280
     1
270
     1
271
     1
  0
XRECORD
  5
14
102
{ACAD_REACTORS
330
12
102
}
330
12
100
AcDbXrecord
280
     1
270
     1
271
     1
  0
XRECORD
  5
13
102
{ACAD_REACTORS
330
12
102
}
330
12
100
AcDbXrecord
280
     1
270
     1
271
     1
  0
XRECORD
  5
17
102
{ACAD_REACTORS
330
12
102
}
330
12
100
AcDbXrecord
280
     1
270
     1
271
     1
  0
XRECORD
  5
16
102
{ACAD_REACTORS
330
12
102
}
330
12
100
AcDbXrecord
280
     1
270
     1
271
     1
  0
XRECORD
  5
18
102
{ACAD_REACTORS
330
12
102
}
330
12
100
AcDbXrecord
280
     1
270
     1
271
     1
  0
XRECORD
  5
15
102
{ACAD_REACTORS
330
12
102
}
330
12
100
AcDbXrecord
280
     1
270
     1
271
     1
  0
XRECORD
  5
24
102
{ACAD_REACTORS
330
22
102
}
330
22
100
AcDbXrecord
280
     1
270
     1
271
     1
  0
XRECORD
  5
23
102
{ACAD_REACTORS
330
22
102
}
330
22
100
AcDbXrecord
280
     1
270
     1
271
     1
  0
XRECORD
  5
27
102
{ACAD_REACTORS
330
22
102
}
330
22
100
AcDbXrecord
280
     1
270
     1
271
     1
  0
XRECORD
  5
26
102
{ACAD_REACTORS
330
22
102
}
330
22
100
AcDbXrecord
280
     1
270
     1
271
     1
  0
XRECORD
  5
28
102
{ACAD_REACTORS
330
22
102
}
330
22
100
AcDbXrecord
280
     1
270
     1
271
     1
  0
XRECORD
  5
25
102
{ACAD_REACTORS
330
22
102
}
330
22
100
AcDbXrecord
280
     1
270
     1
271
     1
  0
CELLSTYLEMAP
  5
AB
102
{ACAD_REACTORS
330
AA
102
}
330
AA
100
AcDbCellStyleMap
 90
        3
300
CELLSTYLE
  1
TABLEFORMAT_BEGIN
 90
        5
170
     1
 91
        0
 92
    32768
 62
   257
 93
        1
300
CONTENTFORMAT
  1
CONTENTFORMAT_BEGIN
 90
        0
 91
        0
 92
      512
 93
        0
300

 40
0.0
140
1.0
 94
        5
 62
     0
340
55
144
0.25
309
CONTENTFORMAT_END
171
     0
 94
        0
309
TABLEFORMAT_END
  1
CELLSTYLE_BEGIN
 90
        1
 91
        1
300
_TITLE
309
CELLSTYLE_END
300
CELLSTYLE
  1
TABLEFORMAT_BEGIN
 90
        5
170
     1
 91
        0
 92
        0
 62
   257
 93
        1
300
CONTENTFORMAT
  1
CONTENTFORMAT_BEGIN
 90
        0
 91
        0
 92
      512
 93
        0
300

 40
0.0
140
1.0
 94
        5
 62
     0
340
55
144
0.18
309
CONTENTFORMAT_END
171
     0
 94
        0
309
TABLEFORMAT_END
  1
CELLSTYLE_BEGIN
 90
        2
 91
        1
300
_HEADER
309
CELLSTYLE_END
300
CELLSTYLE
  1
TABLEFORMAT_BEGIN
 90
        5
170
     1
 91
        0
 92
        0
 62
   257
 93
        1
300
CONTENTFORMAT
  1
CONTENTFORMAT_BEGIN
 90
        0
 91
        0
 92
      512
 93
        0
300

 40
0.0
140
1.0
 94
        2
 62
     0
340
55
144
0.18
309
CONTENTFORMAT_END
171
     0
 94
        0
309
TABLEFORMAT_END
  1
CELLSTYLE_BEGIN
 90
        3
 91
        2
300
_DATA
309
CELLSTYLE_END
  0
ENDSEC
  0
EOF
