  0
SECTION
  2
HEADER
  9
$ACADVER
  1
AC1032
  9
$ACADMAINTVER
 90
      141
  9
$DWGCODEPAGE
  3
ANSI_1252
  9
$REQUIREDVERSIONS
160
                 0
  9
$INSBASE
 10
0.0
 20
0.0
 30
0.0
  9
$EXTMIN
 10
1.000000000000000E+20
 20
1.000000000000000E+20
 30
1.000000000000000E+20
  9
$EXTMAX
 10
-1.000000000000000E+20
 20
-1.000000000000000E+20
 30
-1.000000000000000E+20
  9
$LIMMIN
 10
0.0
 20
0.0
  9
$LIMMAX
 10
12.0
 20
9.0
  9
$ORTHOMODE
 70
     0
  9
$REGENMODE
 70
     1
  9
$FILLMODE
 70
     1
  9
$QTEXTMODE
 70
     0
  9
$MIRRTEXT
 70
     0
  9
$LTSCALE
 40
1.0
  9
$ATTMODE
 70
     1
  9
$TEXTSIZE
 40
0.2
  9
$TRACEWID
 40
0.05
  9
$TEXTSTYLE
  7
Standard
  9
$CLAYER
  8
0
  9
$CELTYPE
  6
ByLayer
  9
$CECOLOR
 62
   256
  9
$CELTSCALE
 40
1.0
  9
$DISPSILH
 70
     0
  9
$DIMSCALE
 40
1.0
  9
$DIMASZ
 40
0.18
  9
$DIMEXO
 40
0.0625
  9
$DIMDLI
 40
0.38
  9
$DIMRND
 40
0.0
  9
$DIMDLE
 40
0.0
  9
$DIMEXE
 40
0.18
  9
$DIMTP
 40
0.0
  9
$DIMTM
 40
0.0
  9
$DIMTXT
 40
0.18
  9
$DIMCEN
 40
0.09
  9
$DIMTSZ
 40
0.0
  9
$DIMTOL
 70
     0
  9
$DIMLIM
 70
     0
  9
$DIMTIH
 70
     1
  9
$DIMTOH
 70
     1
  9
$DIMSE1
 70
     0
  9
$DIMSE2
 70
     0
  9
$DIMTAD
 70
     0
  9
$DIMZIN
 70
     0
  9
$DIMBLK
  1

  9
$DIMASO
 70
     1
  9
$DIMSHO
 70
     1
  9
$DIMPOST
  1

  9
$DIMAPOST
  1

  9
$DIMALT
 70
     0
  9
$DIMALTD
 70
     2
  9
$DIMALTF
 40
25.4
  9
$DIMLFAC
 40
1.0
  9
$DIMTOFL
 70
     0
  9
$DIMTVP
 40
0.0
  9
$DIMTIX
 70
     0
  9
$DIMSOXD
 70
     0
  9
$DIMSAH
 70
     0
  9
$DIMBLK1
  1

  9
$DIMBLK2
  1

  9
$DIMSTYLE
  2
Standard
  9
$DIMCLRD
 70
     0
  9
$DIMCLRE
 70
     0
  9
$DIMCLRT
 70
     0
  9
$DIMTFAC
 40
1.0
  9
$DIMGAP
 40
0.09
  9
$DIMJUST
 70
     0
  9
$DIMSD1
 70
     0
  9
$DIMSD2
 70
     0
  9
$DIMTOLJ
 70
     1
  9
$DIMTZIN
 70
     0
  9
$DIMALTZ
 70
     0
  9
$DIMALTTZ
 70
     0
  9
$DIMUPT
 70
     0
  9
$DIMDEC
 70
     4
  9
$DIMTDEC
 70
     4
  9
$DIMALTU
 70
     2
  9
$DIMALTTD
 70
     2
  9
$DIMTXSTY
  7
Standard
  9
$DIMAUNIT
 70
     0
  9
$DIMADEC
 70
     0
  9
$DIMALTRND
 40
0.0
  9
$DIMAZIN
 70
     0
  9
$DIMDSEP
 70
    46
  9
$DIMATFIT
 70
     3
  9
$DIMFRAC
 70
     0
  9
$DIMLDRBLK
  1

  9
$DIMLUNIT
 70
     2
  9
$DIMLWD
 70
    -2
  9
$DIMLWE
 70
    -2
  9
$DIMTMOVE
 70
     0
  9
$DIMFXL
 40
1.0
  9
$DIMFXLON
 70
     0
  9
$DIMJOGANG
 40
0.7853981633974483
  9
$DIMTFILL
 70
     0
  9
$DIMTFILLCLR
 70
     0
  9
$DIMARCSYM
 70
     0
  9
$DIMLTYPE
  6

  9
$DIMLTEX1
  6

  9
$DIMLTEX2
  6

  9
$DIMTXTDIRECTION
 70
     0
  9
$LUNITS
 70
     2
  9
$LUPREC
 70
     4
  9
$SKETCHINC
 40
0.1
  9
$FILLETRAD
 40
0.0
  9
$AUNITS
 70
     0
  9
$AUPREC
 70
     0
  9
$MENU
  1
.
  9
$ELEVATION
 40
0.0
  9
$PELEVATION
 40
0.0
  9
$THICKNESS
 40
0.0
  9
$LIMCHECK
 70
     0
  9
$CHAMFERA
 40
0.0
  9
$CHAMFERB
 40
0.0
  9
$CHAMFERC
 40
0.0
  9
$CHAMFERD
 40
0.0
  9
$SKPOLY
 70
     0
  9
$TDCREATE
 40
2460089.837800926
  9
$TDUCREATE
 40
2460089.754467593
  9
$TDUPDATE
 40
2460089.837800926
  9
$TDUUPDATE
 40
2460089.754467593
  9
$TDINDWG
 40
0.0000000000
  9
$TDUSRTIMER
 40
0.0000000000
  9
$USRTIMER
 70
     1
  9
$ANGBASE
 50
0.0
  9
$ANGDIR
 70
     0
  9
$PDMODE
 70
     0
  9
$PDSIZE
 40
0.0
  9
$PLINEWID
 40
0.0
  9
$SPLFRAME
 70
     0
  9
$SPLINETYPE
 70
     6
  9
$SPLINESEGS
 70
     8
  9
$HANDSEED
  5
A1
  9
$SURFTAB1
 70
     6
  9
$SURFTAB2
 70
     6
  9
$SURFTYPE
 70
     6
  9
$SURFU
 70
     6
  9
$SURFV
 70
     6
  9
$UCSBASE
  2

  9
$UCSNAME
  2

  9
$UCSORG
 10
0.0
 20
0.0
 30
0.0
  9
$UCSXDIR
 10
1.0
 20
0.0
 30
0.0
  9
$UCSYDIR
 10
0.0
 20
1.0
 30
0.0
  9
$UCSORTHOREF
  2

  9
$UCSORTHOVIEW
 70
     0
  9
$UCSORGTOP
 10
0.0
 20
0.0
 30
0.0
  9
$UCSORGBOTTOM
 10
0.0
 20
0.0
 30
0.0
  9
$UCSORGLEFT
 10
0.0
 20
0.0
 30
0.0
  9
$UCSORGRIGHT
 10
0.0
 20
0.0
 30
0.0
  9
$UCSORGFRONT
 10
0.0
 20
0.0
 30
0.0
  9
$UCSORGBACK
 10
0.0
 20
0.0
 30
0.0
  9
$PUCSBASE
  2

  9
$PUCSNAME
  2

  9
$PUCSORG
 10
0.0
 20
0.0
 30
0.0
  9
$PUCSXDIR
 10
1.0
 20
0.0
 30
0.0
  9
$PUCSYDIR
 10
0.0
 20
1.0
 30
0.0
  9
$PUCSORTHOREF
  2

  9
$PUCSORTHOVIEW
 70
     0
  9
$PUCSORGTOP
 10
0.0
 20
0.0
 30
0.0
  9
$PUCSORGBOTTOM
 10
0.0
 20
0.0
 30
0.0
  9
$PUCSORGLEFT
 10
0.0
 20
0.0
 30
0.0
  9
$PUCSORGRIGHT
 10
0.0
 20
0.0
 30
0.0
  9
$PUCSORGFRONT
 10
0.0
 20
0.0
 30
0.0
  9
$PUCSORGBACK
 10
0.0
 20
0.0
 30
0.0
  9
$USERI1
 70
     0
  9
$USERI2
 70
     0
  9
$USERI3
 70
     0
  9
$USERI4
 70
     0
  9
$USERI5
 70
     0
  9
$USERR1
 40
0.0
  9
$USERR2
 40
0.0
  9
$USERR3
 40
0.0
  9
$USERR4
 40
0.0
  9
$USERR5
 40
0.0
  9
$WORLDVIEW
 70
     1
  9
$SHADEDGE
 70
     3
  9
$SHADEDIF
 70
    70
  9
$TILEMODE
 70
     1
  9
$MAXACTVP
 70
    64
  9
$PINSBASE
 10
0.0
 20
0.0
 30
0.0
  9
$PLIMCHECK
 70
     0
  9
$PEXTMIN
 10
1.000000000000000E+20
 20
1.000000000000000E+20
 30
1.000000000000000E+20
  9
$PEXTMAX
 10
-1.000000000000000E+20
 20
-1.000000000000000E+20
 30
-1.000000000000000E+20
  9
$PLIMMIN
 10
0.0
 20
0.0
  9
$PLIMMAX
 10
12.0
 20
9.0
  9
$UNITMODE
 70
     0
  9
$VISRETAIN
 70
     1
  9
$PLINEGEN
 70
     0
  9
$PSLTSCALE
 70
     1
  9
$TREEDEPTH
 70
  3020
  9
$CMLSTYLE
  2
Standard
  9
$CMLJUST
 70
     0
  9
$CMLSCALE
 40
1.0
  9
$PROXYGRAPHICS
 70
     1
  9
$MEASUREMENT
 70
     0
  9
$CELWEIGHT
370
    -1
  9
$ENDCAPS
280
     0
  9
$JOINSTYLE
280
     0
  9
$LWDISPLAY
290
     1
  9
$INSUNITS
 70
     4
  9
$HYPERLINKBASE
  1

  9
$STYLESHEET
  1

  9
$XEDIT
290
     1
  9
$CEPSNTYPE
380
     0
  9
$PSTYLEMODE
290
     1
  9
$FINGERPRINTGUID
  2
{64B1331A-B29E-4642-8F4B-C5D8C0FB76C5}
  9
$VERSIONGUID
  2
{09FC3C12-1C08-9A4B-9C3F-84AE4ECB661B}
  9
$EXTNAMES
290
     1
  9
$PSVPSCALE
 40
0.0
  9
$OLESTARTUP
290
     0
  9
$SORTENTS
280
   127
  9
$INDEXCTL
280
     0
  9
$HIDETEXT
280
     1
  9
$XCLIPFRAME
280
     2
  9
$HALOGAP
280
     0
  9
$OBSCOLOR
 70
   257
  9
$OBSLTYPE
280
     0
  9
$INTERSECTIONDISPLAY
280
     0
  9
$INTERSECTIONCOLOR
 70
   257
  9
$DIMASSOC
280
     2
  9
$PROJECTNAME
  1

  9
$CAMERADISPLAY
290
     0
  9
$LENSLENGTH
 40
50.0
  9
$CAMERAHEIGHT
 40
0.0
  9
$STEPSPERSEC
 40
2.0
  9
$STEPSIZE
 40
6.0
  9
$3DDWFPREC
 40
2.0
  9
$PSOLWIDTH
 40
0.25
  9
$PSOLHEIGHT
 40
4.0
  9
$LOFTANG1
 40
1.570796326794896
  9
$LOFTANG2
 40
1.570796326794896
  9
$LOFTMAG1
 40
0.0
  9
$LOFTMAG2
 40
0.0
  9
$LOFTPARAM
 70
     7
  9
$LOFTNORMALS
280
     1
  9
$LATITUDE
 40
37.795
  9
$LONGITUDE
 40
-122.394
  9
$NORTHDIRECTION
 40
0.0
  9
$TIMEZONE
 70
 -8000
  9
$LIGHTGLYPHDISPLAY
280
     1
  9
$TILEMODELIGHTSYNCH
280
     1
  9
$CMATERIAL
347
11
  9
$SOLIDHIST
280
     0
  9
$SHOWHIST
280
     1
  9
$DWFFRAME
280
     2
  9
$DGNFRAME
280
     0
  9
$REALWORLDSCALE
290
     1
  9
$INTERFERECOLOR
 62
     1
  9
$INTERFEREOBJVS
345
33
  9
$INTERFEREVPVS
346
30
  9
$CSHADOW
280
     0
  9
$SHADOWPLANELOCATION
 40
0.0
  0
ENDSEC
  0
SECTION
  2
CLASSES
  0
CLASS
  1
ACDBDICTIONARYWDFLT
  2
AcDbDictionaryWithDefault
  3
ObjectDBX Classes
 90
        0
 91
        1
280
     0
281
     0
  0
CLASS
  1
MATERIAL
  2
AcDbMaterial
  3
ObjectDBX Classes
 90
     1153
 91
        3
280
     0
281
     0
  0
CLASS
  1
VISUALSTYLE
  2
AcDbVisualStyle
  3
ObjectDBX Classes
 90
     4095
 91
       24
280
     0
281
     0
  0
CLASS
  1
SCALE
  2
AcDbScale
  3
ObjectDBX Classes
 90
     1153
 91
       17
280
     0
281
     0
  0
CLASS
  1
TABLESTYLE
  2
AcDbTableStyle
  3
ObjectDBX Classes
 90
     4095
 91
        1
280
     0
281
     0
  0
CLASS
  1
MLEADERSTYLE
  2
AcDbMLeaderStyle
  3
ACDB_MLEADERSTYLE_CLASS
 90
     4095
 91
        1
280
     0
281
     0
  0
CLASS
  1
ACDBSECTIONVIEWSTYLE
  2
AcDbSectionViewStyle
  3
ObjectDBX Classes
 90
     1025
 91
        1
280
     0
281
     0
  0
CLASS
  1
ACDBDETAILVIEWSTYLE
  2
AcDbDetailViewStyle
  3
ObjectDBX Classes
 90
     1025
 91
        1
280
     0
281
     0
  0
CLASS
  1
DICTIONARYVAR
  2
AcDbDictionaryVar
  3
ObjectDBX Classes
 90
        0
 91
        5
280
     0
281
     0
  0
CLASS
  1
CELLSTYLEMAP
  2
AcDbCellStyleMap
  3
ObjectDBX Classes
 90
     1152
 91
        1
280
     0
281
     0
  0
ENDSEC
  0
SECTION
  2
TABLES
  0
TABLE
  2
VPORT
  5
8
330
0
100
AcDbSymbolTable
 70
     1
  0
VPORT
  5
57
330
8
100
AcDbSymbolTableRecord
100
AcDbViewportTableRecord
  2
*Active
 70
     0
 10
0.0
 20
0.0
 11
1.0
 21
1.0
 12
0.0
 22
0.0
 13
0.0
 23
0.0
 14
1.0
 24
1.0
 15
0.0
 25
0.0
 16
0.0
 26
0.0
 36
1.0
 17
625.1222220659417
 27
-625.1222220659417
 37
0.0
 40
1275.609166347764
 41
1.0
 42
50.0
 43
0.0
 44
0.0
 50
0.0
 51
0.0
 71
     0
 72
   100
 73
     1
 74
     1
 75
     0
 76
     0
 77
     0
 78
     0
281
     0
 65
     1
110
0.0
120
0.0
130
0.0
111
1.0
121
0.0
131
0.0
112
0.0
122
1.0
132
0.0
 79
     0
146
0.0
 60
     3
 61
     5
292
     1
282
     1
141
0.0
142
0.0
 63
   250
421
  3355443
  0
ENDTAB
  0
TABLE
  2
LTYPE
  5
5
330
0
100
AcDbSymbolTable
 70
     1
  0
LTYPE
  5
5B
330
5
100
AcDbSymbolTableRecord
100
AcDbLinetypeTableRecord
  2
ByBlock
 70
     0
  3

 72
    65
 73
     0
 40
0.0
  0
LTYPE
  5
5C
330
5
100
AcDbSymbolTableRecord
100
AcDbLinetypeTableRecord
  2
ByLayer
 70
     0
  3

 72
    65
 73
     0
 40
0.0
  0
LTYPE
  5
5D
330
5
100
AcDbSymbolTableRecord
100
AcDbLinetypeTableRecord
  2
Continuous
 70
     0
  3
Solid line
 72
    65
 73
     0
 40
0.0
  0
ENDTAB
  0
TABLE
  2
LAYER
  5
2
330
0
100
AcDbSymbolTable
 70
    11
  0
LAYER
  5
54
330
2
100
AcDbSymbolTableRecord
100
AcDbLayerTableRecord
  2
0
 70
     0
 62
     7
  6
Continuous
370
    -3
390
F
347
21
348
0
  0
LAYER
  5
78
330
2
100
AcDbSymbolTableRecord
100
AcDbLayerTableRecord
  2
Bounding Box (pattern cutoff)
 70
     5
 62
     7
  6
Continuous
370
     0
390
F
347
21
348
0
  0
LAYER
  5
79
330
2
100
AcDbSymbolTableRecord
100
AcDbLayerTableRecord
  2
Bounding Box
 70
     5
 62
     7
  6
Continuous
370
     0
390
F
347
21
348
0
  0
LAYER
  5
7A
330
2
100
AcDbSymbolTableRecord
100
AcDbLayerTableRecord
  2
Background
 70
     0
 62
     7
  6
Continuous
370
     0
390
F
347
21
348
0
  0
LAYER
  5
7D
330
2
100
AcDbSymbolTableRecord
100
AcDbLayerTableRecord
  2
Screws
 70
     0
 62
     7
  6
Continuous
370
     0
390
F
347
21
348
0
  0
LAYER
  5
86
330
2
100
AcDbSymbolTableRecord
100
AcDbLayerTableRecord
  2
2023-025
 70
     1
 62
     7
  6
Continuous
370
     0
390
F
347
21
348
0
  0
LAYER
  5
87
330
2
100
AcDbSymbolTableRecord
100
AcDbLayerTableRecord
  2
2023-026
 70
     1
 62
     7
  6
Continuous
370
     0
390
F
347
21
348
0
  0
LAYER
  5
88
330
2
100
AcDbSymbolTableRecord
100
AcDbLayerTableRecord
  2
2023-027
 70
     1
 62
     7
  6
Continuous
370
     0
390
F
347
21
348
0
  0
LAYER
  5
89
330
2
100
AcDbSymbolTableRecord
100
AcDbLayerTableRecord
  2
2023-028
 70
     1
 62
     7
  6
Continuous
370
     0
390
F
347
21
348
0
  0
LAYER
  5
8A
330
2
100
AcDbSymbolTableRecord
100
AcDbLayerTableRecord
  2
2023-029
 70
     0
 62
     7
  6
Continuous
370
     0
390
F
347
21
348
0
  0
LAYER
  5
97
330
2
100
AcDbSymbolTableRecord
100
AcDbLayerTableRecord
  2
2023-030
 70
     1
 62
     7
  6
Continuous
370
     0
390
F
347
21
348
0
  0
ENDTAB
  0
TABLE
  2
STYLE
  5
3
330
0
100
AcDbSymbolTable
 70
     2
  0
STYLE
  5
55
330
3
100
AcDbSymbolTableRecord
100
AcDbTextStyleTableRecord
  2
Standard
 70
     0
 40
0.0
 41
1.0
 50
0.0
 71
     0
 42
0.2
  3
txt
  4

  0
STYLE
  5
5A
330
3
100
AcDbSymbolTableRecord
100
AcDbTextStyleTableRecord
  2
Annotative
 70
     0
 40
0.0
 41
1.0
 50
0.0
 71
     0
 42
0.2
  3
txt
  4

1001
AcadAnnotative
1000
AnnotativeData
1002
{
1070
     1
1070
     1
1002
}
  0
ENDTAB
  0
TABLE
  2
VIEW
  5
6
330
0
100
AcDbSymbolTable
 70
     0
  0
ENDTAB
  0
TABLE
  2
UCS
  5
7
330
0
100
AcDbSymbolTable
 70
     0
  0
ENDTAB
  0
TABLE
  2
APPID
  5
9
330
0
100
AcDbSymbolTable
 70
     2
  0
APPID
  5
56
330
9
100
AcDbSymbolTableRecord
100
AcDbRegAppTableRecord
  2
ACAD
 70
     0
  0
APPID
  5
5E
330
9
100
AcDbSymbolTableRecord
100
AcDbRegAppTableRecord
  2
AcadAnnotative
 70
     0
  0
ENDTAB
  0
TABLE
  2
DIMSTYLE
  5
A
330
0
100
AcDbSymbolTable
 70
     2
100
AcDbDimStyleTable
 71
     0
  0
DIMSTYLE
105
58
330
A
100
AcDbSymbolTableRecord
100
AcDbDimStyleTableRecord
  2
Standard
 70
     0
340
55
  0
DIMSTYLE
105
59
330
A
100
AcDbSymbolTableRecord
100
AcDbDimStyleTableRecord
  2
Annotative
 70
     0
340
55
1001
AcadAnnotative
1000
AnnotativeData
1002
{
1070
     1
1070
     1
1002
}
  0
ENDTAB
  0
TABLE
  2
BLOCK_RECORD
  5
1
330
0
100
AcDbSymbolTable
 70
     1
  0
BLOCK_RECORD
  5
70
330
1
100
AcDbSymbolTableRecord
100
AcDbBlockTableRecord
  2
*Model_Space
340
73
 70
     0
280
     1
281
     0
  0
BLOCK_RECORD
  5
6C
330
1
100
AcDbSymbolTableRecord
100
AcDbBlockTableRecord
  2
*Paper_Space
340
6F
 70
     0
280
     1
281
     0
  0
BLOCK_RECORD
  5
74
330
1
100
AcDbSymbolTableRecord
100
AcDbBlockTableRecord
  2
*Paper_Space0
340
77
 70
     0
280
     1
281
     0
  0
ENDTAB
  0
ENDSEC
  0
SECTION
  2
BLOCKS
  0
BLOCK
  5
71
330
70
100
AcDbEntity
  8
0
100
AcDbBlockBegin
  2
*Model_Space
 70
     0
 10
0.0
 20
0.0
 30
0.0
  3
*Model_Space
  1

  0
ENDBLK
  5
72
330
70
100
AcDbEntity
  8
0
100
AcDbBlockEnd
  0
BLOCK
  5
6D
330
6C
100
AcDbEntity
 67
     1
  8
0
100
AcDbBlockBegin
  2
*Paper_Space
 70
     0
 10
0.0
 20
0.0
 30
0.0
  3
*Paper_Space
  1

  0
ENDBLK
  5
6E
330
6C
100
AcDbEntity
 67
     1
  8
0
100
AcDbBlockEnd
  0
BLOCK
  5
75
330
74
100
AcDbEntity
 67
     1
  8
0
100
AcDbBlockBegin
  2
*Paper_Space0
 70
     0
 10
0.0
 20
0.0
 30
0.0
  3
*Paper_Space0
  1

  0
ENDBLK
  5
76
330
74
100
AcDbEntity
 67
     1
  8
0
100
AcDbBlockEnd
  0
ENDSEC
  0
SECTION
  2
ENTITIES
  0
LWPOLYLINE
  5
7B
330
70
100
AcDbEntity
  8
Background
 62
   233
420
 12799387
370
    35
100
AcDbPolyline
 90
        4
 70
     1
 43
0.0
 10
1250.244444131883
 20
-1250.244444131883
 10
0.0
 20
-1250.244444131883
 10
0.0
 20
0.0
 10
1250.244444131883
 20
0.0
  0
HATCH
  5
7C
330
70
100
AcDbEntity
  8
Background
 62
   230
420
 15401099
440
 33554687
100
AcDbHatch
 10
0.0
 20
0.0
 30
0.0
210
0.0
220
0.0
230
1.0
  2
SOLID
 70
     1
 71
     1
 91
        1
 92
        1
 93
        4
 72
     1
 10
1250.244444131883
 20
-1250.244444131883
 11
0.0
 21
-1250.244444131883
 72
     1
 10
0.0
 20
-1250.244444131883
 11
0.0
 21
0.0
 72
     1
 10
0.0
 20
0.0
 11
1250.244444131883
 21
0.0
 72
     1
 10
1250.244444131883
 20
0.0
 11
1250.244444131883
 21
-1250.244444131883
 97
        1
330
7B
 75
     2
 76
     1
 98
        1
 10
0.0
 20
0.0
450
        0
451
        0
460
0.0
461
0.0
452
        0
462
0.0
453
        0
470

  0
ELLIPSE
  5
7E
330
70
100
AcDbEntity
  8
Screws
100
AcDbEllipse
 10
1212.6745853038
 20
-37.51513670353807
 30
0.0
 11
2.557638888249479
 21
0.0
 31
0.0
210
0.0
220
0.0
230
1.0
 40
0.9655172413793103
 41
0.0
 42
6.283185307179586
  0
HATCH
  5
7F
330
70
100
AcDbEntity
  8
Screws
 62
    18
420
        0
440
 33554687
100
AcDbHatch
 10
0.0
 20
0.0
 30
0.0
210
0.0
220
0.0
230
1.0
  2
SOLID
 70
     1
 71
     1
 91
        1
 92
        1
 93
        1
 72
     3
 10
1212.6745853038
 20
-37.51513670353807
 11
2.557638888249479
 21
0.0
 40
0.9655172413793103
 50
0.0
 51
360.0
 73
     1
 97
        1
330
7E
 75
     2
 76
     1
 98
        1
 10
0.0
 20
0.0
450
        0
451
        0
460
0.0
461
0.0
452
        0
462
0.0
453
        0
470

  0
ELLIPSE
  5
80
330
70
100
AcDbEntity
  8
Screws
100
AcDbEllipse
 10
37.3219878356064
 20
-37.51513670353775
 30
0.0
 11
2.557638888249479
 21
0.0
 31
0.0
210
0.0
220
0.0
230
1.0
 40
0.9655172413793103
 41
0.0
 42
6.283185307179586
  0
HATCH
  5
81
330
70
100
AcDbEntity
  8
Screws
 62
    18
420
        0
440
 33554687
100
AcDbHatch
 10
0.0
 20
0.0
 30
0.0
210
0.0
220
0.0
230
1.0
  2
SOLID
 70
     1
 71
     1
 91
        1
 92
        1
 93
        1
 72
     3
 10
37.3219878356064
 20
-37.51513670353775
 11
2.557638888249479
 21
0.0
 40
0.9655172413793103
 50
0.0
 51
360.0
 73
     1
 97
        1
330
80
 75
     2
 76
     1
 98
        1
 10
0.0
 20
0.0
450
        0
451
        0
460
0.0
461
0.0
452
        0
462
0.0
453
        0
470

  0
ELLIPSE
  5
82
330
70
100
AcDbEntity
  8
Screws
100
AcDbEllipse
 10
37.33954805773364
 20
-1212.515764532182
 30
0.0
 11
2.557638888249479
 21
0.0
 31
0.0
210
0.0
220
0.0
230
1.0
 40
0.9655172413793103
 41
0.0
 42
6.283185307179586
  0
HATCH
  5
83
330
70
100
AcDbEntity
  8
Screws
 62
    18
420
        0
440
 33554687
100
AcDbHatch
 10
0.0
 20
0.0
 30
0.0
210
0.0
220
0.0
230
1.0
  2
SOLID
 70
     1
 71
     1
 91
        1
 92
        1
 93
        1
 72
     3
 10
37.33954805773364
 20
-1212.515764532182
 11
2.557638888249479
 21
0.0
 40
0.9655172413793103
 50
0.0
 51
360.0
 73
     1
 97
        1
330
82
 75
     2
 76
     1
 98
        1
 10
0.0
 20
0.0
450
        0
451
        0
460
0.0
461
0.0
452
        0
462
0.0
453
        0
470

  0
ELLIPSE
  5
84
330
70
100
AcDbEntity
  8
Screws
100
AcDbEllipse
 10
1212.643721369271
 20
-1212.474237178821
 30
0.0
 11
2.557638888249479
 21
0.0
 31
0.0
210
0.0
220
0.0
230
1.0
 40
0.9655172413793103
 41
0.0
 42
6.283185307179586
  0
HATCH
  5
85
330
70
100
AcDbEntity
  8
Screws
 62
    18
420
        0
440
 33554687
100
AcDbHatch
 10
0.0
 20
0.0
 30
0.0
210
0.0
220
0.0
230
1.0
  2
SOLID
 70
     1
 71
     1
 91
        1
 92
        1
 93
        1
 72
     3
 10
1212.643721369271
 20
-1212.474237178821
 11
2.557638888249479
 21
0.0
 40
0.9655172413793103
 50
0.0
 51
360.0
 73
     1
 97
        1
330
84
 75
     2
 76
     1
 98
        1
 10
0.0
 20
0.0
450
        0
451
        0
460
0.0
461
0.0
452
        0
462
0.0
453
        0
470

  0
SPLINE
  5
8B
330
70
100
AcDbEntity
  8
2023-029
100
AcDbSpline
210
0.0
220
0.0
230
1.0
 70
     9
 71
     3
 72
    53
 73
    49
 74
     0
 42
0.0000000001
 43
0.0000000001
 40
0.0
 40
0.0
 40
0.0
 40
0.0
 40
1.0
 40
1.0
 40
1.0
 40
2.0
 40
2.0
 40
2.0
 40
3.0
 40
3.0
 40
3.0
 40
4.0
 40
4.0
 40
4.0
 40
5.0
 40
5.0
 40
5.0
 40
6.0
 40
6.0
 40
6.0
 40
7.0
 40
7.0
 40
7.0
 40
8.0
 40
8.0
 40
8.0
 40
9.0
 40
9.0
 40
9.0
 40
10.0
 40
10.0
 40
10.0
 40
11.0
 40
11.0
 40
11.0
 40
12.0
 40
12.0
 40
12.0
 40
13.0
 40
13.0
 40
13.0
 40
14.0
 40
14.0
 40
14.0
 40
15.0
 40
15.0
 40
15.0
 40
16.0
 40
16.0
 40
16.0
 40
16.0
 10
297.4389720597006
 20
-534.6000558152442
 30
0.0
 10
364.9194138356384
 20
-522.3017970156919
 30
0.0
 10
432.7421473798806
 20
-511.7520533659855
 30
0.0
 10
499.9631088702349
 20
-498.1982725805305
 30
0.0
 10
563.5101344077336
 20
-485.3855318339488
 30
0.0
 10
626.6390976080972
 20
-470.3578530725147
 30
0.0
 10
689.6403338933471
 20
-455.0257570612662
 30
0.0
 10
754.4636811807418
 20
-439.2501050062918
 30
0.0
 10
819.038809338428
 20
-422.4079805801618
 30
0.0
 10
883.488363765673
 20
-405.1583228899753
 30
0.0
 10
957.4481904073394
 20
-385.3631056775853
 30
0.0
 10
1030.969714775896
 20
-363.9156206704699
 30
0.0
 10
1105.033755555992
 20
-344.530542075597
 30
0.0
 10
1133.145476333467
 20
-337.1727870522085
 30
0.0
 10
1161.498870559236
 20
-330.6986990207867
 30
0.0
 10
1189.919444146964
 20
-324.5249802519851
 30
0.0
 10
1189.919444146964
 20
-324.5249802519851
 30
0.0
 10
1189.919444146964
 20
-250.3230495250928
 30
0.0
 10
1189.919444146964
 20
-250.3230495250928
 30
0.0
 10
1187.424936633484
 20
-250.901115015671
 30
0.0
 10
1184.930773629548
 20
-251.4772426400387
 30
0.0
 10
1182.436696753002
 20
-252.0488270447352
 30
0.0
 10
1136.185084080103
 20
-262.6483307923566
 30
0.0
 10
1089.912886961682
 20
-273.2757182815618
 30
0.0
 10
1044.032741709478
 20
-285.347052947869
 30
0.0
 10
983.1525645871112
 20
-301.3647660243767
 30
0.0
 10
922.7323938394144
 20
-319.1208312190479
 30
0.0
 10
861.9475597345999
 20
-335.5113251589064
 30
0.0
 10
797.5188481350406
 20
-352.8842957356183
 30
0.0
 10
732.9907455307281
 20
-369.9090963498516
 30
0.0
 10
668.3332795909481
 20
-386.4097902815452
 30
0.0
 10
570.8710115489075
 20
-411.2823030927108
 30
0.0
 10
472.6614592324196
 20
-432.8055371368092
 30
0.0
 10
373.4939119888768
 20
-449.7834844524432
 30
0.0
 10
310.0200947304377
 20
-460.6502630141776
 30
0.0
 10
246.3374185582073
 20
-470.3690496328418
 30
0.0
 10
183.0307099626516
 20
-482.1211316069002
 30
0.0
 10
141.9514559920729
 20
-489.7469796545824
 30
0.0
 10
100.9565853290363
 20
-497.8244366566844
 30
0.0
 10
59.97222220722917
 20
-505.9602449635726
 30
0.0
 10
59.97222220722917
 20
-505.9602449635726
 30
0.0
 10
59.97222220722917
 20
-579.5163064143677
 30
0.0
 10
59.97222220722917
 20
-579.5163064143677
 30
0.0
 10
83.2456293533748
 20
-575.0645109646313
 30
0.0
 10
106.5199408370853
 20
-570.617452521193
 30
0.0
 10
129.7975897570471
 20
-566.1881793831926
 30
0.0
 10
185.6591886268165
 20
-555.5590262825512
 30
0.0
 10
241.4974469746734
 20
-544.7952560758257
 30
0.0
 10
297.4389720597006
 20
-534.6000558152442
 30
0.0
  0
HATCH
  5
8C
330
70
100
AcDbEntity
  8
2023-029
 62
    18
420
        0
440
 33554687
100
AcDbHatch
 10
0.0
 20
0.0
 30
0.0
210
0.0
220
0.0
230
1.0
  2
SOLID
 70
     1
 71
     1
 91
        1
 92
        1
 93
        1
 72
     4
 94
        3
 73
     0
 74
     0
 95
       53
 96
       49
 40
0.0
 40
0.0
 40
0.0
 40
0.0
 40
1.0
 40
1.0
 40
1.0
 40
2.0
 40
2.0
 40
2.0
 40
3.0
 40
3.0
 40
3.0
 40
4.0
 40
4.0
 40
4.0
 40
5.0
 40
5.0
 40
5.0
 40
6.0
 40
6.0
 40
6.0
 40
7.0
 40
7.0
 40
7.0
 40
8.0
 40
8.0
 40
8.0
 40
9.0
 40
9.0
 40
9.0
 40
10.0
 40
10.0
 40
10.0
 40
11.0
 40
11.0
 40
11.0
 40
12.0
 40
12.0
 40
12.0
 40
13.0
 40
13.0
 40
13.0
 40
14.0
 40
14.0
 40
14.0
 40
15.0
 40
15.0
 40
15.0
 40
16.0
 40
16.0
 40
16.0
 40
16.0
 10
297.4389720597006
 20
-534.6000558152442
 10
364.9194138356384
 20
-522.3017970156919
 10
432.7421473798806
 20
-511.7520533659855
 10
499.9631088702349
 20
-498.1982725805305
 10
563.5101344077336
 20
-485.3855318339488
 10
626.6390976080972
 20
-470.3578530725147
 10
689.6403338933471
 20
-455.0257570612662
 10
754.4636811807418
 20
-439.2501050062918
 10
819.038809338428
 20
-422.4079805801618
 10
883.488363765673
 20
-405.1583228899753
 10
957.4481904073394
 20
-385.3631056775853
 10
1030.969714775896
 20
-363.9156206704699
 10
1105.033755555992
 20
-344.530542075597
 10
1133.145476333467
 20
-337.1727870522085
 10
1161.498870559236
 20
-330.6986990207867
 10
1189.919444146964
 20
-324.5249802519851
 10
1189.919444146964
 20
-324.5249802519851
 10
1189.919444146964
 20
-250.3230495250928
 10
1189.919444146964
 20
-250.3230495250928
 10
1187.424936633484
 20
-250.901115015671
 10
1184.930773629548
 20
-251.4772426400387
 10
1182.436696753002
 20
-252.0488270447352
 10
1136.185084080103
 20
-262.6483307923566
 10
1089.912886961682
 20
-273.2757182815618
 10
1044.032741709478
 20
-285.347052947869
 10
983.1525645871112
 20
-301.3647660243767
 10
922.7323938394144
 20
-319.1208312190479
 10
861.9475597345999
 20
-335.5113251589064
 10
797.5188481350406
 20
-352.8842957356183
 10
732.9907455307281
 20
-369.9090963498516
 10
668.3332795909481
 20
-386.4097902815452
 10
570.8710115489075
 20
-411.2823030927108
 10
472.6614592324196
 20
-432.8055371368092
 10
373.4939119888768
 20
-449.7834844524432
 10
310.0200947304377
 20
-460.6502630141776
 10
246.3374185582073
 20
-470.3690496328418
 10
183.0307099626516
 20
-482.1211316069002
 10
141.9514559920729
 20
-489.7469796545824
 10
100.9565853290363
 20
-497.8244366566844
 10
59.97222220722917
 20
-505.9602449635726
 10
59.97222220722917
 20
-505.9602449635726
 10
59.97222220722917
 20
-579.5163064143677
 10
59.97222220722917
 20
-579.5163064143677
 10
83.2456293533748
 20
-575.0645109646313
 10
106.5199408370853
 20
-570.617452521193
 10
129.7975897570471
 20
-566.1881793831926
 10
185.6591886268165
 20
-555.5590262825512
 10
241.4974469746734
 20
-544.7952560758257
 10
297.4389720597006
 20
-534.6000558152442
 97
        0
 97
        1
330
8B
 75
     2
 76
     1
 98
        1
 10
0.0
 20
0.0
450
        0
451
        0
460
0.0
461
0.0
452
        0
462
0.0
453
        0
470

  0
SPLINE
  5
8D
330
70
100
AcDbEntity
  8
2023-029
100
AcDbSpline
210
0.0
220
0.0
230
1.0
 70
     9
 71
     3
 72
    71
 73
    67
 74
     0
 42
0.0000000001
 43
0.0000000001
 40
0.0
 40
0.0
 40
0.0
 40
0.0
 40
1.0
 40
1.0
 40
1.0
 40
2.0
 40
2.0
 40
2.0
 40
3.0
 40
3.0
 40
3.0
 40
4.0
 40
4.0
 40
4.0
 40
5.0
 40
5.0
 40
5.0
 40
6.0
 40
6.0
 40
6.0
 40
7.0
 40
7.0
 40
7.0
 40
8.0
 40
8.0
 40
8.0
 40
9.0
 40
9.0
 40
9.0
 40
10.0
 40
10.0
 40
10.0
 40
11.0
 40
11.0
 40
11.0
 40
12.0
 40
12.0
 40
12.0
 40
13.0
 40
13.0
 40
13.0
 40
14.0
 40
14.0
 40
14.0
 40
15.0
 40
15.0
 40
15.0
 40
16.0
 40
16.0
 40
16.0
 40
17.0
 40
17.0
 40
17.0
 40
18.0
 40
18.0
 40
18.0
 40
19.0
 40
19.0
 40
19.0
 40
20.0
 40
20.0
 40
20.0
 40
21.0
 40
21.0
 40
21.0
 40
22.0
 40
22.0
 40
22.0
 40
22.0
 10
1150.078292898244
 20
-365.7855323724747
 30
0.0
 10
1128.880103613179
 20
-369.7672230114004
 30
0.0
 10
1107.896543776845
 20
-374.9281913667715
 30
0.0
 10
1086.881116807273
 20
-379.8343518473158
 30
0.0
 10
1068.1372135459
 20
-384.2101829415984
 30
0.0
 10
1049.673310420092
 20
-390.0839846165642
 30
0.0
 10
1030.747850626646
 20
-393.3206518249564
 30
0.0
 10
993.0566973428817
 20
-399.7666192644776
 30
0.0
 10
956.5866581538674
 20
-410.2641912494305
 30
0.0
 10
920.8229496667145
 20
-423.4398728053832
 30
0.0
 10
880.7245359126314
 20
-438.2121838639712
 30
0.0
 10
840.9991398722155
 20
-454.0364117652877
 30
0.0
 10
800.6491480203239
 20
-468.0759079504743
 30
0.0
 10
755.8387910436792
 20
-483.6675057791473
 30
0.0
 10
710.4707592353617
 20
-498.094618270117
 30
0.0
 10
663.6052305469912
 20
-505.91649225091
 30
0.0
 10
580.1850855754398
 20
-519.8392427628354
 30
0.0
 10
497.1186227191458
 20
-535.4382475468055
 30
0.0
 10
414.42341196508
 20
-553.1181761312517
 30
0.0
 10
376.2910280770437
 20
-561.270650087547
 30
0.0
 10
338.2172323441024
 20
-569.9148683606689
 30
0.0
 10
299.7961279225553
 20
-576.451592534382
 30
0.0
 10
233.561712588094
 20
-587.7201984207783
 30
0.0
 10
166.9876754343273
 20
-596.9861272379063
 30
0.0
 10
100.7237184060799
 20
-608.0913494709164
 30
0.0
 10
87.13245067537433
 20
-610.369117414682
 30
0.0
 10
73.54884828212277
 20
-612.6978297079366
 30
0.0
 10
59.97222220722917
 20
-615.0690028030489
 30
0.0
 10
59.97222220722917
 20
-615.0690028030489
 30
0.0
 10
59.97222220722917
 20
-692.6603907231022
 30
0.0
 10
59.97222220722917
 20
-692.6603907231022
 30
0.0
 10
80.37123546710338
 20
-688.7776819838404
 30
0.0
 10
100.7649088289754
 20
-684.8675847354671
 30
0.0
 10
121.1497971973601
 20
-680.9121844814666
 30
0.0
 10
188.4905188195223
 20
-667.8457985797852
 30
0.0
 10
255.4540455497433
 20
-652.7150253359532
 30
0.0
 10
323.0003747768346
 20
-640.8654471596621
 30
0.0
 10
386.5446227061001
 20
-629.718065570654
 30
0.0
 10
448.7440130171543
 20
-613.5054462170683
 30
0.0
 10
510.9400874238051
 20
-596.9670069579631
 30
0.0
 10
549.0853904199111
 20
-586.8237845755163
 30
0.0
 10
587.1800505123839
 20
-576.4896177758014
 30
0.0
 10
625.3015823496419
 20
-566.2573827387534
 30
0.0
 10
680.6562138869126
 20
-551.3995041210496
 30
0.0
 10
736.1255240401459
 20
-536.650059883742
 30
0.0
 10
788.8980134475257
 20
-514.0071267432449
 30
0.0
 10
840.3729937677713
 20
-491.9210502242419
 30
0.0
 10
892.9469595478156
 20
-473.1217239892489
 30
0.0
 10
946.728431295436
 20
-457.7770533794793
 30
0.0
 10
967.4282013911744
 20
-451.8712123165046
 30
0.0
 10
988.7183747256957
 20
-446.5349316646268
 30
0.0
 10
1010.060482874655
 20
-444.7313380507095
 30
0.0
 10
1040.985210243226
 20
-442.1179747429881
 30
0.0
 10
1070.14122558967
 20
-434.8104104544503
 30
0.0
 10
1098.254668914891
 20
-422.1818961889443
 30
0.0
 10
1101.982176102543
 20
-420.5074505920312
 30
0.0
 10
1106.236524517278
 20
-419.4941618824302
 30
0.0
 10
1110.320340705493
 20
-419.2021469763626
 30
0.0
 10
1137.339363322436
 20
-417.268501007881
 30
0.0
 10
1164.021455600922
 20
-413.7296127980433
 30
0.0
 10
1189.919444146964
 20
-406.0752781170672
 30
0.0
 10
1189.919444146964
 20
-406.0752781170672
 30
0.0
 10
1189.919444146964
 20
-358.5182757011145
 30
0.0
 10
1189.919444146964
 20
-358.5182757011145
 30
0.0
 10
1176.628438019645
 20
-360.884001238991
 30
0.0
 10
1163.345527866715
 20
-363.2935440850673
 30
0.0
 10
1150.078292898244
 20
-365.7855323724747
 30
0.0
  0
HATCH
  5
8E
330
70
100
AcDbEntity
  8
2023-029
 62
    18
420
        0
440
 33554687
100
AcDbHatch
 10
0.0
 20
0.0
 30
0.0
210
0.0
220
0.0
230
1.0
  2
SOLID
 70
     1
 71
     1
 91
        1
 92
        1
 93
        1
 72
     4
 94
        3
 73
     0
 74
     0
 95
       71
 96
       67
 40
0.0
 40
0.0
 40
0.0
 40
0.0
 40
1.0
 40
1.0
 40
1.0
 40
2.0
 40
2.0
 40
2.0
 40
3.0
 40
3.0
 40
3.0
 40
4.0
 40
4.0
 40
4.0
 40
5.0
 40
5.0
 40
5.0
 40
6.0
 40
6.0
 40
6.0
 40
7.0
 40
7.0
 40
7.0
 40
8.0
 40
8.0
 40
8.0
 40
9.0
 40
9.0
 40
9.0
 40
10.0
 40
10.0
 40
10.0
 40
11.0
 40
11.0
 40
11.0
 40
12.0
 40
12.0
 40
12.0
 40
13.0
 40
13.0
 40
13.0
 40
14.0
 40
14.0
 40
14.0
 40
15.0
 40
15.0
 40
15.0
 40
16.0
 40
16.0
 40
16.0
 40
17.0
 40
17.0
 40
17.0
 40
18.0
 40
18.0
 40
18.0
 40
19.0
 40
19.0
 40
19.0
 40
20.0
 40
20.0
 40
20.0
 40
21.0
 40
21.0
 40
21.0
 40
22.0
 40
22.0
 40
22.0
 40
22.0
 10
1150.078292898244
 20
-365.7855323724747
 10
1128.880103613179
 20
-369.7672230114004
 10
1107.896543776845
 20
-374.9281913667715
 10
1086.881116807273
 20
-379.8343518473158
 10
1068.1372135459
 20
-384.2101829415984
 10
1049.673310420092
 20
-390.0839846165642
 10
1030.747850626646
 20
-393.3206518249564
 10
993.0566973428817
 20
-399.7666192644776
 10
956.5866581538674
 20
-410.2641912494305
 10
920.8229496667145
 20
-423.4398728053832
 10
880.7245359126314
 20
-438.2121838639712
 10
840.9991398722155
 20
-454.0364117652877
 10
800.6491480203239
 20
-468.0759079504743
 10
755.8387910436792
 20
-483.6675057791473
 10
710.4707592353617
 20
-498.094618270117
 10
663.6052305469912
 20
-505.91649225091
 10
580.1850855754398
 20
-519.8392427628354
 10
497.1186227191458
 20
-535.4382475468055
 10
414.42341196508
 20
-553.1181761312517
 10
376.2910280770437
 20
-561.270650087547
 10
338.2172323441024
 20
-569.9148683606689
 10
299.7961279225553
 20
-576.451592534382
 10
233.561712588094
 20
-587.7201984207783
 10
166.9876754343273
 20
-596.9861272379063
 10
100.7237184060799
 20
-608.0913494709164
 10
87.13245067537433
 20
-610.369117414682
 10
73.54884828212277
 20
-612.6978297079366
 10
59.97222220722917
 20
-615.0690028030489
 10
59.97222220722917
 20
-615.0690028030489
 10
59.97222220722917
 20
-692.6603907231022
 10
59.97222220722917
 20
-692.6603907231022
 10
80.37123546710338
 20
-688.7776819838404
 10
100.7649088289754
 20
-684.8675847354671
 10
121.1497971973601
 20
-680.9121844814666
 10
188.4905188195223
 20
-667.8457985797852
 10
255.4540455497433
 20
-652.7150253359532
 10
323.0003747768346
 20
-640.8654471596621
 10
386.5446227061001
 20
-629.718065570654
 10
448.7440130171543
 20
-613.5054462170683
 10
510.9400874238051
 20
-596.9670069579631
 10
549.0853904199111
 20
-586.8237845755163
 10
587.1800505123839
 20
-576.4896177758014
 10
625.3015823496419
 20
-566.2573827387534
 10
680.6562138869126
 20
-551.3995041210496
 10
736.1255240401459
 20
-536.650059883742
 10
788.8980134475257
 20
-514.0071267432449
 10
840.3729937677713
 20
-491.9210502242419
 10
892.9469595478156
 20
-473.1217239892489
 10
946.728431295436
 20
-457.7770533794793
 10
967.4282013911744
 20
-451.8712123165046
 10
988.7183747256957
 20
-446.5349316646268
 10
1010.060482874655
 20
-444.7313380507095
 10
1040.985210243226
 20
-442.1179747429881
 10
1070.14122558967
 20
-434.8104104544503
 10
1098.254668914891
 20
-422.1818961889443
 10
1101.982176102543
 20
-420.5074505920312
 10
1106.236524517278
 20
-419.4941618824302
 10
1110.320340705493
 20
-419.2021469763626
 10
1137.339363322436
 20
-417.268501007881
 10
1164.021455600922
 20
-413.7296127980433
 10
1189.919444146964
 20
-406.0752781170672
 10
1189.919444146964
 20
-406.0752781170672
 10
1189.919444146964
 20
-358.5182757011145
 10
1189.919444146964
 20
-358.5182757011145
 10
1176.628438019645
 20
-360.884001238991
 10
1163.345527866715
 20
-363.2935440850673
 10
1150.078292898244
 20
-365.7855323724747
 97
        0
 97
        1
330
8D
 75
     2
 76
     1
 98
        1
 10
0.0
 20
0.0
450
        0
451
        0
460
0.0
461
0.0
452
        0
462
0.0
453
        0
470

  0
SPLINE
  5
8F
330
70
100
AcDbEntity
  8
2023-029
100
AcDbSpline
210
0.0
220
0.0
230
1.0
 70
     9
 71
     3
 72
    68
 73
    64
 74
     0
 42
0.0000000001
 43
0.0000000001
 40
0.0
 40
0.0
 40
0.0
 40
0.0
 40
1.0
 40
1.0
 40
1.0
 40
2.0
 40
2.0
 40
2.0
 40
3.0
 40
3.0
 40
3.0
 40
4.0
 40
4.0
 40
4.0
 40
5.0
 40
5.0
 40
5.0
 40
6.0
 40
6.0
 40
6.0
 40
7.0
 40
7.0
 40
7.0
 40
8.0
 40
8.0
 40
8.0
 40
9.0
 40
9.0
 40
9.0
 40
10.0
 40
10.0
 40
10.0
 40
11.0
 40
11.0
 40
11.0
 40
12.0
 40
12.0
 40
12.0
 40
13.0
 40
13.0
 40
13.0
 40
14.0
 40
14.0
 40
14.0
 40
15.0
 40
15.0
 40
15.0
 40
16.0
 40
16.0
 40
16.0
 40
17.0
 40
17.0
 40
17.0
 40
18.0
 40
18.0
 40
18.0
 40
19.0
 40
19.0
 40
19.0
 40
20.0
 40
20.0
 40
20.0
 40
21.0
 40
21.0
 40
21.0
 40
21.0
 10
1153.023334922647
 20
-1138.231936970801
 30
0.0
 10
1154.258922067765
 20
-1132.683620543266
 30
0.0
 10
1155.980421460243
 20
-1127.251617647922
 30
0.0
 10
1158.166129509735
 20
-1122.004411602601
 30
0.0
 10
1157.091480369843
 20
-1122.144863922263
 30
0.0
 10
1156.016831229949
 20
-1122.285316241925
 30
0.0
 10
1154.942182090056
 20
-1122.425768561587
 30
0.0
 10
1158.328875537761
 20
-1129.180630625982
 30
0.0
 10
1161.600969789079
 20
-1135.9927904086
 30
0.0
 10
1164.754372031349
 20
-1142.859674855956
 30
0.0
 10
1166.319205927909
 20
-1146.267274876957
 30
0.0
 10
1167.854866616617
 20
-1149.688270844708
 30
0.0
 10
1169.361345371575
 20
-1153.122067647643
 30
0.0
 10
1170.114584585574
 20
-1154.83896567648
 30
0.0
 10
1170.860484362876
 20
-1156.559085651488
 30
0.0
 10
1171.599015254311
 20
-1158.282361682802
 30
0.0
 10
1171.979470703793
 20
-1159.170110272166
 30
0.0
 10
1172.357984721104
 20
-1160.058690553252
 30
0.0
 10
1172.734553768995
 20
-1160.948094656731
 30
0.0
 10
1172.823158165019
 20
-1161.157366007763
 30
0.0
 10
1172.911715611579
 20
-1161.366657922919
 30
0.0
 10
1173.000035968415
 20
-1161.576049346849
 30
0.0
 10
1172.890614989719
 20
-1161.316632205006
 30
0.0
 10
1173.090005688308
 20
-1161.789936009732
 30
0.0
 10
1173.12010725876
 20
-1161.861471266603
 30
0.0
 10
1173.307409432213
 20
-1162.306587879764
 30
0.0
 10
1173.494232279328
 20
-1162.751906239522
 30
0.0
 10
1173.680551174451
 20
-1163.197435345931
 30
0.0
 10
1175.324548885509
 20
-1167.128592358544
 30
0.0
 10
1176.929982074916
 20
-1171.075807990609
 30
0.0
 10
1178.497976360015
 20
-1175.03788849084
 30
0.0
 10
1178.836320094417
 20
-1175.892831091837
 30
0.0
 10
1179.693253541089
 20
-1176.58522460977
 30
0.0
 10
1180.667768970748
 20
-1176.269858025402
 30
0.0
 10
1181.496713244732
 20
-1176.001600267379
 30
0.0
 10
1182.26327862341
 20
-1175.01867540366
 30
0.0
 10
1181.89973850531
 20
-1174.100065414668
 30
0.0
 10
1179.073548675926
 20
-1166.958718204819
 30
0.0
 10
1176.124403433444
 20
-1159.865860415907
 30
0.0
 10
1173.056161363658
 20
-1152.825112871737
 30
0.0
 10
1170.026100466027
 20
-1145.871980316205
 30
0.0
 10
1166.876013278396
 20
-1138.971170412212
 30
0.0
 10
1163.607938468391
 20
-1132.12668399634
 30
0.0
 10
1161.771935076359
 20
-1128.281453698127
 30
0.0
 10
1159.898097717449
 20
-1124.454351136946
 30
0.0
 10
1157.988314784121
 20
-1120.645231567442
 30
0.0
 10
1157.675235048607
 20
-1120.020784607241
 30
0.0
 10
1156.88297533631
 20
-1119.715481059012
 30
0.0
 10
1156.230792668045
 20
-1119.803115083967
 30
0.0
 10
1155.478821550877
 20
-1119.904157719495
 30
0.0
 10
1155.0437272907
 20
-1120.395932125529
 30
0.0
 10
1154.764367364441
 20
-1121.066588526429
 30
0.0
 10
1152.578659321254
 20
-1126.313794556611
 30
0.0
 10
1150.857159926035
 20
-1131.745797451086
 30
0.0
 10
1149.621572777351
 20
-1137.294113894629
 30
0.0
 10
1149.421471750716
 20
-1138.192653360364
 30
0.0
 10
1149.893160823317
 20
-1139.24516228388
 30
0.0
 10
1150.853542311913
 20
-1139.463906505363
 30
0.0
 10
1151.747231271397
 20
-1139.667460299362
 30
0.0
 10
1152.808829029043
 20
-1139.195160469836
 30
0.0
 10
1153.023334922647
 20
-1138.231936970801
 30
0.0
 10
1153.023334922647
 20
-1138.231936970801
 30
0.0
 10
1153.023334922647
 20
-1138.231936970801
 30
0.0
 10
1153.023334922647
 20
-1138.231936970801
 30
0.0
  0
HATCH
  5
90
330
70
100
AcDbEntity
  8
2023-029
 62
    18
420
        0
440
 33554687
100
AcDbHatch
 10
0.0
 20
0.0
 30
0.0
210
0.0
220
0.0
230
1.0
  2
SOLID
 70
     1
 71
     1
 91
        1
 92
        1
 93
        1
 72
     4
 94
        3
 73
     0
 74
     0
 95
       68
 96
       64
 40
0.0
 40
0.0
 40
0.0
 40
0.0
 40
1.0
 40
1.0
 40
1.0
 40
2.0
 40
2.0
 40
2.0
 40
3.0
 40
3.0
 40
3.0
 40
4.0
 40
4.0
 40
4.0
 40
5.0
 40
5.0
 40
5.0
 40
6.0
 40
6.0
 40
6.0
 40
7.0
 40
7.0
 40
7.0
 40
8.0
 40
8.0
 40
8.0
 40
9.0
 40
9.0
 40
9.0
 40
10.0
 40
10.0
 40
10.0
 40
11.0
 40
11.0
 40
11.0
 40
12.0
 40
12.0
 40
12.0
 40
13.0
 40
13.0
 40
13.0
 40
14.0
 40
14.0
 40
14.0
 40
15.0
 40
15.0
 40
15.0
 40
16.0
 40
16.0
 40
16.0
 40
17.0
 40
17.0
 40
17.0
 40
18.0
 40
18.0
 40
18.0
 40
19.0
 40
19.0
 40
19.0
 40
20.0
 40
20.0
 40
20.0
 40
21.0
 40
21.0
 40
21.0
 40
21.0
 10
1153.023334922647
 20
-1138.231936970801
 10
1154.258922067765
 20
-1132.683620543266
 10
1155.980421460243
 20
-1127.251617647922
 10
1158.166129509735
 20
-1122.004411602601
 10
1157.091480369843
 20
-1122.144863922263
 10
1156.016831229949
 20
-1122.285316241925
 10
1154.942182090056
 20
-1122.425768561587
 10
1158.328875537761
 20
-1129.180630625982
 10
1161.600969789079
 20
-1135.9927904086
 10
1164.754372031349
 20
-1142.859674855956
 10
1166.319205927909
 20
-1146.267274876957
 10
1167.854866616617
 20
-1149.688270844708
 10
1169.361345371575
 20
-1153.122067647643
 10
1170.114584585574
 20
-1154.83896567648
 10
1170.860484362876
 20
-1156.559085651488
 10
1171.599015254311
 20
-1158.282361682802
 10
1171.979470703793
 20
-1159.170110272166
 10
1172.357984721104
 20
-1160.058690553252
 10
1172.734553768995
 20
-1160.948094656731
 10
1172.823158165019
 20
-1161.157366007763
 10
1172.911715611579
 20
-1161.366657922919
 10
1173.000035968415
 20
-1161.576049346849
 10
1172.890614989719
 20
-1161.316632205006
 10
1173.090005688308
 20
-1161.789936009732
 10
1173.12010725876
 20
-1161.861471266603
 10
1173.307409432213
 20
-1162.306587879764
 10
1173.494232279328
 20
-1162.751906239522
 10
1173.680551174451
 20
-1163.197435345931
 10
1175.324548885509
 20
-1167.128592358544
 10
1176.929982074916
 20
-1171.075807990609
 10
1178.497976360015
 20
-1175.03788849084
 10
1178.836320094417
 20
-1175.892831091837
 10
1179.693253541089
 20
-1176.58522460977
 10
1180.667768970748
 20
-1176.269858025402
 10
1181.496713244732
 20
-1176.001600267379
 10
1182.26327862341
 20
-1175.01867540366
 10
1181.89973850531
 20
-1174.100065414668
 10
1179.073548675926
 20
-1166.958718204819
 10
1176.124403433444
 20
-1159.865860415907
 10
1173.056161363658
 20
-1152.825112871737
 10
1170.026100466027
 20
-1145.871980316205
 10
1166.876013278396
 20
-1138.971170412212
 10
1163.607938468391
 20
-1132.12668399634
 10
1161.771935076359
 20
-1128.281453698127
 10
1159.898097717449
 20
-1124.454351136946
 10
1157.988314784121
 20
-1120.645231567442
 10
1157.675235048607
 20
-1120.020784607241
 10
1156.88297533631
 20
-1119.715481059012
 10
1156.230792668045
 20
-1119.803115083967
 10
1155.478821550877
 20
-1119.904157719495
 10
1155.0437272907
 20
-1120.395932125529
 10
1154.764367364441
 20
-1121.066588526429
 10
1152.578659321254
 20
-1126.313794556611
 10
1150.857159926035
 20
-1131.745797451086
 10
1149.621572777351
 20
-1137.294113894629
 10
1149.421471750716
 20
-1138.192653360364
 10
1149.893160823317
 20
-1139.24516228388
 10
1150.853542311913
 20
-1139.463906505363
 10
1151.747231271397
 20
-1139.667460299362
 10
1152.808829029043
 20
-1139.195160469836
 10
1153.023334922647
 20
-1138.231936970801
 10
1153.023334922647
 20
-1138.231936970801
 10
1153.023334922647
 20
-1138.231936970801
 10
1153.023334922647
 20
-1138.231936970801
 97
        0
 97
        1
330
8F
 75
     2
 76
     1
 98
        1
 10
0.0
 20
0.0
450
        0
451
        0
460
0.0
461
0.0
452
        0
462
0.0
453
        0
470

  0
SPLINE
  5
91
330
70
100
AcDbEntity
  8
2023-029
100
AcDbSpline
210
0.0
220
0.0
230
1.0
 70
     9
 71
     3
 72
   128
 73
   124
 74
     0
 42
0.0000000001
 43
0.0000000001
 40
0.0
 40
0.0
 40
0.0
 40
0.0
 40
1.0
 40
1.0
 40
1.0
 40
2.0
 40
2.0
 40
2.0
 40
3.0
 40
3.0
 40
3.0
 40
4.0
 40
4.0
 40
4.0
 40
5.0
 40
5.0
 40
5.0
 40
6.0
 40
6.0
 40
6.0
 40
7.0
 40
7.0
 40
7.0
 40
8.0
 40
8.0
 40
8.0
 40
9.0
 40
9.0
 40
9.0
 40
10.0
 40
10.0
 40
10.0
 40
11.0
 40
11.0
 40
11.0
 40
12.0
 40
12.0
 40
12.0
 40
13.0
 40
13.0
 40
13.0
 40
14.0
 40
14.0
 40
14.0
 40
15.0
 40
15.0
 40
15.0
 40
16.0
 40
16.0
 40
16.0
 40
17.0
 40
17.0
 40
17.0
 40
18.0
 40
18.0
 40
18.0
 40
19.0
 40
19.0
 40
19.0
 40
20.0
 40
20.0
 40
20.0
 40
21.0
 40
21.0
 40
21.0
 40
22.0
 40
22.0
 40
22.0
 40
23.0
 40
23.0
 40
23.0
 40
24.0
 40
24.0
 40
24.0
 40
25.0
 40
25.0
 40
25.0
 40
26.0
 40
26.0
 40
26.0
 40
27.0
 40
27.0
 40
27.0
 40
28.0
 40
28.0
 40
28.0
 40
29.0
 40
29.0
 40
29.0
 40
30.0
 40
30.0
 40
30.0
 40
31.0
 40
31.0
 40
31.0
 40
32.0
 40
32.0
 40
32.0
 40
33.0
 40
33.0
 40
33.0
 40
34.0
 40
34.0
 40
34.0
 40
35.0
 40
35.0
 40
35.0
 40
36.0
 40
36.0
 40
36.0
 40
37.0
 40
37.0
 40
37.0
 40
38.0
 40
38.0
 40
38.0
 40
39.0
 40
39.0
 40
39.0
 40
40.0
 40
40.0
 40
40.0
 40
41.0
 40
41.0
 40
41.0
 40
41.0
 10
1125.661971798942
 20
-1172.309056330328
 30
0.0
 10
1125.79523729312
 20
-1172.211143060647
 30
0.0
 10
1125.832931240875
 20
-1172.255222135567
 30
0.0
 10
1125.532982054461
 20
-1172.327478398139
 30
0.0
 10
1125.537157271264
 20
-1172.326472609241
 30
0.0
 10
1125.141369486535
 20
-1172.344206522201
 30
0.0
 10
1125.33689894423
 20
-1172.351071873318
 30
0.0
 10
1125.535577896389
 20
-1172.358047808208
 30
0.0
 10
1125.139236295801
 20
-1172.318238734615
 30
0.0
 10
1125.149080328278
 20
-1172.320073245587
 30
0.0
 10
1125.25337867908
 20
-1172.339510043406
 30
0.0
 10
1125.439412287873
 20
-1172.44481264166
 30
0.0
 10
1125.053148560906
 20
-1172.268559976935
 30
0.0
 10
1125.328074815071
 20
-1172.394009201173
 30
0.0
 10
1124.855271540637
 20
-1172.067819625346
 30
0.0
 10
1125.062269571003
 20
-1172.282882287113
 30
0.0
 10
1124.822789040229
 20
-1172.034071608584
 30
0.0
 10
1124.94841253713
 20
-1172.149177888462
 30
0.0
 10
1125.003486923701
 20
-1172.257774352399
 30
0.0
 10
1124.936534282067
 20
-1172.125756175066
 30
0.0
 10
1124.924365696794
 20
-1172.039974109861
 30
0.0
 10
1124.970241507932
 20
-1172.230845012647
 30
0.0
 10
1125.054913241098
 20
-1172.583130231138
 30
0.0
 10
1124.996656495747
 20
-1172.211887285613
 30
0.0
 10
1124.981462073934
 20
-1172.182266312415
 30
0.0
 10
1125.005889600894
 20
-1172.22988688859
 30
0.0
 10
1124.994664359647
 20
-1172.344165836227
 30
0.0
 10
1124.99746784601
 20
-1172.397592178742
 30
0.0
 10
1125.006255970668
 20
-1172.565068419816
 30
0.0
 10
1125.005140153813
 20
-1172.732754897457
 30
0.0
 10
1124.999759352971
 20
-1172.900341641215
 30
0.0
 10
1124.993846012385
 20
-1173.084514503736
 30
0.0
 10
1124.982209296007
 20
-1173.2685897427
 30
0.0
 10
1124.966751657269
 20
-1173.45218285169
 30
0.0
 10
1124.957070547978
 20
-1173.56716709885
 30
0.0
 10
1124.893313957351
 20
-1174.028608823454
 30
0.0
 10
1124.948024119817
 20
-1173.689260591687
 30
0.0
 10
1124.826164657924
 20
-1174.445112723241
 30
0.0
 10
1124.648237996214
 20
-1175.185641571925
 30
0.0
 10
1124.386268474985
 20
-1175.905862625331
 30
0.0
 10
1124.356709212166
 20
-1175.987128580645
 30
0.0
 10
1124.161674446316
 20
-1176.457782639809
 30
0.0
 10
1124.300546869343
 20
-1176.144555405185
 30
0.0
 10
1124.236514061801
 20
-1176.28898162599
 30
0.0
 10
1124.17100480791
 20
-1176.432677695136
 30
0.0
 10
1124.101788403506
 20
-1176.574707799595
 30
0.0
 10
1123.912842303554
 20
-1176.962419853474
 30
0.0
 10
1123.694904612371
 20
-1177.331694056039
 30
0.0
 10
1123.526969142253
 20
-1177.729640731997
 30
0.0
 10
1123.124906633072
 20
-1178.682384300363
 30
0.0
 10
1123.067264167294
 20
-1179.707285117238
 30
0.0
 10
1123.635105543122
 20
-1180.615573489417
 30
0.0
 10
1124.117591307197
 20
-1181.387331638619
 30
0.0
 10
1124.922923389102
 20
-1181.810114247613
 30
0.0
 10
1125.754424755136
 20
-1182.104994443016
 30
0.0
 10
1127.225927067101
 20
-1182.626841919177
 30
0.0
 10
1128.770921963081
 20
-1183.000252484409
 30
0.0
 10
1130.282371776728
 20
-1183.387138104042
 30
0.0
 10
1132.035285078474
 20
-1183.835831102503
 30
0.0
 10
1133.800489789204
 20
-1184.234498173868
 30
0.0
 10
1135.575232196895
 20
-1184.586914388081
 30
0.0
 10
1136.477547143778
 20
-1184.766089921516
 30
0.0
 10
1137.522935303814
 20
-1184.330013574552
 30
0.0
 10
1137.745024807628
 20
-1183.354944853519
 30
0.0
 10
1137.944488323923
 20
-1182.479213977517
 30
0.0
 10
1137.480842693201
 20
-1181.377328852353
 30
0.0
 10
1136.513055273067
 20
-1181.185152242785
 30
0.0
 10
1133.268133269907
 20
-1180.540797815453
 30
0.0
 10
1130.01145295057
 20
-1179.781255016828
 30
0.0
 10
1126.862029335507
 20
-1178.760604643619
 30
0.0
 10
1126.805185539089
 20
-1178.742182973777
 30
0.0
 10
1126.748564252096
 20
-1178.723204165645
 30
0.0
 10
1126.692247831309
 20
-1178.703232297722
 30
0.0
 10
1126.601354171617
 20
-1178.67099807294
 30
0.0
 10
1126.445211041199
 20
-1178.541710511847
 30
0.0
 10
1126.622698731034
 20
-1178.680979040527
 30
0.0
 10
1126.869927597735
 20
-1178.874971088905
 30
0.0
 10
1126.424757674123
 20
-1178.516848450238
 30
0.0
 10
1126.414436690347
 20
-1178.547557210989
 30
0.0
 10
1126.419320222597
 20
-1178.533026888422
 30
0.0
 10
1126.684817135439
 20
-1178.782485793897
 30
0.0
 10
1126.550605550145
 20
-1178.644956268371
 30
0.0
 10
1126.389278191451
 20
-1178.479640621088
 30
0.0
 10
1126.741078853112
 20
-1178.93843009784
 30
0.0
 10
1126.621507916077
 20
-1178.742539871886
 30
0.0
 10
1126.523085651381
 20
-1178.581297013477
 30
0.0
 10
1126.693086942029
 20
-1178.906965916468
 30
0.0
 10
1126.692429754919
 20
-1178.904781239188
 30
0.0
 10
1126.727694761846
 20
-1178.999768171222
 30
0.0
 10
1126.73365288476
 20
-1179.095096727714
 30
0.0
 10
1126.710304123663
 20
-1179.19076690866
 30
0.0
 10
1126.689318609517
 20
-1179.30936152001
 30
0.0
 10
1126.691103036724
 20
-1179.318449952642
 30
0.0
 10
1126.715657405284
 20
-1179.218032206556
 30
0.0
 10
1126.738637945349
 20
-1179.171439342501
 30
0.0
 10
1126.854234132569
 20
-1178.888970212419
 30
0.0
 10
1126.754063532169
 20
-1179.089566318225
 30
0.0
 10
1126.659228700025
 20
-1179.279477309542
 30
0.0
 10
1126.778314011017
 20
-1179.058481148327
 30
0.0
 10
1126.792403630687
 20
-1179.034238366723
 30
0.0
 10
1126.880876134746
 20
-1178.882011433418
 30
0.0
 10
1126.960934009342
 20
-1178.723527681671
 30
0.0
 10
1127.041505809018
 20
-1178.566946810623
 30
0.0
 10
1127.267757071942
 20
-1178.127256745779
 30
0.0
 10
1127.462802139416
 20
-1177.671163191586
 30
0.0
 10
1127.646857940284
 20
-1177.212479725787
 30
0.0
 10
1128.242747980825
 20
-1175.727468616435
 30
0.0
 10
1128.609438580968
 20
-1174.002053157363
 30
0.0
 10
1128.525245622906
 20
-1172.397592178742
 30
0.0
 10
1128.461417584524
 20
-1171.181224452958
 30
0.0
 10
1128.043824205194
 20
-1170.078086578388
 30
0.0
 10
1127.02997901837
 20
-1169.351936582044
 30
0.0
 10
1126.153193503928
 20
-1168.723953329394
 30
0.0
 10
1124.777310037555
 20
-1168.604703188379
 30
0.0
 10
1123.881434804798
 20
-1169.262923636263
 30
0.0
 10
1123.140022485327
 20
-1169.807656575788
 30
0.0
 10
1122.695154735167
 20
-1170.817764797861
 30
0.0
 10
1123.248636954837
 20
-1171.676258480368
 30
0.0
 10
1123.722020293376
 20
-1172.410512610124
 30
0.0
 10
1124.866725105763
 20
-1172.893342640991
 30
0.0
 10
1125.661971798942
 20
-1172.309056330328
 30
0.0
 10
1125.661971798942
 20
-1172.309056330328
 30
0.0
 10
1125.661971798942
 20
-1172.309056330328
 30
0.0
 10
1125.661971798942
 20
-1172.309056330328
 30
0.0
  0
HATCH
  5
92
330
70
100
AcDbEntity
  8
2023-029
 62
    18
420
        0
440
 33554687
100
AcDbHatch
 10
0.0
 20
0.0
 30
0.0
210
0.0
220
0.0
230
1.0
  2
SOLID
 70
     1
 71
     1
 91
        1
 92
        1
 93
        1
 72
     4
 94
        3
 73
     0
 74
     0
 95
      128
 96
      124
 40
0.0
 40
0.0
 40
0.0
 40
0.0
 40
1.0
 40
1.0
 40
1.0
 40
2.0
 40
2.0
 40
2.0
 40
3.0
 40
3.0
 40
3.0
 40
4.0
 40
4.0
 40
4.0
 40
5.0
 40
5.0
 40
5.0
 40
6.0
 40
6.0
 40
6.0
 40
7.0
 40
7.0
 40
7.0
 40
8.0
 40
8.0
 40
8.0
 40
9.0
 40
9.0
 40
9.0
 40
10.0
 40
10.0
 40
10.0
 40
11.0
 40
11.0
 40
11.0
 40
12.0
 40
12.0
 40
12.0
 40
13.0
 40
13.0
 40
13.0
 40
14.0
 40
14.0
 40
14.0
 40
15.0
 40
15.0
 40
15.0
 40
16.0
 40
16.0
 40
16.0
 40
17.0
 40
17.0
 40
17.0
 40
18.0
 40
18.0
 40
18.0
 40
19.0
 40
19.0
 40
19.0
 40
20.0
 40
20.0
 40
20.0
 40
21.0
 40
21.0
 40
21.0
 40
22.0
 40
22.0
 40
22.0
 40
23.0
 40
23.0
 40
23.0
 40
24.0
 40
24.0
 40
24.0
 40
25.0
 40
25.0
 40
25.0
 40
26.0
 40
26.0
 40
26.0
 40
27.0
 40
27.0
 40
27.0
 40
28.0
 40
28.0
 40
28.0
 40
29.0
 40
29.0
 40
29.0
 40
30.0
 40
30.0
 40
30.0
 40
31.0
 40
31.0
 40
31.0
 40
32.0
 40
32.0
 40
32.0
 40
33.0
 40
33.0
 40
33.0
 40
34.0
 40
34.0
 40
34.0
 40
35.0
 40
35.0
 40
35.0
 40
36.0
 40
36.0
 40
36.0
 40
37.0
 40
37.0
 40
37.0
 40
38.0
 40
38.0
 40
38.0
 40
39.0
 40
39.0
 40
39.0
 40
40.0
 40
40.0
 40
40.0
 40
41.0
 40
41.0
 40
41.0
 40
41.0
 10
1125.661971798942
 20
-1172.309056330328
 10
1125.79523729312
 20
-1172.211143060647
 10
1125.832931240875
 20
-1172.255222135567
 10
1125.532982054461
 20
-1172.327478398139
 10
1125.537157271264
 20
-1172.326472609241
 10
1125.141369486535
 20
-1172.344206522201
 10
1125.33689894423
 20
-1172.351071873318
 10
1125.535577896389
 20
-1172.358047808208
 10
1125.139236295801
 20
-1172.318238734615
 10
1125.149080328278
 20
-1172.320073245587
 10
1125.25337867908
 20
-1172.339510043406
 10
1125.439412287873
 20
-1172.44481264166
 10
1125.053148560906
 20
-1172.268559976935
 10
1125.328074815071
 20
-1172.394009201173
 10
1124.855271540637
 20
-1172.067819625346
 10
1125.062269571003
 20
-1172.282882287113
 10
1124.822789040229
 20
-1172.034071608584
 10
1124.94841253713
 20
-1172.149177888462
 10
1125.003486923701
 20
-1172.257774352399
 10
1124.936534282067
 20
-1172.125756175066
 10
1124.924365696794
 20
-1172.039974109861
 10
1124.970241507932
 20
-1172.230845012647
 10
1125.054913241098
 20
-1172.583130231138
 10
1124.996656495747
 20
-1172.211887285613
 10
1124.981462073934
 20
-1172.182266312415
 10
1125.005889600894
 20
-1172.22988688859
 10
1124.994664359647
 20
-1172.344165836227
 10
1124.99746784601
 20
-1172.397592178742
 10
1125.006255970668
 20
-1172.565068419816
 10
1125.005140153813
 20
-1172.732754897457
 10
1124.999759352971
 20
-1172.900341641215
 10
1124.993846012385
 20
-1173.084514503736
 10
1124.982209296007
 20
-1173.2685897427
 10
1124.966751657269
 20
-1173.45218285169
 10
1124.957070547978
 20
-1173.56716709885
 10
1124.893313957351
 20
-1174.028608823454
 10
1124.948024119817
 20
-1173.689260591687
 10
1124.826164657924
 20
-1174.445112723241
 10
1124.648237996214
 20
-1175.185641571925
 10
1124.386268474985
 20
-1175.905862625331
 10
1124.356709212166
 20
-1175.987128580645
 10
1124.161674446316
 20
-1176.457782639809
 10
1124.300546869343
 20
-1176.144555405185
 10
1124.236514061801
 20
-1176.28898162599
 10
1124.17100480791
 20
-1176.432677695136
 10
1124.101788403506
 20
-1176.574707799595
 10
1123.912842303554
 20
-1176.962419853474
 10
1123.694904612371
 20
-1177.331694056039
 10
1123.526969142253
 20
-1177.729640731997
 10
1123.124906633072
 20
-1178.682384300363
 10
1123.067264167294
 20
-1179.707285117238
 10
1123.635105543122
 20
-1180.615573489417
 10
1124.117591307197
 20
-1181.387331638619
 10
1124.922923389102
 20
-1181.810114247613
 10
1125.754424755136
 20
-1182.104994443016
 10
1127.225927067101
 20
-1182.626841919177
 10
1128.770921963081
 20
-1183.000252484409
 10
1130.282371776728
 20
-1183.387138104042
 10
1132.035285078474
 20
-1183.835831102503
 10
1133.800489789204
 20
-1184.234498173868
 10
1135.575232196895
 20
-1184.586914388081
 10
1136.477547143778
 20
-1184.766089921516
 10
1137.522935303814
 20
-1184.330013574552
 10
1137.745024807628
 20
-1183.354944853519
 10
1137.944488323923
 20
-1182.479213977517
 10
1137.480842693201
 20
-1181.377328852353
 10
1136.513055273067
 20
-1181.185152242785
 10
1133.268133269907
 20
-1180.540797815453
 10
1130.01145295057
 20
-1179.781255016828
 10
1126.862029335507
 20
-1178.760604643619
 10
1126.805185539089
 20
-1178.742182973777
 10
1126.748564252096
 20
-1178.723204165645
 10
1126.692247831309
 20
-1178.703232297722
 10
1126.601354171617
 20
-1178.67099807294
 10
1126.445211041199
 20
-1178.541710511847
 10
1126.622698731034
 20
-1178.680979040527
 10
1126.869927597735
 20
-1178.874971088905
 10
1126.424757674123
 20
-1178.516848450238
 10
1126.414436690347
 20
-1178.547557210989
 10
1126.419320222597
 20
-1178.533026888422
 10
1126.684817135439
 20
-1178.782485793897
 10
1126.550605550145
 20
-1178.644956268371
 10
1126.389278191451
 20
-1178.479640621088
 10
1126.741078853112
 20
-1178.93843009784
 10
1126.621507916077
 20
-1178.742539871886
 10
1126.523085651381
 20
-1178.581297013477
 10
1126.693086942029
 20
-1178.906965916468
 10
1126.692429754919
 20
-1178.904781239188
 10
1126.727694761846
 20
-1178.999768171222
 10
1126.73365288476
 20
-1179.095096727714
 10
1126.710304123663
 20
-1179.19076690866
 10
1126.689318609517
 20
-1179.30936152001
 10
1126.691103036724
 20
-1179.318449952642
 10
1126.715657405284
 20
-1179.218032206556
 10
1126.738637945349
 20
-1179.171439342501
 10
1126.854234132569
 20
-1178.888970212419
 10
1126.754063532169
 20
-1179.089566318225
 10
1126.659228700025
 20
-1179.279477309542
 10
1126.778314011017
 20
-1179.058481148327
 10
1126.792403630687
 20
-1179.034238366723
 10
1126.880876134746
 20
-1178.882011433418
 10
1126.960934009342
 20
-1178.723527681671
 10
1127.041505809018
 20
-1178.566946810623
 10
1127.267757071942
 20
-1178.127256745779
 10
1127.462802139416
 20
-1177.671163191586
 10
1127.646857940284
 20
-1177.212479725787
 10
1128.242747980825
 20
-1175.727468616435
 10
1128.609438580968
 20
-1174.002053157363
 10
1128.525245622906
 20
-1172.397592178742
 10
1128.461417584524
 20
-1171.181224452958
 10
1128.043824205194
 20
-1170.078086578388
 10
1127.02997901837
 20
-1169.351936582044
 10
1126.153193503928
 20
-1168.723953329394
 10
1124.777310037555
 20
-1168.604703188379
 10
1123.881434804798
 20
-1169.262923636263
 10
1123.140022485327
 20
-1169.807656575788
 10
1122.695154735167
 20
-1170.817764797861
 10
1123.248636954837
 20
-1171.676258480368
 10
1123.722020293376
 20
-1172.410512610124
 10
1124.866725105763
 20
-1172.893342640991
 10
1125.661971798942
 20
-1172.309056330328
 10
1125.661971798942
 20
-1172.309056330328
 10
1125.661971798942
 20
-1172.309056330328
 10
1125.661971798942
 20
-1172.309056330328
 97
        0
 97
        1
330
91
 75
     2
 76
     1
 98
        1
 10
0.0
 20
0.0
450
        0
451
        0
460
0.0
461
0.0
452
        0
462
0.0
453
        0
470

  0
SPLINE
  5
93
330
70
100
AcDbEntity
  8
2023-029
100
AcDbSpline
210
0.0
220
0.0
230
1.0
 70
     9
 71
     3
 72
   233
 73
   229
 74
     0
 42
0.0000000001
 43
0.0000000001
 40
0.0
 40
0.0
 40
0.0
 40
0.0
 40
1.0
 40
1.0
 40
1.0
 40
2.0
 40
2.0
 40
2.0
 40
3.0
 40
3.0
 40
3.0
 40
4.0
 40
4.0
 40
4.0
 40
5.0
 40
5.0
 40
5.0
 40
6.0
 40
6.0
 40
6.0
 40
7.0
 40
7.0
 40
7.0
 40
8.0
 40
8.0
 40
8.0
 40
9.0
 40
9.0
 40
9.0
 40
10.0
 40
10.0
 40
10.0
 40
11.0
 40
11.0
 40
11.0
 40
12.0
 40
12.0
 40
12.0
 40
13.0
 40
13.0
 40
13.0
 40
14.0
 40
14.0
 40
14.0
 40
15.0
 40
15.0
 40
15.0
 40
16.0
 40
16.0
 40
16.0
 40
17.0
 40
17.0
 40
17.0
 40
18.0
 40
18.0
 40
18.0
 40
19.0
 40
19.0
 40
19.0
 40
20.0
 40
20.0
 40
20.0
 40
21.0
 40
21.0
 40
21.0
 40
22.0
 40
22.0
 40
22.0
 40
23.0
 40
23.0
 40
23.0
 40
24.0
 40
24.0
 40
24.0
 40
25.0
 40
25.0
 40
25.0
 40
26.0
 40
26.0
 40
26.0
 40
27.0
 40
27.0
 40
27.0
 40
28.0
 40
28.0
 40
28.0
 40
29.0
 40
29.0
 40
29.0
 40
30.0
 40
30.0
 40
30.0
 40
31.0
 40
31.0
 40
31.0
 40
32.0
 40
32.0
 40
32.0
 40
33.0
 40
33.0
 40
33.0
 40
34.0
 40
34.0
 40
34.0
 40
35.0
 40
35.0
 40
35.0
 40
36.0
 40
36.0
 40
36.0
 40
37.0
 40
37.0
 40
37.0
 40
38.0
 40
38.0
 40
38.0
 40
39.0
 40
39.0
 40
39.0
 40
40.0
 40
40.0
 40
40.0
 40
41.0
 40
41.0
 40
41.0
 40
42.0
 40
42.0
 40
42.0
 40
43.0
 40
43.0
 40
43.0
 40
44.0
 40
44.0
 40
44.0
 40
45.0
 40
45.0
 40
45.0
 40
46.0
 40
46.0
 40
46.0
 40
47.0
 40
47.0
 40
47.0
 40
48.0
 40
48.0
 40
48.0
 40
49.0
 40
49.0
 40
49.0
 40
50.0
 40
50.0
 40
50.0
 40
51.0
 40
51.0
 40
51.0
 40
52.0
 40
52.0
 40
52.0
 40
53.0
 40
53.0
 40
53.0
 40
54.0
 40
54.0
 40
54.0
 40
55.0
 40
55.0
 40
55.0
 40
56.0
 40
56.0
 40
56.0
 40
57.0
 40
57.0
 40
57.0
 40
58.0
 40
58.0
 40
58.0
 40
59.0
 40
59.0
 40
59.0
 40
60.0
 40
60.0
 40
60.0
 40
61.0
 40
61.0
 40
61.0
 40
62.0
 40
62.0
 40
62.0
 40
63.0
 40
63.0
 40
63.0
 40
64.0
 40
64.0
 40
64.0
 40
65.0
 40
65.0
 40
65.0
 40
66.0
 40
66.0
 40
66.0
 40
67.0
 40
67.0
 40
67.0
 40
68.0
 40
68.0
 40
68.0
 40
69.0
 40
69.0
 40
69.0
 40
70.0
 40
70.0
 40
70.0
 40
71.0
 40
71.0
 40
71.0
 40
72.0
 40
72.0
 40
72.0
 40
73.0
 40
73.0
 40
73.0
 40
74.0
 40
74.0
 40
74.0
 40
75.0
 40
75.0
 40
75.0
 40
76.0
 40
76.0
 40
76.0
 40
76.0
 10
1144.897934847671
 20
-1170.688591635386
 30
0.0
 10
1145.065609036428
 20
-1170.662107830789
 30
0.0
 10
1145.233278734069
 20
-1170.635687997745
 30
0.0
 10
1145.401224917441
 20
-1170.610970785968
 30
0.0
 10
1145.088204408151
 20
-1170.657039080366
 30
0.0
 10
1145.526856225389
 20
-1170.597539304822
 30
0.0
 10
1145.607253130135
 20
-1170.589914203319
 30
0.0
 10
1145.887456022565
 20
-1170.563338858122
 30
0.0
 10
1146.169485466102
 20
-1170.546918098845
 30
0.0
 10
1146.451047857441
 20
-1170.553362759643
 30
0.0
 10
1146.482497216399
 20
-1170.554082601699
 30
0.0
 10
1147.015456437815
 20
-1170.60161921711
 30
0.0
 10
1146.651959071185
 20
-1170.548265571321
 30
0.0
 10
1146.789610600602
 20
-1170.568469874342
 30
0.0
 10
1146.928299672149
 20
-1170.599778389982
 30
0.0
 10
1147.062374593887
 20
-1170.637140596778
 30
0.0
 10
1147.117177168629
 20
-1170.652412245673
 30
0.0
 10
1147.470031186223
 20
-1170.740707796521
 30
0.0
 10
1147.209995685405
 20
-1170.673059567223
 30
0.0
 10
1146.961924368336
 20
-1170.608523820041
 30
0.0
 10
1147.282546250332
 20
-1170.710973383039
 30
0.0
 10
1147.343531350295
 20
-1170.744533508923
 30
0.0
 10
1147.375166749188
 20
-1170.761942482094
 30
0.0
 10
1147.635066551676
 20
-1170.949951368404
 30
0.0
 10
1147.662907728741
 20
-1170.945769080622
 30
0.0
 10
1147.489085801516
 20
-1170.807532452887
 30
0.0
 10
1147.450574359599
 20
-1170.781170354739
 30
0.0
 10
1147.54737340299
 20
-1170.866682786176
 30
0.0
 10
1147.593798975895
 20
-1170.907635090998
 30
0.0
 10
1147.63816348353
 20
-1170.950742763938
 30
0.0
 10
1147.680466925897
 20
-1170.996005804997
 30
0.0
 10
1147.907680709822
 20
-1171.210016096194
 30
0.0
 10
1147.586623974627
 20
-1170.80266019487
 30
0.0
 10
1147.669779490901
 20
-1170.976572957594
 30
0.0
 10
1147.783554060972
 20
-1171.214522893995
 30
0.0
 10
1147.802370650743
 20
-1171.063528156531
 30
0.0
 10
1147.687289812181
 20
-1170.937901338265
 30
0.0
 10
1147.719461381647
 20
-1171.022408664907
 30
0.0
 10
1147.745883310922
 20
-1171.108693611225
 30
0.0
 10
1147.766555600005
 20
-1171.196756177221
 30
0.0
 10
1147.761203374117
 20
-1171.135383285422
 30
0.0
 10
1147.755851148229
 20
-1171.074010393624
 30
0.0
 10
1147.750498922341
 20
-1171.012637501825
 30
0.0
 10
1147.766254465455
 20
-1171.045746443463
 30
0.0
 10
1147.78103254097
 20
-1171.41662148329
 30
0.0
 10
1147.75269501569
 20
-1171.443168968133
 30
0.0
 10
1147.760882101147
 20
-1171.382628192291
 30
0.0
 10
1147.769069186604
 20
-1171.322087416447
 30
0.0
 10
1147.777256272061
 20
-1171.261546640605
 30
0.0
 10
1147.764395636359
 20
-1171.333783835166
 30
0.0
 10
1147.748449567325
 20
-1171.405310001346
 30
0.0
 10
1147.729418064961
 20
-1171.476125139146
 30
0.0
 10
1147.692947288179
 20
-1171.620834250489
 30
0.0
 10
1147.63804707611
 20
-1171.758410837879
 30
0.0
 10
1147.59555998731
 20
-1171.900815129515
 30
0.0
 10
1147.538438163842
 20
-1172.092270770224
 30
0.0
 10
1147.718194170634
 20
-1171.670708285033
 30
0.0
 10
1147.564849963985
 20
-1171.962374143686
 30
0.0
 10
1147.494952205105
 20
-1172.095322041148
 30
0.0
 10
1147.428701690641
 20
-1172.228968610946
 30
0.0
 10
1147.355163421156
 20
-1172.360055934362
 30
0.0
 10
1147.221755796826
 20
-1172.597864744922
 30
0.0
 10
1147.078006044084
 20
-1172.830315717944
 30
0.0
 10
1146.929787297283
 20
-1173.059111594201
 30
0.0
 10
1146.781296437012
 20
-1173.288327514759
 30
0.0
 10
1146.62649989234
 20
-1173.513395530793
 30
0.0
 10
1146.465587673092
 20
-1173.734072691535
 30
0.0
 10
1146.41642067581
 20
-1173.801500966487
 30
0.0
 10
1146.140823983196
 20
-1174.148892964402
 30
0.0
 10
1146.380540599985
 20
-1173.85119371269
 30
0.0
 10
1146.302673858476
 20
-1173.947894855027
 30
0.0
 10
1146.224883177598
 20
-1174.044583253712
 30
0.0
 10
1146.145294680569
 20
-1174.139887595728
 30
0.0
 10
1145.795144541127
 20
-1174.559179703158
 30
0.0
 10
1145.421994804142
 20
-1174.959010672739
 30
0.0
 10
1145.027793087525
 20
-1175.337189703567
 30
0.0
 10
1144.830717969827
 20
-1175.526254524622
 30
0.0
 10
1144.628557679876
 20
-1175.70999892547
 30
0.0
 10
1144.421302752006
 20
-1175.887855929584
 30
0.0
 10
1144.308177554909
 20
-1175.984934965784
 30
0.0
 10
1144.192645835971
 20
-1176.078684397344
 30
0.0
 10
1144.077806481186
 20
-1176.173689406839
 30
0.0
 10
1143.788492489103
 20
-1176.413034870043
 30
0.0
 10
1144.292300397347
 20
-1176.01606523011
 30
0.0
 10
1143.963540060125
 20
-1176.262462188547
 30
0.0
 10
1143.352244583257
 20
-1176.720611573229
 30
0.0
 10
1142.894568155414
 20
-1177.456082970794
 30
0.0
 10
1143.15292748455
 20
-1178.254440073666
 30
0.0
 10
1143.393568379813
 20
-1178.99804537957
 30
0.0
 10
1144.052536857253
 20
-1179.546046255739
 30
0.0
 10
1144.853808557197
 20
-1179.549417424027
 30
0.0
 10
1146.458656898028
 20
-1179.55616945812
 30
0.0
 10
1148.064646341931
 20
-1179.567699866287
 30
0.0
 10
1149.666827540391
 20
-1179.669412640021
 30
0.0
 10
1150.028130035947
 20
-1179.692349545669
 30
0.0
 10
1150.389166930629
 20
-1179.719939636509
 30
0.0
 10
1150.749669182215
 20
-1179.753197032409
 30
0.0
 10
1150.955120518966
 20
-1179.772150524141
 30
0.0
 10
1151.160413101445
 20
-1179.792944972922
 30
0.0
 10
1151.365475000828
 20
-1179.815731731726
 30
0.0
 10
1151.467841302564
 20
-1179.827106815223
 30
0.0
 10
1151.570057888074
 20
-1179.839647745501
 30
0.0
 10
1151.672375891869
 20
-1179.851442475466
 30
0.0
 10
1151.853742263893
 20
-1179.872349523134
 30
0.0
 10
1151.828061260308
 20
-1179.870955056295
 30
0.0
 10
1151.662394834521
 20
-1179.847940792483
 30
0.0
 10
1152.447664906267
 20
-1179.95702996073
 30
0.0
 10
1153.228486856375
 20
-1180.098511173914
 30
0.0
 10
1153.999003143707
 20
-1180.285878393001
 30
0.0
 10
1154.765613618016
 20
-1180.472295831614
 30
0.0
 10
1155.521764567547
 20
-1180.703373262748
 30
0.0
 10
1156.257524873629
 20
-1180.988651090173
 30
0.0
 10
1156.352655645895
 20
-1181.025536336371
 30
0.0
 10
1156.446956818613
 20
-1181.06436807245
 30
0.0
 10
1156.541807789247
 20
-1181.101960644796
 30
0.0
 10
1156.517035581343
 20
-1181.092142600641
 30
0.0
 10
1156.289163114551
 20
-1180.988300724488
 30
0.0
 10
1156.473171476113
 20
-1181.073874571676
 30
0.0
 10
1156.659185266166
 20
-1181.16038105165
 30
0.0
 10
1156.847080012543
 20
-1181.241769592769
 30
0.0
 10
1157.031392266288
 20
-1181.332074230668
 30
0.0
 10
1157.16651073648
 20
-1181.398276147666
 30
0.0
 10
1157.300485899172
 20
-1181.466626029069
 30
0.0
 10
1157.430467705932
 20
-1181.542557623919
 30
0.0
 10
1157.503778563674
 20
-1181.585383696943
 30
0.0
 10
1157.57401492706
 20
-1181.632667472496
 30
0.0
 10
1157.64668335732
 20
-1181.676503165744
 30
0.0
 10
1157.922876553437
 20
-1181.843110868415
 30
0.0
 10
1157.50106786869
 20
-1181.522810623635
 30
0.0
 10
1157.643942439595
 20
-1181.666587632217
 30
0.0
 10
1157.718960108346
 20
-1181.742079134558
 30
0.0
 10
1157.930668373502
 20
-1181.866322680705
 30
0.0
 10
1157.946892130937
 20
-1181.971269351543
 30
0.0
 10
1157.946777098837
 20
-1181.970525243042
 30
0.0
 10
1157.718941275198
 20
-1181.609935669288
 30
0.0
 10
1157.868861966309
 20
-1181.907328910174
 30
0.0
 10
1157.840739523096
 20
-1181.851543251323
 30
0.0
 10
1157.763718011912
 20
-1181.528360887468
 30
0.0
 10
1157.814793390731
 20
-1181.80816804193
 30
0.0
 10
1157.815680887171
 20
-1181.813030029431
 30
0.0
 10
1157.776347822472
 20
-1181.425160553341
 30
0.0
 10
1157.785068774443
 20
-1181.630442522537
 30
0.0
 10
1157.79523984586
 20
-1181.869858767012
 30
0.0
 10
1157.839988478779
 20
-1181.296238002254
 30
0.0
 10
1157.790083030009
 20
-1181.537395198466
 30
0.0
 10
1157.750905625791
 20
-1181.726711459294
 30
0.0
 10
1157.836258536711
 20
-1181.421011548756
 30
0.0
 10
1157.840765343884
 20
-1181.408874364293
 30
0.0
 10
1157.752182901786
 20
-1181.543054154816
 30
0.0
 10
1157.748738442696
 20
-1181.555042625753
 30
0.0
 10
1157.830431966612
 20
-1181.444839777105
 30
0.0
 10
1157.917510928168
 20
-1181.337198517687
 30
0.0
 10
1157.906859457727
 20
-1181.345241643219
 30
0.0
 10
1157.79847755529
 20
-1181.468969153698
 30
0.0
 10
1157.742593098208
 20
-1181.521269345417
 30
0.0
 10
1157.387383157667
 20
-1181.812046004635
 30
0.0
 10
1157.573505157907
 20
-1181.681978724561
 30
0.0
 10
1157.762796170376
 20
-1181.549696849754
 30
0.0
 10
1157.556608741527
 20
-1181.687873714769
 30
0.0
 10
1157.526374810083
 20
-1181.707014359928
 30
0.0
 10
1157.444705913607
 20
-1181.75871770426
 30
0.0
 10
1157.365318317193
 20
-1181.813685064522
 30
0.0
 10
1157.283039035659
 20
-1181.864466632899
 30
0.0
 10
1157.119543878426
 20
-1181.965373451135
 30
0.0
 10
1156.951908682959
 20
-1182.059846109409
 30
0.0
 10
1156.781077349119
 20
-1182.147757998979
 30
0.0
 10
1156.671100011652
 20
-1182.204353679229
 30
0.0
 10
1156.200550877637
 20
-1182.411014948491
 30
0.0
 10
1156.549266354525
 20
-1182.26947816531
 30
0.0
 10
1155.785486476684
 20
-1182.57948146064
 30
0.0
 10
1154.983038652272
 20
-1182.781966806513
 30
0.0
 10
1154.172781305831
 20
-1182.926520498607
 30
0.0
 10
1153.955305839056
 20
-1182.965319136841
 30
0.0
 10
1153.736769299137
 20
-1182.996243868071
 30
0.0
 10
1153.518700360202
 20
-1183.031162049807
 30
0.0
 10
1153.252082184954
 20
-1183.073854154159
 30
0.0
 10
1153.817522448583
 20
-1182.996966971487
 30
0.0
 10
1153.549066693889
 20
-1183.027158882786
 30
0.0
 10
1153.426923265838
 20
-1183.040895759275
 30
0.0
 10
1153.305019193724
 20
-1183.057117498482
 30
0.0
 10
1153.182892721139
 20
-1183.071077552983
 30
0.0
 10
1152.745278390341
 20
-1183.121100449569
 30
0.0
 10
1152.306719293466
 20
-1183.162363972402
 30
0.0
 10
1151.868149647288
 20
-1183.202956869553
 30
0.0
 10
1150.95196888995
 20
-1183.287756243104
 30
0.0
 10
1150.058871864606
 20
-1183.953477371697
 30
0.0
 10
1150.10426075884
 20
-1184.966845758001
 30
0.0
 10
1150.143801003629
 20
-1185.849635143641
 30
0.0
 10
1150.884225067356
 20
-1186.821804216872
 30
0.0
 10
1151.868149647288
 20
-1186.730734646449
 30
0.0
 10
1153.685281239982
 20
-1186.562545542403
 30
0.0
 10
1155.56639329358
 20
-1186.402902718291
 30
0.0
 10
1157.286062772748
 20
-1185.749987005892
 30
0.0
 10
1159.274757170395
 20
-1184.99492922583
 30
0.0
 10
1161.76254337802
 20
-1183.492634184109
 30
0.0
 10
1161.238516090921
 20
-1180.984225270074
 30
0.0
 10
1160.80643524399
 20
-1178.915944715395
 30
0.0
 10
1158.453583861354
 20
-1178.01985290919
 30
0.0
 10
1156.693589221296
 20
-1177.401857255455
 30
0.0
 10
1154.877758808183
 20
-1176.764255709585
 30
0.0
 10
1152.967254824986
 20
-1176.449495377066
 30
0.0
 10
1151.057886147033
 20
-1176.255251195247
 30
0.0
 10
1148.997233318951
 20
-1176.045616551489
 30
0.0
 10
1146.923118871849
 20
-1176.030345799256
 30
0.0
 10
1144.853808557197
 20
-1176.021639647132
 30
0.0
 10
1145.150564722888
 20
-1177.117291392292
 30
0.0
 10
1145.447320888579
 20
-1178.212943137452
 30
0.0
 10
1145.74407705427
 20
-1179.308594882612
 30
0.0
 10
1146.947356542794
 20
-1178.406769532794
 30
0.0
 10
1148.03648918725
 20
-1177.413422227906
 30
0.0
 10
1148.967054103706
 20
-1176.228547634923
 30
0.0
 10
1149.903221054631
 20
-1175.036540054015
 30
0.0
 10
1150.921417416216
 20
-1173.653292480909
 30
0.0
 10
1151.190466261033
 20
-1172.127589999111
 30
0.0
 10
1151.508409910806
 20
-1170.324618438825
 30
0.0
 10
1150.754259057164
 20
-1168.592361850099
 30
0.0
 10
1149.124068344441
 20
-1167.698400814858
 30
0.0
 10
1147.497693696127
 20
-1166.806532426117
 30
0.0
 10
1145.715878240129
 20
-1167.009509668724
 30
0.0
 10
1143.9601117715
 20
-1167.286829490092
 30
0.0
 10
1143.045901125635
 20
-1167.431227243171
 30
0.0
 10
1142.457613659427
 20
-1168.620660759279
 30
0.0
 10
1142.728142236938
 20
-1169.456622100825
 30
0.0
 10
1143.04949396523
 20
-1170.449632245494
 30
0.0
 10
1143.918260332647
 20
-1170.843329276388
 30
0.0
 10
1144.897934847671
 20
-1170.688591635386
 30
0.0
 10
1144.897934847671
 20
-1170.688591635386
 30
0.0
 10
1144.897934847671
 20
-1170.688591635386
 30
0.0
 10
1144.897934847671
 20
-1170.688591635386
 30
0.0
  0
HATCH
  5
94
330
70
100
AcDbEntity
  8
2023-029
 62
    18
420
        0
440
 33554687
100
AcDbHatch
 10
0.0
 20
0.0
 30
0.0
210
0.0
220
0.0
230
1.0
  2
SOLID
 70
     1
 71
     1
 91
        1
 92
        1
 93
        1
 72
     4
 94
        3
 73
     0
 74
     0
 95
      233
 96
      229
 40
0.0
 40
0.0
 40
0.0
 40
0.0
 40
1.0
 40
1.0
 40
1.0
 40
2.0
 40
2.0
 40
2.0
 40
3.0
 40
3.0
 40
3.0
 40
4.0
 40
4.0
 40
4.0
 40
5.0
 40
5.0
 40
5.0
 40
6.0
 40
6.0
 40
6.0
 40
7.0
 40
7.0
 40
7.0
 40
8.0
 40
8.0
 40
8.0
 40
9.0
 40
9.0
 40
9.0
 40
10.0
 40
10.0
 40
10.0
 40
11.0
 40
11.0
 40
11.0
 40
12.0
 40
12.0
 40
12.0
 40
13.0
 40
13.0
 40
13.0
 40
14.0
 40
14.0
 40
14.0
 40
15.0
 40
15.0
 40
15.0
 40
16.0
 40
16.0
 40
16.0
 40
17.0
 40
17.0
 40
17.0
 40
18.0
 40
18.0
 40
18.0
 40
19.0
 40
19.0
 40
19.0
 40
20.0
 40
20.0
 40
20.0
 40
21.0
 40
21.0
 40
21.0
 40
22.0
 40
22.0
 40
22.0
 40
23.0
 40
23.0
 40
23.0
 40
24.0
 40
24.0
 40
24.0
 40
25.0
 40
25.0
 40
25.0
 40
26.0
 40
26.0
 40
26.0
 40
27.0
 40
27.0
 40
27.0
 40
28.0
 40
28.0
 40
28.0
 40
29.0
 40
29.0
 40
29.0
 40
30.0
 40
30.0
 40
30.0
 40
31.0
 40
31.0
 40
31.0
 40
32.0
 40
32.0
 40
32.0
 40
33.0
 40
33.0
 40
33.0
 40
34.0
 40
34.0
 40
34.0
 40
35.0
 40
35.0
 40
35.0
 40
36.0
 40
36.0
 40
36.0
 40
37.0
 40
37.0
 40
37.0
 40
38.0
 40
38.0
 40
38.0
 40
39.0
 40
39.0
 40
39.0
 40
40.0
 40
40.0
 40
40.0
 40
41.0
 40
41.0
 40
41.0
 40
42.0
 40
42.0
 40
42.0
 40
43.0
 40
43.0
 40
43.0
 40
44.0
 40
44.0
 40
44.0
 40
45.0
 40
45.0
 40
45.0
 40
46.0
 40
46.0
 40
46.0
 40
47.0
 40
47.0
 40
47.0
 40
48.0
 40
48.0
 40
48.0
 40
49.0
 40
49.0
 40
49.0
 40
50.0
 40
50.0
 40
50.0
 40
51.0
 40
51.0
 40
51.0
 40
52.0
 40
52.0
 40
52.0
 40
53.0
 40
53.0
 40
53.0
 40
54.0
 40
54.0
 40
54.0
 40
55.0
 40
55.0
 40
55.0
 40
56.0
 40
56.0
 40
56.0
 40
57.0
 40
57.0
 40
57.0
 40
58.0
 40
58.0
 40
58.0
 40
59.0
 40
59.0
 40
59.0
 40
60.0
 40
60.0
 40
60.0
 40
61.0
 40
61.0
 40
61.0
 40
62.0
 40
62.0
 40
62.0
 40
63.0
 40
63.0
 40
63.0
 40
64.0
 40
64.0
 40
64.0
 40
65.0
 40
65.0
 40
65.0
 40
66.0
 40
66.0
 40
66.0
 40
67.0
 40
67.0
 40
67.0
 40
68.0
 40
68.0
 40
68.0
 40
69.0
 40
69.0
 40
69.0
 40
70.0
 40
70.0
 40
70.0
 40
71.0
 40
71.0
 40
71.0
 40
72.0
 40
72.0
 40
72.0
 40
73.0
 40
73.0
 40
73.0
 40
74.0
 40
74.0
 40
74.0
 40
75.0
 40
75.0
 40
75.0
 40
76.0
 40
76.0
 40
76.0
 40
76.0
 10
1144.897934847671
 20
-1170.688591635386
 10
1145.065609036428
 20
-1170.662107830789
 10
1145.233278734069
 20
-1170.635687997745
 10
1145.401224917441
 20
-1170.610970785968
 10
1145.088204408151
 20
-1170.657039080366
 10
1145.526856225389
 20
-1170.597539304822
 10
1145.607253130135
 20
-1170.589914203319
 10
1145.887456022565
 20
-1170.563338858122
 10
1146.169485466102
 20
-1170.546918098845
 10
1146.451047857441
 20
-1170.553362759643
 10
1146.482497216399
 20
-1170.554082601699
 10
1147.015456437815
 20
-1170.60161921711
 10
1146.651959071185
 20
-1170.548265571321
 10
1146.789610600602
 20
-1170.568469874342
 10
1146.928299672149
 20
-1170.599778389982
 10
1147.062374593887
 20
-1170.637140596778
 10
1147.117177168629
 20
-1170.652412245673
 10
1147.470031186223
 20
-1170.740707796521
 10
1147.209995685405
 20
-1170.673059567223
 10
1146.961924368336
 20
-1170.608523820041
 10
1147.282546250332
 20
-1170.710973383039
 10
1147.343531350295
 20
-1170.744533508923
 10
1147.375166749188
 20
-1170.761942482094
 10
1147.635066551676
 20
-1170.949951368404
 10
1147.662907728741
 20
-1170.945769080622
 10
1147.489085801516
 20
-1170.807532452887
 10
1147.450574359599
 20
-1170.781170354739
 10
1147.54737340299
 20
-1170.866682786176
 10
1147.593798975895
 20
-1170.907635090998
 10
1147.63816348353
 20
-1170.950742763938
 10
1147.680466925897
 20
-1170.996005804997
 10
1147.907680709822
 20
-1171.210016096194
 10
1147.586623974627
 20
-1170.80266019487
 10
1147.669779490901
 20
-1170.976572957594
 10
1147.783554060972
 20
-1171.214522893995
 10
1147.802370650743
 20
-1171.063528156531
 10
1147.687289812181
 20
-1170.937901338265
 10
1147.719461381647
 20
-1171.022408664907
 10
1147.745883310922
 20
-1171.108693611225
 10
1147.766555600005
 20
-1171.196756177221
 10
1147.761203374117
 20
-1171.135383285422
 10
1147.755851148229
 20
-1171.074010393624
 10
1147.750498922341
 20
-1171.012637501825
 10
1147.766254465455
 20
-1171.045746443463
 10
1147.78103254097
 20
-1171.41662148329
 10
1147.75269501569
 20
-1171.443168968133
 10
1147.760882101147
 20
-1171.382628192291
 10
1147.769069186604
 20
-1171.322087416447
 10
1147.777256272061
 20
-1171.261546640605
 10
1147.764395636359
 20
-1171.333783835166
 10
1147.748449567325
 20
-1171.405310001346
 10
1147.729418064961
 20
-1171.476125139146
 10
1147.692947288179
 20
-1171.620834250489
 10
1147.63804707611
 20
-1171.758410837879
 10
1147.59555998731
 20
-1171.900815129515
 10
1147.538438163842
 20
-1172.092270770224
 10
1147.718194170634
 20
-1171.670708285033
 10
1147.564849963985
 20
-1171.962374143686
 10
1147.494952205105
 20
-1172.095322041148
 10
1147.428701690641
 20
-1172.228968610946
 10
1147.355163421156
 20
-1172.360055934362
 10
1147.221755796826
 20
-1172.597864744922
 10
1147.078006044084
 20
-1172.830315717944
 10
1146.929787297283
 20
-1173.059111594201
 10
1146.781296437012
 20
-1173.288327514759
 10
1146.62649989234
 20
-1173.513395530793
 10
1146.465587673092
 20
-1173.734072691535
 10
1146.41642067581
 20
-1173.801500966487
 10
1146.140823983196
 20
-1174.148892964402
 10
1146.380540599985
 20
-1173.85119371269
 10
1146.302673858476
 20
-1173.947894855027
 10
1146.224883177598
 20
-1174.044583253712
 10
1146.145294680569
 20
-1174.139887595728
 10
1145.795144541127
 20
-1174.559179703158
 10
1145.421994804142
 20
-1174.959010672739
 10
1145.027793087525
 20
-1175.337189703567
 10
1144.830717969827
 20
-1175.526254524622
 10
1144.628557679876
 20
-1175.70999892547
 10
1144.421302752006
 20
-1175.887855929584
 10
1144.308177554909
 20
-1175.984934965784
 10
1144.192645835971
 20
-1176.078684397344
 10
1144.077806481186
 20
-1176.173689406839
 10
1143.788492489103
 20
-1176.413034870043
 10
1144.292300397347
 20
-1176.01606523011
 10
1143.963540060125
 20
-1176.262462188547
 10
1143.352244583257
 20
-1176.720611573229
 10
1142.894568155414
 20
-1177.456082970794
 10
1143.15292748455
 20
-1178.254440073666
 10
1143.393568379813
 20
-1178.99804537957
 10
1144.052536857253
 20
-1179.546046255739
 10
1144.853808557197
 20
-1179.549417424027
 10
1146.458656898028
 20
-1179.55616945812
 10
1148.064646341931
 20
-1179.567699866287
 10
1149.666827540391
 20
-1179.669412640021
 10
1150.028130035947
 20
-1179.692349545669
 10
1150.389166930629
 20
-1179.719939636509
 10
1150.749669182215
 20
-1179.753197032409
 10
1150.955120518966
 20
-1179.772150524141
 10
1151.160413101445
 20
-1179.792944972922
 10
1151.365475000828
 20
-1179.815731731726
 10
1151.467841302564
 20
-1179.827106815223
 10
1151.570057888074
 20
-1179.839647745501
 10
1151.672375891869
 20
-1179.851442475466
 10
1151.853742263893
 20
-1179.872349523134
 10
1151.828061260308
 20
-1179.870955056295
 10
1151.662394834521
 20
-1179.847940792483
 10
1152.447664906267
 20
-1179.95702996073
 10
1153.228486856375
 20
-1180.098511173914
 10
1153.999003143707
 20
-1180.285878393001
 10
1154.765613618016
 20
-1180.472295831614
 10
1155.521764567547
 20
-1180.703373262748
 10
1156.257524873629
 20
-1180.988651090173
 10
1156.352655645895
 20
-1181.025536336371
 10
1156.446956818613
 20
-1181.06436807245
 10
1156.541807789247
 20
-1181.101960644796
 10
1156.517035581343
 20
-1181.092142600641
 10
1156.289163114551
 20
-1180.988300724488
 10
1156.473171476113
 20
-1181.073874571676
 10
1156.659185266166
 20
-1181.16038105165
 10
1156.847080012543
 20
-1181.241769592769
 10
1157.031392266288
 20
-1181.332074230668
 10
1157.16651073648
 20
-1181.398276147666
 10
1157.300485899172
 20
-1181.466626029069
 10
1157.430467705932
 20
-1181.542557623919
 10
1157.503778563674
 20
-1181.585383696943
 10
1157.57401492706
 20
-1181.632667472496
 10
1157.64668335732
 20
-1181.676503165744
 10
1157.922876553437
 20
-1181.843110868415
 10
1157.50106786869
 20
-1181.522810623635
 10
1157.643942439595
 20
-1181.666587632217
 10
1157.718960108346
 20
-1181.742079134558
 10
1157.930668373502
 20
-1181.866322680705
 10
1157.946892130937
 20
-1181.971269351543
 10
1157.946777098837
 20
-1181.970525243042
 10
1157.718941275198
 20
-1181.609935669288
 10
1157.868861966309
 20
-1181.907328910174
 10
1157.840739523096
 20
-1181.851543251323
 10
1157.763718011912
 20
-1181.528360887468
 10
1157.814793390731
 20
-1181.80816804193
 10
1157.815680887171
 20
-1181.813030029431
 10
1157.776347822472
 20
-1181.425160553341
 10
1157.785068774443
 20
-1181.630442522537
 10
1157.79523984586
 20
-1181.869858767012
 10
1157.839988478779
 20
-1181.296238002254
 10
1157.790083030009
 20
-1181.537395198466
 10
1157.750905625791
 20
-1181.726711459294
 10
1157.836258536711
 20
-1181.421011548756
 10
1157.840765343884
 20
-1181.408874364293
 10
1157.752182901786
 20
-1181.543054154816
 10
1157.748738442696
 20
-1181.555042625753
 10
1157.830431966612
 20
-1181.444839777105
 10
1157.917510928168
 20
-1181.337198517687
 10
1157.906859457727
 20
-1181.345241643219
 10
1157.79847755529
 20
-1181.468969153698
 10
1157.742593098208
 20
-1181.521269345417
 10
1157.387383157667
 20
-1181.812046004635
 10
1157.573505157907
 20
-1181.681978724561
 10
1157.762796170376
 20
-1181.549696849754
 10
1157.556608741527
 20
-1181.687873714769
 10
1157.526374810083
 20
-1181.707014359928
 10
1157.444705913607
 20
-1181.75871770426
 10
1157.365318317193
 20
-1181.813685064522
 10
1157.283039035659
 20
-1181.864466632899
 10
1157.119543878426
 20
-1181.965373451135
 10
1156.951908682959
 20
-1182.059846109409
 10
1156.781077349119
 20
-1182.147757998979
 10
1156.671100011652
 20
-1182.204353679229
 10
1156.200550877637
 20
-1182.411014948491
 10
1156.549266354525
 20
-1182.26947816531
 10
1155.785486476684
 20
-1182.57948146064
 10
1154.983038652272
 20
-1182.781966806513
 10
1154.172781305831
 20
-1182.926520498607
 10
1153.955305839056
 20
-1182.965319136841
 10
1153.736769299137
 20
-1182.996243868071
 10
1153.518700360202
 20
-1183.031162049807
 10
1153.252082184954
 20
-1183.073854154159
 10
1153.817522448583
 20
-1182.996966971487
 10
1153.549066693889
 20
-1183.027158882786
 10
1153.426923265838
 20
-1183.040895759275
 10
1153.305019193724
 20
-1183.057117498482
 10
1153.182892721139
 20
-1183.071077552983
 10
1152.745278390341
 20
-1183.121100449569
 10
1152.306719293466
 20
-1183.162363972402
 10
1151.868149647288
 20
-1183.202956869553
 10
1150.95196888995
 20
-1183.287756243104
 10
1150.058871864606
 20
-1183.953477371697
 10
1150.10426075884
 20
-1184.966845758001
 10
1150.143801003629
 20
-1185.849635143641
 10
1150.884225067356
 20
-1186.821804216872
 10
1151.868149647288
 20
-1186.730734646449
 10
1153.685281239982
 20
-1186.562545542403
 10
1155.56639329358
 20
-1186.402902718291
 10
1157.286062772748
 20
-1185.749987005892
 10
1159.274757170395
 20
-1184.99492922583
 10
1161.76254337802
 20
-1183.492634184109
 10
1161.238516090921
 20
-1180.984225270074
 10
1160.80643524399
 20
-1178.915944715395
 10
1158.453583861354
 20
-1178.01985290919
 10
1156.693589221296
 20
-1177.401857255455
 10
1154.877758808183
 20
-1176.764255709585
 10
1152.967254824986
 20
-1176.449495377066
 10
1151.057886147033
 20
-1176.255251195247
 10
1148.997233318951
 20
-1176.045616551489
 10
1146.923118871849
 20
-1176.030345799256
 10
1144.853808557197
 20
-1176.021639647132
 10
1145.150564722888
 20
-1177.117291392292
 10
1145.447320888579
 20
-1178.212943137452
 10
1145.74407705427
 20
-1179.308594882612
 10
1146.947356542794
 20
-1178.406769532794
 10
1148.03648918725
 20
-1177.413422227906
 10
1148.967054103706
 20
-1176.228547634923
 10
1149.903221054631
 20
-1175.036540054015
 10
1150.921417416216
 20
-1173.653292480909
 10
1151.190466261033
 20
-1172.127589999111
 10
1151.508409910806
 20
-1170.324618438825
 10
1150.754259057164
 20
-1168.592361850099
 10
1149.124068344441
 20
-1167.698400814858
 10
1147.497693696127
 20
-1166.806532426117
 10
1145.715878240129
 20
-1167.009509668724
 10
1143.9601117715
 20
-1167.286829490092
 10
1143.045901125635
 20
-1167.431227243171
 10
1142.457613659427
 20
-1168.620660759279
 10
1142.728142236938
 20
-1169.456622100825
 10
1143.04949396523
 20
-1170.449632245494
 10
1143.918260332647
 20
-1170.843329276388
 10
1144.897934847671
 20
-1170.688591635386
 10
1144.897934847671
 20
-1170.688591635386
 10
1144.897934847671
 20
-1170.688591635386
 10
1144.897934847671
 20
-1170.688591635386
 97
        0
 97
        1
330
93
 75
     2
 76
     1
 98
        1
 10
0.0
 20
0.0
450
        0
451
        0
460
0.0
461
0.0
452
        0
462
0.0
453
        0
470

  0
SPLINE
  5
95
330
70
100
AcDbEntity
  8
2023-029
100
AcDbSpline
210
0.0
220
0.0
230
1.0
 70
     9
 71
     3
 72
   242
 73
   238
 74
     0
 42
0.0000000001
 43
0.0000000001
 40
0.0
 40
0.0
 40
0.0
 40
0.0
 40
1.0
 40
1.0
 40
1.0
 40
2.0
 40
2.0
 40
2.0
 40
3.0
 40
3.0
 40
3.0
 40
4.0
 40
4.0
 40
4.0
 40
5.0
 40
5.0
 40
5.0
 40
6.0
 40
6.0
 40
6.0
 40
7.0
 40
7.0
 40
7.0
 40
8.0
 40
8.0
 40
8.0
 40
9.0
 40
9.0
 40
9.0
 40
10.0
 40
10.0
 40
10.0
 40
11.0
 40
11.0
 40
11.0
 40
12.0
 40
12.0
 40
12.0
 40
13.0
 40
13.0
 40
13.0
 40
14.0
 40
14.0
 40
14.0
 40
15.0
 40
15.0
 40
15.0
 40
16.0
 40
16.0
 40
16.0
 40
17.0
 40
17.0
 40
17.0
 40
18.0
 40
18.0
 40
18.0
 40
19.0
 40
19.0
 40
19.0
 40
20.0
 40
20.0
 40
20.0
 40
21.0
 40
21.0
 40
21.0
 40
22.0
 40
22.0
 40
22.0
 40
23.0
 40
23.0
 40
23.0
 40
24.0
 40
24.0
 40
24.0
 40
25.0
 40
25.0
 40
25.0
 40
26.0
 40
26.0
 40
26.0
 40
27.0
 40
27.0
 40
27.0
 40
28.0
 40
28.0
 40
28.0
 40
29.0
 40
29.0
 40
29.0
 40
30.0
 40
30.0
 40
30.0
 40
31.0
 40
31.0
 40
31.0
 40
32.0
 40
32.0
 40
32.0
 40
33.0
 40
33.0
 40
33.0
 40
34.0
 40
34.0
 40
34.0
 40
35.0
 40
35.0
 40
35.0
 40
36.0
 40
36.0
 40
36.0
 40
37.0
 40
37.0
 40
37.0
 40
38.0
 40
38.0
 40
38.0
 40
39.0
 40
39.0
 40
39.0
 40
40.0
 40
40.0
 40
40.0
 40
41.0
 40
41.0
 40
41.0
 40
42.0
 40
42.0
 40
42.0
 40
43.0
 40
43.0
 40
43.0
 40
44.0
 40
44.0
 40
44.0
 40
45.0
 40
45.0
 40
45.0
 40
46.0
 40
46.0
 40
46.0
 40
47.0
 40
47.0
 40
47.0
 40
48.0
 40
48.0
 40
48.0
 40
49.0
 40
49.0
 40
49.0
 40
50.0
 40
50.0
 40
50.0
 40
51.0
 40
51.0
 40
51.0
 40
52.0
 40
52.0
 40
52.0
 40
53.0
 40
53.0
 40
53.0
 40
54.0
 40
54.0
 40
54.0
 40
55.0
 40
55.0
 40
55.0
 40
56.0
 40
56.0
 40
56.0
 40
57.0
 40
57.0
 40
57.0
 40
58.0
 40
58.0
 40
58.0
 40
59.0
 40
59.0
 40
59.0
 40
60.0
 40
60.0
 40
60.0
 40
61.0
 40
61.0
 40
61.0
 40
62.0
 40
62.0
 40
62.0
 40
63.0
 40
63.0
 40
63.0
 40
64.0
 40
64.0
 40
64.0
 40
65.0
 40
65.0
 40
65.0
 40
66.0
 40
66.0
 40
66.0
 40
67.0
 40
67.0
 40
67.0
 40
68.0
 40
68.0
 40
68.0
 40
69.0
 40
69.0
 40
69.0
 40
70.0
 40
70.0
 40
70.0
 40
71.0
 40
71.0
 40
71.0
 40
72.0
 40
72.0
 40
72.0
 40
73.0
 40
73.0
 40
73.0
 40
74.0
 40
74.0
 40
74.0
 40
75.0
 40
75.0
 40
75.0
 40
76.0
 40
76.0
 40
76.0
 40
77.0
 40
77.0
 40
77.0
 40
78.0
 40
78.0
 40
78.0
 40
79.0
 40
79.0
 40
79.0
 40
79.0
 10
1132.052881677076
 20
-1113.856101660978
 30
0.0
 10
1126.642326845463
 20
-1117.639716585209
 30
0.0
 10
1123.337181966155
 20
-1123.435734186083
 30
0.0
 10
1121.15063518374
 20
-1129.542503234942
 30
0.0
 10
1119.988559136253
 20
-1132.788045519372
 30
0.0
 10
1119.024857523076
 20
-1136.173024943243
 30
0.0
 10
1118.503700531898
 20
-1139.583392002355
 30
0.0
 10
1117.94680574776
 20
-1143.227621398421
 30
0.0
 10
1117.914193701614
 20
-1147.015907142693
 30
0.0
 10
1119.182966476249
 20
-1150.525848099037
 30
0.0
 10
1120.353525064329
 20
-1153.764088714092
 30
0.0
 10
1122.46690291173
 20
-1156.57976363882
 30
0.0
 10
1125.509854730287
 20
-1158.268987748662
 30
0.0
 10
1128.432435418017
 20
-1159.891390617666
 30
0.0
 10
1131.866646937326
 20
-1160.484427823137
 30
0.0
 10
1135.181890510639
 20
-1160.363284807487
 30
0.0
 10
1138.967303524302
 20
-1160.224961231009
 30
0.0
 10
1142.649047396198
 20
-1159.207280382773
 30
0.0
 10
1146.274698335195
 20
-1158.192502523289
 30
0.0
 10
1149.929232549324
 20
-1157.169640568396
 30
0.0
 10
1153.603039982053
 20
-1156.302879993347
 30
0.0
 10
1157.353893166972
 20
-1155.711810325859
 30
0.0
 10
1157.798352418963
 20
-1155.641771225597
 30
0.0
 10
1158.243289322774
 20
-1155.574796865715
 30
0.0
 10
1158.688647160431
 20
-1155.510721313351
 30
0.0
 10
1158.911374193762
 20
-1155.478676614728
 30
0.0
 10
1159.134379403818
 20
-1155.448617957669
 30
0.0
 10
1159.357127281968
 20
-1155.41674861634
 30
0.0
 10
1159.645954527988
 20
-1155.375425061813
 30
0.0
 10
1159.10069582497
 20
-1155.449840674322
 30
0.0
 10
1159.390035775673
 20
-1155.412054316228
 30
0.0
 10
1159.557428270526
 20
-1155.39019368918
 30
0.0
 10
1159.724785537444
 20
-1155.36808661219
 30
0.0
 10
1159.892237084315
 20
-1155.346676972074
 30
0.0
 10
1160.813712265101
 20
-1155.228861088223
 30
0.0
 10
1161.736647179382
 20
-1155.122506589087
 30
0.0
 10
1162.660634209087
 20
-1155.026382397393
 30
0.0
 10
1164.567668236687
 20
-1154.827989889118
 30
0.0
 10
1166.478993566681
 20
-1154.672581796055
 30
0.0
 10
1168.392196295686
 20
-1154.547705982315
 30
0.0
 10
1172.169127227172
 20
-1154.301183584893
 30
0.0
 10
1175.952620007786
 20
-1154.174183086866
 30
0.0
 10
1179.735820871286
 20
-1154.072042405956
 30
0.0
 10
1180.694611306483
 20
-1154.046156519525
 30
0.0
 10
1181.65344499728
 20
-1154.021910800794
 30
0.0
 10
1182.612279741725
 20
-1153.997733813872
 30
0.0
 10
1183.533920804161
 20
-1153.974494664434
 30
0.0
 10
1184.419579872756
 20
-1153.203059566711
 30
0.0
 10
1184.376168630173
 20
-1152.233844925424
 30
0.0
 10
1184.334255840492
 20
-1151.298085269639
 30
0.0
 10
1183.600459282582
 20
-1150.445039121968
 30
0.0
 10
1182.612279741725
 20
-1150.469956036976
 30
0.0
 10
1175.224857965816
 20
-1150.656229636982
 30
0.0
 10
1167.820756446098
 20
-1150.845308455164
 30
0.0
 10
1160.478599999497
 20
-1151.745466030626
 30
0.0
 10
1156.719984573309
 20
-1152.20627698906
 30
0.0
 10
1152.980068103864
 20
-1152.825522219854
 30
0.0
 10
1149.300849317699
 20
-1153.728583811023
 30
0.0
 10
1145.758026192236
 20
-1154.598167185879
 30
0.0
 10
1142.289014166576
 20
-1155.776049328989
 30
0.0
 10
1138.695751645178
 20
-1156.435154100411
 30
0.0
 10
1138.259173041472
 20
-1156.51523481789
 30
0.0
 10
1137.821169137472
 20
-1156.586041737708
 30
0.0
 10
1137.381996876352
 20
-1156.650270709212
 30
0.0
 10
1137.321098269663
 20
-1156.659177134367
 30
0.0
 10
1137.035013818743
 20
-1156.69029005531
 30
0.0
 10
1137.355881507907
 20
-1156.653849862894
 30
0.0
 10
1137.245538682019
 20
-1156.666381239355
 30
0.0
 10
1137.135419704062
 20
-1156.680962804385
 30
0.0
 10
1137.02508059417
 20
-1156.693581567947
 30
0.0
 10
1136.781233262911
 20
-1156.721468795072
 30
0.0
 10
1136.536992283584
 20
-1156.746094380998
 30
0.0
 10
1136.29246222763
 20
-1156.767169651324
 30
0.0
 10
1135.528166189802
 20
-1156.833041903893
 30
0.0
 10
1134.760594761398
 20
-1156.860623026444
 30
0.0
 10
1133.993554061661
 20
-1156.846541199362
 30
0.0
 10
1133.643433590613
 20
-1156.840113462303
 30
0.0
 10
1133.293465716846
 20
-1156.824652157029
 30
0.0
 10
1132.944146029182
 20
-1156.800172172709
 30
0.0
 10
1132.757915434368
 20
-1156.787121313563
 30
0.0
 10
1132.571913728423
 20
-1156.771462522814
 30
0.0
 10
1132.386132244519
 20
-1156.753090723413
 30
0.0
 10
1132.293317657756
 20
-1156.743912354647
 30
0.0
 10
1132.200584126196
 20
-1156.734065888766
 30
0.0
 10
1132.107913949969
 20
-1156.723528520197
 30
0.0
 10
1131.887484290416
 20
-1156.698463837462
 30
0.0
 10
1131.866303536916
 20
-1156.734791623466
 30
0.0
 10
1132.09158048671
 20
-1156.725076503906
 30
0.0
 10
1131.744251058891
 20
-1156.740055164267
 30
0.0
 10
1131.333846755336
 20
-1156.605720204938
 30
0.0
 10
1130.993153179946
 20
-1156.535861703729
 30
0.0
 10
1130.608424792332
 20
-1156.456973956871
 30
0.0
 10
1130.226475177328
 20
-1156.364400980617
 30
0.0
 10
1129.848485183062
 20
-1156.257806294749
 30
0.0
 10
1129.494767635439
 20
-1156.158056535637
 30
0.0
 10
1129.144644085198
 20
-1156.045874530703
 30
0.0
 10
1128.799202521641
 20
-1155.92040391577
 30
0.0
 10
1128.648621606286
 20
-1155.865710207658
 30
0.0
 10
1128.499611594427
 20
-1155.807206224465
 30
0.0
 10
1128.350388231755
 20
-1155.748953446363
 30
0.0
 10
1128.028887295389
 20
-1155.623448147658
 30
0.0
 10
1128.352155406959
 20
-1155.764446966734
 30
0.0
 10
1128.392719704679
 20
-1155.767754885878
 30
0.0
 10
1128.297313048979
 20
-1155.759974706741
 30
0.0
 10
1128.105663517396
 20
-1155.638517706759
 30
0.0
 10
1128.019250303114
 20
-1155.597547916331
 30
0.0
 10
1127.361062407993
 20
-1155.285491243637
 30
0.0
 10
1126.728160770274
 20
-1154.917751787168
 30
0.0
 10
1126.135822523315
 20
-1154.493525804698
 30
0.0
 10
1126.067192913502
 20
-1154.444374050952
 30
0.0
 10
1125.978091533051
 20
-1154.390492212493
 30
0.0
 10
1125.914879261566
 20
-1154.331468534468
 30
0.0
 10
1126.180051110931
 20
-1154.579069474769
 30
0.0
 10
1126.012382496087
 20
-1154.408131036488
 30
0.0
 10
1125.947175545389
 20
-1154.353829227446
 30
0.0
 10
1125.805844378923
 20
-1154.236134136185
 30
0.0
 10
1125.664367210975
 20
-1154.119065922107
 30
0.0
 10
1125.527348135274
 20
-1153.996285038035
 30
0.0
 10
1125.233510354726
 20
-1153.732981098163
 30
0.0
 10
1124.953872472518
 20
-1153.454152090258
 30
0.0
 10
1124.689329772146
 20
-1153.161444950453
 30
0.0
 10
1124.565181107856
 20
-1153.024078845156
 30
0.0
 10
1124.4444661473
 20
-1152.883789029839
 30
0.0
 10
1124.327049398606
 20
-1152.740626982497
 30
0.0
 10
1124.291697864351
 20
-1152.6975241196
 30
0.0
 10
1124.10789874578
 20
-1152.46380135138
 30
0.0
 10
1124.249510825663
 20
-1152.647441145304
 30
0.0
 10
1124.391114496839
 20
-1152.831070034981
 30
0.0
 10
1124.211808633906
 20
-1152.593965160633
 30
0.0
 10
1124.17902834574
 20
-1152.54889659904
 30
0.0
 10
1123.947727561937
 20
-1152.230888606899
 30
0.0
 10
1123.731962782076
 20
-1151.901782860507
 30
0.0
 10
1123.531300904716
 20
-1151.563617398199
 30
0.0
 10
1123.341918232505
 20
-1151.244460218252
 30
0.0
 10
1123.16661528062
 20
-1150.916928626499
 30
0.0
 10
1123.004224473496
 20
-1150.58325136721
 30
0.0
 10
1122.932911989568
 20
-1150.436719955663
 30
0.0
 10
1122.795476094263
 20
-1150.238286265656
 30
0.0
 10
1122.770128151421
 20
-1150.076427399085
 30
0.0
 10
1122.777641671936
 20
-1150.124404859113
 30
0.0
 10
1122.911115696874
 20
-1150.428758637197
 30
0.0
 10
1122.785084512594
 20
-1150.111220827277
 30
0.0
 10
1122.750650783073
 20
-1150.024464433436
 30
0.0
 10
1122.715900266516
 20
-1149.937852228192
 30
0.0
 10
1122.682518796456
 20
-1149.850681027005
 30
0.0
 10
1122.406133623635
 20
-1149.128938471567
 30
0.0
 10
1122.185540697397
 20
-1148.38616672293
 30
0.0
 10
1122.016365195467
 20
-1147.632178743699
 30
0.0
 10
1121.934173969941
 20
-1147.265865682195
 30
0.0
 10
1121.864200361182
 20
-1146.896910818318
 30
0.0
 10
1121.806050921344
 20
-1146.526024601048
 30
0.0
 10
1121.79668096916
 20
-1146.466261581291
 30
0.0
 10
1121.750516114825
 20
-1146.165929935563
 30
0.0
 10
1121.786970815057
 20
-1146.412556906657
 30
0.0
 10
1121.823385324398
 20
-1146.658911974326
 30
0.0
 10
1121.781009607998
 20
-1146.358835947091
 30
0.0
 10
1121.773984844256
 20
-1146.298540898955
 30
0.0
 10
1121.749636833143
 20
-1146.08955671727
 30
0.0
 10
1121.728768301075
 20
-1145.880162740113
 30
0.0
 10
1121.711808042908
 20
-1145.670445904153
 30
0.0
 10
1121.638049868013
 20
-1144.758411964981
 30
0.0
 10
1121.630143905139
 20
-1143.841415588831
 30
0.0
 10
1121.673556944391
 20
-1142.927646965365
 30
0.0
 10
1121.693716525214
 20
-1142.503323012596
 30
0.0
 10
1121.724893515392
 20
-1142.079527691116
 30
0.0
 10
1121.766244653393
 20
-1141.656743639902
 30
0.0
 10
1121.78832791426
 20
-1141.430959031657
 30
0.0
 10
1121.81431703758
 20
-1141.205678860215
 30
0.0
 10
1121.840598342818
 20
-1140.980355393682
 30
0.0
 10
1121.882214771694
 20
-1140.623555838491
 30
0.0
 10
1121.854253650472
 20
-1140.86701684284
 30
0.0
 10
1121.843773695869
 20
-1140.942747027926
 30
0.0
 10
1121.867133123811
 20
-1140.773947269858
 30
0.0
 10
1121.892200536237
 20
-1140.605349924236
 30
0.0
 10
1121.9183412585
 20
-1140.436959932938
 30
0.0
 10
1122.058079911505
 20
-1139.536809190045
 30
0.0
 10
1122.23539407924
 20
-1138.642627449714
 30
0.0
 10
1122.437379462464
 20
-1137.754469549172
 30
0.0
 10
1122.812663581175
 20
-1136.104292939058
 30
0.0
 10
1123.261097179111
 20
-1134.468636831408
 30
0.0
 10
1123.762148146237
 20
-1132.852300311093
 30
0.0
 10
1124.207931673908
 20
-1131.414250605172
 30
0.0
 10
1124.704907687426
 20
-1129.991457761482
 30
0.0
 10
1125.269890158267
 20
-1128.595738777495
 30
0.0
 10
1125.304651297149
 20
-1128.509865703643
 30
0.0
 10
1125.3396681942
 20
-1128.424098911276
 30
0.0
 10
1125.374950827746
 20
-1128.338438775973
 30
0.0
 10
1125.396734688604
 20
-1128.28555132736
 30
0.0
 10
1125.510897667342
 20
-1128.009535020829
 30
0.0
 10
1125.419678405151
 20
-1128.228620903185
 30
0.0
 10
1125.328493785109
 20
-1128.447623583753
 30
0.0
 10
1125.443925545818
 20
-1128.172459643599
 30
0.0
 10
1125.466550562713
 20
-1128.119889245854
 30
0.0
 10
1125.50311716363
 20
-1128.034924856069
 30
0.0
 10
1125.539953495357
 20
-1127.950079703803
 30
0.0
 10
1125.577070163499
 20
-1127.865354156409
 30
0.0
 10
1125.734571295025
 20
-1127.505829170678
 30
0.0
 10
1125.897044710025
 20
-1127.14848842852
 30
0.0
 10
1126.064816243466
 20
-1126.793637945899
 30
0.0
 10
1126.379166792972
 20
-1126.128760884121
 30
0.0
 10
1126.712404299669
 20
-1125.472698436519
 30
0.0
 10
1127.066491279019
 20
-1124.828084078494
 30
0.0
 10
1127.785226416169
 20
-1123.519628766534
 30
0.0
 10
1128.581793758179
 20
-1122.223966630447
 30
0.0
 10
1129.512699989311
 20
-1121.054056788941
 30
0.0
 10
1129.251363790554
 20
-1121.382489213865
 30
0.0
 10
1129.585669614473
 20
-1120.96643100398
 30
0.0
 10
1129.656175264744
 20
-1120.87945243096
 30
0.0
 10
1129.769740197848
 20
-1120.739354214878
 30
0.0
 10
1129.884838713508
 20
-1120.600492865126
 30
0.0
 10
1130.001403913147
 20
-1120.462880983297
 30
0.0
 10
1130.248869994423
 20
-1120.170733127515
 30
0.0
 10
1130.503396868455
 20
-1119.884557168336
 30
0.0
 10
1130.764733559166
 20
-1119.604750929667
 30
0.0
 10
1131.272423696699
 20
-1119.061180612749
 30
0.0
 10
1131.806359506506
 20
-1118.542180118903
 30
0.0
 10
1132.366003786562
 20
-1118.052214549738
 30
0.0
 10
1132.621710634415
 20
-1117.828344574268
 30
0.0
 10
1132.887099051491
 20
-1117.617265002077
 30
0.0
 10
1133.148469539617
 20
-1117.400312838534
 30
0.0
 10
1133.343313627703
 20
-1117.238581318011
 30
0.0
 10
1132.911004876519
 20
-1117.576930439143
 30
0.0
 10
1133.114302900881
 20
-1117.425333438085
 30
0.0
 10
1133.187270780087
 20
-1117.370922128894
 30
0.0
 10
1133.25953303122
 20
-1117.315564219401
 30
0.0
 10
1133.332698698082
 20
-1117.261406473671
 30
0.0
 10
1133.497839169748
 20
-1117.139168324853
 30
0.0
 10
1133.665048140759
 20
-1117.019976300497
 30
0.0
 10
1133.83341867122
 20
-1116.902234355043
 30
0.0
 10
1134.587898299333
 20
-1116.374624808555
 30
0.0
 10
1135.011401287237
 20
-1115.334523201863
 30
0.0
 10
1134.466216521181
 20
-1114.488899510938
 30
0.0
 10
1133.982942140139
 20
-1113.739303610117
 30
0.0
 10
1132.861555329128
 20
-1113.290594094016
 30
0.0
 10
1132.052881677076
 20
-1113.856101660978
 30
0.0
 10
1132.052881677076
 20
-1113.856101660978
 30
0.0
 10
1132.052881677076
 20
-1113.856101660978
 30
0.0
 10
1132.052881677076
 20
-1113.856101660978
 30
0.0
  0
HATCH
  5
96
330
70
100
AcDbEntity
  8
2023-029
 62
    18
420
        0
440
 33554687
100
AcDbHatch
 10
0.0
 20
0.0
 30
0.0
210
0.0
220
0.0
230
1.0
  2
SOLID
 70
     1
 71
     1
 91
        1
 92
        1
 93
        1
 72
     4
 94
        3
 73
     0
 74
     0
 95
      242
 96
      238
 40
0.0
 40
0.0
 40
0.0
 40
0.0
 40
1.0
 40
1.0
 40
1.0
 40
2.0
 40
2.0
 40
2.0
 40
3.0
 40
3.0
 40
3.0
 40
4.0
 40
4.0
 40
4.0
 40
5.0
 40
5.0
 40
5.0
 40
6.0
 40
6.0
 40
6.0
 40
7.0
 40
7.0
 40
7.0
 40
8.0
 40
8.0
 40
8.0
 40
9.0
 40
9.0
 40
9.0
 40
10.0
 40
10.0
 40
10.0
 40
11.0
 40
11.0
 40
11.0
 40
12.0
 40
12.0
 40
12.0
 40
13.0
 40
13.0
 40
13.0
 40
14.0
 40
14.0
 40
14.0
 40
15.0
 40
15.0
 40
15.0
 40
16.0
 40
16.0
 40
16.0
 40
17.0
 40
17.0
 40
17.0
 40
18.0
 40
18.0
 40
18.0
 40
19.0
 40
19.0
 40
19.0
 40
20.0
 40
20.0
 40
20.0
 40
21.0
 40
21.0
 40
21.0
 40
22.0
 40
22.0
 40
22.0
 40
23.0
 40
23.0
 40
23.0
 40
24.0
 40
24.0
 40
24.0
 40
25.0
 40
25.0
 40
25.0
 40
26.0
 40
26.0
 40
26.0
 40
27.0
 40
27.0
 40
27.0
 40
28.0
 40
28.0
 40
28.0
 40
29.0
 40
29.0
 40
29.0
 40
30.0
 40
30.0
 40
30.0
 40
31.0
 40
31.0
 40
31.0
 40
32.0
 40
32.0
 40
32.0
 40
33.0
 40
33.0
 40
33.0
 40
34.0
 40
34.0
 40
34.0
 40
35.0
 40
35.0
 40
35.0
 40
36.0
 40
36.0
 40
36.0
 40
37.0
 40
37.0
 40
37.0
 40
38.0
 40
38.0
 40
38.0
 40
39.0
 40
39.0
 40
39.0
 40
40.0
 40
40.0
 40
40.0
 40
41.0
 40
41.0
 40
41.0
 40
42.0
 40
42.0
 40
42.0
 40
43.0
 40
43.0
 40
43.0
 40
44.0
 40
44.0
 40
44.0
 40
45.0
 40
45.0
 40
45.0
 40
46.0
 40
46.0
 40
46.0
 40
47.0
 40
47.0
 40
47.0
 40
48.0
 40
48.0
 40
48.0
 40
49.0
 40
49.0
 40
49.0
 40
50.0
 40
50.0
 40
50.0
 40
51.0
 40
51.0
 40
51.0
 40
52.0
 40
52.0
 40
52.0
 40
53.0
 40
53.0
 40
53.0
 40
54.0
 40
54.0
 40
54.0
 40
55.0
 40
55.0
 40
55.0
 40
56.0
 40
56.0
 40
56.0
 40
57.0
 40
57.0
 40
57.0
 40
58.0
 40
58.0
 40
58.0
 40
59.0
 40
59.0
 40
59.0
 40
60.0
 40
60.0
 40
60.0
 40
61.0
 40
61.0
 40
61.0
 40
62.0
 40
62.0
 40
62.0
 40
63.0
 40
63.0
 40
63.0
 40
64.0
 40
64.0
 40
64.0
 40
65.0
 40
65.0
 40
65.0
 40
66.0
 40
66.0
 40
66.0
 40
67.0
 40
67.0
 40
67.0
 40
68.0
 40
68.0
 40
68.0
 40
69.0
 40
69.0
 40
69.0
 40
70.0
 40
70.0
 40
70.0
 40
71.0
 40
71.0
 40
71.0
 40
72.0
 40
72.0
 40
72.0
 40
73.0
 40
73.0
 40
73.0
 40
74.0
 40
74.0
 40
74.0
 40
75.0
 40
75.0
 40
75.0
 40
76.0
 40
76.0
 40
76.0
 40
77.0
 40
77.0
 40
77.0
 40
78.0
 40
78.0
 40
78.0
 40
79.0
 40
79.0
 40
79.0
 40
79.0
 10
1132.052881677076
 20
-1113.856101660978
 10
1126.642326845463
 20
-1117.639716585209
 10
1123.337181966155
 20
-1123.435734186083
 10
1121.15063518374
 20
-1129.542503234942
 10
1119.988559136253
 20
-1132.788045519372
 10
1119.024857523076
 20
-1136.173024943243
 10
1118.503700531898
 20
-1139.583392002355
 10
1117.94680574776
 20
-1143.227621398421
 10
1117.914193701614
 20
-1147.015907142693
 10
1119.182966476249
 20
-1150.525848099037
 10
1120.353525064329
 20
-1153.764088714092
 10
1122.46690291173
 20
-1156.57976363882
 10
1125.509854730287
 20
-1158.268987748662
 10
1128.432435418017
 20
-1159.891390617666
 10
1131.866646937326
 20
-1160.484427823137
 10
1135.181890510639
 20
-1160.363284807487
 10
1138.967303524302
 20
-1160.224961231009
 10
1142.649047396198
 20
-1159.207280382773
 10
1146.274698335195
 20
-1158.192502523289
 10
1149.929232549324
 20
-1157.169640568396
 10
1153.603039982053
 20
-1156.302879993347
 10
1157.353893166972
 20
-1155.711810325859
 10
1157.798352418963
 20
-1155.641771225597
 10
1158.243289322774
 20
-1155.574796865715
 10
1158.688647160431
 20
-1155.510721313351
 10
1158.911374193762
 20
-1155.478676614728
 10
1159.134379403818
 20
-1155.448617957669
 10
1159.357127281968
 20
-1155.41674861634
 10
1159.645954527988
 20
-1155.375425061813
 10
1159.10069582497
 20
-1155.449840674322
 10
1159.390035775673
 20
-1155.412054316228
 10
1159.557428270526
 20
-1155.39019368918
 10
1159.724785537444
 20
-1155.36808661219
 10
1159.892237084315
 20
-1155.346676972074
 10
1160.813712265101
 20
-1155.228861088223
 10
1161.736647179382
 20
-1155.122506589087
 10
1162.660634209087
 20
-1155.026382397393
 10
1164.567668236687
 20
-1154.827989889118
 10
1166.478993566681
 20
-1154.672581796055
 10
1168.392196295686
 20
-1154.547705982315
 10
1172.169127227172
 20
-1154.301183584893
 10
1175.952620007786
 20
-1154.174183086866
 10
1179.735820871286
 20
-1154.072042405956
 10
1180.694611306483
 20
-1154.046156519525
 10
1181.65344499728
 20
-1154.021910800794
 10
1182.612279741725
 20
-1153.997733813872
 10
1183.533920804161
 20
-1153.974494664434
 10
1184.419579872756
 20
-1153.203059566711
 10
1184.376168630173
 20
-1152.233844925424
 10
1184.334255840492
 20
-1151.298085269639
 10
1183.600459282582
 20
-1150.445039121968
 10
1182.612279741725
 20
-1150.469956036976
 10
1175.224857965816
 20
-1150.656229636982
 10
1167.820756446098
 20
-1150.845308455164
 10
1160.478599999497
 20
-1151.745466030626
 10
1156.719984573309
 20
-1152.20627698906
 10
1152.980068103864
 20
-1152.825522219854
 10
1149.300849317699
 20
-1153.728583811023
 10
1145.758026192236
 20
-1154.598167185879
 10
1142.289014166576
 20
-1155.776049328989
 10
1138.695751645178
 20
-1156.435154100411
 10
1138.259173041472
 20
-1156.51523481789
 10
1137.821169137472
 20
-1156.586041737708
 10
1137.381996876352
 20
-1156.650270709212
 10
1137.321098269663
 20
-1156.659177134367
 10
1137.035013818743
 20
-1156.69029005531
 10
1137.355881507907
 20
-1156.653849862894
 10
1137.245538682019
 20
-1156.666381239355
 10
1137.135419704062
 20
-1156.680962804385
 10
1137.02508059417
 20
-1156.693581567947
 10
1136.781233262911
 20
-1156.721468795072
 10
1136.536992283584
 20
-1156.746094380998
 10
1136.29246222763
 20
-1156.767169651324
 10
1135.528166189802
 20
-1156.833041903893
 10
1134.760594761398
 20
-1156.860623026444
 10
1133.993554061661
 20
-1156.846541199362
 10
1133.643433590613
 20
-1156.840113462303
 10
1133.293465716846
 20
-1156.824652157029
 10
1132.944146029182
 20
-1156.800172172709
 10
1132.757915434368
 20
-1156.787121313563
 10
1132.571913728423
 20
-1156.771462522814
 10
1132.386132244519
 20
-1156.753090723413
 10
1132.293317657756
 20
-1156.743912354647
 10
1132.200584126196
 20
-1156.734065888766
 10
1132.107913949969
 20
-1156.723528520197
 10
1131.887484290416
 20
-1156.698463837462
 10
1131.866303536916
 20
-1156.734791623466
 10
1132.09158048671
 20
-1156.725076503906
 10
1131.744251058891
 20
-1156.740055164267
 10
1131.333846755336
 20
-1156.605720204938
 10
1130.993153179946
 20
-1156.535861703729
 10
1130.608424792332
 20
-1156.456973956871
 10
1130.226475177328
 20
-1156.364400980617
 10
1129.848485183062
 20
-1156.257806294749
 10
1129.494767635439
 20
-1156.158056535637
 10
1129.144644085198
 20
-1156.045874530703
 10
1128.799202521641
 20
-1155.92040391577
 10
1128.648621606286
 20
-1155.865710207658
 10
1128.499611594427
 20
-1155.807206224465
 10
1128.350388231755
 20
-1155.748953446363
 10
1128.028887295389
 20
-1155.623448147658
 10
1128.352155406959
 20
-1155.764446966734
 10
1128.392719704679
 20
-1155.767754885878
 10
1128.297313048979
 20
-1155.759974706741
 10
1128.105663517396
 20
-1155.638517706759
 10
1128.019250303114
 20
-1155.597547916331
 10
1127.361062407993
 20
-1155.285491243637
 10
1126.728160770274
 20
-1154.917751787168
 10
1126.135822523315
 20
-1154.493525804698
 10
1126.067192913502
 20
-1154.444374050952
 10
1125.978091533051
 20
-1154.390492212493
 10
1125.914879261566
 20
-1154.331468534468
 10
1126.180051110931
 20
-1154.579069474769
 10
1126.012382496087
 20
-1154.408131036488
 10
1125.947175545389
 20
-1154.353829227446
 10
1125.805844378923
 20
-1154.236134136185
 10
1125.664367210975
 20
-1154.119065922107
 10
1125.527348135274
 20
-1153.996285038035
 10
1125.233510354726
 20
-1153.732981098163
 10
1124.953872472518
 20
-1153.454152090258
 10
1124.689329772146
 20
-1153.161444950453
 10
1124.565181107856
 20
-1153.024078845156
 10
1124.4444661473
 20
-1152.883789029839
 10
1124.327049398606
 20
-1152.740626982497
 10
1124.291697864351
 20
-1152.6975241196
 10
1124.10789874578
 20
-1152.46380135138
 10
1124.249510825663
 20
-1152.647441145304
 10
1124.391114496839
 20
-1152.831070034981
 10
1124.211808633906
 20
-1152.593965160633
 10
1124.17902834574
 20
-1152.54889659904
 10
1123.947727561937
 20
-1152.230888606899
 10
1123.731962782076
 20
-1151.901782860507
 10
1123.531300904716
 20
-1151.563617398199
 10
1123.341918232505
 20
-1151.244460218252
 10
1123.16661528062
 20
-1150.916928626499
 10
1123.004224473496
 20
-1150.58325136721
 10
1122.932911989568
 20
-1150.436719955663
 10
1122.795476094263
 20
-1150.238286265656
 10
1122.770128151421
 20
-1150.076427399085
 10
1122.777641671936
 20
-1150.124404859113
 10
1122.911115696874
 20
-1150.428758637197
 10
1122.785084512594
 20
-1150.111220827277
 10
1122.750650783073
 20
-1150.024464433436
 10
1122.715900266516
 20
-1149.937852228192
 10
1122.682518796456
 20
-1149.850681027005
 10
1122.406133623635
 20
-1149.128938471567
 10
1122.185540697397
 20
-1148.38616672293
 10
1122.016365195467
 20
-1147.632178743699
 10
1121.934173969941
 20
-1147.265865682195
 10
1121.864200361182
 20
-1146.896910818318
 10
1121.806050921344
 20
-1146.526024601048
 10
1121.79668096916
 20
-1146.466261581291
 10
1121.750516114825
 20
-1146.165929935563
 10
1121.786970815057
 20
-1146.412556906657
 10
1121.823385324398
 20
-1146.658911974326
 10
1121.781009607998
 20
-1146.358835947091
 10
1121.773984844256
 20
-1146.298540898955
 10
1121.749636833143
 20
-1146.08955671727
 10
1121.728768301075
 20
-1145.880162740113
 10
1121.711808042908
 20
-1145.670445904153
 10
1121.638049868013
 20
-1144.758411964981
 10
1121.630143905139
 20
-1143.841415588831
 10
1121.673556944391
 20
-1142.927646965365
 10
1121.693716525214
 20
-1142.503323012596
 10
1121.724893515392
 20
-1142.079527691116
 10
1121.766244653393
 20
-1141.656743639902
 10
1121.78832791426
 20
-1141.430959031657
 10
1121.81431703758
 20
-1141.205678860215
 10
1121.840598342818
 20
-1140.980355393682
 10
1121.882214771694
 20
-1140.623555838491
 10
1121.854253650472
 20
-1140.86701684284
 10
1121.843773695869
 20
-1140.942747027926
 10
1121.867133123811
 20
-1140.773947269858
 10
1121.892200536237
 20
-1140.605349924236
 10
1121.9183412585
 20
-1140.436959932938
 10
1122.058079911505
 20
-1139.536809190045
 10
1122.23539407924
 20
-1138.642627449714
 10
1122.437379462464
 20
-1137.754469549172
 10
1122.812663581175
 20
-1136.104292939058
 10
1123.261097179111
 20
-1134.468636831408
 10
1123.762148146237
 20
-1132.852300311093
 10
1124.207931673908
 20
-1131.414250605172
 10
1124.704907687426
 20
-1129.991457761482
 10
1125.269890158267
 20
-1128.595738777495
 10
1125.304651297149
 20
-1128.509865703643
 10
1125.3396681942
 20
-1128.424098911276
 10
1125.374950827746
 20
-1128.338438775973
 10
1125.396734688604
 20
-1128.28555132736
 10
1125.510897667342
 20
-1128.009535020829
 10
1125.419678405151
 20
-1128.228620903185
 10
1125.328493785109
 20
-1128.447623583753
 10
1125.443925545818
 20
-1128.172459643599
 10
1125.466550562713
 20
-1128.119889245854
 10
1125.50311716363
 20
-1128.034924856069
 10
1125.539953495357
 20
-1127.950079703803
 10
1125.577070163499
 20
-1127.865354156409
 10
1125.734571295025
 20
-1127.505829170678
 10
1125.897044710025
 20
-1127.14848842852
 10
1126.064816243466
 20
-1126.793637945899
 10
1126.379166792972
 20
-1126.128760884121
 10
1126.712404299669
 20
-1125.472698436519
 10
1127.066491279019
 20
-1124.828084078494
 10
1127.785226416169
 20
-1123.519628766534
 10
1128.581793758179
 20
-1122.223966630447
 10
1129.512699989311
 20
-1121.054056788941
 10
1129.251363790554
 20
-1121.382489213865
 10
1129.585669614473
 20
-1120.96643100398
 10
1129.656175264744
 20
-1120.87945243096
 10
1129.769740197848
 20
-1120.739354214878
 10
1129.884838713508
 20
-1120.600492865126
 10
1130.001403913147
 20
-1120.462880983297
 10
1130.248869994423
 20
-1120.170733127515
 10
1130.503396868455
 20
-1119.884557168336
 10
1130.764733559166
 20
-1119.604750929667
 10
1131.272423696699
 20
-1119.061180612749
 10
1131.806359506506
 20
-1118.542180118903
 10
1132.366003786562
 20
-1118.052214549738
 10
1132.621710634415
 20
-1117.828344574268
 10
1132.887099051491
 20
-1117.617265002077
 10
1133.148469539617
 20
-1117.400312838534
 10
1133.343313627703
 20
-1117.238581318011
 10
1132.911004876519
 20
-1117.576930439143
 10
1133.114302900881
 20
-1117.425333438085
 10
1133.187270780087
 20
-1117.370922128894
 10
1133.25953303122
 20
-1117.315564219401
 10
1133.332698698082
 20
-1117.261406473671
 10
1133.497839169748
 20
-1117.139168324853
 10
1133.665048140759
 20
-1117.019976300497
 10
1133.83341867122
 20
-1116.902234355043
 10
1134.587898299333
 20
-1116.374624808555
 10
1135.011401287237
 20
-1115.334523201863
 10
1134.466216521181
 20
-1114.488899510938
 10
1133.982942140139
 20
-1113.739303610117
 10
1132.861555329128
 20
-1113.290594094016
 10
1132.052881677076
 20
-1113.856101660978
 10
1132.052881677076
 20
-1113.856101660978
 10
1132.052881677076
 20
-1113.856101660978
 10
1132.052881677076
 20
-1113.856101660978
 97
        0
 97
        1
330
95
 75
     2
 76
     1
 98
        1
 10
0.0
 20
0.0
450
        0
451
        0
460
0.0
461
0.0
452
        0
462
0.0
453
        0
470

  0
ENDSEC
  0
SECTION
  2
OBJECTS
  0
DICTIONARY
  5
C
330
0
100
AcDbDictionary
281
     1
  3
ACAD_COLOR
350
63
  3
ACAD_DETAILVIEWSTYLE
350
6A
  3
ACAD_GROUP
350
D
  3
ACAD_LAYOUT
350
62
  3
ACAD_MATERIAL
350
10
  3
ACAD_MLEADERSTYLE
350
66
  3
ACAD_MLINESTYLE
350
5F
  3
ACAD_PLOTSETTINGS
350
61
  3
ACAD_PLOTSTYLENAME
350
E
  3
ACAD_SCALELIST
350
42
  3
ACAD_SECTIONVIEWSTYLE
350
68
  3
ACAD_TABLESTYLE
350
64
  3
ACAD_VISUALSTYLE
350
29
  3
ACDB_RECOMPOSE_DATA
350
A0
  3
AcDbVariableDictionary
350
98
  0
DICTIONARY
  5
63
102
{ACAD_REACTORS
330
C
102
}
330
C
100
AcDbDictionary
281
     1
  0
DICTIONARY
  5
6A
102
{ACAD_REACTORS
330
C
102
}
330
C
100
AcDbDictionary
281
     1
  3
Imperial24
350
6B
  0
DICTIONARY
  5
D
102
{ACAD_REACTORS
330
C
102
}
330
C
100
AcDbDictionary
281
     1
  0
DICTIONARY
  5
62
102
{ACAD_REACTORS
330
C
102
}
330
C
100
AcDbDictionary
281
     1
  3
Layout1
350
6F
  3
Layout2
350
77
  3
Model
350
73
  0
DICTIONARY
  5
10
102
{ACAD_REACTORS
330
C
102
}
330
C
100
AcDbDictionary
281
     1
  3
ByBlock
350
19
  3
ByLayer
350
11
  3
Global
350
21
  0
DICTIONARY
  5
66
102
{ACAD_REACTORS
330
C
102
}
330
C
100
AcDbDictionary
281
     1
  3
Standard
350
67
  0
DICTIONARY
  5
5F
102
{ACAD_REACTORS
330
C
102
}
330
C
100
AcDbDictionary
281
     1
  3
Standard
350
60
  0
DICTIONARY
  5
61
102
{ACAD_REACTORS
330
C
102
}
330
C
100
AcDbDictionary
281
     1
  0
ACDBDICTIONARYWDFLT
  5
E
102
{ACAD_REACTORS
330
C
102
}
330
C
100
AcDbDictionary
281
     1
  3
Normal
350
F
100
AcDbDictionaryWithDefault
340
F
  0
DICTIONARY
  5
42
102
{ACAD_REACTORS
330
C
102
}
330
C
100
AcDbDictionary
281
     1
  3
A0
350
43
  3
A1
350
44
  3
A2
350
45
  3
A3
350
46
  3
A4
350
47
  3
A5
350
48
  3
A6
350
49
  3
A7
350
4A
  3
A8
350
4B
  3
A9
350
4C
  3
B0
350
4D
  3
B1
350
4E
  3
B2
350
4F
  3
B3
350
50
  3
B4
350
51
  3
B5
350
52
  3
B6
350
53
  0
DICTIONARY
  5
68
102
{ACAD_REACTORS
330
C
102
}
330
C
100
AcDbDictionary
281
     1
  3
Imperial24
350
69
  0
DICTIONARY
  5
64
102
{ACAD_REACTORS
330
C
102
}
330
C
100
AcDbDictionary
281
     1
  3
Standard
350
65
  0
DICTIONARY
  5
29
102
{ACAD_REACTORS
330
C
102
}
330
C
100
AcDbDictionary
281
     1
  3
2dWireframe
350
2F
  3
Basic
350
2E
  3
Brighten
350
35
  3
ColorChange
350
39
  3
Conceptual
350
32
  3
Dim
350
34
  3
EdgeColorOff
350
41
  3
Facepattern
350
38
  3
Flat
350
2A
  3
FlatWithEdges
350
2B
  3
Gouraud
350
2C
  3
GouraudWithEdges
350
2D
  3
Hidden
350
31
  3
JitterOff
350
3F
  3
Linepattern
350
37
  3
OverhangOff
350
40
  3
Realistic
350
33
  3
Shaded
350
3E
  3
Shaded with edges
350
3D
  3
Shades of Gray
350
3A
  3
Sketchy
350
3B
  3
Thicken
350
36
  3
Wireframe
350
30
  3
X-Ray
350
3C
  0
XRECORD
  5
A0
102
{ACAD_REACTORS
330
C
102
}
330
C
100
AcDbXrecord
280
     1
 90
        1
330
65
  0
DICTIONARY
  5
98
102
{ACAD_REACTORS
330
C
102
}
330
C
100
AcDbDictionary
281
     1
  3
CANNOSCALE
350
9D
  3
CMLEADERSTYLE
350
9A
  3
CTABLESTYLE
350
99
  3
CVIEWDETAILSTYLE
350
9B
  3
CVIEWSECTIONSTYLE
350
9C
  0
ACDBDETAILVIEWSTYLE
  5
6B
102
{ACAD_REACTORS
330
6A
102
}
330
6A
100
AcDbModelDocViewStyle
 70
     0
  3
Imperial24
290
     1
300
Imperial24
 90
        0
100
AcDbDetailViewStyle
 70
     0
 71
     0
 90
        3
 71
     1
340
55
 62
   256
 40
0.24
340
0
 62
   256
 40
0.24
300

 40
0.36
280
     3
 71
     2
340
5D
 90
       25
 62
   256
 71
     3
340
55
 62
   256
 40
0.24
 90
        1
 40
0.75
 90
        1
300
%<\AcVar ViewType \f "%tc1">% %<\AcVar ViewDetailId>%\PSCALE %<\AcVar ViewScale \f "%sn">%
 71
     4
340
5D
 90
       25
 62
   256
340
5D
 90
       25
 62
   256
280
     0
  0
LAYOUT
  5
6F
102
{ACAD_REACTORS
330
62
102
}
330
62
100
AcDbPlotSettings
  1

  2

  4

  6

 40
0.0
 41
0.0
 42
0.0
 43
0.0
 44
0.0
 45
0.0
 46
0.0
 47
0.0
 48
0.0
 49
0.0
140
0.0
141
0.0
142
1.0
143
1.0
 70
   688
 72
     0
 73
     0
 74
     5
  7

 75
    16
147
1.0
 76
     0
 77
     2
 78
   300
148
0.0
149
0.0
100
AcDbLayout
  1
Layout1
 70
     1
 71
     1
 10
0.0
 20
0.0
 11
12.0
 21
9.0
 12
0.0
 22
0.0
 32
0.0
 14
0.0
 24
0.0
 34
0.0
 15
0.0
 25
0.0
 35
0.0
146
0.0
 13
0.0
 23
0.0
 33
0.0
 16
1.0
 26
0.0
 36
0.0
 17
0.0
 27
1.0
 37
0.0
 76
     0
330
6C
  0
LAYOUT
  5
77
102
{ACAD_REACTORS
330
62
102
}
330
62
100
AcDbPlotSettings
  1

  2

  4

  6

 40
0.0
 41
0.0
 42
0.0
 43
0.0
 44
0.0
 45
0.0
 46
0.0
 47
0.0
 48
0.0
 49
0.0
140
0.0
141
0.0
142
1.0
143
1.0
 70
   688
 72
     0
 73
     0
 74
     5
  7

 75
    16
147
1.0
 76
     0
 77
     2
 78
   300
148
0.0
149
0.0
100
AcDbLayout
  1
Layout2
 70
     1
 71
     2
 10
0.0
 20
0.0
 11
12.0
 21
9.0
 12
0.0
 22
0.0
 32
0.0
 14
0.0
 24
0.0
 34
0.0
 15
0.0
 25
0.0
 35
0.0
146
0.0
 13
0.0
 23
0.0
 33
0.0
 16
1.0
 26
0.0
 36
0.0
 17
0.0
 27
1.0
 37
0.0
 76
     0
330
74
  0
LAYOUT
  5
73
102
{ACAD_REACTORS
330
62
102
}
330
62
100
AcDbPlotSettings
  1

  2

  4

  6

 40
0.0
 41
0.0
 42
0.0
 43
0.0
 44
0.0
 45
0.0
 46
0.0
 47
0.0
 48
0.0
 49
0.0
140
0.0
141
0.0
142
1.0
143
1.0
 70
  1712
 72
     0
 73
     0
 74
     0
  7

 75
     0
147
1.0
 76
     0
 77
     2
 78
   300
148
0.0
149
0.0
100
AcDbLayout
  1
Model
 70
     1
 71
     0
 10
0.0
 20
0.0
 11
12.0
 21
9.0
 12
0.0
 22
0.0
 32
0.0
 14
0.0
 24
0.0
 34
0.0
 15
0.0
 25
0.0
 35
0.0
146
0.0
 13
0.0
 23
0.0
 33
0.0
 16
1.0
 26
0.0
 36
0.0
 17
0.0
 27
1.0
 37
0.0
 76
     0
330
70
  0
MATERIAL
  5
19
102
{ACAD_XDICTIONARY
360
1A
102
}
102
{ACAD_REACTORS
330
10
102
}
330
10
100
AcDbMaterial
  1
ByBlock
 72
     0
 43
0.0208333333333333
 43
0.0
 43
0.0
 43
0.0
 43
0.0
 43
0.0208333333333333
 43
0.0
 43
0.0
 43
0.0
 43
0.0
 43
1.0
 43
0.0
 43
0.0
 43
0.0
 43
0.0
 43
1.0
 77
     0
 47
0.0208333333333333
 47
0.0
 47
0.0
 47
0.0
 47
0.0
 47
0.0208333333333333
 47
0.0
 47
0.0
 47
0.0
 47
0.0
 47
1.0
 47
0.0
 47
0.0
 47
0.0
 47
0.0
 47
1.0
171
     0
 49
0.0208333333333333
 49
0.0
 49
0.0
 49
0.0
 49
0.0
 49
0.0208333333333333
 49
0.0
 49
0.0
 49
0.0
 49
0.0
 49
1.0
 49
0.0
 49
0.0
 49
0.0
 49
0.0
 49
1.0
175
     0
142
0.0208333333333333
142
0.0
142
0.0
142
0.0
142
0.0
142
0.0208333333333333
142
0.0
142
0.0
142
0.0
142
0.0
142
1.0
142
0.0
142
0.0
142
0.0
142
0.0
142
1.0
179
     0
144
0.0208333333333333
144
0.0
144
0.0
144
0.0
144
0.0
144
0.0208333333333333
144
0.0
144
0.0
144
0.0
144
0.0
144
1.0
144
0.0
144
0.0
144
0.0
144
0.0
144
1.0
147
0.0208333333333333
147
0.0
147
0.0
147
0.0
147
0.0
147
0.0208333333333333
147
0.0
147
0.0
147
0.0
147
0.0
147
1.0
147
0.0
147
0.0
147
0.0
147
0.0
147
1.0
  0
MATERIAL
  5
11
102
{ACAD_XDICTIONARY
360
12
102
}
102
{ACAD_REACTORS
330
10
102
}
330
10
100
AcDbMaterial
  1
ByLayer
 72
     0
 43
0.0208333333333333
 43
0.0
 43
0.0
 43
0.0
 43
0.0
 43
0.0208333333333333
 43
0.0
 43
0.0
 43
0.0
 43
0.0
 43
1.0
 43
0.0
 43
0.0
 43
0.0
 43
0.0
 43
1.0
 77
     0
 47
0.0208333333333333
 47
0.0
 47
0.0
 47
0.0
 47
0.0
 47
0.0208333333333333
 47
0.0
 47
0.0
 47
0.0
 47
0.0
 47
1.0
 47
0.0
 47
0.0
 47
0.0
 47
0.0
 47
1.0
171
     0
 49
0.0208333333333333
 49
0.0
 49
0.0
 49
0.0
 49
0.0
 49
0.0208333333333333
 49
0.0
 49
0.0
 49
0.0
 49
0.0
 49
1.0
 49
0.0
 49
0.0
 49
0.0
 49
0.0
 49
1.0
175
     0
142
0.0208333333333333
142
0.0
142
0.0
142
0.0
142
0.0
142
0.0208333333333333
142
0.0
142
0.0
142
0.0
142
0.0
142
1.0
142
0.0
142
0.0
142
0.0
142
0.0
142
1.0
179
     0
144
0.0208333333333333
144
0.0
144
0.0
144
0.0
144
0.0
144
0.0208333333333333
144
0.0
144
0.0
144
0.0
144
0.0
144
1.0
144
0.0
144
0.0
144
0.0
144
0.0
144
1.0
147
0.0208333333333333
147
0.0
147
0.0
147
0.0
147
0.0
147
0.0208333333333333
147
0.0
147
0.0
147
0.0
147
0.0
147
1.0
147
0.0
147
0.0
147
0.0
147
0.0
147
1.0
  0
MATERIAL
  5
21
102
{ACAD_XDICTIONARY
360
22
102
}
102
{ACAD_REACTORS
330
10
102
}
330
10
100
AcDbMaterial
  1
Global
 72
     0
 43
0.0208333333333333
 43
0.0
 43
0.0
 43
0.0
 43
0.0
 43
0.0208333333333333
 43
0.0
 43
0.0
 43
0.0
 43
0.0
 43
1.0
 43
0.0
 43
0.0
 43
0.0
 43
0.0
 43
1.0
 77
     0
 47
0.0208333333333333
 47
0.0
 47
0.0
 47
0.0
 47
0.0
 47
0.0208333333333333
 47
0.0
 47
0.0
 47
0.0
 47
0.0
 47
1.0
 47
0.0
 47
0.0
 47
0.0
 47
0.0
 47
1.0
171
     0
 49
0.0208333333333333
 49
0.0
 49
0.0
 49
0.0
 49
0.0
 49
0.0208333333333333
 49
0.0
 49
0.0
 49
0.0
 49
0.0
 49
1.0
 49
0.0
 49
0.0
 49
0.0
 49
0.0
 49
1.0
175
     0
142
0.0208333333333333
142
0.0
142
0.0
142
0.0
142
0.0
142
0.0208333333333333
142
0.0
142
0.0
142
0.0
142
0.0
142
1.0
142
0.0
142
0.0
142
0.0
142
0.0
142
1.0
179
     0
144
0.0208333333333333
144
0.0
144
0.0
144
0.0
144
0.0
144
0.0208333333333333
144
0.0
144
0.0
144
0.0
144
0.0
144
1.0
144
0.0
144
0.0
144
0.0
144
0.0
144
1.0
147
0.0208333333333333
147
0.0
147
0.0
147
0.0
147
0.0
147
0.0208333333333333
147
0.0
147
0.0
147
0.0
147
0.0
147
1.0
147
0.0
147
0.0
147
0.0
147
0.0
147
1.0
  0
MLEADERSTYLE
  5
67
102
{ACAD_REACTORS
330
66
102
}
330
66
100
AcDbMLeaderStyle
179
     2
170
     2
171
     1
172
     0
 90
        2
 40
0.0
 41
0.0
173
     1
 91
-1056964608
340
5B
 92
       -2
290
     1
 42
0.09
291
     1
 43
0.36
  3
Standard
 44
0.18
300

342
55
174
     1
178
     6
175
     1
176
     0
 93
-1056964608
 45
0.18
292
     0
297
     0
 46
0.18
 94
-1056964608
 47
1.0
 49
1.0
140
1.0
293
     1
141
0.0
294
     1
177
     0
142
1.0
295
     1
296
     0
143
0.125
271
     0
272
     9
273
     9
298
     1
  0
MLINESTYLE
  5
60
102
{ACAD_REACTORS
330
5F
102
}
330
5F
100
AcDbMlineStyle
  2
STANDARD
 70
     0
  3

 62
   256
 51
90.0
 52
90.0
 71
     2
 49
0.5
 62
   256
  6
BYLAYER
 49
-0.5
 62
   256
  6
BYLAYER
  0
ACDBPLACEHOLDER
  5
F
102
{ACAD_REACTORS
330
E
102
}
330
E
  0
SCALE
  5
43
102
{ACAD_REACTORS
330
42
102
}
330
42
100
AcDbScale
 70
     0
300
1:1
140
1.0
141
1.0
290
     1
  0
SCALE
  5
44
102
{ACAD_REACTORS
330
42
102
}
330
42
100
AcDbScale
 70
     0
300
1/128" = 1'-0"
140
0.0078125
141
12.0
290
     0
  0
SCALE
  5
45
102
{ACAD_REACTORS
330
42
102
}
330
42
100
AcDbScale
 70
     0
300
1/64" = 1'-0"
140
0.015625
141
12.0
290
     0
  0
SCALE
  5
46
102
{ACAD_REACTORS
330
42
102
}
330
42
100
AcDbScale
 70
     0
300
1/32" = 1'-0"
140
0.03125
141
12.0
290
     0
  0
SCALE
  5
47
102
{ACAD_REACTORS
330
42
102
}
330
42
100
AcDbScale
 70
     0
300
1/16" = 1'-0"
140
0.0625
141
12.0
290
     0
  0
SCALE
  5
48
102
{ACAD_REACTORS
330
42
102
}
330
42
100
AcDbScale
 70
     0
300
3/32" = 1'-0"
140
0.09375
141
12.0
290
     0
  0
SCALE
  5
49
102
{ACAD_REACTORS
330
42
102
}
330
42
100
AcDbScale
 70
     0
300
1/8" = 1'-0"
140
0.125
141
12.0
290
     0
  0
SCALE
  5
4A
102
{ACAD_REACTORS
330
42
102
}
330
42
100
AcDbScale
 70
     0
300
3/16" = 1'-0"
140
0.1875
141
12.0
290
     0
  0
SCALE
  5
4B
102
{ACAD_REACTORS
330
42
102
}
330
42
100
AcDbScale
 70
     0
300
1/4" = 1'-0"
140
0.25
141
12.0
290
     0
  0
SCALE
  5
4C
102
{ACAD_REACTORS
330
42
102
}
330
42
100
AcDbScale
 70
     0
300
3/8" = 1'-0"
140
0.375
141
12.0
290
     0
  0
SCALE
  5
4D
102
{ACAD_REACTORS
330
42
102
}
330
42
100
AcDbScale
 70
     0
300
1/2" = 1'-0"
140
0.5
141
12.0
290
     0
  0
SCALE
  5
4E
102
{ACAD_REACTORS
330
42
102
}
330
42
100
AcDbScale
 70
     0
300
3/4" = 1'-0"
140
0.75
141
12.0
290
     0
  0
SCALE
  5
4F
102
{ACAD_REACTORS
330
42
102
}
330
42
100
AcDbScale
 70
     0
300
1" = 1'-0"
140
1.0
141
12.0
290
     0
  0
SCALE
  5
50
102
{ACAD_REACTORS
330
42
102
}
330
42
100
AcDbScale
 70
     0
300
1-1/2" = 1'-0"
140
1.5
141
12.0
290
     0
  0
SCALE
  5
51
102
{ACAD_REACTORS
330
42
102
}
330
42
100
AcDbScale
 70
     0
300
3" = 1'-0"
140
3.0
141
12.0
290
     0
  0
SCALE
  5
52
102
{ACAD_REACTORS
330
42
102
}
330
42
100
AcDbScale
 70
     0
300
6" = 1'-0"
140
6.0
141
12.0
290
     0
  0
SCALE
  5
53
102
{ACAD_REACTORS
330
42
102
}
330
42
100
AcDbScale
 70
     0
300
1'-0" = 1'-0"
140
12.0
141
12.0
290
     0
  0
ACDBSECTIONVIEWSTYLE
  5
69
102
{ACAD_REACTORS
330
68
102
}
330
68
100
AcDbModelDocViewStyle
 70
     0
  3
Imperial24
290
     1
300
Imperial24
 90
        0
100
AcDbSectionViewStyle
 70
     0
 71
     0
 90
       78
 71
     1
340
55
 62
   256
 40
0.24
340
0
340
0
 62
   256
 40
0.24
300
I, O, Q, S, X, Z
 40
0.48
 90
        3
 40
0.18
 90
        1
 71
     2
340
5D
 90
       25
 62
   256
340
5D
 90
       50
 62
   256
 40
0.24
 40
0.0
 40
0.24
 71
     3
340
55
 62
   256
 40
0.24
 90
        1
 40
0.75
 90
        1
300
%<\AcVar ViewType \f "%tc1">% %<\AcVar ViewSectionStartId>%-%<\AcVar ViewSectionEndId>%\PSCALE %<\AcVar ViewScale \f "%sn">%
 71
     4
 62
   256
 62
   257
300
ANSI31
 40
1.0
 90
        0
290
     0
290
     0
 90
        6
 40
0.0
 40
1.570796326794896
 40
0.2617993877991494
 40
1.308996938995747
 40
-0.2617993877991494
 40
1.832595714594046
  0
TABLESTYLE
  5
65
102
{ACAD_XDICTIONARY
360
9E
102
}
102
{ACAD_REACTORS
330
64
102
}
330
64
100
AcDbTableStyle
280
     0
  3
Standard
 70
     0
 71
     0
 40
0.06
 41
0.06
280
     0
281
     0
  7
Standard
140
0.18
170
     2
 62
     0
 63
     7
283
     0
 90
      512
 91
        0
  1

274
    -2
284
     1
 64
     0
275
    -2
285
     1
 65
     0
276
    -2
286
     1
 66
     0
277
    -2
287
     1
 67
     0
278
    -2
288
     1
 68
     0
279
    -2
289
     1
 69
     0
  7
Standard
140
0.25
170
     5
 62
     0
 63
     7
283
     0
 90
      512
 91
        0
  1

274
    -2
284
     1
 64
     0
275
    -2
285
     1
 65
     0
276
    -2
286
     1
 66
     0
277
    -2
287
     1
 67
     0
278
    -2
288
     1
 68
     0
279
    -2
289
     1
 69
     0
  7
Standard
140
0.18
170
     5
 62
     0
 63
     7
283
     0
 90
      512
 91
        0
  1

274
    -2
284
     1
 64
     0
275
    -2
285
     1
 65
     0
276
    -2
286
     1
 66
     0
277
    -2
287
     1
 67
     0
278
    -2
288
     1
 68
     0
279
    -2
289
     1
 69
     0
  0
VISUALSTYLE
  5
2F
102
{ACAD_REACTORS
330
29
102
}
330
29
100
AcDbVisualStyle
  2
2dWireframe
 70
     4
177
     3
291
     0
 70
    58
 90
        0
176
     1
 90
        2
176
     1
 90
        0
176
     1
 90
        0
176
     1
 40
0.6
176
     1
 40
30.0
176
     1
 62
     7
420
 16777215
176
     1
 90
        1
176
     1
 90
        4
176
     1
 62
     7
176
     1
 62
   257
176
     1
 90
        1
176
     1
 90
        1
176
     1
 40
1.0
176
     1
 90
        0
176
     1
 62
   257
176
     1
 40
1.0
176
     1
 90
        1
176
     1
 90
        6
176
     1
 90
        2
176
     1
 62
     7
176
     1
 90
        5
176
     1
 90
        0
176
     1
 90
        0
176
     1
290
     0
176
     1
 90
        1
176
     1
 40
0.0
176
     1
 90
        0
176
     1
290
     1
176
     1
290
     1
176
     1
290
     0
176
     1
290
     0
176
     1
290
     0
176
     1
290
     0
176
     1
290
     0
176
     1
290
     0
176
     1
290
     0
176
     1
 90
       50
176
     1
 40
0.0
176
     1
 40
1.0
176
     1
 90
        0
176
     1
 62
    18
420
        0
176
     1
 90
       50
176
     1
 90
        3
176
     1
 62
     5
420
      255
176
     1
290
     0
176
     1
 90
       50
176
     1
 90
       50
176
     1
 90
       50
176
     1
290
     0
176
     1
 90
       50
176
     1
 62
   256
176
     0
 40
1.0
176
     0
 90
        2
176
     1
  1
strokes_ogs.tif
176
     1
290
     0
176
     1
 40
1.0
176
     1
 40
1.0
176
     1
  0
VISUALSTYLE
  5
2E
102
{ACAD_REACTORS
330
29
102
}
330
29
100
AcDbVisualStyle
  2
Basic
 70
     7
177
     3
291
     1
 70
    58
 90
        1
176
     1
 90
        0
176
     1
 90
        1
176
     1
 90
        0
176
     1
 40
0.6
176
     1
 40
30.0
176
     1
 62
     7
420
 16777215
176
     1
 90
        0
176
     1
 90
        4
176
     1
 62
     7
176
     1
 62
   257
176
     1
 90
        1
176
     1
 90
        1
176
     1
 40
1.0
176
     1
 90
        8
176
     1
 62
     7
176
     1
 40
1.0
176
     1
 90
        1
176
     1
 90
        6
176
     1
 90
        2
176
     1
 62
     7
176
     1
 90
        5
176
     1
 90
        0
176
     1
 90
        0
176
     1
290
     0
176
     1
 90
        1
176
     1
 40
0.0
176
     1
 90
        0
176
     1
290
     0
176
     1
290
     1
176
     1
290
     1
176
     1
290
     0
176
     1
290
     0
176
     1
290
     0
176
     1
290
     0
176
     1
290
     0
176
     1
290
     0
176
     1
 90
       50
176
     1
 40
0.0
176
     1
 40
1.0
176
     1
 90
        0
176
     1
 62
    18
420
        0
176
     1
 90
       50
176
     1
 90
        3
176
     1
 62
     5
420
      255
176
     1
290
     0
176
     1
 90
       50
176
     1
 90
       50
176
     1
 90
       50
176
     1
290
     0
176
     1
 90
       50
176
     1
 62
   256
176
     0
 40
1.0
176
     0
 90
        2
176
     1
  1
strokes_ogs.tif
176
     1
290
     0
176
     1
 40
1.0
176
     1
 40
1.0
176
     1
  0
VISUALSTYLE
  5
35
102
{ACAD_REACTORS
330
29
102
}
330
29
100
AcDbVisualStyle
  2
Brighten
 70
    12
177
     3
291
     1
 70
    58
 90
        2
176
     1
 90
        2
176
     1
 90
        0
176
     1
 90
        0
176
     1
 40
0.6
176
     1
 40
30.0
176
     1
 62
     7
420
 16777215
176
     1
 90
        1
176
     1
 90
        4
176
     1
 62
     7
176
     1
 62
   257
176
     1
 90
        1
176
     1
 90
        1
176
     1
 40
1.0
176
     1
 90
        8
176
     1
 62
     7
176
     1
 40
1.0
176
     1
 90
        1
176
     1
 90
        6
176
     1
 90
        2
176
     1
 62
     7
176
     1
 90
        5
176
     1
 90
        0
176
     1
 90
        0
176
     1
290
     0
176
     1
 90
        1
176
     1
 40
50.0
176
     1
 90
        0
176
     1
290
     0
176
     1
290
     1
176
     1
290
     1
176
     1
290
     0
176
     1
290
     0
176
     1
290
     0
176
     1
290
     0
176
     1
290
     0
176
     1
290
     0
176
     1
 90
       50
176
     1
 40
0.0
176
     1
 40
1.0
176
     1
 90
        0
176
     1
 62
    18
420
        0
176
     1
 90
       50
176
     1
 90
        3
176
     1
 62
     5
420
      255
176
     1
290
     0
176
     1
 90
       50
176
     1
 90
       50
176
     1
 90
       50
176
     1
290
     0
176
     1
 90
       50
176
     1
 62
   256
176
     0
 40
1.0
176
     0
 90
        2
176
     1
  1
strokes_ogs.tif
176
     1
290
     0
176
     1
 40
1.0
176
     1
 40
1.0
176
     1
  0
VISUALSTYLE
  5
39
102
{ACAD_REACTORS
330
29
102
}
330
29
100
AcDbVisualStyle
  2
ColorChange
 70
    16
177
     3
291
     1
 70
    58
 90
        2
176
     1
 90
        2
176
     1
 90
        3
176
     1
 90
        0
176
     1
 40
0.6
176
     1
 40
30.0
176
     1
 62
     8
420
  8421504
176
     1
 90
        1
176
     1
 90
        4
176
     1
 62
     7
176
     1
 62
   257
176
     1
 90
        1
176
     1
 90
        1
176
     1
 40
1.0
176
     1
 90
        8
176
     1
 62
     8
420
  8421504
176
     1
 40
1.0
176
     1
 90
        1
176
     1
 90
        6
176
     1
 90
        2
176
     1
 62
     7
176
     1
 90
        5
176
     1
 90
        0
176
     1
 90
        0
176
     1
290
     0
176
     1
 90
        1
176
     1
 40
0.0
176
     1
 90
        0
176
     1
290
     0
176
     1
290
     1
176
     1
290
     1
176
     1
290
     0
176
     1
290
     0
176
     1
290
     0
176
     1
290
     0
176
     1
290
     0
176
     1
290
     0
176
     1
 90
       50
176
     1
 40
0.0
176
     1
 40
1.0
176
     1
 90
        0
176
     1
 62
    18
420
        0
176
     1
 90
       50
176
     1
 90
        3
176
     1
 62
     5
420
      255
176
     1
290
     0
176
     1
 90
       50
176
     1
 90
       50
176
     1
 90
       50
176
     1
290
     0
176
     1
 90
       50
176
     1
 62
   256
176
     0
 40
1.0
176
     0
 90
        2
176
     1
  1
strokes_ogs.tif
176
     1
290
     0
176
     1
 40
1.0
176
     1
 40
1.0
176
     1
  0
VISUALSTYLE
  5
32
102
{ACAD_REACTORS
330
29
102
}
330
29
100
AcDbVisualStyle
  2
Conceptual
 70
     9
177
     3
291
     0
 70
    58
 90
        3
176
     1
 90
        2
176
     1
 90
        0
176
     1
 90
        0
176
     1
 40
0.6
176
     1
 40
30.0
176
     1
 62
     7
420
 16777215
176
     1
 90
        2
176
     1
 90
        2
176
     1
 62
     7
176
     1
 62
   257
176
     1
 90
        1
176
     1
 90
        1
176
     1
 40
179.0
176
     1
 90
        8
176
     1
 62
     7
176
     1
 40
1.0
176
     1
 90
        1
176
     1
 90
        6
176
     1
 90
        2
176
     1
 62
     7
176
     1
 90
        3
176
     1
 90
        0
176
     1
 90
        0
176
     1
290
     0
176
     1
 90
        1
176
     1
 40
0.0
176
     1
 90
        0
176
     1
290
     0
176
     1
290
     1
176
     1
290
     1
176
     1
290
     0
176
     1
290
     0
176
     1
290
     0
176
     1
290
     0
176
     1
290
     0
176
     1
290
     0
176
     1
 90
       50
176
     1
 40
0.0
176
     1
 40
1.0
176
     1
 90
        0
176
     1
 62
    18
420
        0
176
     1
 90
       50
176
     1
 90
        3
176
     1
 62
     5
420
      255
176
     1
290
     0
176
     1
 90
       50
176
     1
 90
       50
176
     1
 90
       50
176
     1
290
     0
176
     1
 90
       50
176
     1
 62
   256
176
     0
 40
1.0
176
     0
 90
        2
176
     1
  1
strokes_ogs.tif
176
     1
290
     0
176
     1
 40
1.0
176
     1
 40
1.0
176
     1
  0
VISUALSTYLE
  5
34
102
{ACAD_REACTORS
330
29
102
}
330
29
100
AcDbVisualStyle
  2
Dim
 70
    11
177
     3
291
     1
 70
    58
 90
        2
176
     1
 90
        2
176
     1
 90
        0
176
     1
 90
        0
176
     1
 40
0.6
176
     1
 40
30.0
176
     1
 62
     7
420
 16777215
176
     1
 90
        1
176
     1
 90
        4
176
     1
 62
     7
176
     1
 62
   257
176
     1
 90
        1
176
     1
 90
        1
176
     1
 40
1.0
176
     1
 90
        8
176
     1
 62
     7
176
     1
 40
1.0
176
     1
 90
        1
176
     1
 90
        6
176
     1
 90
        2
176
     1
 62
     7
176
     1
 90
        5
176
     1
 90
        0
176
     1
 90
        0
176
     1
290
     0
176
     1
 90
        1
176
     1
 40
-50.0
176
     1
 90
        0
176
     1
290
     0
176
     1
290
     1
176
     1
290
     1
176
     1
290
     0
176
     1
290
     0
176
     1
290
     0
176
     1
290
     0
176
     1
290
     0
176
     1
290
     0
176
     1
 90
       50
176
     1
 40
0.0
176
     1
 40
1.0
176
     1
 90
        0
176
     1
 62
    18
420
        0
176
     1
 90
       50
176
     1
 90
        3
176
     1
 62
     5
420
      255
176
     1
290
     0
176
     1
 90
       50
176
     1
 90
       50
176
     1
 90
       50
176
     1
290
     0
176
     1
 90
       50
176
     1
 62
   256
176
     0
 40
1.0
176
     0
 90
        2
176
     1
  1
strokes_ogs.tif
176
     1
290
     0
176
     1
 40
1.0
176
     1
 40
1.0
176
     1
  0
VISUALSTYLE
  5
41
102
{ACAD_REACTORS
330
29
102
}
330
29
100
AcDbVisualStyle
  2
EdgeColorOff
 70
    22
177
     3
291
     1
 70
    58
 90
        2
176
     0
 90
        2
176
     0
 90
        0
176
     0
 90
        0
176
     0
 40
0.6
176
     0
 40
30.0
176
     0
 62
     7
420
 16777215
176
     0
 90
        1
176
     0
 90
        4
176
     0
 62
     7
176
     0
 62
   257
176
     0
 90
        1
176
     0
 90
        1
176
     0
 40
1.0
176
     0
 90
        8
176
     2
 62
     7
176
     0
 40
1.0
176
     0
 90
        1
176
     0
 90
        6
176
     0
 90
        2
176
     0
 62
     7
176
     0
 90
        5
176
     0
 90
        0
176
     0
 90
        0
176
     0
290
     0
176
     0
 90
        1
176
     0
 40
0.0
176
     0
 90
        0
176
     0
290
     0
176
     0
290
     1
176
     0
290
     1
176
     0
290
     0
176
     0
290
     0
176
     0
290
     0
176
     0
290
     0
176
     0
290
     0
176
     0
290
     0
176
     0
 90
       50
176
     0
 40
0.0
176
     0
 40
1.0
176
     0
 90
        0
176
     0
 62
    18
420
        0
176
     0
 90
       50
176
     0
 90
        3
176
     0
 62
     5
420
      255
176
     0
290
     0
176
     0
 90
       50
176
     0
 90
       50
176
     0
 90
       50
176
     0
290
     0
176
     0
 90
       50
176
     0
 62
   256
176
     0
 40
1.0
176
     0
 90
        2
176
     0
  1
strokes_ogs.tif
176
     0
290
     0
176
     0
 40
1.0
176
     0
 40
1.0
176
     0
  0
VISUALSTYLE
  5
38
102
{ACAD_REACTORS
330
29
102
}
330
29
100
AcDbVisualStyle
  2
Facepattern
 70
    15
177
     3
291
     1
 70
    58
 90
        2
176
     1
 90
        2
176
     1
 90
        0
176
     1
 90
        0
176
     1
 40
0.6
176
     1
 40
30.0
176
     1
 62
     7
420
 16777215
176
     1
 90
        1
176
     1
 90
        4
176
     1
 62
     7
176
     1
 62
   257
176
     1
 90
        1
176
     1
 90
        1
176
     1
 40
1.0
176
     1
 90
        8
176
     1
 62
     7
176
     1
 40
1.0
176
     1
 90
        1
176
     1
 90
        6
176
     1
 90
        2
176
     1
 62
     7
176
     1
 90
        5
176
     1
 90
        0
176
     1
 90
        0
176
     1
290
     0
176
     1
 90
        1
176
     1
 40
0.0
176
     1
 90
        0
176
     1
290
     0
176
     1
290
     1
176
     1
290
     1
176
     1
290
     0
176
     1
290
     0
176
     1
290
     0
176
     1
290
     0
176
     1
290
     0
176
     1
290
     0
176
     1
 90
       50
176
     1
 40
0.0
176
     1
 40
1.0
176
     1
 90
        0
176
     1
 62
    18
420
        0
176
     1
 90
       50
176
     1
 90
        3
176
     1
 62
     5
420
      255
176
     1
290
     0
176
     1
 90
       50
176
     1
 90
       50
176
     1
 90
       50
176
     1
290
     0
176
     1
 90
       50
176
     1
 62
   256
176
     0
 40
1.0
176
     0
 90
        2
176
     1
  1
strokes_ogs.tif
176
     1
290
     0
176
     1
 40
1.0
176
     1
 40
1.0
176
     1
  0
VISUALSTYLE
  5
2A
102
{ACAD_REACTORS
330
29
102
}
330
29
100
AcDbVisualStyle
  2
Flat
 70
     0
177
     3
291
     1
 70
    58
 90
        2
176
     1
 90
        1
176
     1
 90
        1
176
     1
 90
        2
176
     1
 40
0.6
176
     1
 40
30.0
176
     1
 62
     7
420
 16777215
176
     1
 90
        0
176
     1
 90
        0
176
     1
 62
     7
176
     1
 62
   257
176
     1
 90
        1
176
     1
 90
        1
176
     1
 40
1.0
176
     1
 90
        8
176
     1
 62
     7
176
     1
 40
1.0
176
     1
 90
        1
176
     1
 90
        6
176
     1
 90
        2
176
     1
 62
     7
176
     1
 90
        5
176
     1
 90
        0
176
     1
 90
        0
176
     1
290
     0
176
     1
 90
       13
176
     1
 40
0.0
176
     1
 90
        0
176
     1
290
     0
176
     1
290
     1
176
     1
290
     1
176
     1
290
     0
176
     1
290
     0
176
     1
290
     0
176
     1
290
     0
176
     1
290
     0
176
     1
290
     0
176
     1
 90
       50
176
     1
 40
0.0
176
     1
 40
1.0
176
     1
 90
        0
176
     1
 62
    18
420
        0
176
     1
 90
       50
176
     1
 90
        3
176
     1
 62
     5
420
      255
176
     1
290
     0
176
     1
 90
       50
176
     1
 90
       50
176
     1
 90
       50
176
     1
290
     0
176
     1
 90
       50
176
     1
 62
   256
176
     0
 40
1.0
176
     0
 90
        2
176
     1
  1
strokes_ogs.tif
176
     1
290
     0
176
     1
 40
1.0
176
     1
 40
1.0
176
     1
  0
VISUALSTYLE
  5
2B
102
{ACAD_REACTORS
330
29
102
}
330
29
100
AcDbVisualStyle
  2
FlatWithEdges
 70
     1
177
     3
291
     1
 70
    58
 90
        2
176
     1
 90
        1
176
     1
 90
        1
176
     1
 90
        2
176
     1
 40
0.6
176
     1
 40
30.0
176
     1
 62
     7
420
 16777215
176
     1
 90
        1
176
     1
 90
        0
176
     1
 62
     7
176
     1
 62
   257
176
     1
 90
        1
176
     1
 90
        1
176
     1
 40
1.0
176
     1
 90
        0
176
     1
 62
   257
176
     1
 40
1.0
176
     1
 90
        1
176
     1
 90
        6
176
     1
 90
        2
176
     1
 62
     7
176
     1
 90
        5
176
     1
 90
        0
176
     1
 90
        0
176
     1
290
     0
176
     1
 90
       13
176
     1
 40
0.0
176
     1
 90
        0
176
     1
290
     0
176
     1
290
     1
176
     1
290
     1
176
     1
290
     0
176
     1
290
     0
176
     1
290
     0
176
     1
290
     0
176
     1
290
     0
176
     1
290
     0
176
     1
 90
       50
176
     1
 40
0.0
176
     1
 40
1.0
176
     1
 90
        0
176
     1
 62
    18
420
        0
176
     1
 90
       50
176
     1
 90
        3
176
     1
 62
     5
420
      255
176
     1
290
     0
176
     1
 90
       50
176
     1
 90
       50
176
     1
 90
       50
176
     1
290
     0
176
     1
 90
       50
176
     1
 62
   256
176
     0
 40
1.0
176
     0
 90
        2
176
     1
  1
strokes_ogs.tif
176
     1
290
     0
176
     1
 40
1.0
176
     1
 40
1.0
176
     1
  0
VISUALSTYLE
  5
2C
102
{ACAD_REACTORS
330
29
102
}
330
29
100
AcDbVisualStyle
  2
Gouraud
 70
     2
177
     3
291
     1
 70
    58
 90
        2
176
     1
 90
        2
176
     1
 90
        1
176
     1
 90
        2
176
     1
 40
0.6
176
     1
 40
30.0
176
     1
 62
     7
420
 16777215
176
     1
 90
        0
176
     1
 90
        0
176
     1
 62
     7
176
     1
 62
   257
176
     1
 90
        1
176
     1
 90
        1
176
     1
 40
1.0
176
     1
 90
        0
176
     1
 62
     7
176
     1
 40
1.0
176
     1
 90
        1
176
     1
 90
        6
176
     1
 90
        2
176
     1
 62
     7
176
     1
 90
        5
176
     1
 90
        0
176
     1
 90
        0
176
     1
290
     0
176
     1
 90
       13
176
     1
 40
0.0
176
     1
 90
        0
176
     1
290
     0
176
     1
290
     1
176
     1
290
     1
176
     1
290
     0
176
     1
290
     0
176
     1
290
     0
176
     1
290
     0
176
     1
290
     0
176
     1
290
     0
176
     1
 90
       50
176
     1
 40
0.0
176
     1
 40
1.0
176
     1
 90
        0
176
     1
 62
    18
420
        0
176
     1
 90
       50
176
     1
 90
        3
176
     1
 62
     5
420
      255
176
     1
290
     0
176
     1
 90
       50
176
     1
 90
       50
176
     1
 90
       50
176
     1
290
     0
176
     1
 90
       50
176
     1
 62
   256
176
     0
 40
1.0
176
     0
 90
        2
176
     1
  1
strokes_ogs.tif
176
     1
290
     0
176
     1
 40
1.0
176
     1
 40
1.0
176
     1
  0
VISUALSTYLE
  5
2D
102
{ACAD_REACTORS
330
29
102
}
330
29
100
AcDbVisualStyle
  2
GouraudWithEdges
 70
     3
177
     3
291
     1
 70
    58
 90
        2
176
     1
 90
        2
176
     1
 90
        1
176
     1
 90
        2
176
     1
 40
0.6
176
     1
 40
30.0
176
     1
 62
     7
420
 16777215
176
     1
 90
        1
176
     1
 90
        0
176
     1
 62
     7
176
     1
 62
   257
176
     1
 90
        1
176
     1
 90
        1
176
     1
 40
1.0
176
     1
 90
        0
176
     1
 62
   257
176
     1
 40
1.0
176
     1
 90
        1
176
     1
 90
        6
176
     1
 90
        2
176
     1
 62
     7
176
     1
 90
        5
176
     1
 90
        0
176
     1
 90
        0
176
     1
290
     0
176
     1
 90
       13
176
     1
 40
0.0
176
     1
 90
        0
176
     1
290
     0
176
     1
290
     1
176
     1
290
     1
176
     1
290
     0
176
     1
290
     0
176
     1
290
     0
176
     1
290
     0
176
     1
290
     0
176
     1
290
     0
176
     1
 90
       50
176
     1
 40
0.0
176
     1
 40
1.0
176
     1
 90
        0
176
     1
 62
    18
420
        0
176
     1
 90
       50
176
     1
 90
        3
176
     1
 62
     5
420
      255
176
     1
290
     0
176
     1
 90
       50
176
     1
 90
       50
176
     1
 90
       50
176
     1
290
     0
176
     1
 90
       50
176
     1
 62
   256
176
     0
 40
1.0
176
     0
 90
        2
176
     1
  1
strokes_ogs.tif
176
     1
290
     0
176
     1
 40
1.0
176
     1
 40
1.0
176
     1
  0
VISUALSTYLE
  5
31
102
{ACAD_REACTORS
330
29
102
}
330
29
100
AcDbVisualStyle
  2
Hidden
 70
     6
177
     3
291
     0
 70
    58
 90
        1
176
     1
 90
        2
176
     1
 90
        2
176
     1
 90
        0
176
     1
 40
0.6
176
     1
 40
30.0
176
     1
 62
     7
420
 16777215
176
     1
 90
        2
176
     1
 90
        2
176
     1
 62
     7
176
     1
 62
   257
176
     1
 90
        2
176
     1
 90
        1
176
     1
 40
40.0
176
     1
 90
        0
176
     1
 62
   257
176
     1
 40
1.0
176
     1
 90
        1
176
     1
 90
        6
176
     1
 90
        2
176
     1
 62
     7
176
     1
 90
        3
176
     1
 90
        0
176
     1
 90
        0
176
     1
290
     0
176
     1
 90
        1
176
     1
 40
0.0
176
     1
 90
        0
176
     1
290
     0
176
     1
290
     1
176
     1
290
     1
176
     1
290
     0
176
     1
290
     0
176
     1
290
     0
176
     1
290
     0
176
     1
290
     0
176
     1
290
     0
176
     1
 90
       50
176
     1
 40
0.0
176
     1
 40
1.0
176
     1
 90
        0
176
     1
 62
    18
420
        0
176
     1
 90
       50
176
     1
 90
        3
176
     1
 62
     5
420
      255
176
     1
290
     0
176
     1
 90
       50
176
     1
 90
       50
176
     1
 90
       50
176
     1
290
     0
176
     1
 90
       50
176
     1
 62
   256
176
     0
 40
1.0
176
     0
 90
        2
176
     1
  1
strokes_ogs.tif
176
     1
290
     0
176
     1
 40
1.0
176
     1
 40
1.0
176
     1
  0
VISUALSTYLE
  5
3F
102
{ACAD_REACTORS
330
29
102
}
330
29
100
AcDbVisualStyle
  2
JitterOff
 70
    20
177
     3
291
     1
 70
    58
 90
        2
176
     0
 90
        2
176
     0
 90
        0
176
     0
 90
        0
176
     0
 40
0.6
176
     0
 40
30.0
176
     0
 62
     7
420
 16777215
176
     0
 90
        1
176
     0
 90
        4
176
     0
 62
     7
176
     0
 62
   257
176
     0
 90
        1
176
     0
 90
        1
176
     0
 40
1.0
176
     0
 90
       10
176
     2
 62
     7
176
     0
 40
1.0
176
     0
 90
        1
176
     0
 90
        6
176
     0
 90
        2
176
     0
 62
     7
176
     0
 90
        5
176
     0
 90
        0
176
     0
 90
        0
176
     0
290
     0
176
     0
 90
        1
176
     0
 40
0.0
176
     0
 90
        0
176
     0
290
     0
176
     0
290
     1
176
     0
290
     1
176
     0
290
     0
176
     0
290
     0
176
     0
290
     0
176
     0
290
     0
176
     0
290
     0
176
     0
290
     0
176
     0
 90
       50
176
     0
 40
0.0
176
     0
 40
1.0
176
     0
 90
        0
176
     0
 62
    18
420
        0
176
     0
 90
       50
176
     0
 90
        3
176
     0
 62
     5
420
      255
176
     0
290
     0
176
     0
 90
       50
176
     0
 90
       50
176
     0
 90
       50
176
     0
290
     0
176
     0
 90
       50
176
     0
 62
   256
176
     0
 40
1.0
176
     0
 90
        2
176
     0
  1
strokes_ogs.tif
176
     0
290
     0
176
     0
 40
1.0
176
     0
 40
1.0
176
     0
  0
VISUALSTYLE
  5
37
102
{ACAD_REACTORS
330
29
102
}
330
29
100
AcDbVisualStyle
  2
Linepattern
 70
    14
177
     3
291
     1
 70
    58
 90
        2
176
     1
 90
        2
176
     1
 90
        0
176
     1
 90
        0
176
     1
 40
0.6
176
     1
 40
30.0
176
     1
 62
     7
420
 16777215
176
     1
 90
        1
176
     1
 90
        4
176
     1
 62
     7
176
     1
 62
   257
176
     1
 90
        7
176
     1
 90
        7
176
     1
 40
1.0
176
     1
 90
        8
176
     1
 62
     7
176
     1
 40
1.0
176
     1
 90
        1
176
     1
 90
        6
176
     1
 90
        2
176
     1
 62
     7
176
     1
 90
        5
176
     1
 90
        0
176
     1
 90
        0
176
     1
290
     0
176
     1
 90
        1
176
     1
 40
0.0
176
     1
 90
        0
176
     1
290
     0
176
     1
290
     1
176
     1
290
     1
176
     1
290
     0
176
     1
290
     0
176
     1
290
     0
176
     1
290
     0
176
     1
290
     0
176
     1
290
     0
176
     1
 90
       50
176
     1
 40
0.0
176
     1
 40
1.0
176
     1
 90
        0
176
     1
 62
    18
420
        0
176
     1
 90
       50
176
     1
 90
        3
176
     1
 62
     5
420
      255
176
     1
290
     0
176
     1
 90
       50
176
     1
 90
       50
176
     1
 90
       50
176
     1
290
     0
176
     1
 90
       50
176
     1
 62
   256
176
     0
 40
1.0
176
     0
 90
        2
176
     1
  1
strokes_ogs.tif
176
     1
290
     0
176
     1
 40
1.0
176
     1
 40
1.0
176
     1
  0
VISUALSTYLE
  5
40
102
{ACAD_REACTORS
330
29
102
}
330
29
100
AcDbVisualStyle
  2
OverhangOff
 70
    21
177
     3
291
     1
 70
    58
 90
        2
176
     0
 90
        2
176
     0
 90
        0
176
     0
 90
        0
176
     0
 40
0.6
176
     0
 40
30.0
176
     0
 62
     7
420
 16777215
176
     0
 90
        1
176
     0
 90
        4
176
     0
 62
     7
176
     0
 62
   257
176
     0
 90
        1
176
     0
 90
        1
176
     0
 40
1.0
176
     0
 90
        9
176
     2
 62
     7
176
     0
 40
1.0
176
     0
 90
        1
176
     0
 90
        6
176
     0
 90
        2
176
     0
 62
     7
176
     0
 90
        5
176
     0
 90
        0
176
     0
 90
        0
176
     0
290
     0
176
     0
 90
        1
176
     0
 40
0.0
176
     0
 90
        0
176
     0
290
     0
176
     0
290
     1
176
     0
290
     1
176
     0
290
     0
176
     0
290
     0
176
     0
290
     0
176
     0
290
     0
176
     0
290
     0
176
     0
290
     0
176
     0
 90
       50
176
     0
 40
0.0
176
     0
 40
1.0
176
     0
 90
        0
176
     0
 62
    18
420
        0
176
     0
 90
       50
176
     0
 90
        3
176
     0
 62
     5
420
      255
176
     0
290
     0
176
     0
 90
       50
176
     0
 90
       50
176
     0
 90
       50
176
     0
290
     0
176
     0
 90
       50
176
     0
 62
   256
176
     0
 40
1.0
176
     0
 90
        2
176
     0
  1
strokes_ogs.tif
176
     0
290
     0
176
     0
 40
1.0
176
     0
 40
1.0
176
     0
  0
VISUALSTYLE
  5
33
102
{ACAD_REACTORS
330
29
102
}
330
29
100
AcDbVisualStyle
  2
Realistic
 70
     8
177
     3
291
     0
 70
    58
 90
        2
176
     1
 90
        3
176
     1
 90
        0
176
     1
 90
        2
176
     1
 40
0.6
176
     1
 40
30.0
176
     1
 62
     7
420
 16777215
176
     1
 90
        0
176
     1
 90
        0
176
     1
 62
     7
176
     1
 62
   257
176
     1
 90
        1
176
     1
 90
        1
176
     1
 40
1.0
176
     1
 90
        8
176
     1
 62
   257
176
     1
 40
1.0
176
     1
 90
        1
176
     1
 90
        6
176
     1
 90
        2
176
     1
 62
     7
176
     1
 90
        3
176
     1
 90
        0
176
     1
 90
        0
176
     1
290
     0
176
     1
 90
       13
176
     1
 40
0.0
176
     1
 90
        0
176
     1
290
     0
176
     1
290
     1
176
     1
290
     1
176
     1
290
     0
176
     1
290
     0
176
     1
290
     0
176
     1
290
     0
176
     1
290
     0
176
     1
290
     0
176
     1
 90
       50
176
     1
 40
0.0
176
     1
 40
1.0
176
     1
 90
        0
176
     1
 62
    18
420
        0
176
     1
 90
       50
176
     1
 90
        3
176
     1
 62
     5
420
      255
176
     1
290
     0
176
     1
 90
       50
176
     1
 90
       50
176
     1
 90
       50
176
     1
290
     0
176
     1
 90
       50
176
     1
 62
   256
176
     0
 40
1.0
176
     0
 90
        2
176
     1
  1
strokes_ogs.tif
176
     1
290
     0
176
     1
 40
1.0
176
     1
 40
1.0
176
     1
  0
VISUALSTYLE
  5
3E
102
{ACAD_REACTORS
330
29
102
}
330
29
100
AcDbVisualStyle
  2
Shaded
 70
    27
177
     3
291
     0
 70
    58
 90
        2
176
     1
 90
        2
176
     1
 90
        1
176
     1
 90
        2
176
     1
 40
0.6
176
     1
 40
30.0
176
     1
 62
     7
420
 16777215
176
     1
 90
        0
176
     1
 90
        4
176
     1
 62
     7
176
     1
 62
   257
176
     1
 90
        1
176
     1
 90
        1
176
     1
 40
1.0
176
     1
 90
        8
176
     1
 62
   257
176
     1
 40
1.0
176
     1
 90
        1
176
     1
 90
        6
176
     1
 90
        2
176
     1
 62
     8
420
  7895160
176
     1
 90
        3
176
     1
 90
        0
176
     1
 90
        0
176
     1
290
     0
176
     1
 90
        5
176
     1
 40
0.0
176
     1
 90
        0
176
     1
290
     0
176
     1
290
     1
176
     1
290
     1
176
     1
290
     0
176
     1
290
     0
176
     1
290
     0
176
     1
290
     0
176
     1
290
     0
176
     1
290
     0
176
     1
 90
       50
176
     1
 40
0.0
176
     1
 40
1.0
176
     1
 90
        0
176
     1
 62
    18
420
        0
176
     1
 90
       50
176
     1
 90
        3
176
     1
 62
     5
420
      255
176
     1
290
     0
176
     1
 90
       50
176
     1
 90
       50
176
     1
 90
       50
176
     1
290
     0
176
     1
 90
       50
176
     1
 62
   256
176
     0
 40
1.0
176
     0
 90
        2
176
     1
  1
strokes_ogs.tif
176
     1
290
     0
176
     1
 40
1.0
176
     1
 40
1.0
176
     1
  0
VISUALSTYLE
  5
3D
102
{ACAD_REACTORS
330
29
102
}
330
29
100
AcDbVisualStyle
  2
Shaded with edges
 70
    26
177
     3
291
     0
 70
    58
 90
        2
176
     1
 90
        2
176
     1
 90
        1
176
     1
 90
        2
176
     1
 40
0.6
176
     1
 40
30.0
176
     1
 62
     7
420
 16777215
176
     1
 90
        1
176
     1
 90
        2
176
     1
 62
     7
176
     1
 62
   257
176
     1
 90
        2
176
     1
 90
        1
176
     1
 40
1.0
176
     1
 90
        8
176
     1
 62
   257
176
     1
 40
1.0
176
     1
 90
        1
176
     1
 90
        6
176
     1
 90
        2
176
     1
 62
     7
176
     1
 90
        3
176
     1
 90
        0
176
     1
 90
        0
176
     1
290
     0
176
     1
 90
        5
176
     1
 40
0.0
176
     1
 90
        0
176
     1
290
     0
176
     1
290
     1
176
     1
290
     1
176
     1
290
     0
176
     1
290
     0
176
     1
290
     0
176
     1
290
     0
176
     1
290
     0
176
     1
290
     0
176
     1
 90
       50
176
     1
 40
0.0
176
     1
 40
1.0
176
     1
 90
        0
176
     1
 62
    18
420
        0
176
     1
 90
       50
176
     1
 90
        3
176
     1
 62
     5
420
      255
176
     1
290
     0
176
     1
 90
       50
176
     1
 90
       50
176
     1
 90
       50
176
     1
290
     0
176
     1
 90
       50
176
     1
 62
   256
176
     0
 40
1.0
176
     0
 90
        2
176
     1
  1
strokes_ogs.tif
176
     1
290
     0
176
     1
 40
1.0
176
     1
 40
1.0
176
     1
  0
VISUALSTYLE
  5
3A
102
{ACAD_REACTORS
330
29
102
}
330
29
100
AcDbVisualStyle
  2
Shades of Gray
 70
    23
177
     3
291
     0
 70
    58
 90
        2
176
     1
 90
        2
176
     1
 90
        3
176
     1
 90
        0
176
     1
 40
0.6
176
     1
 40
30.0
176
     1
 62
     7
420
 16777215
176
     1
 90
        2
176
     1
 90
        2
176
     1
 62
     7
176
     1
 62
     7
176
     1
 90
        1
176
     1
 90
        1
176
     1
 40
40.0
176
     1
 90
        8
176
     1
 62
     7
176
     1
 40
1.0
176
     1
 90
        1
176
     1
 90
        6
176
     1
 90
        2
176
     1
 62
     7
176
     1
 90
        3
176
     1
 90
        0
176
     1
 90
        0
176
     1
290
     0
176
     1
 90
        1
176
     1
 40
0.0
176
     1
 90
        0
176
     1
290
     0
176
     1
290
     1
176
     1
290
     1
176
     1
290
     0
176
     1
290
     0
176
     1
290
     0
176
     1
290
     0
176
     1
290
     0
176
     1
290
     0
176
     1
 90
       50
176
     1
 40
0.0
176
     1
 40
1.0
176
     1
 90
        0
176
     1
 62
    18
420
        0
176
     1
 90
       50
176
     1
 90
        3
176
     1
 62
     5
420
      255
176
     1
290
     0
176
     1
 90
       50
176
     1
 90
       50
176
     1
 90
       50
176
     1
290
     0
176
     1
 90
       50
176
     1
 62
   256
176
     0
 40
1.0
176
     0
 90
        2
176
     1
  1
strokes_ogs.tif
176
     1
290
     0
176
     1
 40
1.0
176
     1
 40
1.0
176
     1
  0
VISUALSTYLE
  5
3B
102
{ACAD_REACTORS
330
29
102
}
330
29
100
AcDbVisualStyle
  2
Sketchy
 70
    24
177
     3
291
     0
 70
    58
 90
        1
176
     1
 90
        2
176
     1
 90
        2
176
     1
 90
        0
176
     1
 40
0.6
176
     1
 40
30.0
176
     1
 62
     7
420
 16777215
176
     1
 90
        2
176
     1
 90
        2
176
     1
 62
     7
176
     1
 62
     7
176
     1
 90
        1
176
     1
 90
        1
176
     1
 40
40.0
176
     1
 90
       11
176
     1
 62
     7
176
     1
 40
1.0
176
     1
 90
        1
176
     1
 90
        6
176
     1
 90
        2
176
     1
 62
     7
176
     1
 90
        6
176
     1
 90
        0
176
     1
 90
        0
176
     1
290
     0
176
     1
 90
        1
176
     1
 40
0.0
176
     1
 90
        0
176
     1
290
     0
176
     1
290
     1
176
     1
290
     1
176
     1
290
     0
176
     1
290
     0
176
     1
290
     0
176
     1
290
     0
176
     1
290
     0
176
     1
290
     0
176
     1
 90
       50
176
     1
 40
0.0
176
     1
 40
1.0
176
     1
 90
        0
176
     1
 62
    18
420
        0
176
     1
 90
       50
176
     1
 90
        3
176
     1
 62
     5
420
      255
176
     1
290
     0
176
     1
 90
       50
176
     1
 90
       50
176
     1
 90
       50
176
     1
290
     0
176
     1
 90
       50
176
     1
 62
   256
176
     0
 40
1.0
176
     0
 90
        2
176
     1
  1
strokes_ogs.tif
176
     1
290
     0
176
     1
 40
1.0
176
     1
 40
1.0
176
     1
  0
VISUALSTYLE
  5
36
102
{ACAD_REACTORS
330
29
102
}
330
29
100
AcDbVisualStyle
  2
Thicken
 70
    13
177
     3
291
     1
 70
    58
 90
        2
176
     1
 90
        2
176
     1
 90
        0
176
     1
 90
        0
176
     1
 40
0.6
176
     1
 40
30.0
176
     1
 62
     7
420
 16777215
176
     1
 90
        1
176
     1
 90
        4
176
     1
 62
     7
176
     1
 62
   257
176
     1
 90
        1
176
     1
 90
        1
176
     1
 40
1.0
176
     1
 90
       12
176
     1
 62
     7
176
     1
 40
1.0
176
     1
 90
        1
176
     1
 90
        6
176
     1
 90
        2
176
     1
 62
     7
176
     1
 90
        5
176
     1
 90
        0
176
     1
 90
        0
176
     1
290
     0
176
     1
 90
        1
176
     1
 40
0.0
176
     1
 90
        0
176
     1
290
     0
176
     1
290
     1
176
     1
290
     1
176
     1
290
     0
176
     1
290
     0
176
     1
290
     0
176
     1
290
     0
176
     1
290
     0
176
     1
290
     0
176
     1
 90
       50
176
     1
 40
0.0
176
     1
 40
1.0
176
     1
 90
        0
176
     1
 62
    18
420
        0
176
     1
 90
       50
176
     1
 90
        3
176
     1
 62
     5
420
      255
176
     1
290
     0
176
     1
 90
       50
176
     1
 90
       50
176
     1
 90
       50
176
     1
290
     0
176
     1
 90
       50
176
     1
 62
   256
176
     0
 40
1.0
176
     0
 90
        2
176
     1
  1
strokes_ogs.tif
176
     1
290
     0
176
     1
 40
1.0
176
     1
 40
1.0
176
     1
  0
VISUALSTYLE
  5
30
102
{ACAD_REACTORS
330
29
102
}
330
29
100
AcDbVisualStyle
  2
Wireframe
 70
     5
177
     3
291
     0
 70
    58
 90
        0
176
     1
 90
        2
176
     1
 90
        0
176
     1
 90
        0
176
     1
 40
0.6
176
     1
 40
30.0
176
     1
 62
     7
420
 16777215
176
     1
 90
        1
176
     1
 90
        4
176
     1
 62
     7
176
     1
 62
   257
176
     1
 90
        1
176
     1
 90
        1
176
     1
 40
1.0
176
     1
 90
        0
176
     1
 62
   257
176
     1
 40
1.0
176
     1
 90
        1
176
     1
 90
        6
176
     1
 90
        2
176
     1
 62
     7
176
     1
 90
        3
176
     1
 90
        0
176
     1
 90
        0
176
     1
290
     0
176
     1
 90
        1
176
     1
 40
0.0
176
     1
 90
        0
176
     1
290
     0
176
     1
290
     1
176
     1
290
     1
176
     1
290
     0
176
     1
290
     0
176
     1
290
     0
176
     1
290
     0
176
     1
290
     0
176
     1
290
     0
176
     1
 90
       50
176
     1
 40
0.0
176
     1
 40
1.0
176
     1
 90
        0
176
     1
 62
    18
420
        0
176
     1
 90
       50
176
     1
 90
        3
176
     1
 62
     5
420
      255
176
     1
290
     0
176
     1
 90
       50
176
     1
 90
       50
176
     1
 90
       50
176
     1
290
     0
176
     1
 90
       50
176
     1
 62
   256
176
     0
 40
1.0
176
     0
 90
        2
176
     1
  1
strokes_ogs.tif
176
     1
290
     0
176
     1
 40
1.0
176
     1
 40
1.0
176
     1
  0
VISUALSTYLE
  5
3C
102
{ACAD_REACTORS
330
29
102
}
330
29
100
AcDbVisualStyle
  2
X-Ray
 70
    25
177
     3
291
     0
 70
    58
 90
        2
176
     1
 90
        2
176
     1
 90
        1
176
     1
 90
        1
176
     1
 40
0.5
176
     1
 40
30.0
176
     1
 62
     7
420
 16777215
176
     1
 90
        1
176
     1
 90
        0
176
     1
 62
     7
176
     1
 62
   257
176
     1
 90
        1
176
     1
 90
        1
176
     1
 40
1.0
176
     1
 90
        8
176
     1
 62
     7
176
     1
 40
1.0
176
     1
 90
        1
176
     1
 90
        6
176
     1
 90
        2
176
     1
 62
     7
176
     1
 90
        3
176
     1
 90
        0
176
     1
 90
        0
176
     1
290
     0
176
     1
 90
       13
176
     1
 40
0.0
176
     1
 90
        0
176
     1
290
     0
176
     1
290
     1
176
     1
290
     1
176
     1
290
     0
176
     1
290
     0
176
     1
290
     0
176
     1
290
     0
176
     1
290
     0
176
     1
290
     0
176
     1
 90
       50
176
     1
 40
0.0
176
     1
 40
1.0
176
     1
 90
        0
176
     1
 62
    18
420
        0
176
     1
 90
       50
176
     1
 90
        3
176
     1
 62
     5
420
      255
176
     1
290
     0
176
     1
 90
       50
176
     1
 90
       50
176
     1
 90
       50
176
     1
290
     0
176
     1
 90
       50
176
     1
 62
   256
176
     0
 40
1.0
176
     0
 90
        2
176
     1
  1
strokes_ogs.tif
176
     1
290
     0
176
     1
 40
1.0
176
     1
 40
1.0
176
     1
  0
DICTIONARYVAR
  5
9D
102
{ACAD_REACTORS
330
98
102
}
330
98
100
DictionaryVariables
280
     0
  1
1:1
  0
DICTIONARYVAR
  5
9A
102
{ACAD_REACTORS
330
98
102
}
330
98
100
DictionaryVariables
280
     0
  1
STANDARD
  0
DICTIONARYVAR
  5
99
102
{ACAD_REACTORS
330
98
102
}
330
98
100
DictionaryVariables
280
     0
  1
STANDARD
  0
DICTIONARYVAR
  5
9B
102
{ACAD_REACTORS
330
98
102
}
330
98
100
DictionaryVariables
280
     0
  1
Imperial24
  0
DICTIONARYVAR
  5
9C
102
{ACAD_REACTORS
330
98
102
}
330
98
100
DictionaryVariables
280
     0
  1
Imperial24
  0
DICTIONARY
  5
1A
330
19
100
AcDbDictionary
280
     1
281
     1
  3
BUMPTILE
360
1C
  3
DIFFUSETILE
360
1B
  3
OPACITYTILE
360
1F
  3
REFLECTIONTILE
360
1E
  3
REFRACTIONTILE
360
20
  3
SPECULARTILE
360
1D
  0
DICTIONARY
  5
12
330
11
100
AcDbDictionary
280
     1
281
     1
  3
BUMPTILE
360
14
  3
DIFFUSETILE
360
13
  3
OPACITYTILE
360
17
  3
REFLECTIONTILE
360
16
  3
REFRACTIONTILE
360
18
  3
SPECULARTILE
360
15
  0
DICTIONARY
  5
22
330
21
100
AcDbDictionary
280
     1
281
     1
  3
BUMPTILE
360
24
  3
DIFFUSETILE
360
23
  3
OPACITYTILE
360
27
  3
REFLECTIONTILE
360
26
  3
REFRACTIONTILE
360
28
  3
SPECULARTILE
360
25
  0
DICTIONARY
  5
9E
330
65
100
AcDbDictionary
280
     1
281
     1
  3
ACAD_ROUNDTRIP_2008_TABLESTYLE_CELLSTYLEMAP
360
9F
  0
XRECORD
  5
1C
102
{ACAD_REACTORS
330
1A
102
}
330
1A
100
AcDbXrecord
280
     1
270
     1
271
     1
  0
XRECORD
  5
1B
102
{ACAD_REACTORS
330
1A
102
}
330
1A
100
AcDbXrecord
280
     1
270
     1
271
     1
  0
XRECORD
  5
1F
102
{ACAD_REACTORS
330
1A
102
}
330
1A
100
AcDbXrecord
280
     1
270
     1
271
     1
  0
XRECORD
  5
1E
102
{ACAD_REACTORS
330
1A
102
}
330
1A
100
AcDbXrecord
280
     1
270
     1
271
     1
  0
XRECORD
  5
20
102
{ACAD_REACTORS
330
1A
102
}
330
1A
100
AcDbXrecord
280
     1
270
     1
271
     1
  0
XRECORD
  5
1D
102
{ACAD_REACTORS
330
1A
102
}
330
1A
100
AcDbXrecord
280
     1
270
     1
271
     1
  0
XRECORD
  5
14
102
{ACAD_REACTORS
330
12
102
}
330
12
100
AcDbXrecord
280
     1
270
     1
271
     1
  0
XRECORD
  5
13
102
{ACAD_REACTORS
330
12
102
}
330
12
100
AcDbXrecord
280
     1
270
     1
271
     1
  0
XRECORD
  5
17
102
{ACAD_REACTORS
330
12
102
}
330
12
100
AcDbXrecord
280
     1
270
     1
271
     1
  0
XRECORD
  5
16
102
{ACAD_REACTORS
330
12
102
}
330
12
100
AcDbXrecord
280
     1
270
     1
271
     1
  0
XRECORD
  5
18
102
{ACAD_REACTORS
330
12
102
}
330
12
100
AcDbXrecord
280
     1
270
     1
271
     1
  0
XRECORD
  5
15
102
{ACAD_REACTORS
330
12
102
}
330
12
100
AcDbXrecord
280
     1
270
     1
271
     1
  0
XRECORD
  5
24
102
{ACAD_REACTORS
330
22
102
}
330
22
100
AcDbXrecord
280
     1
270
     1
271
     1
  0
XRECORD
  5
23
102
{ACAD_REACTORS
330
22
102
}
330
22
100
AcDbXrecord
280
     1
270
     1
271
     1
  0
XRECORD
  5
27
102
{ACAD_REACTORS
330
22
102
}
330
22
100
AcDbXrecord
280
     1
270
     1
271
     1
  0
XRECORD
  5
26
102
{ACAD_REACTORS
330
22
102
}
330
22
100
AcDbXrecord
280
     1
270
     1
271
     1
  0
XRECORD
  5
28
102
{ACAD_REACTORS
330
22
102
}
330
22
100
AcDbXrecord
280
     1
270
     1
271
     1
  0
XRECORD
  5
25
102
{ACAD_REACTORS
330
22
102
}
330
22
100
AcDbXrecord
280
     1
270
     1
271
     1
  0
CELLSTYLEMAP
  5
9F
102
{ACAD_REACTORS
330
9E
102
}
330
9E
100
AcDbCellStyleMap
 90
        3
300
CELLSTYLE
  1
TABLEFORMAT_BEGIN
 90
        5
170
     1
 91
        0
 92
    32768
 62
   257
 93
        1
300
CONTENTFORMAT
  1
CONTENTFORMAT_BEGIN
 90
        0
 91
        0
 92
      512
 93
        0
300

 40
0.0
140
1.0
 94
        5
 62
     0
340
55
144
0.25
309
CONTENTFORMAT_END
171
     0
 94
        0
309
TABLEFORMAT_END
  1
CELLSTYLE_BEGIN
 90
        1
 91
        1
300
_TITLE
309
CELLSTYLE_END
300
CELLSTYLE
  1
TABLEFORMAT_BEGIN
 90
        5
170
     1
 91
        0
 92
        0
 62
   257
 93
        1
300
CONTENTFORMAT
  1
CONTENTFORMAT_BEGIN
 90
        0
 91
        0
 92
      512
 93
        0
300

 40
0.0
140
1.0
 94
        5
 62
     0
340
55
144
0.18
309
CONTENTFORMAT_END
171
     0
 94
        0
309
TABLEFORMAT_END
  1
CELLSTYLE_BEGIN
 90
        2
 91
        1
300
_HEADER
309
CELLSTYLE_END
300
CELLSTYLE
  1
TABLEFORMAT_BEGIN
 90
        5
170
     1
 91
        0
 92
        0
 62
   257
 93
        1
300
CONTENTFORMAT
  1
CONTENTFORMAT_BEGIN
 90
        0
 91
        0
 92
      512
 93
        0
300

 40
0.0
140
1.0
 94
        2
 62
     0
340
55
144
0.18
309
CONTENTFORMAT_END
171
     0
 94
        0
309
TABLEFORMAT_END
  1
CELLSTYLE_BEGIN
 90
        3
 91
        2
300
_DATA
309
CELLSTYLE_END
  0
ENDSEC
  0
EOF
