  0
SECTION
  2
HEADER
  9
$ACADVER
  1
AC1032
  9
$ACADMAINTVER
 90
      251
  9
$DWGCODEPAGE
  3
ANSI_1252
  9
$REQUIREDVERSIONS
160
                 0
  9
$INSBASE
 10
0.0
 20
0.0
 30
0.0
  9
$EXTMIN
 10
1.000000000000000E+20
 20
1.000000000000000E+20
 30
1.000000000000000E+20
  9
$EXTMAX
 10
-1.000000000000000E+20
 20
-1.000000000000000E+20
 30
-1.000000000000000E+20
  9
$LIMMIN
 10
0.0
 20
0.0
  9
$LIMMAX
 10
12.0
 20
9.0
  9
$ORTHOMODE
 70
     0
  9
$REGENMODE
 70
     1
  9
$FILLMODE
 70
     1
  9
$QTEXTMODE
 70
     0
  9
$MIRRTEXT
 70
     0
  9
$LTSCALE
 40
1.0
  9
$ATTMODE
 70
     1
  9
$TEXTSIZE
 40
0.2
  9
$TRACEWID
 40
0.05
  9
$TEXTSTYLE
  7
Standard
  9
$CLAYER
  8
0
  9
$CELTYPE
  6
ByLayer
  9
$CECOLOR
 62
   256
  9
$CELTSCALE
 40
1.0
  9
$DISPSILH
 70
     0
  9
$DIMSCALE
 40
1.0
  9
$DIMASZ
 40
0.18
  9
$DIMEXO
 40
0.0625
  9
$DIMDLI
 40
0.38
  9
$DIMRND
 40
0.0
  9
$DIMDLE
 40
0.0
  9
$DIMEXE
 40
0.18
  9
$DIMTP
 40
0.0
  9
$DIMTM
 40
0.0
  9
$DIMTXT
 40
0.18
  9
$DIMCEN
 40
0.09
  9
$DIMTSZ
 40
0.0
  9
$DIMTOL
 70
     0
  9
$DIMLIM
 70
     0
  9
$DIMTIH
 70
     1
  9
$DIMTOH
 70
     1
  9
$DIMSE1
 70
     0
  9
$DIMSE2
 70
     0
  9
$DIMTAD
 70
     0
  9
$DIMZIN
 70
     0
  9
$DIMBLK
  1

  9
$DIMASO
 70
     1
  9
$DIMSHO
 70
     1
  9
$DIMPOST
  1

  9
$DIMAPOST
  1

  9
$DIMALT
 70
     0
  9
$DIMALTD
 70
     2
  9
$DIMALTF
 40
25.4
  9
$DIMLFAC
 40
1.0
  9
$DIMTOFL
 70
     0
  9
$DIMTVP
 40
0.0
  9
$DIMTIX
 70
     0
  9
$DIMSOXD
 70
     0
  9
$DIMSAH
 70
     0
  9
$DIMBLK1
  1

  9
$DIMBLK2
  1

  9
$DIMSTYLE
  2
Standard
  9
$DIMCLRD
 70
     0
  9
$DIMCLRE
 70
     0
  9
$DIMCLRT
 70
     0
  9
$DIMTFAC
 40
1.0
  9
$DIMGAP
 40
0.09
  9
$DIMJUST
 70
     0
  9
$DIMSD1
 70
     0
  9
$DIMSD2
 70
     0
  9
$DIMTOLJ
 70
     1
  9
$DIMTZIN
 70
     0
  9
$DIMALTZ
 70
     0
  9
$DIMALTTZ
 70
     0
  9
$DIMUPT
 70
     0
  9
$DIMDEC
 70
     4
  9
$DIMTDEC
 70
     4
  9
$DIMALTU
 70
     2
  9
$DIMALTTD
 70
     2
  9
$DIMTXSTY
  7
Standard
  9
$DIMAUNIT
 70
     0
  9
$DIMADEC
 70
     0
  9
$DIMALTRND
 40
0.0
  9
$DIMAZIN
 70
     0
  9
$DIMDSEP
 70
    46
  9
$DIMATFIT
 70
     3
  9
$DIMFRAC
 70
     0
  9
$DIMLDRBLK
  1

  9
$DIMLUNIT
 70
     2
  9
$DIMLWD
 70
    -2
  9
$DIMLWE
 70
    -2
  9
$DIMTMOVE
 70
     0
  9
$DIMFXL
 40
1.0
  9
$DIMFXLON
 70
     0
  9
$DIMJOGANG
 40
0.7853981633974483
  9
$DIMTFILL
 70
     0
  9
$DIMTFILLCLR
 70
     0
  9
$DIMARCSYM
 70
     0
  9
$DIMLTYPE
  6

  9
$DIMLTEX1
  6

  9
$DIMLTEX2
  6

  9
$DIMTXTDIRECTION
 70
     0
  9
$LUNITS
 70
     2
  9
$LUPREC
 70
     4
  9
$SKETCHINC
 40
0.1
  9
$FILLETRAD
 40
0.0
  9
$AUNITS
 70
     0
  9
$AUPREC
 70
     0
  9
$MENU
  1
.
  9
$ELEVATION
 40
0.0
  9
$PELEVATION
 40
0.0
  9
$THICKNESS
 40
0.0
  9
$LIMCHECK
 70
     0
  9
$CHAMFERA
 40
0.0
  9
$CHAMFERB
 40
0.0
  9
$CHAMFERC
 40
0.0
  9
$CHAMFERD
 40
0.0
  9
$SKPOLY
 70
     0
  9
$TDCREATE
 40
2460024.638564815
  9
$TDUCREATE
 40
2460024.596898148
  9
$TDUPDATE
 40
2460024.638564815
  9
$TDUUPDATE
 40
2460024.596898148
  9
$TDINDWG
 40
0.0000000000
  9
$TDUSRTIMER
 40
0.0000000000
  9
$USRTIMER
 70
     1
  9
$ANGBASE
 50
0.0
  9
$ANGDIR
 70
     0
  9
$PDMODE
 70
     0
  9
$PDSIZE
 40
0.0
  9
$PLINEWID
 40
0.0
  9
$SPLFRAME
 70
     0
  9
$SPLINETYPE
 70
     6
  9
$SPLINESEGS
 70
     8
  9
$HANDSEED
  5
AD
  9
$SURFTAB1
 70
     6
  9
$SURFTAB2
 70
     6
  9
$SURFTYPE
 70
     6
  9
$SURFU
 70
     6
  9
$SURFV
 70
     6
  9
$UCSBASE
  2

  9
$UCSNAME
  2

  9
$UCSORG
 10
0.0
 20
0.0
 30
0.0
  9
$UCSXDIR
 10
1.0
 20
0.0
 30
0.0
  9
$UCSYDIR
 10
0.0
 20
1.0
 30
0.0
  9
$UCSORTHOREF
  2

  9
$UCSORTHOVIEW
 70
     0
  9
$UCSORGTOP
 10
0.0
 20
0.0
 30
0.0
  9
$UCSORGBOTTOM
 10
0.0
 20
0.0
 30
0.0
  9
$UCSORGLEFT
 10
0.0
 20
0.0
 30
0.0
  9
$UCSORGRIGHT
 10
0.0
 20
0.0
 30
0.0
  9
$UCSORGFRONT
 10
0.0
 20
0.0
 30
0.0
  9
$UCSORGBACK
 10
0.0
 20
0.0
 30
0.0
  9
$PUCSBASE
  2

  9
$PUCSNAME
  2

  9
$PUCSORG
 10
0.0
 20
0.0
 30
0.0
  9
$PUCSXDIR
 10
1.0
 20
0.0
 30
0.0
  9
$PUCSYDIR
 10
0.0
 20
1.0
 30
0.0
  9
$PUCSORTHOREF
  2

  9
$PUCSORTHOVIEW
 70
     0
  9
$PUCSORGTOP
 10
0.0
 20
0.0
 30
0.0
  9
$PUCSORGBOTTOM
 10
0.0
 20
0.0
 30
0.0
  9
$PUCSORGLEFT
 10
0.0
 20
0.0
 30
0.0
  9
$PUCSORGRIGHT
 10
0.0
 20
0.0
 30
0.0
  9
$PUCSORGFRONT
 10
0.0
 20
0.0
 30
0.0
  9
$PUCSORGBACK
 10
0.0
 20
0.0
 30
0.0
  9
$USERI1
 70
     0
  9
$USERI2
 70
     0
  9
$USERI3
 70
     0
  9
$USERI4
 70
     0
  9
$USERI5
 70
     0
  9
$USERR1
 40
0.0
  9
$USERR2
 40
0.0
  9
$USERR3
 40
0.0
  9
$USERR4
 40
0.0
  9
$USERR5
 40
0.0
  9
$WORLDVIEW
 70
     1
  9
$SHADEDGE
 70
     3
  9
$SHADEDIF
 70
    70
  9
$TILEMODE
 70
     1
  9
$MAXACTVP
 70
    64
  9
$PINSBASE
 10
0.0
 20
0.0
 30
0.0
  9
$PLIMCHECK
 70
     0
  9
$PEXTMIN
 10
1.000000000000000E+20
 20
1.000000000000000E+20
 30
1.000000000000000E+20
  9
$PEXTMAX
 10
-1.000000000000000E+20
 20
-1.000000000000000E+20
 30
-1.000000000000000E+20
  9
$PLIMMIN
 10
0.0
 20
0.0
  9
$PLIMMAX
 10
12.0
 20
9.0
  9
$UNITMODE
 70
     0
  9
$VISRETAIN
 70
     1
  9
$PLINEGEN
 70
     0
  9
$PSLTSCALE
 70
     1
  9
$TREEDEPTH
 70
  3020
  9
$CMLSTYLE
  2
Standard
  9
$CMLJUST
 70
     0
  9
$CMLSCALE
 40
1.0
  9
$PROXYGRAPHICS
 70
     1
  9
$MEASUREMENT
 70
     0
  9
$CELWEIGHT
370
    -1
  9
$ENDCAPS
280
     0
  9
$JOINSTYLE
280
     0
  9
$LWDISPLAY
290
     1
  9
$INSUNITS
 70
     4
  9
$HYPERLINKBASE
  1

  9
$STYLESHEET
  1

  9
$XEDIT
290
     1
  9
$CEPSNTYPE
380
     0
  9
$PSTYLEMODE
290
     1
  9
$FINGERPRINTGUID
  2
{98C760B6-ABD0-A447-93EA-3EA11A9AD758}
  9
$VERSIONGUID
  2
{41F2EF86-BFB8-DC44-9612-D5F19983DD3C}
  9
$EXTNAMES
290
     1
  9
$PSVPSCALE
 40
0.0
  9
$OLESTARTUP
290
     0
  9
$SORTENTS
280
   127
  9
$INDEXCTL
280
     0
  9
$HIDETEXT
280
     1
  9
$XCLIPFRAME
280
     2
  9
$HALOGAP
280
     0
  9
$OBSCOLOR
 70
   257
  9
$OBSLTYPE
280
     0
  9
$INTERSECTIONDISPLAY
280
     0
  9
$INTERSECTIONCOLOR
 70
   257
  9
$DIMASSOC
280
     2
  9
$PROJECTNAME
  1

  9
$CAMERADISPLAY
290
     0
  9
$LENSLENGTH
 40
50.0
  9
$CAMERAHEIGHT
 40
0.0
  9
$STEPSPERSEC
 40
2.0
  9
$STEPSIZE
 40
6.0
  9
$3DDWFPREC
 40
2.0
  9
$PSOLWIDTH
 40
0.25
  9
$PSOLHEIGHT
 40
4.0
  9
$LOFTANG1
 40
1.570796326794896
  9
$LOFTANG2
 40
1.570796326794896
  9
$LOFTMAG1
 40
0.0
  9
$LOFTMAG2
 40
0.0
  9
$LOFTPARAM
 70
     7
  9
$LOFTNORMALS
280
     1
  9
$LATITUDE
 40
37.795
  9
$LONGITUDE
 40
-122.394
  9
$NORTHDIRECTION
 40
0.0
  9
$TIMEZONE
 70
 -8000
  9
$LIGHTGLYPHDISPLAY
280
     1
  9
$TILEMODELIGHTSYNCH
280
     1
  9
$CMATERIAL
347
11
  9
$SOLIDHIST
280
     0
  9
$SHOWHIST
280
     1
  9
$DWFFRAME
280
     2
  9
$DGNFRAME
280
     0
  9
$REALWORLDSCALE
290
     1
  9
$INTERFERECOLOR
 62
     1
  9
$INTERFEREOBJVS
345
33
  9
$INTERFEREVPVS
346
30
  9
$CSHADOW
280
     0
  9
$SHADOWPLANELOCATION
 40
0.0
  0
ENDSEC
  0
SECTION
  2
CLASSES
  0
CLASS
  1
ACDBDICTIONARYWDFLT
  2
AcDbDictionaryWithDefault
  3
ObjectDBX Classes
 90
        0
 91
        1
280
     0
281
     0
  0
CLASS
  1
MATERIAL
  2
AcDbMaterial
  3
ObjectDBX Classes
 90
     1153
 91
        3
280
     0
281
     0
  0
CLASS
  1
VISUALSTYLE
  2
AcDbVisualStyle
  3
ObjectDBX Classes
 90
     4095
 91
       24
280
     0
281
     0
  0
CLASS
  1
SCALE
  2
AcDbScale
  3
ObjectDBX Classes
 90
     1153
 91
       17
280
     0
281
     0
  0
CLASS
  1
TABLESTYLE
  2
AcDbTableStyle
  3
ObjectDBX Classes
 90
     4095
 91
        1
280
     0
281
     0
  0
CLASS
  1
MLEADERSTYLE
  2
AcDbMLeaderStyle
  3
ACDB_MLEADERSTYLE_CLASS
 90
     4095
 91
        1
280
     0
281
     0
  0
CLASS
  1
ACDBSECTIONVIEWSTYLE
  2
AcDbSectionViewStyle
  3
ObjectDBX Classes
 90
     1025
 91
        1
280
     0
281
     0
  0
CLASS
  1
ACDBDETAILVIEWSTYLE
  2
AcDbDetailViewStyle
  3
ObjectDBX Classes
 90
     1025
 91
        1
280
     0
281
     0
  0
CLASS
  1
DICTIONARYVAR
  2
AcDbDictionaryVar
  3
ObjectDBX Classes
 90
        0
 91
        5
280
     0
281
     0
  0
CLASS
  1
CELLSTYLEMAP
  2
AcDbCellStyleMap
  3
ObjectDBX Classes
 90
     1152
 91
        1
280
     0
281
     0
  0
ENDSEC
  0
SECTION
  2
TABLES
  0
TABLE
  2
VPORT
  5
8
330
0
100
AcDbSymbolTable
 70
     1
  0
VPORT
  5
57
330
8
100
AcDbSymbolTableRecord
100
AcDbViewportTableRecord
  2
*Active
 70
     0
 10
0.0
 20
0.0
 11
1.0
 21
1.0
 12
0.0
 22
0.0
 13
0.0
 23
0.0
 14
1.0
 24
1.0
 15
0.0
 25
0.0
 16
0.0
 26
0.0
 36
1.0
 17
600.1763475651845
 27
-999.8195651465769
 37
0.0
 40
2040.449791156557
 41
0.6000881750030807
 42
50.0
 43
0.0
 44
0.0
 50
0.0
 51
0.0
 71
     0
 72
   100
 73
     1
 74
     1
 75
     0
 76
     0
 77
     0
 78
     0
281
     0
 65
     1
110
0.0
120
0.0
130
0.0
111
1.0
121
0.0
131
0.0
112
0.0
122
1.0
132
0.0
 79
     0
146
0.0
 60
     3
 61
     5
292
     1
282
     1
141
0.0
142
0.0
 63
   250
421
  3355443
  0
ENDTAB
  0
TABLE
  2
LTYPE
  5
5
330
0
100
AcDbSymbolTable
 70
     1
  0
LTYPE
  5
5B
330
5
100
AcDbSymbolTableRecord
100
AcDbLinetypeTableRecord
  2
ByBlock
 70
     0
  3

 72
    65
 73
     0
 40
0.0
  0
LTYPE
  5
5C
330
5
100
AcDbSymbolTableRecord
100
AcDbLinetypeTableRecord
  2
ByLayer
 70
     0
  3

 72
    65
 73
     0
 40
0.0
  0
LTYPE
  5
5D
330
5
100
AcDbSymbolTableRecord
100
AcDbLinetypeTableRecord
  2
Continuous
 70
     0
  3
Solid line
 72
    65
 73
     0
 40
0.0
  0
ENDTAB
  0
TABLE
  2
LAYER
  5
2
330
0
100
AcDbSymbolTable
 70
    22
  0
LAYER
  5
54
330
2
100
AcDbSymbolTableRecord
100
AcDbLayerTableRecord
  2
0
 70
     0
 62
     7
  6
Continuous
370
    -3
390
F
347
21
348
0
  0
LAYER
  5
78
330
2
100
AcDbSymbolTableRecord
100
AcDbLayerTableRecord
  2
Bounding Box
 70
     0
 62
     7
  6
Continuous
370
     0
390
F
347
21
348
0
  0
LAYER
  5
7A
330
2
100
AcDbSymbolTableRecord
100
AcDbLayerTableRecord
  2
Screws
 70
     0
 62
     7
  6
Continuous
370
     0
390
F
347
21
348
0
  0
LAYER
  5
83
330
2
100
AcDbSymbolTableRecord
100
AcDbLayerTableRecord
  2
2023-018
 70
     1
 62
     7
  6
Continuous
370
     0
390
F
347
21
348
0
  0
LAYER
  5
84
330
2
100
AcDbSymbolTableRecord
100
AcDbLayerTableRecord
  2
2023-017
 70
     1
 62
     7
  6
Continuous
370
     0
390
F
347
21
348
0
  0
LAYER
  5
85
330
2
100
AcDbSymbolTableRecord
100
AcDbLayerTableRecord
  2
2023-016
 70
     1
 62
     7
  6
Continuous
370
     0
390
F
347
21
348
0
  0
LAYER
  5
86
330
2
100
AcDbSymbolTableRecord
100
AcDbLayerTableRecord
  2
2023-015
 70
     1
 62
     7
  6
Continuous
370
     0
390
F
347
21
348
0
  0
LAYER
  5
87
330
2
100
AcDbSymbolTableRecord
100
AcDbLayerTableRecord
  2
2023-014
 70
     1
 62
     7
  6
Continuous
370
     0
390
F
347
21
348
0
  0
LAYER
  5
88
330
2
100
AcDbSymbolTableRecord
100
AcDbLayerTableRecord
  2
2023-013
 70
     1
 62
     7
  6
Continuous
370
     0
390
F
347
21
348
0
  0
LAYER
  5
89
330
2
100
AcDbSymbolTableRecord
100
AcDbLayerTableRecord
  2
2023-012
 70
     1
 62
     7
  6
Continuous
370
     0
390
F
347
21
348
0
  0
LAYER
  5
8A
330
2
100
AcDbSymbolTableRecord
100
AcDbLayerTableRecord
  2
2023-011
 70
     1
 62
     7
  6
Continuous
370
     0
390
F
347
21
348
0
  0
LAYER
  5
8B
330
2
100
AcDbSymbolTableRecord
100
AcDbLayerTableRecord
  2
2023-010
 70
     1
 62
     7
  6
Continuous
370
     0
390
F
347
21
348
0
  0
LAYER
  5
8C
330
2
100
AcDbSymbolTableRecord
100
AcDbLayerTableRecord
  2
2023-009
 70
     0
 62
     7
  6
Continuous
370
     0
390
F
347
21
348
0
  0
LAYER
  5
9B
330
2
100
AcDbSymbolTableRecord
100
AcDbLayerTableRecord
  2
2023-008
 70
     1
 62
     7
  6
Continuous
370
     0
390
F
347
21
348
0
  0
LAYER
  5
9C
330
2
100
AcDbSymbolTableRecord
100
AcDbLayerTableRecord
  2
2023-007
 70
     1
 62
     7
  6
Continuous
370
     0
390
F
347
21
348
0
  0
LAYER
  5
9D
330
2
100
AcDbSymbolTableRecord
100
AcDbLayerTableRecord
  2
2023-006
 70
     1
 62
     7
  6
Continuous
370
     0
390
F
347
21
348
0
  0
LAYER
  5
9E
330
2
100
AcDbSymbolTableRecord
100
AcDbLayerTableRecord
  2
2023-005
 70
     1
 62
     7
  6
Continuous
370
     0
390
F
347
21
348
0
  0
LAYER
  5
9F
330
2
100
AcDbSymbolTableRecord
100
AcDbLayerTableRecord
  2
2023-004
 70
     1
 62
     7
  6
Continuous
370
     0
390
F
347
21
348
0
  0
LAYER
  5
A0
330
2
100
AcDbSymbolTableRecord
100
AcDbLayerTableRecord
  2
2023-003
 70
     1
 62
     7
  6
Continuous
370
     0
390
F
347
21
348
0
  0
LAYER
  5
A1
330
2
100
AcDbSymbolTableRecord
100
AcDbLayerTableRecord
  2
2023-002
 70
     1
 62
     7
  6
Continuous
370
     0
390
F
347
21
348
0
  0
LAYER
  5
A2
330
2
100
AcDbSymbolTableRecord
100
AcDbLayerTableRecord
  2
2023-001
 70
     1
 62
     7
  6
Continuous
370
     0
390
F
347
21
348
0
  0
LAYER
  5
A3
330
2
100
AcDbSymbolTableRecord
100
AcDbLayerTableRecord
  2
10-2022-057
 70
     5
 62
     7
  6
Continuous
370
     0
390
F
347
21
348
0
  0
ENDTAB
  0
TABLE
  2
STYLE
  5
3
330
0
100
AcDbSymbolTable
 70
     2
  0
STYLE
  5
55
330
3
100
AcDbSymbolTableRecord
100
AcDbTextStyleTableRecord
  2
Standard
 70
     0
 40
0.0
 41
1.0
 50
0.0
 71
     0
 42
0.2
  3
txt
  4

  0
STYLE
  5
5A
330
3
100
AcDbSymbolTableRecord
100
AcDbTextStyleTableRecord
  2
Annotative
 70
     0
 40
0.0
 41
1.0
 50
0.0
 71
     0
 42
0.2
  3
txt
  4

1001
AcadAnnotative
1000
AnnotativeData
1002
{
1070
     1
1070
     1
1002
}
  0
ENDTAB
  0
TABLE
  2
VIEW
  5
6
330
0
100
AcDbSymbolTable
 70
     0
  0
ENDTAB
  0
TABLE
  2
UCS
  5
7
330
0
100
AcDbSymbolTable
 70
     0
  0
ENDTAB
  0
TABLE
  2
APPID
  5
9
330
0
100
AcDbSymbolTable
 70
     2
  0
APPID
  5
56
330
9
100
AcDbSymbolTableRecord
100
AcDbRegAppTableRecord
  2
ACAD
 70
     0
  0
APPID
  5
5E
330
9
100
AcDbSymbolTableRecord
100
AcDbRegAppTableRecord
  2
AcadAnnotative
 70
     0
  0
ENDTAB
  0
TABLE
  2
DIMSTYLE
  5
A
330
0
100
AcDbSymbolTable
 70
     2
100
AcDbDimStyleTable
 71
     0
  0
DIMSTYLE
105
58
330
A
100
AcDbSymbolTableRecord
100
AcDbDimStyleTableRecord
  2
Standard
 70
     0
340
55
  0
DIMSTYLE
105
59
330
A
100
AcDbSymbolTableRecord
100
AcDbDimStyleTableRecord
  2
Annotative
 70
     0
340
55
1001
AcadAnnotative
1000
AnnotativeData
1002
{
1070
     1
1070
     1
1002
}
  0
ENDTAB
  0
TABLE
  2
BLOCK_RECORD
  5
1
330
0
100
AcDbSymbolTable
 70
     1
  0
BLOCK_RECORD
  5
70
330
1
100
AcDbSymbolTableRecord
100
AcDbBlockTableRecord
  2
*Model_Space
340
73
 70
     0
280
     1
281
     0
  0
BLOCK_RECORD
  5
6C
330
1
100
AcDbSymbolTableRecord
100
AcDbBlockTableRecord
  2
*Paper_Space
340
6F
 70
     0
280
     1
281
     0
  0
BLOCK_RECORD
  5
74
330
1
100
AcDbSymbolTableRecord
100
AcDbBlockTableRecord
  2
*Paper_Space0
340
77
 70
     0
280
     1
281
     0
  0
ENDTAB
  0
ENDSEC
  0
SECTION
  2
BLOCKS
  0
BLOCK
  5
71
330
70
100
AcDbEntity
  8
0
100
AcDbBlockBegin
  2
*Model_Space
 70
     0
 10
0.0
 20
0.0
 30
0.0
  3
*Model_Space
  1

  0
ENDBLK
  5
72
330
70
100
AcDbEntity
  8
0
100
AcDbBlockEnd
  0
BLOCK
  5
6D
330
6C
100
AcDbEntity
 67
     1
  8
0
100
AcDbBlockBegin
  2
*Paper_Space
 70
     0
 10
0.0
 20
0.0
 30
0.0
  3
*Paper_Space
  1

  0
ENDBLK
  5
6E
330
6C
100
AcDbEntity
 67
     1
  8
0
100
AcDbBlockEnd
  0
BLOCK
  5
75
330
74
100
AcDbEntity
 67
     1
  8
0
100
AcDbBlockBegin
  2
*Paper_Space0
 70
     0
 10
0.0
 20
0.0
 30
0.0
  3
*Paper_Space0
  1

  0
ENDBLK
  5
76
330
74
100
AcDbEntity
 67
     1
  8
0
100
AcDbBlockEnd
  0
ENDSEC
  0
SECTION
  2
ENTITIES
  0
LWPOLYLINE
  5
79
330
70
100
AcDbEntity
  8
Bounding Box
 62
    18
420
        0
370
    40
100
AcDbPolyline
 90
        4
 70
     1
 43
0.0
 10
1200.176347415185
 20
-1999.819564896579
 10
0.1763477151839837
 20
-1999.819564896579
 10
0.1763477151839837
 20
0.180434603424631
 10
1200.176347415185
 20
0.180434603424631
  0
ELLIPSE
  5
7B
330
70
100
AcDbEntity
  8
Screws
100
AcDbEllipse
 10
17.342316281568
 20
-1982.358092505099
 30
0.0
 11
2.557638888249479
 21
0.0
 31
0.0
210
0.0
220
0.0
230
1.0
 40
0.9655172413793103
 41
0.0
 42
6.283185307179586
  0
HATCH
  5
7C
330
70
100
AcDbEntity
  8
Screws
 62
    18
420
        0
440
 33554687
100
AcDbHatch
 10
0.0
 20
0.0
 30
0.0
210
0.0
220
0.0
230
1.0
  2
SOLID
 70
     1
 71
     1
 91
        1
 92
        1
 93
        1
 72
     3
 10
17.342316281568
 20
-1982.358092505099
 11
2.557638888249479
 21
0.0
 40
0.9655172413793103
 50
0.0
 51
360.0
 73
     1
 97
        1
330
7B
 75
     2
 76
     1
 98
        1
 10
0.0
 20
0.0
450
        0
451
        0
460
0.0
461
0.0
452
        0
462
0.0
453
        0
470

  0
ELLIPSE
  5
7D
330
70
100
AcDbEntity
  8
Screws
100
AcDbEllipse
 10
1182.38037163908
 20
-1982.387911349827
 30
0.0
 11
2.557638888249479
 21
0.0
 31
0.0
210
0.0
220
0.0
230
1.0
 40
0.9655172413793103
 41
0.0
 42
6.283185307179586
  0
HATCH
  5
7E
330
70
100
AcDbEntity
  8
Screws
 62
    18
420
        0
440
 33554687
100
AcDbHatch
 10
0.0
 20
0.0
 30
0.0
210
0.0
220
0.0
230
1.0
  2
SOLID
 70
     1
 71
     1
 91
        1
 92
        1
 93
        1
 72
     3
 10
1182.38037163908
 20
-1982.387911349827
 11
2.557638888249479
 21
0.0
 40
0.9655172413793103
 50
0.0
 51
360.0
 73
     1
 97
        1
330
7D
 75
     2
 76
     1
 98
        1
 10
0.0
 20
0.0
450
        0
451
        0
460
0.0
461
0.0
452
        0
462
0.0
453
        0
470

  0
ELLIPSE
  5
7F
330
70
100
AcDbEntity
  8
Screws
100
AcDbEllipse
 10
1182.644954972347
 20
-17.53202921959431
 30
0.0
 11
2.557638888249479
 21
0.0
 31
0.0
210
0.0
220
0.0
230
1.0
 40
0.9655172413793103
 41
0.0
 42
6.283185307179586
  0
HATCH
  5
80
330
70
100
AcDbEntity
  8
Screws
 62
    18
420
        0
440
 33554687
100
AcDbHatch
 10
0.0
 20
0.0
 30
0.0
210
0.0
220
0.0
230
1.0
  2
SOLID
 70
     1
 71
     1
 91
        1
 92
        1
 93
        1
 72
     3
 10
1182.644954972347
 20
-17.53202921959431
 11
2.557638888249479
 21
0.0
 40
0.9655172413793103
 50
0.0
 51
360.0
 73
     1
 97
        1
330
7F
 75
     2
 76
     1
 98
        1
 10
0.0
 20
0.0
450
        0
451
        0
460
0.0
461
0.0
452
        0
462
0.0
453
        0
470

  0
ELLIPSE
  5
81
330
70
100
AcDbEntity
  8
Screws
100
AcDbEllipse
 10
17.43471861274107
 20
-17.53202921959431
 30
0.0
 11
2.557638888249479
 21
0.0
 31
0.0
210
0.0
220
0.0
230
1.0
 40
0.9655172413793103
 41
0.0
 42
6.283185307179586
  0
HATCH
  5
82
330
70
100
AcDbEntity
  8
Screws
 62
    18
420
        0
440
 33554687
100
AcDbHatch
 10
0.0
 20
0.0
 30
0.0
210
0.0
220
0.0
230
1.0
  2
SOLID
 70
     1
 71
     1
 91
        1
 92
        1
 93
        1
 72
     3
 10
17.43471861274107
 20
-17.53202921959431
 11
2.557638888249479
 21
0.0
 40
0.9655172413793103
 50
0.0
 51
360.0
 73
     1
 97
        1
330
81
 75
     2
 76
     1
 98
        1
 10
0.0
 20
0.0
450
        0
451
        0
460
0.0
461
0.0
452
        0
462
0.0
453
        0
470

  0
SPLINE
  5
8D
330
70
100
AcDbEntity
  8
2023-009
100
AcDbSpline
210
0.0
220
0.0
230
1.0
 70
     9
 71
     3
 72
   113
 73
   109
 74
     0
 42
0.0000000001
 43
0.0000000001
 40
0.0
 40
0.0
 40
0.0
 40
0.0
 40
1.0
 40
1.0
 40
1.0
 40
2.0
 40
2.0
 40
2.0
 40
3.0
 40
3.0
 40
3.0
 40
4.0
 40
4.0
 40
4.0
 40
5.0
 40
5.0
 40
5.0
 40
6.0
 40
6.0
 40
6.0
 40
7.0
 40
7.0
 40
7.0
 40
8.0
 40
8.0
 40
8.0
 40
9.0
 40
9.0
 40
9.0
 40
10.0
 40
10.0
 40
10.0
 40
11.0
 40
11.0
 40
11.0
 40
12.0
 40
12.0
 40
12.0
 40
13.0
 40
13.0
 40
13.0
 40
14.0
 40
14.0
 40
14.0
 40
15.0
 40
15.0
 40
15.0
 40
16.0
 40
16.0
 40
16.0
 40
17.0
 40
17.0
 40
17.0
 40
18.0
 40
18.0
 40
18.0
 40
19.0
 40
19.0
 40
19.0
 40
20.0
 40
20.0
 40
20.0
 40
21.0
 40
21.0
 40
21.0
 40
22.0
 40
22.0
 40
22.0
 40
23.0
 40
23.0
 40
23.0
 40
24.0
 40
24.0
 40
24.0
 40
25.0
 40
25.0
 40
25.0
 40
26.0
 40
26.0
 40
26.0
 40
27.0
 40
27.0
 40
27.0
 40
28.0
 40
28.0
 40
28.0
 40
29.0
 40
29.0
 40
29.0
 40
30.0
 40
30.0
 40
30.0
 40
31.0
 40
31.0
 40
31.0
 40
32.0
 40
32.0
 40
32.0
 40
33.0
 40
33.0
 40
33.0
 40
34.0
 40
34.0
 40
34.0
 40
35.0
 40
35.0
 40
35.0
 40
36.0
 40
36.0
 40
36.0
 40
36.0
 10
1120.432936760784
 20
-1912.842839515039
 30
0.0
 10
1116.401138456885
 20
-1917.014285440159
 30
0.0
 10
1112.84099709292
 20
-1921.652581362417
 30
0.0
 10
1109.862270864277
 20
-1926.631319462122
 30
0.0
 10
1108.370321914661
 20
-1929.125010559623
 30
0.0
 10
1107.023980292334
 20
-1931.705924248952
 30
0.0
 10
1105.83443532063
 20
-1934.357253567421
 30
0.0
 10
1105.27625936358
 20
-1935.601349684005
 30
0.0
 10
1104.720043727257
 20
-1936.832443643769
 30
0.0
 10
1104.607733658369
 20
-1938.208659892469
 30
0.0
 10
1104.495140314002
 20
-1939.588347319843
 30
0.0
 10
1105.094555729993
 20
-1941.011604292871
 30
0.0
 10
1106.381521804113
 20
-1941.641714596283
 30
0.0
 10
1107.750775863672
 20
-1942.312113846328
 30
0.0
 10
1109.468717231283
 20
-1942.381295422295
 30
0.0
 10
1110.96814982143
 20
-1942.395972359233
 30
0.0
 10
1112.606317609537
 20
-1942.412007281693
 30
0.0
 10
1114.24301598301
 20
-1942.222843335311
 30
0.0
 10
1115.855482644965
 20
-1941.945341048096
 30
0.0
 10
1119.024391602997
 20
-1941.399978154973
 30
0.0
 10
1122.142526994628
 20
-1940.507640922909
 30
0.0
 10
1125.230164455972
 20
-1939.622243193295
 30
0.0
 10
1131.530949012685
 20
-1937.815457127529
 30
0.0
 10
1137.7393117206
 20
-1935.705161179531
 30
0.0
 10
1143.954362302241
 20
-1933.627491569177
 30
0.0
 10
1150.253213225754
 20
-1931.521807798461
 30
0.0
 10
1156.552064149368
 20
-1929.416124028048
 30
0.0
 10
1162.850915072994
 20
-1927.31044025767
 30
0.0
 10
1163.631303682989
 20
-1927.049559082582
 30
0.0
 10
1164.411692292987
 20
-1926.788677907497
 30
0.0
 10
1165.192080902983
 20
-1926.527796732407
 30
0.0
 10
1165.756561379486
 20
-1926.339092889042
 30
0.0
 10
1166.125920047655
 20
-1925.767925829746
 30
0.0
 10
1165.962061862084
 20
-1925.171676350699
 30
0.0
 10
1165.810510123401
 20
-1924.620207744339
 30
0.0
 10
1165.173041554001
 20
-1924.212115826103
 30
0.0
 10
1164.605941480376
 20
-1924.401695391597
 30
0.0
 10
1158.502187709281
 20
-1926.442158868201
 30
0.0
 10
1152.398433938182
 20
-1928.482622344792
 30
0.0
 10
1146.294680167165
 20
-1930.523085821626
 30
0.0
 10
1140.305826701363
 20
-1932.525138529434
 30
0.0
 10
1134.329069054221
 20
-1934.573061109517
 30
0.0
 10
1128.288742242948
 20
-1936.416198127945
 30
0.0
 10
1125.290886665306
 20
-1937.330959657197
 30
0.0
 10
1122.275804391393
 20
-1938.194288213663
 30
0.0
 10
1119.235327244346
 20
-1938.956633681793
 30
0.0
 10
1116.286701716768
 20
-1939.69594899299
 30
0.0
 10
1113.273810284828
 20
-1940.321315325584
 30
0.0
 10
1110.216782275768
 20
-1940.16929067549
 30
0.0
 10
1109.529566034978
 20
-1940.135115715944
 30
0.0
 10
1108.840023812722
 20
-1940.071238994297
 30
0.0
 10
1108.166004448683
 20
-1939.928652103725
 30
0.0
 10
1107.911872664924
 20
-1939.874891243465
 30
0.0
 10
1107.648747687611
 20
-1939.815127200402
 30
0.0
 10
1107.431906583153
 20
-1939.707432415841
 30
0.0
 10
1107.208140402073
 20
-1939.596298271212
 30
0.0
 10
1107.059144820541
 20
-1939.448335795616
 30
0.0
 10
1106.99329430606
 20
-1939.342060220338
 30
0.0
 10
1106.954068054999
 20
-1939.27875331332
 30
0.0
 10
1106.914335115288
 20
-1939.210398405872
 30
0.0
 10
1106.884671094493
 20
-1939.1425521267
 30
0.0
 10
1106.89545035923
 20
-1939.167205999803
 30
0.0
 10
1106.930468819438
 20
-1939.261289830143
 30
0.0
 10
1106.891629560138
 20
-1939.142417815152
 30
0.0
 10
1106.856040414473
 20
-1939.033493146313
 30
0.0
 10
1106.827294392156
 20
-1938.922133316165
 30
0.0
 10
1106.807983313911
 20
-1938.80912038488
 30
0.0
 10
1106.776000118519
 20
-1938.621947270179
 30
0.0
 10
1106.813230081409
 20
-1938.946724539512
 30
0.0
 10
1106.805772147063
 20
-1938.753264444127
 30
0.0
 10
1106.803470176648
 20
-1938.693550937014
 30
0.0
 10
1106.799580159858
 20
-1938.634032262967
 30
0.0
 10
1106.79893570956
 20
-1938.574224322315
 30
0.0
 10
1106.797181881999
 20
-1938.411461088694
 30
0.0
 10
1106.804222447669
 20
-1938.246709515119
 30
0.0
 10
1106.82436310619
 20
-1938.08518253075
 30
0.0
 10
1106.81063061869
 20
-1938.195316332556
 30
0.0
 10
1106.856216069245
 20
-1937.918019994143
 30
0.0
 10
1106.863976511258
 20
-1937.879840546381
 30
0.0
 10
1106.893828474908
 20
-1937.732976297609
 30
0.0
 10
1106.929797004187
 20
-1937.587405027934
 30
0.0
 10
1106.969466340455
 20
-1937.442909809849
 30
0.0
 10
1107.048782350593
 20
-1937.154001921252
 30
0.0
 10
1107.145224560398
 20
-1936.87008353123
 30
0.0
 10
1107.253153121116
 20
-1936.59066087842
 30
0.0
 10
1107.336847510468
 20
-1936.373979509344
 30
0.0
 10
1107.426875279837
 20
-1936.172337876395
 30
0.0
 10
1107.55174756216
 20
-1935.889307740455
 30
0.0
 10
1107.695802183219
 20
-1935.562799741864
 30
0.0
 10
1107.842257358423
 20
-1935.237349730878
 30
0.0
 10
1107.991013242696
 20
-1934.912956774422
 30
0.0
 10
1108.288519486099
 20
-1934.264182910219
 30
0.0
 10
1108.595546833086
 20
-1933.619761095001
 30
0.0
 10
1108.911761229328
 20
-1932.979897993692
 30
0.0
 10
1109.521610227235
 20
-1931.745862238937
 30
0.0
 10
1110.165933307068
 20
-1930.528890408458
 30
0.0
 10
1110.843274511226
 20
-1929.330575657595
 30
0.0
 10
1113.570550130563
 20
-1924.505629848513
 30
0.0
 10
1116.833437068344
 20
-1919.992919056402
 30
0.0
 10
1120.576518411636
 20
-1915.905048645773
 30
0.0
 10
1121.041336769354
 20
-1915.397414149871
 30
0.0
 10
1121.513671514916
 20
-1914.896817211426
 30
0.0
 10
1121.992009003637
 20
-1914.401911757891
 30
0.0
 10
1122.978528692653
 20
-1913.381222421122
 30
0.0
 10
1121.421310337274
 20
-1911.820232078516
 30
0.0
 10
1120.432936760784
 20
-1912.842839515039
 30
0.0
 10
1120.432936760784
 20
-1912.842839515039
 30
0.0
 10
1120.432936760784
 20
-1912.842839515039
 30
0.0
 10
1120.432936760784
 20
-1912.842839515039
 30
0.0
  0
HATCH
  5
8E
330
70
100
AcDbEntity
  8
2023-009
 62
   250
420
  2301728
440
 33554687
100
AcDbHatch
 10
0.0
 20
0.0
 30
0.0
210
0.0
220
0.0
230
1.0
  2
SOLID
 70
     1
 71
     1
 91
        1
 92
        1
 93
        1
 72
     4
 94
        3
 73
     0
 74
     0
 95
      113
 96
      109
 40
0.0
 40
0.0
 40
0.0
 40
0.0
 40
1.0
 40
1.0
 40
1.0
 40
2.0
 40
2.0
 40
2.0
 40
3.0
 40
3.0
 40
3.0
 40
4.0
 40
4.0
 40
4.0
 40
5.0
 40
5.0
 40
5.0
 40
6.0
 40
6.0
 40
6.0
 40
7.0
 40
7.0
 40
7.0
 40
8.0
 40
8.0
 40
8.0
 40
9.0
 40
9.0
 40
9.0
 40
10.0
 40
10.0
 40
10.0
 40
11.0
 40
11.0
 40
11.0
 40
12.0
 40
12.0
 40
12.0
 40
13.0
 40
13.0
 40
13.0
 40
14.0
 40
14.0
 40
14.0
 40
15.0
 40
15.0
 40
15.0
 40
16.0
 40
16.0
 40
16.0
 40
17.0
 40
17.0
 40
17.0
 40
18.0
 40
18.0
 40
18.0
 40
19.0
 40
19.0
 40
19.0
 40
20.0
 40
20.0
 40
20.0
 40
21.0
 40
21.0
 40
21.0
 40
22.0
 40
22.0
 40
22.0
 40
23.0
 40
23.0
 40
23.0
 40
24.0
 40
24.0
 40
24.0
 40
25.0
 40
25.0
 40
25.0
 40
26.0
 40
26.0
 40
26.0
 40
27.0
 40
27.0
 40
27.0
 40
28.0
 40
28.0
 40
28.0
 40
29.0
 40
29.0
 40
29.0
 40
30.0
 40
30.0
 40
30.0
 40
31.0
 40
31.0
 40
31.0
 40
32.0
 40
32.0
 40
32.0
 40
33.0
 40
33.0
 40
33.0
 40
34.0
 40
34.0
 40
34.0
 40
35.0
 40
35.0
 40
35.0
 40
36.0
 40
36.0
 40
36.0
 40
36.0
 10
1120.432936760784
 20
-1912.842839515039
 10
1116.401138456885
 20
-1917.014285440159
 10
1112.84099709292
 20
-1921.652581362417
 10
1109.862270864277
 20
-1926.631319462122
 10
1108.370321914661
 20
-1929.125010559623
 10
1107.023980292334
 20
-1931.705924248952
 10
1105.83443532063
 20
-1934.357253567421
 10
1105.27625936358
 20
-1935.601349684005
 10
1104.720043727257
 20
-1936.832443643769
 10
1104.607733658369
 20
-1938.208659892469
 10
1104.495140314002
 20
-1939.588347319843
 10
1105.094555729993
 20
-1941.011604292871
 10
1106.381521804113
 20
-1941.641714596283
 10
1107.750775863672
 20
-1942.312113846328
 10
1109.468717231283
 20
-1942.381295422295
 10
1110.96814982143
 20
-1942.395972359233
 10
1112.606317609537
 20
-1942.412007281693
 10
1114.24301598301
 20
-1942.222843335311
 10
1115.855482644965
 20
-1941.945341048096
 10
1119.024391602997
 20
-1941.399978154973
 10
1122.142526994628
 20
-1940.507640922909
 10
1125.230164455972
 20
-1939.622243193295
 10
1131.530949012685
 20
-1937.815457127529
 10
1137.7393117206
 20
-1935.705161179531
 10
1143.954362302241
 20
-1933.627491569177
 10
1150.253213225754
 20
-1931.521807798461
 10
1156.552064149368
 20
-1929.416124028048
 10
1162.850915072994
 20
-1927.31044025767
 10
1163.631303682989
 20
-1927.049559082582
 10
1164.411692292987
 20
-1926.788677907497
 10
1165.192080902983
 20
-1926.527796732407
 10
1165.756561379486
 20
-1926.339092889042
 10
1166.125920047655
 20
-1925.767925829746
 10
1165.962061862084
 20
-1925.171676350699
 10
1165.810510123401
 20
-1924.620207744339
 10
1165.173041554001
 20
-1924.212115826103
 10
1164.605941480376
 20
-1924.401695391597
 10
1158.502187709281
 20
-1926.442158868201
 10
1152.398433938182
 20
-1928.482622344792
 10
1146.294680167165
 20
-1930.523085821626
 10
1140.305826701363
 20
-1932.525138529434
 10
1134.329069054221
 20
-1934.573061109517
 10
1128.288742242948
 20
-1936.416198127945
 10
1125.290886665306
 20
-1937.330959657197
 10
1122.275804391393
 20
-1938.194288213663
 10
1119.235327244346
 20
-1938.956633681793
 10
1116.286701716768
 20
-1939.69594899299
 10
1113.273810284828
 20
-1940.321315325584
 10
1110.216782275768
 20
-1940.16929067549
 10
1109.529566034978
 20
-1940.135115715944
 10
1108.840023812722
 20
-1940.071238994297
 10
1108.166004448683
 20
-1939.928652103725
 10
1107.911872664924
 20
-1939.874891243465
 10
1107.648747687611
 20
-1939.815127200402
 10
1107.431906583153
 20
-1939.707432415841
 10
1107.208140402073
 20
-1939.596298271212
 10
1107.059144820541
 20
-1939.448335795616
 10
1106.99329430606
 20
-1939.342060220338
 10
1106.954068054999
 20
-1939.27875331332
 10
1106.914335115288
 20
-1939.210398405872
 10
1106.884671094493
 20
-1939.1425521267
 10
1106.89545035923
 20
-1939.167205999803
 10
1106.930468819438
 20
-1939.261289830143
 10
1106.891629560138
 20
-1939.142417815152
 10
1106.856040414473
 20
-1939.033493146313
 10
1106.827294392156
 20
-1938.922133316165
 10
1106.807983313911
 20
-1938.80912038488
 10
1106.776000118519
 20
-1938.621947270179
 10
1106.813230081409
 20
-1938.946724539512
 10
1106.805772147063
 20
-1938.753264444127
 10
1106.803470176648
 20
-1938.693550937014
 10
1106.799580159858
 20
-1938.634032262967
 10
1106.79893570956
 20
-1938.574224322315
 10
1106.797181881999
 20
-1938.411461088694
 10
1106.804222447669
 20
-1938.246709515119
 10
1106.82436310619
 20
-1938.08518253075
 10
1106.81063061869
 20
-1938.195316332556
 10
1106.856216069245
 20
-1937.918019994143
 10
1106.863976511258
 20
-1937.879840546381
 10
1106.893828474908
 20
-1937.732976297609
 10
1106.929797004187
 20
-1937.587405027934
 10
1106.969466340455
 20
-1937.442909809849
 10
1107.048782350593
 20
-1937.154001921252
 10
1107.145224560398
 20
-1936.87008353123
 10
1107.253153121116
 20
-1936.59066087842
 10
1107.336847510468
 20
-1936.373979509344
 10
1107.426875279837
 20
-1936.172337876395
 10
1107.55174756216
 20
-1935.889307740455
 10
1107.695802183219
 20
-1935.562799741864
 10
1107.842257358423
 20
-1935.237349730878
 10
1107.991013242696
 20
-1934.912956774422
 10
1108.288519486099
 20
-1934.264182910219
 10
1108.595546833086
 20
-1933.619761095001
 10
1108.911761229328
 20
-1932.979897993692
 10
1109.521610227235
 20
-1931.745862238937
 10
1110.165933307068
 20
-1930.528890408458
 10
1110.843274511226
 20
-1929.330575657595
 10
1113.570550130563
 20
-1924.505629848513
 10
1116.833437068344
 20
-1919.992919056402
 10
1120.576518411636
 20
-1915.905048645773
 10
1121.041336769354
 20
-1915.397414149871
 10
1121.513671514916
 20
-1914.896817211426
 10
1121.992009003637
 20
-1914.401911757891
 10
1122.978528692653
 20
-1913.381222421122
 10
1121.421310337274
 20
-1911.820232078516
 10
1120.432936760784
 20
-1912.842839515039
 10
1120.432936760784
 20
-1912.842839515039
 10
1120.432936760784
 20
-1912.842839515039
 10
1120.432936760784
 20
-1912.842839515039
 97
        0
 97
        1
330
8D
 75
     2
 76
     1
 98
        1
 10
0.0
 20
0.0
450
        0
451
        0
460
0.0
461
0.0
452
        0
462
0.0
453
        0
470

  0
SPLINE
  5
8F
330
70
100
AcDbEntity
  8
2023-009
100
AcDbSpline
210
0.0
220
0.0
230
1.0
 70
     9
 71
     3
 72
    56
 73
    52
 74
     0
 42
0.0000000001
 43
0.0000000001
 40
0.0
 40
0.0
 40
0.0
 40
0.0
 40
1.0
 40
1.0
 40
1.0
 40
2.0
 40
2.0
 40
2.0
 40
3.0
 40
3.0
 40
3.0
 40
4.0
 40
4.0
 40
4.0
 40
5.0
 40
5.0
 40
5.0
 40
6.0
 40
6.0
 40
6.0
 40
7.0
 40
7.0
 40
7.0
 40
8.0
 40
8.0
 40
8.0
 40
9.0
 40
9.0
 40
9.0
 40
10.0
 40
10.0
 40
10.0
 40
11.0
 40
11.0
 40
11.0
 40
12.0
 40
12.0
 40
12.0
 40
13.0
 40
13.0
 40
13.0
 40
14.0
 40
14.0
 40
14.0
 40
15.0
 40
15.0
 40
15.0
 40
16.0
 40
16.0
 40
16.0
 40
17.0
 40
17.0
 40
17.0
 40
17.0
 10
1132.889330065228
 20
-1928.858707223101
 30
0.0
 10
1136.289655033132
 20
-1922.484390839699
 30
0.0
 10
1140.477411768128
 20
-1916.547529884428
 30
0.0
 10
1145.372252510159
 20
-1911.232565203315
 30
0.0
 10
1146.55571722748
 20
-1909.947523767769
 30
0.0
 10
1147.814820942337
 20
-1908.542017956247
 30
0.0
 10
1149.58585935295
 20
-1908.201001606596
 30
0.0
 10
1149.133819225713
 20
-1907.944341286896
 30
0.0
 10
1148.681779098479
 20
-1907.687680967194
 30
0.0
 10
1148.229738971241
 20
-1907.431020647494
 30
0.0
 10
1149.88606449404
 20
-1918.180987483018
 30
0.0
 10
1152.29028588438
 20
-1928.813515935733
 30
0.0
 10
1155.429570844239
 20
-1939.227669012215
 30
0.0
 10
1156.32413258365
 20
-1942.19525653922
 30
0.0
 10
1157.279022671391
 20
-1945.144385968116
 30
0.0
 10
1158.290565370285
 20
-1948.074144060979
 30
0.0
 10
1158.484799906949
 20
-1948.636710729024
 30
0.0
 10
1159.046391917904
 20
-1949.009094654303
 30
0.0
 10
1159.646685751994
 20
-1948.84412502008
 30
0.0
 10
1160.193660296911
 20
-1948.693808316025
 30
0.0
 10
1160.611854260618
 20
-1948.053331542982
 30
0.0
 10
1160.416666711096
 20
-1947.488004638372
 30
0.0
 10
1156.866906731052
 20
-1937.206740149357
 30
0.0
 10
1154.033463031692
 20
-1926.680461949634
 30
0.0
 10
1151.952071088896
 20
-1916.004437601441
 30
0.0
 10
1151.358963476105
 20
-1912.962227633646
 30
0.0
 10
1150.827828307162
 20
-1909.908201341835
 30
0.0
 10
1150.355840312052
 20
-1906.844881224887
 30
0.0
 10
1150.260294527947
 20
-1906.224765193186
 30
0.0
 10
1149.52740210148
 20
-1905.973294198576
 30
0.0
 10
1148.999719930343
 20
-1906.074900265785
 30
0.0
 10
1147.20922043076
 20
-1906.419663880025
 30
0.0
 10
1145.759312189205
 20
-1907.633995503075
 30
0.0
 10
1144.527104009729
 20
-1908.91141300878
 30
0.0
 10
1143.24554244955
 20
-1910.239994655032
 30
0.0
 10
1142.031188057106
 20
-1911.63962921709
 30
0.0
 10
1140.853779014909
 20
-1913.060709375462
 30
0.0
 10
1138.444390205242
 20
-1915.968734121743
 30
0.0
 10
1136.214274836628
 20
-1919.027613801957
 30
0.0
 10
1134.19660791085
 20
-1922.220098957084
 30
0.0
 10
1133.058074381138
 20
-1924.021561500669
 30
0.0
 10
1131.988492551931
 20
-1925.865636564908
 30
0.0
 10
1130.985497131435
 20
-1927.745871601762
 30
0.0
 10
1130.705343570168
 20
-1928.271053004219
 30
0.0
 10
1130.853268899749
 20
-1928.945539160004
 30
0.0
 10
1131.38099578766
 20
-1929.254205879326
 30
0.0
 10
1131.880691212511
 20
-1929.546477035071
 30
0.0
 10
1132.608141459288
 20
-1929.385828940754
 30
0.0
 10
1132.889330065228
 20
-1928.858707223101
 30
0.0
 10
1132.889330065228
 20
-1928.858707223101
 30
0.0
 10
1132.889330065228
 20
-1928.858707223101
 30
0.0
 10
1132.889330065228
 20
-1928.858707223101
 30
0.0
  0
HATCH
  5
90
330
70
100
AcDbEntity
  8
2023-009
 62
   250
420
  2301728
440
 33554687
100
AcDbHatch
 10
0.0
 20
0.0
 30
0.0
210
0.0
220
0.0
230
1.0
  2
SOLID
 70
     1
 71
     1
 91
        1
 92
        1
 93
        1
 72
     4
 94
        3
 73
     0
 74
     0
 95
       56
 96
       52
 40
0.0
 40
0.0
 40
0.0
 40
0.0
 40
1.0
 40
1.0
 40
1.0
 40
2.0
 40
2.0
 40
2.0
 40
3.0
 40
3.0
 40
3.0
 40
4.0
 40
4.0
 40
4.0
 40
5.0
 40
5.0
 40
5.0
 40
6.0
 40
6.0
 40
6.0
 40
7.0
 40
7.0
 40
7.0
 40
8.0
 40
8.0
 40
8.0
 40
9.0
 40
9.0
 40
9.0
 40
10.0
 40
10.0
 40
10.0
 40
11.0
 40
11.0
 40
11.0
 40
12.0
 40
12.0
 40
12.0
 40
13.0
 40
13.0
 40
13.0
 40
14.0
 40
14.0
 40
14.0
 40
15.0
 40
15.0
 40
15.0
 40
16.0
 40
16.0
 40
16.0
 40
17.0
 40
17.0
 40
17.0
 40
17.0
 10
1132.889330065228
 20
-1928.858707223101
 10
1136.289655033132
 20
-1922.484390839699
 10
1140.477411768128
 20
-1916.547529884428
 10
1145.372252510159
 20
-1911.232565203315
 10
1146.55571722748
 20
-1909.947523767769
 10
1147.814820942337
 20
-1908.542017956247
 10
1149.58585935295
 20
-1908.201001606596
 10
1149.133819225713
 20
-1907.944341286896
 10
1148.681779098479
 20
-1907.687680967194
 10
1148.229738971241
 20
-1907.431020647494
 10
1149.88606449404
 20
-1918.180987483018
 10
1152.29028588438
 20
-1928.813515935733
 10
1155.429570844239
 20
-1939.227669012215
 10
1156.32413258365
 20
-1942.19525653922
 10
1157.279022671391
 20
-1945.144385968116
 10
1158.290565370285
 20
-1948.074144060979
 10
1158.484799906949
 20
-1948.636710729024
 10
1159.046391917904
 20
-1949.009094654303
 10
1159.646685751994
 20
-1948.84412502008
 10
1160.193660296911
 20
-1948.693808316025
 10
1160.611854260618
 20
-1948.053331542982
 10
1160.416666711096
 20
-1947.488004638372
 10
1156.866906731052
 20
-1937.206740149357
 10
1154.033463031692
 20
-1926.680461949634
 10
1151.952071088896
 20
-1916.004437601441
 10
1151.358963476105
 20
-1912.962227633646
 10
1150.827828307162
 20
-1909.908201341835
 10
1150.355840312052
 20
-1906.844881224887
 10
1150.260294527947
 20
-1906.224765193186
 10
1149.52740210148
 20
-1905.973294198576
 10
1148.999719930343
 20
-1906.074900265785
 10
1147.20922043076
 20
-1906.419663880025
 10
1145.759312189205
 20
-1907.633995503075
 10
1144.527104009729
 20
-1908.91141300878
 10
1143.24554244955
 20
-1910.239994655032
 10
1142.031188057106
 20
-1911.63962921709
 10
1140.853779014909
 20
-1913.060709375462
 10
1138.444390205242
 20
-1915.968734121743
 10
1136.214274836628
 20
-1919.027613801957
 10
1134.19660791085
 20
-1922.220098957084
 10
1133.058074381138
 20
-1924.021561500669
 10
1131.988492551931
 20
-1925.865636564908
 10
1130.985497131435
 20
-1927.745871601762
 10
1130.705343570168
 20
-1928.271053004219
 10
1130.853268899749
 20
-1928.945539160004
 10
1131.38099578766
 20
-1929.254205879326
 10
1131.880691212511
 20
-1929.546477035071
 10
1132.608141459288
 20
-1929.385828940754
 10
1132.889330065228
 20
-1928.858707223101
 10
1132.889330065228
 20
-1928.858707223101
 10
1132.889330065228
 20
-1928.858707223101
 10
1132.889330065228
 20
-1928.858707223101
 97
        0
 97
        1
330
8F
 75
     2
 76
     1
 98
        1
 10
0.0
 20
0.0
450
        0
451
        0
460
0.0
461
0.0
452
        0
462
0.0
453
        0
470

  0
SPLINE
  5
91
330
70
100
AcDbEntity
  8
2023-009
100
AcDbSpline
210
0.0
220
0.0
230
1.0
 70
     9
 71
     3
 72
    65
 73
    61
 74
     0
 42
0.0000000001
 43
0.0000000001
 40
0.0
 40
0.0
 40
0.0
 40
0.0
 40
1.0
 40
1.0
 40
1.0
 40
2.0
 40
2.0
 40
2.0
 40
3.0
 40
3.0
 40
3.0
 40
4.0
 40
4.0
 40
4.0
 40
5.0
 40
5.0
 40
5.0
 40
6.0
 40
6.0
 40
6.0
 40
7.0
 40
7.0
 40
7.0
 40
8.0
 40
8.0
 40
8.0
 40
9.0
 40
9.0
 40
9.0
 40
10.0
 40
10.0
 40
10.0
 40
11.0
 40
11.0
 40
11.0
 40
12.0
 40
12.0
 40
12.0
 40
13.0
 40
13.0
 40
13.0
 40
14.0
 40
14.0
 40
14.0
 40
15.0
 40
15.0
 40
15.0
 40
16.0
 40
16.0
 40
16.0
 40
17.0
 40
17.0
 40
17.0
 40
18.0
 40
18.0
 40
18.0
 40
19.0
 40
19.0
 40
19.0
 40
20.0
 40
20.0
 40
20.0
 40
20.0
 10
1131.722309849739
 20
-1945.321302812531
 30
0.0
 10
1131.878594760964
 20
-1945.272274053134
 30
0.0
 10
1132.035385509576
 20
-1945.228448748344
 30
0.0
 10
1132.196264201261
 20
-1945.196910928028
 30
0.0
 10
1132.546509309829
 20
-1945.128250702206
 30
0.0
 10
1132.035822700891
 20
-1945.196681207768
 30
0.0
 10
1132.392669513209
 20
-1945.170750859965
 30
0.0
 10
1132.556960071313
 20
-1945.158812652405
 30
0.0
 10
1132.722097522245
 20
-1945.157058427186
 30
0.0
 10
1132.886596366244
 20
-1945.165711991157
 30
0.0
 10
1132.919605191367
 20
-1945.167448440926
 30
0.0
 10
1133.237583623769
 20
-1945.210972925847
 30
0.0
 10
1133.080836495804
 20
-1945.183443474164
 30
0.0
 10
1133.621846778599
 20
-1945.278460949978
 30
0.0
 10
1133.940964113741
 20
-1945.41345486164
 30
0.0
 10
1134.256062488491
 20
-1945.782859814878
 30
0.0
 10
1134.533172111469
 20
-1946.107728730494
 30
0.0
 10
1134.616282647527
 20
-1946.489529685126
 30
0.0
 10
1134.595504381805
 20
-1946.972124763851
 30
0.0
 10
1134.577121364939
 20
-1947.399087898806
 30
0.0
 10
1134.403321620755
 20
-1947.945031558012
 30
0.0
 10
1134.180958632057
 20
-1948.38508587473
 30
0.0
 10
1133.624276798792
 20
-1949.48675412087
 30
0.0
 10
1132.75956919169
 20
-1950.28405614391
 30
0.0
 10
1131.938544291767
 20
-1951.211449964499
 30
0.0
 10
1131.041919411346
 20
-1952.224238216803
 30
0.0
 10
1130.224612146759
 20
-1953.3347855037
 30
0.0
 10
1129.917196015014
 20
-1954.676576575502
 30
0.0
 10
1129.7618706528
 20
-1955.354531187233
 30
0.0
 10
1130.236609906627
 20
-1956.091164147147
 30
0.0
 10
1130.980246685417
 20
-1956.072076842083
 30
0.0
 10
1133.387798405005
 20
-1956.010280982283
 30
0.0
 10
1135.795350108961
 20
-1955.948484513523
 30
0.0
 10
1138.202901812529
 20
-1955.886688029538
 30
0.0
 10
1139.619122664181
 20
-1955.850336798098
 30
0.0
 10
1139.624612671029
 20
-1953.645334771305
 30
0.0
 10
1138.202901812529
 20
-1953.681826918978
 30
0.0
 10
1135.795350108961
 20
-1953.743623402963
 30
0.0
 10
1133.387798405005
 20
-1953.805419871723
 30
0.0
 10
1130.980246685417
 20
-1953.867215731523
 30
0.0
 10
1131.334596908886
 20
-1954.332382487054
 30
0.0
 10
1131.688947132351
 20
-1954.797549242579
 30
0.0
 10
1132.043297355821
 20
-1955.262715998109
 30
0.0
 10
1132.345567917181
 20
-1953.943383996254
 30
0.0
 10
1133.315382154278
 20
-1952.962648002937
 30
0.0
 10
1134.241523894131
 20
-1951.955547621911
 30
0.0
 10
1135.279448731975
 20
-1950.826892628094
 30
0.0
 10
1136.242341167444
 20
-1949.613293787188
 30
0.0
 10
1136.631946135719
 20
-1948.097439925647
 30
0.0
 10
1137.01829976754
 20
-1946.594236187481
 30
0.0
 10
1136.719884259227
 20
-1944.915296337129
 30
0.0
 10
1135.464981358633
 20
-1943.901583731758
 30
0.0
 10
1134.260976088828
 20
-1942.928986315369
 30
0.0
 10
1132.591813191385
 20
-1942.738546006408
 30
0.0
 10
1131.136170427131
 20
-1943.195201471724
 30
0.0
 10
1129.786896806898
 20
-1943.618487450958
 30
0.0
 10
1130.363010478265
 20
-1945.747734009959
 30
0.0
 10
1131.722309849739
 20
-1945.321302812531
 30
0.0
 10
1131.722309849739
 20
-1945.321302812531
 30
0.0
 10
1131.722309849739
 20
-1945.321302812531
 30
0.0
 10
1131.722309849739
 20
-1945.321302812531
 30
0.0
  0
HATCH
  5
92
330
70
100
AcDbEntity
  8
2023-009
 62
   250
420
  2301728
440
 33554687
100
AcDbHatch
 10
0.0
 20
0.0
 30
0.0
210
0.0
220
0.0
230
1.0
  2
SOLID
 70
     1
 71
     1
 91
        1
 92
        1
 93
        1
 72
     4
 94
        3
 73
     0
 74
     0
 95
       65
 96
       61
 40
0.0
 40
0.0
 40
0.0
 40
0.0
 40
1.0
 40
1.0
 40
1.0
 40
2.0
 40
2.0
 40
2.0
 40
3.0
 40
3.0
 40
3.0
 40
4.0
 40
4.0
 40
4.0
 40
5.0
 40
5.0
 40
5.0
 40
6.0
 40
6.0
 40
6.0
 40
7.0
 40
7.0
 40
7.0
 40
8.0
 40
8.0
 40
8.0
 40
9.0
 40
9.0
 40
9.0
 40
10.0
 40
10.0
 40
10.0
 40
11.0
 40
11.0
 40
11.0
 40
12.0
 40
12.0
 40
12.0
 40
13.0
 40
13.0
 40
13.0
 40
14.0
 40
14.0
 40
14.0
 40
15.0
 40
15.0
 40
15.0
 40
16.0
 40
16.0
 40
16.0
 40
17.0
 40
17.0
 40
17.0
 40
18.0
 40
18.0
 40
18.0
 40
19.0
 40
19.0
 40
19.0
 40
20.0
 40
20.0
 40
20.0
 40
20.0
 10
1131.722309849739
 20
-1945.321302812531
 10
1131.878594760964
 20
-1945.272274053134
 10
1132.035385509576
 20
-1945.228448748344
 10
1132.196264201261
 20
-1945.196910928028
 10
1132.546509309829
 20
-1945.128250702206
 10
1132.035822700891
 20
-1945.196681207768
 10
1132.392669513209
 20
-1945.170750859965
 10
1132.556960071313
 20
-1945.158812652405
 10
1132.722097522245
 20
-1945.157058427186
 10
1132.886596366244
 20
-1945.165711991157
 10
1132.919605191367
 20
-1945.167448440926
 10
1133.237583623769
 20
-1945.210972925847
 10
1133.080836495804
 20
-1945.183443474164
 10
1133.621846778599
 20
-1945.278460949978
 10
1133.940964113741
 20
-1945.41345486164
 10
1134.256062488491
 20
-1945.782859814878
 10
1134.533172111469
 20
-1946.107728730494
 10
1134.616282647527
 20
-1946.489529685126
 10
1134.595504381805
 20
-1946.972124763851
 10
1134.577121364939
 20
-1947.399087898806
 10
1134.403321620755
 20
-1947.945031558012
 10
1134.180958632057
 20
-1948.38508587473
 10
1133.624276798792
 20
-1949.48675412087
 10
1132.75956919169
 20
-1950.28405614391
 10
1131.938544291767
 20
-1951.211449964499
 10
1131.041919411346
 20
-1952.224238216803
 10
1130.224612146759
 20
-1953.3347855037
 10
1129.917196015014
 20
-1954.676576575502
 10
1129.7618706528
 20
-1955.354531187233
 10
1130.236609906627
 20
-1956.091164147147
 10
1130.980246685417
 20
-1956.072076842083
 10
1133.387798405005
 20
-1956.010280982283
 10
1135.795350108961
 20
-1955.948484513523
 10
1138.202901812529
 20
-1955.886688029538
 10
1139.619122664181
 20
-1955.850336798098
 10
1139.624612671029
 20
-1953.645334771305
 10
1138.202901812529
 20
-1953.681826918978
 10
1135.795350108961
 20
-1953.743623402963
 10
1133.387798405005
 20
-1953.805419871723
 10
1130.980246685417
 20
-1953.867215731523
 10
1131.334596908886
 20
-1954.332382487054
 10
1131.688947132351
 20
-1954.797549242579
 10
1132.043297355821
 20
-1955.262715998109
 10
1132.345567917181
 20
-1953.943383996254
 10
1133.315382154278
 20
-1952.962648002937
 10
1134.241523894131
 20
-1951.955547621911
 10
1135.279448731975
 20
-1950.826892628094
 10
1136.242341167444
 20
-1949.613293787188
 10
1136.631946135719
 20
-1948.097439925647
 10
1137.01829976754
 20
-1946.594236187481
 10
1136.719884259227
 20
-1944.915296337129
 10
1135.464981358633
 20
-1943.901583731758
 10
1134.260976088828
 20
-1942.928986315369
 10
1132.591813191385
 20
-1942.738546006408
 10
1131.136170427131
 20
-1943.195201471724
 10
1129.786896806898
 20
-1943.618487450958
 10
1130.363010478265
 20
-1945.747734009959
 10
1131.722309849739
 20
-1945.321302812531
 10
1131.722309849739
 20
-1945.321302812531
 10
1131.722309849739
 20
-1945.321302812531
 10
1131.722309849739
 20
-1945.321302812531
 97
        0
 97
        1
330
91
 75
     2
 76
     1
 98
        1
 10
0.0
 20
0.0
450
        0
451
        0
460
0.0
461
0.0
452
        0
462
0.0
453
        0
470

  0
SPLINE
  5
93
330
70
100
AcDbEntity
  8
2023-009
100
AcDbSpline
210
0.0
220
0.0
230
1.0
 70
     9
 71
     3
 72
   128
 73
   124
 74
     0
 42
0.0000000001
 43
0.0000000001
 40
0.0
 40
0.0
 40
0.0
 40
0.0
 40
1.0
 40
1.0
 40
1.0
 40
2.0
 40
2.0
 40
2.0
 40
3.0
 40
3.0
 40
3.0
 40
4.0
 40
4.0
 40
4.0
 40
5.0
 40
5.0
 40
5.0
 40
6.0
 40
6.0
 40
6.0
 40
7.0
 40
7.0
 40
7.0
 40
8.0
 40
8.0
 40
8.0
 40
9.0
 40
9.0
 40
9.0
 40
10.0
 40
10.0
 40
10.0
 40
11.0
 40
11.0
 40
11.0
 40
12.0
 40
12.0
 40
12.0
 40
13.0
 40
13.0
 40
13.0
 40
14.0
 40
14.0
 40
14.0
 40
15.0
 40
15.0
 40
15.0
 40
16.0
 40
16.0
 40
16.0
 40
17.0
 40
17.0
 40
17.0
 40
18.0
 40
18.0
 40
18.0
 40
19.0
 40
19.0
 40
19.0
 40
20.0
 40
20.0
 40
20.0
 40
21.0
 40
21.0
 40
21.0
 40
22.0
 40
22.0
 40
22.0
 40
23.0
 40
23.0
 40
23.0
 40
24.0
 40
24.0
 40
24.0
 40
25.0
 40
25.0
 40
25.0
 40
26.0
 40
26.0
 40
26.0
 40
27.0
 40
27.0
 40
27.0
 40
28.0
 40
28.0
 40
28.0
 40
29.0
 40
29.0
 40
29.0
 40
30.0
 40
30.0
 40
30.0
 40
31.0
 40
31.0
 40
31.0
 40
32.0
 40
32.0
 40
32.0
 40
33.0
 40
33.0
 40
33.0
 40
34.0
 40
34.0
 40
34.0
 40
35.0
 40
35.0
 40
35.0
 40
36.0
 40
36.0
 40
36.0
 40
37.0
 40
37.0
 40
37.0
 40
38.0
 40
38.0
 40
38.0
 40
39.0
 40
39.0
 40
39.0
 40
40.0
 40
40.0
 40
40.0
 40
41.0
 40
41.0
 40
41.0
 40
41.0
 10
1142.352523524024
 20
-1949.277612724849
 30
0.0
 10
1142.785002496128
 20
-1949.195568063228
 30
0.0
 10
1143.195994951203
 20
-1949.125583327401
 30
0.0
 10
1143.640224954553
 20
-1949.135372108006
 30
0.0
 10
1143.856642802865
 20
-1949.140140959322
 30
0.0
 10
1143.971621348226
 20
-1949.150128431092
 30
0.0
 10
1144.175242061033
 20
-1949.222031218759
 30
0.0
 10
1144.214016779988
 20
-1949.235723393513
 30
0.0
 10
1144.358827196416
 20
-1949.30908620403
 30
0.0
 10
1144.417817103638
 20
-1949.345494465197
 30
0.0
 10
1144.290246941428
 20
-1949.266758830549
 30
0.0
 10
1144.377962165607
 20
-1949.304564798616
 30
0.0
 10
1144.444296932191
 20
-1949.383341358618
 30
0.0
 10
1144.485910508631
 20
-1949.429886287967
 30
0.0
 10
1144.486864626374
 20
-1949.429091302995
 30
0.0
 10
1144.447159285417
 20
-1949.380956403694
 30
0.0
 10
1144.399900884208
 20
-1949.318519314536
 30
0.0
 10
1144.406968033437
 20
-1949.333043185079
 30
0.0
 10
1144.4683607331
 20
-1949.424528015324
 30
0.0
 10
1144.483561945254
 20
-1949.452300267455
 30
0.0
 10
1144.49876315741
 20
-1949.480072519586
 30
0.0
 10
1144.513964369564
 20
-1949.507844771717
 30
0.0
 10
1144.475059201575
 20
-1949.403441436259
 30
0.0
 10
1144.46886934543
 20
-1949.388690032628
 30
0.0
 10
1144.495394801132
 20
-1949.463590560826
 30
0.0
 10
1144.519366896477
 20
-1949.539804278882
 30
0.0
 10
1144.53911057769
 20
-1949.614568793767
 30
0.0
 10
1144.558591592829
 20
-1949.692227035338
 30
0.0
 10
1144.521975200399
 20
-1949.546261097317
 30
0.0
 10
1144.547945637756
 20
-1949.604559538208
 30
0.0
 10
1144.552798411809
 20
-1949.723719412571
 30
0.0
 10
1144.555593067652
 20
-1949.792342191065
 30
0.0
 10
1144.514818439128
 20
-1949.984214245024
 30
0.0
 10
1144.562245004798
 20
-1949.744303342004
 30
0.0
 10
1144.555906833502
 20
-1949.776365465374
 30
0.0
 10
1144.505273637184
 20
-1950.015397455947
 30
0.0
 10
1144.534955651064
 20
-1949.857167575332
 30
0.0
 10
1144.568494139597
 20
-1949.778219275547
 30
0.0
 10
1144.56068914137
 20
-1949.783877872652
 30
0.0
 10
1144.511540656377
 20
-1949.874143366638
 30
0.0
 10
1144.533908334783
 20
-1949.842784476576
 30
0.0
 10
1144.556276013185
 20
-1949.811425586515
 30
0.0
 10
1144.57864369159
 20
-1949.780066696453
 30
0.0
 10
1144.731558456931
 20
-1949.632086663227
 30
0.0
 10
1144.497166315598
 20
-1949.792035747127
 30
0.0
 10
1144.695910690834
 20
-1949.719411762568
 30
0.0
 10
1143.941155591654
 20
-1949.995209870583
 30
0.0
 10
1143.578898721712
 20
-1950.943197312234
 30
0.0
 10
1144.209444280713
 20
-1951.561998554398
 30
0.0
 10
1145.082669375055
 20
-1952.418959269382
 30
0.0
 10
1146.242342920976
 20
-1952.686059753687
 30
0.0
 10
1147.367768367286
 20
-1953.051376702909
 30
0.0
 10
1147.506741472478
 20
-1953.09648784819
 30
0.0
 10
1147.644175603348
 20
-1953.145081211607
 30
0.0
 10
1147.781047890588
 20
-1953.196170336352
 30
0.0
 10
1147.903832023087
 20
-1953.244570578171
 30
0.0
 10
1147.914697373128
 20
-1953.249005188169
 30
0.0
 10
1147.813643940712
 20
-1953.209474166343
 30
0.0
 10
1147.877335416299
 20
-1953.238802000759
 30
0.0
 10
1147.940163054185
 20
-1953.269876181036
 30
0.0
 10
1148.00212685437
 20
-1953.302696707172
 30
0.0
 10
1148.094138684765
 20
-1953.351758766114
 30
0.0
 10
1148.180378317774
 20
-1953.406518102574
 30
0.0
 10
1148.268779256894
 20
-1953.461552505954
 30
0.0
 10
1148.37382885328
 20
-1953.535399220711
 30
0.0
 10
1148.38077055443
 20
-1953.539950317413
 30
0.0
 10
1148.289604360353
 20
-1953.475205796059
 30
0.0
 10
1148.341206224156
 20
-1953.52005014722
 30
0.0
 10
1148.390576683783
 20
-1953.567229712266
 30
0.0
 10
1148.437715739237
 20
-1953.616744491191
 30
0.0
 10
1148.521056156249
 20
-1953.71300303173
 30
0.0
 10
1148.529442218921
 20
-1953.719366481349
 30
0.0
 10
1148.462873927248
 20
-1953.635834840049
 30
0.0
 10
1148.510349561689
 20
-1953.704118229595
 30
0.0
 10
1148.55341964302
 20
-1953.775101345975
 30
0.0
 10
1148.592084171243
 20
-1953.848784189186
 30
0.0
 10
1148.585444427409
 20
-1953.834266691755
 30
0.0
 10
1148.666641069933
 20
-1954.09632446952
 30
0.0
 10
1148.668550784314
 20
-1954.106659508788
 30
0.0
 10
1148.703382630383
 20
-1954.295163350426
 30
0.0
 10
1148.682704222175
 20
-1954.62357626269
 30
0.0
 10
1148.63216098709
 20
-1954.85941742251
 30
0.0
 10
1148.340051895946
 20
-1956.222435573805
 30
0.0
 10
1147.60035263523
 20
-1957.541922337605
 30
0.0
 10
1146.89449868112
 20
-1958.72896034721
 30
0.0
 10
1146.143403570729
 20
-1959.992080628208
 30
0.0
 10
1145.268919364373
 20
-1961.162342565563
 30
0.0
 10
1144.273477023394
 20
-1962.242897161425
 30
0.0
 10
1143.313335994399
 20
-1963.285132114512
 30
0.0
 10
1144.868639330117
 20
-1964.848295513382
 30
0.0
 10
1145.832549266244
 20
-1963.801969404275
 30
0.0
 10
1147.592961241102
 20
-1961.891038784057
 30
0.0
 10
1149.054377304191
 20
-1959.705075488341
 30
0.0
 10
1150.087744099442
 20
-1957.318879992891
 30
0.0
 10
1150.620808413815
 20
-1956.087956305773
 30
0.0
 10
1151.173713813628
 20
-1954.67041565552
 30
0.0
 10
1150.740022979821
 20
-1953.320779502717
 30
0.0
 10
1150.361603631617
 20
-1952.143146974091
 30
0.0
 10
1149.42786764236
 20
-1951.470022655565
 30
0.0
 10
1148.316385869977
 20
-1951.051019472678
 30
0.0
 10
1147.829882261253
 20
-1950.867618749778
 30
0.0
 10
1147.323676670361
 20
-1950.743769487355
 30
0.0
 10
1146.83084991153
 20
-1950.579406780263
 30
0.0
 10
1146.437499719116
 20
-1950.448220513892
 30
0.0
 10
1146.024292938856
 20
-1950.253938726494
 30
0.0
 10
1145.768516523562
 20
-1950.002926311549
 30
0.0
 10
1145.606361053524
 20
-1950.617121908823
 30
0.0
 10
1145.444205583483
 20
-1951.231317506099
 30
0.0
 10
1145.282050113442
 20
-1951.845513103378
 30
0.0
 10
1146.75746543807
 20
-1951.306375632814
 30
0.0
 10
1147.140920331958
 20
-1949.558403644784
 30
0.0
 10
1146.347060813664
 20
-1948.271558242879
 30
0.0
 10
1145.36949600836
 20
-1946.686926773744
 30
0.0
 10
1143.347524807727
 20
-1946.851556559423
 30
0.0
 10
1141.766384101417
 20
-1947.151511384042
 30
0.0
 10
1141.18108892334
 20
-1947.262546481543
 30
0.0
 10
1140.847847595908
 20
-1947.967065746132
 30
0.0
 10
1140.996403142316
 20
-1948.507631765751
 30
0.0
 10
1141.164911895373
 20
-1949.120803795414
 30
0.0
 10
1141.765544015301
 20
-1949.388967353122
 30
0.0
 10
1142.352523524024
 20
-1949.277612724849
 30
0.0
 10
1142.352523524024
 20
-1949.277612724849
 30
0.0
 10
1142.352523524024
 20
-1949.277612724849
 30
0.0
 10
1142.352523524024
 20
-1949.277612724849
 30
0.0
  0
HATCH
  5
94
330
70
100
AcDbEntity
  8
2023-009
 62
   250
420
  2301728
440
 33554687
100
AcDbHatch
 10
0.0
 20
0.0
 30
0.0
210
0.0
220
0.0
230
1.0
  2
SOLID
 70
     1
 71
     1
 91
        1
 92
        1
 93
        1
 72
     4
 94
        3
 73
     0
 74
     0
 95
      128
 96
      124
 40
0.0
 40
0.0
 40
0.0
 40
0.0
 40
1.0
 40
1.0
 40
1.0
 40
2.0
 40
2.0
 40
2.0
 40
3.0
 40
3.0
 40
3.0
 40
4.0
 40
4.0
 40
4.0
 40
5.0
 40
5.0
 40
5.0
 40
6.0
 40
6.0
 40
6.0
 40
7.0
 40
7.0
 40
7.0
 40
8.0
 40
8.0
 40
8.0
 40
9.0
 40
9.0
 40
9.0
 40
10.0
 40
10.0
 40
10.0
 40
11.0
 40
11.0
 40
11.0
 40
12.0
 40
12.0
 40
12.0
 40
13.0
 40
13.0
 40
13.0
 40
14.0
 40
14.0
 40
14.0
 40
15.0
 40
15.0
 40
15.0
 40
16.0
 40
16.0
 40
16.0
 40
17.0
 40
17.0
 40
17.0
 40
18.0
 40
18.0
 40
18.0
 40
19.0
 40
19.0
 40
19.0
 40
20.0
 40
20.0
 40
20.0
 40
21.0
 40
21.0
 40
21.0
 40
22.0
 40
22.0
 40
22.0
 40
23.0
 40
23.0
 40
23.0
 40
24.0
 40
24.0
 40
24.0
 40
25.0
 40
25.0
 40
25.0
 40
26.0
 40
26.0
 40
26.0
 40
27.0
 40
27.0
 40
27.0
 40
28.0
 40
28.0
 40
28.0
 40
29.0
 40
29.0
 40
29.0
 40
30.0
 40
30.0
 40
30.0
 40
31.0
 40
31.0
 40
31.0
 40
32.0
 40
32.0
 40
32.0
 40
33.0
 40
33.0
 40
33.0
 40
34.0
 40
34.0
 40
34.0
 40
35.0
 40
35.0
 40
35.0
 40
36.0
 40
36.0
 40
36.0
 40
37.0
 40
37.0
 40
37.0
 40
38.0
 40
38.0
 40
38.0
 40
39.0
 40
39.0
 40
39.0
 40
40.0
 40
40.0
 40
40.0
 40
41.0
 40
41.0
 40
41.0
 40
41.0
 10
1142.352523524024
 20
-1949.277612724849
 10
1142.785002496128
 20
-1949.195568063228
 10
1143.195994951203
 20
-1949.125583327401
 10
1143.640224954553
 20
-1949.135372108006
 10
1143.856642802865
 20
-1949.140140959322
 10
1143.971621348226
 20
-1949.150128431092
 10
1144.175242061033
 20
-1949.222031218759
 10
1144.214016779988
 20
-1949.235723393513
 10
1144.358827196416
 20
-1949.30908620403
 10
1144.417817103638
 20
-1949.345494465197
 10
1144.290246941428
 20
-1949.266758830549
 10
1144.377962165607
 20
-1949.304564798616
 10
1144.444296932191
 20
-1949.383341358618
 10
1144.485910508631
 20
-1949.429886287967
 10
1144.486864626374
 20
-1949.429091302995
 10
1144.447159285417
 20
-1949.380956403694
 10
1144.399900884208
 20
-1949.318519314536
 10
1144.406968033437
 20
-1949.333043185079
 10
1144.4683607331
 20
-1949.424528015324
 10
1144.483561945254
 20
-1949.452300267455
 10
1144.49876315741
 20
-1949.480072519586
 10
1144.513964369564
 20
-1949.507844771717
 10
1144.475059201575
 20
-1949.403441436259
 10
1144.46886934543
 20
-1949.388690032628
 10
1144.495394801132
 20
-1949.463590560826
 10
1144.519366896477
 20
-1949.539804278882
 10
1144.53911057769
 20
-1949.614568793767
 10
1144.558591592829
 20
-1949.692227035338
 10
1144.521975200399
 20
-1949.546261097317
 10
1144.547945637756
 20
-1949.604559538208
 10
1144.552798411809
 20
-1949.723719412571
 10
1144.555593067652
 20
-1949.792342191065
 10
1144.514818439128
 20
-1949.984214245024
 10
1144.562245004798
 20
-1949.744303342004
 10
1144.555906833502
 20
-1949.776365465374
 10
1144.505273637184
 20
-1950.015397455947
 10
1144.534955651064
 20
-1949.857167575332
 10
1144.568494139597
 20
-1949.778219275547
 10
1144.56068914137
 20
-1949.783877872652
 10
1144.511540656377
 20
-1949.874143366638
 10
1144.533908334783
 20
-1949.842784476576
 10
1144.556276013185
 20
-1949.811425586515
 10
1144.57864369159
 20
-1949.780066696453
 10
1144.731558456931
 20
-1949.632086663227
 10
1144.497166315598
 20
-1949.792035747127
 10
1144.695910690834
 20
-1949.719411762568
 10
1143.941155591654
 20
-1949.995209870583
 10
1143.578898721712
 20
-1950.943197312234
 10
1144.209444280713
 20
-1951.561998554398
 10
1145.082669375055
 20
-1952.418959269382
 10
1146.242342920976
 20
-1952.686059753687
 10
1147.367768367286
 20
-1953.051376702909
 10
1147.506741472478
 20
-1953.09648784819
 10
1147.644175603348
 20
-1953.145081211607
 10
1147.781047890588
 20
-1953.196170336352
 10
1147.903832023087
 20
-1953.244570578171
 10
1147.914697373128
 20
-1953.249005188169
 10
1147.813643940712
 20
-1953.209474166343
 10
1147.877335416299
 20
-1953.238802000759
 10
1147.940163054185
 20
-1953.269876181036
 10
1148.00212685437
 20
-1953.302696707172
 10
1148.094138684765
 20
-1953.351758766114
 10
1148.180378317774
 20
-1953.406518102574
 10
1148.268779256894
 20
-1953.461552505954
 10
1148.37382885328
 20
-1953.535399220711
 10
1148.38077055443
 20
-1953.539950317413
 10
1148.289604360353
 20
-1953.475205796059
 10
1148.341206224156
 20
-1953.52005014722
 10
1148.390576683783
 20
-1953.567229712266
 10
1148.437715739237
 20
-1953.616744491191
 10
1148.521056156249
 20
-1953.71300303173
 10
1148.529442218921
 20
-1953.719366481349
 10
1148.462873927248
 20
-1953.635834840049
 10
1148.510349561689
 20
-1953.704118229595
 10
1148.55341964302
 20
-1953.775101345975
 10
1148.592084171243
 20
-1953.848784189186
 10
1148.585444427409
 20
-1953.834266691755
 10
1148.666641069933
 20
-1954.09632446952
 10
1148.668550784314
 20
-1954.106659508788
 10
1148.703382630383
 20
-1954.295163350426
 10
1148.682704222175
 20
-1954.62357626269
 10
1148.63216098709
 20
-1954.85941742251
 10
1148.340051895946
 20
-1956.222435573805
 10
1147.60035263523
 20
-1957.541922337605
 10
1146.89449868112
 20
-1958.72896034721
 10
1146.143403570729
 20
-1959.992080628208
 10
1145.268919364373
 20
-1961.162342565563
 10
1144.273477023394
 20
-1962.242897161425
 10
1143.313335994399
 20
-1963.285132114512
 10
1144.868639330117
 20
-1964.848295513382
 10
1145.832549266244
 20
-1963.801969404275
 10
1147.592961241102
 20
-1961.891038784057
 10
1149.054377304191
 20
-1959.705075488341
 10
1150.087744099442
 20
-1957.318879992891
 10
1150.620808413815
 20
-1956.087956305773
 10
1151.173713813628
 20
-1954.67041565552
 10
1150.740022979821
 20
-1953.320779502717
 10
1150.361603631617
 20
-1952.143146974091
 10
1149.42786764236
 20
-1951.470022655565
 10
1148.316385869977
 20
-1951.051019472678
 10
1147.829882261253
 20
-1950.867618749778
 10
1147.323676670361
 20
-1950.743769487355
 10
1146.83084991153
 20
-1950.579406780263
 10
1146.437499719116
 20
-1950.448220513892
 10
1146.024292938856
 20
-1950.253938726494
 10
1145.768516523562
 20
-1950.002926311549
 10
1145.606361053524
 20
-1950.617121908823
 10
1145.444205583483
 20
-1951.231317506099
 10
1145.282050113442
 20
-1951.845513103378
 10
1146.75746543807
 20
-1951.306375632814
 10
1147.140920331958
 20
-1949.558403644784
 10
1146.347060813664
 20
-1948.271558242879
 10
1145.36949600836
 20
-1946.686926773744
 10
1143.347524807727
 20
-1946.851556559423
 10
1141.766384101417
 20
-1947.151511384042
 10
1141.18108892334
 20
-1947.262546481543
 10
1140.847847595908
 20
-1947.967065746132
 10
1140.996403142316
 20
-1948.507631765751
 10
1141.164911895373
 20
-1949.120803795414
 10
1141.765544015301
 20
-1949.388967353122
 10
1142.352523524024
 20
-1949.277612724849
 10
1142.352523524024
 20
-1949.277612724849
 10
1142.352523524024
 20
-1949.277612724849
 10
1142.352523524024
 20
-1949.277612724849
 97
        0
 97
        1
330
93
 75
     2
 76
     1
 98
        1
 10
0.0
 20
0.0
450
        0
451
        0
460
0.0
461
0.0
452
        0
462
0.0
453
        0
470

  0
SPLINE
  5
95
330
70
100
AcDbEntity
  8
2023-009
100
AcDbSpline
210
0.0
220
0.0
230
1.0
 70
     9
 71
     3
 72
   161
 73
   157
 74
     0
 42
0.0000000001
 43
0.0000000001
 40
0.0
 40
0.0
 40
0.0
 40
0.0
 40
1.0
 40
1.0
 40
1.0
 40
2.0
 40
2.0
 40
2.0
 40
3.0
 40
3.0
 40
3.0
 40
4.0
 40
4.0
 40
4.0
 40
5.0
 40
5.0
 40
5.0
 40
6.0
 40
6.0
 40
6.0
 40
7.0
 40
7.0
 40
7.0
 40
8.0
 40
8.0
 40
8.0
 40
9.0
 40
9.0
 40
9.0
 40
10.0
 40
10.0
 40
10.0
 40
11.0
 40
11.0
 40
11.0
 40
12.0
 40
12.0
 40
12.0
 40
13.0
 40
13.0
 40
13.0
 40
14.0
 40
14.0
 40
14.0
 40
15.0
 40
15.0
 40
15.0
 40
16.0
 40
16.0
 40
16.0
 40
17.0
 40
17.0
 40
17.0
 40
18.0
 40
18.0
 40
18.0
 40
19.0
 40
19.0
 40
19.0
 40
20.0
 40
20.0
 40
20.0
 40
21.0
 40
21.0
 40
21.0
 40
22.0
 40
22.0
 40
22.0
 40
23.0
 40
23.0
 40
23.0
 40
24.0
 40
24.0
 40
24.0
 40
25.0
 40
25.0
 40
25.0
 40
26.0
 40
26.0
 40
26.0
 40
27.0
 40
27.0
 40
27.0
 40
28.0
 40
28.0
 40
28.0
 40
29.0
 40
29.0
 40
29.0
 40
30.0
 40
30.0
 40
30.0
 40
31.0
 40
31.0
 40
31.0
 40
32.0
 40
32.0
 40
32.0
 40
33.0
 40
33.0
 40
33.0
 40
34.0
 40
34.0
 40
34.0
 40
35.0
 40
35.0
 40
35.0
 40
36.0
 40
36.0
 40
36.0
 40
37.0
 40
37.0
 40
37.0
 40
38.0
 40
38.0
 40
38.0
 40
39.0
 40
39.0
 40
39.0
 40
40.0
 40
40.0
 40
40.0
 40
41.0
 40
41.0
 40
41.0
 40
42.0
 40
42.0
 40
42.0
 40
43.0
 40
43.0
 40
43.0
 40
44.0
 40
44.0
 40
44.0
 40
45.0
 40
45.0
 40
45.0
 40
46.0
 40
46.0
 40
46.0
 40
47.0
 40
47.0
 40
47.0
 40
48.0
 40
48.0
 40
48.0
 40
49.0
 40
49.0
 40
49.0
 40
50.0
 40
50.0
 40
50.0
 40
51.0
 40
51.0
 40
51.0
 40
52.0
 40
52.0
 40
52.0
 40
52.0
 10
1057.354837714842
 20
-254.8364417448701
 30
0.0
 10
1056.888294197041
 20
-261.2330008002743
 30
0.0
 10
1056.784403947013
 20
-267.6820397622376
 30
0.0
 10
1055.875132521138
 20
-274.0149954524622
 30
0.0
 10
1054.276384930551
 20
-285.150718250792
 30
0.0
 10
1052.027307192517
 20
-296.1920342605671
 30
0.0
 10
1050.342780623978
 20
-307.3172040342539
 30
0.0
 10
1048.537571661551
 20
-319.2384141308219
 30
0.0
 10
1047.05451516945
 20
-331.2083963145887
 30
0.0
 10
1045.458191922386
 20
-343.1609802684057
 30
0.0
 10
1043.528200573202
 20
-357.6123493421631
 30
0.0
 10
1041.554571040768
 20
-372.0585845120104
 30
0.0
 10
1039.742552525173
 20
-386.5250700805931
 30
0.0
 10
1038.793742908806
 20
-394.0995748664769
 30
0.0
 10
1038.513802537246
 20
-401.7724794773029
 30
0.0
 10
1037.275747348423
 20
-409.2927930552251
 30
0.0
 10
1035.776397841787
 20
-418.4003385921246
 30
0.0
 10
1034.590608646981
 20
-427.7819775544326
 30
0.0
 10
1031.30975883142
 20
-436.2894267675788
 30
0.0
 10
1029.366469245071
 20
-441.3286386724307
 30
0.0
 10
1024.067995192718
 20
-445.4525895968191
 30
0.0
 10
1019.521958932285
 20
-449.026071935333
 30
0.0
 10
1011.630685144655
 20
-455.2278278589225
 30
0.0
 10
1002.920125858104
 20
-460.3811265173363
 30
0.0
 10
994.9659973997489
 20
-466.5098669187072
 30
0.0
 10
973.6959126303499
 20
-482.8981438510759
 30
0.0
 10
951.2090926342196
 20
-497.8763085093804
 30
0.0
 10
934.3958425448745
 20
-519.4515396924369
 30
0.0
 10
928.0069130411002
 20
-527.649243369666
 30
0.0
 10
920.8287884196582
 20
-535.2574037478166
 30
0.0
 10
913.713839337997
 20
-542.8564371857453
 30
0.0
 10
907.01573473214
 20
-550.0102470678813
 30
0.0
 10
899.9365803693345
 20
-556.8075358451062
 30
0.0
 10
893.0072718269332
 20
-563.7437252448171
 30
0.0
 10
885.050540764529
 20
-571.7086919447678
 30
0.0
 10
877.312998877362
 20
-579.9143816947673
 30
0.0
 10
869.0252736211403
 20
-587.5196899040999
 30
0.0
 10
863.2242830715172
 20
-592.8429778252991
 30
0.0
 10
856.7674362973308
 20
-597.4817452251413
 30
0.0
 10
850.3973489340346
 20
-602.1444708432642
 30
0.0
 10
846.2796727810539
 20
-605.1583576554699
 30
0.0
 10
841.955196561209
 20
-607.9859978425417
 30
0.0
 10
837.422547668231
 20
-610.3102302294841
 30
0.0
 10
832.2639903235703
 20
-612.9559020446073
 30
0.0
 10
829.3139386151286
 20
-608.9078188113049
 30
0.0
 10
827.1646689604171
 20
-605.3597207755071
 30
0.0
 10
823.6366787149558
 20
-599.5347363555318
 30
0.0
 10
820.8907709911875
 20
-593.2422814627834
 30
0.0
 10
817.6554845728322
 20
-587.2327617188924
 30
0.0
 10
810.4112965906004
 20
-573.7767995699796
 30
0.0
 10
803.059795755859
 20
-560.3784512316101
 30
0.0
 10
795.7695274208082
 20
-546.9473029515889
 30
0.0
 10
791.1018105072479
 20
-538.3474434680965
 30
0.0
 10
786.7733590770869
 20
-529.5447947800827
 30
0.0
 10
781.7198506759151
 20
-521.179098358244
 30
0.0
 10
777.3996705354112
 20
-514.0275702112003
 30
0.0
 10
772.143979015698
 20
-507.4479019163621
 30
0.0
 10
767.525640275111
 20
-500.4675038996672
 30
0.0
 10
763.8107438404605
 20
-494.8524391061865
 30
0.0
 10
760.5935865202654
 20
-488.9070931611675
 30
0.0
 10
756.8442679728747
 20
-483.3171274535382
 30
0.0
 10
754.3594763063031
 20
-479.6124453484869
 30
0.0
 10
751.2866387294291
 20
-476.3064964471204
 30
0.0
 10
748.5441892603566
 20
-472.7698070866824
 30
0.0
 10
738.9102224860896
 20
-460.3483265756773
 30
0.0
 10
729.2472527199249
 20
-447.9488077647779
 30
0.0
 10
719.7099477301231
 20
-435.4531708639583
 30
0.0
 10
713.0995829682055
 20
-426.7919897504156
 30
0.0
 10
706.7277575645001
 20
-417.9491254817715
 30
0.0
 10
700.1405042831791
 20
-409.2699757045119
 30
0.0
 10
698.2330094157516
 20
-406.7575001741928
 30
0.0
 10
696.2197703885616
 20
-404.1934003878903
 30
0.0
 10
693.785364067189
 20
-402.2373829980661
 30
0.0
 10
686.4162421767974
 20
-396.315710054407
 30
0.0
 10
688.1818505575052
 20
-388.7132540138958
 30
0.0
 10
689.3234935265617
 20
-381.0868397551431
 30
0.0
 10
691.1006888431775
 20
-369.215257396347
 30
0.0
 10
692.764947186831
 20
-357.3262768076053
 30
0.0
 10
694.4620411242896
 20
-345.4424301227723
 30
0.0
 10
695.0988769478653
 20
-340.9833493597787
 30
0.0
 10
695.5952167170612
 20
-336.5014512461111
 30
0.0
 10
696.3287945424304
 20
-332.0586278455021
 30
0.0
 10
697.7100553460782
 20
-323.6937870743141
 30
0.0
 10
699.2182644021007
 20
-315.3494819187399
 30
0.0
 10
700.6689309518288
 20
-306.9957646060184
 30
0.0
 10
700.767740776056
 20
-306.4264717057564
 30
0.0
 10
700.8904820793808
 20
-305.8511892509332
 30
0.0
 10
700.8948762020512
 20
-305.2776180973971
 30
0.0
 10
701.0079914356031
 20
-290.5316199825776
 30
0.0
 10
705.6442186225411
 20
-276.5140657892544
 30
0.0
 10
707.8060734722553
 20
-262.1012009948334
 30
0.0
 10
708.854905084673
 20
-255.1088238689791
 30
0.0
 10
709.2559645885938
 20
-248.0191877857511
 30
0.0
 10
710.31483227007
 20
-241.0288071781114
 30
0.0
 10
711.6630168281775
 20
-232.128899532692
 30
0.0
 10
713.3804413815957
 20
-223.2848943965527
 30
0.0
 10
714.93867034864
 20
-214.4169310421418
 30
0.0
 10
715.5289177769192
 20
-214.438892742211
 30
0.0
 10
716.1191562920912
 20
-214.4611396591955
 30
0.0
 10
716.7094037202998
 20
-214.4831013592262
 30
0.0
 10
725.1477234912149
 20
-224.3470420722132
 30
0.0
 10
733.3431632594241
 20
-234.4325963040749
 30
0.0
 10
742.0896776993757
 20
-244.0153131694949
 30
0.0
 10
751.7066562430463
 20
-254.5512248609566
 30
0.0
 10
758.1046592088986
 20
-267.3608855509624
 30
0.0
 10
767.2938124266972
 20
-278.2230853576112
 30
0.0
 10
775.8371989672101
 20
-288.321474349207
 30
0.0
 10
783.3217000001765
 20
-299.3145887055762
 30
0.0
 10
791.3078084016515
 20
-309.8870081581985
 30
0.0
 10
795.1401785404239
 20
-314.960160872242
 30
0.0
 10
799.5140329332659
 20
-319.6916237593444
 30
0.0
 10
802.8021379533196
 20
-325.0899237210163
 30
0.0
 10
806.0917047099291
 20
-330.4910758515718
 30
0.0
 10
808.0998098331383
 20
-336.6560387971873
 30
0.0
 10
811.1015036236045
 20
-342.2542757944774
 30
0.0
 10
813.966756787218
 20
-347.5978141144533
 30
0.0
 10
817.7064492647613
 20
-352.4793010824869
 30
0.0
 10
820.4736947766141
 20
-357.8661923688333
 30
0.0
 10
823.0781170999161
 20
-362.9362076971689
 30
0.0
 10
824.8697247822232
 20
-368.4192170733634
 30
0.0
 10
827.0988195123628
 20
-373.6868877021902
 30
0.0
 10
832.1782826499161
 20
-385.6916663457943
 30
0.0
 10
836.4372837688492
 20
-398.1679084984861
 30
0.0
 10
842.8171219843958
 20
-409.4408206180104
 30
0.0
 10
845.6013913790288
 20
-414.3602414315824
 30
0.0
 10
848.9030263750144
 20
-418.9505219611803
 30
0.0
 10
851.1482893372452
 20
-424.3388393319402
 30
0.0
 10
853.0136612361255
 20
-428.8158887586115
 30
0.0
 10
858.5913626177941
 20
-429.529216185242
 30
0.0
 10
862.2180913832625
 20
-426.0775214562179
 30
0.0
 10
873.2175339892938
 20
-415.6089209493297
 30
0.0
 10
883.972670508138
 20
-404.8839104638393
 30
0.0
 10
894.8409311736025
 20
-394.2769797682652
 30
0.0
 10
900.289857132172
 20
-388.9596814015876
 30
0.0
 10
905.8268438036666
 20
-383.7316559195916
 30
0.0
 10
911.2256072427703
 20
-378.3644445982521
 30
0.0
 10
913.6831428708442
 20
-375.9209915538404
 30
0.0
 10
915.7847991319952
 20
-373.1187356694567
 30
0.0
 10
918.2510695271586
 20
-370.6849799991052
 30
0.0
 10
928.0510503538982
 20
-361.0161276346754
 30
0.0
 10
937.8382320730871
 20
-351.3301622572441
 30
0.0
 10
947.8122308511064
 20
-341.8421373972285
 30
0.0
 10
955.2562845647056
 20
-334.7604873867386
 30
0.0
 10
962.6853643919595
 20
-327.6106705409879
 30
0.0
 10
970.644163276756
 20
-321.1339655412385
 30
0.0
 10
985.1823452395448
 20
-309.302883979956
 30
0.0
 10
1000.224541088277
 20
-298.0930047918107
 30
0.0
 10
1014.82422294167
 20
-286.3352239696681
 30
0.0
 10
1022.631749921721
 20
-280.0473325470703
 30
0.0
 10
1029.750977256681
 20
-272.9040756896411
 30
0.0
 10
1037.564315530706
 20
-266.6238851229299
 30
0.0
 10
1043.243054993511
 20
-262.0587036791435
 30
0.0
 10
1049.550697685305
 20
-258.2758721478928
 30
0.0
 10
1055.577972180181
 20
-254.1442203676514
 30
0.0
 10
1056.170260691778
 20
-254.3749608267265
 30
0.0
 10
1056.762549203311
 20
-254.605701285795
 30
0.0
 10
1057.354837714842
 20
-254.8364417448701
 30
0.0
  0
HATCH
  5
96
330
70
100
AcDbEntity
  8
2023-009
 62
    18
420
        0
440
 33554687
100
AcDbHatch
 10
0.0
 20
0.0
 30
0.0
210
0.0
220
0.0
230
1.0
  2
SOLID
 70
     1
 71
     1
 91
        1
 92
        1
 93
        1
 72
     4
 94
        3
 73
     0
 74
     0
 95
      161
 96
      157
 40
0.0
 40
0.0
 40
0.0
 40
0.0
 40
1.0
 40
1.0
 40
1.0
 40
2.0
 40
2.0
 40
2.0
 40
3.0
 40
3.0
 40
3.0
 40
4.0
 40
4.0
 40
4.0
 40
5.0
 40
5.0
 40
5.0
 40
6.0
 40
6.0
 40
6.0
 40
7.0
 40
7.0
 40
7.0
 40
8.0
 40
8.0
 40
8.0
 40
9.0
 40
9.0
 40
9.0
 40
10.0
 40
10.0
 40
10.0
 40
11.0
 40
11.0
 40
11.0
 40
12.0
 40
12.0
 40
12.0
 40
13.0
 40
13.0
 40
13.0
 40
14.0
 40
14.0
 40
14.0
 40
15.0
 40
15.0
 40
15.0
 40
16.0
 40
16.0
 40
16.0
 40
17.0
 40
17.0
 40
17.0
 40
18.0
 40
18.0
 40
18.0
 40
19.0
 40
19.0
 40
19.0
 40
20.0
 40
20.0
 40
20.0
 40
21.0
 40
21.0
 40
21.0
 40
22.0
 40
22.0
 40
22.0
 40
23.0
 40
23.0
 40
23.0
 40
24.0
 40
24.0
 40
24.0
 40
25.0
 40
25.0
 40
25.0
 40
26.0
 40
26.0
 40
26.0
 40
27.0
 40
27.0
 40
27.0
 40
28.0
 40
28.0
 40
28.0
 40
29.0
 40
29.0
 40
29.0
 40
30.0
 40
30.0
 40
30.0
 40
31.0
 40
31.0
 40
31.0
 40
32.0
 40
32.0
 40
32.0
 40
33.0
 40
33.0
 40
33.0
 40
34.0
 40
34.0
 40
34.0
 40
35.0
 40
35.0
 40
35.0
 40
36.0
 40
36.0
 40
36.0
 40
37.0
 40
37.0
 40
37.0
 40
38.0
 40
38.0
 40
38.0
 40
39.0
 40
39.0
 40
39.0
 40
40.0
 40
40.0
 40
40.0
 40
41.0
 40
41.0
 40
41.0
 40
42.0
 40
42.0
 40
42.0
 40
43.0
 40
43.0
 40
43.0
 40
44.0
 40
44.0
 40
44.0
 40
45.0
 40
45.0
 40
45.0
 40
46.0
 40
46.0
 40
46.0
 40
47.0
 40
47.0
 40
47.0
 40
48.0
 40
48.0
 40
48.0
 40
49.0
 40
49.0
 40
49.0
 40
50.0
 40
50.0
 40
50.0
 40
51.0
 40
51.0
 40
51.0
 40
52.0
 40
52.0
 40
52.0
 40
52.0
 10
1057.354837714842
 20
-254.8364417448701
 10
1056.888294197041
 20
-261.2330008002743
 10
1056.784403947013
 20
-267.6820397622376
 10
1055.875132521138
 20
-274.0149954524622
 10
1054.276384930551
 20
-285.150718250792
 10
1052.027307192517
 20
-296.1920342605671
 10
1050.342780623978
 20
-307.3172040342539
 10
1048.537571661551
 20
-319.2384141308219
 10
1047.05451516945
 20
-331.2083963145887
 10
1045.458191922386
 20
-343.1609802684057
 10
1043.528200573202
 20
-357.6123493421631
 10
1041.554571040768
 20
-372.0585845120104
 10
1039.742552525173
 20
-386.5250700805931
 10
1038.793742908806
 20
-394.0995748664769
 10
1038.513802537246
 20
-401.7724794773029
 10
1037.275747348423
 20
-409.2927930552251
 10
1035.776397841787
 20
-418.4003385921246
 10
1034.590608646981
 20
-427.7819775544326
 10
1031.30975883142
 20
-436.2894267675788
 10
1029.366469245071
 20
-441.3286386724307
 10
1024.067995192718
 20
-445.4525895968191
 10
1019.521958932285
 20
-449.026071935333
 10
1011.630685144655
 20
-455.2278278589225
 10
1002.920125858104
 20
-460.3811265173363
 10
994.9659973997489
 20
-466.5098669187072
 10
973.6959126303499
 20
-482.8981438510759
 10
951.2090926342196
 20
-497.8763085093804
 10
934.3958425448745
 20
-519.4515396924369
 10
928.0069130411002
 20
-527.649243369666
 10
920.8287884196582
 20
-535.2574037478166
 10
913.713839337997
 20
-542.8564371857453
 10
907.01573473214
 20
-550.0102470678813
 10
899.9365803693345
 20
-556.8075358451062
 10
893.0072718269332
 20
-563.7437252448171
 10
885.050540764529
 20
-571.7086919447678
 10
877.312998877362
 20
-579.9143816947673
 10
869.0252736211403
 20
-587.5196899040999
 10
863.2242830715172
 20
-592.8429778252991
 10
856.7674362973308
 20
-597.4817452251413
 10
850.3973489340346
 20
-602.1444708432642
 10
846.2796727810539
 20
-605.1583576554699
 10
841.955196561209
 20
-607.9859978425417
 10
837.422547668231
 20
-610.3102302294841
 10
832.2639903235703
 20
-612.9559020446073
 10
829.3139386151286
 20
-608.9078188113049
 10
827.1646689604171
 20
-605.3597207755071
 10
823.6366787149558
 20
-599.5347363555318
 10
820.8907709911875
 20
-593.2422814627834
 10
817.6554845728322
 20
-587.2327617188924
 10
810.4112965906004
 20
-573.7767995699796
 10
803.059795755859
 20
-560.3784512316101
 10
795.7695274208082
 20
-546.9473029515889
 10
791.1018105072479
 20
-538.3474434680965
 10
786.7733590770869
 20
-529.5447947800827
 10
781.7198506759151
 20
-521.179098358244
 10
777.3996705354112
 20
-514.0275702112003
 10
772.143979015698
 20
-507.4479019163621
 10
767.525640275111
 20
-500.4675038996672
 10
763.8107438404605
 20
-494.8524391061865
 10
760.5935865202654
 20
-488.9070931611675
 10
756.8442679728747
 20
-483.3171274535382
 10
754.3594763063031
 20
-479.6124453484869
 10
751.2866387294291
 20
-476.3064964471204
 10
748.5441892603566
 20
-472.7698070866824
 10
738.9102224860896
 20
-460.3483265756773
 10
729.2472527199249
 20
-447.9488077647779
 10
719.7099477301231
 20
-435.4531708639583
 10
713.0995829682055
 20
-426.7919897504156
 10
706.7277575645001
 20
-417.9491254817715
 10
700.1405042831791
 20
-409.2699757045119
 10
698.2330094157516
 20
-406.7575001741928
 10
696.2197703885616
 20
-404.1934003878903
 10
693.785364067189
 20
-402.2373829980661
 10
686.4162421767974
 20
-396.315710054407
 10
688.1818505575052
 20
-388.7132540138958
 10
689.3234935265617
 20
-381.0868397551431
 10
691.1006888431775
 20
-369.215257396347
 10
692.764947186831
 20
-357.3262768076053
 10
694.4620411242896
 20
-345.4424301227723
 10
695.0988769478653
 20
-340.9833493597787
 10
695.5952167170612
 20
-336.5014512461111
 10
696.3287945424304
 20
-332.0586278455021
 10
697.7100553460782
 20
-323.6937870743141
 10
699.2182644021007
 20
-315.3494819187399
 10
700.6689309518288
 20
-306.9957646060184
 10
700.767740776056
 20
-306.4264717057564
 10
700.8904820793808
 20
-305.8511892509332
 10
700.8948762020512
 20
-305.2776180973971
 10
701.0079914356031
 20
-290.5316199825776
 10
705.6442186225411
 20
-276.5140657892544
 10
707.8060734722553
 20
-262.1012009948334
 10
708.854905084673
 20
-255.1088238689791
 10
709.2559645885938
 20
-248.0191877857511
 10
710.31483227007
 20
-241.0288071781114
 10
711.6630168281775
 20
-232.128899532692
 10
713.3804413815957
 20
-223.2848943965527
 10
714.93867034864
 20
-214.4169310421418
 10
715.5289177769192
 20
-214.438892742211
 10
716.1191562920912
 20
-214.4611396591955
 10
716.7094037202998
 20
-214.4831013592262
 10
725.1477234912149
 20
-224.3470420722132
 10
733.3431632594241
 20
-234.4325963040749
 10
742.0896776993757
 20
-244.0153131694949
 10
751.7066562430463
 20
-254.5512248609566
 10
758.1046592088986
 20
-267.3608855509624
 10
767.2938124266972
 20
-278.2230853576112
 10
775.8371989672101
 20
-288.321474349207
 10
783.3217000001765
 20
-299.3145887055762
 10
791.3078084016515
 20
-309.8870081581985
 10
795.1401785404239
 20
-314.960160872242
 10
799.5140329332659
 20
-319.6916237593444
 10
802.8021379533196
 20
-325.0899237210163
 10
806.0917047099291
 20
-330.4910758515718
 10
808.0998098331383
 20
-336.6560387971873
 10
811.1015036236045
 20
-342.2542757944774
 10
813.966756787218
 20
-347.5978141144533
 10
817.7064492647613
 20
-352.4793010824869
 10
820.4736947766141
 20
-357.8661923688333
 10
823.0781170999161
 20
-362.9362076971689
 10
824.8697247822232
 20
-368.4192170733634
 10
827.0988195123628
 20
-373.6868877021902
 10
832.1782826499161
 20
-385.6916663457943
 10
836.4372837688492
 20
-398.1679084984861
 10
842.8171219843958
 20
-409.4408206180104
 10
845.6013913790288
 20
-414.3602414315824
 10
848.9030263750144
 20
-418.9505219611803
 10
851.1482893372452
 20
-424.3388393319402
 10
853.0136612361255
 20
-428.8158887586115
 10
858.5913626177941
 20
-429.529216185242
 10
862.2180913832625
 20
-426.0775214562179
 10
873.2175339892938
 20
-415.6089209493297
 10
883.972670508138
 20
-404.8839104638393
 10
894.8409311736025
 20
-394.2769797682652
 10
900.289857132172
 20
-388.9596814015876
 10
905.8268438036666
 20
-383.7316559195916
 10
911.2256072427703
 20
-378.3644445982521
 10
913.6831428708442
 20
-375.9209915538404
 10
915.7847991319952
 20
-373.1187356694567
 10
918.2510695271586
 20
-370.6849799991052
 10
928.0510503538982
 20
-361.0161276346754
 10
937.8382320730871
 20
-351.3301622572441
 10
947.8122308511064
 20
-341.8421373972285
 10
955.2562845647056
 20
-334.7604873867386
 10
962.6853643919595
 20
-327.6106705409879
 10
970.644163276756
 20
-321.1339655412385
 10
985.1823452395448
 20
-309.302883979956
 10
1000.224541088277
 20
-298.0930047918107
 10
1014.82422294167
 20
-286.3352239696681
 10
1022.631749921721
 20
-280.0473325470703
 10
1029.750977256681
 20
-272.9040756896411
 10
1037.564315530706
 20
-266.6238851229299
 10
1043.243054993511
 20
-262.0587036791435
 10
1049.550697685305
 20
-258.2758721478928
 10
1055.577972180181
 20
-254.1442203676514
 10
1056.170260691778
 20
-254.3749608267265
 10
1056.762549203311
 20
-254.605701285795
 10
1057.354837714842
 20
-254.8364417448701
 97
        0
 97
        1
330
95
 75
     2
 76
     1
 98
        1
 10
0.0
 20
0.0
450
        0
451
        0
460
0.0
461
0.0
452
        0
462
0.0
453
        0
470

  0
SPLINE
  5
97
330
70
100
AcDbEntity
  8
2023-009
100
AcDbSpline
210
0.0
220
0.0
230
1.0
 70
     9
 71
     3
 72
   131
 73
   127
 74
     0
 42
0.0000000001
 43
0.0000000001
 40
0.0
 40
0.0
 40
0.0
 40
0.0
 40
1.0
 40
1.0
 40
1.0
 40
2.0
 40
2.0
 40
2.0
 40
3.0
 40
3.0
 40
3.0
 40
4.0
 40
4.0
 40
4.0
 40
5.0
 40
5.0
 40
5.0
 40
6.0
 40
6.0
 40
6.0
 40
7.0
 40
7.0
 40
7.0
 40
8.0
 40
8.0
 40
8.0
 40
9.0
 40
9.0
 40
9.0
 40
10.0
 40
10.0
 40
10.0
 40
11.0
 40
11.0
 40
11.0
 40
12.0
 40
12.0
 40
12.0
 40
13.0
 40
13.0
 40
13.0
 40
14.0
 40
14.0
 40
14.0
 40
15.0
 40
15.0
 40
15.0
 40
16.0
 40
16.0
 40
16.0
 40
17.0
 40
17.0
 40
17.0
 40
18.0
 40
18.0
 40
18.0
 40
19.0
 40
19.0
 40
19.0
 40
20.0
 40
20.0
 40
20.0
 40
21.0
 40
21.0
 40
21.0
 40
22.0
 40
22.0
 40
22.0
 40
23.0
 40
23.0
 40
23.0
 40
24.0
 40
24.0
 40
24.0
 40
25.0
 40
25.0
 40
25.0
 40
26.0
 40
26.0
 40
26.0
 40
27.0
 40
27.0
 40
27.0
 40
28.0
 40
28.0
 40
28.0
 40
29.0
 40
29.0
 40
29.0
 40
30.0
 40
30.0
 40
30.0
 40
31.0
 40
31.0
 40
31.0
 40
32.0
 40
32.0
 40
32.0
 40
33.0
 40
33.0
 40
33.0
 40
34.0
 40
34.0
 40
34.0
 40
35.0
 40
35.0
 40
35.0
 40
36.0
 40
36.0
 40
36.0
 40
37.0
 40
37.0
 40
37.0
 40
38.0
 40
38.0
 40
38.0
 40
39.0
 40
39.0
 40
39.0
 40
40.0
 40
40.0
 40
40.0
 40
41.0
 40
41.0
 40
41.0
 40
42.0
 40
42.0
 40
42.0
 40
42.0
 10
559.5748879623218
 20
-1475.792864621287
 30
0.0
 10
558.4986831964219
 20
-1464.718346801789
 30
0.0
 10
557.6619125667478
 20
-1453.618679785251
 30
0.0
 10
556.4523395418765
 20
-1442.559320385888
 30
0.0
 10
554.356644894506
 20
-1423.397785424317
 30
0.0
 10
551.9091198707033
 20
-1404.27414651308
 30
0.0
 10
549.8918442093152
 20
-1385.104773959279
 30
0.0
 10
548.5461468490837
 20
-1372.316579518032
 30
0.0
 10
548.0184874118255
 20
-1359.438640339394
 30
0.0
 10
546.5416180409911
 20
-1346.668446522059
 30
0.0
 10
544.1058924692272
 20
-1325.606166253887
 30
0.0
 10
540.9484193932995
 20
-1304.626740532135
 30
0.0
 10
538.5761266421566
 20
-1283.558172964701
 30
0.0
 10
536.9496539998772
 20
-1269.114179505857
 30
0.0
 10
536.3027942588286
 20
-1254.56269906787
 30
0.0
 10
534.9239378545503
 20
-1240.087269112721
 30
0.0
 10
532.9503287784397
 20
-1219.367948100106
 30
0.0
 10
530.2018746639996
 20
-1198.709777532354
 30
0.0
 10
528.7461495667073
 20
-1177.957900367403
 30
0.0
 10
527.6452262407034
 20
-1162.26187308183
 30
0.0
 10
525.7776399781495
 20
-1146.370422754859
 30
0.0
 10
517.7492325230156
 20
-1133.179496651386
 30
0.0
 10
504.4677004082804
 20
-1111.357572828716
 30
0.0
 10
483.8548759098522
 20
-1099.056084252145
 30
0.0
 10
457.8921195686866
 20
-1098.67531507364
 30
0.0
 10
435.6734068735055
 20
-1098.349495168121
 30
0.0
 10
413.417444083387
 20
-1099.420058590162
 30
0.0
 10
391.2001524900925
 20
-1100.385029835581
 30
0.0
 10
353.3492329032011
 20
-1102.029201655916
 30
0.0
 10
315.519500653542
 20
-1104.156375863284
 30
0.0
 10
277.6735118595639
 20
-1105.922504063797
 30
0.0
 10
253.8588802126855
 20
-1107.033891867339
 30
0.0
 10
230.0232765470406
 20
-1107.70249877364
 30
0.0
 10
206.2107980848405
 20
-1108.851868754905
 30
0.0
 10
180.8985403668305
 20
-1110.073671868749
 30
0.0
 10
155.6024530657543
 20
-1111.631888556727
 30
0.0
 10
130.298980341232
 20
-1113.036453986063
 30
0.0
 10
122.1608681267406
 20
-1113.48810600418
 30
0.0
 10
114.0182772881187
 20
-1113.866032978912
 30
0.0
 10
105.8835025098793
 20
-1114.370567212727
 30
0.0
 10
93.15871935740693
 20
-1115.159838588398
 30
0.0
 10
81.52762483042137
 20
-1118.428717439577
 30
0.0
 10
71.14150168441732
 20
-1126.613489166048
 30
0.0
 10
60.52083213140843
 20
-1134.983090265299
 30
0.0
 10
54.52546164950883
 20
-1146.190761025303
 30
0.0
 10
49.50806764848453
 20
-1158.024750144521
 30
0.0
 10
38.86095698762634
 20
-1183.137170792542
 30
0.0
 10
29.32002342338831
 20
-1208.729234859495
 30
0.0
 10
18.29050716366739
 20
-1233.666214019927
 30
0.0
 10
12.47535823933993
 20
-1246.81390417506
 30
0.0
 10
6.271947053824808
 20
-1259.788995046382
 30
0.0
 10
0.0
 20
-1272.734199714368
 30
0.0
 10
0.0
 20
-1272.734199714368
 30
0.0
 10
0.0
 20
-1567.140002049621
 30
0.0
 10
0.0
 20
-1567.140002049621
 30
0.0
 10
3.845824685724741
 20
-1558.005331370481
 30
0.0
 10
7.690723502037823
 20
-1548.869454907922
 30
0.0
 10
11.70690815950817
 20
-1539.811609858103
 30
0.0
 10
18.2150811043872
 20
-1525.133608288421
 30
0.0
 10
25.61215328000104
 20
-1510.851275935221
 30
0.0
 10
32.17195959346526
 20
-1496.194806212323
 30
0.0
 10
36.68658497211091
 20
-1486.107997268448
 30
0.0
 10
39.84558680915785
 20
-1475.387807519608
 30
0.0
 10
44.701168981609
 20
-1465.486258585451
 30
0.0
 10
50.54396479720558
 20
-1453.571654231877
 30
0.0
 10
57.46468792644328
 20
-1442.179929245577
 30
0.0
 10
64.05913898138106
 20
-1430.642218338086
 30
0.0
 10
75.63192526727909
 20
-1410.394358642627
 30
0.0
 10
88.02791711937789
 20
-1390.577997156696
 30
0.0
 10
98.7157229706556
 20
-1369.876073876281
 30
0.0
 10
106.9901533071286
 20
-1353.848714532416
 30
0.0
 10
113.4224480239447
 20
-1336.842861943352
 30
0.0
 10
120.2383756548905
 20
-1320.094616369195
 30
0.0
 10
127.9175150233591
 20
-1301.225397759548
 30
0.0
 10
135.0561835057325
 20
-1282.136640440101
 30
0.0
 10
142.5299521195867
 20
-1263.182844736288
 30
0.0
 10
147.8597732174296
 20
-1249.66601259991
 30
0.0
 10
156.6312231731906
 20
-1239.692461170112
 30
0.0
 10
171.9940451297988
 20
-1238.705010676654
 30
0.0
 10
200.3591311483694
 20
-1236.881952273245
 30
0.0
 10
228.7635989147058
 20
-1235.662388471466
 30
0.0
 10
257.1563748882391
 20
-1234.287967627626
 30
0.0
 10
262.6829324701366
 20
-1234.020455963196
 30
0.0
 10
268.2388594910458
 20
-1234.375300798177
 30
0.0
 10
273.767225748073
 20
-1234.128373579274
 30
0.0
 10
292.0061426068487
 20
-1233.313694624397
 30
0.0
 10
310.2310852970625
 20
-1232.119969038758
 30
0.0
 10
328.4762033277117
 20
-1231.529996436909
 30
0.0
 10
341.6192856676334
 20
-1231.104957781419
 30
0.0
 10
354.7865267396474
 20
-1231.48193735489
 30
0.0
 10
367.9419683596224
 20
-1231.371522044587
 30
0.0
 10
383.5118190230457
 20
-1231.240866798311
 30
0.0
 10
402.1913851262336
 20
-1245.514930922347
 30
0.0
 10
404.5964062844864
 20
-1260.948614186718
 30
0.0
 10
406.9250324503521
 20
-1275.89283551002
 30
0.0
 10
407.6565984766449
 20
-1291.084242434392
 30
0.0
 10
409.1484540128397
 20
-1306.16135831604
 30
0.0
 10
412.0144720107116
 20
-1335.125740226114
 30
0.0
 10
414.8607668369325
 20
-1364.092275320869
 30
0.0
 10
417.8347024508818
 20
-1393.045632925395
 30
0.0
 10
419.7425963306131
 20
-1411.618917832859
 30
0.0
 10
421.9084847984933
 20
-1430.165417122927
 30
0.0
 10
423.8774860593951
 20
-1448.732586985907
 30
0.0
 10
426.014349597814
 20
-1468.883294988682
 30
0.0
 10
428.0320989598322
 20
-1489.046663717366
 30
0.0
 10
430.1488086896624
 20
-1509.199524904818
 30
0.0
 10
431.8776867952424
 20
-1525.661224661987
 30
0.0
 10
433.7501823188647
 20
-1542.107938253796
 30
0.0
 10
435.4152830942711
 20
-1558.575839182839
 30
0.0
 10
436.4402851285221
 20
-1568.713893922057
 30
0.0
 10
436.8802238219884
 20
-1578.918955768465
 30
0.0
 10
438.1499137630773
 20
-1589.022559552831
 30
0.0
 10
439.797530678898
 20
-1602.133042676724
 30
0.0
 10
442.7388240131227
 20
-1614.736407745187
 30
0.0
 10
453.2124310526049
 20
-1624.285867920751
 30
0.0
 10
462.9449549895174
 20
-1633.159744871658
 30
0.0
 10
473.9046650019685
 20
-1639.472021074507
 30
0.0
 10
486.8446158993411
 20
-1641.930957977104
 30
0.0
 10
503.5445009456193
 20
-1645.104407683342
 30
0.0
 10
519.8252039987348
 20
-1643.559454612981
 30
0.0
 10
534.8068046080518
 20
-1635.184427488339
 30
0.0
 10
561.7397859652527
 20
-1620.1286711987
 30
0.0
 10
571.5960318937783
 20
-1596.487909214593
 30
0.0
 10
568.485282925372
 20
-1566.456839614896
 30
0.0
 10
565.3566194604422
 20
-1536.251964947968
 30
0.0
 10
562.5122625004309
 20
-1506.017462459867
 30
0.0
 10
559.5748879623218
 20
-1475.792864621287
 30
0.0
  0
HATCH
  5
98
330
70
100
AcDbEntity
  8
2023-009
 62
    18
420
        0
440
 33554687
100
AcDbHatch
 10
0.0
 20
0.0
 30
0.0
210
0.0
220
0.0
230
1.0
  2
SOLID
 70
     1
 71
     1
 91
        1
 92
        1
 93
        1
 72
     4
 94
        3
 73
     0
 74
     0
 95
      131
 96
      127
 40
0.0
 40
0.0
 40
0.0
 40
0.0
 40
1.0
 40
1.0
 40
1.0
 40
2.0
 40
2.0
 40
2.0
 40
3.0
 40
3.0
 40
3.0
 40
4.0
 40
4.0
 40
4.0
 40
5.0
 40
5.0
 40
5.0
 40
6.0
 40
6.0
 40
6.0
 40
7.0
 40
7.0
 40
7.0
 40
8.0
 40
8.0
 40
8.0
 40
9.0
 40
9.0
 40
9.0
 40
10.0
 40
10.0
 40
10.0
 40
11.0
 40
11.0
 40
11.0
 40
12.0
 40
12.0
 40
12.0
 40
13.0
 40
13.0
 40
13.0
 40
14.0
 40
14.0
 40
14.0
 40
15.0
 40
15.0
 40
15.0
 40
16.0
 40
16.0
 40
16.0
 40
17.0
 40
17.0
 40
17.0
 40
18.0
 40
18.0
 40
18.0
 40
19.0
 40
19.0
 40
19.0
 40
20.0
 40
20.0
 40
20.0
 40
21.0
 40
21.0
 40
21.0
 40
22.0
 40
22.0
 40
22.0
 40
23.0
 40
23.0
 40
23.0
 40
24.0
 40
24.0
 40
24.0
 40
25.0
 40
25.0
 40
25.0
 40
26.0
 40
26.0
 40
26.0
 40
27.0
 40
27.0
 40
27.0
 40
28.0
 40
28.0
 40
28.0
 40
29.0
 40
29.0
 40
29.0
 40
30.0
 40
30.0
 40
30.0
 40
31.0
 40
31.0
 40
31.0
 40
32.0
 40
32.0
 40
32.0
 40
33.0
 40
33.0
 40
33.0
 40
34.0
 40
34.0
 40
34.0
 40
35.0
 40
35.0
 40
35.0
 40
36.0
 40
36.0
 40
36.0
 40
37.0
 40
37.0
 40
37.0
 40
38.0
 40
38.0
 40
38.0
 40
39.0
 40
39.0
 40
39.0
 40
40.0
 40
40.0
 40
40.0
 40
41.0
 40
41.0
 40
41.0
 40
42.0
 40
42.0
 40
42.0
 40
42.0
 10
559.5748879623218
 20
-1475.792864621287
 10
558.4986831964219
 20
-1464.718346801789
 10
557.6619125667478
 20
-1453.618679785251
 10
556.4523395418765
 20
-1442.559320385888
 10
554.356644894506
 20
-1423.397785424317
 10
551.9091198707033
 20
-1404.27414651308
 10
549.8918442093152
 20
-1385.104773959279
 10
548.5461468490837
 20
-1372.316579518032
 10
548.0184874118255
 20
-1359.438640339394
 10
546.5416180409911
 20
-1346.668446522059
 10
544.1058924692272
 20
-1325.606166253887
 10
540.9484193932995
 20
-1304.626740532135
 10
538.5761266421566
 20
-1283.558172964701
 10
536.9496539998772
 20
-1269.114179505857
 10
536.3027942588286
 20
-1254.56269906787
 10
534.9239378545503
 20
-1240.087269112721
 10
532.9503287784397
 20
-1219.367948100106
 10
530.2018746639996
 20
-1198.709777532354
 10
528.7461495667073
 20
-1177.957900367403
 10
527.6452262407034
 20
-1162.26187308183
 10
525.7776399781495
 20
-1146.370422754859
 10
517.7492325230156
 20
-1133.179496651386
 10
504.4677004082804
 20
-1111.357572828716
 10
483.8548759098522
 20
-1099.056084252145
 10
457.8921195686866
 20
-1098.67531507364
 10
435.6734068735055
 20
-1098.349495168121
 10
413.417444083387
 20
-1099.420058590162
 10
391.2001524900925
 20
-1100.385029835581
 10
353.3492329032011
 20
-1102.029201655916
 10
315.519500653542
 20
-1104.156375863284
 10
277.6735118595639
 20
-1105.922504063797
 10
253.8588802126855
 20
-1107.033891867339
 10
230.0232765470406
 20
-1107.70249877364
 10
206.2107980848405
 20
-1108.851868754905
 10
180.8985403668305
 20
-1110.073671868749
 10
155.6024530657543
 20
-1111.631888556727
 10
130.298980341232
 20
-1113.036453986063
 10
122.1608681267406
 20
-1113.48810600418
 10
114.0182772881187
 20
-1113.866032978912
 10
105.8835025098793
 20
-1114.370567212727
 10
93.15871935740693
 20
-1115.159838588398
 10
81.52762483042137
 20
-1118.428717439577
 10
71.14150168441732
 20
-1126.613489166048
 10
60.52083213140843
 20
-1134.983090265299
 10
54.52546164950883
 20
-1146.190761025303
 10
49.50806764848453
 20
-1158.024750144521
 10
38.86095698762634
 20
-1183.137170792542
 10
29.32002342338831
 20
-1208.729234859495
 10
18.29050716366739
 20
-1233.666214019927
 10
12.47535823933993
 20
-1246.81390417506
 10
6.271947053824808
 20
-1259.788995046382
 10
0.0
 20
-1272.734199714368
 10
0.0
 20
-1272.734199714368
 10
0.0
 20
-1567.140002049621
 10
0.0
 20
-1567.140002049621
 10
3.845824685724741
 20
-1558.005331370481
 10
7.690723502037823
 20
-1548.869454907922
 10
11.70690815950817
 20
-1539.811609858103
 10
18.2150811043872
 20
-1525.133608288421
 10
25.61215328000104
 20
-1510.851275935221
 10
32.17195959346526
 20
-1496.194806212323
 10
36.68658497211091
 20
-1486.107997268448
 10
39.84558680915785
 20
-1475.387807519608
 10
44.701168981609
 20
-1465.486258585451
 10
50.54396479720558
 20
-1453.571654231877
 10
57.46468792644328
 20
-1442.179929245577
 10
64.05913898138106
 20
-1430.642218338086
 10
75.63192526727909
 20
-1410.394358642627
 10
88.02791711937789
 20
-1390.577997156696
 10
98.7157229706556
 20
-1369.876073876281
 10
106.9901533071286
 20
-1353.848714532416
 10
113.4224480239447
 20
-1336.842861943352
 10
120.2383756548905
 20
-1320.094616369195
 10
127.9175150233591
 20
-1301.225397759548
 10
135.0561835057325
 20
-1282.136640440101
 10
142.5299521195867
 20
-1263.182844736288
 10
147.8597732174296
 20
-1249.66601259991
 10
156.6312231731906
 20
-1239.692461170112
 10
171.9940451297988
 20
-1238.705010676654
 10
200.3591311483694
 20
-1236.881952273245
 10
228.7635989147058
 20
-1235.662388471466
 10
257.1563748882391
 20
-1234.287967627626
 10
262.6829324701366
 20
-1234.020455963196
 10
268.2388594910458
 20
-1234.375300798177
 10
273.767225748073
 20
-1234.128373579274
 10
292.0061426068487
 20
-1233.313694624397
 10
310.2310852970625
 20
-1232.119969038758
 10
328.4762033277117
 20
-1231.529996436909
 10
341.6192856676334
 20
-1231.104957781419
 10
354.7865267396474
 20
-1231.48193735489
 10
367.9419683596224
 20
-1231.371522044587
 10
383.5118190230457
 20
-1231.240866798311
 10
402.1913851262336
 20
-1245.514930922347
 10
404.5964062844864
 20
-1260.948614186718
 10
406.9250324503521
 20
-1275.89283551002
 10
407.6565984766449
 20
-1291.084242434392
 10
409.1484540128397
 20
-1306.16135831604
 10
412.0144720107116
 20
-1335.125740226114
 10
414.8607668369325
 20
-1364.092275320869
 10
417.8347024508818
 20
-1393.045632925395
 10
419.7425963306131
 20
-1411.618917832859
 10
421.9084847984933
 20
-1430.165417122927
 10
423.8774860593951
 20
-1448.732586985907
 10
426.014349597814
 20
-1468.883294988682
 10
428.0320989598322
 20
-1489.046663717366
 10
430.1488086896624
 20
-1509.199524904818
 10
431.8776867952424
 20
-1525.661224661987
 10
433.7501823188647
 20
-1542.107938253796
 10
435.4152830942711
 20
-1558.575839182839
 10
436.4402851285221
 20
-1568.713893922057
 10
436.8802238219884
 20
-1578.918955768465
 10
438.1499137630773
 20
-1589.022559552831
 10
439.797530678898
 20
-1602.133042676724
 10
442.7388240131227
 20
-1614.736407745187
 10
453.2124310526049
 20
-1624.285867920751
 10
462.9449549895174
 20
-1633.159744871658
 10
473.9046650019685
 20
-1639.472021074507
 10
486.8446158993411
 20
-1641.930957977104
 10
503.5445009456193
 20
-1645.104407683342
 10
519.8252039987348
 20
-1643.559454612981
 10
534.8068046080518
 20
-1635.184427488339
 10
561.7397859652527
 20
-1620.1286711987
 10
571.5960318937783
 20
-1596.487909214593
 10
568.485282925372
 20
-1566.456839614896
 10
565.3566194604422
 20
-1536.251964947968
 10
562.5122625004309
 20
-1506.017462459867
 10
559.5748879623218
 20
-1475.792864621287
 97
        0
 97
        1
330
97
 75
     2
 76
     1
 98
        1
 10
0.0
 20
0.0
450
        0
451
        0
460
0.0
461
0.0
452
        0
462
0.0
453
        0
470

  0
SPLINE
  5
99
330
70
100
AcDbEntity
  8
2023-009
100
AcDbSpline
210
0.0
220
0.0
230
1.0
 70
     9
 71
     3
 72
    80
 73
    76
 74
     0
 42
0.0000000001
 43
0.0000000001
 40
0.0
 40
0.0
 40
0.0
 40
0.0
 40
1.0
 40
1.0
 40
1.0
 40
2.0
 40
2.0
 40
2.0
 40
3.0
 40
3.0
 40
3.0
 40
4.0
 40
4.0
 40
4.0
 40
5.0
 40
5.0
 40
5.0
 40
6.0
 40
6.0
 40
6.0
 40
7.0
 40
7.0
 40
7.0
 40
8.0
 40
8.0
 40
8.0
 40
9.0
 40
9.0
 40
9.0
 40
10.0
 40
10.0
 40
10.0
 40
11.0
 40
11.0
 40
11.0
 40
12.0
 40
12.0
 40
12.0
 40
13.0
 40
13.0
 40
13.0
 40
14.0
 40
14.0
 40
14.0
 40
15.0
 40
15.0
 40
15.0
 40
16.0
 40
16.0
 40
16.0
 40
17.0
 40
17.0
 40
17.0
 40
18.0
 40
18.0
 40
18.0
 40
19.0
 40
19.0
 40
19.0
 40
20.0
 40
20.0
 40
20.0
 40
21.0
 40
21.0
 40
21.0
 40
22.0
 40
22.0
 40
22.0
 40
23.0
 40
23.0
 40
23.0
 40
24.0
 40
24.0
 40
24.0
 40
25.0
 40
25.0
 40
25.0
 40
25.0
 10
773.4510665655367
 20
-1565.867211522596
 30
0.0
 10
770.7197087374416
 20
-1545.381123474332
 30
0.0
 10
767.1228567960666
 20
-1524.998560545399
 30
0.0
 10
764.8665776353912
 20
-1504.464930179439
 30
0.0
 10
763.0140636655832
 20
-1487.604029982918
 30
0.0
 10
762.5782590866991
 20
-1470.587755980009
 30
0.0
 10
761.4907285693949
 20
-1453.641848052388
 30
0.0
 10
760.9365849605924
 20
-1445.007749747255
 30
0.0
 10
760.5130965980662
 20
-1436.360043314955
 30
0.0
 10
759.7090113118089
 20
-1427.74851038525
 30
0.0
 10
758.0019664988675
 20
-1409.465044135481
 30
0.0
 10
755.9691879077959
 20
-1391.211894725982
 30
0.0
 10
754.2992639987101
 20
-1372.92524176289
 30
0.0
 10
753.3937206504122
 20
-1363.008103771661
 30
0.0
 10
753.1192326676229
 20
-1353.034207832314
 30
0.0
 10
752.277940350125
 20
-1343.10983514057
 30
0.0
 10
750.6646021343824
 20
-1324.075682584564
 30
0.0
 10
748.273102975911
 20
-1305.088555581933
 30
0.0
 10
747.2854802276751
 20
-1286.0258087334
 30
0.0
 10
746.3493616569476
 20
-1267.95490487507
 30
0.0
 10
746.8500201583395
 20
-1249.811481756777
 30
0.0
 10
746.6200600346992
 20
-1231.701217682526
 30
0.0
 10
746.4119762673901
 20
-1215.316343554678
 30
0.0
 10
746.1601397874183
 20
-1198.930952662506
 30
0.0
 10
745.759647437258
 20
-1182.549868139692
 30
0.0
 10
745.4222864618668
 20
-1168.750193663976
 30
0.0
 10
745.6117667135556
 20
-1154.877138654423
 30
0.0
 10
744.2027226600884
 20
-1141.177199693004
 30
0.0
 10
741.6977076053743
 20
-1116.819685593191
 30
0.0
 10
726.9007641140666
 20
-1100.269705264214
 30
0.0
 10
705.5794987927892
 20
-1091.155188393663
 30
0.0
 10
683.6343266791367
 20
-1081.773848877779
 30
0.0
 10
661.395546302752
 20
-1085.358556857566
 30
0.0
 10
641.7272377952973
 20
-1099.079769283608
 30
0.0
 10
632.0434188958086
 20
-1105.835515402795
 30
0.0
 10
624.0923107706262
 20
-1114.367811136338
 30
0.0
 10
620.1885008215153
 20
-1126.462852365953
 30
0.0
 10
616.400532208098
 20
-1138.198914646006
 30
0.0
 10
615.8360102491436
 20
-1149.621214854741
 30
0.0
 10
617.3516369441864
 20
-1161.705490160962
 30
0.0
 10
619.4732128713923
 20
-1178.620908993539
 30
0.0
 10
620.4138961936397
 20
-1195.680935709111
 30
0.0
 10
622.1205103696434
 20
-1212.652940235031
 30
0.0
 10
624.1047992417621
 20
-1232.385413645897
 30
0.0
 10
626.531955138506
 20
-1252.073531452391
 30
0.0
 10
628.4725774253471
 20
-1271.809966723065
 30
0.0
 10
630.773298317786
 20
-1295.20965815059
 30
0.0
 10
632.5577285880634
 20
-1318.660939883008
 30
0.0
 10
634.9512948038266
 20
-1342.050382151467
 30
0.0
 10
636.6747899477113
 20
-1358.891559176336
 30
0.0
 10
639.3244990128027
 20
-1375.638254457524
 30
0.0
 10
641.0163423419161
 20
-1392.481929176619
 30
0.0
 10
642.5935931824525
 20
-1408.186138563971
 30
0.0
 10
643.4439719392903
 20
-1423.963297848221
 30
0.0
 10
644.6282235123448
 20
-1439.707298088424
 30
0.0
 10
645.544877293584
 20
-1451.893203711464
 30
0.0
 10
646.3171385102957
 20
-1464.09297584383
 30
0.0
 10
647.4534171287201
 20
-1476.258641530893
 30
0.0
 10
648.8971705191993
 20
-1491.714976298078
 30
0.0
 10
650.7660486925622
 20
-1507.131520212411
 30
0.0
 10
652.2154864905919
 20
-1522.587338215273
 30
0.0
 10
653.150657660063
 20
-1532.558994842555
 30
0.0
 10
653.7880433885272
 20
-1542.563379876946
 30
0.0
 10
654.335856634378
 20
-1552.565353344498
 30
0.0
 10
655.3587916113339
 20
-1571.239493422294
 30
0.0
 10
655.7822369101641
 20
-1589.978401295214
 30
0.0
 10
665.2971169397974
 20
-1606.966511642529
 30
0.0
 10
675.6483369621642
 20
-1625.4480708827
 30
0.0
 10
690.7953882821622
 20
-1636.443093123875
 30
0.0
 10
714.2766423453024
 20
-1638.243155514918
 30
0.0
 10
717.8984712289455
 20
-1637.427184649237
 30
0.0
 10
723.4143274829938
 20
-1636.547651771852
 30
0.0
 10
728.7064247852713
 20
-1634.933796791787
 30
0.0
 10
762.7713566886475
 20
-1624.545455865565
 30
0.0
 10
777.7039508146885
 20
-1597.766039639621
 30
0.0
 10
773.4510665655367
 20
-1565.867211522596
 30
0.0
  0
HATCH
  5
9A
330
70
100
AcDbEntity
  8
2023-009
 62
    18
420
        0
440
 33554687
100
AcDbHatch
 10
0.0
 20
0.0
 30
0.0
210
0.0
220
0.0
230
1.0
  2
SOLID
 70
     1
 71
     1
 91
        1
 92
        1
 93
        1
 72
     4
 94
        3
 73
     0
 74
     0
 95
       80
 96
       76
 40
0.0
 40
0.0
 40
0.0
 40
0.0
 40
1.0
 40
1.0
 40
1.0
 40
2.0
 40
2.0
 40
2.0
 40
3.0
 40
3.0
 40
3.0
 40
4.0
 40
4.0
 40
4.0
 40
5.0
 40
5.0
 40
5.0
 40
6.0
 40
6.0
 40
6.0
 40
7.0
 40
7.0
 40
7.0
 40
8.0
 40
8.0
 40
8.0
 40
9.0
 40
9.0
 40
9.0
 40
10.0
 40
10.0
 40
10.0
 40
11.0
 40
11.0
 40
11.0
 40
12.0
 40
12.0
 40
12.0
 40
13.0
 40
13.0
 40
13.0
 40
14.0
 40
14.0
 40
14.0
 40
15.0
 40
15.0
 40
15.0
 40
16.0
 40
16.0
 40
16.0
 40
17.0
 40
17.0
 40
17.0
 40
18.0
 40
18.0
 40
18.0
 40
19.0
 40
19.0
 40
19.0
 40
20.0
 40
20.0
 40
20.0
 40
21.0
 40
21.0
 40
21.0
 40
22.0
 40
22.0
 40
22.0
 40
23.0
 40
23.0
 40
23.0
 40
24.0
 40
24.0
 40
24.0
 40
25.0
 40
25.0
 40
25.0
 40
25.0
 10
773.4510665655367
 20
-1565.867211522596
 10
770.7197087374416
 20
-1545.381123474332
 10
767.1228567960666
 20
-1524.998560545399
 10
764.8665776353912
 20
-1504.464930179439
 10
763.0140636655832
 20
-1487.604029982918
 10
762.5782590866991
 20
-1470.587755980009
 10
761.4907285693949
 20
-1453.641848052388
 10
760.9365849605924
 20
-1445.007749747255
 10
760.5130965980662
 20
-1436.360043314955
 10
759.7090113118089
 20
-1427.74851038525
 10
758.0019664988675
 20
-1409.465044135481
 10
755.9691879077959
 20
-1391.211894725982
 10
754.2992639987101
 20
-1372.92524176289
 10
753.3937206504122
 20
-1363.008103771661
 10
753.1192326676229
 20
-1353.034207832314
 10
752.277940350125
 20
-1343.10983514057
 10
750.6646021343824
 20
-1324.075682584564
 10
748.273102975911
 20
-1305.088555581933
 10
747.2854802276751
 20
-1286.0258087334
 10
746.3493616569476
 20
-1267.95490487507
 10
746.8500201583395
 20
-1249.811481756777
 10
746.6200600346992
 20
-1231.701217682526
 10
746.4119762673901
 20
-1215.316343554678
 10
746.1601397874183
 20
-1198.930952662506
 10
745.759647437258
 20
-1182.549868139692
 10
745.4222864618668
 20
-1168.750193663976
 10
745.6117667135556
 20
-1154.877138654423
 10
744.2027226600884
 20
-1141.177199693004
 10
741.6977076053743
 20
-1116.819685593191
 10
726.9007641140666
 20
-1100.269705264214
 10
705.5794987927892
 20
-1091.155188393663
 10
683.6343266791367
 20
-1081.773848877779
 10
661.395546302752
 20
-1085.358556857566
 10
641.7272377952973
 20
-1099.079769283608
 10
632.0434188958086
 20
-1105.835515402795
 10
624.0923107706262
 20
-1114.367811136338
 10
620.1885008215153
 20
-1126.462852365953
 10
616.400532208098
 20
-1138.198914646006
 10
615.8360102491436
 20
-1149.621214854741
 10
617.3516369441864
 20
-1161.705490160962
 10
619.4732128713923
 20
-1178.620908993539
 10
620.4138961936397
 20
-1195.680935709111
 10
622.1205103696434
 20
-1212.652940235031
 10
624.1047992417621
 20
-1232.385413645897
 10
626.531955138506
 20
-1252.073531452391
 10
628.4725774253471
 20
-1271.809966723065
 10
630.773298317786
 20
-1295.20965815059
 10
632.5577285880634
 20
-1318.660939883008
 10
634.9512948038266
 20
-1342.050382151467
 10
636.6747899477113
 20
-1358.891559176336
 10
639.3244990128027
 20
-1375.638254457524
 10
641.0163423419161
 20
-1392.481929176619
 10
642.5935931824525
 20
-1408.186138563971
 10
643.4439719392903
 20
-1423.963297848221
 10
644.6282235123448
 20
-1439.707298088424
 10
645.544877293584
 20
-1451.893203711464
 10
646.3171385102957
 20
-1464.09297584383
 10
647.4534171287201
 20
-1476.258641530893
 10
648.8971705191993
 20
-1491.714976298078
 10
650.7660486925622
 20
-1507.131520212411
 10
652.2154864905919
 20
-1522.587338215273
 10
653.150657660063
 20
-1532.558994842555
 10
653.7880433885272
 20
-1542.563379876946
 10
654.335856634378
 20
-1552.565353344498
 10
655.3587916113339
 20
-1571.239493422294
 10
655.7822369101641
 20
-1589.978401295214
 10
665.2971169397974
 20
-1606.966511642529
 10
675.6483369621642
 20
-1625.4480708827
 10
690.7953882821622
 20
-1636.443093123875
 10
714.2766423453024
 20
-1638.243155514918
 10
717.8984712289455
 20
-1637.427184649237
 10
723.4143274829938
 20
-1636.547651771852
 10
728.7064247852713
 20
-1634.933796791787
 10
762.7713566886475
 20
-1624.545455865565
 10
777.7039508146885
 20
-1597.766039639621
 10
773.4510665655367
 20
-1565.867211522596
 97
        0
 97
        1
330
99
 75
     2
 76
     1
 98
        1
 10
0.0
 20
0.0
450
        0
451
        0
460
0.0
461
0.0
452
        0
462
0.0
453
        0
470

  0
ENDSEC
  0
SECTION
  2
OBJECTS
  0
DICTIONARY
  5
C
330
0
100
AcDbDictionary
281
     1
  3
ACAD_COLOR
350
63
  3
ACAD_DETAILVIEWSTYLE
350
6A
  3
ACAD_GROUP
350
D
  3
ACAD_LAYOUT
350
62
  3
ACAD_MATERIAL
350
10
  3
ACAD_MLEADERSTYLE
350
66
  3
ACAD_MLINESTYLE
350
5F
  3
ACAD_PLOTSETTINGS
350
61
  3
ACAD_PLOTSTYLENAME
350
E
  3
ACAD_SCALELIST
350
42
  3
ACAD_SECTIONVIEWSTYLE
350
68
  3
ACAD_TABLESTYLE
350
64
  3
ACAD_VISUALSTYLE
350
29
  3
ACDB_RECOMPOSE_DATA
350
AC
  3
AcDbVariableDictionary
350
A4
  0
DICTIONARY
  5
63
102
{ACAD_REACTORS
330
C
102
}
330
C
100
AcDbDictionary
281
     1
  0
DICTIONARY
  5
6A
102
{ACAD_REACTORS
330
C
102
}
330
C
100
AcDbDictionary
281
     1
  3
Imperial24
350
6B
  0
DICTIONARY
  5
D
102
{ACAD_REACTORS
330
C
102
}
330
C
100
AcDbDictionary
281
     1
  0
DICTIONARY
  5
62
102
{ACAD_REACTORS
330
C
102
}
330
C
100
AcDbDictionary
281
     1
  3
Layout1
350
6F
  3
Layout2
350
77
  3
Model
350
73
  0
DICTIONARY
  5
10
102
{ACAD_REACTORS
330
C
102
}
330
C
100
AcDbDictionary
281
     1
  3
ByBlock
350
19
  3
ByLayer
350
11
  3
Global
350
21
  0
DICTIONARY
  5
66
102
{ACAD_REACTORS
330
C
102
}
330
C
100
AcDbDictionary
281
     1
  3
Standard
350
67
  0
DICTIONARY
  5
5F
102
{ACAD_REACTORS
330
C
102
}
330
C
100
AcDbDictionary
281
     1
  3
Standard
350
60
  0
DICTIONARY
  5
61
102
{ACAD_REACTORS
330
C
102
}
330
C
100
AcDbDictionary
281
     1
  0
ACDBDICTIONARYWDFLT
  5
E
102
{ACAD_REACTORS
330
C
102
}
330
C
100
AcDbDictionary
281
     1
  3
Normal
350
F
100
AcDbDictionaryWithDefault
340
F
  0
DICTIONARY
  5
42
102
{ACAD_REACTORS
330
C
102
}
330
C
100
AcDbDictionary
281
     1
  3
A0
350
43
  3
A1
350
44
  3
A2
350
45
  3
A3
350
46
  3
A4
350
47
  3
A5
350
48
  3
A6
350
49
  3
A7
350
4A
  3
A8
350
4B
  3
A9
350
4C
  3
B0
350
4D
  3
B1
350
4E
  3
B2
350
4F
  3
B3
350
50
  3
B4
350
51
  3
B5
350
52
  3
B6
350
53
  0
DICTIONARY
  5
68
102
{ACAD_REACTORS
330
C
102
}
330
C
100
AcDbDictionary
281
     1
  3
Imperial24
350
69
  0
DICTIONARY
  5
64
102
{ACAD_REACTORS
330
C
102
}
330
C
100
AcDbDictionary
281
     1
  3
Standard
350
65
  0
DICTIONARY
  5
29
102
{ACAD_REACTORS
330
C
102
}
330
C
100
AcDbDictionary
281
     1
  3
2dWireframe
350
2F
  3
Basic
350
2E
  3
Brighten
350
35
  3
ColorChange
350
39
  3
Conceptual
350
32
  3
Dim
350
34
  3
EdgeColorOff
350
41
  3
Facepattern
350
38
  3
Flat
350
2A
  3
FlatWithEdges
350
2B
  3
Gouraud
350
2C
  3
GouraudWithEdges
350
2D
  3
Hidden
350
31
  3
JitterOff
350
3F
  3
Linepattern
350
37
  3
OverhangOff
350
40
  3
Realistic
350
33
  3
Shaded
350
3E
  3
Shaded with edges
350
3D
  3
Shades of Gray
350
3A
  3
Sketchy
350
3B
  3
Thicken
350
36
  3
Wireframe
350
30
  3
X-Ray
350
3C
  0
XRECORD
  5
AC
102
{ACAD_REACTORS
330
C
102
}
330
C
100
AcDbXrecord
280
     1
 90
        1
330
65
  0
DICTIONARY
  5
A4
102
{ACAD_REACTORS
330
C
102
}
330
C
100
AcDbDictionary
281
     1
  3
CANNOSCALE
350
A9
  3
CMLEADERSTYLE
350
A6
  3
CTABLESTYLE
350
A5
  3
CVIEWDETAILSTYLE
350
A7
  3
CVIEWSECTIONSTYLE
350
A8
  0
ACDBDETAILVIEWSTYLE
  5
6B
102
{ACAD_REACTORS
330
6A
102
}
330
6A
100
AcDbModelDocViewStyle
 70
     0
  3
Imperial24
290
     1
300
Imperial24
 90
        0
100
AcDbDetailViewStyle
 70
     0
 71
     0
 90
        3
 71
     1
340
55
 62
   256
 40
0.24
340
0
 62
   256
 40
0.24
300

 40
0.36
280
     3
 71
     2
340
5D
 90
       25
 62
   256
 71
     3
340
55
 62
   256
 40
0.24
 90
        1
 40
0.75
 90
        1
300
%<\AcVar ViewType \f "%tc1">% %<\AcVar ViewDetailId>%\PSCALE %<\AcVar ViewScale \f "%sn">%
 71
     4
340
5D
 90
       25
 62
   256
340
5D
 90
       25
 62
   256
280
     0
  0
LAYOUT
  5
6F
102
{ACAD_REACTORS
330
62
102
}
330
62
100
AcDbPlotSettings
  1

  2

  4

  6

 40
0.0
 41
0.0
 42
0.0
 43
0.0
 44
0.0
 45
0.0
 46
0.0
 47
0.0
 48
0.0
 49
0.0
140
0.0
141
0.0
142
1.0
143
1.0
 70
   688
 72
     0
 73
     0
 74
     5
  7

 75
    16
147
1.0
 76
     0
 77
     2
 78
   300
148
0.0
149
0.0
100
AcDbLayout
  1
Layout1
 70
     1
 71
     1
 10
0.0
 20
0.0
 11
12.0
 21
9.0
 12
0.0
 22
0.0
 32
0.0
 14
0.0
 24
0.0
 34
0.0
 15
0.0
 25
0.0
 35
0.0
146
0.0
 13
0.0
 23
0.0
 33
0.0
 16
1.0
 26
0.0
 36
0.0
 17
0.0
 27
1.0
 37
0.0
 76
     0
330
6C
  0
LAYOUT
  5
77
102
{ACAD_REACTORS
330
62
102
}
330
62
100
AcDbPlotSettings
  1

  2

  4

  6

 40
0.0
 41
0.0
 42
0.0
 43
0.0
 44
0.0
 45
0.0
 46
0.0
 47
0.0
 48
0.0
 49
0.0
140
0.0
141
0.0
142
1.0
143
1.0
 70
   688
 72
     0
 73
     0
 74
     5
  7

 75
    16
147
1.0
 76
     0
 77
     2
 78
   300
148
0.0
149
0.0
100
AcDbLayout
  1
Layout2
 70
     1
 71
     2
 10
0.0
 20
0.0
 11
12.0
 21
9.0
 12
0.0
 22
0.0
 32
0.0
 14
0.0
 24
0.0
 34
0.0
 15
0.0
 25
0.0
 35
0.0
146
0.0
 13
0.0
 23
0.0
 33
0.0
 16
1.0
 26
0.0
 36
0.0
 17
0.0
 27
1.0
 37
0.0
 76
     0
330
74
  0
LAYOUT
  5
73
102
{ACAD_REACTORS
330
62
102
}
330
62
100
AcDbPlotSettings
  1

  2

  4

  6

 40
0.0
 41
0.0
 42
0.0
 43
0.0
 44
0.0
 45
0.0
 46
0.0
 47
0.0
 48
0.0
 49
0.0
140
0.0
141
0.0
142
1.0
143
1.0
 70
  1712
 72
     0
 73
     0
 74
     0
  7

 75
     0
147
1.0
 76
     0
 77
     2
 78
   300
148
0.0
149
0.0
100
AcDbLayout
  1
Model
 70
     1
 71
     0
 10
0.0
 20
0.0
 11
12.0
 21
9.0
 12
0.0
 22
0.0
 32
0.0
 14
0.0
 24
0.0
 34
0.0
 15
0.0
 25
0.0
 35
0.0
146
0.0
 13
0.0
 23
0.0
 33
0.0
 16
1.0
 26
0.0
 36
0.0
 17
0.0
 27
1.0
 37
0.0
 76
     0
330
70
  0
MATERIAL
  5
19
102
{ACAD_XDICTIONARY
360
1A
102
}
102
{ACAD_REACTORS
330
10
102
}
330
10
100
AcDbMaterial
  1
ByBlock
 72
     0
 43
0.0208333333333333
 43
0.0
 43
0.0
 43
0.0
 43
0.0
 43
0.0208333333333333
 43
0.0
 43
0.0
 43
0.0
 43
0.0
 43
1.0
 43
0.0
 43
0.0
 43
0.0
 43
0.0
 43
1.0
 77
     0
 47
0.0208333333333333
 47
0.0
 47
0.0
 47
0.0
 47
0.0
 47
0.0208333333333333
 47
0.0
 47
0.0
 47
0.0
 47
0.0
 47
1.0
 47
0.0
 47
0.0
 47
0.0
 47
0.0
 47
1.0
171
     0
 49
0.0208333333333333
 49
0.0
 49
0.0
 49
0.0
 49
0.0
 49
0.0208333333333333
 49
0.0
 49
0.0
 49
0.0
 49
0.0
 49
1.0
 49
0.0
 49
0.0
 49
0.0
 49
0.0
 49
1.0
175
     0
142
0.0208333333333333
142
0.0
142
0.0
142
0.0
142
0.0
142
0.0208333333333333
142
0.0
142
0.0
142
0.0
142
0.0
142
1.0
142
0.0
142
0.0
142
0.0
142
0.0
142
1.0
179
     0
144
0.0208333333333333
144
0.0
144
0.0
144
0.0
144
0.0
144
0.0208333333333333
144
0.0
144
0.0
144
0.0
144
0.0
144
1.0
144
0.0
144
0.0
144
0.0
144
0.0
144
1.0
147
0.0208333333333333
147
0.0
147
0.0
147
0.0
147
0.0
147
0.0208333333333333
147
0.0
147
0.0
147
0.0
147
0.0
147
1.0
147
0.0
147
0.0
147
0.0
147
0.0
147
1.0
  0
MATERIAL
  5
11
102
{ACAD_XDICTIONARY
360
12
102
}
102
{ACAD_REACTORS
330
10
102
}
330
10
100
AcDbMaterial
  1
ByLayer
 72
     0
 43
0.0208333333333333
 43
0.0
 43
0.0
 43
0.0
 43
0.0
 43
0.0208333333333333
 43
0.0
 43
0.0
 43
0.0
 43
0.0
 43
1.0
 43
0.0
 43
0.0
 43
0.0
 43
0.0
 43
1.0
 77
     0
 47
0.0208333333333333
 47
0.0
 47
0.0
 47
0.0
 47
0.0
 47
0.0208333333333333
 47
0.0
 47
0.0
 47
0.0
 47
0.0
 47
1.0
 47
0.0
 47
0.0
 47
0.0
 47
0.0
 47
1.0
171
     0
 49
0.0208333333333333
 49
0.0
 49
0.0
 49
0.0
 49
0.0
 49
0.0208333333333333
 49
0.0
 49
0.0
 49
0.0
 49
0.0
 49
1.0
 49
0.0
 49
0.0
 49
0.0
 49
0.0
 49
1.0
175
     0
142
0.0208333333333333
142
0.0
142
0.0
142
0.0
142
0.0
142
0.0208333333333333
142
0.0
142
0.0
142
0.0
142
0.0
142
1.0
142
0.0
142
0.0
142
0.0
142
0.0
142
1.0
179
     0
144
0.0208333333333333
144
0.0
144
0.0
144
0.0
144
0.0
144
0.0208333333333333
144
0.0
144
0.0
144
0.0
144
0.0
144
1.0
144
0.0
144
0.0
144
0.0
144
0.0
144
1.0
147
0.0208333333333333
147
0.0
147
0.0
147
0.0
147
0.0
147
0.0208333333333333
147
0.0
147
0.0
147
0.0
147
0.0
147
1.0
147
0.0
147
0.0
147
0.0
147
0.0
147
1.0
  0
MATERIAL
  5
21
102
{ACAD_XDICTIONARY
360
22
102
}
102
{ACAD_REACTORS
330
10
102
}
330
10
100
AcDbMaterial
  1
Global
 72
     0
 43
0.0208333333333333
 43
0.0
 43
0.0
 43
0.0
 43
0.0
 43
0.0208333333333333
 43
0.0
 43
0.0
 43
0.0
 43
0.0
 43
1.0
 43
0.0
 43
0.0
 43
0.0
 43
0.0
 43
1.0
 77
     0
 47
0.0208333333333333
 47
0.0
 47
0.0
 47
0.0
 47
0.0
 47
0.0208333333333333
 47
0.0
 47
0.0
 47
0.0
 47
0.0
 47
1.0
 47
0.0
 47
0.0
 47
0.0
 47
0.0
 47
1.0
171
     0
 49
0.0208333333333333
 49
0.0
 49
0.0
 49
0.0
 49
0.0
 49
0.0208333333333333
 49
0.0
 49
0.0
 49
0.0
 49
0.0
 49
1.0
 49
0.0
 49
0.0
 49
0.0
 49
0.0
 49
1.0
175
     0
142
0.0208333333333333
142
0.0
142
0.0
142
0.0
142
0.0
142
0.0208333333333333
142
0.0
142
0.0
142
0.0
142
0.0
142
1.0
142
0.0
142
0.0
142
0.0
142
0.0
142
1.0
179
     0
144
0.0208333333333333
144
0.0
144
0.0
144
0.0
144
0.0
144
0.0208333333333333
144
0.0
144
0.0
144
0.0
144
0.0
144
1.0
144
0.0
144
0.0
144
0.0
144
0.0
144
1.0
147
0.0208333333333333
147
0.0
147
0.0
147
0.0
147
0.0
147
0.0208333333333333
147
0.0
147
0.0
147
0.0
147
0.0
147
1.0
147
0.0
147
0.0
147
0.0
147
0.0
147
1.0
  0
MLEADERSTYLE
  5
67
102
{ACAD_REACTORS
330
66
102
}
330
66
100
AcDbMLeaderStyle
179
     2
170
     2
171
     1
172
     0
 90
        2
 40
0.0
 41
0.0
173
     1
 91
-1056964608
340
5B
 92
       -2
290
     1
 42
0.09
291
     1
 43
0.36
  3
Standard
 44
0.18
300

342
55
174
     1
178
     6
175
     1
176
     0
 93
-1056964608
 45
0.18
292
     0
297
     0
 46
0.18
 94
-1056964608
 47
1.0
 49
1.0
140
1.0
293
     1
141
0.0
294
     1
177
     0
142
1.0
295
     1
296
     0
143
0.125
271
     0
272
     9
273
     9
298
     1
  0
MLINESTYLE
  5
60
102
{ACAD_REACTORS
330
5F
102
}
330
5F
100
AcDbMlineStyle
  2
STANDARD
 70
     0
  3

 62
   256
 51
90.0
 52
90.0
 71
     2
 49
0.5
 62
   256
  6
BYLAYER
 49
-0.5
 62
   256
  6
BYLAYER
  0
ACDBPLACEHOLDER
  5
F
102
{ACAD_REACTORS
330
E
102
}
330
E
  0
SCALE
  5
43
102
{ACAD_REACTORS
330
42
102
}
330
42
100
AcDbScale
 70
     0
300
1:1
140
1.0
141
1.0
290
     1
  0
SCALE
  5
44
102
{ACAD_REACTORS
330
42
102
}
330
42
100
AcDbScale
 70
     0
300
1/128" = 1'-0"
140
0.0078125
141
12.0
290
     0
  0
SCALE
  5
45
102
{ACAD_REACTORS
330
42
102
}
330
42
100
AcDbScale
 70
     0
300
1/64" = 1'-0"
140
0.015625
141
12.0
290
     0
  0
SCALE
  5
46
102
{ACAD_REACTORS
330
42
102
}
330
42
100
AcDbScale
 70
     0
300
1/32" = 1'-0"
140
0.03125
141
12.0
290
     0
  0
SCALE
  5
47
102
{ACAD_REACTORS
330
42
102
}
330
42
100
AcDbScale
 70
     0
300
1/16" = 1'-0"
140
0.0625
141
12.0
290
     0
  0
SCALE
  5
48
102
{ACAD_REACTORS
330
42
102
}
330
42
100
AcDbScale
 70
     0
300
3/32" = 1'-0"
140
0.09375
141
12.0
290
     0
  0
SCALE
  5
49
102
{ACAD_REACTORS
330
42
102
}
330
42
100
AcDbScale
 70
     0
300
1/8" = 1'-0"
140
0.125
141
12.0
290
     0
  0
SCALE
  5
4A
102
{ACAD_REACTORS
330
42
102
}
330
42
100
AcDbScale
 70
     0
300
3/16" = 1'-0"
140
0.1875
141
12.0
290
     0
  0
SCALE
  5
4B
102
{ACAD_REACTORS
330
42
102
}
330
42
100
AcDbScale
 70
     0
300
1/4" = 1'-0"
140
0.25
141
12.0
290
     0
  0
SCALE
  5
4C
102
{ACAD_REACTORS
330
42
102
}
330
42
100
AcDbScale
 70
     0
300
3/8" = 1'-0"
140
0.375
141
12.0
290
     0
  0
SCALE
  5
4D
102
{ACAD_REACTORS
330
42
102
}
330
42
100
AcDbScale
 70
     0
300
1/2" = 1'-0"
140
0.5
141
12.0
290
     0
  0
SCALE
  5
4E
102
{ACAD_REACTORS
330
42
102
}
330
42
100
AcDbScale
 70
     0
300
3/4" = 1'-0"
140
0.75
141
12.0
290
     0
  0
SCALE
  5
4F
102
{ACAD_REACTORS
330
42
102
}
330
42
100
AcDbScale
 70
     0
300
1" = 1'-0"
140
1.0
141
12.0
290
     0
  0
SCALE
  5
50
102
{ACAD_REACTORS
330
42
102
}
330
42
100
AcDbScale
 70
     0
300
1-1/2" = 1'-0"
140
1.5
141
12.0
290
     0
  0
SCALE
  5
51
102
{ACAD_REACTORS
330
42
102
}
330
42
100
AcDbScale
 70
     0
300
3" = 1'-0"
140
3.0
141
12.0
290
     0
  0
SCALE
  5
52
102
{ACAD_REACTORS
330
42
102
}
330
42
100
AcDbScale
 70
     0
300
6" = 1'-0"
140
6.0
141
12.0
290
     0
  0
SCALE
  5
53
102
{ACAD_REACTORS
330
42
102
}
330
42
100
AcDbScale
 70
     0
300
1'-0" = 1'-0"
140
12.0
141
12.0
290
     0
  0
ACDBSECTIONVIEWSTYLE
  5
69
102
{ACAD_REACTORS
330
68
102
}
330
68
100
AcDbModelDocViewStyle
 70
     0
  3
Imperial24
290
     1
300
Imperial24
 90
        0
100
AcDbSectionViewStyle
 70
     0
 71
     0
 90
       78
 71
     1
340
55
 62
   256
 40
0.24
340
0
340
0
 62
   256
 40
0.24
300
I, O, Q, S, X, Z
 40
0.48
 90
        3
 40
0.18
 90
        1
 71
     2
340
5D
 90
       25
 62
   256
340
5D
 90
       50
 62
   256
 40
0.24
 40
0.0
 40
0.24
 71
     3
340
55
 62
   256
 40
0.24
 90
        1
 40
0.75
 90
        1
300
%<\AcVar ViewType \f "%tc1">% %<\AcVar ViewSectionStartId>%-%<\AcVar ViewSectionEndId>%\PSCALE %<\AcVar ViewScale \f "%sn">%
 71
     4
 62
   256
 62
   257
300
ANSI31
 40
1.0
 90
        0
290
     0
290
     0
 90
        6
 40
0.0
 40
1.570796326794896
 40
0.2617993877991494
 40
1.308996938995747
 40
-0.2617993877991494
 40
1.832595714594046
  0
TABLESTYLE
  5
65
102
{ACAD_XDICTIONARY
360
AA
102
}
102
{ACAD_REACTORS
330
64
102
}
330
64
100
AcDbTableStyle
280
     0
  3
Standard
 70
     0
 71
     0
 40
0.06
 41
0.06
280
     0
281
     0
  7
Standard
140
0.18
170
     2
 62
     0
 63
     7
283
     0
 90
      512
 91
        0
  1

274
    -2
284
     1
 64
     0
275
    -2
285
     1
 65
     0
276
    -2
286
     1
 66
     0
277
    -2
287
     1
 67
     0
278
    -2
288
     1
 68
     0
279
    -2
289
     1
 69
     0
  7
Standard
140
0.25
170
     5
 62
     0
 63
     7
283
     0
 90
      512
 91
        0
  1

274
    -2
284
     1
 64
     0
275
    -2
285
     1
 65
     0
276
    -2
286
     1
 66
     0
277
    -2
287
     1
 67
     0
278
    -2
288
     1
 68
     0
279
    -2
289
     1
 69
     0
  7
Standard
140
0.18
170
     5
 62
     0
 63
     7
283
     0
 90
      512
 91
        0
  1

274
    -2
284
     1
 64
     0
275
    -2
285
     1
 65
     0
276
    -2
286
     1
 66
     0
277
    -2
287
     1
 67
     0
278
    -2
288
     1
 68
     0
279
    -2
289
     1
 69
     0
  0
VISUALSTYLE
  5
2F
102
{ACAD_REACTORS
330
29
102
}
330
29
100
AcDbVisualStyle
  2
2dWireframe
 70
     4
177
     3
291
     0
 70
    58
 90
        0
176
     1
 90
        2
176
     1
 90
        0
176
     1
 90
        0
176
     1
 40
0.6
176
     1
 40
30.0
176
     1
 62
     7
420
 16777215
176
     1
 90
        1
176
     1
 90
        4
176
     1
 62
     7
176
     1
 62
   257
176
     1
 90
        1
176
     1
 90
        1
176
     1
 40
1.0
176
     1
 90
        0
176
     1
 62
   257
176
     1
 40
1.0
176
     1
 90
        1
176
     1
 90
        6
176
     1
 90
        2
176
     1
 62
     7
176
     1
 90
        5
176
     1
 90
        0
176
     1
 90
        0
176
     1
290
     0
176
     1
 90
        1
176
     1
 40
0.0
176
     1
 90
        0
176
     1
290
     1
176
     1
290
     1
176
     1
290
     0
176
     1
290
     0
176
     1
290
     0
176
     1
290
     0
176
     1
290
     0
176
     1
290
     0
176
     1
290
     0
176
     1
 90
       50
176
     1
 40
0.0
176
     1
 40
1.0
176
     1
 90
        0
176
     1
 62
    18
420
        0
176
     1
 90
       50
176
     1
 90
        3
176
     1
 62
     5
420
      255
176
     1
290
     0
176
     1
 90
       50
176
     1
 90
       50
176
     1
 90
       50
176
     1
290
     0
176
     1
 90
       50
176
     1
 62
   256
176
     0
 40
1.0
176
     0
 90
        2
176
     1
  1
strokes_ogs.tif
176
     1
290
     0
176
     1
 40
1.0
176
     1
 40
1.0
176
     1
  0
VISUALSTYLE
  5
2E
102
{ACAD_REACTORS
330
29
102
}
330
29
100
AcDbVisualStyle
  2
Basic
 70
     7
177
     3
291
     1
 70
    58
 90
        1
176
     1
 90
        0
176
     1
 90
        1
176
     1
 90
        0
176
     1
 40
0.6
176
     1
 40
30.0
176
     1
 62
     7
420
 16777215
176
     1
 90
        0
176
     1
 90
        4
176
     1
 62
     7
176
     1
 62
   257
176
     1
 90
        1
176
     1
 90
        1
176
     1
 40
1.0
176
     1
 90
        8
176
     1
 62
     7
176
     1
 40
1.0
176
     1
 90
        1
176
     1
 90
        6
176
     1
 90
        2
176
     1
 62
     7
176
     1
 90
        5
176
     1
 90
        0
176
     1
 90
        0
176
     1
290
     0
176
     1
 90
        1
176
     1
 40
0.0
176
     1
 90
        0
176
     1
290
     0
176
     1
290
     1
176
     1
290
     1
176
     1
290
     0
176
     1
290
     0
176
     1
290
     0
176
     1
290
     0
176
     1
290
     0
176
     1
290
     0
176
     1
 90
       50
176
     1
 40
0.0
176
     1
 40
1.0
176
     1
 90
        0
176
     1
 62
    18
420
        0
176
     1
 90
       50
176
     1
 90
        3
176
     1
 62
     5
420
      255
176
     1
290
     0
176
     1
 90
       50
176
     1
 90
       50
176
     1
 90
       50
176
     1
290
     0
176
     1
 90
       50
176
     1
 62
   256
176
     0
 40
1.0
176
     0
 90
        2
176
     1
  1
strokes_ogs.tif
176
     1
290
     0
176
     1
 40
1.0
176
     1
 40
1.0
176
     1
  0
VISUALSTYLE
  5
35
102
{ACAD_REACTORS
330
29
102
}
330
29
100
AcDbVisualStyle
  2
Brighten
 70
    12
177
     3
291
     1
 70
    58
 90
        2
176
     1
 90
        2
176
     1
 90
        0
176
     1
 90
        0
176
     1
 40
0.6
176
     1
 40
30.0
176
     1
 62
     7
420
 16777215
176
     1
 90
        1
176
     1
 90
        4
176
     1
 62
     7
176
     1
 62
   257
176
     1
 90
        1
176
     1
 90
        1
176
     1
 40
1.0
176
     1
 90
        8
176
     1
 62
     7
176
     1
 40
1.0
176
     1
 90
        1
176
     1
 90
        6
176
     1
 90
        2
176
     1
 62
     7
176
     1
 90
        5
176
     1
 90
        0
176
     1
 90
        0
176
     1
290
     0
176
     1
 90
        1
176
     1
 40
50.0
176
     1
 90
        0
176
     1
290
     0
176
     1
290
     1
176
     1
290
     1
176
     1
290
     0
176
     1
290
     0
176
     1
290
     0
176
     1
290
     0
176
     1
290
     0
176
     1
290
     0
176
     1
 90
       50
176
     1
 40
0.0
176
     1
 40
1.0
176
     1
 90
        0
176
     1
 62
    18
420
        0
176
     1
 90
       50
176
     1
 90
        3
176
     1
 62
     5
420
      255
176
     1
290
     0
176
     1
 90
       50
176
     1
 90
       50
176
     1
 90
       50
176
     1
290
     0
176
     1
 90
       50
176
     1
 62
   256
176
     0
 40
1.0
176
     0
 90
        2
176
     1
  1
strokes_ogs.tif
176
     1
290
     0
176
     1
 40
1.0
176
     1
 40
1.0
176
     1
  0
VISUALSTYLE
  5
39
102
{ACAD_REACTORS
330
29
102
}
330
29
100
AcDbVisualStyle
  2
ColorChange
 70
    16
177
     3
291
     1
 70
    58
 90
        2
176
     1
 90
        2
176
     1
 90
        3
176
     1
 90
        0
176
     1
 40
0.6
176
     1
 40
30.0
176
     1
 62
     8
420
  8421504
176
     1
 90
        1
176
     1
 90
        4
176
     1
 62
     7
176
     1
 62
   257
176
     1
 90
        1
176
     1
 90
        1
176
     1
 40
1.0
176
     1
 90
        8
176
     1
 62
     8
420
  8421504
176
     1
 40
1.0
176
     1
 90
        1
176
     1
 90
        6
176
     1
 90
        2
176
     1
 62
     7
176
     1
 90
        5
176
     1
 90
        0
176
     1
 90
        0
176
     1
290
     0
176
     1
 90
        1
176
     1
 40
0.0
176
     1
 90
        0
176
     1
290
     0
176
     1
290
     1
176
     1
290
     1
176
     1
290
     0
176
     1
290
     0
176
     1
290
     0
176
     1
290
     0
176
     1
290
     0
176
     1
290
     0
176
     1
 90
       50
176
     1
 40
0.0
176
     1
 40
1.0
176
     1
 90
        0
176
     1
 62
    18
420
        0
176
     1
 90
       50
176
     1
 90
        3
176
     1
 62
     5
420
      255
176
     1
290
     0
176
     1
 90
       50
176
     1
 90
       50
176
     1
 90
       50
176
     1
290
     0
176
     1
 90
       50
176
     1
 62
   256
176
     0
 40
1.0
176
     0
 90
        2
176
     1
  1
strokes_ogs.tif
176
     1
290
     0
176
     1
 40
1.0
176
     1
 40
1.0
176
     1
  0
VISUALSTYLE
  5
32
102
{ACAD_REACTORS
330
29
102
}
330
29
100
AcDbVisualStyle
  2
Conceptual
 70
     9
177
     3
291
     0
 70
    58
 90
        3
176
     1
 90
        2
176
     1
 90
        0
176
     1
 90
        0
176
     1
 40
0.6
176
     1
 40
30.0
176
     1
 62
     7
420
 16777215
176
     1
 90
        2
176
     1
 90
        2
176
     1
 62
     7
176
     1
 62
   257
176
     1
 90
        1
176
     1
 90
        1
176
     1
 40
179.0
176
     1
 90
        8
176
     1
 62
     7
176
     1
 40
1.0
176
     1
 90
        1
176
     1
 90
        6
176
     1
 90
        2
176
     1
 62
     7
176
     1
 90
        3
176
     1
 90
        0
176
     1
 90
        0
176
     1
290
     0
176
     1
 90
        1
176
     1
 40
0.0
176
     1
 90
        0
176
     1
290
     0
176
     1
290
     1
176
     1
290
     1
176
     1
290
     0
176
     1
290
     0
176
     1
290
     0
176
     1
290
     0
176
     1
290
     0
176
     1
290
     0
176
     1
 90
       50
176
     1
 40
0.0
176
     1
 40
1.0
176
     1
 90
        0
176
     1
 62
    18
420
        0
176
     1
 90
       50
176
     1
 90
        3
176
     1
 62
     5
420
      255
176
     1
290
     0
176
     1
 90
       50
176
     1
 90
       50
176
     1
 90
       50
176
     1
290
     0
176
     1
 90
       50
176
     1
 62
   256
176
     0
 40
1.0
176
     0
 90
        2
176
     1
  1
strokes_ogs.tif
176
     1
290
     0
176
     1
 40
1.0
176
     1
 40
1.0
176
     1
  0
VISUALSTYLE
  5
34
102
{ACAD_REACTORS
330
29
102
}
330
29
100
AcDbVisualStyle
  2
Dim
 70
    11
177
     3
291
     1
 70
    58
 90
        2
176
     1
 90
        2
176
     1
 90
        0
176
     1
 90
        0
176
     1
 40
0.6
176
     1
 40
30.0
176
     1
 62
     7
420
 16777215
176
     1
 90
        1
176
     1
 90
        4
176
     1
 62
     7
176
     1
 62
   257
176
     1
 90
        1
176
     1
 90
        1
176
     1
 40
1.0
176
     1
 90
        8
176
     1
 62
     7
176
     1
 40
1.0
176
     1
 90
        1
176
     1
 90
        6
176
     1
 90
        2
176
     1
 62
     7
176
     1
 90
        5
176
     1
 90
        0
176
     1
 90
        0
176
     1
290
     0
176
     1
 90
        1
176
     1
 40
-50.0
176
     1
 90
        0
176
     1
290
     0
176
     1
290
     1
176
     1
290
     1
176
     1
290
     0
176
     1
290
     0
176
     1
290
     0
176
     1
290
     0
176
     1
290
     0
176
     1
290
     0
176
     1
 90
       50
176
     1
 40
0.0
176
     1
 40
1.0
176
     1
 90
        0
176
     1
 62
    18
420
        0
176
     1
 90
       50
176
     1
 90
        3
176
     1
 62
     5
420
      255
176
     1
290
     0
176
     1
 90
       50
176
     1
 90
       50
176
     1
 90
       50
176
     1
290
     0
176
     1
 90
       50
176
     1
 62
   256
176
     0
 40
1.0
176
     0
 90
        2
176
     1
  1
strokes_ogs.tif
176
     1
290
     0
176
     1
 40
1.0
176
     1
 40
1.0
176
     1
  0
VISUALSTYLE
  5
41
102
{ACAD_REACTORS
330
29
102
}
330
29
100
AcDbVisualStyle
  2
EdgeColorOff
 70
    22
177
     3
291
     1
 70
    58
 90
        2
176
     0
 90
        2
176
     0
 90
        0
176
     0
 90
        0
176
     0
 40
0.6
176
     0
 40
30.0
176
     0
 62
     7
420
 16777215
176
     0
 90
        1
176
     0
 90
        4
176
     0
 62
     7
176
     0
 62
   257
176
     0
 90
        1
176
     0
 90
        1
176
     0
 40
1.0
176
     0
 90
        8
176
     2
 62
     7
176
     0
 40
1.0
176
     0
 90
        1
176
     0
 90
        6
176
     0
 90
        2
176
     0
 62
     7
176
     0
 90
        5
176
     0
 90
        0
176
     0
 90
        0
176
     0
290
     0
176
     0
 90
        1
176
     0
 40
0.0
176
     0
 90
        0
176
     0
290
     0
176
     0
290
     1
176
     0
290
     1
176
     0
290
     0
176
     0
290
     0
176
     0
290
     0
176
     0
290
     0
176
     0
290
     0
176
     0
290
     0
176
     0
 90
       50
176
     0
 40
0.0
176
     0
 40
1.0
176
     0
 90
        0
176
     0
 62
    18
420
        0
176
     0
 90
       50
176
     0
 90
        3
176
     0
 62
     5
420
      255
176
     0
290
     0
176
     0
 90
       50
176
     0
 90
       50
176
     0
 90
       50
176
     0
290
     0
176
     0
 90
       50
176
     0
 62
   256
176
     0
 40
1.0
176
     0
 90
        2
176
     0
  1
strokes_ogs.tif
176
     0
290
     0
176
     0
 40
1.0
176
     0
 40
1.0
176
     0
  0
VISUALSTYLE
  5
38
102
{ACAD_REACTORS
330
29
102
}
330
29
100
AcDbVisualStyle
  2
Facepattern
 70
    15
177
     3
291
     1
 70
    58
 90
        2
176
     1
 90
        2
176
     1
 90
        0
176
     1
 90
        0
176
     1
 40
0.6
176
     1
 40
30.0
176
     1
 62
     7
420
 16777215
176
     1
 90
        1
176
     1
 90
        4
176
     1
 62
     7
176
     1
 62
   257
176
     1
 90
        1
176
     1
 90
        1
176
     1
 40
1.0
176
     1
 90
        8
176
     1
 62
     7
176
     1
 40
1.0
176
     1
 90
        1
176
     1
 90
        6
176
     1
 90
        2
176
     1
 62
     7
176
     1
 90
        5
176
     1
 90
        0
176
     1
 90
        0
176
     1
290
     0
176
     1
 90
        1
176
     1
 40
0.0
176
     1
 90
        0
176
     1
290
     0
176
     1
290
     1
176
     1
290
     1
176
     1
290
     0
176
     1
290
     0
176
     1
290
     0
176
     1
290
     0
176
     1
290
     0
176
     1
290
     0
176
     1
 90
       50
176
     1
 40
0.0
176
     1
 40
1.0
176
     1
 90
        0
176
     1
 62
    18
420
        0
176
     1
 90
       50
176
     1
 90
        3
176
     1
 62
     5
420
      255
176
     1
290
     0
176
     1
 90
       50
176
     1
 90
       50
176
     1
 90
       50
176
     1
290
     0
176
     1
 90
       50
176
     1
 62
   256
176
     0
 40
1.0
176
     0
 90
        2
176
     1
  1
strokes_ogs.tif
176
     1
290
     0
176
     1
 40
1.0
176
     1
 40
1.0
176
     1
  0
VISUALSTYLE
  5
2A
102
{ACAD_REACTORS
330
29
102
}
330
29
100
AcDbVisualStyle
  2
Flat
 70
     0
177
     3
291
     1
 70
    58
 90
        2
176
     1
 90
        1
176
     1
 90
        1
176
     1
 90
        2
176
     1
 40
0.6
176
     1
 40
30.0
176
     1
 62
     7
420
 16777215
176
     1
 90
        0
176
     1
 90
        0
176
     1
 62
     7
176
     1
 62
   257
176
     1
 90
        1
176
     1
 90
        1
176
     1
 40
1.0
176
     1
 90
        8
176
     1
 62
     7
176
     1
 40
1.0
176
     1
 90
        1
176
     1
 90
        6
176
     1
 90
        2
176
     1
 62
     7
176
     1
 90
        5
176
     1
 90
        0
176
     1
 90
        0
176
     1
290
     0
176
     1
 90
       13
176
     1
 40
0.0
176
     1
 90
        0
176
     1
290
     0
176
     1
290
     1
176
     1
290
     1
176
     1
290
     0
176
     1
290
     0
176
     1
290
     0
176
     1
290
     0
176
     1
290
     0
176
     1
290
     0
176
     1
 90
       50
176
     1
 40
0.0
176
     1
 40
1.0
176
     1
 90
        0
176
     1
 62
    18
420
        0
176
     1
 90
       50
176
     1
 90
        3
176
     1
 62
     5
420
      255
176
     1
290
     0
176
     1
 90
       50
176
     1
 90
       50
176
     1
 90
       50
176
     1
290
     0
176
     1
 90
       50
176
     1
 62
   256
176
     0
 40
1.0
176
     0
 90
        2
176
     1
  1
strokes_ogs.tif
176
     1
290
     0
176
     1
 40
1.0
176
     1
 40
1.0
176
     1
  0
VISUALSTYLE
  5
2B
102
{ACAD_REACTORS
330
29
102
}
330
29
100
AcDbVisualStyle
  2
FlatWithEdges
 70
     1
177
     3
291
     1
 70
    58
 90
        2
176
     1
 90
        1
176
     1
 90
        1
176
     1
 90
        2
176
     1
 40
0.6
176
     1
 40
30.0
176
     1
 62
     7
420
 16777215
176
     1
 90
        1
176
     1
 90
        0
176
     1
 62
     7
176
     1
 62
   257
176
     1
 90
        1
176
     1
 90
        1
176
     1
 40
1.0
176
     1
 90
        0
176
     1
 62
   257
176
     1
 40
1.0
176
     1
 90
        1
176
     1
 90
        6
176
     1
 90
        2
176
     1
 62
     7
176
     1
 90
        5
176
     1
 90
        0
176
     1
 90
        0
176
     1
290
     0
176
     1
 90
       13
176
     1
 40
0.0
176
     1
 90
        0
176
     1
290
     0
176
     1
290
     1
176
     1
290
     1
176
     1
290
     0
176
     1
290
     0
176
     1
290
     0
176
     1
290
     0
176
     1
290
     0
176
     1
290
     0
176
     1
 90
       50
176
     1
 40
0.0
176
     1
 40
1.0
176
     1
 90
        0
176
     1
 62
    18
420
        0
176
     1
 90
       50
176
     1
 90
        3
176
     1
 62
     5
420
      255
176
     1
290
     0
176
     1
 90
       50
176
     1
 90
       50
176
     1
 90
       50
176
     1
290
     0
176
     1
 90
       50
176
     1
 62
   256
176
     0
 40
1.0
176
     0
 90
        2
176
     1
  1
strokes_ogs.tif
176
     1
290
     0
176
     1
 40
1.0
176
     1
 40
1.0
176
     1
  0
VISUALSTYLE
  5
2C
102
{ACAD_REACTORS
330
29
102
}
330
29
100
AcDbVisualStyle
  2
Gouraud
 70
     2
177
     3
291
     1
 70
    58
 90
        2
176
     1
 90
        2
176
     1
 90
        1
176
     1
 90
        2
176
     1
 40
0.6
176
     1
 40
30.0
176
     1
 62
     7
420
 16777215
176
     1
 90
        0
176
     1
 90
        0
176
     1
 62
     7
176
     1
 62
   257
176
     1
 90
        1
176
     1
 90
        1
176
     1
 40
1.0
176
     1
 90
        0
176
     1
 62
     7
176
     1
 40
1.0
176
     1
 90
        1
176
     1
 90
        6
176
     1
 90
        2
176
     1
 62
     7
176
     1
 90
        5
176
     1
 90
        0
176
     1
 90
        0
176
     1
290
     0
176
     1
 90
       13
176
     1
 40
0.0
176
     1
 90
        0
176
     1
290
     0
176
     1
290
     1
176
     1
290
     1
176
     1
290
     0
176
     1
290
     0
176
     1
290
     0
176
     1
290
     0
176
     1
290
     0
176
     1
290
     0
176
     1
 90
       50
176
     1
 40
0.0
176
     1
 40
1.0
176
     1
 90
        0
176
     1
 62
    18
420
        0
176
     1
 90
       50
176
     1
 90
        3
176
     1
 62
     5
420
      255
176
     1
290
     0
176
     1
 90
       50
176
     1
 90
       50
176
     1
 90
       50
176
     1
290
     0
176
     1
 90
       50
176
     1
 62
   256
176
     0
 40
1.0
176
     0
 90
        2
176
     1
  1
strokes_ogs.tif
176
     1
290
     0
176
     1
 40
1.0
176
     1
 40
1.0
176
     1
  0
VISUALSTYLE
  5
2D
102
{ACAD_REACTORS
330
29
102
}
330
29
100
AcDbVisualStyle
  2
GouraudWithEdges
 70
     3
177
     3
291
     1
 70
    58
 90
        2
176
     1
 90
        2
176
     1
 90
        1
176
     1
 90
        2
176
     1
 40
0.6
176
     1
 40
30.0
176
     1
 62
     7
420
 16777215
176
     1
 90
        1
176
     1
 90
        0
176
     1
 62
     7
176
     1
 62
   257
176
     1
 90
        1
176
     1
 90
        1
176
     1
 40
1.0
176
     1
 90
        0
176
     1
 62
   257
176
     1
 40
1.0
176
     1
 90
        1
176
     1
 90
        6
176
     1
 90
        2
176
     1
 62
     7
176
     1
 90
        5
176
     1
 90
        0
176
     1
 90
        0
176
     1
290
     0
176
     1
 90
       13
176
     1
 40
0.0
176
     1
 90
        0
176
     1
290
     0
176
     1
290
     1
176
     1
290
     1
176
     1
290
     0
176
     1
290
     0
176
     1
290
     0
176
     1
290
     0
176
     1
290
     0
176
     1
290
     0
176
     1
 90
       50
176
     1
 40
0.0
176
     1
 40
1.0
176
     1
 90
        0
176
     1
 62
    18
420
        0
176
     1
 90
       50
176
     1
 90
        3
176
     1
 62
     5
420
      255
176
     1
290
     0
176
     1
 90
       50
176
     1
 90
       50
176
     1
 90
       50
176
     1
290
     0
176
     1
 90
       50
176
     1
 62
   256
176
     0
 40
1.0
176
     0
 90
        2
176
     1
  1
strokes_ogs.tif
176
     1
290
     0
176
     1
 40
1.0
176
     1
 40
1.0
176
     1
  0
VISUALSTYLE
  5
31
102
{ACAD_REACTORS
330
29
102
}
330
29
100
AcDbVisualStyle
  2
Hidden
 70
     6
177
     3
291
     0
 70
    58
 90
        1
176
     1
 90
        2
176
     1
 90
        2
176
     1
 90
        0
176
     1
 40
0.6
176
     1
 40
30.0
176
     1
 62
     7
420
 16777215
176
     1
 90
        2
176
     1
 90
        2
176
     1
 62
     7
176
     1
 62
   257
176
     1
 90
        2
176
     1
 90
        1
176
     1
 40
40.0
176
     1
 90
        0
176
     1
 62
   257
176
     1
 40
1.0
176
     1
 90
        1
176
     1
 90
        6
176
     1
 90
        2
176
     1
 62
     7
176
     1
 90
        3
176
     1
 90
        0
176
     1
 90
        0
176
     1
290
     0
176
     1
 90
        1
176
     1
 40
0.0
176
     1
 90
        0
176
     1
290
     0
176
     1
290
     1
176
     1
290
     1
176
     1
290
     0
176
     1
290
     0
176
     1
290
     0
176
     1
290
     0
176
     1
290
     0
176
     1
290
     0
176
     1
 90
       50
176
     1
 40
0.0
176
     1
 40
1.0
176
     1
 90
        0
176
     1
 62
    18
420
        0
176
     1
 90
       50
176
     1
 90
        3
176
     1
 62
     5
420
      255
176
     1
290
     0
176
     1
 90
       50
176
     1
 90
       50
176
     1
 90
       50
176
     1
290
     0
176
     1
 90
       50
176
     1
 62
   256
176
     0
 40
1.0
176
     0
 90
        2
176
     1
  1
strokes_ogs.tif
176
     1
290
     0
176
     1
 40
1.0
176
     1
 40
1.0
176
     1
  0
VISUALSTYLE
  5
3F
102
{ACAD_REACTORS
330
29
102
}
330
29
100
AcDbVisualStyle
  2
JitterOff
 70
    20
177
     3
291
     1
 70
    58
 90
        2
176
     0
 90
        2
176
     0
 90
        0
176
     0
 90
        0
176
     0
 40
0.6
176
     0
 40
30.0
176
     0
 62
     7
420
 16777215
176
     0
 90
        1
176
     0
 90
        4
176
     0
 62
     7
176
     0
 62
   257
176
     0
 90
        1
176
     0
 90
        1
176
     0
 40
1.0
176
     0
 90
       10
176
     2
 62
     7
176
     0
 40
1.0
176
     0
 90
        1
176
     0
 90
        6
176
     0
 90
        2
176
     0
 62
     7
176
     0
 90
        5
176
     0
 90
        0
176
     0
 90
        0
176
     0
290
     0
176
     0
 90
        1
176
     0
 40
0.0
176
     0
 90
        0
176
     0
290
     0
176
     0
290
     1
176
     0
290
     1
176
     0
290
     0
176
     0
290
     0
176
     0
290
     0
176
     0
290
     0
176
     0
290
     0
176
     0
290
     0
176
     0
 90
       50
176
     0
 40
0.0
176
     0
 40
1.0
176
     0
 90
        0
176
     0
 62
    18
420
        0
176
     0
 90
       50
176
     0
 90
        3
176
     0
 62
     5
420
      255
176
     0
290
     0
176
     0
 90
       50
176
     0
 90
       50
176
     0
 90
       50
176
     0
290
     0
176
     0
 90
       50
176
     0
 62
   256
176
     0
 40
1.0
176
     0
 90
        2
176
     0
  1
strokes_ogs.tif
176
     0
290
     0
176
     0
 40
1.0
176
     0
 40
1.0
176
     0
  0
VISUALSTYLE
  5
37
102
{ACAD_REACTORS
330
29
102
}
330
29
100
AcDbVisualStyle
  2
Linepattern
 70
    14
177
     3
291
     1
 70
    58
 90
        2
176
     1
 90
        2
176
     1
 90
        0
176
     1
 90
        0
176
     1
 40
0.6
176
     1
 40
30.0
176
     1
 62
     7
420
 16777215
176
     1
 90
        1
176
     1
 90
        4
176
     1
 62
     7
176
     1
 62
   257
176
     1
 90
        7
176
     1
 90
        7
176
     1
 40
1.0
176
     1
 90
        8
176
     1
 62
     7
176
     1
 40
1.0
176
     1
 90
        1
176
     1
 90
        6
176
     1
 90
        2
176
     1
 62
     7
176
     1
 90
        5
176
     1
 90
        0
176
     1
 90
        0
176
     1
290
     0
176
     1
 90
        1
176
     1
 40
0.0
176
     1
 90
        0
176
     1
290
     0
176
     1
290
     1
176
     1
290
     1
176
     1
290
     0
176
     1
290
     0
176
     1
290
     0
176
     1
290
     0
176
     1
290
     0
176
     1
290
     0
176
     1
 90
       50
176
     1
 40
0.0
176
     1
 40
1.0
176
     1
 90
        0
176
     1
 62
    18
420
        0
176
     1
 90
       50
176
     1
 90
        3
176
     1
 62
     5
420
      255
176
     1
290
     0
176
     1
 90
       50
176
     1
 90
       50
176
     1
 90
       50
176
     1
290
     0
176
     1
 90
       50
176
     1
 62
   256
176
     0
 40
1.0
176
     0
 90
        2
176
     1
  1
strokes_ogs.tif
176
     1
290
     0
176
     1
 40
1.0
176
     1
 40
1.0
176
     1
  0
VISUALSTYLE
  5
40
102
{ACAD_REACTORS
330
29
102
}
330
29
100
AcDbVisualStyle
  2
OverhangOff
 70
    21
177
     3
291
     1
 70
    58
 90
        2
176
     0
 90
        2
176
     0
 90
        0
176
     0
 90
        0
176
     0
 40
0.6
176
     0
 40
30.0
176
     0
 62
     7
420
 16777215
176
     0
 90
        1
176
     0
 90
        4
176
     0
 62
     7
176
     0
 62
   257
176
     0
 90
        1
176
     0
 90
        1
176
     0
 40
1.0
176
     0
 90
        9
176
     2
 62
     7
176
     0
 40
1.0
176
     0
 90
        1
176
     0
 90
        6
176
     0
 90
        2
176
     0
 62
     7
176
     0
 90
        5
176
     0
 90
        0
176
     0
 90
        0
176
     0
290
     0
176
     0
 90
        1
176
     0
 40
0.0
176
     0
 90
        0
176
     0
290
     0
176
     0
290
     1
176
     0
290
     1
176
     0
290
     0
176
     0
290
     0
176
     0
290
     0
176
     0
290
     0
176
     0
290
     0
176
     0
290
     0
176
     0
 90
       50
176
     0
 40
0.0
176
     0
 40
1.0
176
     0
 90
        0
176
     0
 62
    18
420
        0
176
     0
 90
       50
176
     0
 90
        3
176
     0
 62
     5
420
      255
176
     0
290
     0
176
     0
 90
       50
176
     0
 90
       50
176
     0
 90
       50
176
     0
290
     0
176
     0
 90
       50
176
     0
 62
   256
176
     0
 40
1.0
176
     0
 90
        2
176
     0
  1
strokes_ogs.tif
176
     0
290
     0
176
     0
 40
1.0
176
     0
 40
1.0
176
     0
  0
VISUALSTYLE
  5
33
102
{ACAD_REACTORS
330
29
102
}
330
29
100
AcDbVisualStyle
  2
Realistic
 70
     8
177
     3
291
     0
 70
    58
 90
        2
176
     1
 90
        3
176
     1
 90
        0
176
     1
 90
        2
176
     1
 40
0.6
176
     1
 40
30.0
176
     1
 62
     7
420
 16777215
176
     1
 90
        0
176
     1
 90
        0
176
     1
 62
     7
176
     1
 62
   257
176
     1
 90
        1
176
     1
 90
        1
176
     1
 40
1.0
176
     1
 90
        8
176
     1
 62
   257
176
     1
 40
1.0
176
     1
 90
        1
176
     1
 90
        6
176
     1
 90
        2
176
     1
 62
     7
176
     1
 90
        3
176
     1
 90
        0
176
     1
 90
        0
176
     1
290
     0
176
     1
 90
       13
176
     1
 40
0.0
176
     1
 90
        0
176
     1
290
     0
176
     1
290
     1
176
     1
290
     1
176
     1
290
     0
176
     1
290
     0
176
     1
290
     0
176
     1
290
     0
176
     1
290
     0
176
     1
290
     0
176
     1
 90
       50
176
     1
 40
0.0
176
     1
 40
1.0
176
     1
 90
        0
176
     1
 62
    18
420
        0
176
     1
 90
       50
176
     1
 90
        3
176
     1
 62
     5
420
      255
176
     1
290
     0
176
     1
 90
       50
176
     1
 90
       50
176
     1
 90
       50
176
     1
290
     0
176
     1
 90
       50
176
     1
 62
   256
176
     0
 40
1.0
176
     0
 90
        2
176
     1
  1
strokes_ogs.tif
176
     1
290
     0
176
     1
 40
1.0
176
     1
 40
1.0
176
     1
  0
VISUALSTYLE
  5
3E
102
{ACAD_REACTORS
330
29
102
}
330
29
100
AcDbVisualStyle
  2
Shaded
 70
    27
177
     3
291
     0
 70
    58
 90
        2
176
     1
 90
        2
176
     1
 90
        1
176
     1
 90
        2
176
     1
 40
0.6
176
     1
 40
30.0
176
     1
 62
     7
420
 16777215
176
     1
 90
        0
176
     1
 90
        4
176
     1
 62
     7
176
     1
 62
   257
176
     1
 90
        1
176
     1
 90
        1
176
     1
 40
1.0
176
     1
 90
        8
176
     1
 62
   257
176
     1
 40
1.0
176
     1
 90
        1
176
     1
 90
        6
176
     1
 90
        2
176
     1
 62
     8
420
  7895160
176
     1
 90
        3
176
     1
 90
        0
176
     1
 90
        0
176
     1
290
     0
176
     1
 90
        5
176
     1
 40
0.0
176
     1
 90
        0
176
     1
290
     0
176
     1
290
     1
176
     1
290
     1
176
     1
290
     0
176
     1
290
     0
176
     1
290
     0
176
     1
290
     0
176
     1
290
     0
176
     1
290
     0
176
     1
 90
       50
176
     1
 40
0.0
176
     1
 40
1.0
176
     1
 90
        0
176
     1
 62
    18
420
        0
176
     1
 90
       50
176
     1
 90
        3
176
     1
 62
     5
420
      255
176
     1
290
     0
176
     1
 90
       50
176
     1
 90
       50
176
     1
 90
       50
176
     1
290
     0
176
     1
 90
       50
176
     1
 62
   256
176
     0
 40
1.0
176
     0
 90
        2
176
     1
  1
strokes_ogs.tif
176
     1
290
     0
176
     1
 40
1.0
176
     1
 40
1.0
176
     1
  0
VISUALSTYLE
  5
3D
102
{ACAD_REACTORS
330
29
102
}
330
29
100
AcDbVisualStyle
  2
Shaded with edges
 70
    26
177
     3
291
     0
 70
    58
 90
        2
176
     1
 90
        2
176
     1
 90
        1
176
     1
 90
        2
176
     1
 40
0.6
176
     1
 40
30.0
176
     1
 62
     7
420
 16777215
176
     1
 90
        1
176
     1
 90
        2
176
     1
 62
     7
176
     1
 62
   257
176
     1
 90
        2
176
     1
 90
        1
176
     1
 40
1.0
176
     1
 90
        8
176
     1
 62
   257
176
     1
 40
1.0
176
     1
 90
        1
176
     1
 90
        6
176
     1
 90
        2
176
     1
 62
     7
176
     1
 90
        3
176
     1
 90
        0
176
     1
 90
        0
176
     1
290
     0
176
     1
 90
        5
176
     1
 40
0.0
176
     1
 90
        0
176
     1
290
     0
176
     1
290
     1
176
     1
290
     1
176
     1
290
     0
176
     1
290
     0
176
     1
290
     0
176
     1
290
     0
176
     1
290
     0
176
     1
290
     0
176
     1
 90
       50
176
     1
 40
0.0
176
     1
 40
1.0
176
     1
 90
        0
176
     1
 62
    18
420
        0
176
     1
 90
       50
176
     1
 90
        3
176
     1
 62
     5
420
      255
176
     1
290
     0
176
     1
 90
       50
176
     1
 90
       50
176
     1
 90
       50
176
     1
290
     0
176
     1
 90
       50
176
     1
 62
   256
176
     0
 40
1.0
176
     0
 90
        2
176
     1
  1
strokes_ogs.tif
176
     1
290
     0
176
     1
 40
1.0
176
     1
 40
1.0
176
     1
  0
VISUALSTYLE
  5
3A
102
{ACAD_REACTORS
330
29
102
}
330
29
100
AcDbVisualStyle
  2
Shades of Gray
 70
    23
177
     3
291
     0
 70
    58
 90
        2
176
     1
 90
        2
176
     1
 90
        3
176
     1
 90
        0
176
     1
 40
0.6
176
     1
 40
30.0
176
     1
 62
     7
420
 16777215
176
     1
 90
        2
176
     1
 90
        2
176
     1
 62
     7
176
     1
 62
     7
176
     1
 90
        1
176
     1
 90
        1
176
     1
 40
40.0
176
     1
 90
        8
176
     1
 62
     7
176
     1
 40
1.0
176
     1
 90
        1
176
     1
 90
        6
176
     1
 90
        2
176
     1
 62
     7
176
     1
 90
        3
176
     1
 90
        0
176
     1
 90
        0
176
     1
290
     0
176
     1
 90
        1
176
     1
 40
0.0
176
     1
 90
        0
176
     1
290
     0
176
     1
290
     1
176
     1
290
     1
176
     1
290
     0
176
     1
290
     0
176
     1
290
     0
176
     1
290
     0
176
     1
290
     0
176
     1
290
     0
176
     1
 90
       50
176
     1
 40
0.0
176
     1
 40
1.0
176
     1
 90
        0
176
     1
 62
    18
420
        0
176
     1
 90
       50
176
     1
 90
        3
176
     1
 62
     5
420
      255
176
     1
290
     0
176
     1
 90
       50
176
     1
 90
       50
176
     1
 90
       50
176
     1
290
     0
176
     1
 90
       50
176
     1
 62
   256
176
     0
 40
1.0
176
     0
 90
        2
176
     1
  1
strokes_ogs.tif
176
     1
290
     0
176
     1
 40
1.0
176
     1
 40
1.0
176
     1
  0
VISUALSTYLE
  5
3B
102
{ACAD_REACTORS
330
29
102
}
330
29
100
AcDbVisualStyle
  2
Sketchy
 70
    24
177
     3
291
     0
 70
    58
 90
        1
176
     1
 90
        2
176
     1
 90
        2
176
     1
 90
        0
176
     1
 40
0.6
176
     1
 40
30.0
176
     1
 62
     7
420
 16777215
176
     1
 90
        2
176
     1
 90
        2
176
     1
 62
     7
176
     1
 62
     7
176
     1
 90
        1
176
     1
 90
        1
176
     1
 40
40.0
176
     1
 90
       11
176
     1
 62
     7
176
     1
 40
1.0
176
     1
 90
        1
176
     1
 90
        6
176
     1
 90
        2
176
     1
 62
     7
176
     1
 90
        6
176
     1
 90
        0
176
     1
 90
        0
176
     1
290
     0
176
     1
 90
        1
176
     1
 40
0.0
176
     1
 90
        0
176
     1
290
     0
176
     1
290
     1
176
     1
290
     1
176
     1
290
     0
176
     1
290
     0
176
     1
290
     0
176
     1
290
     0
176
     1
290
     0
176
     1
290
     0
176
     1
 90
       50
176
     1
 40
0.0
176
     1
 40
1.0
176
     1
 90
        0
176
     1
 62
    18
420
        0
176
     1
 90
       50
176
     1
 90
        3
176
     1
 62
     5
420
      255
176
     1
290
     0
176
     1
 90
       50
176
     1
 90
       50
176
     1
 90
       50
176
     1
290
     0
176
     1
 90
       50
176
     1
 62
   256
176
     0
 40
1.0
176
     0
 90
        2
176
     1
  1
strokes_ogs.tif
176
     1
290
     0
176
     1
 40
1.0
176
     1
 40
1.0
176
     1
  0
VISUALSTYLE
  5
36
102
{ACAD_REACTORS
330
29
102
}
330
29
100
AcDbVisualStyle
  2
Thicken
 70
    13
177
     3
291
     1
 70
    58
 90
        2
176
     1
 90
        2
176
     1
 90
        0
176
     1
 90
        0
176
     1
 40
0.6
176
     1
 40
30.0
176
     1
 62
     7
420
 16777215
176
     1
 90
        1
176
     1
 90
        4
176
     1
 62
     7
176
     1
 62
   257
176
     1
 90
        1
176
     1
 90
        1
176
     1
 40
1.0
176
     1
 90
       12
176
     1
 62
     7
176
     1
 40
1.0
176
     1
 90
        1
176
     1
 90
        6
176
     1
 90
        2
176
     1
 62
     7
176
     1
 90
        5
176
     1
 90
        0
176
     1
 90
        0
176
     1
290
     0
176
     1
 90
        1
176
     1
 40
0.0
176
     1
 90
        0
176
     1
290
     0
176
     1
290
     1
176
     1
290
     1
176
     1
290
     0
176
     1
290
     0
176
     1
290
     0
176
     1
290
     0
176
     1
290
     0
176
     1
290
     0
176
     1
 90
       50
176
     1
 40
0.0
176
     1
 40
1.0
176
     1
 90
        0
176
     1
 62
    18
420
        0
176
     1
 90
       50
176
     1
 90
        3
176
     1
 62
     5
420
      255
176
     1
290
     0
176
     1
 90
       50
176
     1
 90
       50
176
     1
 90
       50
176
     1
290
     0
176
     1
 90
       50
176
     1
 62
   256
176
     0
 40
1.0
176
     0
 90
        2
176
     1
  1
strokes_ogs.tif
176
     1
290
     0
176
     1
 40
1.0
176
     1
 40
1.0
176
     1
  0
VISUALSTYLE
  5
30
102
{ACAD_REACTORS
330
29
102
}
330
29
100
AcDbVisualStyle
  2
Wireframe
 70
     5
177
     3
291
     0
 70
    58
 90
        0
176
     1
 90
        2
176
     1
 90
        0
176
     1
 90
        0
176
     1
 40
0.6
176
     1
 40
30.0
176
     1
 62
     7
420
 16777215
176
     1
 90
        1
176
     1
 90
        4
176
     1
 62
     7
176
     1
 62
   257
176
     1
 90
        1
176
     1
 90
        1
176
     1
 40
1.0
176
     1
 90
        0
176
     1
 62
   257
176
     1
 40
1.0
176
     1
 90
        1
176
     1
 90
        6
176
     1
 90
        2
176
     1
 62
     7
176
     1
 90
        3
176
     1
 90
        0
176
     1
 90
        0
176
     1
290
     0
176
     1
 90
        1
176
     1
 40
0.0
176
     1
 90
        0
176
     1
290
     0
176
     1
290
     1
176
     1
290
     1
176
     1
290
     0
176
     1
290
     0
176
     1
290
     0
176
     1
290
     0
176
     1
290
     0
176
     1
290
     0
176
     1
 90
       50
176
     1
 40
0.0
176
     1
 40
1.0
176
     1
 90
        0
176
     1
 62
    18
420
        0
176
     1
 90
       50
176
     1
 90
        3
176
     1
 62
     5
420
      255
176
     1
290
     0
176
     1
 90
       50
176
     1
 90
       50
176
     1
 90
       50
176
     1
290
     0
176
     1
 90
       50
176
     1
 62
   256
176
     0
 40
1.0
176
     0
 90
        2
176
     1
  1
strokes_ogs.tif
176
     1
290
     0
176
     1
 40
1.0
176
     1
 40
1.0
176
     1
  0
VISUALSTYLE
  5
3C
102
{ACAD_REACTORS
330
29
102
}
330
29
100
AcDbVisualStyle
  2
X-Ray
 70
    25
177
     3
291
     0
 70
    58
 90
        2
176
     1
 90
        2
176
     1
 90
        1
176
     1
 90
        1
176
     1
 40
0.5
176
     1
 40
30.0
176
     1
 62
     7
420
 16777215
176
     1
 90
        1
176
     1
 90
        0
176
     1
 62
     7
176
     1
 62
   257
176
     1
 90
        1
176
     1
 90
        1
176
     1
 40
1.0
176
     1
 90
        8
176
     1
 62
     7
176
     1
 40
1.0
176
     1
 90
        1
176
     1
 90
        6
176
     1
 90
        2
176
     1
 62
     7
176
     1
 90
        3
176
     1
 90
        0
176
     1
 90
        0
176
     1
290
     0
176
     1
 90
       13
176
     1
 40
0.0
176
     1
 90
        0
176
     1
290
     0
176
     1
290
     1
176
     1
290
     1
176
     1
290
     0
176
     1
290
     0
176
     1
290
     0
176
     1
290
     0
176
     1
290
     0
176
     1
290
     0
176
     1
 90
       50
176
     1
 40
0.0
176
     1
 40
1.0
176
     1
 90
        0
176
     1
 62
    18
420
        0
176
     1
 90
       50
176
     1
 90
        3
176
     1
 62
     5
420
      255
176
     1
290
     0
176
     1
 90
       50
176
     1
 90
       50
176
     1
 90
       50
176
     1
290
     0
176
     1
 90
       50
176
     1
 62
   256
176
     0
 40
1.0
176
     0
 90
        2
176
     1
  1
strokes_ogs.tif
176
     1
290
     0
176
     1
 40
1.0
176
     1
 40
1.0
176
     1
  0
DICTIONARYVAR
  5
A9
102
{ACAD_REACTORS
330
A4
102
}
330
A4
100
DictionaryVariables
280
     0
  1
1:1
  0
DICTIONARYVAR
  5
A6
102
{ACAD_REACTORS
330
A4
102
}
330
A4
100
DictionaryVariables
280
     0
  1
STANDARD
  0
DICTIONARYVAR
  5
A5
102
{ACAD_REACTORS
330
A4
102
}
330
A4
100
DictionaryVariables
280
     0
  1
STANDARD
  0
DICTIONARYVAR
  5
A7
102
{ACAD_REACTORS
330
A4
102
}
330
A4
100
DictionaryVariables
280
     0
  1
Imperial24
  0
DICTIONARYVAR
  5
A8
102
{ACAD_REACTORS
330
A4
102
}
330
A4
100
DictionaryVariables
280
     0
  1
Imperial24
  0
DICTIONARY
  5
1A
330
19
100
AcDbDictionary
280
     1
281
     1
  3
BUMPTILE
360
1C
  3
DIFFUSETILE
360
1B
  3
OPACITYTILE
360
1F
  3
REFLECTIONTILE
360
1E
  3
REFRACTIONTILE
360
20
  3
SPECULARTILE
360
1D
  0
DICTIONARY
  5
12
330
11
100
AcDbDictionary
280
     1
281
     1
  3
BUMPTILE
360
14
  3
DIFFUSETILE
360
13
  3
OPACITYTILE
360
17
  3
REFLECTIONTILE
360
16
  3
REFRACTIONTILE
360
18
  3
SPECULARTILE
360
15
  0
DICTIONARY
  5
22
330
21
100
AcDbDictionary
280
     1
281
     1
  3
BUMPTILE
360
24
  3
DIFFUSETILE
360
23
  3
OPACITYTILE
360
27
  3
REFLECTIONTILE
360
26
  3
REFRACTIONTILE
360
28
  3
SPECULARTILE
360
25
  0
DICTIONARY
  5
AA
330
65
100
AcDbDictionary
280
     1
281
     1
  3
ACAD_ROUNDTRIP_2008_TABLESTYLE_CELLSTYLEMAP
360
AB
  0
XRECORD
  5
1C
102
{ACAD_REACTORS
330
1A
102
}
330
1A
100
AcDbXrecord
280
     1
270
     1
271
     1
  0
XRECORD
  5
1B
102
{ACAD_REACTORS
330
1A
102
}
330
1A
100
AcDbXrecord
280
     1
270
     1
271
     1
  0
XRECORD
  5
1F
102
{ACAD_REACTORS
330
1A
102
}
330
1A
100
AcDbXrecord
280
     1
270
     1
271
     1
  0
XRECORD
  5
1E
102
{ACAD_REACTORS
330
1A
102
}
330
1A
100
AcDbXrecord
280
     1
270
     1
271
     1
  0
XRECORD
  5
20
102
{ACAD_REACTORS
330
1A
102
}
330
1A
100
AcDbXrecord
280
     1
270
     1
271
     1
  0
XRECORD
  5
1D
102
{ACAD_REACTORS
330
1A
102
}
330
1A
100
AcDbXrecord
280
     1
270
     1
271
     1
  0
XRECORD
  5
14
102
{ACAD_REACTORS
330
12
102
}
330
12
100
AcDbXrecord
280
     1
270
     1
271
     1
  0
XRECORD
  5
13
102
{ACAD_REACTORS
330
12
102
}
330
12
100
AcDbXrecord
280
     1
270
     1
271
     1
  0
XRECORD
  5
17
102
{ACAD_REACTORS
330
12
102
}
330
12
100
AcDbXrecord
280
     1
270
     1
271
     1
  0
XRECORD
  5
16
102
{ACAD_REACTORS
330
12
102
}
330
12
100
AcDbXrecord
280
     1
270
     1
271
     1
  0
XRECORD
  5
18
102
{ACAD_REACTORS
330
12
102
}
330
12
100
AcDbXrecord
280
     1
270
     1
271
     1
  0
XRECORD
  5
15
102
{ACAD_REACTORS
330
12
102
}
330
12
100
AcDbXrecord
280
     1
270
     1
271
     1
  0
XRECORD
  5
24
102
{ACAD_REACTORS
330
22
102
}
330
22
100
AcDbXrecord
280
     1
270
     1
271
     1
  0
XRECORD
  5
23
102
{ACAD_REACTORS
330
22
102
}
330
22
100
AcDbXrecord
280
     1
270
     1
271
     1
  0
XRECORD
  5
27
102
{ACAD_REACTORS
330
22
102
}
330
22
100
AcDbXrecord
280
     1
270
     1
271
     1
  0
XRECORD
  5
26
102
{ACAD_REACTORS
330
22
102
}
330
22
100
AcDbXrecord
280
     1
270
     1
271
     1
  0
XRECORD
  5
28
102
{ACAD_REACTORS
330
22
102
}
330
22
100
AcDbXrecord
280
     1
270
     1
271
     1
  0
XRECORD
  5
25
102
{ACAD_REACTORS
330
22
102
}
330
22
100
AcDbXrecord
280
     1
270
     1
271
     1
  0
CELLSTYLEMAP
  5
AB
102
{ACAD_REACTORS
330
AA
102
}
330
AA
100
AcDbCellStyleMap
 90
        3
300
CELLSTYLE
  1
TABLEFORMAT_BEGIN
 90
        5
170
     1
 91
        0
 92
    32768
 62
   257
 93
        1
300
CONTENTFORMAT
  1
CONTENTFORMAT_BEGIN
 90
        0
 91
        0
 92
      512
 93
        0
300

 40
0.0
140
1.0
 94
        5
 62
     0
340
55
144
0.25
309
CONTENTFORMAT_END
171
     0
 94
        0
309
TABLEFORMAT_END
  1
CELLSTYLE_BEGIN
 90
        1
 91
        1
300
_TITLE
309
CELLSTYLE_END
300
CELLSTYLE
  1
TABLEFORMAT_BEGIN
 90
        5
170
     1
 91
        0
 92
        0
 62
   257
 93
        1
300
CONTENTFORMAT
  1
CONTENTFORMAT_BEGIN
 90
        0
 91
        0
 92
      512
 93
        0
300

 40
0.0
140
1.0
 94
        5
 62
     0
340
55
144
0.18
309
CONTENTFORMAT_END
171
     0
 94
        0
309
TABLEFORMAT_END
  1
CELLSTYLE_BEGIN
 90
        2
 91
        1
300
_HEADER
309
CELLSTYLE_END
300
CELLSTYLE
  1
TABLEFORMAT_BEGIN
 90
        5
170
     1
 91
        0
 92
        0
 62
   257
 93
        1
300
CONTENTFORMAT
  1
CONTENTFORMAT_BEGIN
 90
        0
 91
        0
 92
      512
 93
        0
300

 40
0.0
140
1.0
 94
        2
 62
     0
340
55
144
0.18
309
CONTENTFORMAT_END
171
     0
 94
        0
309
TABLEFORMAT_END
  1
CELLSTYLE_BEGIN
 90
        3
 91
        2
300
_DATA
309
CELLSTYLE_END
  0
ENDSEC
  0
EOF
