  0
SECTION
  2
HEADER
  9
$ACADVER
  1
AC1032
  9
$ACADMAINTVER
 90
      251
  9
$DWGCODEPAGE
  3
ANSI_1252
  9
$REQUIREDVERSIONS
160
                 0
  9
$INSBASE
 10
0.0
 20
0.0
 30
0.0
  9
$EXTMIN
 10
1.000000000000000E+20
 20
1.000000000000000E+20
 30
1.000000000000000E+20
  9
$EXTMAX
 10
-1.000000000000000E+20
 20
-1.000000000000000E+20
 30
-1.000000000000000E+20
  9
$LIMMIN
 10
0.0
 20
0.0
  9
$LIMMAX
 10
12.0
 20
9.0
  9
$ORTHOMODE
 70
     0
  9
$REGENMODE
 70
     1
  9
$FILLMODE
 70
     1
  9
$QTEXTMODE
 70
     0
  9
$MIRRTEXT
 70
     0
  9
$LTSCALE
 40
1.0
  9
$ATTMODE
 70
     1
  9
$TEXTSIZE
 40
0.2
  9
$TRACEWID
 40
0.05
  9
$TEXTSTYLE
  7
Standard
  9
$CLAYER
  8
0
  9
$CELTYPE
  6
ByLayer
  9
$CECOLOR
 62
   256
  9
$CELTSCALE
 40
1.0
  9
$DISPSILH
 70
     0
  9
$DIMSCALE
 40
1.0
  9
$DIMASZ
 40
0.18
  9
$DIMEXO
 40
0.0625
  9
$DIMDLI
 40
0.38
  9
$DIMRND
 40
0.0
  9
$DIMDLE
 40
0.0
  9
$DIMEXE
 40
0.18
  9
$DIMTP
 40
0.0
  9
$DIMTM
 40
0.0
  9
$DIMTXT
 40
0.18
  9
$DIMCEN
 40
0.09
  9
$DIMTSZ
 40
0.0
  9
$DIMTOL
 70
     0
  9
$DIMLIM
 70
     0
  9
$DIMTIH
 70
     1
  9
$DIMTOH
 70
     1
  9
$DIMSE1
 70
     0
  9
$DIMSE2
 70
     0
  9
$DIMTAD
 70
     0
  9
$DIMZIN
 70
     0
  9
$DIMBLK
  1

  9
$DIMASO
 70
     1
  9
$DIMSHO
 70
     1
  9
$DIMPOST
  1

  9
$DIMAPOST
  1

  9
$DIMALT
 70
     0
  9
$DIMALTD
 70
     2
  9
$DIMALTF
 40
25.4
  9
$DIMLFAC
 40
1.0
  9
$DIMTOFL
 70
     0
  9
$DIMTVP
 40
0.0
  9
$DIMTIX
 70
     0
  9
$DIMSOXD
 70
     0
  9
$DIMSAH
 70
     0
  9
$DIMBLK1
  1

  9
$DIMBLK2
  1

  9
$DIMSTYLE
  2
Standard
  9
$DIMCLRD
 70
     0
  9
$DIMCLRE
 70
     0
  9
$DIMCLRT
 70
     0
  9
$DIMTFAC
 40
1.0
  9
$DIMGAP
 40
0.09
  9
$DIMJUST
 70
     0
  9
$DIMSD1
 70
     0
  9
$DIMSD2
 70
     0
  9
$DIMTOLJ
 70
     1
  9
$DIMTZIN
 70
     0
  9
$DIMALTZ
 70
     0
  9
$DIMALTTZ
 70
     0
  9
$DIMUPT
 70
     0
  9
$DIMDEC
 70
     4
  9
$DIMTDEC
 70
     4
  9
$DIMALTU
 70
     2
  9
$DIMALTTD
 70
     2
  9
$DIMTXSTY
  7
Standard
  9
$DIMAUNIT
 70
     0
  9
$DIMADEC
 70
     0
  9
$DIMALTRND
 40
0.0
  9
$DIMAZIN
 70
     0
  9
$DIMDSEP
 70
    46
  9
$DIMATFIT
 70
     3
  9
$DIMFRAC
 70
     0
  9
$DIMLDRBLK
  1

  9
$DIMLUNIT
 70
     2
  9
$DIMLWD
 70
    -2
  9
$DIMLWE
 70
    -2
  9
$DIMTMOVE
 70
     0
  9
$DIMFXL
 40
1.0
  9
$DIMFXLON
 70
     0
  9
$DIMJOGANG
 40
0.7853981633974483
  9
$DIMTFILL
 70
     0
  9
$DIMTFILLCLR
 70
     0
  9
$DIMARCSYM
 70
     0
  9
$DIMLTYPE
  6

  9
$DIMLTEX1
  6

  9
$DIMLTEX2
  6

  9
$DIMTXTDIRECTION
 70
     0
  9
$LUNITS
 70
     2
  9
$LUPREC
 70
     4
  9
$SKETCHINC
 40
0.1
  9
$FILLETRAD
 40
0.0
  9
$AUNITS
 70
     0
  9
$AUPREC
 70
     0
  9
$MENU
  1
.
  9
$ELEVATION
 40
0.0
  9
$PELEVATION
 40
0.0
  9
$THICKNESS
 40
0.0
  9
$LIMCHECK
 70
     0
  9
$CHAMFERA
 40
0.0
  9
$CHAMFERB
 40
0.0
  9
$CHAMFERC
 40
0.0
  9
$CHAMFERD
 40
0.0
  9
$SKPOLY
 70
     0
  9
$TDCREATE
 40
2460024.638726852
  9
$TDUCREATE
 40
2460024.597060185
  9
$TDUPDATE
 40
2460024.638726852
  9
$TDUUPDATE
 40
2460024.597060185
  9
$TDINDWG
 40
0.0000000000
  9
$TDUSRTIMER
 40
0.0000000000
  9
$USRTIMER
 70
     1
  9
$ANGBASE
 50
0.0
  9
$ANGDIR
 70
     0
  9
$PDMODE
 70
     0
  9
$PDSIZE
 40
0.0
  9
$PLINEWID
 40
0.0
  9
$SPLFRAME
 70
     0
  9
$SPLINETYPE
 70
     6
  9
$SPLINESEGS
 70
     8
  9
$HANDSEED
  5
AD
  9
$SURFTAB1
 70
     6
  9
$SURFTAB2
 70
     6
  9
$SURFTYPE
 70
     6
  9
$SURFU
 70
     6
  9
$SURFV
 70
     6
  9
$UCSBASE
  2

  9
$UCSNAME
  2

  9
$UCSORG
 10
0.0
 20
0.0
 30
0.0
  9
$UCSXDIR
 10
1.0
 20
0.0
 30
0.0
  9
$UCSYDIR
 10
0.0
 20
1.0
 30
0.0
  9
$UCSORTHOREF
  2

  9
$UCSORTHOVIEW
 70
     0
  9
$UCSORGTOP
 10
0.0
 20
0.0
 30
0.0
  9
$UCSORGBOTTOM
 10
0.0
 20
0.0
 30
0.0
  9
$UCSORGLEFT
 10
0.0
 20
0.0
 30
0.0
  9
$UCSORGRIGHT
 10
0.0
 20
0.0
 30
0.0
  9
$UCSORGFRONT
 10
0.0
 20
0.0
 30
0.0
  9
$UCSORGBACK
 10
0.0
 20
0.0
 30
0.0
  9
$PUCSBASE
  2

  9
$PUCSNAME
  2

  9
$PUCSORG
 10
0.0
 20
0.0
 30
0.0
  9
$PUCSXDIR
 10
1.0
 20
0.0
 30
0.0
  9
$PUCSYDIR
 10
0.0
 20
1.0
 30
0.0
  9
$PUCSORTHOREF
  2

  9
$PUCSORTHOVIEW
 70
     0
  9
$PUCSORGTOP
 10
0.0
 20
0.0
 30
0.0
  9
$PUCSORGBOTTOM
 10
0.0
 20
0.0
 30
0.0
  9
$PUCSORGLEFT
 10
0.0
 20
0.0
 30
0.0
  9
$PUCSORGRIGHT
 10
0.0
 20
0.0
 30
0.0
  9
$PUCSORGFRONT
 10
0.0
 20
0.0
 30
0.0
  9
$PUCSORGBACK
 10
0.0
 20
0.0
 30
0.0
  9
$USERI1
 70
     0
  9
$USERI2
 70
     0
  9
$USERI3
 70
     0
  9
$USERI4
 70
     0
  9
$USERI5
 70
     0
  9
$USERR1
 40
0.0
  9
$USERR2
 40
0.0
  9
$USERR3
 40
0.0
  9
$USERR4
 40
0.0
  9
$USERR5
 40
0.0
  9
$WORLDVIEW
 70
     1
  9
$SHADEDGE
 70
     3
  9
$SHADEDIF
 70
    70
  9
$TILEMODE
 70
     1
  9
$MAXACTVP
 70
    64
  9
$PINSBASE
 10
0.0
 20
0.0
 30
0.0
  9
$PLIMCHECK
 70
     0
  9
$PEXTMIN
 10
1.000000000000000E+20
 20
1.000000000000000E+20
 30
1.000000000000000E+20
  9
$PEXTMAX
 10
-1.000000000000000E+20
 20
-1.000000000000000E+20
 30
-1.000000000000000E+20
  9
$PLIMMIN
 10
0.0
 20
0.0
  9
$PLIMMAX
 10
12.0
 20
9.0
  9
$UNITMODE
 70
     0
  9
$VISRETAIN
 70
     1
  9
$PLINEGEN
 70
     0
  9
$PSLTSCALE
 70
     1
  9
$TREEDEPTH
 70
  3020
  9
$CMLSTYLE
  2
Standard
  9
$CMLJUST
 70
     0
  9
$CMLSCALE
 40
1.0
  9
$PROXYGRAPHICS
 70
     1
  9
$MEASUREMENT
 70
     0
  9
$CELWEIGHT
370
    -1
  9
$ENDCAPS
280
     0
  9
$JOINSTYLE
280
     0
  9
$LWDISPLAY
290
     1
  9
$INSUNITS
 70
     4
  9
$HYPERLINKBASE
  1

  9
$STYLESHEET
  1

  9
$XEDIT
290
     1
  9
$CEPSNTYPE
380
     0
  9
$PSTYLEMODE
290
     1
  9
$FINGERPRINTGUID
  2
{452EBE72-E82D-3C4B-9E07-BE98FA2ADECD}
  9
$VERSIONGUID
  2
{6133197C-2C27-CD45-85CB-1B1806E2481B}
  9
$EXTNAMES
290
     1
  9
$PSVPSCALE
 40
0.0
  9
$OLESTARTUP
290
     0
  9
$SORTENTS
280
   127
  9
$INDEXCTL
280
     0
  9
$HIDETEXT
280
     1
  9
$XCLIPFRAME
280
     2
  9
$HALOGAP
280
     0
  9
$OBSCOLOR
 70
   257
  9
$OBSLTYPE
280
     0
  9
$INTERSECTIONDISPLAY
280
     0
  9
$INTERSECTIONCOLOR
 70
   257
  9
$DIMASSOC
280
     2
  9
$PROJECTNAME
  1

  9
$CAMERADISPLAY
290
     0
  9
$LENSLENGTH
 40
50.0
  9
$CAMERAHEIGHT
 40
0.0
  9
$STEPSPERSEC
 40
2.0
  9
$STEPSIZE
 40
6.0
  9
$3DDWFPREC
 40
2.0
  9
$PSOLWIDTH
 40
0.25
  9
$PSOLHEIGHT
 40
4.0
  9
$LOFTANG1
 40
1.570796326794896
  9
$LOFTANG2
 40
1.570796326794896
  9
$LOFTMAG1
 40
0.0
  9
$LOFTMAG2
 40
0.0
  9
$LOFTPARAM
 70
     7
  9
$LOFTNORMALS
280
     1
  9
$LATITUDE
 40
37.795
  9
$LONGITUDE
 40
-122.394
  9
$NORTHDIRECTION
 40
0.0
  9
$TIMEZONE
 70
 -8000
  9
$LIGHTGLYPHDISPLAY
280
     1
  9
$TILEMODELIGHTSYNCH
280
     1
  9
$CMATERIAL
347
11
  9
$SOLIDHIST
280
     0
  9
$SHOWHIST
280
     1
  9
$DWFFRAME
280
     2
  9
$DGNFRAME
280
     0
  9
$REALWORLDSCALE
290
     1
  9
$INTERFERECOLOR
 62
     1
  9
$INTERFEREOBJVS
345
33
  9
$INTERFEREVPVS
346
30
  9
$CSHADOW
280
     0
  9
$SHADOWPLANELOCATION
 40
0.0
  0
ENDSEC
  0
SECTION
  2
CLASSES
  0
CLASS
  1
ACDBDICTIONARYWDFLT
  2
AcDbDictionaryWithDefault
  3
ObjectDBX Classes
 90
        0
 91
        1
280
     0
281
     0
  0
CLASS
  1
MATERIAL
  2
AcDbMaterial
  3
ObjectDBX Classes
 90
     1153
 91
        3
280
     0
281
     0
  0
CLASS
  1
VISUALSTYLE
  2
AcDbVisualStyle
  3
ObjectDBX Classes
 90
     4095
 91
       24
280
     0
281
     0
  0
CLASS
  1
SCALE
  2
AcDbScale
  3
ObjectDBX Classes
 90
     1153
 91
       17
280
     0
281
     0
  0
CLASS
  1
TABLESTYLE
  2
AcDbTableStyle
  3
ObjectDBX Classes
 90
     4095
 91
        1
280
     0
281
     0
  0
CLASS
  1
MLEADERSTYLE
  2
AcDbMLeaderStyle
  3
ACDB_MLEADERSTYLE_CLASS
 90
     4095
 91
        1
280
     0
281
     0
  0
CLASS
  1
ACDBSECTIONVIEWSTYLE
  2
AcDbSectionViewStyle
  3
ObjectDBX Classes
 90
     1025
 91
        1
280
     0
281
     0
  0
CLASS
  1
ACDBDETAILVIEWSTYLE
  2
AcDbDetailViewStyle
  3
ObjectDBX Classes
 90
     1025
 91
        1
280
     0
281
     0
  0
CLASS
  1
DICTIONARYVAR
  2
AcDbDictionaryVar
  3
ObjectDBX Classes
 90
        0
 91
        5
280
     0
281
     0
  0
CLASS
  1
CELLSTYLEMAP
  2
AcDbCellStyleMap
  3
ObjectDBX Classes
 90
     1152
 91
        1
280
     0
281
     0
  0
ENDSEC
  0
SECTION
  2
TABLES
  0
TABLE
  2
VPORT
  5
8
330
0
100
AcDbSymbolTable
 70
     1
  0
VPORT
  5
57
330
8
100
AcDbSymbolTableRecord
100
AcDbViewportTableRecord
  2
*Active
 70
     0
 10
0.0
 20
0.0
 11
1.0
 21
1.0
 12
0.0
 22
0.0
 13
0.0
 23
0.0
 14
1.0
 24
1.0
 15
0.0
 25
0.0
 16
0.0
 26
0.0
 36
1.0
 17
600.1763475651845
 27
-999.8195651465769
 37
0.0
 40
2040.449791156557
 41
0.6000881750030807
 42
50.0
 43
0.0
 44
0.0
 50
0.0
 51
0.0
 71
     0
 72
   100
 73
     1
 74
     1
 75
     0
 76
     0
 77
     0
 78
     0
281
     0
 65
     1
110
0.0
120
0.0
130
0.0
111
1.0
121
0.0
131
0.0
112
0.0
122
1.0
132
0.0
 79
     0
146
0.0
 60
     3
 61
     5
292
     1
282
     1
141
0.0
142
0.0
 63
   250
421
  3355443
  0
ENDTAB
  0
TABLE
  2
LTYPE
  5
5
330
0
100
AcDbSymbolTable
 70
     1
  0
LTYPE
  5
5B
330
5
100
AcDbSymbolTableRecord
100
AcDbLinetypeTableRecord
  2
ByBlock
 70
     0
  3

 72
    65
 73
     0
 40
0.0
  0
LTYPE
  5
5C
330
5
100
AcDbSymbolTableRecord
100
AcDbLinetypeTableRecord
  2
ByLayer
 70
     0
  3

 72
    65
 73
     0
 40
0.0
  0
LTYPE
  5
5D
330
5
100
AcDbSymbolTableRecord
100
AcDbLinetypeTableRecord
  2
Continuous
 70
     0
  3
Solid line
 72
    65
 73
     0
 40
0.0
  0
ENDTAB
  0
TABLE
  2
LAYER
  5
2
330
0
100
AcDbSymbolTable
 70
    22
  0
LAYER
  5
54
330
2
100
AcDbSymbolTableRecord
100
AcDbLayerTableRecord
  2
0
 70
     0
 62
     7
  6
Continuous
370
    -3
390
F
347
21
348
0
  0
LAYER
  5
78
330
2
100
AcDbSymbolTableRecord
100
AcDbLayerTableRecord
  2
Bounding Box
 70
     0
 62
     7
  6
Continuous
370
     0
390
F
347
21
348
0
  0
LAYER
  5
7A
330
2
100
AcDbSymbolTableRecord
100
AcDbLayerTableRecord
  2
Screws
 70
     0
 62
     7
  6
Continuous
370
     0
390
F
347
21
348
0
  0
LAYER
  5
83
330
2
100
AcDbSymbolTableRecord
100
AcDbLayerTableRecord
  2
2023-018
 70
     1
 62
     7
  6
Continuous
370
     0
390
F
347
21
348
0
  0
LAYER
  5
84
330
2
100
AcDbSymbolTableRecord
100
AcDbLayerTableRecord
  2
2023-017
 70
     1
 62
     7
  6
Continuous
370
     0
390
F
347
21
348
0
  0
LAYER
  5
85
330
2
100
AcDbSymbolTableRecord
100
AcDbLayerTableRecord
  2
2023-016
 70
     1
 62
     7
  6
Continuous
370
     0
390
F
347
21
348
0
  0
LAYER
  5
86
330
2
100
AcDbSymbolTableRecord
100
AcDbLayerTableRecord
  2
2023-015
 70
     1
 62
     7
  6
Continuous
370
     0
390
F
347
21
348
0
  0
LAYER
  5
87
330
2
100
AcDbSymbolTableRecord
100
AcDbLayerTableRecord
  2
2023-014
 70
     1
 62
     7
  6
Continuous
370
     0
390
F
347
21
348
0
  0
LAYER
  5
88
330
2
100
AcDbSymbolTableRecord
100
AcDbLayerTableRecord
  2
2023-013
 70
     1
 62
     7
  6
Continuous
370
     0
390
F
347
21
348
0
  0
LAYER
  5
89
330
2
100
AcDbSymbolTableRecord
100
AcDbLayerTableRecord
  2
2023-012
 70
     1
 62
     7
  6
Continuous
370
     0
390
F
347
21
348
0
  0
LAYER
  5
8A
330
2
100
AcDbSymbolTableRecord
100
AcDbLayerTableRecord
  2
2023-011
 70
     1
 62
     7
  6
Continuous
370
     0
390
F
347
21
348
0
  0
LAYER
  5
8B
330
2
100
AcDbSymbolTableRecord
100
AcDbLayerTableRecord
  2
2023-010
 70
     0
 62
     7
  6
Continuous
370
     0
390
F
347
21
348
0
  0
LAYER
  5
9A
330
2
100
AcDbSymbolTableRecord
100
AcDbLayerTableRecord
  2
2023-009
 70
     1
 62
     7
  6
Continuous
370
     0
390
F
347
21
348
0
  0
LAYER
  5
9B
330
2
100
AcDbSymbolTableRecord
100
AcDbLayerTableRecord
  2
2023-008
 70
     1
 62
     7
  6
Continuous
370
     0
390
F
347
21
348
0
  0
LAYER
  5
9C
330
2
100
AcDbSymbolTableRecord
100
AcDbLayerTableRecord
  2
2023-007
 70
     1
 62
     7
  6
Continuous
370
     0
390
F
347
21
348
0
  0
LAYER
  5
9D
330
2
100
AcDbSymbolTableRecord
100
AcDbLayerTableRecord
  2
2023-006
 70
     1
 62
     7
  6
Continuous
370
     0
390
F
347
21
348
0
  0
LAYER
  5
9E
330
2
100
AcDbSymbolTableRecord
100
AcDbLayerTableRecord
  2
2023-005
 70
     1
 62
     7
  6
Continuous
370
     0
390
F
347
21
348
0
  0
LAYER
  5
9F
330
2
100
AcDbSymbolTableRecord
100
AcDbLayerTableRecord
  2
2023-004
 70
     1
 62
     7
  6
Continuous
370
     0
390
F
347
21
348
0
  0
LAYER
  5
A0
330
2
100
AcDbSymbolTableRecord
100
AcDbLayerTableRecord
  2
2023-003
 70
     1
 62
     7
  6
Continuous
370
     0
390
F
347
21
348
0
  0
LAYER
  5
A1
330
2
100
AcDbSymbolTableRecord
100
AcDbLayerTableRecord
  2
2023-002
 70
     1
 62
     7
  6
Continuous
370
     0
390
F
347
21
348
0
  0
LAYER
  5
A2
330
2
100
AcDbSymbolTableRecord
100
AcDbLayerTableRecord
  2
2023-001
 70
     1
 62
     7
  6
Continuous
370
     0
390
F
347
21
348
0
  0
LAYER
  5
A3
330
2
100
AcDbSymbolTableRecord
100
AcDbLayerTableRecord
  2
10-2022-057
 70
     5
 62
     7
  6
Continuous
370
     0
390
F
347
21
348
0
  0
ENDTAB
  0
TABLE
  2
STYLE
  5
3
330
0
100
AcDbSymbolTable
 70
     2
  0
STYLE
  5
55
330
3
100
AcDbSymbolTableRecord
100
AcDbTextStyleTableRecord
  2
Standard
 70
     0
 40
0.0
 41
1.0
 50
0.0
 71
     0
 42
0.2
  3
txt
  4

  0
STYLE
  5
5A
330
3
100
AcDbSymbolTableRecord
100
AcDbTextStyleTableRecord
  2
Annotative
 70
     0
 40
0.0
 41
1.0
 50
0.0
 71
     0
 42
0.2
  3
txt
  4

1001
AcadAnnotative
1000
AnnotativeData
1002
{
1070
     1
1070
     1
1002
}
  0
ENDTAB
  0
TABLE
  2
VIEW
  5
6
330
0
100
AcDbSymbolTable
 70
     0
  0
ENDTAB
  0
TABLE
  2
UCS
  5
7
330
0
100
AcDbSymbolTable
 70
     0
  0
ENDTAB
  0
TABLE
  2
APPID
  5
9
330
0
100
AcDbSymbolTable
 70
     2
  0
APPID
  5
56
330
9
100
AcDbSymbolTableRecord
100
AcDbRegAppTableRecord
  2
ACAD
 70
     0
  0
APPID
  5
5E
330
9
100
AcDbSymbolTableRecord
100
AcDbRegAppTableRecord
  2
AcadAnnotative
 70
     0
  0
ENDTAB
  0
TABLE
  2
DIMSTYLE
  5
A
330
0
100
AcDbSymbolTable
 70
     2
100
AcDbDimStyleTable
 71
     0
  0
DIMSTYLE
105
58
330
A
100
AcDbSymbolTableRecord
100
AcDbDimStyleTableRecord
  2
Standard
 70
     0
340
55
  0
DIMSTYLE
105
59
330
A
100
AcDbSymbolTableRecord
100
AcDbDimStyleTableRecord
  2
Annotative
 70
     0
340
55
1001
AcadAnnotative
1000
AnnotativeData
1002
{
1070
     1
1070
     1
1002
}
  0
ENDTAB
  0
TABLE
  2
BLOCK_RECORD
  5
1
330
0
100
AcDbSymbolTable
 70
     1
  0
BLOCK_RECORD
  5
70
330
1
100
AcDbSymbolTableRecord
100
AcDbBlockTableRecord
  2
*Model_Space
340
73
 70
     0
280
     1
281
     0
  0
BLOCK_RECORD
  5
6C
330
1
100
AcDbSymbolTableRecord
100
AcDbBlockTableRecord
  2
*Paper_Space
340
6F
 70
     0
280
     1
281
     0
  0
BLOCK_RECORD
  5
74
330
1
100
AcDbSymbolTableRecord
100
AcDbBlockTableRecord
  2
*Paper_Space0
340
77
 70
     0
280
     1
281
     0
  0
ENDTAB
  0
ENDSEC
  0
SECTION
  2
BLOCKS
  0
BLOCK
  5
71
330
70
100
AcDbEntity
  8
0
100
AcDbBlockBegin
  2
*Model_Space
 70
     0
 10
0.0
 20
0.0
 30
0.0
  3
*Model_Space
  1

  0
ENDBLK
  5
72
330
70
100
AcDbEntity
  8
0
100
AcDbBlockEnd
  0
BLOCK
  5
6D
330
6C
100
AcDbEntity
 67
     1
  8
0
100
AcDbBlockBegin
  2
*Paper_Space
 70
     0
 10
0.0
 20
0.0
 30
0.0
  3
*Paper_Space
  1

  0
ENDBLK
  5
6E
330
6C
100
AcDbEntity
 67
     1
  8
0
100
AcDbBlockEnd
  0
BLOCK
  5
75
330
74
100
AcDbEntity
 67
     1
  8
0
100
AcDbBlockBegin
  2
*Paper_Space0
 70
     0
 10
0.0
 20
0.0
 30
0.0
  3
*Paper_Space0
  1

  0
ENDBLK
  5
76
330
74
100
AcDbEntity
 67
     1
  8
0
100
AcDbBlockEnd
  0
ENDSEC
  0
SECTION
  2
ENTITIES
  0
LWPOLYLINE
  5
79
330
70
100
AcDbEntity
  8
Bounding Box
 62
    18
420
        0
370
    40
100
AcDbPolyline
 90
        4
 70
     1
 43
0.0
 10
1200.176347415185
 20
-1999.819564896579
 10
0.1763477151839837
 20
-1999.819564896579
 10
0.1763477151839837
 20
0.180434603424631
 10
1200.176347415185
 20
0.180434603424631
  0
ELLIPSE
  5
7B
330
70
100
AcDbEntity
  8
Screws
100
AcDbEllipse
 10
17.342316281568
 20
-1982.358092505099
 30
0.0
 11
2.557638888249479
 21
0.0
 31
0.0
210
0.0
220
0.0
230
1.0
 40
0.9655172413793103
 41
0.0
 42
6.283185307179586
  0
HATCH
  5
7C
330
70
100
AcDbEntity
  8
Screws
 62
    18
420
        0
440
 33554687
100
AcDbHatch
 10
0.0
 20
0.0
 30
0.0
210
0.0
220
0.0
230
1.0
  2
SOLID
 70
     1
 71
     1
 91
        1
 92
        1
 93
        1
 72
     3
 10
17.342316281568
 20
-1982.358092505099
 11
2.557638888249479
 21
0.0
 40
0.9655172413793103
 50
0.0
 51
360.0
 73
     1
 97
        1
330
7B
 75
     2
 76
     1
 98
        1
 10
0.0
 20
0.0
450
        0
451
        0
460
0.0
461
0.0
452
        0
462
0.0
453
        0
470

  0
ELLIPSE
  5
7D
330
70
100
AcDbEntity
  8
Screws
100
AcDbEllipse
 10
1182.38037163908
 20
-1982.387911349827
 30
0.0
 11
2.557638888249479
 21
0.0
 31
0.0
210
0.0
220
0.0
230
1.0
 40
0.9655172413793103
 41
0.0
 42
6.283185307179586
  0
HATCH
  5
7E
330
70
100
AcDbEntity
  8
Screws
 62
    18
420
        0
440
 33554687
100
AcDbHatch
 10
0.0
 20
0.0
 30
0.0
210
0.0
220
0.0
230
1.0
  2
SOLID
 70
     1
 71
     1
 91
        1
 92
        1
 93
        1
 72
     3
 10
1182.38037163908
 20
-1982.387911349827
 11
2.557638888249479
 21
0.0
 40
0.9655172413793103
 50
0.0
 51
360.0
 73
     1
 97
        1
330
7D
 75
     2
 76
     1
 98
        1
 10
0.0
 20
0.0
450
        0
451
        0
460
0.0
461
0.0
452
        0
462
0.0
453
        0
470

  0
ELLIPSE
  5
7F
330
70
100
AcDbEntity
  8
Screws
100
AcDbEllipse
 10
1182.644954972347
 20
-17.53202921959431
 30
0.0
 11
2.557638888249479
 21
0.0
 31
0.0
210
0.0
220
0.0
230
1.0
 40
0.9655172413793103
 41
0.0
 42
6.283185307179586
  0
HATCH
  5
80
330
70
100
AcDbEntity
  8
Screws
 62
    18
420
        0
440
 33554687
100
AcDbHatch
 10
0.0
 20
0.0
 30
0.0
210
0.0
220
0.0
230
1.0
  2
SOLID
 70
     1
 71
     1
 91
        1
 92
        1
 93
        1
 72
     3
 10
1182.644954972347
 20
-17.53202921959431
 11
2.557638888249479
 21
0.0
 40
0.9655172413793103
 50
0.0
 51
360.0
 73
     1
 97
        1
330
7F
 75
     2
 76
     1
 98
        1
 10
0.0
 20
0.0
450
        0
451
        0
460
0.0
461
0.0
452
        0
462
0.0
453
        0
470

  0
ELLIPSE
  5
81
330
70
100
AcDbEntity
  8
Screws
100
AcDbEllipse
 10
17.43471861274107
 20
-17.53202921959431
 30
0.0
 11
2.557638888249479
 21
0.0
 31
0.0
210
0.0
220
0.0
230
1.0
 40
0.9655172413793103
 41
0.0
 42
6.283185307179586
  0
HATCH
  5
82
330
70
100
AcDbEntity
  8
Screws
 62
    18
420
        0
440
 33554687
100
AcDbHatch
 10
0.0
 20
0.0
 30
0.0
210
0.0
220
0.0
230
1.0
  2
SOLID
 70
     1
 71
     1
 91
        1
 92
        1
 93
        1
 72
     3
 10
17.43471861274107
 20
-17.53202921959431
 11
2.557638888249479
 21
0.0
 40
0.9655172413793103
 50
0.0
 51
360.0
 73
     1
 97
        1
330
81
 75
     2
 76
     1
 98
        1
 10
0.0
 20
0.0
450
        0
451
        0
460
0.0
461
0.0
452
        0
462
0.0
453
        0
470

  0
SPLINE
  5
8C
330
70
100
AcDbEntity
  8
2023-010
100
AcDbSpline
210
0.0
220
0.0
230
1.0
 70
     9
 71
     3
 72
    89
 73
    85
 74
     0
 42
0.0000000001
 43
0.0000000001
 40
0.0
 40
0.0
 40
0.0
 40
0.0
 40
1.0
 40
1.0
 40
1.0
 40
2.0
 40
2.0
 40
2.0
 40
3.0
 40
3.0
 40
3.0
 40
4.0
 40
4.0
 40
4.0
 40
5.0
 40
5.0
 40
5.0
 40
6.0
 40
6.0
 40
6.0
 40
7.0
 40
7.0
 40
7.0
 40
8.0
 40
8.0
 40
8.0
 40
9.0
 40
9.0
 40
9.0
 40
10.0
 40
10.0
 40
10.0
 40
11.0
 40
11.0
 40
11.0
 40
12.0
 40
12.0
 40
12.0
 40
13.0
 40
13.0
 40
13.0
 40
14.0
 40
14.0
 40
14.0
 40
15.0
 40
15.0
 40
15.0
 40
16.0
 40
16.0
 40
16.0
 40
17.0
 40
17.0
 40
17.0
 40
18.0
 40
18.0
 40
18.0
 40
19.0
 40
19.0
 40
19.0
 40
20.0
 40
20.0
 40
20.0
 40
21.0
 40
21.0
 40
21.0
 40
22.0
 40
22.0
 40
22.0
 40
23.0
 40
23.0
 40
23.0
 40
24.0
 40
24.0
 40
24.0
 40
25.0
 40
25.0
 40
25.0
 40
26.0
 40
26.0
 40
26.0
 40
27.0
 40
27.0
 40
27.0
 40
28.0
 40
28.0
 40
28.0
 40
28.0
 10
1133.023677384521
 20
-1906.101849522494
 30
0.0
 10
1128.283629504727
 20
-1910.772112178786
 30
0.0
 10
1123.800602318776
 20
-1915.701407264119
 30
0.0
 10
1119.605664743248
 20
-1920.867025257862
 30
0.0
 10
1117.500436738974
 20
-1923.459388901898
 30
0.0
 10
1115.464344615981
 20
-1926.108938855173
 30
0.0
 10
1113.50280773319
 20
-1928.811669532901
 30
0.0
 10
1111.618844466187
 20
-1931.407514333021
 30
0.0
 10
1109.70740091778
 20
-1934.040404595408
 30
0.0
 10
1108.359123070641
 20
-1936.964645069145
 30
0.0
 10
1108.006613571392
 20
-1937.729192634217
 30
0.0
 10
1107.684802159798
 20
-1938.510740193736
 30
0.0
 10
1107.416586472174
 20
-1939.309016496767
 30
0.0
 10
1107.176985149703
 20
-1940.022129363491
 30
0.0
 10
1106.886870424151
 20
-1940.819438632839
 30
0.0
 10
1106.911759630811
 20
-1941.581564876166
 30
0.0
 10
1106.942512270248
 20
-1942.523233844687
 30
0.0
 10
1107.520729990845
 20
-1943.310930234709
 30
0.0
 10
1108.430395044213
 20
-1943.581960049331
 30
0.0
 10
1109.180911548747
 20
-1943.805572408999
 30
0.0
 10
1110.024898495172
 20
-1943.70840180676
 30
0.0
 10
1110.792274169307
 20
-1943.64957072464
 30
0.0
 10
1114.306385806178
 20
-1943.380160320789
 30
0.0
 10
1117.70637151552
 20
-1942.427859266824
 30
0.0
 10
1121.076640035123
 20
-1941.449918023261
 30
0.0
 10
1127.900406972219
 20
-1939.469884953067
 30
0.0
 10
1134.706139448924
 20
-1937.42767659759
 30
0.0
 10
1141.492781600732
 20
-1935.32391710372
 30
0.0
 10
1148.307127055566
 20
-1933.211569992372
 30
0.0
 10
1155.102208148957
 20
-1931.037075635824
 30
0.0
 10
1161.876890968253
 20
-1928.800786911208
 30
0.0
 10
1162.703072023954
 20
-1928.528068700092
 30
0.0
 10
1163.528928781688
 20
-1928.254370441607
 30
0.0
 10
1164.354521357377
 20
-1927.979876089198
 30
0.0
 10
1164.919314535354
 20
-1927.792092741577
 30
0.0
 10
1165.288175812722
 20
-1927.219333136391
 30
0.0
 10
1165.124502316478
 20
-1926.623755707488
 30
0.0
 10
1164.972745427583
 20
-1926.07154059764
 30
0.0
 10
1164.335772259638
 20
-1925.665127897177
 30
0.0
 10
1163.768381934769
 20
-1925.853774748387
 30
0.0
 10
1157.218671194873
 20
-1928.031433149096
 30
0.0
 10
1150.650097533128
 20
-1930.152250818093
 30
0.0
 10
1144.063126414456
 20
-1932.214475716572
 30
0.0
 10
1137.476169984546
 20
-1934.276696016346
 30
0.0
 10
1130.87101728821
 20
-1936.280796634988
 30
0.0
 10
1124.248695216849
 20
-1938.226458002537
 30
0.0
 10
1121.022789581585
 20
-1939.17424035173
 30
0.0
 10
1117.798448090367
 20
-1940.203548633932
 30
0.0
 10
1114.504540040297
 20
-1940.892194679055
 30
0.0
 10
1112.894769757999
 20
-1941.228743824208
 30
0.0
 10
1111.25828034797
 20
-1941.47440632985
 30
0.0
 10
1109.611330137795
 20
-1941.506406208851
 30
0.0
 10
1109.474785657666
 20
-1941.509059237954
 30
0.0
 10
1108.947597076191
 20
-1941.505926847937
 30
0.0
 10
1108.961262575054
 20
-1941.438406017504
 30
0.0
 10
1108.968030778916
 20
-1941.404964520059
 30
0.0
 10
1109.106372070112
 20
-1941.527273241618
 30
0.0
 10
1109.101331645415
 20
-1941.528858126889
 30
0.0
 10
1109.173445837384
 20
-1941.506182910473
 30
0.0
 10
1109.026969291947
 20
-1941.704878314607
 30
0.0
 10
1109.116696368022
 20
-1941.515783554257
 30
0.0
 10
1109.121426069135
 20
-1941.505815975494
 30
0.0
 10
1109.140466363001
 20
-1941.269085557586
 30
0.0
 10
1109.128339850698
 20
-1941.343401752018
 30
0.0
 10
1109.244537578759
 20
-1940.631294862849
 30
0.0
 10
1109.523069740505
 20
-1939.912401431301
 30
0.0
 10
1109.776279108937
 20
-1939.239773385801
 30
0.0
 10
1110.848156093213
 20
-1936.392428023285
 30
0.0
 10
1112.613997073536
 20
-1933.838931969441
 30
0.0
 10
1114.365293947229
 20
-1931.374484359066
 30
0.0
 10
1116.206699373724
 20
-1928.783234827809
 30
0.0
 10
1118.116329022569
 20
-1926.24057240092
 30
0.0
 10
1120.096817307504
 20
-1923.753976317653
 30
0.0
 10
1124.090556328816
 20
-1918.739649354186
 30
0.0
 10
1128.352740988481
 20
-1913.939118958052
 30
0.0
 10
1132.859582698754
 20
-1909.380398344005
 30
0.0
 10
1133.430073996864
 20
-1908.803340038429
 30
0.0
 10
1134.004727741181
 20
-1908.230433740345
 30
0.0
 10
1134.582749627374
 20
-1907.660921765347
 30
0.0
 10
1135.595086128066
 20
-1906.663489360722
 30
0.0
 10
1134.035809112798
 20
-1905.10461887553
 30
0.0
 10
1133.023677384521
 20
-1906.101849522494
 30
0.0
 10
1133.023677384521
 20
-1906.101849522494
 30
0.0
 10
1133.023677384521
 20
-1906.101849522494
 30
0.0
 10
1133.023677384521
 20
-1906.101849522494
 30
0.0
  0
HATCH
  5
8D
330
70
100
AcDbEntity
  8
2023-010
 62
   250
420
  2301728
440
 33554687
100
AcDbHatch
 10
0.0
 20
0.0
 30
0.0
210
0.0
220
0.0
230
1.0
  2
SOLID
 70
     1
 71
     1
 91
        1
 92
        1
 93
        1
 72
     4
 94
        3
 73
     0
 74
     0
 95
       89
 96
       85
 40
0.0
 40
0.0
 40
0.0
 40
0.0
 40
1.0
 40
1.0
 40
1.0
 40
2.0
 40
2.0
 40
2.0
 40
3.0
 40
3.0
 40
3.0
 40
4.0
 40
4.0
 40
4.0
 40
5.0
 40
5.0
 40
5.0
 40
6.0
 40
6.0
 40
6.0
 40
7.0
 40
7.0
 40
7.0
 40
8.0
 40
8.0
 40
8.0
 40
9.0
 40
9.0
 40
9.0
 40
10.0
 40
10.0
 40
10.0
 40
11.0
 40
11.0
 40
11.0
 40
12.0
 40
12.0
 40
12.0
 40
13.0
 40
13.0
 40
13.0
 40
14.0
 40
14.0
 40
14.0
 40
15.0
 40
15.0
 40
15.0
 40
16.0
 40
16.0
 40
16.0
 40
17.0
 40
17.0
 40
17.0
 40
18.0
 40
18.0
 40
18.0
 40
19.0
 40
19.0
 40
19.0
 40
20.0
 40
20.0
 40
20.0
 40
21.0
 40
21.0
 40
21.0
 40
22.0
 40
22.0
 40
22.0
 40
23.0
 40
23.0
 40
23.0
 40
24.0
 40
24.0
 40
24.0
 40
25.0
 40
25.0
 40
25.0
 40
26.0
 40
26.0
 40
26.0
 40
27.0
 40
27.0
 40
27.0
 40
28.0
 40
28.0
 40
28.0
 40
28.0
 10
1133.023677384521
 20
-1906.101849522494
 10
1128.283629504727
 20
-1910.772112178786
 10
1123.800602318776
 20
-1915.701407264119
 10
1119.605664743248
 20
-1920.867025257862
 10
1117.500436738974
 20
-1923.459388901898
 10
1115.464344615981
 20
-1926.108938855173
 10
1113.50280773319
 20
-1928.811669532901
 10
1111.618844466187
 20
-1931.407514333021
 10
1109.70740091778
 20
-1934.040404595408
 10
1108.359123070641
 20
-1936.964645069145
 10
1108.006613571392
 20
-1937.729192634217
 10
1107.684802159798
 20
-1938.510740193736
 10
1107.416586472174
 20
-1939.309016496767
 10
1107.176985149703
 20
-1940.022129363491
 10
1106.886870424151
 20
-1940.819438632839
 10
1106.911759630811
 20
-1941.581564876166
 10
1106.942512270248
 20
-1942.523233844687
 10
1107.520729990845
 20
-1943.310930234709
 10
1108.430395044213
 20
-1943.581960049331
 10
1109.180911548747
 20
-1943.805572408999
 10
1110.024898495172
 20
-1943.70840180676
 10
1110.792274169307
 20
-1943.64957072464
 10
1114.306385806178
 20
-1943.380160320789
 10
1117.70637151552
 20
-1942.427859266824
 10
1121.076640035123
 20
-1941.449918023261
 10
1127.900406972219
 20
-1939.469884953067
 10
1134.706139448924
 20
-1937.42767659759
 10
1141.492781600732
 20
-1935.32391710372
 10
1148.307127055566
 20
-1933.211569992372
 10
1155.102208148957
 20
-1931.037075635824
 10
1161.876890968253
 20
-1928.800786911208
 10
1162.703072023954
 20
-1928.528068700092
 10
1163.528928781688
 20
-1928.254370441607
 10
1164.354521357377
 20
-1927.979876089198
 10
1164.919314535354
 20
-1927.792092741577
 10
1165.288175812722
 20
-1927.219333136391
 10
1165.124502316478
 20
-1926.623755707488
 10
1164.972745427583
 20
-1926.07154059764
 10
1164.335772259638
 20
-1925.665127897177
 10
1163.768381934769
 20
-1925.853774748387
 10
1157.218671194873
 20
-1928.031433149096
 10
1150.650097533128
 20
-1930.152250818093
 10
1144.063126414456
 20
-1932.214475716572
 10
1137.476169984546
 20
-1934.276696016346
 10
1130.87101728821
 20
-1936.280796634988
 10
1124.248695216849
 20
-1938.226458002537
 10
1121.022789581585
 20
-1939.17424035173
 10
1117.798448090367
 20
-1940.203548633932
 10
1114.504540040297
 20
-1940.892194679055
 10
1112.894769757999
 20
-1941.228743824208
 10
1111.25828034797
 20
-1941.47440632985
 10
1109.611330137795
 20
-1941.506406208851
 10
1109.474785657666
 20
-1941.509059237954
 10
1108.947597076191
 20
-1941.505926847937
 10
1108.961262575054
 20
-1941.438406017504
 10
1108.968030778916
 20
-1941.404964520059
 10
1109.106372070112
 20
-1941.527273241618
 10
1109.101331645415
 20
-1941.528858126889
 10
1109.173445837384
 20
-1941.506182910473
 10
1109.026969291947
 20
-1941.704878314607
 10
1109.116696368022
 20
-1941.515783554257
 10
1109.121426069135
 20
-1941.505815975494
 10
1109.140466363001
 20
-1941.269085557586
 10
1109.128339850698
 20
-1941.343401752018
 10
1109.244537578759
 20
-1940.631294862849
 10
1109.523069740505
 20
-1939.912401431301
 10
1109.776279108937
 20
-1939.239773385801
 10
1110.848156093213
 20
-1936.392428023285
 10
1112.613997073536
 20
-1933.838931969441
 10
1114.365293947229
 20
-1931.374484359066
 10
1116.206699373724
 20
-1928.783234827809
 10
1118.116329022569
 20
-1926.24057240092
 10
1120.096817307504
 20
-1923.753976317653
 10
1124.090556328816
 20
-1918.739649354186
 10
1128.352740988481
 20
-1913.939118958052
 10
1132.859582698754
 20
-1909.380398344005
 10
1133.430073996864
 20
-1908.803340038429
 10
1134.004727741181
 20
-1908.230433740345
 10
1134.582749627374
 20
-1907.660921765347
 10
1135.595086128066
 20
-1906.663489360722
 10
1134.035809112798
 20
-1905.10461887553
 10
1133.023677384521
 20
-1906.101849522494
 10
1133.023677384521
 20
-1906.101849522494
 10
1133.023677384521
 20
-1906.101849522494
 10
1133.023677384521
 20
-1906.101849522494
 97
        0
 97
        1
330
8C
 75
     2
 76
     1
 98
        1
 10
0.0
 20
0.0
450
        0
451
        0
460
0.0
461
0.0
452
        0
462
0.0
453
        0
470

  0
SPLINE
  5
8E
330
70
100
AcDbEntity
  8
2023-010
100
AcDbSpline
210
0.0
220
0.0
230
1.0
 70
     9
 71
     3
 72
    47
 73
    43
 74
     0
 42
0.0000000001
 43
0.0000000001
 40
0.0
 40
0.0
 40
0.0
 40
0.0
 40
1.0
 40
1.0
 40
1.0
 40
2.0
 40
2.0
 40
2.0
 40
3.0
 40
3.0
 40
3.0
 40
4.0
 40
4.0
 40
4.0
 40
5.0
 40
5.0
 40
5.0
 40
6.0
 40
6.0
 40
6.0
 40
7.0
 40
7.0
 40
7.0
 40
8.0
 40
8.0
 40
8.0
 40
9.0
 40
9.0
 40
9.0
 40
10.0
 40
10.0
 40
10.0
 40
11.0
 40
11.0
 40
11.0
 40
12.0
 40
12.0
 40
12.0
 40
13.0
 40
13.0
 40
13.0
 40
14.0
 40
14.0
 40
14.0
 40
14.0
 10
1141.212577070463
 20
-1922.030492801681
 30
0.0
 10
1143.348376854826
 20
-1918.376092781645
 30
0.0
 10
1145.96611652365
 20
-1915.044833217187
 30
0.0
 10
1149.008749537821
 20
-1912.102323600978
 30
0.0
 10
1148.394553940546
 20
-1911.940168130936
 30
0.0
 10
1147.780358343271
 20
-1911.778012660894
 30
0.0
 10
1147.166162745991
 20
-1911.615857190857
 30
0.0
 10
1149.707271668554
 20
-1917.88605220268
 30
0.0
 10
1150.793693739919
 20
-1924.597478752669
 30
0.0
 10
1151.468172652443
 20
-1931.294916916786
 30
0.0
 10
1152.161581050234
 20
-1938.180321012358
 30
0.0
 10
1152.486946323111
 20
-1945.106721770107
 30
0.0
 10
1153.583431414248
 20
-1951.947051597941
 30
0.0
 10
1154.189999602137
 20
-1955.731076115725
 30
0.0
 10
1155.049538027686
 20
-1959.477883044102
 30
0.0
 10
1156.335469284441
 20
-1963.091917334204
 30
0.0
 10
1156.534970984475
 20
-1963.652605147853
 30
0.0
 10
1157.087433865091
 20
-1964.027929253235
 30
0.0
 10
1157.691589666151
 20
-1963.861898293303
 30
0.0
 10
1158.234270003791
 20
-1963.712761700992
 30
0.0
 10
1158.662105381527
 20
-1963.069369069162
 30
0.0
 10
1158.461570625249
 20
-1962.505777911593
 30
0.0
 10
1156.186320747958
 20
-1956.111321729057
 30
0.0
 10
1155.282560368256
 20
-1949.36140548096
 30
0.0
 10
1154.665685664977
 20
-1942.633261685616
 30
0.0
 10
1154.035187967418
 20
-1935.75653428978
 30
0.0
 10
1153.665973501799
 20
-1928.837183184239
 30
0.0
 10
1152.408313639034
 20
-1922.035447059025
 30
0.0
 10
1151.713709632661
 20
-1918.278856503226
 30
0.0
 10
1150.728603262453
 20
-1914.573889627433
 30
0.0
 10
1149.292264086802
 20
-1911.02971776825
 30
0.0
 10
1148.987015804116
 20
-1910.276516580194
 30
0.0
 10
1148.096632601686
 20
-1909.91758529771
 30
0.0
 10
1147.449677294972
 20
-1910.543251358125
 30
0.0
 10
1144.280390471247
 20
-1913.608247008897
 30
0.0
 10
1141.533400473856
 20
-1917.111221660166
 30
0.0
 10
1139.308744136674
 20
-1920.917657180338
 30
0.0
 10
1138.591289954702
 20
-1922.14523693579
 30
0.0
 10
1140.496185436362
 20
-1923.256254514547
 30
0.0
 10
1141.212577070463
 20
-1922.030492801681
 30
0.0
 10
1141.212577070463
 20
-1922.030492801681
 30
0.0
 10
1141.212577070463
 20
-1922.030492801681
 30
0.0
 10
1141.212577070463
 20
-1922.030492801681
 30
0.0
  0
HATCH
  5
8F
330
70
100
AcDbEntity
  8
2023-010
 62
   250
420
  2301728
440
 33554687
100
AcDbHatch
 10
0.0
 20
0.0
 30
0.0
210
0.0
220
0.0
230
1.0
  2
SOLID
 70
     1
 71
     1
 91
        1
 92
        1
 93
        1
 72
     4
 94
        3
 73
     0
 74
     0
 95
       47
 96
       43
 40
0.0
 40
0.0
 40
0.0
 40
0.0
 40
1.0
 40
1.0
 40
1.0
 40
2.0
 40
2.0
 40
2.0
 40
3.0
 40
3.0
 40
3.0
 40
4.0
 40
4.0
 40
4.0
 40
5.0
 40
5.0
 40
5.0
 40
6.0
 40
6.0
 40
6.0
 40
7.0
 40
7.0
 40
7.0
 40
8.0
 40
8.0
 40
8.0
 40
9.0
 40
9.0
 40
9.0
 40
10.0
 40
10.0
 40
10.0
 40
11.0
 40
11.0
 40
11.0
 40
12.0
 40
12.0
 40
12.0
 40
13.0
 40
13.0
 40
13.0
 40
14.0
 40
14.0
 40
14.0
 40
14.0
 10
1141.212577070463
 20
-1922.030492801681
 10
1143.348376854826
 20
-1918.376092781645
 10
1145.96611652365
 20
-1915.044833217187
 10
1149.008749537821
 20
-1912.102323600978
 10
1148.394553940546
 20
-1911.940168130936
 10
1147.780358343271
 20
-1911.778012660894
 10
1147.166162745991
 20
-1911.615857190857
 10
1149.707271668554
 20
-1917.88605220268
 10
1150.793693739919
 20
-1924.597478752669
 10
1151.468172652443
 20
-1931.294916916786
 10
1152.161581050234
 20
-1938.180321012358
 10
1152.486946323111
 20
-1945.106721770107
 10
1153.583431414248
 20
-1951.947051597941
 10
1154.189999602137
 20
-1955.731076115725
 10
1155.049538027686
 20
-1959.477883044102
 10
1156.335469284441
 20
-1963.091917334204
 10
1156.534970984475
 20
-1963.652605147853
 10
1157.087433865091
 20
-1964.027929253235
 10
1157.691589666151
 20
-1963.861898293303
 10
1158.234270003791
 20
-1963.712761700992
 10
1158.662105381527
 20
-1963.069369069162
 10
1158.461570625249
 20
-1962.505777911593
 10
1156.186320747958
 20
-1956.111321729057
 10
1155.282560368256
 20
-1949.36140548096
 10
1154.665685664977
 20
-1942.633261685616
 10
1154.035187967418
 20
-1935.75653428978
 10
1153.665973501799
 20
-1928.837183184239
 10
1152.408313639034
 20
-1922.035447059025
 10
1151.713709632661
 20
-1918.278856503226
 10
1150.728603262453
 20
-1914.573889627433
 10
1149.292264086802
 20
-1911.02971776825
 10
1148.987015804116
 20
-1910.276516580194
 10
1148.096632601686
 20
-1909.91758529771
 10
1147.449677294972
 20
-1910.543251358125
 10
1144.280390471247
 20
-1913.608247008897
 10
1141.533400473856
 20
-1917.111221660166
 10
1139.308744136674
 20
-1920.917657180338
 10
1138.591289954702
 20
-1922.14523693579
 10
1140.496185436362
 20
-1923.256254514547
 10
1141.212577070463
 20
-1922.030492801681
 10
1141.212577070463
 20
-1922.030492801681
 10
1141.212577070463
 20
-1922.030492801681
 10
1141.212577070463
 20
-1922.030492801681
 97
        0
 97
        1
330
8E
 75
     2
 76
     1
 98
        1
 10
0.0
 20
0.0
450
        0
451
        0
460
0.0
461
0.0
452
        0
462
0.0
453
        0
470

  0
SPLINE
  5
90
330
70
100
AcDbEntity
  8
2023-010
100
AcDbSpline
210
0.0
220
0.0
230
1.0
 70
     9
 71
     3
 72
   110
 73
   106
 74
     0
 42
0.0000000001
 43
0.0000000001
 40
0.0
 40
0.0
 40
0.0
 40
0.0
 40
1.0
 40
1.0
 40
1.0
 40
2.0
 40
2.0
 40
2.0
 40
3.0
 40
3.0
 40
3.0
 40
4.0
 40
4.0
 40
4.0
 40
5.0
 40
5.0
 40
5.0
 40
6.0
 40
6.0
 40
6.0
 40
7.0
 40
7.0
 40
7.0
 40
8.0
 40
8.0
 40
8.0
 40
9.0
 40
9.0
 40
9.0
 40
10.0
 40
10.0
 40
10.0
 40
11.0
 40
11.0
 40
11.0
 40
12.0
 40
12.0
 40
12.0
 40
13.0
 40
13.0
 40
13.0
 40
14.0
 40
14.0
 40
14.0
 40
15.0
 40
15.0
 40
15.0
 40
16.0
 40
16.0
 40
16.0
 40
17.0
 40
17.0
 40
17.0
 40
18.0
 40
18.0
 40
18.0
 40
19.0
 40
19.0
 40
19.0
 40
20.0
 40
20.0
 40
20.0
 40
21.0
 40
21.0
 40
21.0
 40
22.0
 40
22.0
 40
22.0
 40
23.0
 40
23.0
 40
23.0
 40
24.0
 40
24.0
 40
24.0
 40
25.0
 40
25.0
 40
25.0
 40
26.0
 40
26.0
 40
26.0
 40
27.0
 40
27.0
 40
27.0
 40
28.0
 40
28.0
 40
28.0
 40
29.0
 40
29.0
 40
29.0
 40
30.0
 40
30.0
 40
30.0
 40
31.0
 40
31.0
 40
31.0
 40
32.0
 40
32.0
 40
32.0
 40
33.0
 40
33.0
 40
33.0
 40
34.0
 40
34.0
 40
34.0
 40
35.0
 40
35.0
 40
35.0
 40
35.0
 10
1124.083009417628
 20
-1950.551328189635
 30
0.0
 10
1124.421081339076
 20
-1950.428244971365
 30
0.0
 10
1124.760982372421
 20
-1950.305126347325
 30
0.0
 10
1125.113922000745
 20
-1950.231447956456
 30
0.0
 10
1125.153770168054
 20
-1950.223129398237
 30
0.0
 10
1125.384958375182
 20
-1950.20495294686
 30
0.0
 10
1125.209408842206
 20
-1950.212324277588
 30
0.0
 10
1125.28404537105
 20
-1950.209190287257
 30
0.0
 10
1125.358189648666
 20
-1950.202962002235
 30
0.0
 10
1125.433000157564
 20
-1950.20354540634
 30
0.0
 10
1125.46733957653
 20
-1950.203813199704
 30
0.0
 10
1125.746966454354
 20
-1950.255448439825
 30
0.0
 10
1125.593953703871
 20
-1950.209721249432
 30
0.0
 10
1125.43059947696
 20
-1950.160903554097
 30
0.0
 10
1125.658813794967
 20
-1950.238726039089
 30
0.0
 10
1125.694401971739
 20
-1950.246642502261
 30
0.0
 10
1125.886259684057
 20
-1950.28932056705
 30
0.0
 10
1125.610992421681
 20
-1950.183811029299
 30
0.0
 10
1125.705887536508
 20
-1950.249701356032
 30
0.0
 10
1125.7487138863
 20
-1950.279437788575
 30
0.0
 10
1125.805267937417
 20
-1950.312201619482
 30
0.0
 10
1125.852200571344
 20
-1950.334940745409
 30
0.0
 10
1125.951935721758
 20
-1950.383262988482
 30
0.0
 10
1125.73777673128
 20
-1950.197607945504
 30
0.0
 10
1125.858220465036
 20
-1950.343895316976
 30
0.0
 10
1125.990583647822
 20
-1950.504659696204
 30
0.0
 10
1125.795369286571
 20
-1950.227405209713
 30
0.0
 10
1125.868448454032
 20
-1950.340588479505
 30
0.0
 10
1125.909561239133
 20
-1950.404262979496
 30
0.0
 10
1125.960394790383
 20
-1950.559830243087
 30
0.0
 10
1125.882958499363
 20
-1950.329736543216
 30
0.0
 10
1125.927565524343
 20
-1950.46228157195
 30
0.0
 10
1125.895042323738
 20
-1950.354348218344
 30
0.0
 10
1125.894967451742
 20
-1950.276649392208
 30
0.0
 10
1125.895163906045
 20
-1950.480520927521
 30
0.0
 10
1125.937928887094
 20
-1950.236960910934
 30
0.0
 10
1125.907432528443
 20
-1950.353891331529
 30
0.0
 10
1125.884609194926
 20
-1950.441401516539
 30
0.0
 10
1125.862859350827
 20
-1950.525818783785
 30
0.0
 10
1125.830831805119
 20
-1950.611014236576
 30
0.0
 10
1125.872361375022
 20
-1950.500542752291
 30
0.0
 10
1125.837627676255
 20
-1950.59080211676
 30
0.0
 10
1125.808461850415
 20
-1950.646322556981
 30
0.0
 10
1125.765858564065
 20
-1950.727422719412
 30
0.0
 10
1125.723666219235
 20
-1950.80856535188
 30
0.0
 10
1125.679932897973
 20
-1950.889062300556
 30
0.0
 10
1125.598026823621
 20
-1951.039821238423
 30
0.0
 10
1125.514390936977
 20
-1951.189650416477
 30
0.0
 10
1125.429381987016
 20
-1951.338681265253
 30
0.0
 10
1125.249913996934
 20
-1951.653310100243
 30
0.0
 10
1125.063844392132
 20
-1951.964167372869
 30
0.0
 10
1124.871447685277
 20
-1952.271058824389
 30
0.0
 10
1124.476403350709
 20
-1952.901192942757
 30
0.0
 10
1124.053582371545
 20
-1953.512988968896
 30
0.0
 10
1123.607561963792
 20
-1954.108062877428
 30
0.0
 10
1123.206433845035
 20
-1954.64324215017
 30
0.0
 10
1123.609404149545
 20
-1955.620980909557
 30
0.0
 10
1124.266408719383
 20
-1955.727531358503
 30
0.0
 10
1126.138006876182
 20
-1956.031059877194
 30
0.0
 10
1128.02400983325
 20
-1956.132815386291
 30
0.0
 10
1129.914934133468
 20
-1955.976063756043
 30
0.0
 10
1130.488188862049
 20
-1955.928542756263
 30
0.0
 10
1131.045556521408
 20
-1955.503053953431
 30
0.0
 10
1131.017364688748
 20
-1954.873633200763
 30
0.0
 10
1130.992440283635
 20
-1954.317162182577
 30
0.0
 10
1130.530402266464
 20
-1953.720182288293
 30
0.0
 10
1129.914934133468
 20
-1953.771202645483
 30
0.0
 10
1129.04189452583
 20
-1953.843574861414
 30
0.0
 10
1128.165933937563
 20
-1953.867172129542
 30
0.0
 10
1127.290357679709
 20
-1953.835593086949
 30
0.0
 10
1126.852825912181
 20
-1953.819812811733
 30
0.0
 10
1126.415732885818
 20
-1953.790550771765
 30
0.0
 10
1125.979978436698
 20
-1953.74813680725
 30
0.0
 10
1125.781895151643
 20
-1953.728856459245
 30
0.0
 10
1125.584116099929
 20
-1953.706653397717
 30
0.0
 10
1125.386620982294
 20
-1953.682086650629
 30
0.0
 10
1125.000558054344
 20
-1953.634063639107
 30
0.0
 10
1125.591065435769
 20
-1953.715420801525
 30
0.0
 10
1125.206463858056
 20
-1953.656809718168
 30
0.0
 10
1125.088409517627
 20
-1953.638818911091
 30
0.0
 10
1124.970428953037
 20
-1953.620547469713
 30
0.0
 10
1124.85254814199
 20
-1953.601430017692
 30
0.0
 10
1125.072163727186
 20
-1954.14125284472
 30
0.0
 10
1125.291779312385
 20
-1954.681075671743
 30
0.0
 10
1125.511394897581
 20
-1955.220898498771
 30
0.0
 10
1126.048929150587
 20
-1954.503728155561
 30
0.0
 10
1126.552164212129
 20
-1953.761791774296
 30
0.0
 10
1127.014901848321
 20
-1952.99413497602
 30
0.0
 10
1127.499494081968
 20
-1952.190222578464
 30
0.0
 10
1128.15428922188
 20
-1951.256103745348
 30
0.0
 10
1128.099828562301
 20
-1950.276649392208
 30
0.0
 10
1128.042890051616
 20
-1949.252631824615
 30
0.0
 10
1127.295755562363
 20
-1948.476986582358
 30
0.0
 10
1126.361049212563
 20
-1948.148240984137
 30
0.0
 10
1125.414279652352
 20
-1947.815252633818
 30
0.0
 10
1124.40059830735
 20
-1948.096202809654
 30
0.0
 10
1123.496869995021
 20
-1948.425226848829
 30
0.0
 10
1122.956456198453
 20
-1948.621977495836
 30
0.0
 10
1122.533294111055
 20
-1949.183118848918
 30
0.0
 10
1122.726889035919
 20
-1949.781347230534
 30
0.0
 10
1122.898717968052
 20
-1950.312316438833
 30
0.0
 10
1123.502842450136
 20
-1950.762551935128
 30
0.0
 10
1124.083009417628
 20
-1950.551328189635
 30
0.0
 10
1124.083009417628
 20
-1950.551328189635
 30
0.0
 10
1124.083009417628
 20
-1950.551328189635
 30
0.0
 10
1124.083009417628
 20
-1950.551328189635
 30
0.0
  0
HATCH
  5
91
330
70
100
AcDbEntity
  8
2023-010
 62
   250
420
  2301728
440
 33554687
100
AcDbHatch
 10
0.0
 20
0.0
 30
0.0
210
0.0
220
0.0
230
1.0
  2
SOLID
 70
     1
 71
     1
 91
        1
 92
        1
 93
        1
 72
     4
 94
        3
 73
     0
 74
     0
 95
      110
 96
      106
 40
0.0
 40
0.0
 40
0.0
 40
0.0
 40
1.0
 40
1.0
 40
1.0
 40
2.0
 40
2.0
 40
2.0
 40
3.0
 40
3.0
 40
3.0
 40
4.0
 40
4.0
 40
4.0
 40
5.0
 40
5.0
 40
5.0
 40
6.0
 40
6.0
 40
6.0
 40
7.0
 40
7.0
 40
7.0
 40
8.0
 40
8.0
 40
8.0
 40
9.0
 40
9.0
 40
9.0
 40
10.0
 40
10.0
 40
10.0
 40
11.0
 40
11.0
 40
11.0
 40
12.0
 40
12.0
 40
12.0
 40
13.0
 40
13.0
 40
13.0
 40
14.0
 40
14.0
 40
14.0
 40
15.0
 40
15.0
 40
15.0
 40
16.0
 40
16.0
 40
16.0
 40
17.0
 40
17.0
 40
17.0
 40
18.0
 40
18.0
 40
18.0
 40
19.0
 40
19.0
 40
19.0
 40
20.0
 40
20.0
 40
20.0
 40
21.0
 40
21.0
 40
21.0
 40
22.0
 40
22.0
 40
22.0
 40
23.0
 40
23.0
 40
23.0
 40
24.0
 40
24.0
 40
24.0
 40
25.0
 40
25.0
 40
25.0
 40
26.0
 40
26.0
 40
26.0
 40
27.0
 40
27.0
 40
27.0
 40
28.0
 40
28.0
 40
28.0
 40
29.0
 40
29.0
 40
29.0
 40
30.0
 40
30.0
 40
30.0
 40
31.0
 40
31.0
 40
31.0
 40
32.0
 40
32.0
 40
32.0
 40
33.0
 40
33.0
 40
33.0
 40
34.0
 40
34.0
 40
34.0
 40
35.0
 40
35.0
 40
35.0
 40
35.0
 10
1124.083009417628
 20
-1950.551328189635
 10
1124.421081339076
 20
-1950.428244971365
 10
1124.760982372421
 20
-1950.305126347325
 10
1125.113922000745
 20
-1950.231447956456
 10
1125.153770168054
 20
-1950.223129398237
 10
1125.384958375182
 20
-1950.20495294686
 10
1125.209408842206
 20
-1950.212324277588
 10
1125.28404537105
 20
-1950.209190287257
 10
1125.358189648666
 20
-1950.202962002235
 10
1125.433000157564
 20
-1950.20354540634
 10
1125.46733957653
 20
-1950.203813199704
 10
1125.746966454354
 20
-1950.255448439825
 10
1125.593953703871
 20
-1950.209721249432
 10
1125.43059947696
 20
-1950.160903554097
 10
1125.658813794967
 20
-1950.238726039089
 10
1125.694401971739
 20
-1950.246642502261
 10
1125.886259684057
 20
-1950.28932056705
 10
1125.610992421681
 20
-1950.183811029299
 10
1125.705887536508
 20
-1950.249701356032
 10
1125.7487138863
 20
-1950.279437788575
 10
1125.805267937417
 20
-1950.312201619482
 10
1125.852200571344
 20
-1950.334940745409
 10
1125.951935721758
 20
-1950.383262988482
 10
1125.73777673128
 20
-1950.197607945504
 10
1125.858220465036
 20
-1950.343895316976
 10
1125.990583647822
 20
-1950.504659696204
 10
1125.795369286571
 20
-1950.227405209713
 10
1125.868448454032
 20
-1950.340588479505
 10
1125.909561239133
 20
-1950.404262979496
 10
1125.960394790383
 20
-1950.559830243087
 10
1125.882958499363
 20
-1950.329736543216
 10
1125.927565524343
 20
-1950.46228157195
 10
1125.895042323738
 20
-1950.354348218344
 10
1125.894967451742
 20
-1950.276649392208
 10
1125.895163906045
 20
-1950.480520927521
 10
1125.937928887094
 20
-1950.236960910934
 10
1125.907432528443
 20
-1950.353891331529
 10
1125.884609194926
 20
-1950.441401516539
 10
1125.862859350827
 20
-1950.525818783785
 10
1125.830831805119
 20
-1950.611014236576
 10
1125.872361375022
 20
-1950.500542752291
 10
1125.837627676255
 20
-1950.59080211676
 10
1125.808461850415
 20
-1950.646322556981
 10
1125.765858564065
 20
-1950.727422719412
 10
1125.723666219235
 20
-1950.80856535188
 10
1125.679932897973
 20
-1950.889062300556
 10
1125.598026823621
 20
-1951.039821238423
 10
1125.514390936977
 20
-1951.189650416477
 10
1125.429381987016
 20
-1951.338681265253
 10
1125.249913996934
 20
-1951.653310100243
 10
1125.063844392132
 20
-1951.964167372869
 10
1124.871447685277
 20
-1952.271058824389
 10
1124.476403350709
 20
-1952.901192942757
 10
1124.053582371545
 20
-1953.512988968896
 10
1123.607561963792
 20
-1954.108062877428
 10
1123.206433845035
 20
-1954.64324215017
 10
1123.609404149545
 20
-1955.620980909557
 10
1124.266408719383
 20
-1955.727531358503
 10
1126.138006876182
 20
-1956.031059877194
 10
1128.02400983325
 20
-1956.132815386291
 10
1129.914934133468
 20
-1955.976063756043
 10
1130.488188862049
 20
-1955.928542756263
 10
1131.045556521408
 20
-1955.503053953431
 10
1131.017364688748
 20
-1954.873633200763
 10
1130.992440283635
 20
-1954.317162182577
 10
1130.530402266464
 20
-1953.720182288293
 10
1129.914934133468
 20
-1953.771202645483
 10
1129.04189452583
 20
-1953.843574861414
 10
1128.165933937563
 20
-1953.867172129542
 10
1127.290357679709
 20
-1953.835593086949
 10
1126.852825912181
 20
-1953.819812811733
 10
1126.415732885818
 20
-1953.790550771765
 10
1125.979978436698
 20
-1953.74813680725
 10
1125.781895151643
 20
-1953.728856459245
 10
1125.584116099929
 20
-1953.706653397717
 10
1125.386620982294
 20
-1953.682086650629
 10
1125.000558054344
 20
-1953.634063639107
 10
1125.591065435769
 20
-1953.715420801525
 10
1125.206463858056
 20
-1953.656809718168
 10
1125.088409517627
 20
-1953.638818911091
 10
1124.970428953037
 20
-1953.620547469713
 10
1124.85254814199
 20
-1953.601430017692
 10
1125.072163727186
 20
-1954.14125284472
 10
1125.291779312385
 20
-1954.681075671743
 10
1125.511394897581
 20
-1955.220898498771
 10
1126.048929150587
 20
-1954.503728155561
 10
1126.552164212129
 20
-1953.761791774296
 10
1127.014901848321
 20
-1952.99413497602
 10
1127.499494081968
 20
-1952.190222578464
 10
1128.15428922188
 20
-1951.256103745348
 10
1128.099828562301
 20
-1950.276649392208
 10
1128.042890051616
 20
-1949.252631824615
 10
1127.295755562363
 20
-1948.476986582358
 10
1126.361049212563
 20
-1948.148240984137
 10
1125.414279652352
 20
-1947.815252633818
 10
1124.40059830735
 20
-1948.096202809654
 10
1123.496869995021
 20
-1948.425226848829
 10
1122.956456198453
 20
-1948.621977495836
 10
1122.533294111055
 20
-1949.183118848918
 10
1122.726889035919
 20
-1949.781347230534
 10
1122.898717968052
 20
-1950.312316438833
 10
1123.502842450136
 20
-1950.762551935128
 10
1124.083009417628
 20
-1950.551328189635
 10
1124.083009417628
 20
-1950.551328189635
 10
1124.083009417628
 20
-1950.551328189635
 10
1124.083009417628
 20
-1950.551328189635
 97
        0
 97
        1
330
90
 75
     2
 76
     1
 98
        1
 10
0.0
 20
0.0
450
        0
451
        0
460
0.0
461
0.0
452
        0
462
0.0
453
        0
470

  0
SPLINE
  5
92
330
70
100
AcDbEntity
  8
2023-010
100
AcDbSpline
210
0.0
220
0.0
230
1.0
 70
     9
 71
     3
 72
   137
 73
   133
 74
     0
 42
0.0000000001
 43
0.0000000001
 40
0.0
 40
0.0
 40
0.0
 40
0.0
 40
1.0
 40
1.0
 40
1.0
 40
2.0
 40
2.0
 40
2.0
 40
3.0
 40
3.0
 40
3.0
 40
4.0
 40
4.0
 40
4.0
 40
5.0
 40
5.0
 40
5.0
 40
6.0
 40
6.0
 40
6.0
 40
7.0
 40
7.0
 40
7.0
 40
8.0
 40
8.0
 40
8.0
 40
9.0
 40
9.0
 40
9.0
 40
10.0
 40
10.0
 40
10.0
 40
11.0
 40
11.0
 40
11.0
 40
12.0
 40
12.0
 40
12.0
 40
13.0
 40
13.0
 40
13.0
 40
14.0
 40
14.0
 40
14.0
 40
15.0
 40
15.0
 40
15.0
 40
16.0
 40
16.0
 40
16.0
 40
17.0
 40
17.0
 40
17.0
 40
18.0
 40
18.0
 40
18.0
 40
19.0
 40
19.0
 40
19.0
 40
20.0
 40
20.0
 40
20.0
 40
21.0
 40
21.0
 40
21.0
 40
22.0
 40
22.0
 40
22.0
 40
23.0
 40
23.0
 40
23.0
 40
24.0
 40
24.0
 40
24.0
 40
25.0
 40
25.0
 40
25.0
 40
26.0
 40
26.0
 40
26.0
 40
27.0
 40
27.0
 40
27.0
 40
28.0
 40
28.0
 40
28.0
 40
29.0
 40
29.0
 40
29.0
 40
30.0
 40
30.0
 40
30.0
 40
31.0
 40
31.0
 40
31.0
 40
32.0
 40
32.0
 40
32.0
 40
33.0
 40
33.0
 40
33.0
 40
34.0
 40
34.0
 40
34.0
 40
35.0
 40
35.0
 40
35.0
 40
36.0
 40
36.0
 40
36.0
 40
37.0
 40
37.0
 40
37.0
 40
38.0
 40
38.0
 40
38.0
 40
39.0
 40
39.0
 40
39.0
 40
40.0
 40
40.0
 40
40.0
 40
41.0
 40
41.0
 40
41.0
 40
42.0
 40
42.0
 40
42.0
 40
43.0
 40
43.0
 40
43.0
 40
44.0
 40
44.0
 40
44.0
 40
44.0
 10
1136.544191297306
 20
-1953.555152860301
 30
0.0
 10
1138.132741051699
 20
-1953.4596734094
 30
0.0
 10
1139.730025909164
 20
-1953.474648523567
 30
0.0
 10
1141.314789676072
 20
-1953.626285382568
 30
0.0
 10
1141.398096731035
 20
-1953.633837930061
 30
0.0
 10
1141.481304450566
 20
-1953.642360448867
 30
0.0
 10
1141.56441283466
 20
-1953.651852938978
 30
0.0
 10
1141.479478979389
 20
-1953.64111016719
 30
0.0
 10
1141.506226531844
 20
-1953.646822826106
 30
0.0
 10
1141.644655492025
 20
-1953.668990915722
 30
0.0
 10
1141.726441799433
 20
-1953.684864157833
 30
0.0
 10
1141.807427691289
 20
-1953.704105564326
 30
0.0
 10
1141.887613167595
 20
-1953.7267151352
 30
0.0
 10
1142.015879802426
 20
-1953.773945613305
 30
0.0
 10
1142.043663613001
 20
-1953.780319883688
 30
0.0
 10
1141.970964599314
 20
-1953.745837946346
 30
0.0
 10
1142.04541402025
 20
-1953.781826219222
 30
0.0
 10
1142.116793811965
 20
-1953.823121694935
 30
0.0
 10
1142.185103974459
 20
-1953.869724373481
 30
0.0
 10
1142.101139215481
 20
-1953.810750978079
 30
0.0
 10
1142.106987489494
 20
-1953.825428902491
 30
0.0
 10
1142.2026487965
 20
-1953.913758146714
 30
0.0
 10
1142.137702469963
 20
-1953.837214120775
 30
0.0
 10
1142.140114345099
 20
-1953.853145736847
 30
0.0
 10
1142.209884421897
 20
-1953.961552994929
 30
0.0
 10
1142.173991380754
 20
-1953.917497095247
 30
0.0
 10
1142.160755394003
 20
-1953.867010900117
 30
0.0
 10
1142.170176461646
 20
-1953.810094409531
 30
0.0
 10
1142.169790274581
 20
-1953.943452562845
 30
0.0
 10
1142.170018081367
 20
-1953.947679234174
 30
0.0
 10
1142.170859882001
 20
-1953.822774423521
 30
0.0
 10
1142.176829430307
 20
-1953.767289951608
 30
0.0
 10
1142.198801134675
 20
-1953.719056477271
 30
0.0
 10
1142.236774995106
 20
-1953.678074000508
 30
0.0
 10
1142.142606532561
 20
-1953.762468534514
 30
0.0
 10
1142.137588704534
 20
-1953.769075637676
 30
0.0
 10
1142.221721511024
 20
-1953.697895310002
 30
0.0
 10
1142.163542176066
 20
-1953.736936275834
 30
0.0
 10
1142.104395634534
 20
-1953.774452578646
 30
0.0
 10
1142.044281886424
 20
-1953.810444218437
 30
0.0
 10
1141.763767232495
 20
-1953.983736635552
 30
0.0
 10
1141.472095516763
 20
-1954.151006949327
 30
0.0
 10
1141.245483927933
 20
-1954.395178740615
 30
0.0
 10
1140.700190897675
 20
-1954.982726697281
 30
0.0
 10
1140.490111653263
 20
-1955.914908879461
 30
0.0
 10
1140.936192850939
 20
-1956.618340460541
 30
0.0
 10
1141.233064455206
 20
-1957.086481379858
 30
0.0
 10
1141.723330216115
 20
-1957.277837492193
 30
0.0
 10
1142.25565764998
 20
-1957.320179514877
 30
0.0
 10
1142.338697802635
 20
-1957.322905680176
 30
0.0
 10
1142.421708423335
 20
-1957.326344615911
 30
0.0
 10
1142.504689512072
 20
-1957.330496322089
 30
0.0
 10
1142.368930252993
 20
-1957.313202409668
 30
0.0
 10
1142.362782323806
 20
-1957.320285606592
 30
0.0
 10
1142.486245724517
 20
-1957.351745912861
 30
0.0
 10
1142.363149061727
 20
-1957.301144414921
 30
0.0
 10
1142.356314824501
 20
-1957.306236617722
 30
0.0
 10
1142.465743012844
 20
-1957.367022521256
 30
0.0
 10
1142.363893586629
 20
-1957.287927051175
 30
0.0
 10
1142.358951467042
 20
-1957.290939788291
 30
0.0
 10
1142.450916654077
 20
-1957.376060732603
 30
0.0
 10
1142.379265472933
 20
-1957.272645225401
 30
0.0
 10
1142.37879389666
 20
-1957.273490025281
 30
0.0
 10
1142.449501925258
 20
-1957.378595132234
 30
0.0
 10
1142.48340171745
 20
-1957.433384048328
 30
0.0
 10
1142.514025348
 20
-1957.489947174329
 30
0.0
 10
1142.541372816899
 20
-1957.548284510229
 30
0.0
 10
1142.44419941463
 20
-1957.334617166791
 30
0.0
 10
1142.568330136108
 20
-1957.700978787762
 30
0.0
 10
1142.576553358501
 20
-1957.753273410341
 30
0.0
 10
1142.526323234551
 20
-1957.433840802452
 30
0.0
 10
1142.534203410171
 20
-1958.081373024795
 30
0.0
 10
1142.580247127571
 20
-1957.755263815061
 30
0.0
 10
1142.573332076524
 20
-1957.804240352157
 30
0.0
 10
1142.473600619607
 20
-1958.152026277788
 30
0.0
 10
1142.518821547908
 20
-1958.035005807608
 30
0.0
 10
1142.294920344228
 20
-1958.614406211666
 30
0.0
 10
1141.885669279035
 20
-1958.945701405626
 30
0.0
 10
1141.420975043163
 20
-1959.397118799747
 30
0.0
 10
1140.993859032695
 20
-1959.812031621021
 30
0.0
 10
1141.004261604954
 20
-1960.539477604391
 30
0.0
 10
1141.420975043163
 20
-1960.9561910426
 30
0.0
 10
1141.848315152803
 20
-1961.383531152237
 30
0.0
 10
1142.551673485134
 20
-1961.372325717782
 30
0.0
 10
1142.980047286016
 20
-1960.9561910426
 30
0.0
 10
1143.876510998294
 20
-1960.085340316072
 30
0.0
 10
1144.794442371526
 20
-1959.036773496269
 30
0.0
 10
1144.766805687263
 20
-1957.706149388928
 30
0.0
 10
1144.753921662763
 20
-1957.085821948907
 30
0.0
 10
1144.538653357476
 20
-1956.485307103349
 30
0.0
 10
1144.157451912457
 20
-1955.999382338509
 30
0.0
 10
1143.757066347717
 20
-1955.489003209746
 30
0.0
 10
1143.058505427474
 20
-1955.055873083823
 30
0.0
 10
1142.380339861165
 20
-1955.119948201829
 30
0.0
 10
1142.173362476873
 20
-1955.139504046271
 30
0.0
 10
1142.081288115269
 20
-1954.970417237132
 30
0.0
 10
1142.566422117407
 20
-1955.373563826166
 30
0.0
 10
1142.901457115799
 20
-1955.651978070917
 30
0.0
 10
1142.872953403115
 20
-1955.530528736377
 30
0.0
 10
1142.884703615076
 20
-1955.823073560361
 30
0.0
 10
1142.892122867078
 20
-1956.007790549053
 30
0.0
 10
1142.879471237638
 20
-1955.773459587448
 30
0.0
 10
1142.901843598815
 20
-1955.794419989032
 30
0.0
 10
1142.919930836308
 20
-1955.811365708727
 30
0.0
 10
1142.812309442689
 20
-1955.953086568115
 30
0.0
 10
1142.894135946963
 20
-1955.846171173066
 30
0.0
 10
1142.950795796015
 20
-1955.772138801782
 30
0.0
 10
1142.678419624908
 20
-1956.001161606438
 30
0.0
 10
1142.885420327494
 20
-1955.879636181238
 30
0.0
 10
1143.006857358337
 20
-1955.808343250227
 30
0.0
 10
1143.128357647367
 20
-1955.734924063109
 30
0.0
 10
1143.246954832912
 20
-1955.658897452206
 30
0.0
 10
1143.87155738171
 20
-1955.258496593396
 30
0.0
 10
1144.349444861382
 20
-1954.686547203704
 30
0.0
 10
1144.374943122468
 20
-1953.913283143723
 30
0.0
 10
1144.400551445444
 20
-1953.13668133034
 30
0.0
 10
1143.954917797155
 20
-1952.435633890979
 30
0.0
 10
1143.340839491551
 20
-1951.998199974214
 30
0.0
 10
1142.769625231506
 20
-1951.591299927748
 30
0.0
 10
1142.056153832429
 20
-1951.494388273967
 30
0.0
 10
1141.377085192577
 20
-1951.427437313842
 30
0.0
 10
1139.772247612877
 20
-1951.269212635948
 30
0.0
 10
1138.153231558309
 20
-1951.253580721227
 30
0.0
 10
1136.544191297306
 20
-1951.350291749741
 30
0.0
 10
1135.949760290675
 20
-1951.386019901126
 30
0.0
 10
1135.441760742026
 20
-1951.831401104925
 30
0.0
 10
1135.441760742026
 20
-1952.452722305021
 30
0.0
 10
1135.441760742026
 20
-1953.02189320285
 30
0.0
 10
1135.946823622626
 20
-1953.591057519503
 30
0.0
 10
1136.544191297306
 20
-1953.555152860301
 30
0.0
 10
1136.544191297306
 20
-1953.555152860301
 30
0.0
 10
1136.544191297306
 20
-1953.555152860301
 30
0.0
 10
1136.544191297306
 20
-1953.555152860301
 30
0.0
  0
HATCH
  5
93
330
70
100
AcDbEntity
  8
2023-010
 62
   250
420
  2301728
440
 33554687
100
AcDbHatch
 10
0.0
 20
0.0
 30
0.0
210
0.0
220
0.0
230
1.0
  2
SOLID
 70
     1
 71
     1
 91
        1
 92
        1
 93
        1
 72
     4
 94
        3
 73
     0
 74
     0
 95
      137
 96
      133
 40
0.0
 40
0.0
 40
0.0
 40
0.0
 40
1.0
 40
1.0
 40
1.0
 40
2.0
 40
2.0
 40
2.0
 40
3.0
 40
3.0
 40
3.0
 40
4.0
 40
4.0
 40
4.0
 40
5.0
 40
5.0
 40
5.0
 40
6.0
 40
6.0
 40
6.0
 40
7.0
 40
7.0
 40
7.0
 40
8.0
 40
8.0
 40
8.0
 40
9.0
 40
9.0
 40
9.0
 40
10.0
 40
10.0
 40
10.0
 40
11.0
 40
11.0
 40
11.0
 40
12.0
 40
12.0
 40
12.0
 40
13.0
 40
13.0
 40
13.0
 40
14.0
 40
14.0
 40
14.0
 40
15.0
 40
15.0
 40
15.0
 40
16.0
 40
16.0
 40
16.0
 40
17.0
 40
17.0
 40
17.0
 40
18.0
 40
18.0
 40
18.0
 40
19.0
 40
19.0
 40
19.0
 40
20.0
 40
20.0
 40
20.0
 40
21.0
 40
21.0
 40
21.0
 40
22.0
 40
22.0
 40
22.0
 40
23.0
 40
23.0
 40
23.0
 40
24.0
 40
24.0
 40
24.0
 40
25.0
 40
25.0
 40
25.0
 40
26.0
 40
26.0
 40
26.0
 40
27.0
 40
27.0
 40
27.0
 40
28.0
 40
28.0
 40
28.0
 40
29.0
 40
29.0
 40
29.0
 40
30.0
 40
30.0
 40
30.0
 40
31.0
 40
31.0
 40
31.0
 40
32.0
 40
32.0
 40
32.0
 40
33.0
 40
33.0
 40
33.0
 40
34.0
 40
34.0
 40
34.0
 40
35.0
 40
35.0
 40
35.0
 40
36.0
 40
36.0
 40
36.0
 40
37.0
 40
37.0
 40
37.0
 40
38.0
 40
38.0
 40
38.0
 40
39.0
 40
39.0
 40
39.0
 40
40.0
 40
40.0
 40
40.0
 40
41.0
 40
41.0
 40
41.0
 40
42.0
 40
42.0
 40
42.0
 40
43.0
 40
43.0
 40
43.0
 40
44.0
 40
44.0
 40
44.0
 40
44.0
 10
1136.544191297306
 20
-1953.555152860301
 10
1138.132741051699
 20
-1953.4596734094
 10
1139.730025909164
 20
-1953.474648523567
 10
1141.314789676072
 20
-1953.626285382568
 10
1141.398096731035
 20
-1953.633837930061
 10
1141.481304450566
 20
-1953.642360448867
 10
1141.56441283466
 20
-1953.651852938978
 10
1141.479478979389
 20
-1953.64111016719
 10
1141.506226531844
 20
-1953.646822826106
 10
1141.644655492025
 20
-1953.668990915722
 10
1141.726441799433
 20
-1953.684864157833
 10
1141.807427691289
 20
-1953.704105564326
 10
1141.887613167595
 20
-1953.7267151352
 10
1142.015879802426
 20
-1953.773945613305
 10
1142.043663613001
 20
-1953.780319883688
 10
1141.970964599314
 20
-1953.745837946346
 10
1142.04541402025
 20
-1953.781826219222
 10
1142.116793811965
 20
-1953.823121694935
 10
1142.185103974459
 20
-1953.869724373481
 10
1142.101139215481
 20
-1953.810750978079
 10
1142.106987489494
 20
-1953.825428902491
 10
1142.2026487965
 20
-1953.913758146714
 10
1142.137702469963
 20
-1953.837214120775
 10
1142.140114345099
 20
-1953.853145736847
 10
1142.209884421897
 20
-1953.961552994929
 10
1142.173991380754
 20
-1953.917497095247
 10
1142.160755394003
 20
-1953.867010900117
 10
1142.170176461646
 20
-1953.810094409531
 10
1142.169790274581
 20
-1953.943452562845
 10
1142.170018081367
 20
-1953.947679234174
 10
1142.170859882001
 20
-1953.822774423521
 10
1142.176829430307
 20
-1953.767289951608
 10
1142.198801134675
 20
-1953.719056477271
 10
1142.236774995106
 20
-1953.678074000508
 10
1142.142606532561
 20
-1953.762468534514
 10
1142.137588704534
 20
-1953.769075637676
 10
1142.221721511024
 20
-1953.697895310002
 10
1142.163542176066
 20
-1953.736936275834
 10
1142.104395634534
 20
-1953.774452578646
 10
1142.044281886424
 20
-1953.810444218437
 10
1141.763767232495
 20
-1953.983736635552
 10
1141.472095516763
 20
-1954.151006949327
 10
1141.245483927933
 20
-1954.395178740615
 10
1140.700190897675
 20
-1954.982726697281
 10
1140.490111653263
 20
-1955.914908879461
 10
1140.936192850939
 20
-1956.618340460541
 10
1141.233064455206
 20
-1957.086481379858
 10
1141.723330216115
 20
-1957.277837492193
 10
1142.25565764998
 20
-1957.320179514877
 10
1142.338697802635
 20
-1957.322905680176
 10
1142.421708423335
 20
-1957.326344615911
 10
1142.504689512072
 20
-1957.330496322089
 10
1142.368930252993
 20
-1957.313202409668
 10
1142.362782323806
 20
-1957.320285606592
 10
1142.486245724517
 20
-1957.351745912861
 10
1142.363149061727
 20
-1957.301144414921
 10
1142.356314824501
 20
-1957.306236617722
 10
1142.465743012844
 20
-1957.367022521256
 10
1142.363893586629
 20
-1957.287927051175
 10
1142.358951467042
 20
-1957.290939788291
 10
1142.450916654077
 20
-1957.376060732603
 10
1142.379265472933
 20
-1957.272645225401
 10
1142.37879389666
 20
-1957.273490025281
 10
1142.449501925258
 20
-1957.378595132234
 10
1142.48340171745
 20
-1957.433384048328
 10
1142.514025348
 20
-1957.489947174329
 10
1142.541372816899
 20
-1957.548284510229
 10
1142.44419941463
 20
-1957.334617166791
 10
1142.568330136108
 20
-1957.700978787762
 10
1142.576553358501
 20
-1957.753273410341
 10
1142.526323234551
 20
-1957.433840802452
 10
1142.534203410171
 20
-1958.081373024795
 10
1142.580247127571
 20
-1957.755263815061
 10
1142.573332076524
 20
-1957.804240352157
 10
1142.473600619607
 20
-1958.152026277788
 10
1142.518821547908
 20
-1958.035005807608
 10
1142.294920344228
 20
-1958.614406211666
 10
1141.885669279035
 20
-1958.945701405626
 10
1141.420975043163
 20
-1959.397118799747
 10
1140.993859032695
 20
-1959.812031621021
 10
1141.004261604954
 20
-1960.539477604391
 10
1141.420975043163
 20
-1960.9561910426
 10
1141.848315152803
 20
-1961.383531152237
 10
1142.551673485134
 20
-1961.372325717782
 10
1142.980047286016
 20
-1960.9561910426
 10
1143.876510998294
 20
-1960.085340316072
 10
1144.794442371526
 20
-1959.036773496269
 10
1144.766805687263
 20
-1957.706149388928
 10
1144.753921662763
 20
-1957.085821948907
 10
1144.538653357476
 20
-1956.485307103349
 10
1144.157451912457
 20
-1955.999382338509
 10
1143.757066347717
 20
-1955.489003209746
 10
1143.058505427474
 20
-1955.055873083823
 10
1142.380339861165
 20
-1955.119948201829
 10
1142.173362476873
 20
-1955.139504046271
 10
1142.081288115269
 20
-1954.970417237132
 10
1142.566422117407
 20
-1955.373563826166
 10
1142.901457115799
 20
-1955.651978070917
 10
1142.872953403115
 20
-1955.530528736377
 10
1142.884703615076
 20
-1955.823073560361
 10
1142.892122867078
 20
-1956.007790549053
 10
1142.879471237638
 20
-1955.773459587448
 10
1142.901843598815
 20
-1955.794419989032
 10
1142.919930836308
 20
-1955.811365708727
 10
1142.812309442689
 20
-1955.953086568115
 10
1142.894135946963
 20
-1955.846171173066
 10
1142.950795796015
 20
-1955.772138801782
 10
1142.678419624908
 20
-1956.001161606438
 10
1142.885420327494
 20
-1955.879636181238
 10
1143.006857358337
 20
-1955.808343250227
 10
1143.128357647367
 20
-1955.734924063109
 10
1143.246954832912
 20
-1955.658897452206
 10
1143.87155738171
 20
-1955.258496593396
 10
1144.349444861382
 20
-1954.686547203704
 10
1144.374943122468
 20
-1953.913283143723
 10
1144.400551445444
 20
-1953.13668133034
 10
1143.954917797155
 20
-1952.435633890979
 10
1143.340839491551
 20
-1951.998199974214
 10
1142.769625231506
 20
-1951.591299927748
 10
1142.056153832429
 20
-1951.494388273967
 10
1141.377085192577
 20
-1951.427437313842
 10
1139.772247612877
 20
-1951.269212635948
 10
1138.153231558309
 20
-1951.253580721227
 10
1136.544191297306
 20
-1951.350291749741
 10
1135.949760290675
 20
-1951.386019901126
 10
1135.441760742026
 20
-1951.831401104925
 10
1135.441760742026
 20
-1952.452722305021
 10
1135.441760742026
 20
-1953.02189320285
 10
1135.946823622626
 20
-1953.591057519503
 10
1136.544191297306
 20
-1953.555152860301
 10
1136.544191297306
 20
-1953.555152860301
 10
1136.544191297306
 20
-1953.555152860301
 10
1136.544191297306
 20
-1953.555152860301
 97
        0
 97
        1
330
92
 75
     2
 76
     1
 98
        1
 10
0.0
 20
0.0
450
        0
451
        0
460
0.0
461
0.0
452
        0
462
0.0
453
        0
470

  0
SPLINE
  5
94
330
70
100
AcDbEntity
  8
2023-010
100
AcDbSpline
210
0.0
220
0.0
230
1.0
 70
     9
 71
     3
 72
    56
 73
    52
 74
     0
 42
0.0000000001
 43
0.0000000001
 40
0.0
 40
0.0
 40
0.0
 40
0.0
 40
1.0
 40
1.0
 40
1.0
 40
2.0
 40
2.0
 40
2.0
 40
3.0
 40
3.0
 40
3.0
 40
4.0
 40
4.0
 40
4.0
 40
5.0
 40
5.0
 40
5.0
 40
6.0
 40
6.0
 40
6.0
 40
7.0
 40
7.0
 40
7.0
 40
8.0
 40
8.0
 40
8.0
 40
9.0
 40
9.0
 40
9.0
 40
10.0
 40
10.0
 40
10.0
 40
11.0
 40
11.0
 40
11.0
 40
12.0
 40
12.0
 40
12.0
 40
13.0
 40
13.0
 40
13.0
 40
14.0
 40
14.0
 40
14.0
 40
15.0
 40
15.0
 40
15.0
 40
16.0
 40
16.0
 40
16.0
 40
17.0
 40
17.0
 40
17.0
 40
17.0
 10
337.2060023519368
 20
-200.5988752397369
 30
0.0
 10
337.9511475980058
 20
-202.7019633914919
 30
0.0
 10
339.6567357017971
 20
-205.531314734338
 30
0.0
 10
339.8861548428142
 20
-208.4763377323259
 30
0.0
 10
341.7697985148634
 20
-232.6577296733482
 30
0.0
 10
343.4666504118742
 20
-256.8548477993701
 30
0.0
 10
345.0521011287529
 20
-281.0582810071255
 30
0.0
 10
347.9440709004825
 20
-325.2067568246326
 30
0.0
 10
351.1242156788577
 20
-369.3417411056846
 30
0.0
 10
353.415591575271
 20
-413.5225511874964
 30
0.0
 10
355.1983575836199
 20
-447.8960834299934
 30
0.0
 10
355.8218178168738
 20
-482.3304217439281
 30
0.0
 10
356.9460527498062
 20
-516.7382084199573
 30
0.0
 10
358.1481959408106
 20
-553.5297972871509
 30
0.0
 10
359.3434244684733
 20
-590.3216609945151
 30
0.0
 10
360.5237110703577
 20
-627.1139897735365
 30
0.0
 10
362.3804769686858
 20
-684.9933593233791
 30
0.0
 10
364.2174574106893
 20
-742.8733073462725
 30
0.0
 10
366.0732428364213
 20
-800.7527319045063
 30
0.0
 10
366.6291285243844
 20
-818.0922424017778
 30
0.0
 10
367.0543508437936
 20
-835.4386538538697
 30
0.0
 10
367.8920569748072
 20
-852.7647282023753
 30
0.0
 10
368.1527365047815
 20
-858.1565008595237
 30
0.0
 10
366.0499293197833
 20
-859.8245227324266
 30
0.0
 10
361.0571452715394
 20
-859.7313909962087
 30
0.0
 10
347.0032383426312
 20
-859.4694949296078
 30
0.0
 10
332.9446801168733
 20
-859.4602593067904
 30
0.0
 10
318.8892807971776
 20
-859.2615228073603
 30
0.0
 10
309.6950003054253
 20
-859.1315182477041
 30
0.0
 10
309.6160647073511
 20
-859.0200476821818
 30
0.0
 10
309.3220712257198
 20
-849.7348123868372
 30
0.0
 10
307.6892913985676
 20
-798.1744825709982
 30
0.0
 10
306.1368726912964
 20
-746.6115046708432
 30
0.0
 10
304.4409871170361
 20
-695.0532846240991
 30
0.0
 10
302.2526963884459
 20
-628.5245862068538
 30
0.0
 10
300.3080829053404
 20
-561.9850892655944
 30
0.0
 10
297.6122822659639
 20
-495.4766927017336
 30
0.0
 10
294.451267212786
 20
-417.4897883274033
 30
0.0
 10
290.6842496170369
 20
-339.527082995592
 30
0.0
 10
286.9755119457782
 20
-261.5637148819362
 30
0.0
 10
286.1182230741156
 20
-243.5424591970915
 30
0.0
 10
284.4896403958452
 20
-225.556403653686
 30
0.0
 10
283.0781831388555
 20
-207.5650217809378
 30
0.0
 10
282.7700781733442
 20
-203.6377860187664
 30
0.0
 10
283.7995680331788
 20
-200.9362004508641
 30
0.0
 10
288.0418824721127
 20
-200.8359836417547
 30
0.0
 10
303.4383329452345
 20
-200.4723109030746
 30
0.0
 10
318.8385559042446
 20
-200.2711787445327
 30
0.0
 10
334.2376092172844
 20
-200.0251959792143
 30
0.0
 10
334.6947465066188
 20
-200.0178850875879
 30
0.0
 10
335.1547611306629
 20
-200.1939202508782
 30
0.0
 10
337.2060023519368
 20
-200.5988752397369
 30
0.0
  0
HATCH
  5
95
330
70
100
AcDbEntity
  8
2023-010
 62
    18
420
        0
440
 33554687
100
AcDbHatch
 10
0.0
 20
0.0
 30
0.0
210
0.0
220
0.0
230
1.0
  2
SOLID
 70
     1
 71
     1
 91
        1
 92
        1
 93
        1
 72
     4
 94
        3
 73
     0
 74
     0
 95
       56
 96
       52
 40
0.0
 40
0.0
 40
0.0
 40
0.0
 40
1.0
 40
1.0
 40
1.0
 40
2.0
 40
2.0
 40
2.0
 40
3.0
 40
3.0
 40
3.0
 40
4.0
 40
4.0
 40
4.0
 40
5.0
 40
5.0
 40
5.0
 40
6.0
 40
6.0
 40
6.0
 40
7.0
 40
7.0
 40
7.0
 40
8.0
 40
8.0
 40
8.0
 40
9.0
 40
9.0
 40
9.0
 40
10.0
 40
10.0
 40
10.0
 40
11.0
 40
11.0
 40
11.0
 40
12.0
 40
12.0
 40
12.0
 40
13.0
 40
13.0
 40
13.0
 40
14.0
 40
14.0
 40
14.0
 40
15.0
 40
15.0
 40
15.0
 40
16.0
 40
16.0
 40
16.0
 40
17.0
 40
17.0
 40
17.0
 40
17.0
 10
337.2060023519368
 20
-200.5988752397369
 10
337.9511475980058
 20
-202.7019633914919
 10
339.6567357017971
 20
-205.531314734338
 10
339.8861548428142
 20
-208.4763377323259
 10
341.7697985148634
 20
-232.6577296733482
 10
343.4666504118742
 20
-256.8548477993701
 10
345.0521011287529
 20
-281.0582810071255
 10
347.9440709004825
 20
-325.2067568246326
 10
351.1242156788577
 20
-369.3417411056846
 10
353.415591575271
 20
-413.5225511874964
 10
355.1983575836199
 20
-447.8960834299934
 10
355.8218178168738
 20
-482.3304217439281
 10
356.9460527498062
 20
-516.7382084199573
 10
358.1481959408106
 20
-553.5297972871509
 10
359.3434244684733
 20
-590.3216609945151
 10
360.5237110703577
 20
-627.1139897735365
 10
362.3804769686858
 20
-684.9933593233791
 10
364.2174574106893
 20
-742.8733073462725
 10
366.0732428364213
 20
-800.7527319045063
 10
366.6291285243844
 20
-818.0922424017778
 10
367.0543508437936
 20
-835.4386538538697
 10
367.8920569748072
 20
-852.7647282023753
 10
368.1527365047815
 20
-858.1565008595237
 10
366.0499293197833
 20
-859.8245227324266
 10
361.0571452715394
 20
-859.7313909962087
 10
347.0032383426312
 20
-859.4694949296078
 10
332.9446801168733
 20
-859.4602593067904
 10
318.8892807971776
 20
-859.2615228073603
 10
309.6950003054253
 20
-859.1315182477041
 10
309.6160647073511
 20
-859.0200476821818
 10
309.3220712257198
 20
-849.7348123868372
 10
307.6892913985676
 20
-798.1744825709982
 10
306.1368726912964
 20
-746.6115046708432
 10
304.4409871170361
 20
-695.0532846240991
 10
302.2526963884459
 20
-628.5245862068538
 10
300.3080829053404
 20
-561.9850892655944
 10
297.6122822659639
 20
-495.4766927017336
 10
294.451267212786
 20
-417.4897883274033
 10
290.6842496170369
 20
-339.527082995592
 10
286.9755119457782
 20
-261.5637148819362
 10
286.1182230741156
 20
-243.5424591970915
 10
284.4896403958452
 20
-225.556403653686
 10
283.0781831388555
 20
-207.5650217809378
 10
282.7700781733442
 20
-203.6377860187664
 10
283.7995680331788
 20
-200.9362004508641
 10
288.0418824721127
 20
-200.8359836417547
 10
303.4383329452345
 20
-200.4723109030746
 10
318.8385559042446
 20
-200.2711787445327
 10
334.2376092172844
 20
-200.0251959792143
 10
334.6947465066188
 20
-200.0178850875879
 10
335.1547611306629
 20
-200.1939202508782
 10
337.2060023519368
 20
-200.5988752397369
 97
        0
 97
        1
330
94
 75
     2
 76
     1
 98
        1
 10
0.0
 20
0.0
450
        0
451
        0
460
0.0
461
0.0
452
        0
462
0.0
453
        0
470

  0
SPLINE
  5
96
330
70
100
AcDbEntity
  8
2023-010
100
AcDbSpline
210
0.0
220
0.0
230
1.0
 70
     9
 71
     3
 72
    44
 73
    40
 74
     0
 42
0.0000000001
 43
0.0000000001
 40
0.0
 40
0.0
 40
0.0
 40
0.0
 40
1.0
 40
1.0
 40
1.0
 40
2.0
 40
2.0
 40
2.0
 40
3.0
 40
3.0
 40
3.0
 40
4.0
 40
4.0
 40
4.0
 40
5.0
 40
5.0
 40
5.0
 40
6.0
 40
6.0
 40
6.0
 40
7.0
 40
7.0
 40
7.0
 40
8.0
 40
8.0
 40
8.0
 40
9.0
 40
9.0
 40
9.0
 40
10.0
 40
10.0
 40
10.0
 40
11.0
 40
11.0
 40
11.0
 40
12.0
 40
12.0
 40
12.0
 40
13.0
 40
13.0
 40
13.0
 40
13.0
 10
206.9556760850216
 20
-852.6647828136452
 30
0.0
 10
206.3563881122524
 20
-850.6997765762026
 30
0.0
 10
205.0896132909005
 20
-848.3328426922581
 30
0.0
 10
204.9780720720682
 20
-845.9122698834454
 30
0.0
 10
203.2937675781307
 20
-809.3731686439594
 30
0.0
 10
201.4621598218391
 20
-772.8369255260361
 30
0.0
 10
200.2513750298931
 20
-736.280436008561
 30
0.0
 10
197.0997221733318
 20
-641.1213361072673
 30
0.0
 10
194.6909445405648
 20
-545.9352496342517
 30
0.0
 10
191.1172511694303
 20
-450.7929627176647
 30
0.0
 10
188.1256892540378
 20
-371.148560770412
 30
0.0
 10
183.913884947294
 20
-291.5504969251727
 30
0.0
 10
180.2225049146
 20
-211.9328388074313
 30
0.0
 10
179.8158727720714
 20
-203.1623694371974
 30
0.0
 10
180.1917986219183
 20
-202.7791734836102
 30
0.0
 10
188.7771566922246
 20
-202.3923053671445
 30
0.0
 10
203.2282585225633
 20
-201.741163276178
 30
0.0
 10
217.7166618909488
 20
-201.4003853916194
 30
0.0
 10
232.0984168203398
 20
-199.994258768252
 30
0.0
 10
237.4252732424687
 20
-199.4734380599986
 30
0.0
 10
238.2357367081177
 20
-201.3866990938911
 30
0.0
 10
238.4311526667897
 20
-205.4794156383898
 30
0.0
 10
239.9235707484837
 20
-236.7348550104607
 30
0.0
 10
241.468880879008
 20
-267.9877849829777
 30
0.0
 10
242.9277023166125
 20
-299.2448053042876
 30
0.0
 10
244.9323050209748
 20
-342.1951367244752
 30
0.0
 10
247.1205168821414
 20
-385.1388002764345
 30
0.0
 10
248.7797187300064
 20
-428.1029031285873
 30
0.0
 10
250.6607002921899
 20
-476.8107509206219
 30
0.0
 10
252.1632882084068
 20
-525.5343653737825
 30
0.0
 10
253.6179593411466
 20
-574.2575635555891
 30
0.0
 10
256.2767886330678
 20
-663.3130716067205
 30
0.0
 10
258.7396213498647
 20
-752.3745372426708
 30
0.0
 10
261.387401190123
 20
-841.4303711521306
 30
0.0
 10
261.8134426790716
 20
-855.7591170690798
 30
0.0
 10
262.0508150976164
 20
-855.9656884414058
 30
0.0
 10
247.6966408871571
 20
-855.3309979500895
 30
0.0
 10
234.59575022353
 20
-854.7517604042555
 30
0.0
 10
221.518547746335
 20
-853.6404949949178
 30
0.0
 10
206.9556760850216
 20
-852.6647828136452
 30
0.0
  0
HATCH
  5
97
330
70
100
AcDbEntity
  8
2023-010
 62
    18
420
        0
440
 33554687
100
AcDbHatch
 10
0.0
 20
0.0
 30
0.0
210
0.0
220
0.0
230
1.0
  2
SOLID
 70
     1
 71
     1
 91
        1
 92
        1
 93
        1
 72
     4
 94
        3
 73
     0
 74
     0
 95
       44
 96
       40
 40
0.0
 40
0.0
 40
0.0
 40
0.0
 40
1.0
 40
1.0
 40
1.0
 40
2.0
 40
2.0
 40
2.0
 40
3.0
 40
3.0
 40
3.0
 40
4.0
 40
4.0
 40
4.0
 40
5.0
 40
5.0
 40
5.0
 40
6.0
 40
6.0
 40
6.0
 40
7.0
 40
7.0
 40
7.0
 40
8.0
 40
8.0
 40
8.0
 40
9.0
 40
9.0
 40
9.0
 40
10.0
 40
10.0
 40
10.0
 40
11.0
 40
11.0
 40
11.0
 40
12.0
 40
12.0
 40
12.0
 40
13.0
 40
13.0
 40
13.0
 40
13.0
 10
206.9556760850216
 20
-852.6647828136452
 10
206.3563881122524
 20
-850.6997765762026
 10
205.0896132909005
 20
-848.3328426922581
 10
204.9780720720682
 20
-845.9122698834454
 10
203.2937675781307
 20
-809.3731686439594
 10
201.4621598218391
 20
-772.8369255260361
 10
200.2513750298931
 20
-736.280436008561
 10
197.0997221733318
 20
-641.1213361072673
 10
194.6909445405648
 20
-545.9352496342517
 10
191.1172511694303
 20
-450.7929627176647
 10
188.1256892540378
 20
-371.148560770412
 10
183.913884947294
 20
-291.5504969251727
 10
180.2225049146
 20
-211.9328388074313
 10
179.8158727720714
 20
-203.1623694371974
 10
180.1917986219183
 20
-202.7791734836102
 10
188.7771566922246
 20
-202.3923053671445
 10
203.2282585225633
 20
-201.741163276178
 10
217.7166618909488
 20
-201.4003853916194
 10
232.0984168203398
 20
-199.994258768252
 10
237.4252732424687
 20
-199.4734380599986
 10
238.2357367081177
 20
-201.3866990938911
 10
238.4311526667897
 20
-205.4794156383898
 10
239.9235707484837
 20
-236.7348550104607
 10
241.468880879008
 20
-267.9877849829777
 10
242.9277023166125
 20
-299.2448053042876
 10
244.9323050209748
 20
-342.1951367244752
 10
247.1205168821414
 20
-385.1388002764345
 10
248.7797187300064
 20
-428.1029031285873
 10
250.6607002921899
 20
-476.8107509206219
 10
252.1632882084068
 20
-525.5343653737825
 10
253.6179593411466
 20
-574.2575635555891
 10
256.2767886330678
 20
-663.3130716067205
 10
258.7396213498647
 20
-752.3745372426708
 10
261.387401190123
 20
-841.4303711521306
 10
261.8134426790716
 20
-855.7591170690798
 10
262.0508150976164
 20
-855.9656884414058
 10
247.6966408871571
 20
-855.3309979500895
 10
234.59575022353
 20
-854.7517604042555
 10
221.518547746335
 20
-853.6404949949178
 10
206.9556760850216
 20
-852.6647828136452
 97
        0
 97
        1
330
96
 75
     2
 76
     1
 98
        1
 10
0.0
 20
0.0
450
        0
451
        0
460
0.0
461
0.0
452
        0
462
0.0
453
        0
470

  0
SPLINE
  5
98
330
70
100
AcDbEntity
  8
2023-010
100
AcDbSpline
210
0.0
220
0.0
230
1.0
 70
     9
 71
     3
 72
    44
 73
    40
 74
     0
 42
0.0000000001
 43
0.0000000001
 40
0.0
 40
0.0
 40
0.0
 40
0.0
 40
1.0
 40
1.0
 40
1.0
 40
2.0
 40
2.0
 40
2.0
 40
3.0
 40
3.0
 40
3.0
 40
4.0
 40
4.0
 40
4.0
 40
5.0
 40
5.0
 40
5.0
 40
6.0
 40
6.0
 40
6.0
 40
7.0
 40
7.0
 40
7.0
 40
8.0
 40
8.0
 40
8.0
 40
9.0
 40
9.0
 40
9.0
 40
10.0
 40
10.0
 40
10.0
 40
11.0
 40
11.0
 40
11.0
 40
12.0
 40
12.0
 40
12.0
 40
13.0
 40
13.0
 40
13.0
 40
13.0
 10
432.8068999607419
 20
-204.6714151019074
 30
0.0
 10
433.4477353928753
 20
-207.0310598512278
 30
0.0
 10
434.746841767606
 20
-209.6517072143234
 30
0.0
 10
434.7768365401134
 20
-212.2872796674362
 30
0.0
 10
434.9334131061715
 20
-226.0536779497017
 30
0.0
 10
434.8124334074248
 20
-239.8241841492606
 30
0.0
 10
434.7064551440463
 20
-253.5926795379328
 30
0.0
 10
434.2542895367659
 20
-312.320762175505
 30
0.0
 10
440.5034892250677
 20
-370.5519295599616
 30
0.0
 10
447.1954159062956
 20
-428.7779319345018
 30
0.0
 10
454.8520336213415
 20
-495.3975485831676
 30
0.0
 10
462.197554808298
 20
-562.0502182938371
 30
0.0
 10
464.9600290132665
 20
-629.122341859034
 30
0.0
 10
467.9992854201175
 20
-702.9134277019464
 30
0.0
 10
471.4286826972028
 20
-776.6882631227027
 30
0.0
 10
474.6875046533172
 20
-850.4702085735392
 30
0.0
 10
475.0784581383746
 20
-859.3228029227759
 30
0.0
 10
474.1891408214134
 20
-860.1968394798033
 30
0.0
 10
465.5352329838952
 20
-860.3065779089419
 30
0.0
 10
451.4819369871085
 20
-860.4846911694293
 30
0.0
 10
437.4227728633609
 20
-860.5805367668651
 30
0.0
 10
423.3813317021454
 20
-861.1161215481226
 30
0.0
 10
417.9195341574103
 20
-861.3244246002992
 30
0.0
 10
415.7746348600704
 20
-859.4255604251236
 30
0.0
 10
415.6013318315088
 20
-853.9901262483329
 30
0.0
 10
412.7170671018011
 20
-763.5366835339565
 30
0.0
 10
410.2408011546006
 20
-673.0658018825611
 30
0.0
 10
406.5876977622461
 20
-582.6430757009604
 30
0.0
 10
404.2686728078185
 20
-525.2422327639631
 30
0.0
 10
400.4001811495296
 20
-467.8994014155532
 30
0.0
 10
396.8027511186364
 20
-410.5573632463138
 30
0.0
 10
392.6181374580901
 20
-343.8553888435323
 30
0.0
 10
388.0424426389172
 20
-277.1776515778035
 30
0.0
 10
383.4124095082827
 20
-210.5050778764126
 30
0.0
 10
382.9489205280921
 20
-203.8307609116772
 30
0.0
 10
385.1826736277905
 20
-201.593370560981
 30
0.0
 10
391.5756398345298
 20
-202.0670453324716
 30
0.0
 10
404.7938614986508
 20
-203.0464520703535
 30
0.0
 10
418.0321658942016
 20
-203.7554298130656
 30
0.0
 10
432.8068999607419
 20
-204.6714151019074
 30
0.0
  0
HATCH
  5
99
330
70
100
AcDbEntity
  8
2023-010
 62
    18
420
        0
440
 33554687
100
AcDbHatch
 10
0.0
 20
0.0
 30
0.0
210
0.0
220
0.0
230
1.0
  2
SOLID
 70
     1
 71
     1
 91
        1
 92
        1
 93
        1
 72
     4
 94
        3
 73
     0
 74
     0
 95
       44
 96
       40
 40
0.0
 40
0.0
 40
0.0
 40
0.0
 40
1.0
 40
1.0
 40
1.0
 40
2.0
 40
2.0
 40
2.0
 40
3.0
 40
3.0
 40
3.0
 40
4.0
 40
4.0
 40
4.0
 40
5.0
 40
5.0
 40
5.0
 40
6.0
 40
6.0
 40
6.0
 40
7.0
 40
7.0
 40
7.0
 40
8.0
 40
8.0
 40
8.0
 40
9.0
 40
9.0
 40
9.0
 40
10.0
 40
10.0
 40
10.0
 40
11.0
 40
11.0
 40
11.0
 40
12.0
 40
12.0
 40
12.0
 40
13.0
 40
13.0
 40
13.0
 40
13.0
 10
432.8068999607419
 20
-204.6714151019074
 10
433.4477353928753
 20
-207.0310598512278
 10
434.746841767606
 20
-209.6517072143234
 10
434.7768365401134
 20
-212.2872796674362
 10
434.9334131061715
 20
-226.0536779497017
 10
434.8124334074248
 20
-239.8241841492606
 10
434.7064551440463
 20
-253.5926795379328
 10
434.2542895367659
 20
-312.320762175505
 10
440.5034892250677
 20
-370.5519295599616
 10
447.1954159062956
 20
-428.7779319345018
 10
454.8520336213415
 20
-495.3975485831676
 10
462.197554808298
 20
-562.0502182938371
 10
464.9600290132665
 20
-629.122341859034
 10
467.9992854201175
 20
-702.9134277019464
 10
471.4286826972028
 20
-776.6882631227027
 10
474.6875046533172
 20
-850.4702085735392
 10
475.0784581383746
 20
-859.3228029227759
 10
474.1891408214134
 20
-860.1968394798033
 10
465.5352329838952
 20
-860.3065779089419
 10
451.4819369871085
 20
-860.4846911694293
 10
437.4227728633609
 20
-860.5805367668651
 10
423.3813317021454
 20
-861.1161215481226
 10
417.9195341574103
 20
-861.3244246002992
 10
415.7746348600704
 20
-859.4255604251236
 10
415.6013318315088
 20
-853.9901262483329
 10
412.7170671018011
 20
-763.5366835339565
 10
410.2408011546006
 20
-673.0658018825611
 10
406.5876977622461
 20
-582.6430757009604
 10
404.2686728078185
 20
-525.2422327639631
 10
400.4001811495296
 20
-467.8994014155532
 10
396.8027511186364
 20
-410.5573632463138
 10
392.6181374580901
 20
-343.8553888435323
 10
388.0424426389172
 20
-277.1776515778035
 10
383.4124095082827
 20
-210.5050778764126
 10
382.9489205280921
 20
-203.8307609116772
 10
385.1826736277905
 20
-201.593370560981
 10
391.5756398345298
 20
-202.0670453324716
 10
404.7938614986508
 20
-203.0464520703535
 10
418.0321658942016
 20
-203.7554298130656
 10
432.8068999607419
 20
-204.6714151019074
 97
        0
 97
        1
330
98
 75
     2
 76
     1
 98
        1
 10
0.0
 20
0.0
450
        0
451
        0
460
0.0
461
0.0
452
        0
462
0.0
453
        0
470

  0
ENDSEC
  0
SECTION
  2
OBJECTS
  0
DICTIONARY
  5
C
330
0
100
AcDbDictionary
281
     1
  3
ACAD_COLOR
350
63
  3
ACAD_DETAILVIEWSTYLE
350
6A
  3
ACAD_GROUP
350
D
  3
ACAD_LAYOUT
350
62
  3
ACAD_MATERIAL
350
10
  3
ACAD_MLEADERSTYLE
350
66
  3
ACAD_MLINESTYLE
350
5F
  3
ACAD_PLOTSETTINGS
350
61
  3
ACAD_PLOTSTYLENAME
350
E
  3
ACAD_SCALELIST
350
42
  3
ACAD_SECTIONVIEWSTYLE
350
68
  3
ACAD_TABLESTYLE
350
64
  3
ACAD_VISUALSTYLE
350
29
  3
ACDB_RECOMPOSE_DATA
350
AC
  3
AcDbVariableDictionary
350
A4
  0
DICTIONARY
  5
63
102
{ACAD_REACTORS
330
C
102
}
330
C
100
AcDbDictionary
281
     1
  0
DICTIONARY
  5
6A
102
{ACAD_REACTORS
330
C
102
}
330
C
100
AcDbDictionary
281
     1
  3
Imperial24
350
6B
  0
DICTIONARY
  5
D
102
{ACAD_REACTORS
330
C
102
}
330
C
100
AcDbDictionary
281
     1
  0
DICTIONARY
  5
62
102
{ACAD_REACTORS
330
C
102
}
330
C
100
AcDbDictionary
281
     1
  3
Layout1
350
6F
  3
Layout2
350
77
  3
Model
350
73
  0
DICTIONARY
  5
10
102
{ACAD_REACTORS
330
C
102
}
330
C
100
AcDbDictionary
281
     1
  3
ByBlock
350
19
  3
ByLayer
350
11
  3
Global
350
21
  0
DICTIONARY
  5
66
102
{ACAD_REACTORS
330
C
102
}
330
C
100
AcDbDictionary
281
     1
  3
Standard
350
67
  0
DICTIONARY
  5
5F
102
{ACAD_REACTORS
330
C
102
}
330
C
100
AcDbDictionary
281
     1
  3
Standard
350
60
  0
DICTIONARY
  5
61
102
{ACAD_REACTORS
330
C
102
}
330
C
100
AcDbDictionary
281
     1
  0
ACDBDICTIONARYWDFLT
  5
E
102
{ACAD_REACTORS
330
C
102
}
330
C
100
AcDbDictionary
281
     1
  3
Normal
350
F
100
AcDbDictionaryWithDefault
340
F
  0
DICTIONARY
  5
42
102
{ACAD_REACTORS
330
C
102
}
330
C
100
AcDbDictionary
281
     1
  3
A0
350
43
  3
A1
350
44
  3
A2
350
45
  3
A3
350
46
  3
A4
350
47
  3
A5
350
48
  3
A6
350
49
  3
A7
350
4A
  3
A8
350
4B
  3
A9
350
4C
  3
B0
350
4D
  3
B1
350
4E
  3
B2
350
4F
  3
B3
350
50
  3
B4
350
51
  3
B5
350
52
  3
B6
350
53
  0
DICTIONARY
  5
68
102
{ACAD_REACTORS
330
C
102
}
330
C
100
AcDbDictionary
281
     1
  3
Imperial24
350
69
  0
DICTIONARY
  5
64
102
{ACAD_REACTORS
330
C
102
}
330
C
100
AcDbDictionary
281
     1
  3
Standard
350
65
  0
DICTIONARY
  5
29
102
{ACAD_REACTORS
330
C
102
}
330
C
100
AcDbDictionary
281
     1
  3
2dWireframe
350
2F
  3
Basic
350
2E
  3
Brighten
350
35
  3
ColorChange
350
39
  3
Conceptual
350
32
  3
Dim
350
34
  3
EdgeColorOff
350
41
  3
Facepattern
350
38
  3
Flat
350
2A
  3
FlatWithEdges
350
2B
  3
Gouraud
350
2C
  3
GouraudWithEdges
350
2D
  3
Hidden
350
31
  3
JitterOff
350
3F
  3
Linepattern
350
37
  3
OverhangOff
350
40
  3
Realistic
350
33
  3
Shaded
350
3E
  3
Shaded with edges
350
3D
  3
Shades of Gray
350
3A
  3
Sketchy
350
3B
  3
Thicken
350
36
  3
Wireframe
350
30
  3
X-Ray
350
3C
  0
XRECORD
  5
AC
102
{ACAD_REACTORS
330
C
102
}
330
C
100
AcDbXrecord
280
     1
 90
        1
330
65
  0
DICTIONARY
  5
A4
102
{ACAD_REACTORS
330
C
102
}
330
C
100
AcDbDictionary
281
     1
  3
CANNOSCALE
350
A9
  3
CMLEADERSTYLE
350
A6
  3
CTABLESTYLE
350
A5
  3
CVIEWDETAILSTYLE
350
A7
  3
CVIEWSECTIONSTYLE
350
A8
  0
ACDBDETAILVIEWSTYLE
  5
6B
102
{ACAD_REACTORS
330
6A
102
}
330
6A
100
AcDbModelDocViewStyle
 70
     0
  3
Imperial24
290
     1
300
Imperial24
 90
        0
100
AcDbDetailViewStyle
 70
     0
 71
     0
 90
        3
 71
     1
340
55
 62
   256
 40
0.24
340
0
 62
   256
 40
0.24
300

 40
0.36
280
     3
 71
     2
340
5D
 90
       25
 62
   256
 71
     3
340
55
 62
   256
 40
0.24
 90
        1
 40
0.75
 90
        1
300
%<\AcVar ViewType \f "%tc1">% %<\AcVar ViewDetailId>%\PSCALE %<\AcVar ViewScale \f "%sn">%
 71
     4
340
5D
 90
       25
 62
   256
340
5D
 90
       25
 62
   256
280
     0
  0
LAYOUT
  5
6F
102
{ACAD_REACTORS
330
62
102
}
330
62
100
AcDbPlotSettings
  1

  2

  4

  6

 40
0.0
 41
0.0
 42
0.0
 43
0.0
 44
0.0
 45
0.0
 46
0.0
 47
0.0
 48
0.0
 49
0.0
140
0.0
141
0.0
142
1.0
143
1.0
 70
   688
 72
     0
 73
     0
 74
     5
  7

 75
    16
147
1.0
 76
     0
 77
     2
 78
   300
148
0.0
149
0.0
100
AcDbLayout
  1
Layout1
 70
     1
 71
     1
 10
0.0
 20
0.0
 11
12.0
 21
9.0
 12
0.0
 22
0.0
 32
0.0
 14
0.0
 24
0.0
 34
0.0
 15
0.0
 25
0.0
 35
0.0
146
0.0
 13
0.0
 23
0.0
 33
0.0
 16
1.0
 26
0.0
 36
0.0
 17
0.0
 27
1.0
 37
0.0
 76
     0
330
6C
  0
LAYOUT
  5
77
102
{ACAD_REACTORS
330
62
102
}
330
62
100
AcDbPlotSettings
  1

  2

  4

  6

 40
0.0
 41
0.0
 42
0.0
 43
0.0
 44
0.0
 45
0.0
 46
0.0
 47
0.0
 48
0.0
 49
0.0
140
0.0
141
0.0
142
1.0
143
1.0
 70
   688
 72
     0
 73
     0
 74
     5
  7

 75
    16
147
1.0
 76
     0
 77
     2
 78
   300
148
0.0
149
0.0
100
AcDbLayout
  1
Layout2
 70
     1
 71
     2
 10
0.0
 20
0.0
 11
12.0
 21
9.0
 12
0.0
 22
0.0
 32
0.0
 14
0.0
 24
0.0
 34
0.0
 15
0.0
 25
0.0
 35
0.0
146
0.0
 13
0.0
 23
0.0
 33
0.0
 16
1.0
 26
0.0
 36
0.0
 17
0.0
 27
1.0
 37
0.0
 76
     0
330
74
  0
LAYOUT
  5
73
102
{ACAD_REACTORS
330
62
102
}
330
62
100
AcDbPlotSettings
  1

  2

  4

  6

 40
0.0
 41
0.0
 42
0.0
 43
0.0
 44
0.0
 45
0.0
 46
0.0
 47
0.0
 48
0.0
 49
0.0
140
0.0
141
0.0
142
1.0
143
1.0
 70
  1712
 72
     0
 73
     0
 74
     0
  7

 75
     0
147
1.0
 76
     0
 77
     2
 78
   300
148
0.0
149
0.0
100
AcDbLayout
  1
Model
 70
     1
 71
     0
 10
0.0
 20
0.0
 11
12.0
 21
9.0
 12
0.0
 22
0.0
 32
0.0
 14
0.0
 24
0.0
 34
0.0
 15
0.0
 25
0.0
 35
0.0
146
0.0
 13
0.0
 23
0.0
 33
0.0
 16
1.0
 26
0.0
 36
0.0
 17
0.0
 27
1.0
 37
0.0
 76
     0
330
70
  0
MATERIAL
  5
19
102
{ACAD_XDICTIONARY
360
1A
102
}
102
{ACAD_REACTORS
330
10
102
}
330
10
100
AcDbMaterial
  1
ByBlock
 72
     0
 43
0.0208333333333333
 43
0.0
 43
0.0
 43
0.0
 43
0.0
 43
0.0208333333333333
 43
0.0
 43
0.0
 43
0.0
 43
0.0
 43
1.0
 43
0.0
 43
0.0
 43
0.0
 43
0.0
 43
1.0
 77
     0
 47
0.0208333333333333
 47
0.0
 47
0.0
 47
0.0
 47
0.0
 47
0.0208333333333333
 47
0.0
 47
0.0
 47
0.0
 47
0.0
 47
1.0
 47
0.0
 47
0.0
 47
0.0
 47
0.0
 47
1.0
171
     0
 49
0.0208333333333333
 49
0.0
 49
0.0
 49
0.0
 49
0.0
 49
0.0208333333333333
 49
0.0
 49
0.0
 49
0.0
 49
0.0
 49
1.0
 49
0.0
 49
0.0
 49
0.0
 49
0.0
 49
1.0
175
     0
142
0.0208333333333333
142
0.0
142
0.0
142
0.0
142
0.0
142
0.0208333333333333
142
0.0
142
0.0
142
0.0
142
0.0
142
1.0
142
0.0
142
0.0
142
0.0
142
0.0
142
1.0
179
     0
144
0.0208333333333333
144
0.0
144
0.0
144
0.0
144
0.0
144
0.0208333333333333
144
0.0
144
0.0
144
0.0
144
0.0
144
1.0
144
0.0
144
0.0
144
0.0
144
0.0
144
1.0
147
0.0208333333333333
147
0.0
147
0.0
147
0.0
147
0.0
147
0.0208333333333333
147
0.0
147
0.0
147
0.0
147
0.0
147
1.0
147
0.0
147
0.0
147
0.0
147
0.0
147
1.0
  0
MATERIAL
  5
11
102
{ACAD_XDICTIONARY
360
12
102
}
102
{ACAD_REACTORS
330
10
102
}
330
10
100
AcDbMaterial
  1
ByLayer
 72
     0
 43
0.0208333333333333
 43
0.0
 43
0.0
 43
0.0
 43
0.0
 43
0.0208333333333333
 43
0.0
 43
0.0
 43
0.0
 43
0.0
 43
1.0
 43
0.0
 43
0.0
 43
0.0
 43
0.0
 43
1.0
 77
     0
 47
0.0208333333333333
 47
0.0
 47
0.0
 47
0.0
 47
0.0
 47
0.0208333333333333
 47
0.0
 47
0.0
 47
0.0
 47
0.0
 47
1.0
 47
0.0
 47
0.0
 47
0.0
 47
0.0
 47
1.0
171
     0
 49
0.0208333333333333
 49
0.0
 49
0.0
 49
0.0
 49
0.0
 49
0.0208333333333333
 49
0.0
 49
0.0
 49
0.0
 49
0.0
 49
1.0
 49
0.0
 49
0.0
 49
0.0
 49
0.0
 49
1.0
175
     0
142
0.0208333333333333
142
0.0
142
0.0
142
0.0
142
0.0
142
0.0208333333333333
142
0.0
142
0.0
142
0.0
142
0.0
142
1.0
142
0.0
142
0.0
142
0.0
142
0.0
142
1.0
179
     0
144
0.0208333333333333
144
0.0
144
0.0
144
0.0
144
0.0
144
0.0208333333333333
144
0.0
144
0.0
144
0.0
144
0.0
144
1.0
144
0.0
144
0.0
144
0.0
144
0.0
144
1.0
147
0.0208333333333333
147
0.0
147
0.0
147
0.0
147
0.0
147
0.0208333333333333
147
0.0
147
0.0
147
0.0
147
0.0
147
1.0
147
0.0
147
0.0
147
0.0
147
0.0
147
1.0
  0
MATERIAL
  5
21
102
{ACAD_XDICTIONARY
360
22
102
}
102
{ACAD_REACTORS
330
10
102
}
330
10
100
AcDbMaterial
  1
Global
 72
     0
 43
0.0208333333333333
 43
0.0
 43
0.0
 43
0.0
 43
0.0
 43
0.0208333333333333
 43
0.0
 43
0.0
 43
0.0
 43
0.0
 43
1.0
 43
0.0
 43
0.0
 43
0.0
 43
0.0
 43
1.0
 77
     0
 47
0.0208333333333333
 47
0.0
 47
0.0
 47
0.0
 47
0.0
 47
0.0208333333333333
 47
0.0
 47
0.0
 47
0.0
 47
0.0
 47
1.0
 47
0.0
 47
0.0
 47
0.0
 47
0.0
 47
1.0
171
     0
 49
0.0208333333333333
 49
0.0
 49
0.0
 49
0.0
 49
0.0
 49
0.0208333333333333
 49
0.0
 49
0.0
 49
0.0
 49
0.0
 49
1.0
 49
0.0
 49
0.0
 49
0.0
 49
0.0
 49
1.0
175
     0
142
0.0208333333333333
142
0.0
142
0.0
142
0.0
142
0.0
142
0.0208333333333333
142
0.0
142
0.0
142
0.0
142
0.0
142
1.0
142
0.0
142
0.0
142
0.0
142
0.0
142
1.0
179
     0
144
0.0208333333333333
144
0.0
144
0.0
144
0.0
144
0.0
144
0.0208333333333333
144
0.0
144
0.0
144
0.0
144
0.0
144
1.0
144
0.0
144
0.0
144
0.0
144
0.0
144
1.0
147
0.0208333333333333
147
0.0
147
0.0
147
0.0
147
0.0
147
0.0208333333333333
147
0.0
147
0.0
147
0.0
147
0.0
147
1.0
147
0.0
147
0.0
147
0.0
147
0.0
147
1.0
  0
MLEADERSTYLE
  5
67
102
{ACAD_REACTORS
330
66
102
}
330
66
100
AcDbMLeaderStyle
179
     2
170
     2
171
     1
172
     0
 90
        2
 40
0.0
 41
0.0
173
     1
 91
-1056964608
340
5B
 92
       -2
290
     1
 42
0.09
291
     1
 43
0.36
  3
Standard
 44
0.18
300

342
55
174
     1
178
     6
175
     1
176
     0
 93
-1056964608
 45
0.18
292
     0
297
     0
 46
0.18
 94
-1056964608
 47
1.0
 49
1.0
140
1.0
293
     1
141
0.0
294
     1
177
     0
142
1.0
295
     1
296
     0
143
0.125
271
     0
272
     9
273
     9
298
     1
  0
MLINESTYLE
  5
60
102
{ACAD_REACTORS
330
5F
102
}
330
5F
100
AcDbMlineStyle
  2
STANDARD
 70
     0
  3

 62
   256
 51
90.0
 52
90.0
 71
     2
 49
0.5
 62
   256
  6
BYLAYER
 49
-0.5
 62
   256
  6
BYLAYER
  0
ACDBPLACEHOLDER
  5
F
102
{ACAD_REACTORS
330
E
102
}
330
E
  0
SCALE
  5
43
102
{ACAD_REACTORS
330
42
102
}
330
42
100
AcDbScale
 70
     0
300
1:1
140
1.0
141
1.0
290
     1
  0
SCALE
  5
44
102
{ACAD_REACTORS
330
42
102
}
330
42
100
AcDbScale
 70
     0
300
1/128" = 1'-0"
140
0.0078125
141
12.0
290
     0
  0
SCALE
  5
45
102
{ACAD_REACTORS
330
42
102
}
330
42
100
AcDbScale
 70
     0
300
1/64" = 1'-0"
140
0.015625
141
12.0
290
     0
  0
SCALE
  5
46
102
{ACAD_REACTORS
330
42
102
}
330
42
100
AcDbScale
 70
     0
300
1/32" = 1'-0"
140
0.03125
141
12.0
290
     0
  0
SCALE
  5
47
102
{ACAD_REACTORS
330
42
102
}
330
42
100
AcDbScale
 70
     0
300
1/16" = 1'-0"
140
0.0625
141
12.0
290
     0
  0
SCALE
  5
48
102
{ACAD_REACTORS
330
42
102
}
330
42
100
AcDbScale
 70
     0
300
3/32" = 1'-0"
140
0.09375
141
12.0
290
     0
  0
SCALE
  5
49
102
{ACAD_REACTORS
330
42
102
}
330
42
100
AcDbScale
 70
     0
300
1/8" = 1'-0"
140
0.125
141
12.0
290
     0
  0
SCALE
  5
4A
102
{ACAD_REACTORS
330
42
102
}
330
42
100
AcDbScale
 70
     0
300
3/16" = 1'-0"
140
0.1875
141
12.0
290
     0
  0
SCALE
  5
4B
102
{ACAD_REACTORS
330
42
102
}
330
42
100
AcDbScale
 70
     0
300
1/4" = 1'-0"
140
0.25
141
12.0
290
     0
  0
SCALE
  5
4C
102
{ACAD_REACTORS
330
42
102
}
330
42
100
AcDbScale
 70
     0
300
3/8" = 1'-0"
140
0.375
141
12.0
290
     0
  0
SCALE
  5
4D
102
{ACAD_REACTORS
330
42
102
}
330
42
100
AcDbScale
 70
     0
300
1/2" = 1'-0"
140
0.5
141
12.0
290
     0
  0
SCALE
  5
4E
102
{ACAD_REACTORS
330
42
102
}
330
42
100
AcDbScale
 70
     0
300
3/4" = 1'-0"
140
0.75
141
12.0
290
     0
  0
SCALE
  5
4F
102
{ACAD_REACTORS
330
42
102
}
330
42
100
AcDbScale
 70
     0
300
1" = 1'-0"
140
1.0
141
12.0
290
     0
  0
SCALE
  5
50
102
{ACAD_REACTORS
330
42
102
}
330
42
100
AcDbScale
 70
     0
300
1-1/2" = 1'-0"
140
1.5
141
12.0
290
     0
  0
SCALE
  5
51
102
{ACAD_REACTORS
330
42
102
}
330
42
100
AcDbScale
 70
     0
300
3" = 1'-0"
140
3.0
141
12.0
290
     0
  0
SCALE
  5
52
102
{ACAD_REACTORS
330
42
102
}
330
42
100
AcDbScale
 70
     0
300
6" = 1'-0"
140
6.0
141
12.0
290
     0
  0
SCALE
  5
53
102
{ACAD_REACTORS
330
42
102
}
330
42
100
AcDbScale
 70
     0
300
1'-0" = 1'-0"
140
12.0
141
12.0
290
     0
  0
ACDBSECTIONVIEWSTYLE
  5
69
102
{ACAD_REACTORS
330
68
102
}
330
68
100
AcDbModelDocViewStyle
 70
     0
  3
Imperial24
290
     1
300
Imperial24
 90
        0
100
AcDbSectionViewStyle
 70
     0
 71
     0
 90
       78
 71
     1
340
55
 62
   256
 40
0.24
340
0
340
0
 62
   256
 40
0.24
300
I, O, Q, S, X, Z
 40
0.48
 90
        3
 40
0.18
 90
        1
 71
     2
340
5D
 90
       25
 62
   256
340
5D
 90
       50
 62
   256
 40
0.24
 40
0.0
 40
0.24
 71
     3
340
55
 62
   256
 40
0.24
 90
        1
 40
0.75
 90
        1
300
%<\AcVar ViewType \f "%tc1">% %<\AcVar ViewSectionStartId>%-%<\AcVar ViewSectionEndId>%\PSCALE %<\AcVar ViewScale \f "%sn">%
 71
     4
 62
   256
 62
   257
300
ANSI31
 40
1.0
 90
        0
290
     0
290
     0
 90
        6
 40
0.0
 40
1.570796326794896
 40
0.2617993877991494
 40
1.308996938995747
 40
-0.2617993877991494
 40
1.832595714594046
  0
TABLESTYLE
  5
65
102
{ACAD_XDICTIONARY
360
AA
102
}
102
{ACAD_REACTORS
330
64
102
}
330
64
100
AcDbTableStyle
280
     0
  3
Standard
 70
     0
 71
     0
 40
0.06
 41
0.06
280
     0
281
     0
  7
Standard
140
0.18
170
     2
 62
     0
 63
     7
283
     0
 90
      512
 91
        0
  1

274
    -2
284
     1
 64
     0
275
    -2
285
     1
 65
     0
276
    -2
286
     1
 66
     0
277
    -2
287
     1
 67
     0
278
    -2
288
     1
 68
     0
279
    -2
289
     1
 69
     0
  7
Standard
140
0.25
170
     5
 62
     0
 63
     7
283
     0
 90
      512
 91
        0
  1

274
    -2
284
     1
 64
     0
275
    -2
285
     1
 65
     0
276
    -2
286
     1
 66
     0
277
    -2
287
     1
 67
     0
278
    -2
288
     1
 68
     0
279
    -2
289
     1
 69
     0
  7
Standard
140
0.18
170
     5
 62
     0
 63
     7
283
     0
 90
      512
 91
        0
  1

274
    -2
284
     1
 64
     0
275
    -2
285
     1
 65
     0
276
    -2
286
     1
 66
     0
277
    -2
287
     1
 67
     0
278
    -2
288
     1
 68
     0
279
    -2
289
     1
 69
     0
  0
VISUALSTYLE
  5
2F
102
{ACAD_REACTORS
330
29
102
}
330
29
100
AcDbVisualStyle
  2
2dWireframe
 70
     4
177
     3
291
     0
 70
    58
 90
        0
176
     1
 90
        2
176
     1
 90
        0
176
     1
 90
        0
176
     1
 40
0.6
176
     1
 40
30.0
176
     1
 62
     7
420
 16777215
176
     1
 90
        1
176
     1
 90
        4
176
     1
 62
     7
176
     1
 62
   257
176
     1
 90
        1
176
     1
 90
        1
176
     1
 40
1.0
176
     1
 90
        0
176
     1
 62
   257
176
     1
 40
1.0
176
     1
 90
        1
176
     1
 90
        6
176
     1
 90
        2
176
     1
 62
     7
176
     1
 90
        5
176
     1
 90
        0
176
     1
 90
        0
176
     1
290
     0
176
     1
 90
        1
176
     1
 40
0.0
176
     1
 90
        0
176
     1
290
     1
176
     1
290
     1
176
     1
290
     0
176
     1
290
     0
176
     1
290
     0
176
     1
290
     0
176
     1
290
     0
176
     1
290
     0
176
     1
290
     0
176
     1
 90
       50
176
     1
 40
0.0
176
     1
 40
1.0
176
     1
 90
        0
176
     1
 62
    18
420
        0
176
     1
 90
       50
176
     1
 90
        3
176
     1
 62
     5
420
      255
176
     1
290
     0
176
     1
 90
       50
176
     1
 90
       50
176
     1
 90
       50
176
     1
290
     0
176
     1
 90
       50
176
     1
 62
   256
176
     0
 40
1.0
176
     0
 90
        2
176
     1
  1
strokes_ogs.tif
176
     1
290
     0
176
     1
 40
1.0
176
     1
 40
1.0
176
     1
  0
VISUALSTYLE
  5
2E
102
{ACAD_REACTORS
330
29
102
}
330
29
100
AcDbVisualStyle
  2
Basic
 70
     7
177
     3
291
     1
 70
    58
 90
        1
176
     1
 90
        0
176
     1
 90
        1
176
     1
 90
        0
176
     1
 40
0.6
176
     1
 40
30.0
176
     1
 62
     7
420
 16777215
176
     1
 90
        0
176
     1
 90
        4
176
     1
 62
     7
176
     1
 62
   257
176
     1
 90
        1
176
     1
 90
        1
176
     1
 40
1.0
176
     1
 90
        8
176
     1
 62
     7
176
     1
 40
1.0
176
     1
 90
        1
176
     1
 90
        6
176
     1
 90
        2
176
     1
 62
     7
176
     1
 90
        5
176
     1
 90
        0
176
     1
 90
        0
176
     1
290
     0
176
     1
 90
        1
176
     1
 40
0.0
176
     1
 90
        0
176
     1
290
     0
176
     1
290
     1
176
     1
290
     1
176
     1
290
     0
176
     1
290
     0
176
     1
290
     0
176
     1
290
     0
176
     1
290
     0
176
     1
290
     0
176
     1
 90
       50
176
     1
 40
0.0
176
     1
 40
1.0
176
     1
 90
        0
176
     1
 62
    18
420
        0
176
     1
 90
       50
176
     1
 90
        3
176
     1
 62
     5
420
      255
176
     1
290
     0
176
     1
 90
       50
176
     1
 90
       50
176
     1
 90
       50
176
     1
290
     0
176
     1
 90
       50
176
     1
 62
   256
176
     0
 40
1.0
176
     0
 90
        2
176
     1
  1
strokes_ogs.tif
176
     1
290
     0
176
     1
 40
1.0
176
     1
 40
1.0
176
     1
  0
VISUALSTYLE
  5
35
102
{ACAD_REACTORS
330
29
102
}
330
29
100
AcDbVisualStyle
  2
Brighten
 70
    12
177
     3
291
     1
 70
    58
 90
        2
176
     1
 90
        2
176
     1
 90
        0
176
     1
 90
        0
176
     1
 40
0.6
176
     1
 40
30.0
176
     1
 62
     7
420
 16777215
176
     1
 90
        1
176
     1
 90
        4
176
     1
 62
     7
176
     1
 62
   257
176
     1
 90
        1
176
     1
 90
        1
176
     1
 40
1.0
176
     1
 90
        8
176
     1
 62
     7
176
     1
 40
1.0
176
     1
 90
        1
176
     1
 90
        6
176
     1
 90
        2
176
     1
 62
     7
176
     1
 90
        5
176
     1
 90
        0
176
     1
 90
        0
176
     1
290
     0
176
     1
 90
        1
176
     1
 40
50.0
176
     1
 90
        0
176
     1
290
     0
176
     1
290
     1
176
     1
290
     1
176
     1
290
     0
176
     1
290
     0
176
     1
290
     0
176
     1
290
     0
176
     1
290
     0
176
     1
290
     0
176
     1
 90
       50
176
     1
 40
0.0
176
     1
 40
1.0
176
     1
 90
        0
176
     1
 62
    18
420
        0
176
     1
 90
       50
176
     1
 90
        3
176
     1
 62
     5
420
      255
176
     1
290
     0
176
     1
 90
       50
176
     1
 90
       50
176
     1
 90
       50
176
     1
290
     0
176
     1
 90
       50
176
     1
 62
   256
176
     0
 40
1.0
176
     0
 90
        2
176
     1
  1
strokes_ogs.tif
176
     1
290
     0
176
     1
 40
1.0
176
     1
 40
1.0
176
     1
  0
VISUALSTYLE
  5
39
102
{ACAD_REACTORS
330
29
102
}
330
29
100
AcDbVisualStyle
  2
ColorChange
 70
    16
177
     3
291
     1
 70
    58
 90
        2
176
     1
 90
        2
176
     1
 90
        3
176
     1
 90
        0
176
     1
 40
0.6
176
     1
 40
30.0
176
     1
 62
     8
420
  8421504
176
     1
 90
        1
176
     1
 90
        4
176
     1
 62
     7
176
     1
 62
   257
176
     1
 90
        1
176
     1
 90
        1
176
     1
 40
1.0
176
     1
 90
        8
176
     1
 62
     8
420
  8421504
176
     1
 40
1.0
176
     1
 90
        1
176
     1
 90
        6
176
     1
 90
        2
176
     1
 62
     7
176
     1
 90
        5
176
     1
 90
        0
176
     1
 90
        0
176
     1
290
     0
176
     1
 90
        1
176
     1
 40
0.0
176
     1
 90
        0
176
     1
290
     0
176
     1
290
     1
176
     1
290
     1
176
     1
290
     0
176
     1
290
     0
176
     1
290
     0
176
     1
290
     0
176
     1
290
     0
176
     1
290
     0
176
     1
 90
       50
176
     1
 40
0.0
176
     1
 40
1.0
176
     1
 90
        0
176
     1
 62
    18
420
        0
176
     1
 90
       50
176
     1
 90
        3
176
     1
 62
     5
420
      255
176
     1
290
     0
176
     1
 90
       50
176
     1
 90
       50
176
     1
 90
       50
176
     1
290
     0
176
     1
 90
       50
176
     1
 62
   256
176
     0
 40
1.0
176
     0
 90
        2
176
     1
  1
strokes_ogs.tif
176
     1
290
     0
176
     1
 40
1.0
176
     1
 40
1.0
176
     1
  0
VISUALSTYLE
  5
32
102
{ACAD_REACTORS
330
29
102
}
330
29
100
AcDbVisualStyle
  2
Conceptual
 70
     9
177
     3
291
     0
 70
    58
 90
        3
176
     1
 90
        2
176
     1
 90
        0
176
     1
 90
        0
176
     1
 40
0.6
176
     1
 40
30.0
176
     1
 62
     7
420
 16777215
176
     1
 90
        2
176
     1
 90
        2
176
     1
 62
     7
176
     1
 62
   257
176
     1
 90
        1
176
     1
 90
        1
176
     1
 40
179.0
176
     1
 90
        8
176
     1
 62
     7
176
     1
 40
1.0
176
     1
 90
        1
176
     1
 90
        6
176
     1
 90
        2
176
     1
 62
     7
176
     1
 90
        3
176
     1
 90
        0
176
     1
 90
        0
176
     1
290
     0
176
     1
 90
        1
176
     1
 40
0.0
176
     1
 90
        0
176
     1
290
     0
176
     1
290
     1
176
     1
290
     1
176
     1
290
     0
176
     1
290
     0
176
     1
290
     0
176
     1
290
     0
176
     1
290
     0
176
     1
290
     0
176
     1
 90
       50
176
     1
 40
0.0
176
     1
 40
1.0
176
     1
 90
        0
176
     1
 62
    18
420
        0
176
     1
 90
       50
176
     1
 90
        3
176
     1
 62
     5
420
      255
176
     1
290
     0
176
     1
 90
       50
176
     1
 90
       50
176
     1
 90
       50
176
     1
290
     0
176
     1
 90
       50
176
     1
 62
   256
176
     0
 40
1.0
176
     0
 90
        2
176
     1
  1
strokes_ogs.tif
176
     1
290
     0
176
     1
 40
1.0
176
     1
 40
1.0
176
     1
  0
VISUALSTYLE
  5
34
102
{ACAD_REACTORS
330
29
102
}
330
29
100
AcDbVisualStyle
  2
Dim
 70
    11
177
     3
291
     1
 70
    58
 90
        2
176
     1
 90
        2
176
     1
 90
        0
176
     1
 90
        0
176
     1
 40
0.6
176
     1
 40
30.0
176
     1
 62
     7
420
 16777215
176
     1
 90
        1
176
     1
 90
        4
176
     1
 62
     7
176
     1
 62
   257
176
     1
 90
        1
176
     1
 90
        1
176
     1
 40
1.0
176
     1
 90
        8
176
     1
 62
     7
176
     1
 40
1.0
176
     1
 90
        1
176
     1
 90
        6
176
     1
 90
        2
176
     1
 62
     7
176
     1
 90
        5
176
     1
 90
        0
176
     1
 90
        0
176
     1
290
     0
176
     1
 90
        1
176
     1
 40
-50.0
176
     1
 90
        0
176
     1
290
     0
176
     1
290
     1
176
     1
290
     1
176
     1
290
     0
176
     1
290
     0
176
     1
290
     0
176
     1
290
     0
176
     1
290
     0
176
     1
290
     0
176
     1
 90
       50
176
     1
 40
0.0
176
     1
 40
1.0
176
     1
 90
        0
176
     1
 62
    18
420
        0
176
     1
 90
       50
176
     1
 90
        3
176
     1
 62
     5
420
      255
176
     1
290
     0
176
     1
 90
       50
176
     1
 90
       50
176
     1
 90
       50
176
     1
290
     0
176
     1
 90
       50
176
     1
 62
   256
176
     0
 40
1.0
176
     0
 90
        2
176
     1
  1
strokes_ogs.tif
176
     1
290
     0
176
     1
 40
1.0
176
     1
 40
1.0
176
     1
  0
VISUALSTYLE
  5
41
102
{ACAD_REACTORS
330
29
102
}
330
29
100
AcDbVisualStyle
  2
EdgeColorOff
 70
    22
177
     3
291
     1
 70
    58
 90
        2
176
     0
 90
        2
176
     0
 90
        0
176
     0
 90
        0
176
     0
 40
0.6
176
     0
 40
30.0
176
     0
 62
     7
420
 16777215
176
     0
 90
        1
176
     0
 90
        4
176
     0
 62
     7
176
     0
 62
   257
176
     0
 90
        1
176
     0
 90
        1
176
     0
 40
1.0
176
     0
 90
        8
176
     2
 62
     7
176
     0
 40
1.0
176
     0
 90
        1
176
     0
 90
        6
176
     0
 90
        2
176
     0
 62
     7
176
     0
 90
        5
176
     0
 90
        0
176
     0
 90
        0
176
     0
290
     0
176
     0
 90
        1
176
     0
 40
0.0
176
     0
 90
        0
176
     0
290
     0
176
     0
290
     1
176
     0
290
     1
176
     0
290
     0
176
     0
290
     0
176
     0
290
     0
176
     0
290
     0
176
     0
290
     0
176
     0
290
     0
176
     0
 90
       50
176
     0
 40
0.0
176
     0
 40
1.0
176
     0
 90
        0
176
     0
 62
    18
420
        0
176
     0
 90
       50
176
     0
 90
        3
176
     0
 62
     5
420
      255
176
     0
290
     0
176
     0
 90
       50
176
     0
 90
       50
176
     0
 90
       50
176
     0
290
     0
176
     0
 90
       50
176
     0
 62
   256
176
     0
 40
1.0
176
     0
 90
        2
176
     0
  1
strokes_ogs.tif
176
     0
290
     0
176
     0
 40
1.0
176
     0
 40
1.0
176
     0
  0
VISUALSTYLE
  5
38
102
{ACAD_REACTORS
330
29
102
}
330
29
100
AcDbVisualStyle
  2
Facepattern
 70
    15
177
     3
291
     1
 70
    58
 90
        2
176
     1
 90
        2
176
     1
 90
        0
176
     1
 90
        0
176
     1
 40
0.6
176
     1
 40
30.0
176
     1
 62
     7
420
 16777215
176
     1
 90
        1
176
     1
 90
        4
176
     1
 62
     7
176
     1
 62
   257
176
     1
 90
        1
176
     1
 90
        1
176
     1
 40
1.0
176
     1
 90
        8
176
     1
 62
     7
176
     1
 40
1.0
176
     1
 90
        1
176
     1
 90
        6
176
     1
 90
        2
176
     1
 62
     7
176
     1
 90
        5
176
     1
 90
        0
176
     1
 90
        0
176
     1
290
     0
176
     1
 90
        1
176
     1
 40
0.0
176
     1
 90
        0
176
     1
290
     0
176
     1
290
     1
176
     1
290
     1
176
     1
290
     0
176
     1
290
     0
176
     1
290
     0
176
     1
290
     0
176
     1
290
     0
176
     1
290
     0
176
     1
 90
       50
176
     1
 40
0.0
176
     1
 40
1.0
176
     1
 90
        0
176
     1
 62
    18
420
        0
176
     1
 90
       50
176
     1
 90
        3
176
     1
 62
     5
420
      255
176
     1
290
     0
176
     1
 90
       50
176
     1
 90
       50
176
     1
 90
       50
176
     1
290
     0
176
     1
 90
       50
176
     1
 62
   256
176
     0
 40
1.0
176
     0
 90
        2
176
     1
  1
strokes_ogs.tif
176
     1
290
     0
176
     1
 40
1.0
176
     1
 40
1.0
176
     1
  0
VISUALSTYLE
  5
2A
102
{ACAD_REACTORS
330
29
102
}
330
29
100
AcDbVisualStyle
  2
Flat
 70
     0
177
     3
291
     1
 70
    58
 90
        2
176
     1
 90
        1
176
     1
 90
        1
176
     1
 90
        2
176
     1
 40
0.6
176
     1
 40
30.0
176
     1
 62
     7
420
 16777215
176
     1
 90
        0
176
     1
 90
        0
176
     1
 62
     7
176
     1
 62
   257
176
     1
 90
        1
176
     1
 90
        1
176
     1
 40
1.0
176
     1
 90
        8
176
     1
 62
     7
176
     1
 40
1.0
176
     1
 90
        1
176
     1
 90
        6
176
     1
 90
        2
176
     1
 62
     7
176
     1
 90
        5
176
     1
 90
        0
176
     1
 90
        0
176
     1
290
     0
176
     1
 90
       13
176
     1
 40
0.0
176
     1
 90
        0
176
     1
290
     0
176
     1
290
     1
176
     1
290
     1
176
     1
290
     0
176
     1
290
     0
176
     1
290
     0
176
     1
290
     0
176
     1
290
     0
176
     1
290
     0
176
     1
 90
       50
176
     1
 40
0.0
176
     1
 40
1.0
176
     1
 90
        0
176
     1
 62
    18
420
        0
176
     1
 90
       50
176
     1
 90
        3
176
     1
 62
     5
420
      255
176
     1
290
     0
176
     1
 90
       50
176
     1
 90
       50
176
     1
 90
       50
176
     1
290
     0
176
     1
 90
       50
176
     1
 62
   256
176
     0
 40
1.0
176
     0
 90
        2
176
     1
  1
strokes_ogs.tif
176
     1
290
     0
176
     1
 40
1.0
176
     1
 40
1.0
176
     1
  0
VISUALSTYLE
  5
2B
102
{ACAD_REACTORS
330
29
102
}
330
29
100
AcDbVisualStyle
  2
FlatWithEdges
 70
     1
177
     3
291
     1
 70
    58
 90
        2
176
     1
 90
        1
176
     1
 90
        1
176
     1
 90
        2
176
     1
 40
0.6
176
     1
 40
30.0
176
     1
 62
     7
420
 16777215
176
     1
 90
        1
176
     1
 90
        0
176
     1
 62
     7
176
     1
 62
   257
176
     1
 90
        1
176
     1
 90
        1
176
     1
 40
1.0
176
     1
 90
        0
176
     1
 62
   257
176
     1
 40
1.0
176
     1
 90
        1
176
     1
 90
        6
176
     1
 90
        2
176
     1
 62
     7
176
     1
 90
        5
176
     1
 90
        0
176
     1
 90
        0
176
     1
290
     0
176
     1
 90
       13
176
     1
 40
0.0
176
     1
 90
        0
176
     1
290
     0
176
     1
290
     1
176
     1
290
     1
176
     1
290
     0
176
     1
290
     0
176
     1
290
     0
176
     1
290
     0
176
     1
290
     0
176
     1
290
     0
176
     1
 90
       50
176
     1
 40
0.0
176
     1
 40
1.0
176
     1
 90
        0
176
     1
 62
    18
420
        0
176
     1
 90
       50
176
     1
 90
        3
176
     1
 62
     5
420
      255
176
     1
290
     0
176
     1
 90
       50
176
     1
 90
       50
176
     1
 90
       50
176
     1
290
     0
176
     1
 90
       50
176
     1
 62
   256
176
     0
 40
1.0
176
     0
 90
        2
176
     1
  1
strokes_ogs.tif
176
     1
290
     0
176
     1
 40
1.0
176
     1
 40
1.0
176
     1
  0
VISUALSTYLE
  5
2C
102
{ACAD_REACTORS
330
29
102
}
330
29
100
AcDbVisualStyle
  2
Gouraud
 70
     2
177
     3
291
     1
 70
    58
 90
        2
176
     1
 90
        2
176
     1
 90
        1
176
     1
 90
        2
176
     1
 40
0.6
176
     1
 40
30.0
176
     1
 62
     7
420
 16777215
176
     1
 90
        0
176
     1
 90
        0
176
     1
 62
     7
176
     1
 62
   257
176
     1
 90
        1
176
     1
 90
        1
176
     1
 40
1.0
176
     1
 90
        0
176
     1
 62
     7
176
     1
 40
1.0
176
     1
 90
        1
176
     1
 90
        6
176
     1
 90
        2
176
     1
 62
     7
176
     1
 90
        5
176
     1
 90
        0
176
     1
 90
        0
176
     1
290
     0
176
     1
 90
       13
176
     1
 40
0.0
176
     1
 90
        0
176
     1
290
     0
176
     1
290
     1
176
     1
290
     1
176
     1
290
     0
176
     1
290
     0
176
     1
290
     0
176
     1
290
     0
176
     1
290
     0
176
     1
290
     0
176
     1
 90
       50
176
     1
 40
0.0
176
     1
 40
1.0
176
     1
 90
        0
176
     1
 62
    18
420
        0
176
     1
 90
       50
176
     1
 90
        3
176
     1
 62
     5
420
      255
176
     1
290
     0
176
     1
 90
       50
176
     1
 90
       50
176
     1
 90
       50
176
     1
290
     0
176
     1
 90
       50
176
     1
 62
   256
176
     0
 40
1.0
176
     0
 90
        2
176
     1
  1
strokes_ogs.tif
176
     1
290
     0
176
     1
 40
1.0
176
     1
 40
1.0
176
     1
  0
VISUALSTYLE
  5
2D
102
{ACAD_REACTORS
330
29
102
}
330
29
100
AcDbVisualStyle
  2
GouraudWithEdges
 70
     3
177
     3
291
     1
 70
    58
 90
        2
176
     1
 90
        2
176
     1
 90
        1
176
     1
 90
        2
176
     1
 40
0.6
176
     1
 40
30.0
176
     1
 62
     7
420
 16777215
176
     1
 90
        1
176
     1
 90
        0
176
     1
 62
     7
176
     1
 62
   257
176
     1
 90
        1
176
     1
 90
        1
176
     1
 40
1.0
176
     1
 90
        0
176
     1
 62
   257
176
     1
 40
1.0
176
     1
 90
        1
176
     1
 90
        6
176
     1
 90
        2
176
     1
 62
     7
176
     1
 90
        5
176
     1
 90
        0
176
     1
 90
        0
176
     1
290
     0
176
     1
 90
       13
176
     1
 40
0.0
176
     1
 90
        0
176
     1
290
     0
176
     1
290
     1
176
     1
290
     1
176
     1
290
     0
176
     1
290
     0
176
     1
290
     0
176
     1
290
     0
176
     1
290
     0
176
     1
290
     0
176
     1
 90
       50
176
     1
 40
0.0
176
     1
 40
1.0
176
     1
 90
        0
176
     1
 62
    18
420
        0
176
     1
 90
       50
176
     1
 90
        3
176
     1
 62
     5
420
      255
176
     1
290
     0
176
     1
 90
       50
176
     1
 90
       50
176
     1
 90
       50
176
     1
290
     0
176
     1
 90
       50
176
     1
 62
   256
176
     0
 40
1.0
176
     0
 90
        2
176
     1
  1
strokes_ogs.tif
176
     1
290
     0
176
     1
 40
1.0
176
     1
 40
1.0
176
     1
  0
VISUALSTYLE
  5
31
102
{ACAD_REACTORS
330
29
102
}
330
29
100
AcDbVisualStyle
  2
Hidden
 70
     6
177
     3
291
     0
 70
    58
 90
        1
176
     1
 90
        2
176
     1
 90
        2
176
     1
 90
        0
176
     1
 40
0.6
176
     1
 40
30.0
176
     1
 62
     7
420
 16777215
176
     1
 90
        2
176
     1
 90
        2
176
     1
 62
     7
176
     1
 62
   257
176
     1
 90
        2
176
     1
 90
        1
176
     1
 40
40.0
176
     1
 90
        0
176
     1
 62
   257
176
     1
 40
1.0
176
     1
 90
        1
176
     1
 90
        6
176
     1
 90
        2
176
     1
 62
     7
176
     1
 90
        3
176
     1
 90
        0
176
     1
 90
        0
176
     1
290
     0
176
     1
 90
        1
176
     1
 40
0.0
176
     1
 90
        0
176
     1
290
     0
176
     1
290
     1
176
     1
290
     1
176
     1
290
     0
176
     1
290
     0
176
     1
290
     0
176
     1
290
     0
176
     1
290
     0
176
     1
290
     0
176
     1
 90
       50
176
     1
 40
0.0
176
     1
 40
1.0
176
     1
 90
        0
176
     1
 62
    18
420
        0
176
     1
 90
       50
176
     1
 90
        3
176
     1
 62
     5
420
      255
176
     1
290
     0
176
     1
 90
       50
176
     1
 90
       50
176
     1
 90
       50
176
     1
290
     0
176
     1
 90
       50
176
     1
 62
   256
176
     0
 40
1.0
176
     0
 90
        2
176
     1
  1
strokes_ogs.tif
176
     1
290
     0
176
     1
 40
1.0
176
     1
 40
1.0
176
     1
  0
VISUALSTYLE
  5
3F
102
{ACAD_REACTORS
330
29
102
}
330
29
100
AcDbVisualStyle
  2
JitterOff
 70
    20
177
     3
291
     1
 70
    58
 90
        2
176
     0
 90
        2
176
     0
 90
        0
176
     0
 90
        0
176
     0
 40
0.6
176
     0
 40
30.0
176
     0
 62
     7
420
 16777215
176
     0
 90
        1
176
     0
 90
        4
176
     0
 62
     7
176
     0
 62
   257
176
     0
 90
        1
176
     0
 90
        1
176
     0
 40
1.0
176
     0
 90
       10
176
     2
 62
     7
176
     0
 40
1.0
176
     0
 90
        1
176
     0
 90
        6
176
     0
 90
        2
176
     0
 62
     7
176
     0
 90
        5
176
     0
 90
        0
176
     0
 90
        0
176
     0
290
     0
176
     0
 90
        1
176
     0
 40
0.0
176
     0
 90
        0
176
     0
290
     0
176
     0
290
     1
176
     0
290
     1
176
     0
290
     0
176
     0
290
     0
176
     0
290
     0
176
     0
290
     0
176
     0
290
     0
176
     0
290
     0
176
     0
 90
       50
176
     0
 40
0.0
176
     0
 40
1.0
176
     0
 90
        0
176
     0
 62
    18
420
        0
176
     0
 90
       50
176
     0
 90
        3
176
     0
 62
     5
420
      255
176
     0
290
     0
176
     0
 90
       50
176
     0
 90
       50
176
     0
 90
       50
176
     0
290
     0
176
     0
 90
       50
176
     0
 62
   256
176
     0
 40
1.0
176
     0
 90
        2
176
     0
  1
strokes_ogs.tif
176
     0
290
     0
176
     0
 40
1.0
176
     0
 40
1.0
176
     0
  0
VISUALSTYLE
  5
37
102
{ACAD_REACTORS
330
29
102
}
330
29
100
AcDbVisualStyle
  2
Linepattern
 70
    14
177
     3
291
     1
 70
    58
 90
        2
176
     1
 90
        2
176
     1
 90
        0
176
     1
 90
        0
176
     1
 40
0.6
176
     1
 40
30.0
176
     1
 62
     7
420
 16777215
176
     1
 90
        1
176
     1
 90
        4
176
     1
 62
     7
176
     1
 62
   257
176
     1
 90
        7
176
     1
 90
        7
176
     1
 40
1.0
176
     1
 90
        8
176
     1
 62
     7
176
     1
 40
1.0
176
     1
 90
        1
176
     1
 90
        6
176
     1
 90
        2
176
     1
 62
     7
176
     1
 90
        5
176
     1
 90
        0
176
     1
 90
        0
176
     1
290
     0
176
     1
 90
        1
176
     1
 40
0.0
176
     1
 90
        0
176
     1
290
     0
176
     1
290
     1
176
     1
290
     1
176
     1
290
     0
176
     1
290
     0
176
     1
290
     0
176
     1
290
     0
176
     1
290
     0
176
     1
290
     0
176
     1
 90
       50
176
     1
 40
0.0
176
     1
 40
1.0
176
     1
 90
        0
176
     1
 62
    18
420
        0
176
     1
 90
       50
176
     1
 90
        3
176
     1
 62
     5
420
      255
176
     1
290
     0
176
     1
 90
       50
176
     1
 90
       50
176
     1
 90
       50
176
     1
290
     0
176
     1
 90
       50
176
     1
 62
   256
176
     0
 40
1.0
176
     0
 90
        2
176
     1
  1
strokes_ogs.tif
176
     1
290
     0
176
     1
 40
1.0
176
     1
 40
1.0
176
     1
  0
VISUALSTYLE
  5
40
102
{ACAD_REACTORS
330
29
102
}
330
29
100
AcDbVisualStyle
  2
OverhangOff
 70
    21
177
     3
291
     1
 70
    58
 90
        2
176
     0
 90
        2
176
     0
 90
        0
176
     0
 90
        0
176
     0
 40
0.6
176
     0
 40
30.0
176
     0
 62
     7
420
 16777215
176
     0
 90
        1
176
     0
 90
        4
176
     0
 62
     7
176
     0
 62
   257
176
     0
 90
        1
176
     0
 90
        1
176
     0
 40
1.0
176
     0
 90
        9
176
     2
 62
     7
176
     0
 40
1.0
176
     0
 90
        1
176
     0
 90
        6
176
     0
 90
        2
176
     0
 62
     7
176
     0
 90
        5
176
     0
 90
        0
176
     0
 90
        0
176
     0
290
     0
176
     0
 90
        1
176
     0
 40
0.0
176
     0
 90
        0
176
     0
290
     0
176
     0
290
     1
176
     0
290
     1
176
     0
290
     0
176
     0
290
     0
176
     0
290
     0
176
     0
290
     0
176
     0
290
     0
176
     0
290
     0
176
     0
 90
       50
176
     0
 40
0.0
176
     0
 40
1.0
176
     0
 90
        0
176
     0
 62
    18
420
        0
176
     0
 90
       50
176
     0
 90
        3
176
     0
 62
     5
420
      255
176
     0
290
     0
176
     0
 90
       50
176
     0
 90
       50
176
     0
 90
       50
176
     0
290
     0
176
     0
 90
       50
176
     0
 62
   256
176
     0
 40
1.0
176
     0
 90
        2
176
     0
  1
strokes_ogs.tif
176
     0
290
     0
176
     0
 40
1.0
176
     0
 40
1.0
176
     0
  0
VISUALSTYLE
  5
33
102
{ACAD_REACTORS
330
29
102
}
330
29
100
AcDbVisualStyle
  2
Realistic
 70
     8
177
     3
291
     0
 70
    58
 90
        2
176
     1
 90
        3
176
     1
 90
        0
176
     1
 90
        2
176
     1
 40
0.6
176
     1
 40
30.0
176
     1
 62
     7
420
 16777215
176
     1
 90
        0
176
     1
 90
        0
176
     1
 62
     7
176
     1
 62
   257
176
     1
 90
        1
176
     1
 90
        1
176
     1
 40
1.0
176
     1
 90
        8
176
     1
 62
   257
176
     1
 40
1.0
176
     1
 90
        1
176
     1
 90
        6
176
     1
 90
        2
176
     1
 62
     7
176
     1
 90
        3
176
     1
 90
        0
176
     1
 90
        0
176
     1
290
     0
176
     1
 90
       13
176
     1
 40
0.0
176
     1
 90
        0
176
     1
290
     0
176
     1
290
     1
176
     1
290
     1
176
     1
290
     0
176
     1
290
     0
176
     1
290
     0
176
     1
290
     0
176
     1
290
     0
176
     1
290
     0
176
     1
 90
       50
176
     1
 40
0.0
176
     1
 40
1.0
176
     1
 90
        0
176
     1
 62
    18
420
        0
176
     1
 90
       50
176
     1
 90
        3
176
     1
 62
     5
420
      255
176
     1
290
     0
176
     1
 90
       50
176
     1
 90
       50
176
     1
 90
       50
176
     1
290
     0
176
     1
 90
       50
176
     1
 62
   256
176
     0
 40
1.0
176
     0
 90
        2
176
     1
  1
strokes_ogs.tif
176
     1
290
     0
176
     1
 40
1.0
176
     1
 40
1.0
176
     1
  0
VISUALSTYLE
  5
3E
102
{ACAD_REACTORS
330
29
102
}
330
29
100
AcDbVisualStyle
  2
Shaded
 70
    27
177
     3
291
     0
 70
    58
 90
        2
176
     1
 90
        2
176
     1
 90
        1
176
     1
 90
        2
176
     1
 40
0.6
176
     1
 40
30.0
176
     1
 62
     7
420
 16777215
176
     1
 90
        0
176
     1
 90
        4
176
     1
 62
     7
176
     1
 62
   257
176
     1
 90
        1
176
     1
 90
        1
176
     1
 40
1.0
176
     1
 90
        8
176
     1
 62
   257
176
     1
 40
1.0
176
     1
 90
        1
176
     1
 90
        6
176
     1
 90
        2
176
     1
 62
     8
420
  7895160
176
     1
 90
        3
176
     1
 90
        0
176
     1
 90
        0
176
     1
290
     0
176
     1
 90
        5
176
     1
 40
0.0
176
     1
 90
        0
176
     1
290
     0
176
     1
290
     1
176
     1
290
     1
176
     1
290
     0
176
     1
290
     0
176
     1
290
     0
176
     1
290
     0
176
     1
290
     0
176
     1
290
     0
176
     1
 90
       50
176
     1
 40
0.0
176
     1
 40
1.0
176
     1
 90
        0
176
     1
 62
    18
420
        0
176
     1
 90
       50
176
     1
 90
        3
176
     1
 62
     5
420
      255
176
     1
290
     0
176
     1
 90
       50
176
     1
 90
       50
176
     1
 90
       50
176
     1
290
     0
176
     1
 90
       50
176
     1
 62
   256
176
     0
 40
1.0
176
     0
 90
        2
176
     1
  1
strokes_ogs.tif
176
     1
290
     0
176
     1
 40
1.0
176
     1
 40
1.0
176
     1
  0
VISUALSTYLE
  5
3D
102
{ACAD_REACTORS
330
29
102
}
330
29
100
AcDbVisualStyle
  2
Shaded with edges
 70
    26
177
     3
291
     0
 70
    58
 90
        2
176
     1
 90
        2
176
     1
 90
        1
176
     1
 90
        2
176
     1
 40
0.6
176
     1
 40
30.0
176
     1
 62
     7
420
 16777215
176
     1
 90
        1
176
     1
 90
        2
176
     1
 62
     7
176
     1
 62
   257
176
     1
 90
        2
176
     1
 90
        1
176
     1
 40
1.0
176
     1
 90
        8
176
     1
 62
   257
176
     1
 40
1.0
176
     1
 90
        1
176
     1
 90
        6
176
     1
 90
        2
176
     1
 62
     7
176
     1
 90
        3
176
     1
 90
        0
176
     1
 90
        0
176
     1
290
     0
176
     1
 90
        5
176
     1
 40
0.0
176
     1
 90
        0
176
     1
290
     0
176
     1
290
     1
176
     1
290
     1
176
     1
290
     0
176
     1
290
     0
176
     1
290
     0
176
     1
290
     0
176
     1
290
     0
176
     1
290
     0
176
     1
 90
       50
176
     1
 40
0.0
176
     1
 40
1.0
176
     1
 90
        0
176
     1
 62
    18
420
        0
176
     1
 90
       50
176
     1
 90
        3
176
     1
 62
     5
420
      255
176
     1
290
     0
176
     1
 90
       50
176
     1
 90
       50
176
     1
 90
       50
176
     1
290
     0
176
     1
 90
       50
176
     1
 62
   256
176
     0
 40
1.0
176
     0
 90
        2
176
     1
  1
strokes_ogs.tif
176
     1
290
     0
176
     1
 40
1.0
176
     1
 40
1.0
176
     1
  0
VISUALSTYLE
  5
3A
102
{ACAD_REACTORS
330
29
102
}
330
29
100
AcDbVisualStyle
  2
Shades of Gray
 70
    23
177
     3
291
     0
 70
    58
 90
        2
176
     1
 90
        2
176
     1
 90
        3
176
     1
 90
        0
176
     1
 40
0.6
176
     1
 40
30.0
176
     1
 62
     7
420
 16777215
176
     1
 90
        2
176
     1
 90
        2
176
     1
 62
     7
176
     1
 62
     7
176
     1
 90
        1
176
     1
 90
        1
176
     1
 40
40.0
176
     1
 90
        8
176
     1
 62
     7
176
     1
 40
1.0
176
     1
 90
        1
176
     1
 90
        6
176
     1
 90
        2
176
     1
 62
     7
176
     1
 90
        3
176
     1
 90
        0
176
     1
 90
        0
176
     1
290
     0
176
     1
 90
        1
176
     1
 40
0.0
176
     1
 90
        0
176
     1
290
     0
176
     1
290
     1
176
     1
290
     1
176
     1
290
     0
176
     1
290
     0
176
     1
290
     0
176
     1
290
     0
176
     1
290
     0
176
     1
290
     0
176
     1
 90
       50
176
     1
 40
0.0
176
     1
 40
1.0
176
     1
 90
        0
176
     1
 62
    18
420
        0
176
     1
 90
       50
176
     1
 90
        3
176
     1
 62
     5
420
      255
176
     1
290
     0
176
     1
 90
       50
176
     1
 90
       50
176
     1
 90
       50
176
     1
290
     0
176
     1
 90
       50
176
     1
 62
   256
176
     0
 40
1.0
176
     0
 90
        2
176
     1
  1
strokes_ogs.tif
176
     1
290
     0
176
     1
 40
1.0
176
     1
 40
1.0
176
     1
  0
VISUALSTYLE
  5
3B
102
{ACAD_REACTORS
330
29
102
}
330
29
100
AcDbVisualStyle
  2
Sketchy
 70
    24
177
     3
291
     0
 70
    58
 90
        1
176
     1
 90
        2
176
     1
 90
        2
176
     1
 90
        0
176
     1
 40
0.6
176
     1
 40
30.0
176
     1
 62
     7
420
 16777215
176
     1
 90
        2
176
     1
 90
        2
176
     1
 62
     7
176
     1
 62
     7
176
     1
 90
        1
176
     1
 90
        1
176
     1
 40
40.0
176
     1
 90
       11
176
     1
 62
     7
176
     1
 40
1.0
176
     1
 90
        1
176
     1
 90
        6
176
     1
 90
        2
176
     1
 62
     7
176
     1
 90
        6
176
     1
 90
        0
176
     1
 90
        0
176
     1
290
     0
176
     1
 90
        1
176
     1
 40
0.0
176
     1
 90
        0
176
     1
290
     0
176
     1
290
     1
176
     1
290
     1
176
     1
290
     0
176
     1
290
     0
176
     1
290
     0
176
     1
290
     0
176
     1
290
     0
176
     1
290
     0
176
     1
 90
       50
176
     1
 40
0.0
176
     1
 40
1.0
176
     1
 90
        0
176
     1
 62
    18
420
        0
176
     1
 90
       50
176
     1
 90
        3
176
     1
 62
     5
420
      255
176
     1
290
     0
176
     1
 90
       50
176
     1
 90
       50
176
     1
 90
       50
176
     1
290
     0
176
     1
 90
       50
176
     1
 62
   256
176
     0
 40
1.0
176
     0
 90
        2
176
     1
  1
strokes_ogs.tif
176
     1
290
     0
176
     1
 40
1.0
176
     1
 40
1.0
176
     1
  0
VISUALSTYLE
  5
36
102
{ACAD_REACTORS
330
29
102
}
330
29
100
AcDbVisualStyle
  2
Thicken
 70
    13
177
     3
291
     1
 70
    58
 90
        2
176
     1
 90
        2
176
     1
 90
        0
176
     1
 90
        0
176
     1
 40
0.6
176
     1
 40
30.0
176
     1
 62
     7
420
 16777215
176
     1
 90
        1
176
     1
 90
        4
176
     1
 62
     7
176
     1
 62
   257
176
     1
 90
        1
176
     1
 90
        1
176
     1
 40
1.0
176
     1
 90
       12
176
     1
 62
     7
176
     1
 40
1.0
176
     1
 90
        1
176
     1
 90
        6
176
     1
 90
        2
176
     1
 62
     7
176
     1
 90
        5
176
     1
 90
        0
176
     1
 90
        0
176
     1
290
     0
176
     1
 90
        1
176
     1
 40
0.0
176
     1
 90
        0
176
     1
290
     0
176
     1
290
     1
176
     1
290
     1
176
     1
290
     0
176
     1
290
     0
176
     1
290
     0
176
     1
290
     0
176
     1
290
     0
176
     1
290
     0
176
     1
 90
       50
176
     1
 40
0.0
176
     1
 40
1.0
176
     1
 90
        0
176
     1
 62
    18
420
        0
176
     1
 90
       50
176
     1
 90
        3
176
     1
 62
     5
420
      255
176
     1
290
     0
176
     1
 90
       50
176
     1
 90
       50
176
     1
 90
       50
176
     1
290
     0
176
     1
 90
       50
176
     1
 62
   256
176
     0
 40
1.0
176
     0
 90
        2
176
     1
  1
strokes_ogs.tif
176
     1
290
     0
176
     1
 40
1.0
176
     1
 40
1.0
176
     1
  0
VISUALSTYLE
  5
30
102
{ACAD_REACTORS
330
29
102
}
330
29
100
AcDbVisualStyle
  2
Wireframe
 70
     5
177
     3
291
     0
 70
    58
 90
        0
176
     1
 90
        2
176
     1
 90
        0
176
     1
 90
        0
176
     1
 40
0.6
176
     1
 40
30.0
176
     1
 62
     7
420
 16777215
176
     1
 90
        1
176
     1
 90
        4
176
     1
 62
     7
176
     1
 62
   257
176
     1
 90
        1
176
     1
 90
        1
176
     1
 40
1.0
176
     1
 90
        0
176
     1
 62
   257
176
     1
 40
1.0
176
     1
 90
        1
176
     1
 90
        6
176
     1
 90
        2
176
     1
 62
     7
176
     1
 90
        3
176
     1
 90
        0
176
     1
 90
        0
176
     1
290
     0
176
     1
 90
        1
176
     1
 40
0.0
176
     1
 90
        0
176
     1
290
     0
176
     1
290
     1
176
     1
290
     1
176
     1
290
     0
176
     1
290
     0
176
     1
290
     0
176
     1
290
     0
176
     1
290
     0
176
     1
290
     0
176
     1
 90
       50
176
     1
 40
0.0
176
     1
 40
1.0
176
     1
 90
        0
176
     1
 62
    18
420
        0
176
     1
 90
       50
176
     1
 90
        3
176
     1
 62
     5
420
      255
176
     1
290
     0
176
     1
 90
       50
176
     1
 90
       50
176
     1
 90
       50
176
     1
290
     0
176
     1
 90
       50
176
     1
 62
   256
176
     0
 40
1.0
176
     0
 90
        2
176
     1
  1
strokes_ogs.tif
176
     1
290
     0
176
     1
 40
1.0
176
     1
 40
1.0
176
     1
  0
VISUALSTYLE
  5
3C
102
{ACAD_REACTORS
330
29
102
}
330
29
100
AcDbVisualStyle
  2
X-Ray
 70
    25
177
     3
291
     0
 70
    58
 90
        2
176
     1
 90
        2
176
     1
 90
        1
176
     1
 90
        1
176
     1
 40
0.5
176
     1
 40
30.0
176
     1
 62
     7
420
 16777215
176
     1
 90
        1
176
     1
 90
        0
176
     1
 62
     7
176
     1
 62
   257
176
     1
 90
        1
176
     1
 90
        1
176
     1
 40
1.0
176
     1
 90
        8
176
     1
 62
     7
176
     1
 40
1.0
176
     1
 90
        1
176
     1
 90
        6
176
     1
 90
        2
176
     1
 62
     7
176
     1
 90
        3
176
     1
 90
        0
176
     1
 90
        0
176
     1
290
     0
176
     1
 90
       13
176
     1
 40
0.0
176
     1
 90
        0
176
     1
290
     0
176
     1
290
     1
176
     1
290
     1
176
     1
290
     0
176
     1
290
     0
176
     1
290
     0
176
     1
290
     0
176
     1
290
     0
176
     1
290
     0
176
     1
 90
       50
176
     1
 40
0.0
176
     1
 40
1.0
176
     1
 90
        0
176
     1
 62
    18
420
        0
176
     1
 90
       50
176
     1
 90
        3
176
     1
 62
     5
420
      255
176
     1
290
     0
176
     1
 90
       50
176
     1
 90
       50
176
     1
 90
       50
176
     1
290
     0
176
     1
 90
       50
176
     1
 62
   256
176
     0
 40
1.0
176
     0
 90
        2
176
     1
  1
strokes_ogs.tif
176
     1
290
     0
176
     1
 40
1.0
176
     1
 40
1.0
176
     1
  0
DICTIONARYVAR
  5
A9
102
{ACAD_REACTORS
330
A4
102
}
330
A4
100
DictionaryVariables
280
     0
  1
1:1
  0
DICTIONARYVAR
  5
A6
102
{ACAD_REACTORS
330
A4
102
}
330
A4
100
DictionaryVariables
280
     0
  1
STANDARD
  0
DICTIONARYVAR
  5
A5
102
{ACAD_REACTORS
330
A4
102
}
330
A4
100
DictionaryVariables
280
     0
  1
STANDARD
  0
DICTIONARYVAR
  5
A7
102
{ACAD_REACTORS
330
A4
102
}
330
A4
100
DictionaryVariables
280
     0
  1
Imperial24
  0
DICTIONARYVAR
  5
A8
102
{ACAD_REACTORS
330
A4
102
}
330
A4
100
DictionaryVariables
280
     0
  1
Imperial24
  0
DICTIONARY
  5
1A
330
19
100
AcDbDictionary
280
     1
281
     1
  3
BUMPTILE
360
1C
  3
DIFFUSETILE
360
1B
  3
OPACITYTILE
360
1F
  3
REFLECTIONTILE
360
1E
  3
REFRACTIONTILE
360
20
  3
SPECULARTILE
360
1D
  0
DICTIONARY
  5
12
330
11
100
AcDbDictionary
280
     1
281
     1
  3
BUMPTILE
360
14
  3
DIFFUSETILE
360
13
  3
OPACITYTILE
360
17
  3
REFLECTIONTILE
360
16
  3
REFRACTIONTILE
360
18
  3
SPECULARTILE
360
15
  0
DICTIONARY
  5
22
330
21
100
AcDbDictionary
280
     1
281
     1
  3
BUMPTILE
360
24
  3
DIFFUSETILE
360
23
  3
OPACITYTILE
360
27
  3
REFLECTIONTILE
360
26
  3
REFRACTIONTILE
360
28
  3
SPECULARTILE
360
25
  0
DICTIONARY
  5
AA
330
65
100
AcDbDictionary
280
     1
281
     1
  3
ACAD_ROUNDTRIP_2008_TABLESTYLE_CELLSTYLEMAP
360
AB
  0
XRECORD
  5
1C
102
{ACAD_REACTORS
330
1A
102
}
330
1A
100
AcDbXrecord
280
     1
270
     1
271
     1
  0
XRECORD
  5
1B
102
{ACAD_REACTORS
330
1A
102
}
330
1A
100
AcDbXrecord
280
     1
270
     1
271
     1
  0
XRECORD
  5
1F
102
{ACAD_REACTORS
330
1A
102
}
330
1A
100
AcDbXrecord
280
     1
270
     1
271
     1
  0
XRECORD
  5
1E
102
{ACAD_REACTORS
330
1A
102
}
330
1A
100
AcDbXrecord
280
     1
270
     1
271
     1
  0
XRECORD
  5
20
102
{ACAD_REACTORS
330
1A
102
}
330
1A
100
AcDbXrecord
280
     1
270
     1
271
     1
  0
XRECORD
  5
1D
102
{ACAD_REACTORS
330
1A
102
}
330
1A
100
AcDbXrecord
280
     1
270
     1
271
     1
  0
XRECORD
  5
14
102
{ACAD_REACTORS
330
12
102
}
330
12
100
AcDbXrecord
280
     1
270
     1
271
     1
  0
XRECORD
  5
13
102
{ACAD_REACTORS
330
12
102
}
330
12
100
AcDbXrecord
280
     1
270
     1
271
     1
  0
XRECORD
  5
17
102
{ACAD_REACTORS
330
12
102
}
330
12
100
AcDbXrecord
280
     1
270
     1
271
     1
  0
XRECORD
  5
16
102
{ACAD_REACTORS
330
12
102
}
330
12
100
AcDbXrecord
280
     1
270
     1
271
     1
  0
XRECORD
  5
18
102
{ACAD_REACTORS
330
12
102
}
330
12
100
AcDbXrecord
280
     1
270
     1
271
     1
  0
XRECORD
  5
15
102
{ACAD_REACTORS
330
12
102
}
330
12
100
AcDbXrecord
280
     1
270
     1
271
     1
  0
XRECORD
  5
24
102
{ACAD_REACTORS
330
22
102
}
330
22
100
AcDbXrecord
280
     1
270
     1
271
     1
  0
XRECORD
  5
23
102
{ACAD_REACTORS
330
22
102
}
330
22
100
AcDbXrecord
280
     1
270
     1
271
     1
  0
XRECORD
  5
27
102
{ACAD_REACTORS
330
22
102
}
330
22
100
AcDbXrecord
280
     1
270
     1
271
     1
  0
XRECORD
  5
26
102
{ACAD_REACTORS
330
22
102
}
330
22
100
AcDbXrecord
280
     1
270
     1
271
     1
  0
XRECORD
  5
28
102
{ACAD_REACTORS
330
22
102
}
330
22
100
AcDbXrecord
280
     1
270
     1
271
     1
  0
XRECORD
  5
25
102
{ACAD_REACTORS
330
22
102
}
330
22
100
AcDbXrecord
280
     1
270
     1
271
     1
  0
CELLSTYLEMAP
  5
AB
102
{ACAD_REACTORS
330
AA
102
}
330
AA
100
AcDbCellStyleMap
 90
        3
300
CELLSTYLE
  1
TABLEFORMAT_BEGIN
 90
        5
170
     1
 91
        0
 92
    32768
 62
   257
 93
        1
300
CONTENTFORMAT
  1
CONTENTFORMAT_BEGIN
 90
        0
 91
        0
 92
      512
 93
        0
300

 40
0.0
140
1.0
 94
        5
 62
     0
340
55
144
0.25
309
CONTENTFORMAT_END
171
     0
 94
        0
309
TABLEFORMAT_END
  1
CELLSTYLE_BEGIN
 90
        1
 91
        1
300
_TITLE
309
CELLSTYLE_END
300
CELLSTYLE
  1
TABLEFORMAT_BEGIN
 90
        5
170
     1
 91
        0
 92
        0
 62
   257
 93
        1
300
CONTENTFORMAT
  1
CONTENTFORMAT_BEGIN
 90
        0
 91
        0
 92
      512
 93
        0
300

 40
0.0
140
1.0
 94
        5
 62
     0
340
55
144
0.18
309
CONTENTFORMAT_END
171
     0
 94
        0
309
TABLEFORMAT_END
  1
CELLSTYLE_BEGIN
 90
        2
 91
        1
300
_HEADER
309
CELLSTYLE_END
300
CELLSTYLE
  1
TABLEFORMAT_BEGIN
 90
        5
170
     1
 91
        0
 92
        0
 62
   257
 93
        1
300
CONTENTFORMAT
  1
CONTENTFORMAT_BEGIN
 90
        0
 91
        0
 92
      512
 93
        0
300

 40
0.0
140
1.0
 94
        2
 62
     0
340
55
144
0.18
309
CONTENTFORMAT_END
171
     0
 94
        0
309
TABLEFORMAT_END
  1
CELLSTYLE_BEGIN
 90
        3
 91
        2
300
_DATA
309
CELLSTYLE_END
  0
ENDSEC
  0
EOF
