  0
SECTION
  2
HEADER
  9
$ACADVER
  1
AC1032
  9
$ACADMAINTVER
 90
      251
  9
$DWGCODEPAGE
  3
ANSI_1252
  9
$REQUIREDVERSIONS
160
                 0
  9
$INSBASE
 10
0.0
 20
0.0
 30
0.0
  9
$EXTMIN
 10
1.000000000000000E+20
 20
1.000000000000000E+20
 30
1.000000000000000E+20
  9
$EXTMAX
 10
-1.000000000000000E+20
 20
-1.000000000000000E+20
 30
-1.000000000000000E+20
  9
$LIMMIN
 10
0.0
 20
0.0
  9
$LIMMAX
 10
12.0
 20
9.0
  9
$ORTHOMODE
 70
     0
  9
$REGENMODE
 70
     1
  9
$FILLMODE
 70
     1
  9
$QTEXTMODE
 70
     0
  9
$MIRRTEXT
 70
     0
  9
$LTSCALE
 40
1.0
  9
$ATTMODE
 70
     1
  9
$TEXTSIZE
 40
0.2
  9
$TRACEWID
 40
0.05
  9
$TEXTSTYLE
  7
Standard
  9
$CLAYER
  8
0
  9
$CELTYPE
  6
ByLayer
  9
$CECOLOR
 62
   256
  9
$CELTSCALE
 40
1.0
  9
$DISPSILH
 70
     0
  9
$DIMSCALE
 40
1.0
  9
$DIMASZ
 40
0.18
  9
$DIMEXO
 40
0.0625
  9
$DIMDLI
 40
0.38
  9
$DIMRND
 40
0.0
  9
$DIMDLE
 40
0.0
  9
$DIMEXE
 40
0.18
  9
$DIMTP
 40
0.0
  9
$DIMTM
 40
0.0
  9
$DIMTXT
 40
0.18
  9
$DIMCEN
 40
0.09
  9
$DIMTSZ
 40
0.0
  9
$DIMTOL
 70
     0
  9
$DIMLIM
 70
     0
  9
$DIMTIH
 70
     1
  9
$DIMTOH
 70
     1
  9
$DIMSE1
 70
     0
  9
$DIMSE2
 70
     0
  9
$DIMTAD
 70
     0
  9
$DIMZIN
 70
     0
  9
$DIMBLK
  1

  9
$DIMASO
 70
     1
  9
$DIMSHO
 70
     1
  9
$DIMPOST
  1

  9
$DIMAPOST
  1

  9
$DIMALT
 70
     0
  9
$DIMALTD
 70
     2
  9
$DIMALTF
 40
25.4
  9
$DIMLFAC
 40
1.0
  9
$DIMTOFL
 70
     0
  9
$DIMTVP
 40
0.0
  9
$DIMTIX
 70
     0
  9
$DIMSOXD
 70
     0
  9
$DIMSAH
 70
     0
  9
$DIMBLK1
  1

  9
$DIMBLK2
  1

  9
$DIMSTYLE
  2
Standard
  9
$DIMCLRD
 70
     0
  9
$DIMCLRE
 70
     0
  9
$DIMCLRT
 70
     0
  9
$DIMTFAC
 40
1.0
  9
$DIMGAP
 40
0.09
  9
$DIMJUST
 70
     0
  9
$DIMSD1
 70
     0
  9
$DIMSD2
 70
     0
  9
$DIMTOLJ
 70
     1
  9
$DIMTZIN
 70
     0
  9
$DIMALTZ
 70
     0
  9
$DIMALTTZ
 70
     0
  9
$DIMUPT
 70
     0
  9
$DIMDEC
 70
     4
  9
$DIMTDEC
 70
     4
  9
$DIMALTU
 70
     2
  9
$DIMALTTD
 70
     2
  9
$DIMTXSTY
  7
Standard
  9
$DIMAUNIT
 70
     0
  9
$DIMADEC
 70
     0
  9
$DIMALTRND
 40
0.0
  9
$DIMAZIN
 70
     0
  9
$DIMDSEP
 70
    46
  9
$DIMATFIT
 70
     3
  9
$DIMFRAC
 70
     0
  9
$DIMLDRBLK
  1

  9
$DIMLUNIT
 70
     2
  9
$DIMLWD
 70
    -2
  9
$DIMLWE
 70
    -2
  9
$DIMTMOVE
 70
     0
  9
$DIMFXL
 40
1.0
  9
$DIMFXLON
 70
     0
  9
$DIMJOGANG
 40
0.7853981633974483
  9
$DIMTFILL
 70
     0
  9
$DIMTFILLCLR
 70
     0
  9
$DIMARCSYM
 70
     0
  9
$DIMLTYPE
  6

  9
$DIMLTEX1
  6

  9
$DIMLTEX2
  6

  9
$DIMTXTDIRECTION
 70
     0
  9
$LUNITS
 70
     2
  9
$LUPREC
 70
     4
  9
$SKETCHINC
 40
0.1
  9
$FILLETRAD
 40
0.0
  9
$AUNITS
 70
     0
  9
$AUPREC
 70
     0
  9
$MENU
  1
.
  9
$ELEVATION
 40
0.0
  9
$PELEVATION
 40
0.0
  9
$THICKNESS
 40
0.0
  9
$LIMCHECK
 70
     0
  9
$CHAMFERA
 40
0.0
  9
$CHAMFERB
 40
0.0
  9
$CHAMFERC
 40
0.0
  9
$CHAMFERD
 40
0.0
  9
$SKPOLY
 70
     0
  9
$TDCREATE
 40
2460024.638877315
  9
$TDUCREATE
 40
2460024.597210648
  9
$TDUPDATE
 40
2460024.638877315
  9
$TDUUPDATE
 40
2460024.597210648
  9
$TDINDWG
 40
0.0000000000
  9
$TDUSRTIMER
 40
0.0000000000
  9
$USRTIMER
 70
     1
  9
$ANGBASE
 50
0.0
  9
$ANGDIR
 70
     0
  9
$PDMODE
 70
     0
  9
$PDSIZE
 40
0.0
  9
$PLINEWID
 40
0.0
  9
$SPLFRAME
 70
     0
  9
$SPLINETYPE
 70
     6
  9
$SPLINESEGS
 70
     8
  9
$HANDSEED
  5
A9
  9
$SURFTAB1
 70
     6
  9
$SURFTAB2
 70
     6
  9
$SURFTYPE
 70
     6
  9
$SURFU
 70
     6
  9
$SURFV
 70
     6
  9
$UCSBASE
  2

  9
$UCSNAME
  2

  9
$UCSORG
 10
0.0
 20
0.0
 30
0.0
  9
$UCSXDIR
 10
1.0
 20
0.0
 30
0.0
  9
$UCSYDIR
 10
0.0
 20
1.0
 30
0.0
  9
$UCSORTHOREF
  2

  9
$UCSORTHOVIEW
 70
     0
  9
$UCSORGTOP
 10
0.0
 20
0.0
 30
0.0
  9
$UCSORGBOTTOM
 10
0.0
 20
0.0
 30
0.0
  9
$UCSORGLEFT
 10
0.0
 20
0.0
 30
0.0
  9
$UCSORGRIGHT
 10
0.0
 20
0.0
 30
0.0
  9
$UCSORGFRONT
 10
0.0
 20
0.0
 30
0.0
  9
$UCSORGBACK
 10
0.0
 20
0.0
 30
0.0
  9
$PUCSBASE
  2

  9
$PUCSNAME
  2

  9
$PUCSORG
 10
0.0
 20
0.0
 30
0.0
  9
$PUCSXDIR
 10
1.0
 20
0.0
 30
0.0
  9
$PUCSYDIR
 10
0.0
 20
1.0
 30
0.0
  9
$PUCSORTHOREF
  2

  9
$PUCSORTHOVIEW
 70
     0
  9
$PUCSORGTOP
 10
0.0
 20
0.0
 30
0.0
  9
$PUCSORGBOTTOM
 10
0.0
 20
0.0
 30
0.0
  9
$PUCSORGLEFT
 10
0.0
 20
0.0
 30
0.0
  9
$PUCSORGRIGHT
 10
0.0
 20
0.0
 30
0.0
  9
$PUCSORGFRONT
 10
0.0
 20
0.0
 30
0.0
  9
$PUCSORGBACK
 10
0.0
 20
0.0
 30
0.0
  9
$USERI1
 70
     0
  9
$USERI2
 70
     0
  9
$USERI3
 70
     0
  9
$USERI4
 70
     0
  9
$USERI5
 70
     0
  9
$USERR1
 40
0.0
  9
$USERR2
 40
0.0
  9
$USERR3
 40
0.0
  9
$USERR4
 40
0.0
  9
$USERR5
 40
0.0
  9
$WORLDVIEW
 70
     1
  9
$SHADEDGE
 70
     3
  9
$SHADEDIF
 70
    70
  9
$TILEMODE
 70
     1
  9
$MAXACTVP
 70
    64
  9
$PINSBASE
 10
0.0
 20
0.0
 30
0.0
  9
$PLIMCHECK
 70
     0
  9
$PEXTMIN
 10
1.000000000000000E+20
 20
1.000000000000000E+20
 30
1.000000000000000E+20
  9
$PEXTMAX
 10
-1.000000000000000E+20
 20
-1.000000000000000E+20
 30
-1.000000000000000E+20
  9
$PLIMMIN
 10
0.0
 20
0.0
  9
$PLIMMAX
 10
12.0
 20
9.0
  9
$UNITMODE
 70
     0
  9
$VISRETAIN
 70
     1
  9
$PLINEGEN
 70
     0
  9
$PSLTSCALE
 70
     1
  9
$TREEDEPTH
 70
  3020
  9
$CMLSTYLE
  2
Standard
  9
$CMLJUST
 70
     0
  9
$CMLSCALE
 40
1.0
  9
$PROXYGRAPHICS
 70
     1
  9
$MEASUREMENT
 70
     0
  9
$CELWEIGHT
370
    -1
  9
$ENDCAPS
280
     0
  9
$JOINSTYLE
280
     0
  9
$LWDISPLAY
290
     1
  9
$INSUNITS
 70
     4
  9
$HYPERLINKBASE
  1

  9
$STYLESHEET
  1

  9
$XEDIT
290
     1
  9
$CEPSNTYPE
380
     0
  9
$PSTYLEMODE
290
     1
  9
$FINGERPRINTGUID
  2
{370E5D86-2B84-1144-A9E9-2587BADB197C}
  9
$VERSIONGUID
  2
{132471B8-6E6C-FD42-8BDA-FB82D3AE2904}
  9
$EXTNAMES
290
     1
  9
$PSVPSCALE
 40
0.0
  9
$OLESTARTUP
290
     0
  9
$SORTENTS
280
   127
  9
$INDEXCTL
280
     0
  9
$HIDETEXT
280
     1
  9
$XCLIPFRAME
280
     2
  9
$HALOGAP
280
     0
  9
$OBSCOLOR
 70
   257
  9
$OBSLTYPE
280
     0
  9
$INTERSECTIONDISPLAY
280
     0
  9
$INTERSECTIONCOLOR
 70
   257
  9
$DIMASSOC
280
     2
  9
$PROJECTNAME
  1

  9
$CAMERADISPLAY
290
     0
  9
$LENSLENGTH
 40
50.0
  9
$CAMERAHEIGHT
 40
0.0
  9
$STEPSPERSEC
 40
2.0
  9
$STEPSIZE
 40
6.0
  9
$3DDWFPREC
 40
2.0
  9
$PSOLWIDTH
 40
0.25
  9
$PSOLHEIGHT
 40
4.0
  9
$LOFTANG1
 40
1.570796326794896
  9
$LOFTANG2
 40
1.570796326794896
  9
$LOFTMAG1
 40
0.0
  9
$LOFTMAG2
 40
0.0
  9
$LOFTPARAM
 70
     7
  9
$LOFTNORMALS
280
     1
  9
$LATITUDE
 40
37.795
  9
$LONGITUDE
 40
-122.394
  9
$NORTHDIRECTION
 40
0.0
  9
$TIMEZONE
 70
 -8000
  9
$LIGHTGLYPHDISPLAY
280
     1
  9
$TILEMODELIGHTSYNCH
280
     1
  9
$CMATERIAL
347
11
  9
$SOLIDHIST
280
     0
  9
$SHOWHIST
280
     1
  9
$DWFFRAME
280
     2
  9
$DGNFRAME
280
     0
  9
$REALWORLDSCALE
290
     1
  9
$INTERFERECOLOR
 62
     1
  9
$INTERFEREOBJVS
345
33
  9
$INTERFEREVPVS
346
30
  9
$CSHADOW
280
     0
  9
$SHADOWPLANELOCATION
 40
0.0
  0
ENDSEC
  0
SECTION
  2
CLASSES
  0
CLASS
  1
ACDBDICTIONARYWDFLT
  2
AcDbDictionaryWithDefault
  3
ObjectDBX Classes
 90
        0
 91
        1
280
     0
281
     0
  0
CLASS
  1
MATERIAL
  2
AcDbMaterial
  3
ObjectDBX Classes
 90
     1153
 91
        3
280
     0
281
     0
  0
CLASS
  1
VISUALSTYLE
  2
AcDbVisualStyle
  3
ObjectDBX Classes
 90
     4095
 91
       24
280
     0
281
     0
  0
CLASS
  1
SCALE
  2
AcDbScale
  3
ObjectDBX Classes
 90
     1153
 91
       17
280
     0
281
     0
  0
CLASS
  1
TABLESTYLE
  2
AcDbTableStyle
  3
ObjectDBX Classes
 90
     4095
 91
        1
280
     0
281
     0
  0
CLASS
  1
MLEADERSTYLE
  2
AcDbMLeaderStyle
  3
ACDB_MLEADERSTYLE_CLASS
 90
     4095
 91
        1
280
     0
281
     0
  0
CLASS
  1
ACDBSECTIONVIEWSTYLE
  2
AcDbSectionViewStyle
  3
ObjectDBX Classes
 90
     1025
 91
        1
280
     0
281
     0
  0
CLASS
  1
ACDBDETAILVIEWSTYLE
  2
AcDbDetailViewStyle
  3
ObjectDBX Classes
 90
     1025
 91
        1
280
     0
281
     0
  0
CLASS
  1
DICTIONARYVAR
  2
AcDbDictionaryVar
  3
ObjectDBX Classes
 90
        0
 91
        5
280
     0
281
     0
  0
CLASS
  1
CELLSTYLEMAP
  2
AcDbCellStyleMap
  3
ObjectDBX Classes
 90
     1152
 91
        1
280
     0
281
     0
  0
ENDSEC
  0
SECTION
  2
TABLES
  0
TABLE
  2
VPORT
  5
8
330
0
100
AcDbSymbolTable
 70
     1
  0
VPORT
  5
57
330
8
100
AcDbSymbolTableRecord
100
AcDbViewportTableRecord
  2
*Active
 70
     0
 10
0.0
 20
0.0
 11
1.0
 21
1.0
 12
0.0
 22
0.0
 13
0.0
 23
0.0
 14
1.0
 24
1.0
 15
0.0
 25
0.0
 16
0.0
 26
0.0
 36
1.0
 17
600.1763475651845
 27
-999.8195651465769
 37
0.0
 40
2040.449791156557
 41
0.6000881750030807
 42
50.0
 43
0.0
 44
0.0
 50
0.0
 51
0.0
 71
     0
 72
   100
 73
     1
 74
     1
 75
     0
 76
     0
 77
     0
 78
     0
281
     0
 65
     1
110
0.0
120
0.0
130
0.0
111
1.0
121
0.0
131
0.0
112
0.0
122
1.0
132
0.0
 79
     0
146
0.0
 60
     3
 61
     5
292
     1
282
     1
141
0.0
142
0.0
 63
   250
421
  3355443
  0
ENDTAB
  0
TABLE
  2
LTYPE
  5
5
330
0
100
AcDbSymbolTable
 70
     1
  0
LTYPE
  5
5B
330
5
100
AcDbSymbolTableRecord
100
AcDbLinetypeTableRecord
  2
ByBlock
 70
     0
  3

 72
    65
 73
     0
 40
0.0
  0
LTYPE
  5
5C
330
5
100
AcDbSymbolTableRecord
100
AcDbLinetypeTableRecord
  2
ByLayer
 70
     0
  3

 72
    65
 73
     0
 40
0.0
  0
LTYPE
  5
5D
330
5
100
AcDbSymbolTableRecord
100
AcDbLinetypeTableRecord
  2
Continuous
 70
     0
  3
Solid line
 72
    65
 73
     0
 40
0.0
  0
ENDTAB
  0
TABLE
  2
LAYER
  5
2
330
0
100
AcDbSymbolTable
 70
    22
  0
LAYER
  5
54
330
2
100
AcDbSymbolTableRecord
100
AcDbLayerTableRecord
  2
0
 70
     0
 62
     7
  6
Continuous
370
    -3
390
F
347
21
348
0
  0
LAYER
  5
78
330
2
100
AcDbSymbolTableRecord
100
AcDbLayerTableRecord
  2
Bounding Box
 70
     0
 62
     7
  6
Continuous
370
     0
390
F
347
21
348
0
  0
LAYER
  5
7A
330
2
100
AcDbSymbolTableRecord
100
AcDbLayerTableRecord
  2
Screws
 70
     0
 62
     7
  6
Continuous
370
     0
390
F
347
21
348
0
  0
LAYER
  5
83
330
2
100
AcDbSymbolTableRecord
100
AcDbLayerTableRecord
  2
2023-018
 70
     1
 62
     7
  6
Continuous
370
     0
390
F
347
21
348
0
  0
LAYER
  5
84
330
2
100
AcDbSymbolTableRecord
100
AcDbLayerTableRecord
  2
2023-017
 70
     1
 62
     7
  6
Continuous
370
     0
390
F
347
21
348
0
  0
LAYER
  5
85
330
2
100
AcDbSymbolTableRecord
100
AcDbLayerTableRecord
  2
2023-016
 70
     1
 62
     7
  6
Continuous
370
     0
390
F
347
21
348
0
  0
LAYER
  5
86
330
2
100
AcDbSymbolTableRecord
100
AcDbLayerTableRecord
  2
2023-015
 70
     1
 62
     7
  6
Continuous
370
     0
390
F
347
21
348
0
  0
LAYER
  5
87
330
2
100
AcDbSymbolTableRecord
100
AcDbLayerTableRecord
  2
2023-014
 70
     1
 62
     7
  6
Continuous
370
     0
390
F
347
21
348
0
  0
LAYER
  5
88
330
2
100
AcDbSymbolTableRecord
100
AcDbLayerTableRecord
  2
2023-013
 70
     1
 62
     7
  6
Continuous
370
     0
390
F
347
21
348
0
  0
LAYER
  5
89
330
2
100
AcDbSymbolTableRecord
100
AcDbLayerTableRecord
  2
2023-012
 70
     1
 62
     7
  6
Continuous
370
     0
390
F
347
21
348
0
  0
LAYER
  5
8A
330
2
100
AcDbSymbolTableRecord
100
AcDbLayerTableRecord
  2
2023-011
 70
     0
 62
     7
  6
Continuous
370
     0
390
F
347
21
348
0
  0
LAYER
  5
95
330
2
100
AcDbSymbolTableRecord
100
AcDbLayerTableRecord
  2
2023-010
 70
     1
 62
     7
  6
Continuous
370
     0
390
F
347
21
348
0
  0
LAYER
  5
96
330
2
100
AcDbSymbolTableRecord
100
AcDbLayerTableRecord
  2
2023-009
 70
     1
 62
     7
  6
Continuous
370
     0
390
F
347
21
348
0
  0
LAYER
  5
97
330
2
100
AcDbSymbolTableRecord
100
AcDbLayerTableRecord
  2
2023-008
 70
     1
 62
     7
  6
Continuous
370
     0
390
F
347
21
348
0
  0
LAYER
  5
98
330
2
100
AcDbSymbolTableRecord
100
AcDbLayerTableRecord
  2
2023-007
 70
     1
 62
     7
  6
Continuous
370
     0
390
F
347
21
348
0
  0
LAYER
  5
99
330
2
100
AcDbSymbolTableRecord
100
AcDbLayerTableRecord
  2
2023-006
 70
     1
 62
     7
  6
Continuous
370
     0
390
F
347
21
348
0
  0
LAYER
  5
9A
330
2
100
AcDbSymbolTableRecord
100
AcDbLayerTableRecord
  2
2023-005
 70
     1
 62
     7
  6
Continuous
370
     0
390
F
347
21
348
0
  0
LAYER
  5
9B
330
2
100
AcDbSymbolTableRecord
100
AcDbLayerTableRecord
  2
2023-004
 70
     1
 62
     7
  6
Continuous
370
     0
390
F
347
21
348
0
  0
LAYER
  5
9C
330
2
100
AcDbSymbolTableRecord
100
AcDbLayerTableRecord
  2
2023-003
 70
     1
 62
     7
  6
Continuous
370
     0
390
F
347
21
348
0
  0
LAYER
  5
9D
330
2
100
AcDbSymbolTableRecord
100
AcDbLayerTableRecord
  2
2023-002
 70
     1
 62
     7
  6
Continuous
370
     0
390
F
347
21
348
0
  0
LAYER
  5
9E
330
2
100
AcDbSymbolTableRecord
100
AcDbLayerTableRecord
  2
2023-001
 70
     1
 62
     7
  6
Continuous
370
     0
390
F
347
21
348
0
  0
LAYER
  5
9F
330
2
100
AcDbSymbolTableRecord
100
AcDbLayerTableRecord
  2
10-2022-057
 70
     5
 62
     7
  6
Continuous
370
     0
390
F
347
21
348
0
  0
ENDTAB
  0
TABLE
  2
STYLE
  5
3
330
0
100
AcDbSymbolTable
 70
     2
  0
STYLE
  5
55
330
3
100
AcDbSymbolTableRecord
100
AcDbTextStyleTableRecord
  2
Standard
 70
     0
 40
0.0
 41
1.0
 50
0.0
 71
     0
 42
0.2
  3
txt
  4

  0
STYLE
  5
5A
330
3
100
AcDbSymbolTableRecord
100
AcDbTextStyleTableRecord
  2
Annotative
 70
     0
 40
0.0
 41
1.0
 50
0.0
 71
     0
 42
0.2
  3
txt
  4

1001
AcadAnnotative
1000
AnnotativeData
1002
{
1070
     1
1070
     1
1002
}
  0
ENDTAB
  0
TABLE
  2
VIEW
  5
6
330
0
100
AcDbSymbolTable
 70
     0
  0
ENDTAB
  0
TABLE
  2
UCS
  5
7
330
0
100
AcDbSymbolTable
 70
     0
  0
ENDTAB
  0
TABLE
  2
APPID
  5
9
330
0
100
AcDbSymbolTable
 70
     2
  0
APPID
  5
56
330
9
100
AcDbSymbolTableRecord
100
AcDbRegAppTableRecord
  2
ACAD
 70
     0
  0
APPID
  5
5E
330
9
100
AcDbSymbolTableRecord
100
AcDbRegAppTableRecord
  2
AcadAnnotative
 70
     0
  0
ENDTAB
  0
TABLE
  2
DIMSTYLE
  5
A
330
0
100
AcDbSymbolTable
 70
     2
100
AcDbDimStyleTable
 71
     0
  0
DIMSTYLE
105
58
330
A
100
AcDbSymbolTableRecord
100
AcDbDimStyleTableRecord
  2
Standard
 70
     0
340
55
  0
DIMSTYLE
105
59
330
A
100
AcDbSymbolTableRecord
100
AcDbDimStyleTableRecord
  2
Annotative
 70
     0
340
55
1001
AcadAnnotative
1000
AnnotativeData
1002
{
1070
     1
1070
     1
1002
}
  0
ENDTAB
  0
TABLE
  2
BLOCK_RECORD
  5
1
330
0
100
AcDbSymbolTable
 70
     1
  0
BLOCK_RECORD
  5
70
330
1
100
AcDbSymbolTableRecord
100
AcDbBlockTableRecord
  2
*Model_Space
340
73
 70
     0
280
     1
281
     0
  0
BLOCK_RECORD
  5
6C
330
1
100
AcDbSymbolTableRecord
100
AcDbBlockTableRecord
  2
*Paper_Space
340
6F
 70
     0
280
     1
281
     0
  0
BLOCK_RECORD
  5
74
330
1
100
AcDbSymbolTableRecord
100
AcDbBlockTableRecord
  2
*Paper_Space0
340
77
 70
     0
280
     1
281
     0
  0
ENDTAB
  0
ENDSEC
  0
SECTION
  2
BLOCKS
  0
BLOCK
  5
71
330
70
100
AcDbEntity
  8
0
100
AcDbBlockBegin
  2
*Model_Space
 70
     0
 10
0.0
 20
0.0
 30
0.0
  3
*Model_Space
  1

  0
ENDBLK
  5
72
330
70
100
AcDbEntity
  8
0
100
AcDbBlockEnd
  0
BLOCK
  5
6D
330
6C
100
AcDbEntity
 67
     1
  8
0
100
AcDbBlockBegin
  2
*Paper_Space
 70
     0
 10
0.0
 20
0.0
 30
0.0
  3
*Paper_Space
  1

  0
ENDBLK
  5
6E
330
6C
100
AcDbEntity
 67
     1
  8
0
100
AcDbBlockEnd
  0
BLOCK
  5
75
330
74
100
AcDbEntity
 67
     1
  8
0
100
AcDbBlockBegin
  2
*Paper_Space0
 70
     0
 10
0.0
 20
0.0
 30
0.0
  3
*Paper_Space0
  1

  0
ENDBLK
  5
76
330
74
100
AcDbEntity
 67
     1
  8
0
100
AcDbBlockEnd
  0
ENDSEC
  0
SECTION
  2
ENTITIES
  0
LWPOLYLINE
  5
79
330
70
100
AcDbEntity
  8
Bounding Box
 62
    18
420
        0
370
    40
100
AcDbPolyline
 90
        4
 70
     1
 43
0.0
 10
1200.176347415185
 20
-1999.819564896579
 10
0.1763477151839837
 20
-1999.819564896579
 10
0.1763477151839837
 20
0.180434603424631
 10
1200.176347415185
 20
0.180434603424631
  0
ELLIPSE
  5
7B
330
70
100
AcDbEntity
  8
Screws
100
AcDbEllipse
 10
17.342316281568
 20
-1982.358092505099
 30
0.0
 11
2.557638888249479
 21
0.0
 31
0.0
210
0.0
220
0.0
230
1.0
 40
0.9655172413793103
 41
0.0
 42
6.283185307179586
  0
HATCH
  5
7C
330
70
100
AcDbEntity
  8
Screws
 62
    18
420
        0
440
 33554687
100
AcDbHatch
 10
0.0
 20
0.0
 30
0.0
210
0.0
220
0.0
230
1.0
  2
SOLID
 70
     1
 71
     1
 91
        1
 92
        1
 93
        1
 72
     3
 10
17.342316281568
 20
-1982.358092505099
 11
2.557638888249479
 21
0.0
 40
0.9655172413793103
 50
0.0
 51
360.0
 73
     1
 97
        1
330
7B
 75
     2
 76
     1
 98
        1
 10
0.0
 20
0.0
450
        0
451
        0
460
0.0
461
0.0
452
        0
462
0.0
453
        0
470

  0
ELLIPSE
  5
7D
330
70
100
AcDbEntity
  8
Screws
100
AcDbEllipse
 10
1182.38037163908
 20
-1982.387911349827
 30
0.0
 11
2.557638888249479
 21
0.0
 31
0.0
210
0.0
220
0.0
230
1.0
 40
0.9655172413793103
 41
0.0
 42
6.283185307179586
  0
HATCH
  5
7E
330
70
100
AcDbEntity
  8
Screws
 62
    18
420
        0
440
 33554687
100
AcDbHatch
 10
0.0
 20
0.0
 30
0.0
210
0.0
220
0.0
230
1.0
  2
SOLID
 70
     1
 71
     1
 91
        1
 92
        1
 93
        1
 72
     3
 10
1182.38037163908
 20
-1982.387911349827
 11
2.557638888249479
 21
0.0
 40
0.9655172413793103
 50
0.0
 51
360.0
 73
     1
 97
        1
330
7D
 75
     2
 76
     1
 98
        1
 10
0.0
 20
0.0
450
        0
451
        0
460
0.0
461
0.0
452
        0
462
0.0
453
        0
470

  0
ELLIPSE
  5
7F
330
70
100
AcDbEntity
  8
Screws
100
AcDbEllipse
 10
1182.644954972347
 20
-17.53202921959431
 30
0.0
 11
2.557638888249479
 21
0.0
 31
0.0
210
0.0
220
0.0
230
1.0
 40
0.9655172413793103
 41
0.0
 42
6.283185307179586
  0
HATCH
  5
80
330
70
100
AcDbEntity
  8
Screws
 62
    18
420
        0
440
 33554687
100
AcDbHatch
 10
0.0
 20
0.0
 30
0.0
210
0.0
220
0.0
230
1.0
  2
SOLID
 70
     1
 71
     1
 91
        1
 92
        1
 93
        1
 72
     3
 10
1182.644954972347
 20
-17.53202921959431
 11
2.557638888249479
 21
0.0
 40
0.9655172413793103
 50
0.0
 51
360.0
 73
     1
 97
        1
330
7F
 75
     2
 76
     1
 98
        1
 10
0.0
 20
0.0
450
        0
451
        0
460
0.0
461
0.0
452
        0
462
0.0
453
        0
470

  0
ELLIPSE
  5
81
330
70
100
AcDbEntity
  8
Screws
100
AcDbEllipse
 10
17.43471861274107
 20
-17.53202921959431
 30
0.0
 11
2.557638888249479
 21
0.0
 31
0.0
210
0.0
220
0.0
230
1.0
 40
0.9655172413793103
 41
0.0
 42
6.283185307179586
  0
HATCH
  5
82
330
70
100
AcDbEntity
  8
Screws
 62
    18
420
        0
440
 33554687
100
AcDbHatch
 10
0.0
 20
0.0
 30
0.0
210
0.0
220
0.0
230
1.0
  2
SOLID
 70
     1
 71
     1
 91
        1
 92
        1
 93
        1
 72
     3
 10
17.43471861274107
 20
-17.53202921959431
 11
2.557638888249479
 21
0.0
 40
0.9655172413793103
 50
0.0
 51
360.0
 73
     1
 97
        1
330
81
 75
     2
 76
     1
 98
        1
 10
0.0
 20
0.0
450
        0
451
        0
460
0.0
461
0.0
452
        0
462
0.0
453
        0
470

  0
SPLINE
  5
8B
330
70
100
AcDbEntity
  8
2023-011
100
AcDbSpline
210
0.0
220
0.0
230
1.0
 70
     9
 71
     3
 72
    74
 73
    70
 74
     0
 42
0.0000000001
 43
0.0000000001
 40
0.0
 40
0.0
 40
0.0
 40
0.0
 40
1.0
 40
1.0
 40
1.0
 40
2.0
 40
2.0
 40
2.0
 40
3.0
 40
3.0
 40
3.0
 40
4.0
 40
4.0
 40
4.0
 40
5.0
 40
5.0
 40
5.0
 40
6.0
 40
6.0
 40
6.0
 40
7.0
 40
7.0
 40
7.0
 40
8.0
 40
8.0
 40
8.0
 40
9.0
 40
9.0
 40
9.0
 40
10.0
 40
10.0
 40
10.0
 40
11.0
 40
11.0
 40
11.0
 40
12.0
 40
12.0
 40
12.0
 40
13.0
 40
13.0
 40
13.0
 40
14.0
 40
14.0
 40
14.0
 40
15.0
 40
15.0
 40
15.0
 40
16.0
 40
16.0
 40
16.0
 40
17.0
 40
17.0
 40
17.0
 40
18.0
 40
18.0
 40
18.0
 40
19.0
 40
19.0
 40
19.0
 40
20.0
 40
20.0
 40
20.0
 40
21.0
 40
21.0
 40
21.0
 40
22.0
 40
22.0
 40
22.0
 40
23.0
 40
23.0
 40
23.0
 40
23.0
 10
1124.760610545744
 20
-1911.267041412799
 30
0.0
 10
1121.730240099049
 20
-1914.254305584863
 30
0.0
 10
1119.042065998347
 20
-1917.598098455194
 30
0.0
 10
1116.774190219453
 20
-1921.198894659434
 30
0.0
 10
1115.664733475267
 20
-1922.960423077531
 30
0.0
 10
1114.656366236282
 20
-1924.785480555653
 30
0.0
 10
1113.757320955794
 20
-1926.663164923283
 30
0.0
 10
1113.293679544995
 20
-1927.631494603824
 30
0.0
 10
1112.86180850826
 20
-1928.614380819812
 30
0.0
 10
1112.45202410709
 20
-1929.606643592407
 30
0.0
 10
1112.023746898757
 20
-1930.643685336708
 30
0.0
 10
1111.607753778217
 20
-1931.764887939744
 30
0.0
 10
1112.033762268132
 20
-1932.877719647115
 30
0.0
 10
1112.810954643735
 20
-1934.907924065035
 30
0.0
 10
1115.236006315043
 20
-1935.314196281392
 30
0.0
 10
1117.14531626496
 20
-1935.379565492512
 30
0.0
 10
1119.56111655402
 20
-1935.4622754575
 30
0.0
 10
1121.974599562117
 20
-1934.97908432819
 30
0.0
 10
1124.298763076134
 20
-1934.363062340327
 30
0.0
 10
1128.888656134944
 20
-1933.146506349706
 30
0.0
 10
1133.416890330899
 20
-1931.652386418003
 30
0.0
 10
1137.90797874987
 20
-1930.115625110933
 30
0.0
 10
1143.008928318603
 20
-1928.370181424403
 30
0.0
 10
1148.064192847739
 20
-1926.494660596896
 30
0.0
 10
1153.100390905276
 20
-1924.571270375493
 30
0.0
 10
1153.656280036746
 20
-1924.358969010963
 30
0.0
 10
1154.038993683496
 20
-1923.828733449835
 30
0.0
 10
1153.870371864378
 20
-1923.215149993784
 30
0.0
 10
1153.724119676023
 20
-1922.68296546598
 30
0.0
 10
1153.073429039119
 20
-1922.231611777439
 30
0.0
 10
1152.514251482669
 20
-1922.445169034682
 30
0.0
 10
1143.997685341163
 20
-1925.697757564638
 30
0.0
 10
1135.420552062103
 20
-1928.814367584104
 30
0.0
 10
1126.673424359056
 20
-1931.395473714752
 30
0.0
 10
1124.496749904068
 20
-1932.037767730674
 30
0.0
 10
1122.301411481802
 20
-1932.699389789874
 30
0.0
 10
1120.048875575701
 20
-1933.017825448734
 30
0.0
 10
1118.978954285246
 20
-1933.169077684105
 30
0.0
 10
1117.887189607155
 20
-1933.221709366342
 30
0.0
 10
1116.808210473064
 20
-1933.159118496147
 30
0.0
 10
1116.035461470682
 20
-1933.114291834559
 30
0.0
 10
1115.261787105779
 20
-1933.025932392174
 30
0.0
 10
1114.61880196781
 20
-1932.651754971072
 30
0.0
 10
1114.391689166339
 20
-1932.519589424258
 30
0.0
 10
1114.199139081986
 20
-1932.368943907437
 30
0.0
 10
1114.120372152386
 20
-1932.174814689078
 30
0.0
 10
1114.052894692027
 20
-1932.008509531528
 30
0.0
 10
1114.138075331006
 20
-1932.401849438381
 30
0.0
 10
1114.085676837359
 20
-1932.082710368178
 30
0.0
 10
1114.076933600858
 20
-1932.029458677648
 30
0.0
 10
1114.062865417931
 20
-1932.004396561313
 30
0.0
 10
1114.056889987192
 20
-1931.962626037853
 30
0.0
 10
1114.020014048683
 20
-1931.70484926472
 30
0.0
 10
1114.112389119551
 20
-1931.437266733302
 30
0.0
 10
1114.189441099702
 20
-1931.196911308905
 30
0.0
 10
1114.482296239441
 20
-1930.283380971851
 30
0.0
 10
1114.909144809083
 20
-1929.395498971002
 30
0.0
 10
1115.309446636189
 20
-1928.525215719871
 30
0.0
 10
1116.137448682353
 20
-1926.725083260099
 30
0.0
 10
1117.065370580432
 20
-1924.970993157176
 30
0.0
 10
1118.086412480382
 20
-1923.27291621623
 30
0.0
 10
1120.381244037523
 20
-1919.456421956081
 30
0.0
 10
1123.148552823133
 20
-1915.952135076932
 30
0.0
 10
1126.319682788597
 20
-1912.826113655648
 30
0.0
 10
1127.331758414271
 20
-1911.828434556944
 30
0.0
 10
1125.772503194567
 20
-1910.269542688145
 30
0.0
 10
1124.760610545744
 20
-1911.267041412799
 30
0.0
 10
1124.760610545744
 20
-1911.267041412799
 30
0.0
 10
1124.760610545744
 20
-1911.267041412799
 30
0.0
 10
1124.760610545744
 20
-1911.267041412799
 30
0.0
  0
HATCH
  5
8C
330
70
100
AcDbEntity
  8
2023-011
 62
   250
420
  2301728
440
 33554687
100
AcDbHatch
 10
0.0
 20
0.0
 30
0.0
210
0.0
220
0.0
230
1.0
  2
SOLID
 70
     1
 71
     1
 91
        1
 92
        1
 93
        1
 72
     4
 94
        3
 73
     0
 74
     0
 95
       74
 96
       70
 40
0.0
 40
0.0
 40
0.0
 40
0.0
 40
1.0
 40
1.0
 40
1.0
 40
2.0
 40
2.0
 40
2.0
 40
3.0
 40
3.0
 40
3.0
 40
4.0
 40
4.0
 40
4.0
 40
5.0
 40
5.0
 40
5.0
 40
6.0
 40
6.0
 40
6.0
 40
7.0
 40
7.0
 40
7.0
 40
8.0
 40
8.0
 40
8.0
 40
9.0
 40
9.0
 40
9.0
 40
10.0
 40
10.0
 40
10.0
 40
11.0
 40
11.0
 40
11.0
 40
12.0
 40
12.0
 40
12.0
 40
13.0
 40
13.0
 40
13.0
 40
14.0
 40
14.0
 40
14.0
 40
15.0
 40
15.0
 40
15.0
 40
16.0
 40
16.0
 40
16.0
 40
17.0
 40
17.0
 40
17.0
 40
18.0
 40
18.0
 40
18.0
 40
19.0
 40
19.0
 40
19.0
 40
20.0
 40
20.0
 40
20.0
 40
21.0
 40
21.0
 40
21.0
 40
22.0
 40
22.0
 40
22.0
 40
23.0
 40
23.0
 40
23.0
 40
23.0
 10
1124.760610545744
 20
-1911.267041412799
 10
1121.730240099049
 20
-1914.254305584863
 10
1119.042065998347
 20
-1917.598098455194
 10
1116.774190219453
 20
-1921.198894659434
 10
1115.664733475267
 20
-1922.960423077531
 10
1114.656366236282
 20
-1924.785480555653
 10
1113.757320955794
 20
-1926.663164923283
 10
1113.293679544995
 20
-1927.631494603824
 10
1112.86180850826
 20
-1928.614380819812
 10
1112.45202410709
 20
-1929.606643592407
 10
1112.023746898757
 20
-1930.643685336708
 10
1111.607753778217
 20
-1931.764887939744
 10
1112.033762268132
 20
-1932.877719647115
 10
1112.810954643735
 20
-1934.907924065035
 10
1115.236006315043
 20
-1935.314196281392
 10
1117.14531626496
 20
-1935.379565492512
 10
1119.56111655402
 20
-1935.4622754575
 10
1121.974599562117
 20
-1934.97908432819
 10
1124.298763076134
 20
-1934.363062340327
 10
1128.888656134944
 20
-1933.146506349706
 10
1133.416890330899
 20
-1931.652386418003
 10
1137.90797874987
 20
-1930.115625110933
 10
1143.008928318603
 20
-1928.370181424403
 10
1148.064192847739
 20
-1926.494660596896
 10
1153.100390905276
 20
-1924.571270375493
 10
1153.656280036746
 20
-1924.358969010963
 10
1154.038993683496
 20
-1923.828733449835
 10
1153.870371864378
 20
-1923.215149993784
 10
1153.724119676023
 20
-1922.68296546598
 10
1153.073429039119
 20
-1922.231611777439
 10
1152.514251482669
 20
-1922.445169034682
 10
1143.997685341163
 20
-1925.697757564638
 10
1135.420552062103
 20
-1928.814367584104
 10
1126.673424359056
 20
-1931.395473714752
 10
1124.496749904068
 20
-1932.037767730674
 10
1122.301411481802
 20
-1932.699389789874
 10
1120.048875575701
 20
-1933.017825448734
 10
1118.978954285246
 20
-1933.169077684105
 10
1117.887189607155
 20
-1933.221709366342
 10
1116.808210473064
 20
-1933.159118496147
 10
1116.035461470682
 20
-1933.114291834559
 10
1115.261787105779
 20
-1933.025932392174
 10
1114.61880196781
 20
-1932.651754971072
 10
1114.391689166339
 20
-1932.519589424258
 10
1114.199139081986
 20
-1932.368943907437
 10
1114.120372152386
 20
-1932.174814689078
 10
1114.052894692027
 20
-1932.008509531528
 10
1114.138075331006
 20
-1932.401849438381
 10
1114.085676837359
 20
-1932.082710368178
 10
1114.076933600858
 20
-1932.029458677648
 10
1114.062865417931
 20
-1932.004396561313
 10
1114.056889987192
 20
-1931.962626037853
 10
1114.020014048683
 20
-1931.70484926472
 10
1114.112389119551
 20
-1931.437266733302
 10
1114.189441099702
 20
-1931.196911308905
 10
1114.482296239441
 20
-1930.283380971851
 10
1114.909144809083
 20
-1929.395498971002
 10
1115.309446636189
 20
-1928.525215719871
 10
1116.137448682353
 20
-1926.725083260099
 10
1117.065370580432
 20
-1924.970993157176
 10
1118.086412480382
 20
-1923.27291621623
 10
1120.381244037523
 20
-1919.456421956081
 10
1123.148552823133
 20
-1915.952135076932
 10
1126.319682788597
 20
-1912.826113655648
 10
1127.331758414271
 20
-1911.828434556944
 10
1125.772503194567
 20
-1910.269542688145
 10
1124.760610545744
 20
-1911.267041412799
 10
1124.760610545744
 20
-1911.267041412799
 10
1124.760610545744
 20
-1911.267041412799
 10
1124.760610545744
 20
-1911.267041412799
 97
        0
 97
        1
330
8B
 75
     2
 76
     1
 98
        1
 10
0.0
 20
0.0
450
        0
451
        0
460
0.0
461
0.0
452
        0
462
0.0
453
        0
470

  0
SPLINE
  5
8D
330
70
100
AcDbEntity
  8
2023-011
100
AcDbSpline
210
0.0
220
0.0
230
1.0
 70
     9
 71
     3
 72
    44
 73
    40
 74
     0
 42
0.0000000001
 43
0.0000000001
 40
0.0
 40
0.0
 40
0.0
 40
0.0
 40
1.0
 40
1.0
 40
1.0
 40
2.0
 40
2.0
 40
2.0
 40
3.0
 40
3.0
 40
3.0
 40
4.0
 40
4.0
 40
4.0
 40
5.0
 40
5.0
 40
5.0
 40
6.0
 40
6.0
 40
6.0
 40
7.0
 40
7.0
 40
7.0
 40
8.0
 40
8.0
 40
8.0
 40
9.0
 40
9.0
 40
9.0
 40
10.0
 40
10.0
 40
10.0
 40
11.0
 40
11.0
 40
11.0
 40
12.0
 40
12.0
 40
12.0
 40
13.0
 40
13.0
 40
13.0
 40
13.0
 10
1130.889135098962
 20
-1924.848666758177
 30
0.0
 10
1134.210295200765
 20
-1919.422491226295
 30
0.0
 10
1138.074977988893
 20
-1914.353519458825
 30
0.0
 10
1142.430575635208
 20
-1909.716429270668
 30
0.0
 10
1141.816380037929
 20
-1909.554273800627
 30
0.0
 10
1141.202184440654
 20
-1909.392118330585
 30
0.0
 10
1140.587988843378
 20
-1909.229962860547
 30
0.0
 10
1143.416899676022
 20
-1916.149995971376
 30
0.0
 10
1145.498401926015
 20
-1923.343326229175
 30
0.0
 10
1147.2899809982
 20
-1930.593389129538
 30
0.0
 10
1149.081887474169
 20
-1937.844776949385
 30
0.0
 10
1150.595200272096
 20
-1945.161021732487
 30
0.0
 10
1152.328317893122
 20
-1952.42623149759
 30
0.0
 10
1153.307906110826
 20
-1956.532654396251
 30
0.0
 10
1154.359705482111
 20
-1960.622638560184
 30
0.0
 10
1155.566419374023
 20
-1964.668680797368
 30
0.0
 10
1155.970982335775
 20
-1966.025157126859
 30
0.0
 10
1158.099599956981
 20
-1965.44745464762
 30
0.0
 10
1157.692520714831
 20
-1964.08254137476
 30
0.0
 10
1155.549868815625
 20
-1956.898352859258
 30
0.0
 10
1153.902369691881
 20
-1949.581468727631
 30
0.0
 10
1152.260812826783
 20
-1942.270341179227
 30
0.0
 10
1150.627457381222
 20
-1934.995740921213
 30
0.0
 10
1148.995386704021
 20
-1927.712395672532
 30
0.0
 10
1146.868440748759
 20
-1920.56257456265
 30
0.0
 10
1145.668249057417
 20
-1916.528078119799
 30
0.0
 10
1144.307188969653
 20
-1912.540834335926
 30
0.0
 10
1142.714090184185
 20
-1908.643823437936
 30
0.0
 10
1142.419116386723
 20
-1907.922263598823
 30
0.0
 10
1141.495480474252
 20
-1907.493053701605
 30
0.0
 10
1140.871503392355
 20
-1908.157357027815
 30
0.0
 10
1136.391990487389
 20
-1912.926370840864
 30
0.0
 10
1132.400981476228
 20
-1918.155228294967
 30
0.0
 10
1128.985302165173
 20
-1923.735831136835
 30
0.0
 10
1128.242548579706
 20
-1924.949356293148
 30
0.0
 10
1130.148753376654
 20
-1926.058316718643
 30
0.0
 10
1130.889135098962
 20
-1924.848666758177
 30
0.0
 10
1130.889135098962
 20
-1924.848666758177
 30
0.0
 10
1130.889135098962
 20
-1924.848666758177
 30
0.0
 10
1130.889135098962
 20
-1924.848666758177
 30
0.0
  0
HATCH
  5
8E
330
70
100
AcDbEntity
  8
2023-011
 62
   250
420
  2301728
440
 33554687
100
AcDbHatch
 10
0.0
 20
0.0
 30
0.0
210
0.0
220
0.0
230
1.0
  2
SOLID
 70
     1
 71
     1
 91
        1
 92
        1
 93
        1
 72
     4
 94
        3
 73
     0
 74
     0
 95
       44
 96
       40
 40
0.0
 40
0.0
 40
0.0
 40
0.0
 40
1.0
 40
1.0
 40
1.0
 40
2.0
 40
2.0
 40
2.0
 40
3.0
 40
3.0
 40
3.0
 40
4.0
 40
4.0
 40
4.0
 40
5.0
 40
5.0
 40
5.0
 40
6.0
 40
6.0
 40
6.0
 40
7.0
 40
7.0
 40
7.0
 40
8.0
 40
8.0
 40
8.0
 40
9.0
 40
9.0
 40
9.0
 40
10.0
 40
10.0
 40
10.0
 40
11.0
 40
11.0
 40
11.0
 40
12.0
 40
12.0
 40
12.0
 40
13.0
 40
13.0
 40
13.0
 40
13.0
 10
1130.889135098962
 20
-1924.848666758177
 10
1134.210295200765
 20
-1919.422491226295
 10
1138.074977988893
 20
-1914.353519458825
 10
1142.430575635208
 20
-1909.716429270668
 10
1141.816380037929
 20
-1909.554273800627
 10
1141.202184440654
 20
-1909.392118330585
 10
1140.587988843378
 20
-1909.229962860547
 10
1143.416899676022
 20
-1916.149995971376
 10
1145.498401926015
 20
-1923.343326229175
 10
1147.2899809982
 20
-1930.593389129538
 10
1149.081887474169
 20
-1937.844776949385
 10
1150.595200272096
 20
-1945.161021732487
 10
1152.328317893122
 20
-1952.42623149759
 10
1153.307906110826
 20
-1956.532654396251
 10
1154.359705482111
 20
-1960.622638560184
 10
1155.566419374023
 20
-1964.668680797368
 10
1155.970982335775
 20
-1966.025157126859
 10
1158.099599956981
 20
-1965.44745464762
 10
1157.692520714831
 20
-1964.08254137476
 10
1155.549868815625
 20
-1956.898352859258
 10
1153.902369691881
 20
-1949.581468727631
 10
1152.260812826783
 20
-1942.270341179227
 10
1150.627457381222
 20
-1934.995740921213
 10
1148.995386704021
 20
-1927.712395672532
 10
1146.868440748759
 20
-1920.56257456265
 10
1145.668249057417
 20
-1916.528078119799
 10
1144.307188969653
 20
-1912.540834335926
 10
1142.714090184185
 20
-1908.643823437936
 10
1142.419116386723
 20
-1907.922263598823
 10
1141.495480474252
 20
-1907.493053701605
 10
1140.871503392355
 20
-1908.157357027815
 10
1136.391990487389
 20
-1912.926370840864
 10
1132.400981476228
 20
-1918.155228294967
 10
1128.985302165173
 20
-1923.735831136835
 10
1128.242548579706
 20
-1924.949356293148
 10
1130.148753376654
 20
-1926.058316718643
 10
1130.889135098962
 20
-1924.848666758177
 10
1130.889135098962
 20
-1924.848666758177
 10
1130.889135098962
 20
-1924.848666758177
 10
1130.889135098962
 20
-1924.848666758177
 97
        0
 97
        1
330
8D
 75
     2
 76
     1
 98
        1
 10
0.0
 20
0.0
450
        0
451
        0
460
0.0
461
0.0
452
        0
462
0.0
453
        0
470

  0
SPLINE
  5
8F
330
70
100
AcDbEntity
  8
2023-011
100
AcDbSpline
210
0.0
220
0.0
230
1.0
 70
     9
 71
     3
 72
   155
 73
   151
 74
     0
 42
0.0000000001
 43
0.0000000001
 40
0.0
 40
0.0
 40
0.0
 40
0.0
 40
1.0
 40
1.0
 40
1.0
 40
2.0
 40
2.0
 40
2.0
 40
3.0
 40
3.0
 40
3.0
 40
4.0
 40
4.0
 40
4.0
 40
5.0
 40
5.0
 40
5.0
 40
6.0
 40
6.0
 40
6.0
 40
7.0
 40
7.0
 40
7.0
 40
8.0
 40
8.0
 40
8.0
 40
9.0
 40
9.0
 40
9.0
 40
10.0
 40
10.0
 40
10.0
 40
11.0
 40
11.0
 40
11.0
 40
12.0
 40
12.0
 40
12.0
 40
13.0
 40
13.0
 40
13.0
 40
14.0
 40
14.0
 40
14.0
 40
15.0
 40
15.0
 40
15.0
 40
16.0
 40
16.0
 40
16.0
 40
17.0
 40
17.0
 40
17.0
 40
18.0
 40
18.0
 40
18.0
 40
19.0
 40
19.0
 40
19.0
 40
20.0
 40
20.0
 40
20.0
 40
21.0
 40
21.0
 40
21.0
 40
22.0
 40
22.0
 40
22.0
 40
23.0
 40
23.0
 40
23.0
 40
24.0
 40
24.0
 40
24.0
 40
25.0
 40
25.0
 40
25.0
 40
26.0
 40
26.0
 40
26.0
 40
27.0
 40
27.0
 40
27.0
 40
28.0
 40
28.0
 40
28.0
 40
29.0
 40
29.0
 40
29.0
 40
30.0
 40
30.0
 40
30.0
 40
31.0
 40
31.0
 40
31.0
 40
32.0
 40
32.0
 40
32.0
 40
33.0
 40
33.0
 40
33.0
 40
34.0
 40
34.0
 40
34.0
 40
35.0
 40
35.0
 40
35.0
 40
36.0
 40
36.0
 40
36.0
 40
37.0
 40
37.0
 40
37.0
 40
38.0
 40
38.0
 40
38.0
 40
39.0
 40
39.0
 40
39.0
 40
40.0
 40
40.0
 40
40.0
 40
41.0
 40
41.0
 40
41.0
 40
42.0
 40
42.0
 40
42.0
 40
43.0
 40
43.0
 40
43.0
 40
44.0
 40
44.0
 40
44.0
 40
45.0
 40
45.0
 40
45.0
 40
46.0
 40
46.0
 40
46.0
 40
47.0
 40
47.0
 40
47.0
 40
48.0
 40
48.0
 40
48.0
 40
49.0
 40
49.0
 40
49.0
 40
50.0
 40
50.0
 40
50.0
 40
50.0
 10
1124.6059457666
 20
-1946.519221252027
 30
0.0
 10
1124.735894423048
 20
-1946.472105131983
 30
0.0
 10
1124.867351341521
 20
-1946.430197366953
 30
0.0
 10
1125.001491180466
 20
-1946.396601035466
 30
0.0
 10
1125.070973882581
 20
-1946.379198570165
 30
0.0
 10
1125.141019012528
 20
-1946.363701643966
 30
0.0
 10
1125.211399441984
 20
-1946.350378810752
 30
0.0
 10
1125.246619514477
 20
-1946.343711742145
 30
0.0
 10
1125.28279564521
 20
-1946.339674338888
 30
0.0
 10
1125.317782067535
 20
-1946.332070512831
 30
0.0
 10
1125.45198122118
 20
-1946.302904140466
 30
0.0
 10
1125.036386203447
 20
-1946.347586384115
 30
0.0
 10
1125.273329490525
 20
-1946.341727926747
 30
0.0
 10
1125.367249400158
 20
-1946.339405743269
 30
0.0
 10
1125.608435656182
 20
-1946.38019227382
 30
0.0
 10
1125.686668282474
 20
-1946.342930209566
 30
0.0
 10
1125.678824149948
 20
-1946.346666356285
 30
0.0
 10
1125.452595741569
 20
-1946.292648080475
 30
0.0
 10
1125.554987961133
 20
-1946.326699983335
 30
0.0
 10
1125.584241653748
 20
-1946.336428690295
 30
0.0
 10
1125.617738023437
 20
-1946.339294542795
 30
0.0
 10
1125.647742400242
 20
-1946.347141098474
 30
0.0
 10
1125.676506469558
 20
-1946.354663296746
 30
0.0
 10
1125.707115599302
 20
-1946.368941935685
 30
0.0
 10
1125.736216675896
 20
-1946.373762601627
 30
0.0
 10
1125.860534222649
 20
-1946.394356113411
 30
0.0
 10
1125.528874538143
 20
-1946.276948346468
 30
0.0
 10
1125.636833521951
 20
-1946.332902845462
 30
0.0
 10
1125.661875450179
 20
-1946.345881927874
 30
0.0
 10
1125.688853382719
 20
-1946.360059937837
 30
0.0
 10
1125.711499666866
 20
-1946.376983537293
 30
0.0
 10
1125.722921869547
 20
-1946.385519365149
 30
0.0
 10
1125.520207173533
 20
-1946.211663462386
 30
0.0
 10
1125.599067415068
 20
-1946.293655978854
 30
0.0
 10
1125.672853723139
 20
-1946.370373028694
 30
0.0
 10
1125.519338729327
 20
-1946.172941825262
 30
0.0
 10
1125.520092275057
 20
-1946.178059241329
 30
0.0
 10
1125.523181954745
 20
-1946.199041612901
 30
0.0
 10
1125.55610922309
 20
-1946.233061473806
 30
0.0
 10
1125.565956997475
 20
-1946.25292124349
 30
0.0
 10
1125.618119210151
 20
-1946.358115522855
 30
0.0
 10
1125.510089658296
 20
-1946.116398829685
 30
0.0
 10
1125.515029111074
 20
-1946.130157348439
 30
0.0
 10
1125.535456640318
 20
-1946.187056878993
 30
0.0
 10
1125.507772921668
 20
-1946.217748838902
 30
0.0
 10
1125.524238893476
 20
-1946.140782209108
 30
0.0
 10
1125.527890974267
 20
-1946.123711346035
 30
0.0
 10
1125.506971612636
 20
-1945.991522291535
 30
0.0
 10
1125.537576827653
 20
-1945.982856056909
 30
0.0
 10
1125.528525819627
 20
-1945.985418958663
 30
0.0
 10
1125.491718669738
 20
-1946.149025671833
 30
0.0
 10
1125.486356325138
 20
-1946.166949703771
 30
0.0
 10
1125.539877124311
 20
-1945.988052488987
 30
0.0
 10
1125.502446908202
 20
-1946.126745812576
 30
0.0
 10
1125.474165012374
 20
-1946.172497357717
 30
0.0
 10
1125.447739717419
 20
-1946.215245484728
 30
0.0
 10
1125.424175952027
 20
-1946.259848459779
 30
0.0
 10
1125.398022077913
 20
-1946.302807613351
 30
0.0
 10
1125.345952764216
 20
-1946.388334278887
 30
0.0
 10
1125.289990035625
 20
-1946.47128837843
 30
0.0
 10
1125.233849582385
 20
-1946.554170660913
 30
0.0
 10
1125.10606016516
 20
-1946.742831029061
 30
0.0
 10
1124.978799865155
 20
-1946.931656955413
 30
0.0
 10
1124.856452615127
 20
-1947.1239230264
 30
0.0
 10
1124.374151791314
 20
-1947.881848393789
 30
0.0
 10
1123.94745404707
 20
-1948.675141404195
 30
0.0
 10
1123.580891467398
 20
-1949.495316969158
 30
0.0
 10
1123.301780910737
 20
-1950.119820590607
 30
0.0
 10
1123.087399101948
 20
-1950.761791385309
 30
0.0
 10
1123.43743993932
 20
-1951.414278855392
 30
0.0
 10
1123.68576992354
 20
-1951.877173997468
 30
0.0
 10
1124.179023901915
 20
-1952.177534581812
 30
0.0
 10
1124.679330507805
 20
-1952.297038099284
 30
0.0
 10
1125.775242608202
 20
-1952.558808280398
 30
0.0
 10
1127.000655655527
 20
-1952.452201696454
 30
0.0
 10
1128.063731560139
 20
-1952.105873484325
 30
0.0
 10
1128.611102985623
 20
-1951.92755115914
 30
0.0
 10
1129.022956749886
 20
-1951.334537388199
 30
0.0
 10
1128.833712519241
 20
-1950.749753102616
 30
0.0
 10
1128.656726151301
 20
-1950.202846883169
 30
0.0
 10
1128.064734314973
 20
-1949.788493327302
 30
0.0
 10
1127.477592137532
 20
-1949.979772143515
 30
0.0
 10
1127.2728770793
 20
-1950.046464088847
 30
0.0
 10
1127.066160140717
 20
-1950.104896686488
 30
0.0
 10
1126.855380864371
 20
-1950.149306524339
 30
0.0
 10
1126.750208450712
 20
-1950.171465675454
 30
0.0
 10
1126.644246570782
 20
-1950.190850994339
 30
0.0
 10
1126.537925559543
 20
-1950.206640130905
 30
0.0
 10
1126.56172446074
 20
-1950.203105889679
 30
0.0
 10
1126.693481491706
 20
-1950.194683031319
 30
0.0
 10
1126.564243936266
 20
-1950.200723467444
 30
0.0
 10
1126.474958443769
 20
-1950.204896583477
 30
0.0
 10
1126.385593541047
 20
-1950.217055927032
 30
0.0
 10
1126.296231254285
 20
-1950.221864835865
 30
0.0
 10
1126.081519905968
 20
-1950.233419232436
 30
0.0
 10
1125.865930725945
 20
-1950.232615112847
 30
0.0
 10
1125.651318767583
 20
-1950.219310525615
 30
0.0
 10
1125.544275152823
 20
-1950.212674496937
 30
0.0
 10
1125.436350693358
 20
-1950.204701909533
 30
0.0
 10
1125.330076380982
 20
-1950.189973910422
 30
0.0
 10
1125.499441089619
 20
-1950.213445276386
 30
0.0
 10
1125.287602986386
 20
-1950.173184237884
 30
0.0
 10
1125.229131891147
 20
-1950.161571641569
 30
0.0
 10
1125.220673774977
 20
-1950.159891825443
 30
0.0
 10
1125.121100129781
 20
-1950.135697650335
 30
0.0
 10
1125.121036935865
 20
-1950.130065532441
 30
0.0
 10
1125.12089179274
 20
-1950.117129742982
 30
0.0
 10
1125.319894411124
 20
-1950.235946360759
 30
0.0
 10
1125.215099664975
 20
-1950.168437347352
 30
0.0
 10
1125.112843613438
 20
-1950.102563766783
 30
0.0
 10
1125.293286414341
 20
-1950.242414557612
 30
0.0
 10
1125.292359645923
 20
-1950.241406268192
 30
0.0
 10
1125.340971262729
 20
-1950.294293891624
 30
0.0
 10
1125.377041005739
 20
-1950.363458764732
 30
0.0
 10
1125.401137855843
 20
-1950.430086657621
 30
0.0
 10
1125.415871948881
 20
-1950.470826487449
 30
0.0
 10
1125.424594414937
 20
-1950.783272663839
 30
0.0
 10
1125.426701964284
 20
-1950.78404997009
 30
0.0
 10
1125.420969854783
 20
-1950.781935853736
 30
0.0
 10
1125.470494730299
 20
-1950.644865064546
 30
0.0
 10
1125.473197916807
 20
-1950.63484645814
 30
0.0
 10
1125.505193451787
 20
-1950.516263936914
 30
0.0
 10
1125.473576340291
 20
-1950.632740902153
 30
0.0
 10
1125.46316180598
 20
-1950.656398292595
 30
0.0
 10
1125.491547910162
 20
-1950.591917142522
 30
0.0
 10
1125.520665847516
 20
-1950.527735164815
 30
0.0
 10
1125.549966844466
 20
-1950.4636653729
 30
0.0
 10
1125.740439664665
 20
-1950.047175996247
 30
0.0
 10
1125.94650617272
 20
-1949.637776021353
 30
0.0
 10
1126.167509600422
 20
-1949.236652074215
 30
0.0
 10
1126.380019476244
 20
-1948.850944028493
 30
0.0
 10
1126.606421628965
 20
-1948.472894328369
 30
0.0
 10
1126.846036284891
 20
-1948.103417329853
 30
0.0
 10
1127.123564349776
 20
-1947.675479247256
 30
0.0
 10
1127.413984600675
 20
-1947.280920597942
 30
0.0
 10
1127.594542380268
 20
-1946.798436369785
 30
0.0
 10
1127.992205466989
 20
-1945.735806069977
 30
0.0
 10
1127.418475139371
 20
-1944.674525856525
 30
0.0
 10
1126.406993980973
 20
-1944.279440948205
 30
0.0
 10
1125.668600373167
 20
-1943.991024136463
 30
0.0
 10
1124.74575137101
 20
-1944.129910471632
 30
0.0
 10
1124.019806343993
 20
-1944.39311991122
 30
0.0
 10
1123.479111891812
 20
-1944.589162143687
 30
0.0
 10
1123.056398605982
 20
-1945.151531499734
 30
0.0
 10
1123.249825384891
 20
-1945.749240292929
 30
0.0
 10
1123.42185382554
 20
-1946.280826003216
 30
0.0
 10
1124.025498841038
 20
-1946.72967673323
 30
0.0
 10
1124.6059457666
 20
-1946.519221252027
 30
0.0
 10
1124.6059457666
 20
-1946.519221252027
 30
0.0
 10
1124.6059457666
 20
-1946.519221252027
 30
0.0
 10
1124.6059457666
 20
-1946.519221252027
 30
0.0
  0
HATCH
  5
90
330
70
100
AcDbEntity
  8
2023-011
 62
   250
420
  2301728
440
 33554687
100
AcDbHatch
 10
0.0
 20
0.0
 30
0.0
210
0.0
220
0.0
230
1.0
  2
SOLID
 70
     1
 71
     1
 91
        1
 92
        1
 93
        1
 72
     4
 94
        3
 73
     0
 74
     0
 95
      155
 96
      151
 40
0.0
 40
0.0
 40
0.0
 40
0.0
 40
1.0
 40
1.0
 40
1.0
 40
2.0
 40
2.0
 40
2.0
 40
3.0
 40
3.0
 40
3.0
 40
4.0
 40
4.0
 40
4.0
 40
5.0
 40
5.0
 40
5.0
 40
6.0
 40
6.0
 40
6.0
 40
7.0
 40
7.0
 40
7.0
 40
8.0
 40
8.0
 40
8.0
 40
9.0
 40
9.0
 40
9.0
 40
10.0
 40
10.0
 40
10.0
 40
11.0
 40
11.0
 40
11.0
 40
12.0
 40
12.0
 40
12.0
 40
13.0
 40
13.0
 40
13.0
 40
14.0
 40
14.0
 40
14.0
 40
15.0
 40
15.0
 40
15.0
 40
16.0
 40
16.0
 40
16.0
 40
17.0
 40
17.0
 40
17.0
 40
18.0
 40
18.0
 40
18.0
 40
19.0
 40
19.0
 40
19.0
 40
20.0
 40
20.0
 40
20.0
 40
21.0
 40
21.0
 40
21.0
 40
22.0
 40
22.0
 40
22.0
 40
23.0
 40
23.0
 40
23.0
 40
24.0
 40
24.0
 40
24.0
 40
25.0
 40
25.0
 40
25.0
 40
26.0
 40
26.0
 40
26.0
 40
27.0
 40
27.0
 40
27.0
 40
28.0
 40
28.0
 40
28.0
 40
29.0
 40
29.0
 40
29.0
 40
30.0
 40
30.0
 40
30.0
 40
31.0
 40
31.0
 40
31.0
 40
32.0
 40
32.0
 40
32.0
 40
33.0
 40
33.0
 40
33.0
 40
34.0
 40
34.0
 40
34.0
 40
35.0
 40
35.0
 40
35.0
 40
36.0
 40
36.0
 40
36.0
 40
37.0
 40
37.0
 40
37.0
 40
38.0
 40
38.0
 40
38.0
 40
39.0
 40
39.0
 40
39.0
 40
40.0
 40
40.0
 40
40.0
 40
41.0
 40
41.0
 40
41.0
 40
42.0
 40
42.0
 40
42.0
 40
43.0
 40
43.0
 40
43.0
 40
44.0
 40
44.0
 40
44.0
 40
45.0
 40
45.0
 40
45.0
 40
46.0
 40
46.0
 40
46.0
 40
47.0
 40
47.0
 40
47.0
 40
48.0
 40
48.0
 40
48.0
 40
49.0
 40
49.0
 40
49.0
 40
50.0
 40
50.0
 40
50.0
 40
50.0
 10
1124.6059457666
 20
-1946.519221252027
 10
1124.735894423048
 20
-1946.472105131983
 10
1124.867351341521
 20
-1946.430197366953
 10
1125.001491180466
 20
-1946.396601035466
 10
1125.070973882581
 20
-1946.379198570165
 10
1125.141019012528
 20
-1946.363701643966
 10
1125.211399441984
 20
-1946.350378810752
 10
1125.246619514477
 20
-1946.343711742145
 10
1125.28279564521
 20
-1946.339674338888
 10
1125.317782067535
 20
-1946.332070512831
 10
1125.45198122118
 20
-1946.302904140466
 10
1125.036386203447
 20
-1946.347586384115
 10
1125.273329490525
 20
-1946.341727926747
 10
1125.367249400158
 20
-1946.339405743269
 10
1125.608435656182
 20
-1946.38019227382
 10
1125.686668282474
 20
-1946.342930209566
 10
1125.678824149948
 20
-1946.346666356285
 10
1125.452595741569
 20
-1946.292648080475
 10
1125.554987961133
 20
-1946.326699983335
 10
1125.584241653748
 20
-1946.336428690295
 10
1125.617738023437
 20
-1946.339294542795
 10
1125.647742400242
 20
-1946.347141098474
 10
1125.676506469558
 20
-1946.354663296746
 10
1125.707115599302
 20
-1946.368941935685
 10
1125.736216675896
 20
-1946.373762601627
 10
1125.860534222649
 20
-1946.394356113411
 10
1125.528874538143
 20
-1946.276948346468
 10
1125.636833521951
 20
-1946.332902845462
 10
1125.661875450179
 20
-1946.345881927874
 10
1125.688853382719
 20
-1946.360059937837
 10
1125.711499666866
 20
-1946.376983537293
 10
1125.722921869547
 20
-1946.385519365149
 10
1125.520207173533
 20
-1946.211663462386
 10
1125.599067415068
 20
-1946.293655978854
 10
1125.672853723139
 20
-1946.370373028694
 10
1125.519338729327
 20
-1946.172941825262
 10
1125.520092275057
 20
-1946.178059241329
 10
1125.523181954745
 20
-1946.199041612901
 10
1125.55610922309
 20
-1946.233061473806
 10
1125.565956997475
 20
-1946.25292124349
 10
1125.618119210151
 20
-1946.358115522855
 10
1125.510089658296
 20
-1946.116398829685
 10
1125.515029111074
 20
-1946.130157348439
 10
1125.535456640318
 20
-1946.187056878993
 10
1125.507772921668
 20
-1946.217748838902
 10
1125.524238893476
 20
-1946.140782209108
 10
1125.527890974267
 20
-1946.123711346035
 10
1125.506971612636
 20
-1945.991522291535
 10
1125.537576827653
 20
-1945.982856056909
 10
1125.528525819627
 20
-1945.985418958663
 10
1125.491718669738
 20
-1946.149025671833
 10
1125.486356325138
 20
-1946.166949703771
 10
1125.539877124311
 20
-1945.988052488987
 10
1125.502446908202
 20
-1946.126745812576
 10
1125.474165012374
 20
-1946.172497357717
 10
1125.447739717419
 20
-1946.215245484728
 10
1125.424175952027
 20
-1946.259848459779
 10
1125.398022077913
 20
-1946.302807613351
 10
1125.345952764216
 20
-1946.388334278887
 10
1125.289990035625
 20
-1946.47128837843
 10
1125.233849582385
 20
-1946.554170660913
 10
1125.10606016516
 20
-1946.742831029061
 10
1124.978799865155
 20
-1946.931656955413
 10
1124.856452615127
 20
-1947.1239230264
 10
1124.374151791314
 20
-1947.881848393789
 10
1123.94745404707
 20
-1948.675141404195
 10
1123.580891467398
 20
-1949.495316969158
 10
1123.301780910737
 20
-1950.119820590607
 10
1123.087399101948
 20
-1950.761791385309
 10
1123.43743993932
 20
-1951.414278855392
 10
1123.68576992354
 20
-1951.877173997468
 10
1124.179023901915
 20
-1952.177534581812
 10
1124.679330507805
 20
-1952.297038099284
 10
1125.775242608202
 20
-1952.558808280398
 10
1127.000655655527
 20
-1952.452201696454
 10
1128.063731560139
 20
-1952.105873484325
 10
1128.611102985623
 20
-1951.92755115914
 10
1129.022956749886
 20
-1951.334537388199
 10
1128.833712519241
 20
-1950.749753102616
 10
1128.656726151301
 20
-1950.202846883169
 10
1128.064734314973
 20
-1949.788493327302
 10
1127.477592137532
 20
-1949.979772143515
 10
1127.2728770793
 20
-1950.046464088847
 10
1127.066160140717
 20
-1950.104896686488
 10
1126.855380864371
 20
-1950.149306524339
 10
1126.750208450712
 20
-1950.171465675454
 10
1126.644246570782
 20
-1950.190850994339
 10
1126.537925559543
 20
-1950.206640130905
 10
1126.56172446074
 20
-1950.203105889679
 10
1126.693481491706
 20
-1950.194683031319
 10
1126.564243936266
 20
-1950.200723467444
 10
1126.474958443769
 20
-1950.204896583477
 10
1126.385593541047
 20
-1950.217055927032
 10
1126.296231254285
 20
-1950.221864835865
 10
1126.081519905968
 20
-1950.233419232436
 10
1125.865930725945
 20
-1950.232615112847
 10
1125.651318767583
 20
-1950.219310525615
 10
1125.544275152823
 20
-1950.212674496937
 10
1125.436350693358
 20
-1950.204701909533
 10
1125.330076380982
 20
-1950.189973910422
 10
1125.499441089619
 20
-1950.213445276386
 10
1125.287602986386
 20
-1950.173184237884
 10
1125.229131891147
 20
-1950.161571641569
 10
1125.220673774977
 20
-1950.159891825443
 10
1125.121100129781
 20
-1950.135697650335
 10
1125.121036935865
 20
-1950.130065532441
 10
1125.12089179274
 20
-1950.117129742982
 10
1125.319894411124
 20
-1950.235946360759
 10
1125.215099664975
 20
-1950.168437347352
 10
1125.112843613438
 20
-1950.102563766783
 10
1125.293286414341
 20
-1950.242414557612
 10
1125.292359645923
 20
-1950.241406268192
 10
1125.340971262729
 20
-1950.294293891624
 10
1125.377041005739
 20
-1950.363458764732
 10
1125.401137855843
 20
-1950.430086657621
 10
1125.415871948881
 20
-1950.470826487449
 10
1125.424594414937
 20
-1950.783272663839
 10
1125.426701964284
 20
-1950.78404997009
 10
1125.420969854783
 20
-1950.781935853736
 10
1125.470494730299
 20
-1950.644865064546
 10
1125.473197916807
 20
-1950.63484645814
 10
1125.505193451787
 20
-1950.516263936914
 10
1125.473576340291
 20
-1950.632740902153
 10
1125.46316180598
 20
-1950.656398292595
 10
1125.491547910162
 20
-1950.591917142522
 10
1125.520665847516
 20
-1950.527735164815
 10
1125.549966844466
 20
-1950.4636653729
 10
1125.740439664665
 20
-1950.047175996247
 10
1125.94650617272
 20
-1949.637776021353
 10
1126.167509600422
 20
-1949.236652074215
 10
1126.380019476244
 20
-1948.850944028493
 10
1126.606421628965
 20
-1948.472894328369
 10
1126.846036284891
 20
-1948.103417329853
 10
1127.123564349776
 20
-1947.675479247256
 10
1127.413984600675
 20
-1947.280920597942
 10
1127.594542380268
 20
-1946.798436369785
 10
1127.992205466989
 20
-1945.735806069977
 10
1127.418475139371
 20
-1944.674525856525
 10
1126.406993980973
 20
-1944.279440948205
 10
1125.668600373167
 20
-1943.991024136463
 10
1124.74575137101
 20
-1944.129910471632
 10
1124.019806343993
 20
-1944.39311991122
 10
1123.479111891812
 20
-1944.589162143687
 10
1123.056398605982
 20
-1945.151531499734
 10
1123.249825384891
 20
-1945.749240292929
 10
1123.42185382554
 20
-1946.280826003216
 10
1124.025498841038
 20
-1946.72967673323
 10
1124.6059457666
 20
-1946.519221252027
 10
1124.6059457666
 20
-1946.519221252027
 10
1124.6059457666
 20
-1946.519221252027
 10
1124.6059457666
 20
-1946.519221252027
 97
        0
 97
        1
330
8F
 75
     2
 76
     1
 98
        1
 10
0.0
 20
0.0
450
        0
451
        0
460
0.0
461
0.0
452
        0
462
0.0
453
        0
470

  0
SPLINE
  5
91
330
70
100
AcDbEntity
  8
2023-011
100
AcDbSpline
210
0.0
220
0.0
230
1.0
 70
     9
 71
     3
 72
    89
 73
    85
 74
     0
 42
0.0000000001
 43
0.0000000001
 40
0.0
 40
0.0
 40
0.0
 40
0.0
 40
1.0
 40
1.0
 40
1.0
 40
2.0
 40
2.0
 40
2.0
 40
3.0
 40
3.0
 40
3.0
 40
4.0
 40
4.0
 40
4.0
 40
5.0
 40
5.0
 40
5.0
 40
6.0
 40
6.0
 40
6.0
 40
7.0
 40
7.0
 40
7.0
 40
8.0
 40
8.0
 40
8.0
 40
9.0
 40
9.0
 40
9.0
 40
10.0
 40
10.0
 40
10.0
 40
11.0
 40
11.0
 40
11.0
 40
12.0
 40
12.0
 40
12.0
 40
13.0
 40
13.0
 40
13.0
 40
14.0
 40
14.0
 40
14.0
 40
15.0
 40
15.0
 40
15.0
 40
16.0
 40
16.0
 40
16.0
 40
17.0
 40
17.0
 40
17.0
 40
18.0
 40
18.0
 40
18.0
 40
19.0
 40
19.0
 40
19.0
 40
20.0
 40
20.0
 40
20.0
 40
21.0
 40
21.0
 40
21.0
 40
22.0
 40
22.0
 40
22.0
 40
23.0
 40
23.0
 40
23.0
 40
24.0
 40
24.0
 40
24.0
 40
25.0
 40
25.0
 40
25.0
 40
26.0
 40
26.0
 40
26.0
 40
27.0
 40
27.0
 40
27.0
 40
28.0
 40
28.0
 40
28.0
 40
28.0
 10
1136.186416631056
 20
-1950.279782722138
 30
0.0
 10
1137.418837437075
 20
-1949.999920318143
 30
0.0
 10
1138.664508816913
 20
-1949.926433244748
 30
0.0
 10
1139.924199012079
 20
-1950.023347784318
 30
0.0
 10
1139.606893523115
 20
-1949.470398329001
 30
0.0
 10
1139.28958803415
 20
-1948.917448873686
 30
0.0
 10
1138.972282545186
 20
-1948.36449941837
 30
0.0
 10
1138.224902636251
 20
-1949.397400532515
 30
0.0
 10
1137.317586069789
 20
-1950.308458183008
 30
0.0
 10
1136.324146598862
 20
-1951.105017204824
 30
0.0
 10
1135.948968386627
 20
-1951.405842366789
 30
0.0
 10
1135.924693596558
 20
-1952.052751149804
 30
0.0
 10
1136.151766253392
 20
-1952.440971136921
 30
0.0
 10
1136.416452007838
 20
-1952.893497220918
 30
0.0
 10
1136.907920953439
 20
-1953.02562328098
 30
0.0
 10
1137.39675243159
 20
-1952.947603996654
 30
0.0
 10
1137.393283247652
 20
-1952.948157691045
 30
0.0
 10
1137.681083228257
 20
-1952.904838219237
 30
0.0
 10
1137.597562613732
 20
-1952.915856796338
 30
0.0
 10
1137.500475785998
 20
-1952.928665115616
 30
0.0
 10
1137.780356644469
 20
-1952.895854380653
 30
0.0
 10
1137.807104218243
 20
-1952.893254438711
 30
0.0
 10
1138.00748728957
 20
-1952.873776621528
 30
0.0
 10
1138.208739643149
 20
-1952.860637238847
 30
0.0
 10
1138.410085387264
 20
-1952.857640624685
 30
0.0
 10
1138.86843882189
 20
-1952.85081898363
 30
0.0
 10
1138.943313569071
 20
-1952.862972792755
 30
0.0
 10
1139.327584053682
 20
-1952.957651723127
 30
0.0
 10
1139.360056526804
 20
-1952.965652491191
 30
0.0
 10
1139.582629181551
 20
-1953.050334031918
 30
0.0
 10
1139.423482090613
 20
-1952.980061098793
 30
0.0
 10
1139.48875136369
 20
-1953.0088813759
 30
0.0
 10
1139.551739327314
 20
-1953.044848462016
 30
0.0
 10
1139.613294729245
 20
-1953.080771802897
 30
0.0
 10
1139.861692068501
 20
-1953.225734909496
 30
0.0
 10
1139.520437018052
 20
-1952.968698954427
 30
0.0
 10
1139.729547478511
 20
-1953.168166895695
 30
0.0
 10
1139.766668007045
 20
-1953.203575719286
 30
0.0
 10
1139.840090451184
 20
-1953.287483534237
 30
0.0
 10
1139.770795394893
 20
-1953.195690136326
 30
0.0
 10
1139.992722108097
 20
-1953.489670806545
 30
0.0
 10
1139.999625693796
 20
-1953.782734147037
 30
0.0
 10
1139.942629658429
 20
-1954.174773318745
 30
0.0
 10
1139.711232285536
 20
-1955.766407435385
 30
0.0
 10
1138.513239707402
 20
-1957.338480493832
 30
0.0
 10
1137.256301254918
 20
-1958.362340516764
 30
0.0
 10
1136.794333223874
 20
-1958.738644223544
 30
0.0
 10
1136.865467411484
 20
-1959.530578916183
 30
0.0
 10
1137.256301254918
 20
-1959.921412759616
 30
0.0
 10
1137.713062480983
 20
-1960.378173985682
 30
0.0
 10
1138.352252867541
 20
-1960.298655335138
 30
0.0
 10
1138.815373497771
 20
-1959.921412759616
 30
0.0
 10
1139.745669843053
 20
-1959.163624472106
 30
0.0
 10
1140.537904319893
 20
-1958.217619718618
 30
0.0
 10
1141.123438585003
 20
-1957.169618919662
 30
0.0
 10
1141.704184313953
 20
-1956.130188737353
 30
0.0
 10
1142.245410268702
 20
-1954.842666305408
 30
0.0
 10
1142.16101329013
 20
-1953.626275073368
 30
0.0
 10
1142.071050002334
 20
-1952.329658105167
 30
0.0
 10
1141.296893039662
 20
-1951.310897035589
 30
0.0
 10
1140.071661472744
 20
-1950.882226068629
 30
0.0
 10
1139.02923973742
 20
-1950.517514657887
 30
0.0
 10
1137.875510310765
 20
-1950.651541167937
 30
0.0
 10
1136.810613008983
 20
-1950.821502655843
 30
0.0
 10
1137.168148286562
 20
-1951.435698253123
 30
0.0
 10
1137.525683564137
 20
-1952.049893850398
 30
0.0
 10
1137.883218841715
 20
-1952.664089447673
 30
0.0
 10
1139.03154809741
 20
-1951.743336794482
 30
0.0
 10
1140.014128600683
 20
-1950.668626371362
 30
0.0
 10
1140.876115478976
 20
-1949.477335039709
 30
0.0
 10
1141.408292508728
 20
-1948.741850662372
 30
0.0
 10
1140.673042043106
 20
-1947.876099075476
 30
0.0
 10
1139.924199012079
 20
-1947.818486673758
 30
0.0
 10
1138.473645684749
 20
-1947.706888037537
 30
0.0
 10
1137.018398112844
 20
-1947.831649552979
 30
0.0
 10
1135.600277208449
 20
-1948.153681381328
 30
0.0
 10
1135.019492374174
 20
-1948.285568021935
 30
0.0
 10
1134.677686790907
 20
-1948.954484311085
 30
0.0
 10
1134.830296249347
 20
-1949.509801763036
 30
0.0
 10
1134.994316708928
 20
-1950.106641727031
 30
0.0
 10
1135.603886887937
 20
-1950.412065602714
 30
0.0
 10
1136.186416631056
 20
-1950.279782722138
 30
0.0
 10
1136.186416631056
 20
-1950.279782722138
 30
0.0
 10
1136.186416631056
 20
-1950.279782722138
 30
0.0
 10
1136.186416631056
 20
-1950.279782722138
 30
0.0
  0
HATCH
  5
92
330
70
100
AcDbEntity
  8
2023-011
 62
   250
420
  2301728
440
 33554687
100
AcDbHatch
 10
0.0
 20
0.0
 30
0.0
210
0.0
220
0.0
230
1.0
  2
SOLID
 70
     1
 71
     1
 91
        1
 92
        1
 93
        1
 72
     4
 94
        3
 73
     0
 74
     0
 95
       89
 96
       85
 40
0.0
 40
0.0
 40
0.0
 40
0.0
 40
1.0
 40
1.0
 40
1.0
 40
2.0
 40
2.0
 40
2.0
 40
3.0
 40
3.0
 40
3.0
 40
4.0
 40
4.0
 40
4.0
 40
5.0
 40
5.0
 40
5.0
 40
6.0
 40
6.0
 40
6.0
 40
7.0
 40
7.0
 40
7.0
 40
8.0
 40
8.0
 40
8.0
 40
9.0
 40
9.0
 40
9.0
 40
10.0
 40
10.0
 40
10.0
 40
11.0
 40
11.0
 40
11.0
 40
12.0
 40
12.0
 40
12.0
 40
13.0
 40
13.0
 40
13.0
 40
14.0
 40
14.0
 40
14.0
 40
15.0
 40
15.0
 40
15.0
 40
16.0
 40
16.0
 40
16.0
 40
17.0
 40
17.0
 40
17.0
 40
18.0
 40
18.0
 40
18.0
 40
19.0
 40
19.0
 40
19.0
 40
20.0
 40
20.0
 40
20.0
 40
21.0
 40
21.0
 40
21.0
 40
22.0
 40
22.0
 40
22.0
 40
23.0
 40
23.0
 40
23.0
 40
24.0
 40
24.0
 40
24.0
 40
25.0
 40
25.0
 40
25.0
 40
26.0
 40
26.0
 40
26.0
 40
27.0
 40
27.0
 40
27.0
 40
28.0
 40
28.0
 40
28.0
 40
28.0
 10
1136.186416631056
 20
-1950.279782722138
 10
1137.418837437075
 20
-1949.999920318143
 10
1138.664508816913
 20
-1949.926433244748
 10
1139.924199012079
 20
-1950.023347784318
 10
1139.606893523115
 20
-1949.470398329001
 10
1139.28958803415
 20
-1948.917448873686
 10
1138.972282545186
 20
-1948.36449941837
 10
1138.224902636251
 20
-1949.397400532515
 10
1137.317586069789
 20
-1950.308458183008
 10
1136.324146598862
 20
-1951.105017204824
 10
1135.948968386627
 20
-1951.405842366789
 10
1135.924693596558
 20
-1952.052751149804
 10
1136.151766253392
 20
-1952.440971136921
 10
1136.416452007838
 20
-1952.893497220918
 10
1136.907920953439
 20
-1953.02562328098
 10
1137.39675243159
 20
-1952.947603996654
 10
1137.393283247652
 20
-1952.948157691045
 10
1137.681083228257
 20
-1952.904838219237
 10
1137.597562613732
 20
-1952.915856796338
 10
1137.500475785998
 20
-1952.928665115616
 10
1137.780356644469
 20
-1952.895854380653
 10
1137.807104218243
 20
-1952.893254438711
 10
1138.00748728957
 20
-1952.873776621528
 10
1138.208739643149
 20
-1952.860637238847
 10
1138.410085387264
 20
-1952.857640624685
 10
1138.86843882189
 20
-1952.85081898363
 10
1138.943313569071
 20
-1952.862972792755
 10
1139.327584053682
 20
-1952.957651723127
 10
1139.360056526804
 20
-1952.965652491191
 10
1139.582629181551
 20
-1953.050334031918
 10
1139.423482090613
 20
-1952.980061098793
 10
1139.48875136369
 20
-1953.0088813759
 10
1139.551739327314
 20
-1953.044848462016
 10
1139.613294729245
 20
-1953.080771802897
 10
1139.861692068501
 20
-1953.225734909496
 10
1139.520437018052
 20
-1952.968698954427
 10
1139.729547478511
 20
-1953.168166895695
 10
1139.766668007045
 20
-1953.203575719286
 10
1139.840090451184
 20
-1953.287483534237
 10
1139.770795394893
 20
-1953.195690136326
 10
1139.992722108097
 20
-1953.489670806545
 10
1139.999625693796
 20
-1953.782734147037
 10
1139.942629658429
 20
-1954.174773318745
 10
1139.711232285536
 20
-1955.766407435385
 10
1138.513239707402
 20
-1957.338480493832
 10
1137.256301254918
 20
-1958.362340516764
 10
1136.794333223874
 20
-1958.738644223544
 10
1136.865467411484
 20
-1959.530578916183
 10
1137.256301254918
 20
-1959.921412759616
 10
1137.713062480983
 20
-1960.378173985682
 10
1138.352252867541
 20
-1960.298655335138
 10
1138.815373497771
 20
-1959.921412759616
 10
1139.745669843053
 20
-1959.163624472106
 10
1140.537904319893
 20
-1958.217619718618
 10
1141.123438585003
 20
-1957.169618919662
 10
1141.704184313953
 20
-1956.130188737353
 10
1142.245410268702
 20
-1954.842666305408
 10
1142.16101329013
 20
-1953.626275073368
 10
1142.071050002334
 20
-1952.329658105167
 10
1141.296893039662
 20
-1951.310897035589
 10
1140.071661472744
 20
-1950.882226068629
 10
1139.02923973742
 20
-1950.517514657887
 10
1137.875510310765
 20
-1950.651541167937
 10
1136.810613008983
 20
-1950.821502655843
 10
1137.168148286562
 20
-1951.435698253123
 10
1137.525683564137
 20
-1952.049893850398
 10
1137.883218841715
 20
-1952.664089447673
 10
1139.03154809741
 20
-1951.743336794482
 10
1140.014128600683
 20
-1950.668626371362
 10
1140.876115478976
 20
-1949.477335039709
 10
1141.408292508728
 20
-1948.741850662372
 10
1140.673042043106
 20
-1947.876099075476
 10
1139.924199012079
 20
-1947.818486673758
 10
1138.473645684749
 20
-1947.706888037537
 10
1137.018398112844
 20
-1947.831649552979
 10
1135.600277208449
 20
-1948.153681381328
 10
1135.019492374174
 20
-1948.285568021935
 10
1134.677686790907
 20
-1948.954484311085
 10
1134.830296249347
 20
-1949.509801763036
 10
1134.994316708928
 20
-1950.106641727031
 10
1135.603886887937
 20
-1950.412065602714
 10
1136.186416631056
 20
-1950.279782722138
 10
1136.186416631056
 20
-1950.279782722138
 10
1136.186416631056
 20
-1950.279782722138
 10
1136.186416631056
 20
-1950.279782722138
 97
        0
 97
        1
330
91
 75
     2
 76
     1
 98
        1
 10
0.0
 20
0.0
450
        0
451
        0
460
0.0
461
0.0
452
        0
462
0.0
453
        0
470

  0
SPLINE
  5
93
330
70
100
AcDbEntity
  8
2023-011
100
AcDbSpline
210
0.0
220
0.0
230
1.0
 70
     9
 71
     3
 72
   113
 73
   109
 74
     0
 42
0.0000000001
 43
0.0000000001
 40
0.0
 40
0.0
 40
0.0
 40
0.0
 40
1.0
 40
1.0
 40
1.0
 40
2.0
 40
2.0
 40
2.0
 40
3.0
 40
3.0
 40
3.0
 40
4.0
 40
4.0
 40
4.0
 40
5.0
 40
5.0
 40
5.0
 40
6.0
 40
6.0
 40
6.0
 40
7.0
 40
7.0
 40
7.0
 40
8.0
 40
8.0
 40
8.0
 40
9.0
 40
9.0
 40
9.0
 40
10.0
 40
10.0
 40
10.0
 40
11.0
 40
11.0
 40
11.0
 40
12.0
 40
12.0
 40
12.0
 40
13.0
 40
13.0
 40
13.0
 40
14.0
 40
14.0
 40
14.0
 40
15.0
 40
15.0
 40
15.0
 40
16.0
 40
16.0
 40
16.0
 40
17.0
 40
17.0
 40
17.0
 40
18.0
 40
18.0
 40
18.0
 40
19.0
 40
19.0
 40
19.0
 40
20.0
 40
20.0
 40
20.0
 40
21.0
 40
21.0
 40
21.0
 40
22.0
 40
22.0
 40
22.0
 40
23.0
 40
23.0
 40
23.0
 40
24.0
 40
24.0
 40
24.0
 40
25.0
 40
25.0
 40
25.0
 40
26.0
 40
26.0
 40
26.0
 40
27.0
 40
27.0
 40
27.0
 40
28.0
 40
28.0
 40
28.0
 40
29.0
 40
29.0
 40
29.0
 40
30.0
 40
30.0
 40
30.0
 40
31.0
 40
31.0
 40
31.0
 40
32.0
 40
32.0
 40
32.0
 40
33.0
 40
33.0
 40
33.0
 40
34.0
 40
34.0
 40
34.0
 40
35.0
 40
35.0
 40
35.0
 40
36.0
 40
36.0
 40
36.0
 40
36.0
 10
1004.426718227626
 20
-1897.505883314686
 30
0.0
 10
996.6534631568716
 20
-1834.131973825321
 30
0.0
 10
989.308002817996
 20
-1770.701564769998
 30
0.0
 10
980.9332340755132
 20
-1707.40792600544
 30
0.0
 10
975.5776608889181
 20
-1666.932532677885
 30
0.0
 10
968.4905827114365
 20
-1626.690372314681
 30
0.0
 10
962.5505490757687
 20
-1586.288876285285
 30
0.0
 10
955.8593123695422
 20
-1540.778131396489
 30
0.0
 10
949.7691586981066
 20
-1495.178675298948
 30
0.0
 10
943.0730127308116
 20
-1449.668447174475
 30
0.0
 10
937.1961965972982
 20
-1409.727560411457
 30
0.0
 10
930.8915857319059
 20
-1369.849288258885
 30
0.0
 10
924.6791311707399
 20
-1329.958441507788
 30
0.0
 10
921.6434852839121
 20
-1310.46712478089
 30
0.0
 10
917.9563718408234
 20
-1291.068308867771
 30
0.0
 10
915.3151893870566
 20
-1271.526004727691
 30
0.0
 10
908.4045862258088
 20
-1220.394414299936
 30
0.0
 10
901.5653826684909
 20
-1169.248354471143
 30
0.0
 10
895.353617126422
 20
-1118.028225089416
 30
0.0
 10
890.3801050291411
 20
-1077.018325197325
 30
0.0
 10
886.3538219355296
 20
-1035.892756224318
 30
0.0
 10
881.9364343769571
 20
-994.8154185881017
 30
0.0
 10
878.7239689643469
 20
-964.9430817628894
 30
0.0
 10
875.1517494556912
 20
-935.1018369244297
 30
0.0
 10
872.4912744672071
 20
-905.1798907242257
 30
0.0
 10
869.9984895014694
 20
-877.1451678308459
 30
0.0
 10
869.1269664710864
 20
-848.9611000481763
 30
0.0
 10
866.4196381840028
 20
-820.9515263518387
 30
0.0
 10
861.0463227556586
 20
-765.3581927611363
 30
0.0
 10
855.0444496560306
 20
-709.8242009401655
 30
0.0
 10
849.0372366584004
 20
-654.2943432337807
 30
0.0
 10
841.8678206988213
 20
-588.0219887852862
 30
0.0
 10
834.2363313072848
 20
-521.7994159665572
 30
0.0
 10
827.1512340597052
 20
-455.518104269801
 30
0.0
 10
821.3622678610656
 20
-401.3624090250933
 30
0.0
 10
815.329044392522
 20
-347.2154987738732
 30
0.0
 10
810.7710969381512
 20
-292.9495820054844
 30
0.0
 10
805.3859820577681
 20
-228.8348047320166
 30
0.0
 10
801.2678010420895
 20
-164.60965521194
 30
0.0
 10
796.9970884237995
 20
-100.4056930290978
 30
0.0
 10
795.4372353154637
 20
-76.95533716609102
 30
0.0
 10
794.5254907952922
 20
-53.45741745354136
 30
0.0
 10
793.286376076637
 20
-29.98611110361459
 30
0.0
 10
793.286376076637
 20
-29.98611110361459
 30
0.0
 10
639.9471569580688
 20
-29.98611110361459
 30
0.0
 10
639.9471569580688
 20
-29.98611110361459
 30
0.0
 10
640.4547917778203
 20
-37.10972882508672
 30
0.0
 10
640.9418421520495
 20
-44.23463845736614
 30
0.0
 10
641.4024083547312
 20
-51.36105531891971
 30
0.0
 10
642.887201445181
 20
-74.33411473429192
 30
0.0
 10
643.2365341273853
 20
-97.38552854010675
 30
0.0
 10
644.9415118830354
 20
-120.3388001882855
 30
0.0
 10
649.2548575579574
 20
-178.4065520794221
 30
0.0
 10
654.1067577846089
 20
-236.4341901400017
 30
0.0
 10
658.6290485007073
 20
-294.4866113562286
 30
0.0
 10
661.6548758654022
 20
-333.3301060161141
 30
0.0
 10
663.5998045216
 20
-372.2806785500496
 30
0.0
 10
667.6122641695776
 20
-411.0189686065561
 30
0.0
 10
673.5563888561354
 20
-468.4054313336384
 30
0.0
 10
681.0135564161181
 20
-525.6331182225433
 30
0.0
 10
687.6187518626025
 20
-582.9525738424337
 30
0.0
 10
692.2920238883439
 20
-623.5071613024565
 30
0.0
 10
696.8609956482675
 20
-664.0770794373889
 30
0.0
 10
701.0327478987455
 20
-704.6857548965301
 30
0.0
 10
704.7246844755135
 20
-740.6254216355902
 30
0.0
 10
707.9202689202421
 20
-776.6178844629636
 30
0.0
 10
711.120590371265
 20
-812.6061270483695
 30
0.0
 10
714.3622529681108
 20
-849.0622136006685
 30
0.0
 10
717.2026480683141
 20
-885.554301400792
 30
0.0
 10
720.4834124989176
 20
-922.0067706028316
 30
0.0
 10
722.6707897498879
 20
-946.3108857226238
 30
0.0
 10
725.2323904979454
 20
-970.582358562695
 30
0.0
 10
727.78753169197
 20
-994.8514198359225
 30
0.0
 10
730.9304061757743
 20
-1024.703861234709
 30
0.0
 10
734.2140989375402
 20
-1054.541747105073
 30
0.0
 10
737.4862506294305
 20
-1084.380408121919
 30
0.0
 10
740.7577133022238
 20
-1114.212781839502
 30
0.0
 10
743.7736360174006
 20
-1144.077970091585
 30
0.0
 10
747.4778888105264
 20
-1173.857030956535
 30
0.0
 10
751.8678878599951
 20
-1209.149536508695
 30
0.0
 10
756.5899079868527
 20
-1244.406557577353
 30
0.0
 10
761.686323865568
 20
-1279.603720111957
 30
0.0
 10
767.8036076639519
 20
-1321.850237028478
 30
0.0
 10
774.3382647803738
 20
-1364.037842812202
 30
0.0
 10
780.9306272461737
 20
-1406.213390761728
 30
0.0
 10
787.5855181950307
 20
-1448.787364004123
 30
0.0
 10
794.9935070169634
 20
-1491.248165859827
 30
0.0
 10
801.1962291833816
 20
-1533.886562387795
 30
0.0
 10
805.6546995056176
 20
-1564.533270550707
 30
0.0
 10
808.5203299302484
 20
-1595.409938837259
 30
0.0
 10
812.378664618954
 20
-1626.148631049626
 30
0.0
 10
816.5245786532926
 20
-1659.179000778782
 30
0.0
 10
820.8138947872029
 20
-1692.193350813931
 30
0.0
 10
825.3841584579355
 20
-1725.167393231902
 30
0.0
 10
829.9550250203758
 20
-1758.143330452391
 30
0.0
 10
834.8209640111317
 20
-1791.080165839122
 30
0.0
 10
839.7914616498612
 20
-1823.998569965007
 30
0.0
 10
846.6547808755759
 20
-1869.4517817592
 30
0.0
 10
854.5178668111102
 20
-1914.76632846011
 30
0.0
 10
855.8464678849967
 20
-1960.886338485473
 30
0.0
 10
855.9330259090655
 20
-1963.890461748611
 30
0.0
 10
856.0329336781379
 20
-1966.900269419299
 30
0.0
 10
856.1567848608325
 20
-1969.911110618633
 30
0.0
 10
856.1567848608325
 20
-1969.911110618633
 30
0.0
 10
1012.970899540594
 20
-1969.911110618633
 30
0.0
 10
1012.970899540594
 20
-1969.911110618633
 30
0.0
 10
1010.051870135942
 20
-1945.786829483171
 30
0.0
 10
1007.38502172081
 20
-1921.624652297372
 30
0.0
 10
1004.426718227626
 20
-1897.505883314686
 30
0.0
  0
HATCH
  5
94
330
70
100
AcDbEntity
  8
2023-011
 62
    18
420
        0
440
 33554687
100
AcDbHatch
 10
0.0
 20
0.0
 30
0.0
210
0.0
220
0.0
230
1.0
  2
SOLID
 70
     1
 71
     1
 91
        1
 92
        1
 93
        1
 72
     4
 94
        3
 73
     0
 74
     0
 95
      113
 96
      109
 40
0.0
 40
0.0
 40
0.0
 40
0.0
 40
1.0
 40
1.0
 40
1.0
 40
2.0
 40
2.0
 40
2.0
 40
3.0
 40
3.0
 40
3.0
 40
4.0
 40
4.0
 40
4.0
 40
5.0
 40
5.0
 40
5.0
 40
6.0
 40
6.0
 40
6.0
 40
7.0
 40
7.0
 40
7.0
 40
8.0
 40
8.0
 40
8.0
 40
9.0
 40
9.0
 40
9.0
 40
10.0
 40
10.0
 40
10.0
 40
11.0
 40
11.0
 40
11.0
 40
12.0
 40
12.0
 40
12.0
 40
13.0
 40
13.0
 40
13.0
 40
14.0
 40
14.0
 40
14.0
 40
15.0
 40
15.0
 40
15.0
 40
16.0
 40
16.0
 40
16.0
 40
17.0
 40
17.0
 40
17.0
 40
18.0
 40
18.0
 40
18.0
 40
19.0
 40
19.0
 40
19.0
 40
20.0
 40
20.0
 40
20.0
 40
21.0
 40
21.0
 40
21.0
 40
22.0
 40
22.0
 40
22.0
 40
23.0
 40
23.0
 40
23.0
 40
24.0
 40
24.0
 40
24.0
 40
25.0
 40
25.0
 40
25.0
 40
26.0
 40
26.0
 40
26.0
 40
27.0
 40
27.0
 40
27.0
 40
28.0
 40
28.0
 40
28.0
 40
29.0
 40
29.0
 40
29.0
 40
30.0
 40
30.0
 40
30.0
 40
31.0
 40
31.0
 40
31.0
 40
32.0
 40
32.0
 40
32.0
 40
33.0
 40
33.0
 40
33.0
 40
34.0
 40
34.0
 40
34.0
 40
35.0
 40
35.0
 40
35.0
 40
36.0
 40
36.0
 40
36.0
 40
36.0
 10
1004.426718227626
 20
-1897.505883314686
 10
996.6534631568716
 20
-1834.131973825321
 10
989.308002817996
 20
-1770.701564769998
 10
980.9332340755132
 20
-1707.40792600544
 10
975.5776608889181
 20
-1666.932532677885
 10
968.4905827114365
 20
-1626.690372314681
 10
962.5505490757687
 20
-1586.288876285285
 10
955.8593123695422
 20
-1540.778131396489
 10
949.7691586981066
 20
-1495.178675298948
 10
943.0730127308116
 20
-1449.668447174475
 10
937.1961965972982
 20
-1409.727560411457
 10
930.8915857319059
 20
-1369.849288258885
 10
924.6791311707399
 20
-1329.958441507788
 10
921.6434852839121
 20
-1310.46712478089
 10
917.9563718408234
 20
-1291.068308867771
 10
915.3151893870566
 20
-1271.526004727691
 10
908.4045862258088
 20
-1220.394414299936
 10
901.5653826684909
 20
-1169.248354471143
 10
895.353617126422
 20
-1118.028225089416
 10
890.3801050291411
 20
-1077.018325197325
 10
886.3538219355296
 20
-1035.892756224318
 10
881.9364343769571
 20
-994.8154185881017
 10
878.7239689643469
 20
-964.9430817628894
 10
875.1517494556912
 20
-935.1018369244297
 10
872.4912744672071
 20
-905.1798907242257
 10
869.9984895014694
 20
-877.1451678308459
 10
869.1269664710864
 20
-848.9611000481763
 10
866.4196381840028
 20
-820.9515263518387
 10
861.0463227556586
 20
-765.3581927611363
 10
855.0444496560306
 20
-709.8242009401655
 10
849.0372366584004
 20
-654.2943432337807
 10
841.8678206988213
 20
-588.0219887852862
 10
834.2363313072848
 20
-521.7994159665572
 10
827.1512340597052
 20
-455.518104269801
 10
821.3622678610656
 20
-401.3624090250933
 10
815.329044392522
 20
-347.2154987738732
 10
810.7710969381512
 20
-292.9495820054844
 10
805.3859820577681
 20
-228.8348047320166
 10
801.2678010420895
 20
-164.60965521194
 10
796.9970884237995
 20
-100.4056930290978
 10
795.4372353154637
 20
-76.95533716609102
 10
794.5254907952922
 20
-53.45741745354136
 10
793.286376076637
 20
-29.98611110361459
 10
793.286376076637
 20
-29.98611110361459
 10
639.9471569580688
 20
-29.98611110361459
 10
639.9471569580688
 20
-29.98611110361459
 10
640.4547917778203
 20
-37.10972882508672
 10
640.9418421520495
 20
-44.23463845736614
 10
641.4024083547312
 20
-51.36105531891971
 10
642.887201445181
 20
-74.33411473429192
 10
643.2365341273853
 20
-97.38552854010675
 10
644.9415118830354
 20
-120.3388001882855
 10
649.2548575579574
 20
-178.4065520794221
 10
654.1067577846089
 20
-236.4341901400017
 10
658.6290485007073
 20
-294.4866113562286
 10
661.6548758654022
 20
-333.3301060161141
 10
663.5998045216
 20
-372.2806785500496
 10
667.6122641695776
 20
-411.0189686065561
 10
673.5563888561354
 20
-468.4054313336384
 10
681.0135564161181
 20
-525.6331182225433
 10
687.6187518626025
 20
-582.9525738424337
 10
692.2920238883439
 20
-623.5071613024565
 10
696.8609956482675
 20
-664.0770794373889
 10
701.0327478987455
 20
-704.6857548965301
 10
704.7246844755135
 20
-740.6254216355902
 10
707.9202689202421
 20
-776.6178844629636
 10
711.120590371265
 20
-812.6061270483695
 10
714.3622529681108
 20
-849.0622136006685
 10
717.2026480683141
 20
-885.554301400792
 10
720.4834124989176
 20
-922.0067706028316
 10
722.6707897498879
 20
-946.3108857226238
 10
725.2323904979454
 20
-970.582358562695
 10
727.78753169197
 20
-994.8514198359225
 10
730.9304061757743
 20
-1024.703861234709
 10
734.2140989375402
 20
-1054.541747105073
 10
737.4862506294305
 20
-1084.380408121919
 10
740.7577133022238
 20
-1114.212781839502
 10
743.7736360174006
 20
-1144.077970091585
 10
747.4778888105264
 20
-1173.857030956535
 10
751.8678878599951
 20
-1209.149536508695
 10
756.5899079868527
 20
-1244.406557577353
 10
761.686323865568
 20
-1279.603720111957
 10
767.8036076639519
 20
-1321.850237028478
 10
774.3382647803738
 20
-1364.037842812202
 10
780.9306272461737
 20
-1406.213390761728
 10
787.5855181950307
 20
-1448.787364004123
 10
794.9935070169634
 20
-1491.248165859827
 10
801.1962291833816
 20
-1533.886562387795
 10
805.6546995056176
 20
-1564.533270550707
 10
808.5203299302484
 20
-1595.409938837259
 10
812.378664618954
 20
-1626.148631049626
 10
816.5245786532926
 20
-1659.179000778782
 10
820.8138947872029
 20
-1692.193350813931
 10
825.3841584579355
 20
-1725.167393231902
 10
829.9550250203758
 20
-1758.143330452391
 10
834.8209640111317
 20
-1791.080165839122
 10
839.7914616498612
 20
-1823.998569965007
 10
846.6547808755759
 20
-1869.4517817592
 10
854.5178668111102
 20
-1914.76632846011
 10
855.8464678849967
 20
-1960.886338485473
 10
855.9330259090655
 20
-1963.890461748611
 10
856.0329336781379
 20
-1966.900269419299
 10
856.1567848608325
 20
-1969.911110618633
 10
856.1567848608325
 20
-1969.911110618633
 10
1012.970899540594
 20
-1969.911110618633
 10
1012.970899540594
 20
-1969.911110618633
 10
1010.051870135942
 20
-1945.786829483171
 10
1007.38502172081
 20
-1921.624652297372
 10
1004.426718227626
 20
-1897.505883314686
 97
        0
 97
        1
330
93
 75
     2
 76
     1
 98
        1
 10
0.0
 20
0.0
450
        0
451
        0
460
0.0
461
0.0
452
        0
462
0.0
453
        0
470

  0
ENDSEC
  0
SECTION
  2
OBJECTS
  0
DICTIONARY
  5
C
330
0
100
AcDbDictionary
281
     1
  3
ACAD_COLOR
350
63
  3
ACAD_DETAILVIEWSTYLE
350
6A
  3
ACAD_GROUP
350
D
  3
ACAD_LAYOUT
350
62
  3
ACAD_MATERIAL
350
10
  3
ACAD_MLEADERSTYLE
350
66
  3
ACAD_MLINESTYLE
350
5F
  3
ACAD_PLOTSETTINGS
350
61
  3
ACAD_PLOTSTYLENAME
350
E
  3
ACAD_SCALELIST
350
42
  3
ACAD_SECTIONVIEWSTYLE
350
68
  3
ACAD_TABLESTYLE
350
64
  3
ACAD_VISUALSTYLE
350
29
  3
ACDB_RECOMPOSE_DATA
350
A8
  3
AcDbVariableDictionary
350
A0
  0
DICTIONARY
  5
63
102
{ACAD_REACTORS
330
C
102
}
330
C
100
AcDbDictionary
281
     1
  0
DICTIONARY
  5
6A
102
{ACAD_REACTORS
330
C
102
}
330
C
100
AcDbDictionary
281
     1
  3
Imperial24
350
6B
  0
DICTIONARY
  5
D
102
{ACAD_REACTORS
330
C
102
}
330
C
100
AcDbDictionary
281
     1
  0
DICTIONARY
  5
62
102
{ACAD_REACTORS
330
C
102
}
330
C
100
AcDbDictionary
281
     1
  3
Layout1
350
6F
  3
Layout2
350
77
  3
Model
350
73
  0
DICTIONARY
  5
10
102
{ACAD_REACTORS
330
C
102
}
330
C
100
AcDbDictionary
281
     1
  3
ByBlock
350
19
  3
ByLayer
350
11
  3
Global
350
21
  0
DICTIONARY
  5
66
102
{ACAD_REACTORS
330
C
102
}
330
C
100
AcDbDictionary
281
     1
  3
Standard
350
67
  0
DICTIONARY
  5
5F
102
{ACAD_REACTORS
330
C
102
}
330
C
100
AcDbDictionary
281
     1
  3
Standard
350
60
  0
DICTIONARY
  5
61
102
{ACAD_REACTORS
330
C
102
}
330
C
100
AcDbDictionary
281
     1
  0
ACDBDICTIONARYWDFLT
  5
E
102
{ACAD_REACTORS
330
C
102
}
330
C
100
AcDbDictionary
281
     1
  3
Normal
350
F
100
AcDbDictionaryWithDefault
340
F
  0
DICTIONARY
  5
42
102
{ACAD_REACTORS
330
C
102
}
330
C
100
AcDbDictionary
281
     1
  3
A0
350
43
  3
A1
350
44
  3
A2
350
45
  3
A3
350
46
  3
A4
350
47
  3
A5
350
48
  3
A6
350
49
  3
A7
350
4A
  3
A8
350
4B
  3
A9
350
4C
  3
B0
350
4D
  3
B1
350
4E
  3
B2
350
4F
  3
B3
350
50
  3
B4
350
51
  3
B5
350
52
  3
B6
350
53
  0
DICTIONARY
  5
68
102
{ACAD_REACTORS
330
C
102
}
330
C
100
AcDbDictionary
281
     1
  3
Imperial24
350
69
  0
DICTIONARY
  5
64
102
{ACAD_REACTORS
330
C
102
}
330
C
100
AcDbDictionary
281
     1
  3
Standard
350
65
  0
DICTIONARY
  5
29
102
{ACAD_REACTORS
330
C
102
}
330
C
100
AcDbDictionary
281
     1
  3
2dWireframe
350
2F
  3
Basic
350
2E
  3
Brighten
350
35
  3
ColorChange
350
39
  3
Conceptual
350
32
  3
Dim
350
34
  3
EdgeColorOff
350
41
  3
Facepattern
350
38
  3
Flat
350
2A
  3
FlatWithEdges
350
2B
  3
Gouraud
350
2C
  3
GouraudWithEdges
350
2D
  3
Hidden
350
31
  3
JitterOff
350
3F
  3
Linepattern
350
37
  3
OverhangOff
350
40
  3
Realistic
350
33
  3
Shaded
350
3E
  3
Shaded with edges
350
3D
  3
Shades of Gray
350
3A
  3
Sketchy
350
3B
  3
Thicken
350
36
  3
Wireframe
350
30
  3
X-Ray
350
3C
  0
XRECORD
  5
A8
102
{ACAD_REACTORS
330
C
102
}
330
C
100
AcDbXrecord
280
     1
 90
        1
330
65
  0
DICTIONARY
  5
A0
102
{ACAD_REACTORS
330
C
102
}
330
C
100
AcDbDictionary
281
     1
  3
CANNOSCALE
350
A5
  3
CMLEADERSTYLE
350
A2
  3
CTABLESTYLE
350
A1
  3
CVIEWDETAILSTYLE
350
A3
  3
CVIEWSECTIONSTYLE
350
A4
  0
ACDBDETAILVIEWSTYLE
  5
6B
102
{ACAD_REACTORS
330
6A
102
}
330
6A
100
AcDbModelDocViewStyle
 70
     0
  3
Imperial24
290
     1
300
Imperial24
 90
        0
100
AcDbDetailViewStyle
 70
     0
 71
     0
 90
        3
 71
     1
340
55
 62
   256
 40
0.24
340
0
 62
   256
 40
0.24
300

 40
0.36
280
     3
 71
     2
340
5D
 90
       25
 62
   256
 71
     3
340
55
 62
   256
 40
0.24
 90
        1
 40
0.75
 90
        1
300
%<\AcVar ViewType \f "%tc1">% %<\AcVar ViewDetailId>%\PSCALE %<\AcVar ViewScale \f "%sn">%
 71
     4
340
5D
 90
       25
 62
   256
340
5D
 90
       25
 62
   256
280
     0
  0
LAYOUT
  5
6F
102
{ACAD_REACTORS
330
62
102
}
330
62
100
AcDbPlotSettings
  1

  2

  4

  6

 40
0.0
 41
0.0
 42
0.0
 43
0.0
 44
0.0
 45
0.0
 46
0.0
 47
0.0
 48
0.0
 49
0.0
140
0.0
141
0.0
142
1.0
143
1.0
 70
   688
 72
     0
 73
     0
 74
     5
  7

 75
    16
147
1.0
 76
     0
 77
     2
 78
   300
148
0.0
149
0.0
100
AcDbLayout
  1
Layout1
 70
     1
 71
     1
 10
0.0
 20
0.0
 11
12.0
 21
9.0
 12
0.0
 22
0.0
 32
0.0
 14
0.0
 24
0.0
 34
0.0
 15
0.0
 25
0.0
 35
0.0
146
0.0
 13
0.0
 23
0.0
 33
0.0
 16
1.0
 26
0.0
 36
0.0
 17
0.0
 27
1.0
 37
0.0
 76
     0
330
6C
  0
LAYOUT
  5
77
102
{ACAD_REACTORS
330
62
102
}
330
62
100
AcDbPlotSettings
  1

  2

  4

  6

 40
0.0
 41
0.0
 42
0.0
 43
0.0
 44
0.0
 45
0.0
 46
0.0
 47
0.0
 48
0.0
 49
0.0
140
0.0
141
0.0
142
1.0
143
1.0
 70
   688
 72
     0
 73
     0
 74
     5
  7

 75
    16
147
1.0
 76
     0
 77
     2
 78
   300
148
0.0
149
0.0
100
AcDbLayout
  1
Layout2
 70
     1
 71
     2
 10
0.0
 20
0.0
 11
12.0
 21
9.0
 12
0.0
 22
0.0
 32
0.0
 14
0.0
 24
0.0
 34
0.0
 15
0.0
 25
0.0
 35
0.0
146
0.0
 13
0.0
 23
0.0
 33
0.0
 16
1.0
 26
0.0
 36
0.0
 17
0.0
 27
1.0
 37
0.0
 76
     0
330
74
  0
LAYOUT
  5
73
102
{ACAD_REACTORS
330
62
102
}
330
62
100
AcDbPlotSettings
  1

  2

  4

  6

 40
0.0
 41
0.0
 42
0.0
 43
0.0
 44
0.0
 45
0.0
 46
0.0
 47
0.0
 48
0.0
 49
0.0
140
0.0
141
0.0
142
1.0
143
1.0
 70
  1712
 72
     0
 73
     0
 74
     0
  7

 75
     0
147
1.0
 76
     0
 77
     2
 78
   300
148
0.0
149
0.0
100
AcDbLayout
  1
Model
 70
     1
 71
     0
 10
0.0
 20
0.0
 11
12.0
 21
9.0
 12
0.0
 22
0.0
 32
0.0
 14
0.0
 24
0.0
 34
0.0
 15
0.0
 25
0.0
 35
0.0
146
0.0
 13
0.0
 23
0.0
 33
0.0
 16
1.0
 26
0.0
 36
0.0
 17
0.0
 27
1.0
 37
0.0
 76
     0
330
70
  0
MATERIAL
  5
19
102
{ACAD_XDICTIONARY
360
1A
102
}
102
{ACAD_REACTORS
330
10
102
}
330
10
100
AcDbMaterial
  1
ByBlock
 72
     0
 43
0.0208333333333333
 43
0.0
 43
0.0
 43
0.0
 43
0.0
 43
0.0208333333333333
 43
0.0
 43
0.0
 43
0.0
 43
0.0
 43
1.0
 43
0.0
 43
0.0
 43
0.0
 43
0.0
 43
1.0
 77
     0
 47
0.0208333333333333
 47
0.0
 47
0.0
 47
0.0
 47
0.0
 47
0.0208333333333333
 47
0.0
 47
0.0
 47
0.0
 47
0.0
 47
1.0
 47
0.0
 47
0.0
 47
0.0
 47
0.0
 47
1.0
171
     0
 49
0.0208333333333333
 49
0.0
 49
0.0
 49
0.0
 49
0.0
 49
0.0208333333333333
 49
0.0
 49
0.0
 49
0.0
 49
0.0
 49
1.0
 49
0.0
 49
0.0
 49
0.0
 49
0.0
 49
1.0
175
     0
142
0.0208333333333333
142
0.0
142
0.0
142
0.0
142
0.0
142
0.0208333333333333
142
0.0
142
0.0
142
0.0
142
0.0
142
1.0
142
0.0
142
0.0
142
0.0
142
0.0
142
1.0
179
     0
144
0.0208333333333333
144
0.0
144
0.0
144
0.0
144
0.0
144
0.0208333333333333
144
0.0
144
0.0
144
0.0
144
0.0
144
1.0
144
0.0
144
0.0
144
0.0
144
0.0
144
1.0
147
0.0208333333333333
147
0.0
147
0.0
147
0.0
147
0.0
147
0.0208333333333333
147
0.0
147
0.0
147
0.0
147
0.0
147
1.0
147
0.0
147
0.0
147
0.0
147
0.0
147
1.0
  0
MATERIAL
  5
11
102
{ACAD_XDICTIONARY
360
12
102
}
102
{ACAD_REACTORS
330
10
102
}
330
10
100
AcDbMaterial
  1
ByLayer
 72
     0
 43
0.0208333333333333
 43
0.0
 43
0.0
 43
0.0
 43
0.0
 43
0.0208333333333333
 43
0.0
 43
0.0
 43
0.0
 43
0.0
 43
1.0
 43
0.0
 43
0.0
 43
0.0
 43
0.0
 43
1.0
 77
     0
 47
0.0208333333333333
 47
0.0
 47
0.0
 47
0.0
 47
0.0
 47
0.0208333333333333
 47
0.0
 47
0.0
 47
0.0
 47
0.0
 47
1.0
 47
0.0
 47
0.0
 47
0.0
 47
0.0
 47
1.0
171
     0
 49
0.0208333333333333
 49
0.0
 49
0.0
 49
0.0
 49
0.0
 49
0.0208333333333333
 49
0.0
 49
0.0
 49
0.0
 49
0.0
 49
1.0
 49
0.0
 49
0.0
 49
0.0
 49
0.0
 49
1.0
175
     0
142
0.0208333333333333
142
0.0
142
0.0
142
0.0
142
0.0
142
0.0208333333333333
142
0.0
142
0.0
142
0.0
142
0.0
142
1.0
142
0.0
142
0.0
142
0.0
142
0.0
142
1.0
179
     0
144
0.0208333333333333
144
0.0
144
0.0
144
0.0
144
0.0
144
0.0208333333333333
144
0.0
144
0.0
144
0.0
144
0.0
144
1.0
144
0.0
144
0.0
144
0.0
144
0.0
144
1.0
147
0.0208333333333333
147
0.0
147
0.0
147
0.0
147
0.0
147
0.0208333333333333
147
0.0
147
0.0
147
0.0
147
0.0
147
1.0
147
0.0
147
0.0
147
0.0
147
0.0
147
1.0
  0
MATERIAL
  5
21
102
{ACAD_XDICTIONARY
360
22
102
}
102
{ACAD_REACTORS
330
10
102
}
330
10
100
AcDbMaterial
  1
Global
 72
     0
 43
0.0208333333333333
 43
0.0
 43
0.0
 43
0.0
 43
0.0
 43
0.0208333333333333
 43
0.0
 43
0.0
 43
0.0
 43
0.0
 43
1.0
 43
0.0
 43
0.0
 43
0.0
 43
0.0
 43
1.0
 77
     0
 47
0.0208333333333333
 47
0.0
 47
0.0
 47
0.0
 47
0.0
 47
0.0208333333333333
 47
0.0
 47
0.0
 47
0.0
 47
0.0
 47
1.0
 47
0.0
 47
0.0
 47
0.0
 47
0.0
 47
1.0
171
     0
 49
0.0208333333333333
 49
0.0
 49
0.0
 49
0.0
 49
0.0
 49
0.0208333333333333
 49
0.0
 49
0.0
 49
0.0
 49
0.0
 49
1.0
 49
0.0
 49
0.0
 49
0.0
 49
0.0
 49
1.0
175
     0
142
0.0208333333333333
142
0.0
142
0.0
142
0.0
142
0.0
142
0.0208333333333333
142
0.0
142
0.0
142
0.0
142
0.0
142
1.0
142
0.0
142
0.0
142
0.0
142
0.0
142
1.0
179
     0
144
0.0208333333333333
144
0.0
144
0.0
144
0.0
144
0.0
144
0.0208333333333333
144
0.0
144
0.0
144
0.0
144
0.0
144
1.0
144
0.0
144
0.0
144
0.0
144
0.0
144
1.0
147
0.0208333333333333
147
0.0
147
0.0
147
0.0
147
0.0
147
0.0208333333333333
147
0.0
147
0.0
147
0.0
147
0.0
147
1.0
147
0.0
147
0.0
147
0.0
147
0.0
147
1.0
  0
MLEADERSTYLE
  5
67
102
{ACAD_REACTORS
330
66
102
}
330
66
100
AcDbMLeaderStyle
179
     2
170
     2
171
     1
172
     0
 90
        2
 40
0.0
 41
0.0
173
     1
 91
-1056964608
340
5B
 92
       -2
290
     1
 42
0.09
291
     1
 43
0.36
  3
Standard
 44
0.18
300

342
55
174
     1
178
     6
175
     1
176
     0
 93
-1056964608
 45
0.18
292
     0
297
     0
 46
0.18
 94
-1056964608
 47
1.0
 49
1.0
140
1.0
293
     1
141
0.0
294
     1
177
     0
142
1.0
295
     1
296
     0
143
0.125
271
     0
272
     9
273
     9
298
     1
  0
MLINESTYLE
  5
60
102
{ACAD_REACTORS
330
5F
102
}
330
5F
100
AcDbMlineStyle
  2
STANDARD
 70
     0
  3

 62
   256
 51
90.0
 52
90.0
 71
     2
 49
0.5
 62
   256
  6
BYLAYER
 49
-0.5
 62
   256
  6
BYLAYER
  0
ACDBPLACEHOLDER
  5
F
102
{ACAD_REACTORS
330
E
102
}
330
E
  0
SCALE
  5
43
102
{ACAD_REACTORS
330
42
102
}
330
42
100
AcDbScale
 70
     0
300
1:1
140
1.0
141
1.0
290
     1
  0
SCALE
  5
44
102
{ACAD_REACTORS
330
42
102
}
330
42
100
AcDbScale
 70
     0
300
1/128" = 1'-0"
140
0.0078125
141
12.0
290
     0
  0
SCALE
  5
45
102
{ACAD_REACTORS
330
42
102
}
330
42
100
AcDbScale
 70
     0
300
1/64" = 1'-0"
140
0.015625
141
12.0
290
     0
  0
SCALE
  5
46
102
{ACAD_REACTORS
330
42
102
}
330
42
100
AcDbScale
 70
     0
300
1/32" = 1'-0"
140
0.03125
141
12.0
290
     0
  0
SCALE
  5
47
102
{ACAD_REACTORS
330
42
102
}
330
42
100
AcDbScale
 70
     0
300
1/16" = 1'-0"
140
0.0625
141
12.0
290
     0
  0
SCALE
  5
48
102
{ACAD_REACTORS
330
42
102
}
330
42
100
AcDbScale
 70
     0
300
3/32" = 1'-0"
140
0.09375
141
12.0
290
     0
  0
SCALE
  5
49
102
{ACAD_REACTORS
330
42
102
}
330
42
100
AcDbScale
 70
     0
300
1/8" = 1'-0"
140
0.125
141
12.0
290
     0
  0
SCALE
  5
4A
102
{ACAD_REACTORS
330
42
102
}
330
42
100
AcDbScale
 70
     0
300
3/16" = 1'-0"
140
0.1875
141
12.0
290
     0
  0
SCALE
  5
4B
102
{ACAD_REACTORS
330
42
102
}
330
42
100
AcDbScale
 70
     0
300
1/4" = 1'-0"
140
0.25
141
12.0
290
     0
  0
SCALE
  5
4C
102
{ACAD_REACTORS
330
42
102
}
330
42
100
AcDbScale
 70
     0
300
3/8" = 1'-0"
140
0.375
141
12.0
290
     0
  0
SCALE
  5
4D
102
{ACAD_REACTORS
330
42
102
}
330
42
100
AcDbScale
 70
     0
300
1/2" = 1'-0"
140
0.5
141
12.0
290
     0
  0
SCALE
  5
4E
102
{ACAD_REACTORS
330
42
102
}
330
42
100
AcDbScale
 70
     0
300
3/4" = 1'-0"
140
0.75
141
12.0
290
     0
  0
SCALE
  5
4F
102
{ACAD_REACTORS
330
42
102
}
330
42
100
AcDbScale
 70
     0
300
1" = 1'-0"
140
1.0
141
12.0
290
     0
  0
SCALE
  5
50
102
{ACAD_REACTORS
330
42
102
}
330
42
100
AcDbScale
 70
     0
300
1-1/2" = 1'-0"
140
1.5
141
12.0
290
     0
  0
SCALE
  5
51
102
{ACAD_REACTORS
330
42
102
}
330
42
100
AcDbScale
 70
     0
300
3" = 1'-0"
140
3.0
141
12.0
290
     0
  0
SCALE
  5
52
102
{ACAD_REACTORS
330
42
102
}
330
42
100
AcDbScale
 70
     0
300
6" = 1'-0"
140
6.0
141
12.0
290
     0
  0
SCALE
  5
53
102
{ACAD_REACTORS
330
42
102
}
330
42
100
AcDbScale
 70
     0
300
1'-0" = 1'-0"
140
12.0
141
12.0
290
     0
  0
ACDBSECTIONVIEWSTYLE
  5
69
102
{ACAD_REACTORS
330
68
102
}
330
68
100
AcDbModelDocViewStyle
 70
     0
  3
Imperial24
290
     1
300
Imperial24
 90
        0
100
AcDbSectionViewStyle
 70
     0
 71
     0
 90
       78
 71
     1
340
55
 62
   256
 40
0.24
340
0
340
0
 62
   256
 40
0.24
300
I, O, Q, S, X, Z
 40
0.48
 90
        3
 40
0.18
 90
        1
 71
     2
340
5D
 90
       25
 62
   256
340
5D
 90
       50
 62
   256
 40
0.24
 40
0.0
 40
0.24
 71
     3
340
55
 62
   256
 40
0.24
 90
        1
 40
0.75
 90
        1
300
%<\AcVar ViewType \f "%tc1">% %<\AcVar ViewSectionStartId>%-%<\AcVar ViewSectionEndId>%\PSCALE %<\AcVar ViewScale \f "%sn">%
 71
     4
 62
   256
 62
   257
300
ANSI31
 40
1.0
 90
        0
290
     0
290
     0
 90
        6
 40
0.0
 40
1.570796326794896
 40
0.2617993877991494
 40
1.308996938995747
 40
-0.2617993877991494
 40
1.832595714594046
  0
TABLESTYLE
  5
65
102
{ACAD_XDICTIONARY
360
A6
102
}
102
{ACAD_REACTORS
330
64
102
}
330
64
100
AcDbTableStyle
280
     0
  3
Standard
 70
     0
 71
     0
 40
0.06
 41
0.06
280
     0
281
     0
  7
Standard
140
0.18
170
     2
 62
     0
 63
     7
283
     0
 90
      512
 91
        0
  1

274
    -2
284
     1
 64
     0
275
    -2
285
     1
 65
     0
276
    -2
286
     1
 66
     0
277
    -2
287
     1
 67
     0
278
    -2
288
     1
 68
     0
279
    -2
289
     1
 69
     0
  7
Standard
140
0.25
170
     5
 62
     0
 63
     7
283
     0
 90
      512
 91
        0
  1

274
    -2
284
     1
 64
     0
275
    -2
285
     1
 65
     0
276
    -2
286
     1
 66
     0
277
    -2
287
     1
 67
     0
278
    -2
288
     1
 68
     0
279
    -2
289
     1
 69
     0
  7
Standard
140
0.18
170
     5
 62
     0
 63
     7
283
     0
 90
      512
 91
        0
  1

274
    -2
284
     1
 64
     0
275
    -2
285
     1
 65
     0
276
    -2
286
     1
 66
     0
277
    -2
287
     1
 67
     0
278
    -2
288
     1
 68
     0
279
    -2
289
     1
 69
     0
  0
VISUALSTYLE
  5
2F
102
{ACAD_REACTORS
330
29
102
}
330
29
100
AcDbVisualStyle
  2
2dWireframe
 70
     4
177
     3
291
     0
 70
    58
 90
        0
176
     1
 90
        2
176
     1
 90
        0
176
     1
 90
        0
176
     1
 40
0.6
176
     1
 40
30.0
176
     1
 62
     7
420
 16777215
176
     1
 90
        1
176
     1
 90
        4
176
     1
 62
     7
176
     1
 62
   257
176
     1
 90
        1
176
     1
 90
        1
176
     1
 40
1.0
176
     1
 90
        0
176
     1
 62
   257
176
     1
 40
1.0
176
     1
 90
        1
176
     1
 90
        6
176
     1
 90
        2
176
     1
 62
     7
176
     1
 90
        5
176
     1
 90
        0
176
     1
 90
        0
176
     1
290
     0
176
     1
 90
        1
176
     1
 40
0.0
176
     1
 90
        0
176
     1
290
     1
176
     1
290
     1
176
     1
290
     0
176
     1
290
     0
176
     1
290
     0
176
     1
290
     0
176
     1
290
     0
176
     1
290
     0
176
     1
290
     0
176
     1
 90
       50
176
     1
 40
0.0
176
     1
 40
1.0
176
     1
 90
        0
176
     1
 62
    18
420
        0
176
     1
 90
       50
176
     1
 90
        3
176
     1
 62
     5
420
      255
176
     1
290
     0
176
     1
 90
       50
176
     1
 90
       50
176
     1
 90
       50
176
     1
290
     0
176
     1
 90
       50
176
     1
 62
   256
176
     0
 40
1.0
176
     0
 90
        2
176
     1
  1
strokes_ogs.tif
176
     1
290
     0
176
     1
 40
1.0
176
     1
 40
1.0
176
     1
  0
VISUALSTYLE
  5
2E
102
{ACAD_REACTORS
330
29
102
}
330
29
100
AcDbVisualStyle
  2
Basic
 70
     7
177
     3
291
     1
 70
    58
 90
        1
176
     1
 90
        0
176
     1
 90
        1
176
     1
 90
        0
176
     1
 40
0.6
176
     1
 40
30.0
176
     1
 62
     7
420
 16777215
176
     1
 90
        0
176
     1
 90
        4
176
     1
 62
     7
176
     1
 62
   257
176
     1
 90
        1
176
     1
 90
        1
176
     1
 40
1.0
176
     1
 90
        8
176
     1
 62
     7
176
     1
 40
1.0
176
     1
 90
        1
176
     1
 90
        6
176
     1
 90
        2
176
     1
 62
     7
176
     1
 90
        5
176
     1
 90
        0
176
     1
 90
        0
176
     1
290
     0
176
     1
 90
        1
176
     1
 40
0.0
176
     1
 90
        0
176
     1
290
     0
176
     1
290
     1
176
     1
290
     1
176
     1
290
     0
176
     1
290
     0
176
     1
290
     0
176
     1
290
     0
176
     1
290
     0
176
     1
290
     0
176
     1
 90
       50
176
     1
 40
0.0
176
     1
 40
1.0
176
     1
 90
        0
176
     1
 62
    18
420
        0
176
     1
 90
       50
176
     1
 90
        3
176
     1
 62
     5
420
      255
176
     1
290
     0
176
     1
 90
       50
176
     1
 90
       50
176
     1
 90
       50
176
     1
290
     0
176
     1
 90
       50
176
     1
 62
   256
176
     0
 40
1.0
176
     0
 90
        2
176
     1
  1
strokes_ogs.tif
176
     1
290
     0
176
     1
 40
1.0
176
     1
 40
1.0
176
     1
  0
VISUALSTYLE
  5
35
102
{ACAD_REACTORS
330
29
102
}
330
29
100
AcDbVisualStyle
  2
Brighten
 70
    12
177
     3
291
     1
 70
    58
 90
        2
176
     1
 90
        2
176
     1
 90
        0
176
     1
 90
        0
176
     1
 40
0.6
176
     1
 40
30.0
176
     1
 62
     7
420
 16777215
176
     1
 90
        1
176
     1
 90
        4
176
     1
 62
     7
176
     1
 62
   257
176
     1
 90
        1
176
     1
 90
        1
176
     1
 40
1.0
176
     1
 90
        8
176
     1
 62
     7
176
     1
 40
1.0
176
     1
 90
        1
176
     1
 90
        6
176
     1
 90
        2
176
     1
 62
     7
176
     1
 90
        5
176
     1
 90
        0
176
     1
 90
        0
176
     1
290
     0
176
     1
 90
        1
176
     1
 40
50.0
176
     1
 90
        0
176
     1
290
     0
176
     1
290
     1
176
     1
290
     1
176
     1
290
     0
176
     1
290
     0
176
     1
290
     0
176
     1
290
     0
176
     1
290
     0
176
     1
290
     0
176
     1
 90
       50
176
     1
 40
0.0
176
     1
 40
1.0
176
     1
 90
        0
176
     1
 62
    18
420
        0
176
     1
 90
       50
176
     1
 90
        3
176
     1
 62
     5
420
      255
176
     1
290
     0
176
     1
 90
       50
176
     1
 90
       50
176
     1
 90
       50
176
     1
290
     0
176
     1
 90
       50
176
     1
 62
   256
176
     0
 40
1.0
176
     0
 90
        2
176
     1
  1
strokes_ogs.tif
176
     1
290
     0
176
     1
 40
1.0
176
     1
 40
1.0
176
     1
  0
VISUALSTYLE
  5
39
102
{ACAD_REACTORS
330
29
102
}
330
29
100
AcDbVisualStyle
  2
ColorChange
 70
    16
177
     3
291
     1
 70
    58
 90
        2
176
     1
 90
        2
176
     1
 90
        3
176
     1
 90
        0
176
     1
 40
0.6
176
     1
 40
30.0
176
     1
 62
     8
420
  8421504
176
     1
 90
        1
176
     1
 90
        4
176
     1
 62
     7
176
     1
 62
   257
176
     1
 90
        1
176
     1
 90
        1
176
     1
 40
1.0
176
     1
 90
        8
176
     1
 62
     8
420
  8421504
176
     1
 40
1.0
176
     1
 90
        1
176
     1
 90
        6
176
     1
 90
        2
176
     1
 62
     7
176
     1
 90
        5
176
     1
 90
        0
176
     1
 90
        0
176
     1
290
     0
176
     1
 90
        1
176
     1
 40
0.0
176
     1
 90
        0
176
     1
290
     0
176
     1
290
     1
176
     1
290
     1
176
     1
290
     0
176
     1
290
     0
176
     1
290
     0
176
     1
290
     0
176
     1
290
     0
176
     1
290
     0
176
     1
 90
       50
176
     1
 40
0.0
176
     1
 40
1.0
176
     1
 90
        0
176
     1
 62
    18
420
        0
176
     1
 90
       50
176
     1
 90
        3
176
     1
 62
     5
420
      255
176
     1
290
     0
176
     1
 90
       50
176
     1
 90
       50
176
     1
 90
       50
176
     1
290
     0
176
     1
 90
       50
176
     1
 62
   256
176
     0
 40
1.0
176
     0
 90
        2
176
     1
  1
strokes_ogs.tif
176
     1
290
     0
176
     1
 40
1.0
176
     1
 40
1.0
176
     1
  0
VISUALSTYLE
  5
32
102
{ACAD_REACTORS
330
29
102
}
330
29
100
AcDbVisualStyle
  2
Conceptual
 70
     9
177
     3
291
     0
 70
    58
 90
        3
176
     1
 90
        2
176
     1
 90
        0
176
     1
 90
        0
176
     1
 40
0.6
176
     1
 40
30.0
176
     1
 62
     7
420
 16777215
176
     1
 90
        2
176
     1
 90
        2
176
     1
 62
     7
176
     1
 62
   257
176
     1
 90
        1
176
     1
 90
        1
176
     1
 40
179.0
176
     1
 90
        8
176
     1
 62
     7
176
     1
 40
1.0
176
     1
 90
        1
176
     1
 90
        6
176
     1
 90
        2
176
     1
 62
     7
176
     1
 90
        3
176
     1
 90
        0
176
     1
 90
        0
176
     1
290
     0
176
     1
 90
        1
176
     1
 40
0.0
176
     1
 90
        0
176
     1
290
     0
176
     1
290
     1
176
     1
290
     1
176
     1
290
     0
176
     1
290
     0
176
     1
290
     0
176
     1
290
     0
176
     1
290
     0
176
     1
290
     0
176
     1
 90
       50
176
     1
 40
0.0
176
     1
 40
1.0
176
     1
 90
        0
176
     1
 62
    18
420
        0
176
     1
 90
       50
176
     1
 90
        3
176
     1
 62
     5
420
      255
176
     1
290
     0
176
     1
 90
       50
176
     1
 90
       50
176
     1
 90
       50
176
     1
290
     0
176
     1
 90
       50
176
     1
 62
   256
176
     0
 40
1.0
176
     0
 90
        2
176
     1
  1
strokes_ogs.tif
176
     1
290
     0
176
     1
 40
1.0
176
     1
 40
1.0
176
     1
  0
VISUALSTYLE
  5
34
102
{ACAD_REACTORS
330
29
102
}
330
29
100
AcDbVisualStyle
  2
Dim
 70
    11
177
     3
291
     1
 70
    58
 90
        2
176
     1
 90
        2
176
     1
 90
        0
176
     1
 90
        0
176
     1
 40
0.6
176
     1
 40
30.0
176
     1
 62
     7
420
 16777215
176
     1
 90
        1
176
     1
 90
        4
176
     1
 62
     7
176
     1
 62
   257
176
     1
 90
        1
176
     1
 90
        1
176
     1
 40
1.0
176
     1
 90
        8
176
     1
 62
     7
176
     1
 40
1.0
176
     1
 90
        1
176
     1
 90
        6
176
     1
 90
        2
176
     1
 62
     7
176
     1
 90
        5
176
     1
 90
        0
176
     1
 90
        0
176
     1
290
     0
176
     1
 90
        1
176
     1
 40
-50.0
176
     1
 90
        0
176
     1
290
     0
176
     1
290
     1
176
     1
290
     1
176
     1
290
     0
176
     1
290
     0
176
     1
290
     0
176
     1
290
     0
176
     1
290
     0
176
     1
290
     0
176
     1
 90
       50
176
     1
 40
0.0
176
     1
 40
1.0
176
     1
 90
        0
176
     1
 62
    18
420
        0
176
     1
 90
       50
176
     1
 90
        3
176
     1
 62
     5
420
      255
176
     1
290
     0
176
     1
 90
       50
176
     1
 90
       50
176
     1
 90
       50
176
     1
290
     0
176
     1
 90
       50
176
     1
 62
   256
176
     0
 40
1.0
176
     0
 90
        2
176
     1
  1
strokes_ogs.tif
176
     1
290
     0
176
     1
 40
1.0
176
     1
 40
1.0
176
     1
  0
VISUALSTYLE
  5
41
102
{ACAD_REACTORS
330
29
102
}
330
29
100
AcDbVisualStyle
  2
EdgeColorOff
 70
    22
177
     3
291
     1
 70
    58
 90
        2
176
     0
 90
        2
176
     0
 90
        0
176
     0
 90
        0
176
     0
 40
0.6
176
     0
 40
30.0
176
     0
 62
     7
420
 16777215
176
     0
 90
        1
176
     0
 90
        4
176
     0
 62
     7
176
     0
 62
   257
176
     0
 90
        1
176
     0
 90
        1
176
     0
 40
1.0
176
     0
 90
        8
176
     2
 62
     7
176
     0
 40
1.0
176
     0
 90
        1
176
     0
 90
        6
176
     0
 90
        2
176
     0
 62
     7
176
     0
 90
        5
176
     0
 90
        0
176
     0
 90
        0
176
     0
290
     0
176
     0
 90
        1
176
     0
 40
0.0
176
     0
 90
        0
176
     0
290
     0
176
     0
290
     1
176
     0
290
     1
176
     0
290
     0
176
     0
290
     0
176
     0
290
     0
176
     0
290
     0
176
     0
290
     0
176
     0
290
     0
176
     0
 90
       50
176
     0
 40
0.0
176
     0
 40
1.0
176
     0
 90
        0
176
     0
 62
    18
420
        0
176
     0
 90
       50
176
     0
 90
        3
176
     0
 62
     5
420
      255
176
     0
290
     0
176
     0
 90
       50
176
     0
 90
       50
176
     0
 90
       50
176
     0
290
     0
176
     0
 90
       50
176
     0
 62
   256
176
     0
 40
1.0
176
     0
 90
        2
176
     0
  1
strokes_ogs.tif
176
     0
290
     0
176
     0
 40
1.0
176
     0
 40
1.0
176
     0
  0
VISUALSTYLE
  5
38
102
{ACAD_REACTORS
330
29
102
}
330
29
100
AcDbVisualStyle
  2
Facepattern
 70
    15
177
     3
291
     1
 70
    58
 90
        2
176
     1
 90
        2
176
     1
 90
        0
176
     1
 90
        0
176
     1
 40
0.6
176
     1
 40
30.0
176
     1
 62
     7
420
 16777215
176
     1
 90
        1
176
     1
 90
        4
176
     1
 62
     7
176
     1
 62
   257
176
     1
 90
        1
176
     1
 90
        1
176
     1
 40
1.0
176
     1
 90
        8
176
     1
 62
     7
176
     1
 40
1.0
176
     1
 90
        1
176
     1
 90
        6
176
     1
 90
        2
176
     1
 62
     7
176
     1
 90
        5
176
     1
 90
        0
176
     1
 90
        0
176
     1
290
     0
176
     1
 90
        1
176
     1
 40
0.0
176
     1
 90
        0
176
     1
290
     0
176
     1
290
     1
176
     1
290
     1
176
     1
290
     0
176
     1
290
     0
176
     1
290
     0
176
     1
290
     0
176
     1
290
     0
176
     1
290
     0
176
     1
 90
       50
176
     1
 40
0.0
176
     1
 40
1.0
176
     1
 90
        0
176
     1
 62
    18
420
        0
176
     1
 90
       50
176
     1
 90
        3
176
     1
 62
     5
420
      255
176
     1
290
     0
176
     1
 90
       50
176
     1
 90
       50
176
     1
 90
       50
176
     1
290
     0
176
     1
 90
       50
176
     1
 62
   256
176
     0
 40
1.0
176
     0
 90
        2
176
     1
  1
strokes_ogs.tif
176
     1
290
     0
176
     1
 40
1.0
176
     1
 40
1.0
176
     1
  0
VISUALSTYLE
  5
2A
102
{ACAD_REACTORS
330
29
102
}
330
29
100
AcDbVisualStyle
  2
Flat
 70
     0
177
     3
291
     1
 70
    58
 90
        2
176
     1
 90
        1
176
     1
 90
        1
176
     1
 90
        2
176
     1
 40
0.6
176
     1
 40
30.0
176
     1
 62
     7
420
 16777215
176
     1
 90
        0
176
     1
 90
        0
176
     1
 62
     7
176
     1
 62
   257
176
     1
 90
        1
176
     1
 90
        1
176
     1
 40
1.0
176
     1
 90
        8
176
     1
 62
     7
176
     1
 40
1.0
176
     1
 90
        1
176
     1
 90
        6
176
     1
 90
        2
176
     1
 62
     7
176
     1
 90
        5
176
     1
 90
        0
176
     1
 90
        0
176
     1
290
     0
176
     1
 90
       13
176
     1
 40
0.0
176
     1
 90
        0
176
     1
290
     0
176
     1
290
     1
176
     1
290
     1
176
     1
290
     0
176
     1
290
     0
176
     1
290
     0
176
     1
290
     0
176
     1
290
     0
176
     1
290
     0
176
     1
 90
       50
176
     1
 40
0.0
176
     1
 40
1.0
176
     1
 90
        0
176
     1
 62
    18
420
        0
176
     1
 90
       50
176
     1
 90
        3
176
     1
 62
     5
420
      255
176
     1
290
     0
176
     1
 90
       50
176
     1
 90
       50
176
     1
 90
       50
176
     1
290
     0
176
     1
 90
       50
176
     1
 62
   256
176
     0
 40
1.0
176
     0
 90
        2
176
     1
  1
strokes_ogs.tif
176
     1
290
     0
176
     1
 40
1.0
176
     1
 40
1.0
176
     1
  0
VISUALSTYLE
  5
2B
102
{ACAD_REACTORS
330
29
102
}
330
29
100
AcDbVisualStyle
  2
FlatWithEdges
 70
     1
177
     3
291
     1
 70
    58
 90
        2
176
     1
 90
        1
176
     1
 90
        1
176
     1
 90
        2
176
     1
 40
0.6
176
     1
 40
30.0
176
     1
 62
     7
420
 16777215
176
     1
 90
        1
176
     1
 90
        0
176
     1
 62
     7
176
     1
 62
   257
176
     1
 90
        1
176
     1
 90
        1
176
     1
 40
1.0
176
     1
 90
        0
176
     1
 62
   257
176
     1
 40
1.0
176
     1
 90
        1
176
     1
 90
        6
176
     1
 90
        2
176
     1
 62
     7
176
     1
 90
        5
176
     1
 90
        0
176
     1
 90
        0
176
     1
290
     0
176
     1
 90
       13
176
     1
 40
0.0
176
     1
 90
        0
176
     1
290
     0
176
     1
290
     1
176
     1
290
     1
176
     1
290
     0
176
     1
290
     0
176
     1
290
     0
176
     1
290
     0
176
     1
290
     0
176
     1
290
     0
176
     1
 90
       50
176
     1
 40
0.0
176
     1
 40
1.0
176
     1
 90
        0
176
     1
 62
    18
420
        0
176
     1
 90
       50
176
     1
 90
        3
176
     1
 62
     5
420
      255
176
     1
290
     0
176
     1
 90
       50
176
     1
 90
       50
176
     1
 90
       50
176
     1
290
     0
176
     1
 90
       50
176
     1
 62
   256
176
     0
 40
1.0
176
     0
 90
        2
176
     1
  1
strokes_ogs.tif
176
     1
290
     0
176
     1
 40
1.0
176
     1
 40
1.0
176
     1
  0
VISUALSTYLE
  5
2C
102
{ACAD_REACTORS
330
29
102
}
330
29
100
AcDbVisualStyle
  2
Gouraud
 70
     2
177
     3
291
     1
 70
    58
 90
        2
176
     1
 90
        2
176
     1
 90
        1
176
     1
 90
        2
176
     1
 40
0.6
176
     1
 40
30.0
176
     1
 62
     7
420
 16777215
176
     1
 90
        0
176
     1
 90
        0
176
     1
 62
     7
176
     1
 62
   257
176
     1
 90
        1
176
     1
 90
        1
176
     1
 40
1.0
176
     1
 90
        0
176
     1
 62
     7
176
     1
 40
1.0
176
     1
 90
        1
176
     1
 90
        6
176
     1
 90
        2
176
     1
 62
     7
176
     1
 90
        5
176
     1
 90
        0
176
     1
 90
        0
176
     1
290
     0
176
     1
 90
       13
176
     1
 40
0.0
176
     1
 90
        0
176
     1
290
     0
176
     1
290
     1
176
     1
290
     1
176
     1
290
     0
176
     1
290
     0
176
     1
290
     0
176
     1
290
     0
176
     1
290
     0
176
     1
290
     0
176
     1
 90
       50
176
     1
 40
0.0
176
     1
 40
1.0
176
     1
 90
        0
176
     1
 62
    18
420
        0
176
     1
 90
       50
176
     1
 90
        3
176
     1
 62
     5
420
      255
176
     1
290
     0
176
     1
 90
       50
176
     1
 90
       50
176
     1
 90
       50
176
     1
290
     0
176
     1
 90
       50
176
     1
 62
   256
176
     0
 40
1.0
176
     0
 90
        2
176
     1
  1
strokes_ogs.tif
176
     1
290
     0
176
     1
 40
1.0
176
     1
 40
1.0
176
     1
  0
VISUALSTYLE
  5
2D
102
{ACAD_REACTORS
330
29
102
}
330
29
100
AcDbVisualStyle
  2
GouraudWithEdges
 70
     3
177
     3
291
     1
 70
    58
 90
        2
176
     1
 90
        2
176
     1
 90
        1
176
     1
 90
        2
176
     1
 40
0.6
176
     1
 40
30.0
176
     1
 62
     7
420
 16777215
176
     1
 90
        1
176
     1
 90
        0
176
     1
 62
     7
176
     1
 62
   257
176
     1
 90
        1
176
     1
 90
        1
176
     1
 40
1.0
176
     1
 90
        0
176
     1
 62
   257
176
     1
 40
1.0
176
     1
 90
        1
176
     1
 90
        6
176
     1
 90
        2
176
     1
 62
     7
176
     1
 90
        5
176
     1
 90
        0
176
     1
 90
        0
176
     1
290
     0
176
     1
 90
       13
176
     1
 40
0.0
176
     1
 90
        0
176
     1
290
     0
176
     1
290
     1
176
     1
290
     1
176
     1
290
     0
176
     1
290
     0
176
     1
290
     0
176
     1
290
     0
176
     1
290
     0
176
     1
290
     0
176
     1
 90
       50
176
     1
 40
0.0
176
     1
 40
1.0
176
     1
 90
        0
176
     1
 62
    18
420
        0
176
     1
 90
       50
176
     1
 90
        3
176
     1
 62
     5
420
      255
176
     1
290
     0
176
     1
 90
       50
176
     1
 90
       50
176
     1
 90
       50
176
     1
290
     0
176
     1
 90
       50
176
     1
 62
   256
176
     0
 40
1.0
176
     0
 90
        2
176
     1
  1
strokes_ogs.tif
176
     1
290
     0
176
     1
 40
1.0
176
     1
 40
1.0
176
     1
  0
VISUALSTYLE
  5
31
102
{ACAD_REACTORS
330
29
102
}
330
29
100
AcDbVisualStyle
  2
Hidden
 70
     6
177
     3
291
     0
 70
    58
 90
        1
176
     1
 90
        2
176
     1
 90
        2
176
     1
 90
        0
176
     1
 40
0.6
176
     1
 40
30.0
176
     1
 62
     7
420
 16777215
176
     1
 90
        2
176
     1
 90
        2
176
     1
 62
     7
176
     1
 62
   257
176
     1
 90
        2
176
     1
 90
        1
176
     1
 40
40.0
176
     1
 90
        0
176
     1
 62
   257
176
     1
 40
1.0
176
     1
 90
        1
176
     1
 90
        6
176
     1
 90
        2
176
     1
 62
     7
176
     1
 90
        3
176
     1
 90
        0
176
     1
 90
        0
176
     1
290
     0
176
     1
 90
        1
176
     1
 40
0.0
176
     1
 90
        0
176
     1
290
     0
176
     1
290
     1
176
     1
290
     1
176
     1
290
     0
176
     1
290
     0
176
     1
290
     0
176
     1
290
     0
176
     1
290
     0
176
     1
290
     0
176
     1
 90
       50
176
     1
 40
0.0
176
     1
 40
1.0
176
     1
 90
        0
176
     1
 62
    18
420
        0
176
     1
 90
       50
176
     1
 90
        3
176
     1
 62
     5
420
      255
176
     1
290
     0
176
     1
 90
       50
176
     1
 90
       50
176
     1
 90
       50
176
     1
290
     0
176
     1
 90
       50
176
     1
 62
   256
176
     0
 40
1.0
176
     0
 90
        2
176
     1
  1
strokes_ogs.tif
176
     1
290
     0
176
     1
 40
1.0
176
     1
 40
1.0
176
     1
  0
VISUALSTYLE
  5
3F
102
{ACAD_REACTORS
330
29
102
}
330
29
100
AcDbVisualStyle
  2
JitterOff
 70
    20
177
     3
291
     1
 70
    58
 90
        2
176
     0
 90
        2
176
     0
 90
        0
176
     0
 90
        0
176
     0
 40
0.6
176
     0
 40
30.0
176
     0
 62
     7
420
 16777215
176
     0
 90
        1
176
     0
 90
        4
176
     0
 62
     7
176
     0
 62
   257
176
     0
 90
        1
176
     0
 90
        1
176
     0
 40
1.0
176
     0
 90
       10
176
     2
 62
     7
176
     0
 40
1.0
176
     0
 90
        1
176
     0
 90
        6
176
     0
 90
        2
176
     0
 62
     7
176
     0
 90
        5
176
     0
 90
        0
176
     0
 90
        0
176
     0
290
     0
176
     0
 90
        1
176
     0
 40
0.0
176
     0
 90
        0
176
     0
290
     0
176
     0
290
     1
176
     0
290
     1
176
     0
290
     0
176
     0
290
     0
176
     0
290
     0
176
     0
290
     0
176
     0
290
     0
176
     0
290
     0
176
     0
 90
       50
176
     0
 40
0.0
176
     0
 40
1.0
176
     0
 90
        0
176
     0
 62
    18
420
        0
176
     0
 90
       50
176
     0
 90
        3
176
     0
 62
     5
420
      255
176
     0
290
     0
176
     0
 90
       50
176
     0
 90
       50
176
     0
 90
       50
176
     0
290
     0
176
     0
 90
       50
176
     0
 62
   256
176
     0
 40
1.0
176
     0
 90
        2
176
     0
  1
strokes_ogs.tif
176
     0
290
     0
176
     0
 40
1.0
176
     0
 40
1.0
176
     0
  0
VISUALSTYLE
  5
37
102
{ACAD_REACTORS
330
29
102
}
330
29
100
AcDbVisualStyle
  2
Linepattern
 70
    14
177
     3
291
     1
 70
    58
 90
        2
176
     1
 90
        2
176
     1
 90
        0
176
     1
 90
        0
176
     1
 40
0.6
176
     1
 40
30.0
176
     1
 62
     7
420
 16777215
176
     1
 90
        1
176
     1
 90
        4
176
     1
 62
     7
176
     1
 62
   257
176
     1
 90
        7
176
     1
 90
        7
176
     1
 40
1.0
176
     1
 90
        8
176
     1
 62
     7
176
     1
 40
1.0
176
     1
 90
        1
176
     1
 90
        6
176
     1
 90
        2
176
     1
 62
     7
176
     1
 90
        5
176
     1
 90
        0
176
     1
 90
        0
176
     1
290
     0
176
     1
 90
        1
176
     1
 40
0.0
176
     1
 90
        0
176
     1
290
     0
176
     1
290
     1
176
     1
290
     1
176
     1
290
     0
176
     1
290
     0
176
     1
290
     0
176
     1
290
     0
176
     1
290
     0
176
     1
290
     0
176
     1
 90
       50
176
     1
 40
0.0
176
     1
 40
1.0
176
     1
 90
        0
176
     1
 62
    18
420
        0
176
     1
 90
       50
176
     1
 90
        3
176
     1
 62
     5
420
      255
176
     1
290
     0
176
     1
 90
       50
176
     1
 90
       50
176
     1
 90
       50
176
     1
290
     0
176
     1
 90
       50
176
     1
 62
   256
176
     0
 40
1.0
176
     0
 90
        2
176
     1
  1
strokes_ogs.tif
176
     1
290
     0
176
     1
 40
1.0
176
     1
 40
1.0
176
     1
  0
VISUALSTYLE
  5
40
102
{ACAD_REACTORS
330
29
102
}
330
29
100
AcDbVisualStyle
  2
OverhangOff
 70
    21
177
     3
291
     1
 70
    58
 90
        2
176
     0
 90
        2
176
     0
 90
        0
176
     0
 90
        0
176
     0
 40
0.6
176
     0
 40
30.0
176
     0
 62
     7
420
 16777215
176
     0
 90
        1
176
     0
 90
        4
176
     0
 62
     7
176
     0
 62
   257
176
     0
 90
        1
176
     0
 90
        1
176
     0
 40
1.0
176
     0
 90
        9
176
     2
 62
     7
176
     0
 40
1.0
176
     0
 90
        1
176
     0
 90
        6
176
     0
 90
        2
176
     0
 62
     7
176
     0
 90
        5
176
     0
 90
        0
176
     0
 90
        0
176
     0
290
     0
176
     0
 90
        1
176
     0
 40
0.0
176
     0
 90
        0
176
     0
290
     0
176
     0
290
     1
176
     0
290
     1
176
     0
290
     0
176
     0
290
     0
176
     0
290
     0
176
     0
290
     0
176
     0
290
     0
176
     0
290
     0
176
     0
 90
       50
176
     0
 40
0.0
176
     0
 40
1.0
176
     0
 90
        0
176
     0
 62
    18
420
        0
176
     0
 90
       50
176
     0
 90
        3
176
     0
 62
     5
420
      255
176
     0
290
     0
176
     0
 90
       50
176
     0
 90
       50
176
     0
 90
       50
176
     0
290
     0
176
     0
 90
       50
176
     0
 62
   256
176
     0
 40
1.0
176
     0
 90
        2
176
     0
  1
strokes_ogs.tif
176
     0
290
     0
176
     0
 40
1.0
176
     0
 40
1.0
176
     0
  0
VISUALSTYLE
  5
33
102
{ACAD_REACTORS
330
29
102
}
330
29
100
AcDbVisualStyle
  2
Realistic
 70
     8
177
     3
291
     0
 70
    58
 90
        2
176
     1
 90
        3
176
     1
 90
        0
176
     1
 90
        2
176
     1
 40
0.6
176
     1
 40
30.0
176
     1
 62
     7
420
 16777215
176
     1
 90
        0
176
     1
 90
        0
176
     1
 62
     7
176
     1
 62
   257
176
     1
 90
        1
176
     1
 90
        1
176
     1
 40
1.0
176
     1
 90
        8
176
     1
 62
   257
176
     1
 40
1.0
176
     1
 90
        1
176
     1
 90
        6
176
     1
 90
        2
176
     1
 62
     7
176
     1
 90
        3
176
     1
 90
        0
176
     1
 90
        0
176
     1
290
     0
176
     1
 90
       13
176
     1
 40
0.0
176
     1
 90
        0
176
     1
290
     0
176
     1
290
     1
176
     1
290
     1
176
     1
290
     0
176
     1
290
     0
176
     1
290
     0
176
     1
290
     0
176
     1
290
     0
176
     1
290
     0
176
     1
 90
       50
176
     1
 40
0.0
176
     1
 40
1.0
176
     1
 90
        0
176
     1
 62
    18
420
        0
176
     1
 90
       50
176
     1
 90
        3
176
     1
 62
     5
420
      255
176
     1
290
     0
176
     1
 90
       50
176
     1
 90
       50
176
     1
 90
       50
176
     1
290
     0
176
     1
 90
       50
176
     1
 62
   256
176
     0
 40
1.0
176
     0
 90
        2
176
     1
  1
strokes_ogs.tif
176
     1
290
     0
176
     1
 40
1.0
176
     1
 40
1.0
176
     1
  0
VISUALSTYLE
  5
3E
102
{ACAD_REACTORS
330
29
102
}
330
29
100
AcDbVisualStyle
  2
Shaded
 70
    27
177
     3
291
     0
 70
    58
 90
        2
176
     1
 90
        2
176
     1
 90
        1
176
     1
 90
        2
176
     1
 40
0.6
176
     1
 40
30.0
176
     1
 62
     7
420
 16777215
176
     1
 90
        0
176
     1
 90
        4
176
     1
 62
     7
176
     1
 62
   257
176
     1
 90
        1
176
     1
 90
        1
176
     1
 40
1.0
176
     1
 90
        8
176
     1
 62
   257
176
     1
 40
1.0
176
     1
 90
        1
176
     1
 90
        6
176
     1
 90
        2
176
     1
 62
     8
420
  7895160
176
     1
 90
        3
176
     1
 90
        0
176
     1
 90
        0
176
     1
290
     0
176
     1
 90
        5
176
     1
 40
0.0
176
     1
 90
        0
176
     1
290
     0
176
     1
290
     1
176
     1
290
     1
176
     1
290
     0
176
     1
290
     0
176
     1
290
     0
176
     1
290
     0
176
     1
290
     0
176
     1
290
     0
176
     1
 90
       50
176
     1
 40
0.0
176
     1
 40
1.0
176
     1
 90
        0
176
     1
 62
    18
420
        0
176
     1
 90
       50
176
     1
 90
        3
176
     1
 62
     5
420
      255
176
     1
290
     0
176
     1
 90
       50
176
     1
 90
       50
176
     1
 90
       50
176
     1
290
     0
176
     1
 90
       50
176
     1
 62
   256
176
     0
 40
1.0
176
     0
 90
        2
176
     1
  1
strokes_ogs.tif
176
     1
290
     0
176
     1
 40
1.0
176
     1
 40
1.0
176
     1
  0
VISUALSTYLE
  5
3D
102
{ACAD_REACTORS
330
29
102
}
330
29
100
AcDbVisualStyle
  2
Shaded with edges
 70
    26
177
     3
291
     0
 70
    58
 90
        2
176
     1
 90
        2
176
     1
 90
        1
176
     1
 90
        2
176
     1
 40
0.6
176
     1
 40
30.0
176
     1
 62
     7
420
 16777215
176
     1
 90
        1
176
     1
 90
        2
176
     1
 62
     7
176
     1
 62
   257
176
     1
 90
        2
176
     1
 90
        1
176
     1
 40
1.0
176
     1
 90
        8
176
     1
 62
   257
176
     1
 40
1.0
176
     1
 90
        1
176
     1
 90
        6
176
     1
 90
        2
176
     1
 62
     7
176
     1
 90
        3
176
     1
 90
        0
176
     1
 90
        0
176
     1
290
     0
176
     1
 90
        5
176
     1
 40
0.0
176
     1
 90
        0
176
     1
290
     0
176
     1
290
     1
176
     1
290
     1
176
     1
290
     0
176
     1
290
     0
176
     1
290
     0
176
     1
290
     0
176
     1
290
     0
176
     1
290
     0
176
     1
 90
       50
176
     1
 40
0.0
176
     1
 40
1.0
176
     1
 90
        0
176
     1
 62
    18
420
        0
176
     1
 90
       50
176
     1
 90
        3
176
     1
 62
     5
420
      255
176
     1
290
     0
176
     1
 90
       50
176
     1
 90
       50
176
     1
 90
       50
176
     1
290
     0
176
     1
 90
       50
176
     1
 62
   256
176
     0
 40
1.0
176
     0
 90
        2
176
     1
  1
strokes_ogs.tif
176
     1
290
     0
176
     1
 40
1.0
176
     1
 40
1.0
176
     1
  0
VISUALSTYLE
  5
3A
102
{ACAD_REACTORS
330
29
102
}
330
29
100
AcDbVisualStyle
  2
Shades of Gray
 70
    23
177
     3
291
     0
 70
    58
 90
        2
176
     1
 90
        2
176
     1
 90
        3
176
     1
 90
        0
176
     1
 40
0.6
176
     1
 40
30.0
176
     1
 62
     7
420
 16777215
176
     1
 90
        2
176
     1
 90
        2
176
     1
 62
     7
176
     1
 62
     7
176
     1
 90
        1
176
     1
 90
        1
176
     1
 40
40.0
176
     1
 90
        8
176
     1
 62
     7
176
     1
 40
1.0
176
     1
 90
        1
176
     1
 90
        6
176
     1
 90
        2
176
     1
 62
     7
176
     1
 90
        3
176
     1
 90
        0
176
     1
 90
        0
176
     1
290
     0
176
     1
 90
        1
176
     1
 40
0.0
176
     1
 90
        0
176
     1
290
     0
176
     1
290
     1
176
     1
290
     1
176
     1
290
     0
176
     1
290
     0
176
     1
290
     0
176
     1
290
     0
176
     1
290
     0
176
     1
290
     0
176
     1
 90
       50
176
     1
 40
0.0
176
     1
 40
1.0
176
     1
 90
        0
176
     1
 62
    18
420
        0
176
     1
 90
       50
176
     1
 90
        3
176
     1
 62
     5
420
      255
176
     1
290
     0
176
     1
 90
       50
176
     1
 90
       50
176
     1
 90
       50
176
     1
290
     0
176
     1
 90
       50
176
     1
 62
   256
176
     0
 40
1.0
176
     0
 90
        2
176
     1
  1
strokes_ogs.tif
176
     1
290
     0
176
     1
 40
1.0
176
     1
 40
1.0
176
     1
  0
VISUALSTYLE
  5
3B
102
{ACAD_REACTORS
330
29
102
}
330
29
100
AcDbVisualStyle
  2
Sketchy
 70
    24
177
     3
291
     0
 70
    58
 90
        1
176
     1
 90
        2
176
     1
 90
        2
176
     1
 90
        0
176
     1
 40
0.6
176
     1
 40
30.0
176
     1
 62
     7
420
 16777215
176
     1
 90
        2
176
     1
 90
        2
176
     1
 62
     7
176
     1
 62
     7
176
     1
 90
        1
176
     1
 90
        1
176
     1
 40
40.0
176
     1
 90
       11
176
     1
 62
     7
176
     1
 40
1.0
176
     1
 90
        1
176
     1
 90
        6
176
     1
 90
        2
176
     1
 62
     7
176
     1
 90
        6
176
     1
 90
        0
176
     1
 90
        0
176
     1
290
     0
176
     1
 90
        1
176
     1
 40
0.0
176
     1
 90
        0
176
     1
290
     0
176
     1
290
     1
176
     1
290
     1
176
     1
290
     0
176
     1
290
     0
176
     1
290
     0
176
     1
290
     0
176
     1
290
     0
176
     1
290
     0
176
     1
 90
       50
176
     1
 40
0.0
176
     1
 40
1.0
176
     1
 90
        0
176
     1
 62
    18
420
        0
176
     1
 90
       50
176
     1
 90
        3
176
     1
 62
     5
420
      255
176
     1
290
     0
176
     1
 90
       50
176
     1
 90
       50
176
     1
 90
       50
176
     1
290
     0
176
     1
 90
       50
176
     1
 62
   256
176
     0
 40
1.0
176
     0
 90
        2
176
     1
  1
strokes_ogs.tif
176
     1
290
     0
176
     1
 40
1.0
176
     1
 40
1.0
176
     1
  0
VISUALSTYLE
  5
36
102
{ACAD_REACTORS
330
29
102
}
330
29
100
AcDbVisualStyle
  2
Thicken
 70
    13
177
     3
291
     1
 70
    58
 90
        2
176
     1
 90
        2
176
     1
 90
        0
176
     1
 90
        0
176
     1
 40
0.6
176
     1
 40
30.0
176
     1
 62
     7
420
 16777215
176
     1
 90
        1
176
     1
 90
        4
176
     1
 62
     7
176
     1
 62
   257
176
     1
 90
        1
176
     1
 90
        1
176
     1
 40
1.0
176
     1
 90
       12
176
     1
 62
     7
176
     1
 40
1.0
176
     1
 90
        1
176
     1
 90
        6
176
     1
 90
        2
176
     1
 62
     7
176
     1
 90
        5
176
     1
 90
        0
176
     1
 90
        0
176
     1
290
     0
176
     1
 90
        1
176
     1
 40
0.0
176
     1
 90
        0
176
     1
290
     0
176
     1
290
     1
176
     1
290
     1
176
     1
290
     0
176
     1
290
     0
176
     1
290
     0
176
     1
290
     0
176
     1
290
     0
176
     1
290
     0
176
     1
 90
       50
176
     1
 40
0.0
176
     1
 40
1.0
176
     1
 90
        0
176
     1
 62
    18
420
        0
176
     1
 90
       50
176
     1
 90
        3
176
     1
 62
     5
420
      255
176
     1
290
     0
176
     1
 90
       50
176
     1
 90
       50
176
     1
 90
       50
176
     1
290
     0
176
     1
 90
       50
176
     1
 62
   256
176
     0
 40
1.0
176
     0
 90
        2
176
     1
  1
strokes_ogs.tif
176
     1
290
     0
176
     1
 40
1.0
176
     1
 40
1.0
176
     1
  0
VISUALSTYLE
  5
30
102
{ACAD_REACTORS
330
29
102
}
330
29
100
AcDbVisualStyle
  2
Wireframe
 70
     5
177
     3
291
     0
 70
    58
 90
        0
176
     1
 90
        2
176
     1
 90
        0
176
     1
 90
        0
176
     1
 40
0.6
176
     1
 40
30.0
176
     1
 62
     7
420
 16777215
176
     1
 90
        1
176
     1
 90
        4
176
     1
 62
     7
176
     1
 62
   257
176
     1
 90
        1
176
     1
 90
        1
176
     1
 40
1.0
176
     1
 90
        0
176
     1
 62
   257
176
     1
 40
1.0
176
     1
 90
        1
176
     1
 90
        6
176
     1
 90
        2
176
     1
 62
     7
176
     1
 90
        3
176
     1
 90
        0
176
     1
 90
        0
176
     1
290
     0
176
     1
 90
        1
176
     1
 40
0.0
176
     1
 90
        0
176
     1
290
     0
176
     1
290
     1
176
     1
290
     1
176
     1
290
     0
176
     1
290
     0
176
     1
290
     0
176
     1
290
     0
176
     1
290
     0
176
     1
290
     0
176
     1
 90
       50
176
     1
 40
0.0
176
     1
 40
1.0
176
     1
 90
        0
176
     1
 62
    18
420
        0
176
     1
 90
       50
176
     1
 90
        3
176
     1
 62
     5
420
      255
176
     1
290
     0
176
     1
 90
       50
176
     1
 90
       50
176
     1
 90
       50
176
     1
290
     0
176
     1
 90
       50
176
     1
 62
   256
176
     0
 40
1.0
176
     0
 90
        2
176
     1
  1
strokes_ogs.tif
176
     1
290
     0
176
     1
 40
1.0
176
     1
 40
1.0
176
     1
  0
VISUALSTYLE
  5
3C
102
{ACAD_REACTORS
330
29
102
}
330
29
100
AcDbVisualStyle
  2
X-Ray
 70
    25
177
     3
291
     0
 70
    58
 90
        2
176
     1
 90
        2
176
     1
 90
        1
176
     1
 90
        1
176
     1
 40
0.5
176
     1
 40
30.0
176
     1
 62
     7
420
 16777215
176
     1
 90
        1
176
     1
 90
        0
176
     1
 62
     7
176
     1
 62
   257
176
     1
 90
        1
176
     1
 90
        1
176
     1
 40
1.0
176
     1
 90
        8
176
     1
 62
     7
176
     1
 40
1.0
176
     1
 90
        1
176
     1
 90
        6
176
     1
 90
        2
176
     1
 62
     7
176
     1
 90
        3
176
     1
 90
        0
176
     1
 90
        0
176
     1
290
     0
176
     1
 90
       13
176
     1
 40
0.0
176
     1
 90
        0
176
     1
290
     0
176
     1
290
     1
176
     1
290
     1
176
     1
290
     0
176
     1
290
     0
176
     1
290
     0
176
     1
290
     0
176
     1
290
     0
176
     1
290
     0
176
     1
 90
       50
176
     1
 40
0.0
176
     1
 40
1.0
176
     1
 90
        0
176
     1
 62
    18
420
        0
176
     1
 90
       50
176
     1
 90
        3
176
     1
 62
     5
420
      255
176
     1
290
     0
176
     1
 90
       50
176
     1
 90
       50
176
     1
 90
       50
176
     1
290
     0
176
     1
 90
       50
176
     1
 62
   256
176
     0
 40
1.0
176
     0
 90
        2
176
     1
  1
strokes_ogs.tif
176
     1
290
     0
176
     1
 40
1.0
176
     1
 40
1.0
176
     1
  0
DICTIONARYVAR
  5
A5
102
{ACAD_REACTORS
330
A0
102
}
330
A0
100
DictionaryVariables
280
     0
  1
1:1
  0
DICTIONARYVAR
  5
A2
102
{ACAD_REACTORS
330
A0
102
}
330
A0
100
DictionaryVariables
280
     0
  1
STANDARD
  0
DICTIONARYVAR
  5
A1
102
{ACAD_REACTORS
330
A0
102
}
330
A0
100
DictionaryVariables
280
     0
  1
STANDARD
  0
DICTIONARYVAR
  5
A3
102
{ACAD_REACTORS
330
A0
102
}
330
A0
100
DictionaryVariables
280
     0
  1
Imperial24
  0
DICTIONARYVAR
  5
A4
102
{ACAD_REACTORS
330
A0
102
}
330
A0
100
DictionaryVariables
280
     0
  1
Imperial24
  0
DICTIONARY
  5
1A
330
19
100
AcDbDictionary
280
     1
281
     1
  3
BUMPTILE
360
1C
  3
DIFFUSETILE
360
1B
  3
OPACITYTILE
360
1F
  3
REFLECTIONTILE
360
1E
  3
REFRACTIONTILE
360
20
  3
SPECULARTILE
360
1D
  0
DICTIONARY
  5
12
330
11
100
AcDbDictionary
280
     1
281
     1
  3
BUMPTILE
360
14
  3
DIFFUSETILE
360
13
  3
OPACITYTILE
360
17
  3
REFLECTIONTILE
360
16
  3
REFRACTIONTILE
360
18
  3
SPECULARTILE
360
15
  0
DICTIONARY
  5
22
330
21
100
AcDbDictionary
280
     1
281
     1
  3
BUMPTILE
360
24
  3
DIFFUSETILE
360
23
  3
OPACITYTILE
360
27
  3
REFLECTIONTILE
360
26
  3
REFRACTIONTILE
360
28
  3
SPECULARTILE
360
25
  0
DICTIONARY
  5
A6
330
65
100
AcDbDictionary
280
     1
281
     1
  3
ACAD_ROUNDTRIP_2008_TABLESTYLE_CELLSTYLEMAP
360
A7
  0
XRECORD
  5
1C
102
{ACAD_REACTORS
330
1A
102
}
330
1A
100
AcDbXrecord
280
     1
270
     1
271
     1
  0
XRECORD
  5
1B
102
{ACAD_REACTORS
330
1A
102
}
330
1A
100
AcDbXrecord
280
     1
270
     1
271
     1
  0
XRECORD
  5
1F
102
{ACAD_REACTORS
330
1A
102
}
330
1A
100
AcDbXrecord
280
     1
270
     1
271
     1
  0
XRECORD
  5
1E
102
{ACAD_REACTORS
330
1A
102
}
330
1A
100
AcDbXrecord
280
     1
270
     1
271
     1
  0
XRECORD
  5
20
102
{ACAD_REACTORS
330
1A
102
}
330
1A
100
AcDbXrecord
280
     1
270
     1
271
     1
  0
XRECORD
  5
1D
102
{ACAD_REACTORS
330
1A
102
}
330
1A
100
AcDbXrecord
280
     1
270
     1
271
     1
  0
XRECORD
  5
14
102
{ACAD_REACTORS
330
12
102
}
330
12
100
AcDbXrecord
280
     1
270
     1
271
     1
  0
XRECORD
  5
13
102
{ACAD_REACTORS
330
12
102
}
330
12
100
AcDbXrecord
280
     1
270
     1
271
     1
  0
XRECORD
  5
17
102
{ACAD_REACTORS
330
12
102
}
330
12
100
AcDbXrecord
280
     1
270
     1
271
     1
  0
XRECORD
  5
16
102
{ACAD_REACTORS
330
12
102
}
330
12
100
AcDbXrecord
280
     1
270
     1
271
     1
  0
XRECORD
  5
18
102
{ACAD_REACTORS
330
12
102
}
330
12
100
AcDbXrecord
280
     1
270
     1
271
     1
  0
XRECORD
  5
15
102
{ACAD_REACTORS
330
12
102
}
330
12
100
AcDbXrecord
280
     1
270
     1
271
     1
  0
XRECORD
  5
24
102
{ACAD_REACTORS
330
22
102
}
330
22
100
AcDbXrecord
280
     1
270
     1
271
     1
  0
XRECORD
  5
23
102
{ACAD_REACTORS
330
22
102
}
330
22
100
AcDbXrecord
280
     1
270
     1
271
     1
  0
XRECORD
  5
27
102
{ACAD_REACTORS
330
22
102
}
330
22
100
AcDbXrecord
280
     1
270
     1
271
     1
  0
XRECORD
  5
26
102
{ACAD_REACTORS
330
22
102
}
330
22
100
AcDbXrecord
280
     1
270
     1
271
     1
  0
XRECORD
  5
28
102
{ACAD_REACTORS
330
22
102
}
330
22
100
AcDbXrecord
280
     1
270
     1
271
     1
  0
XRECORD
  5
25
102
{ACAD_REACTORS
330
22
102
}
330
22
100
AcDbXrecord
280
     1
270
     1
271
     1
  0
CELLSTYLEMAP
  5
A7
102
{ACAD_REACTORS
330
A6
102
}
330
A6
100
AcDbCellStyleMap
 90
        3
300
CELLSTYLE
  1
TABLEFORMAT_BEGIN
 90
        5
170
     1
 91
        0
 92
    32768
 62
   257
 93
        1
300
CONTENTFORMAT
  1
CONTENTFORMAT_BEGIN
 90
        0
 91
        0
 92
      512
 93
        0
300

 40
0.0
140
1.0
 94
        5
 62
     0
340
55
144
0.25
309
CONTENTFORMAT_END
171
     0
 94
        0
309
TABLEFORMAT_END
  1
CELLSTYLE_BEGIN
 90
        1
 91
        1
300
_TITLE
309
CELLSTYLE_END
300
CELLSTYLE
  1
TABLEFORMAT_BEGIN
 90
        5
170
     1
 91
        0
 92
        0
 62
   257
 93
        1
300
CONTENTFORMAT
  1
CONTENTFORMAT_BEGIN
 90
        0
 91
        0
 92
      512
 93
        0
300

 40
0.0
140
1.0
 94
        5
 62
     0
340
55
144
0.18
309
CONTENTFORMAT_END
171
     0
 94
        0
309
TABLEFORMAT_END
  1
CELLSTYLE_BEGIN
 90
        2
 91
        1
300
_HEADER
309
CELLSTYLE_END
300
CELLSTYLE
  1
TABLEFORMAT_BEGIN
 90
        5
170
     1
 91
        0
 92
        0
 62
   257
 93
        1
300
CONTENTFORMAT
  1
CONTENTFORMAT_BEGIN
 90
        0
 91
        0
 92
      512
 93
        0
300

 40
0.0
140
1.0
 94
        2
 62
     0
340
55
144
0.18
309
CONTENTFORMAT_END
171
     0
 94
        0
309
TABLEFORMAT_END
  1
CELLSTYLE_BEGIN
 90
        3
 91
        2
300
_DATA
309
CELLSTYLE_END
  0
ENDSEC
  0
EOF
