  0
SECTION
  2
HEADER
  9
$ACADVER
  1
AC1032
  9
$ACADMAINTVER
 90
      251
  9
$DWGCODEPAGE
  3
ANSI_1252
  9
$REQUIREDVERSIONS
160
                 0
  9
$INSBASE
 10
0.0
 20
0.0
 30
0.0
  9
$EXTMIN
 10
1.000000000000000E+20
 20
1.000000000000000E+20
 30
1.000000000000000E+20
  9
$EXTMAX
 10
-1.000000000000000E+20
 20
-1.000000000000000E+20
 30
-1.000000000000000E+20
  9
$LIMMIN
 10
0.0
 20
0.0
  9
$LIMMAX
 10
12.0
 20
9.0
  9
$ORTHOMODE
 70
     0
  9
$REGENMODE
 70
     1
  9
$FILLMODE
 70
     1
  9
$QTEXTMODE
 70
     0
  9
$MIRRTEXT
 70
     0
  9
$LTSCALE
 40
1.0
  9
$ATTMODE
 70
     1
  9
$TEXTSIZE
 40
0.2
  9
$TRACEWID
 40
0.05
  9
$TEXTSTYLE
  7
Standard
  9
$CLAYER
  8
0
  9
$CELTYPE
  6
ByLayer
  9
$CECOLOR
 62
   256
  9
$CELTSCALE
 40
1.0
  9
$DISPSILH
 70
     0
  9
$DIMSCALE
 40
1.0
  9
$DIMASZ
 40
0.18
  9
$DIMEXO
 40
0.0625
  9
$DIMDLI
 40
0.38
  9
$DIMRND
 40
0.0
  9
$DIMDLE
 40
0.0
  9
$DIMEXE
 40
0.18
  9
$DIMTP
 40
0.0
  9
$DIMTM
 40
0.0
  9
$DIMTXT
 40
0.18
  9
$DIMCEN
 40
0.09
  9
$DIMTSZ
 40
0.0
  9
$DIMTOL
 70
     0
  9
$DIMLIM
 70
     0
  9
$DIMTIH
 70
     1
  9
$DIMTOH
 70
     1
  9
$DIMSE1
 70
     0
  9
$DIMSE2
 70
     0
  9
$DIMTAD
 70
     0
  9
$DIMZIN
 70
     0
  9
$DIMBLK
  1

  9
$DIMASO
 70
     1
  9
$DIMSHO
 70
     1
  9
$DIMPOST
  1

  9
$DIMAPOST
  1

  9
$DIMALT
 70
     0
  9
$DIMALTD
 70
     2
  9
$DIMALTF
 40
25.4
  9
$DIMLFAC
 40
1.0
  9
$DIMTOFL
 70
     0
  9
$DIMTVP
 40
0.0
  9
$DIMTIX
 70
     0
  9
$DIMSOXD
 70
     0
  9
$DIMSAH
 70
     0
  9
$DIMBLK1
  1

  9
$DIMBLK2
  1

  9
$DIMSTYLE
  2
Standard
  9
$DIMCLRD
 70
     0
  9
$DIMCLRE
 70
     0
  9
$DIMCLRT
 70
     0
  9
$DIMTFAC
 40
1.0
  9
$DIMGAP
 40
0.09
  9
$DIMJUST
 70
     0
  9
$DIMSD1
 70
     0
  9
$DIMSD2
 70
     0
  9
$DIMTOLJ
 70
     1
  9
$DIMTZIN
 70
     0
  9
$DIMALTZ
 70
     0
  9
$DIMALTTZ
 70
     0
  9
$DIMUPT
 70
     0
  9
$DIMDEC
 70
     4
  9
$DIMTDEC
 70
     4
  9
$DIMALTU
 70
     2
  9
$DIMALTTD
 70
     2
  9
$DIMTXSTY
  7
Standard
  9
$DIMAUNIT
 70
     0
  9
$DIMADEC
 70
     0
  9
$DIMALTRND
 40
0.0
  9
$DIMAZIN
 70
     0
  9
$DIMDSEP
 70
    46
  9
$DIMATFIT
 70
     3
  9
$DIMFRAC
 70
     0
  9
$DIMLDRBLK
  1

  9
$DIMLUNIT
 70
     2
  9
$DIMLWD
 70
    -2
  9
$DIMLWE
 70
    -2
  9
$DIMTMOVE
 70
     0
  9
$DIMFXL
 40
1.0
  9
$DIMFXLON
 70
     0
  9
$DIMJOGANG
 40
0.7853981633974483
  9
$DIMTFILL
 70
     0
  9
$DIMTFILLCLR
 70
     0
  9
$DIMARCSYM
 70
     0
  9
$DIMLTYPE
  6

  9
$DIMLTEX1
  6

  9
$DIMLTEX2
  6

  9
$DIMTXTDIRECTION
 70
     0
  9
$LUNITS
 70
     2
  9
$LUPREC
 70
     4
  9
$SKETCHINC
 40
0.1
  9
$FILLETRAD
 40
0.0
  9
$AUNITS
 70
     0
  9
$AUPREC
 70
     0
  9
$MENU
  1
.
  9
$ELEVATION
 40
0.0
  9
$PELEVATION
 40
0.0
  9
$THICKNESS
 40
0.0
  9
$LIMCHECK
 70
     0
  9
$CHAMFERA
 40
0.0
  9
$CHAMFERB
 40
0.0
  9
$CHAMFERC
 40
0.0
  9
$CHAMFERD
 40
0.0
  9
$SKPOLY
 70
     0
  9
$TDCREATE
 40
2459989.480011574
  9
$TDUCREATE
 40
2459989.438344908
  9
$TDUPDATE
 40
2459989.480011574
  9
$TDUUPDATE
 40
2459989.438344908
  9
$TDINDWG
 40
0.0000000000
  9
$TDUSRTIMER
 40
0.0000000000
  9
$USRTIMER
 70
     1
  9
$ANGBASE
 50
0.0
  9
$ANGDIR
 70
     0
  9
$PDMODE
 70
     0
  9
$PDSIZE
 40
0.0
  9
$PLINEWID
 40
0.0
  9
$SPLFRAME
 70
     0
  9
$SPLINETYPE
 70
     6
  9
$SPLINESEGS
 70
     8
  9
$HANDSEED
  5
9F
  9
$SURFTAB1
 70
     6
  9
$SURFTAB2
 70
     6
  9
$SURFTYPE
 70
     6
  9
$SURFU
 70
     6
  9
$SURFV
 70
     6
  9
$UCSBASE
  2

  9
$UCSNAME
  2

  9
$UCSORG
 10
0.0
 20
0.0
 30
0.0
  9
$UCSXDIR
 10
1.0
 20
0.0
 30
0.0
  9
$UCSYDIR
 10
0.0
 20
1.0
 30
0.0
  9
$UCSORTHOREF
  2

  9
$UCSORTHOVIEW
 70
     0
  9
$UCSORGTOP
 10
0.0
 20
0.0
 30
0.0
  9
$UCSORGBOTTOM
 10
0.0
 20
0.0
 30
0.0
  9
$UCSORGLEFT
 10
0.0
 20
0.0
 30
0.0
  9
$UCSORGRIGHT
 10
0.0
 20
0.0
 30
0.0
  9
$UCSORGFRONT
 10
0.0
 20
0.0
 30
0.0
  9
$UCSORGBACK
 10
0.0
 20
0.0
 30
0.0
  9
$PUCSBASE
  2

  9
$PUCSNAME
  2

  9
$PUCSORG
 10
0.0
 20
0.0
 30
0.0
  9
$PUCSXDIR
 10
1.0
 20
0.0
 30
0.0
  9
$PUCSYDIR
 10
0.0
 20
1.0
 30
0.0
  9
$PUCSORTHOREF
  2

  9
$PUCSORTHOVIEW
 70
     0
  9
$PUCSORGTOP
 10
0.0
 20
0.0
 30
0.0
  9
$PUCSORGBOTTOM
 10
0.0
 20
0.0
 30
0.0
  9
$PUCSORGLEFT
 10
0.0
 20
0.0
 30
0.0
  9
$PUCSORGRIGHT
 10
0.0
 20
0.0
 30
0.0
  9
$PUCSORGFRONT
 10
0.0
 20
0.0
 30
0.0
  9
$PUCSORGBACK
 10
0.0
 20
0.0
 30
0.0
  9
$USERI1
 70
     0
  9
$USERI2
 70
     0
  9
$USERI3
 70
     0
  9
$USERI4
 70
     0
  9
$USERI5
 70
     0
  9
$USERR1
 40
0.0
  9
$USERR2
 40
0.0
  9
$USERR3
 40
0.0
  9
$USERR4
 40
0.0
  9
$USERR5
 40
0.0
  9
$WORLDVIEW
 70
     1
  9
$SHADEDGE
 70
     3
  9
$SHADEDIF
 70
    70
  9
$TILEMODE
 70
     1
  9
$MAXACTVP
 70
    64
  9
$PINSBASE
 10
0.0
 20
0.0
 30
0.0
  9
$PLIMCHECK
 70
     0
  9
$PEXTMIN
 10
1.000000000000000E+20
 20
1.000000000000000E+20
 30
1.000000000000000E+20
  9
$PEXTMAX
 10
-1.000000000000000E+20
 20
-1.000000000000000E+20
 30
-1.000000000000000E+20
  9
$PLIMMIN
 10
0.0
 20
0.0
  9
$PLIMMAX
 10
12.0
 20
9.0
  9
$UNITMODE
 70
     0
  9
$VISRETAIN
 70
     1
  9
$PLINEGEN
 70
     0
  9
$PSLTSCALE
 70
     1
  9
$TREEDEPTH
 70
  3020
  9
$CMLSTYLE
  2
Standard
  9
$CMLJUST
 70
     0
  9
$CMLSCALE
 40
1.0
  9
$PROXYGRAPHICS
 70
     1
  9
$MEASUREMENT
 70
     0
  9
$CELWEIGHT
370
    -1
  9
$ENDCAPS
280
     0
  9
$JOINSTYLE
280
     0
  9
$LWDISPLAY
290
     1
  9
$INSUNITS
 70
     4
  9
$HYPERLINKBASE
  1

  9
$STYLESHEET
  1

  9
$XEDIT
290
     1
  9
$CEPSNTYPE
380
     0
  9
$PSTYLEMODE
290
     1
  9
$FINGERPRINTGUID
  2
{C79A3805-F8FB-D343-A526-31C4AA3397DF}
  9
$VERSIONGUID
  2
{1FCF318C-21CE-0746-B819-ECBEF4A98AAE}
  9
$EXTNAMES
290
     1
  9
$PSVPSCALE
 40
0.0
  9
$OLESTARTUP
290
     0
  9
$SORTENTS
280
   127
  9
$INDEXCTL
280
     0
  9
$HIDETEXT
280
     1
  9
$XCLIPFRAME
280
     2
  9
$HALOGAP
280
     0
  9
$OBSCOLOR
 70
   257
  9
$OBSLTYPE
280
     0
  9
$INTERSECTIONDISPLAY
280
     0
  9
$INTERSECTIONCOLOR
 70
   257
  9
$DIMASSOC
280
     2
  9
$PROJECTNAME
  1

  9
$CAMERADISPLAY
290
     0
  9
$LENSLENGTH
 40
50.0
  9
$CAMERAHEIGHT
 40
0.0
  9
$STEPSPERSEC
 40
2.0
  9
$STEPSIZE
 40
6.0
  9
$3DDWFPREC
 40
2.0
  9
$PSOLWIDTH
 40
0.25
  9
$PSOLHEIGHT
 40
4.0
  9
$LOFTANG1
 40
1.570796326794896
  9
$LOFTANG2
 40
1.570796326794896
  9
$LOFTMAG1
 40
0.0
  9
$LOFTMAG2
 40
0.0
  9
$LOFTPARAM
 70
     7
  9
$LOFTNORMALS
280
     1
  9
$LATITUDE
 40
37.795
  9
$LONGITUDE
 40
-122.394
  9
$NORTHDIRECTION
 40
0.0
  9
$TIMEZONE
 70
 -8000
  9
$LIGHTGLYPHDISPLAY
280
     1
  9
$TILEMODELIGHTSYNCH
280
     1
  9
$CMATERIAL
347
11
  9
$SOLIDHIST
280
     0
  9
$SHOWHIST
280
     1
  9
$DWFFRAME
280
     2
  9
$DGNFRAME
280
     0
  9
$REALWORLDSCALE
290
     1
  9
$INTERFERECOLOR
 62
     1
  9
$INTERFEREOBJVS
345
33
  9
$INTERFEREVPVS
346
30
  9
$CSHADOW
280
     0
  9
$SHADOWPLANELOCATION
 40
0.0
  0
ENDSEC
  0
SECTION
  2
CLASSES
  0
CLASS
  1
ACDBDICTIONARYWDFLT
  2
AcDbDictionaryWithDefault
  3
ObjectDBX Classes
 90
        0
 91
        1
280
     0
281
     0
  0
CLASS
  1
MATERIAL
  2
AcDbMaterial
  3
ObjectDBX Classes
 90
     1153
 91
        3
280
     0
281
     0
  0
CLASS
  1
VISUALSTYLE
  2
AcDbVisualStyle
  3
ObjectDBX Classes
 90
     4095
 91
       24
280
     0
281
     0
  0
CLASS
  1
SCALE
  2
AcDbScale
  3
ObjectDBX Classes
 90
     1153
 91
       17
280
     0
281
     0
  0
CLASS
  1
TABLESTYLE
  2
AcDbTableStyle
  3
ObjectDBX Classes
 90
     4095
 91
        1
280
     0
281
     0
  0
CLASS
  1
MLEADERSTYLE
  2
AcDbMLeaderStyle
  3
ACDB_MLEADERSTYLE_CLASS
 90
     4095
 91
        1
280
     0
281
     0
  0
CLASS
  1
ACDBSECTIONVIEWSTYLE
  2
AcDbSectionViewStyle
  3
ObjectDBX Classes
 90
     1025
 91
        1
280
     0
281
     0
  0
CLASS
  1
ACDBDETAILVIEWSTYLE
  2
AcDbDetailViewStyle
  3
ObjectDBX Classes
 90
     1025
 91
        1
280
     0
281
     0
  0
CLASS
  1
DICTIONARYVAR
  2
AcDbDictionaryVar
  3
ObjectDBX Classes
 90
        0
 91
        5
280
     0
281
     0
  0
CLASS
  1
CELLSTYLEMAP
  2
AcDbCellStyleMap
  3
ObjectDBX Classes
 90
     1152
 91
        1
280
     0
281
     0
  0
ENDSEC
  0
SECTION
  2
TABLES
  0
TABLE
  2
VPORT
  5
8
330
0
100
AcDbSymbolTable
 70
     1
  0
VPORT
  5
57
330
8
100
AcDbSymbolTableRecord
100
AcDbViewportTableRecord
  2
*Active
 70
     0
 10
0.0
 20
0.0
 11
1.0
 21
1.0
 12
0.0
 22
0.0
 13
0.0
 23
0.0
 14
1.0
 24
1.0
 15
0.0
 25
0.0
 16
0.0
 26
0.0
 36
1.0
 17
600.1529968850094
 27
-1000.168184874562
 37
0.0
 40
2040.449791156555
 41
0.6000881750030808
 42
50.0
 43
0.0
 44
0.0
 50
0.0
 51
0.0
 71
     0
 72
   100
 73
     1
 74
     1
 75
     0
 76
     0
 77
     0
 78
     0
281
     0
 65
     1
110
0.0
120
0.0
130
0.0
111
1.0
121
0.0
131
0.0
112
0.0
122
1.0
132
0.0
 79
     0
146
0.0
 60
     3
 61
     5
292
     1
282
     1
141
0.0
142
0.0
 63
   250
421
  3355443
  0
ENDTAB
  0
TABLE
  2
LTYPE
  5
5
330
0
100
AcDbSymbolTable
 70
     1
  0
LTYPE
  5
5B
330
5
100
AcDbSymbolTableRecord
100
AcDbLinetypeTableRecord
  2
ByBlock
 70
     0
  3

 72
    65
 73
     0
 40
0.0
  0
LTYPE
  5
5C
330
5
100
AcDbSymbolTableRecord
100
AcDbLinetypeTableRecord
  2
ByLayer
 70
     0
  3

 72
    65
 73
     0
 40
0.0
  0
LTYPE
  5
5D
330
5
100
AcDbSymbolTableRecord
100
AcDbLinetypeTableRecord
  2
Continuous
 70
     0
  3
Solid line
 72
    65
 73
     0
 40
0.0
  0
ENDTAB
  0
TABLE
  2
LAYER
  5
2
330
0
100
AcDbSymbolTable
 70
     8
  0
LAYER
  5
54
330
2
100
AcDbSymbolTableRecord
100
AcDbLayerTableRecord
  2
0
 70
     0
 62
     7
  6
Continuous
370
    -3
390
F
347
21
348
0
  0
LAYER
  5
78
330
2
100
AcDbSymbolTableRecord
100
AcDbLayerTableRecord
  2
Bounding Box
 70
     0
 62
     7
  6
Continuous
370
     0
390
F
347
21
348
0
  0
LAYER
  5
7A
330
2
100
AcDbSymbolTableRecord
100
AcDbLayerTableRecord
  2
Screws
 70
     0
 62
     7
  6
Continuous
370
     0
390
F
347
21
348
0
  0
LAYER
  5
83
330
2
100
AcDbSymbolTableRecord
100
AcDbLayerTableRecord
  2
2023-004
 70
     5
 62
     7
  6
Continuous
370
     0
390
F
347
21
348
0
  0
LAYER
  5
84
330
2
100
AcDbSymbolTableRecord
100
AcDbLayerTableRecord
  2
2023-003
 70
     5
 62
     7
  6
Continuous
370
     0
390
F
347
21
348
0
  0
LAYER
  5
85
330
2
100
AcDbSymbolTableRecord
100
AcDbLayerTableRecord
  2
2023-002
 70
     0
 62
     7
  6
Continuous
370
     0
390
F
347
21
348
0
  0
LAYER
  5
94
330
2
100
AcDbSymbolTableRecord
100
AcDbLayerTableRecord
  2
2023-001
 70
     5
 62
     7
  6
Continuous
370
     0
390
F
347
21
348
0
  0
LAYER
  5
95
330
2
100
AcDbSymbolTableRecord
100
AcDbLayerTableRecord
  2
10-2022-057
 70
     5
 62
     7
  6
Continuous
370
     0
390
F
347
21
348
0
  0
ENDTAB
  0
TABLE
  2
STYLE
  5
3
330
0
100
AcDbSymbolTable
 70
     2
  0
STYLE
  5
55
330
3
100
AcDbSymbolTableRecord
100
AcDbTextStyleTableRecord
  2
Standard
 70
     0
 40
0.0
 41
1.0
 50
0.0
 71
     0
 42
0.2
  3
txt
  4

  0
STYLE
  5
5A
330
3
100
AcDbSymbolTableRecord
100
AcDbTextStyleTableRecord
  2
Annotative
 70
     0
 40
0.0
 41
1.0
 50
0.0
 71
     0
 42
0.2
  3
txt
  4

1001
AcadAnnotative
1000
AnnotativeData
1002
{
1070
     1
1070
     1
1002
}
  0
ENDTAB
  0
TABLE
  2
VIEW
  5
6
330
0
100
AcDbSymbolTable
 70
     0
  0
ENDTAB
  0
TABLE
  2
UCS
  5
7
330
0
100
AcDbSymbolTable
 70
     0
  0
ENDTAB
  0
TABLE
  2
APPID
  5
9
330
0
100
AcDbSymbolTable
 70
     2
  0
APPID
  5
56
330
9
100
AcDbSymbolTableRecord
100
AcDbRegAppTableRecord
  2
ACAD
 70
     0
  0
APPID
  5
5E
330
9
100
AcDbSymbolTableRecord
100
AcDbRegAppTableRecord
  2
AcadAnnotative
 70
     0
  0
ENDTAB
  0
TABLE
  2
DIMSTYLE
  5
A
330
0
100
AcDbSymbolTable
 70
     2
100
AcDbDimStyleTable
 71
     0
  0
DIMSTYLE
105
58
330
A
100
AcDbSymbolTableRecord
100
AcDbDimStyleTableRecord
  2
Standard
 70
     0
340
55
  0
DIMSTYLE
105
59
330
A
100
AcDbSymbolTableRecord
100
AcDbDimStyleTableRecord
  2
Annotative
 70
     0
340
55
1001
AcadAnnotative
1000
AnnotativeData
1002
{
1070
     1
1070
     1
1002
}
  0
ENDTAB
  0
TABLE
  2
BLOCK_RECORD
  5
1
330
0
100
AcDbSymbolTable
 70
     1
  0
BLOCK_RECORD
  5
70
330
1
100
AcDbSymbolTableRecord
100
AcDbBlockTableRecord
  2
*Model_Space
340
73
 70
     0
280
     1
281
     0
  0
BLOCK_RECORD
  5
6C
330
1
100
AcDbSymbolTableRecord
100
AcDbBlockTableRecord
  2
*Paper_Space
340
6F
 70
     0
280
     1
281
     0
  0
BLOCK_RECORD
  5
74
330
1
100
AcDbSymbolTableRecord
100
AcDbBlockTableRecord
  2
*Paper_Space0
340
77
 70
     0
280
     1
281
     0
  0
ENDTAB
  0
ENDSEC
  0
SECTION
  2
BLOCKS
  0
BLOCK
  5
71
330
70
100
AcDbEntity
  8
0
100
AcDbBlockBegin
  2
*Model_Space
 70
     0
 10
0.0
 20
0.0
 30
0.0
  3
*Model_Space
  1

  0
ENDBLK
  5
72
330
70
100
AcDbEntity
  8
0
100
AcDbBlockEnd
  0
BLOCK
  5
6D
330
6C
100
AcDbEntity
 67
     1
  8
0
100
AcDbBlockBegin
  2
*Paper_Space
 70
     0
 10
0.0
 20
0.0
 30
0.0
  3
*Paper_Space
  1

  0
ENDBLK
  5
6E
330
6C
100
AcDbEntity
 67
     1
  8
0
100
AcDbBlockEnd
  0
BLOCK
  5
75
330
74
100
AcDbEntity
 67
     1
  8
0
100
AcDbBlockBegin
  2
*Paper_Space0
 70
     0
 10
0.0
 20
0.0
 30
0.0
  3
*Paper_Space0
  1

  0
ENDBLK
  5
76
330
74
100
AcDbEntity
 67
     1
  8
0
100
AcDbBlockEnd
  0
ENDSEC
  0
SECTION
  2
ENTITIES
  0
LWPOLYLINE
  5
79
330
70
100
AcDbEntity
  8
Bounding Box
 62
    18
420
        0
370
    40
100
AcDbPolyline
 90
        4
 70
     1
 43
0.0
 10
1200.152996735009
 20
-2000.168184624562
 10
0.1529970350094219
 20
-2000.168184624562
 10
0.1529970350094219
 20
-0.1681851245616323
 10
1200.152996735009
 20
-0.1681851245616323
  0
ELLIPSE
  5
7B
330
70
100
AcDbEntity
  8
Screws
100
AcDbEllipse
 10
17.342316281568
 20
-1982.358092505099
 30
0.0
 11
2.557638888249479
 21
0.0
 31
0.0
210
0.0
220
0.0
230
1.0
 40
0.9655172413793103
 41
0.0
 42
6.283185307179586
  0
HATCH
  5
7C
330
70
100
AcDbEntity
  8
Screws
 62
    18
420
        0
440
 33554687
100
AcDbHatch
 10
0.0
 20
0.0
 30
0.0
210
0.0
220
0.0
230
1.0
  2
SOLID
 70
     1
 71
     1
 91
        1
 92
        1
 93
        1
 72
     3
 10
17.342316281568
 20
-1982.358092505099
 11
2.557638888249479
 21
0.0
 40
0.9655172413793103
 50
0.0
 51
360.0
 73
     1
 97
        1
330
7B
 75
     2
 76
     1
 98
        1
 10
0.0
 20
0.0
450
        0
451
        0
460
0.0
461
0.0
452
        0
462
0.0
453
        0
470

  0
ELLIPSE
  5
7D
330
70
100
AcDbEntity
  8
Screws
100
AcDbEllipse
 10
1182.38037163908
 20
-1982.387911349826
 30
0.0
 11
2.557638888249479
 21
0.0
 31
0.0
210
0.0
220
0.0
230
1.0
 40
0.9655172413793103
 41
0.0
 42
6.283185307179586
  0
HATCH
  5
7E
330
70
100
AcDbEntity
  8
Screws
 62
    18
420
        0
440
 33554687
100
AcDbHatch
 10
0.0
 20
0.0
 30
0.0
210
0.0
220
0.0
230
1.0
  2
SOLID
 70
     1
 71
     1
 91
        1
 92
        1
 93
        1
 72
     3
 10
1182.38037163908
 20
-1982.387911349826
 11
2.557638888249479
 21
0.0
 40
0.9655172413793103
 50
0.0
 51
360.0
 73
     1
 97
        1
330
7D
 75
     2
 76
     1
 98
        1
 10
0.0
 20
0.0
450
        0
451
        0
460
0.0
461
0.0
452
        0
462
0.0
453
        0
470

  0
ELLIPSE
  5
7F
330
70
100
AcDbEntity
  8
Screws
100
AcDbEllipse
 10
1182.644954972347
 20
-17.53202921959431
 30
0.0
 11
2.557638888249479
 21
0.0
 31
0.0
210
0.0
220
0.0
230
1.0
 40
0.9655172413793103
 41
0.0
 42
6.283185307179586
  0
HATCH
  5
80
330
70
100
AcDbEntity
  8
Screws
 62
    18
420
        0
440
 33554687
100
AcDbHatch
 10
0.0
 20
0.0
 30
0.0
210
0.0
220
0.0
230
1.0
  2
SOLID
 70
     1
 71
     1
 91
        1
 92
        1
 93
        1
 72
     3
 10
1182.644954972347
 20
-17.53202921959431
 11
2.557638888249479
 21
0.0
 40
0.9655172413793103
 50
0.0
 51
360.0
 73
     1
 97
        1
330
7F
 75
     2
 76
     1
 98
        1
 10
0.0
 20
0.0
450
        0
451
        0
460
0.0
461
0.0
452
        0
462
0.0
453
        0
470

  0
ELLIPSE
  5
81
330
70
100
AcDbEntity
  8
Screws
100
AcDbEllipse
 10
17.43471861274107
 20
-17.53202921959431
 30
0.0
 11
2.557638888249479
 21
0.0
 31
0.0
210
0.0
220
0.0
230
1.0
 40
0.9655172413793103
 41
0.0
 42
6.283185307179586
  0
HATCH
  5
82
330
70
100
AcDbEntity
  8
Screws
 62
    18
420
        0
440
 33554687
100
AcDbHatch
 10
0.0
 20
0.0
 30
0.0
210
0.0
220
0.0
230
1.0
  2
SOLID
 70
     1
 71
     1
 91
        1
 92
        1
 93
        1
 72
     3
 10
17.43471861274107
 20
-17.53202921959431
 11
2.557638888249479
 21
0.0
 40
0.9655172413793103
 50
0.0
 51
360.0
 73
     1
 97
        1
330
81
 75
     2
 76
     1
 98
        1
 10
0.0
 20
0.0
450
        0
451
        0
460
0.0
461
0.0
452
        0
462
0.0
453
        0
470

  0
SPLINE
  5
86
330
70
100
AcDbEntity
  8
2023-002
100
AcDbSpline
210
0.0
220
0.0
230
1.0
 70
     9
 71
     3
 72
   134
 73
   130
 74
     0
 42
0.0000000001
 43
0.0000000001
 40
0.0
 40
0.0
 40
0.0
 40
0.0
 40
1.0
 40
1.0
 40
1.0
 40
2.0
 40
2.0
 40
2.0
 40
3.0
 40
3.0
 40
3.0
 40
4.0
 40
4.0
 40
4.0
 40
5.0
 40
5.0
 40
5.0
 40
6.0
 40
6.0
 40
6.0
 40
7.0
 40
7.0
 40
7.0
 40
8.0
 40
8.0
 40
8.0
 40
9.0
 40
9.0
 40
9.0
 40
10.0
 40
10.0
 40
10.0
 40
11.0
 40
11.0
 40
11.0
 40
12.0
 40
12.0
 40
12.0
 40
13.0
 40
13.0
 40
13.0
 40
14.0
 40
14.0
 40
14.0
 40
15.0
 40
15.0
 40
15.0
 40
16.0
 40
16.0
 40
16.0
 40
17.0
 40
17.0
 40
17.0
 40
18.0
 40
18.0
 40
18.0
 40
19.0
 40
19.0
 40
19.0
 40
20.0
 40
20.0
 40
20.0
 40
21.0
 40
21.0
 40
21.0
 40
22.0
 40
22.0
 40
22.0
 40
23.0
 40
23.0
 40
23.0
 40
24.0
 40
24.0
 40
24.0
 40
25.0
 40
25.0
 40
25.0
 40
26.0
 40
26.0
 40
26.0
 40
27.0
 40
27.0
 40
27.0
 40
28.0
 40
28.0
 40
28.0
 40
29.0
 40
29.0
 40
29.0
 40
30.0
 40
30.0
 40
30.0
 40
31.0
 40
31.0
 40
31.0
 40
32.0
 40
32.0
 40
32.0
 40
33.0
 40
33.0
 40
33.0
 40
34.0
 40
34.0
 40
34.0
 40
35.0
 40
35.0
 40
35.0
 40
36.0
 40
36.0
 40
36.0
 40
37.0
 40
37.0
 40
37.0
 40
38.0
 40
38.0
 40
38.0
 40
39.0
 40
39.0
 40
39.0
 40
40.0
 40
40.0
 40
40.0
 40
41.0
 40
41.0
 40
41.0
 40
42.0
 40
42.0
 40
42.0
 40
43.0
 40
43.0
 40
43.0
 40
43.0
 10
1128.479630458122
 20
-1906.095299758399
 30
0.0
 10
1128.494835431089
 20
-1906.085835640325
 30
0.0
 10
1128.510040404057
 20
-1906.07637152225
 30
0.0
 10
1128.525245377024
 20
-1906.066907404176
 30
0.0
 10
1128.838246645048
 20
-1905.872084239124
 30
0.0
 10
1129.100467814819
 20
-1905.501853861777
 30
0.0
 10
1129.071258121634
 20
-1905.11499093728
 30
0.0
 10
1129.000760665298
 20
-1904.181299098943
 30
0.0
 10
1127.992814757346
 20
-1903.609344996286
 30
0.0
 10
1127.151603126994
 20
-1904.064285071465
 30
0.0
 10
1126.579817920941
 20
-1904.373515228588
 30
0.0
 10
1126.081897661669
 20
-1904.998228561261
 30
0.0
 10
1125.678876032176
 20
-1905.496987327119
 30
0.0
 10
1124.824366520104
 20
-1906.554484191966
 30
0.0
 10
1124.121919909862
 20
-1907.71602446215
 30
0.0
 10
1123.420947714345
 20
-1908.877868107194
 30
0.0
 10
1121.974210157027
 20
-1911.275798934932
 30
0.0
 10
1120.606332322676
 20
-1913.722408208096
 30
0.0
 10
1119.355913714841
 20
-1916.228690555564
 30
0.0
 10
1116.858794929236
 20
-1921.233802197923
 30
0.0
 10
1114.801843058443
 20
-1926.493660141733
 30
0.0
 10
1113.590339465736
 20
-1931.963862221024
 30
0.0
 10
1112.986665419608
 20
-1934.689581766733
 30
0.0
 10
1112.429969962522
 20
-1937.797245981127
 30
0.0
 10
1114.273836227222
 20
-1940.185365967759
 30
0.0
 10
1115.143738449537
 20
-1941.312037095324
 30
0.0
 10
1116.384127213379
 20
-1941.952427969638
 30
0.0
 10
1117.806022229586
 20
-1942.032689516338
 30
0.0
 10
1119.209672007447
 20
-1942.111921176139
 30
0.0
 10
1120.611512884632
 20
-1941.634487327069
 30
0.0
 10
1121.924986613973
 20
-1941.199314511924
 30
0.0
 10
1127.505892300804
 20
-1939.350279860874
 30
0.0
 10
1132.720400202619
 20
-1936.588329554796
 30
0.0
 10
1137.980800180451
 20
-1934.001126134651
 30
0.0
 10
1140.701627809524
 20
-1932.662951361397
 30
0.0
 10
1143.436384317155
 20
-1931.353109526213
 30
0.0
 10
1146.184434849024
 20
-1930.071769925999
 30
0.0
 10
1148.793690899777
 20
-1928.855146335509
 30
0.0
 10
1151.402492914999
 20
-1927.557975255965
 30
0.0
 10
1154.160229561567
 20
-1926.706928978212
 30
0.0
 10
1154.832006515214
 20
-1926.499616479176
 30
0.0
 10
1155.512287352318
 20
-1926.323851822498
 30
0.0
 10
1156.200514477175
 20
-1926.180377137402
 30
0.0
 10
1156.783629038962
 20
-1926.058815264722
 30
0.0
 10
1157.121092713882
 20
-1925.372252255611
 30
0.0
 10
1156.970495436276
 20
-1924.824256755694
 30
0.0
 10
1156.80424728613
 20
-1924.219310639816
 30
0.0
 10
1156.199187048611
 20
-1923.932360060268
 30
0.0
 10
1155.614375054567
 20
-1924.054275796592
 30
0.0
 10
1152.91577219064
 20
-1924.616853443008
 30
0.0
 10
1150.37937857714
 20
-1925.728297033784
 30
0.0
 10
1147.883326594934
 20
-1926.869112794211
 30
0.0
 10
1145.316011817293
 20
-1928.042499078307
 30
0.0
 10
1142.761135346179
 20
-1929.243341486539
 30
0.0
 10
1140.217651658383
 20
-1930.467499571924
 30
0.0
 10
1135.32502487753
 20
-1932.822281189468
 30
0.0
 10
1130.527616245665
 20
-1935.423182226356
 30
0.0
 10
1125.510011967883
 20
-1937.507545881921
 30
0.0
 10
1124.239926519765
 20
-1938.035152245628
 30
0.0
 10
1122.954843643438
 20
-1938.527451124013
 30
0.0
 10
1121.651992665892
 20
-1938.968343030567
 30
0.0
 10
1120.475882165911
 20
-1939.366345265351
 30
0.0
 10
1119.217353061253
 20
-1939.863113277084
 30
0.0
 10
1117.957255168339
 20
-1939.833669720903
 30
0.0
 10
1116.969186529775
 20
-1939.810582423771
 30
0.0
 10
1116.258802439557
 20
-1939.294892051723
 30
0.0
 10
1115.801229730133
 20
-1938.535222764398
 30
0.0
 10
1115.222601612537
 20
-1937.574575416628
 30
0.0
 10
1115.133501270435
 20
-1936.375275600964
 30
0.0
 10
1115.239249067873
 20
-1935.206099946723
 30
0.0
 10
1115.352941920343
 20
-1933.949081659909
 30
0.0
 10
1115.669318596821
 20
-1932.697271705754
 30
0.0
 10
1115.96646525456
 20
-1931.47273979982
 30
0.0
 10
1116.276607168458
 20
-1930.194654857436
 30
0.0
 10
1116.632065356363
 20
-1928.927668920799
 30
0.0
 10
1117.027733562434
 20
-1927.673455943839
 30
0.0
 10
1117.791197192536
 20
-1925.253382817868
 30
0.0
 10
1118.700937910273
 20
-1922.879485866728
 30
0.0
 10
1119.735797246725
 20
-1920.562694810318
 30
0.0
 10
1120.920975491817
 20
-1917.909377338305
 30
0.0
 10
1122.252744931122
 20
-1915.32298824641
 30
0.0
 10
1123.684287587671
 20
-1912.794604525405
 30
0.0
 10
1124.411194461024
 20
-1911.510745119007
 30
0.0
 10
1125.163082221658
 20
-1910.240789165704
 30
0.0
 10
1125.937738260587
 20
-1908.985165595747
 30
0.0
 10
1126.302896290973
 20
-1908.393288676611
 30
0.0
 10
1126.672790185849
 20
-1907.800131480144
 30
0.0
 10
1127.091825162163
 20
-1907.244354067937
 30
0.0
 10
1127.273523641773
 20
-1907.003362464591
 30
0.0
 10
1127.4683719341
 20
-1906.772242680079
 30
0.0
 10
1127.672783799183
 20
-1906.550116227931
 30
0.0
 10
1127.773084200185
 20
-1906.441123669134
 30
0.0
 10
1127.875821152399
 20
-1906.33435811134
 30
0.0
 10
1127.981442324572
 20
-1906.230505562343
 30
0.0
 10
1128.05188447841
 20
-1906.161158161312
 30
0.0
 10
1128.123566808814
 20
-1906.093117301091
 30
0.0
 10
1128.196489315787
 20
-1906.02638298168
 30
0.0
 10
1128.32046792671
 20
-1905.912842723407
 30
0.0
 10
1128.343117737558
 20
-1905.8934210646
 30
0.0
 10
1128.264438748335
 20
-1905.968118005256
 30
0.0
 10
1128.078966144778
 20
-1906.01828936805
 30
0.0
 10
1127.893493541221
 20
-1906.068460730845
 30
0.0
 10
1127.708020937664
 20
-1906.11863209364
 30
0.0
 10
1127.5500513842
 20
-1906.07205130665
 30
0.0
 10
1127.52541240131
 20
-1906.069307514653
 30
0.0
 10
1127.634103988992
 20
-1906.110400717649
 30
0.0
 10
1127.471948518952
 20
-1906.015895867989
 30
0.0
 10
1127.309793048911
 20
-1905.92139101833
 30
0.0
 10
1127.147637578871
 20
-1905.82688616867
 30
0.0
 10
1127.160662041604
 20
-1905.838040895393
 30
0.0
 10
1127.17368650434
 20
-1905.849195622116
 30
0.0
 10
1127.186710967074
 20
-1905.860350348838
 30
0.0
 10
1127.079079489123
 20
-1905.60050497503
 30
0.0
 10
1126.971448011171
 20
-1905.340659601222
 30
0.0
 10
1126.86381653322
 20
-1905.080814227412
 30
0.0
 10
1126.864676692505
 20
-1905.092206464035
 30
0.0
 10
1126.865536851789
 20
-1905.103598700658
 30
0.0
 10
1126.866397011074
 20
-1905.11499093728
 30
0.0
 10
1127.048401259277
 20
-1904.797685448316
 30
0.0
 10
1127.23040550748
 20
-1904.48037995935
 30
0.0
 10
1127.412409755684
 20
-1904.163074470385
 30
0.0
 10
1127.397204782716
 20
-1904.17253858846
 30
0.0
 10
1127.381999809749
 20
-1904.182002706534
 30
0.0
 10
1127.366794836781
 20
-1904.191466824608
 30
0.0
 10
1126.164642550365
 20
-1904.939729330996
 30
0.0
 10
1127.270353606265
 20
-1906.847996848702
 30
0.0
 10
1128.479630458122
 20
-1906.095299758399
 30
0.0
 10
1128.479630458122
 20
-1906.095299758399
 30
0.0
 10
1128.479630458122
 20
-1906.095299758399
 30
0.0
 10
1128.479630458122
 20
-1906.095299758399
 30
0.0
  0
HATCH
  5
87
330
70
100
AcDbEntity
  8
2023-002
 62
    18
420
        0
440
 33554687
100
AcDbHatch
 10
0.0
 20
0.0
 30
0.0
210
0.0
220
0.0
230
1.0
  2
SOLID
 70
     1
 71
     1
 91
        1
 92
        1
 93
        1
 72
     4
 94
        3
 73
     0
 74
     0
 95
      134
 96
      130
 40
0.0
 40
0.0
 40
0.0
 40
0.0
 40
1.0
 40
1.0
 40
1.0
 40
2.0
 40
2.0
 40
2.0
 40
3.0
 40
3.0
 40
3.0
 40
4.0
 40
4.0
 40
4.0
 40
5.0
 40
5.0
 40
5.0
 40
6.0
 40
6.0
 40
6.0
 40
7.0
 40
7.0
 40
7.0
 40
8.0
 40
8.0
 40
8.0
 40
9.0
 40
9.0
 40
9.0
 40
10.0
 40
10.0
 40
10.0
 40
11.0
 40
11.0
 40
11.0
 40
12.0
 40
12.0
 40
12.0
 40
13.0
 40
13.0
 40
13.0
 40
14.0
 40
14.0
 40
14.0
 40
15.0
 40
15.0
 40
15.0
 40
16.0
 40
16.0
 40
16.0
 40
17.0
 40
17.0
 40
17.0
 40
18.0
 40
18.0
 40
18.0
 40
19.0
 40
19.0
 40
19.0
 40
20.0
 40
20.0
 40
20.0
 40
21.0
 40
21.0
 40
21.0
 40
22.0
 40
22.0
 40
22.0
 40
23.0
 40
23.0
 40
23.0
 40
24.0
 40
24.0
 40
24.0
 40
25.0
 40
25.0
 40
25.0
 40
26.0
 40
26.0
 40
26.0
 40
27.0
 40
27.0
 40
27.0
 40
28.0
 40
28.0
 40
28.0
 40
29.0
 40
29.0
 40
29.0
 40
30.0
 40
30.0
 40
30.0
 40
31.0
 40
31.0
 40
31.0
 40
32.0
 40
32.0
 40
32.0
 40
33.0
 40
33.0
 40
33.0
 40
34.0
 40
34.0
 40
34.0
 40
35.0
 40
35.0
 40
35.0
 40
36.0
 40
36.0
 40
36.0
 40
37.0
 40
37.0
 40
37.0
 40
38.0
 40
38.0
 40
38.0
 40
39.0
 40
39.0
 40
39.0
 40
40.0
 40
40.0
 40
40.0
 40
41.0
 40
41.0
 40
41.0
 40
42.0
 40
42.0
 40
42.0
 40
43.0
 40
43.0
 40
43.0
 40
43.0
 10
1128.479630458122
 20
-1906.095299758399
 10
1128.494835431089
 20
-1906.085835640325
 10
1128.510040404057
 20
-1906.07637152225
 10
1128.525245377024
 20
-1906.066907404176
 10
1128.838246645048
 20
-1905.872084239124
 10
1129.100467814819
 20
-1905.501853861777
 10
1129.071258121634
 20
-1905.11499093728
 10
1129.000760665298
 20
-1904.181299098943
 10
1127.992814757346
 20
-1903.609344996286
 10
1127.151603126994
 20
-1904.064285071465
 10
1126.579817920941
 20
-1904.373515228588
 10
1126.081897661669
 20
-1904.998228561261
 10
1125.678876032176
 20
-1905.496987327119
 10
1124.824366520104
 20
-1906.554484191966
 10
1124.121919909862
 20
-1907.71602446215
 10
1123.420947714345
 20
-1908.877868107194
 10
1121.974210157027
 20
-1911.275798934932
 10
1120.606332322676
 20
-1913.722408208096
 10
1119.355913714841
 20
-1916.228690555564
 10
1116.858794929236
 20
-1921.233802197923
 10
1114.801843058443
 20
-1926.493660141733
 10
1113.590339465736
 20
-1931.963862221024
 10
1112.986665419608
 20
-1934.689581766733
 10
1112.429969962522
 20
-1937.797245981127
 10
1114.273836227222
 20
-1940.185365967759
 10
1115.143738449537
 20
-1941.312037095324
 10
1116.384127213379
 20
-1941.952427969638
 10
1117.806022229586
 20
-1942.032689516338
 10
1119.209672007447
 20
-1942.111921176139
 10
1120.611512884632
 20
-1941.634487327069
 10
1121.924986613973
 20
-1941.199314511924
 10
1127.505892300804
 20
-1939.350279860874
 10
1132.720400202619
 20
-1936.588329554796
 10
1137.980800180451
 20
-1934.001126134651
 10
1140.701627809524
 20
-1932.662951361397
 10
1143.436384317155
 20
-1931.353109526213
 10
1146.184434849024
 20
-1930.071769925999
 10
1148.793690899777
 20
-1928.855146335509
 10
1151.402492914999
 20
-1927.557975255965
 10
1154.160229561567
 20
-1926.706928978212
 10
1154.832006515214
 20
-1926.499616479176
 10
1155.512287352318
 20
-1926.323851822498
 10
1156.200514477175
 20
-1926.180377137402
 10
1156.783629038962
 20
-1926.058815264722
 10
1157.121092713882
 20
-1925.372252255611
 10
1156.970495436276
 20
-1924.824256755694
 10
1156.80424728613
 20
-1924.219310639816
 10
1156.199187048611
 20
-1923.932360060268
 10
1155.614375054567
 20
-1924.054275796592
 10
1152.91577219064
 20
-1924.616853443008
 10
1150.37937857714
 20
-1925.728297033784
 10
1147.883326594934
 20
-1926.869112794211
 10
1145.316011817293
 20
-1928.042499078307
 10
1142.761135346179
 20
-1929.243341486539
 10
1140.217651658383
 20
-1930.467499571924
 10
1135.32502487753
 20
-1932.822281189468
 10
1130.527616245665
 20
-1935.423182226356
 10
1125.510011967883
 20
-1937.507545881921
 10
1124.239926519765
 20
-1938.035152245628
 10
1122.954843643438
 20
-1938.527451124013
 10
1121.651992665892
 20
-1938.968343030567
 10
1120.475882165911
 20
-1939.366345265351
 10
1119.217353061253
 20
-1939.863113277084
 10
1117.957255168339
 20
-1939.833669720903
 10
1116.969186529775
 20
-1939.810582423771
 10
1116.258802439557
 20
-1939.294892051723
 10
1115.801229730133
 20
-1938.535222764398
 10
1115.222601612537
 20
-1937.574575416628
 10
1115.133501270435
 20
-1936.375275600964
 10
1115.239249067873
 20
-1935.206099946723
 10
1115.352941920343
 20
-1933.949081659909
 10
1115.669318596821
 20
-1932.697271705754
 10
1115.96646525456
 20
-1931.47273979982
 10
1116.276607168458
 20
-1930.194654857436
 10
1116.632065356363
 20
-1928.927668920799
 10
1117.027733562434
 20
-1927.673455943839
 10
1117.791197192536
 20
-1925.253382817868
 10
1118.700937910273
 20
-1922.879485866728
 10
1119.735797246725
 20
-1920.562694810318
 10
1120.920975491817
 20
-1917.909377338305
 10
1122.252744931122
 20
-1915.32298824641
 10
1123.684287587671
 20
-1912.794604525405
 10
1124.411194461024
 20
-1911.510745119007
 10
1125.163082221658
 20
-1910.240789165704
 10
1125.937738260587
 20
-1908.985165595747
 10
1126.302896290973
 20
-1908.393288676611
 10
1126.672790185849
 20
-1907.800131480144
 10
1127.091825162163
 20
-1907.244354067937
 10
1127.273523641773
 20
-1907.003362464591
 10
1127.4683719341
 20
-1906.772242680079
 10
1127.672783799183
 20
-1906.550116227931
 10
1127.773084200185
 20
-1906.441123669134
 10
1127.875821152399
 20
-1906.33435811134
 10
1127.981442324572
 20
-1906.230505562343
 10
1128.05188447841
 20
-1906.161158161312
 10
1128.123566808814
 20
-1906.093117301091
 10
1128.196489315787
 20
-1906.02638298168
 10
1128.32046792671
 20
-1905.912842723407
 10
1128.343117737558
 20
-1905.8934210646
 10
1128.264438748335
 20
-1905.968118005256
 10
1128.078966144778
 20
-1906.01828936805
 10
1127.893493541221
 20
-1906.068460730845
 10
1127.708020937664
 20
-1906.11863209364
 10
1127.5500513842
 20
-1906.07205130665
 10
1127.52541240131
 20
-1906.069307514653
 10
1127.634103988992
 20
-1906.110400717649
 10
1127.471948518952
 20
-1906.015895867989
 10
1127.309793048911
 20
-1905.92139101833
 10
1127.147637578871
 20
-1905.82688616867
 10
1127.160662041604
 20
-1905.838040895393
 10
1127.17368650434
 20
-1905.849195622116
 10
1127.186710967074
 20
-1905.860350348838
 10
1127.079079489123
 20
-1905.60050497503
 10
1126.971448011171
 20
-1905.340659601222
 10
1126.86381653322
 20
-1905.080814227412
 10
1126.864676692505
 20
-1905.092206464035
 10
1126.865536851789
 20
-1905.103598700658
 10
1126.866397011074
 20
-1905.11499093728
 10
1127.048401259277
 20
-1904.797685448316
 10
1127.23040550748
 20
-1904.48037995935
 10
1127.412409755684
 20
-1904.163074470385
 10
1127.397204782716
 20
-1904.17253858846
 10
1127.381999809749
 20
-1904.182002706534
 10
1127.366794836781
 20
-1904.191466824608
 10
1126.164642550365
 20
-1904.939729330996
 10
1127.270353606265
 20
-1906.847996848702
 10
1128.479630458122
 20
-1906.095299758399
 10
1128.479630458122
 20
-1906.095299758399
 10
1128.479630458122
 20
-1906.095299758399
 10
1128.479630458122
 20
-1906.095299758399
 97
        0
 97
        1
330
86
 75
     2
 76
     1
 98
        1
 10
0.0
 20
0.0
450
        0
451
        0
460
0.0
461
0.0
452
        0
462
0.0
453
        0
470

  0
SPLINE
  5
88
330
70
100
AcDbEntity
  8
2023-002
100
AcDbSpline
210
0.0
220
0.0
230
1.0
 70
     9
 71
     3
 72
    50
 73
    46
 74
     0
 42
0.0000000001
 43
0.0000000001
 40
0.0
 40
0.0
 40
0.0
 40
0.0
 40
1.0
 40
1.0
 40
1.0
 40
2.0
 40
2.0
 40
2.0
 40
3.0
 40
3.0
 40
3.0
 40
4.0
 40
4.0
 40
4.0
 40
5.0
 40
5.0
 40
5.0
 40
6.0
 40
6.0
 40
6.0
 40
7.0
 40
7.0
 40
7.0
 40
8.0
 40
8.0
 40
8.0
 40
9.0
 40
9.0
 40
9.0
 40
10.0
 40
10.0
 40
10.0
 40
11.0
 40
11.0
 40
11.0
 40
12.0
 40
12.0
 40
12.0
 40
13.0
 40
13.0
 40
13.0
 40
14.0
 40
14.0
 40
14.0
 40
15.0
 40
15.0
 40
15.0
 40
15.0
 10
1134.093562684178
 20
-1926.647894684228
 30
0.0
 10
1135.657870932111
 20
-1920.716407935576
 30
0.0
 10
1137.740150047782
 20
-1914.92747279196
 30
0.0
 10
1140.339452302511
 20
-1909.370636767581
 30
0.0
 10
1139.667796590077
 20
-1909.282854067791
 30
0.0
 10
1138.996140877644
 20
-1909.195071368003
 30
0.0
 10
1138.32448516521
 20
-1909.107288668214
 30
0.0
 10
1140.778853476903
 20
-1915.051581065464
 30
0.0
 10
1142.927148445792
 20
-1921.114985856219
 30
0.0
 10
1145.028528942321
 20
-1927.191184511826
 30
0.0
 10
1147.129996297964
 20
-1933.267634322917
 30
0.0
 10
1149.188385667642
 20
-1939.360838401386
 30
0.0
 10
1151.474978151143
 20
-1945.371085289153
 30
0.0
 10
1152.774794194564
 20
-1948.787616825053
 30
0.0
 10
1154.150678150877
 20
-1952.175700992876
 30
0.0
 10
1155.636408388983
 20
-1955.515839437733
 30
0.0
 10
1155.878414325262
 20
-1956.059904107695
 30
0.0
 10
1156.671313223622
 20
-1956.18825037307
 30
0.0
 10
1157.144742666549
 20
-1955.911338093958
 30
0.0
 10
1157.705190491576
 20
-1955.583528138599
 30
0.0
 10
1157.783172173598
 20
-1954.94914782926
 30
0.0
 10
1157.540241322774
 20
-1954.403003816391
 30
0.0
 10
1154.966729763988
 20
-1948.617374181004
 30
0.0
 10
1152.759480776964
 20
-1942.677598042213
 30
0.0
 10
1150.65566598249
 20
-1936.707681943133
 30
0.0
 10
1148.527213716168
 20
-1930.667853017023
 30
0.0
 10
1146.505208515512
 20
-1924.590675903538
 30
0.0
 10
1144.321370913053
 20
-1918.570354345047
 30
0.0
 10
1143.097193638288
 20
-1915.195588368686
 30
0.0
 10
1141.820739859035
 20
-1911.839555908776
 30
0.0
 10
1140.45058650602
 20
-1908.521149245606
 30
0.0
 10
1140.279545725719
 20
-1908.106901552984
 30
0.0
 10
1140.010139413853
 20
-1907.788121885393
 30
0.0
 10
1139.534070691267
 20
-1907.731478344067
 30
0.0
 10
1139.130407405515
 20
-1907.683449736173
 30
0.0
 10
1138.622227706527
 20
-1907.85886641978
 30
0.0
 10
1138.43561936872
 20
-1908.257801146239
 30
0.0
 10
1135.755531287968
 20
-1913.987342590886
 30
0.0
 10
1133.58060683741
 20
-1919.945089230997
 30
0.0
 10
1131.967461343369
 20
-1926.06175526162
 30
0.0
 10
1131.605286696101
 20
-1927.435035830717
 30
0.0
 10
1133.731463484992
 20
-1928.020889172053
 30
0.0
 10
1134.093562684178
 20
-1926.647894684228
 30
0.0
 10
1134.093562684178
 20
-1926.647894684228
 30
0.0
 10
1134.093562684178
 20
-1926.647894684228
 30
0.0
 10
1134.093562684178
 20
-1926.647894684228
 30
0.0
  0
HATCH
  5
89
330
70
100
AcDbEntity
  8
2023-002
 62
    18
420
        0
440
 33554687
100
AcDbHatch
 10
0.0
 20
0.0
 30
0.0
210
0.0
220
0.0
230
1.0
  2
SOLID
 70
     1
 71
     1
 91
        1
 92
        1
 93
        1
 72
     4
 94
        3
 73
     0
 74
     0
 95
       50
 96
       46
 40
0.0
 40
0.0
 40
0.0
 40
0.0
 40
1.0
 40
1.0
 40
1.0
 40
2.0
 40
2.0
 40
2.0
 40
3.0
 40
3.0
 40
3.0
 40
4.0
 40
4.0
 40
4.0
 40
5.0
 40
5.0
 40
5.0
 40
6.0
 40
6.0
 40
6.0
 40
7.0
 40
7.0
 40
7.0
 40
8.0
 40
8.0
 40
8.0
 40
9.0
 40
9.0
 40
9.0
 40
10.0
 40
10.0
 40
10.0
 40
11.0
 40
11.0
 40
11.0
 40
12.0
 40
12.0
 40
12.0
 40
13.0
 40
13.0
 40
13.0
 40
14.0
 40
14.0
 40
14.0
 40
15.0
 40
15.0
 40
15.0
 40
15.0
 10
1134.093562684178
 20
-1926.647894684228
 10
1135.657870932111
 20
-1920.716407935576
 10
1137.740150047782
 20
-1914.92747279196
 10
1140.339452302511
 20
-1909.370636767581
 10
1139.667796590077
 20
-1909.282854067791
 10
1138.996140877644
 20
-1909.195071368003
 10
1138.32448516521
 20
-1909.107288668214
 10
1140.778853476903
 20
-1915.051581065464
 10
1142.927148445792
 20
-1921.114985856219
 10
1145.028528942321
 20
-1927.191184511826
 10
1147.129996297964
 20
-1933.267634322917
 10
1149.188385667642
 20
-1939.360838401386
 10
1151.474978151143
 20
-1945.371085289153
 10
1152.774794194564
 20
-1948.787616825053
 10
1154.150678150877
 20
-1952.175700992876
 10
1155.636408388983
 20
-1955.515839437733
 10
1155.878414325262
 20
-1956.059904107695
 10
1156.671313223622
 20
-1956.18825037307
 10
1157.144742666549
 20
-1955.911338093958
 10
1157.705190491576
 20
-1955.583528138599
 10
1157.783172173598
 20
-1954.94914782926
 10
1157.540241322774
 20
-1954.403003816391
 10
1154.966729763988
 20
-1948.617374181004
 10
1152.759480776964
 20
-1942.677598042213
 10
1150.65566598249
 20
-1936.707681943133
 10
1148.527213716168
 20
-1930.667853017023
 10
1146.505208515512
 20
-1924.590675903538
 10
1144.321370913053
 20
-1918.570354345047
 10
1143.097193638288
 20
-1915.195588368686
 10
1141.820739859035
 20
-1911.839555908776
 10
1140.45058650602
 20
-1908.521149245606
 10
1140.279545725719
 20
-1908.106901552984
 10
1140.010139413853
 20
-1907.788121885393
 10
1139.534070691267
 20
-1907.731478344067
 10
1139.130407405515
 20
-1907.683449736173
 10
1138.622227706527
 20
-1907.85886641978
 10
1138.43561936872
 20
-1908.257801146239
 10
1135.755531287968
 20
-1913.987342590886
 10
1133.58060683741
 20
-1919.945089230997
 10
1131.967461343369
 20
-1926.06175526162
 10
1131.605286696101
 20
-1927.435035830717
 10
1133.731463484992
 20
-1928.020889172053
 10
1134.093562684178
 20
-1926.647894684228
 10
1134.093562684178
 20
-1926.647894684228
 10
1134.093562684178
 20
-1926.647894684228
 10
1134.093562684178
 20
-1926.647894684228
 97
        0
 97
        1
330
88
 75
     2
 76
     1
 98
        1
 10
0.0
 20
0.0
450
        0
451
        0
460
0.0
461
0.0
452
        0
462
0.0
453
        0
470

  0
SPLINE
  5
8A
330
70
100
AcDbEntity
  8
2023-002
100
AcDbSpline
210
0.0
220
0.0
230
1.0
 70
     9
 71
     3
 72
    86
 73
    82
 74
     0
 42
0.0000000001
 43
0.0000000001
 40
0.0
 40
0.0
 40
0.0
 40
0.0
 40
1.0
 40
1.0
 40
1.0
 40
2.0
 40
2.0
 40
2.0
 40
3.0
 40
3.0
 40
3.0
 40
4.0
 40
4.0
 40
4.0
 40
5.0
 40
5.0
 40
5.0
 40
6.0
 40
6.0
 40
6.0
 40
7.0
 40
7.0
 40
7.0
 40
8.0
 40
8.0
 40
8.0
 40
9.0
 40
9.0
 40
9.0
 40
10.0
 40
10.0
 40
10.0
 40
11.0
 40
11.0
 40
11.0
 40
12.0
 40
12.0
 40
12.0
 40
13.0
 40
13.0
 40
13.0
 40
14.0
 40
14.0
 40
14.0
 40
15.0
 40
15.0
 40
15.0
 40
16.0
 40
16.0
 40
16.0
 40
17.0
 40
17.0
 40
17.0
 40
18.0
 40
18.0
 40
18.0
 40
19.0
 40
19.0
 40
19.0
 40
20.0
 40
20.0
 40
20.0
 40
21.0
 40
21.0
 40
21.0
 40
22.0
 40
22.0
 40
22.0
 40
23.0
 40
23.0
 40
23.0
 40
24.0
 40
24.0
 40
24.0
 40
25.0
 40
25.0
 40
25.0
 40
26.0
 40
26.0
 40
26.0
 40
27.0
 40
27.0
 40
27.0
 40
27.0
 10
1129.313085252265
 20
-1945.560273858768
 30
0.0
 10
1129.606762637452
 20
-1945.353151294617
 30
0.0
 10
1129.91022011664
 20
-1945.161801191127
 30
0.0
 10
1130.227521447843
 20
-1944.992818375164
 30
0.0
 10
1130.368474922057
 20
-1944.917751829107
 30
0.0
 10
1130.512192994735
 20
-1944.848909389783
 30
0.0
 10
1130.656353314105
 20
-1944.780325301552
 30
0.0
 10
1130.765125530953
 20
-1944.728577057999
 30
0.0
 10
1130.84935147203
 20
-1944.696845531538
 30
0.0
 10
1131.057774763995
 20
-1944.620810428541
 30
0.0
 10
1130.605734636759
 20
-1944.36415010884
 30
0.0
 10
1130.153694509523
 20
-1944.107489789141
 30
0.0
 10
1129.701654382287
 20
-1943.85082946944
 30
0.0
 10
1129.730602656841
 20
-1943.985391926977
 30
0.0
 10
1129.736371233397
 20
-1944.001122421388
 30
0.0
 10
1129.718960111957
 20
-1943.898020952671
 30
0.0
 10
1129.723631407465
 20
-1943.974729742953
 30
0.0
 10
1129.72395744046
 20
-1944.051457211062
 30
0.0
 10
1129.719938210942
 20
-1944.128203357
 30
0.0
 10
1129.708298973939
 20
-1944.264341321727
 30
0.0
 10
1129.707739933888
 20
-1944.282211617801
 30
0.0
 10
1129.718261090791
 20
-1944.18181424522
 30
0.0
 10
1129.704353535212
 20
-1944.258927715258
 30
0.0
 10
1129.688248282982
 20
-1944.335579459924
 30
0.0
 10
1129.669945334102
 20
-1944.411769479217
 30
0.0
 10
1129.607505344666
 20
-1944.677465441288
 30
0.0
 10
1129.525014961058
 20
-1944.93965010126
 30
0.0
 10
1129.441063718375
 20
-1945.199199212124
 30
0.0
 10
1129.344933132477
 20
-1945.496402770987
 30
0.0
 10
1129.240151722401
 20
-1945.790806960524
 30
0.0
 10
1129.126962956213
 20
-1946.081941042976
 30
0.0
 10
1129.084524703435
 20
-1946.191096944217
 30
0.0
 10
1129.041418814854
 20
-1946.300077651183
 30
0.0
 10
1128.996087455522
 20
-1946.40806463805
 30
0.0
 10
1129.048036864811
 20
-1946.284312333658
 30
0.0
 10
1128.891312914679
 20
-1946.64278185063
 30
0.0
 10
1128.873523520287
 20
-1946.681728844573
 30
0.0
 10
1128.386250316526
 20
-1947.74853449846
 30
0.0
 10
1127.7823685176
 20
-1948.756806972946
 30
0.0
 10
1127.080740675117
 20
-1949.696180631545
 30
0.0
 10
1126.820944121783
 20
-1950.044008958786
 30
0.0
 10
1126.925109544861
 20
-1950.60757707611
 30
0.0
 10
1127.166930847852
 20
-1950.920575408263
 30
0.0
 10
1127.439562465362
 20
-1951.273452679692
 30
0.0
 10
1127.890301727336
 20
-1951.424434909114
 30
0.0
 10
1128.325726853316
 20
-1951.31564911262
 30
0.0
 10
1129.670121816261
 20
-1950.979767997543
 30
0.0
 10
1130.968035516834
 20
-1950.75600839627
 30
0.0
 10
1132.271417283555
 20
-1950.637910155927
 30
0.0
 10
1132.844163732205
 20
-1950.586014119419
 30
0.0
 10
1133.402180393946
 20
-1950.168042172114
 30
0.0
 10
1133.373847838835
 20
-1949.535479600647
 30
0.0
 10
1133.349092513754
 20
-1948.982783522619
 30
0.0
 10
1132.886477629847
 20
-1948.377318984952
 30
0.0
 10
1132.271417283555
 20
-1948.433049045367
 30
0.0
 10
1130.743982759236
 20
-1948.571448502969
 30
0.0
 10
1129.227723913785
 20
-1948.817754545044
 30
0.0
 10
1127.739587430709
 20
-1949.189547771811
 30
0.0
 10
1128.154582823442
 20
-1949.729370598836
 30
0.0
 10
1128.569578216175
 20
-1950.269193425861
 30
0.0
 10
1128.984573608908
 20
-1950.809016252886
 30
0.0
 10
1129.756697767966
 20
-1949.775258679041
 30
0.0
 10
1130.407932367986
 20
-1948.658007299364
 30
0.0
 10
1130.919897514561
 20
-1947.473363419321
 30
0.0
 10
1131.469873989347
 20
-1946.200764553204
 30
0.0
 10
1132.16680296938
 20
-1944.672115198047
 30
0.0
 10
1131.827755723096
 20
-1943.264690046832
 30
0.0
 10
1131.696310192194
 20
-1942.719044128058
 30
0.0
 10
1131.019393185297
 20
-1942.294881018197
 30
0.0
 10
1130.471635341387
 20
-1942.494709087731
 30
0.0
 10
1129.666164985207
 20
-1942.788553508458
 30
0.0
 10
1128.901562287776
 20
-1943.161824440748
 30
0.0
 10
1128.200249630924
 20
-1943.656440924977
 30
0.0
 10
1127.730078131564
 20
-1943.988039922552
 30
0.0
 10
1127.463123325608
 20
-1944.634884326031
 30
0.0
 10
1127.8047509747
 20
-1945.164775202544
 30
0.0
 10
1128.105740629636
 20
-1945.631633410594
 30
0.0
 10
1128.809082680664
 20
-1945.915732978994
 30
0.0
 10
1129.313085252265
 20
-1945.560273858768
 30
0.0
 10
1129.313085252265
 20
-1945.560273858768
 30
0.0
 10
1129.313085252265
 20
-1945.560273858768
 30
0.0
 10
1129.313085252265
 20
-1945.560273858768
 30
0.0
  0
HATCH
  5
8B
330
70
100
AcDbEntity
  8
2023-002
 62
    18
420
        0
440
 33554687
100
AcDbHatch
 10
0.0
 20
0.0
 30
0.0
210
0.0
220
0.0
230
1.0
  2
SOLID
 70
     1
 71
     1
 91
        1
 92
        1
 93
        1
 72
     4
 94
        3
 73
     0
 74
     0
 95
       86
 96
       82
 40
0.0
 40
0.0
 40
0.0
 40
0.0
 40
1.0
 40
1.0
 40
1.0
 40
2.0
 40
2.0
 40
2.0
 40
3.0
 40
3.0
 40
3.0
 40
4.0
 40
4.0
 40
4.0
 40
5.0
 40
5.0
 40
5.0
 40
6.0
 40
6.0
 40
6.0
 40
7.0
 40
7.0
 40
7.0
 40
8.0
 40
8.0
 40
8.0
 40
9.0
 40
9.0
 40
9.0
 40
10.0
 40
10.0
 40
10.0
 40
11.0
 40
11.0
 40
11.0
 40
12.0
 40
12.0
 40
12.0
 40
13.0
 40
13.0
 40
13.0
 40
14.0
 40
14.0
 40
14.0
 40
15.0
 40
15.0
 40
15.0
 40
16.0
 40
16.0
 40
16.0
 40
17.0
 40
17.0
 40
17.0
 40
18.0
 40
18.0
 40
18.0
 40
19.0
 40
19.0
 40
19.0
 40
20.0
 40
20.0
 40
20.0
 40
21.0
 40
21.0
 40
21.0
 40
22.0
 40
22.0
 40
22.0
 40
23.0
 40
23.0
 40
23.0
 40
24.0
 40
24.0
 40
24.0
 40
25.0
 40
25.0
 40
25.0
 40
26.0
 40
26.0
 40
26.0
 40
27.0
 40
27.0
 40
27.0
 40
27.0
 10
1129.313085252265
 20
-1945.560273858768
 10
1129.606762637452
 20
-1945.353151294617
 10
1129.91022011664
 20
-1945.161801191127
 10
1130.227521447843
 20
-1944.992818375164
 10
1130.368474922057
 20
-1944.917751829107
 10
1130.512192994735
 20
-1944.848909389783
 10
1130.656353314105
 20
-1944.780325301552
 10
1130.765125530953
 20
-1944.728577057999
 10
1130.84935147203
 20
-1944.696845531538
 10
1131.057774763995
 20
-1944.620810428541
 10
1130.605734636759
 20
-1944.36415010884
 10
1130.153694509523
 20
-1944.107489789141
 10
1129.701654382287
 20
-1943.85082946944
 10
1129.730602656841
 20
-1943.985391926977
 10
1129.736371233397
 20
-1944.001122421388
 10
1129.718960111957
 20
-1943.898020952671
 10
1129.723631407465
 20
-1943.974729742953
 10
1129.72395744046
 20
-1944.051457211062
 10
1129.719938210942
 20
-1944.128203357
 10
1129.708298973939
 20
-1944.264341321727
 10
1129.707739933888
 20
-1944.282211617801
 10
1129.718261090791
 20
-1944.18181424522
 10
1129.704353535212
 20
-1944.258927715258
 10
1129.688248282982
 20
-1944.335579459924
 10
1129.669945334102
 20
-1944.411769479217
 10
1129.607505344666
 20
-1944.677465441288
 10
1129.525014961058
 20
-1944.93965010126
 10
1129.441063718375
 20
-1945.199199212124
 10
1129.344933132477
 20
-1945.496402770987
 10
1129.240151722401
 20
-1945.790806960524
 10
1129.126962956213
 20
-1946.081941042976
 10
1129.084524703435
 20
-1946.191096944217
 10
1129.041418814854
 20
-1946.300077651183
 10
1128.996087455522
 20
-1946.40806463805
 10
1129.048036864811
 20
-1946.284312333658
 10
1128.891312914679
 20
-1946.64278185063
 10
1128.873523520287
 20
-1946.681728844573
 10
1128.386250316526
 20
-1947.74853449846
 10
1127.7823685176
 20
-1948.756806972946
 10
1127.080740675117
 20
-1949.696180631545
 10
1126.820944121783
 20
-1950.044008958786
 10
1126.925109544861
 20
-1950.60757707611
 10
1127.166930847852
 20
-1950.920575408263
 10
1127.439562465362
 20
-1951.273452679692
 10
1127.890301727336
 20
-1951.424434909114
 10
1128.325726853316
 20
-1951.31564911262
 10
1129.670121816261
 20
-1950.979767997543
 10
1130.968035516834
 20
-1950.75600839627
 10
1132.271417283555
 20
-1950.637910155927
 10
1132.844163732205
 20
-1950.586014119419
 10
1133.402180393946
 20
-1950.168042172114
 10
1133.373847838835
 20
-1949.535479600647
 10
1133.349092513754
 20
-1948.982783522619
 10
1132.886477629847
 20
-1948.377318984952
 10
1132.271417283555
 20
-1948.433049045367
 10
1130.743982759236
 20
-1948.571448502969
 10
1129.227723913785
 20
-1948.817754545044
 10
1127.739587430709
 20
-1949.189547771811
 10
1128.154582823442
 20
-1949.729370598836
 10
1128.569578216175
 20
-1950.269193425861
 10
1128.984573608908
 20
-1950.809016252886
 10
1129.756697767966
 20
-1949.775258679041
 10
1130.407932367986
 20
-1948.658007299364
 10
1130.919897514561
 20
-1947.473363419321
 10
1131.469873989347
 20
-1946.200764553204
 10
1132.16680296938
 20
-1944.672115198047
 10
1131.827755723096
 20
-1943.264690046832
 10
1131.696310192194
 20
-1942.719044128058
 10
1131.019393185297
 20
-1942.294881018197
 10
1130.471635341387
 20
-1942.494709087731
 10
1129.666164985207
 20
-1942.788553508458
 10
1128.901562287776
 20
-1943.161824440748
 10
1128.200249630924
 20
-1943.656440924977
 10
1127.730078131564
 20
-1943.988039922552
 10
1127.463123325608
 20
-1944.634884326031
 10
1127.8047509747
 20
-1945.164775202544
 10
1128.105740629636
 20
-1945.631633410594
 10
1128.809082680664
 20
-1945.915732978994
 10
1129.313085252265
 20
-1945.560273858768
 10
1129.313085252265
 20
-1945.560273858768
 10
1129.313085252265
 20
-1945.560273858768
 10
1129.313085252265
 20
-1945.560273858768
 97
        0
 97
        1
330
8A
 75
     2
 76
     1
 98
        1
 10
0.0
 20
0.0
450
        0
451
        0
460
0.0
461
0.0
452
        0
462
0.0
453
        0
470

  0
SPLINE
  5
8C
330
70
100
AcDbEntity
  8
2023-002
100
AcDbSpline
210
0.0
220
0.0
230
1.0
 70
     9
 71
     3
 72
   107
 73
   103
 74
     0
 42
0.0000000001
 43
0.0000000001
 40
0.0
 40
0.0
 40
0.0
 40
0.0
 40
1.0
 40
1.0
 40
1.0
 40
2.0
 40
2.0
 40
2.0
 40
3.0
 40
3.0
 40
3.0
 40
4.0
 40
4.0
 40
4.0
 40
5.0
 40
5.0
 40
5.0
 40
6.0
 40
6.0
 40
6.0
 40
7.0
 40
7.0
 40
7.0
 40
8.0
 40
8.0
 40
8.0
 40
9.0
 40
9.0
 40
9.0
 40
10.0
 40
10.0
 40
10.0
 40
11.0
 40
11.0
 40
11.0
 40
12.0
 40
12.0
 40
12.0
 40
13.0
 40
13.0
 40
13.0
 40
14.0
 40
14.0
 40
14.0
 40
15.0
 40
15.0
 40
15.0
 40
16.0
 40
16.0
 40
16.0
 40
17.0
 40
17.0
 40
17.0
 40
18.0
 40
18.0
 40
18.0
 40
19.0
 40
19.0
 40
19.0
 40
20.0
 40
20.0
 40
20.0
 40
21.0
 40
21.0
 40
21.0
 40
22.0
 40
22.0
 40
22.0
 40
23.0
 40
23.0
 40
23.0
 40
24.0
 40
24.0
 40
24.0
 40
25.0
 40
25.0
 40
25.0
 40
26.0
 40
26.0
 40
26.0
 40
27.0
 40
27.0
 40
27.0
 40
28.0
 40
28.0
 40
28.0
 40
29.0
 40
29.0
 40
29.0
 40
30.0
 40
30.0
 40
30.0
 40
31.0
 40
31.0
 40
31.0
 40
32.0
 40
32.0
 40
32.0
 40
33.0
 40
33.0
 40
33.0
 40
34.0
 40
34.0
 40
34.0
 40
34.0
 10
1138.840540049579
 20
-1950.05083799812
 30
0.0
 10
1139.418164787672
 20
-1950.126913853779
 30
0.0
 10
1139.995789525766
 20
-1950.202989709437
 30
0.0
 10
1140.57341426386
 20
-1950.279065565096
 30
0.0
 10
1140.807948186195
 20
-1950.309954769879
 30
0.0
 10
1141.047057186422
 20
-1950.358406335195
 30
0.0
 10
1141.283040027795
 20
-1950.373974795643
 30
0.0
 10
1141.327787809762
 20
-1950.384116685937
 30
0.0
 10
1141.372535591729
 20
-1950.394258576231
 30
0.0
 10
1141.417283373695
 20
-1950.404400466526
 30
0.0
 10
1140.975732379901
 20
-1950.130968668204
 30
0.0
 10
1140.846561950554
 20
-1949.882235554202
 30
0.0
 10
1141.029772085654
 20
-1949.65820112452
 30
0.0
 10
1141.066367588747
 20
-1949.631179892405
 30
0.0
 10
1140.921470336149
 20
-1949.849721638254
 30
0.0
 10
1140.911910539927
 20
-1949.862593186158
 30
0.0
 10
1140.699650953324
 20
-1950.148384783967
 30
0.0
 10
1140.223238202964
 20
-1950.550793192282
 30
0.0
 10
1139.916663428012
 20
-1950.858510195353
 30
0.0
 10
1139.486383853615
 20
-1951.29039289391
 30
0.0
 10
1139.056104320218
 20
-1951.722275633317
 30
0.0
 10
1138.625824786575
 20
-1952.154158372477
 30
0.0
 10
1137.91961394373
 20
-1952.863000530624
 30
0.0
 10
1138.474998646859
 20
-1953.97733562442
 30
0.0
 10
1139.405360908002
 20
-1954.036125049183
 30
0.0
 10
1140.794718039319
 20
-1954.12391827764
 30
0.0
 10
1142.161160621025
 20
-1954.366415252584
 30
0.0
 10
1143.497811637993
 20
-1954.756823366246
 30
0.0
 10
1143.709021888666
 20
-1954.81851351162
 30
0.0
 10
1143.920670191804
 20
-1954.881380307011
 30
0.0
 10
1144.128876616216
 20
-1954.952666999798
 30
0.0
 10
1144.159394356178
 20
-1954.963115806839
 30
0.0
 10
1144.439192230975
 20
-1955.081128231623
 30
0.0
 10
1144.298672481147
 20
-1955.01362971289
 30
0.0
 10
1144.308915866577
 20
-1955.01855011265
 30
0.0
 10
1144.602681063145
 20
-1955.139349643225
 30
0.0
 10
1144.462937576043
 20
-1955.087550757635
 30
0.0
 10
1144.652923702083
 20
-1955.157973142324
 30
0.0
 10
1144.478475307184
 20
-1955.165538230862
 30
0.0
 10
1144.475098521388
 20
-1955.040811921769
 30
0.0
 10
1144.465700999508
 20
-1954.693701299524
 30
0.0
 10
1144.450350869142
 20
-1954.964544219447
 30
0.0
 10
1144.328833278911
 20
-1955.115877690001
 30
0.0
 10
1144.409385721034
 20
-1955.01556068565
 30
0.0
 10
1144.134467222364
 20
-1955.296168990835
 30
0.0
 10
1144.160731119344
 20
-1955.272719606836
 30
0.0
 10
1144.023629938023
 20
-1955.395128640419
 30
0.0
 10
1143.806575858938
 20
-1955.521720699307
 30
0.0
 10
1143.581588771029
 20
-1955.634201088106
 30
0.0
 10
1143.141274876284
 20
-1955.85433229001
 30
0.0
 10
1142.530001063845
 20
-1956.021662130276
 30
0.0
 10
1142.000890575228
 20
-1956.184147897922
 30
0.0
 10
1141.275168395497
 20
-1956.40701160599
 30
0.0
 10
1140.549446224099
 20
-1956.62987534119
 30
0.0
 10
1139.82372405825
 20
-1956.852739094458
 30
0.0
 10
1138.34436734581
 20
-1957.307038280664
 30
0.0
 10
1136.865010656566
 20
-1957.761337542399
 30
0.0
 10
1135.385653967301
 20
-1958.215636804067
 30
0.0
 10
1134.033239972953
 20
-1958.630952923269
 30
0.0
 10
1134.610029893636
 20
-1960.759925425477
 30
0.0
 10
1135.971793389909
 20
-1960.341738144877
 30
0.0
 10
1137.758186374697
 20
-1959.793150356734
 30
0.0
 10
1139.544579359408
 20
-1959.244562568339
 30
0.0
 10
1141.330972385016
 20
-1958.695974913118
 30
0.0
 10
1142.825974408545
 20
-1958.236871209239
 30
0.0
 10
1144.597856132724
 20
-1957.907239128745
 30
0.0
 10
1145.76576308423
 20
-1956.787813212984
 30
0.0
 10
1146.412020987839
 20
-1956.168382149034
 30
0.0
 10
1146.863451930987
 20
-1955.250235098725
 30
0.0
 10
1146.565619106805
 20
-1954.353502592939
 30
0.0
 10
1146.288319333422
 20
-1953.518592198753
 30
0.0
 10
1145.495349912719
 20
-1953.093630412564
 30
0.0
 10
1144.715016038823
 20
-1952.826565658989
 30
0.0
 10
1143.012135057392
 20
-1952.243764495428
 30
0.0
 10
1141.197657439571
 20
-1951.944518835663
 30
0.0
 10
1139.405360908002
 20
-1951.831263938623
 30
0.0
 10
1139.66520628181
 20
-1952.458586164192
 30
0.0
 10
1139.925051655619
 20
-1953.08590838976
 30
0.0
 10
1140.184897029428
 20
-1953.713230615329
 30
0.0
 10
1140.799582086154
 20
-1953.096255264972
 30
0.0
 10
1141.414267141172
 20
-1952.479279912913
 30
0.0
 10
1142.028952317453
 20
-1951.862304681666
 30
0.0
 10
1142.585582720199
 20
-1951.303600511294
 30
0.0
 10
1143.171123956273
 20
-1950.697833105877
 30
0.0
 10
1143.198709556128
 20
-1949.85755962997
 30
0.0
 10
1143.212711228115
 20
-1949.431060527178
 30
0.0
 10
1143.036697574635
 20
-1948.981557653478
 30
0.0
 10
1142.726099298991
 20
-1948.686301787106
 30
0.0
 10
1142.357303654338
 20
-1948.335723287112
 30
0.0
 10
1141.919698852754
 20
-1948.252193851162
 30
0.0
 10
1141.439851371001
 20
-1948.188318238026
 30
0.0
 10
1140.573576715305
 20
-1948.073002795347
 30
0.0
 10
1139.706973900837
 20
-1947.960090242234
 30
0.0
 10
1138.840540049579
 20
-1947.84597688756
 30
0.0
 10
1138.249209429684
 20
-1947.768095903732
 30
0.0
 10
1137.738109494298
 20
-1948.408412173158
 30
0.0
 10
1137.738109494298
 20
-1948.94840744284
 30
0.0
 10
1137.738109494298
 20
-1949.608796247927
 30
0.0
 10
1138.247443692599
 20
-1949.972724458532
 30
0.0
 10
1138.840540049579
 20
-1950.05083799812
 30
0.0
 10
1138.840540049579
 20
-1950.05083799812
 30
0.0
 10
1138.840540049579
 20
-1950.05083799812
 30
0.0
 10
1138.840540049579
 20
-1950.05083799812
 30
0.0
  0
HATCH
  5
8D
330
70
100
AcDbEntity
  8
2023-002
 62
    18
420
        0
440
 33554687
100
AcDbHatch
 10
0.0
 20
0.0
 30
0.0
210
0.0
220
0.0
230
1.0
  2
SOLID
 70
     1
 71
     1
 91
        1
 92
        1
 93
        1
 72
     4
 94
        3
 73
     0
 74
     0
 95
      107
 96
      103
 40
0.0
 40
0.0
 40
0.0
 40
0.0
 40
1.0
 40
1.0
 40
1.0
 40
2.0
 40
2.0
 40
2.0
 40
3.0
 40
3.0
 40
3.0
 40
4.0
 40
4.0
 40
4.0
 40
5.0
 40
5.0
 40
5.0
 40
6.0
 40
6.0
 40
6.0
 40
7.0
 40
7.0
 40
7.0
 40
8.0
 40
8.0
 40
8.0
 40
9.0
 40
9.0
 40
9.0
 40
10.0
 40
10.0
 40
10.0
 40
11.0
 40
11.0
 40
11.0
 40
12.0
 40
12.0
 40
12.0
 40
13.0
 40
13.0
 40
13.0
 40
14.0
 40
14.0
 40
14.0
 40
15.0
 40
15.0
 40
15.0
 40
16.0
 40
16.0
 40
16.0
 40
17.0
 40
17.0
 40
17.0
 40
18.0
 40
18.0
 40
18.0
 40
19.0
 40
19.0
 40
19.0
 40
20.0
 40
20.0
 40
20.0
 40
21.0
 40
21.0
 40
21.0
 40
22.0
 40
22.0
 40
22.0
 40
23.0
 40
23.0
 40
23.0
 40
24.0
 40
24.0
 40
24.0
 40
25.0
 40
25.0
 40
25.0
 40
26.0
 40
26.0
 40
26.0
 40
27.0
 40
27.0
 40
27.0
 40
28.0
 40
28.0
 40
28.0
 40
29.0
 40
29.0
 40
29.0
 40
30.0
 40
30.0
 40
30.0
 40
31.0
 40
31.0
 40
31.0
 40
32.0
 40
32.0
 40
32.0
 40
33.0
 40
33.0
 40
33.0
 40
34.0
 40
34.0
 40
34.0
 40
34.0
 10
1138.840540049579
 20
-1950.05083799812
 10
1139.418164787672
 20
-1950.126913853779
 10
1139.995789525766
 20
-1950.202989709437
 10
1140.57341426386
 20
-1950.279065565096
 10
1140.807948186195
 20
-1950.309954769879
 10
1141.047057186422
 20
-1950.358406335195
 10
1141.283040027795
 20
-1950.373974795643
 10
1141.327787809762
 20
-1950.384116685937
 10
1141.372535591729
 20
-1950.394258576231
 10
1141.417283373695
 20
-1950.404400466526
 10
1140.975732379901
 20
-1950.130968668204
 10
1140.846561950554
 20
-1949.882235554202
 10
1141.029772085654
 20
-1949.65820112452
 10
1141.066367588747
 20
-1949.631179892405
 10
1140.921470336149
 20
-1949.849721638254
 10
1140.911910539927
 20
-1949.862593186158
 10
1140.699650953324
 20
-1950.148384783967
 10
1140.223238202964
 20
-1950.550793192282
 10
1139.916663428012
 20
-1950.858510195353
 10
1139.486383853615
 20
-1951.29039289391
 10
1139.056104320218
 20
-1951.722275633317
 10
1138.625824786575
 20
-1952.154158372477
 10
1137.91961394373
 20
-1952.863000530624
 10
1138.474998646859
 20
-1953.97733562442
 10
1139.405360908002
 20
-1954.036125049183
 10
1140.794718039319
 20
-1954.12391827764
 10
1142.161160621025
 20
-1954.366415252584
 10
1143.497811637993
 20
-1954.756823366246
 10
1143.709021888666
 20
-1954.81851351162
 10
1143.920670191804
 20
-1954.881380307011
 10
1144.128876616216
 20
-1954.952666999798
 10
1144.159394356178
 20
-1954.963115806839
 10
1144.439192230975
 20
-1955.081128231623
 10
1144.298672481147
 20
-1955.01362971289
 10
1144.308915866577
 20
-1955.01855011265
 10
1144.602681063145
 20
-1955.139349643225
 10
1144.462937576043
 20
-1955.087550757635
 10
1144.652923702083
 20
-1955.157973142324
 10
1144.478475307184
 20
-1955.165538230862
 10
1144.475098521388
 20
-1955.040811921769
 10
1144.465700999508
 20
-1954.693701299524
 10
1144.450350869142
 20
-1954.964544219447
 10
1144.328833278911
 20
-1955.115877690001
 10
1144.409385721034
 20
-1955.01556068565
 10
1144.134467222364
 20
-1955.296168990835
 10
1144.160731119344
 20
-1955.272719606836
 10
1144.023629938023
 20
-1955.395128640419
 10
1143.806575858938
 20
-1955.521720699307
 10
1143.581588771029
 20
-1955.634201088106
 10
1143.141274876284
 20
-1955.85433229001
 10
1142.530001063845
 20
-1956.021662130276
 10
1142.000890575228
 20
-1956.184147897922
 10
1141.275168395497
 20
-1956.40701160599
 10
1140.549446224099
 20
-1956.62987534119
 10
1139.82372405825
 20
-1956.852739094458
 10
1138.34436734581
 20
-1957.307038280664
 10
1136.865010656566
 20
-1957.761337542399
 10
1135.385653967301
 20
-1958.215636804067
 10
1134.033239972953
 20
-1958.630952923269
 10
1134.610029893636
 20
-1960.759925425477
 10
1135.971793389909
 20
-1960.341738144877
 10
1137.758186374697
 20
-1959.793150356734
 10
1139.544579359408
 20
-1959.244562568339
 10
1141.330972385016
 20
-1958.695974913118
 10
1142.825974408545
 20
-1958.236871209239
 10
1144.597856132724
 20
-1957.907239128745
 10
1145.76576308423
 20
-1956.787813212984
 10
1146.412020987839
 20
-1956.168382149034
 10
1146.863451930987
 20
-1955.250235098725
 10
1146.565619106805
 20
-1954.353502592939
 10
1146.288319333422
 20
-1953.518592198753
 10
1145.495349912719
 20
-1953.093630412564
 10
1144.715016038823
 20
-1952.826565658989
 10
1143.012135057392
 20
-1952.243764495428
 10
1141.197657439571
 20
-1951.944518835663
 10
1139.405360908002
 20
-1951.831263938623
 10
1139.66520628181
 20
-1952.458586164192
 10
1139.925051655619
 20
-1953.08590838976
 10
1140.184897029428
 20
-1953.713230615329
 10
1140.799582086154
 20
-1953.096255264972
 10
1141.414267141172
 20
-1952.479279912913
 10
1142.028952317453
 20
-1951.862304681666
 10
1142.585582720199
 20
-1951.303600511294
 10
1143.171123956273
 20
-1950.697833105877
 10
1143.198709556128
 20
-1949.85755962997
 10
1143.212711228115
 20
-1949.431060527178
 10
1143.036697574635
 20
-1948.981557653478
 10
1142.726099298991
 20
-1948.686301787106
 10
1142.357303654338
 20
-1948.335723287112
 10
1141.919698852754
 20
-1948.252193851162
 10
1141.439851371001
 20
-1948.188318238026
 10
1140.573576715305
 20
-1948.073002795347
 10
1139.706973900837
 20
-1947.960090242234
 10
1138.840540049579
 20
-1947.84597688756
 10
1138.249209429684
 20
-1947.768095903732
 10
1137.738109494298
 20
-1948.408412173158
 10
1137.738109494298
 20
-1948.94840744284
 10
1137.738109494298
 20
-1949.608796247927
 10
1138.247443692599
 20
-1949.972724458532
 10
1138.840540049579
 20
-1950.05083799812
 10
1138.840540049579
 20
-1950.05083799812
 10
1138.840540049579
 20
-1950.05083799812
 10
1138.840540049579
 20
-1950.05083799812
 97
        0
 97
        1
330
8C
 75
     2
 76
     1
 98
        1
 10
0.0
 20
0.0
450
        0
451
        0
460
0.0
461
0.0
452
        0
462
0.0
453
        0
470

  0
SPLINE
  5
8E
330
70
100
AcDbEntity
  8
2023-002
100
AcDbSpline
210
0.0
220
0.0
230
1.0
 70
     9
 71
     3
 72
   158
 73
   154
 74
     0
 42
0.0000000001
 43
0.0000000001
 40
0.0
 40
0.0
 40
0.0
 40
0.0
 40
1.0
 40
1.0
 40
1.0
 40
2.0
 40
2.0
 40
2.0
 40
3.0
 40
3.0
 40
3.0
 40
4.0
 40
4.0
 40
4.0
 40
5.0
 40
5.0
 40
5.0
 40
6.0
 40
6.0
 40
6.0
 40
7.0
 40
7.0
 40
7.0
 40
8.0
 40
8.0
 40
8.0
 40
9.0
 40
9.0
 40
9.0
 40
10.0
 40
10.0
 40
10.0
 40
11.0
 40
11.0
 40
11.0
 40
12.0
 40
12.0
 40
12.0
 40
13.0
 40
13.0
 40
13.0
 40
14.0
 40
14.0
 40
14.0
 40
15.0
 40
15.0
 40
15.0
 40
16.0
 40
16.0
 40
16.0
 40
17.0
 40
17.0
 40
17.0
 40
18.0
 40
18.0
 40
18.0
 40
19.0
 40
19.0
 40
19.0
 40
20.0
 40
20.0
 40
20.0
 40
21.0
 40
21.0
 40
21.0
 40
22.0
 40
22.0
 40
22.0
 40
23.0
 40
23.0
 40
23.0
 40
24.0
 40
24.0
 40
24.0
 40
25.0
 40
25.0
 40
25.0
 40
26.0
 40
26.0
 40
26.0
 40
27.0
 40
27.0
 40
27.0
 40
28.0
 40
28.0
 40
28.0
 40
29.0
 40
29.0
 40
29.0
 40
30.0
 40
30.0
 40
30.0
 40
31.0
 40
31.0
 40
31.0
 40
32.0
 40
32.0
 40
32.0
 40
33.0
 40
33.0
 40
33.0
 40
34.0
 40
34.0
 40
34.0
 40
35.0
 40
35.0
 40
35.0
 40
36.0
 40
36.0
 40
36.0
 40
37.0
 40
37.0
 40
37.0
 40
38.0
 40
38.0
 40
38.0
 40
39.0
 40
39.0
 40
39.0
 40
40.0
 40
40.0
 40
40.0
 40
41.0
 40
41.0
 40
41.0
 40
42.0
 40
42.0
 40
42.0
 40
43.0
 40
43.0
 40
43.0
 40
44.0
 40
44.0
 40
44.0
 40
45.0
 40
45.0
 40
45.0
 40
46.0
 40
46.0
 40
46.0
 40
47.0
 40
47.0
 40
47.0
 40
48.0
 40
48.0
 40
48.0
 40
49.0
 40
49.0
 40
49.0
 40
50.0
 40
50.0
 40
50.0
 40
51.0
 40
51.0
 40
51.0
 40
51.0
 10
867.272299316602
 20
-1942.104539173762
 30
0.0
 10
863.8899045691838
 20
-1925.898810011147
 30
0.0
 10
860.6642616663444
 20
-1909.659146658002
 30
0.0
 10
857.1574989719085
 20
-1893.480289240171
 30
0.0
 10
852.0193113104326
 20
-1869.772864658425
 30
0.0
 10
846.7623539821028
 20
-1846.091278292817
 30
0.0
 10
841.4240062729339
 20
-1822.428467697605
 30
0.0
 10
837.0053268035524
 20
-1802.841377316217
 30
0.0
 10
832.142919035671
 20
-1783.351610882287
 30
0.0
 10
827.9502378301218
 20
-1763.717322692751
 30
0.0
 10
824.5179753255545
 20
-1747.644574215867
 30
0.0
 10
821.981954411475
 20
-1731.381484213422
 30
0.0
 10
818.6915437135128
 20
-1715.275835074653
 30
0.0
 10
814.0169797769644
 20
-1692.395577918915
 30
0.0
 10
808.9371003565764
 20
-1669.598347564371
 30
0.0
 10
804.1787344723495
 20
-1646.734626866962
 30
0.0
 10
800.751553483623
 20
-1630.266898192694
 30
0.0
 10
797.9211491603288
 20
-1613.668083635212
 30
0.0
 10
794.1938142274498
 20
-1597.271496182713
 30
0.0
 10
787.8308951209676
 20
-1569.28216242235
 30
0.0
 10
780.8400212349115
 20
-1541.436316888946
 30
0.0
 10
774.3775388689056
 20
-1513.469031739688
 30
0.0
 10
771.0136615097206
 20
-1498.911264002442
 30
0.0
 10
768.3698952343399
 20
-1484.188131681904
 30
0.0
 10
765.1222037203949
 20
-1469.601769652131
 30
0.0
 10
761.2167573509284
 20
-1452.060893734207
 30
0.0
 10
756.8790376254504
 20
-1434.616997254193
 30
0.0
 10
752.9805675743416
 20
-1417.074743298075
 30
0.0
 10
749.2788986028279
 20
-1400.418740155538
 30
0.0
 10
746.1192292785309
 20
-1383.641125142371
 30
0.0
 10
742.3341889962742
 20
-1367.004759044099
 30
0.0
 10
736.104508957684
 20
-1339.623312382108
 30
0.0
 10
729.7869789842199
 20
-1312.257713159349
 30
0.0
 10
723.096775806639
 20
-1284.986165043337
 30
0.0
 10
714.3126435931232
 20
-1249.178531588747
 30
0.0
 10
705.5639958631055
 20
-1213.35160559944
 30
0.0
 10
695.9759506181066
 20
-1177.75532875287
 30
0.0
 10
688.9782726684672
 20
-1151.776035953375
 30
0.0
 10
680.9692008117456
 20
-1126.054264041403
 30
0.0
 10
672.8348997341351
 20
-1100.40036051049
 30
0.0
 10
661.8908649061419
 20
-1065.885671391515
 30
0.0
 10
650.3940645075403
 20
-1031.54599312319
 30
0.0
 10
639.1314444745487
 20
-997.1325898114807
 30
0.0
 10
630.2577397784165
 20
-970.0186548139189
 30
0.0
 10
621.2834382941149
 20
-942.9376204782412
 30
0.0
 10
612.534015417613
 20
-915.7837223730506
 30
0.0
 10
605.7222864967899
 20
-894.6437552016863
 30
0.0
 10
599.3053655185764
 20
-873.375802733045
 30
0.0
 10
592.4952730181088
 20
-852.2351465425836
 30
0.0
 10
586.4642888616304
 20
-833.512602873219
 30
0.0
 10
580.076220558106
 20
-814.9058144121589
 30
0.0
 10
573.9479124541693
 20
-796.2142766021616
 30
0.0
 10
564.6944721081752
 20
-767.9913653678981
 30
0.0
 10
556.0639050259145
 20
-739.5508963537407
 30
0.0
 10
546.2021469446126
 20
-711.5436480968537
 30
0.0
 10
531.35456054967
 20
-669.3774019051383
 30
0.0
 10
515.4594928724371
 20
-627.581331223313
 30
0.0
 10
500.4268187225496
 20
-585.4788192980747
 30
0.0
 10
491.7794567997981
 20
-561.2601425463169
 30
0.0
 10
484.0235133338552
 20
-536.7239141182061
 30
0.0
 10
475.7372835453452
 20
-512.3746682475574
 30
0.0
 10
468.5791502734802
 20
-491.3397764884932
 30
0.0
 10
461.0675502048286
 20
-470.4239989058315
 30
0.0
 10
454.0228467018154
 20
-449.3519001155266
 30
0.0
 10
445.5756448267571
 20
-424.0847946802201
 30
0.0
 10
437.8693107358017
 20
-398.5635273254894
 30
0.0
 10
429.1042988022291
 20
-373.4101100411961
 30
0.0
 10
414.8231722324487
 20
-332.4258761104699
 30
0.0
 10
397.2447017100421
 20
-292.8324272271392
 30
0.0
 10
377.7341785758139
 20
-254.0651983685584
 30
0.0
 10
365.5939635316484
 20
-229.942639780839
 30
0.0
 10
357.2279367189612
 20
-204.3996683245511
 30
0.0
 10
350.5245991148428
 20
-178.2480346234067
 30
0.0
 10
342.2161484604529
 20
-145.8339924765623
 30
0.0
 10
340.0671840241412
 20
-112.6084580881673
 30
0.0
 10
336.5233865532389
 20
-79.536919467963
 30
0.0
 10
334.7506050120697
 20
-62.99238669622022
 30
0.0
 10
332.5862022416147
 20
-46.49022859894602
 30
0.0
 10
330.4374746556176
 20
-29.98611110361459
 30
0.0
 10
330.4374746556176
 20
-29.98611110361459
 30
0.0
 10
277.4160770994285
 20
-29.98611110361459
 30
0.0
 10
277.4160770994285
 20
-29.98611110361459
 30
0.0
 10
277.7383873139204
 20
-32.79276579990728
 30
0.0
 10
278.0604176144042
 20
-35.59948509174032
 30
0.0
 10
278.3839120804691
 20
-38.40592446956519
 30
0.0
 10
282.4689771157977
 20
-73.84501883462035
 30
0.0
 10
286.6870659005505
 20
-109.2727443845742
 30
0.0
 10
291.2909192522641
 20
-144.6475015914423
 30
0.0
 10
296.6073044777145
 20
-185.4977213077922
 30
0.0
 10
310.011137482176
 20
-224.003122909494
 30
0.0
 10
326.0622679848907
 20
-261.7119323076189
 30
0.0
 10
342.056425221018
 20
-299.2875026378517
 30
0.0
 10
358.7712103052725
 20
-336.5947000297836
 30
0.0
 10
373.3987412260948
 20
-374.7009873195192
 30
0.0
 10
385.4731118827984
 20
-406.1554842463344
 30
0.0
 10
394.8850266211138
 20
-438.6309352202034
 30
0.0
 10
405.6168866309091
 20
-470.6069334760982
 30
0.0
 10
416.4333237348674
 20
-502.8350265941263
 30
0.0
 10
427.31237544927
 20
-535.0431381583399
 30
0.0
 10
438.35903105903
 20
-567.1927692266914
 30
0.0
 10
460.9000324368583
 20
-632.7947942211416
 30
0.0
 10
483.9088777815836
 20
-698.238172568496
 30
0.0
 10
506.0678180700976
 20
-763.968699624546
 30
0.0
 10
520.1406886177947
 20
-805.7134383836411
 30
0.0
 10
532.9227680145558
 20
-847.8920869191034
 30
0.0
 10
546.4797355133367
 20
-889.8126978027205
 30
0.0
 10
560.8271801712081
 20
-934.1776039331223
 30
0.0
 10
575.4463567354787
 20
-978.454487873876
 30
0.0
 10
589.8726940799624
 20
-1022.793728042913
 30
0.0
 10
601.017836356907
 20
-1057.047967943203
 30
0.0
 10
613.0105582506102
 20
-1091.06363498114
 30
0.0
 10
622.9054753759577
 20
-1125.678576378736
 30
0.0
 10
637.8245475022192
 20
-1177.868327884786
 30
0.0
 10
651.3878023002607
 20
-1230.450131257057
 30
0.0
 10
665.2305404695431
 20
-1282.943740184906
 30
0.0
 10
671.0799680939487
 20
-1305.125848740559
 30
0.0
 10
676.3899798927515
 20
-1327.457474440271
 30
0.0
 10
681.5347993630364
 20
-1349.815971884768
 30
0.0
 10
684.7883475393063
 20
-1363.95533277533
 30
0.0
 10
687.0685701136061
 20
-1378.316557815143
 30
0.0
 10
690.171136980235
 20
-1392.493642501269
 30
0.0
 10
694.4754392795061
 20
-1412.162381645657
 30
0.0
 10
699.1847986804555
 20
-1431.741376052655
 30
0.0
 10
703.6440441491757
 20
-1451.376181006513
 30
0.0
 10
710.4350163697002
 20
-1481.278059525514
 30
0.0
 10
717.0652748858379
 20
-1511.216283801883
 30
0.0
 10
723.9473698819472
 20
-1541.096458219327
 30
0.0
 10
728.4641484452711
 20
-1560.708181033434
 30
0.0
 10
733.6609027299962
 20
-1580.168491900965
 30
0.0
 10
737.91378697915
 20
-1599.834647223739
 30
0.0
 10
743.8970565631576
 20
-1627.502036811006
 30
0.0
 10
749.3840601425151
 20
-1655.278463670382
 30
0.0
 10
754.9019834538526
 20
-1683.044727498075
 30
0.0
 10
759.7862675780655
 20
-1707.622899963719
 30
0.0
 10
764.1522370865227
 20
-1732.307009115534
 30
0.0
 10
769.2546818823391
 20
-1756.838328282579
 30
0.0
 10
773.2962956508599
 20
-1776.27038936713
 30
0.0
 10
778.15965082
 20
-1795.529851167871
 30
0.0
 10
782.5623967227621
 20
-1814.887670444716
 30
0.0
 10
787.7948077457596
 20
-1837.894018095214
 30
0.0
 10
793.0352286157602
 20
-1860.899676726615
 30
0.0
 10
798.0630009669339
 20
-1883.95115512797
 30
0.0
 10
801.9823999731155
 20
-1901.921117688582
 30
0.0
 10
805.4865788459373
 20
-1919.982030770004
 30
0.0
 10
809.3456886811271
 20
-1937.965429203008
 30
0.0
 10
811.6315095355904
 20
-1948.617664443401
 30
0.0
 10
813.9390344916106
 20
-1959.265076550114
 30
0.0
 10
816.253105129053
 20
-1969.911110618633
 30
0.0
 10
816.253105129053
 20
-1969.911110618633
 30
0.0
 10
873.0870176039939
 20
-1969.911110618633
 30
0.0
 10
873.0870176039939
 20
-1969.911110618633
 30
0.0
 10
871.1471704636368
 20
-1960.642597979891
 30
0.0
 10
869.2069788137313
 20
-1951.374085341149
 30
0.0
 10
867.272299316602
 20
-1942.104539173762
 30
0.0
  0
HATCH
  5
8F
330
70
100
AcDbEntity
  8
2023-002
 62
    18
420
        0
440
 33554687
100
AcDbHatch
 10
0.0
 20
0.0
 30
0.0
210
0.0
220
0.0
230
1.0
  2
SOLID
 70
     1
 71
     1
 91
        1
 92
        1
 93
        1
 72
     4
 94
        3
 73
     0
 74
     0
 95
      158
 96
      154
 40
0.0
 40
0.0
 40
0.0
 40
0.0
 40
1.0
 40
1.0
 40
1.0
 40
2.0
 40
2.0
 40
2.0
 40
3.0
 40
3.0
 40
3.0
 40
4.0
 40
4.0
 40
4.0
 40
5.0
 40
5.0
 40
5.0
 40
6.0
 40
6.0
 40
6.0
 40
7.0
 40
7.0
 40
7.0
 40
8.0
 40
8.0
 40
8.0
 40
9.0
 40
9.0
 40
9.0
 40
10.0
 40
10.0
 40
10.0
 40
11.0
 40
11.0
 40
11.0
 40
12.0
 40
12.0
 40
12.0
 40
13.0
 40
13.0
 40
13.0
 40
14.0
 40
14.0
 40
14.0
 40
15.0
 40
15.0
 40
15.0
 40
16.0
 40
16.0
 40
16.0
 40
17.0
 40
17.0
 40
17.0
 40
18.0
 40
18.0
 40
18.0
 40
19.0
 40
19.0
 40
19.0
 40
20.0
 40
20.0
 40
20.0
 40
21.0
 40
21.0
 40
21.0
 40
22.0
 40
22.0
 40
22.0
 40
23.0
 40
23.0
 40
23.0
 40
24.0
 40
24.0
 40
24.0
 40
25.0
 40
25.0
 40
25.0
 40
26.0
 40
26.0
 40
26.0
 40
27.0
 40
27.0
 40
27.0
 40
28.0
 40
28.0
 40
28.0
 40
29.0
 40
29.0
 40
29.0
 40
30.0
 40
30.0
 40
30.0
 40
31.0
 40
31.0
 40
31.0
 40
32.0
 40
32.0
 40
32.0
 40
33.0
 40
33.0
 40
33.0
 40
34.0
 40
34.0
 40
34.0
 40
35.0
 40
35.0
 40
35.0
 40
36.0
 40
36.0
 40
36.0
 40
37.0
 40
37.0
 40
37.0
 40
38.0
 40
38.0
 40
38.0
 40
39.0
 40
39.0
 40
39.0
 40
40.0
 40
40.0
 40
40.0
 40
41.0
 40
41.0
 40
41.0
 40
42.0
 40
42.0
 40
42.0
 40
43.0
 40
43.0
 40
43.0
 40
44.0
 40
44.0
 40
44.0
 40
45.0
 40
45.0
 40
45.0
 40
46.0
 40
46.0
 40
46.0
 40
47.0
 40
47.0
 40
47.0
 40
48.0
 40
48.0
 40
48.0
 40
49.0
 40
49.0
 40
49.0
 40
50.0
 40
50.0
 40
50.0
 40
51.0
 40
51.0
 40
51.0
 40
51.0
 10
867.272299316602
 20
-1942.104539173762
 10
863.8899045691838
 20
-1925.898810011147
 10
860.6642616663444
 20
-1909.659146658002
 10
857.1574989719085
 20
-1893.480289240171
 10
852.0193113104326
 20
-1869.772864658425
 10
846.7623539821028
 20
-1846.091278292817
 10
841.4240062729339
 20
-1822.428467697605
 10
837.0053268035524
 20
-1802.841377316217
 10
832.142919035671
 20
-1783.351610882287
 10
827.9502378301218
 20
-1763.717322692751
 10
824.5179753255545
 20
-1747.644574215867
 10
821.981954411475
 20
-1731.381484213422
 10
818.6915437135128
 20
-1715.275835074653
 10
814.0169797769644
 20
-1692.395577918915
 10
808.9371003565764
 20
-1669.598347564371
 10
804.1787344723495
 20
-1646.734626866962
 10
800.751553483623
 20
-1630.266898192694
 10
797.9211491603288
 20
-1613.668083635212
 10
794.1938142274498
 20
-1597.271496182713
 10
787.8308951209676
 20
-1569.28216242235
 10
780.8400212349115
 20
-1541.436316888946
 10
774.3775388689056
 20
-1513.469031739688
 10
771.0136615097206
 20
-1498.911264002442
 10
768.3698952343399
 20
-1484.188131681904
 10
765.1222037203949
 20
-1469.601769652131
 10
761.2167573509284
 20
-1452.060893734207
 10
756.8790376254504
 20
-1434.616997254193
 10
752.9805675743416
 20
-1417.074743298075
 10
749.2788986028279
 20
-1400.418740155538
 10
746.1192292785309
 20
-1383.641125142371
 10
742.3341889962742
 20
-1367.004759044099
 10
736.104508957684
 20
-1339.623312382108
 10
729.7869789842199
 20
-1312.257713159349
 10
723.096775806639
 20
-1284.986165043337
 10
714.3126435931232
 20
-1249.178531588747
 10
705.5639958631055
 20
-1213.35160559944
 10
695.9759506181066
 20
-1177.75532875287
 10
688.9782726684672
 20
-1151.776035953375
 10
680.9692008117456
 20
-1126.054264041403
 10
672.8348997341351
 20
-1100.40036051049
 10
661.8908649061419
 20
-1065.885671391515
 10
650.3940645075403
 20
-1031.54599312319
 10
639.1314444745487
 20
-997.1325898114807
 10
630.2577397784165
 20
-970.0186548139189
 10
621.2834382941149
 20
-942.9376204782412
 10
612.534015417613
 20
-915.7837223730506
 10
605.7222864967899
 20
-894.6437552016863
 10
599.3053655185764
 20
-873.375802733045
 10
592.4952730181088
 20
-852.2351465425836
 10
586.4642888616304
 20
-833.512602873219
 10
580.076220558106
 20
-814.9058144121589
 10
573.9479124541693
 20
-796.2142766021616
 10
564.6944721081752
 20
-767.9913653678981
 10
556.0639050259145
 20
-739.5508963537407
 10
546.2021469446126
 20
-711.5436480968537
 10
531.35456054967
 20
-669.3774019051383
 10
515.4594928724371
 20
-627.581331223313
 10
500.4268187225496
 20
-585.4788192980747
 10
491.7794567997981
 20
-561.2601425463169
 10
484.0235133338552
 20
-536.7239141182061
 10
475.7372835453452
 20
-512.3746682475574
 10
468.5791502734802
 20
-491.3397764884932
 10
461.0675502048286
 20
-470.4239989058315
 10
454.0228467018154
 20
-449.3519001155266
 10
445.5756448267571
 20
-424.0847946802201
 10
437.8693107358017
 20
-398.5635273254894
 10
429.1042988022291
 20
-373.4101100411961
 10
414.8231722324487
 20
-332.4258761104699
 10
397.2447017100421
 20
-292.8324272271392
 10
377.7341785758139
 20
-254.0651983685584
 10
365.5939635316484
 20
-229.942639780839
 10
357.2279367189612
 20
-204.3996683245511
 10
350.5245991148428
 20
-178.2480346234067
 10
342.2161484604529
 20
-145.8339924765623
 10
340.0671840241412
 20
-112.6084580881673
 10
336.5233865532389
 20
-79.536919467963
 10
334.7506050120697
 20
-62.99238669622022
 10
332.5862022416147
 20
-46.49022859894602
 10
330.4374746556176
 20
-29.98611110361459
 10
330.4374746556176
 20
-29.98611110361459
 10
277.4160770994285
 20
-29.98611110361459
 10
277.4160770994285
 20
-29.98611110361459
 10
277.7383873139204
 20
-32.79276579990728
 10
278.0604176144042
 20
-35.59948509174032
 10
278.3839120804691
 20
-38.40592446956519
 10
282.4689771157977
 20
-73.84501883462035
 10
286.6870659005505
 20
-109.2727443845742
 10
291.2909192522641
 20
-144.6475015914423
 10
296.6073044777145
 20
-185.4977213077922
 10
310.011137482176
 20
-224.003122909494
 10
326.0622679848907
 20
-261.7119323076189
 10
342.056425221018
 20
-299.2875026378517
 10
358.7712103052725
 20
-336.5947000297836
 10
373.3987412260948
 20
-374.7009873195192
 10
385.4731118827984
 20
-406.1554842463344
 10
394.8850266211138
 20
-438.6309352202034
 10
405.6168866309091
 20
-470.6069334760982
 10
416.4333237348674
 20
-502.8350265941263
 10
427.31237544927
 20
-535.0431381583399
 10
438.35903105903
 20
-567.1927692266914
 10
460.9000324368583
 20
-632.7947942211416
 10
483.9088777815836
 20
-698.238172568496
 10
506.0678180700976
 20
-763.968699624546
 10
520.1406886177947
 20
-805.7134383836411
 10
532.9227680145558
 20
-847.8920869191034
 10
546.4797355133367
 20
-889.8126978027205
 10
560.8271801712081
 20
-934.1776039331223
 10
575.4463567354787
 20
-978.454487873876
 10
589.8726940799624
 20
-1022.793728042913
 10
601.017836356907
 20
-1057.047967943203
 10
613.0105582506102
 20
-1091.06363498114
 10
622.9054753759577
 20
-1125.678576378736
 10
637.8245475022192
 20
-1177.868327884786
 10
651.3878023002607
 20
-1230.450131257057
 10
665.2305404695431
 20
-1282.943740184906
 10
671.0799680939487
 20
-1305.125848740559
 10
676.3899798927515
 20
-1327.457474440271
 10
681.5347993630364
 20
-1349.815971884768
 10
684.7883475393063
 20
-1363.95533277533
 10
687.0685701136061
 20
-1378.316557815143
 10
690.171136980235
 20
-1392.493642501269
 10
694.4754392795061
 20
-1412.162381645657
 10
699.1847986804555
 20
-1431.741376052655
 10
703.6440441491757
 20
-1451.376181006513
 10
710.4350163697002
 20
-1481.278059525514
 10
717.0652748858379
 20
-1511.216283801883
 10
723.9473698819472
 20
-1541.096458219327
 10
728.4641484452711
 20
-1560.708181033434
 10
733.6609027299962
 20
-1580.168491900965
 10
737.91378697915
 20
-1599.834647223739
 10
743.8970565631576
 20
-1627.502036811006
 10
749.3840601425151
 20
-1655.278463670382
 10
754.9019834538526
 20
-1683.044727498075
 10
759.7862675780655
 20
-1707.622899963719
 10
764.1522370865227
 20
-1732.307009115534
 10
769.2546818823391
 20
-1756.838328282579
 10
773.2962956508599
 20
-1776.27038936713
 10
778.15965082
 20
-1795.529851167871
 10
782.5623967227621
 20
-1814.887670444716
 10
787.7948077457596
 20
-1837.894018095214
 10
793.0352286157602
 20
-1860.899676726615
 10
798.0630009669339
 20
-1883.95115512797
 10
801.9823999731155
 20
-1901.921117688582
 10
805.4865788459373
 20
-1919.982030770004
 10
809.3456886811271
 20
-1937.965429203008
 10
811.6315095355904
 20
-1948.617664443401
 10
813.9390344916106
 20
-1959.265076550114
 10
816.253105129053
 20
-1969.911110618633
 10
816.253105129053
 20
-1969.911110618633
 10
873.0870176039939
 20
-1969.911110618633
 10
873.0870176039939
 20
-1969.911110618633
 10
871.1471704636368
 20
-1960.642597979891
 10
869.2069788137313
 20
-1951.374085341149
 10
867.272299316602
 20
-1942.104539173762
 97
        0
 97
        1
330
8E
 75
     2
 76
     1
 98
        1
 10
0.0
 20
0.0
450
        0
451
        0
460
0.0
461
0.0
452
        0
462
0.0
453
        0
470

  0
SPLINE
  5
90
330
70
100
AcDbEntity
  8
2023-002
100
AcDbSpline
210
0.0
220
0.0
230
1.0
 70
     9
 71
     3
 72
   152
 73
   148
 74
     0
 42
0.0000000001
 43
0.0000000001
 40
0.0
 40
0.0
 40
0.0
 40
0.0
 40
1.0
 40
1.0
 40
1.0
 40
2.0
 40
2.0
 40
2.0
 40
3.0
 40
3.0
 40
3.0
 40
4.0
 40
4.0
 40
4.0
 40
5.0
 40
5.0
 40
5.0
 40
6.0
 40
6.0
 40
6.0
 40
7.0
 40
7.0
 40
7.0
 40
8.0
 40
8.0
 40
8.0
 40
9.0
 40
9.0
 40
9.0
 40
10.0
 40
10.0
 40
10.0
 40
11.0
 40
11.0
 40
11.0
 40
12.0
 40
12.0
 40
12.0
 40
13.0
 40
13.0
 40
13.0
 40
14.0
 40
14.0
 40
14.0
 40
15.0
 40
15.0
 40
15.0
 40
16.0
 40
16.0
 40
16.0
 40
17.0
 40
17.0
 40
17.0
 40
18.0
 40
18.0
 40
18.0
 40
19.0
 40
19.0
 40
19.0
 40
20.0
 40
20.0
 40
20.0
 40
21.0
 40
21.0
 40
21.0
 40
22.0
 40
22.0
 40
22.0
 40
23.0
 40
23.0
 40
23.0
 40
24.0
 40
24.0
 40
24.0
 40
25.0
 40
25.0
 40
25.0
 40
26.0
 40
26.0
 40
26.0
 40
27.0
 40
27.0
 40
27.0
 40
28.0
 40
28.0
 40
28.0
 40
29.0
 40
29.0
 40
29.0
 40
30.0
 40
30.0
 40
30.0
 40
31.0
 40
31.0
 40
31.0
 40
32.0
 40
32.0
 40
32.0
 40
33.0
 40
33.0
 40
33.0
 40
34.0
 40
34.0
 40
34.0
 40
35.0
 40
35.0
 40
35.0
 40
36.0
 40
36.0
 40
36.0
 40
37.0
 40
37.0
 40
37.0
 40
38.0
 40
38.0
 40
38.0
 40
39.0
 40
39.0
 40
39.0
 40
40.0
 40
40.0
 40
40.0
 40
41.0
 40
41.0
 40
41.0
 40
42.0
 40
42.0
 40
42.0
 40
43.0
 40
43.0
 40
43.0
 40
44.0
 40
44.0
 40
44.0
 40
45.0
 40
45.0
 40
45.0
 40
46.0
 40
46.0
 40
46.0
 40
47.0
 40
47.0
 40
47.0
 40
48.0
 40
48.0
 40
48.0
 40
49.0
 40
49.0
 40
49.0
 40
49.0
 10
758.3611177032048
 20
-1917.479857919067
 30
0.0
 10
752.2792322609319
 20
-1890.950383370578
 30
0.0
 10
746.4461688400811
 20
-1864.362858963163
 30
0.0
 10
740.6428193677907
 20
-1837.770511422068
 30
0.0
 10
732.5318588120928
 20
-1800.604132308096
 30
0.0
 10
724.3669825120506
 20
-1763.447399461482
 30
0.0
 10
716.5579845756347
 20
-1726.216597061936
 30
0.0
 10
709.2488699941287
 20
-1691.369283973859
 30
0.0
 10
702.4288728441411
 20
-1656.419134785548
 30
0.0
 10
695.2886540687993
 20
-1621.535992704425
 30
0.0
 10
690.1248004459583
 20
-1596.307730720714
 30
0.0
 10
684.9735214216385
 20
-1571.074817858099
 30
0.0
 10
679.4794553965364
 20
-1545.917524841385
 30
0.0
 10
673.8088282278152
 20
-1519.952012423831
 30
0.0
 10
667.7821504406933
 20
-1494.063153380824
 30
0.0
 10
661.818173391403
 20
-1468.162408758393
 30
0.0
 10
652.4941947153487
 20
-1427.668928679541
 30
0.0
 10
643.3418679218468
 20
-1387.133935200091
 30
0.0
 10
633.649522411032
 20
-1346.728305056113
 30
0.0
 10
624.6716897038582
 20
-1309.30164897823
 30
0.0
 10
615.3062837545935
 20
-1271.963704109092
 30
0.0
 10
605.6861129941948
 20
-1234.696383697402
 30
0.0
 10
598.4465032141037
 20
-1206.65055037108
 30
0.0
 10
591.1268810913676
 20
-1178.599893911079
 30
0.0
 10
582.7604667054384
 20
-1150.878071815145
 30
0.0
 10
573.7720403296473
 20
-1121.096082619031
 30
0.0
 10
563.5408818849395
 20
-1091.68840304739
 30
0.0
 10
553.8124489989167
 20
-1062.130861822141
 30
0.0
 10
543.85896525032
 20
-1031.889469143069
 30
0.0
 10
533.8127223057829
 20
-1001.678565559042
 30
0.0
 10
523.8870577032296
 20
-971.4280433769348
 30
0.0
 10
506.4409219111502
 20
-918.25730093146
 30
0.0
 10
489.2152722301267
 20
-865.0136947164723
 30
0.0
 10
471.5968816637848
 20
-811.9004853656013
 30
0.0
 10
456.3233953394782
 20
-765.8571287147857
 30
0.0
 10
440.5655285899454
 20
-719.9743135135828
 30
0.0
 10
425.1498459494851
 20
-673.9774656518181
 30
0.0
 10
412.4999290282769
 20
-636.2324827510981
 30
0.0
 10
399.9297660675523
 20
-598.4606281055931
 30
0.0
 10
387.528800358847
 20
-560.6329629132272
 30
0.0
 10
378.1316995311182
 20
-531.9685626925287
 30
0.0
 10
369.2004186766886
 20
-503.1508557227366
 30
0.0
 10
359.7978918235705
 20
-474.4878335402321
 30
0.0
 10
350.1614860506975
 20
-445.1121933566039
 30
0.0
 10
340.3648402740668
 20
-415.7871099492216
 30
0.0
 10
330.3355644247946
 20
-386.5434169226784
 30
0.0
 10
322.5090395650976
 20
-363.7230183009963
 30
0.0
 10
315.1681439777401
 20
-340.662238141831
 30
0.0
 10
305.8393852316999
 20
-318.4542913700393
 30
0.0
 10
298.1564347263507
 20
-300.1643655662349
 30
0.0
 10
286.4193819813465
 20
-283.5483255313265
 30
0.0
 10
279.0905442281875
 20
-265.1485011815428
 30
0.0
 10
268.7155099832769
 20
-239.1006509818915
 30
0.0
 10
259.9392584256836
 20
-212.3326035710488
 30
0.0
 10
251.9472828553074
 20
-185.4357095890577
 30
0.0
 10
242.0611076597539
 20
-152.1643554307089
 30
0.0
 10
241.3799261549328
 20
-117.4123853601868
 30
0.0
 10
237.7872513918336
 20
-83.13532170230645
 30
0.0
 10
235.9279764221378
 20
-65.39624513474686
 30
0.0
 10
233.7454223048449
 20
-47.69153339465264
 30
0.0
 10
231.5668085155133
 20
-29.98611110361459
 30
0.0
 10
231.5668085155133
 20
-29.98611110361459
 30
0.0
 10
179.4226183972559
 20
-29.98611110361459
 30
0.0
 10
179.4226183972559
 20
-29.98611110361459
 30
0.0
 10
183.1658868967541
 20
-62.65485346605287
 30
0.0
 10
186.9599920865065
 20
-95.32075362471582
 30
0.0
 10
191.2103786414335
 20
-127.9256971251366
 30
0.0
 10
193.35529509055
 20
-144.3787841435928
 30
0.0
 10
195.8740905272033
 20
-160.8522833527991
 30
0.0
 10
199.532351295603
 20
-177.0198580829152
 30
0.0
 10
203.4527838304302
 20
-194.3461045521079
 30
0.0
 10
208.3031337641135
 20
-211.5235228963379
 30
0.0
 10
213.8593837627244
 20
-228.3996676403827
 30
0.0
 10
220.1491807175322
 20
-247.5037556347387
 30
0.0
 10
226.1681931671993
 20
-266.9457213688104
 30
0.0
 10
235.0257059145509
 20
-284.8953578660592
 30
0.0
 10
247.392392923178
 20
-309.9564465913477
 30
0.0
 10
259.434896446643
 20
-334.928737980504
 30
0.0
 10
267.9420429831447
 20
-361.6657795319794
 30
0.0
 10
284.1335611268833
 20
-412.5533710719919
 30
0.0
 10
301.1774820210598
 20
-463.1688861960567
 30
0.0
 10
317.8260782083039
 20
-513.9110947065916
 30
0.0
 10
326.4402810870097
 20
-540.166339654455
 30
0.0
 10
334.9480305152213
 20
-566.4563800667192
 30
0.0
 10
343.53617985932
 20
-592.7198932437471
 30
0.0
 10
352.6357105645104
 20
-620.5476520258526
 30
0.0
 10
361.8329958540948
 20
-648.3431991651712
 30
0.0
 10
370.8772758404404
 20
-676.1888724438001
 30
0.0
 10
379.0546406116166
 20
-701.3654579952316
 30
0.0
 10
387.0896798755583
 20
-726.5883800809397
 30
0.0
 10
395.1754051068268
 20
-751.7949379630929
 30
0.0
 10
402.9118407195845
 20
-775.9123289075844
 30
0.0
 10
410.5434162385099
 20
-800.0634817878314
 30
0.0
 10
418.3822142508732
 20
-824.1472830513416
 30
0.0
 10
429.0386697332351
 20
-856.888092504962
 30
0.0
 10
439.8700499388606
 20
-889.5718856283014
 30
0.0
 10
450.5841246432133
 20
-922.2942638210758
 30
0.0
 10
457.5859797711286
 20
-943.6784882623443
 30
0.0
 10
464.4642420985106
 20
-965.1031925755646
 30
0.0
 10
471.4883611559995
 20
-986.4801823163139
 30
0.0
 10
477.3257309462067
 20
-1004.245506205102
 30
0.0
 10
483.2572379705485
 20
-1021.980513253619
 30
0.0
 10
489.2169947778693
 20
-1039.705185015681
 30
0.0
 10
494.7367267643366
 20
-1056.120892748122
 30
0.0
 10
500.3062403805658
 20
-1072.51989176746
 30
0.0
 10
505.932253562753
 20
-1088.898909232983
 30
0.0
 10
511.7179469206816
 20
-1105.743359098564
 30
0.0
 10
518.1216042812768
 20
-1122.395917145616
 30
0.0
 10
523.3046643114481
 20
-1139.421751288495
 30
0.0
 10
529.7846305370417
 20
-1160.708479527531
 30
0.0
 10
535.4832491065805
 20
-1182.241359838988
 30
0.0
 10
541.1819538035066
 20
-1203.757186927793
 30
0.0
 10
550.7577689595327
 20
-1239.912602771619
 30
0.0
 10
560.3478812618227
 20
-1276.068190870219
 30
0.0
 10
569.4062430759644
 20
-1312.355209361581
 30
0.0
 10
577.5719806498779
 20
-1345.066563248803
 30
0.0
 10
585.0988252660516
 20
-1377.938630840411
 30
0.0
 10
592.7778569752864
 20
-1410.770218560068
 30
0.0
 10
596.8636540934056
 20
-1428.239264237124
 30
0.0
 10
600.7413674442156
 20
-1445.758091543942
 30
0.0
 10
604.5918645406922
 20
-1463.281052965343
 30
0.0
 10
609.0594643659643
 20
-1483.612283971545
 30
0.0
 10
613.2480975843182
 20
-1504.00587120603
 30
0.0
 10
617.8216340957616
 20
-1524.312642034286
 30
0.0
 10
624.1384750501286
 20
-1552.359508889254
 30
0.0
 10
630.9709606712504
 20
-1580.292859847982
 30
0.0
 10
637.0830768264063
 20
-1608.383134906064
 30
0.0
 10
643.0421446146302
 20
-1635.769749211283
 30
0.0
 10
648.3013412550254
 20
-1663.307947717854
 30
0.0
 10
653.9981511494345
 20
-1690.752784136774
 30
0.0
 10
660.4550352352768
 20
-1721.860101566063
 30
0.0
 10
667.0347369751684
 20
-1752.94226979831
 30
0.0
 10
673.6025531356358
 20
-1784.026677342622
 30
0.0
 10
678.2990795559027
 20
-1806.254950177777
 30
0.0
 10
682.8945785510645
 20
-1828.505960643134
 30
0.0
 10
687.837601553301
 20
-1850.679111950524
 30
0.0
 10
695.3698721948641
 20
-1884.467230431661
 30
0.0
 10
703.3963417837863
 20
-1918.145967131141
 30
0.0
 10
710.7747027845459
 20
-1951.966986274161
 30
0.0
 10
712.0779824066159
 20
-1957.940781845584
 30
0.0
 10
713.338026080346
 20
-1963.924051429592
 30
0.0
 10
714.5808442766499
 20
-1969.911110618633
 30
0.0
 10
714.5808442766499
 20
-1969.911110618633
 30
0.0
 10
771.0922958141714
 20
-1969.911110618633
 30
0.0
 10
771.0922958141714
 20
-1969.911110618633
 30
0.0
 10
766.8587902271221
 20
-1952.431557400347
 30
0.0
 10
762.3794770772002
 20
-1935.008676002793
 30
0.0
 10
758.3611177032048
 20
-1917.479857919067
 30
0.0
  0
HATCH
  5
91
330
70
100
AcDbEntity
  8
2023-002
 62
    18
420
        0
440
 33554687
100
AcDbHatch
 10
0.0
 20
0.0
 30
0.0
210
0.0
220
0.0
230
1.0
  2
SOLID
 70
     1
 71
     1
 91
        1
 92
        1
 93
        1
 72
     4
 94
        3
 73
     0
 74
     0
 95
      152
 96
      148
 40
0.0
 40
0.0
 40
0.0
 40
0.0
 40
1.0
 40
1.0
 40
1.0
 40
2.0
 40
2.0
 40
2.0
 40
3.0
 40
3.0
 40
3.0
 40
4.0
 40
4.0
 40
4.0
 40
5.0
 40
5.0
 40
5.0
 40
6.0
 40
6.0
 40
6.0
 40
7.0
 40
7.0
 40
7.0
 40
8.0
 40
8.0
 40
8.0
 40
9.0
 40
9.0
 40
9.0
 40
10.0
 40
10.0
 40
10.0
 40
11.0
 40
11.0
 40
11.0
 40
12.0
 40
12.0
 40
12.0
 40
13.0
 40
13.0
 40
13.0
 40
14.0
 40
14.0
 40
14.0
 40
15.0
 40
15.0
 40
15.0
 40
16.0
 40
16.0
 40
16.0
 40
17.0
 40
17.0
 40
17.0
 40
18.0
 40
18.0
 40
18.0
 40
19.0
 40
19.0
 40
19.0
 40
20.0
 40
20.0
 40
20.0
 40
21.0
 40
21.0
 40
21.0
 40
22.0
 40
22.0
 40
22.0
 40
23.0
 40
23.0
 40
23.0
 40
24.0
 40
24.0
 40
24.0
 40
25.0
 40
25.0
 40
25.0
 40
26.0
 40
26.0
 40
26.0
 40
27.0
 40
27.0
 40
27.0
 40
28.0
 40
28.0
 40
28.0
 40
29.0
 40
29.0
 40
29.0
 40
30.0
 40
30.0
 40
30.0
 40
31.0
 40
31.0
 40
31.0
 40
32.0
 40
32.0
 40
32.0
 40
33.0
 40
33.0
 40
33.0
 40
34.0
 40
34.0
 40
34.0
 40
35.0
 40
35.0
 40
35.0
 40
36.0
 40
36.0
 40
36.0
 40
37.0
 40
37.0
 40
37.0
 40
38.0
 40
38.0
 40
38.0
 40
39.0
 40
39.0
 40
39.0
 40
40.0
 40
40.0
 40
40.0
 40
41.0
 40
41.0
 40
41.0
 40
42.0
 40
42.0
 40
42.0
 40
43.0
 40
43.0
 40
43.0
 40
44.0
 40
44.0
 40
44.0
 40
45.0
 40
45.0
 40
45.0
 40
46.0
 40
46.0
 40
46.0
 40
47.0
 40
47.0
 40
47.0
 40
48.0
 40
48.0
 40
48.0
 40
49.0
 40
49.0
 40
49.0
 40
49.0
 10
758.3611177032048
 20
-1917.479857919067
 10
752.2792322609319
 20
-1890.950383370578
 10
746.4461688400811
 20
-1864.362858963163
 10
740.6428193677907
 20
-1837.770511422068
 10
732.5318588120928
 20
-1800.604132308096
 10
724.3669825120506
 20
-1763.447399461482
 10
716.5579845756347
 20
-1726.216597061936
 10
709.2488699941287
 20
-1691.369283973859
 10
702.4288728441411
 20
-1656.419134785548
 10
695.2886540687993
 20
-1621.535992704425
 10
690.1248004459583
 20
-1596.307730720714
 10
684.9735214216385
 20
-1571.074817858099
 10
679.4794553965364
 20
-1545.917524841385
 10
673.8088282278152
 20
-1519.952012423831
 10
667.7821504406933
 20
-1494.063153380824
 10
661.818173391403
 20
-1468.162408758393
 10
652.4941947153487
 20
-1427.668928679541
 10
643.3418679218468
 20
-1387.133935200091
 10
633.649522411032
 20
-1346.728305056113
 10
624.6716897038582
 20
-1309.30164897823
 10
615.3062837545935
 20
-1271.963704109092
 10
605.6861129941948
 20
-1234.696383697402
 10
598.4465032141037
 20
-1206.65055037108
 10
591.1268810913676
 20
-1178.599893911079
 10
582.7604667054384
 20
-1150.878071815145
 10
573.7720403296473
 20
-1121.096082619031
 10
563.5408818849395
 20
-1091.68840304739
 10
553.8124489989167
 20
-1062.130861822141
 10
543.85896525032
 20
-1031.889469143069
 10
533.8127223057829
 20
-1001.678565559042
 10
523.8870577032296
 20
-971.4280433769348
 10
506.4409219111502
 20
-918.25730093146
 10
489.2152722301267
 20
-865.0136947164723
 10
471.5968816637848
 20
-811.9004853656013
 10
456.3233953394782
 20
-765.8571287147857
 10
440.5655285899454
 20
-719.9743135135828
 10
425.1498459494851
 20
-673.9774656518181
 10
412.4999290282769
 20
-636.2324827510981
 10
399.9297660675523
 20
-598.4606281055931
 10
387.528800358847
 20
-560.6329629132272
 10
378.1316995311182
 20
-531.9685626925287
 10
369.2004186766886
 20
-503.1508557227366
 10
359.7978918235705
 20
-474.4878335402321
 10
350.1614860506975
 20
-445.1121933566039
 10
340.3648402740668
 20
-415.7871099492216
 10
330.3355644247946
 20
-386.5434169226784
 10
322.5090395650976
 20
-363.7230183009963
 10
315.1681439777401
 20
-340.662238141831
 10
305.8393852316999
 20
-318.4542913700393
 10
298.1564347263507
 20
-300.1643655662349
 10
286.4193819813465
 20
-283.5483255313265
 10
279.0905442281875
 20
-265.1485011815428
 10
268.7155099832769
 20
-239.1006509818915
 10
259.9392584256836
 20
-212.3326035710488
 10
251.9472828553074
 20
-185.4357095890577
 10
242.0611076597539
 20
-152.1643554307089
 10
241.3799261549328
 20
-117.4123853601868
 10
237.7872513918336
 20
-83.13532170230645
 10
235.9279764221378
 20
-65.39624513474686
 10
233.7454223048449
 20
-47.69153339465264
 10
231.5668085155133
 20
-29.98611110361459
 10
231.5668085155133
 20
-29.98611110361459
 10
179.4226183972559
 20
-29.98611110361459
 10
179.4226183972559
 20
-29.98611110361459
 10
183.1658868967541
 20
-62.65485346605287
 10
186.9599920865065
 20
-95.32075362471582
 10
191.2103786414335
 20
-127.9256971251366
 10
193.35529509055
 20
-144.3787841435928
 10
195.8740905272033
 20
-160.8522833527991
 10
199.532351295603
 20
-177.0198580829152
 10
203.4527838304302
 20
-194.3461045521079
 10
208.3031337641135
 20
-211.5235228963379
 10
213.8593837627244
 20
-228.3996676403827
 10
220.1491807175322
 20
-247.5037556347387
 10
226.1681931671993
 20
-266.9457213688104
 10
235.0257059145509
 20
-284.8953578660592
 10
247.392392923178
 20
-309.9564465913477
 10
259.434896446643
 20
-334.928737980504
 10
267.9420429831447
 20
-361.6657795319794
 10
284.1335611268833
 20
-412.5533710719919
 10
301.1774820210598
 20
-463.1688861960567
 10
317.8260782083039
 20
-513.9110947065916
 10
326.4402810870097
 20
-540.166339654455
 10
334.9480305152213
 20
-566.4563800667192
 10
343.53617985932
 20
-592.7198932437471
 10
352.6357105645104
 20
-620.5476520258526
 10
361.8329958540948
 20
-648.3431991651712
 10
370.8772758404404
 20
-676.1888724438001
 10
379.0546406116166
 20
-701.3654579952316
 10
387.0896798755583
 20
-726.5883800809397
 10
395.1754051068268
 20
-751.7949379630929
 10
402.9118407195845
 20
-775.9123289075844
 10
410.5434162385099
 20
-800.0634817878314
 10
418.3822142508732
 20
-824.1472830513416
 10
429.0386697332351
 20
-856.888092504962
 10
439.8700499388606
 20
-889.5718856283014
 10
450.5841246432133
 20
-922.2942638210758
 10
457.5859797711286
 20
-943.6784882623443
 10
464.4642420985106
 20
-965.1031925755646
 10
471.4883611559995
 20
-986.4801823163139
 10
477.3257309462067
 20
-1004.245506205102
 10
483.2572379705485
 20
-1021.980513253619
 10
489.2169947778693
 20
-1039.705185015681
 10
494.7367267643366
 20
-1056.120892748122
 10
500.3062403805658
 20
-1072.51989176746
 10
505.932253562753
 20
-1088.898909232983
 10
511.7179469206816
 20
-1105.743359098564
 10
518.1216042812768
 20
-1122.395917145616
 10
523.3046643114481
 20
-1139.421751288495
 10
529.7846305370417
 20
-1160.708479527531
 10
535.4832491065805
 20
-1182.241359838988
 10
541.1819538035066
 20
-1203.757186927793
 10
550.7577689595327
 20
-1239.912602771619
 10
560.3478812618227
 20
-1276.068190870219
 10
569.4062430759644
 20
-1312.355209361581
 10
577.5719806498779
 20
-1345.066563248803
 10
585.0988252660516
 20
-1377.938630840411
 10
592.7778569752864
 20
-1410.770218560068
 10
596.8636540934056
 20
-1428.239264237124
 10
600.7413674442156
 20
-1445.758091543942
 10
604.5918645406922
 20
-1463.281052965343
 10
609.0594643659643
 20
-1483.612283971545
 10
613.2480975843182
 20
-1504.00587120603
 10
617.8216340957616
 20
-1524.312642034286
 10
624.1384750501286
 20
-1552.359508889254
 10
630.9709606712504
 20
-1580.292859847982
 10
637.0830768264063
 20
-1608.383134906064
 10
643.0421446146302
 20
-1635.769749211283
 10
648.3013412550254
 20
-1663.307947717854
 10
653.9981511494345
 20
-1690.752784136774
 10
660.4550352352768
 20
-1721.860101566063
 10
667.0347369751684
 20
-1752.94226979831
 10
673.6025531356358
 20
-1784.026677342622
 10
678.2990795559027
 20
-1806.254950177777
 10
682.8945785510645
 20
-1828.505960643134
 10
687.837601553301
 20
-1850.679111950524
 10
695.3698721948641
 20
-1884.467230431661
 10
703.3963417837863
 20
-1918.145967131141
 10
710.7747027845459
 20
-1951.966986274161
 10
712.0779824066159
 20
-1957.940781845584
 10
713.338026080346
 20
-1963.924051429592
 10
714.5808442766499
 20
-1969.911110618633
 10
714.5808442766499
 20
-1969.911110618633
 10
771.0922958141714
 20
-1969.911110618633
 10
771.0922958141714
 20
-1969.911110618633
 10
766.8587902271221
 20
-1952.431557400347
 10
762.3794770772002
 20
-1935.008676002793
 10
758.3611177032048
 20
-1917.479857919067
 97
        0
 97
        1
330
90
 75
     2
 76
     1
 98
        1
 10
0.0
 20
0.0
450
        0
451
        0
460
0.0
461
0.0
452
        0
462
0.0
453
        0
470

  0
SPLINE
  5
92
330
70
100
AcDbEntity
  8
2023-002
100
AcDbSpline
210
0.0
220
0.0
230
1.0
 70
     9
 71
     3
 72
   161
 73
   157
 74
     0
 42
0.0000000001
 43
0.0000000001
 40
0.0
 40
0.0
 40
0.0
 40
0.0
 40
1.0
 40
1.0
 40
1.0
 40
2.0
 40
2.0
 40
2.0
 40
3.0
 40
3.0
 40
3.0
 40
4.0
 40
4.0
 40
4.0
 40
5.0
 40
5.0
 40
5.0
 40
6.0
 40
6.0
 40
6.0
 40
7.0
 40
7.0
 40
7.0
 40
8.0
 40
8.0
 40
8.0
 40
9.0
 40
9.0
 40
9.0
 40
10.0
 40
10.0
 40
10.0
 40
11.0
 40
11.0
 40
11.0
 40
12.0
 40
12.0
 40
12.0
 40
13.0
 40
13.0
 40
13.0
 40
14.0
 40
14.0
 40
14.0
 40
15.0
 40
15.0
 40
15.0
 40
16.0
 40
16.0
 40
16.0
 40
17.0
 40
17.0
 40
17.0
 40
18.0
 40
18.0
 40
18.0
 40
19.0
 40
19.0
 40
19.0
 40
20.0
 40
20.0
 40
20.0
 40
21.0
 40
21.0
 40
21.0
 40
22.0
 40
22.0
 40
22.0
 40
23.0
 40
23.0
 40
23.0
 40
24.0
 40
24.0
 40
24.0
 40
25.0
 40
25.0
 40
25.0
 40
26.0
 40
26.0
 40
26.0
 40
27.0
 40
27.0
 40
27.0
 40
28.0
 40
28.0
 40
28.0
 40
29.0
 40
29.0
 40
29.0
 40
30.0
 40
30.0
 40
30.0
 40
31.0
 40
31.0
 40
31.0
 40
32.0
 40
32.0
 40
32.0
 40
33.0
 40
33.0
 40
33.0
 40
34.0
 40
34.0
 40
34.0
 40
35.0
 40
35.0
 40
35.0
 40
36.0
 40
36.0
 40
36.0
 40
37.0
 40
37.0
 40
37.0
 40
38.0
 40
38.0
 40
38.0
 40
39.0
 40
39.0
 40
39.0
 40
40.0
 40
40.0
 40
40.0
 40
41.0
 40
41.0
 40
41.0
 40
42.0
 40
42.0
 40
42.0
 40
43.0
 40
43.0
 40
43.0
 40
44.0
 40
44.0
 40
44.0
 40
45.0
 40
45.0
 40
45.0
 40
46.0
 40
46.0
 40
46.0
 40
47.0
 40
47.0
 40
47.0
 40
48.0
 40
48.0
 40
48.0
 40
49.0
 40
49.0
 40
49.0
 40
50.0
 40
50.0
 40
50.0
 40
51.0
 40
51.0
 40
51.0
 40
52.0
 40
52.0
 40
52.0
 40
52.0
 10
979.117324245238
 20
-1962.369796601421
 30
0.0
 10
976.6580428330925
 20
-1949.450688531734
 30
0.0
 10
973.9979123541568
 20
-1936.567064945546
 30
0.0
 10
971.2209931382712
 20
-1923.712380161433
 30
0.0
 10
968.1108470615747
 20
-1909.314809364251
 30
0.0
 10
964.8022634849279
 20
-1894.959440986763
 30
0.0
 10
961.5260638058424
 20
-1880.598388201725
 30
0.0
 10
956.8475380094861
 20
-1860.089045758936
 30
0.0
 10
952.0785784566418
 20
-1839.600373889058
 30
0.0
 10
947.4234793095851
 20
-1819.085863803041
 30
0.0
 10
941.7074630078458
 20
-1793.895842379217
 30
0.0
 10
935.9588905537707
 20
-1768.712883401138
 30
0.0
 10
930.4343354336241
 20
-1743.480487302845
 30
0.0
 10
926.5390520958392
 20
-1725.690703236112
 30
0.0
 10
923.1269433998606
 20
-1707.795154737982
 30
0.0
 10
919.2581872973121
 20
-1689.999514008924
 30
0.0
 10
914.2637462449583
 20
-1667.025550255987
 30
0.0
 10
909.2185761615843
 20
-1644.058821203568
 30
0.0
 10
903.8439688224331
 20
-1621.172018366408
 30
0.0
 10
898.5079465527167
 20
-1598.449718838669
 30
0.0
 10
892.7322439716954
 20
-1575.831805704132
 30
0.0
 10
887.1562708014314
 20
-1553.166177997125
 30
0.0
 10
878.5212250950399
 20
-1518.066683919528
 30
0.0
 10
869.7798120655413
 20
-1482.992683548523
 30
0.0
 10
861.3061690826336
 20
-1447.853915382394
 30
0.0
 10
856.8909347087373
 20
-1429.544610916485
 30
0.0
 10
853.3020926143654
 20
-1411.032907090818
 30
0.0
 10
848.7195127272732
 20
-1392.768216611443
 30
0.0
 10
841.0594290432074
 20
-1362.237780421159
 30
0.0
 10
832.7213505676443
 20
-1331.878393221718
 30
0.0
 10
825.0267298013389
 20
-1301.356225260598
 30
0.0
 10
820.8610064679618
 20
-1284.831824765598
 30
0.0
 10
817.5080672869425
 20
-1268.103819127418
 30
0.0
 10
813.6616181776609
 20
-1251.49708085032
 30
0.0
 10
807.2828516319466
 20
-1223.957159796007
 30
0.0
 10
800.8865150992576
 20
-1196.42068383718
 30
0.0
 10
794.3367856900877
 20
-1168.921070400044
 30
0.0
 10
789.0288409485762
 20
-1146.635264470285
 30
0.0
 10
783.6102225146009
 20
-1124.373918718472
 30
0.0
 10
778.0060856887451
 20
-1102.161148813001
 30
0.0
 10
773.3931889613826
 20
-1083.876649034586
 30
0.0
 10
768.7659089603693
 20
-1065.584397791329
 30
0.0
 10
763.5551159115419
 20
-1047.465607105755
 30
0.0
 10
755.5373451887199
 20
-1019.586860910468
 30
0.0
 10
747.2882363040634
 20
-991.7678871218496
 30
0.0
 10
738.6403576169892
 20
-964.0789656877997
 30
0.0
 10
726.3329262507085
 20
-924.6727577440921
 30
0.0
 10
713.7082877176233
 20
-885.3645627669401
 30
0.0
 10
700.9535968299699
 20
-846.1006372667734
 30
0.0
 10
694.65906286887
 20
-826.7238699647601
 30
0.0
 10
687.5892101688146
 20
-807.5996281618154
 30
0.0
 10
681.2019170117742
 20
-788.2517996618781
 30
0.0
 10
675.6240490389934
 20
-771.3553288544702
 30
0.0
 10
671.0906478899531
 20
-754.0962617472398
 30
0.0
 10
665.0699990199305
 20
-737.3675670899636
 30
0.0
 10
653.1829554302372
 20
-704.3377141251308
 30
0.0
 10
640.3787412949834
 20
-671.6397961103019
 30
0.0
 10
628.3320175295489
 20
-638.6664427114271
 30
0.0
 10
611.0498682825674
 20
-591.3625256225587
 30
0.0
 10
594.1089557433998
 20
-543.9332070580271
 30
0.0
 10
577.0161144933328
 20
-496.5600435499052
 30
0.0
 10
571.301820739336
 20
-480.7227673494374
 30
0.0
 10
565.1000459741764
 20
-465.0428458852584
 30
0.0
 10
559.948422440308
 20
-449.024702171815
 30
0.0
 10
551.0739425976916
 20
-421.4318127744163
 30
0.0
 10
542.9728005641266
 20
-393.5894984638856
 30
0.0
 10
534.2585176615743
 20
-365.9431239590785
 30
0.0
 10
532.1665695555434
 20
-359.3065781436803
 30
0.0
 10
529.0521171094905
 20
-352.9782822468249
 30
0.0
 10
526.2114636271276
 20
-346.595898350851
 30
0.0
 10
522.1323844452048
 20
-337.4312553409894
 30
0.0
 10
518.2037698086
 20
-328.1760924472529
 30
0.0
 10
513.6108546350522
 20
-319.2694870892365
 30
0.0
 10
507.2748072733549
 20
-306.9821234041573
 30
0.0
 10
499.5135239094098
 20
-295.3700845615742
 30
0.0
 10
493.9117986503936
 20
-282.7779160534375
 30
0.0
 10
483.6529933144166
 20
-259.7181694229177
 30
0.0
 10
473.1264179318485
 20
-236.6157036083808
 30
0.0
 10
465.239474710079
 20
-212.6959750173555
 30
0.0
 10
451.4013012923146
 20
-170.7260131409122
 30
0.0
 10
445.0503969563372
 20
-127.0622700691459
 30
0.0
 10
439.3599174248822
 20
-83.29896373785581
 30
0.0
 10
437.0424447556482
 20
-65.47630054108535
 30
0.0
 10
434.1290566948531
 20
-47.73246543538676
 30
0.0
 10
431.2275111497887
 20
-29.98611110361459
 30
0.0
 10
431.2275111497887
 20
-29.98611110361459
 30
0.0
 10
375.0986805295978
 20
-29.98611110361459
 30
0.0
 10
375.0986805295978
 20
-29.98611110361459
 30
0.0
 10
380.0980739067116
 20
-65.17373503009328
 30
0.0
 10
385.745188298746
 20
-100.2774924133529
 30
0.0
 10
391.3734838566922
 20
-135.3720126343427
 30
0.0
 10
401.2004895372867
 20
-196.6471699540934
 30
0.0
 10
420.7267739833599
 20
-254.6642143460562
 30
0.0
 10
450.7028943100673
 20
-309.1043883504583
 30
0.0
 10
468.5924138910984
 20
-341.5938780884297
 30
0.0
 10
478.6847349877507
 20
-377.1235784647469
 30
0.0
 10
490.2533656272196
 20
-412.077086621156
 30
0.0
 10
499.8308172036013
 20
-441.0142522768992
 30
0.0
 10
509.6439994385612
 20
-469.8743339211599
 30
0.0
 10
519.4756129343671
 20
-498.7264918458045
 30
0.0
 10
533.0192306881428
 20
-538.4714388030992
 30
0.0
 10
546.1439248309119
 20
-578.3717595667785
 30
0.0
 10
560.4783642533265
 20
-617.8305913440233
 30
0.0
 10
569.8420476548485
 20
-643.6063651277269
 30
0.0
 10
582.0642990352565
 20
-668.3540362912448
 30
0.0
 10
591.1547863647981
 20
-694.2143010417241
 30
0.0
 10
603.669612479291
 20
-729.815917786296
 30
0.0
 10
614.3821368906754
 20
-766.0503985715082
 30
0.0
 10
625.9662704598278
 20
-801.9815386992442
 30
0.0
 10
635.8928824636397
 20
-832.771046070019
 30
0.0
 10
646.0038932032993
 20
-863.5009532888991
 30
0.0
 10
655.9518647991197
 20
-894.2839149782519
 30
0.0
 10
666.2592459814386
 20
-926.1789534902435
 30
0.0
 10
676.889690992887
 20
-957.9782183477449
 30
0.0
 10
686.5996064906765
 20
-990.0555024109063
 30
0.0
 10
695.9621702361658
 20
-1020.98522516793
 30
0.0
 10
704.075283976542
 20
-1052.291669116267
 30
0.0
 10
713.2075430888423
 20
-1083.293911133256
 30
0.0
 10
722.0664338743879
 20
-1113.367355407422
 30
0.0
 10
732.1292132772541
 20
-1143.095084349643
 30
0.0
 10
740.5470457133008
 20
-1173.286523144178
 30
0.0
 10
749.0156933077547
 20
-1203.660379744658
 30
0.0
 10
756.230498400352
 20
-1234.388908925344
 30
0.0
 10
763.7699176150471
 20
-1265.017185827409
 30
0.0
 10
770.6977462537231
 20
-1293.16120437506
 30
0.0
 10
777.5496105369494
 20
-1321.327271533818
 30
0.0
 10
784.0005518330797
 20
-1349.583083429965
 30
0.0
 10
787.6496830984436
 20
-1365.567292952879
 30
0.0
 10
790.0701210589929
 20
-1381.830899719646
 30
0.0
 10
793.6663701086581
 20
-1397.828717369727
 30
0.0
 10
800.8983145512946
 20
-1429.999708030087
 30
0.0
 10
808.5400531019015
 20
-1462.077853367119
 30
0.0
 10
816.044418470034
 20
-1494.187176818293
 30
0.0
 10
821.7926464145605
 20
-1518.782402506589
 30
0.0
 10
827.7862512850239
 20
-1543.321645393249
 30
0.0
 10
833.3160601757857
 20
-1567.965446927887
 30
0.0
 10
840.542147956097
 20
-1600.169338250131
 30
0.0
 10
847.4032278697464
 20
-1632.455739609247
 30
0.0
 10
854.4505151943736
 20
-1664.699938548668
 30
0.0
 10
860.545836509039
 20
-1692.589536794734
 30
0.0
 10
866.7680234649486
 20
-1720.451402022144
 30
0.0
 10
872.7765283733857
 20
-1748.359431529056
 30
0.0
 10
879.8167532522681
 20
-1781.059761110725
 30
0.0
 10
886.6851539938235
 20
-1813.796953214085
 30
0.0
 10
893.6303803647
 20
-1846.517608859117
 30
0.0
 10
902.1460535125276
 20
-1886.636951568271
 30
0.0
 10
910.2912066409167
 20
-1926.840010097717
 30
0.0
 10
919.3199406338854
 20
-1966.843425343792
 30
0.0
 10
919.5509342861713
 20
-1967.866790957686
 30
0.0
 10
919.7878707281693
 20
-1968.888778533385
 30
0.0
 10
920.0237736415218
 20
-1969.911110618633
 30
0.0
 10
920.0237736415218
 20
-1969.911110618633
 30
0.0
 10
980.395713052427
 20
-1969.911110618633
 30
0.0
 10
980.395713052427
 20
-1969.911110618633
 30
0.0
 10
980.0061588804325
 20
-1967.388611704333
 30
0.0
 10
979.5935225686866
 20
-1964.871280433261
 30
0.0
 10
979.117324245238
 20
-1962.369796601421
 30
0.0
  0
HATCH
  5
93
330
70
100
AcDbEntity
  8
2023-002
 62
    18
420
        0
440
 33554687
100
AcDbHatch
 10
0.0
 20
0.0
 30
0.0
210
0.0
220
0.0
230
1.0
  2
SOLID
 70
     1
 71
     1
 91
        1
 92
        1
 93
        1
 72
     4
 94
        3
 73
     0
 74
     0
 95
      161
 96
      157
 40
0.0
 40
0.0
 40
0.0
 40
0.0
 40
1.0
 40
1.0
 40
1.0
 40
2.0
 40
2.0
 40
2.0
 40
3.0
 40
3.0
 40
3.0
 40
4.0
 40
4.0
 40
4.0
 40
5.0
 40
5.0
 40
5.0
 40
6.0
 40
6.0
 40
6.0
 40
7.0
 40
7.0
 40
7.0
 40
8.0
 40
8.0
 40
8.0
 40
9.0
 40
9.0
 40
9.0
 40
10.0
 40
10.0
 40
10.0
 40
11.0
 40
11.0
 40
11.0
 40
12.0
 40
12.0
 40
12.0
 40
13.0
 40
13.0
 40
13.0
 40
14.0
 40
14.0
 40
14.0
 40
15.0
 40
15.0
 40
15.0
 40
16.0
 40
16.0
 40
16.0
 40
17.0
 40
17.0
 40
17.0
 40
18.0
 40
18.0
 40
18.0
 40
19.0
 40
19.0
 40
19.0
 40
20.0
 40
20.0
 40
20.0
 40
21.0
 40
21.0
 40
21.0
 40
22.0
 40
22.0
 40
22.0
 40
23.0
 40
23.0
 40
23.0
 40
24.0
 40
24.0
 40
24.0
 40
25.0
 40
25.0
 40
25.0
 40
26.0
 40
26.0
 40
26.0
 40
27.0
 40
27.0
 40
27.0
 40
28.0
 40
28.0
 40
28.0
 40
29.0
 40
29.0
 40
29.0
 40
30.0
 40
30.0
 40
30.0
 40
31.0
 40
31.0
 40
31.0
 40
32.0
 40
32.0
 40
32.0
 40
33.0
 40
33.0
 40
33.0
 40
34.0
 40
34.0
 40
34.0
 40
35.0
 40
35.0
 40
35.0
 40
36.0
 40
36.0
 40
36.0
 40
37.0
 40
37.0
 40
37.0
 40
38.0
 40
38.0
 40
38.0
 40
39.0
 40
39.0
 40
39.0
 40
40.0
 40
40.0
 40
40.0
 40
41.0
 40
41.0
 40
41.0
 40
42.0
 40
42.0
 40
42.0
 40
43.0
 40
43.0
 40
43.0
 40
44.0
 40
44.0
 40
44.0
 40
45.0
 40
45.0
 40
45.0
 40
46.0
 40
46.0
 40
46.0
 40
47.0
 40
47.0
 40
47.0
 40
48.0
 40
48.0
 40
48.0
 40
49.0
 40
49.0
 40
49.0
 40
50.0
 40
50.0
 40
50.0
 40
51.0
 40
51.0
 40
51.0
 40
52.0
 40
52.0
 40
52.0
 40
52.0
 10
979.117324245238
 20
-1962.369796601421
 10
976.6580428330925
 20
-1949.450688531734
 10
973.9979123541568
 20
-1936.567064945546
 10
971.2209931382712
 20
-1923.712380161433
 10
968.1108470615747
 20
-1909.314809364251
 10
964.8022634849279
 20
-1894.959440986763
 10
961.5260638058424
 20
-1880.598388201725
 10
956.8475380094861
 20
-1860.089045758936
 10
952.0785784566418
 20
-1839.600373889058
 10
947.4234793095851
 20
-1819.085863803041
 10
941.7074630078458
 20
-1793.895842379217
 10
935.9588905537707
 20
-1768.712883401138
 10
930.4343354336241
 20
-1743.480487302845
 10
926.5390520958392
 20
-1725.690703236112
 10
923.1269433998606
 20
-1707.795154737982
 10
919.2581872973121
 20
-1689.999514008924
 10
914.2637462449583
 20
-1667.025550255987
 10
909.2185761615843
 20
-1644.058821203568
 10
903.8439688224331
 20
-1621.172018366408
 10
898.5079465527167
 20
-1598.449718838669
 10
892.7322439716954
 20
-1575.831805704132
 10
887.1562708014314
 20
-1553.166177997125
 10
878.5212250950399
 20
-1518.066683919528
 10
869.7798120655413
 20
-1482.992683548523
 10
861.3061690826336
 20
-1447.853915382394
 10
856.8909347087373
 20
-1429.544610916485
 10
853.3020926143654
 20
-1411.032907090818
 10
848.7195127272732
 20
-1392.768216611443
 10
841.0594290432074
 20
-1362.237780421159
 10
832.7213505676443
 20
-1331.878393221718
 10
825.0267298013389
 20
-1301.356225260598
 10
820.8610064679618
 20
-1284.831824765598
 10
817.5080672869425
 20
-1268.103819127418
 10
813.6616181776609
 20
-1251.49708085032
 10
807.2828516319466
 20
-1223.957159796007
 10
800.8865150992576
 20
-1196.42068383718
 10
794.3367856900877
 20
-1168.921070400044
 10
789.0288409485762
 20
-1146.635264470285
 10
783.6102225146009
 20
-1124.373918718472
 10
778.0060856887451
 20
-1102.161148813001
 10
773.3931889613826
 20
-1083.876649034586
 10
768.7659089603693
 20
-1065.584397791329
 10
763.5551159115419
 20
-1047.465607105755
 10
755.5373451887199
 20
-1019.586860910468
 10
747.2882363040634
 20
-991.7678871218496
 10
738.6403576169892
 20
-964.0789656877997
 10
726.3329262507085
 20
-924.6727577440921
 10
713.7082877176233
 20
-885.3645627669401
 10
700.9535968299699
 20
-846.1006372667734
 10
694.65906286887
 20
-826.7238699647601
 10
687.5892101688146
 20
-807.5996281618154
 10
681.2019170117742
 20
-788.2517996618781
 10
675.6240490389934
 20
-771.3553288544702
 10
671.0906478899531
 20
-754.0962617472398
 10
665.0699990199305
 20
-737.3675670899636
 10
653.1829554302372
 20
-704.3377141251308
 10
640.3787412949834
 20
-671.6397961103019
 10
628.3320175295489
 20
-638.6664427114271
 10
611.0498682825674
 20
-591.3625256225587
 10
594.1089557433998
 20
-543.9332070580271
 10
577.0161144933328
 20
-496.5600435499052
 10
571.301820739336
 20
-480.7227673494374
 10
565.1000459741764
 20
-465.0428458852584
 10
559.948422440308
 20
-449.024702171815
 10
551.0739425976916
 20
-421.4318127744163
 10
542.9728005641266
 20
-393.5894984638856
 10
534.2585176615743
 20
-365.9431239590785
 10
532.1665695555434
 20
-359.3065781436803
 10
529.0521171094905
 20
-352.9782822468249
 10
526.2114636271276
 20
-346.595898350851
 10
522.1323844452048
 20
-337.4312553409894
 10
518.2037698086
 20
-328.1760924472529
 10
513.6108546350522
 20
-319.2694870892365
 10
507.2748072733549
 20
-306.9821234041573
 10
499.5135239094098
 20
-295.3700845615742
 10
493.9117986503936
 20
-282.7779160534375
 10
483.6529933144166
 20
-259.7181694229177
 10
473.1264179318485
 20
-236.6157036083808
 10
465.239474710079
 20
-212.6959750173555
 10
451.4013012923146
 20
-170.7260131409122
 10
445.0503969563372
 20
-127.0622700691459
 10
439.3599174248822
 20
-83.29896373785581
 10
437.0424447556482
 20
-65.47630054108535
 10
434.1290566948531
 20
-47.73246543538676
 10
431.2275111497887
 20
-29.98611110361459
 10
431.2275111497887
 20
-29.98611110361459
 10
375.0986805295978
 20
-29.98611110361459
 10
375.0986805295978
 20
-29.98611110361459
 10
380.0980739067116
 20
-65.17373503009328
 10
385.745188298746
 20
-100.2774924133529
 10
391.3734838566922
 20
-135.3720126343427
 10
401.2004895372867
 20
-196.6471699540934
 10
420.7267739833599
 20
-254.6642143460562
 10
450.7028943100673
 20
-309.1043883504583
 10
468.5924138910984
 20
-341.5938780884297
 10
478.6847349877507
 20
-377.1235784647469
 10
490.2533656272196
 20
-412.077086621156
 10
499.8308172036013
 20
-441.0142522768992
 10
509.6439994385612
 20
-469.8743339211599
 10
519.4756129343671
 20
-498.7264918458045
 10
533.0192306881428
 20
-538.4714388030992
 10
546.1439248309119
 20
-578.3717595667785
 10
560.4783642533265
 20
-617.8305913440233
 10
569.8420476548485
 20
-643.6063651277269
 10
582.0642990352565
 20
-668.3540362912448
 10
591.1547863647981
 20
-694.2143010417241
 10
603.669612479291
 20
-729.815917786296
 10
614.3821368906754
 20
-766.0503985715082
 10
625.9662704598278
 20
-801.9815386992442
 10
635.8928824636397
 20
-832.771046070019
 10
646.0038932032993
 20
-863.5009532888991
 10
655.9518647991197
 20
-894.2839149782519
 10
666.2592459814386
 20
-926.1789534902435
 10
676.889690992887
 20
-957.9782183477449
 10
686.5996064906765
 20
-990.0555024109063
 10
695.9621702361658
 20
-1020.98522516793
 10
704.075283976542
 20
-1052.291669116267
 10
713.2075430888423
 20
-1083.293911133256
 10
722.0664338743879
 20
-1113.367355407422
 10
732.1292132772541
 20
-1143.095084349643
 10
740.5470457133008
 20
-1173.286523144178
 10
749.0156933077547
 20
-1203.660379744658
 10
756.230498400352
 20
-1234.388908925344
 10
763.7699176150471
 20
-1265.017185827409
 10
770.6977462537231
 20
-1293.16120437506
 10
777.5496105369494
 20
-1321.327271533818
 10
784.0005518330797
 20
-1349.583083429965
 10
787.6496830984436
 20
-1365.567292952879
 10
790.0701210589929
 20
-1381.830899719646
 10
793.6663701086581
 20
-1397.828717369727
 10
800.8983145512946
 20
-1429.999708030087
 10
808.5400531019015
 20
-1462.077853367119
 10
816.044418470034
 20
-1494.187176818293
 10
821.7926464145605
 20
-1518.782402506589
 10
827.7862512850239
 20
-1543.321645393249
 10
833.3160601757857
 20
-1567.965446927887
 10
840.542147956097
 20
-1600.169338250131
 10
847.4032278697464
 20
-1632.455739609247
 10
854.4505151943736
 20
-1664.699938548668
 10
860.545836509039
 20
-1692.589536794734
 10
866.7680234649486
 20
-1720.451402022144
 10
872.7765283733857
 20
-1748.359431529056
 10
879.8167532522681
 20
-1781.059761110725
 10
886.6851539938235
 20
-1813.796953214085
 10
893.6303803647
 20
-1846.517608859117
 10
902.1460535125276
 20
-1886.636951568271
 10
910.2912066409167
 20
-1926.840010097717
 10
919.3199406338854
 20
-1966.843425343792
 10
919.5509342861713
 20
-1967.866790957686
 10
919.7878707281693
 20
-1968.888778533385
 10
920.0237736415218
 20
-1969.911110618633
 10
920.0237736415218
 20
-1969.911110618633
 10
980.395713052427
 20
-1969.911110618633
 10
980.395713052427
 20
-1969.911110618633
 10
980.0061588804325
 20
-1967.388611704333
 10
979.5935225686866
 20
-1964.871280433261
 10
979.117324245238
 20
-1962.369796601421
 97
        0
 97
        1
330
92
 75
     2
 76
     1
 98
        1
 10
0.0
 20
0.0
450
        0
451
        0
460
0.0
461
0.0
452
        0
462
0.0
453
        0
470

  0
ENDSEC
  0
SECTION
  2
OBJECTS
  0
DICTIONARY
  5
C
330
0
100
AcDbDictionary
281
     1
  3
ACAD_COLOR
350
63
  3
ACAD_DETAILVIEWSTYLE
350
6A
  3
ACAD_GROUP
350
D
  3
ACAD_LAYOUT
350
62
  3
ACAD_MATERIAL
350
10
  3
ACAD_MLEADERSTYLE
350
66
  3
ACAD_MLINESTYLE
350
5F
  3
ACAD_PLOTSETTINGS
350
61
  3
ACAD_PLOTSTYLENAME
350
E
  3
ACAD_SCALELIST
350
42
  3
ACAD_SECTIONVIEWSTYLE
350
68
  3
ACAD_TABLESTYLE
350
64
  3
ACAD_VISUALSTYLE
350
29
  3
ACDB_RECOMPOSE_DATA
350
9E
  3
AcDbVariableDictionary
350
96
  0
DICTIONARY
  5
63
102
{ACAD_REACTORS
330
C
102
}
330
C
100
AcDbDictionary
281
     1
  0
DICTIONARY
  5
6A
102
{ACAD_REACTORS
330
C
102
}
330
C
100
AcDbDictionary
281
     1
  3
Imperial24
350
6B
  0
DICTIONARY
  5
D
102
{ACAD_REACTORS
330
C
102
}
330
C
100
AcDbDictionary
281
     1
  0
DICTIONARY
  5
62
102
{ACAD_REACTORS
330
C
102
}
330
C
100
AcDbDictionary
281
     1
  3
Layout1
350
6F
  3
Layout2
350
77
  3
Model
350
73
  0
DICTIONARY
  5
10
102
{ACAD_REACTORS
330
C
102
}
330
C
100
AcDbDictionary
281
     1
  3
ByBlock
350
19
  3
ByLayer
350
11
  3
Global
350
21
  0
DICTIONARY
  5
66
102
{ACAD_REACTORS
330
C
102
}
330
C
100
AcDbDictionary
281
     1
  3
Standard
350
67
  0
DICTIONARY
  5
5F
102
{ACAD_REACTORS
330
C
102
}
330
C
100
AcDbDictionary
281
     1
  3
Standard
350
60
  0
DICTIONARY
  5
61
102
{ACAD_REACTORS
330
C
102
}
330
C
100
AcDbDictionary
281
     1
  0
ACDBDICTIONARYWDFLT
  5
E
102
{ACAD_REACTORS
330
C
102
}
330
C
100
AcDbDictionary
281
     1
  3
Normal
350
F
100
AcDbDictionaryWithDefault
340
F
  0
DICTIONARY
  5
42
102
{ACAD_REACTORS
330
C
102
}
330
C
100
AcDbDictionary
281
     1
  3
A0
350
43
  3
A1
350
44
  3
A2
350
45
  3
A3
350
46
  3
A4
350
47
  3
A5
350
48
  3
A6
350
49
  3
A7
350
4A
  3
A8
350
4B
  3
A9
350
4C
  3
B0
350
4D
  3
B1
350
4E
  3
B2
350
4F
  3
B3
350
50
  3
B4
350
51
  3
B5
350
52
  3
B6
350
53
  0
DICTIONARY
  5
68
102
{ACAD_REACTORS
330
C
102
}
330
C
100
AcDbDictionary
281
     1
  3
Imperial24
350
69
  0
DICTIONARY
  5
64
102
{ACAD_REACTORS
330
C
102
}
330
C
100
AcDbDictionary
281
     1
  3
Standard
350
65
  0
DICTIONARY
  5
29
102
{ACAD_REACTORS
330
C
102
}
330
C
100
AcDbDictionary
281
     1
  3
2dWireframe
350
2F
  3
Basic
350
2E
  3
Brighten
350
35
  3
ColorChange
350
39
  3
Conceptual
350
32
  3
Dim
350
34
  3
EdgeColorOff
350
41
  3
Facepattern
350
38
  3
Flat
350
2A
  3
FlatWithEdges
350
2B
  3
Gouraud
350
2C
  3
GouraudWithEdges
350
2D
  3
Hidden
350
31
  3
JitterOff
350
3F
  3
Linepattern
350
37
  3
OverhangOff
350
40
  3
Realistic
350
33
  3
Shaded
350
3E
  3
Shaded with edges
350
3D
  3
Shades of Gray
350
3A
  3
Sketchy
350
3B
  3
Thicken
350
36
  3
Wireframe
350
30
  3
X-Ray
350
3C
  0
XRECORD
  5
9E
102
{ACAD_REACTORS
330
C
102
}
330
C
100
AcDbXrecord
280
     1
 90
        1
330
65
  0
DICTIONARY
  5
96
102
{ACAD_REACTORS
330
C
102
}
330
C
100
AcDbDictionary
281
     1
  3
CANNOSCALE
350
9B
  3
CMLEADERSTYLE
350
98
  3
CTABLESTYLE
350
97
  3
CVIEWDETAILSTYLE
350
99
  3
CVIEWSECTIONSTYLE
350
9A
  0
ACDBDETAILVIEWSTYLE
  5
6B
102
{ACAD_REACTORS
330
6A
102
}
330
6A
100
AcDbModelDocViewStyle
 70
     0
  3
Imperial24
290
     1
300
Imperial24
 90
        0
100
AcDbDetailViewStyle
 70
     0
 71
     0
 90
        3
 71
     1
340
55
 62
   256
 40
0.24
340
0
 62
   256
 40
0.24
300

 40
0.36
280
     3
 71
     2
340
5D
 90
       25
 62
   256
 71
     3
340
55
 62
   256
 40
0.24
 90
        1
 40
0.75
 90
        1
300
%<\AcVar ViewType \f "%tc1">% %<\AcVar ViewDetailId>%\PSCALE %<\AcVar ViewScale \f "%sn">%
 71
     4
340
5D
 90
       25
 62
   256
340
5D
 90
       25
 62
   256
280
     0
  0
LAYOUT
  5
6F
102
{ACAD_REACTORS
330
62
102
}
330
62
100
AcDbPlotSettings
  1

  2

  4

  6

 40
0.0
 41
0.0
 42
0.0
 43
0.0
 44
0.0
 45
0.0
 46
0.0
 47
0.0
 48
0.0
 49
0.0
140
0.0
141
0.0
142
1.0
143
1.0
 70
   688
 72
     0
 73
     0
 74
     5
  7

 75
    16
147
1.0
 76
     0
 77
     2
 78
   300
148
0.0
149
0.0
100
AcDbLayout
  1
Layout1
 70
     1
 71
     1
 10
0.0
 20
0.0
 11
12.0
 21
9.0
 12
0.0
 22
0.0
 32
0.0
 14
0.0
 24
0.0
 34
0.0
 15
0.0
 25
0.0
 35
0.0
146
0.0
 13
0.0
 23
0.0
 33
0.0
 16
1.0
 26
0.0
 36
0.0
 17
0.0
 27
1.0
 37
0.0
 76
     0
330
6C
  0
LAYOUT
  5
77
102
{ACAD_REACTORS
330
62
102
}
330
62
100
AcDbPlotSettings
  1

  2

  4

  6

 40
0.0
 41
0.0
 42
0.0
 43
0.0
 44
0.0
 45
0.0
 46
0.0
 47
0.0
 48
0.0
 49
0.0
140
0.0
141
0.0
142
1.0
143
1.0
 70
   688
 72
     0
 73
     0
 74
     5
  7

 75
    16
147
1.0
 76
     0
 77
     2
 78
   300
148
0.0
149
0.0
100
AcDbLayout
  1
Layout2
 70
     1
 71
     2
 10
0.0
 20
0.0
 11
12.0
 21
9.0
 12
0.0
 22
0.0
 32
0.0
 14
0.0
 24
0.0
 34
0.0
 15
0.0
 25
0.0
 35
0.0
146
0.0
 13
0.0
 23
0.0
 33
0.0
 16
1.0
 26
0.0
 36
0.0
 17
0.0
 27
1.0
 37
0.0
 76
     0
330
74
  0
LAYOUT
  5
73
102
{ACAD_REACTORS
330
62
102
}
330
62
100
AcDbPlotSettings
  1

  2

  4

  6

 40
0.0
 41
0.0
 42
0.0
 43
0.0
 44
0.0
 45
0.0
 46
0.0
 47
0.0
 48
0.0
 49
0.0
140
0.0
141
0.0
142
1.0
143
1.0
 70
  1712
 72
     0
 73
     0
 74
     0
  7

 75
     0
147
1.0
 76
     0
 77
     2
 78
   300
148
0.0
149
0.0
100
AcDbLayout
  1
Model
 70
     1
 71
     0
 10
0.0
 20
0.0
 11
12.0
 21
9.0
 12
0.0
 22
0.0
 32
0.0
 14
0.0
 24
0.0
 34
0.0
 15
0.0
 25
0.0
 35
0.0
146
0.0
 13
0.0
 23
0.0
 33
0.0
 16
1.0
 26
0.0
 36
0.0
 17
0.0
 27
1.0
 37
0.0
 76
     0
330
70
  0
MATERIAL
  5
19
102
{ACAD_XDICTIONARY
360
1A
102
}
102
{ACAD_REACTORS
330
10
102
}
330
10
100
AcDbMaterial
  1
ByBlock
 72
     0
 43
0.0208333333333333
 43
0.0
 43
0.0
 43
0.0
 43
0.0
 43
0.0208333333333333
 43
0.0
 43
0.0
 43
0.0
 43
0.0
 43
1.0
 43
0.0
 43
0.0
 43
0.0
 43
0.0
 43
1.0
 77
     0
 47
0.0208333333333333
 47
0.0
 47
0.0
 47
0.0
 47
0.0
 47
0.0208333333333333
 47
0.0
 47
0.0
 47
0.0
 47
0.0
 47
1.0
 47
0.0
 47
0.0
 47
0.0
 47
0.0
 47
1.0
171
     0
 49
0.0208333333333333
 49
0.0
 49
0.0
 49
0.0
 49
0.0
 49
0.0208333333333333
 49
0.0
 49
0.0
 49
0.0
 49
0.0
 49
1.0
 49
0.0
 49
0.0
 49
0.0
 49
0.0
 49
1.0
175
     0
142
0.0208333333333333
142
0.0
142
0.0
142
0.0
142
0.0
142
0.0208333333333333
142
0.0
142
0.0
142
0.0
142
0.0
142
1.0
142
0.0
142
0.0
142
0.0
142
0.0
142
1.0
179
     0
144
0.0208333333333333
144
0.0
144
0.0
144
0.0
144
0.0
144
0.0208333333333333
144
0.0
144
0.0
144
0.0
144
0.0
144
1.0
144
0.0
144
0.0
144
0.0
144
0.0
144
1.0
147
0.0208333333333333
147
0.0
147
0.0
147
0.0
147
0.0
147
0.0208333333333333
147
0.0
147
0.0
147
0.0
147
0.0
147
1.0
147
0.0
147
0.0
147
0.0
147
0.0
147
1.0
  0
MATERIAL
  5
11
102
{ACAD_XDICTIONARY
360
12
102
}
102
{ACAD_REACTORS
330
10
102
}
330
10
100
AcDbMaterial
  1
ByLayer
 72
     0
 43
0.0208333333333333
 43
0.0
 43
0.0
 43
0.0
 43
0.0
 43
0.0208333333333333
 43
0.0
 43
0.0
 43
0.0
 43
0.0
 43
1.0
 43
0.0
 43
0.0
 43
0.0
 43
0.0
 43
1.0
 77
     0
 47
0.0208333333333333
 47
0.0
 47
0.0
 47
0.0
 47
0.0
 47
0.0208333333333333
 47
0.0
 47
0.0
 47
0.0
 47
0.0
 47
1.0
 47
0.0
 47
0.0
 47
0.0
 47
0.0
 47
1.0
171
     0
 49
0.0208333333333333
 49
0.0
 49
0.0
 49
0.0
 49
0.0
 49
0.0208333333333333
 49
0.0
 49
0.0
 49
0.0
 49
0.0
 49
1.0
 49
0.0
 49
0.0
 49
0.0
 49
0.0
 49
1.0
175
     0
142
0.0208333333333333
142
0.0
142
0.0
142
0.0
142
0.0
142
0.0208333333333333
142
0.0
142
0.0
142
0.0
142
0.0
142
1.0
142
0.0
142
0.0
142
0.0
142
0.0
142
1.0
179
     0
144
0.0208333333333333
144
0.0
144
0.0
144
0.0
144
0.0
144
0.0208333333333333
144
0.0
144
0.0
144
0.0
144
0.0
144
1.0
144
0.0
144
0.0
144
0.0
144
0.0
144
1.0
147
0.0208333333333333
147
0.0
147
0.0
147
0.0
147
0.0
147
0.0208333333333333
147
0.0
147
0.0
147
0.0
147
0.0
147
1.0
147
0.0
147
0.0
147
0.0
147
0.0
147
1.0
  0
MATERIAL
  5
21
102
{ACAD_XDICTIONARY
360
22
102
}
102
{ACAD_REACTORS
330
10
102
}
330
10
100
AcDbMaterial
  1
Global
 72
     0
 43
0.0208333333333333
 43
0.0
 43
0.0
 43
0.0
 43
0.0
 43
0.0208333333333333
 43
0.0
 43
0.0
 43
0.0
 43
0.0
 43
1.0
 43
0.0
 43
0.0
 43
0.0
 43
0.0
 43
1.0
 77
     0
 47
0.0208333333333333
 47
0.0
 47
0.0
 47
0.0
 47
0.0
 47
0.0208333333333333
 47
0.0
 47
0.0
 47
0.0
 47
0.0
 47
1.0
 47
0.0
 47
0.0
 47
0.0
 47
0.0
 47
1.0
171
     0
 49
0.0208333333333333
 49
0.0
 49
0.0
 49
0.0
 49
0.0
 49
0.0208333333333333
 49
0.0
 49
0.0
 49
0.0
 49
0.0
 49
1.0
 49
0.0
 49
0.0
 49
0.0
 49
0.0
 49
1.0
175
     0
142
0.0208333333333333
142
0.0
142
0.0
142
0.0
142
0.0
142
0.0208333333333333
142
0.0
142
0.0
142
0.0
142
0.0
142
1.0
142
0.0
142
0.0
142
0.0
142
0.0
142
1.0
179
     0
144
0.0208333333333333
144
0.0
144
0.0
144
0.0
144
0.0
144
0.0208333333333333
144
0.0
144
0.0
144
0.0
144
0.0
144
1.0
144
0.0
144
0.0
144
0.0
144
0.0
144
1.0
147
0.0208333333333333
147
0.0
147
0.0
147
0.0
147
0.0
147
0.0208333333333333
147
0.0
147
0.0
147
0.0
147
0.0
147
1.0
147
0.0
147
0.0
147
0.0
147
0.0
147
1.0
  0
MLEADERSTYLE
  5
67
102
{ACAD_REACTORS
330
66
102
}
330
66
100
AcDbMLeaderStyle
179
     2
170
     2
171
     1
172
     0
 90
        2
 40
0.0
 41
0.0
173
     1
 91
-1056964608
340
5B
 92
       -2
290
     1
 42
0.09
291
     1
 43
0.36
  3
Standard
 44
0.18
300

342
55
174
     1
178
     6
175
     1
176
     0
 93
-1056964608
 45
0.18
292
     0
297
     0
 46
0.18
 94
-1056964608
 47
1.0
 49
1.0
140
1.0
293
     1
141
0.0
294
     1
177
     0
142
1.0
295
     1
296
     0
143
0.125
271
     0
272
     9
273
     9
298
     1
  0
MLINESTYLE
  5
60
102
{ACAD_REACTORS
330
5F
102
}
330
5F
100
AcDbMlineStyle
  2
STANDARD
 70
     0
  3

 62
   256
 51
90.0
 52
90.0
 71
     2
 49
0.5
 62
   256
  6
BYLAYER
 49
-0.5
 62
   256
  6
BYLAYER
  0
ACDBPLACEHOLDER
  5
F
102
{ACAD_REACTORS
330
E
102
}
330
E
  0
SCALE
  5
43
102
{ACAD_REACTORS
330
42
102
}
330
42
100
AcDbScale
 70
     0
300
1:1
140
1.0
141
1.0
290
     1
  0
SCALE
  5
44
102
{ACAD_REACTORS
330
42
102
}
330
42
100
AcDbScale
 70
     0
300
1/128" = 1'-0"
140
0.0078125
141
12.0
290
     0
  0
SCALE
  5
45
102
{ACAD_REACTORS
330
42
102
}
330
42
100
AcDbScale
 70
     0
300
1/64" = 1'-0"
140
0.015625
141
12.0
290
     0
  0
SCALE
  5
46
102
{ACAD_REACTORS
330
42
102
}
330
42
100
AcDbScale
 70
     0
300
1/32" = 1'-0"
140
0.03125
141
12.0
290
     0
  0
SCALE
  5
47
102
{ACAD_REACTORS
330
42
102
}
330
42
100
AcDbScale
 70
     0
300
1/16" = 1'-0"
140
0.0625
141
12.0
290
     0
  0
SCALE
  5
48
102
{ACAD_REACTORS
330
42
102
}
330
42
100
AcDbScale
 70
     0
300
3/32" = 1'-0"
140
0.09375
141
12.0
290
     0
  0
SCALE
  5
49
102
{ACAD_REACTORS
330
42
102
}
330
42
100
AcDbScale
 70
     0
300
1/8" = 1'-0"
140
0.125
141
12.0
290
     0
  0
SCALE
  5
4A
102
{ACAD_REACTORS
330
42
102
}
330
42
100
AcDbScale
 70
     0
300
3/16" = 1'-0"
140
0.1875
141
12.0
290
     0
  0
SCALE
  5
4B
102
{ACAD_REACTORS
330
42
102
}
330
42
100
AcDbScale
 70
     0
300
1/4" = 1'-0"
140
0.25
141
12.0
290
     0
  0
SCALE
  5
4C
102
{ACAD_REACTORS
330
42
102
}
330
42
100
AcDbScale
 70
     0
300
3/8" = 1'-0"
140
0.375
141
12.0
290
     0
  0
SCALE
  5
4D
102
{ACAD_REACTORS
330
42
102
}
330
42
100
AcDbScale
 70
     0
300
1/2" = 1'-0"
140
0.5
141
12.0
290
     0
  0
SCALE
  5
4E
102
{ACAD_REACTORS
330
42
102
}
330
42
100
AcDbScale
 70
     0
300
3/4" = 1'-0"
140
0.75
141
12.0
290
     0
  0
SCALE
  5
4F
102
{ACAD_REACTORS
330
42
102
}
330
42
100
AcDbScale
 70
     0
300
1" = 1'-0"
140
1.0
141
12.0
290
     0
  0
SCALE
  5
50
102
{ACAD_REACTORS
330
42
102
}
330
42
100
AcDbScale
 70
     0
300
1-1/2" = 1'-0"
140
1.5
141
12.0
290
     0
  0
SCALE
  5
51
102
{ACAD_REACTORS
330
42
102
}
330
42
100
AcDbScale
 70
     0
300
3" = 1'-0"
140
3.0
141
12.0
290
     0
  0
SCALE
  5
52
102
{ACAD_REACTORS
330
42
102
}
330
42
100
AcDbScale
 70
     0
300
6" = 1'-0"
140
6.0
141
12.0
290
     0
  0
SCALE
  5
53
102
{ACAD_REACTORS
330
42
102
}
330
42
100
AcDbScale
 70
     0
300
1'-0" = 1'-0"
140
12.0
141
12.0
290
     0
  0
ACDBSECTIONVIEWSTYLE
  5
69
102
{ACAD_REACTORS
330
68
102
}
330
68
100
AcDbModelDocViewStyle
 70
     0
  3
Imperial24
290
     1
300
Imperial24
 90
        0
100
AcDbSectionViewStyle
 70
     0
 71
     0
 90
       78
 71
     1
340
55
 62
   256
 40
0.24
340
0
340
0
 62
   256
 40
0.24
300
I, O, Q, S, X, Z
 40
0.48
 90
        3
 40
0.18
 90
        1
 71
     2
340
5D
 90
       25
 62
   256
340
5D
 90
       50
 62
   256
 40
0.24
 40
0.0
 40
0.24
 71
     3
340
55
 62
   256
 40
0.24
 90
        1
 40
0.75
 90
        1
300
%<\AcVar ViewType \f "%tc1">% %<\AcVar ViewSectionStartId>%-%<\AcVar ViewSectionEndId>%\PSCALE %<\AcVar ViewScale \f "%sn">%
 71
     4
 62
   256
 62
   257
300
ANSI31
 40
1.0
 90
        0
290
     0
290
     0
 90
        6
 40
0.0
 40
1.570796326794896
 40
0.2617993877991494
 40
1.308996938995747
 40
-0.2617993877991494
 40
1.832595714594046
  0
TABLESTYLE
  5
65
102
{ACAD_XDICTIONARY
360
9C
102
}
102
{ACAD_REACTORS
330
64
102
}
330
64
100
AcDbTableStyle
280
     0
  3
Standard
 70
     0
 71
     0
 40
0.06
 41
0.06
280
     0
281
     0
  7
Standard
140
0.18
170
     2
 62
     0
 63
     7
283
     0
 90
      512
 91
        0
  1

274
    -2
284
     1
 64
     0
275
    -2
285
     1
 65
     0
276
    -2
286
     1
 66
     0
277
    -2
287
     1
 67
     0
278
    -2
288
     1
 68
     0
279
    -2
289
     1
 69
     0
  7
Standard
140
0.25
170
     5
 62
     0
 63
     7
283
     0
 90
      512
 91
        0
  1

274
    -2
284
     1
 64
     0
275
    -2
285
     1
 65
     0
276
    -2
286
     1
 66
     0
277
    -2
287
     1
 67
     0
278
    -2
288
     1
 68
     0
279
    -2
289
     1
 69
     0
  7
Standard
140
0.18
170
     5
 62
     0
 63
     7
283
     0
 90
      512
 91
        0
  1

274
    -2
284
     1
 64
     0
275
    -2
285
     1
 65
     0
276
    -2
286
     1
 66
     0
277
    -2
287
     1
 67
     0
278
    -2
288
     1
 68
     0
279
    -2
289
     1
 69
     0
  0
VISUALSTYLE
  5
2F
102
{ACAD_REACTORS
330
29
102
}
330
29
100
AcDbVisualStyle
  2
2dWireframe
 70
     4
177
     3
291
     0
 70
    58
 90
        0
176
     1
 90
        2
176
     1
 90
        0
176
     1
 90
        0
176
     1
 40
0.6
176
     1
 40
30.0
176
     1
 62
     7
420
 16777215
176
     1
 90
        1
176
     1
 90
        4
176
     1
 62
     7
176
     1
 62
   257
176
     1
 90
        1
176
     1
 90
        1
176
     1
 40
1.0
176
     1
 90
        0
176
     1
 62
   257
176
     1
 40
1.0
176
     1
 90
        1
176
     1
 90
        6
176
     1
 90
        2
176
     1
 62
     7
176
     1
 90
        5
176
     1
 90
        0
176
     1
 90
        0
176
     1
290
     0
176
     1
 90
        1
176
     1
 40
0.0
176
     1
 90
        0
176
     1
290
     1
176
     1
290
     1
176
     1
290
     0
176
     1
290
     0
176
     1
290
     0
176
     1
290
     0
176
     1
290
     0
176
     1
290
     0
176
     1
290
     0
176
     1
 90
       50
176
     1
 40
0.0
176
     1
 40
1.0
176
     1
 90
        0
176
     1
 62
    18
420
        0
176
     1
 90
       50
176
     1
 90
        3
176
     1
 62
     5
420
      255
176
     1
290
     0
176
     1
 90
       50
176
     1
 90
       50
176
     1
 90
       50
176
     1
290
     0
176
     1
 90
       50
176
     1
 62
   256
176
     0
 40
1.0
176
     0
 90
        2
176
     1
  1
strokes_ogs.tif
176
     1
290
     0
176
     1
 40
1.0
176
     1
 40
1.0
176
     1
  0
VISUALSTYLE
  5
2E
102
{ACAD_REACTORS
330
29
102
}
330
29
100
AcDbVisualStyle
  2
Basic
 70
     7
177
     3
291
     1
 70
    58
 90
        1
176
     1
 90
        0
176
     1
 90
        1
176
     1
 90
        0
176
     1
 40
0.6
176
     1
 40
30.0
176
     1
 62
     7
420
 16777215
176
     1
 90
        0
176
     1
 90
        4
176
     1
 62
     7
176
     1
 62
   257
176
     1
 90
        1
176
     1
 90
        1
176
     1
 40
1.0
176
     1
 90
        8
176
     1
 62
     7
176
     1
 40
1.0
176
     1
 90
        1
176
     1
 90
        6
176
     1
 90
        2
176
     1
 62
     7
176
     1
 90
        5
176
     1
 90
        0
176
     1
 90
        0
176
     1
290
     0
176
     1
 90
        1
176
     1
 40
0.0
176
     1
 90
        0
176
     1
290
     0
176
     1
290
     1
176
     1
290
     1
176
     1
290
     0
176
     1
290
     0
176
     1
290
     0
176
     1
290
     0
176
     1
290
     0
176
     1
290
     0
176
     1
 90
       50
176
     1
 40
0.0
176
     1
 40
1.0
176
     1
 90
        0
176
     1
 62
    18
420
        0
176
     1
 90
       50
176
     1
 90
        3
176
     1
 62
     5
420
      255
176
     1
290
     0
176
     1
 90
       50
176
     1
 90
       50
176
     1
 90
       50
176
     1
290
     0
176
     1
 90
       50
176
     1
 62
   256
176
     0
 40
1.0
176
     0
 90
        2
176
     1
  1
strokes_ogs.tif
176
     1
290
     0
176
     1
 40
1.0
176
     1
 40
1.0
176
     1
  0
VISUALSTYLE
  5
35
102
{ACAD_REACTORS
330
29
102
}
330
29
100
AcDbVisualStyle
  2
Brighten
 70
    12
177
     3
291
     1
 70
    58
 90
        2
176
     1
 90
        2
176
     1
 90
        0
176
     1
 90
        0
176
     1
 40
0.6
176
     1
 40
30.0
176
     1
 62
     7
420
 16777215
176
     1
 90
        1
176
     1
 90
        4
176
     1
 62
     7
176
     1
 62
   257
176
     1
 90
        1
176
     1
 90
        1
176
     1
 40
1.0
176
     1
 90
        8
176
     1
 62
     7
176
     1
 40
1.0
176
     1
 90
        1
176
     1
 90
        6
176
     1
 90
        2
176
     1
 62
     7
176
     1
 90
        5
176
     1
 90
        0
176
     1
 90
        0
176
     1
290
     0
176
     1
 90
        1
176
     1
 40
50.0
176
     1
 90
        0
176
     1
290
     0
176
     1
290
     1
176
     1
290
     1
176
     1
290
     0
176
     1
290
     0
176
     1
290
     0
176
     1
290
     0
176
     1
290
     0
176
     1
290
     0
176
     1
 90
       50
176
     1
 40
0.0
176
     1
 40
1.0
176
     1
 90
        0
176
     1
 62
    18
420
        0
176
     1
 90
       50
176
     1
 90
        3
176
     1
 62
     5
420
      255
176
     1
290
     0
176
     1
 90
       50
176
     1
 90
       50
176
     1
 90
       50
176
     1
290
     0
176
     1
 90
       50
176
     1
 62
   256
176
     0
 40
1.0
176
     0
 90
        2
176
     1
  1
strokes_ogs.tif
176
     1
290
     0
176
     1
 40
1.0
176
     1
 40
1.0
176
     1
  0
VISUALSTYLE
  5
39
102
{ACAD_REACTORS
330
29
102
}
330
29
100
AcDbVisualStyle
  2
ColorChange
 70
    16
177
     3
291
     1
 70
    58
 90
        2
176
     1
 90
        2
176
     1
 90
        3
176
     1
 90
        0
176
     1
 40
0.6
176
     1
 40
30.0
176
     1
 62
     8
420
  8421504
176
     1
 90
        1
176
     1
 90
        4
176
     1
 62
     7
176
     1
 62
   257
176
     1
 90
        1
176
     1
 90
        1
176
     1
 40
1.0
176
     1
 90
        8
176
     1
 62
     8
420
  8421504
176
     1
 40
1.0
176
     1
 90
        1
176
     1
 90
        6
176
     1
 90
        2
176
     1
 62
     7
176
     1
 90
        5
176
     1
 90
        0
176
     1
 90
        0
176
     1
290
     0
176
     1
 90
        1
176
     1
 40
0.0
176
     1
 90
        0
176
     1
290
     0
176
     1
290
     1
176
     1
290
     1
176
     1
290
     0
176
     1
290
     0
176
     1
290
     0
176
     1
290
     0
176
     1
290
     0
176
     1
290
     0
176
     1
 90
       50
176
     1
 40
0.0
176
     1
 40
1.0
176
     1
 90
        0
176
     1
 62
    18
420
        0
176
     1
 90
       50
176
     1
 90
        3
176
     1
 62
     5
420
      255
176
     1
290
     0
176
     1
 90
       50
176
     1
 90
       50
176
     1
 90
       50
176
     1
290
     0
176
     1
 90
       50
176
     1
 62
   256
176
     0
 40
1.0
176
     0
 90
        2
176
     1
  1
strokes_ogs.tif
176
     1
290
     0
176
     1
 40
1.0
176
     1
 40
1.0
176
     1
  0
VISUALSTYLE
  5
32
102
{ACAD_REACTORS
330
29
102
}
330
29
100
AcDbVisualStyle
  2
Conceptual
 70
     9
177
     3
291
     0
 70
    58
 90
        3
176
     1
 90
        2
176
     1
 90
        0
176
     1
 90
        0
176
     1
 40
0.6
176
     1
 40
30.0
176
     1
 62
     7
420
 16777215
176
     1
 90
        2
176
     1
 90
        2
176
     1
 62
     7
176
     1
 62
   257
176
     1
 90
        1
176
     1
 90
        1
176
     1
 40
179.0
176
     1
 90
        8
176
     1
 62
     7
176
     1
 40
1.0
176
     1
 90
        1
176
     1
 90
        6
176
     1
 90
        2
176
     1
 62
     7
176
     1
 90
        3
176
     1
 90
        0
176
     1
 90
        0
176
     1
290
     0
176
     1
 90
        1
176
     1
 40
0.0
176
     1
 90
        0
176
     1
290
     0
176
     1
290
     1
176
     1
290
     1
176
     1
290
     0
176
     1
290
     0
176
     1
290
     0
176
     1
290
     0
176
     1
290
     0
176
     1
290
     0
176
     1
 90
       50
176
     1
 40
0.0
176
     1
 40
1.0
176
     1
 90
        0
176
     1
 62
    18
420
        0
176
     1
 90
       50
176
     1
 90
        3
176
     1
 62
     5
420
      255
176
     1
290
     0
176
     1
 90
       50
176
     1
 90
       50
176
     1
 90
       50
176
     1
290
     0
176
     1
 90
       50
176
     1
 62
   256
176
     0
 40
1.0
176
     0
 90
        2
176
     1
  1
strokes_ogs.tif
176
     1
290
     0
176
     1
 40
1.0
176
     1
 40
1.0
176
     1
  0
VISUALSTYLE
  5
34
102
{ACAD_REACTORS
330
29
102
}
330
29
100
AcDbVisualStyle
  2
Dim
 70
    11
177
     3
291
     1
 70
    58
 90
        2
176
     1
 90
        2
176
     1
 90
        0
176
     1
 90
        0
176
     1
 40
0.6
176
     1
 40
30.0
176
     1
 62
     7
420
 16777215
176
     1
 90
        1
176
     1
 90
        4
176
     1
 62
     7
176
     1
 62
   257
176
     1
 90
        1
176
     1
 90
        1
176
     1
 40
1.0
176
     1
 90
        8
176
     1
 62
     7
176
     1
 40
1.0
176
     1
 90
        1
176
     1
 90
        6
176
     1
 90
        2
176
     1
 62
     7
176
     1
 90
        5
176
     1
 90
        0
176
     1
 90
        0
176
     1
290
     0
176
     1
 90
        1
176
     1
 40
-50.0
176
     1
 90
        0
176
     1
290
     0
176
     1
290
     1
176
     1
290
     1
176
     1
290
     0
176
     1
290
     0
176
     1
290
     0
176
     1
290
     0
176
     1
290
     0
176
     1
290
     0
176
     1
 90
       50
176
     1
 40
0.0
176
     1
 40
1.0
176
     1
 90
        0
176
     1
 62
    18
420
        0
176
     1
 90
       50
176
     1
 90
        3
176
     1
 62
     5
420
      255
176
     1
290
     0
176
     1
 90
       50
176
     1
 90
       50
176
     1
 90
       50
176
     1
290
     0
176
     1
 90
       50
176
     1
 62
   256
176
     0
 40
1.0
176
     0
 90
        2
176
     1
  1
strokes_ogs.tif
176
     1
290
     0
176
     1
 40
1.0
176
     1
 40
1.0
176
     1
  0
VISUALSTYLE
  5
41
102
{ACAD_REACTORS
330
29
102
}
330
29
100
AcDbVisualStyle
  2
EdgeColorOff
 70
    22
177
     3
291
     1
 70
    58
 90
        2
176
     0
 90
        2
176
     0
 90
        0
176
     0
 90
        0
176
     0
 40
0.6
176
     0
 40
30.0
176
     0
 62
     7
420
 16777215
176
     0
 90
        1
176
     0
 90
        4
176
     0
 62
     7
176
     0
 62
   257
176
     0
 90
        1
176
     0
 90
        1
176
     0
 40
1.0
176
     0
 90
        8
176
     2
 62
     7
176
     0
 40
1.0
176
     0
 90
        1
176
     0
 90
        6
176
     0
 90
        2
176
     0
 62
     7
176
     0
 90
        5
176
     0
 90
        0
176
     0
 90
        0
176
     0
290
     0
176
     0
 90
        1
176
     0
 40
0.0
176
     0
 90
        0
176
     0
290
     0
176
     0
290
     1
176
     0
290
     1
176
     0
290
     0
176
     0
290
     0
176
     0
290
     0
176
     0
290
     0
176
     0
290
     0
176
     0
290
     0
176
     0
 90
       50
176
     0
 40
0.0
176
     0
 40
1.0
176
     0
 90
        0
176
     0
 62
    18
420
        0
176
     0
 90
       50
176
     0
 90
        3
176
     0
 62
     5
420
      255
176
     0
290
     0
176
     0
 90
       50
176
     0
 90
       50
176
     0
 90
       50
176
     0
290
     0
176
     0
 90
       50
176
     0
 62
   256
176
     0
 40
1.0
176
     0
 90
        2
176
     0
  1
strokes_ogs.tif
176
     0
290
     0
176
     0
 40
1.0
176
     0
 40
1.0
176
     0
  0
VISUALSTYLE
  5
38
102
{ACAD_REACTORS
330
29
102
}
330
29
100
AcDbVisualStyle
  2
Facepattern
 70
    15
177
     3
291
     1
 70
    58
 90
        2
176
     1
 90
        2
176
     1
 90
        0
176
     1
 90
        0
176
     1
 40
0.6
176
     1
 40
30.0
176
     1
 62
     7
420
 16777215
176
     1
 90
        1
176
     1
 90
        4
176
     1
 62
     7
176
     1
 62
   257
176
     1
 90
        1
176
     1
 90
        1
176
     1
 40
1.0
176
     1
 90
        8
176
     1
 62
     7
176
     1
 40
1.0
176
     1
 90
        1
176
     1
 90
        6
176
     1
 90
        2
176
     1
 62
     7
176
     1
 90
        5
176
     1
 90
        0
176
     1
 90
        0
176
     1
290
     0
176
     1
 90
        1
176
     1
 40
0.0
176
     1
 90
        0
176
     1
290
     0
176
     1
290
     1
176
     1
290
     1
176
     1
290
     0
176
     1
290
     0
176
     1
290
     0
176
     1
290
     0
176
     1
290
     0
176
     1
290
     0
176
     1
 90
       50
176
     1
 40
0.0
176
     1
 40
1.0
176
     1
 90
        0
176
     1
 62
    18
420
        0
176
     1
 90
       50
176
     1
 90
        3
176
     1
 62
     5
420
      255
176
     1
290
     0
176
     1
 90
       50
176
     1
 90
       50
176
     1
 90
       50
176
     1
290
     0
176
     1
 90
       50
176
     1
 62
   256
176
     0
 40
1.0
176
     0
 90
        2
176
     1
  1
strokes_ogs.tif
176
     1
290
     0
176
     1
 40
1.0
176
     1
 40
1.0
176
     1
  0
VISUALSTYLE
  5
2A
102
{ACAD_REACTORS
330
29
102
}
330
29
100
AcDbVisualStyle
  2
Flat
 70
     0
177
     3
291
     1
 70
    58
 90
        2
176
     1
 90
        1
176
     1
 90
        1
176
     1
 90
        2
176
     1
 40
0.6
176
     1
 40
30.0
176
     1
 62
     7
420
 16777215
176
     1
 90
        0
176
     1
 90
        0
176
     1
 62
     7
176
     1
 62
   257
176
     1
 90
        1
176
     1
 90
        1
176
     1
 40
1.0
176
     1
 90
        8
176
     1
 62
     7
176
     1
 40
1.0
176
     1
 90
        1
176
     1
 90
        6
176
     1
 90
        2
176
     1
 62
     7
176
     1
 90
        5
176
     1
 90
        0
176
     1
 90
        0
176
     1
290
     0
176
     1
 90
       13
176
     1
 40
0.0
176
     1
 90
        0
176
     1
290
     0
176
     1
290
     1
176
     1
290
     1
176
     1
290
     0
176
     1
290
     0
176
     1
290
     0
176
     1
290
     0
176
     1
290
     0
176
     1
290
     0
176
     1
 90
       50
176
     1
 40
0.0
176
     1
 40
1.0
176
     1
 90
        0
176
     1
 62
    18
420
        0
176
     1
 90
       50
176
     1
 90
        3
176
     1
 62
     5
420
      255
176
     1
290
     0
176
     1
 90
       50
176
     1
 90
       50
176
     1
 90
       50
176
     1
290
     0
176
     1
 90
       50
176
     1
 62
   256
176
     0
 40
1.0
176
     0
 90
        2
176
     1
  1
strokes_ogs.tif
176
     1
290
     0
176
     1
 40
1.0
176
     1
 40
1.0
176
     1
  0
VISUALSTYLE
  5
2B
102
{ACAD_REACTORS
330
29
102
}
330
29
100
AcDbVisualStyle
  2
FlatWithEdges
 70
     1
177
     3
291
     1
 70
    58
 90
        2
176
     1
 90
        1
176
     1
 90
        1
176
     1
 90
        2
176
     1
 40
0.6
176
     1
 40
30.0
176
     1
 62
     7
420
 16777215
176
     1
 90
        1
176
     1
 90
        0
176
     1
 62
     7
176
     1
 62
   257
176
     1
 90
        1
176
     1
 90
        1
176
     1
 40
1.0
176
     1
 90
        0
176
     1
 62
   257
176
     1
 40
1.0
176
     1
 90
        1
176
     1
 90
        6
176
     1
 90
        2
176
     1
 62
     7
176
     1
 90
        5
176
     1
 90
        0
176
     1
 90
        0
176
     1
290
     0
176
     1
 90
       13
176
     1
 40
0.0
176
     1
 90
        0
176
     1
290
     0
176
     1
290
     1
176
     1
290
     1
176
     1
290
     0
176
     1
290
     0
176
     1
290
     0
176
     1
290
     0
176
     1
290
     0
176
     1
290
     0
176
     1
 90
       50
176
     1
 40
0.0
176
     1
 40
1.0
176
     1
 90
        0
176
     1
 62
    18
420
        0
176
     1
 90
       50
176
     1
 90
        3
176
     1
 62
     5
420
      255
176
     1
290
     0
176
     1
 90
       50
176
     1
 90
       50
176
     1
 90
       50
176
     1
290
     0
176
     1
 90
       50
176
     1
 62
   256
176
     0
 40
1.0
176
     0
 90
        2
176
     1
  1
strokes_ogs.tif
176
     1
290
     0
176
     1
 40
1.0
176
     1
 40
1.0
176
     1
  0
VISUALSTYLE
  5
2C
102
{ACAD_REACTORS
330
29
102
}
330
29
100
AcDbVisualStyle
  2
Gouraud
 70
     2
177
     3
291
     1
 70
    58
 90
        2
176
     1
 90
        2
176
     1
 90
        1
176
     1
 90
        2
176
     1
 40
0.6
176
     1
 40
30.0
176
     1
 62
     7
420
 16777215
176
     1
 90
        0
176
     1
 90
        0
176
     1
 62
     7
176
     1
 62
   257
176
     1
 90
        1
176
     1
 90
        1
176
     1
 40
1.0
176
     1
 90
        0
176
     1
 62
     7
176
     1
 40
1.0
176
     1
 90
        1
176
     1
 90
        6
176
     1
 90
        2
176
     1
 62
     7
176
     1
 90
        5
176
     1
 90
        0
176
     1
 90
        0
176
     1
290
     0
176
     1
 90
       13
176
     1
 40
0.0
176
     1
 90
        0
176
     1
290
     0
176
     1
290
     1
176
     1
290
     1
176
     1
290
     0
176
     1
290
     0
176
     1
290
     0
176
     1
290
     0
176
     1
290
     0
176
     1
290
     0
176
     1
 90
       50
176
     1
 40
0.0
176
     1
 40
1.0
176
     1
 90
        0
176
     1
 62
    18
420
        0
176
     1
 90
       50
176
     1
 90
        3
176
     1
 62
     5
420
      255
176
     1
290
     0
176
     1
 90
       50
176
     1
 90
       50
176
     1
 90
       50
176
     1
290
     0
176
     1
 90
       50
176
     1
 62
   256
176
     0
 40
1.0
176
     0
 90
        2
176
     1
  1
strokes_ogs.tif
176
     1
290
     0
176
     1
 40
1.0
176
     1
 40
1.0
176
     1
  0
VISUALSTYLE
  5
2D
102
{ACAD_REACTORS
330
29
102
}
330
29
100
AcDbVisualStyle
  2
GouraudWithEdges
 70
     3
177
     3
291
     1
 70
    58
 90
        2
176
     1
 90
        2
176
     1
 90
        1
176
     1
 90
        2
176
     1
 40
0.6
176
     1
 40
30.0
176
     1
 62
     7
420
 16777215
176
     1
 90
        1
176
     1
 90
        0
176
     1
 62
     7
176
     1
 62
   257
176
     1
 90
        1
176
     1
 90
        1
176
     1
 40
1.0
176
     1
 90
        0
176
     1
 62
   257
176
     1
 40
1.0
176
     1
 90
        1
176
     1
 90
        6
176
     1
 90
        2
176
     1
 62
     7
176
     1
 90
        5
176
     1
 90
        0
176
     1
 90
        0
176
     1
290
     0
176
     1
 90
       13
176
     1
 40
0.0
176
     1
 90
        0
176
     1
290
     0
176
     1
290
     1
176
     1
290
     1
176
     1
290
     0
176
     1
290
     0
176
     1
290
     0
176
     1
290
     0
176
     1
290
     0
176
     1
290
     0
176
     1
 90
       50
176
     1
 40
0.0
176
     1
 40
1.0
176
     1
 90
        0
176
     1
 62
    18
420
        0
176
     1
 90
       50
176
     1
 90
        3
176
     1
 62
     5
420
      255
176
     1
290
     0
176
     1
 90
       50
176
     1
 90
       50
176
     1
 90
       50
176
     1
290
     0
176
     1
 90
       50
176
     1
 62
   256
176
     0
 40
1.0
176
     0
 90
        2
176
     1
  1
strokes_ogs.tif
176
     1
290
     0
176
     1
 40
1.0
176
     1
 40
1.0
176
     1
  0
VISUALSTYLE
  5
31
102
{ACAD_REACTORS
330
29
102
}
330
29
100
AcDbVisualStyle
  2
Hidden
 70
     6
177
     3
291
     0
 70
    58
 90
        1
176
     1
 90
        2
176
     1
 90
        2
176
     1
 90
        0
176
     1
 40
0.6
176
     1
 40
30.0
176
     1
 62
     7
420
 16777215
176
     1
 90
        2
176
     1
 90
        2
176
     1
 62
     7
176
     1
 62
   257
176
     1
 90
        2
176
     1
 90
        1
176
     1
 40
40.0
176
     1
 90
        0
176
     1
 62
   257
176
     1
 40
1.0
176
     1
 90
        1
176
     1
 90
        6
176
     1
 90
        2
176
     1
 62
     7
176
     1
 90
        3
176
     1
 90
        0
176
     1
 90
        0
176
     1
290
     0
176
     1
 90
        1
176
     1
 40
0.0
176
     1
 90
        0
176
     1
290
     0
176
     1
290
     1
176
     1
290
     1
176
     1
290
     0
176
     1
290
     0
176
     1
290
     0
176
     1
290
     0
176
     1
290
     0
176
     1
290
     0
176
     1
 90
       50
176
     1
 40
0.0
176
     1
 40
1.0
176
     1
 90
        0
176
     1
 62
    18
420
        0
176
     1
 90
       50
176
     1
 90
        3
176
     1
 62
     5
420
      255
176
     1
290
     0
176
     1
 90
       50
176
     1
 90
       50
176
     1
 90
       50
176
     1
290
     0
176
     1
 90
       50
176
     1
 62
   256
176
     0
 40
1.0
176
     0
 90
        2
176
     1
  1
strokes_ogs.tif
176
     1
290
     0
176
     1
 40
1.0
176
     1
 40
1.0
176
     1
  0
VISUALSTYLE
  5
3F
102
{ACAD_REACTORS
330
29
102
}
330
29
100
AcDbVisualStyle
  2
JitterOff
 70
    20
177
     3
291
     1
 70
    58
 90
        2
176
     0
 90
        2
176
     0
 90
        0
176
     0
 90
        0
176
     0
 40
0.6
176
     0
 40
30.0
176
     0
 62
     7
420
 16777215
176
     0
 90
        1
176
     0
 90
        4
176
     0
 62
     7
176
     0
 62
   257
176
     0
 90
        1
176
     0
 90
        1
176
     0
 40
1.0
176
     0
 90
       10
176
     2
 62
     7
176
     0
 40
1.0
176
     0
 90
        1
176
     0
 90
        6
176
     0
 90
        2
176
     0
 62
     7
176
     0
 90
        5
176
     0
 90
        0
176
     0
 90
        0
176
     0
290
     0
176
     0
 90
        1
176
     0
 40
0.0
176
     0
 90
        0
176
     0
290
     0
176
     0
290
     1
176
     0
290
     1
176
     0
290
     0
176
     0
290
     0
176
     0
290
     0
176
     0
290
     0
176
     0
290
     0
176
     0
290
     0
176
     0
 90
       50
176
     0
 40
0.0
176
     0
 40
1.0
176
     0
 90
        0
176
     0
 62
    18
420
        0
176
     0
 90
       50
176
     0
 90
        3
176
     0
 62
     5
420
      255
176
     0
290
     0
176
     0
 90
       50
176
     0
 90
       50
176
     0
 90
       50
176
     0
290
     0
176
     0
 90
       50
176
     0
 62
   256
176
     0
 40
1.0
176
     0
 90
        2
176
     0
  1
strokes_ogs.tif
176
     0
290
     0
176
     0
 40
1.0
176
     0
 40
1.0
176
     0
  0
VISUALSTYLE
  5
37
102
{ACAD_REACTORS
330
29
102
}
330
29
100
AcDbVisualStyle
  2
Linepattern
 70
    14
177
     3
291
     1
 70
    58
 90
        2
176
     1
 90
        2
176
     1
 90
        0
176
     1
 90
        0
176
     1
 40
0.6
176
     1
 40
30.0
176
     1
 62
     7
420
 16777215
176
     1
 90
        1
176
     1
 90
        4
176
     1
 62
     7
176
     1
 62
   257
176
     1
 90
        7
176
     1
 90
        7
176
     1
 40
1.0
176
     1
 90
        8
176
     1
 62
     7
176
     1
 40
1.0
176
     1
 90
        1
176
     1
 90
        6
176
     1
 90
        2
176
     1
 62
     7
176
     1
 90
        5
176
     1
 90
        0
176
     1
 90
        0
176
     1
290
     0
176
     1
 90
        1
176
     1
 40
0.0
176
     1
 90
        0
176
     1
290
     0
176
     1
290
     1
176
     1
290
     1
176
     1
290
     0
176
     1
290
     0
176
     1
290
     0
176
     1
290
     0
176
     1
290
     0
176
     1
290
     0
176
     1
 90
       50
176
     1
 40
0.0
176
     1
 40
1.0
176
     1
 90
        0
176
     1
 62
    18
420
        0
176
     1
 90
       50
176
     1
 90
        3
176
     1
 62
     5
420
      255
176
     1
290
     0
176
     1
 90
       50
176
     1
 90
       50
176
     1
 90
       50
176
     1
290
     0
176
     1
 90
       50
176
     1
 62
   256
176
     0
 40
1.0
176
     0
 90
        2
176
     1
  1
strokes_ogs.tif
176
     1
290
     0
176
     1
 40
1.0
176
     1
 40
1.0
176
     1
  0
VISUALSTYLE
  5
40
102
{ACAD_REACTORS
330
29
102
}
330
29
100
AcDbVisualStyle
  2
OverhangOff
 70
    21
177
     3
291
     1
 70
    58
 90
        2
176
     0
 90
        2
176
     0
 90
        0
176
     0
 90
        0
176
     0
 40
0.6
176
     0
 40
30.0
176
     0
 62
     7
420
 16777215
176
     0
 90
        1
176
     0
 90
        4
176
     0
 62
     7
176
     0
 62
   257
176
     0
 90
        1
176
     0
 90
        1
176
     0
 40
1.0
176
     0
 90
        9
176
     2
 62
     7
176
     0
 40
1.0
176
     0
 90
        1
176
     0
 90
        6
176
     0
 90
        2
176
     0
 62
     7
176
     0
 90
        5
176
     0
 90
        0
176
     0
 90
        0
176
     0
290
     0
176
     0
 90
        1
176
     0
 40
0.0
176
     0
 90
        0
176
     0
290
     0
176
     0
290
     1
176
     0
290
     1
176
     0
290
     0
176
     0
290
     0
176
     0
290
     0
176
     0
290
     0
176
     0
290
     0
176
     0
290
     0
176
     0
 90
       50
176
     0
 40
0.0
176
     0
 40
1.0
176
     0
 90
        0
176
     0
 62
    18
420
        0
176
     0
 90
       50
176
     0
 90
        3
176
     0
 62
     5
420
      255
176
     0
290
     0
176
     0
 90
       50
176
     0
 90
       50
176
     0
 90
       50
176
     0
290
     0
176
     0
 90
       50
176
     0
 62
   256
176
     0
 40
1.0
176
     0
 90
        2
176
     0
  1
strokes_ogs.tif
176
     0
290
     0
176
     0
 40
1.0
176
     0
 40
1.0
176
     0
  0
VISUALSTYLE
  5
33
102
{ACAD_REACTORS
330
29
102
}
330
29
100
AcDbVisualStyle
  2
Realistic
 70
     8
177
     3
291
     0
 70
    58
 90
        2
176
     1
 90
        3
176
     1
 90
        0
176
     1
 90
        2
176
     1
 40
0.6
176
     1
 40
30.0
176
     1
 62
     7
420
 16777215
176
     1
 90
        0
176
     1
 90
        0
176
     1
 62
     7
176
     1
 62
   257
176
     1
 90
        1
176
     1
 90
        1
176
     1
 40
1.0
176
     1
 90
        8
176
     1
 62
   257
176
     1
 40
1.0
176
     1
 90
        1
176
     1
 90
        6
176
     1
 90
        2
176
     1
 62
     7
176
     1
 90
        3
176
     1
 90
        0
176
     1
 90
        0
176
     1
290
     0
176
     1
 90
       13
176
     1
 40
0.0
176
     1
 90
        0
176
     1
290
     0
176
     1
290
     1
176
     1
290
     1
176
     1
290
     0
176
     1
290
     0
176
     1
290
     0
176
     1
290
     0
176
     1
290
     0
176
     1
290
     0
176
     1
 90
       50
176
     1
 40
0.0
176
     1
 40
1.0
176
     1
 90
        0
176
     1
 62
    18
420
        0
176
     1
 90
       50
176
     1
 90
        3
176
     1
 62
     5
420
      255
176
     1
290
     0
176
     1
 90
       50
176
     1
 90
       50
176
     1
 90
       50
176
     1
290
     0
176
     1
 90
       50
176
     1
 62
   256
176
     0
 40
1.0
176
     0
 90
        2
176
     1
  1
strokes_ogs.tif
176
     1
290
     0
176
     1
 40
1.0
176
     1
 40
1.0
176
     1
  0
VISUALSTYLE
  5
3E
102
{ACAD_REACTORS
330
29
102
}
330
29
100
AcDbVisualStyle
  2
Shaded
 70
    27
177
     3
291
     0
 70
    58
 90
        2
176
     1
 90
        2
176
     1
 90
        1
176
     1
 90
        2
176
     1
 40
0.6
176
     1
 40
30.0
176
     1
 62
     7
420
 16777215
176
     1
 90
        0
176
     1
 90
        4
176
     1
 62
     7
176
     1
 62
   257
176
     1
 90
        1
176
     1
 90
        1
176
     1
 40
1.0
176
     1
 90
        8
176
     1
 62
   257
176
     1
 40
1.0
176
     1
 90
        1
176
     1
 90
        6
176
     1
 90
        2
176
     1
 62
     8
420
  7895160
176
     1
 90
        3
176
     1
 90
        0
176
     1
 90
        0
176
     1
290
     0
176
     1
 90
        5
176
     1
 40
0.0
176
     1
 90
        0
176
     1
290
     0
176
     1
290
     1
176
     1
290
     1
176
     1
290
     0
176
     1
290
     0
176
     1
290
     0
176
     1
290
     0
176
     1
290
     0
176
     1
290
     0
176
     1
 90
       50
176
     1
 40
0.0
176
     1
 40
1.0
176
     1
 90
        0
176
     1
 62
    18
420
        0
176
     1
 90
       50
176
     1
 90
        3
176
     1
 62
     5
420
      255
176
     1
290
     0
176
     1
 90
       50
176
     1
 90
       50
176
     1
 90
       50
176
     1
290
     0
176
     1
 90
       50
176
     1
 62
   256
176
     0
 40
1.0
176
     0
 90
        2
176
     1
  1
strokes_ogs.tif
176
     1
290
     0
176
     1
 40
1.0
176
     1
 40
1.0
176
     1
  0
VISUALSTYLE
  5
3D
102
{ACAD_REACTORS
330
29
102
}
330
29
100
AcDbVisualStyle
  2
Shaded with edges
 70
    26
177
     3
291
     0
 70
    58
 90
        2
176
     1
 90
        2
176
     1
 90
        1
176
     1
 90
        2
176
     1
 40
0.6
176
     1
 40
30.0
176
     1
 62
     7
420
 16777215
176
     1
 90
        1
176
     1
 90
        2
176
     1
 62
     7
176
     1
 62
   257
176
     1
 90
        2
176
     1
 90
        1
176
     1
 40
1.0
176
     1
 90
        8
176
     1
 62
   257
176
     1
 40
1.0
176
     1
 90
        1
176
     1
 90
        6
176
     1
 90
        2
176
     1
 62
     7
176
     1
 90
        3
176
     1
 90
        0
176
     1
 90
        0
176
     1
290
     0
176
     1
 90
        5
176
     1
 40
0.0
176
     1
 90
        0
176
     1
290
     0
176
     1
290
     1
176
     1
290
     1
176
     1
290
     0
176
     1
290
     0
176
     1
290
     0
176
     1
290
     0
176
     1
290
     0
176
     1
290
     0
176
     1
 90
       50
176
     1
 40
0.0
176
     1
 40
1.0
176
     1
 90
        0
176
     1
 62
    18
420
        0
176
     1
 90
       50
176
     1
 90
        3
176
     1
 62
     5
420
      255
176
     1
290
     0
176
     1
 90
       50
176
     1
 90
       50
176
     1
 90
       50
176
     1
290
     0
176
     1
 90
       50
176
     1
 62
   256
176
     0
 40
1.0
176
     0
 90
        2
176
     1
  1
strokes_ogs.tif
176
     1
290
     0
176
     1
 40
1.0
176
     1
 40
1.0
176
     1
  0
VISUALSTYLE
  5
3A
102
{ACAD_REACTORS
330
29
102
}
330
29
100
AcDbVisualStyle
  2
Shades of Gray
 70
    23
177
     3
291
     0
 70
    58
 90
        2
176
     1
 90
        2
176
     1
 90
        3
176
     1
 90
        0
176
     1
 40
0.6
176
     1
 40
30.0
176
     1
 62
     7
420
 16777215
176
     1
 90
        2
176
     1
 90
        2
176
     1
 62
     7
176
     1
 62
     7
176
     1
 90
        1
176
     1
 90
        1
176
     1
 40
40.0
176
     1
 90
        8
176
     1
 62
     7
176
     1
 40
1.0
176
     1
 90
        1
176
     1
 90
        6
176
     1
 90
        2
176
     1
 62
     7
176
     1
 90
        3
176
     1
 90
        0
176
     1
 90
        0
176
     1
290
     0
176
     1
 90
        1
176
     1
 40
0.0
176
     1
 90
        0
176
     1
290
     0
176
     1
290
     1
176
     1
290
     1
176
     1
290
     0
176
     1
290
     0
176
     1
290
     0
176
     1
290
     0
176
     1
290
     0
176
     1
290
     0
176
     1
 90
       50
176
     1
 40
0.0
176
     1
 40
1.0
176
     1
 90
        0
176
     1
 62
    18
420
        0
176
     1
 90
       50
176
     1
 90
        3
176
     1
 62
     5
420
      255
176
     1
290
     0
176
     1
 90
       50
176
     1
 90
       50
176
     1
 90
       50
176
     1
290
     0
176
     1
 90
       50
176
     1
 62
   256
176
     0
 40
1.0
176
     0
 90
        2
176
     1
  1
strokes_ogs.tif
176
     1
290
     0
176
     1
 40
1.0
176
     1
 40
1.0
176
     1
  0
VISUALSTYLE
  5
3B
102
{ACAD_REACTORS
330
29
102
}
330
29
100
AcDbVisualStyle
  2
Sketchy
 70
    24
177
     3
291
     0
 70
    58
 90
        1
176
     1
 90
        2
176
     1
 90
        2
176
     1
 90
        0
176
     1
 40
0.6
176
     1
 40
30.0
176
     1
 62
     7
420
 16777215
176
     1
 90
        2
176
     1
 90
        2
176
     1
 62
     7
176
     1
 62
     7
176
     1
 90
        1
176
     1
 90
        1
176
     1
 40
40.0
176
     1
 90
       11
176
     1
 62
     7
176
     1
 40
1.0
176
     1
 90
        1
176
     1
 90
        6
176
     1
 90
        2
176
     1
 62
     7
176
     1
 90
        6
176
     1
 90
        0
176
     1
 90
        0
176
     1
290
     0
176
     1
 90
        1
176
     1
 40
0.0
176
     1
 90
        0
176
     1
290
     0
176
     1
290
     1
176
     1
290
     1
176
     1
290
     0
176
     1
290
     0
176
     1
290
     0
176
     1
290
     0
176
     1
290
     0
176
     1
290
     0
176
     1
 90
       50
176
     1
 40
0.0
176
     1
 40
1.0
176
     1
 90
        0
176
     1
 62
    18
420
        0
176
     1
 90
       50
176
     1
 90
        3
176
     1
 62
     5
420
      255
176
     1
290
     0
176
     1
 90
       50
176
     1
 90
       50
176
     1
 90
       50
176
     1
290
     0
176
     1
 90
       50
176
     1
 62
   256
176
     0
 40
1.0
176
     0
 90
        2
176
     1
  1
strokes_ogs.tif
176
     1
290
     0
176
     1
 40
1.0
176
     1
 40
1.0
176
     1
  0
VISUALSTYLE
  5
36
102
{ACAD_REACTORS
330
29
102
}
330
29
100
AcDbVisualStyle
  2
Thicken
 70
    13
177
     3
291
     1
 70
    58
 90
        2
176
     1
 90
        2
176
     1
 90
        0
176
     1
 90
        0
176
     1
 40
0.6
176
     1
 40
30.0
176
     1
 62
     7
420
 16777215
176
     1
 90
        1
176
     1
 90
        4
176
     1
 62
     7
176
     1
 62
   257
176
     1
 90
        1
176
     1
 90
        1
176
     1
 40
1.0
176
     1
 90
       12
176
     1
 62
     7
176
     1
 40
1.0
176
     1
 90
        1
176
     1
 90
        6
176
     1
 90
        2
176
     1
 62
     7
176
     1
 90
        5
176
     1
 90
        0
176
     1
 90
        0
176
     1
290
     0
176
     1
 90
        1
176
     1
 40
0.0
176
     1
 90
        0
176
     1
290
     0
176
     1
290
     1
176
     1
290
     1
176
     1
290
     0
176
     1
290
     0
176
     1
290
     0
176
     1
290
     0
176
     1
290
     0
176
     1
290
     0
176
     1
 90
       50
176
     1
 40
0.0
176
     1
 40
1.0
176
     1
 90
        0
176
     1
 62
    18
420
        0
176
     1
 90
       50
176
     1
 90
        3
176
     1
 62
     5
420
      255
176
     1
290
     0
176
     1
 90
       50
176
     1
 90
       50
176
     1
 90
       50
176
     1
290
     0
176
     1
 90
       50
176
     1
 62
   256
176
     0
 40
1.0
176
     0
 90
        2
176
     1
  1
strokes_ogs.tif
176
     1
290
     0
176
     1
 40
1.0
176
     1
 40
1.0
176
     1
  0
VISUALSTYLE
  5
30
102
{ACAD_REACTORS
330
29
102
}
330
29
100
AcDbVisualStyle
  2
Wireframe
 70
     5
177
     3
291
     0
 70
    58
 90
        0
176
     1
 90
        2
176
     1
 90
        0
176
     1
 90
        0
176
     1
 40
0.6
176
     1
 40
30.0
176
     1
 62
     7
420
 16777215
176
     1
 90
        1
176
     1
 90
        4
176
     1
 62
     7
176
     1
 62
   257
176
     1
 90
        1
176
     1
 90
        1
176
     1
 40
1.0
176
     1
 90
        0
176
     1
 62
   257
176
     1
 40
1.0
176
     1
 90
        1
176
     1
 90
        6
176
     1
 90
        2
176
     1
 62
     7
176
     1
 90
        3
176
     1
 90
        0
176
     1
 90
        0
176
     1
290
     0
176
     1
 90
        1
176
     1
 40
0.0
176
     1
 90
        0
176
     1
290
     0
176
     1
290
     1
176
     1
290
     1
176
     1
290
     0
176
     1
290
     0
176
     1
290
     0
176
     1
290
     0
176
     1
290
     0
176
     1
290
     0
176
     1
 90
       50
176
     1
 40
0.0
176
     1
 40
1.0
176
     1
 90
        0
176
     1
 62
    18
420
        0
176
     1
 90
       50
176
     1
 90
        3
176
     1
 62
     5
420
      255
176
     1
290
     0
176
     1
 90
       50
176
     1
 90
       50
176
     1
 90
       50
176
     1
290
     0
176
     1
 90
       50
176
     1
 62
   256
176
     0
 40
1.0
176
     0
 90
        2
176
     1
  1
strokes_ogs.tif
176
     1
290
     0
176
     1
 40
1.0
176
     1
 40
1.0
176
     1
  0
VISUALSTYLE
  5
3C
102
{ACAD_REACTORS
330
29
102
}
330
29
100
AcDbVisualStyle
  2
X-Ray
 70
    25
177
     3
291
     0
 70
    58
 90
        2
176
     1
 90
        2
176
     1
 90
        1
176
     1
 90
        1
176
     1
 40
0.5
176
     1
 40
30.0
176
     1
 62
     7
420
 16777215
176
     1
 90
        1
176
     1
 90
        0
176
     1
 62
     7
176
     1
 62
   257
176
     1
 90
        1
176
     1
 90
        1
176
     1
 40
1.0
176
     1
 90
        8
176
     1
 62
     7
176
     1
 40
1.0
176
     1
 90
        1
176
     1
 90
        6
176
     1
 90
        2
176
     1
 62
     7
176
     1
 90
        3
176
     1
 90
        0
176
     1
 90
        0
176
     1
290
     0
176
     1
 90
       13
176
     1
 40
0.0
176
     1
 90
        0
176
     1
290
     0
176
     1
290
     1
176
     1
290
     1
176
     1
290
     0
176
     1
290
     0
176
     1
290
     0
176
     1
290
     0
176
     1
290
     0
176
     1
290
     0
176
     1
 90
       50
176
     1
 40
0.0
176
     1
 40
1.0
176
     1
 90
        0
176
     1
 62
    18
420
        0
176
     1
 90
       50
176
     1
 90
        3
176
     1
 62
     5
420
      255
176
     1
290
     0
176
     1
 90
       50
176
     1
 90
       50
176
     1
 90
       50
176
     1
290
     0
176
     1
 90
       50
176
     1
 62
   256
176
     0
 40
1.0
176
     0
 90
        2
176
     1
  1
strokes_ogs.tif
176
     1
290
     0
176
     1
 40
1.0
176
     1
 40
1.0
176
     1
  0
DICTIONARYVAR
  5
9B
102
{ACAD_REACTORS
330
96
102
}
330
96
100
DictionaryVariables
280
     0
  1
1:1
  0
DICTIONARYVAR
  5
98
102
{ACAD_REACTORS
330
96
102
}
330
96
100
DictionaryVariables
280
     0
  1
STANDARD
  0
DICTIONARYVAR
  5
97
102
{ACAD_REACTORS
330
96
102
}
330
96
100
DictionaryVariables
280
     0
  1
STANDARD
  0
DICTIONARYVAR
  5
99
102
{ACAD_REACTORS
330
96
102
}
330
96
100
DictionaryVariables
280
     0
  1
Imperial24
  0
DICTIONARYVAR
  5
9A
102
{ACAD_REACTORS
330
96
102
}
330
96
100
DictionaryVariables
280
     0
  1
Imperial24
  0
DICTIONARY
  5
1A
330
19
100
AcDbDictionary
280
     1
281
     1
  3
BUMPTILE
360
1C
  3
DIFFUSETILE
360
1B
  3
OPACITYTILE
360
1F
  3
REFLECTIONTILE
360
1E
  3
REFRACTIONTILE
360
20
  3
SPECULARTILE
360
1D
  0
DICTIONARY
  5
12
330
11
100
AcDbDictionary
280
     1
281
     1
  3
BUMPTILE
360
14
  3
DIFFUSETILE
360
13
  3
OPACITYTILE
360
17
  3
REFLECTIONTILE
360
16
  3
REFRACTIONTILE
360
18
  3
SPECULARTILE
360
15
  0
DICTIONARY
  5
22
330
21
100
AcDbDictionary
280
     1
281
     1
  3
BUMPTILE
360
24
  3
DIFFUSETILE
360
23
  3
OPACITYTILE
360
27
  3
REFLECTIONTILE
360
26
  3
REFRACTIONTILE
360
28
  3
SPECULARTILE
360
25
  0
DICTIONARY
  5
9C
330
65
100
AcDbDictionary
280
     1
281
     1
  3
ACAD_ROUNDTRIP_2008_TABLESTYLE_CELLSTYLEMAP
360
9D
  0
XRECORD
  5
1C
102
{ACAD_REACTORS
330
1A
102
}
330
1A
100
AcDbXrecord
280
     1
270
     1
271
     1
  0
XRECORD
  5
1B
102
{ACAD_REACTORS
330
1A
102
}
330
1A
100
AcDbXrecord
280
     1
270
     1
271
     1
  0
XRECORD
  5
1F
102
{ACAD_REACTORS
330
1A
102
}
330
1A
100
AcDbXrecord
280
     1
270
     1
271
     1
  0
XRECORD
  5
1E
102
{ACAD_REACTORS
330
1A
102
}
330
1A
100
AcDbXrecord
280
     1
270
     1
271
     1
  0
XRECORD
  5
20
102
{ACAD_REACTORS
330
1A
102
}
330
1A
100
AcDbXrecord
280
     1
270
     1
271
     1
  0
XRECORD
  5
1D
102
{ACAD_REACTORS
330
1A
102
}
330
1A
100
AcDbXrecord
280
     1
270
     1
271
     1
  0
XRECORD
  5
14
102
{ACAD_REACTORS
330
12
102
}
330
12
100
AcDbXrecord
280
     1
270
     1
271
     1
  0
XRECORD
  5
13
102
{ACAD_REACTORS
330
12
102
}
330
12
100
AcDbXrecord
280
     1
270
     1
271
     1
  0
XRECORD
  5
17
102
{ACAD_REACTORS
330
12
102
}
330
12
100
AcDbXrecord
280
     1
270
     1
271
     1
  0
XRECORD
  5
16
102
{ACAD_REACTORS
330
12
102
}
330
12
100
AcDbXrecord
280
     1
270
     1
271
     1
  0
XRECORD
  5
18
102
{ACAD_REACTORS
330
12
102
}
330
12
100
AcDbXrecord
280
     1
270
     1
271
     1
  0
XRECORD
  5
15
102
{ACAD_REACTORS
330
12
102
}
330
12
100
AcDbXrecord
280
     1
270
     1
271
     1
  0
XRECORD
  5
24
102
{ACAD_REACTORS
330
22
102
}
330
22
100
AcDbXrecord
280
     1
270
     1
271
     1
  0
XRECORD
  5
23
102
{ACAD_REACTORS
330
22
102
}
330
22
100
AcDbXrecord
280
     1
270
     1
271
     1
  0
XRECORD
  5
27
102
{ACAD_REACTORS
330
22
102
}
330
22
100
AcDbXrecord
280
     1
270
     1
271
     1
  0
XRECORD
  5
26
102
{ACAD_REACTORS
330
22
102
}
330
22
100
AcDbXrecord
280
     1
270
     1
271
     1
  0
XRECORD
  5
28
102
{ACAD_REACTORS
330
22
102
}
330
22
100
AcDbXrecord
280
     1
270
     1
271
     1
  0
XRECORD
  5
25
102
{ACAD_REACTORS
330
22
102
}
330
22
100
AcDbXrecord
280
     1
270
     1
271
     1
  0
CELLSTYLEMAP
  5
9D
102
{ACAD_REACTORS
330
9C
102
}
330
9C
100
AcDbCellStyleMap
 90
        3
300
CELLSTYLE
  1
TABLEFORMAT_BEGIN
 90
        5
170
     1
 91
        0
 92
    32768
 62
   257
 93
        1
300
CONTENTFORMAT
  1
CONTENTFORMAT_BEGIN
 90
        0
 91
        0
 92
      512
 93
        0
300

 40
0.0
140
1.0
 94
        5
 62
     0
340
55
144
0.25
309
CONTENTFORMAT_END
171
     0
 94
        0
309
TABLEFORMAT_END
  1
CELLSTYLE_BEGIN
 90
        1
 91
        1
300
_TITLE
309
CELLSTYLE_END
300
CELLSTYLE
  1
TABLEFORMAT_BEGIN
 90
        5
170
     1
 91
        0
 92
        0
 62
   257
 93
        1
300
CONTENTFORMAT
  1
CONTENTFORMAT_BEGIN
 90
        0
 91
        0
 92
      512
 93
        0
300

 40
0.0
140
1.0
 94
        5
 62
     0
340
55
144
0.18
309
CONTENTFORMAT_END
171
     0
 94
        0
309
TABLEFORMAT_END
  1
CELLSTYLE_BEGIN
 90
        2
 91
        1
300
_HEADER
309
CELLSTYLE_END
300
CELLSTYLE
  1
TABLEFORMAT_BEGIN
 90
        5
170
     1
 91
        0
 92
        0
 62
   257
 93
        1
300
CONTENTFORMAT
  1
CONTENTFORMAT_BEGIN
 90
        0
 91
        0
 92
      512
 93
        0
300

 40
0.0
140
1.0
 94
        2
 62
     0
340
55
144
0.18
309
CONTENTFORMAT_END
171
     0
 94
        0
309
TABLEFORMAT_END
  1
CELLSTYLE_BEGIN
 90
        3
 91
        2
300
_DATA
309
CELLSTYLE_END
  0
ENDSEC
  0
EOF
