  0
SECTION
  2
HEADER
  9
$ACADVER
  1
AC1032
  9
$ACADMAINTVER
 90
      251
  9
$DWGCODEPAGE
  3
ANSI_1252
  9
$REQUIREDVERSIONS
160
                 0
  9
$INSBASE
 10
0.0
 20
0.0
 30
0.0
  9
$EXTMIN
 10
1.000000000000000E+20
 20
1.000000000000000E+20
 30
1.000000000000000E+20
  9
$EXTMAX
 10
-1.000000000000000E+20
 20
-1.000000000000000E+20
 30
-1.000000000000000E+20
  9
$LIMMIN
 10
0.0
 20
0.0
  9
$LIMMAX
 10
12.0
 20
9.0
  9
$ORTHOMODE
 70
     0
  9
$REGENMODE
 70
     1
  9
$FILLMODE
 70
     1
  9
$QTEXTMODE
 70
     0
  9
$MIRRTEXT
 70
     0
  9
$LTSCALE
 40
1.0
  9
$ATTMODE
 70
     1
  9
$TEXTSIZE
 40
0.2
  9
$TRACEWID
 40
0.05
  9
$TEXTSTYLE
  7
Standard
  9
$CLAYER
  8
0
  9
$CELTYPE
  6
ByLayer
  9
$CECOLOR
 62
   256
  9
$CELTSCALE
 40
1.0
  9
$DISPSILH
 70
     0
  9
$DIMSCALE
 40
1.0
  9
$DIMASZ
 40
0.18
  9
$DIMEXO
 40
0.0625
  9
$DIMDLI
 40
0.38
  9
$DIMRND
 40
0.0
  9
$DIMDLE
 40
0.0
  9
$DIMEXE
 40
0.18
  9
$DIMTP
 40
0.0
  9
$DIMTM
 40
0.0
  9
$DIMTXT
 40
0.18
  9
$DIMCEN
 40
0.09
  9
$DIMTSZ
 40
0.0
  9
$DIMTOL
 70
     0
  9
$DIMLIM
 70
     0
  9
$DIMTIH
 70
     1
  9
$DIMTOH
 70
     1
  9
$DIMSE1
 70
     0
  9
$DIMSE2
 70
     0
  9
$DIMTAD
 70
     0
  9
$DIMZIN
 70
     0
  9
$DIMBLK
  1

  9
$DIMASO
 70
     1
  9
$DIMSHO
 70
     1
  9
$DIMPOST
  1

  9
$DIMAPOST
  1

  9
$DIMALT
 70
     0
  9
$DIMALTD
 70
     2
  9
$DIMALTF
 40
25.4
  9
$DIMLFAC
 40
1.0
  9
$DIMTOFL
 70
     0
  9
$DIMTVP
 40
0.0
  9
$DIMTIX
 70
     0
  9
$DIMSOXD
 70
     0
  9
$DIMSAH
 70
     0
  9
$DIMBLK1
  1

  9
$DIMBLK2
  1

  9
$DIMSTYLE
  2
Standard
  9
$DIMCLRD
 70
     0
  9
$DIMCLRE
 70
     0
  9
$DIMCLRT
 70
     0
  9
$DIMTFAC
 40
1.0
  9
$DIMGAP
 40
0.09
  9
$DIMJUST
 70
     0
  9
$DIMSD1
 70
     0
  9
$DIMSD2
 70
     0
  9
$DIMTOLJ
 70
     1
  9
$DIMTZIN
 70
     0
  9
$DIMALTZ
 70
     0
  9
$DIMALTTZ
 70
     0
  9
$DIMUPT
 70
     0
  9
$DIMDEC
 70
     4
  9
$DIMTDEC
 70
     4
  9
$DIMALTU
 70
     2
  9
$DIMALTTD
 70
     2
  9
$DIMTXSTY
  7
Standard
  9
$DIMAUNIT
 70
     0
  9
$DIMADEC
 70
     0
  9
$DIMALTRND
 40
0.0
  9
$DIMAZIN
 70
     0
  9
$DIMDSEP
 70
    46
  9
$DIMATFIT
 70
     3
  9
$DIMFRAC
 70
     0
  9
$DIMLDRBLK
  1

  9
$DIMLUNIT
 70
     2
  9
$DIMLWD
 70
    -2
  9
$DIMLWE
 70
    -2
  9
$DIMTMOVE
 70
     0
  9
$DIMFXL
 40
1.0
  9
$DIMFXLON
 70
     0
  9
$DIMJOGANG
 40
0.7853981633974483
  9
$DIMTFILL
 70
     0
  9
$DIMTFILLCLR
 70
     0
  9
$DIMARCSYM
 70
     0
  9
$DIMLTYPE
  6

  9
$DIMLTEX1
  6

  9
$DIMLTEX2
  6

  9
$DIMTXTDIRECTION
 70
     0
  9
$LUNITS
 70
     2
  9
$LUPREC
 70
     4
  9
$SKETCHINC
 40
0.1
  9
$FILLETRAD
 40
0.0
  9
$AUNITS
 70
     0
  9
$AUPREC
 70
     0
  9
$MENU
  1
.
  9
$ELEVATION
 40
0.0
  9
$PELEVATION
 40
0.0
  9
$THICKNESS
 40
0.0
  9
$LIMCHECK
 70
     0
  9
$CHAMFERA
 40
0.0
  9
$CHAMFERB
 40
0.0
  9
$CHAMFERC
 40
0.0
  9
$CHAMFERD
 40
0.0
  9
$SKPOLY
 70
     0
  9
$TDCREATE
 40
2460024.639525463
  9
$TDUCREATE
 40
2460024.597858796
  9
$TDUPDATE
 40
2460024.639525463
  9
$TDUUPDATE
 40
2460024.597858796
  9
$TDINDWG
 40
0.0000000000
  9
$TDUSRTIMER
 40
0.0000000000
  9
$USRTIMER
 70
     1
  9
$ANGBASE
 50
0.0
  9
$ANGDIR
 70
     0
  9
$PDMODE
 70
     0
  9
$PDSIZE
 40
0.0
  9
$PLINEWID
 40
0.0
  9
$SPLFRAME
 70
     0
  9
$SPLINETYPE
 70
     6
  9
$SPLINESEGS
 70
     8
  9
$HANDSEED
  5
AF
  9
$SURFTAB1
 70
     6
  9
$SURFTAB2
 70
     6
  9
$SURFTYPE
 70
     6
  9
$SURFU
 70
     6
  9
$SURFV
 70
     6
  9
$UCSBASE
  2

  9
$UCSNAME
  2

  9
$UCSORG
 10
0.0
 20
0.0
 30
0.0
  9
$UCSXDIR
 10
1.0
 20
0.0
 30
0.0
  9
$UCSYDIR
 10
0.0
 20
1.0
 30
0.0
  9
$UCSORTHOREF
  2

  9
$UCSORTHOVIEW
 70
     0
  9
$UCSORGTOP
 10
0.0
 20
0.0
 30
0.0
  9
$UCSORGBOTTOM
 10
0.0
 20
0.0
 30
0.0
  9
$UCSORGLEFT
 10
0.0
 20
0.0
 30
0.0
  9
$UCSORGRIGHT
 10
0.0
 20
0.0
 30
0.0
  9
$UCSORGFRONT
 10
0.0
 20
0.0
 30
0.0
  9
$UCSORGBACK
 10
0.0
 20
0.0
 30
0.0
  9
$PUCSBASE
  2

  9
$PUCSNAME
  2

  9
$PUCSORG
 10
0.0
 20
0.0
 30
0.0
  9
$PUCSXDIR
 10
1.0
 20
0.0
 30
0.0
  9
$PUCSYDIR
 10
0.0
 20
1.0
 30
0.0
  9
$PUCSORTHOREF
  2

  9
$PUCSORTHOVIEW
 70
     0
  9
$PUCSORGTOP
 10
0.0
 20
0.0
 30
0.0
  9
$PUCSORGBOTTOM
 10
0.0
 20
0.0
 30
0.0
  9
$PUCSORGLEFT
 10
0.0
 20
0.0
 30
0.0
  9
$PUCSORGRIGHT
 10
0.0
 20
0.0
 30
0.0
  9
$PUCSORGFRONT
 10
0.0
 20
0.0
 30
0.0
  9
$PUCSORGBACK
 10
0.0
 20
0.0
 30
0.0
  9
$USERI1
 70
     0
  9
$USERI2
 70
     0
  9
$USERI3
 70
     0
  9
$USERI4
 70
     0
  9
$USERI5
 70
     0
  9
$USERR1
 40
0.0
  9
$USERR2
 40
0.0
  9
$USERR3
 40
0.0
  9
$USERR4
 40
0.0
  9
$USERR5
 40
0.0
  9
$WORLDVIEW
 70
     1
  9
$SHADEDGE
 70
     3
  9
$SHADEDIF
 70
    70
  9
$TILEMODE
 70
     1
  9
$MAXACTVP
 70
    64
  9
$PINSBASE
 10
0.0
 20
0.0
 30
0.0
  9
$PLIMCHECK
 70
     0
  9
$PEXTMIN
 10
1.000000000000000E+20
 20
1.000000000000000E+20
 30
1.000000000000000E+20
  9
$PEXTMAX
 10
-1.000000000000000E+20
 20
-1.000000000000000E+20
 30
-1.000000000000000E+20
  9
$PLIMMIN
 10
0.0
 20
0.0
  9
$PLIMMAX
 10
12.0
 20
9.0
  9
$UNITMODE
 70
     0
  9
$VISRETAIN
 70
     1
  9
$PLINEGEN
 70
     0
  9
$PSLTSCALE
 70
     1
  9
$TREEDEPTH
 70
  3020
  9
$CMLSTYLE
  2
Standard
  9
$CMLJUST
 70
     0
  9
$CMLSCALE
 40
1.0
  9
$PROXYGRAPHICS
 70
     1
  9
$MEASUREMENT
 70
     0
  9
$CELWEIGHT
370
    -1
  9
$ENDCAPS
280
     0
  9
$JOINSTYLE
280
     0
  9
$LWDISPLAY
290
     1
  9
$INSUNITS
 70
     4
  9
$HYPERLINKBASE
  1

  9
$STYLESHEET
  1

  9
$XEDIT
290
     1
  9
$CEPSNTYPE
380
     0
  9
$PSTYLEMODE
290
     1
  9
$FINGERPRINTGUID
  2
{6DE2030B-2973-404E-877D-F8E398199590}
  9
$VERSIONGUID
  2
{59412989-FCC2-E14A-8782-6A8E8B6C63BF}
  9
$EXTNAMES
290
     1
  9
$PSVPSCALE
 40
0.0
  9
$OLESTARTUP
290
     0
  9
$SORTENTS
280
   127
  9
$INDEXCTL
280
     0
  9
$HIDETEXT
280
     1
  9
$XCLIPFRAME
280
     2
  9
$HALOGAP
280
     0
  9
$OBSCOLOR
 70
   257
  9
$OBSLTYPE
280
     0
  9
$INTERSECTIONDISPLAY
280
     0
  9
$INTERSECTIONCOLOR
 70
   257
  9
$DIMASSOC
280
     2
  9
$PROJECTNAME
  1

  9
$CAMERADISPLAY
290
     0
  9
$LENSLENGTH
 40
50.0
  9
$CAMERAHEIGHT
 40
0.0
  9
$STEPSPERSEC
 40
2.0
  9
$STEPSIZE
 40
6.0
  9
$3DDWFPREC
 40
2.0
  9
$PSOLWIDTH
 40
0.25
  9
$PSOLHEIGHT
 40
4.0
  9
$LOFTANG1
 40
1.570796326794896
  9
$LOFTANG2
 40
1.570796326794896
  9
$LOFTMAG1
 40
0.0
  9
$LOFTMAG2
 40
0.0
  9
$LOFTPARAM
 70
     7
  9
$LOFTNORMALS
280
     1
  9
$LATITUDE
 40
37.795
  9
$LONGITUDE
 40
-122.394
  9
$NORTHDIRECTION
 40
0.0
  9
$TIMEZONE
 70
 -8000
  9
$LIGHTGLYPHDISPLAY
280
     1
  9
$TILEMODELIGHTSYNCH
280
     1
  9
$CMATERIAL
347
11
  9
$SOLIDHIST
280
     0
  9
$SHOWHIST
280
     1
  9
$DWFFRAME
280
     2
  9
$DGNFRAME
280
     0
  9
$REALWORLDSCALE
290
     1
  9
$INTERFERECOLOR
 62
     1
  9
$INTERFEREOBJVS
345
33
  9
$INTERFEREVPVS
346
30
  9
$CSHADOW
280
     0
  9
$SHADOWPLANELOCATION
 40
0.0
  0
ENDSEC
  0
SECTION
  2
CLASSES
  0
CLASS
  1
ACDBDICTIONARYWDFLT
  2
AcDbDictionaryWithDefault
  3
ObjectDBX Classes
 90
        0
 91
        1
280
     0
281
     0
  0
CLASS
  1
MATERIAL
  2
AcDbMaterial
  3
ObjectDBX Classes
 90
     1153
 91
        3
280
     0
281
     0
  0
CLASS
  1
VISUALSTYLE
  2
AcDbVisualStyle
  3
ObjectDBX Classes
 90
     4095
 91
       24
280
     0
281
     0
  0
CLASS
  1
SCALE
  2
AcDbScale
  3
ObjectDBX Classes
 90
     1153
 91
       17
280
     0
281
     0
  0
CLASS
  1
TABLESTYLE
  2
AcDbTableStyle
  3
ObjectDBX Classes
 90
     4095
 91
        1
280
     0
281
     0
  0
CLASS
  1
MLEADERSTYLE
  2
AcDbMLeaderStyle
  3
ACDB_MLEADERSTYLE_CLASS
 90
     4095
 91
        1
280
     0
281
     0
  0
CLASS
  1
ACDBSECTIONVIEWSTYLE
  2
AcDbSectionViewStyle
  3
ObjectDBX Classes
 90
     1025
 91
        1
280
     0
281
     0
  0
CLASS
  1
ACDBDETAILVIEWSTYLE
  2
AcDbDetailViewStyle
  3
ObjectDBX Classes
 90
     1025
 91
        1
280
     0
281
     0
  0
CLASS
  1
DICTIONARYVAR
  2
AcDbDictionaryVar
  3
ObjectDBX Classes
 90
        0
 91
        5
280
     0
281
     0
  0
CLASS
  1
CELLSTYLEMAP
  2
AcDbCellStyleMap
  3
ObjectDBX Classes
 90
     1152
 91
        1
280
     0
281
     0
  0
ENDSEC
  0
SECTION
  2
TABLES
  0
TABLE
  2
VPORT
  5
8
330
0
100
AcDbSymbolTable
 70
     1
  0
VPORT
  5
57
330
8
100
AcDbSymbolTableRecord
100
AcDbViewportTableRecord
  2
*Active
 70
     0
 10
0.0
 20
0.0
 11
1.0
 21
1.0
 12
0.0
 22
0.0
 13
0.0
 23
0.0
 14
1.0
 24
1.0
 15
0.0
 25
0.0
 16
0.0
 26
0.0
 36
1.0
 17
600.1763475651845
 27
-999.8195651465769
 37
0.0
 40
2040.449791156557
 41
0.6000881750030807
 42
50.0
 43
0.0
 44
0.0
 50
0.0
 51
0.0
 71
     0
 72
   100
 73
     1
 74
     1
 75
     0
 76
     0
 77
     0
 78
     0
281
     0
 65
     1
110
0.0
120
0.0
130
0.0
111
1.0
121
0.0
131
0.0
112
0.0
122
1.0
132
0.0
 79
     0
146
0.0
 60
     3
 61
     5
292
     1
282
     1
141
0.0
142
0.0
 63
   250
421
  3355443
  0
ENDTAB
  0
TABLE
  2
LTYPE
  5
5
330
0
100
AcDbSymbolTable
 70
     1
  0
LTYPE
  5
5B
330
5
100
AcDbSymbolTableRecord
100
AcDbLinetypeTableRecord
  2
ByBlock
 70
     0
  3

 72
    65
 73
     0
 40
0.0
  0
LTYPE
  5
5C
330
5
100
AcDbSymbolTableRecord
100
AcDbLinetypeTableRecord
  2
ByLayer
 70
     0
  3

 72
    65
 73
     0
 40
0.0
  0
LTYPE
  5
5D
330
5
100
AcDbSymbolTableRecord
100
AcDbLinetypeTableRecord
  2
Continuous
 70
     0
  3
Solid line
 72
    65
 73
     0
 40
0.0
  0
ENDTAB
  0
TABLE
  2
LAYER
  5
2
330
0
100
AcDbSymbolTable
 70
    22
  0
LAYER
  5
54
330
2
100
AcDbSymbolTableRecord
100
AcDbLayerTableRecord
  2
0
 70
     0
 62
     7
  6
Continuous
370
    -3
390
F
347
21
348
0
  0
LAYER
  5
78
330
2
100
AcDbSymbolTableRecord
100
AcDbLayerTableRecord
  2
Bounding Box
 70
     0
 62
     7
  6
Continuous
370
     0
390
F
347
21
348
0
  0
LAYER
  5
7A
330
2
100
AcDbSymbolTableRecord
100
AcDbLayerTableRecord
  2
Screws
 70
     0
 62
     7
  6
Continuous
370
     0
390
F
347
21
348
0
  0
LAYER
  5
83
330
2
100
AcDbSymbolTableRecord
100
AcDbLayerTableRecord
  2
2023-018
 70
     1
 62
     7
  6
Continuous
370
     0
390
F
347
21
348
0
  0
LAYER
  5
84
330
2
100
AcDbSymbolTableRecord
100
AcDbLayerTableRecord
  2
2023-017
 70
     1
 62
     7
  6
Continuous
370
     0
390
F
347
21
348
0
  0
LAYER
  5
85
330
2
100
AcDbSymbolTableRecord
100
AcDbLayerTableRecord
  2
2023-016
 70
     1
 62
     7
  6
Continuous
370
     0
390
F
347
21
348
0
  0
LAYER
  5
86
330
2
100
AcDbSymbolTableRecord
100
AcDbLayerTableRecord
  2
2023-015
 70
     0
 62
     7
  6
Continuous
370
     0
390
F
347
21
348
0
  0
LAYER
  5
97
330
2
100
AcDbSymbolTableRecord
100
AcDbLayerTableRecord
  2
2023-014
 70
     1
 62
     7
  6
Continuous
370
     0
390
F
347
21
348
0
  0
LAYER
  5
98
330
2
100
AcDbSymbolTableRecord
100
AcDbLayerTableRecord
  2
2023-013
 70
     1
 62
     7
  6
Continuous
370
     0
390
F
347
21
348
0
  0
LAYER
  5
99
330
2
100
AcDbSymbolTableRecord
100
AcDbLayerTableRecord
  2
2023-012
 70
     1
 62
     7
  6
Continuous
370
     0
390
F
347
21
348
0
  0
LAYER
  5
9A
330
2
100
AcDbSymbolTableRecord
100
AcDbLayerTableRecord
  2
2023-011
 70
     1
 62
     7
  6
Continuous
370
     0
390
F
347
21
348
0
  0
LAYER
  5
9B
330
2
100
AcDbSymbolTableRecord
100
AcDbLayerTableRecord
  2
2023-010
 70
     1
 62
     7
  6
Continuous
370
     0
390
F
347
21
348
0
  0
LAYER
  5
9C
330
2
100
AcDbSymbolTableRecord
100
AcDbLayerTableRecord
  2
2023-009
 70
     1
 62
     7
  6
Continuous
370
     0
390
F
347
21
348
0
  0
LAYER
  5
9D
330
2
100
AcDbSymbolTableRecord
100
AcDbLayerTableRecord
  2
2023-008
 70
     1
 62
     7
  6
Continuous
370
     0
390
F
347
21
348
0
  0
LAYER
  5
9E
330
2
100
AcDbSymbolTableRecord
100
AcDbLayerTableRecord
  2
2023-007
 70
     1
 62
     7
  6
Continuous
370
     0
390
F
347
21
348
0
  0
LAYER
  5
9F
330
2
100
AcDbSymbolTableRecord
100
AcDbLayerTableRecord
  2
2023-006
 70
     1
 62
     7
  6
Continuous
370
     0
390
F
347
21
348
0
  0
LAYER
  5
A0
330
2
100
AcDbSymbolTableRecord
100
AcDbLayerTableRecord
  2
2023-005
 70
     1
 62
     7
  6
Continuous
370
     0
390
F
347
21
348
0
  0
LAYER
  5
A1
330
2
100
AcDbSymbolTableRecord
100
AcDbLayerTableRecord
  2
2023-004
 70
     1
 62
     7
  6
Continuous
370
     0
390
F
347
21
348
0
  0
LAYER
  5
A2
330
2
100
AcDbSymbolTableRecord
100
AcDbLayerTableRecord
  2
2023-003
 70
     1
 62
     7
  6
Continuous
370
     0
390
F
347
21
348
0
  0
LAYER
  5
A3
330
2
100
AcDbSymbolTableRecord
100
AcDbLayerTableRecord
  2
2023-002
 70
     1
 62
     7
  6
Continuous
370
     0
390
F
347
21
348
0
  0
LAYER
  5
A4
330
2
100
AcDbSymbolTableRecord
100
AcDbLayerTableRecord
  2
2023-001
 70
     1
 62
     7
  6
Continuous
370
     0
390
F
347
21
348
0
  0
LAYER
  5
A5
330
2
100
AcDbSymbolTableRecord
100
AcDbLayerTableRecord
  2
10-2022-057
 70
     5
 62
     7
  6
Continuous
370
     0
390
F
347
21
348
0
  0
ENDTAB
  0
TABLE
  2
STYLE
  5
3
330
0
100
AcDbSymbolTable
 70
     2
  0
STYLE
  5
55
330
3
100
AcDbSymbolTableRecord
100
AcDbTextStyleTableRecord
  2
Standard
 70
     0
 40
0.0
 41
1.0
 50
0.0
 71
     0
 42
0.2
  3
txt
  4

  0
STYLE
  5
5A
330
3
100
AcDbSymbolTableRecord
100
AcDbTextStyleTableRecord
  2
Annotative
 70
     0
 40
0.0
 41
1.0
 50
0.0
 71
     0
 42
0.2
  3
txt
  4

1001
AcadAnnotative
1000
AnnotativeData
1002
{
1070
     1
1070
     1
1002
}
  0
ENDTAB
  0
TABLE
  2
VIEW
  5
6
330
0
100
AcDbSymbolTable
 70
     0
  0
ENDTAB
  0
TABLE
  2
UCS
  5
7
330
0
100
AcDbSymbolTable
 70
     0
  0
ENDTAB
  0
TABLE
  2
APPID
  5
9
330
0
100
AcDbSymbolTable
 70
     2
  0
APPID
  5
56
330
9
100
AcDbSymbolTableRecord
100
AcDbRegAppTableRecord
  2
ACAD
 70
     0
  0
APPID
  5
5E
330
9
100
AcDbSymbolTableRecord
100
AcDbRegAppTableRecord
  2
AcadAnnotative
 70
     0
  0
ENDTAB
  0
TABLE
  2
DIMSTYLE
  5
A
330
0
100
AcDbSymbolTable
 70
     2
100
AcDbDimStyleTable
 71
     0
  0
DIMSTYLE
105
58
330
A
100
AcDbSymbolTableRecord
100
AcDbDimStyleTableRecord
  2
Standard
 70
     0
340
55
  0
DIMSTYLE
105
59
330
A
100
AcDbSymbolTableRecord
100
AcDbDimStyleTableRecord
  2
Annotative
 70
     0
340
55
1001
AcadAnnotative
1000
AnnotativeData
1002
{
1070
     1
1070
     1
1002
}
  0
ENDTAB
  0
TABLE
  2
BLOCK_RECORD
  5
1
330
0
100
AcDbSymbolTable
 70
     1
  0
BLOCK_RECORD
  5
70
330
1
100
AcDbSymbolTableRecord
100
AcDbBlockTableRecord
  2
*Model_Space
340
73
 70
     0
280
     1
281
     0
  0
BLOCK_RECORD
  5
6C
330
1
100
AcDbSymbolTableRecord
100
AcDbBlockTableRecord
  2
*Paper_Space
340
6F
 70
     0
280
     1
281
     0
  0
BLOCK_RECORD
  5
74
330
1
100
AcDbSymbolTableRecord
100
AcDbBlockTableRecord
  2
*Paper_Space0
340
77
 70
     0
280
     1
281
     0
  0
ENDTAB
  0
ENDSEC
  0
SECTION
  2
BLOCKS
  0
BLOCK
  5
71
330
70
100
AcDbEntity
  8
0
100
AcDbBlockBegin
  2
*Model_Space
 70
     0
 10
0.0
 20
0.0
 30
0.0
  3
*Model_Space
  1

  0
ENDBLK
  5
72
330
70
100
AcDbEntity
  8
0
100
AcDbBlockEnd
  0
BLOCK
  5
6D
330
6C
100
AcDbEntity
 67
     1
  8
0
100
AcDbBlockBegin
  2
*Paper_Space
 70
     0
 10
0.0
 20
0.0
 30
0.0
  3
*Paper_Space
  1

  0
ENDBLK
  5
6E
330
6C
100
AcDbEntity
 67
     1
  8
0
100
AcDbBlockEnd
  0
BLOCK
  5
75
330
74
100
AcDbEntity
 67
     1
  8
0
100
AcDbBlockBegin
  2
*Paper_Space0
 70
     0
 10
0.0
 20
0.0
 30
0.0
  3
*Paper_Space0
  1

  0
ENDBLK
  5
76
330
74
100
AcDbEntity
 67
     1
  8
0
100
AcDbBlockEnd
  0
ENDSEC
  0
SECTION
  2
ENTITIES
  0
LWPOLYLINE
  5
79
330
70
100
AcDbEntity
  8
Bounding Box
 62
    18
420
        0
370
    40
100
AcDbPolyline
 90
        4
 70
     1
 43
0.0
 10
1200.176347415185
 20
-1999.819564896579
 10
0.1763477151839837
 20
-1999.819564896579
 10
0.1763477151839837
 20
0.180434603424631
 10
1200.176347415185
 20
0.180434603424631
  0
ELLIPSE
  5
7B
330
70
100
AcDbEntity
  8
Screws
100
AcDbEllipse
 10
17.342316281568
 20
-1982.358092505099
 30
0.0
 11
2.557638888249479
 21
0.0
 31
0.0
210
0.0
220
0.0
230
1.0
 40
0.9655172413793103
 41
0.0
 42
6.283185307179586
  0
HATCH
  5
7C
330
70
100
AcDbEntity
  8
Screws
 62
    18
420
        0
440
 33554687
100
AcDbHatch
 10
0.0
 20
0.0
 30
0.0
210
0.0
220
0.0
230
1.0
  2
SOLID
 70
     1
 71
     1
 91
        1
 92
        1
 93
        1
 72
     3
 10
17.342316281568
 20
-1982.358092505099
 11
2.557638888249479
 21
0.0
 40
0.9655172413793103
 50
0.0
 51
360.0
 73
     1
 97
        1
330
7B
 75
     2
 76
     1
 98
        1
 10
0.0
 20
0.0
450
        0
451
        0
460
0.0
461
0.0
452
        0
462
0.0
453
        0
470

  0
ELLIPSE
  5
7D
330
70
100
AcDbEntity
  8
Screws
100
AcDbEllipse
 10
1182.38037163908
 20
-1982.387911349827
 30
0.0
 11
2.557638888249479
 21
0.0
 31
0.0
210
0.0
220
0.0
230
1.0
 40
0.9655172413793103
 41
0.0
 42
6.283185307179586
  0
HATCH
  5
7E
330
70
100
AcDbEntity
  8
Screws
 62
    18
420
        0
440
 33554687
100
AcDbHatch
 10
0.0
 20
0.0
 30
0.0
210
0.0
220
0.0
230
1.0
  2
SOLID
 70
     1
 71
     1
 91
        1
 92
        1
 93
        1
 72
     3
 10
1182.38037163908
 20
-1982.387911349827
 11
2.557638888249479
 21
0.0
 40
0.9655172413793103
 50
0.0
 51
360.0
 73
     1
 97
        1
330
7D
 75
     2
 76
     1
 98
        1
 10
0.0
 20
0.0
450
        0
451
        0
460
0.0
461
0.0
452
        0
462
0.0
453
        0
470

  0
ELLIPSE
  5
7F
330
70
100
AcDbEntity
  8
Screws
100
AcDbEllipse
 10
1182.644954972347
 20
-17.53202921959431
 30
0.0
 11
2.557638888249479
 21
0.0
 31
0.0
210
0.0
220
0.0
230
1.0
 40
0.9655172413793103
 41
0.0
 42
6.283185307179586
  0
HATCH
  5
80
330
70
100
AcDbEntity
  8
Screws
 62
    18
420
        0
440
 33554687
100
AcDbHatch
 10
0.0
 20
0.0
 30
0.0
210
0.0
220
0.0
230
1.0
  2
SOLID
 70
     1
 71
     1
 91
        1
 92
        1
 93
        1
 72
     3
 10
1182.644954972347
 20
-17.53202921959431
 11
2.557638888249479
 21
0.0
 40
0.9655172413793103
 50
0.0
 51
360.0
 73
     1
 97
        1
330
7F
 75
     2
 76
     1
 98
        1
 10
0.0
 20
0.0
450
        0
451
        0
460
0.0
461
0.0
452
        0
462
0.0
453
        0
470

  0
ELLIPSE
  5
81
330
70
100
AcDbEntity
  8
Screws
100
AcDbEllipse
 10
17.43471861274107
 20
-17.53202921959431
 30
0.0
 11
2.557638888249479
 21
0.0
 31
0.0
210
0.0
220
0.0
230
1.0
 40
0.9655172413793103
 41
0.0
 42
6.283185307179586
  0
HATCH
  5
82
330
70
100
AcDbEntity
  8
Screws
 62
    18
420
        0
440
 33554687
100
AcDbHatch
 10
0.0
 20
0.0
 30
0.0
210
0.0
220
0.0
230
1.0
  2
SOLID
 70
     1
 71
     1
 91
        1
 92
        1
 93
        1
 72
     3
 10
17.43471861274107
 20
-17.53202921959431
 11
2.557638888249479
 21
0.0
 40
0.9655172413793103
 50
0.0
 51
360.0
 73
     1
 97
        1
330
81
 75
     2
 76
     1
 98
        1
 10
0.0
 20
0.0
450
        0
451
        0
460
0.0
461
0.0
452
        0
462
0.0
453
        0
470

  0
SPLINE
  5
87
330
70
100
AcDbEntity
  8
2023-015
100
AcDbSpline
210
0.0
220
0.0
230
1.0
 70
     9
 71
     3
 72
   104
 73
   100
 74
     0
 42
0.0000000001
 43
0.0000000001
 40
0.0
 40
0.0
 40
0.0
 40
0.0
 40
1.0
 40
1.0
 40
1.0
 40
2.0
 40
2.0
 40
2.0
 40
3.0
 40
3.0
 40
3.0
 40
4.0
 40
4.0
 40
4.0
 40
5.0
 40
5.0
 40
5.0
 40
6.0
 40
6.0
 40
6.0
 40
7.0
 40
7.0
 40
7.0
 40
8.0
 40
8.0
 40
8.0
 40
9.0
 40
9.0
 40
9.0
 40
10.0
 40
10.0
 40
10.0
 40
11.0
 40
11.0
 40
11.0
 40
12.0
 40
12.0
 40
12.0
 40
13.0
 40
13.0
 40
13.0
 40
14.0
 40
14.0
 40
14.0
 40
15.0
 40
15.0
 40
15.0
 40
16.0
 40
16.0
 40
16.0
 40
17.0
 40
17.0
 40
17.0
 40
18.0
 40
18.0
 40
18.0
 40
19.0
 40
19.0
 40
19.0
 40
20.0
 40
20.0
 40
20.0
 40
21.0
 40
21.0
 40
21.0
 40
22.0
 40
22.0
 40
22.0
 40
23.0
 40
23.0
 40
23.0
 40
24.0
 40
24.0
 40
24.0
 40
25.0
 40
25.0
 40
25.0
 40
26.0
 40
26.0
 40
26.0
 40
27.0
 40
27.0
 40
27.0
 40
28.0
 40
28.0
 40
28.0
 40
29.0
 40
29.0
 40
29.0
 40
30.0
 40
30.0
 40
30.0
 40
31.0
 40
31.0
 40
31.0
 40
32.0
 40
32.0
 40
32.0
 40
33.0
 40
33.0
 40
33.0
 40
33.0
 10
1125.556419157552
 20
-1907.49619089944
 30
0.0
 10
1121.691546987913
 20
-1911.616423817443
 30
0.0
 10
1118.020066730823
 20
-1915.916773250249
 30
0.0
 10
1114.562270940008
 20
-1920.384245389209
 30
0.0
 10
1112.800887403956
 20
-1922.659952906192
 30
0.0
 10
1111.088191312708
 20
-1924.972494524432
 30
0.0
 10
1109.43540527745
 20
-1927.328356767042
 30
0.0
 10
1108.637959802017
 20
-1928.46502639399
 30
0.0
 10
1107.775186804017
 20
-1929.595320026968
 30
0.0
 10
1107.09515644924
 20
-1930.807552429253
 30
0.0
 10
1106.382940549314
 20
-1932.077159271427
 30
0.0
 10
1105.997477555782
 20
-1933.545445555271
 30
0.0
 10
1106.671446833445
 20
-1934.914834195246
 30
0.0
 10
1107.709489795626
 20
-1937.023957396146
 30
0.0
 10
1110.464626450607
 20
-1936.969607993944
 30
0.0
 10
1112.414034286321
 20
-1936.495322906178
 30
0.0
 10
1113.643319250963
 20
-1936.19624155611
 30
0.0
 10
1114.841227691615
 20
-1935.713472402302
 30
0.0
 10
1116.031994647627
 20
-1935.29110017916
 30
0.0
 10
1117.358599412678
 20
-1934.820545465649
 30
0.0
 10
1118.680507461925
 20
-1934.336838506373
 30
0.0
 10
1119.999715626211
 20
-1933.845959269678
 30
0.0
 10
1125.25334788796
 20
-1931.891075223067
 30
0.0
 10
1130.465218616473
 20
-1929.82077934761
 30
0.0
 10
1135.76908848326
 20
-1928.003249148325
 30
0.0
 10
1141.035350893151
 20
-1926.198606272889
 30
0.0
 10
1146.404804991504
 20
-1924.642589155419
 30
0.0
 10
1151.905244481978
 20
-1923.739745740613
 30
0.0
 10
1152.552860327446
 20
-1923.633445925405
 30
0.0
 10
1153.201942763291
 20
-1923.53463048569
 30
0.0
 10
1153.852653866523
 20
-1923.449161822314
 30
0.0
 10
1154.442850316727
 20
-1923.371641550297
 30
0.0
 10
1154.955084421803
 20
-1922.997968926645
 30
0.0
 10
1154.955084421803
 20
-1922.346731267034
 30
0.0
 10
1154.955084421803
 20
-1921.8113096601
 30
0.0
 10
1154.447185811505
 20
-1921.166210987421
 30
0.0
 10
1153.852653866523
 20
-1921.244300711754
 30
0.0
 10
1148.463084027193
 20
-1921.952202156878
 30
0.0
 10
1143.195577599831
 20
-1923.272699188407
 30
0.0
 10
1138.024619385025
 20
-1924.932926737556
 30
0.0
 10
1132.871032367742
 20
-1926.587576956647
 30
0.0
 10
1127.821287468176
 20
-1928.542331446445
 30
0.0
 10
1122.761873537566
 20
-1930.460252712844
 30
0.0
 10
1120.22955388202
 20
-1931.420203763957
 30
0.0
 10
1117.693797830898
 20
-1932.371829033765
 30
0.0
 10
1115.13994003744
 20
-1933.273245880562
 30
0.0
 10
1113.996032530619
 20
-1933.677002699159
 30
0.0
 10
1112.845660650567
 20
-1934.141846458263
 30
0.0
 10
1111.659699976417
 20
-1934.408444360561
 30
0.0
 10
1111.132925468184
 20
-1934.52686057953
 30
0.0
 10
1110.96542389957
 20
-1934.558147625283
 30
0.0
 10
1110.413610739338
 20
-1934.571258035323
 30
0.0
 10
1110.192683159966
 20
-1934.576507006105
 30
0.0
 10
1109.971933501855
 20
-1934.568960597297
 30
0.0
 10
1109.751952524669
 20
-1934.547927304572
 30
0.0
 10
1109.931991677354
 20
-1934.565141593958
 30
0.0
 10
1109.685133062909
 20
-1934.535843752951
 30
0.0
 10
1109.625967428285
 20
-1934.523483627927
 30
0.0
 10
1109.508569724525
 20
-1934.498958406399
 30
0.0
 10
1109.394193780484
 20
-1934.466286123962
 30
0.0
 10
1109.279416548005
 20
-1934.431979643294
 30
0.0
 10
1109.231504127929
 20
-1934.417658802153
 30
0.0
 10
1109.183977212104
 20
-1934.400368997449
 30
0.0
 10
1109.137279411087
 20
-1934.382510914904
 30
0.0
 10
1109.155854041302
 20
-1934.389614188986
 30
0.0
 10
1109.284248420787
 20
-1934.453824599933
 30
0.0
 10
1109.174496363547
 20
-1934.395065834846
 30
0.0
 10
1109.088477759571
 20
-1934.349013422969
 30
0.0
 10
1109.005591421156
 20
-1934.299946643667
 30
0.0
 10
1108.921273473026
 20
-1934.251078807775
 30
0.0
 10
1108.816176188268
 20
-1934.190167969953
 30
0.0
 10
1108.933370721611
 20
-1934.267445039901
 30
0.0
 10
1108.950075361994
 20
-1934.280998518432
 30
0.0
 10
1108.91285158297
 20
-1934.250796629718
 30
0.0
 10
1108.875905962441
 20
-1934.21840272661
 30
0.0
 10
1108.842109596499
 20
-1934.18439796834
 30
0.0
 10
1108.793032585695
 20
-1934.135018342977
 30
0.0
 10
1108.631249141929
 20
-1933.918267592337
 30
0.0
 10
1108.729029017718
 20
-1934.070252884273
 30
0.0
 10
1108.50154148482
 20
-1933.716654980621
 30
0.0
 10
1108.452527198639
 20
-1933.377300768533
 30
0.0
 10
1108.572340478124
 20
-1932.920845100831
 30
0.0
 10
1108.887666466804
 20
-1931.719539741988
 30
0.0
 10
1109.804971698089
 20
-1930.656375333098
 30
0.0
 10
1110.497914514201
 20
-1929.651039270979
 30
0.0
 10
1112.046626766368
 20
-1927.404134850092
 30
0.0
 10
1113.647086805466
 20
-1925.192908302642
 30
0.0
 10
1115.297497644381
 20
-1923.019609082676
 30
0.0
 10
1118.574108074894
 20
-1918.704892573998
 30
0.0
 10
1122.060700680191
 20
-1914.547487120706
 30
0.0
 10
1125.723205293288
 20
-1910.555422740494
 30
0.0
 10
1126.184424368411
 20
-1910.05270221567
 30
0.0
 10
1126.648742177642
 20
-1909.552851530124
 30
0.0
 10
1127.115491400405
 20
-1909.055263142292
 30
0.0
 10
1128.085671667503
 20
-1908.020980895051
 30
0.0
 10
1126.529660514494
 20
-1906.458645309306
 30
0.0
 10
1125.556419157552
 20
-1907.49619089944
 30
0.0
 10
1125.556419157552
 20
-1907.49619089944
 30
0.0
 10
1125.556419157552
 20
-1907.49619089944
 30
0.0
 10
1125.556419157552
 20
-1907.49619089944
 30
0.0
  0
HATCH
  5
88
330
70
100
AcDbEntity
  8
2023-015
 62
   250
420
  2301728
440
 33554687
100
AcDbHatch
 10
0.0
 20
0.0
 30
0.0
210
0.0
220
0.0
230
1.0
  2
SOLID
 70
     1
 71
     1
 91
        1
 92
        1
 93
        1
 72
     4
 94
        3
 73
     0
 74
     0
 95
      104
 96
      100
 40
0.0
 40
0.0
 40
0.0
 40
0.0
 40
1.0
 40
1.0
 40
1.0
 40
2.0
 40
2.0
 40
2.0
 40
3.0
 40
3.0
 40
3.0
 40
4.0
 40
4.0
 40
4.0
 40
5.0
 40
5.0
 40
5.0
 40
6.0
 40
6.0
 40
6.0
 40
7.0
 40
7.0
 40
7.0
 40
8.0
 40
8.0
 40
8.0
 40
9.0
 40
9.0
 40
9.0
 40
10.0
 40
10.0
 40
10.0
 40
11.0
 40
11.0
 40
11.0
 40
12.0
 40
12.0
 40
12.0
 40
13.0
 40
13.0
 40
13.0
 40
14.0
 40
14.0
 40
14.0
 40
15.0
 40
15.0
 40
15.0
 40
16.0
 40
16.0
 40
16.0
 40
17.0
 40
17.0
 40
17.0
 40
18.0
 40
18.0
 40
18.0
 40
19.0
 40
19.0
 40
19.0
 40
20.0
 40
20.0
 40
20.0
 40
21.0
 40
21.0
 40
21.0
 40
22.0
 40
22.0
 40
22.0
 40
23.0
 40
23.0
 40
23.0
 40
24.0
 40
24.0
 40
24.0
 40
25.0
 40
25.0
 40
25.0
 40
26.0
 40
26.0
 40
26.0
 40
27.0
 40
27.0
 40
27.0
 40
28.0
 40
28.0
 40
28.0
 40
29.0
 40
29.0
 40
29.0
 40
30.0
 40
30.0
 40
30.0
 40
31.0
 40
31.0
 40
31.0
 40
32.0
 40
32.0
 40
32.0
 40
33.0
 40
33.0
 40
33.0
 40
33.0
 10
1125.556419157552
 20
-1907.49619089944
 10
1121.691546987913
 20
-1911.616423817443
 10
1118.020066730823
 20
-1915.916773250249
 10
1114.562270940008
 20
-1920.384245389209
 10
1112.800887403956
 20
-1922.659952906192
 10
1111.088191312708
 20
-1924.972494524432
 10
1109.43540527745
 20
-1927.328356767042
 10
1108.637959802017
 20
-1928.46502639399
 10
1107.775186804017
 20
-1929.595320026968
 10
1107.09515644924
 20
-1930.807552429253
 10
1106.382940549314
 20
-1932.077159271427
 10
1105.997477555782
 20
-1933.545445555271
 10
1106.671446833445
 20
-1934.914834195246
 10
1107.709489795626
 20
-1937.023957396146
 10
1110.464626450607
 20
-1936.969607993944
 10
1112.414034286321
 20
-1936.495322906178
 10
1113.643319250963
 20
-1936.19624155611
 10
1114.841227691615
 20
-1935.713472402302
 10
1116.031994647627
 20
-1935.29110017916
 10
1117.358599412678
 20
-1934.820545465649
 10
1118.680507461925
 20
-1934.336838506373
 10
1119.999715626211
 20
-1933.845959269678
 10
1125.25334788796
 20
-1931.891075223067
 10
1130.465218616473
 20
-1929.82077934761
 10
1135.76908848326
 20
-1928.003249148325
 10
1141.035350893151
 20
-1926.198606272889
 10
1146.404804991504
 20
-1924.642589155419
 10
1151.905244481978
 20
-1923.739745740613
 10
1152.552860327446
 20
-1923.633445925405
 10
1153.201942763291
 20
-1923.53463048569
 10
1153.852653866523
 20
-1923.449161822314
 10
1154.442850316727
 20
-1923.371641550297
 10
1154.955084421803
 20
-1922.997968926645
 10
1154.955084421803
 20
-1922.346731267034
 10
1154.955084421803
 20
-1921.8113096601
 10
1154.447185811505
 20
-1921.166210987421
 10
1153.852653866523
 20
-1921.244300711754
 10
1148.463084027193
 20
-1921.952202156878
 10
1143.195577599831
 20
-1923.272699188407
 10
1138.024619385025
 20
-1924.932926737556
 10
1132.871032367742
 20
-1926.587576956647
 10
1127.821287468176
 20
-1928.542331446445
 10
1122.761873537566
 20
-1930.460252712844
 10
1120.22955388202
 20
-1931.420203763957
 10
1117.693797830898
 20
-1932.371829033765
 10
1115.13994003744
 20
-1933.273245880562
 10
1113.996032530619
 20
-1933.677002699159
 10
1112.845660650567
 20
-1934.141846458263
 10
1111.659699976417
 20
-1934.408444360561
 10
1111.132925468184
 20
-1934.52686057953
 10
1110.96542389957
 20
-1934.558147625283
 10
1110.413610739338
 20
-1934.571258035323
 10
1110.192683159966
 20
-1934.576507006105
 10
1109.971933501855
 20
-1934.568960597297
 10
1109.751952524669
 20
-1934.547927304572
 10
1109.931991677354
 20
-1934.565141593958
 10
1109.685133062909
 20
-1934.535843752951
 10
1109.625967428285
 20
-1934.523483627927
 10
1109.508569724525
 20
-1934.498958406399
 10
1109.394193780484
 20
-1934.466286123962
 10
1109.279416548005
 20
-1934.431979643294
 10
1109.231504127929
 20
-1934.417658802153
 10
1109.183977212104
 20
-1934.400368997449
 10
1109.137279411087
 20
-1934.382510914904
 10
1109.155854041302
 20
-1934.389614188986
 10
1109.284248420787
 20
-1934.453824599933
 10
1109.174496363547
 20
-1934.395065834846
 10
1109.088477759571
 20
-1934.349013422969
 10
1109.005591421156
 20
-1934.299946643667
 10
1108.921273473026
 20
-1934.251078807775
 10
1108.816176188268
 20
-1934.190167969953
 10
1108.933370721611
 20
-1934.267445039901
 10
1108.950075361994
 20
-1934.280998518432
 10
1108.91285158297
 20
-1934.250796629718
 10
1108.875905962441
 20
-1934.21840272661
 10
1108.842109596499
 20
-1934.18439796834
 10
1108.793032585695
 20
-1934.135018342977
 10
1108.631249141929
 20
-1933.918267592337
 10
1108.729029017718
 20
-1934.070252884273
 10
1108.50154148482
 20
-1933.716654980621
 10
1108.452527198639
 20
-1933.377300768533
 10
1108.572340478124
 20
-1932.920845100831
 10
1108.887666466804
 20
-1931.719539741988
 10
1109.804971698089
 20
-1930.656375333098
 10
1110.497914514201
 20
-1929.651039270979
 10
1112.046626766368
 20
-1927.404134850092
 10
1113.647086805466
 20
-1925.192908302642
 10
1115.297497644381
 20
-1923.019609082676
 10
1118.574108074894
 20
-1918.704892573998
 10
1122.060700680191
 20
-1914.547487120706
 10
1125.723205293288
 20
-1910.555422740494
 10
1126.184424368411
 20
-1910.05270221567
 10
1126.648742177642
 20
-1909.552851530124
 10
1127.115491400405
 20
-1909.055263142292
 10
1128.085671667503
 20
-1908.020980895051
 10
1126.529660514494
 20
-1906.458645309306
 10
1125.556419157552
 20
-1907.49619089944
 10
1125.556419157552
 20
-1907.49619089944
 10
1125.556419157552
 20
-1907.49619089944
 10
1125.556419157552
 20
-1907.49619089944
 97
        0
 97
        1
330
87
 75
     2
 76
     1
 98
        1
 10
0.0
 20
0.0
450
        0
451
        0
460
0.0
461
0.0
452
        0
462
0.0
453
        0
470

  0
SPLINE
  5
89
330
70
100
AcDbEntity
  8
2023-015
100
AcDbSpline
210
0.0
220
0.0
230
1.0
 70
     9
 71
     3
 72
    83
 73
    79
 74
     0
 42
0.0000000001
 43
0.0000000001
 40
0.0
 40
0.0
 40
0.0
 40
0.0
 40
1.0
 40
1.0
 40
1.0
 40
2.0
 40
2.0
 40
2.0
 40
3.0
 40
3.0
 40
3.0
 40
4.0
 40
4.0
 40
4.0
 40
5.0
 40
5.0
 40
5.0
 40
6.0
 40
6.0
 40
6.0
 40
7.0
 40
7.0
 40
7.0
 40
8.0
 40
8.0
 40
8.0
 40
9.0
 40
9.0
 40
9.0
 40
10.0
 40
10.0
 40
10.0
 40
11.0
 40
11.0
 40
11.0
 40
12.0
 40
12.0
 40
12.0
 40
13.0
 40
13.0
 40
13.0
 40
14.0
 40
14.0
 40
14.0
 40
15.0
 40
15.0
 40
15.0
 40
16.0
 40
16.0
 40
16.0
 40
17.0
 40
17.0
 40
17.0
 40
18.0
 40
18.0
 40
18.0
 40
19.0
 40
19.0
 40
19.0
 40
20.0
 40
20.0
 40
20.0
 40
21.0
 40
21.0
 40
21.0
 40
22.0
 40
22.0
 40
22.0
 40
23.0
 40
23.0
 40
23.0
 40
24.0
 40
24.0
 40
24.0
 40
25.0
 40
25.0
 40
25.0
 40
26.0
 40
26.0
 40
26.0
 40
26.0
 10
1133.291601699182
 20
-1920.368982697418
 30
0.0
 10
1136.137053339541
 20
-1915.882267932619
 30
0.0
 10
1139.419250926091
 20
-1911.696364696685
 30
0.0
 10
1143.094963740572
 20
-1907.860211683829
 30
0.0
 10
1142.480768143296
 20
-1907.698056213791
 30
0.0
 10
1141.866572546021
 20
-1907.535900743749
 30
0.0
 10
1141.252376948742
 20
-1907.373745273708
 30
0.0
 10
1142.350143291062
 20
-1912.944997061985
 30
0.0
 10
1143.626198778858
 20
-1918.480653197018
 30
0.0
 10
1145.082986280465
 20
-1923.969026516831
 30
0.0
 10
1146.53972228796
 20
-1929.457205835172
 30
0.0
 10
1148.17524946416
 20
-1934.897932945528
 30
0.0
 10
1149.986393784193
 20
-1940.279566262096
 30
0.0
 10
1150.50380295177
 20
-1941.816995600953
 30
0.0
 10
1150.976473737287
 20
-1943.395999631711
 30
0.0
 10
1151.596574559941
 20
-1944.895306307592
 30
0.0
 10
1151.842151573067
 20
-1945.489073065792
 30
0.0
 10
1152.388892056022
 20
-1946.001124972724
 30
0.0
 10
1153.024262804931
 20
-1946.156071399542
 30
0.0
 10
1153.925107180941
 20
-1946.37575827908
 30
0.0
 10
1154.705392147111
 20
-1945.780684087793
 30
0.0
 10
1154.742240605257
 20
-1944.856556727498
 30
0.0
 10
1154.765983908669
 20
-1944.261095277823
 30
0.0
 10
1154.218559221114
 20
-1943.754126172217
 30
0.0
 10
1153.639810049977
 20
-1943.754126172217
 30
0.0
 10
1153.022860145491
 20
-1943.754126172217
 30
0.0
 10
1152.561196401608
 20
-1944.259249365953
 30
0.0
 10
1152.537379494697
 20
-1944.856556727498
 30
0.0
 10
1152.569612453926
 20
-1944.735572729815
 30
0.0
 10
1152.601845413155
 20
-1944.614588732129
 30
0.0
 10
1152.634078372384
 20
-1944.493604734443
 30
0.0
 10
1152.765911257794
 20
-1944.361771849037
 30
0.0
 10
1152.8977441432
 20
-1944.229938963627
 30
0.0
 10
1153.029577028609
 20
-1944.098106078221
 30
0.0
 10
1153.219469107403
 20
-1943.954570660325
 30
0.0
 10
1153.480091790181
 20
-1943.986978331365
 30
0.0
 10
1153.676727967799
 20
-1944.065583116055
 30
0.0
 10
1153.649730480963
 20
-1944.049942100185
 30
0.0
 10
1153.622732994131
 20
-1944.034301084312
 30
0.0
 10
1153.595735507295
 20
-1944.018660068442
 30
0.0
 10
1153.68678267415
 20
-1944.096840930806
 30
0.0
 10
1153.685132098397
 20
-1944.092754985518
 30
0.0
 10
1153.590783780037
 20
-1944.006402232584
 30
0.0
 10
1153.647832159393
 20
-1944.262266805992
 30
0.0
 10
1153.583969488373
 20
-1943.904883228534
 30
0.0
 10
1153.610183306618
 20
-1944.017838557275
 30
0.0
 10
1153.579003548126
 20
-1943.88348499468
 30
0.0
 10
1153.514533768716
 20
-1943.748904860176
 30
0.0
 10
1153.468336743336
 20
-1943.618536706357
 30
0.0
 10
1153.241880558267
 20
-1942.979476625644
 30
0.0
 10
1153.017917246208
 20
-1942.33953477172
 30
0.0
 10
1152.796451281108
 20
-1941.698728236792
 30
0.0
 10
1152.371975041166
 20
-1940.470516270448
 30
0.0
 10
1151.956675898152
 20
-1939.239135736697
 30
0.0
 10
1151.55059052387
 20
-1938.004721166801
 30
0.0
 10
1150.72959337703
 20
-1935.50906162307
 30
0.0
 10
1149.946164741129
 20
-1933.001030653274
 30
0.0
 10
1149.20089345584
 20
-1930.481719254008
 30
0.0
 10
1147.726372923679
 20
-1925.497257275569
 30
0.0
 10
1146.400223325524
 20
-1920.468940722245
 30
0.0
 10
1145.225352438134
 20
-1915.405463557112
 30
0.0
 10
1144.561285123241
 20
-1912.543455721907
 30
0.0
 10
1143.946469322238
 20
-1909.670205667278
 30
0.0
 10
1143.378478289553
 20
-1906.787605851101
 30
0.0
 10
1143.217047254946
 20
-1905.968330468386
 30
0.0
 10
1142.081374619135
 20
-1905.731846673758
 30
0.0
 10
1141.535891497723
 20
-1906.30113944098
 30
0.0
 10
1137.734638201634
 20
-1910.268312618102
 30
0.0
 10
1134.330369573687
 20
-1914.616247277312
 30
0.0
 10
1131.387768765389
 20
-1919.256147076076
 30
0.0
 10
1131.068822518093
 20
-1919.759062260657
 30
0.0
 10
1131.282678451148
 20
-1920.471687564312
 30
0.0
 10
1131.783267421614
 20
-1920.764481353639
 30
0.0
 10
1132.314289416254
 20
-1921.075075376282
 30
0.0
 10
1132.971852587057
 20
-1920.873163841119
 30
0.0
 10
1133.291601699182
 20
-1920.368982697418
 30
0.0
 10
1133.291601699182
 20
-1920.368982697418
 30
0.0
 10
1133.291601699182
 20
-1920.368982697418
 30
0.0
 10
1133.291601699182
 20
-1920.368982697418
 30
0.0
  0
HATCH
  5
8A
330
70
100
AcDbEntity
  8
2023-015
 62
   250
420
  2301728
440
 33554687
100
AcDbHatch
 10
0.0
 20
0.0
 30
0.0
210
0.0
220
0.0
230
1.0
  2
SOLID
 70
     1
 71
     1
 91
        1
 92
        1
 93
        1
 72
     4
 94
        3
 73
     0
 74
     0
 95
       83
 96
       79
 40
0.0
 40
0.0
 40
0.0
 40
0.0
 40
1.0
 40
1.0
 40
1.0
 40
2.0
 40
2.0
 40
2.0
 40
3.0
 40
3.0
 40
3.0
 40
4.0
 40
4.0
 40
4.0
 40
5.0
 40
5.0
 40
5.0
 40
6.0
 40
6.0
 40
6.0
 40
7.0
 40
7.0
 40
7.0
 40
8.0
 40
8.0
 40
8.0
 40
9.0
 40
9.0
 40
9.0
 40
10.0
 40
10.0
 40
10.0
 40
11.0
 40
11.0
 40
11.0
 40
12.0
 40
12.0
 40
12.0
 40
13.0
 40
13.0
 40
13.0
 40
14.0
 40
14.0
 40
14.0
 40
15.0
 40
15.0
 40
15.0
 40
16.0
 40
16.0
 40
16.0
 40
17.0
 40
17.0
 40
17.0
 40
18.0
 40
18.0
 40
18.0
 40
19.0
 40
19.0
 40
19.0
 40
20.0
 40
20.0
 40
20.0
 40
21.0
 40
21.0
 40
21.0
 40
22.0
 40
22.0
 40
22.0
 40
23.0
 40
23.0
 40
23.0
 40
24.0
 40
24.0
 40
24.0
 40
25.0
 40
25.0
 40
25.0
 40
26.0
 40
26.0
 40
26.0
 40
26.0
 10
1133.291601699182
 20
-1920.368982697418
 10
1136.137053339541
 20
-1915.882267932619
 10
1139.419250926091
 20
-1911.696364696685
 10
1143.094963740572
 20
-1907.860211683829
 10
1142.480768143296
 20
-1907.698056213791
 10
1141.866572546021
 20
-1907.535900743749
 10
1141.252376948742
 20
-1907.373745273708
 10
1142.350143291062
 20
-1912.944997061985
 10
1143.626198778858
 20
-1918.480653197018
 10
1145.082986280465
 20
-1923.969026516831
 10
1146.53972228796
 20
-1929.457205835172
 10
1148.17524946416
 20
-1934.897932945528
 10
1149.986393784193
 20
-1940.279566262096
 10
1150.50380295177
 20
-1941.816995600953
 10
1150.976473737287
 20
-1943.395999631711
 10
1151.596574559941
 20
-1944.895306307592
 10
1151.842151573067
 20
-1945.489073065792
 10
1152.388892056022
 20
-1946.001124972724
 10
1153.024262804931
 20
-1946.156071399542
 10
1153.925107180941
 20
-1946.37575827908
 10
1154.705392147111
 20
-1945.780684087793
 10
1154.742240605257
 20
-1944.856556727498
 10
1154.765983908669
 20
-1944.261095277823
 10
1154.218559221114
 20
-1943.754126172217
 10
1153.639810049977
 20
-1943.754126172217
 10
1153.022860145491
 20
-1943.754126172217
 10
1152.561196401608
 20
-1944.259249365953
 10
1152.537379494697
 20
-1944.856556727498
 10
1152.569612453926
 20
-1944.735572729815
 10
1152.601845413155
 20
-1944.614588732129
 10
1152.634078372384
 20
-1944.493604734443
 10
1152.765911257794
 20
-1944.361771849037
 10
1152.8977441432
 20
-1944.229938963627
 10
1153.029577028609
 20
-1944.098106078221
 10
1153.219469107403
 20
-1943.954570660325
 10
1153.480091790181
 20
-1943.986978331365
 10
1153.676727967799
 20
-1944.065583116055
 10
1153.649730480963
 20
-1944.049942100185
 10
1153.622732994131
 20
-1944.034301084312
 10
1153.595735507295
 20
-1944.018660068442
 10
1153.68678267415
 20
-1944.096840930806
 10
1153.685132098397
 20
-1944.092754985518
 10
1153.590783780037
 20
-1944.006402232584
 10
1153.647832159393
 20
-1944.262266805992
 10
1153.583969488373
 20
-1943.904883228534
 10
1153.610183306618
 20
-1944.017838557275
 10
1153.579003548126
 20
-1943.88348499468
 10
1153.514533768716
 20
-1943.748904860176
 10
1153.468336743336
 20
-1943.618536706357
 10
1153.241880558267
 20
-1942.979476625644
 10
1153.017917246208
 20
-1942.33953477172
 10
1152.796451281108
 20
-1941.698728236792
 10
1152.371975041166
 20
-1940.470516270448
 10
1151.956675898152
 20
-1939.239135736697
 10
1151.55059052387
 20
-1938.004721166801
 10
1150.72959337703
 20
-1935.50906162307
 10
1149.946164741129
 20
-1933.001030653274
 10
1149.20089345584
 20
-1930.481719254008
 10
1147.726372923679
 20
-1925.497257275569
 10
1146.400223325524
 20
-1920.468940722245
 10
1145.225352438134
 20
-1915.405463557112
 10
1144.561285123241
 20
-1912.543455721907
 10
1143.946469322238
 20
-1909.670205667278
 10
1143.378478289553
 20
-1906.787605851101
 10
1143.217047254946
 20
-1905.968330468386
 10
1142.081374619135
 20
-1905.731846673758
 10
1141.535891497723
 20
-1906.30113944098
 10
1137.734638201634
 20
-1910.268312618102
 10
1134.330369573687
 20
-1914.616247277312
 10
1131.387768765389
 20
-1919.256147076076
 10
1131.068822518093
 20
-1919.759062260657
 10
1131.282678451148
 20
-1920.471687564312
 10
1131.783267421614
 20
-1920.764481353639
 10
1132.314289416254
 20
-1921.075075376282
 10
1132.971852587057
 20
-1920.873163841119
 10
1133.291601699182
 20
-1920.368982697418
 10
1133.291601699182
 20
-1920.368982697418
 10
1133.291601699182
 20
-1920.368982697418
 10
1133.291601699182
 20
-1920.368982697418
 97
        0
 97
        1
330
89
 75
     2
 76
     1
 98
        1
 10
0.0
 20
0.0
450
        0
451
        0
460
0.0
461
0.0
452
        0
462
0.0
453
        0
470

  0
SPLINE
  5
8B
330
70
100
AcDbEntity
  8
2023-015
100
AcDbSpline
210
0.0
220
0.0
230
1.0
 70
     9
 71
     3
 72
   101
 73
    97
 74
     0
 42
0.0000000001
 43
0.0000000001
 40
0.0
 40
0.0
 40
0.0
 40
0.0
 40
1.0
 40
1.0
 40
1.0
 40
2.0
 40
2.0
 40
2.0
 40
3.0
 40
3.0
 40
3.0
 40
4.0
 40
4.0
 40
4.0
 40
5.0
 40
5.0
 40
5.0
 40
6.0
 40
6.0
 40
6.0
 40
7.0
 40
7.0
 40
7.0
 40
8.0
 40
8.0
 40
8.0
 40
9.0
 40
9.0
 40
9.0
 40
10.0
 40
10.0
 40
10.0
 40
11.0
 40
11.0
 40
11.0
 40
12.0
 40
12.0
 40
12.0
 40
13.0
 40
13.0
 40
13.0
 40
14.0
 40
14.0
 40
14.0
 40
15.0
 40
15.0
 40
15.0
 40
16.0
 40
16.0
 40
16.0
 40
17.0
 40
17.0
 40
17.0
 40
18.0
 40
18.0
 40
18.0
 40
19.0
 40
19.0
 40
19.0
 40
20.0
 40
20.0
 40
20.0
 40
21.0
 40
21.0
 40
21.0
 40
22.0
 40
22.0
 40
22.0
 40
23.0
 40
23.0
 40
23.0
 40
24.0
 40
24.0
 40
24.0
 40
25.0
 40
25.0
 40
25.0
 40
26.0
 40
26.0
 40
26.0
 40
27.0
 40
27.0
 40
27.0
 40
28.0
 40
28.0
 40
28.0
 40
29.0
 40
29.0
 40
29.0
 40
30.0
 40
30.0
 40
30.0
 40
31.0
 40
31.0
 40
31.0
 40
32.0
 40
32.0
 40
32.0
 40
32.0
 10
1120.061088096577
 20
-1946.051477532104
 30
0.0
 10
1121.556767313937
 20
-1945.637426760322
 30
0.0
 10
1123.116585127611
 20
-1945.504554661839
 30
0.0
 10
1124.659864876558
 20
-1945.69927814179
 30
0.0
 10
1124.80705384607
 20
-1945.717849725052
 30
0.0
 10
1124.95348635582
 20
-1945.741783722746
 30
0.0
 10
1125.099623200341
 20
-1945.767698674481
 30
0.0
 10
1125.154482273988
 20
-1945.777427023622
 30
0.0
 10
1125.563306425931
 20
-1945.89808841026
 30
0.0
 10
1125.592545449805
 20
-1945.875363819313
 30
0.0
 10
1125.534081679488
 20
-1945.81487243654
 30
0.0
 10
1125.475617909168
 20
-1945.754381053763
 30
0.0
 10
1125.417154138849
 20
-1945.69388967099
 30
0.0
 10
1125.277520898088
 20
-1945.629512429774
 30
0.0
 10
1125.217329586974
 20
-1945.530906761052
 30
0.0
 10
1125.236580205518
 20
-1945.398072664817
 30
0.0
 10
1125.157765164138
 20
-1945.217929605918
 30
0.0
 10
1125.272498356805
 20
-1945.303132352489
 30
0.0
 10
1125.196077973213
 20
-1945.406419888352
 30
0.0
 10
1125.18648444223
 20
-1945.419386221795
 30
0.0
 10
1125.056388021717
 20
-1945.657342427341
 30
0.0
 10
1125.001723824163
 20
-1945.750807335327
 30
0.0
 10
1124.664296895375
 20
-1946.327740287102
 30
0.0
 10
1124.284995479488
 20
-1946.88301709643
 30
0.0
 10
1123.873496958257
 20
-1947.409638498836
 30
0.0
 10
1122.98867889949
 20
-1948.541997676193
 30
0.0
 10
1121.988699519503
 20
-1949.57945861163
 30
0.0
 10
1121.032386380362
 20
-1950.650285106386
 30
0.0
 10
1120.553558789434
 20
-1951.186449726318
 30
0.0
 10
1120.083733164865
 20
-1951.730894447566
 30
0.0
 10
1119.640117459129
 20
-1952.296726498116
 30
0.0
 10
1119.168857312791
 20
-1952.89781904623
 30
0.0
 10
1118.655554412788
 20
-1953.507828598383
 30
0.0
 10
1118.711371465393
 20
-1954.322977024314
 30
0.0
 10
1118.831139956699
 20
-1956.072067895527
 30
0.0
 10
1120.859972274394
 20
-1956.348480198039
 30
0.0
 10
1122.226110551458
 20
-1956.104223709643
 30
0.0
 10
1122.812594137997
 20
-1955.999364323334
 30
0.0
 10
1123.143453824269
 20
-1955.284327395547
 30
0.0
 10
1122.996091510559
 20
-1954.748103327933
 30
0.0
 10
1122.826261352262
 20
-1954.130122950224
 30
0.0
 10
1122.228147958048
 20
-1953.872960241934
 30
0.0
 10
1121.63997112885
 20
-1953.978122368835
 30
0.0
 10
1121.595204810441
 20
-1953.986126290486
 30
0.0
 10
1121.432093986752
 20
-1953.99979682825
 30
0.0
 10
1121.637507494564
 20
-1953.981728754712
 30
0.0
 10
1121.586285972853
 20
-1953.986234175173
 30
0.0
 10
1121.534094533261
 20
-1953.992760366572
 30
0.0
 10
1121.482627139314
 20
-1953.992946827985
 30
0.0
 10
1121.360214886004
 20
-1953.993390315795
 30
0.0
 10
1121.23751721441
 20
-1953.992148313387
 30
0.0
 10
1121.115141353649
 20
-1953.99245903636
 30
0.0
 10
1121.073228894005
 20
-1953.992565455749
 30
0.0
 10
1120.899857087454
 20
-1953.963458493686
 30
0.0
 10
1121.098677392251
 20
-1953.997312143236
 30
0.0
 10
1121.049668735651
 20
-1953.988967312024
 30
0.0
 10
1120.99838013405
 20
-1953.981119259442
 30
0.0
 10
1120.950652005769
 20
-1953.966962972441
 30
0.0
 10
1120.904338609541
 20
-1953.953226298644
 30
0.0
 10
1120.855427648433
 20
-1953.939894513479
 30
0.0
 10
1120.808387491527
 20
-1953.92874902107
 30
0.0
 10
1120.544679645209
 20
-1953.866267218442
 30
0.0
 10
1120.893357249239
 20
-1953.982523260722
 30
0.0
 10
1120.775879400952
 20
-1953.912704596349
 30
0.0
 10
1120.667509108449
 20
-1953.848298674801
 30
0.0
 10
1120.819718758429
 20
-1953.950223392263
 30
0.0
 10
1120.82544664086
 20
-1953.962186945856
 30
0.0
 10
1120.736037413635
 20
-1953.77544217681
 30
0.0
 10
1120.840412266697
 20
-1953.984507801604
 30
0.0
 10
1120.845430238609
 20
-1953.998371080898
 30
0.0
 10
1120.851037845287
 20
-1954.013863359236
 30
0.0
 10
1120.93055842124
 20
-1954.339947302835
 30
0.0
 10
1120.884680412222
 20
-1954.313772330215
 30
0.0
 10
1120.860521608088
 20
-1954.299988906515
 30
0.0
 10
1121.317091462652
 20
-1953.706058090696
 30
0.0
 10
1121.383745665655
 20
-1953.623107247821
 30
0.0
 10
1122.269969561243
 20
-1952.520205768187
 30
0.0
 10
1123.248892392914
 20
-1951.497220346799
 30
0.0
 10
1124.188444007706
 20
-1950.440625706968
 30
0.0
 10
1125.165610251651
 20
-1949.341730660312
 30
0.0
 10
1126.116489502326
 20
-1948.195543580242
 30
0.0
 10
1126.867827916947
 20
-1946.927314311736
 30
0.0
 10
1127.286261618455
 20
-1946.221014917413
 30
0.0
 10
1127.665031032616
 20
-1945.345783427817
 30
0.0
 10
1127.218120107773
 20
-1944.554112783362
 30
0.0
 10
1126.781924764325
 20
-1943.781424022664
 30
0.0
 10
1125.911268983484
 20
-1943.663770804641
 30
0.0
 10
1125.116325103959
 20
-1943.553923575499
 30
0.0
 10
1123.226491103235
 20
-1943.292781834729
 30
0.0
 10
1121.315364752947
 20
-1943.415891477561
 30
0.0
 10
1119.474948673966
 20
-1943.925376191293
 30
0.0
 10
1118.109294438518
 20
-1944.303431982672
 30
0.0
 10
1118.689247118135
 20
-1946.431246007378
 30
0.0
 10
1120.061088096577
 20
-1946.051477532104
 30
0.0
 10
1120.061088096577
 20
-1946.051477532104
 30
0.0
 10
1120.061088096577
 20
-1946.051477532104
 30
0.0
 10
1120.061088096577
 20
-1946.051477532104
 30
0.0
  0
HATCH
  5
8C
330
70
100
AcDbEntity
  8
2023-015
 62
   250
420
  2301728
440
 33554687
100
AcDbHatch
 10
0.0
 20
0.0
 30
0.0
210
0.0
220
0.0
230
1.0
  2
SOLID
 70
     1
 71
     1
 91
        1
 92
        1
 93
        1
 72
     4
 94
        3
 73
     0
 74
     0
 95
      101
 96
       97
 40
0.0
 40
0.0
 40
0.0
 40
0.0
 40
1.0
 40
1.0
 40
1.0
 40
2.0
 40
2.0
 40
2.0
 40
3.0
 40
3.0
 40
3.0
 40
4.0
 40
4.0
 40
4.0
 40
5.0
 40
5.0
 40
5.0
 40
6.0
 40
6.0
 40
6.0
 40
7.0
 40
7.0
 40
7.0
 40
8.0
 40
8.0
 40
8.0
 40
9.0
 40
9.0
 40
9.0
 40
10.0
 40
10.0
 40
10.0
 40
11.0
 40
11.0
 40
11.0
 40
12.0
 40
12.0
 40
12.0
 40
13.0
 40
13.0
 40
13.0
 40
14.0
 40
14.0
 40
14.0
 40
15.0
 40
15.0
 40
15.0
 40
16.0
 40
16.0
 40
16.0
 40
17.0
 40
17.0
 40
17.0
 40
18.0
 40
18.0
 40
18.0
 40
19.0
 40
19.0
 40
19.0
 40
20.0
 40
20.0
 40
20.0
 40
21.0
 40
21.0
 40
21.0
 40
22.0
 40
22.0
 40
22.0
 40
23.0
 40
23.0
 40
23.0
 40
24.0
 40
24.0
 40
24.0
 40
25.0
 40
25.0
 40
25.0
 40
26.0
 40
26.0
 40
26.0
 40
27.0
 40
27.0
 40
27.0
 40
28.0
 40
28.0
 40
28.0
 40
29.0
 40
29.0
 40
29.0
 40
30.0
 40
30.0
 40
30.0
 40
31.0
 40
31.0
 40
31.0
 40
32.0
 40
32.0
 40
32.0
 40
32.0
 10
1120.061088096577
 20
-1946.051477532104
 10
1121.556767313937
 20
-1945.637426760322
 10
1123.116585127611
 20
-1945.504554661839
 10
1124.659864876558
 20
-1945.69927814179
 10
1124.80705384607
 20
-1945.717849725052
 10
1124.95348635582
 20
-1945.741783722746
 10
1125.099623200341
 20
-1945.767698674481
 10
1125.154482273988
 20
-1945.777427023622
 10
1125.563306425931
 20
-1945.89808841026
 10
1125.592545449805
 20
-1945.875363819313
 10
1125.534081679488
 20
-1945.81487243654
 10
1125.475617909168
 20
-1945.754381053763
 10
1125.417154138849
 20
-1945.69388967099
 10
1125.277520898088
 20
-1945.629512429774
 10
1125.217329586974
 20
-1945.530906761052
 10
1125.236580205518
 20
-1945.398072664817
 10
1125.157765164138
 20
-1945.217929605918
 10
1125.272498356805
 20
-1945.303132352489
 10
1125.196077973213
 20
-1945.406419888352
 10
1125.18648444223
 20
-1945.419386221795
 10
1125.056388021717
 20
-1945.657342427341
 10
1125.001723824163
 20
-1945.750807335327
 10
1124.664296895375
 20
-1946.327740287102
 10
1124.284995479488
 20
-1946.88301709643
 10
1123.873496958257
 20
-1947.409638498836
 10
1122.98867889949
 20
-1948.541997676193
 10
1121.988699519503
 20
-1949.57945861163
 10
1121.032386380362
 20
-1950.650285106386
 10
1120.553558789434
 20
-1951.186449726318
 10
1120.083733164865
 20
-1951.730894447566
 10
1119.640117459129
 20
-1952.296726498116
 10
1119.168857312791
 20
-1952.89781904623
 10
1118.655554412788
 20
-1953.507828598383
 10
1118.711371465393
 20
-1954.322977024314
 10
1118.831139956699
 20
-1956.072067895527
 10
1120.859972274394
 20
-1956.348480198039
 10
1122.226110551458
 20
-1956.104223709643
 10
1122.812594137997
 20
-1955.999364323334
 10
1123.143453824269
 20
-1955.284327395547
 10
1122.996091510559
 20
-1954.748103327933
 10
1122.826261352262
 20
-1954.130122950224
 10
1122.228147958048
 20
-1953.872960241934
 10
1121.63997112885
 20
-1953.978122368835
 10
1121.595204810441
 20
-1953.986126290486
 10
1121.432093986752
 20
-1953.99979682825
 10
1121.637507494564
 20
-1953.981728754712
 10
1121.586285972853
 20
-1953.986234175173
 10
1121.534094533261
 20
-1953.992760366572
 10
1121.482627139314
 20
-1953.992946827985
 10
1121.360214886004
 20
-1953.993390315795
 10
1121.23751721441
 20
-1953.992148313387
 10
1121.115141353649
 20
-1953.99245903636
 10
1121.073228894005
 20
-1953.992565455749
 10
1120.899857087454
 20
-1953.963458493686
 10
1121.098677392251
 20
-1953.997312143236
 10
1121.049668735651
 20
-1953.988967312024
 10
1120.99838013405
 20
-1953.981119259442
 10
1120.950652005769
 20
-1953.966962972441
 10
1120.904338609541
 20
-1953.953226298644
 10
1120.855427648433
 20
-1953.939894513479
 10
1120.808387491527
 20
-1953.92874902107
 10
1120.544679645209
 20
-1953.866267218442
 10
1120.893357249239
 20
-1953.982523260722
 10
1120.775879400952
 20
-1953.912704596349
 10
1120.667509108449
 20
-1953.848298674801
 10
1120.819718758429
 20
-1953.950223392263
 10
1120.82544664086
 20
-1953.962186945856
 10
1120.736037413635
 20
-1953.77544217681
 10
1120.840412266697
 20
-1953.984507801604
 10
1120.845430238609
 20
-1953.998371080898
 10
1120.851037845287
 20
-1954.013863359236
 10
1120.93055842124
 20
-1954.339947302835
 10
1120.884680412222
 20
-1954.313772330215
 10
1120.860521608088
 20
-1954.299988906515
 10
1121.317091462652
 20
-1953.706058090696
 10
1121.383745665655
 20
-1953.623107247821
 10
1122.269969561243
 20
-1952.520205768187
 10
1123.248892392914
 20
-1951.497220346799
 10
1124.188444007706
 20
-1950.440625706968
 10
1125.165610251651
 20
-1949.341730660312
 10
1126.116489502326
 20
-1948.195543580242
 10
1126.867827916947
 20
-1946.927314311736
 10
1127.286261618455
 20
-1946.221014917413
 10
1127.665031032616
 20
-1945.345783427817
 10
1127.218120107773
 20
-1944.554112783362
 10
1126.781924764325
 20
-1943.781424022664
 10
1125.911268983484
 20
-1943.663770804641
 10
1125.116325103959
 20
-1943.553923575499
 10
1123.226491103235
 20
-1943.292781834729
 10
1121.315364752947
 20
-1943.415891477561
 10
1119.474948673966
 20
-1943.925376191293
 10
1118.109294438518
 20
-1944.303431982672
 10
1118.689247118135
 20
-1946.431246007378
 10
1120.061088096577
 20
-1946.051477532104
 10
1120.061088096577
 20
-1946.051477532104
 10
1120.061088096577
 20
-1946.051477532104
 10
1120.061088096577
 20
-1946.051477532104
 97
        0
 97
        1
330
8B
 75
     2
 76
     1
 98
        1
 10
0.0
 20
0.0
450
        0
451
        0
460
0.0
461
0.0
452
        0
462
0.0
453
        0
470

  0
SPLINE
  5
8D
330
70
100
AcDbEntity
  8
2023-015
100
AcDbSpline
210
0.0
220
0.0
230
1.0
 70
     9
 71
     3
 72
   110
 73
   106
 74
     0
 42
0.0000000001
 43
0.0000000001
 40
0.0
 40
0.0
 40
0.0
 40
0.0
 40
1.0
 40
1.0
 40
1.0
 40
2.0
 40
2.0
 40
2.0
 40
3.0
 40
3.0
 40
3.0
 40
4.0
 40
4.0
 40
4.0
 40
5.0
 40
5.0
 40
5.0
 40
6.0
 40
6.0
 40
6.0
 40
7.0
 40
7.0
 40
7.0
 40
8.0
 40
8.0
 40
8.0
 40
9.0
 40
9.0
 40
9.0
 40
10.0
 40
10.0
 40
10.0
 40
11.0
 40
11.0
 40
11.0
 40
12.0
 40
12.0
 40
12.0
 40
13.0
 40
13.0
 40
13.0
 40
14.0
 40
14.0
 40
14.0
 40
15.0
 40
15.0
 40
15.0
 40
16.0
 40
16.0
 40
16.0
 40
17.0
 40
17.0
 40
17.0
 40
18.0
 40
18.0
 40
18.0
 40
19.0
 40
19.0
 40
19.0
 40
20.0
 40
20.0
 40
20.0
 40
21.0
 40
21.0
 40
21.0
 40
22.0
 40
22.0
 40
22.0
 40
23.0
 40
23.0
 40
23.0
 40
24.0
 40
24.0
 40
24.0
 40
25.0
 40
25.0
 40
25.0
 40
26.0
 40
26.0
 40
26.0
 40
27.0
 40
27.0
 40
27.0
 40
28.0
 40
28.0
 40
28.0
 40
29.0
 40
29.0
 40
29.0
 40
30.0
 40
30.0
 40
30.0
 40
31.0
 40
31.0
 40
31.0
 40
32.0
 40
32.0
 40
32.0
 40
33.0
 40
33.0
 40
33.0
 40
34.0
 40
34.0
 40
34.0
 40
35.0
 40
35.0
 40
35.0
 40
35.0
 10
1135.194452540529
 20
-1948.487939429361
 30
0.0
 10
1136.78667794826
 20
-1948.056452859592
 30
0.0
 10
1138.466601025013
 20
-1947.926047978508
 30
0.0
 10
1140.102449887982
 20
-1948.174227845482
 30
0.0
 10
1139.94029441794
 20
-1947.560032248207
 30
0.0
 10
1139.778138947902
 20
-1946.945836650928
 30
0.0
 10
1139.61598347786
 20
-1946.331641053653
 30
0.0
 10
1138.576044685846
 20
-1947.270545839897
 30
0.0
 10
1137.366012741395
 20
-1948.050221222387
 30
0.0
 10
1136.064993647527
 20
-1948.57712275802
 30
0.0
 10
1135.4644759596
 20
-1948.820327253205
 30
0.0
 10
1134.955507996835
 20
-1949.552575375969
 30
0.0
 10
1135.406146891936
 20
-1950.196591239098
 30
0.0
 10
1135.973975995493
 20
-1951.008085662262
 30
0.0
 10
1136.777113171086
 20
-1951.482896621756
 30
0.0
 10
1137.744540423022
 20
-1951.674808940918
 30
0.0
 10
1138.196030548749
 20
-1951.76437279901
 30
0.0
 10
1138.656757972586
 20
-1951.811160617793
 30
0.0
 10
1139.114187014714
 20
-1951.859556086645
 30
0.0
 10
1139.225013924721
 20
-1951.871281446813
 30
0.0
 10
1139.335890668388
 20
-1951.882567324364
 30
0.0
 10
1139.446651533833
 20
-1951.894911264754
 30
0.0
 10
1139.486835926954
 20
-1951.899389685463
 30
0.0
 10
1139.800590694067
 20
-1951.937979354256
 30
0.0
 10
1139.59580695982
 20
-1951.91005973602
 30
0.0
 10
1139.79541039082
 20
-1951.937273086791
 30
0.0
 10
1139.994697091658
 20
-1951.971879088599
 30
0.0
 10
1140.190957871524
 20
-1952.01735062547
 30
0.0
 10
1140.382174383213
 20
-1952.061653459008
 30
0.0
 10
1140.574052984276
 20
-1952.113457188982
 30
0.0
 10
1140.756536734646
 20
-1952.186627390936
 30
0.0
 10
1140.562850772838
 20
-1952.108965457132
 30
0.0
 10
1140.869006428602
 20
-1952.251036604462
 30
0.0
 10
1140.876269675402
 20
-1952.253993295606
 30
0.0
 10
1141.021165728128
 20
-1952.312976955025
 30
0.0
 10
1140.908225229624
 20
-1952.326215073117
 30
0.0
 10
1140.921383864672
 20
-1952.25730293534
 30
0.0
 10
1140.906284645735
 20
-1952.336377964922
 30
0.0
 10
1140.80065836939
 20
-1951.664567854747
 30
0.0
 10
1140.917996878128
 20
-1951.743365356648
 30
0.0
 10
1140.914799044499
 20
-1951.741217883461
 30
0.0
 10
1140.793766109018
 20
-1951.85026948523
 30
0.0
 10
1140.741038687682
 20
-1951.892287919928
 30
0.0
 10
1140.525987210641
 20
-1952.063662248809
 30
0.0
 10
1140.29798266305
 20
-1952.222845591111
 30
0.0
 10
1140.077209871377
 20
-1952.387607872743
 30
0.0
 10
1139.066326800178
 20
-1953.142027835518
 30
0.0
 10
1138.04787909789
 20
-1953.886223038282
 30
0.0
 10
1137.022985763145
 20
-1954.621488957871
 30
0.0
 10
1136.53989093361
 20
-1954.968064696086
 30
0.0
 10
1136.306991523755
 20
-1955.58188059496
 30
0.0
 10
1136.627487106919
 20
-1956.129823235434
 30
0.0
 10
1136.906668055186
 20
-1956.607131360728
 30
0.0
 10
1137.649477933099
 20
-1956.874228214781
 30
0.0
 10
1138.135821384483
 20
-1956.52532189166
 30
0.0
 10
1139.294397395432
 20
-1955.694151049559
 30
0.0
 10
1140.444649748644
 20
-1954.851445749327
 30
0.0
 10
1141.58524350248
 20
-1953.995755042591
 30
0.0
 10
1142.159241737673
 20
-1953.565132874198
 30
0.0
 10
1142.830514924996
 20
-1953.143780369746
 30
0.0
 10
1143.011443398942
 20
-1952.395734147486
 30
0.0
 10
1143.204126256972
 20
-1951.599089590101
 30
0.0
 10
1142.780290322857
 20
-1950.880308916017
 30
0.0
 10
1142.134495221069
 20
-1950.442951009623
 30
0.0
 10
1141.258098244209
 20
-1949.849420420892
 30
0.0
 10
1140.134319507394
 20
-1949.762623892372
 30
0.0
 10
1139.114187014714
 20
-1949.654694976085
 30
0.0
 10
1139.004108047793
 20
-1949.643048740236
 30
0.0
 10
1138.893991453083
 20
-1949.631678862752
 30
0.0
 10
1138.784018537858
 20
-1949.61905429993
 30
0.0
 10
1138.741368154857
 20
-1949.614158163112
 30
0.0
 10
1138.450054244155
 20
-1949.572198734514
 30
0.0
 10
1138.645067744153
 20
-1949.602636948483
 30
0.0
 10
1138.404001331059
 20
-1949.565010676139
 30
0.0
 10
1138.163782509773
 20
-1949.521102582277
 30
0.0
 10
1137.929428381689
 20
-1949.452077791374
 30
0.0
 10
1137.833736800773
 20
-1949.423893558319
 30
0.0
 10
1137.737398431639
 20
-1949.393883186268
 30
0.0
 10
1137.645413466431
 20
-1949.355188256608
 30
0.0
 10
1137.860780010025
 20
-1949.44578559756
 30
0.0
 10
1137.579591001244
 20
-1949.308925883929
 30
0.0
 10
1137.557735682837
 20
-1949.295964726741
 30
0.0
 10
1137.494649386655
 20
-1949.258551801164
 30
0.0
 10
1137.334247096647
 20
-1949.115750842898
 30
0.0
 10
1137.467264031974
 20
-1949.241087754368
 30
0.0
 10
1137.43188198428
 20
-1949.207748566628
 30
0.0
 10
1137.196516363578
 20
-1948.92160301552
 30
0.0
 10
1137.309979825725
 20
-1949.083755617756
 30
0.0
 10
1137.09036424053
 20
-1949.62357844478
 30
0.0
 10
1136.870748655333
 20
-1950.163401271807
 30
0.0
 10
1136.651133070134
 20
-1950.703224098831
 30
0.0
 10
1138.324188562481
 20
-1950.025651023788
 30
0.0
 10
1139.833041439306
 20
-1949.102345790354
 30
0.0
 10
1141.17505572071
 20
-1947.890713296505
 30
0.0
 10
1141.746435805862
 20
-1947.374844958065
 30
0.0
 10
1141.507844851759
 20
-1946.172418385071
 30
0.0
 10
1140.688589310589
 20
-1946.048126504672
 30
0.0
 10
1138.647941808907
 20
-1945.738533340553
 30
0.0
 10
1136.605606411266
 20
-1945.820579779405
 30
0.0
 10
1134.608313117921
 20
-1946.361838088551
 30
0.0
 10
1133.240324069544
 20
-1946.73255752256
 30
0.0
 10
1133.82089970374
 20
-1948.86016662726
 30
0.0
 10
1135.194452540529
 20
-1948.487939429361
 30
0.0
 10
1135.194452540529
 20
-1948.487939429361
 30
0.0
 10
1135.194452540529
 20
-1948.487939429361
 30
0.0
 10
1135.194452540529
 20
-1948.487939429361
 30
0.0
  0
HATCH
  5
8E
330
70
100
AcDbEntity
  8
2023-015
 62
   250
420
  2301728
440
 33554687
100
AcDbHatch
 10
0.0
 20
0.0
 30
0.0
210
0.0
220
0.0
230
1.0
  2
SOLID
 70
     1
 71
     1
 91
        1
 92
        1
 93
        1
 72
     4
 94
        3
 73
     0
 74
     0
 95
      110
 96
      106
 40
0.0
 40
0.0
 40
0.0
 40
0.0
 40
1.0
 40
1.0
 40
1.0
 40
2.0
 40
2.0
 40
2.0
 40
3.0
 40
3.0
 40
3.0
 40
4.0
 40
4.0
 40
4.0
 40
5.0
 40
5.0
 40
5.0
 40
6.0
 40
6.0
 40
6.0
 40
7.0
 40
7.0
 40
7.0
 40
8.0
 40
8.0
 40
8.0
 40
9.0
 40
9.0
 40
9.0
 40
10.0
 40
10.0
 40
10.0
 40
11.0
 40
11.0
 40
11.0
 40
12.0
 40
12.0
 40
12.0
 40
13.0
 40
13.0
 40
13.0
 40
14.0
 40
14.0
 40
14.0
 40
15.0
 40
15.0
 40
15.0
 40
16.0
 40
16.0
 40
16.0
 40
17.0
 40
17.0
 40
17.0
 40
18.0
 40
18.0
 40
18.0
 40
19.0
 40
19.0
 40
19.0
 40
20.0
 40
20.0
 40
20.0
 40
21.0
 40
21.0
 40
21.0
 40
22.0
 40
22.0
 40
22.0
 40
23.0
 40
23.0
 40
23.0
 40
24.0
 40
24.0
 40
24.0
 40
25.0
 40
25.0
 40
25.0
 40
26.0
 40
26.0
 40
26.0
 40
27.0
 40
27.0
 40
27.0
 40
28.0
 40
28.0
 40
28.0
 40
29.0
 40
29.0
 40
29.0
 40
30.0
 40
30.0
 40
30.0
 40
31.0
 40
31.0
 40
31.0
 40
32.0
 40
32.0
 40
32.0
 40
33.0
 40
33.0
 40
33.0
 40
34.0
 40
34.0
 40
34.0
 40
35.0
 40
35.0
 40
35.0
 40
35.0
 10
1135.194452540529
 20
-1948.487939429361
 10
1136.78667794826
 20
-1948.056452859592
 10
1138.466601025013
 20
-1947.926047978508
 10
1140.102449887982
 20
-1948.174227845482
 10
1139.94029441794
 20
-1947.560032248207
 10
1139.778138947902
 20
-1946.945836650928
 10
1139.61598347786
 20
-1946.331641053653
 10
1138.576044685846
 20
-1947.270545839897
 10
1137.366012741395
 20
-1948.050221222387
 10
1136.064993647527
 20
-1948.57712275802
 10
1135.4644759596
 20
-1948.820327253205
 10
1134.955507996835
 20
-1949.552575375969
 10
1135.406146891936
 20
-1950.196591239098
 10
1135.973975995493
 20
-1951.008085662262
 10
1136.777113171086
 20
-1951.482896621756
 10
1137.744540423022
 20
-1951.674808940918
 10
1138.196030548749
 20
-1951.76437279901
 10
1138.656757972586
 20
-1951.811160617793
 10
1139.114187014714
 20
-1951.859556086645
 10
1139.225013924721
 20
-1951.871281446813
 10
1139.335890668388
 20
-1951.882567324364
 10
1139.446651533833
 20
-1951.894911264754
 10
1139.486835926954
 20
-1951.899389685463
 10
1139.800590694067
 20
-1951.937979354256
 10
1139.59580695982
 20
-1951.91005973602
 10
1139.79541039082
 20
-1951.937273086791
 10
1139.994697091658
 20
-1951.971879088599
 10
1140.190957871524
 20
-1952.01735062547
 10
1140.382174383213
 20
-1952.061653459008
 10
1140.574052984276
 20
-1952.113457188982
 10
1140.756536734646
 20
-1952.186627390936
 10
1140.562850772838
 20
-1952.108965457132
 10
1140.869006428602
 20
-1952.251036604462
 10
1140.876269675402
 20
-1952.253993295606
 10
1141.021165728128
 20
-1952.312976955025
 10
1140.908225229624
 20
-1952.326215073117
 10
1140.921383864672
 20
-1952.25730293534
 10
1140.906284645735
 20
-1952.336377964922
 10
1140.80065836939
 20
-1951.664567854747
 10
1140.917996878128
 20
-1951.743365356648
 10
1140.914799044499
 20
-1951.741217883461
 10
1140.793766109018
 20
-1951.85026948523
 10
1140.741038687682
 20
-1951.892287919928
 10
1140.525987210641
 20
-1952.063662248809
 10
1140.29798266305
 20
-1952.222845591111
 10
1140.077209871377
 20
-1952.387607872743
 10
1139.066326800178
 20
-1953.142027835518
 10
1138.04787909789
 20
-1953.886223038282
 10
1137.022985763145
 20
-1954.621488957871
 10
1136.53989093361
 20
-1954.968064696086
 10
1136.306991523755
 20
-1955.58188059496
 10
1136.627487106919
 20
-1956.129823235434
 10
1136.906668055186
 20
-1956.607131360728
 10
1137.649477933099
 20
-1956.874228214781
 10
1138.135821384483
 20
-1956.52532189166
 10
1139.294397395432
 20
-1955.694151049559
 10
1140.444649748644
 20
-1954.851445749327
 10
1141.58524350248
 20
-1953.995755042591
 10
1142.159241737673
 20
-1953.565132874198
 10
1142.830514924996
 20
-1953.143780369746
 10
1143.011443398942
 20
-1952.395734147486
 10
1143.204126256972
 20
-1951.599089590101
 10
1142.780290322857
 20
-1950.880308916017
 10
1142.134495221069
 20
-1950.442951009623
 10
1141.258098244209
 20
-1949.849420420892
 10
1140.134319507394
 20
-1949.762623892372
 10
1139.114187014714
 20
-1949.654694976085
 10
1139.004108047793
 20
-1949.643048740236
 10
1138.893991453083
 20
-1949.631678862752
 10
1138.784018537858
 20
-1949.61905429993
 10
1138.741368154857
 20
-1949.614158163112
 10
1138.450054244155
 20
-1949.572198734514
 10
1138.645067744153
 20
-1949.602636948483
 10
1138.404001331059
 20
-1949.565010676139
 10
1138.163782509773
 20
-1949.521102582277
 10
1137.929428381689
 20
-1949.452077791374
 10
1137.833736800773
 20
-1949.423893558319
 10
1137.737398431639
 20
-1949.393883186268
 10
1137.645413466431
 20
-1949.355188256608
 10
1137.860780010025
 20
-1949.44578559756
 10
1137.579591001244
 20
-1949.308925883929
 10
1137.557735682837
 20
-1949.295964726741
 10
1137.494649386655
 20
-1949.258551801164
 10
1137.334247096647
 20
-1949.115750842898
 10
1137.467264031974
 20
-1949.241087754368
 10
1137.43188198428
 20
-1949.207748566628
 10
1137.196516363578
 20
-1948.92160301552
 10
1137.309979825725
 20
-1949.083755617756
 10
1137.09036424053
 20
-1949.62357844478
 10
1136.870748655333
 20
-1950.163401271807
 10
1136.651133070134
 20
-1950.703224098831
 10
1138.324188562481
 20
-1950.025651023788
 10
1139.833041439306
 20
-1949.102345790354
 10
1141.17505572071
 20
-1947.890713296505
 10
1141.746435805862
 20
-1947.374844958065
 10
1141.507844851759
 20
-1946.172418385071
 10
1140.688589310589
 20
-1946.048126504672
 10
1138.647941808907
 20
-1945.738533340553
 10
1136.605606411266
 20
-1945.820579779405
 10
1134.608313117921
 20
-1946.361838088551
 10
1133.240324069544
 20
-1946.73255752256
 10
1133.82089970374
 20
-1948.86016662726
 10
1135.194452540529
 20
-1948.487939429361
 10
1135.194452540529
 20
-1948.487939429361
 10
1135.194452540529
 20
-1948.487939429361
 10
1135.194452540529
 20
-1948.487939429361
 97
        0
 97
        1
330
8D
 75
     2
 76
     1
 98
        1
 10
0.0
 20
0.0
450
        0
451
        0
460
0.0
461
0.0
452
        0
462
0.0
453
        0
470

  0
SPLINE
  5
8F
330
70
100
AcDbEntity
  8
2023-015
100
AcDbSpline
210
0.0
220
0.0
230
1.0
 70
     9
 71
     3
 72
    86
 73
    82
 74
     0
 42
0.0000000001
 43
0.0000000001
 40
0.0
 40
0.0
 40
0.0
 40
0.0
 40
1.0
 40
1.0
 40
1.0
 40
2.0
 40
2.0
 40
2.0
 40
3.0
 40
3.0
 40
3.0
 40
4.0
 40
4.0
 40
4.0
 40
5.0
 40
5.0
 40
5.0
 40
6.0
 40
6.0
 40
6.0
 40
7.0
 40
7.0
 40
7.0
 40
8.0
 40
8.0
 40
8.0
 40
9.0
 40
9.0
 40
9.0
 40
10.0
 40
10.0
 40
10.0
 40
11.0
 40
11.0
 40
11.0
 40
12.0
 40
12.0
 40
12.0
 40
13.0
 40
13.0
 40
13.0
 40
14.0
 40
14.0
 40
14.0
 40
15.0
 40
15.0
 40
15.0
 40
16.0
 40
16.0
 40
16.0
 40
17.0
 40
17.0
 40
17.0
 40
18.0
 40
18.0
 40
18.0
 40
19.0
 40
19.0
 40
19.0
 40
20.0
 40
20.0
 40
20.0
 40
21.0
 40
21.0
 40
21.0
 40
22.0
 40
22.0
 40
22.0
 40
23.0
 40
23.0
 40
23.0
 40
24.0
 40
24.0
 40
24.0
 40
25.0
 40
25.0
 40
25.0
 40
26.0
 40
26.0
 40
26.0
 40
27.0
 40
27.0
 40
27.0
 40
27.0
 10
320.09635306939
 20
-1435.783851095047
 30
0.0
 10
319.0201052397979
 20
-1424.709419402937
 30
0.0
 10
318.1833130782775
 20
-1413.60966625901
 30
0.0
 10
316.9737615852531
 20
-1402.550392987036
 30
0.0
 10
314.8780884697288
 20
-1383.388858025465
 30
0.0
 10
312.4305634459267
 20
-1364.265219114229
 30
0.0
 10
310.4132877845386
 20
-1345.095846560427
 30
0.0
 10
309.0675688924597
 20
-1332.30765211918
 30
0.0
 10
308.5399525188937
 20
-1319.429712940542
 30
0.0
 10
307.0630400843671
 20
-1306.659432995818
 30
0.0
 10
304.6273145126018
 20
-1285.597238855035
 30
0.0
 10
301.4698629685236
 20
-1264.617727005894
 30
0.0
 10
299.0975486855338
 20
-1243.549245565849
 30
0.0
 10
297.471054511407
 20
-1229.105252107005
 30
0.0
 10
296.8242378340514
 20
-1214.553771669018
 30
0.0
 10
295.4453598979269
 20
-1200.078341713869
 30
0.0
 10
293.4717508218144
 20
-1179.359020701254
 30
0.0
 10
290.7233182392224
 20
-1158.700850133502
 30
0.0
 10
289.2675931419301
 20
-1137.948972968551
 30
0.0
 10
288.1666482840781
 20
-1122.252859555593
 30
0.0
 10
286.2990620215242
 20
-1106.361495356007
 30
0.0
 10
278.2706545663915
 20
-1093.170483125145
 30
0.0
 10
264.9891224516564
 20
-1071.348645429864
 30
0.0
 10
244.3762764213821
 20
-1059.047156853294
 30
0.0
 10
218.4135846757568
 20
-1058.666387674788
 30
0.0
 10
196.1948073850333
 20
-1058.340567769269
 30
0.0
 10
173.938866126763
 20
-1059.41113119131
 30
0.0
 10
151.7215745334672
 20
-1060.376102436729
 30
0.0
 10
113.8706549465757
 20
-1062.020274257064
 30
0.0
 10
76.04092269691858
 20
-1064.147448464432
 30
0.0
 10
38.19493390294042
 20
-1065.913576664945
 30
0.0
 10
35.45892519594213
 20
-1066.041303580063
 30
0.0
 10
32.7225935112421
 20
-1066.161795794657
 30
0.0
 10
29.98611110361459
 20
-1066.279187423319
 30
0.0
 10
29.98611110361459
 20
-1066.279187423319
 30
0.0
 10
29.98611110361459
 20
-1194.210655083392
 30
0.0
 10
29.98611110361459
 20
-1194.210655083392
 30
0.0
 10
31.42146707385036
 20
-1194.206176459261
 30
0.0
 10
32.85600483390839
 20
-1194.183438829058
 30
0.0
 10
34.28866932329633
 20
-1194.119360053033
 30
0.0
 10
52.52756465022532
 20
-1193.304767225545
 30
0.0
 10
70.75252887228583
 20
-1192.111041639906
 30
0.0
 10
88.99762537108859
 20
-1191.521069038057
 30
0.0
 10
102.1407507747038
 20
-1191.095944255177
 30
0.0
 10
115.3079703148687
 20
-1191.473009956038
 30
0.0
 10
128.4634119348438
 20
-1191.362594645736
 30
0.0
 10
144.0332195345754
 20
-1191.231939399459
 30
0.0
 10
162.7128071696082
 20
-1205.506003523495
 30
0.0
 10
165.1178283278611
 20
-1220.939686787866
 30
0.0
 10
167.4464975574225
 20
-1235.883908111168
 30
0.0
 10
168.1780205200215
 20
-1251.07531503554
 30
0.0
 10
169.6698975880621
 20
-1266.152344789799
 30
0.0
 10
172.5358940540882
 20
-1295.116812827262
 30
0.0
 10
175.3822104121548
 20
-1324.083347922017
 30
0.0
 10
178.3561460261032
 20
-1353.036705526543
 30
0.0
 10
180.263996842141
 20
-1371.609990434007
 30
0.0
 10
182.4299068418708
 20
-1390.156489724075
 30
0.0
 10
184.398886570925
 20
-1408.723659587055
 30
0.0
 10
186.5357716411916
 20
-1428.87436758983
 30
0.0
 10
188.5535640669024
 20
-1449.037650191126
 30
0.0
 10
190.6702307330399
 20
-1469.190597505966
 30
0.0
 10
192.3991519023125
 20
-1485.652297263135
 30
0.0
 10
194.2716258940862
 20
-1502.099010854944
 30
0.0
 10
195.936683605801
 20
-1518.566739529213
 30
0.0
 10
196.9617071718967
 20
-1528.704966523205
 30
0.0
 10
197.4016243335164
 20
-1538.910028369613
 30
0.0
 10
198.6713573382987
 20
-1549.013459899205
 30
0.0
 10
200.3189311904259
 20
-1562.124115277872
 30
0.0
 10
203.2602460564983
 20
-1574.727480346336
 30
0.0
 10
213.7338746278274
 20
-1584.276940521899
 30
0.0
 10
223.4664200965857
 20
-1593.150645218032
 30
0.0
 10
234.4260655134963
 20
-1599.463093675655
 30
0.0
 10
247.3660594745626
 20
-1601.922030578252
 30
0.0
 10
264.0659229889966
 20
-1605.09548028449
 30
0.0
 10
280.3466045102628
 20
-1603.550354959355
 30
0.0
 10
295.3282266514284
 20
-1595.175500089487
 30
0.0
 10
322.2612080086274
 20
-1580.119571545074
 30
0.0
 10
332.1174324053061
 20
-1556.478981815741
 30
0.0
 10
329.0067265005934
 20
-1526.447912216044
 30
0.0
 10
325.8780199719702
 20
-1496.242865294342
 30
0.0
 10
323.0337060756543
 20
-1466.008535061015
 30
0.0
 10
320.09635306939
 20
-1435.783851095047
 30
0.0
  0
HATCH
  5
90
330
70
100
AcDbEntity
  8
2023-015
 62
    18
420
        0
440
 33554687
100
AcDbHatch
 10
0.0
 20
0.0
 30
0.0
210
0.0
220
0.0
230
1.0
  2
SOLID
 70
     1
 71
     1
 91
        1
 92
        1
 93
        1
 72
     4
 94
        3
 73
     0
 74
     0
 95
       86
 96
       82
 40
0.0
 40
0.0
 40
0.0
 40
0.0
 40
1.0
 40
1.0
 40
1.0
 40
2.0
 40
2.0
 40
2.0
 40
3.0
 40
3.0
 40
3.0
 40
4.0
 40
4.0
 40
4.0
 40
5.0
 40
5.0
 40
5.0
 40
6.0
 40
6.0
 40
6.0
 40
7.0
 40
7.0
 40
7.0
 40
8.0
 40
8.0
 40
8.0
 40
9.0
 40
9.0
 40
9.0
 40
10.0
 40
10.0
 40
10.0
 40
11.0
 40
11.0
 40
11.0
 40
12.0
 40
12.0
 40
12.0
 40
13.0
 40
13.0
 40
13.0
 40
14.0
 40
14.0
 40
14.0
 40
15.0
 40
15.0
 40
15.0
 40
16.0
 40
16.0
 40
16.0
 40
17.0
 40
17.0
 40
17.0
 40
18.0
 40
18.0
 40
18.0
 40
19.0
 40
19.0
 40
19.0
 40
20.0
 40
20.0
 40
20.0
 40
21.0
 40
21.0
 40
21.0
 40
22.0
 40
22.0
 40
22.0
 40
23.0
 40
23.0
 40
23.0
 40
24.0
 40
24.0
 40
24.0
 40
25.0
 40
25.0
 40
25.0
 40
26.0
 40
26.0
 40
26.0
 40
27.0
 40
27.0
 40
27.0
 40
27.0
 10
320.09635306939
 20
-1435.783851095047
 10
319.0201052397979
 20
-1424.709419402937
 10
318.1833130782775
 20
-1413.60966625901
 10
316.9737615852531
 20
-1402.550392987036
 10
314.8780884697288
 20
-1383.388858025465
 10
312.4305634459267
 20
-1364.265219114229
 10
310.4132877845386
 20
-1345.095846560427
 10
309.0675688924597
 20
-1332.30765211918
 10
308.5399525188937
 20
-1319.429712940542
 10
307.0630400843671
 20
-1306.659432995818
 10
304.6273145126018
 20
-1285.597238855035
 10
301.4698629685236
 20
-1264.617727005894
 10
299.0975486855338
 20
-1243.549245565849
 10
297.471054511407
 20
-1229.105252107005
 10
296.8242378340514
 20
-1214.553771669018
 10
295.4453598979269
 20
-1200.078341713869
 10
293.4717508218144
 20
-1179.359020701254
 10
290.7233182392224
 20
-1158.700850133502
 10
289.2675931419301
 20
-1137.948972968551
 10
288.1666482840781
 20
-1122.252859555593
 10
286.2990620215242
 20
-1106.361495356007
 10
278.2706545663915
 20
-1093.170483125145
 10
264.9891224516564
 20
-1071.348645429864
 10
244.3762764213821
 20
-1059.047156853294
 10
218.4135846757568
 20
-1058.666387674788
 10
196.1948073850333
 20
-1058.340567769269
 10
173.938866126763
 20
-1059.41113119131
 10
151.7215745334672
 20
-1060.376102436729
 10
113.8706549465757
 20
-1062.020274257064
 10
76.04092269691858
 20
-1064.147448464432
 10
38.19493390294042
 20
-1065.913576664945
 10
35.45892519594213
 20
-1066.041303580063
 10
32.7225935112421
 20
-1066.161795794657
 10
29.98611110361459
 20
-1066.279187423319
 10
29.98611110361459
 20
-1066.279187423319
 10
29.98611110361459
 20
-1194.210655083392
 10
29.98611110361459
 20
-1194.210655083392
 10
31.42146707385036
 20
-1194.206176459261
 10
32.85600483390839
 20
-1194.183438829058
 10
34.28866932329633
 20
-1194.119360053033
 10
52.52756465022532
 20
-1193.304767225545
 10
70.75252887228583
 20
-1192.111041639906
 10
88.99762537108859
 20
-1191.521069038057
 10
102.1407507747038
 20
-1191.095944255177
 10
115.3079703148687
 20
-1191.473009956038
 10
128.4634119348438
 20
-1191.362594645736
 10
144.0332195345754
 20
-1191.231939399459
 10
162.7128071696082
 20
-1205.506003523495
 10
165.1178283278611
 20
-1220.939686787866
 10
167.4464975574225
 20
-1235.883908111168
 10
168.1780205200215
 20
-1251.07531503554
 10
169.6698975880621
 20
-1266.152344789799
 10
172.5358940540882
 20
-1295.116812827262
 10
175.3822104121548
 20
-1324.083347922017
 10
178.3561460261032
 20
-1353.036705526543
 10
180.263996842141
 20
-1371.609990434007
 10
182.4299068418708
 20
-1390.156489724075
 10
184.398886570925
 20
-1408.723659587055
 10
186.5357716411916
 20
-1428.87436758983
 10
188.5535640669024
 20
-1449.037650191126
 10
190.6702307330399
 20
-1469.190597505966
 10
192.3991519023125
 20
-1485.652297263135
 10
194.2716258940862
 20
-1502.099010854944
 10
195.936683605801
 20
-1518.566739529213
 10
196.9617071718967
 20
-1528.704966523205
 10
197.4016243335164
 20
-1538.910028369613
 10
198.6713573382987
 20
-1549.013459899205
 10
200.3189311904259
 20
-1562.124115277872
 10
203.2602460564983
 20
-1574.727480346336
 10
213.7338746278274
 20
-1584.276940521899
 10
223.4664200965857
 20
-1593.150645218032
 10
234.4260655134963
 20
-1599.463093675655
 10
247.3660594745626
 20
-1601.922030578252
 10
264.0659229889966
 20
-1605.09548028449
 10
280.3466045102628
 20
-1603.550354959355
 10
295.3282266514284
 20
-1595.175500089487
 10
322.2612080086274
 20
-1580.119571545074
 10
332.1174324053061
 20
-1556.478981815741
 10
329.0067265005934
 20
-1526.447912216044
 10
325.8780199719702
 20
-1496.242865294342
 10
323.0337060756543
 20
-1466.008535061015
 10
320.09635306939
 20
-1435.783851095047
 97
        0
 97
        1
330
8F
 75
     2
 76
     1
 98
        1
 10
0.0
 20
0.0
450
        0
451
        0
460
0.0
461
0.0
452
        0
462
0.0
453
        0
470

  0
SPLINE
  5
91
330
70
100
AcDbEntity
  8
2023-015
100
AcDbSpline
210
0.0
220
0.0
230
1.0
 70
     9
 71
     3
 72
    98
 73
    94
 74
     0
 42
0.0000000001
 43
0.0000000001
 40
0.0
 40
0.0
 40
0.0
 40
0.0
 40
1.0
 40
1.0
 40
1.0
 40
2.0
 40
2.0
 40
2.0
 40
3.0
 40
3.0
 40
3.0
 40
4.0
 40
4.0
 40
4.0
 40
5.0
 40
5.0
 40
5.0
 40
6.0
 40
6.0
 40
6.0
 40
7.0
 40
7.0
 40
7.0
 40
8.0
 40
8.0
 40
8.0
 40
9.0
 40
9.0
 40
9.0
 40
10.0
 40
10.0
 40
10.0
 40
11.0
 40
11.0
 40
11.0
 40
12.0
 40
12.0
 40
12.0
 40
13.0
 40
13.0
 40
13.0
 40
14.0
 40
14.0
 40
14.0
 40
15.0
 40
15.0
 40
15.0
 40
16.0
 40
16.0
 40
16.0
 40
17.0
 40
17.0
 40
17.0
 40
18.0
 40
18.0
 40
18.0
 40
19.0
 40
19.0
 40
19.0
 40
20.0
 40
20.0
 40
20.0
 40
21.0
 40
21.0
 40
21.0
 40
22.0
 40
22.0
 40
22.0
 40
23.0
 40
23.0
 40
23.0
 40
24.0
 40
24.0
 40
24.0
 40
25.0
 40
25.0
 40
25.0
 40
26.0
 40
26.0
 40
26.0
 40
27.0
 40
27.0
 40
27.0
 40
28.0
 40
28.0
 40
28.0
 40
29.0
 40
29.0
 40
29.0
 40
30.0
 40
30.0
 40
30.0
 40
31.0
 40
31.0
 40
31.0
 40
31.0
 10
679.7345647172192
 20
-1361.994039915578
 30
0.0
 10
701.4313023826928
 20
-1361.93754034962
 30
0.0
 10
723.1371695512055
 20
-1360.457527329156
 30
0.0
 10
744.8136242170083
 20
-1359.171559311902
 30
0.0
 10
762.5531098896568
 20
-1358.119168768543
 30
0.0
 10
780.254355002419
 20
-1356.424956936286
 30
0.0
 10
797.9736007390936
 20
-1355.026592678823
 30
0.0
 10
821.4573524964587
 20
-1353.173303562533
 30
0.0
 10
844.9343863176313
 20
-1351.226652358593
 30
0.0
 10
868.4296791448717
 20
-1349.531923762009
 30
0.0
 10
878.834384274649
 20
-1348.781409710548
 30
0.0
 10
889.2930912761595
 20
-1348.77624206732
 30
0.0
 10
899.6967628772914
 20
-1348.014186945982
 30
0.0
 10
908.5231836378866
 20
-1347.367542523401
 30
0.0
 10
917.2919851764929
 20
-1345.967111208647
 30
0.0
 10
926.1116018735068
 20
-1345.180595909365
 30
0.0
 10
934.5057492780924
 20
-1344.43197666042
 30
0.0
 10
942.9704350127403
 20
-1344.384003705789
 30
0.0
 10
951.3377967999259
 20
-1343.438583377248
 30
0.0
 10
977.9834571936572
 20
-1340.428000560077
 30
0.0
 10
1004.577785664654
 20
-1336.954827546622
 30
0.0
 10
1031.234384236549
 20
-1334.048803377425
 30
0.0
 10
1043.280418982888
 20
-1332.735532978448
 30
0.0
 10
1055.256259908714
 20
-1331.239500263978
 30
0.0
 10
1066.329658072178
 20
-1326.157295404138
 30
0.0
 10
1089.413175861546
 20
-1315.563282277446
 30
0.0
 10
1100.056798363225
 20
-1295.742269912609
 30
0.0
 10
1100.991366640984
 20
-1271.88360563906
 30
0.0
 10
1101.737402068316
 20
-1252.840840344342
 30
0.0
 10
1098.272497284025
 20
-1233.621513906004
 30
0.0
 10
1096.519115936808
 20
-1214.495205045769
 30
0.0
 10
1094.475399167572
 20
-1192.203111816751
 30
0.0
 10
1092.265112031621
 20
-1169.92634926264
 30
0.0
 10
1090.116750487019
 20
-1147.643988428367
 30
0.0
 10
1089.087872720349
 20
-1136.973235799743
 30
0.0
 10
1088.109207220379
 20
-1126.296798763565
 30
0.0
 10
1086.975856933117
 20
-1115.636984313105
 30
0.0
 10
1085.224456515805
 20
-1099.162882212188
 30
0.0
 10
1083.614907905096
 20
-1082.667334391878
 30
0.0
 10
1081.456727838362
 20
-1066.2451671054
 30
0.0
 10
1079.916597901681
 20
-1054.523574226386
 30
0.0
 10
1078.716068252456
 20
-1042.565992306633
 30
0.0
 10
1075.353224421919
 20
-1031.315430107841
 30
0.0
 10
1068.277256677375
 20
-1007.642628735721
 30
0.0
 10
1040.509098047164
 20
-985.8676443390365
 30
0.0
 10
1020.342542605157
 20
-986.7451962865187
 30
0.0
 10
997.6503015355287
 20
-986.9899703207458
 30
0.0
 10
983.7153209346267
 20
-992.2480473051082
 30
0.0
 10
972.0503998763451
 20
-1002.993644633151
 30
0.0
 10
957.8244809617178
 20
-1016.098443349493
 30
0.0
 10
949.6359196302126
 20
-1032.078432630435
 30
0.0
 10
950.9294668575387
 20
-1051.861032180611
 30
0.0
 10
951.9259607266471
 20
-1067.103254263391
 30
0.0
 10
953.4913259877557
 20
-1082.308786079249
 30
0.0
 10
954.8458514051707
 20
-1097.526892493632
 30
0.0
 10
956.4450647294236
 20
-1115.494012850467
 30
0.0
 10
958.0087935701785
 20
-1133.46483668495
 30
0.0
 10
959.7471026246465
 20
-1151.41869342417
 30
0.0
 10
960.7307635130744
 20
-1161.579571920976
 30
0.0
 10
962.983253068716
 20
-1171.714956711196
 30
0.0
 10
962.9252032097896
 20
-1181.851891794381
 30
0.0
 10
962.8674117330264
 20
-1191.947227349582
 30
0.0
 10
960.0781763007791
 20
-1200.773561982792
 30
0.0
 10
949.4373098754879
 20
-1206.72410315969
 30
0.0
 10
940.8019196595498
 20
-1211.553093501365
 30
0.0
 10
931.9610294979126
 20
-1211.222967226493
 30
0.0
 10
923.2228893091248
 20
-1212.548467714443
 30
0.0
 10
912.8662432613667
 20
-1214.119431255717
 30
0.0
 10
902.1747339324424
 20
-1213.33868649137
 30
0.0
 10
891.7284292746828
 20
-1214.488573236961
 30
0.0
 10
874.8468585052467
 20
-1216.346771614316
 30
0.0
 10
858.0978377846076
 20
-1219.4777605187
 30
0.0
 10
841.1992999199085
 20
-1221.090323587956
 30
0.0
 10
823.9733918567255
 20
-1222.734150898743
 30
0.0
 10
806.6332788782029
 20
-1223.170816751499
 30
0.0
 10
789.3459619879934
 20
-1224.181263257323
 30
0.0
 10
780.0821002281566
 20
-1224.72266001283
 30
0.0
 10
770.8116927868977
 20
-1225.21083004309
 30
0.0
 10
761.5656593961991
 20
-1225.98149790314
 30
0.0
 10
735.9860838003785
 20
-1228.113839753735
 30
0.0
 10
710.4481507962372
 20
-1230.880079173617
 30
0.0
 10
684.8355022837615
 20
-1232.436573313853
 30
0.0
 10
664.8651880933323
 20
-1233.650108198532
 30
0.0
 10
647.0851364213469
 20
-1237.768289214214
 30
0.0
 10
632.9533547408522
 20
-1253.868340072818
 30
0.0
 10
623.3295666301919
 20
-1264.832528709399
 30
0.0
 10
619.0219053628245
 20
-1277.506345980536
 30
0.0
 10
616.9025687476841
 20
-1290.865564998464
 30
0.0
 10
614.5624015119429
 20
-1305.617808375852
 30
0.0
 10
619.6556737410286
 20
-1319.151176970559
 30
0.0
 10
627.2690333175751
 20
-1332.184834465131
 30
0.0
 10
639.2024134415468
 20
-1352.613733928339
 30
0.0
 10
657.0147628837084
 20
-1362.053209430539
 30
0.0
 10
679.7345647172192
 20
-1361.994039915578
 30
0.0
  0
HATCH
  5
92
330
70
100
AcDbEntity
  8
2023-015
 62
    18
420
        0
440
 33554687
100
AcDbHatch
 10
0.0
 20
0.0
 30
0.0
210
0.0
220
0.0
230
1.0
  2
SOLID
 70
     1
 71
     1
 91
        1
 92
        1
 93
        1
 72
     4
 94
        3
 73
     0
 74
     0
 95
       98
 96
       94
 40
0.0
 40
0.0
 40
0.0
 40
0.0
 40
1.0
 40
1.0
 40
1.0
 40
2.0
 40
2.0
 40
2.0
 40
3.0
 40
3.0
 40
3.0
 40
4.0
 40
4.0
 40
4.0
 40
5.0
 40
5.0
 40
5.0
 40
6.0
 40
6.0
 40
6.0
 40
7.0
 40
7.0
 40
7.0
 40
8.0
 40
8.0
 40
8.0
 40
9.0
 40
9.0
 40
9.0
 40
10.0
 40
10.0
 40
10.0
 40
11.0
 40
11.0
 40
11.0
 40
12.0
 40
12.0
 40
12.0
 40
13.0
 40
13.0
 40
13.0
 40
14.0
 40
14.0
 40
14.0
 40
15.0
 40
15.0
 40
15.0
 40
16.0
 40
16.0
 40
16.0
 40
17.0
 40
17.0
 40
17.0
 40
18.0
 40
18.0
 40
18.0
 40
19.0
 40
19.0
 40
19.0
 40
20.0
 40
20.0
 40
20.0
 40
21.0
 40
21.0
 40
21.0
 40
22.0
 40
22.0
 40
22.0
 40
23.0
 40
23.0
 40
23.0
 40
24.0
 40
24.0
 40
24.0
 40
25.0
 40
25.0
 40
25.0
 40
26.0
 40
26.0
 40
26.0
 40
27.0
 40
27.0
 40
27.0
 40
28.0
 40
28.0
 40
28.0
 40
29.0
 40
29.0
 40
29.0
 40
30.0
 40
30.0
 40
30.0
 40
31.0
 40
31.0
 40
31.0
 40
31.0
 10
679.7345647172192
 20
-1361.994039915578
 10
701.4313023826928
 20
-1361.93754034962
 10
723.1371695512055
 20
-1360.457527329156
 10
744.8136242170083
 20
-1359.171559311902
 10
762.5531098896568
 20
-1358.119168768543
 10
780.254355002419
 20
-1356.424956936286
 10
797.9736007390936
 20
-1355.026592678823
 10
821.4573524964587
 20
-1353.173303562533
 10
844.9343863176313
 20
-1351.226652358593
 10
868.4296791448717
 20
-1349.531923762009
 10
878.834384274649
 20
-1348.781409710548
 10
889.2930912761595
 20
-1348.77624206732
 10
899.6967628772914
 20
-1348.014186945982
 10
908.5231836378866
 20
-1347.367542523401
 10
917.2919851764929
 20
-1345.967111208647
 10
926.1116018735068
 20
-1345.180595909365
 10
934.5057492780924
 20
-1344.43197666042
 10
942.9704350127403
 20
-1344.384003705789
 10
951.3377967999259
 20
-1343.438583377248
 10
977.9834571936572
 20
-1340.428000560077
 10
1004.577785664654
 20
-1336.954827546622
 10
1031.234384236549
 20
-1334.048803377425
 10
1043.280418982888
 20
-1332.735532978448
 10
1055.256259908714
 20
-1331.239500263978
 10
1066.329658072178
 20
-1326.157295404138
 10
1089.413175861546
 20
-1315.563282277446
 10
1100.056798363225
 20
-1295.742269912609
 10
1100.991366640984
 20
-1271.88360563906
 10
1101.737402068316
 20
-1252.840840344342
 10
1098.272497284025
 20
-1233.621513906004
 10
1096.519115936808
 20
-1214.495205045769
 10
1094.475399167572
 20
-1192.203111816751
 10
1092.265112031621
 20
-1169.92634926264
 10
1090.116750487019
 20
-1147.643988428367
 10
1089.087872720349
 20
-1136.973235799743
 10
1088.109207220379
 20
-1126.296798763565
 10
1086.975856933117
 20
-1115.636984313105
 10
1085.224456515805
 20
-1099.162882212188
 10
1083.614907905096
 20
-1082.667334391878
 10
1081.456727838362
 20
-1066.2451671054
 10
1079.916597901681
 20
-1054.523574226386
 10
1078.716068252456
 20
-1042.565992306633
 10
1075.353224421919
 20
-1031.315430107841
 10
1068.277256677375
 20
-1007.642628735721
 10
1040.509098047164
 20
-985.8676443390365
 10
1020.342542605157
 20
-986.7451962865187
 10
997.6503015355287
 20
-986.9899703207458
 10
983.7153209346267
 20
-992.2480473051082
 10
972.0503998763451
 20
-1002.993644633151
 10
957.8244809617178
 20
-1016.098443349493
 10
949.6359196302126
 20
-1032.078432630435
 10
950.9294668575387
 20
-1051.861032180611
 10
951.9259607266471
 20
-1067.103254263391
 10
953.4913259877557
 20
-1082.308786079249
 10
954.8458514051707
 20
-1097.526892493632
 10
956.4450647294236
 20
-1115.494012850467
 10
958.0087935701785
 20
-1133.46483668495
 10
959.7471026246465
 20
-1151.41869342417
 10
960.7307635130744
 20
-1161.579571920976
 10
962.983253068716
 20
-1171.714956711196
 10
962.9252032097896
 20
-1181.851891794381
 10
962.8674117330264
 20
-1191.947227349582
 10
960.0781763007791
 20
-1200.773561982792
 10
949.4373098754879
 20
-1206.72410315969
 10
940.8019196595498
 20
-1211.553093501365
 10
931.9610294979126
 20
-1211.222967226493
 10
923.2228893091248
 20
-1212.548467714443
 10
912.8662432613667
 20
-1214.119431255717
 10
902.1747339324424
 20
-1213.33868649137
 10
891.7284292746828
 20
-1214.488573236961
 10
874.8468585052467
 20
-1216.346771614316
 10
858.0978377846076
 20
-1219.4777605187
 10
841.1992999199085
 20
-1221.090323587956
 10
823.9733918567255
 20
-1222.734150898743
 10
806.6332788782029
 20
-1223.170816751499
 10
789.3459619879934
 20
-1224.181263257323
 10
780.0821002281566
 20
-1224.72266001283
 10
770.8116927868977
 20
-1225.21083004309
 10
761.5656593961991
 20
-1225.98149790314
 10
735.9860838003785
 20
-1228.113839753735
 10
710.4481507962372
 20
-1230.880079173617
 10
684.8355022837615
 20
-1232.436573313853
 10
664.8651880933323
 20
-1233.650108198532
 10
647.0851364213469
 20
-1237.768289214214
 10
632.9533547408522
 20
-1253.868340072818
 10
623.3295666301919
 20
-1264.832528709399
 10
619.0219053628245
 20
-1277.506345980536
 10
616.9025687476841
 20
-1290.865564998464
 10
614.5624015119429
 20
-1305.617808375852
 10
619.6556737410286
 20
-1319.151176970559
 10
627.2690333175751
 20
-1332.184834465131
 10
639.2024134415468
 20
-1352.613733928339
 10
657.0147628837084
 20
-1362.053209430539
 10
679.7345647172192
 20
-1361.994039915578
 97
        0
 97
        1
330
91
 75
     2
 76
     1
 98
        1
 10
0.0
 20
0.0
450
        0
451
        0
460
0.0
461
0.0
452
        0
462
0.0
453
        0
470

  0
SPLINE
  5
93
330
70
100
AcDbEntity
  8
2023-015
100
AcDbSpline
210
0.0
220
0.0
230
1.0
 70
     9
 71
     3
 72
    80
 73
    76
 74
     0
 42
0.0000000001
 43
0.0000000001
 40
0.0
 40
0.0
 40
0.0
 40
0.0
 40
1.0
 40
1.0
 40
1.0
 40
2.0
 40
2.0
 40
2.0
 40
3.0
 40
3.0
 40
3.0
 40
4.0
 40
4.0
 40
4.0
 40
5.0
 40
5.0
 40
5.0
 40
6.0
 40
6.0
 40
6.0
 40
7.0
 40
7.0
 40
7.0
 40
8.0
 40
8.0
 40
8.0
 40
9.0
 40
9.0
 40
9.0
 40
10.0
 40
10.0
 40
10.0
 40
11.0
 40
11.0
 40
11.0
 40
12.0
 40
12.0
 40
12.0
 40
13.0
 40
13.0
 40
13.0
 40
14.0
 40
14.0
 40
14.0
 40
15.0
 40
15.0
 40
15.0
 40
16.0
 40
16.0
 40
16.0
 40
17.0
 40
17.0
 40
17.0
 40
18.0
 40
18.0
 40
18.0
 40
19.0
 40
19.0
 40
19.0
 40
20.0
 40
20.0
 40
20.0
 40
21.0
 40
21.0
 40
21.0
 40
22.0
 40
22.0
 40
22.0
 40
23.0
 40
23.0
 40
23.0
 40
24.0
 40
24.0
 40
24.0
 40
25.0
 40
25.0
 40
25.0
 40
25.0
 10
1128.086181358603
 20
-1466.352872354766
 30
0.0
 10
1123.552607954789
 20
-1439.97196754908
 30
0.0
 10
1101.912499046355
 20
-1421.153736352611
 30
0.0
 10
1076.533772517325
 20
-1415.913057100449
 30
0.0
 10
1057.207648118944
 20
-1411.922258490335
 30
0.0
 10
1038.557279199996
 20
-1418.823129256839
 30
0.0
 10
1019.507795969081
 20
-1419.528684812219
 30
0.0
 10
1010.266499584673
 20
-1419.870868921293
 30
0.0
 10
1001.116498230623
 20
-1422.214739634682
 30
0.0
 10
991.8700342029874
 20
-1423.004441647287
 30
0.0
 10
976.3204234755379
 20
-1424.332353702077
 30
0.0
 10
960.7076813733232
 20
-1424.916125132052
 30
0.0
 10
945.1550561873224
 20
-1426.217165442057
 30
0.0
 10
909.5075335454115
 20
-1429.199240094089
 30
0.0
 10
873.8895525972848
 20
-1432.538743402716
 30
0.0
 10
838.2403074076275
 20
-1435.500922628323
 30
0.0
 10
821.9336369472944
 20
-1436.855878682672
 30
0.0
 10
805.5578923224821
 20
-1437.384786967043
 30
0.0
 10
789.2557866136688
 20
-1438.784012498377
 30
0.0
 10
765.5326007200752
 20
-1440.820150057549
 30
0.0
 10
741.8732352203477
 20
-1443.624888419476
 30
0.0
 10
718.1393264670575
 20
-1445.504532516228
 30
0.0
 10
695.5354090329323
 20
-1447.294604130364
 30
0.0
 10
672.8297320909072
 20
-1447.856843713556
 30
0.0
 10
650.2492843697747
 20
-1449.864989871909
 30
0.0
 10
638.1175098095455
 20
-1450.943993777889
 30
0.0
 10
626.9534195074332
 20
-1455.533549983339
 30
0.0
 10
617.1726642337277
 20
-1463.430742364177
 30
0.0
 10
608.3691964218015
 20
-1470.538835624118
 30
0.0
 10
605.2073308491322
 20
-1481.049477440067
 30
0.0
 10
599.8918499612472
 20
-1490.207574768507
 30
0.0
 10
598.206638440945
 20
-1493.110928988701
 30
0.0
 10
599.4965252543148
 20
-1497.689977652921
 30
0.0
 10
599.2343104241951
 20
-1501.48905669928
 30
0.0
 10
598.995393052293
 20
-1504.952755700151
 30
0.0
 10
597.6400924883957
 20
-1508.562526749595
 30
0.0
 10
598.2621044782575
 20
-1511.82434315503
 30
0.0
 10
601.1332470556648
 20
-1526.882338756734
 30
0.0
 10
604.7083087680937
 20
-1541.567230517386
 30
0.0
 10
616.862390321588
 20
-1552.661471508536
 30
0.0
 10
626.7166983839043
 20
-1561.656443565749
 30
0.0
 10
636.4314370153713
 20
-1570.254368368287
 30
0.0
 10
649.7025477162655
 20
-1574.145086954554
 30
0.0
 10
664.9694883591502
 20
-1578.620955008991
 30
0.0
 10
680.1711013788932
 20
-1576.373030204865
 30
0.0
 10
695.4300321747759
 20
-1575.129006225141
 30
0.0
 10
698.8684527875225
 20
-1574.848575452642
 30
0.0
 10
702.2159228794584
 20
-1573.432641208204
 30
0.0
 10
705.653611409415
 20
-1573.170124932228
 30
0.0
 10
715.6334501384751
 20
-1572.407725301342
 30
0.0
 10
725.6480412682408
 20
-1572.102489841349
 30
0.0
 10
735.6301193093671
 20
-1571.362483331118
 30
0.0
 10
747.5100143259282
 20
-1570.481572415539
 30
0.0
 10
759.3550277506994
 20
-1569.086653253562
 30
0.0
 10
771.2425019773283
 20
-1568.364905749402
 30
0.0
 10
786.9393905367721
 20
-1567.411820083407
 30
0.0
 10
802.7221481011876
 20
-1567.528436565583
 30
0.0
 10
818.361589693413
 20
-1566.053935697896
 30
0.0
 10
846.0104618924489
 20
-1563.447720963305
 30
0.0
 10
873.5811304239659
 20
-1560.0036590067
 30
0.0
 10
901.1803071206252
 20
-1556.873445248802
 30
0.0
 10
908.586401140041
 20
-1556.033530969498
 30
0.0
 10
915.9544268543447
 20
-1554.641712393458
 30
0.0
 10
923.3801579180264
 20
-1554.228645444776
 30
0.0
 10
943.9693404486884
 20
-1553.082806686382
 30
0.0
 10
964.6105439211737
 20
-1552.75052722683
 30
0.0
 10
985.1747495095676
 20
-1551.299625263216
 30
0.0
 10
1013.538220639629
 20
-1549.298197041061
 30
0.0
 10
1041.831842458726
 20
-1546.314227586512
 30
0.0
 10
1070.189284671689
 20
-1544.213408359606
 30
0.0
 10
1103.339543723731
 20
-1541.75774429772
 30
0.0
 10
1129.194640830982
 20
-1518.599467936322
 30
0.0
 10
1130.339704442894
 20
-1482.922920364946
 30
0.0
 10
1129.59823376708
 20
-1477.397848480477
 30
0.0
 10
1129.029706884628
 20
-1471.84297652006
 30
0.0
 10
1128.086181358603
 20
-1466.352872354766
 30
0.0
  0
HATCH
  5
94
330
70
100
AcDbEntity
  8
2023-015
 62
    18
420
        0
440
 33554687
100
AcDbHatch
 10
0.0
 20
0.0
 30
0.0
210
0.0
220
0.0
230
1.0
  2
SOLID
 70
     1
 71
     1
 91
        1
 92
        1
 93
        1
 72
     4
 94
        3
 73
     0
 74
     0
 95
       80
 96
       76
 40
0.0
 40
0.0
 40
0.0
 40
0.0
 40
1.0
 40
1.0
 40
1.0
 40
2.0
 40
2.0
 40
2.0
 40
3.0
 40
3.0
 40
3.0
 40
4.0
 40
4.0
 40
4.0
 40
5.0
 40
5.0
 40
5.0
 40
6.0
 40
6.0
 40
6.0
 40
7.0
 40
7.0
 40
7.0
 40
8.0
 40
8.0
 40
8.0
 40
9.0
 40
9.0
 40
9.0
 40
10.0
 40
10.0
 40
10.0
 40
11.0
 40
11.0
 40
11.0
 40
12.0
 40
12.0
 40
12.0
 40
13.0
 40
13.0
 40
13.0
 40
14.0
 40
14.0
 40
14.0
 40
15.0
 40
15.0
 40
15.0
 40
16.0
 40
16.0
 40
16.0
 40
17.0
 40
17.0
 40
17.0
 40
18.0
 40
18.0
 40
18.0
 40
19.0
 40
19.0
 40
19.0
 40
20.0
 40
20.0
 40
20.0
 40
21.0
 40
21.0
 40
21.0
 40
22.0
 40
22.0
 40
22.0
 40
23.0
 40
23.0
 40
23.0
 40
24.0
 40
24.0
 40
24.0
 40
25.0
 40
25.0
 40
25.0
 40
25.0
 10
1128.086181358603
 20
-1466.352872354766
 10
1123.552607954789
 20
-1439.97196754908
 10
1101.912499046355
 20
-1421.153736352611
 10
1076.533772517325
 20
-1415.913057100449
 10
1057.207648118944
 20
-1411.922258490335
 10
1038.557279199996
 20
-1418.823129256839
 10
1019.507795969081
 20
-1419.528684812219
 10
1010.266499584673
 20
-1419.870868921293
 10
1001.116498230623
 20
-1422.214739634682
 10
991.8700342029874
 20
-1423.004441647287
 10
976.3204234755379
 20
-1424.332353702077
 10
960.7076813733232
 20
-1424.916125132052
 10
945.1550561873224
 20
-1426.217165442057
 10
909.5075335454115
 20
-1429.199240094089
 10
873.8895525972848
 20
-1432.538743402716
 10
838.2403074076275
 20
-1435.500922628323
 10
821.9336369472944
 20
-1436.855878682672
 10
805.5578923224821
 20
-1437.384786967043
 10
789.2557866136688
 20
-1438.784012498377
 10
765.5326007200752
 20
-1440.820150057549
 10
741.8732352203477
 20
-1443.624888419476
 10
718.1393264670575
 20
-1445.504532516228
 10
695.5354090329323
 20
-1447.294604130364
 10
672.8297320909072
 20
-1447.856843713556
 10
650.2492843697747
 20
-1449.864989871909
 10
638.1175098095455
 20
-1450.943993777889
 10
626.9534195074332
 20
-1455.533549983339
 10
617.1726642337277
 20
-1463.430742364177
 10
608.3691964218015
 20
-1470.538835624118
 10
605.2073308491322
 20
-1481.049477440067
 10
599.8918499612472
 20
-1490.207574768507
 10
598.206638440945
 20
-1493.110928988701
 10
599.4965252543148
 20
-1497.689977652921
 10
599.2343104241951
 20
-1501.48905669928
 10
598.995393052293
 20
-1504.952755700151
 10
597.6400924883957
 20
-1508.562526749595
 10
598.2621044782575
 20
-1511.82434315503
 10
601.1332470556648
 20
-1526.882338756734
 10
604.7083087680937
 20
-1541.567230517386
 10
616.862390321588
 20
-1552.661471508536
 10
626.7166983839043
 20
-1561.656443565749
 10
636.4314370153713
 20
-1570.254368368287
 10
649.7025477162655
 20
-1574.145086954554
 10
664.9694883591502
 20
-1578.620955008991
 10
680.1711013788932
 20
-1576.373030204865
 10
695.4300321747759
 20
-1575.129006225141
 10
698.8684527875225
 20
-1574.848575452642
 10
702.2159228794584
 20
-1573.432641208204
 10
705.653611409415
 20
-1573.170124932228
 10
715.6334501384751
 20
-1572.407725301342
 10
725.6480412682408
 20
-1572.102489841349
 10
735.6301193093671
 20
-1571.362483331118
 10
747.5100143259282
 20
-1570.481572415539
 10
759.3550277506994
 20
-1569.086653253562
 10
771.2425019773283
 20
-1568.364905749402
 10
786.9393905367721
 20
-1567.411820083407
 10
802.7221481011876
 20
-1567.528436565583
 10
818.361589693413
 20
-1566.053935697896
 10
846.0104618924489
 20
-1563.447720963305
 10
873.5811304239659
 20
-1560.0036590067
 10
901.1803071206252
 20
-1556.873445248802
 10
908.586401140041
 20
-1556.033530969498
 10
915.9544268543447
 20
-1554.641712393458
 10
923.3801579180264
 20
-1554.228645444776
 10
943.9693404486884
 20
-1553.082806686382
 10
964.6105439211737
 20
-1552.75052722683
 10
985.1747495095676
 20
-1551.299625263216
 10
1013.538220639629
 20
-1549.298197041061
 10
1041.831842458726
 20
-1546.314227586512
 10
1070.189284671689
 20
-1544.213408359606
 10
1103.339543723731
 20
-1541.75774429772
 10
1129.194640830982
 20
-1518.599467936322
 10
1130.339704442894
 20
-1482.922920364946
 10
1129.59823376708
 20
-1477.397848480477
 10
1129.029706884628
 20
-1471.84297652006
 10
1128.086181358603
 20
-1466.352872354766
 97
        0
 97
        1
330
93
 75
     2
 76
     1
 98
        1
 10
0.0
 20
0.0
450
        0
451
        0
460
0.0
461
0.0
452
        0
462
0.0
453
        0
470

  0
SPLINE
  5
95
330
70
100
AcDbEntity
  8
2023-015
100
AcDbSpline
210
0.0
220
0.0
230
1.0
 70
     9
 71
     3
 72
    80
 73
    76
 74
     0
 42
0.0000000001
 43
0.0000000001
 40
0.0
 40
0.0
 40
0.0
 40
0.0
 40
1.0
 40
1.0
 40
1.0
 40
2.0
 40
2.0
 40
2.0
 40
3.0
 40
3.0
 40
3.0
 40
4.0
 40
4.0
 40
4.0
 40
5.0
 40
5.0
 40
5.0
 40
6.0
 40
6.0
 40
6.0
 40
7.0
 40
7.0
 40
7.0
 40
8.0
 40
8.0
 40
8.0
 40
9.0
 40
9.0
 40
9.0
 40
10.0
 40
10.0
 40
10.0
 40
11.0
 40
11.0
 40
11.0
 40
12.0
 40
12.0
 40
12.0
 40
13.0
 40
13.0
 40
13.0
 40
14.0
 40
14.0
 40
14.0
 40
15.0
 40
15.0
 40
15.0
 40
16.0
 40
16.0
 40
16.0
 40
17.0
 40
17.0
 40
17.0
 40
18.0
 40
18.0
 40
18.0
 40
19.0
 40
19.0
 40
19.0
 40
20.0
 40
20.0
 40
20.0
 40
21.0
 40
21.0
 40
21.0
 40
22.0
 40
22.0
 40
22.0
 40
23.0
 40
23.0
 40
23.0
 40
24.0
 40
24.0
 40
24.0
 40
25.0
 40
25.0
 40
25.0
 40
25.0
 10
525.3879996787677
 20
-1464.456002780587
 30
0.0
 10
523.5354857089598
 20
-1447.595016456677
 30
0.0
 10
523.0996811300758
 20
-1430.578828581157
 30
0.0
 10
522.0121506127715
 20
-1413.632920653536
 30
0.0
 10
521.4580070039691
 20
-1404.998822348403
 30
0.0
 10
521.0344755777498
 20
-1396.351115916103
 30
0.0
 10
520.2303902914925
 20
-1387.739582986398
 30
0.0
 10
518.5234316059371
 20
-1369.456116736629
 30
0.0
 10
516.4906099511724
 20
-1351.20296732713
 30
0.0
 10
514.8206860420867
 20
-1332.916314364039
 30
0.0
 10
513.9151426937887
 20
-1322.999176372809
 30
0.0
 10
513.6406547109995
 20
-1313.025280433463
 30
0.0
 10
512.7994054571944
 20
-1303.100907741718
 30
0.0
 10
511.186024177759
 20
-1284.066755185713
 30
0.0
 10
508.7945250192876
 20
-1265.079628183081
 30
0.0
 10
507.8069022710518
 20
-1246.016881334548
 30
0.0
 10
506.8707837003241
 20
-1227.945891348829
 30
0.0
 10
507.3714852654091
 20
-1209.802554357924
 30
0.0
 10
507.1414820780757
 20
-1191.692290283674
 30
0.0
 10
506.9333983107666
 20
-1175.307416155826
 30
0.0
 10
506.681647958184
 20
-1158.922025263655
 30
0.0
 10
506.2811556080236
 20
-1142.54094074084
 30
0.0
 10
505.9437085052435
 20
-1128.741180137738
 30
0.0
 10
506.1331887569322
 20
-1114.868211255571
 30
0.0
 10
504.7241877671573
 20
-1101.168272294152
 30
0.0
 10
502.2191296487508
 20
-1076.810758194339
 30
0.0
 10
487.4221861574432
 20
-1060.260691737973
 30
0.0
 10
466.1009638998583
 20
-1051.146174867422
 30
0.0
 10
444.1557487225133
 20
-1041.764921478927
 30
0.0
 10
421.9169683461286
 20
-1045.349629458715
 30
0.0
 10
402.2487029023666
 20
-1059.070841884757
 30
0.0
 10
392.5648840028778
 20
-1065.826588003943
 30
0.0
 10
384.6137328140029
 20
-1074.358883737486
 30
0.0
 10
380.709922864892
 20
-1086.453838839716
 30
0.0
 10
376.9219542514746
 20
-1098.189987247154
 30
0.0
 10
376.35743229252
 20
-1109.6122013285
 30
0.0
 10
377.873058987563
 20
-1121.69656276211
 30
0.0
 10
379.9946349147689
 20
-1138.611895467302
 30
0.0
 10
380.9353182370164
 20
-1155.672008310259
 30
0.0
 10
382.6419324130201
 20
-1172.644012836179
 30
0.0
 10
384.6262212851388
 20
-1192.376486247044
 30
0.0
 10
387.0533771818825
 20
-1212.064604053539
 30
0.0
 10
388.9939994687237
 20
-1231.801039324213
 30
0.0
 10
391.2947203611627
 20
-1255.200730751738
 30
0.0
 10
393.0791506314404
 20
-1278.652012484156
 30
0.0
 10
395.472716847203
 20
-1302.041454752615
 30
0.0
 10
397.1962119910882
 20
-1318.882631777484
 30
0.0
 10
399.8459210561791
 20
-1335.629327058672
 30
0.0
 10
401.5377643852926
 20
-1352.473001777767
 30
0.0
 10
403.115015225829
 20
-1368.177211165119
 30
0.0
 10
403.9653939826665
 20
-1383.95428432198
 30
0.0
 10
405.1496455557211
 20
-1399.698370689572
 30
0.0
 10
406.0663424006535
 20
-1411.884276312612
 30
0.0
 10
406.8385605536723
 20
-1424.084048444979
 30
0.0
 10
407.9748391720968
 20
-1436.249628004653
 30
0.0
 10
409.4186356262685
 20
-1451.706048899226
 30
0.0
 10
411.2874707359387
 20
-1467.122506686171
 30
0.0
 10
412.7369515976611
 20
-1482.578410816421
 30
0.0
 10
413.6721227671322
 20
-1492.550067443703
 30
0.0
 10
414.3094654319034
 20
-1502.554452478094
 30
0.0
 10
414.8573217414472
 20
-1512.556425945646
 30
0.0
 10
415.8802136547105
 20
-1531.230566023442
 30
0.0
 10
416.3036589535403
 20
-1549.969473896362
 30
0.0
 10
425.818538983174
 20
-1566.957584243677
 30
0.0
 10
436.1697590055409
 20
-1585.439143483848
 30
0.0
 10
451.3168103255388
 20
-1596.434165725023
 30
0.0
 10
474.798064388679
 20
-1598.234228116066
 30
0.0
 10
478.4198502086296
 20
-1597.418257250385
 30
0.0
 10
483.9357495263704
 20
-1596.538552118226
 30
0.0
 10
489.2278468286479
 20
-1594.924869392935
 30
0.0
 10
523.2927356683311
 20
-1584.536528466713
 30
0.0
 10
538.2253728580651
 20
-1557.757112240769
 30
0.0
 10
533.9724886089133
 20
-1525.858284123744
 30
0.0
 10
531.2411738445111
 20
-1505.37219607548
 30
0.0
 10
527.6442788394431
 20
-1484.989633146548
 30
0.0
 10
525.3879996787677
 20
-1464.456002780587
 30
0.0
  0
HATCH
  5
96
330
70
100
AcDbEntity
  8
2023-015
 62
    18
420
        0
440
 33554687
100
AcDbHatch
 10
0.0
 20
0.0
 30
0.0
210
0.0
220
0.0
230
1.0
  2
SOLID
 70
     1
 71
     1
 91
        1
 92
        1
 93
        1
 72
     4
 94
        3
 73
     0
 74
     0
 95
       80
 96
       76
 40
0.0
 40
0.0
 40
0.0
 40
0.0
 40
1.0
 40
1.0
 40
1.0
 40
2.0
 40
2.0
 40
2.0
 40
3.0
 40
3.0
 40
3.0
 40
4.0
 40
4.0
 40
4.0
 40
5.0
 40
5.0
 40
5.0
 40
6.0
 40
6.0
 40
6.0
 40
7.0
 40
7.0
 40
7.0
 40
8.0
 40
8.0
 40
8.0
 40
9.0
 40
9.0
 40
9.0
 40
10.0
 40
10.0
 40
10.0
 40
11.0
 40
11.0
 40
11.0
 40
12.0
 40
12.0
 40
12.0
 40
13.0
 40
13.0
 40
13.0
 40
14.0
 40
14.0
 40
14.0
 40
15.0
 40
15.0
 40
15.0
 40
16.0
 40
16.0
 40
16.0
 40
17.0
 40
17.0
 40
17.0
 40
18.0
 40
18.0
 40
18.0
 40
19.0
 40
19.0
 40
19.0
 40
20.0
 40
20.0
 40
20.0
 40
21.0
 40
21.0
 40
21.0
 40
22.0
 40
22.0
 40
22.0
 40
23.0
 40
23.0
 40
23.0
 40
24.0
 40
24.0
 40
24.0
 40
25.0
 40
25.0
 40
25.0
 40
25.0
 10
525.3879996787677
 20
-1464.456002780587
 10
523.5354857089598
 20
-1447.595016456677
 10
523.0996811300758
 20
-1430.578828581157
 10
522.0121506127715
 20
-1413.632920653536
 10
521.4580070039691
 20
-1404.998822348403
 10
521.0344755777498
 20
-1396.351115916103
 10
520.2303902914925
 20
-1387.739582986398
 10
518.5234316059371
 20
-1369.456116736629
 10
516.4906099511724
 20
-1351.20296732713
 10
514.8206860420867
 20
-1332.916314364039
 10
513.9151426937887
 20
-1322.999176372809
 10
513.6406547109995
 20
-1313.025280433463
 10
512.7994054571944
 20
-1303.100907741718
 10
511.186024177759
 20
-1284.066755185713
 10
508.7945250192876
 20
-1265.079628183081
 10
507.8069022710518
 20
-1246.016881334548
 10
506.8707837003241
 20
-1227.945891348829
 10
507.3714852654091
 20
-1209.802554357924
 10
507.1414820780757
 20
-1191.692290283674
 10
506.9333983107666
 20
-1175.307416155826
 10
506.681647958184
 20
-1158.922025263655
 10
506.2811556080236
 20
-1142.54094074084
 10
505.9437085052435
 20
-1128.741180137738
 10
506.1331887569322
 20
-1114.868211255571
 10
504.7241877671573
 20
-1101.168272294152
 10
502.2191296487508
 20
-1076.810758194339
 10
487.4221861574432
 20
-1060.260691737973
 10
466.1009638998583
 20
-1051.146174867422
 10
444.1557487225133
 20
-1041.764921478927
 10
421.9169683461286
 20
-1045.349629458715
 10
402.2487029023666
 20
-1059.070841884757
 10
392.5648840028778
 20
-1065.826588003943
 10
384.6137328140029
 20
-1074.358883737486
 10
380.709922864892
 20
-1086.453838839716
 10
376.9219542514746
 20
-1098.189987247154
 10
376.35743229252
 20
-1109.6122013285
 10
377.873058987563
 20
-1121.69656276211
 10
379.9946349147689
 20
-1138.611895467302
 10
380.9353182370164
 20
-1155.672008310259
 10
382.6419324130201
 20
-1172.644012836179
 10
384.6262212851388
 20
-1192.376486247044
 10
387.0533771818825
 20
-1212.064604053539
 10
388.9939994687237
 20
-1231.801039324213
 10
391.2947203611627
 20
-1255.200730751738
 10
393.0791506314404
 20
-1278.652012484156
 10
395.472716847203
 20
-1302.041454752615
 10
397.1962119910882
 20
-1318.882631777484
 10
399.8459210561791
 20
-1335.629327058672
 10
401.5377643852926
 20
-1352.473001777767
 10
403.115015225829
 20
-1368.177211165119
 10
403.9653939826665
 20
-1383.95428432198
 10
405.1496455557211
 20
-1399.698370689572
 10
406.0663424006535
 20
-1411.884276312612
 10
406.8385605536723
 20
-1424.084048444979
 10
407.9748391720968
 20
-1436.249628004653
 10
409.4186356262685
 20
-1451.706048899226
 10
411.2874707359387
 20
-1467.122506686171
 10
412.7369515976611
 20
-1482.578410816421
 10
413.6721227671322
 20
-1492.550067443703
 10
414.3094654319034
 20
-1502.554452478094
 10
414.8573217414472
 20
-1512.556425945646
 10
415.8802136547105
 20
-1531.230566023442
 10
416.3036589535403
 20
-1549.969473896362
 10
425.818538983174
 20
-1566.957584243677
 10
436.1697590055409
 20
-1585.439143483848
 10
451.3168103255388
 20
-1596.434165725023
 10
474.798064388679
 20
-1598.234228116066
 10
478.4198502086296
 20
-1597.418257250385
 10
483.9357495263704
 20
-1596.538552118226
 10
489.2278468286479
 20
-1594.924869392935
 10
523.2927356683311
 20
-1584.536528466713
 10
538.2253728580651
 20
-1557.757112240769
 10
533.9724886089133
 20
-1525.858284123744
 10
531.2411738445111
 20
-1505.37219607548
 10
527.6442788394431
 20
-1484.989633146548
 10
525.3879996787677
 20
-1464.456002780587
 97
        0
 97
        1
330
95
 75
     2
 76
     1
 98
        1
 10
0.0
 20
0.0
450
        0
451
        0
460
0.0
461
0.0
452
        0
462
0.0
453
        0
470

  0
ENDSEC
  0
SECTION
  2
OBJECTS
  0
DICTIONARY
  5
C
330
0
100
AcDbDictionary
281
     1
  3
ACAD_COLOR
350
63
  3
ACAD_DETAILVIEWSTYLE
350
6A
  3
ACAD_GROUP
350
D
  3
ACAD_LAYOUT
350
62
  3
ACAD_MATERIAL
350
10
  3
ACAD_MLEADERSTYLE
350
66
  3
ACAD_MLINESTYLE
350
5F
  3
ACAD_PLOTSETTINGS
350
61
  3
ACAD_PLOTSTYLENAME
350
E
  3
ACAD_SCALELIST
350
42
  3
ACAD_SECTIONVIEWSTYLE
350
68
  3
ACAD_TABLESTYLE
350
64
  3
ACAD_VISUALSTYLE
350
29
  3
ACDB_RECOMPOSE_DATA
350
AE
  3
AcDbVariableDictionary
350
A6
  0
DICTIONARY
  5
63
102
{ACAD_REACTORS
330
C
102
}
330
C
100
AcDbDictionary
281
     1
  0
DICTIONARY
  5
6A
102
{ACAD_REACTORS
330
C
102
}
330
C
100
AcDbDictionary
281
     1
  3
Imperial24
350
6B
  0
DICTIONARY
  5
D
102
{ACAD_REACTORS
330
C
102
}
330
C
100
AcDbDictionary
281
     1
  0
DICTIONARY
  5
62
102
{ACAD_REACTORS
330
C
102
}
330
C
100
AcDbDictionary
281
     1
  3
Layout1
350
6F
  3
Layout2
350
77
  3
Model
350
73
  0
DICTIONARY
  5
10
102
{ACAD_REACTORS
330
C
102
}
330
C
100
AcDbDictionary
281
     1
  3
ByBlock
350
19
  3
ByLayer
350
11
  3
Global
350
21
  0
DICTIONARY
  5
66
102
{ACAD_REACTORS
330
C
102
}
330
C
100
AcDbDictionary
281
     1
  3
Standard
350
67
  0
DICTIONARY
  5
5F
102
{ACAD_REACTORS
330
C
102
}
330
C
100
AcDbDictionary
281
     1
  3
Standard
350
60
  0
DICTIONARY
  5
61
102
{ACAD_REACTORS
330
C
102
}
330
C
100
AcDbDictionary
281
     1
  0
ACDBDICTIONARYWDFLT
  5
E
102
{ACAD_REACTORS
330
C
102
}
330
C
100
AcDbDictionary
281
     1
  3
Normal
350
F
100
AcDbDictionaryWithDefault
340
F
  0
DICTIONARY
  5
42
102
{ACAD_REACTORS
330
C
102
}
330
C
100
AcDbDictionary
281
     1
  3
A0
350
43
  3
A1
350
44
  3
A2
350
45
  3
A3
350
46
  3
A4
350
47
  3
A5
350
48
  3
A6
350
49
  3
A7
350
4A
  3
A8
350
4B
  3
A9
350
4C
  3
B0
350
4D
  3
B1
350
4E
  3
B2
350
4F
  3
B3
350
50
  3
B4
350
51
  3
B5
350
52
  3
B6
350
53
  0
DICTIONARY
  5
68
102
{ACAD_REACTORS
330
C
102
}
330
C
100
AcDbDictionary
281
     1
  3
Imperial24
350
69
  0
DICTIONARY
  5
64
102
{ACAD_REACTORS
330
C
102
}
330
C
100
AcDbDictionary
281
     1
  3
Standard
350
65
  0
DICTIONARY
  5
29
102
{ACAD_REACTORS
330
C
102
}
330
C
100
AcDbDictionary
281
     1
  3
2dWireframe
350
2F
  3
Basic
350
2E
  3
Brighten
350
35
  3
ColorChange
350
39
  3
Conceptual
350
32
  3
Dim
350
34
  3
EdgeColorOff
350
41
  3
Facepattern
350
38
  3
Flat
350
2A
  3
FlatWithEdges
350
2B
  3
Gouraud
350
2C
  3
GouraudWithEdges
350
2D
  3
Hidden
350
31
  3
JitterOff
350
3F
  3
Linepattern
350
37
  3
OverhangOff
350
40
  3
Realistic
350
33
  3
Shaded
350
3E
  3
Shaded with edges
350
3D
  3
Shades of Gray
350
3A
  3
Sketchy
350
3B
  3
Thicken
350
36
  3
Wireframe
350
30
  3
X-Ray
350
3C
  0
XRECORD
  5
AE
102
{ACAD_REACTORS
330
C
102
}
330
C
100
AcDbXrecord
280
     1
 90
        1
330
65
  0
DICTIONARY
  5
A6
102
{ACAD_REACTORS
330
C
102
}
330
C
100
AcDbDictionary
281
     1
  3
CANNOSCALE
350
AB
  3
CMLEADERSTYLE
350
A8
  3
CTABLESTYLE
350
A7
  3
CVIEWDETAILSTYLE
350
A9
  3
CVIEWSECTIONSTYLE
350
AA
  0
ACDBDETAILVIEWSTYLE
  5
6B
102
{ACAD_REACTORS
330
6A
102
}
330
6A
100
AcDbModelDocViewStyle
 70
     0
  3
Imperial24
290
     1
300
Imperial24
 90
        0
100
AcDbDetailViewStyle
 70
     0
 71
     0
 90
        3
 71
     1
340
55
 62
   256
 40
0.24
340
0
 62
   256
 40
0.24
300

 40
0.36
280
     3
 71
     2
340
5D
 90
       25
 62
   256
 71
     3
340
55
 62
   256
 40
0.24
 90
        1
 40
0.75
 90
        1
300
%<\AcVar ViewType \f "%tc1">% %<\AcVar ViewDetailId>%\PSCALE %<\AcVar ViewScale \f "%sn">%
 71
     4
340
5D
 90
       25
 62
   256
340
5D
 90
       25
 62
   256
280
     0
  0
LAYOUT
  5
6F
102
{ACAD_REACTORS
330
62
102
}
330
62
100
AcDbPlotSettings
  1

  2

  4

  6

 40
0.0
 41
0.0
 42
0.0
 43
0.0
 44
0.0
 45
0.0
 46
0.0
 47
0.0
 48
0.0
 49
0.0
140
0.0
141
0.0
142
1.0
143
1.0
 70
   688
 72
     0
 73
     0
 74
     5
  7

 75
    16
147
1.0
 76
     0
 77
     2
 78
   300
148
0.0
149
0.0
100
AcDbLayout
  1
Layout1
 70
     1
 71
     1
 10
0.0
 20
0.0
 11
12.0
 21
9.0
 12
0.0
 22
0.0
 32
0.0
 14
0.0
 24
0.0
 34
0.0
 15
0.0
 25
0.0
 35
0.0
146
0.0
 13
0.0
 23
0.0
 33
0.0
 16
1.0
 26
0.0
 36
0.0
 17
0.0
 27
1.0
 37
0.0
 76
     0
330
6C
  0
LAYOUT
  5
77
102
{ACAD_REACTORS
330
62
102
}
330
62
100
AcDbPlotSettings
  1

  2

  4

  6

 40
0.0
 41
0.0
 42
0.0
 43
0.0
 44
0.0
 45
0.0
 46
0.0
 47
0.0
 48
0.0
 49
0.0
140
0.0
141
0.0
142
1.0
143
1.0
 70
   688
 72
     0
 73
     0
 74
     5
  7

 75
    16
147
1.0
 76
     0
 77
     2
 78
   300
148
0.0
149
0.0
100
AcDbLayout
  1
Layout2
 70
     1
 71
     2
 10
0.0
 20
0.0
 11
12.0
 21
9.0
 12
0.0
 22
0.0
 32
0.0
 14
0.0
 24
0.0
 34
0.0
 15
0.0
 25
0.0
 35
0.0
146
0.0
 13
0.0
 23
0.0
 33
0.0
 16
1.0
 26
0.0
 36
0.0
 17
0.0
 27
1.0
 37
0.0
 76
     0
330
74
  0
LAYOUT
  5
73
102
{ACAD_REACTORS
330
62
102
}
330
62
100
AcDbPlotSettings
  1

  2

  4

  6

 40
0.0
 41
0.0
 42
0.0
 43
0.0
 44
0.0
 45
0.0
 46
0.0
 47
0.0
 48
0.0
 49
0.0
140
0.0
141
0.0
142
1.0
143
1.0
 70
  1712
 72
     0
 73
     0
 74
     0
  7

 75
     0
147
1.0
 76
     0
 77
     2
 78
   300
148
0.0
149
0.0
100
AcDbLayout
  1
Model
 70
     1
 71
     0
 10
0.0
 20
0.0
 11
12.0
 21
9.0
 12
0.0
 22
0.0
 32
0.0
 14
0.0
 24
0.0
 34
0.0
 15
0.0
 25
0.0
 35
0.0
146
0.0
 13
0.0
 23
0.0
 33
0.0
 16
1.0
 26
0.0
 36
0.0
 17
0.0
 27
1.0
 37
0.0
 76
     0
330
70
  0
MATERIAL
  5
19
102
{ACAD_XDICTIONARY
360
1A
102
}
102
{ACAD_REACTORS
330
10
102
}
330
10
100
AcDbMaterial
  1
ByBlock
 72
     0
 43
0.0208333333333333
 43
0.0
 43
0.0
 43
0.0
 43
0.0
 43
0.0208333333333333
 43
0.0
 43
0.0
 43
0.0
 43
0.0
 43
1.0
 43
0.0
 43
0.0
 43
0.0
 43
0.0
 43
1.0
 77
     0
 47
0.0208333333333333
 47
0.0
 47
0.0
 47
0.0
 47
0.0
 47
0.0208333333333333
 47
0.0
 47
0.0
 47
0.0
 47
0.0
 47
1.0
 47
0.0
 47
0.0
 47
0.0
 47
0.0
 47
1.0
171
     0
 49
0.0208333333333333
 49
0.0
 49
0.0
 49
0.0
 49
0.0
 49
0.0208333333333333
 49
0.0
 49
0.0
 49
0.0
 49
0.0
 49
1.0
 49
0.0
 49
0.0
 49
0.0
 49
0.0
 49
1.0
175
     0
142
0.0208333333333333
142
0.0
142
0.0
142
0.0
142
0.0
142
0.0208333333333333
142
0.0
142
0.0
142
0.0
142
0.0
142
1.0
142
0.0
142
0.0
142
0.0
142
0.0
142
1.0
179
     0
144
0.0208333333333333
144
0.0
144
0.0
144
0.0
144
0.0
144
0.0208333333333333
144
0.0
144
0.0
144
0.0
144
0.0
144
1.0
144
0.0
144
0.0
144
0.0
144
0.0
144
1.0
147
0.0208333333333333
147
0.0
147
0.0
147
0.0
147
0.0
147
0.0208333333333333
147
0.0
147
0.0
147
0.0
147
0.0
147
1.0
147
0.0
147
0.0
147
0.0
147
0.0
147
1.0
  0
MATERIAL
  5
11
102
{ACAD_XDICTIONARY
360
12
102
}
102
{ACAD_REACTORS
330
10
102
}
330
10
100
AcDbMaterial
  1
ByLayer
 72
     0
 43
0.0208333333333333
 43
0.0
 43
0.0
 43
0.0
 43
0.0
 43
0.0208333333333333
 43
0.0
 43
0.0
 43
0.0
 43
0.0
 43
1.0
 43
0.0
 43
0.0
 43
0.0
 43
0.0
 43
1.0
 77
     0
 47
0.0208333333333333
 47
0.0
 47
0.0
 47
0.0
 47
0.0
 47
0.0208333333333333
 47
0.0
 47
0.0
 47
0.0
 47
0.0
 47
1.0
 47
0.0
 47
0.0
 47
0.0
 47
0.0
 47
1.0
171
     0
 49
0.0208333333333333
 49
0.0
 49
0.0
 49
0.0
 49
0.0
 49
0.0208333333333333
 49
0.0
 49
0.0
 49
0.0
 49
0.0
 49
1.0
 49
0.0
 49
0.0
 49
0.0
 49
0.0
 49
1.0
175
     0
142
0.0208333333333333
142
0.0
142
0.0
142
0.0
142
0.0
142
0.0208333333333333
142
0.0
142
0.0
142
0.0
142
0.0
142
1.0
142
0.0
142
0.0
142
0.0
142
0.0
142
1.0
179
     0
144
0.0208333333333333
144
0.0
144
0.0
144
0.0
144
0.0
144
0.0208333333333333
144
0.0
144
0.0
144
0.0
144
0.0
144
1.0
144
0.0
144
0.0
144
0.0
144
0.0
144
1.0
147
0.0208333333333333
147
0.0
147
0.0
147
0.0
147
0.0
147
0.0208333333333333
147
0.0
147
0.0
147
0.0
147
0.0
147
1.0
147
0.0
147
0.0
147
0.0
147
0.0
147
1.0
  0
MATERIAL
  5
21
102
{ACAD_XDICTIONARY
360
22
102
}
102
{ACAD_REACTORS
330
10
102
}
330
10
100
AcDbMaterial
  1
Global
 72
     0
 43
0.0208333333333333
 43
0.0
 43
0.0
 43
0.0
 43
0.0
 43
0.0208333333333333
 43
0.0
 43
0.0
 43
0.0
 43
0.0
 43
1.0
 43
0.0
 43
0.0
 43
0.0
 43
0.0
 43
1.0
 77
     0
 47
0.0208333333333333
 47
0.0
 47
0.0
 47
0.0
 47
0.0
 47
0.0208333333333333
 47
0.0
 47
0.0
 47
0.0
 47
0.0
 47
1.0
 47
0.0
 47
0.0
 47
0.0
 47
0.0
 47
1.0
171
     0
 49
0.0208333333333333
 49
0.0
 49
0.0
 49
0.0
 49
0.0
 49
0.0208333333333333
 49
0.0
 49
0.0
 49
0.0
 49
0.0
 49
1.0
 49
0.0
 49
0.0
 49
0.0
 49
0.0
 49
1.0
175
     0
142
0.0208333333333333
142
0.0
142
0.0
142
0.0
142
0.0
142
0.0208333333333333
142
0.0
142
0.0
142
0.0
142
0.0
142
1.0
142
0.0
142
0.0
142
0.0
142
0.0
142
1.0
179
     0
144
0.0208333333333333
144
0.0
144
0.0
144
0.0
144
0.0
144
0.0208333333333333
144
0.0
144
0.0
144
0.0
144
0.0
144
1.0
144
0.0
144
0.0
144
0.0
144
0.0
144
1.0
147
0.0208333333333333
147
0.0
147
0.0
147
0.0
147
0.0
147
0.0208333333333333
147
0.0
147
0.0
147
0.0
147
0.0
147
1.0
147
0.0
147
0.0
147
0.0
147
0.0
147
1.0
  0
MLEADERSTYLE
  5
67
102
{ACAD_REACTORS
330
66
102
}
330
66
100
AcDbMLeaderStyle
179
     2
170
     2
171
     1
172
     0
 90
        2
 40
0.0
 41
0.0
173
     1
 91
-1056964608
340
5B
 92
       -2
290
     1
 42
0.09
291
     1
 43
0.36
  3
Standard
 44
0.18
300

342
55
174
     1
178
     6
175
     1
176
     0
 93
-1056964608
 45
0.18
292
     0
297
     0
 46
0.18
 94
-1056964608
 47
1.0
 49
1.0
140
1.0
293
     1
141
0.0
294
     1
177
     0
142
1.0
295
     1
296
     0
143
0.125
271
     0
272
     9
273
     9
298
     1
  0
MLINESTYLE
  5
60
102
{ACAD_REACTORS
330
5F
102
}
330
5F
100
AcDbMlineStyle
  2
STANDARD
 70
     0
  3

 62
   256
 51
90.0
 52
90.0
 71
     2
 49
0.5
 62
   256
  6
BYLAYER
 49
-0.5
 62
   256
  6
BYLAYER
  0
ACDBPLACEHOLDER
  5
F
102
{ACAD_REACTORS
330
E
102
}
330
E
  0
SCALE
  5
43
102
{ACAD_REACTORS
330
42
102
}
330
42
100
AcDbScale
 70
     0
300
1:1
140
1.0
141
1.0
290
     1
  0
SCALE
  5
44
102
{ACAD_REACTORS
330
42
102
}
330
42
100
AcDbScale
 70
     0
300
1/128" = 1'-0"
140
0.0078125
141
12.0
290
     0
  0
SCALE
  5
45
102
{ACAD_REACTORS
330
42
102
}
330
42
100
AcDbScale
 70
     0
300
1/64" = 1'-0"
140
0.015625
141
12.0
290
     0
  0
SCALE
  5
46
102
{ACAD_REACTORS
330
42
102
}
330
42
100
AcDbScale
 70
     0
300
1/32" = 1'-0"
140
0.03125
141
12.0
290
     0
  0
SCALE
  5
47
102
{ACAD_REACTORS
330
42
102
}
330
42
100
AcDbScale
 70
     0
300
1/16" = 1'-0"
140
0.0625
141
12.0
290
     0
  0
SCALE
  5
48
102
{ACAD_REACTORS
330
42
102
}
330
42
100
AcDbScale
 70
     0
300
3/32" = 1'-0"
140
0.09375
141
12.0
290
     0
  0
SCALE
  5
49
102
{ACAD_REACTORS
330
42
102
}
330
42
100
AcDbScale
 70
     0
300
1/8" = 1'-0"
140
0.125
141
12.0
290
     0
  0
SCALE
  5
4A
102
{ACAD_REACTORS
330
42
102
}
330
42
100
AcDbScale
 70
     0
300
3/16" = 1'-0"
140
0.1875
141
12.0
290
     0
  0
SCALE
  5
4B
102
{ACAD_REACTORS
330
42
102
}
330
42
100
AcDbScale
 70
     0
300
1/4" = 1'-0"
140
0.25
141
12.0
290
     0
  0
SCALE
  5
4C
102
{ACAD_REACTORS
330
42
102
}
330
42
100
AcDbScale
 70
     0
300
3/8" = 1'-0"
140
0.375
141
12.0
290
     0
  0
SCALE
  5
4D
102
{ACAD_REACTORS
330
42
102
}
330
42
100
AcDbScale
 70
     0
300
1/2" = 1'-0"
140
0.5
141
12.0
290
     0
  0
SCALE
  5
4E
102
{ACAD_REACTORS
330
42
102
}
330
42
100
AcDbScale
 70
     0
300
3/4" = 1'-0"
140
0.75
141
12.0
290
     0
  0
SCALE
  5
4F
102
{ACAD_REACTORS
330
42
102
}
330
42
100
AcDbScale
 70
     0
300
1" = 1'-0"
140
1.0
141
12.0
290
     0
  0
SCALE
  5
50
102
{ACAD_REACTORS
330
42
102
}
330
42
100
AcDbScale
 70
     0
300
1-1/2" = 1'-0"
140
1.5
141
12.0
290
     0
  0
SCALE
  5
51
102
{ACAD_REACTORS
330
42
102
}
330
42
100
AcDbScale
 70
     0
300
3" = 1'-0"
140
3.0
141
12.0
290
     0
  0
SCALE
  5
52
102
{ACAD_REACTORS
330
42
102
}
330
42
100
AcDbScale
 70
     0
300
6" = 1'-0"
140
6.0
141
12.0
290
     0
  0
SCALE
  5
53
102
{ACAD_REACTORS
330
42
102
}
330
42
100
AcDbScale
 70
     0
300
1'-0" = 1'-0"
140
12.0
141
12.0
290
     0
  0
ACDBSECTIONVIEWSTYLE
  5
69
102
{ACAD_REACTORS
330
68
102
}
330
68
100
AcDbModelDocViewStyle
 70
     0
  3
Imperial24
290
     1
300
Imperial24
 90
        0
100
AcDbSectionViewStyle
 70
     0
 71
     0
 90
       78
 71
     1
340
55
 62
   256
 40
0.24
340
0
340
0
 62
   256
 40
0.24
300
I, O, Q, S, X, Z
 40
0.48
 90
        3
 40
0.18
 90
        1
 71
     2
340
5D
 90
       25
 62
   256
340
5D
 90
       50
 62
   256
 40
0.24
 40
0.0
 40
0.24
 71
     3
340
55
 62
   256
 40
0.24
 90
        1
 40
0.75
 90
        1
300
%<\AcVar ViewType \f "%tc1">% %<\AcVar ViewSectionStartId>%-%<\AcVar ViewSectionEndId>%\PSCALE %<\AcVar ViewScale \f "%sn">%
 71
     4
 62
   256
 62
   257
300
ANSI31
 40
1.0
 90
        0
290
     0
290
     0
 90
        6
 40
0.0
 40
1.570796326794896
 40
0.2617993877991494
 40
1.308996938995747
 40
-0.2617993877991494
 40
1.832595714594046
  0
TABLESTYLE
  5
65
102
{ACAD_XDICTIONARY
360
AC
102
}
102
{ACAD_REACTORS
330
64
102
}
330
64
100
AcDbTableStyle
280
     0
  3
Standard
 70
     0
 71
     0
 40
0.06
 41
0.06
280
     0
281
     0
  7
Standard
140
0.18
170
     2
 62
     0
 63
     7
283
     0
 90
      512
 91
        0
  1

274
    -2
284
     1
 64
     0
275
    -2
285
     1
 65
     0
276
    -2
286
     1
 66
     0
277
    -2
287
     1
 67
     0
278
    -2
288
     1
 68
     0
279
    -2
289
     1
 69
     0
  7
Standard
140
0.25
170
     5
 62
     0
 63
     7
283
     0
 90
      512
 91
        0
  1

274
    -2
284
     1
 64
     0
275
    -2
285
     1
 65
     0
276
    -2
286
     1
 66
     0
277
    -2
287
     1
 67
     0
278
    -2
288
     1
 68
     0
279
    -2
289
     1
 69
     0
  7
Standard
140
0.18
170
     5
 62
     0
 63
     7
283
     0
 90
      512
 91
        0
  1

274
    -2
284
     1
 64
     0
275
    -2
285
     1
 65
     0
276
    -2
286
     1
 66
     0
277
    -2
287
     1
 67
     0
278
    -2
288
     1
 68
     0
279
    -2
289
     1
 69
     0
  0
VISUALSTYLE
  5
2F
102
{ACAD_REACTORS
330
29
102
}
330
29
100
AcDbVisualStyle
  2
2dWireframe
 70
     4
177
     3
291
     0
 70
    58
 90
        0
176
     1
 90
        2
176
     1
 90
        0
176
     1
 90
        0
176
     1
 40
0.6
176
     1
 40
30.0
176
     1
 62
     7
420
 16777215
176
     1
 90
        1
176
     1
 90
        4
176
     1
 62
     7
176
     1
 62
   257
176
     1
 90
        1
176
     1
 90
        1
176
     1
 40
1.0
176
     1
 90
        0
176
     1
 62
   257
176
     1
 40
1.0
176
     1
 90
        1
176
     1
 90
        6
176
     1
 90
        2
176
     1
 62
     7
176
     1
 90
        5
176
     1
 90
        0
176
     1
 90
        0
176
     1
290
     0
176
     1
 90
        1
176
     1
 40
0.0
176
     1
 90
        0
176
     1
290
     1
176
     1
290
     1
176
     1
290
     0
176
     1
290
     0
176
     1
290
     0
176
     1
290
     0
176
     1
290
     0
176
     1
290
     0
176
     1
290
     0
176
     1
 90
       50
176
     1
 40
0.0
176
     1
 40
1.0
176
     1
 90
        0
176
     1
 62
    18
420
        0
176
     1
 90
       50
176
     1
 90
        3
176
     1
 62
     5
420
      255
176
     1
290
     0
176
     1
 90
       50
176
     1
 90
       50
176
     1
 90
       50
176
     1
290
     0
176
     1
 90
       50
176
     1
 62
   256
176
     0
 40
1.0
176
     0
 90
        2
176
     1
  1
strokes_ogs.tif
176
     1
290
     0
176
     1
 40
1.0
176
     1
 40
1.0
176
     1
  0
VISUALSTYLE
  5
2E
102
{ACAD_REACTORS
330
29
102
}
330
29
100
AcDbVisualStyle
  2
Basic
 70
     7
177
     3
291
     1
 70
    58
 90
        1
176
     1
 90
        0
176
     1
 90
        1
176
     1
 90
        0
176
     1
 40
0.6
176
     1
 40
30.0
176
     1
 62
     7
420
 16777215
176
     1
 90
        0
176
     1
 90
        4
176
     1
 62
     7
176
     1
 62
   257
176
     1
 90
        1
176
     1
 90
        1
176
     1
 40
1.0
176
     1
 90
        8
176
     1
 62
     7
176
     1
 40
1.0
176
     1
 90
        1
176
     1
 90
        6
176
     1
 90
        2
176
     1
 62
     7
176
     1
 90
        5
176
     1
 90
        0
176
     1
 90
        0
176
     1
290
     0
176
     1
 90
        1
176
     1
 40
0.0
176
     1
 90
        0
176
     1
290
     0
176
     1
290
     1
176
     1
290
     1
176
     1
290
     0
176
     1
290
     0
176
     1
290
     0
176
     1
290
     0
176
     1
290
     0
176
     1
290
     0
176
     1
 90
       50
176
     1
 40
0.0
176
     1
 40
1.0
176
     1
 90
        0
176
     1
 62
    18
420
        0
176
     1
 90
       50
176
     1
 90
        3
176
     1
 62
     5
420
      255
176
     1
290
     0
176
     1
 90
       50
176
     1
 90
       50
176
     1
 90
       50
176
     1
290
     0
176
     1
 90
       50
176
     1
 62
   256
176
     0
 40
1.0
176
     0
 90
        2
176
     1
  1
strokes_ogs.tif
176
     1
290
     0
176
     1
 40
1.0
176
     1
 40
1.0
176
     1
  0
VISUALSTYLE
  5
35
102
{ACAD_REACTORS
330
29
102
}
330
29
100
AcDbVisualStyle
  2
Brighten
 70
    12
177
     3
291
     1
 70
    58
 90
        2
176
     1
 90
        2
176
     1
 90
        0
176
     1
 90
        0
176
     1
 40
0.6
176
     1
 40
30.0
176
     1
 62
     7
420
 16777215
176
     1
 90
        1
176
     1
 90
        4
176
     1
 62
     7
176
     1
 62
   257
176
     1
 90
        1
176
     1
 90
        1
176
     1
 40
1.0
176
     1
 90
        8
176
     1
 62
     7
176
     1
 40
1.0
176
     1
 90
        1
176
     1
 90
        6
176
     1
 90
        2
176
     1
 62
     7
176
     1
 90
        5
176
     1
 90
        0
176
     1
 90
        0
176
     1
290
     0
176
     1
 90
        1
176
     1
 40
50.0
176
     1
 90
        0
176
     1
290
     0
176
     1
290
     1
176
     1
290
     1
176
     1
290
     0
176
     1
290
     0
176
     1
290
     0
176
     1
290
     0
176
     1
290
     0
176
     1
290
     0
176
     1
 90
       50
176
     1
 40
0.0
176
     1
 40
1.0
176
     1
 90
        0
176
     1
 62
    18
420
        0
176
     1
 90
       50
176
     1
 90
        3
176
     1
 62
     5
420
      255
176
     1
290
     0
176
     1
 90
       50
176
     1
 90
       50
176
     1
 90
       50
176
     1
290
     0
176
     1
 90
       50
176
     1
 62
   256
176
     0
 40
1.0
176
     0
 90
        2
176
     1
  1
strokes_ogs.tif
176
     1
290
     0
176
     1
 40
1.0
176
     1
 40
1.0
176
     1
  0
VISUALSTYLE
  5
39
102
{ACAD_REACTORS
330
29
102
}
330
29
100
AcDbVisualStyle
  2
ColorChange
 70
    16
177
     3
291
     1
 70
    58
 90
        2
176
     1
 90
        2
176
     1
 90
        3
176
     1
 90
        0
176
     1
 40
0.6
176
     1
 40
30.0
176
     1
 62
     8
420
  8421504
176
     1
 90
        1
176
     1
 90
        4
176
     1
 62
     7
176
     1
 62
   257
176
     1
 90
        1
176
     1
 90
        1
176
     1
 40
1.0
176
     1
 90
        8
176
     1
 62
     8
420
  8421504
176
     1
 40
1.0
176
     1
 90
        1
176
     1
 90
        6
176
     1
 90
        2
176
     1
 62
     7
176
     1
 90
        5
176
     1
 90
        0
176
     1
 90
        0
176
     1
290
     0
176
     1
 90
        1
176
     1
 40
0.0
176
     1
 90
        0
176
     1
290
     0
176
     1
290
     1
176
     1
290
     1
176
     1
290
     0
176
     1
290
     0
176
     1
290
     0
176
     1
290
     0
176
     1
290
     0
176
     1
290
     0
176
     1
 90
       50
176
     1
 40
0.0
176
     1
 40
1.0
176
     1
 90
        0
176
     1
 62
    18
420
        0
176
     1
 90
       50
176
     1
 90
        3
176
     1
 62
     5
420
      255
176
     1
290
     0
176
     1
 90
       50
176
     1
 90
       50
176
     1
 90
       50
176
     1
290
     0
176
     1
 90
       50
176
     1
 62
   256
176
     0
 40
1.0
176
     0
 90
        2
176
     1
  1
strokes_ogs.tif
176
     1
290
     0
176
     1
 40
1.0
176
     1
 40
1.0
176
     1
  0
VISUALSTYLE
  5
32
102
{ACAD_REACTORS
330
29
102
}
330
29
100
AcDbVisualStyle
  2
Conceptual
 70
     9
177
     3
291
     0
 70
    58
 90
        3
176
     1
 90
        2
176
     1
 90
        0
176
     1
 90
        0
176
     1
 40
0.6
176
     1
 40
30.0
176
     1
 62
     7
420
 16777215
176
     1
 90
        2
176
     1
 90
        2
176
     1
 62
     7
176
     1
 62
   257
176
     1
 90
        1
176
     1
 90
        1
176
     1
 40
179.0
176
     1
 90
        8
176
     1
 62
     7
176
     1
 40
1.0
176
     1
 90
        1
176
     1
 90
        6
176
     1
 90
        2
176
     1
 62
     7
176
     1
 90
        3
176
     1
 90
        0
176
     1
 90
        0
176
     1
290
     0
176
     1
 90
        1
176
     1
 40
0.0
176
     1
 90
        0
176
     1
290
     0
176
     1
290
     1
176
     1
290
     1
176
     1
290
     0
176
     1
290
     0
176
     1
290
     0
176
     1
290
     0
176
     1
290
     0
176
     1
290
     0
176
     1
 90
       50
176
     1
 40
0.0
176
     1
 40
1.0
176
     1
 90
        0
176
     1
 62
    18
420
        0
176
     1
 90
       50
176
     1
 90
        3
176
     1
 62
     5
420
      255
176
     1
290
     0
176
     1
 90
       50
176
     1
 90
       50
176
     1
 90
       50
176
     1
290
     0
176
     1
 90
       50
176
     1
 62
   256
176
     0
 40
1.0
176
     0
 90
        2
176
     1
  1
strokes_ogs.tif
176
     1
290
     0
176
     1
 40
1.0
176
     1
 40
1.0
176
     1
  0
VISUALSTYLE
  5
34
102
{ACAD_REACTORS
330
29
102
}
330
29
100
AcDbVisualStyle
  2
Dim
 70
    11
177
     3
291
     1
 70
    58
 90
        2
176
     1
 90
        2
176
     1
 90
        0
176
     1
 90
        0
176
     1
 40
0.6
176
     1
 40
30.0
176
     1
 62
     7
420
 16777215
176
     1
 90
        1
176
     1
 90
        4
176
     1
 62
     7
176
     1
 62
   257
176
     1
 90
        1
176
     1
 90
        1
176
     1
 40
1.0
176
     1
 90
        8
176
     1
 62
     7
176
     1
 40
1.0
176
     1
 90
        1
176
     1
 90
        6
176
     1
 90
        2
176
     1
 62
     7
176
     1
 90
        5
176
     1
 90
        0
176
     1
 90
        0
176
     1
290
     0
176
     1
 90
        1
176
     1
 40
-50.0
176
     1
 90
        0
176
     1
290
     0
176
     1
290
     1
176
     1
290
     1
176
     1
290
     0
176
     1
290
     0
176
     1
290
     0
176
     1
290
     0
176
     1
290
     0
176
     1
290
     0
176
     1
 90
       50
176
     1
 40
0.0
176
     1
 40
1.0
176
     1
 90
        0
176
     1
 62
    18
420
        0
176
     1
 90
       50
176
     1
 90
        3
176
     1
 62
     5
420
      255
176
     1
290
     0
176
     1
 90
       50
176
     1
 90
       50
176
     1
 90
       50
176
     1
290
     0
176
     1
 90
       50
176
     1
 62
   256
176
     0
 40
1.0
176
     0
 90
        2
176
     1
  1
strokes_ogs.tif
176
     1
290
     0
176
     1
 40
1.0
176
     1
 40
1.0
176
     1
  0
VISUALSTYLE
  5
41
102
{ACAD_REACTORS
330
29
102
}
330
29
100
AcDbVisualStyle
  2
EdgeColorOff
 70
    22
177
     3
291
     1
 70
    58
 90
        2
176
     0
 90
        2
176
     0
 90
        0
176
     0
 90
        0
176
     0
 40
0.6
176
     0
 40
30.0
176
     0
 62
     7
420
 16777215
176
     0
 90
        1
176
     0
 90
        4
176
     0
 62
     7
176
     0
 62
   257
176
     0
 90
        1
176
     0
 90
        1
176
     0
 40
1.0
176
     0
 90
        8
176
     2
 62
     7
176
     0
 40
1.0
176
     0
 90
        1
176
     0
 90
        6
176
     0
 90
        2
176
     0
 62
     7
176
     0
 90
        5
176
     0
 90
        0
176
     0
 90
        0
176
     0
290
     0
176
     0
 90
        1
176
     0
 40
0.0
176
     0
 90
        0
176
     0
290
     0
176
     0
290
     1
176
     0
290
     1
176
     0
290
     0
176
     0
290
     0
176
     0
290
     0
176
     0
290
     0
176
     0
290
     0
176
     0
290
     0
176
     0
 90
       50
176
     0
 40
0.0
176
     0
 40
1.0
176
     0
 90
        0
176
     0
 62
    18
420
        0
176
     0
 90
       50
176
     0
 90
        3
176
     0
 62
     5
420
      255
176
     0
290
     0
176
     0
 90
       50
176
     0
 90
       50
176
     0
 90
       50
176
     0
290
     0
176
     0
 90
       50
176
     0
 62
   256
176
     0
 40
1.0
176
     0
 90
        2
176
     0
  1
strokes_ogs.tif
176
     0
290
     0
176
     0
 40
1.0
176
     0
 40
1.0
176
     0
  0
VISUALSTYLE
  5
38
102
{ACAD_REACTORS
330
29
102
}
330
29
100
AcDbVisualStyle
  2
Facepattern
 70
    15
177
     3
291
     1
 70
    58
 90
        2
176
     1
 90
        2
176
     1
 90
        0
176
     1
 90
        0
176
     1
 40
0.6
176
     1
 40
30.0
176
     1
 62
     7
420
 16777215
176
     1
 90
        1
176
     1
 90
        4
176
     1
 62
     7
176
     1
 62
   257
176
     1
 90
        1
176
     1
 90
        1
176
     1
 40
1.0
176
     1
 90
        8
176
     1
 62
     7
176
     1
 40
1.0
176
     1
 90
        1
176
     1
 90
        6
176
     1
 90
        2
176
     1
 62
     7
176
     1
 90
        5
176
     1
 90
        0
176
     1
 90
        0
176
     1
290
     0
176
     1
 90
        1
176
     1
 40
0.0
176
     1
 90
        0
176
     1
290
     0
176
     1
290
     1
176
     1
290
     1
176
     1
290
     0
176
     1
290
     0
176
     1
290
     0
176
     1
290
     0
176
     1
290
     0
176
     1
290
     0
176
     1
 90
       50
176
     1
 40
0.0
176
     1
 40
1.0
176
     1
 90
        0
176
     1
 62
    18
420
        0
176
     1
 90
       50
176
     1
 90
        3
176
     1
 62
     5
420
      255
176
     1
290
     0
176
     1
 90
       50
176
     1
 90
       50
176
     1
 90
       50
176
     1
290
     0
176
     1
 90
       50
176
     1
 62
   256
176
     0
 40
1.0
176
     0
 90
        2
176
     1
  1
strokes_ogs.tif
176
     1
290
     0
176
     1
 40
1.0
176
     1
 40
1.0
176
     1
  0
VISUALSTYLE
  5
2A
102
{ACAD_REACTORS
330
29
102
}
330
29
100
AcDbVisualStyle
  2
Flat
 70
     0
177
     3
291
     1
 70
    58
 90
        2
176
     1
 90
        1
176
     1
 90
        1
176
     1
 90
        2
176
     1
 40
0.6
176
     1
 40
30.0
176
     1
 62
     7
420
 16777215
176
     1
 90
        0
176
     1
 90
        0
176
     1
 62
     7
176
     1
 62
   257
176
     1
 90
        1
176
     1
 90
        1
176
     1
 40
1.0
176
     1
 90
        8
176
     1
 62
     7
176
     1
 40
1.0
176
     1
 90
        1
176
     1
 90
        6
176
     1
 90
        2
176
     1
 62
     7
176
     1
 90
        5
176
     1
 90
        0
176
     1
 90
        0
176
     1
290
     0
176
     1
 90
       13
176
     1
 40
0.0
176
     1
 90
        0
176
     1
290
     0
176
     1
290
     1
176
     1
290
     1
176
     1
290
     0
176
     1
290
     0
176
     1
290
     0
176
     1
290
     0
176
     1
290
     0
176
     1
290
     0
176
     1
 90
       50
176
     1
 40
0.0
176
     1
 40
1.0
176
     1
 90
        0
176
     1
 62
    18
420
        0
176
     1
 90
       50
176
     1
 90
        3
176
     1
 62
     5
420
      255
176
     1
290
     0
176
     1
 90
       50
176
     1
 90
       50
176
     1
 90
       50
176
     1
290
     0
176
     1
 90
       50
176
     1
 62
   256
176
     0
 40
1.0
176
     0
 90
        2
176
     1
  1
strokes_ogs.tif
176
     1
290
     0
176
     1
 40
1.0
176
     1
 40
1.0
176
     1
  0
VISUALSTYLE
  5
2B
102
{ACAD_REACTORS
330
29
102
}
330
29
100
AcDbVisualStyle
  2
FlatWithEdges
 70
     1
177
     3
291
     1
 70
    58
 90
        2
176
     1
 90
        1
176
     1
 90
        1
176
     1
 90
        2
176
     1
 40
0.6
176
     1
 40
30.0
176
     1
 62
     7
420
 16777215
176
     1
 90
        1
176
     1
 90
        0
176
     1
 62
     7
176
     1
 62
   257
176
     1
 90
        1
176
     1
 90
        1
176
     1
 40
1.0
176
     1
 90
        0
176
     1
 62
   257
176
     1
 40
1.0
176
     1
 90
        1
176
     1
 90
        6
176
     1
 90
        2
176
     1
 62
     7
176
     1
 90
        5
176
     1
 90
        0
176
     1
 90
        0
176
     1
290
     0
176
     1
 90
       13
176
     1
 40
0.0
176
     1
 90
        0
176
     1
290
     0
176
     1
290
     1
176
     1
290
     1
176
     1
290
     0
176
     1
290
     0
176
     1
290
     0
176
     1
290
     0
176
     1
290
     0
176
     1
290
     0
176
     1
 90
       50
176
     1
 40
0.0
176
     1
 40
1.0
176
     1
 90
        0
176
     1
 62
    18
420
        0
176
     1
 90
       50
176
     1
 90
        3
176
     1
 62
     5
420
      255
176
     1
290
     0
176
     1
 90
       50
176
     1
 90
       50
176
     1
 90
       50
176
     1
290
     0
176
     1
 90
       50
176
     1
 62
   256
176
     0
 40
1.0
176
     0
 90
        2
176
     1
  1
strokes_ogs.tif
176
     1
290
     0
176
     1
 40
1.0
176
     1
 40
1.0
176
     1
  0
VISUALSTYLE
  5
2C
102
{ACAD_REACTORS
330
29
102
}
330
29
100
AcDbVisualStyle
  2
Gouraud
 70
     2
177
     3
291
     1
 70
    58
 90
        2
176
     1
 90
        2
176
     1
 90
        1
176
     1
 90
        2
176
     1
 40
0.6
176
     1
 40
30.0
176
     1
 62
     7
420
 16777215
176
     1
 90
        0
176
     1
 90
        0
176
     1
 62
     7
176
     1
 62
   257
176
     1
 90
        1
176
     1
 90
        1
176
     1
 40
1.0
176
     1
 90
        0
176
     1
 62
     7
176
     1
 40
1.0
176
     1
 90
        1
176
     1
 90
        6
176
     1
 90
        2
176
     1
 62
     7
176
     1
 90
        5
176
     1
 90
        0
176
     1
 90
        0
176
     1
290
     0
176
     1
 90
       13
176
     1
 40
0.0
176
     1
 90
        0
176
     1
290
     0
176
     1
290
     1
176
     1
290
     1
176
     1
290
     0
176
     1
290
     0
176
     1
290
     0
176
     1
290
     0
176
     1
290
     0
176
     1
290
     0
176
     1
 90
       50
176
     1
 40
0.0
176
     1
 40
1.0
176
     1
 90
        0
176
     1
 62
    18
420
        0
176
     1
 90
       50
176
     1
 90
        3
176
     1
 62
     5
420
      255
176
     1
290
     0
176
     1
 90
       50
176
     1
 90
       50
176
     1
 90
       50
176
     1
290
     0
176
     1
 90
       50
176
     1
 62
   256
176
     0
 40
1.0
176
     0
 90
        2
176
     1
  1
strokes_ogs.tif
176
     1
290
     0
176
     1
 40
1.0
176
     1
 40
1.0
176
     1
  0
VISUALSTYLE
  5
2D
102
{ACAD_REACTORS
330
29
102
}
330
29
100
AcDbVisualStyle
  2
GouraudWithEdges
 70
     3
177
     3
291
     1
 70
    58
 90
        2
176
     1
 90
        2
176
     1
 90
        1
176
     1
 90
        2
176
     1
 40
0.6
176
     1
 40
30.0
176
     1
 62
     7
420
 16777215
176
     1
 90
        1
176
     1
 90
        0
176
     1
 62
     7
176
     1
 62
   257
176
     1
 90
        1
176
     1
 90
        1
176
     1
 40
1.0
176
     1
 90
        0
176
     1
 62
   257
176
     1
 40
1.0
176
     1
 90
        1
176
     1
 90
        6
176
     1
 90
        2
176
     1
 62
     7
176
     1
 90
        5
176
     1
 90
        0
176
     1
 90
        0
176
     1
290
     0
176
     1
 90
       13
176
     1
 40
0.0
176
     1
 90
        0
176
     1
290
     0
176
     1
290
     1
176
     1
290
     1
176
     1
290
     0
176
     1
290
     0
176
     1
290
     0
176
     1
290
     0
176
     1
290
     0
176
     1
290
     0
176
     1
 90
       50
176
     1
 40
0.0
176
     1
 40
1.0
176
     1
 90
        0
176
     1
 62
    18
420
        0
176
     1
 90
       50
176
     1
 90
        3
176
     1
 62
     5
420
      255
176
     1
290
     0
176
     1
 90
       50
176
     1
 90
       50
176
     1
 90
       50
176
     1
290
     0
176
     1
 90
       50
176
     1
 62
   256
176
     0
 40
1.0
176
     0
 90
        2
176
     1
  1
strokes_ogs.tif
176
     1
290
     0
176
     1
 40
1.0
176
     1
 40
1.0
176
     1
  0
VISUALSTYLE
  5
31
102
{ACAD_REACTORS
330
29
102
}
330
29
100
AcDbVisualStyle
  2
Hidden
 70
     6
177
     3
291
     0
 70
    58
 90
        1
176
     1
 90
        2
176
     1
 90
        2
176
     1
 90
        0
176
     1
 40
0.6
176
     1
 40
30.0
176
     1
 62
     7
420
 16777215
176
     1
 90
        2
176
     1
 90
        2
176
     1
 62
     7
176
     1
 62
   257
176
     1
 90
        2
176
     1
 90
        1
176
     1
 40
40.0
176
     1
 90
        0
176
     1
 62
   257
176
     1
 40
1.0
176
     1
 90
        1
176
     1
 90
        6
176
     1
 90
        2
176
     1
 62
     7
176
     1
 90
        3
176
     1
 90
        0
176
     1
 90
        0
176
     1
290
     0
176
     1
 90
        1
176
     1
 40
0.0
176
     1
 90
        0
176
     1
290
     0
176
     1
290
     1
176
     1
290
     1
176
     1
290
     0
176
     1
290
     0
176
     1
290
     0
176
     1
290
     0
176
     1
290
     0
176
     1
290
     0
176
     1
 90
       50
176
     1
 40
0.0
176
     1
 40
1.0
176
     1
 90
        0
176
     1
 62
    18
420
        0
176
     1
 90
       50
176
     1
 90
        3
176
     1
 62
     5
420
      255
176
     1
290
     0
176
     1
 90
       50
176
     1
 90
       50
176
     1
 90
       50
176
     1
290
     0
176
     1
 90
       50
176
     1
 62
   256
176
     0
 40
1.0
176
     0
 90
        2
176
     1
  1
strokes_ogs.tif
176
     1
290
     0
176
     1
 40
1.0
176
     1
 40
1.0
176
     1
  0
VISUALSTYLE
  5
3F
102
{ACAD_REACTORS
330
29
102
}
330
29
100
AcDbVisualStyle
  2
JitterOff
 70
    20
177
     3
291
     1
 70
    58
 90
        2
176
     0
 90
        2
176
     0
 90
        0
176
     0
 90
        0
176
     0
 40
0.6
176
     0
 40
30.0
176
     0
 62
     7
420
 16777215
176
     0
 90
        1
176
     0
 90
        4
176
     0
 62
     7
176
     0
 62
   257
176
     0
 90
        1
176
     0
 90
        1
176
     0
 40
1.0
176
     0
 90
       10
176
     2
 62
     7
176
     0
 40
1.0
176
     0
 90
        1
176
     0
 90
        6
176
     0
 90
        2
176
     0
 62
     7
176
     0
 90
        5
176
     0
 90
        0
176
     0
 90
        0
176
     0
290
     0
176
     0
 90
        1
176
     0
 40
0.0
176
     0
 90
        0
176
     0
290
     0
176
     0
290
     1
176
     0
290
     1
176
     0
290
     0
176
     0
290
     0
176
     0
290
     0
176
     0
290
     0
176
     0
290
     0
176
     0
290
     0
176
     0
 90
       50
176
     0
 40
0.0
176
     0
 40
1.0
176
     0
 90
        0
176
     0
 62
    18
420
        0
176
     0
 90
       50
176
     0
 90
        3
176
     0
 62
     5
420
      255
176
     0
290
     0
176
     0
 90
       50
176
     0
 90
       50
176
     0
 90
       50
176
     0
290
     0
176
     0
 90
       50
176
     0
 62
   256
176
     0
 40
1.0
176
     0
 90
        2
176
     0
  1
strokes_ogs.tif
176
     0
290
     0
176
     0
 40
1.0
176
     0
 40
1.0
176
     0
  0
VISUALSTYLE
  5
37
102
{ACAD_REACTORS
330
29
102
}
330
29
100
AcDbVisualStyle
  2
Linepattern
 70
    14
177
     3
291
     1
 70
    58
 90
        2
176
     1
 90
        2
176
     1
 90
        0
176
     1
 90
        0
176
     1
 40
0.6
176
     1
 40
30.0
176
     1
 62
     7
420
 16777215
176
     1
 90
        1
176
     1
 90
        4
176
     1
 62
     7
176
     1
 62
   257
176
     1
 90
        7
176
     1
 90
        7
176
     1
 40
1.0
176
     1
 90
        8
176
     1
 62
     7
176
     1
 40
1.0
176
     1
 90
        1
176
     1
 90
        6
176
     1
 90
        2
176
     1
 62
     7
176
     1
 90
        5
176
     1
 90
        0
176
     1
 90
        0
176
     1
290
     0
176
     1
 90
        1
176
     1
 40
0.0
176
     1
 90
        0
176
     1
290
     0
176
     1
290
     1
176
     1
290
     1
176
     1
290
     0
176
     1
290
     0
176
     1
290
     0
176
     1
290
     0
176
     1
290
     0
176
     1
290
     0
176
     1
 90
       50
176
     1
 40
0.0
176
     1
 40
1.0
176
     1
 90
        0
176
     1
 62
    18
420
        0
176
     1
 90
       50
176
     1
 90
        3
176
     1
 62
     5
420
      255
176
     1
290
     0
176
     1
 90
       50
176
     1
 90
       50
176
     1
 90
       50
176
     1
290
     0
176
     1
 90
       50
176
     1
 62
   256
176
     0
 40
1.0
176
     0
 90
        2
176
     1
  1
strokes_ogs.tif
176
     1
290
     0
176
     1
 40
1.0
176
     1
 40
1.0
176
     1
  0
VISUALSTYLE
  5
40
102
{ACAD_REACTORS
330
29
102
}
330
29
100
AcDbVisualStyle
  2
OverhangOff
 70
    21
177
     3
291
     1
 70
    58
 90
        2
176
     0
 90
        2
176
     0
 90
        0
176
     0
 90
        0
176
     0
 40
0.6
176
     0
 40
30.0
176
     0
 62
     7
420
 16777215
176
     0
 90
        1
176
     0
 90
        4
176
     0
 62
     7
176
     0
 62
   257
176
     0
 90
        1
176
     0
 90
        1
176
     0
 40
1.0
176
     0
 90
        9
176
     2
 62
     7
176
     0
 40
1.0
176
     0
 90
        1
176
     0
 90
        6
176
     0
 90
        2
176
     0
 62
     7
176
     0
 90
        5
176
     0
 90
        0
176
     0
 90
        0
176
     0
290
     0
176
     0
 90
        1
176
     0
 40
0.0
176
     0
 90
        0
176
     0
290
     0
176
     0
290
     1
176
     0
290
     1
176
     0
290
     0
176
     0
290
     0
176
     0
290
     0
176
     0
290
     0
176
     0
290
     0
176
     0
290
     0
176
     0
 90
       50
176
     0
 40
0.0
176
     0
 40
1.0
176
     0
 90
        0
176
     0
 62
    18
420
        0
176
     0
 90
       50
176
     0
 90
        3
176
     0
 62
     5
420
      255
176
     0
290
     0
176
     0
 90
       50
176
     0
 90
       50
176
     0
 90
       50
176
     0
290
     0
176
     0
 90
       50
176
     0
 62
   256
176
     0
 40
1.0
176
     0
 90
        2
176
     0
  1
strokes_ogs.tif
176
     0
290
     0
176
     0
 40
1.0
176
     0
 40
1.0
176
     0
  0
VISUALSTYLE
  5
33
102
{ACAD_REACTORS
330
29
102
}
330
29
100
AcDbVisualStyle
  2
Realistic
 70
     8
177
     3
291
     0
 70
    58
 90
        2
176
     1
 90
        3
176
     1
 90
        0
176
     1
 90
        2
176
     1
 40
0.6
176
     1
 40
30.0
176
     1
 62
     7
420
 16777215
176
     1
 90
        0
176
     1
 90
        0
176
     1
 62
     7
176
     1
 62
   257
176
     1
 90
        1
176
     1
 90
        1
176
     1
 40
1.0
176
     1
 90
        8
176
     1
 62
   257
176
     1
 40
1.0
176
     1
 90
        1
176
     1
 90
        6
176
     1
 90
        2
176
     1
 62
     7
176
     1
 90
        3
176
     1
 90
        0
176
     1
 90
        0
176
     1
290
     0
176
     1
 90
       13
176
     1
 40
0.0
176
     1
 90
        0
176
     1
290
     0
176
     1
290
     1
176
     1
290
     1
176
     1
290
     0
176
     1
290
     0
176
     1
290
     0
176
     1
290
     0
176
     1
290
     0
176
     1
290
     0
176
     1
 90
       50
176
     1
 40
0.0
176
     1
 40
1.0
176
     1
 90
        0
176
     1
 62
    18
420
        0
176
     1
 90
       50
176
     1
 90
        3
176
     1
 62
     5
420
      255
176
     1
290
     0
176
     1
 90
       50
176
     1
 90
       50
176
     1
 90
       50
176
     1
290
     0
176
     1
 90
       50
176
     1
 62
   256
176
     0
 40
1.0
176
     0
 90
        2
176
     1
  1
strokes_ogs.tif
176
     1
290
     0
176
     1
 40
1.0
176
     1
 40
1.0
176
     1
  0
VISUALSTYLE
  5
3E
102
{ACAD_REACTORS
330
29
102
}
330
29
100
AcDbVisualStyle
  2
Shaded
 70
    27
177
     3
291
     0
 70
    58
 90
        2
176
     1
 90
        2
176
     1
 90
        1
176
     1
 90
        2
176
     1
 40
0.6
176
     1
 40
30.0
176
     1
 62
     7
420
 16777215
176
     1
 90
        0
176
     1
 90
        4
176
     1
 62
     7
176
     1
 62
   257
176
     1
 90
        1
176
     1
 90
        1
176
     1
 40
1.0
176
     1
 90
        8
176
     1
 62
   257
176
     1
 40
1.0
176
     1
 90
        1
176
     1
 90
        6
176
     1
 90
        2
176
     1
 62
     8
420
  7895160
176
     1
 90
        3
176
     1
 90
        0
176
     1
 90
        0
176
     1
290
     0
176
     1
 90
        5
176
     1
 40
0.0
176
     1
 90
        0
176
     1
290
     0
176
     1
290
     1
176
     1
290
     1
176
     1
290
     0
176
     1
290
     0
176
     1
290
     0
176
     1
290
     0
176
     1
290
     0
176
     1
290
     0
176
     1
 90
       50
176
     1
 40
0.0
176
     1
 40
1.0
176
     1
 90
        0
176
     1
 62
    18
420
        0
176
     1
 90
       50
176
     1
 90
        3
176
     1
 62
     5
420
      255
176
     1
290
     0
176
     1
 90
       50
176
     1
 90
       50
176
     1
 90
       50
176
     1
290
     0
176
     1
 90
       50
176
     1
 62
   256
176
     0
 40
1.0
176
     0
 90
        2
176
     1
  1
strokes_ogs.tif
176
     1
290
     0
176
     1
 40
1.0
176
     1
 40
1.0
176
     1
  0
VISUALSTYLE
  5
3D
102
{ACAD_REACTORS
330
29
102
}
330
29
100
AcDbVisualStyle
  2
Shaded with edges
 70
    26
177
     3
291
     0
 70
    58
 90
        2
176
     1
 90
        2
176
     1
 90
        1
176
     1
 90
        2
176
     1
 40
0.6
176
     1
 40
30.0
176
     1
 62
     7
420
 16777215
176
     1
 90
        1
176
     1
 90
        2
176
     1
 62
     7
176
     1
 62
   257
176
     1
 90
        2
176
     1
 90
        1
176
     1
 40
1.0
176
     1
 90
        8
176
     1
 62
   257
176
     1
 40
1.0
176
     1
 90
        1
176
     1
 90
        6
176
     1
 90
        2
176
     1
 62
     7
176
     1
 90
        3
176
     1
 90
        0
176
     1
 90
        0
176
     1
290
     0
176
     1
 90
        5
176
     1
 40
0.0
176
     1
 90
        0
176
     1
290
     0
176
     1
290
     1
176
     1
290
     1
176
     1
290
     0
176
     1
290
     0
176
     1
290
     0
176
     1
290
     0
176
     1
290
     0
176
     1
290
     0
176
     1
 90
       50
176
     1
 40
0.0
176
     1
 40
1.0
176
     1
 90
        0
176
     1
 62
    18
420
        0
176
     1
 90
       50
176
     1
 90
        3
176
     1
 62
     5
420
      255
176
     1
290
     0
176
     1
 90
       50
176
     1
 90
       50
176
     1
 90
       50
176
     1
290
     0
176
     1
 90
       50
176
     1
 62
   256
176
     0
 40
1.0
176
     0
 90
        2
176
     1
  1
strokes_ogs.tif
176
     1
290
     0
176
     1
 40
1.0
176
     1
 40
1.0
176
     1
  0
VISUALSTYLE
  5
3A
102
{ACAD_REACTORS
330
29
102
}
330
29
100
AcDbVisualStyle
  2
Shades of Gray
 70
    23
177
     3
291
     0
 70
    58
 90
        2
176
     1
 90
        2
176
     1
 90
        3
176
     1
 90
        0
176
     1
 40
0.6
176
     1
 40
30.0
176
     1
 62
     7
420
 16777215
176
     1
 90
        2
176
     1
 90
        2
176
     1
 62
     7
176
     1
 62
     7
176
     1
 90
        1
176
     1
 90
        1
176
     1
 40
40.0
176
     1
 90
        8
176
     1
 62
     7
176
     1
 40
1.0
176
     1
 90
        1
176
     1
 90
        6
176
     1
 90
        2
176
     1
 62
     7
176
     1
 90
        3
176
     1
 90
        0
176
     1
 90
        0
176
     1
290
     0
176
     1
 90
        1
176
     1
 40
0.0
176
     1
 90
        0
176
     1
290
     0
176
     1
290
     1
176
     1
290
     1
176
     1
290
     0
176
     1
290
     0
176
     1
290
     0
176
     1
290
     0
176
     1
290
     0
176
     1
290
     0
176
     1
 90
       50
176
     1
 40
0.0
176
     1
 40
1.0
176
     1
 90
        0
176
     1
 62
    18
420
        0
176
     1
 90
       50
176
     1
 90
        3
176
     1
 62
     5
420
      255
176
     1
290
     0
176
     1
 90
       50
176
     1
 90
       50
176
     1
 90
       50
176
     1
290
     0
176
     1
 90
       50
176
     1
 62
   256
176
     0
 40
1.0
176
     0
 90
        2
176
     1
  1
strokes_ogs.tif
176
     1
290
     0
176
     1
 40
1.0
176
     1
 40
1.0
176
     1
  0
VISUALSTYLE
  5
3B
102
{ACAD_REACTORS
330
29
102
}
330
29
100
AcDbVisualStyle
  2
Sketchy
 70
    24
177
     3
291
     0
 70
    58
 90
        1
176
     1
 90
        2
176
     1
 90
        2
176
     1
 90
        0
176
     1
 40
0.6
176
     1
 40
30.0
176
     1
 62
     7
420
 16777215
176
     1
 90
        2
176
     1
 90
        2
176
     1
 62
     7
176
     1
 62
     7
176
     1
 90
        1
176
     1
 90
        1
176
     1
 40
40.0
176
     1
 90
       11
176
     1
 62
     7
176
     1
 40
1.0
176
     1
 90
        1
176
     1
 90
        6
176
     1
 90
        2
176
     1
 62
     7
176
     1
 90
        6
176
     1
 90
        0
176
     1
 90
        0
176
     1
290
     0
176
     1
 90
        1
176
     1
 40
0.0
176
     1
 90
        0
176
     1
290
     0
176
     1
290
     1
176
     1
290
     1
176
     1
290
     0
176
     1
290
     0
176
     1
290
     0
176
     1
290
     0
176
     1
290
     0
176
     1
290
     0
176
     1
 90
       50
176
     1
 40
0.0
176
     1
 40
1.0
176
     1
 90
        0
176
     1
 62
    18
420
        0
176
     1
 90
       50
176
     1
 90
        3
176
     1
 62
     5
420
      255
176
     1
290
     0
176
     1
 90
       50
176
     1
 90
       50
176
     1
 90
       50
176
     1
290
     0
176
     1
 90
       50
176
     1
 62
   256
176
     0
 40
1.0
176
     0
 90
        2
176
     1
  1
strokes_ogs.tif
176
     1
290
     0
176
     1
 40
1.0
176
     1
 40
1.0
176
     1
  0
VISUALSTYLE
  5
36
102
{ACAD_REACTORS
330
29
102
}
330
29
100
AcDbVisualStyle
  2
Thicken
 70
    13
177
     3
291
     1
 70
    58
 90
        2
176
     1
 90
        2
176
     1
 90
        0
176
     1
 90
        0
176
     1
 40
0.6
176
     1
 40
30.0
176
     1
 62
     7
420
 16777215
176
     1
 90
        1
176
     1
 90
        4
176
     1
 62
     7
176
     1
 62
   257
176
     1
 90
        1
176
     1
 90
        1
176
     1
 40
1.0
176
     1
 90
       12
176
     1
 62
     7
176
     1
 40
1.0
176
     1
 90
        1
176
     1
 90
        6
176
     1
 90
        2
176
     1
 62
     7
176
     1
 90
        5
176
     1
 90
        0
176
     1
 90
        0
176
     1
290
     0
176
     1
 90
        1
176
     1
 40
0.0
176
     1
 90
        0
176
     1
290
     0
176
     1
290
     1
176
     1
290
     1
176
     1
290
     0
176
     1
290
     0
176
     1
290
     0
176
     1
290
     0
176
     1
290
     0
176
     1
290
     0
176
     1
 90
       50
176
     1
 40
0.0
176
     1
 40
1.0
176
     1
 90
        0
176
     1
 62
    18
420
        0
176
     1
 90
       50
176
     1
 90
        3
176
     1
 62
     5
420
      255
176
     1
290
     0
176
     1
 90
       50
176
     1
 90
       50
176
     1
 90
       50
176
     1
290
     0
176
     1
 90
       50
176
     1
 62
   256
176
     0
 40
1.0
176
     0
 90
        2
176
     1
  1
strokes_ogs.tif
176
     1
290
     0
176
     1
 40
1.0
176
     1
 40
1.0
176
     1
  0
VISUALSTYLE
  5
30
102
{ACAD_REACTORS
330
29
102
}
330
29
100
AcDbVisualStyle
  2
Wireframe
 70
     5
177
     3
291
     0
 70
    58
 90
        0
176
     1
 90
        2
176
     1
 90
        0
176
     1
 90
        0
176
     1
 40
0.6
176
     1
 40
30.0
176
     1
 62
     7
420
 16777215
176
     1
 90
        1
176
     1
 90
        4
176
     1
 62
     7
176
     1
 62
   257
176
     1
 90
        1
176
     1
 90
        1
176
     1
 40
1.0
176
     1
 90
        0
176
     1
 62
   257
176
     1
 40
1.0
176
     1
 90
        1
176
     1
 90
        6
176
     1
 90
        2
176
     1
 62
     7
176
     1
 90
        3
176
     1
 90
        0
176
     1
 90
        0
176
     1
290
     0
176
     1
 90
        1
176
     1
 40
0.0
176
     1
 90
        0
176
     1
290
     0
176
     1
290
     1
176
     1
290
     1
176
     1
290
     0
176
     1
290
     0
176
     1
290
     0
176
     1
290
     0
176
     1
290
     0
176
     1
290
     0
176
     1
 90
       50
176
     1
 40
0.0
176
     1
 40
1.0
176
     1
 90
        0
176
     1
 62
    18
420
        0
176
     1
 90
       50
176
     1
 90
        3
176
     1
 62
     5
420
      255
176
     1
290
     0
176
     1
 90
       50
176
     1
 90
       50
176
     1
 90
       50
176
     1
290
     0
176
     1
 90
       50
176
     1
 62
   256
176
     0
 40
1.0
176
     0
 90
        2
176
     1
  1
strokes_ogs.tif
176
     1
290
     0
176
     1
 40
1.0
176
     1
 40
1.0
176
     1
  0
VISUALSTYLE
  5
3C
102
{ACAD_REACTORS
330
29
102
}
330
29
100
AcDbVisualStyle
  2
X-Ray
 70
    25
177
     3
291
     0
 70
    58
 90
        2
176
     1
 90
        2
176
     1
 90
        1
176
     1
 90
        1
176
     1
 40
0.5
176
     1
 40
30.0
176
     1
 62
     7
420
 16777215
176
     1
 90
        1
176
     1
 90
        0
176
     1
 62
     7
176
     1
 62
   257
176
     1
 90
        1
176
     1
 90
        1
176
     1
 40
1.0
176
     1
 90
        8
176
     1
 62
     7
176
     1
 40
1.0
176
     1
 90
        1
176
     1
 90
        6
176
     1
 90
        2
176
     1
 62
     7
176
     1
 90
        3
176
     1
 90
        0
176
     1
 90
        0
176
     1
290
     0
176
     1
 90
       13
176
     1
 40
0.0
176
     1
 90
        0
176
     1
290
     0
176
     1
290
     1
176
     1
290
     1
176
     1
290
     0
176
     1
290
     0
176
     1
290
     0
176
     1
290
     0
176
     1
290
     0
176
     1
290
     0
176
     1
 90
       50
176
     1
 40
0.0
176
     1
 40
1.0
176
     1
 90
        0
176
     1
 62
    18
420
        0
176
     1
 90
       50
176
     1
 90
        3
176
     1
 62
     5
420
      255
176
     1
290
     0
176
     1
 90
       50
176
     1
 90
       50
176
     1
 90
       50
176
     1
290
     0
176
     1
 90
       50
176
     1
 62
   256
176
     0
 40
1.0
176
     0
 90
        2
176
     1
  1
strokes_ogs.tif
176
     1
290
     0
176
     1
 40
1.0
176
     1
 40
1.0
176
     1
  0
DICTIONARYVAR
  5
AB
102
{ACAD_REACTORS
330
A6
102
}
330
A6
100
DictionaryVariables
280
     0
  1
1:1
  0
DICTIONARYVAR
  5
A8
102
{ACAD_REACTORS
330
A6
102
}
330
A6
100
DictionaryVariables
280
     0
  1
STANDARD
  0
DICTIONARYVAR
  5
A7
102
{ACAD_REACTORS
330
A6
102
}
330
A6
100
DictionaryVariables
280
     0
  1
STANDARD
  0
DICTIONARYVAR
  5
A9
102
{ACAD_REACTORS
330
A6
102
}
330
A6
100
DictionaryVariables
280
     0
  1
Imperial24
  0
DICTIONARYVAR
  5
AA
102
{ACAD_REACTORS
330
A6
102
}
330
A6
100
DictionaryVariables
280
     0
  1
Imperial24
  0
DICTIONARY
  5
1A
330
19
100
AcDbDictionary
280
     1
281
     1
  3
BUMPTILE
360
1C
  3
DIFFUSETILE
360
1B
  3
OPACITYTILE
360
1F
  3
REFLECTIONTILE
360
1E
  3
REFRACTIONTILE
360
20
  3
SPECULARTILE
360
1D
  0
DICTIONARY
  5
12
330
11
100
AcDbDictionary
280
     1
281
     1
  3
BUMPTILE
360
14
  3
DIFFUSETILE
360
13
  3
OPACITYTILE
360
17
  3
REFLECTIONTILE
360
16
  3
REFRACTIONTILE
360
18
  3
SPECULARTILE
360
15
  0
DICTIONARY
  5
22
330
21
100
AcDbDictionary
280
     1
281
     1
  3
BUMPTILE
360
24
  3
DIFFUSETILE
360
23
  3
OPACITYTILE
360
27
  3
REFLECTIONTILE
360
26
  3
REFRACTIONTILE
360
28
  3
SPECULARTILE
360
25
  0
DICTIONARY
  5
AC
330
65
100
AcDbDictionary
280
     1
281
     1
  3
ACAD_ROUNDTRIP_2008_TABLESTYLE_CELLSTYLEMAP
360
AD
  0
XRECORD
  5
1C
102
{ACAD_REACTORS
330
1A
102
}
330
1A
100
AcDbXrecord
280
     1
270
     1
271
     1
  0
XRECORD
  5
1B
102
{ACAD_REACTORS
330
1A
102
}
330
1A
100
AcDbXrecord
280
     1
270
     1
271
     1
  0
XRECORD
  5
1F
102
{ACAD_REACTORS
330
1A
102
}
330
1A
100
AcDbXrecord
280
     1
270
     1
271
     1
  0
XRECORD
  5
1E
102
{ACAD_REACTORS
330
1A
102
}
330
1A
100
AcDbXrecord
280
     1
270
     1
271
     1
  0
XRECORD
  5
20
102
{ACAD_REACTORS
330
1A
102
}
330
1A
100
AcDbXrecord
280
     1
270
     1
271
     1
  0
XRECORD
  5
1D
102
{ACAD_REACTORS
330
1A
102
}
330
1A
100
AcDbXrecord
280
     1
270
     1
271
     1
  0
XRECORD
  5
14
102
{ACAD_REACTORS
330
12
102
}
330
12
100
AcDbXrecord
280
     1
270
     1
271
     1
  0
XRECORD
  5
13
102
{ACAD_REACTORS
330
12
102
}
330
12
100
AcDbXrecord
280
     1
270
     1
271
     1
  0
XRECORD
  5
17
102
{ACAD_REACTORS
330
12
102
}
330
12
100
AcDbXrecord
280
     1
270
     1
271
     1
  0
XRECORD
  5
16
102
{ACAD_REACTORS
330
12
102
}
330
12
100
AcDbXrecord
280
     1
270
     1
271
     1
  0
XRECORD
  5
18
102
{ACAD_REACTORS
330
12
102
}
330
12
100
AcDbXrecord
280
     1
270
     1
271
     1
  0
XRECORD
  5
15
102
{ACAD_REACTORS
330
12
102
}
330
12
100
AcDbXrecord
280
     1
270
     1
271
     1
  0
XRECORD
  5
24
102
{ACAD_REACTORS
330
22
102
}
330
22
100
AcDbXrecord
280
     1
270
     1
271
     1
  0
XRECORD
  5
23
102
{ACAD_REACTORS
330
22
102
}
330
22
100
AcDbXrecord
280
     1
270
     1
271
     1
  0
XRECORD
  5
27
102
{ACAD_REACTORS
330
22
102
}
330
22
100
AcDbXrecord
280
     1
270
     1
271
     1
  0
XRECORD
  5
26
102
{ACAD_REACTORS
330
22
102
}
330
22
100
AcDbXrecord
280
     1
270
     1
271
     1
  0
XRECORD
  5
28
102
{ACAD_REACTORS
330
22
102
}
330
22
100
AcDbXrecord
280
     1
270
     1
271
     1
  0
XRECORD
  5
25
102
{ACAD_REACTORS
330
22
102
}
330
22
100
AcDbXrecord
280
     1
270
     1
271
     1
  0
CELLSTYLEMAP
  5
AD
102
{ACAD_REACTORS
330
AC
102
}
330
AC
100
AcDbCellStyleMap
 90
        3
300
CELLSTYLE
  1
TABLEFORMAT_BEGIN
 90
        5
170
     1
 91
        0
 92
    32768
 62
   257
 93
        1
300
CONTENTFORMAT
  1
CONTENTFORMAT_BEGIN
 90
        0
 91
        0
 92
      512
 93
        0
300

 40
0.0
140
1.0
 94
        5
 62
     0
340
55
144
0.25
309
CONTENTFORMAT_END
171
     0
 94
        0
309
TABLEFORMAT_END
  1
CELLSTYLE_BEGIN
 90
        1
 91
        1
300
_TITLE
309
CELLSTYLE_END
300
CELLSTYLE
  1
TABLEFORMAT_BEGIN
 90
        5
170
     1
 91
        0
 92
        0
 62
   257
 93
        1
300
CONTENTFORMAT
  1
CONTENTFORMAT_BEGIN
 90
        0
 91
        0
 92
      512
 93
        0
300

 40
0.0
140
1.0
 94
        5
 62
     0
340
55
144
0.18
309
CONTENTFORMAT_END
171
     0
 94
        0
309
TABLEFORMAT_END
  1
CELLSTYLE_BEGIN
 90
        2
 91
        1
300
_HEADER
309
CELLSTYLE_END
300
CELLSTYLE
  1
TABLEFORMAT_BEGIN
 90
        5
170
     1
 91
        0
 92
        0
 62
   257
 93
        1
300
CONTENTFORMAT
  1
CONTENTFORMAT_BEGIN
 90
        0
 91
        0
 92
      512
 93
        0
300

 40
0.0
140
1.0
 94
        2
 62
     0
340
55
144
0.18
309
CONTENTFORMAT_END
171
     0
 94
        0
309
TABLEFORMAT_END
  1
CELLSTYLE_BEGIN
 90
        3
 91
        2
300
_DATA
309
CELLSTYLE_END
  0
ENDSEC
  0
EOF
