  0
SECTION
  2
HEADER
  9
$ACADVER
  1
AC1032
  9
$ACADMAINTVER
 90
      251
  9
$DWGCODEPAGE
  3
ANSI_1252
  9
$REQUIREDVERSIONS
160
                 0
  9
$INSBASE
 10
0.0
 20
0.0
 30
0.0
  9
$EXTMIN
 10
1.000000000000000E+20
 20
1.000000000000000E+20
 30
1.000000000000000E+20
  9
$EXTMAX
 10
-1.000000000000000E+20
 20
-1.000000000000000E+20
 30
-1.000000000000000E+20
  9
$LIMMIN
 10
0.0
 20
0.0
  9
$LIMMAX
 10
12.0
 20
9.0
  9
$ORTHOMODE
 70
     0
  9
$REGENMODE
 70
     1
  9
$FILLMODE
 70
     1
  9
$QTEXTMODE
 70
     0
  9
$MIRRTEXT
 70
     0
  9
$LTSCALE
 40
1.0
  9
$ATTMODE
 70
     1
  9
$TEXTSIZE
 40
0.2
  9
$TRACEWID
 40
0.05
  9
$TEXTSTYLE
  7
Standard
  9
$CLAYER
  8
0
  9
$CELTYPE
  6
ByLayer
  9
$CECOLOR
 62
   256
  9
$CELTSCALE
 40
1.0
  9
$DISPSILH
 70
     0
  9
$DIMSCALE
 40
1.0
  9
$DIMASZ
 40
0.18
  9
$DIMEXO
 40
0.0625
  9
$DIMDLI
 40
0.38
  9
$DIMRND
 40
0.0
  9
$DIMDLE
 40
0.0
  9
$DIMEXE
 40
0.18
  9
$DIMTP
 40
0.0
  9
$DIMTM
 40
0.0
  9
$DIMTXT
 40
0.18
  9
$DIMCEN
 40
0.09
  9
$DIMTSZ
 40
0.0
  9
$DIMTOL
 70
     0
  9
$DIMLIM
 70
     0
  9
$DIMTIH
 70
     1
  9
$DIMTOH
 70
     1
  9
$DIMSE1
 70
     0
  9
$DIMSE2
 70
     0
  9
$DIMTAD
 70
     0
  9
$DIMZIN
 70
     0
  9
$DIMBLK
  1

  9
$DIMASO
 70
     1
  9
$DIMSHO
 70
     1
  9
$DIMPOST
  1

  9
$DIMAPOST
  1

  9
$DIMALT
 70
     0
  9
$DIMALTD
 70
     2
  9
$DIMALTF
 40
25.4
  9
$DIMLFAC
 40
1.0
  9
$DIMTOFL
 70
     0
  9
$DIMTVP
 40
0.0
  9
$DIMTIX
 70
     0
  9
$DIMSOXD
 70
     0
  9
$DIMSAH
 70
     0
  9
$DIMBLK1
  1

  9
$DIMBLK2
  1

  9
$DIMSTYLE
  2
Standard
  9
$DIMCLRD
 70
     0
  9
$DIMCLRE
 70
     0
  9
$DIMCLRT
 70
     0
  9
$DIMTFAC
 40
1.0
  9
$DIMGAP
 40
0.09
  9
$DIMJUST
 70
     0
  9
$DIMSD1
 70
     0
  9
$DIMSD2
 70
     0
  9
$DIMTOLJ
 70
     1
  9
$DIMTZIN
 70
     0
  9
$DIMALTZ
 70
     0
  9
$DIMALTTZ
 70
     0
  9
$DIMUPT
 70
     0
  9
$DIMDEC
 70
     4
  9
$DIMTDEC
 70
     4
  9
$DIMALTU
 70
     2
  9
$DIMALTTD
 70
     2
  9
$DIMTXSTY
  7
Standard
  9
$DIMAUNIT
 70
     0
  9
$DIMADEC
 70
     0
  9
$DIMALTRND
 40
0.0
  9
$DIMAZIN
 70
     0
  9
$DIMDSEP
 70
    46
  9
$DIMATFIT
 70
     3
  9
$DIMFRAC
 70
     0
  9
$DIMLDRBLK
  1

  9
$DIMLUNIT
 70
     2
  9
$DIMLWD
 70
    -2
  9
$DIMLWE
 70
    -2
  9
$DIMTMOVE
 70
     0
  9
$DIMFXL
 40
1.0
  9
$DIMFXLON
 70
     0
  9
$DIMJOGANG
 40
0.7853981633974483
  9
$DIMTFILL
 70
     0
  9
$DIMTFILLCLR
 70
     0
  9
$DIMARCSYM
 70
     0
  9
$DIMLTYPE
  6

  9
$DIMLTEX1
  6

  9
$DIMLTEX2
  6

  9
$DIMTXTDIRECTION
 70
     0
  9
$LUNITS
 70
     2
  9
$LUPREC
 70
     4
  9
$SKETCHINC
 40
0.1
  9
$FILLETRAD
 40
0.0
  9
$AUNITS
 70
     0
  9
$AUPREC
 70
     0
  9
$MENU
  1
.
  9
$ELEVATION
 40
0.0
  9
$PELEVATION
 40
0.0
  9
$THICKNESS
 40
0.0
  9
$LIMCHECK
 70
     0
  9
$CHAMFERA
 40
0.0
  9
$CHAMFERB
 40
0.0
  9
$CHAMFERC
 40
0.0
  9
$CHAMFERD
 40
0.0
  9
$SKPOLY
 70
     0
  9
$TDCREATE
 40
2459989.479756945
  9
$TDUCREATE
 40
2459989.438090278
  9
$TDUPDATE
 40
2459989.479756945
  9
$TDUUPDATE
 40
2459989.438090278
  9
$TDINDWG
 40
0.0000000000
  9
$TDUSRTIMER
 40
0.0000000000
  9
$USRTIMER
 70
     1
  9
$ANGBASE
 50
0.0
  9
$ANGDIR
 70
     0
  9
$PDMODE
 70
     0
  9
$PDSIZE
 40
0.0
  9
$PLINEWID
 40
0.0
  9
$SPLFRAME
 70
     0
  9
$SPLINETYPE
 70
     6
  9
$SPLINESEGS
 70
     8
  9
$HANDSEED
  5
9F
  9
$SURFTAB1
 70
     6
  9
$SURFTAB2
 70
     6
  9
$SURFTYPE
 70
     6
  9
$SURFU
 70
     6
  9
$SURFV
 70
     6
  9
$UCSBASE
  2

  9
$UCSNAME
  2

  9
$UCSORG
 10
0.0
 20
0.0
 30
0.0
  9
$UCSXDIR
 10
1.0
 20
0.0
 30
0.0
  9
$UCSYDIR
 10
0.0
 20
1.0
 30
0.0
  9
$UCSORTHOREF
  2

  9
$UCSORTHOVIEW
 70
     0
  9
$UCSORGTOP
 10
0.0
 20
0.0
 30
0.0
  9
$UCSORGBOTTOM
 10
0.0
 20
0.0
 30
0.0
  9
$UCSORGLEFT
 10
0.0
 20
0.0
 30
0.0
  9
$UCSORGRIGHT
 10
0.0
 20
0.0
 30
0.0
  9
$UCSORGFRONT
 10
0.0
 20
0.0
 30
0.0
  9
$UCSORGBACK
 10
0.0
 20
0.0
 30
0.0
  9
$PUCSBASE
  2

  9
$PUCSNAME
  2

  9
$PUCSORG
 10
0.0
 20
0.0
 30
0.0
  9
$PUCSXDIR
 10
1.0
 20
0.0
 30
0.0
  9
$PUCSYDIR
 10
0.0
 20
1.0
 30
0.0
  9
$PUCSORTHOREF
  2

  9
$PUCSORTHOVIEW
 70
     0
  9
$PUCSORGTOP
 10
0.0
 20
0.0
 30
0.0
  9
$PUCSORGBOTTOM
 10
0.0
 20
0.0
 30
0.0
  9
$PUCSORGLEFT
 10
0.0
 20
0.0
 30
0.0
  9
$PUCSORGRIGHT
 10
0.0
 20
0.0
 30
0.0
  9
$PUCSORGFRONT
 10
0.0
 20
0.0
 30
0.0
  9
$PUCSORGBACK
 10
0.0
 20
0.0
 30
0.0
  9
$USERI1
 70
     0
  9
$USERI2
 70
     0
  9
$USERI3
 70
     0
  9
$USERI4
 70
     0
  9
$USERI5
 70
     0
  9
$USERR1
 40
0.0
  9
$USERR2
 40
0.0
  9
$USERR3
 40
0.0
  9
$USERR4
 40
0.0
  9
$USERR5
 40
0.0
  9
$WORLDVIEW
 70
     1
  9
$SHADEDGE
 70
     3
  9
$SHADEDIF
 70
    70
  9
$TILEMODE
 70
     1
  9
$MAXACTVP
 70
    64
  9
$PINSBASE
 10
0.0
 20
0.0
 30
0.0
  9
$PLIMCHECK
 70
     0
  9
$PEXTMIN
 10
1.000000000000000E+20
 20
1.000000000000000E+20
 30
1.000000000000000E+20
  9
$PEXTMAX
 10
-1.000000000000000E+20
 20
-1.000000000000000E+20
 30
-1.000000000000000E+20
  9
$PLIMMIN
 10
0.0
 20
0.0
  9
$PLIMMAX
 10
12.0
 20
9.0
  9
$UNITMODE
 70
     0
  9
$VISRETAIN
 70
     1
  9
$PLINEGEN
 70
     0
  9
$PSLTSCALE
 70
     1
  9
$TREEDEPTH
 70
  3020
  9
$CMLSTYLE
  2
Standard
  9
$CMLJUST
 70
     0
  9
$CMLSCALE
 40
1.0
  9
$PROXYGRAPHICS
 70
     1
  9
$MEASUREMENT
 70
     0
  9
$CELWEIGHT
370
    -1
  9
$ENDCAPS
280
     0
  9
$JOINSTYLE
280
     0
  9
$LWDISPLAY
290
     1
  9
$INSUNITS
 70
     4
  9
$HYPERLINKBASE
  1

  9
$STYLESHEET
  1

  9
$XEDIT
290
     1
  9
$CEPSNTYPE
380
     0
  9
$PSTYLEMODE
290
     1
  9
$FINGERPRINTGUID
  2
{5A0F69B5-3FFE-4A40-BA2B-504DE34DA7A3}
  9
$VERSIONGUID
  2
{AC0F6984-565F-2B42-8C84-05745C863858}
  9
$EXTNAMES
290
     1
  9
$PSVPSCALE
 40
0.0
  9
$OLESTARTUP
290
     0
  9
$SORTENTS
280
   127
  9
$INDEXCTL
280
     0
  9
$HIDETEXT
280
     1
  9
$XCLIPFRAME
280
     2
  9
$HALOGAP
280
     0
  9
$OBSCOLOR
 70
   257
  9
$OBSLTYPE
280
     0
  9
$INTERSECTIONDISPLAY
280
     0
  9
$INTERSECTIONCOLOR
 70
   257
  9
$DIMASSOC
280
     2
  9
$PROJECTNAME
  1

  9
$CAMERADISPLAY
290
     0
  9
$LENSLENGTH
 40
50.0
  9
$CAMERAHEIGHT
 40
0.0
  9
$STEPSPERSEC
 40
2.0
  9
$STEPSIZE
 40
6.0
  9
$3DDWFPREC
 40
2.0
  9
$PSOLWIDTH
 40
0.25
  9
$PSOLHEIGHT
 40
4.0
  9
$LOFTANG1
 40
1.570796326794896
  9
$LOFTANG2
 40
1.570796326794896
  9
$LOFTMAG1
 40
0.0
  9
$LOFTMAG2
 40
0.0
  9
$LOFTPARAM
 70
     7
  9
$LOFTNORMALS
280
     1
  9
$LATITUDE
 40
37.795
  9
$LONGITUDE
 40
-122.394
  9
$NORTHDIRECTION
 40
0.0
  9
$TIMEZONE
 70
 -8000
  9
$LIGHTGLYPHDISPLAY
280
     1
  9
$TILEMODELIGHTSYNCH
280
     1
  9
$CMATERIAL
347
11
  9
$SOLIDHIST
280
     0
  9
$SHOWHIST
280
     1
  9
$DWFFRAME
280
     2
  9
$DGNFRAME
280
     0
  9
$REALWORLDSCALE
290
     1
  9
$INTERFERECOLOR
 62
     1
  9
$INTERFEREOBJVS
345
33
  9
$INTERFEREVPVS
346
30
  9
$CSHADOW
280
     0
  9
$SHADOWPLANELOCATION
 40
0.0
  0
ENDSEC
  0
SECTION
  2
CLASSES
  0
CLASS
  1
ACDBDICTIONARYWDFLT
  2
AcDbDictionaryWithDefault
  3
ObjectDBX Classes
 90
        0
 91
        1
280
     0
281
     0
  0
CLASS
  1
MATERIAL
  2
AcDbMaterial
  3
ObjectDBX Classes
 90
     1153
 91
        3
280
     0
281
     0
  0
CLASS
  1
VISUALSTYLE
  2
AcDbVisualStyle
  3
ObjectDBX Classes
 90
     4095
 91
       24
280
     0
281
     0
  0
CLASS
  1
SCALE
  2
AcDbScale
  3
ObjectDBX Classes
 90
     1153
 91
       17
280
     0
281
     0
  0
CLASS
  1
TABLESTYLE
  2
AcDbTableStyle
  3
ObjectDBX Classes
 90
     4095
 91
        1
280
     0
281
     0
  0
CLASS
  1
MLEADERSTYLE
  2
AcDbMLeaderStyle
  3
ACDB_MLEADERSTYLE_CLASS
 90
     4095
 91
        1
280
     0
281
     0
  0
CLASS
  1
ACDBSECTIONVIEWSTYLE
  2
AcDbSectionViewStyle
  3
ObjectDBX Classes
 90
     1025
 91
        1
280
     0
281
     0
  0
CLASS
  1
ACDBDETAILVIEWSTYLE
  2
AcDbDetailViewStyle
  3
ObjectDBX Classes
 90
     1025
 91
        1
280
     0
281
     0
  0
CLASS
  1
DICTIONARYVAR
  2
AcDbDictionaryVar
  3
ObjectDBX Classes
 90
        0
 91
        5
280
     0
281
     0
  0
CLASS
  1
CELLSTYLEMAP
  2
AcDbCellStyleMap
  3
ObjectDBX Classes
 90
     1152
 91
        1
280
     0
281
     0
  0
ENDSEC
  0
SECTION
  2
TABLES
  0
TABLE
  2
VPORT
  5
8
330
0
100
AcDbSymbolTable
 70
     1
  0
VPORT
  5
57
330
8
100
AcDbSymbolTableRecord
100
AcDbViewportTableRecord
  2
*Active
 70
     0
 10
0.0
 20
0.0
 11
1.0
 21
1.0
 12
0.0
 22
0.0
 13
0.0
 23
0.0
 14
1.0
 24
1.0
 15
0.0
 25
0.0
 16
0.0
 26
0.0
 36
1.0
 17
600.1529968850094
 27
-1000.168184874562
 37
0.0
 40
2040.449791156555
 41
0.6000881750030808
 42
50.0
 43
0.0
 44
0.0
 50
0.0
 51
0.0
 71
     0
 72
   100
 73
     1
 74
     1
 75
     0
 76
     0
 77
     0
 78
     0
281
     0
 65
     1
110
0.0
120
0.0
130
0.0
111
1.0
121
0.0
131
0.0
112
0.0
122
1.0
132
0.0
 79
     0
146
0.0
 60
     3
 61
     5
292
     1
282
     1
141
0.0
142
0.0
 63
   250
421
  3355443
  0
ENDTAB
  0
TABLE
  2
LTYPE
  5
5
330
0
100
AcDbSymbolTable
 70
     1
  0
LTYPE
  5
5B
330
5
100
AcDbSymbolTableRecord
100
AcDbLinetypeTableRecord
  2
ByBlock
 70
     0
  3

 72
    65
 73
     0
 40
0.0
  0
LTYPE
  5
5C
330
5
100
AcDbSymbolTableRecord
100
AcDbLinetypeTableRecord
  2
ByLayer
 70
     0
  3

 72
    65
 73
     0
 40
0.0
  0
LTYPE
  5
5D
330
5
100
AcDbSymbolTableRecord
100
AcDbLinetypeTableRecord
  2
Continuous
 70
     0
  3
Solid line
 72
    65
 73
     0
 40
0.0
  0
ENDTAB
  0
TABLE
  2
LAYER
  5
2
330
0
100
AcDbSymbolTable
 70
     8
  0
LAYER
  5
54
330
2
100
AcDbSymbolTableRecord
100
AcDbLayerTableRecord
  2
0
 70
     0
 62
     7
  6
Continuous
370
    -3
390
F
347
21
348
0
  0
LAYER
  5
78
330
2
100
AcDbSymbolTableRecord
100
AcDbLayerTableRecord
  2
Bounding Box
 70
     0
 62
     7
  6
Continuous
370
     0
390
F
347
21
348
0
  0
LAYER
  5
7A
330
2
100
AcDbSymbolTableRecord
100
AcDbLayerTableRecord
  2
Screws
 70
     0
 62
     7
  6
Continuous
370
     0
390
F
347
21
348
0
  0
LAYER
  5
83
330
2
100
AcDbSymbolTableRecord
100
AcDbLayerTableRecord
  2
2023-004
 70
     5
 62
     7
  6
Continuous
370
     0
390
F
347
21
348
0
  0
LAYER
  5
84
330
2
100
AcDbSymbolTableRecord
100
AcDbLayerTableRecord
  2
2023-003
 70
     5
 62
     7
  6
Continuous
370
     0
390
F
347
21
348
0
  0
LAYER
  5
85
330
2
100
AcDbSymbolTableRecord
100
AcDbLayerTableRecord
  2
2023-002
 70
     5
 62
     7
  6
Continuous
370
     0
390
F
347
21
348
0
  0
LAYER
  5
86
330
2
100
AcDbSymbolTableRecord
100
AcDbLayerTableRecord
  2
2023-001
 70
     0
 62
     7
  6
Continuous
370
     0
390
F
347
21
348
0
  0
LAYER
  5
95
330
2
100
AcDbSymbolTableRecord
100
AcDbLayerTableRecord
  2
10-2022-057
 70
     5
 62
     7
  6
Continuous
370
     0
390
F
347
21
348
0
  0
ENDTAB
  0
TABLE
  2
STYLE
  5
3
330
0
100
AcDbSymbolTable
 70
     2
  0
STYLE
  5
55
330
3
100
AcDbSymbolTableRecord
100
AcDbTextStyleTableRecord
  2
Standard
 70
     0
 40
0.0
 41
1.0
 50
0.0
 71
     0
 42
0.2
  3
txt
  4

  0
STYLE
  5
5A
330
3
100
AcDbSymbolTableRecord
100
AcDbTextStyleTableRecord
  2
Annotative
 70
     0
 40
0.0
 41
1.0
 50
0.0
 71
     0
 42
0.2
  3
txt
  4

1001
AcadAnnotative
1000
AnnotativeData
1002
{
1070
     1
1070
     1
1002
}
  0
ENDTAB
  0
TABLE
  2
VIEW
  5
6
330
0
100
AcDbSymbolTable
 70
     0
  0
ENDTAB
  0
TABLE
  2
UCS
  5
7
330
0
100
AcDbSymbolTable
 70
     0
  0
ENDTAB
  0
TABLE
  2
APPID
  5
9
330
0
100
AcDbSymbolTable
 70
     2
  0
APPID
  5
56
330
9
100
AcDbSymbolTableRecord
100
AcDbRegAppTableRecord
  2
ACAD
 70
     0
  0
APPID
  5
5E
330
9
100
AcDbSymbolTableRecord
100
AcDbRegAppTableRecord
  2
AcadAnnotative
 70
     0
  0
ENDTAB
  0
TABLE
  2
DIMSTYLE
  5
A
330
0
100
AcDbSymbolTable
 70
     2
100
AcDbDimStyleTable
 71
     0
  0
DIMSTYLE
105
58
330
A
100
AcDbSymbolTableRecord
100
AcDbDimStyleTableRecord
  2
Standard
 70
     0
340
55
  0
DIMSTYLE
105
59
330
A
100
AcDbSymbolTableRecord
100
AcDbDimStyleTableRecord
  2
Annotative
 70
     0
340
55
1001
AcadAnnotative
1000
AnnotativeData
1002
{
1070
     1
1070
     1
1002
}
  0
ENDTAB
  0
TABLE
  2
BLOCK_RECORD
  5
1
330
0
100
AcDbSymbolTable
 70
     1
  0
BLOCK_RECORD
  5
70
330
1
100
AcDbSymbolTableRecord
100
AcDbBlockTableRecord
  2
*Model_Space
340
73
 70
     0
280
     1
281
     0
  0
BLOCK_RECORD
  5
6C
330
1
100
AcDbSymbolTableRecord
100
AcDbBlockTableRecord
  2
*Paper_Space
340
6F
 70
     0
280
     1
281
     0
  0
BLOCK_RECORD
  5
74
330
1
100
AcDbSymbolTableRecord
100
AcDbBlockTableRecord
  2
*Paper_Space0
340
77
 70
     0
280
     1
281
     0
  0
ENDTAB
  0
ENDSEC
  0
SECTION
  2
BLOCKS
  0
BLOCK
  5
71
330
70
100
AcDbEntity
  8
0
100
AcDbBlockBegin
  2
*Model_Space
 70
     0
 10
0.0
 20
0.0
 30
0.0
  3
*Model_Space
  1

  0
ENDBLK
  5
72
330
70
100
AcDbEntity
  8
0
100
AcDbBlockEnd
  0
BLOCK
  5
6D
330
6C
100
AcDbEntity
 67
     1
  8
0
100
AcDbBlockBegin
  2
*Paper_Space
 70
     0
 10
0.0
 20
0.0
 30
0.0
  3
*Paper_Space
  1

  0
ENDBLK
  5
6E
330
6C
100
AcDbEntity
 67
     1
  8
0
100
AcDbBlockEnd
  0
BLOCK
  5
75
330
74
100
AcDbEntity
 67
     1
  8
0
100
AcDbBlockBegin
  2
*Paper_Space0
 70
     0
 10
0.0
 20
0.0
 30
0.0
  3
*Paper_Space0
  1

  0
ENDBLK
  5
76
330
74
100
AcDbEntity
 67
     1
  8
0
100
AcDbBlockEnd
  0
ENDSEC
  0
SECTION
  2
ENTITIES
  0
LWPOLYLINE
  5
79
330
70
100
AcDbEntity
  8
Bounding Box
 62
    18
420
        0
370
    40
100
AcDbPolyline
 90
        4
 70
     1
 43
0.0
 10
1200.152996735009
 20
-2000.168184624562
 10
0.1529970350094219
 20
-2000.168184624562
 10
0.1529970350094219
 20
-0.1681851245616323
 10
1200.152996735009
 20
-0.1681851245616323
  0
ELLIPSE
  5
7B
330
70
100
AcDbEntity
  8
Screws
100
AcDbEllipse
 10
17.342316281568
 20
-1982.358092505099
 30
0.0
 11
2.557638888249479
 21
0.0
 31
0.0
210
0.0
220
0.0
230
1.0
 40
0.9655172413793103
 41
0.0
 42
6.283185307179586
  0
HATCH
  5
7C
330
70
100
AcDbEntity
  8
Screws
 62
    18
420
        0
440
 33554687
100
AcDbHatch
 10
0.0
 20
0.0
 30
0.0
210
0.0
220
0.0
230
1.0
  2
SOLID
 70
     1
 71
     1
 91
        1
 92
        1
 93
        1
 72
     3
 10
17.342316281568
 20
-1982.358092505099
 11
2.557638888249479
 21
0.0
 40
0.9655172413793103
 50
0.0
 51
360.0
 73
     1
 97
        1
330
7B
 75
     2
 76
     1
 98
        1
 10
0.0
 20
0.0
450
        0
451
        0
460
0.0
461
0.0
452
        0
462
0.0
453
        0
470

  0
ELLIPSE
  5
7D
330
70
100
AcDbEntity
  8
Screws
100
AcDbEllipse
 10
1182.38037163908
 20
-1982.387911349826
 30
0.0
 11
2.557638888249479
 21
0.0
 31
0.0
210
0.0
220
0.0
230
1.0
 40
0.9655172413793103
 41
0.0
 42
6.283185307179586
  0
HATCH
  5
7E
330
70
100
AcDbEntity
  8
Screws
 62
    18
420
        0
440
 33554687
100
AcDbHatch
 10
0.0
 20
0.0
 30
0.0
210
0.0
220
0.0
230
1.0
  2
SOLID
 70
     1
 71
     1
 91
        1
 92
        1
 93
        1
 72
     3
 10
1182.38037163908
 20
-1982.387911349826
 11
2.557638888249479
 21
0.0
 40
0.9655172413793103
 50
0.0
 51
360.0
 73
     1
 97
        1
330
7D
 75
     2
 76
     1
 98
        1
 10
0.0
 20
0.0
450
        0
451
        0
460
0.0
461
0.0
452
        0
462
0.0
453
        0
470

  0
ELLIPSE
  5
7F
330
70
100
AcDbEntity
  8
Screws
100
AcDbEllipse
 10
1182.644954972347
 20
-17.53202921959431
 30
0.0
 11
2.557638888249479
 21
0.0
 31
0.0
210
0.0
220
0.0
230
1.0
 40
0.9655172413793103
 41
0.0
 42
6.283185307179586
  0
HATCH
  5
80
330
70
100
AcDbEntity
  8
Screws
 62
    18
420
        0
440
 33554687
100
AcDbHatch
 10
0.0
 20
0.0
 30
0.0
210
0.0
220
0.0
230
1.0
  2
SOLID
 70
     1
 71
     1
 91
        1
 92
        1
 93
        1
 72
     3
 10
1182.644954972347
 20
-17.53202921959431
 11
2.557638888249479
 21
0.0
 40
0.9655172413793103
 50
0.0
 51
360.0
 73
     1
 97
        1
330
7F
 75
     2
 76
     1
 98
        1
 10
0.0
 20
0.0
450
        0
451
        0
460
0.0
461
0.0
452
        0
462
0.0
453
        0
470

  0
ELLIPSE
  5
81
330
70
100
AcDbEntity
  8
Screws
100
AcDbEllipse
 10
17.43471861274107
 20
-17.53202921959431
 30
0.0
 11
2.557638888249479
 21
0.0
 31
0.0
210
0.0
220
0.0
230
1.0
 40
0.9655172413793103
 41
0.0
 42
6.283185307179586
  0
HATCH
  5
82
330
70
100
AcDbEntity
  8
Screws
 62
    18
420
        0
440
 33554687
100
AcDbHatch
 10
0.0
 20
0.0
 30
0.0
210
0.0
220
0.0
230
1.0
  2
SOLID
 70
     1
 71
     1
 91
        1
 92
        1
 93
        1
 72
     3
 10
17.43471861274107
 20
-17.53202921959431
 11
2.557638888249479
 21
0.0
 40
0.9655172413793103
 50
0.0
 51
360.0
 73
     1
 97
        1
330
81
 75
     2
 76
     1
 98
        1
 10
0.0
 20
0.0
450
        0
451
        0
460
0.0
461
0.0
452
        0
462
0.0
453
        0
470

  0
SPLINE
  5
87
330
70
100
AcDbEntity
  8
2023-001
100
AcDbSpline
210
0.0
220
0.0
230
1.0
 70
     9
 71
     3
 72
   122
 73
   118
 74
     0
 42
0.0000000001
 43
0.0000000001
 40
0.0
 40
0.0
 40
0.0
 40
0.0
 40
1.0
 40
1.0
 40
1.0
 40
2.0
 40
2.0
 40
2.0
 40
3.0
 40
3.0
 40
3.0
 40
4.0
 40
4.0
 40
4.0
 40
5.0
 40
5.0
 40
5.0
 40
6.0
 40
6.0
 40
6.0
 40
7.0
 40
7.0
 40
7.0
 40
8.0
 40
8.0
 40
8.0
 40
9.0
 40
9.0
 40
9.0
 40
10.0
 40
10.0
 40
10.0
 40
11.0
 40
11.0
 40
11.0
 40
12.0
 40
12.0
 40
12.0
 40
13.0
 40
13.0
 40
13.0
 40
14.0
 40
14.0
 40
14.0
 40
15.0
 40
15.0
 40
15.0
 40
16.0
 40
16.0
 40
16.0
 40
17.0
 40
17.0
 40
17.0
 40
18.0
 40
18.0
 40
18.0
 40
19.0
 40
19.0
 40
19.0
 40
20.0
 40
20.0
 40
20.0
 40
21.0
 40
21.0
 40
21.0
 40
22.0
 40
22.0
 40
22.0
 40
23.0
 40
23.0
 40
23.0
 40
24.0
 40
24.0
 40
24.0
 40
25.0
 40
25.0
 40
25.0
 40
26.0
 40
26.0
 40
26.0
 40
27.0
 40
27.0
 40
27.0
 40
28.0
 40
28.0
 40
28.0
 40
29.0
 40
29.0
 40
29.0
 40
30.0
 40
30.0
 40
30.0
 40
31.0
 40
31.0
 40
31.0
 40
32.0
 40
32.0
 40
32.0
 40
33.0
 40
33.0
 40
33.0
 40
34.0
 40
34.0
 40
34.0
 40
35.0
 40
35.0
 40
35.0
 40
36.0
 40
36.0
 40
36.0
 40
37.0
 40
37.0
 40
37.0
 40
38.0
 40
38.0
 40
38.0
 40
39.0
 40
39.0
 40
39.0
 40
39.0
 10
1127.204858366708
 20
-1909.966323652406
 30
0.0
 10
1127.313658164384
 20
-1909.278694637859
 30
0.0
 10
1127.422457962057
 20
-1908.591065623311
 30
0.0
 10
1127.531257759734
 20
-1907.903436608764
 30
0.0
 10
1127.617039229035
 20
-1907.361286453503
 30
0.0
 10
1127.438920505006
 20
-1906.82248718648
 30
0.0
 10
1126.892950850316
 20
-1906.60288332881
 30
0.0
 10
1126.387335200866
 20
-1906.399510950577
 30
0.0
 10
1125.801480960652
 20
-1906.571370270143
 30
0.0
 10
1125.516290622433
 20
-1907.05394908679
 30
0.0
 10
1121.878190085184
 20
-1913.21008418966
 30
0.0
 10
1118.522818687952
 20
-1919.532242857967
 30
0.0
 10
1115.470237857162
 20
-1925.998848335612
 30
0.0
 10
1113.959994803279
 20
-1929.198156247892
 30
0.0
 10
1112.483603936972
 20
-1932.424806396142
 30
0.0
 10
1111.220625518004
 20
-1935.731010721802
 30
0.0
 10
1110.592382504911
 20
-1937.375615044614
 30
0.0
 10
1110.023837245878
 20
-1939.044082268917
 30
0.0
 10
1109.553708184468
 20
-1940.741069172538
 30
0.0
 10
1109.123484121168
 20
-1942.294014227348
 30
0.0
 10
1108.680956243409
 20
-1943.917142037915
 30
0.0
 10
1108.592724003691
 20
-1945.533288041614
 30
0.0
 10
1108.512320058828
 20
-1947.006043517261
 30
0.0
 10
1108.890291598222
 20
-1948.533889517915
 30
0.0
 10
1110.127002674313
 20
-1949.445245717342
 30
0.0
 10
1111.507219168635
 20
-1950.462353822032
 30
0.0
 10
1113.360290487171
 20
-1950.134242072521
 30
0.0
 10
1114.846263099868
 20
-1949.556204995922
 30
0.0
 10
1118.010114245444
 20
-1948.325480249479
 30
0.0
 10
1120.811110570513
 20
-1946.25413071601
 30
0.0
 10
1123.624249885887
 20
-1944.391003558887
 30
0.0
 10
1129.229698135731
 20
-1940.678545094757
 30
0.0
 10
1134.776399930764
 20
-1936.874887529813
 30
0.0
 10
1140.476321373713
 20
-1933.307156304751
 30
0.0
 10
1146.150131609971
 20
-1929.755768772908
 30
0.0
 10
1151.985545317657
 20
-1926.43470071739
 30
0.0
 10
1158.112285596621
 20
-1923.723864122563
 30
0.0
 10
1158.849046411645
 20
-1923.397877041658
 30
0.0
 10
1159.58987385866
 20
-1923.081684155599
 30
0.0
 10
1160.33520998077
 20
-1922.775830287782
 30
0.0
 10
1159.977674703193
 20
-1922.161634690505
 30
0.0
 10
1159.620139425617
 20
-1921.547439093228
 30
0.0
 10
1159.26260414804
 20
-1920.933243495952
 30
0.0
 10
1158.88118060716
 20
-1921.241886974991
 30
0.0
 10
1158.499757051566
 20
-1921.550530435848
 30
0.0
 10
1158.118333494133
 20
-1921.859173894431
 30
0.0
 10
1157.655138463312
 20
-1922.233985867958
 30
0.0
 10
1157.728457432102
 20
-1923.028370075252
 30
0.0
 10
1158.118333494133
 20
-1923.418246137282
 30
0.0
 10
1158.576184067546
 20
-1923.876096710695
 30
0.0
 10
1159.213049587284
 20
-1923.793997674555
 30
0.0
 10
1159.677405736984
 20
-1923.418246137282
 30
0.0
 10
1160.058829294418
 20
-1923.1096026787
 30
0.0
 10
1160.440252850012
 20
-1922.800959217843
 30
0.0
 10
1160.821676390891
 20
-1922.492315738804
 30
0.0
 10
1161.654873378466
 20
-1921.818102457743
 30
0.0
 10
1160.754398322114
 20
-1920.237185698487
 30
0.0
 10
1159.749070558162
 20
-1920.649728946973
 30
0.0
 10
1153.680486200005
 20
-1923.140014796619
 30
0.0
 10
1147.887920373872
 20
-1926.22192610083
 30
0.0
 10
1142.276959141202
 20
-1929.610695257125
 30
0.0
 10
1136.659132342004
 20
-1933.003610907956
 30
0.0
 10
1131.218451286496
 20
-1936.677366180093
 30
0.0
 10
1125.762998232098
 20
-1940.322435335062
 30
0.0
 10
1123.044671693508
 20
-1942.138689296034
 30
0.0
 10
1120.342267798532
 20
-1943.996630922629
 30
0.0
 10
1117.556276932898
 20
-1945.70828530971
 30
0.0
 10
1116.223938300882
 20
-1946.526846236345
 30
0.0
 10
1114.80886802739
 20
-1947.352828903694
 30
0.0
 10
1113.285813810033
 20
-1947.756738438425
 30
0.0
 10
1112.755305110916
 20
-1947.897427797601
 30
0.0
 10
1112.132617632884
 20
-1947.986964682001
 30
0.0
 10
1111.69030021782
 20
-1947.816873089049
 30
0.0
 10
1111.181959494061
 20
-1947.62139246694
 30
0.0
 10
1111.007468150502
 20
-1947.271983824303
 30
0.0
 10
1110.886492089128
 20
-1946.814696061593
 30
0.0
 10
1110.753916331781
 20
-1946.313561615836
 30
0.0
 10
1110.765628585255
 20
-1945.733452252013
 30
0.0
 10
1110.833368796796
 20
-1945.09619635659
 30
0.0
 10
1110.834429935077
 20
-1945.086213857126
 30
0.0
 10
1110.860927775014
 20
-1944.882210818075
 30
0.0
 10
1110.841610405518
 20
-1945.018801335483
 30
0.0
 10
1110.850228127163
 20
-1944.957866586647
 30
0.0
 10
1110.860326814654
 20
-1944.897090899668
 30
0.0
 10
1110.870353105148
 20
-1944.836376368802
 30
0.0
 10
1110.895815782338
 20
-1944.682186292112
 30
0.0
 10
1110.925066117347
 20
-1944.528736462677
 30
0.0
 10
1110.955144197125
 20
-1944.37539158757
 30
0.0
 10
1111.03984669377
 20
-1943.943559041563
 30
0.0
 10
1111.132513372782
 20
-1943.513253746788
 30
0.0
 10
1111.231954699482
 20
-1943.084579999577
 30
0.0
 10
1111.617136510877
 20
-1941.424130205457
 30
0.0
 10
1112.107143104461
 20
-1939.789191459716
 30
0.0
 10
1112.666468647646
 20
-1938.179445970857
 30
0.0
 10
1113.770825441775
 20
-1935.001094134261
 30
0.0
 10
1115.142716039414
 20
-1931.924238156748
 30
0.0
 10
1116.55230372033
 20
-1928.871741136536
 30
0.0
 10
1119.467458498206
 20
-1922.558901294499
 30
0.0
 10
1122.668493826294
 20
-1916.378087733571
 30
0.0
 10
1126.142312250095
 20
-1910.354578212111
 30
0.0
 10
1126.56423608034
 20
-1909.622973419126
 30
0.0
 10
1126.990443148794
 20
-1908.893859348348
 30
0.0
 10
1127.420123556224
 20
-1908.16678470813
 30
0.0
 10
1126.748467843791
 20
-1907.883622200806
 30
0.0
 10
1126.076812131358
 20
-1907.60045969348
 30
0.0
 10
1125.405156418924
 20
-1907.317297186156
 30
0.0
 10
1125.296356621248
 20
-1908.004926200703
 30
0.0
 10
1125.187556823575
 20
-1908.692555215251
 30
0.0
 10
1125.078757025899
 20
-1909.380184229798
 30
0.0
 10
1124.985819698415
 20
-1909.967560348849
 30
0.0
 10
1125.229476609044
 20
-1910.566149318485
 30
0.0
 10
1125.848737985
 20
-1910.736304611507
 30
0.0
 10
1126.372890245093
 20
-1910.880326643021
 30
0.0
 10
1127.111263941804
 20
-1910.557852713476
 30
0.0
 10
1127.204858366708
 20
-1909.966323652406
 30
0.0
 10
1127.204858366708
 20
-1909.966323652406
 30
0.0
 10
1127.204858366708
 20
-1909.966323652406
 30
0.0
 10
1127.204858366708
 20
-1909.966323652406
 30
0.0
  0
HATCH
  5
88
330
70
100
AcDbEntity
  8
2023-001
 62
    18
420
        0
440
 33554687
100
AcDbHatch
 10
0.0
 20
0.0
 30
0.0
210
0.0
220
0.0
230
1.0
  2
SOLID
 70
     1
 71
     1
 91
        1
 92
        1
 93
        1
 72
     4
 94
        3
 73
     0
 74
     0
 95
      122
 96
      118
 40
0.0
 40
0.0
 40
0.0
 40
0.0
 40
1.0
 40
1.0
 40
1.0
 40
2.0
 40
2.0
 40
2.0
 40
3.0
 40
3.0
 40
3.0
 40
4.0
 40
4.0
 40
4.0
 40
5.0
 40
5.0
 40
5.0
 40
6.0
 40
6.0
 40
6.0
 40
7.0
 40
7.0
 40
7.0
 40
8.0
 40
8.0
 40
8.0
 40
9.0
 40
9.0
 40
9.0
 40
10.0
 40
10.0
 40
10.0
 40
11.0
 40
11.0
 40
11.0
 40
12.0
 40
12.0
 40
12.0
 40
13.0
 40
13.0
 40
13.0
 40
14.0
 40
14.0
 40
14.0
 40
15.0
 40
15.0
 40
15.0
 40
16.0
 40
16.0
 40
16.0
 40
17.0
 40
17.0
 40
17.0
 40
18.0
 40
18.0
 40
18.0
 40
19.0
 40
19.0
 40
19.0
 40
20.0
 40
20.0
 40
20.0
 40
21.0
 40
21.0
 40
21.0
 40
22.0
 40
22.0
 40
22.0
 40
23.0
 40
23.0
 40
23.0
 40
24.0
 40
24.0
 40
24.0
 40
25.0
 40
25.0
 40
25.0
 40
26.0
 40
26.0
 40
26.0
 40
27.0
 40
27.0
 40
27.0
 40
28.0
 40
28.0
 40
28.0
 40
29.0
 40
29.0
 40
29.0
 40
30.0
 40
30.0
 40
30.0
 40
31.0
 40
31.0
 40
31.0
 40
32.0
 40
32.0
 40
32.0
 40
33.0
 40
33.0
 40
33.0
 40
34.0
 40
34.0
 40
34.0
 40
35.0
 40
35.0
 40
35.0
 40
36.0
 40
36.0
 40
36.0
 40
37.0
 40
37.0
 40
37.0
 40
38.0
 40
38.0
 40
38.0
 40
39.0
 40
39.0
 40
39.0
 40
39.0
 10
1127.204858366708
 20
-1909.966323652406
 10
1127.313658164384
 20
-1909.278694637859
 10
1127.422457962057
 20
-1908.591065623311
 10
1127.531257759734
 20
-1907.903436608764
 10
1127.617039229035
 20
-1907.361286453503
 10
1127.438920505006
 20
-1906.82248718648
 10
1126.892950850316
 20
-1906.60288332881
 10
1126.387335200866
 20
-1906.399510950577
 10
1125.801480960652
 20
-1906.571370270143
 10
1125.516290622433
 20
-1907.05394908679
 10
1121.878190085184
 20
-1913.21008418966
 10
1118.522818687952
 20
-1919.532242857967
 10
1115.470237857162
 20
-1925.998848335612
 10
1113.959994803279
 20
-1929.198156247892
 10
1112.483603936972
 20
-1932.424806396142
 10
1111.220625518004
 20
-1935.731010721802
 10
1110.592382504911
 20
-1937.375615044614
 10
1110.023837245878
 20
-1939.044082268917
 10
1109.553708184468
 20
-1940.741069172538
 10
1109.123484121168
 20
-1942.294014227348
 10
1108.680956243409
 20
-1943.917142037915
 10
1108.592724003691
 20
-1945.533288041614
 10
1108.512320058828
 20
-1947.006043517261
 10
1108.890291598222
 20
-1948.533889517915
 10
1110.127002674313
 20
-1949.445245717342
 10
1111.507219168635
 20
-1950.462353822032
 10
1113.360290487171
 20
-1950.134242072521
 10
1114.846263099868
 20
-1949.556204995922
 10
1118.010114245444
 20
-1948.325480249479
 10
1120.811110570513
 20
-1946.25413071601
 10
1123.624249885887
 20
-1944.391003558887
 10
1129.229698135731
 20
-1940.678545094757
 10
1134.776399930764
 20
-1936.874887529813
 10
1140.476321373713
 20
-1933.307156304751
 10
1146.150131609971
 20
-1929.755768772908
 10
1151.985545317657
 20
-1926.43470071739
 10
1158.112285596621
 20
-1923.723864122563
 10
1158.849046411645
 20
-1923.397877041658
 10
1159.58987385866
 20
-1923.081684155599
 10
1160.33520998077
 20
-1922.775830287782
 10
1159.977674703193
 20
-1922.161634690505
 10
1159.620139425617
 20
-1921.547439093228
 10
1159.26260414804
 20
-1920.933243495952
 10
1158.88118060716
 20
-1921.241886974991
 10
1158.499757051566
 20
-1921.550530435848
 10
1158.118333494133
 20
-1921.859173894431
 10
1157.655138463312
 20
-1922.233985867958
 10
1157.728457432102
 20
-1923.028370075252
 10
1158.118333494133
 20
-1923.418246137282
 10
1158.576184067546
 20
-1923.876096710695
 10
1159.213049587284
 20
-1923.793997674555
 10
1159.677405736984
 20
-1923.418246137282
 10
1160.058829294418
 20
-1923.1096026787
 10
1160.440252850012
 20
-1922.800959217843
 10
1160.821676390891
 20
-1922.492315738804
 10
1161.654873378466
 20
-1921.818102457743
 10
1160.754398322114
 20
-1920.237185698487
 10
1159.749070558162
 20
-1920.649728946973
 10
1153.680486200005
 20
-1923.140014796619
 10
1147.887920373872
 20
-1926.22192610083
 10
1142.276959141202
 20
-1929.610695257125
 10
1136.659132342004
 20
-1933.003610907956
 10
1131.218451286496
 20
-1936.677366180093
 10
1125.762998232098
 20
-1940.322435335062
 10
1123.044671693508
 20
-1942.138689296034
 10
1120.342267798532
 20
-1943.996630922629
 10
1117.556276932898
 20
-1945.70828530971
 10
1116.223938300882
 20
-1946.526846236345
 10
1114.80886802739
 20
-1947.352828903694
 10
1113.285813810033
 20
-1947.756738438425
 10
1112.755305110916
 20
-1947.897427797601
 10
1112.132617632884
 20
-1947.986964682001
 10
1111.69030021782
 20
-1947.816873089049
 10
1111.181959494061
 20
-1947.62139246694
 10
1111.007468150502
 20
-1947.271983824303
 10
1110.886492089128
 20
-1946.814696061593
 10
1110.753916331781
 20
-1946.313561615836
 10
1110.765628585255
 20
-1945.733452252013
 10
1110.833368796796
 20
-1945.09619635659
 10
1110.834429935077
 20
-1945.086213857126
 10
1110.860927775014
 20
-1944.882210818075
 10
1110.841610405518
 20
-1945.018801335483
 10
1110.850228127163
 20
-1944.957866586647
 10
1110.860326814654
 20
-1944.897090899668
 10
1110.870353105148
 20
-1944.836376368802
 10
1110.895815782338
 20
-1944.682186292112
 10
1110.925066117347
 20
-1944.528736462677
 10
1110.955144197125
 20
-1944.37539158757
 10
1111.03984669377
 20
-1943.943559041563
 10
1111.132513372782
 20
-1943.513253746788
 10
1111.231954699482
 20
-1943.084579999577
 10
1111.617136510877
 20
-1941.424130205457
 10
1112.107143104461
 20
-1939.789191459716
 10
1112.666468647646
 20
-1938.179445970857
 10
1113.770825441775
 20
-1935.001094134261
 10
1115.142716039414
 20
-1931.924238156748
 10
1116.55230372033
 20
-1928.871741136536
 10
1119.467458498206
 20
-1922.558901294499
 10
1122.668493826294
 20
-1916.378087733571
 10
1126.142312250095
 20
-1910.354578212111
 10
1126.56423608034
 20
-1909.622973419126
 10
1126.990443148794
 20
-1908.893859348348
 10
1127.420123556224
 20
-1908.16678470813
 10
1126.748467843791
 20
-1907.883622200806
 10
1126.076812131358
 20
-1907.60045969348
 10
1125.405156418924
 20
-1907.317297186156
 10
1125.296356621248
 20
-1908.004926200703
 10
1125.187556823575
 20
-1908.692555215251
 10
1125.078757025899
 20
-1909.380184229798
 10
1124.985819698415
 20
-1909.967560348849
 10
1125.229476609044
 20
-1910.566149318485
 10
1125.848737985
 20
-1910.736304611507
 10
1126.372890245093
 20
-1910.880326643021
 10
1127.111263941804
 20
-1910.557852713476
 10
1127.204858366708
 20
-1909.966323652406
 10
1127.204858366708
 20
-1909.966323652406
 10
1127.204858366708
 20
-1909.966323652406
 10
1127.204858366708
 20
-1909.966323652406
 97
        0
 97
        1
330
87
 75
     2
 76
     1
 98
        1
 10
0.0
 20
0.0
450
        0
451
        0
460
0.0
461
0.0
452
        0
462
0.0
453
        0
470

  0
SPLINE
  5
89
330
70
100
AcDbEntity
  8
2023-001
100
AcDbSpline
210
0.0
220
0.0
230
1.0
 70
     9
 71
     3
 72
    44
 73
    40
 74
     0
 42
0.0000000001
 43
0.0000000001
 40
0.0
 40
0.0
 40
0.0
 40
0.0
 40
1.0
 40
1.0
 40
1.0
 40
2.0
 40
2.0
 40
2.0
 40
3.0
 40
3.0
 40
3.0
 40
4.0
 40
4.0
 40
4.0
 40
5.0
 40
5.0
 40
5.0
 40
6.0
 40
6.0
 40
6.0
 40
7.0
 40
7.0
 40
7.0
 40
8.0
 40
8.0
 40
8.0
 40
9.0
 40
9.0
 40
9.0
 40
10.0
 40
10.0
 40
10.0
 40
11.0
 40
11.0
 40
11.0
 40
12.0
 40
12.0
 40
12.0
 40
13.0
 40
13.0
 40
13.0
 40
13.0
 10
1135.89432812352
 20
-1929.750364880642
 30
0.0
 10
1136.272948024975
 20
-1924.185734881466
 30
0.0
 10
1137.026157734055
 20
-1918.656724562116
 30
0.0
 10
1138.148830192506
 20
-1913.193390714528
 30
0.0
 10
1137.477174480072
 20
-1913.281173414317
 30
0.0
 10
1136.805518767639
 20
-1913.368956114106
 30
0.0
 10
1136.133863055205
 20
-1913.456738813895
 30
0.0
 10
1140.69208846055
 20
-1921.346538350675
 30
0.0
 10
1145.504899147482
 20
-1929.088726733339
 30
0.0
 10
1150.56724472969
 20
-1936.665001002913
 30
0.0
 10
1151.982163065163
 20
-1938.782558803842
 30
0.0
 10
1153.416827076234
 20
-1940.886859174489
 30
0.0
 10
1154.869780917282
 20
-1942.978497178658
 30
0.0
 10
1155.209019062364
 20
-1943.466856393294
 30
0.0
 10
1155.835707593418
 20
-1943.691253933979
 30
0.0
 10
1156.378115194848
 20
-1943.373995834883
 30
0.0
 10
1156.861624741651
 20
-1943.091187630666
 30
0.0
 10
1157.11496272775
 20
-1942.357059331264
 30
0.0
 10
1156.773613851073
 20
-1941.865661557316
 30
0.0
 10
1151.575204033054
 20
-1934.382153665026
 30
0.0
 10
1146.61874725054
 20
-1926.731129991438
 30
0.0
 10
1141.918654466152
 20
-1918.924952833412
 30
0.0
 10
1140.604985247284
 20
-1916.743137469341
 30
0.0
 10
1139.311718508112
 20
-1914.549099598459
 30
0.0
 10
1138.037695988996
 20
-1912.343903192553
 30
0.0
 10
1137.585828209263
 20
-1911.561768505874
 30
0.0
 10
1136.217741409569
 20
-1911.658249024954
 30
0.0
 10
1136.022728851696
 20
-1912.607251291921
 30
0.0
 10
1134.861040035645
 20
-1918.260452972716
 30
0.0
 10
1134.081244354694
 20
-1923.992358129196
 30
0.0
 10
1133.68946701296
 20
-1929.750364880642
 30
0.0
 10
1133.649002949247
 20
-1930.345070922133
 30
0.0
 10
1134.225117781311
 20
-1930.852795435922
 30
0.0
 10
1134.79189756824
 20
-1930.852795435922
 30
0.0
 10
1135.422259772297
 20
-1930.852795435922
 30
0.0
 10
1135.853746457534
 20
-1930.346799339295
 30
0.0
 10
1135.89432812352
 20
-1929.750364880642
 30
0.0
 10
1135.89432812352
 20
-1929.750364880642
 30
0.0
 10
1135.89432812352
 20
-1929.750364880642
 30
0.0
 10
1135.89432812352
 20
-1929.750364880642
 30
0.0
  0
HATCH
  5
8A
330
70
100
AcDbEntity
  8
2023-001
 62
    18
420
        0
440
 33554687
100
AcDbHatch
 10
0.0
 20
0.0
 30
0.0
210
0.0
220
0.0
230
1.0
  2
SOLID
 70
     1
 71
     1
 91
        1
 92
        1
 93
        1
 72
     4
 94
        3
 73
     0
 74
     0
 95
       44
 96
       40
 40
0.0
 40
0.0
 40
0.0
 40
0.0
 40
1.0
 40
1.0
 40
1.0
 40
2.0
 40
2.0
 40
2.0
 40
3.0
 40
3.0
 40
3.0
 40
4.0
 40
4.0
 40
4.0
 40
5.0
 40
5.0
 40
5.0
 40
6.0
 40
6.0
 40
6.0
 40
7.0
 40
7.0
 40
7.0
 40
8.0
 40
8.0
 40
8.0
 40
9.0
 40
9.0
 40
9.0
 40
10.0
 40
10.0
 40
10.0
 40
11.0
 40
11.0
 40
11.0
 40
12.0
 40
12.0
 40
12.0
 40
13.0
 40
13.0
 40
13.0
 40
13.0
 10
1135.89432812352
 20
-1929.750364880642
 10
1136.272948024975
 20
-1924.185734881466
 10
1137.026157734055
 20
-1918.656724562116
 10
1138.148830192506
 20
-1913.193390714528
 10
1137.477174480072
 20
-1913.281173414317
 10
1136.805518767639
 20
-1913.368956114106
 10
1136.133863055205
 20
-1913.456738813895
 10
1140.69208846055
 20
-1921.346538350675
 10
1145.504899147482
 20
-1929.088726733339
 10
1150.56724472969
 20
-1936.665001002913
 10
1151.982163065163
 20
-1938.782558803842
 10
1153.416827076234
 20
-1940.886859174489
 10
1154.869780917282
 20
-1942.978497178658
 10
1155.209019062364
 20
-1943.466856393294
 10
1155.835707593418
 20
-1943.691253933979
 10
1156.378115194848
 20
-1943.373995834883
 10
1156.861624741651
 20
-1943.091187630666
 10
1157.11496272775
 20
-1942.357059331264
 10
1156.773613851073
 20
-1941.865661557316
 10
1151.575204033054
 20
-1934.382153665026
 10
1146.61874725054
 20
-1926.731129991438
 10
1141.918654466152
 20
-1918.924952833412
 10
1140.604985247284
 20
-1916.743137469341
 10
1139.311718508112
 20
-1914.549099598459
 10
1138.037695988996
 20
-1912.343903192553
 10
1137.585828209263
 20
-1911.561768505874
 10
1136.217741409569
 20
-1911.658249024954
 10
1136.022728851696
 20
-1912.607251291921
 10
1134.861040035645
 20
-1918.260452972716
 10
1134.081244354694
 20
-1923.992358129196
 10
1133.68946701296
 20
-1929.750364880642
 10
1133.649002949247
 20
-1930.345070922133
 10
1134.225117781311
 20
-1930.852795435922
 10
1134.79189756824
 20
-1930.852795435922
 10
1135.422259772297
 20
-1930.852795435922
 10
1135.853746457534
 20
-1930.346799339295
 10
1135.89432812352
 20
-1929.750364880642
 10
1135.89432812352
 20
-1929.750364880642
 10
1135.89432812352
 20
-1929.750364880642
 10
1135.89432812352
 20
-1929.750364880642
 97
        0
 97
        1
330
89
 75
     2
 76
     1
 98
        1
 10
0.0
 20
0.0
450
        0
451
        0
460
0.0
461
0.0
452
        0
462
0.0
453
        0
470

  0
SPLINE
  5
8B
330
70
100
AcDbEntity
  8
2023-001
100
AcDbSpline
210
0.0
220
0.0
230
1.0
 70
     9
 71
     3
 72
    62
 73
    58
 74
     0
 42
0.0000000001
 43
0.0000000001
 40
0.0
 40
0.0
 40
0.0
 40
0.0
 40
1.0
 40
1.0
 40
1.0
 40
2.0
 40
2.0
 40
2.0
 40
3.0
 40
3.0
 40
3.0
 40
4.0
 40
4.0
 40
4.0
 40
5.0
 40
5.0
 40
5.0
 40
6.0
 40
6.0
 40
6.0
 40
7.0
 40
7.0
 40
7.0
 40
8.0
 40
8.0
 40
8.0
 40
9.0
 40
9.0
 40
9.0
 40
10.0
 40
10.0
 40
10.0
 40
11.0
 40
11.0
 40
11.0
 40
12.0
 40
12.0
 40
12.0
 40
13.0
 40
13.0
 40
13.0
 40
14.0
 40
14.0
 40
14.0
 40
15.0
 40
15.0
 40
15.0
 40
16.0
 40
16.0
 40
16.0
 40
17.0
 40
17.0
 40
17.0
 40
18.0
 40
18.0
 40
18.0
 40
19.0
 40
19.0
 40
19.0
 40
19.0
 10
1134.52110002123
 20
-1946.251253916739
 30
0.0
 10
1134.785406408805
 20
-1946.18463246924
 30
0.0
 10
1135.053334790892
 20
-1946.121209581599
 30
0.0
 10
1135.323178037288
 20
-1946.081287697889
 30
0.0
 10
1135.609109768754
 20
-1946.038985607749
 30
0.0
 10
1136.011395222169
 20
-1946.110466297859
 30
0.0
 10
1136.277146969923
 20
-1946.020759833936
 30
0.0
 10
1136.422483871972
 20
-1946.024218942771
 30
0.0
 10
1136.462637491036
 20
-1946.024695396607
 30
0.0
 10
1136.397607827118
 20
-1946.022189195446
 30
0.0
 10
1136.303403764976
 20
-1945.951361580279
 30
0.0
 10
1136.209199702835
 20
-1945.880533965113
 30
0.0
 10
1136.114995640694
 20
-1945.809706349946
 30
0.0
 10
1136.038048340662
 20
-1945.738781825303
 30
0.0
 10
1136.078875065312
 20
-1945.640056954431
 30
0.0
 10
1136.080588336982
 20
-1945.808328841891
 30
0.0
 10
1136.083630584161
 20
-1946.107128316636
 30
0.0
 10
1136.086170961541
 20
-1946.404591338527
 30
0.0
 10
1136.053204402989
 20
-1946.702316689582
 30
0.0
 10
1135.928872695371
 20
-1947.825172787498
 30
0.0
 10
1135.46923216618
 20
-1948.899131456565
 30
0.0
 10
1134.910005846368
 20
-1949.870974101835
 30
0.0
 10
1133.619576233903
 20
-1952.113526863897
 30
0.0
 10
1131.72378686541
 20
-1953.928770654174
 30
0.0
 10
1130.289451142592
 20
-1956.073356080714
 30
0.0
 10
1129.785126934205
 20
-1956.827409912289
 30
0.0
 10
1130.638662650647
 20
-1958.05235989955
 30
0.0
 10
1131.534437320791
 20
-1957.692824561789
 30
0.0
 10
1134.775098634549
 20
-1956.392126630887
 30
0.0
 10
1138.341417434952
 20
-1956.396988684604
 30
0.0
 10
1141.578961340136
 20
-1957.705185970088
 30
0.0
 10
1142.131207228789
 20
-1957.928332464348
 30
0.0
 10
1142.790266059889
 20
-1957.462245601325
 30
0.0
 10
1142.935081721845
 20
-1956.935205010987
 30
0.0
 10
1143.10814185927
 20
-1956.305371774991
 30
0.0
 10
1142.719392899942
 20
-1955.803057953034
 30
0.0
 10
1142.165100762744
 20
-1955.579084629278
 30
0.0
 10
1138.619283505679
 20
-1954.14632305249
 30
0.0
 10
1134.497351185295
 20
-1954.142246603318
 30
0.0
 10
1130.948297898183
 20
-1955.56672322098
 30
0.0
 10
1131.363293290916
 20
-1956.106546048005
 30
0.0
 10
1131.778288683649
 20
-1956.64636887503
 30
0.0
 10
1132.193284076382
 20
-1957.186191702055
 30
0.0
 10
1133.876866252832
 20
-1954.668938772664
 30
0.0
 10
1136.199026110139
 20
-1952.581241324947
 30
0.0
 10
1137.427674954786
 20
-1949.769475545686
 30
0.0
 10
1138.019157263777
 20
-1948.415866886301
 30
0.0
 10
1138.513640717585
 20
-1946.775356191346
 30
0.0
 10
1138.226897879095
 20
-1945.285184824884
 30
0.0
 10
1137.846705824223
 20
-1943.309368037592
 30
0.0
 10
1135.34652078892
 20
-1943.769352687883
 30
0.0
 10
1133.934960598623
 20
-1944.125152575929
 30
0.0
 10
1132.559905532134
 20
-1944.47175093006
 30
0.0
 10
1133.142529871245
 20
-1946.598738287862
 30
0.0
 10
1134.52110002123
 20
-1946.251253916739
 30
0.0
 10
1134.52110002123
 20
-1946.251253916739
 30
0.0
 10
1134.52110002123
 20
-1946.251253916739
 30
0.0
 10
1134.52110002123
 20
-1946.251253916739
 30
0.0
  0
HATCH
  5
8C
330
70
100
AcDbEntity
  8
2023-001
 62
    18
420
        0
440
 33554687
100
AcDbHatch
 10
0.0
 20
0.0
 30
0.0
210
0.0
220
0.0
230
1.0
  2
SOLID
 70
     1
 71
     1
 91
        1
 92
        1
 93
        1
 72
     4
 94
        3
 73
     0
 74
     0
 95
       62
 96
       58
 40
0.0
 40
0.0
 40
0.0
 40
0.0
 40
1.0
 40
1.0
 40
1.0
 40
2.0
 40
2.0
 40
2.0
 40
3.0
 40
3.0
 40
3.0
 40
4.0
 40
4.0
 40
4.0
 40
5.0
 40
5.0
 40
5.0
 40
6.0
 40
6.0
 40
6.0
 40
7.0
 40
7.0
 40
7.0
 40
8.0
 40
8.0
 40
8.0
 40
9.0
 40
9.0
 40
9.0
 40
10.0
 40
10.0
 40
10.0
 40
11.0
 40
11.0
 40
11.0
 40
12.0
 40
12.0
 40
12.0
 40
13.0
 40
13.0
 40
13.0
 40
14.0
 40
14.0
 40
14.0
 40
15.0
 40
15.0
 40
15.0
 40
16.0
 40
16.0
 40
16.0
 40
17.0
 40
17.0
 40
17.0
 40
18.0
 40
18.0
 40
18.0
 40
19.0
 40
19.0
 40
19.0
 40
19.0
 10
1134.52110002123
 20
-1946.251253916739
 10
1134.785406408805
 20
-1946.18463246924
 10
1135.053334790892
 20
-1946.121209581599
 10
1135.323178037288
 20
-1946.081287697889
 10
1135.609109768754
 20
-1946.038985607749
 10
1136.011395222169
 20
-1946.110466297859
 10
1136.277146969923
 20
-1946.020759833936
 10
1136.422483871972
 20
-1946.024218942771
 10
1136.462637491036
 20
-1946.024695396607
 10
1136.397607827118
 20
-1946.022189195446
 10
1136.303403764976
 20
-1945.951361580279
 10
1136.209199702835
 20
-1945.880533965113
 10
1136.114995640694
 20
-1945.809706349946
 10
1136.038048340662
 20
-1945.738781825303
 10
1136.078875065312
 20
-1945.640056954431
 10
1136.080588336982
 20
-1945.808328841891
 10
1136.083630584161
 20
-1946.107128316636
 10
1136.086170961541
 20
-1946.404591338527
 10
1136.053204402989
 20
-1946.702316689582
 10
1135.928872695371
 20
-1947.825172787498
 10
1135.46923216618
 20
-1948.899131456565
 10
1134.910005846368
 20
-1949.870974101835
 10
1133.619576233903
 20
-1952.113526863897
 10
1131.72378686541
 20
-1953.928770654174
 10
1130.289451142592
 20
-1956.073356080714
 10
1129.785126934205
 20
-1956.827409912289
 10
1130.638662650647
 20
-1958.05235989955
 10
1131.534437320791
 20
-1957.692824561789
 10
1134.775098634549
 20
-1956.392126630887
 10
1138.341417434952
 20
-1956.396988684604
 10
1141.578961340136
 20
-1957.705185970088
 10
1142.131207228789
 20
-1957.928332464348
 10
1142.790266059889
 20
-1957.462245601325
 10
1142.935081721845
 20
-1956.935205010987
 10
1143.10814185927
 20
-1956.305371774991
 10
1142.719392899942
 20
-1955.803057953034
 10
1142.165100762744
 20
-1955.579084629278
 10
1138.619283505679
 20
-1954.14632305249
 10
1134.497351185295
 20
-1954.142246603318
 10
1130.948297898183
 20
-1955.56672322098
 10
1131.363293290916
 20
-1956.106546048005
 10
1131.778288683649
 20
-1956.64636887503
 10
1132.193284076382
 20
-1957.186191702055
 10
1133.876866252832
 20
-1954.668938772664
 10
1136.199026110139
 20
-1952.581241324947
 10
1137.427674954786
 20
-1949.769475545686
 10
1138.019157263777
 20
-1948.415866886301
 10
1138.513640717585
 20
-1946.775356191346
 10
1138.226897879095
 20
-1945.285184824884
 10
1137.846705824223
 20
-1943.309368037592
 10
1135.34652078892
 20
-1943.769352687883
 10
1133.934960598623
 20
-1944.125152575929
 10
1132.559905532134
 20
-1944.47175093006
 10
1133.142529871245
 20
-1946.598738287862
 10
1134.52110002123
 20
-1946.251253916739
 10
1134.52110002123
 20
-1946.251253916739
 10
1134.52110002123
 20
-1946.251253916739
 10
1134.52110002123
 20
-1946.251253916739
 97
        0
 97
        1
330
8B
 75
     2
 76
     1
 98
        1
 10
0.0
 20
0.0
450
        0
451
        0
460
0.0
461
0.0
452
        0
462
0.0
453
        0
470

  0
SPLINE
  5
8D
330
70
100
AcDbEntity
  8
2023-001
100
AcDbSpline
210
0.0
220
0.0
230
1.0
 70
     9
 71
     3
 72
   107
 73
   103
 74
     0
 42
0.0000000001
 43
0.0000000001
 40
0.0
 40
0.0
 40
0.0
 40
0.0
 40
1.0
 40
1.0
 40
1.0
 40
2.0
 40
2.0
 40
2.0
 40
3.0
 40
3.0
 40
3.0
 40
4.0
 40
4.0
 40
4.0
 40
5.0
 40
5.0
 40
5.0
 40
6.0
 40
6.0
 40
6.0
 40
7.0
 40
7.0
 40
7.0
 40
8.0
 40
8.0
 40
8.0
 40
9.0
 40
9.0
 40
9.0
 40
10.0
 40
10.0
 40
10.0
 40
11.0
 40
11.0
 40
11.0
 40
12.0
 40
12.0
 40
12.0
 40
13.0
 40
13.0
 40
13.0
 40
14.0
 40
14.0
 40
14.0
 40
15.0
 40
15.0
 40
15.0
 40
16.0
 40
16.0
 40
16.0
 40
17.0
 40
17.0
 40
17.0
 40
18.0
 40
18.0
 40
18.0
 40
19.0
 40
19.0
 40
19.0
 40
20.0
 40
20.0
 40
20.0
 40
21.0
 40
21.0
 40
21.0
 40
22.0
 40
22.0
 40
22.0
 40
23.0
 40
23.0
 40
23.0
 40
24.0
 40
24.0
 40
24.0
 40
25.0
 40
25.0
 40
25.0
 40
26.0
 40
26.0
 40
26.0
 40
27.0
 40
27.0
 40
27.0
 40
28.0
 40
28.0
 40
28.0
 40
29.0
 40
29.0
 40
29.0
 40
30.0
 40
30.0
 40
30.0
 40
31.0
 40
31.0
 40
31.0
 40
32.0
 40
32.0
 40
32.0
 40
33.0
 40
33.0
 40
33.0
 40
34.0
 40
34.0
 40
34.0
 40
34.0
 10
1144.035907494141
 20
-1950.301195083133
 30
0.0
 10
1145.144301157607
 20
-1950.164632037334
 30
0.0
 10
1146.284814195875
 20
-1950.056845072709
 30
0.0
 10
1147.402477416971
 20
-1950.116701665117
 30
0.0
 10
1147.763932259375
 20
-1950.136059424026
 30
0.0
 10
1148.150536021941
 20
-1950.200577978906
 30
0.0
 10
1148.438326429568
 20
-1950.361765494158
 30
0.0
 10
1148.59711606561
 20
-1950.450701421845
 30
0.0
 10
1148.648402895529
 20
-1950.47407491553
 30
0.0
 10
1148.799626652935
 20
-1950.648704589404
 30
0.0
 10
1148.907094811486
 20
-1950.772806316551
 30
0.0
 10
1148.744968090264
 20
-1950.512617453716
 30
0.0
 10
1148.880658091835
 20
-1950.769823824341
 30
0.0
 10
1148.951620607729
 20
-1950.904336396764
 30
0.0
 10
1148.909670500069
 20
-1950.808908202785
 30
0.0
 10
1148.930202837208
 20
-1950.898226304492
 30
0.0
 10
1148.949039027653
 20
-1950.980165966914
 30
0.0
 10
1148.956927639881
 20
-1951.000185991791
 30
0.0
 10
1148.928813362742
 20
-1951.137570093343
 30
0.0
 10
1148.89930088238
 20
-1951.281786698282
 30
0.0
 10
1148.825515850005
 20
-1951.420043906603
 30
0.0
 10
1148.715548252106
 20
-1951.593100922859
 30
0.0
 10
1148.492531786646
 20
-1951.944063977664
 30
0.0
 10
1148.180891598028
 20
-1952.23930982157
 30
0.0
 10
1147.880913553358
 20
-1952.541395987563
 30
0.0
 10
1147.084213029103
 20
-1953.343695392782
 30
0.0
 10
1146.286492622538
 20
-1954.144984741921
 30
0.0
 10
1145.489283105195
 20
-1954.946778436234
 30
0.0
 10
1145.104823162831
 20
-1955.333449130445
 30
0.0
 10
1145.064180484486
 20
-1955.968813342874
 30
0.0
 10
1145.40309293246
 20
-1956.394291523707
 30
0.0
 10
1145.772425164713
 20
-1956.857959374332
 30
0.0
 10
1146.304435122576
 20
-1956.901983651743
 30
0.0
 10
1146.825237037291
 20
-1956.678231024555
 30
0.0
 10
1147.920525014096
 20
-1956.207661398343
 30
0.0
 10
1149.128497636809
 20
-1955.946388681669
 30
0.0
 10
1150.317741789739
 20
-1955.900880135186
 30
0.0
 10
1150.478309124278
 20
-1955.894735740034
 30
0.0
 10
1150.639038709172
 20
-1955.89206975429
 30
0.0
 10
1150.799723499144
 20
-1955.89293391212
 30
0.0
 10
1150.896305867986
 20
-1955.89345332911
 30
0.0
 10
1151.150996915101
 20
-1955.951852806432
 30
0.0
 10
1151.240573540429
 20
-1955.905636223439
 30
0.0
 10
1151.049510802456
 20
-1955.9209649963
 30
0.0
 10
1150.90352475255
 20
-1955.812287459267
 30
0.0
 10
1150.802615390711
 20
-1955.579603612342
 30
0.0
 10
1150.812545152057
 20
-1955.622179435513
 30
0.0
 10
1150.822474913404
 20
-1955.664755258684
 30
0.0
 10
1150.83240467475
 20
-1955.707331081856
 30
0.0
 10
1150.830337828141
 20
-1955.796857236233
 30
0.0
 10
1150.857495668347
 20
-1955.911578381766
 30
0.0
 10
1150.861924443129
 20
-1956.005659038284
 30
0.0
 10
1150.887708946696
 20
-1956.553400376084
 30
0.0
 10
1150.75578673101
 20
-1957.09405417362
 30
0.0
 10
1150.541544093192
 20
-1957.600066229488
 30
0.0
 10
1150.091293233447
 20
-1958.663497699137
 30
0.0
 10
1149.320014633621
 20
-1959.582195091623
 30
0.0
 10
1148.532929953273
 20
-1960.411529006378
 30
0.0
 10
1147.705870275414
 20
-1961.282983701786
 30
0.0
 10
1146.796673146106
 20
-1962.066030841435
 30
0.0
 10
1145.80549471268
 20
-1962.744739927556
 30
0.0
 10
1145.314846042646
 20
-1963.080711433005
 30
0.0
 10
1145.094169405894
 20
-1963.713113912585
 30
0.0
 10
1145.409996056455
 20
-1964.253074205123
 30
0.0
 10
1145.69440663763
 20
-1964.739323292522
 30
0.0
 10
1146.424730444434
 20
-1964.986565213353
 30
0.0
 10
1146.918330334021
 20
-1964.648572861347
 30
0.0
 10
1148.209440183591
 20
-1963.764485842771
 30
0.0
 10
1149.408827357408
 20
-1962.746571073622
 30
0.0
 10
1150.452801407131
 20
-1961.579232454324
 30
0.0
 10
1151.525987953181
 20
-1960.379229349603
 30
0.0
 10
1152.55101495295
 20
-1958.993481474511
 30
0.0
 10
1152.917085110183
 20
-1957.394881025589
 30
0.0
 10
1153.097464144055
 20
-1956.607179545899
 30
0.0
 10
1153.153953141414
 20
-1955.712473539729
 30
0.0
 10
1152.907582492806
 20
-1954.931464470915
 30
0.0
 10
1152.583666794477
 20
-1953.904633152509
 30
0.0
 10
1151.679376708388
 20
-1953.68637888972
 30
0.0
 10
1150.71937600851
 20
-1953.688228633441
 30
0.0
 10
1148.978422098742
 20
-1953.691583129497
 30
0.0
 10
1147.305104805119
 20
-1954.090123402848
 30
0.0
 10
1145.71240141595
 20
-1954.774398090764
 30
0.0
 10
1146.157719393315
 20
-1955.351548953537
 30
0.0
 10
1146.603037370681
 20
-1955.928699816311
 30
0.0
 10
1147.048355348046
 20
-1956.505850679085
 30
0.0
 10
1147.980434035098
 20
-1955.568412279739
 30
0.0
 10
1148.94550970071
 20
-1954.653978309705
 30
0.0
 10
1149.844785961072
 20
-1953.685020602361
 30
0.0
 10
1150.71159464831
 20
-1952.751046255086
 30
0.0
 10
1151.456622223881
 20
-1951.511898682171
 30
0.0
 10
1151.020615632754
 20
-1950.196013986914
 30
0.0
 10
1150.08221384629
 20
-1947.363881230347
 30
0.0
 10
1146.3411745256
 20
-1947.812306467207
 30
0.0
 10
1144.035907494141
 20
-1948.096333972574
 30
0.0
 10
1143.445083306984
 20
-1948.169128281302
 30
0.0
 10
1142.933476938861
 20
-1948.550909900433
 30
0.0
 10
1142.933476938861
 20
-1949.198764527854
 30
0.0
 10
1142.933476938861
 20
-1949.738013464741
 30
0.0
 10
1143.440932371388
 20
-1950.374500820631
 30
0.0
 10
1144.035907494141
 20
-1950.301195083133
 30
0.0
 10
1144.035907494141
 20
-1950.301195083133
 30
0.0
 10
1144.035907494141
 20
-1950.301195083133
 30
0.0
 10
1144.035907494141
 20
-1950.301195083133
 30
0.0
  0
HATCH
  5
8E
330
70
100
AcDbEntity
  8
2023-001
 62
    18
420
        0
440
 33554687
100
AcDbHatch
 10
0.0
 20
0.0
 30
0.0
210
0.0
220
0.0
230
1.0
  2
SOLID
 70
     1
 71
     1
 91
        1
 92
        1
 93
        1
 72
     4
 94
        3
 73
     0
 74
     0
 95
      107
 96
      103
 40
0.0
 40
0.0
 40
0.0
 40
0.0
 40
1.0
 40
1.0
 40
1.0
 40
2.0
 40
2.0
 40
2.0
 40
3.0
 40
3.0
 40
3.0
 40
4.0
 40
4.0
 40
4.0
 40
5.0
 40
5.0
 40
5.0
 40
6.0
 40
6.0
 40
6.0
 40
7.0
 40
7.0
 40
7.0
 40
8.0
 40
8.0
 40
8.0
 40
9.0
 40
9.0
 40
9.0
 40
10.0
 40
10.0
 40
10.0
 40
11.0
 40
11.0
 40
11.0
 40
12.0
 40
12.0
 40
12.0
 40
13.0
 40
13.0
 40
13.0
 40
14.0
 40
14.0
 40
14.0
 40
15.0
 40
15.0
 40
15.0
 40
16.0
 40
16.0
 40
16.0
 40
17.0
 40
17.0
 40
17.0
 40
18.0
 40
18.0
 40
18.0
 40
19.0
 40
19.0
 40
19.0
 40
20.0
 40
20.0
 40
20.0
 40
21.0
 40
21.0
 40
21.0
 40
22.0
 40
22.0
 40
22.0
 40
23.0
 40
23.0
 40
23.0
 40
24.0
 40
24.0
 40
24.0
 40
25.0
 40
25.0
 40
25.0
 40
26.0
 40
26.0
 40
26.0
 40
27.0
 40
27.0
 40
27.0
 40
28.0
 40
28.0
 40
28.0
 40
29.0
 40
29.0
 40
29.0
 40
30.0
 40
30.0
 40
30.0
 40
31.0
 40
31.0
 40
31.0
 40
32.0
 40
32.0
 40
32.0
 40
33.0
 40
33.0
 40
33.0
 40
34.0
 40
34.0
 40
34.0
 40
34.0
 10
1144.035907494141
 20
-1950.301195083133
 10
1145.144301157607
 20
-1950.164632037334
 10
1146.284814195875
 20
-1950.056845072709
 10
1147.402477416971
 20
-1950.116701665117
 10
1147.763932259375
 20
-1950.136059424026
 10
1148.150536021941
 20
-1950.200577978906
 10
1148.438326429568
 20
-1950.361765494158
 10
1148.59711606561
 20
-1950.450701421845
 10
1148.648402895529
 20
-1950.47407491553
 10
1148.799626652935
 20
-1950.648704589404
 10
1148.907094811486
 20
-1950.772806316551
 10
1148.744968090264
 20
-1950.512617453716
 10
1148.880658091835
 20
-1950.769823824341
 10
1148.951620607729
 20
-1950.904336396764
 10
1148.909670500069
 20
-1950.808908202785
 10
1148.930202837208
 20
-1950.898226304492
 10
1148.949039027653
 20
-1950.980165966914
 10
1148.956927639881
 20
-1951.000185991791
 10
1148.928813362742
 20
-1951.137570093343
 10
1148.89930088238
 20
-1951.281786698282
 10
1148.825515850005
 20
-1951.420043906603
 10
1148.715548252106
 20
-1951.593100922859
 10
1148.492531786646
 20
-1951.944063977664
 10
1148.180891598028
 20
-1952.23930982157
 10
1147.880913553358
 20
-1952.541395987563
 10
1147.084213029103
 20
-1953.343695392782
 10
1146.286492622538
 20
-1954.144984741921
 10
1145.489283105195
 20
-1954.946778436234
 10
1145.104823162831
 20
-1955.333449130445
 10
1145.064180484486
 20
-1955.968813342874
 10
1145.40309293246
 20
-1956.394291523707
 10
1145.772425164713
 20
-1956.857959374332
 10
1146.304435122576
 20
-1956.901983651743
 10
1146.825237037291
 20
-1956.678231024555
 10
1147.920525014096
 20
-1956.207661398343
 10
1149.128497636809
 20
-1955.946388681669
 10
1150.317741789739
 20
-1955.900880135186
 10
1150.478309124278
 20
-1955.894735740034
 10
1150.639038709172
 20
-1955.89206975429
 10
1150.799723499144
 20
-1955.89293391212
 10
1150.896305867986
 20
-1955.89345332911
 10
1151.150996915101
 20
-1955.951852806432
 10
1151.240573540429
 20
-1955.905636223439
 10
1151.049510802456
 20
-1955.9209649963
 10
1150.90352475255
 20
-1955.812287459267
 10
1150.802615390711
 20
-1955.579603612342
 10
1150.812545152057
 20
-1955.622179435513
 10
1150.822474913404
 20
-1955.664755258684
 10
1150.83240467475
 20
-1955.707331081856
 10
1150.830337828141
 20
-1955.796857236233
 10
1150.857495668347
 20
-1955.911578381766
 10
1150.861924443129
 20
-1956.005659038284
 10
1150.887708946696
 20
-1956.553400376084
 10
1150.75578673101
 20
-1957.09405417362
 10
1150.541544093192
 20
-1957.600066229488
 10
1150.091293233447
 20
-1958.663497699137
 10
1149.320014633621
 20
-1959.582195091623
 10
1148.532929953273
 20
-1960.411529006378
 10
1147.705870275414
 20
-1961.282983701786
 10
1146.796673146106
 20
-1962.066030841435
 10
1145.80549471268
 20
-1962.744739927556
 10
1145.314846042646
 20
-1963.080711433005
 10
1145.094169405894
 20
-1963.713113912585
 10
1145.409996056455
 20
-1964.253074205123
 10
1145.69440663763
 20
-1964.739323292522
 10
1146.424730444434
 20
-1964.986565213353
 10
1146.918330334021
 20
-1964.648572861347
 10
1148.209440183591
 20
-1963.764485842771
 10
1149.408827357408
 20
-1962.746571073622
 10
1150.452801407131
 20
-1961.579232454324
 10
1151.525987953181
 20
-1960.379229349603
 10
1152.55101495295
 20
-1958.993481474511
 10
1152.917085110183
 20
-1957.394881025589
 10
1153.097464144055
 20
-1956.607179545899
 10
1153.153953141414
 20
-1955.712473539729
 10
1152.907582492806
 20
-1954.931464470915
 10
1152.583666794477
 20
-1953.904633152509
 10
1151.679376708388
 20
-1953.68637888972
 10
1150.71937600851
 20
-1953.688228633441
 10
1148.978422098742
 20
-1953.691583129497
 10
1147.305104805119
 20
-1954.090123402848
 10
1145.71240141595
 20
-1954.774398090764
 10
1146.157719393315
 20
-1955.351548953537
 10
1146.603037370681
 20
-1955.928699816311
 10
1147.048355348046
 20
-1956.505850679085
 10
1147.980434035098
 20
-1955.568412279739
 10
1148.94550970071
 20
-1954.653978309705
 10
1149.844785961072
 20
-1953.685020602361
 10
1150.71159464831
 20
-1952.751046255086
 10
1151.456622223881
 20
-1951.511898682171
 10
1151.020615632754
 20
-1950.196013986914
 10
1150.08221384629
 20
-1947.363881230347
 10
1146.3411745256
 20
-1947.812306467207
 10
1144.035907494141
 20
-1948.096333972574
 10
1143.445083306984
 20
-1948.169128281302
 10
1142.933476938861
 20
-1948.550909900433
 10
1142.933476938861
 20
-1949.198764527854
 10
1142.933476938861
 20
-1949.738013464741
 10
1143.440932371388
 20
-1950.374500820631
 10
1144.035907494141
 20
-1950.301195083133
 10
1144.035907494141
 20
-1950.301195083133
 10
1144.035907494141
 20
-1950.301195083133
 10
1144.035907494141
 20
-1950.301195083133
 97
        0
 97
        1
330
8D
 75
     2
 76
     1
 98
        1
 10
0.0
 20
0.0
450
        0
451
        0
460
0.0
461
0.0
452
        0
462
0.0
453
        0
470

  0
SPLINE
  5
8F
330
70
100
AcDbEntity
  8
2023-001
100
AcDbSpline
210
0.0
220
0.0
230
1.0
 70
     9
 71
     3
 72
   146
 73
   142
 74
     0
 42
0.0000000001
 43
0.0000000001
 40
0.0
 40
0.0
 40
0.0
 40
0.0
 40
1.0
 40
1.0
 40
1.0
 40
2.0
 40
2.0
 40
2.0
 40
3.0
 40
3.0
 40
3.0
 40
4.0
 40
4.0
 40
4.0
 40
5.0
 40
5.0
 40
5.0
 40
6.0
 40
6.0
 40
6.0
 40
7.0
 40
7.0
 40
7.0
 40
8.0
 40
8.0
 40
8.0
 40
9.0
 40
9.0
 40
9.0
 40
10.0
 40
10.0
 40
10.0
 40
11.0
 40
11.0
 40
11.0
 40
12.0
 40
12.0
 40
12.0
 40
13.0
 40
13.0
 40
13.0
 40
14.0
 40
14.0
 40
14.0
 40
15.0
 40
15.0
 40
15.0
 40
16.0
 40
16.0
 40
16.0
 40
17.0
 40
17.0
 40
17.0
 40
18.0
 40
18.0
 40
18.0
 40
19.0
 40
19.0
 40
19.0
 40
20.0
 40
20.0
 40
20.0
 40
21.0
 40
21.0
 40
21.0
 40
22.0
 40
22.0
 40
22.0
 40
23.0
 40
23.0
 40
23.0
 40
24.0
 40
24.0
 40
24.0
 40
25.0
 40
25.0
 40
25.0
 40
26.0
 40
26.0
 40
26.0
 40
27.0
 40
27.0
 40
27.0
 40
28.0
 40
28.0
 40
28.0
 40
29.0
 40
29.0
 40
29.0
 40
30.0
 40
30.0
 40
30.0
 40
31.0
 40
31.0
 40
31.0
 40
32.0
 40
32.0
 40
32.0
 40
33.0
 40
33.0
 40
33.0
 40
34.0
 40
34.0
 40
34.0
 40
35.0
 40
35.0
 40
35.0
 40
36.0
 40
36.0
 40
36.0
 40
37.0
 40
37.0
 40
37.0
 40
38.0
 40
38.0
 40
38.0
 40
39.0
 40
39.0
 40
39.0
 40
40.0
 40
40.0
 40
40.0
 40
41.0
 40
41.0
 40
41.0
 40
42.0
 40
42.0
 40
42.0
 40
43.0
 40
43.0
 40
43.0
 40
44.0
 40
44.0
 40
44.0
 40
45.0
 40
45.0
 40
45.0
 40
46.0
 40
46.0
 40
46.0
 40
47.0
 40
47.0
 40
47.0
 40
47.0
 10
430.6949855151561
 20
-1946.560597929158
 30
0.0
 10
432.7008923614428
 20
-1923.97816927812
 30
0.0
 10
436.2652312141759
 20
-1901.539228854042
 30
0.0
 10
438.827262599169
 20
-1879.000897425215
 30
0.0
 10
442.2624964985923
 20
-1848.7812088477
 30
0.0
 10
445.5946789793131
 20
-1818.546361850051
 30
0.0
 10
448.5811461280891
 20
-1788.279475464388
 30
0.0
 10
451.9559616654398
 20
-1754.077601015473
 30
0.0
 10
454.7522595434299
 20
-1719.819227000601
 30
0.0
 10
458.0785422981322
 20
-1685.612184908458
 30
0.0
 10
460.4205612726986
 20
-1661.527522371076
 30
0.0
 10
463.0846966751359
 20
-1637.471798635771
 30
0.0
 10
465.8674294896529
 20
-1613.43364488744
 30
0.0
 10
468.5174400006006
 20
-1590.542191171375
 30
0.0
 10
471.7791272149545
 20
-1567.719811619789
 30
0.0
 10
474.2608017477542
 20
-1544.810960171523
 30
0.0
 10
476.1687817548727
 20
-1527.19859852228
 30
0.0
 10
477.2837007812866
 20
-1509.500109485906
 30
0.0
 10
478.7503209930512
 20
-1491.839861009419
 30
0.0
 10
480.4924627162484
 20
-1470.862157835409
 30
0.0
 10
482.2234940065057
 20
-1449.883765642303
 30
0.0
 10
483.9785548377727
 20
-1428.90709599694
 30
0.0
 10
485.2297273906283
 20
-1413.953314533664
 30
0.0
 10
486.5122503123997
 20
-1399.00220301939
 30
0.0
 10
487.7815096165528
 20
-1384.049713466922
 30
0.0
 10
490.1998805198111
 20
-1355.55894605868
 30
0.0
 10
493.0459600275631
 20
-1327.096083923868
 30
0.0
 10
494.9364131114004
 20
-1298.570262669064
 30
0.0
 10
497.6989490536352
 20
-1256.883918278444
 30
0.0
 10
499.3512599120546
 20
-1215.122470806245
 30
0.0
 10
502.2794188197426
 20
-1173.44947616063
 30
0.0
 10
504.6121360364988
 20
-1140.249952243149
 30
0.0
 10
508.4414888594348
 20
-1107.15843206913
 30
0.0
 10
511.0595030460633
 20
-1073.975702992139
 30
0.0
 10
513.5702886357133
 20
-1042.15206408408
 30
0.0
 10
515.1739375204035
 20
-1010.257456209024
 30
0.0
 10
517.5738340991222
 20
-978.4241710336058
 30
0.0
 10
518.8914969948431
 20
-960.944359433158
 30
0.0
 10
521.2705938095695
 20
-943.5468856148078
 30
0.0
 10
522.7036243403528
 20
-926.073619695782
 30
0.0
 10
523.5082694546264
 20
-916.2622461359518
 30
0.0
 10
523.0383584304384
 20
-906.3509648070494
 30
0.0
 10
523.7003335279291
 20
-896.5223657697931
 30
0.0
 10
525.9861543823923
 20
-862.5878307305336
 30
0.0
 10
528.6847407396821
 20
-828.6800813086721
 30
0.0
 10
530.9044588245221
 20
-794.7409815178946
 30
0.0
 10
532.874364422988
 20
-764.6218897285494
 30
0.0
 10
534.6118983309737
 20
-734.4841082961967
 30
0.0
 10
536.0926003705341
 20
-704.3366805964852
 30
0.0
 10
537.5997435179438
 20
-673.6519902558492
 30
0.0
 10
539.4711193855315
 20
-642.9508065205774
 30
0.0
 10
539.6730881083543
 20
-612.2471681547724
 30
0.0
 10
539.8334573031927
 20
-587.8769933290507
 30
0.0
 10
536.7828252510039
 20
-563.4882580514022
 30
0.0
 10
536.8783405233325
 20
-539.1146381301953
 30
0.0
 10
536.9681713881103
 20
-516.1964849241193
 30
0.0
 10
539.0675264494346
 20
-493.2691160876202
 30
0.0
 10
540.7371919763609
 20
-470.3792126645232
 30
0.0
 10
542.1339198134683
 20
-451.2311135753432
 30
0.0
 10
544.3150097651799
 20
-432.1418394915739
 30
0.0
 10
545.9078496627852
 20
-413.0064872556893
 30
0.0
 10
547.1118674711864
 20
-398.5427275614971
 30
0.0
 10
548.4312959783435
 20
-384.0600198421361
 30
0.0
 10
548.7900165457451
 20
-369.5628857854305
 30
0.0
 10
549.1483926035983
 20
-355.0798766202144
 30
0.0
 10
549.0540831146896
 20
-340.516596730192
 30
0.0
 10
547.953202852378
 20
-326.0807638412771
 30
0.0
 10
545.8819253192586
 20
-298.9194372489464
 30
0.0
 10
546.4033835846448
 20
-271.9227646889637
 30
0.0
 10
550.5362493198312
 20
-245.008386847385
 30
0.0
 10
556.8672151656877
 20
-203.7790774365769
 30
0.0
 10
563.2123059030337
 20
-162.5521580607617
 30
0.0
 10
569.6506726006429
 20
-121.3397296178313
 30
0.0
 10
574.4002534913826
 20
-90.93751557513888
 30
0.0
 10
579.3276013091611
 20
-60.56301301925595
 30
0.0
 10
584.0870868494209
 20
-30.16249999245938
 30
0.0
 10
584.0870868494209
 20
-30.16249999245938
 30
0.0
 10
530.0398259851116
 20
-30.16249999245938
 30
0.0
 10
530.0398259851116
 20
-30.16249999245938
 30
0.0
 10
526.6896428804804
 20
-50.89947711943659
 30
0.0
 10
523.3694751702643
 20
-71.6409759342382
 30
0.0
 10
520.2076095975956
 20
-92.40674114036403
 30
0.0
 10
512.9687749639887
 20
-139.949532537441
 30
0.0
 10
506.4218016312071
 20
-187.5970548372696
 30
0.0
 10
499.2606539007924
 20
-235.1522485780935
 30
0.0
 10
495.0935525292214
 20
-262.8246766175078
 30
0.0
 10
498.585759695232
 20
-290.4189225212538
 30
0.0
 10
498.8477161431917
 20
-318.0658568540773
 30
0.0
 10
499.0339235541695
 20
-337.7157986962243
 30
0.0
 10
497.5184691139016
 20
-357.4339534289792
 30
0.0
 10
495.8163766257204
 20
-377.0394750712132
 30
0.0
 10
491.9382326379746
 20
-421.7087984514304
 30
0.0
 10
486.4118257790046
 20
-466.2620651774883
 30
0.0
 10
483.701138523823
 20
-510.993098830585
 30
0.0
 10
482.3314977499683
 20
-533.5932697233724
 30
0.0
 10
486.9884486358484
 20
-556.505221757575
 30
0.0
 10
486.5169873186919
 20
-579.2263155018948
 30
0.0
 10
485.6887433003443
 20
-619.1351628769003
 30
0.0
 10
483.3888836817786
 20
-659.0274307298829
 30
0.0
 10
481.0231796757512
 20
-698.8863242203522
 30
0.0
 10
477.4454910780128
 20
-759.1656336263978
 30
0.0
 10
473.4976269703842
 20
-819.4252629244839
 30
0.0
 10
469.3017590515114
 20
-879.6646522865943
 30
0.0
 10
465.8576540312135
 20
-929.112021658998
 30
0.0
 10
461.8774921534108
 20
-978.5219256179997
 30
0.0
 10
458.0296219422417
 20
-1027.940442315714
 30
0.0
 10
455.7703713867084
 20
-1056.956414530683
 30
0.0
 10
453.22035477222
 20
-1085.9493046059
 30
0.0
 10
450.956022700846
 20
-1114.964673929158
 30
0.0
 10
448.5832562490738
 20
-1145.369278006843
 30
0.0
 10
446.3255559865088
 20
-1175.782925460177
 30
0.0
 10
444.1484278946052
 20
-1206.202085066288
 30
0.0
 10
442.1882977545788
 20
-1233.589646772766
 30
0.0
 10
440.5940367550859
 20
-1261.004510860964
 30
0.0
 10
438.4973516427628
 20
-1288.381048261889
 30
0.0
 10
435.7187529428281
 20
-1324.660745925345
 30
0.0
 10
432.5537867842227
 20
-1360.910901895015
 30
0.0
 10
429.6564614811275
 20
-1397.181986819758
 30
0.0
 10
426.9096868507379
 20
-1431.568776768844
 30
0.0
 10
424.5513898000036
 20
-1465.989070271523
 30
0.0
 10
421.5336153460055
 20
-1500.351313915277
 30
0.0
 10
419.3993356291996
 20
-1524.653361977778
 30
0.0
 10
416.5108383832855
 20
-1548.890469990382
 30
0.0
 10
413.8511385412854
 20
-1573.144975735186
 30
0.0
 10
409.7077222011755
 20
-1610.929404979212
 30
0.0
 10
405.243739726163
 20
-1648.680244542257
 30
0.0
 10
401.335881789857
 20
-1686.489133964229
 30
0.0
 10
396.7028312539059
 20
-1731.314477106234
 30
0.0
 10
392.5931768495514
 20
-1776.193908247358
 30
0.0
 10
388.1130024257582
 20
-1821.035443338144
 30
0.0
 10
383.5650457482928
 20
-1866.556179003847
 30
0.0
 10
378.4184606665716
 20
-1912.021793141786
 30
0.0
 10
374.3249551473042
 20
-1957.582836424667
 30
0.0
 10
373.9505593954447
 20
-1961.750023923625
 30
0.0
 10
373.5903746624618
 20
-1965.918244951229
 30
0.0
 10
373.2385442860307
 20
-1970.087499507478
 30
0.0
 10
373.2385442860307
 20
-1970.087499507478
 30
0.0
 10
427.9791306167465
 20
-1970.087499507478
 30
0.0
 10
427.9791306167465
 20
-1970.087499507478
 30
0.0
 10
428.8438065198507
 20
-1962.235437877497
 30
0.0
 10
429.9969661061509
 20
-1954.418860731013
 30
0.0
 10
430.6949855151561
 20
-1946.560597929158
 30
0.0
  0
HATCH
  5
90
330
70
100
AcDbEntity
  8
2023-001
 62
    18
420
        0
440
 33554687
100
AcDbHatch
 10
0.0
 20
0.0
 30
0.0
210
0.0
220
0.0
230
1.0
  2
SOLID
 70
     1
 71
     1
 91
        1
 92
        1
 93
        1
 72
     4
 94
        3
 73
     0
 74
     0
 95
      146
 96
      142
 40
0.0
 40
0.0
 40
0.0
 40
0.0
 40
1.0
 40
1.0
 40
1.0
 40
2.0
 40
2.0
 40
2.0
 40
3.0
 40
3.0
 40
3.0
 40
4.0
 40
4.0
 40
4.0
 40
5.0
 40
5.0
 40
5.0
 40
6.0
 40
6.0
 40
6.0
 40
7.0
 40
7.0
 40
7.0
 40
8.0
 40
8.0
 40
8.0
 40
9.0
 40
9.0
 40
9.0
 40
10.0
 40
10.0
 40
10.0
 40
11.0
 40
11.0
 40
11.0
 40
12.0
 40
12.0
 40
12.0
 40
13.0
 40
13.0
 40
13.0
 40
14.0
 40
14.0
 40
14.0
 40
15.0
 40
15.0
 40
15.0
 40
16.0
 40
16.0
 40
16.0
 40
17.0
 40
17.0
 40
17.0
 40
18.0
 40
18.0
 40
18.0
 40
19.0
 40
19.0
 40
19.0
 40
20.0
 40
20.0
 40
20.0
 40
21.0
 40
21.0
 40
21.0
 40
22.0
 40
22.0
 40
22.0
 40
23.0
 40
23.0
 40
23.0
 40
24.0
 40
24.0
 40
24.0
 40
25.0
 40
25.0
 40
25.0
 40
26.0
 40
26.0
 40
26.0
 40
27.0
 40
27.0
 40
27.0
 40
28.0
 40
28.0
 40
28.0
 40
29.0
 40
29.0
 40
29.0
 40
30.0
 40
30.0
 40
30.0
 40
31.0
 40
31.0
 40
31.0
 40
32.0
 40
32.0
 40
32.0
 40
33.0
 40
33.0
 40
33.0
 40
34.0
 40
34.0
 40
34.0
 40
35.0
 40
35.0
 40
35.0
 40
36.0
 40
36.0
 40
36.0
 40
37.0
 40
37.0
 40
37.0
 40
38.0
 40
38.0
 40
38.0
 40
39.0
 40
39.0
 40
39.0
 40
40.0
 40
40.0
 40
40.0
 40
41.0
 40
41.0
 40
41.0
 40
42.0
 40
42.0
 40
42.0
 40
43.0
 40
43.0
 40
43.0
 40
44.0
 40
44.0
 40
44.0
 40
45.0
 40
45.0
 40
45.0
 40
46.0
 40
46.0
 40
46.0
 40
47.0
 40
47.0
 40
47.0
 40
47.0
 10
430.6949855151561
 20
-1946.560597929158
 10
432.7008923614428
 20
-1923.97816927812
 10
436.2652312141759
 20
-1901.539228854042
 10
438.827262599169
 20
-1879.000897425215
 10
442.2624964985923
 20
-1848.7812088477
 10
445.5946789793131
 20
-1818.546361850051
 10
448.5811461280891
 20
-1788.279475464388
 10
451.9559616654398
 20
-1754.077601015473
 10
454.7522595434299
 20
-1719.819227000601
 10
458.0785422981322
 20
-1685.612184908458
 10
460.4205612726986
 20
-1661.527522371076
 10
463.0846966751359
 20
-1637.471798635771
 10
465.8674294896529
 20
-1613.43364488744
 10
468.5174400006006
 20
-1590.542191171375
 10
471.7791272149545
 20
-1567.719811619789
 10
474.2608017477542
 20
-1544.810960171523
 10
476.1687817548727
 20
-1527.19859852228
 10
477.2837007812866
 20
-1509.500109485906
 10
478.7503209930512
 20
-1491.839861009419
 10
480.4924627162484
 20
-1470.862157835409
 10
482.2234940065057
 20
-1449.883765642303
 10
483.9785548377727
 20
-1428.90709599694
 10
485.2297273906283
 20
-1413.953314533664
 10
486.5122503123997
 20
-1399.00220301939
 10
487.7815096165528
 20
-1384.049713466922
 10
490.1998805198111
 20
-1355.55894605868
 10
493.0459600275631
 20
-1327.096083923868
 10
494.9364131114004
 20
-1298.570262669064
 10
497.6989490536352
 20
-1256.883918278444
 10
499.3512599120546
 20
-1215.122470806245
 10
502.2794188197426
 20
-1173.44947616063
 10
504.6121360364988
 20
-1140.249952243149
 10
508.4414888594348
 20
-1107.15843206913
 10
511.0595030460633
 20
-1073.975702992139
 10
513.5702886357133
 20
-1042.15206408408
 10
515.1739375204035
 20
-1010.257456209024
 10
517.5738340991222
 20
-978.4241710336058
 10
518.8914969948431
 20
-960.944359433158
 10
521.2705938095695
 20
-943.5468856148078
 10
522.7036243403528
 20
-926.073619695782
 10
523.5082694546264
 20
-916.2622461359518
 10
523.0383584304384
 20
-906.3509648070494
 10
523.7003335279291
 20
-896.5223657697931
 10
525.9861543823923
 20
-862.5878307305336
 10
528.6847407396821
 20
-828.6800813086721
 10
530.9044588245221
 20
-794.7409815178946
 10
532.874364422988
 20
-764.6218897285494
 10
534.6118983309737
 20
-734.4841082961967
 10
536.0926003705341
 20
-704.3366805964852
 10
537.5997435179438
 20
-673.6519902558492
 10
539.4711193855315
 20
-642.9508065205774
 10
539.6730881083543
 20
-612.2471681547724
 10
539.8334573031927
 20
-587.8769933290507
 10
536.7828252510039
 20
-563.4882580514022
 10
536.8783405233325
 20
-539.1146381301953
 10
536.9681713881103
 20
-516.1964849241193
 10
539.0675264494346
 20
-493.2691160876202
 10
540.7371919763609
 20
-470.3792126645232
 10
542.1339198134683
 20
-451.2311135753432
 10
544.3150097651799
 20
-432.1418394915739
 10
545.9078496627852
 20
-413.0064872556893
 10
547.1118674711864
 20
-398.5427275614971
 10
548.4312959783435
 20
-384.0600198421361
 10
548.7900165457451
 20
-369.5628857854305
 10
549.1483926035983
 20
-355.0798766202144
 10
549.0540831146896
 20
-340.516596730192
 10
547.953202852378
 20
-326.0807638412771
 10
545.8819253192586
 20
-298.9194372489464
 10
546.4033835846448
 20
-271.9227646889637
 10
550.5362493198312
 20
-245.008386847385
 10
556.8672151656877
 20
-203.7790774365769
 10
563.2123059030337
 20
-162.5521580607617
 10
569.6506726006429
 20
-121.3397296178313
 10
574.4002534913826
 20
-90.93751557513888
 10
579.3276013091611
 20
-60.56301301925595
 10
584.0870868494209
 20
-30.16249999245938
 10
584.0870868494209
 20
-30.16249999245938
 10
530.0398259851116
 20
-30.16249999245938
 10
530.0398259851116
 20
-30.16249999245938
 10
526.6896428804804
 20
-50.89947711943659
 10
523.3694751702643
 20
-71.6409759342382
 10
520.2076095975956
 20
-92.40674114036403
 10
512.9687749639887
 20
-139.949532537441
 10
506.4218016312071
 20
-187.5970548372696
 10
499.2606539007924
 20
-235.1522485780935
 10
495.0935525292214
 20
-262.8246766175078
 10
498.585759695232
 20
-290.4189225212538
 10
498.8477161431917
 20
-318.0658568540773
 10
499.0339235541695
 20
-337.7157986962243
 10
497.5184691139016
 20
-357.4339534289792
 10
495.8163766257204
 20
-377.0394750712132
 10
491.9382326379746
 20
-421.7087984514304
 10
486.4118257790046
 20
-466.2620651774883
 10
483.701138523823
 20
-510.993098830585
 10
482.3314977499683
 20
-533.5932697233724
 10
486.9884486358484
 20
-556.505221757575
 10
486.5169873186919
 20
-579.2263155018948
 10
485.6887433003443
 20
-619.1351628769003
 10
483.3888836817786
 20
-659.0274307298829
 10
481.0231796757512
 20
-698.8863242203522
 10
477.4454910780128
 20
-759.1656336263978
 10
473.4976269703842
 20
-819.4252629244839
 10
469.3017590515114
 20
-879.6646522865943
 10
465.8576540312135
 20
-929.112021658998
 10
461.8774921534108
 20
-978.5219256179997
 10
458.0296219422417
 20
-1027.940442315714
 10
455.7703713867084
 20
-1056.956414530683
 10
453.22035477222
 20
-1085.9493046059
 10
450.956022700846
 20
-1114.964673929158
 10
448.5832562490738
 20
-1145.369278006843
 10
446.3255559865088
 20
-1175.782925460177
 10
444.1484278946052
 20
-1206.202085066288
 10
442.1882977545788
 20
-1233.589646772766
 10
440.5940367550859
 20
-1261.004510860964
 10
438.4973516427628
 20
-1288.381048261889
 10
435.7187529428281
 20
-1324.660745925345
 10
432.5537867842227
 20
-1360.910901895015
 10
429.6564614811275
 20
-1397.181986819758
 10
426.9096868507379
 20
-1431.568776768844
 10
424.5513898000036
 20
-1465.989070271523
 10
421.5336153460055
 20
-1500.351313915277
 10
419.3993356291996
 20
-1524.653361977778
 10
416.5108383832855
 20
-1548.890469990382
 10
413.8511385412854
 20
-1573.144975735186
 10
409.7077222011755
 20
-1610.929404979212
 10
405.243739726163
 20
-1648.680244542257
 10
401.335881789857
 20
-1686.489133964229
 10
396.7028312539059
 20
-1731.314477106234
 10
392.5931768495514
 20
-1776.193908247358
 10
388.1130024257582
 20
-1821.035443338144
 10
383.5650457482928
 20
-1866.556179003847
 10
378.4184606665716
 20
-1912.021793141786
 10
374.3249551473042
 20
-1957.582836424667
 10
373.9505593954447
 20
-1961.750023923625
 10
373.5903746624618
 20
-1965.918244951229
 10
373.2385442860307
 20
-1970.087499507478
 10
373.2385442860307
 20
-1970.087499507478
 10
427.9791306167465
 20
-1970.087499507478
 10
427.9791306167465
 20
-1970.087499507478
 10
428.8438065198507
 20
-1962.235437877497
 10
429.9969661061509
 20
-1954.418860731013
 10
430.6949855151561
 20
-1946.560597929158
 97
        0
 97
        1
330
8F
 75
     2
 76
     1
 98
        1
 10
0.0
 20
0.0
450
        0
451
        0
460
0.0
461
0.0
452
        0
462
0.0
453
        0
470

  0
SPLINE
  5
91
330
70
100
AcDbEntity
  8
2023-001
100
AcDbSpline
210
0.0
220
0.0
230
1.0
 70
     9
 71
     3
 72
   149
 73
   145
 74
     0
 42
0.0000000001
 43
0.0000000001
 40
0.0
 40
0.0
 40
0.0
 40
0.0
 40
1.0
 40
1.0
 40
1.0
 40
2.0
 40
2.0
 40
2.0
 40
3.0
 40
3.0
 40
3.0
 40
4.0
 40
4.0
 40
4.0
 40
5.0
 40
5.0
 40
5.0
 40
6.0
 40
6.0
 40
6.0
 40
7.0
 40
7.0
 40
7.0
 40
8.0
 40
8.0
 40
8.0
 40
9.0
 40
9.0
 40
9.0
 40
10.0
 40
10.0
 40
10.0
 40
11.0
 40
11.0
 40
11.0
 40
12.0
 40
12.0
 40
12.0
 40
13.0
 40
13.0
 40
13.0
 40
14.0
 40
14.0
 40
14.0
 40
15.0
 40
15.0
 40
15.0
 40
16.0
 40
16.0
 40
16.0
 40
17.0
 40
17.0
 40
17.0
 40
18.0
 40
18.0
 40
18.0
 40
19.0
 40
19.0
 40
19.0
 40
20.0
 40
20.0
 40
20.0
 40
21.0
 40
21.0
 40
21.0
 40
22.0
 40
22.0
 40
22.0
 40
23.0
 40
23.0
 40
23.0
 40
24.0
 40
24.0
 40
24.0
 40
25.0
 40
25.0
 40
25.0
 40
26.0
 40
26.0
 40
26.0
 40
27.0
 40
27.0
 40
27.0
 40
28.0
 40
28.0
 40
28.0
 40
29.0
 40
29.0
 40
29.0
 40
30.0
 40
30.0
 40
30.0
 40
31.0
 40
31.0
 40
31.0
 40
32.0
 40
32.0
 40
32.0
 40
33.0
 40
33.0
 40
33.0
 40
34.0
 40
34.0
 40
34.0
 40
35.0
 40
35.0
 40
35.0
 40
36.0
 40
36.0
 40
36.0
 40
37.0
 40
37.0
 40
37.0
 40
38.0
 40
38.0
 40
38.0
 40
39.0
 40
39.0
 40
39.0
 40
40.0
 40
40.0
 40
40.0
 40
41.0
 40
41.0
 40
41.0
 40
42.0
 40
42.0
 40
42.0
 40
43.0
 40
43.0
 40
43.0
 40
44.0
 40
44.0
 40
44.0
 40
45.0
 40
45.0
 40
45.0
 40
46.0
 40
46.0
 40
46.0
 40
47.0
 40
47.0
 40
47.0
 40
48.0
 40
48.0
 40
48.0
 40
48.0
 10
327.1712872852862
 20
-1962.112964732996
 30
0.0
 10
329.0817219229379
 20
-1944.385881404095
 30
0.0
 10
331.8068785791577
 20
-1926.747337029164
 30
0.0
 10
334.0854432012552
 20
-1909.058494260148
 30
0.0
 10
335.7909592530749
 20
-1895.818131036462
 30
0.0
 10
337.4473826942298
 20
-1882.570188602708
 30
0.0
 10
338.9721388923078
 20
-1869.307776767916
 30
0.0
 10
341.1697868341954
 20
-1850.193008977556
 30
0.0
 10
343.4600432490959
 20
-1831.083408830424
 30
0.0
 10
345.2565098217263
 20
-1811.929539206306
 30
0.0
 10
346.2808013050314
 20
-1801.00841426329
 30
0.0
 10
346.0187371978378
 20
-1789.967399997387
 30
0.0
 10
347.002871786893
 20
-1779.041279665917
 30
0.0
 10
349.9696372958626
 20
-1746.103066240992
 30
0.0
 10
353.3036069198664
 20
-1713.197581223176
 30
0.0
 10
356.414032910571
 20
-1680.272114651546
 30
0.0
 10
358.2877772813048
 20
-1660.437494159543
 30
0.0
 10
359.6195435366685
 20
-1640.543101260871
 30
0.0
 10
361.8882465729394
 20
-1620.755334067467
 30
0.0
 10
366.0416967536502
 20
-1584.530671804388
 30
0.0
 10
371.1941384976963
 20
-1548.415908087288
 30
0.0
 10
375.0135436074185
 20
-1512.158689671873
 30
0.0
 10
378.2745848663688
 20
-1481.202267424838
 30
0.0
 10
380.0448471814645
 20
-1450.092193919161
 30
0.0
 10
382.8504468172648
 20
-1419.084095239847
 30
0.0
 10
385.9060742579072
 20
-1385.312685471814
 30
0.0
 10
389.6400840632888
 20
-1351.602684530806
 30
0.0
 10
392.5920571935187
 20
-1317.823437170544
 30
0.0
 10
394.0783575132426
 20
-1300.815517524189
 30
0.0
 10
394.3081884458024
 20
-1283.701833446436
 30
0.0
 10
395.4232797269905
 20
-1266.656362259291
 30
0.0
 10
397.5680669850264
 20
-1233.872489112105
 30
0.0
 10
400.029329327076
 20
-1201.109200410443
 30
0.0
 10
402.1895333874083
 20
-1168.326360791902
 30
0.0
 10
404.3181286966635
 20
-1136.023250719683
 30
0.0
 10
406.0705195789294
 20
-1103.694302431325
 30
0.0
 10
408.306343485163
 20
-1071.398771569173
 30
0.0
 10
409.7646524040692
 20
-1050.333993606774
 30
0.0
 10
411.9332538846468
 20
-1029.319083401524
 30
0.0
 10
413.5339313744811
 20
-1008.262918177839
 30
0.0
 10
416.8433762249992
 20
-964.7305193714476
 30
0.0
 10
419.9501633335975
 20
-921.1825315079856
 30
0.0
 10
423.2105586371444
 20
-877.6463430965607
 30
0.0
 10
425.084216880491
 20
-852.6269400266436
 30
0.0
 10
427.2341717817548
 20
-827.6278630200897
 30
0.0
 10
429.0157598482582
 20
-802.6023449056861
 30
0.0
 10
432.4309691301735
 20
-754.6327492416804
 30
0.0
 10
435.7755108909477
 20
-706.6580720618337
 30
0.0
 10
438.9496065525889
 20
-658.6720260668857
 30
0.0
 10
441.1028342945637
 20
-626.1195772089215
 30
0.0
 10
443.3536443661581
 20
-593.5629942363749
 30
0.0
 10
444.7380559869058
 20
-560.9733383471698
 30
0.0
 10
445.7935040525056
 20
-536.1288600005163
 30
0.0
 10
447.3302750210884
 20
-511.0953751028033
 30
0.0
 10
445.4659185355519
 20
-486.3866335182688
 30
0.0
 10
442.8868339279067
 20
-452.2051281964105
 30
0.0
 10
444.4410026286901
 20
-418.3077140610047
 30
0.0
 10
447.5021422221089
 20
-384.4147785497296
 30
0.0
 10
449.7585075101731
 20
-359.4322595333516
 30
0.0
 10
453.7414254643642
 20
-334.6074612946576
 30
0.0
 10
456.8767638017964
 20
-309.7020693534556
 30
0.0
 10
459.7543659332385
 20
-286.8435378311212
 30
0.0
 10
459.6143228017631
 20
-263.9863843469809
 30
0.0
 10
459.171671095602
 20
-240.9225897292659
 30
0.0
 10
458.6331596075639
 20
-212.8602845401552
 30
0.0
 10
460.3709949614047
 20
-184.5289819891867
 30
0.0
 10
463.9168164259045
 20
-156.6702388795607
 30
0.0
 10
468.3461756912902
 20
-121.8697790900838
 30
0.0
 10
475.8579910784097
 20
-87.47228781314712
 30
0.0
 10
481.5967019466581
 20
-52.82718029820814
 30
0.0
 10
482.8472716078038
 20
-45.27721047858955
 30
0.0
 10
484.0622706580643
 20
-37.72134093295248
 30
0.0
 10
485.2594413391886
 20
-30.16249999245938
 30
0.0
 10
485.2594413391886
 20
-30.16249999245938
 30
0.0
 10
432.1885635990926
 20
-30.16249999245938
 30
0.0
 10
432.1885635990926
 20
-30.16249999245938
 30
0.0
 10
425.7991603210675
 20
-69.32593636369066
 30
0.0
 10
418.5969298269914
 20
-108.3743926731017
 30
0.0
 10
413.2716734806664
 20
-147.6799607649463
 30
0.0
 10
409.431468606952
 20
-176.0239886373633
 30
0.0
 10
408.9165990866814
 20
-204.687979752973
 30
0.0
 10
409.9312227707811
 20
-233.4477229912258
 30
0.0
 10
410.5964707089828
 20
-252.3044961934343
 30
0.0
 10
408.3149992875696
 20
-271.441614040755
 30
0.0
 10
405.6351456369809
 20
-290.2070922126045
 30
0.0
 10
398.5270093133457
 20
-339.9810351051632
 30
0.0
 10
391.4415675562194
 20
-389.7694043350663
 30
0.0
 10
395.439600866852
 20
-440.1812281885658
 30
0.0
 10
398.6909097310565
 20
-481.1770031891676
 30
0.0
 10
395.1131780696245
 20
-521.8373550805867
 30
0.0
 10
392.0947576602229
 20
-562.5834467858949
 30
0.0
 10
388.8179550894275
 20
-606.8174823515509
 30
0.0
 10
385.5958003457669
 20
-651.055953477644
 30
0.0
 10
382.301901488626
 20
-695.2889124509607
 30
0.0
 10
378.1530591231267
 20
-751.0023076193241
 30
0.0
 10
373.9018974217155
 20
-806.7080374502326
 30
0.0
 10
369.7966355141046
 20
-862.4248777140813
 30
0.0
 10
366.7282612201669
 20
-904.0691919397813
 30
0.0
 10
363.9019910114551
 20
-945.7311622798432
 30
0.0
 10
360.8087259026364
 20
-987.3737539578007
 30
0.0
 10
359.2272763519793
 20
-1008.663152145838
 30
0.0
 10
357.1734180829072
 20
-1029.916979722989
 30
0.0
 10
355.5563333258245
 20
-1051.203966344187
 30
0.0
 10
353.8359387678779
 20
-1073.852454701155
 30
0.0
 10
352.546417995902
 20
-1096.533585337846
 30
0.0
 10
350.7607173466631
 20
-1119.176130905102
 30
0.0
 10
348.9915100920598
 20
-1141.608956284693
 30
0.0
 10
346.4233636625804
 20
-1163.983559550584
 30
0.0
 10
344.9604469284626
 20
-1186.43335202544
 30
0.0
 10
343.2058597978249
 20
-1213.35970157383
 30
0.0
 10
342.5638877859953
 20
-1240.358139745249
 30
0.0
 10
340.8550988934646
 20
-1267.28836502606
 30
0.0
 10
339.3253042432395
 20
-1291.398176760484
 30
0.0
 10
337.0177146916788
 20
-1315.45837911992
 30
0.0
 10
335.0223799821624
 20
-1339.538132396235
 30
0.0
 10
333.2976790548592
 20
-1360.351246133436
 30
0.0
 10
331.692049240265
 20
-1381.175642558352
 30
0.0
 10
329.7380987402651
 20
-1401.967310576157
 30
0.0
 10
327.4969349360294
 20
-1425.814950544154
 30
0.0
 10
324.9447005413224
 20
-1449.633134945751
 30
0.0
 10
322.5009866544009
 20
-1473.46148237903
 30
0.0
 10
319.271812528689
 20
-1504.948966095117
 30
0.0
 10
316.0926568830537
 20
-1536.441617454431
 30
0.0
 10
312.7530674470396
 20
-1567.917732355416
 30
0.0
 10
308.698642229683
 20
-1606.131420496905
 30
0.0
 10
304.300740992447
 20
-1644.309279645346
 30
0.0
 10
300.4261497594204
 20
-1682.541054538132
 30
0.0
 10
297.3318511219561
 20
-1713.073557785707
 30
0.0
 10
295.0317331212291
 20
-1743.686504012863
 30
0.0
 10
291.9546168974975
 20
-1774.221074317729
 30
0.0
 10
288.4768576006781
 20
-1808.72990677438
 30
0.0
 10
284.3546501296492
 20
-1843.172765652488
 30
0.0
 10
280.8310925947228
 20
-1877.677119485008
 30
0.0
 10
277.8285626882468
 20
-1907.078425630001
 30
0.0
 10
275.3171096113465
 20
-1936.529513404757
 30
0.0
 10
272.5150627302654
 20
-1965.951490122661
 30
0.0
 10
272.3837615285837
 20
-1967.330217335858
 30
0.0
 10
272.2496611868204
 20
-1968.708772294281
 30
0.0
 10
272.1178647526628
 20
-1970.087499507478
 30
0.0
 10
272.1178647526628
 20
-1970.087499507478
 30
0.0
 10
326.3400718720825
 20
-1970.087499507478
 30
0.0
 10
326.3400718720825
 20
-1970.087499507478
 30
0.0
 10
326.6095644664162
 20
-1967.428574811962
 30
0.0
 10
326.8849352549216
 20
-1964.770166880769
 30
0.0
 10
327.1712872852862
 20
-1962.112964732996
 30
0.0
  0
HATCH
  5
92
330
70
100
AcDbEntity
  8
2023-001
 62
    18
420
        0
440
 33554687
100
AcDbHatch
 10
0.0
 20
0.0
 30
0.0
210
0.0
220
0.0
230
1.0
  2
SOLID
 70
     1
 71
     1
 91
        1
 92
        1
 93
        1
 72
     4
 94
        3
 73
     0
 74
     0
 95
      149
 96
      145
 40
0.0
 40
0.0
 40
0.0
 40
0.0
 40
1.0
 40
1.0
 40
1.0
 40
2.0
 40
2.0
 40
2.0
 40
3.0
 40
3.0
 40
3.0
 40
4.0
 40
4.0
 40
4.0
 40
5.0
 40
5.0
 40
5.0
 40
6.0
 40
6.0
 40
6.0
 40
7.0
 40
7.0
 40
7.0
 40
8.0
 40
8.0
 40
8.0
 40
9.0
 40
9.0
 40
9.0
 40
10.0
 40
10.0
 40
10.0
 40
11.0
 40
11.0
 40
11.0
 40
12.0
 40
12.0
 40
12.0
 40
13.0
 40
13.0
 40
13.0
 40
14.0
 40
14.0
 40
14.0
 40
15.0
 40
15.0
 40
15.0
 40
16.0
 40
16.0
 40
16.0
 40
17.0
 40
17.0
 40
17.0
 40
18.0
 40
18.0
 40
18.0
 40
19.0
 40
19.0
 40
19.0
 40
20.0
 40
20.0
 40
20.0
 40
21.0
 40
21.0
 40
21.0
 40
22.0
 40
22.0
 40
22.0
 40
23.0
 40
23.0
 40
23.0
 40
24.0
 40
24.0
 40
24.0
 40
25.0
 40
25.0
 40
25.0
 40
26.0
 40
26.0
 40
26.0
 40
27.0
 40
27.0
 40
27.0
 40
28.0
 40
28.0
 40
28.0
 40
29.0
 40
29.0
 40
29.0
 40
30.0
 40
30.0
 40
30.0
 40
31.0
 40
31.0
 40
31.0
 40
32.0
 40
32.0
 40
32.0
 40
33.0
 40
33.0
 40
33.0
 40
34.0
 40
34.0
 40
34.0
 40
35.0
 40
35.0
 40
35.0
 40
36.0
 40
36.0
 40
36.0
 40
37.0
 40
37.0
 40
37.0
 40
38.0
 40
38.0
 40
38.0
 40
39.0
 40
39.0
 40
39.0
 40
40.0
 40
40.0
 40
40.0
 40
41.0
 40
41.0
 40
41.0
 40
42.0
 40
42.0
 40
42.0
 40
43.0
 40
43.0
 40
43.0
 40
44.0
 40
44.0
 40
44.0
 40
45.0
 40
45.0
 40
45.0
 40
46.0
 40
46.0
 40
46.0
 40
47.0
 40
47.0
 40
47.0
 40
48.0
 40
48.0
 40
48.0
 40
48.0
 10
327.1712872852862
 20
-1962.112964732996
 10
329.0817219229379
 20
-1944.385881404095
 10
331.8068785791577
 20
-1926.747337029164
 10
334.0854432012552
 20
-1909.058494260148
 10
335.7909592530749
 20
-1895.818131036462
 10
337.4473826942298
 20
-1882.570188602708
 10
338.9721388923078
 20
-1869.307776767916
 10
341.1697868341954
 20
-1850.193008977556
 10
343.4600432490959
 20
-1831.083408830424
 10
345.2565098217263
 20
-1811.929539206306
 10
346.2808013050314
 20
-1801.00841426329
 10
346.0187371978378
 20
-1789.967399997387
 10
347.002871786893
 20
-1779.041279665917
 10
349.9696372958626
 20
-1746.103066240992
 10
353.3036069198664
 20
-1713.197581223176
 10
356.414032910571
 20
-1680.272114651546
 10
358.2877772813048
 20
-1660.437494159543
 10
359.6195435366685
 20
-1640.543101260871
 10
361.8882465729394
 20
-1620.755334067467
 10
366.0416967536502
 20
-1584.530671804388
 10
371.1941384976963
 20
-1548.415908087288
 10
375.0135436074185
 20
-1512.158689671873
 10
378.2745848663688
 20
-1481.202267424838
 10
380.0448471814645
 20
-1450.092193919161
 10
382.8504468172648
 20
-1419.084095239847
 10
385.9060742579072
 20
-1385.312685471814
 10
389.6400840632888
 20
-1351.602684530806
 10
392.5920571935187
 20
-1317.823437170544
 10
394.0783575132426
 20
-1300.815517524189
 10
394.3081884458024
 20
-1283.701833446436
 10
395.4232797269905
 20
-1266.656362259291
 10
397.5680669850264
 20
-1233.872489112105
 10
400.029329327076
 20
-1201.109200410443
 10
402.1895333874083
 20
-1168.326360791902
 10
404.3181286966635
 20
-1136.023250719683
 10
406.0705195789294
 20
-1103.694302431325
 10
408.306343485163
 20
-1071.398771569173
 10
409.7646524040692
 20
-1050.333993606774
 10
411.9332538846468
 20
-1029.319083401524
 10
413.5339313744811
 20
-1008.262918177839
 10
416.8433762249992
 20
-964.7305193714476
 10
419.9501633335975
 20
-921.1825315079856
 10
423.2105586371444
 20
-877.6463430965607
 10
425.084216880491
 20
-852.6269400266436
 10
427.2341717817548
 20
-827.6278630200897
 10
429.0157598482582
 20
-802.6023449056861
 10
432.4309691301735
 20
-754.6327492416804
 10
435.7755108909477
 20
-706.6580720618337
 10
438.9496065525889
 20
-658.6720260668857
 10
441.1028342945637
 20
-626.1195772089215
 10
443.3536443661581
 20
-593.5629942363749
 10
444.7380559869058
 20
-560.9733383471698
 10
445.7935040525056
 20
-536.1288600005163
 10
447.3302750210884
 20
-511.0953751028033
 10
445.4659185355519
 20
-486.3866335182688
 10
442.8868339279067
 20
-452.2051281964105
 10
444.4410026286901
 20
-418.3077140610047
 10
447.5021422221089
 20
-384.4147785497296
 10
449.7585075101731
 20
-359.4322595333516
 10
453.7414254643642
 20
-334.6074612946576
 10
456.8767638017964
 20
-309.7020693534556
 10
459.7543659332385
 20
-286.8435378311212
 10
459.6143228017631
 20
-263.9863843469809
 10
459.171671095602
 20
-240.9225897292659
 10
458.6331596075639
 20
-212.8602845401552
 10
460.3709949614047
 20
-184.5289819891867
 10
463.9168164259045
 20
-156.6702388795607
 10
468.3461756912902
 20
-121.8697790900838
 10
475.8579910784097
 20
-87.47228781314712
 10
481.5967019466581
 20
-52.82718029820814
 10
482.8472716078038
 20
-45.27721047858955
 10
484.0622706580643
 20
-37.72134093295248
 10
485.2594413391886
 20
-30.16249999245938
 10
485.2594413391886
 20
-30.16249999245938
 10
432.1885635990926
 20
-30.16249999245938
 10
432.1885635990926
 20
-30.16249999245938
 10
425.7991603210675
 20
-69.32593636369066
 10
418.5969298269914
 20
-108.3743926731017
 10
413.2716734806664
 20
-147.6799607649463
 10
409.431468606952
 20
-176.0239886373633
 10
408.9165990866814
 20
-204.687979752973
 10
409.9312227707811
 20
-233.4477229912258
 10
410.5964707089828
 20
-252.3044961934343
 10
408.3149992875696
 20
-271.441614040755
 10
405.6351456369809
 20
-290.2070922126045
 10
398.5270093133457
 20
-339.9810351051632
 10
391.4415675562194
 20
-389.7694043350663
 10
395.439600866852
 20
-440.1812281885658
 10
398.6909097310565
 20
-481.1770031891676
 10
395.1131780696245
 20
-521.8373550805867
 10
392.0947576602229
 20
-562.5834467858949
 10
388.8179550894275
 20
-606.8174823515509
 10
385.5958003457669
 20
-651.055953477644
 10
382.301901488626
 20
-695.2889124509607
 10
378.1530591231267
 20
-751.0023076193241
 10
373.9018974217155
 20
-806.7080374502326
 10
369.7966355141046
 20
-862.4248777140813
 10
366.7282612201669
 20
-904.0691919397813
 10
363.9019910114551
 20
-945.7311622798432
 10
360.8087259026364
 20
-987.3737539578007
 10
359.2272763519793
 20
-1008.663152145838
 10
357.1734180829072
 20
-1029.916979722989
 10
355.5563333258245
 20
-1051.203966344187
 10
353.8359387678779
 20
-1073.852454701155
 10
352.546417995902
 20
-1096.533585337846
 10
350.7607173466631
 20
-1119.176130905102
 10
348.9915100920598
 20
-1141.608956284693
 10
346.4233636625804
 20
-1163.983559550584
 10
344.9604469284626
 20
-1186.43335202544
 10
343.2058597978249
 20
-1213.35970157383
 10
342.5638877859953
 20
-1240.358139745249
 10
340.8550988934646
 20
-1267.28836502606
 10
339.3253042432395
 20
-1291.398176760484
 10
337.0177146916788
 20
-1315.45837911992
 10
335.0223799821624
 20
-1339.538132396235
 10
333.2976790548592
 20
-1360.351246133436
 10
331.692049240265
 20
-1381.175642558352
 10
329.7380987402651
 20
-1401.967310576157
 10
327.4969349360294
 20
-1425.814950544154
 10
324.9447005413224
 20
-1449.633134945751
 10
322.5009866544009
 20
-1473.46148237903
 10
319.271812528689
 20
-1504.948966095117
 10
316.0926568830537
 20
-1536.441617454431
 10
312.7530674470396
 20
-1567.917732355416
 10
308.698642229683
 20
-1606.131420496905
 10
304.300740992447
 20
-1644.309279645346
 10
300.4261497594204
 20
-1682.541054538132
 10
297.3318511219561
 20
-1713.073557785707
 10
295.0317331212291
 20
-1743.686504012863
 10
291.9546168974975
 20
-1774.221074317729
 10
288.4768576006781
 20
-1808.72990677438
 10
284.3546501296492
 20
-1843.172765652488
 10
280.8310925947228
 20
-1877.677119485008
 10
277.8285626882468
 20
-1907.078425630001
 10
275.3171096113465
 20
-1936.529513404757
 10
272.5150627302654
 20
-1965.951490122661
 10
272.3837615285837
 20
-1967.330217335858
 10
272.2496611868204
 20
-1968.708772294281
 10
272.1178647526628
 20
-1970.087499507478
 10
272.1178647526628
 20
-1970.087499507478
 10
326.3400718720825
 20
-1970.087499507478
 10
326.3400718720825
 20
-1970.087499507478
 10
326.6095644664162
 20
-1967.428574811962
 10
326.8849352549216
 20
-1964.770166880769
 10
327.1712872852862
 20
-1962.112964732996
 97
        0
 97
        1
330
91
 75
     2
 76
     1
 98
        1
 10
0.0
 20
0.0
450
        0
451
        0
460
0.0
461
0.0
452
        0
462
0.0
453
        0
470

  0
SPLINE
  5
93
330
70
100
AcDbEntity
  8
2023-001
100
AcDbSpline
210
0.0
220
0.0
230
1.0
 70
     9
 71
     3
 72
   149
 73
   145
 74
     0
 42
0.0000000001
 43
0.0000000001
 40
0.0
 40
0.0
 40
0.0
 40
0.0
 40
1.0
 40
1.0
 40
1.0
 40
2.0
 40
2.0
 40
2.0
 40
3.0
 40
3.0
 40
3.0
 40
4.0
 40
4.0
 40
4.0
 40
5.0
 40
5.0
 40
5.0
 40
6.0
 40
6.0
 40
6.0
 40
7.0
 40
7.0
 40
7.0
 40
8.0
 40
8.0
 40
8.0
 40
9.0
 40
9.0
 40
9.0
 40
10.0
 40
10.0
 40
10.0
 40
11.0
 40
11.0
 40
11.0
 40
12.0
 40
12.0
 40
12.0
 40
13.0
 40
13.0
 40
13.0
 40
14.0
 40
14.0
 40
14.0
 40
15.0
 40
15.0
 40
15.0
 40
16.0
 40
16.0
 40
16.0
 40
17.0
 40
17.0
 40
17.0
 40
18.0
 40
18.0
 40
18.0
 40
19.0
 40
19.0
 40
19.0
 40
20.0
 40
20.0
 40
20.0
 40
21.0
 40
21.0
 40
21.0
 40
22.0
 40
22.0
 40
22.0
 40
23.0
 40
23.0
 40
23.0
 40
24.0
 40
24.0
 40
24.0
 40
25.0
 40
25.0
 40
25.0
 40
26.0
 40
26.0
 40
26.0
 40
27.0
 40
27.0
 40
27.0
 40
28.0
 40
28.0
 40
28.0
 40
29.0
 40
29.0
 40
29.0
 40
30.0
 40
30.0
 40
30.0
 40
31.0
 40
31.0
 40
31.0
 40
32.0
 40
32.0
 40
32.0
 40
33.0
 40
33.0
 40
33.0
 40
34.0
 40
34.0
 40
34.0
 40
35.0
 40
35.0
 40
35.0
 40
36.0
 40
36.0
 40
36.0
 40
37.0
 40
37.0
 40
37.0
 40
38.0
 40
38.0
 40
38.0
 40
39.0
 40
39.0
 40
39.0
 40
40.0
 40
40.0
 40
40.0
 40
41.0
 40
41.0
 40
41.0
 40
42.0
 40
42.0
 40
42.0
 40
43.0
 40
43.0
 40
43.0
 40
44.0
 40
44.0
 40
44.0
 40
45.0
 40
45.0
 40
45.0
 40
46.0
 40
46.0
 40
46.0
 40
47.0
 40
47.0
 40
47.0
 40
48.0
 40
48.0
 40
48.0
 40
48.0
 10
536.8835942939475
 20
-1948.951149686373
 30
0.0
 10
538.4202791351432
 20
-1930.627548074201
 30
0.0
 10
541.0985824927636
 20
-1912.402476192906
 30
0.0
 10
543.1163749184744
 20
-1894.116426121523
 30
0.0
 10
545.4800118672108
 20
-1872.697061706305
 30
0.0
 10
547.6073152656589
 20
-1851.252031329722
 30
0.0
 10
549.9583345521805
 20
-1829.831461131084
 30
0.0
 10
552.3329958064697
 20
-1808.194883445521
 30
0.0
 10
555.1246858692484
 20
-1786.601197198749
 30
0.0
 10
557.2292085738004
 20
-1764.939470316144
 30
0.0
 10
558.929277068384
 20
-1747.440452308365
 30
0.0
 10
559.9126795746485
 20
-1729.870637588366
 30
0.0
 10
561.1382722935262
 20
-1712.32683333928
 30
0.0
 10
561.4469959126981
 20
-1707.906259067381
 30
0.0
 10
561.1859007386097
 20
-1703.435041891849
 30
0.0
 10
561.6641661193495
 20
-1699.039272307445
 30
0.0
 10
564.492158875804
 20
-1673.047577164203
 30
0.0
 10
567.554762634804
 20
-1647.081375727552
 30
0.0
 10
570.3504145573908
 20
-1621.086579998374
 30
0.0
 10
572.3308707607801
 20
-1602.672200120165
 30
0.0
 10
573.8822833851752
 20
-1584.21148370768
 30
0.0
 10
575.8651942190978
 20
-1565.796931574696
 30
0.0
 10
578.1444693921392
 20
-1544.630437168096
 30
0.0
 10
581.0973468599341
 20
-1523.529916340037
 30
0.0
 10
583.0284090068037
 20
-1502.334138621812
 30
0.0
 10
586.5368942489821
 20
-1463.825033542464
 30
0.0
 10
589.4527369403105
 20
-1425.261495954448
 30
0.0
 10
592.7182568233916
 20
-1386.729308735349
 30
0.0
 10
595.0752188996252
 20
-1358.917052882927
 30
0.0
 10
597.9675488142667
 20
-1331.144760138134
 30
0.0
 10
599.9609671894195
 20
-1303.30735508867
 30
0.0
 10
603.0130634071895
 20
-1260.68730369416
 30
0.0
 10
605.4013327886454
 20
-1218.020054491502
 30
0.0
 10
608.2542594236742
 20
-1175.385103059018
 30
0.0
 10
610.2112028503769
 20
-1146.139773612119
 30
0.0
 10
612.3021604914558
 20
-1116.900645337094
 30
0.0
 10
614.6498208098791
 20
-1087.684168564885
 30
0.0
 10
617.8460942737068
 20
-1047.909335404255
 30
0.0
 10
621.8048534958074
 20
-1008.190571172648
 30
0.0
 10
624.5686813488491
 20
-968.3874882290403
 30
0.0
 10
626.8291807514958
 20
-935.8340058424303
 30
0.0
 10
627.5810728411515
 20
-903.1782041199086
 30
0.0
 10
629.4384960720241
 20
-870.5926823452859
 30
0.0
 10
631.3085800288048
 20
-837.7833154915091
 30
0.0
 10
633.9652654122552
 20
-805.0187348790405
 30
0.0
 10
635.8106308089293
 20
-772.2079899870696
 30
0.0
 10
637.2347040914509
 20
-746.8875716991288
 30
0.0
 10
638.2862764246298
 20
-721.5337359849812
 30
0.0
 10
638.8536836510504
 20
-696.180244780382
 30
0.0
 10
639.3372458660989
 20
-674.5733379796856
 30
0.0
 10
639.0174548776805
 20
-652.9443825678837
 30
0.0
 10
638.8191465688109
 20
-631.327097417038
 30
0.0
 10
638.6857783098381
 20
-616.7896557431551
 30
0.0
 10
637.3801732483156
 20
-602.2267203626812
 30
0.0
 10
637.941853003492
 20
-587.7271747391359
 30
0.0
 10
639.2049541994652
 20
-555.1209823916017
 30
0.0
 10
641.8988035504628
 20
-522.5654329477006
 30
0.0
 10
642.8905173495856
 20
-489.9551064855841
 30
0.0
 10
643.8321050093978
 20
-458.9921385571269
 30
0.0
 10
642.9052020690914
 20
-427.9757716486484
 30
0.0
 10
643.6329354266568
 20
-397.0024684337355
 30
0.0
 10
644.2061562517088
 20
-372.6082210033106
 30
0.0
 10
646.0723644760687
 20
-348.2445918590109
 30
0.0
 10
647.3154841182275
 20
-323.8651368073258
 30
0.0
 10
648.3544387891917
 20
-303.4898301107595
 30
0.0
 10
648.8314553228182
 20
-283.0715027843211
 30
0.0
 10
650.4307547744583
 20
-262.7416713481601
 30
0.0
 10
653.2640874289149
 20
-226.7237148141958
 30
0.0
 10
656.0801515422516
 20
-190.6802645736407
 30
0.0
 10
660.1701258386468
 20
-154.7924895853253
 30
0.0
 10
664.27831607742
 20
-118.7452497397364
 30
0.0
 10
669.3237876066491
 20
-82.77584752026742
 30
0.0
 10
675.1211512255339
 20
-46.96108702439254
 30
0.0
 10
676.0309148158013
 20
-41.34069365421561
 30
0.0
 10
677.0914874609355
 20
-35.74516956707282
 30
0.0
 10
678.2306082831333
 20
-30.16249999245938
 30
0.0
 10
678.2306082831333
 20
-30.16249999245938
 30
0.0
 10
625.38947534821
 20
-30.16249999245938
 30
0.0
 10
625.38947534821
 20
-30.16249999245938
 30
0.0
 10
623.9918001098441
 20
-39.62805056111078
 30
0.0
 10
622.6054075591924
 20
-49.09515142273055
 30
0.0
 10
621.2450254794544
 20
-58.56582657091627
 30
0.0
 10
614.4050467756523
 20
-106.1840440272734
 30
0.0
 10
608.7000547794656
 20
-153.9655374777846
 30
0.0
 10
602.4762314032003
 20
-201.672961375363
 30
0.0
 10
598.4369861378256
 20
-232.6345727974729
 30
0.0
 10
593.8101798374415
 20
-263.5341725008482
 30
0.0
 10
590.5496122791204
 20
-294.5773896222649
 30
0.0
 10
588.9624137253722
 20
-309.6893225001601
 30
0.0
 10
589.9601995052877
 20
-325.0685086603236
 30
0.0
 10
589.6860560320489
 20
-340.3247479753572
 30
0.0
 10
588.7871444925601
 20
-390.3486971409111
 30
0.0
 10
588.1339543885568
 20
-440.3792350515805
 30
0.0
 10
586.7648303790249
 20
-490.3904804275326
 30
0.0
 10
586.2449654703007
 20
-509.3784687040356
 30
0.0
 10
583.2549240349589
 20
-528.3003111472218
 30
0.0
 10
582.7825153165439
 20
-547.2872658950792
 30
0.0
 10
582.0940991112039
 20
-574.9583158962995
 30
0.0
 10
583.2073817172624
 20
-602.6734631197309
 30
0.0
 10
582.5766277976067
 20
-630.3472261336459
 30
0.0
 10
581.4579622298525
 20
-679.4316546966785
 30
0.0
 10
580.189133562635
 20
-728.5271075652641
 30
0.0
 10
577.8882834791174
 20
-777.5660608678914
 30
0.0
 10
575.8085223983656
 20
-821.8912622728259
 30
0.0
 10
572.3411629835423
 20
-866.1531600482186
 30
0.0
 10
569.3459969686661
 20
-910.4333168296832
 30
0.0
 10
566.7013263557205
 20
-949.5314471096223
 30
0.0
 10
563.99210326612
 20
-988.6260461666889
 30
0.0
 10
561.0740212627263
 20
-1027.704539402362
 30
0.0
 10
558.3687169692402
 20
-1063.934972200379
 30
0.0
 10
555.1744674990102
 20
-1100.128886986252
 30
0.0
 10
552.5111503067506
 20
-1136.362161988045
 30
0.0
 10
548.9663623708964
 20
-1184.585833444088
 30
0.0
 10
545.9831249991379
 20
-1232.851621192438
 30
0.0
 10
542.2647473145206
 20
-1281.061167756991
 30
0.0
 10
539.8833681240353
 20
-1311.935252221929
 30
0.0
 10
536.4001612699799
 20
-1342.722606408026
 30
0.0
 10
533.8066072612966
 20
-1373.582307599313
 30
0.0
 10
531.8412664143487
 20
-1396.966754479317
 30
0.0
 10
530.783320654522
 20
-1420.427337969546
 30
0.0
 10
528.8117355720071
 20
-1443.811440340002
 30
0.0
 10
526.2719250528938
 20
-1473.934321734381
 30
0.0
 10
523.2486384461193
 20
-1504.016723256808
 30
0.0
 10
520.3851181424731
 20
-1534.112043887305
 30
0.0
 10
517.9417702969468
 20
-1559.790235341389
 30
0.0
 10
515.5891145900698
 20
-1585.478934336703
 30
0.0
 10
512.9058589076893
 20
-1611.132321103293
 30
0.0
 10
509.9094440456997
 20
-1639.780529375211
 30
0.0
 10
506.4315770896464
 20
-1668.378783762593
 30
0.0
 10
503.4421385460144
 20
-1697.027853308382
 30
0.0
 10
499.5919859590864
 20
-1733.925859484053
 30
0.0
 10
496.1918059062255
 20
-1770.871063467873
 30
0.0
 10
492.2648276899763
 20
-1807.760284650056
 30
0.0
 10
489.7080070119046
 20
-1831.778456844573
 30
0.0
 10
486.0554306510556
 20
-1855.686041474012
 30
0.0
 10
483.7955341401188
 20
-1879.728329336925
 30
0.0
 10
480.9677136384386
 20
-1909.812453407095
 30
0.0
 10
478.3916004256495
 20
-1939.934129018055
 30
0.0
 10
476.4470593426938
 20
-1970.087499507478
 30
0.0
 10
476.4470593426938
 20
-1970.087499507478
 30
0.0
 10
535.3761066369893
 20
-1970.087499507478
 30
0.0
 10
535.3761066369893
 20
-1970.087499507478
 30
0.0
 10
535.8032984771603
 20
-1963.035389049172
 30
0.0
 10
536.2934494373242
 20
-1955.988446234093
 30
0.0
 10
536.8835942939475
 20
-1948.951149686373
 30
0.0
  0
HATCH
  5
94
330
70
100
AcDbEntity
  8
2023-001
 62
    18
420
        0
440
 33554687
100
AcDbHatch
 10
0.0
 20
0.0
 30
0.0
210
0.0
220
0.0
230
1.0
  2
SOLID
 70
     1
 71
     1
 91
        1
 92
        1
 93
        1
 72
     4
 94
        3
 73
     0
 74
     0
 95
      149
 96
      145
 40
0.0
 40
0.0
 40
0.0
 40
0.0
 40
1.0
 40
1.0
 40
1.0
 40
2.0
 40
2.0
 40
2.0
 40
3.0
 40
3.0
 40
3.0
 40
4.0
 40
4.0
 40
4.0
 40
5.0
 40
5.0
 40
5.0
 40
6.0
 40
6.0
 40
6.0
 40
7.0
 40
7.0
 40
7.0
 40
8.0
 40
8.0
 40
8.0
 40
9.0
 40
9.0
 40
9.0
 40
10.0
 40
10.0
 40
10.0
 40
11.0
 40
11.0
 40
11.0
 40
12.0
 40
12.0
 40
12.0
 40
13.0
 40
13.0
 40
13.0
 40
14.0
 40
14.0
 40
14.0
 40
15.0
 40
15.0
 40
15.0
 40
16.0
 40
16.0
 40
16.0
 40
17.0
 40
17.0
 40
17.0
 40
18.0
 40
18.0
 40
18.0
 40
19.0
 40
19.0
 40
19.0
 40
20.0
 40
20.0
 40
20.0
 40
21.0
 40
21.0
 40
21.0
 40
22.0
 40
22.0
 40
22.0
 40
23.0
 40
23.0
 40
23.0
 40
24.0
 40
24.0
 40
24.0
 40
25.0
 40
25.0
 40
25.0
 40
26.0
 40
26.0
 40
26.0
 40
27.0
 40
27.0
 40
27.0
 40
28.0
 40
28.0
 40
28.0
 40
29.0
 40
29.0
 40
29.0
 40
30.0
 40
30.0
 40
30.0
 40
31.0
 40
31.0
 40
31.0
 40
32.0
 40
32.0
 40
32.0
 40
33.0
 40
33.0
 40
33.0
 40
34.0
 40
34.0
 40
34.0
 40
35.0
 40
35.0
 40
35.0
 40
36.0
 40
36.0
 40
36.0
 40
37.0
 40
37.0
 40
37.0
 40
38.0
 40
38.0
 40
38.0
 40
39.0
 40
39.0
 40
39.0
 40
40.0
 40
40.0
 40
40.0
 40
41.0
 40
41.0
 40
41.0
 40
42.0
 40
42.0
 40
42.0
 40
43.0
 40
43.0
 40
43.0
 40
44.0
 40
44.0
 40
44.0
 40
45.0
 40
45.0
 40
45.0
 40
46.0
 40
46.0
 40
46.0
 40
47.0
 40
47.0
 40
47.0
 40
48.0
 40
48.0
 40
48.0
 40
48.0
 10
536.8835942939475
 20
-1948.951149686373
 10
538.4202791351432
 20
-1930.627548074201
 10
541.0985824927636
 20
-1912.402476192906
 10
543.1163749184744
 20
-1894.116426121523
 10
545.4800118672108
 20
-1872.697061706305
 10
547.6073152656589
 20
-1851.252031329722
 10
549.9583345521805
 20
-1829.831461131084
 10
552.3329958064697
 20
-1808.194883445521
 10
555.1246858692484
 20
-1786.601197198749
 10
557.2292085738004
 20
-1764.939470316144
 10
558.929277068384
 20
-1747.440452308365
 10
559.9126795746485
 20
-1729.870637588366
 10
561.1382722935262
 20
-1712.32683333928
 10
561.4469959126981
 20
-1707.906259067381
 10
561.1859007386097
 20
-1703.435041891849
 10
561.6641661193495
 20
-1699.039272307445
 10
564.492158875804
 20
-1673.047577164203
 10
567.554762634804
 20
-1647.081375727552
 10
570.3504145573908
 20
-1621.086579998374
 10
572.3308707607801
 20
-1602.672200120165
 10
573.8822833851752
 20
-1584.21148370768
 10
575.8651942190978
 20
-1565.796931574696
 10
578.1444693921392
 20
-1544.630437168096
 10
581.0973468599341
 20
-1523.529916340037
 10
583.0284090068037
 20
-1502.334138621812
 10
586.5368942489821
 20
-1463.825033542464
 10
589.4527369403105
 20
-1425.261495954448
 10
592.7182568233916
 20
-1386.729308735349
 10
595.0752188996252
 20
-1358.917052882927
 10
597.9675488142667
 20
-1331.144760138134
 10
599.9609671894195
 20
-1303.30735508867
 10
603.0130634071895
 20
-1260.68730369416
 10
605.4013327886454
 20
-1218.020054491502
 10
608.2542594236742
 20
-1175.385103059018
 10
610.2112028503769
 20
-1146.139773612119
 10
612.3021604914558
 20
-1116.900645337094
 10
614.6498208098791
 20
-1087.684168564885
 10
617.8460942737068
 20
-1047.909335404255
 10
621.8048534958074
 20
-1008.190571172648
 10
624.5686813488491
 20
-968.3874882290403
 10
626.8291807514958
 20
-935.8340058424303
 10
627.5810728411515
 20
-903.1782041199086
 10
629.4384960720241
 20
-870.5926823452859
 10
631.3085800288048
 20
-837.7833154915091
 10
633.9652654122552
 20
-805.0187348790405
 10
635.8106308089293
 20
-772.2079899870696
 10
637.2347040914509
 20
-746.8875716991288
 10
638.2862764246298
 20
-721.5337359849812
 10
638.8536836510504
 20
-696.180244780382
 10
639.3372458660989
 20
-674.5733379796856
 10
639.0174548776805
 20
-652.9443825678837
 10
638.8191465688109
 20
-631.327097417038
 10
638.6857783098381
 20
-616.7896557431551
 10
637.3801732483156
 20
-602.2267203626812
 10
637.941853003492
 20
-587.7271747391359
 10
639.2049541994652
 20
-555.1209823916017
 10
641.8988035504628
 20
-522.5654329477006
 10
642.8905173495856
 20
-489.9551064855841
 10
643.8321050093978
 20
-458.9921385571269
 10
642.9052020690914
 20
-427.9757716486484
 10
643.6329354266568
 20
-397.0024684337355
 10
644.2061562517088
 20
-372.6082210033106
 10
646.0723644760687
 20
-348.2445918590109
 10
647.3154841182275
 20
-323.8651368073258
 10
648.3544387891917
 20
-303.4898301107595
 10
648.8314553228182
 20
-283.0715027843211
 10
650.4307547744583
 20
-262.7416713481601
 10
653.2640874289149
 20
-226.7237148141958
 10
656.0801515422516
 20
-190.6802645736407
 10
660.1701258386468
 20
-154.7924895853253
 10
664.27831607742
 20
-118.7452497397364
 10
669.3237876066491
 20
-82.77584752026742
 10
675.1211512255339
 20
-46.96108702439254
 10
676.0309148158013
 20
-41.34069365421561
 10
677.0914874609355
 20
-35.74516956707282
 10
678.2306082831333
 20
-30.16249999245938
 10
678.2306082831333
 20
-30.16249999245938
 10
625.38947534821
 20
-30.16249999245938
 10
625.38947534821
 20
-30.16249999245938
 10
623.9918001098441
 20
-39.62805056111078
 10
622.6054075591924
 20
-49.09515142273055
 10
621.2450254794544
 20
-58.56582657091627
 10
614.4050467756523
 20
-106.1840440272734
 10
608.7000547794656
 20
-153.9655374777846
 10
602.4762314032003
 20
-201.672961375363
 10
598.4369861378256
 20
-232.6345727974729
 10
593.8101798374415
 20
-263.5341725008482
 10
590.5496122791204
 20
-294.5773896222649
 10
588.9624137253722
 20
-309.6893225001601
 10
589.9601995052877
 20
-325.0685086603236
 10
589.6860560320489
 20
-340.3247479753572
 10
588.7871444925601
 20
-390.3486971409111
 10
588.1339543885568
 20
-440.3792350515805
 10
586.7648303790249
 20
-490.3904804275326
 10
586.2449654703007
 20
-509.3784687040356
 10
583.2549240349589
 20
-528.3003111472218
 10
582.7825153165439
 20
-547.2872658950792
 10
582.0940991112039
 20
-574.9583158962995
 10
583.2073817172624
 20
-602.6734631197309
 10
582.5766277976067
 20
-630.3472261336459
 10
581.4579622298525
 20
-679.4316546966785
 10
580.189133562635
 20
-728.5271075652641
 10
577.8882834791174
 20
-777.5660608678914
 10
575.8085223983656
 20
-821.8912622728259
 10
572.3411629835423
 20
-866.1531600482186
 10
569.3459969686661
 20
-910.4333168296832
 10
566.7013263557205
 20
-949.5314471096223
 10
563.99210326612
 20
-988.6260461666889
 10
561.0740212627263
 20
-1027.704539402362
 10
558.3687169692402
 20
-1063.934972200379
 10
555.1744674990102
 20
-1100.128886986252
 10
552.5111503067506
 20
-1136.362161988045
 10
548.9663623708964
 20
-1184.585833444088
 10
545.9831249991379
 20
-1232.851621192438
 10
542.2647473145206
 20
-1281.061167756991
 10
539.8833681240353
 20
-1311.935252221929
 10
536.4001612699799
 20
-1342.722606408026
 10
533.8066072612966
 20
-1373.582307599313
 10
531.8412664143487
 20
-1396.966754479317
 10
530.783320654522
 20
-1420.427337969546
 10
528.8117355720071
 20
-1443.811440340002
 10
526.2719250528938
 20
-1473.934321734381
 10
523.2486384461193
 20
-1504.016723256808
 10
520.3851181424731
 20
-1534.112043887305
 10
517.9417702969468
 20
-1559.790235341389
 10
515.5891145900698
 20
-1585.478934336703
 10
512.9058589076893
 20
-1611.132321103293
 10
509.9094440456997
 20
-1639.780529375211
 10
506.4315770896464
 20
-1668.378783762593
 10
503.4421385460144
 20
-1697.027853308382
 10
499.5919859590864
 20
-1733.925859484053
 10
496.1918059062255
 20
-1770.871063467873
 10
492.2648276899763
 20
-1807.760284650056
 10
489.7080070119046
 20
-1831.778456844573
 10
486.0554306510556
 20
-1855.686041474012
 10
483.7955341401188
 20
-1879.728329336925
 10
480.9677136384386
 20
-1909.812453407095
 10
478.3916004256495
 20
-1939.934129018055
 10
476.4470593426938
 20
-1970.087499507478
 10
476.4470593426938
 20
-1970.087499507478
 10
535.3761066369893
 20
-1970.087499507478
 10
535.3761066369893
 20
-1970.087499507478
 10
535.8032984771603
 20
-1963.035389049172
 10
536.2934494373242
 20
-1955.988446234093
 10
536.8835942939475
 20
-1948.951149686373
 97
        0
 97
        1
330
93
 75
     2
 76
     1
 98
        1
 10
0.0
 20
0.0
450
        0
451
        0
460
0.0
461
0.0
452
        0
462
0.0
453
        0
470

  0
ENDSEC
  0
SECTION
  2
OBJECTS
  0
DICTIONARY
  5
C
330
0
100
AcDbDictionary
281
     1
  3
ACAD_COLOR
350
63
  3
ACAD_DETAILVIEWSTYLE
350
6A
  3
ACAD_GROUP
350
D
  3
ACAD_LAYOUT
350
62
  3
ACAD_MATERIAL
350
10
  3
ACAD_MLEADERSTYLE
350
66
  3
ACAD_MLINESTYLE
350
5F
  3
ACAD_PLOTSETTINGS
350
61
  3
ACAD_PLOTSTYLENAME
350
E
  3
ACAD_SCALELIST
350
42
  3
ACAD_SECTIONVIEWSTYLE
350
68
  3
ACAD_TABLESTYLE
350
64
  3
ACAD_VISUALSTYLE
350
29
  3
ACDB_RECOMPOSE_DATA
350
9E
  3
AcDbVariableDictionary
350
96
  0
DICTIONARY
  5
63
102
{ACAD_REACTORS
330
C
102
}
330
C
100
AcDbDictionary
281
     1
  0
DICTIONARY
  5
6A
102
{ACAD_REACTORS
330
C
102
}
330
C
100
AcDbDictionary
281
     1
  3
Imperial24
350
6B
  0
DICTIONARY
  5
D
102
{ACAD_REACTORS
330
C
102
}
330
C
100
AcDbDictionary
281
     1
  0
DICTIONARY
  5
62
102
{ACAD_REACTORS
330
C
102
}
330
C
100
AcDbDictionary
281
     1
  3
Layout1
350
6F
  3
Layout2
350
77
  3
Model
350
73
  0
DICTIONARY
  5
10
102
{ACAD_REACTORS
330
C
102
}
330
C
100
AcDbDictionary
281
     1
  3
ByBlock
350
19
  3
ByLayer
350
11
  3
Global
350
21
  0
DICTIONARY
  5
66
102
{ACAD_REACTORS
330
C
102
}
330
C
100
AcDbDictionary
281
     1
  3
Standard
350
67
  0
DICTIONARY
  5
5F
102
{ACAD_REACTORS
330
C
102
}
330
C
100
AcDbDictionary
281
     1
  3
Standard
350
60
  0
DICTIONARY
  5
61
102
{ACAD_REACTORS
330
C
102
}
330
C
100
AcDbDictionary
281
     1
  0
ACDBDICTIONARYWDFLT
  5
E
102
{ACAD_REACTORS
330
C
102
}
330
C
100
AcDbDictionary
281
     1
  3
Normal
350
F
100
AcDbDictionaryWithDefault
340
F
  0
DICTIONARY
  5
42
102
{ACAD_REACTORS
330
C
102
}
330
C
100
AcDbDictionary
281
     1
  3
A0
350
43
  3
A1
350
44
  3
A2
350
45
  3
A3
350
46
  3
A4
350
47
  3
A5
350
48
  3
A6
350
49
  3
A7
350
4A
  3
A8
350
4B
  3
A9
350
4C
  3
B0
350
4D
  3
B1
350
4E
  3
B2
350
4F
  3
B3
350
50
  3
B4
350
51
  3
B5
350
52
  3
B6
350
53
  0
DICTIONARY
  5
68
102
{ACAD_REACTORS
330
C
102
}
330
C
100
AcDbDictionary
281
     1
  3
Imperial24
350
69
  0
DICTIONARY
  5
64
102
{ACAD_REACTORS
330
C
102
}
330
C
100
AcDbDictionary
281
     1
  3
Standard
350
65
  0
DICTIONARY
  5
29
102
{ACAD_REACTORS
330
C
102
}
330
C
100
AcDbDictionary
281
     1
  3
2dWireframe
350
2F
  3
Basic
350
2E
  3
Brighten
350
35
  3
ColorChange
350
39
  3
Conceptual
350
32
  3
Dim
350
34
  3
EdgeColorOff
350
41
  3
Facepattern
350
38
  3
Flat
350
2A
  3
FlatWithEdges
350
2B
  3
Gouraud
350
2C
  3
GouraudWithEdges
350
2D
  3
Hidden
350
31
  3
JitterOff
350
3F
  3
Linepattern
350
37
  3
OverhangOff
350
40
  3
Realistic
350
33
  3
Shaded
350
3E
  3
Shaded with edges
350
3D
  3
Shades of Gray
350
3A
  3
Sketchy
350
3B
  3
Thicken
350
36
  3
Wireframe
350
30
  3
X-Ray
350
3C
  0
XRECORD
  5
9E
102
{ACAD_REACTORS
330
C
102
}
330
C
100
AcDbXrecord
280
     1
 90
        1
330
65
  0
DICTIONARY
  5
96
102
{ACAD_REACTORS
330
C
102
}
330
C
100
AcDbDictionary
281
     1
  3
CANNOSCALE
350
9B
  3
CMLEADERSTYLE
350
98
  3
CTABLESTYLE
350
97
  3
CVIEWDETAILSTYLE
350
99
  3
CVIEWSECTIONSTYLE
350
9A
  0
ACDBDETAILVIEWSTYLE
  5
6B
102
{ACAD_REACTORS
330
6A
102
}
330
6A
100
AcDbModelDocViewStyle
 70
     0
  3
Imperial24
290
     1
300
Imperial24
 90
        0
100
AcDbDetailViewStyle
 70
     0
 71
     0
 90
        3
 71
     1
340
55
 62
   256
 40
0.24
340
0
 62
   256
 40
0.24
300

 40
0.36
280
     3
 71
     2
340
5D
 90
       25
 62
   256
 71
     3
340
55
 62
   256
 40
0.24
 90
        1
 40
0.75
 90
        1
300
%<\AcVar ViewType \f "%tc1">% %<\AcVar ViewDetailId>%\PSCALE %<\AcVar ViewScale \f "%sn">%
 71
     4
340
5D
 90
       25
 62
   256
340
5D
 90
       25
 62
   256
280
     0
  0
LAYOUT
  5
6F
102
{ACAD_REACTORS
330
62
102
}
330
62
100
AcDbPlotSettings
  1

  2

  4

  6

 40
0.0
 41
0.0
 42
0.0
 43
0.0
 44
0.0
 45
0.0
 46
0.0
 47
0.0
 48
0.0
 49
0.0
140
0.0
141
0.0
142
1.0
143
1.0
 70
   688
 72
     0
 73
     0
 74
     5
  7

 75
    16
147
1.0
 76
     0
 77
     2
 78
   300
148
0.0
149
0.0
100
AcDbLayout
  1
Layout1
 70
     1
 71
     1
 10
0.0
 20
0.0
 11
12.0
 21
9.0
 12
0.0
 22
0.0
 32
0.0
 14
0.0
 24
0.0
 34
0.0
 15
0.0
 25
0.0
 35
0.0
146
0.0
 13
0.0
 23
0.0
 33
0.0
 16
1.0
 26
0.0
 36
0.0
 17
0.0
 27
1.0
 37
0.0
 76
     0
330
6C
  0
LAYOUT
  5
77
102
{ACAD_REACTORS
330
62
102
}
330
62
100
AcDbPlotSettings
  1

  2

  4

  6

 40
0.0
 41
0.0
 42
0.0
 43
0.0
 44
0.0
 45
0.0
 46
0.0
 47
0.0
 48
0.0
 49
0.0
140
0.0
141
0.0
142
1.0
143
1.0
 70
   688
 72
     0
 73
     0
 74
     5
  7

 75
    16
147
1.0
 76
     0
 77
     2
 78
   300
148
0.0
149
0.0
100
AcDbLayout
  1
Layout2
 70
     1
 71
     2
 10
0.0
 20
0.0
 11
12.0
 21
9.0
 12
0.0
 22
0.0
 32
0.0
 14
0.0
 24
0.0
 34
0.0
 15
0.0
 25
0.0
 35
0.0
146
0.0
 13
0.0
 23
0.0
 33
0.0
 16
1.0
 26
0.0
 36
0.0
 17
0.0
 27
1.0
 37
0.0
 76
     0
330
74
  0
LAYOUT
  5
73
102
{ACAD_REACTORS
330
62
102
}
330
62
100
AcDbPlotSettings
  1

  2

  4

  6

 40
0.0
 41
0.0
 42
0.0
 43
0.0
 44
0.0
 45
0.0
 46
0.0
 47
0.0
 48
0.0
 49
0.0
140
0.0
141
0.0
142
1.0
143
1.0
 70
  1712
 72
     0
 73
     0
 74
     0
  7

 75
     0
147
1.0
 76
     0
 77
     2
 78
   300
148
0.0
149
0.0
100
AcDbLayout
  1
Model
 70
     1
 71
     0
 10
0.0
 20
0.0
 11
12.0
 21
9.0
 12
0.0
 22
0.0
 32
0.0
 14
0.0
 24
0.0
 34
0.0
 15
0.0
 25
0.0
 35
0.0
146
0.0
 13
0.0
 23
0.0
 33
0.0
 16
1.0
 26
0.0
 36
0.0
 17
0.0
 27
1.0
 37
0.0
 76
     0
330
70
  0
MATERIAL
  5
19
102
{ACAD_XDICTIONARY
360
1A
102
}
102
{ACAD_REACTORS
330
10
102
}
330
10
100
AcDbMaterial
  1
ByBlock
 72
     0
 43
0.0208333333333333
 43
0.0
 43
0.0
 43
0.0
 43
0.0
 43
0.0208333333333333
 43
0.0
 43
0.0
 43
0.0
 43
0.0
 43
1.0
 43
0.0
 43
0.0
 43
0.0
 43
0.0
 43
1.0
 77
     0
 47
0.0208333333333333
 47
0.0
 47
0.0
 47
0.0
 47
0.0
 47
0.0208333333333333
 47
0.0
 47
0.0
 47
0.0
 47
0.0
 47
1.0
 47
0.0
 47
0.0
 47
0.0
 47
0.0
 47
1.0
171
     0
 49
0.0208333333333333
 49
0.0
 49
0.0
 49
0.0
 49
0.0
 49
0.0208333333333333
 49
0.0
 49
0.0
 49
0.0
 49
0.0
 49
1.0
 49
0.0
 49
0.0
 49
0.0
 49
0.0
 49
1.0
175
     0
142
0.0208333333333333
142
0.0
142
0.0
142
0.0
142
0.0
142
0.0208333333333333
142
0.0
142
0.0
142
0.0
142
0.0
142
1.0
142
0.0
142
0.0
142
0.0
142
0.0
142
1.0
179
     0
144
0.0208333333333333
144
0.0
144
0.0
144
0.0
144
0.0
144
0.0208333333333333
144
0.0
144
0.0
144
0.0
144
0.0
144
1.0
144
0.0
144
0.0
144
0.0
144
0.0
144
1.0
147
0.0208333333333333
147
0.0
147
0.0
147
0.0
147
0.0
147
0.0208333333333333
147
0.0
147
0.0
147
0.0
147
0.0
147
1.0
147
0.0
147
0.0
147
0.0
147
0.0
147
1.0
  0
MATERIAL
  5
11
102
{ACAD_XDICTIONARY
360
12
102
}
102
{ACAD_REACTORS
330
10
102
}
330
10
100
AcDbMaterial
  1
ByLayer
 72
     0
 43
0.0208333333333333
 43
0.0
 43
0.0
 43
0.0
 43
0.0
 43
0.0208333333333333
 43
0.0
 43
0.0
 43
0.0
 43
0.0
 43
1.0
 43
0.0
 43
0.0
 43
0.0
 43
0.0
 43
1.0
 77
     0
 47
0.0208333333333333
 47
0.0
 47
0.0
 47
0.0
 47
0.0
 47
0.0208333333333333
 47
0.0
 47
0.0
 47
0.0
 47
0.0
 47
1.0
 47
0.0
 47
0.0
 47
0.0
 47
0.0
 47
1.0
171
     0
 49
0.0208333333333333
 49
0.0
 49
0.0
 49
0.0
 49
0.0
 49
0.0208333333333333
 49
0.0
 49
0.0
 49
0.0
 49
0.0
 49
1.0
 49
0.0
 49
0.0
 49
0.0
 49
0.0
 49
1.0
175
     0
142
0.0208333333333333
142
0.0
142
0.0
142
0.0
142
0.0
142
0.0208333333333333
142
0.0
142
0.0
142
0.0
142
0.0
142
1.0
142
0.0
142
0.0
142
0.0
142
0.0
142
1.0
179
     0
144
0.0208333333333333
144
0.0
144
0.0
144
0.0
144
0.0
144
0.0208333333333333
144
0.0
144
0.0
144
0.0
144
0.0
144
1.0
144
0.0
144
0.0
144
0.0
144
0.0
144
1.0
147
0.0208333333333333
147
0.0
147
0.0
147
0.0
147
0.0
147
0.0208333333333333
147
0.0
147
0.0
147
0.0
147
0.0
147
1.0
147
0.0
147
0.0
147
0.0
147
0.0
147
1.0
  0
MATERIAL
  5
21
102
{ACAD_XDICTIONARY
360
22
102
}
102
{ACAD_REACTORS
330
10
102
}
330
10
100
AcDbMaterial
  1
Global
 72
     0
 43
0.0208333333333333
 43
0.0
 43
0.0
 43
0.0
 43
0.0
 43
0.0208333333333333
 43
0.0
 43
0.0
 43
0.0
 43
0.0
 43
1.0
 43
0.0
 43
0.0
 43
0.0
 43
0.0
 43
1.0
 77
     0
 47
0.0208333333333333
 47
0.0
 47
0.0
 47
0.0
 47
0.0
 47
0.0208333333333333
 47
0.0
 47
0.0
 47
0.0
 47
0.0
 47
1.0
 47
0.0
 47
0.0
 47
0.0
 47
0.0
 47
1.0
171
     0
 49
0.0208333333333333
 49
0.0
 49
0.0
 49
0.0
 49
0.0
 49
0.0208333333333333
 49
0.0
 49
0.0
 49
0.0
 49
0.0
 49
1.0
 49
0.0
 49
0.0
 49
0.0
 49
0.0
 49
1.0
175
     0
142
0.0208333333333333
142
0.0
142
0.0
142
0.0
142
0.0
142
0.0208333333333333
142
0.0
142
0.0
142
0.0
142
0.0
142
1.0
142
0.0
142
0.0
142
0.0
142
0.0
142
1.0
179
     0
144
0.0208333333333333
144
0.0
144
0.0
144
0.0
144
0.0
144
0.0208333333333333
144
0.0
144
0.0
144
0.0
144
0.0
144
1.0
144
0.0
144
0.0
144
0.0
144
0.0
144
1.0
147
0.0208333333333333
147
0.0
147
0.0
147
0.0
147
0.0
147
0.0208333333333333
147
0.0
147
0.0
147
0.0
147
0.0
147
1.0
147
0.0
147
0.0
147
0.0
147
0.0
147
1.0
  0
MLEADERSTYLE
  5
67
102
{ACAD_REACTORS
330
66
102
}
330
66
100
AcDbMLeaderStyle
179
     2
170
     2
171
     1
172
     0
 90
        2
 40
0.0
 41
0.0
173
     1
 91
-1056964608
340
5B
 92
       -2
290
     1
 42
0.09
291
     1
 43
0.36
  3
Standard
 44
0.18
300

342
55
174
     1
178
     6
175
     1
176
     0
 93
-1056964608
 45
0.18
292
     0
297
     0
 46
0.18
 94
-1056964608
 47
1.0
 49
1.0
140
1.0
293
     1
141
0.0
294
     1
177
     0
142
1.0
295
     1
296
     0
143
0.125
271
     0
272
     9
273
     9
298
     1
  0
MLINESTYLE
  5
60
102
{ACAD_REACTORS
330
5F
102
}
330
5F
100
AcDbMlineStyle
  2
STANDARD
 70
     0
  3

 62
   256
 51
90.0
 52
90.0
 71
     2
 49
0.5
 62
   256
  6
BYLAYER
 49
-0.5
 62
   256
  6
BYLAYER
  0
ACDBPLACEHOLDER
  5
F
102
{ACAD_REACTORS
330
E
102
}
330
E
  0
SCALE
  5
43
102
{ACAD_REACTORS
330
42
102
}
330
42
100
AcDbScale
 70
     0
300
1:1
140
1.0
141
1.0
290
     1
  0
SCALE
  5
44
102
{ACAD_REACTORS
330
42
102
}
330
42
100
AcDbScale
 70
     0
300
1/128" = 1'-0"
140
0.0078125
141
12.0
290
     0
  0
SCALE
  5
45
102
{ACAD_REACTORS
330
42
102
}
330
42
100
AcDbScale
 70
     0
300
1/64" = 1'-0"
140
0.015625
141
12.0
290
     0
  0
SCALE
  5
46
102
{ACAD_REACTORS
330
42
102
}
330
42
100
AcDbScale
 70
     0
300
1/32" = 1'-0"
140
0.03125
141
12.0
290
     0
  0
SCALE
  5
47
102
{ACAD_REACTORS
330
42
102
}
330
42
100
AcDbScale
 70
     0
300
1/16" = 1'-0"
140
0.0625
141
12.0
290
     0
  0
SCALE
  5
48
102
{ACAD_REACTORS
330
42
102
}
330
42
100
AcDbScale
 70
     0
300
3/32" = 1'-0"
140
0.09375
141
12.0
290
     0
  0
SCALE
  5
49
102
{ACAD_REACTORS
330
42
102
}
330
42
100
AcDbScale
 70
     0
300
1/8" = 1'-0"
140
0.125
141
12.0
290
     0
  0
SCALE
  5
4A
102
{ACAD_REACTORS
330
42
102
}
330
42
100
AcDbScale
 70
     0
300
3/16" = 1'-0"
140
0.1875
141
12.0
290
     0
  0
SCALE
  5
4B
102
{ACAD_REACTORS
330
42
102
}
330
42
100
AcDbScale
 70
     0
300
1/4" = 1'-0"
140
0.25
141
12.0
290
     0
  0
SCALE
  5
4C
102
{ACAD_REACTORS
330
42
102
}
330
42
100
AcDbScale
 70
     0
300
3/8" = 1'-0"
140
0.375
141
12.0
290
     0
  0
SCALE
  5
4D
102
{ACAD_REACTORS
330
42
102
}
330
42
100
AcDbScale
 70
     0
300
1/2" = 1'-0"
140
0.5
141
12.0
290
     0
  0
SCALE
  5
4E
102
{ACAD_REACTORS
330
42
102
}
330
42
100
AcDbScale
 70
     0
300
3/4" = 1'-0"
140
0.75
141
12.0
290
     0
  0
SCALE
  5
4F
102
{ACAD_REACTORS
330
42
102
}
330
42
100
AcDbScale
 70
     0
300
1" = 1'-0"
140
1.0
141
12.0
290
     0
  0
SCALE
  5
50
102
{ACAD_REACTORS
330
42
102
}
330
42
100
AcDbScale
 70
     0
300
1-1/2" = 1'-0"
140
1.5
141
12.0
290
     0
  0
SCALE
  5
51
102
{ACAD_REACTORS
330
42
102
}
330
42
100
AcDbScale
 70
     0
300
3" = 1'-0"
140
3.0
141
12.0
290
     0
  0
SCALE
  5
52
102
{ACAD_REACTORS
330
42
102
}
330
42
100
AcDbScale
 70
     0
300
6" = 1'-0"
140
6.0
141
12.0
290
     0
  0
SCALE
  5
53
102
{ACAD_REACTORS
330
42
102
}
330
42
100
AcDbScale
 70
     0
300
1'-0" = 1'-0"
140
12.0
141
12.0
290
     0
  0
ACDBSECTIONVIEWSTYLE
  5
69
102
{ACAD_REACTORS
330
68
102
}
330
68
100
AcDbModelDocViewStyle
 70
     0
  3
Imperial24
290
     1
300
Imperial24
 90
        0
100
AcDbSectionViewStyle
 70
     0
 71
     0
 90
       78
 71
     1
340
55
 62
   256
 40
0.24
340
0
340
0
 62
   256
 40
0.24
300
I, O, Q, S, X, Z
 40
0.48
 90
        3
 40
0.18
 90
        1
 71
     2
340
5D
 90
       25
 62
   256
340
5D
 90
       50
 62
   256
 40
0.24
 40
0.0
 40
0.24
 71
     3
340
55
 62
   256
 40
0.24
 90
        1
 40
0.75
 90
        1
300
%<\AcVar ViewType \f "%tc1">% %<\AcVar ViewSectionStartId>%-%<\AcVar ViewSectionEndId>%\PSCALE %<\AcVar ViewScale \f "%sn">%
 71
     4
 62
   256
 62
   257
300
ANSI31
 40
1.0
 90
        0
290
     0
290
     0
 90
        6
 40
0.0
 40
1.570796326794896
 40
0.2617993877991494
 40
1.308996938995747
 40
-0.2617993877991494
 40
1.832595714594046
  0
TABLESTYLE
  5
65
102
{ACAD_XDICTIONARY
360
9C
102
}
102
{ACAD_REACTORS
330
64
102
}
330
64
100
AcDbTableStyle
280
     0
  3
Standard
 70
     0
 71
     0
 40
0.06
 41
0.06
280
     0
281
     0
  7
Standard
140
0.18
170
     2
 62
     0
 63
     7
283
     0
 90
      512
 91
        0
  1

274
    -2
284
     1
 64
     0
275
    -2
285
     1
 65
     0
276
    -2
286
     1
 66
     0
277
    -2
287
     1
 67
     0
278
    -2
288
     1
 68
     0
279
    -2
289
     1
 69
     0
  7
Standard
140
0.25
170
     5
 62
     0
 63
     7
283
     0
 90
      512
 91
        0
  1

274
    -2
284
     1
 64
     0
275
    -2
285
     1
 65
     0
276
    -2
286
     1
 66
     0
277
    -2
287
     1
 67
     0
278
    -2
288
     1
 68
     0
279
    -2
289
     1
 69
     0
  7
Standard
140
0.18
170
     5
 62
     0
 63
     7
283
     0
 90
      512
 91
        0
  1

274
    -2
284
     1
 64
     0
275
    -2
285
     1
 65
     0
276
    -2
286
     1
 66
     0
277
    -2
287
     1
 67
     0
278
    -2
288
     1
 68
     0
279
    -2
289
     1
 69
     0
  0
VISUALSTYLE
  5
2F
102
{ACAD_REACTORS
330
29
102
}
330
29
100
AcDbVisualStyle
  2
2dWireframe
 70
     4
177
     3
291
     0
 70
    58
 90
        0
176
     1
 90
        2
176
     1
 90
        0
176
     1
 90
        0
176
     1
 40
0.6
176
     1
 40
30.0
176
     1
 62
     7
420
 16777215
176
     1
 90
        1
176
     1
 90
        4
176
     1
 62
     7
176
     1
 62
   257
176
     1
 90
        1
176
     1
 90
        1
176
     1
 40
1.0
176
     1
 90
        0
176
     1
 62
   257
176
     1
 40
1.0
176
     1
 90
        1
176
     1
 90
        6
176
     1
 90
        2
176
     1
 62
     7
176
     1
 90
        5
176
     1
 90
        0
176
     1
 90
        0
176
     1
290
     0
176
     1
 90
        1
176
     1
 40
0.0
176
     1
 90
        0
176
     1
290
     1
176
     1
290
     1
176
     1
290
     0
176
     1
290
     0
176
     1
290
     0
176
     1
290
     0
176
     1
290
     0
176
     1
290
     0
176
     1
290
     0
176
     1
 90
       50
176
     1
 40
0.0
176
     1
 40
1.0
176
     1
 90
        0
176
     1
 62
    18
420
        0
176
     1
 90
       50
176
     1
 90
        3
176
     1
 62
     5
420
      255
176
     1
290
     0
176
     1
 90
       50
176
     1
 90
       50
176
     1
 90
       50
176
     1
290
     0
176
     1
 90
       50
176
     1
 62
   256
176
     0
 40
1.0
176
     0
 90
        2
176
     1
  1
strokes_ogs.tif
176
     1
290
     0
176
     1
 40
1.0
176
     1
 40
1.0
176
     1
  0
VISUALSTYLE
  5
2E
102
{ACAD_REACTORS
330
29
102
}
330
29
100
AcDbVisualStyle
  2
Basic
 70
     7
177
     3
291
     1
 70
    58
 90
        1
176
     1
 90
        0
176
     1
 90
        1
176
     1
 90
        0
176
     1
 40
0.6
176
     1
 40
30.0
176
     1
 62
     7
420
 16777215
176
     1
 90
        0
176
     1
 90
        4
176
     1
 62
     7
176
     1
 62
   257
176
     1
 90
        1
176
     1
 90
        1
176
     1
 40
1.0
176
     1
 90
        8
176
     1
 62
     7
176
     1
 40
1.0
176
     1
 90
        1
176
     1
 90
        6
176
     1
 90
        2
176
     1
 62
     7
176
     1
 90
        5
176
     1
 90
        0
176
     1
 90
        0
176
     1
290
     0
176
     1
 90
        1
176
     1
 40
0.0
176
     1
 90
        0
176
     1
290
     0
176
     1
290
     1
176
     1
290
     1
176
     1
290
     0
176
     1
290
     0
176
     1
290
     0
176
     1
290
     0
176
     1
290
     0
176
     1
290
     0
176
     1
 90
       50
176
     1
 40
0.0
176
     1
 40
1.0
176
     1
 90
        0
176
     1
 62
    18
420
        0
176
     1
 90
       50
176
     1
 90
        3
176
     1
 62
     5
420
      255
176
     1
290
     0
176
     1
 90
       50
176
     1
 90
       50
176
     1
 90
       50
176
     1
290
     0
176
     1
 90
       50
176
     1
 62
   256
176
     0
 40
1.0
176
     0
 90
        2
176
     1
  1
strokes_ogs.tif
176
     1
290
     0
176
     1
 40
1.0
176
     1
 40
1.0
176
     1
  0
VISUALSTYLE
  5
35
102
{ACAD_REACTORS
330
29
102
}
330
29
100
AcDbVisualStyle
  2
Brighten
 70
    12
177
     3
291
     1
 70
    58
 90
        2
176
     1
 90
        2
176
     1
 90
        0
176
     1
 90
        0
176
     1
 40
0.6
176
     1
 40
30.0
176
     1
 62
     7
420
 16777215
176
     1
 90
        1
176
     1
 90
        4
176
     1
 62
     7
176
     1
 62
   257
176
     1
 90
        1
176
     1
 90
        1
176
     1
 40
1.0
176
     1
 90
        8
176
     1
 62
     7
176
     1
 40
1.0
176
     1
 90
        1
176
     1
 90
        6
176
     1
 90
        2
176
     1
 62
     7
176
     1
 90
        5
176
     1
 90
        0
176
     1
 90
        0
176
     1
290
     0
176
     1
 90
        1
176
     1
 40
50.0
176
     1
 90
        0
176
     1
290
     0
176
     1
290
     1
176
     1
290
     1
176
     1
290
     0
176
     1
290
     0
176
     1
290
     0
176
     1
290
     0
176
     1
290
     0
176
     1
290
     0
176
     1
 90
       50
176
     1
 40
0.0
176
     1
 40
1.0
176
     1
 90
        0
176
     1
 62
    18
420
        0
176
     1
 90
       50
176
     1
 90
        3
176
     1
 62
     5
420
      255
176
     1
290
     0
176
     1
 90
       50
176
     1
 90
       50
176
     1
 90
       50
176
     1
290
     0
176
     1
 90
       50
176
     1
 62
   256
176
     0
 40
1.0
176
     0
 90
        2
176
     1
  1
strokes_ogs.tif
176
     1
290
     0
176
     1
 40
1.0
176
     1
 40
1.0
176
     1
  0
VISUALSTYLE
  5
39
102
{ACAD_REACTORS
330
29
102
}
330
29
100
AcDbVisualStyle
  2
ColorChange
 70
    16
177
     3
291
     1
 70
    58
 90
        2
176
     1
 90
        2
176
     1
 90
        3
176
     1
 90
        0
176
     1
 40
0.6
176
     1
 40
30.0
176
     1
 62
     8
420
  8421504
176
     1
 90
        1
176
     1
 90
        4
176
     1
 62
     7
176
     1
 62
   257
176
     1
 90
        1
176
     1
 90
        1
176
     1
 40
1.0
176
     1
 90
        8
176
     1
 62
     8
420
  8421504
176
     1
 40
1.0
176
     1
 90
        1
176
     1
 90
        6
176
     1
 90
        2
176
     1
 62
     7
176
     1
 90
        5
176
     1
 90
        0
176
     1
 90
        0
176
     1
290
     0
176
     1
 90
        1
176
     1
 40
0.0
176
     1
 90
        0
176
     1
290
     0
176
     1
290
     1
176
     1
290
     1
176
     1
290
     0
176
     1
290
     0
176
     1
290
     0
176
     1
290
     0
176
     1
290
     0
176
     1
290
     0
176
     1
 90
       50
176
     1
 40
0.0
176
     1
 40
1.0
176
     1
 90
        0
176
     1
 62
    18
420
        0
176
     1
 90
       50
176
     1
 90
        3
176
     1
 62
     5
420
      255
176
     1
290
     0
176
     1
 90
       50
176
     1
 90
       50
176
     1
 90
       50
176
     1
290
     0
176
     1
 90
       50
176
     1
 62
   256
176
     0
 40
1.0
176
     0
 90
        2
176
     1
  1
strokes_ogs.tif
176
     1
290
     0
176
     1
 40
1.0
176
     1
 40
1.0
176
     1
  0
VISUALSTYLE
  5
32
102
{ACAD_REACTORS
330
29
102
}
330
29
100
AcDbVisualStyle
  2
Conceptual
 70
     9
177
     3
291
     0
 70
    58
 90
        3
176
     1
 90
        2
176
     1
 90
        0
176
     1
 90
        0
176
     1
 40
0.6
176
     1
 40
30.0
176
     1
 62
     7
420
 16777215
176
     1
 90
        2
176
     1
 90
        2
176
     1
 62
     7
176
     1
 62
   257
176
     1
 90
        1
176
     1
 90
        1
176
     1
 40
179.0
176
     1
 90
        8
176
     1
 62
     7
176
     1
 40
1.0
176
     1
 90
        1
176
     1
 90
        6
176
     1
 90
        2
176
     1
 62
     7
176
     1
 90
        3
176
     1
 90
        0
176
     1
 90
        0
176
     1
290
     0
176
     1
 90
        1
176
     1
 40
0.0
176
     1
 90
        0
176
     1
290
     0
176
     1
290
     1
176
     1
290
     1
176
     1
290
     0
176
     1
290
     0
176
     1
290
     0
176
     1
290
     0
176
     1
290
     0
176
     1
290
     0
176
     1
 90
       50
176
     1
 40
0.0
176
     1
 40
1.0
176
     1
 90
        0
176
     1
 62
    18
420
        0
176
     1
 90
       50
176
     1
 90
        3
176
     1
 62
     5
420
      255
176
     1
290
     0
176
     1
 90
       50
176
     1
 90
       50
176
     1
 90
       50
176
     1
290
     0
176
     1
 90
       50
176
     1
 62
   256
176
     0
 40
1.0
176
     0
 90
        2
176
     1
  1
strokes_ogs.tif
176
     1
290
     0
176
     1
 40
1.0
176
     1
 40
1.0
176
     1
  0
VISUALSTYLE
  5
34
102
{ACAD_REACTORS
330
29
102
}
330
29
100
AcDbVisualStyle
  2
Dim
 70
    11
177
     3
291
     1
 70
    58
 90
        2
176
     1
 90
        2
176
     1
 90
        0
176
     1
 90
        0
176
     1
 40
0.6
176
     1
 40
30.0
176
     1
 62
     7
420
 16777215
176
     1
 90
        1
176
     1
 90
        4
176
     1
 62
     7
176
     1
 62
   257
176
     1
 90
        1
176
     1
 90
        1
176
     1
 40
1.0
176
     1
 90
        8
176
     1
 62
     7
176
     1
 40
1.0
176
     1
 90
        1
176
     1
 90
        6
176
     1
 90
        2
176
     1
 62
     7
176
     1
 90
        5
176
     1
 90
        0
176
     1
 90
        0
176
     1
290
     0
176
     1
 90
        1
176
     1
 40
-50.0
176
     1
 90
        0
176
     1
290
     0
176
     1
290
     1
176
     1
290
     1
176
     1
290
     0
176
     1
290
     0
176
     1
290
     0
176
     1
290
     0
176
     1
290
     0
176
     1
290
     0
176
     1
 90
       50
176
     1
 40
0.0
176
     1
 40
1.0
176
     1
 90
        0
176
     1
 62
    18
420
        0
176
     1
 90
       50
176
     1
 90
        3
176
     1
 62
     5
420
      255
176
     1
290
     0
176
     1
 90
       50
176
     1
 90
       50
176
     1
 90
       50
176
     1
290
     0
176
     1
 90
       50
176
     1
 62
   256
176
     0
 40
1.0
176
     0
 90
        2
176
     1
  1
strokes_ogs.tif
176
     1
290
     0
176
     1
 40
1.0
176
     1
 40
1.0
176
     1
  0
VISUALSTYLE
  5
41
102
{ACAD_REACTORS
330
29
102
}
330
29
100
AcDbVisualStyle
  2
EdgeColorOff
 70
    22
177
     3
291
     1
 70
    58
 90
        2
176
     0
 90
        2
176
     0
 90
        0
176
     0
 90
        0
176
     0
 40
0.6
176
     0
 40
30.0
176
     0
 62
     7
420
 16777215
176
     0
 90
        1
176
     0
 90
        4
176
     0
 62
     7
176
     0
 62
   257
176
     0
 90
        1
176
     0
 90
        1
176
     0
 40
1.0
176
     0
 90
        8
176
     2
 62
     7
176
     0
 40
1.0
176
     0
 90
        1
176
     0
 90
        6
176
     0
 90
        2
176
     0
 62
     7
176
     0
 90
        5
176
     0
 90
        0
176
     0
 90
        0
176
     0
290
     0
176
     0
 90
        1
176
     0
 40
0.0
176
     0
 90
        0
176
     0
290
     0
176
     0
290
     1
176
     0
290
     1
176
     0
290
     0
176
     0
290
     0
176
     0
290
     0
176
     0
290
     0
176
     0
290
     0
176
     0
290
     0
176
     0
 90
       50
176
     0
 40
0.0
176
     0
 40
1.0
176
     0
 90
        0
176
     0
 62
    18
420
        0
176
     0
 90
       50
176
     0
 90
        3
176
     0
 62
     5
420
      255
176
     0
290
     0
176
     0
 90
       50
176
     0
 90
       50
176
     0
 90
       50
176
     0
290
     0
176
     0
 90
       50
176
     0
 62
   256
176
     0
 40
1.0
176
     0
 90
        2
176
     0
  1
strokes_ogs.tif
176
     0
290
     0
176
     0
 40
1.0
176
     0
 40
1.0
176
     0
  0
VISUALSTYLE
  5
38
102
{ACAD_REACTORS
330
29
102
}
330
29
100
AcDbVisualStyle
  2
Facepattern
 70
    15
177
     3
291
     1
 70
    58
 90
        2
176
     1
 90
        2
176
     1
 90
        0
176
     1
 90
        0
176
     1
 40
0.6
176
     1
 40
30.0
176
     1
 62
     7
420
 16777215
176
     1
 90
        1
176
     1
 90
        4
176
     1
 62
     7
176
     1
 62
   257
176
     1
 90
        1
176
     1
 90
        1
176
     1
 40
1.0
176
     1
 90
        8
176
     1
 62
     7
176
     1
 40
1.0
176
     1
 90
        1
176
     1
 90
        6
176
     1
 90
        2
176
     1
 62
     7
176
     1
 90
        5
176
     1
 90
        0
176
     1
 90
        0
176
     1
290
     0
176
     1
 90
        1
176
     1
 40
0.0
176
     1
 90
        0
176
     1
290
     0
176
     1
290
     1
176
     1
290
     1
176
     1
290
     0
176
     1
290
     0
176
     1
290
     0
176
     1
290
     0
176
     1
290
     0
176
     1
290
     0
176
     1
 90
       50
176
     1
 40
0.0
176
     1
 40
1.0
176
     1
 90
        0
176
     1
 62
    18
420
        0
176
     1
 90
       50
176
     1
 90
        3
176
     1
 62
     5
420
      255
176
     1
290
     0
176
     1
 90
       50
176
     1
 90
       50
176
     1
 90
       50
176
     1
290
     0
176
     1
 90
       50
176
     1
 62
   256
176
     0
 40
1.0
176
     0
 90
        2
176
     1
  1
strokes_ogs.tif
176
     1
290
     0
176
     1
 40
1.0
176
     1
 40
1.0
176
     1
  0
VISUALSTYLE
  5
2A
102
{ACAD_REACTORS
330
29
102
}
330
29
100
AcDbVisualStyle
  2
Flat
 70
     0
177
     3
291
     1
 70
    58
 90
        2
176
     1
 90
        1
176
     1
 90
        1
176
     1
 90
        2
176
     1
 40
0.6
176
     1
 40
30.0
176
     1
 62
     7
420
 16777215
176
     1
 90
        0
176
     1
 90
        0
176
     1
 62
     7
176
     1
 62
   257
176
     1
 90
        1
176
     1
 90
        1
176
     1
 40
1.0
176
     1
 90
        8
176
     1
 62
     7
176
     1
 40
1.0
176
     1
 90
        1
176
     1
 90
        6
176
     1
 90
        2
176
     1
 62
     7
176
     1
 90
        5
176
     1
 90
        0
176
     1
 90
        0
176
     1
290
     0
176
     1
 90
       13
176
     1
 40
0.0
176
     1
 90
        0
176
     1
290
     0
176
     1
290
     1
176
     1
290
     1
176
     1
290
     0
176
     1
290
     0
176
     1
290
     0
176
     1
290
     0
176
     1
290
     0
176
     1
290
     0
176
     1
 90
       50
176
     1
 40
0.0
176
     1
 40
1.0
176
     1
 90
        0
176
     1
 62
    18
420
        0
176
     1
 90
       50
176
     1
 90
        3
176
     1
 62
     5
420
      255
176
     1
290
     0
176
     1
 90
       50
176
     1
 90
       50
176
     1
 90
       50
176
     1
290
     0
176
     1
 90
       50
176
     1
 62
   256
176
     0
 40
1.0
176
     0
 90
        2
176
     1
  1
strokes_ogs.tif
176
     1
290
     0
176
     1
 40
1.0
176
     1
 40
1.0
176
     1
  0
VISUALSTYLE
  5
2B
102
{ACAD_REACTORS
330
29
102
}
330
29
100
AcDbVisualStyle
  2
FlatWithEdges
 70
     1
177
     3
291
     1
 70
    58
 90
        2
176
     1
 90
        1
176
     1
 90
        1
176
     1
 90
        2
176
     1
 40
0.6
176
     1
 40
30.0
176
     1
 62
     7
420
 16777215
176
     1
 90
        1
176
     1
 90
        0
176
     1
 62
     7
176
     1
 62
   257
176
     1
 90
        1
176
     1
 90
        1
176
     1
 40
1.0
176
     1
 90
        0
176
     1
 62
   257
176
     1
 40
1.0
176
     1
 90
        1
176
     1
 90
        6
176
     1
 90
        2
176
     1
 62
     7
176
     1
 90
        5
176
     1
 90
        0
176
     1
 90
        0
176
     1
290
     0
176
     1
 90
       13
176
     1
 40
0.0
176
     1
 90
        0
176
     1
290
     0
176
     1
290
     1
176
     1
290
     1
176
     1
290
     0
176
     1
290
     0
176
     1
290
     0
176
     1
290
     0
176
     1
290
     0
176
     1
290
     0
176
     1
 90
       50
176
     1
 40
0.0
176
     1
 40
1.0
176
     1
 90
        0
176
     1
 62
    18
420
        0
176
     1
 90
       50
176
     1
 90
        3
176
     1
 62
     5
420
      255
176
     1
290
     0
176
     1
 90
       50
176
     1
 90
       50
176
     1
 90
       50
176
     1
290
     0
176
     1
 90
       50
176
     1
 62
   256
176
     0
 40
1.0
176
     0
 90
        2
176
     1
  1
strokes_ogs.tif
176
     1
290
     0
176
     1
 40
1.0
176
     1
 40
1.0
176
     1
  0
VISUALSTYLE
  5
2C
102
{ACAD_REACTORS
330
29
102
}
330
29
100
AcDbVisualStyle
  2
Gouraud
 70
     2
177
     3
291
     1
 70
    58
 90
        2
176
     1
 90
        2
176
     1
 90
        1
176
     1
 90
        2
176
     1
 40
0.6
176
     1
 40
30.0
176
     1
 62
     7
420
 16777215
176
     1
 90
        0
176
     1
 90
        0
176
     1
 62
     7
176
     1
 62
   257
176
     1
 90
        1
176
     1
 90
        1
176
     1
 40
1.0
176
     1
 90
        0
176
     1
 62
     7
176
     1
 40
1.0
176
     1
 90
        1
176
     1
 90
        6
176
     1
 90
        2
176
     1
 62
     7
176
     1
 90
        5
176
     1
 90
        0
176
     1
 90
        0
176
     1
290
     0
176
     1
 90
       13
176
     1
 40
0.0
176
     1
 90
        0
176
     1
290
     0
176
     1
290
     1
176
     1
290
     1
176
     1
290
     0
176
     1
290
     0
176
     1
290
     0
176
     1
290
     0
176
     1
290
     0
176
     1
290
     0
176
     1
 90
       50
176
     1
 40
0.0
176
     1
 40
1.0
176
     1
 90
        0
176
     1
 62
    18
420
        0
176
     1
 90
       50
176
     1
 90
        3
176
     1
 62
     5
420
      255
176
     1
290
     0
176
     1
 90
       50
176
     1
 90
       50
176
     1
 90
       50
176
     1
290
     0
176
     1
 90
       50
176
     1
 62
   256
176
     0
 40
1.0
176
     0
 90
        2
176
     1
  1
strokes_ogs.tif
176
     1
290
     0
176
     1
 40
1.0
176
     1
 40
1.0
176
     1
  0
VISUALSTYLE
  5
2D
102
{ACAD_REACTORS
330
29
102
}
330
29
100
AcDbVisualStyle
  2
GouraudWithEdges
 70
     3
177
     3
291
     1
 70
    58
 90
        2
176
     1
 90
        2
176
     1
 90
        1
176
     1
 90
        2
176
     1
 40
0.6
176
     1
 40
30.0
176
     1
 62
     7
420
 16777215
176
     1
 90
        1
176
     1
 90
        0
176
     1
 62
     7
176
     1
 62
   257
176
     1
 90
        1
176
     1
 90
        1
176
     1
 40
1.0
176
     1
 90
        0
176
     1
 62
   257
176
     1
 40
1.0
176
     1
 90
        1
176
     1
 90
        6
176
     1
 90
        2
176
     1
 62
     7
176
     1
 90
        5
176
     1
 90
        0
176
     1
 90
        0
176
     1
290
     0
176
     1
 90
       13
176
     1
 40
0.0
176
     1
 90
        0
176
     1
290
     0
176
     1
290
     1
176
     1
290
     1
176
     1
290
     0
176
     1
290
     0
176
     1
290
     0
176
     1
290
     0
176
     1
290
     0
176
     1
290
     0
176
     1
 90
       50
176
     1
 40
0.0
176
     1
 40
1.0
176
     1
 90
        0
176
     1
 62
    18
420
        0
176
     1
 90
       50
176
     1
 90
        3
176
     1
 62
     5
420
      255
176
     1
290
     0
176
     1
 90
       50
176
     1
 90
       50
176
     1
 90
       50
176
     1
290
     0
176
     1
 90
       50
176
     1
 62
   256
176
     0
 40
1.0
176
     0
 90
        2
176
     1
  1
strokes_ogs.tif
176
     1
290
     0
176
     1
 40
1.0
176
     1
 40
1.0
176
     1
  0
VISUALSTYLE
  5
31
102
{ACAD_REACTORS
330
29
102
}
330
29
100
AcDbVisualStyle
  2
Hidden
 70
     6
177
     3
291
     0
 70
    58
 90
        1
176
     1
 90
        2
176
     1
 90
        2
176
     1
 90
        0
176
     1
 40
0.6
176
     1
 40
30.0
176
     1
 62
     7
420
 16777215
176
     1
 90
        2
176
     1
 90
        2
176
     1
 62
     7
176
     1
 62
   257
176
     1
 90
        2
176
     1
 90
        1
176
     1
 40
40.0
176
     1
 90
        0
176
     1
 62
   257
176
     1
 40
1.0
176
     1
 90
        1
176
     1
 90
        6
176
     1
 90
        2
176
     1
 62
     7
176
     1
 90
        3
176
     1
 90
        0
176
     1
 90
        0
176
     1
290
     0
176
     1
 90
        1
176
     1
 40
0.0
176
     1
 90
        0
176
     1
290
     0
176
     1
290
     1
176
     1
290
     1
176
     1
290
     0
176
     1
290
     0
176
     1
290
     0
176
     1
290
     0
176
     1
290
     0
176
     1
290
     0
176
     1
 90
       50
176
     1
 40
0.0
176
     1
 40
1.0
176
     1
 90
        0
176
     1
 62
    18
420
        0
176
     1
 90
       50
176
     1
 90
        3
176
     1
 62
     5
420
      255
176
     1
290
     0
176
     1
 90
       50
176
     1
 90
       50
176
     1
 90
       50
176
     1
290
     0
176
     1
 90
       50
176
     1
 62
   256
176
     0
 40
1.0
176
     0
 90
        2
176
     1
  1
strokes_ogs.tif
176
     1
290
     0
176
     1
 40
1.0
176
     1
 40
1.0
176
     1
  0
VISUALSTYLE
  5
3F
102
{ACAD_REACTORS
330
29
102
}
330
29
100
AcDbVisualStyle
  2
JitterOff
 70
    20
177
     3
291
     1
 70
    58
 90
        2
176
     0
 90
        2
176
     0
 90
        0
176
     0
 90
        0
176
     0
 40
0.6
176
     0
 40
30.0
176
     0
 62
     7
420
 16777215
176
     0
 90
        1
176
     0
 90
        4
176
     0
 62
     7
176
     0
 62
   257
176
     0
 90
        1
176
     0
 90
        1
176
     0
 40
1.0
176
     0
 90
       10
176
     2
 62
     7
176
     0
 40
1.0
176
     0
 90
        1
176
     0
 90
        6
176
     0
 90
        2
176
     0
 62
     7
176
     0
 90
        5
176
     0
 90
        0
176
     0
 90
        0
176
     0
290
     0
176
     0
 90
        1
176
     0
 40
0.0
176
     0
 90
        0
176
     0
290
     0
176
     0
290
     1
176
     0
290
     1
176
     0
290
     0
176
     0
290
     0
176
     0
290
     0
176
     0
290
     0
176
     0
290
     0
176
     0
290
     0
176
     0
 90
       50
176
     0
 40
0.0
176
     0
 40
1.0
176
     0
 90
        0
176
     0
 62
    18
420
        0
176
     0
 90
       50
176
     0
 90
        3
176
     0
 62
     5
420
      255
176
     0
290
     0
176
     0
 90
       50
176
     0
 90
       50
176
     0
 90
       50
176
     0
290
     0
176
     0
 90
       50
176
     0
 62
   256
176
     0
 40
1.0
176
     0
 90
        2
176
     0
  1
strokes_ogs.tif
176
     0
290
     0
176
     0
 40
1.0
176
     0
 40
1.0
176
     0
  0
VISUALSTYLE
  5
37
102
{ACAD_REACTORS
330
29
102
}
330
29
100
AcDbVisualStyle
  2
Linepattern
 70
    14
177
     3
291
     1
 70
    58
 90
        2
176
     1
 90
        2
176
     1
 90
        0
176
     1
 90
        0
176
     1
 40
0.6
176
     1
 40
30.0
176
     1
 62
     7
420
 16777215
176
     1
 90
        1
176
     1
 90
        4
176
     1
 62
     7
176
     1
 62
   257
176
     1
 90
        7
176
     1
 90
        7
176
     1
 40
1.0
176
     1
 90
        8
176
     1
 62
     7
176
     1
 40
1.0
176
     1
 90
        1
176
     1
 90
        6
176
     1
 90
        2
176
     1
 62
     7
176
     1
 90
        5
176
     1
 90
        0
176
     1
 90
        0
176
     1
290
     0
176
     1
 90
        1
176
     1
 40
0.0
176
     1
 90
        0
176
     1
290
     0
176
     1
290
     1
176
     1
290
     1
176
     1
290
     0
176
     1
290
     0
176
     1
290
     0
176
     1
290
     0
176
     1
290
     0
176
     1
290
     0
176
     1
 90
       50
176
     1
 40
0.0
176
     1
 40
1.0
176
     1
 90
        0
176
     1
 62
    18
420
        0
176
     1
 90
       50
176
     1
 90
        3
176
     1
 62
     5
420
      255
176
     1
290
     0
176
     1
 90
       50
176
     1
 90
       50
176
     1
 90
       50
176
     1
290
     0
176
     1
 90
       50
176
     1
 62
   256
176
     0
 40
1.0
176
     0
 90
        2
176
     1
  1
strokes_ogs.tif
176
     1
290
     0
176
     1
 40
1.0
176
     1
 40
1.0
176
     1
  0
VISUALSTYLE
  5
40
102
{ACAD_REACTORS
330
29
102
}
330
29
100
AcDbVisualStyle
  2
OverhangOff
 70
    21
177
     3
291
     1
 70
    58
 90
        2
176
     0
 90
        2
176
     0
 90
        0
176
     0
 90
        0
176
     0
 40
0.6
176
     0
 40
30.0
176
     0
 62
     7
420
 16777215
176
     0
 90
        1
176
     0
 90
        4
176
     0
 62
     7
176
     0
 62
   257
176
     0
 90
        1
176
     0
 90
        1
176
     0
 40
1.0
176
     0
 90
        9
176
     2
 62
     7
176
     0
 40
1.0
176
     0
 90
        1
176
     0
 90
        6
176
     0
 90
        2
176
     0
 62
     7
176
     0
 90
        5
176
     0
 90
        0
176
     0
 90
        0
176
     0
290
     0
176
     0
 90
        1
176
     0
 40
0.0
176
     0
 90
        0
176
     0
290
     0
176
     0
290
     1
176
     0
290
     1
176
     0
290
     0
176
     0
290
     0
176
     0
290
     0
176
     0
290
     0
176
     0
290
     0
176
     0
290
     0
176
     0
 90
       50
176
     0
 40
0.0
176
     0
 40
1.0
176
     0
 90
        0
176
     0
 62
    18
420
        0
176
     0
 90
       50
176
     0
 90
        3
176
     0
 62
     5
420
      255
176
     0
290
     0
176
     0
 90
       50
176
     0
 90
       50
176
     0
 90
       50
176
     0
290
     0
176
     0
 90
       50
176
     0
 62
   256
176
     0
 40
1.0
176
     0
 90
        2
176
     0
  1
strokes_ogs.tif
176
     0
290
     0
176
     0
 40
1.0
176
     0
 40
1.0
176
     0
  0
VISUALSTYLE
  5
33
102
{ACAD_REACTORS
330
29
102
}
330
29
100
AcDbVisualStyle
  2
Realistic
 70
     8
177
     3
291
     0
 70
    58
 90
        2
176
     1
 90
        3
176
     1
 90
        0
176
     1
 90
        2
176
     1
 40
0.6
176
     1
 40
30.0
176
     1
 62
     7
420
 16777215
176
     1
 90
        0
176
     1
 90
        0
176
     1
 62
     7
176
     1
 62
   257
176
     1
 90
        1
176
     1
 90
        1
176
     1
 40
1.0
176
     1
 90
        8
176
     1
 62
   257
176
     1
 40
1.0
176
     1
 90
        1
176
     1
 90
        6
176
     1
 90
        2
176
     1
 62
     7
176
     1
 90
        3
176
     1
 90
        0
176
     1
 90
        0
176
     1
290
     0
176
     1
 90
       13
176
     1
 40
0.0
176
     1
 90
        0
176
     1
290
     0
176
     1
290
     1
176
     1
290
     1
176
     1
290
     0
176
     1
290
     0
176
     1
290
     0
176
     1
290
     0
176
     1
290
     0
176
     1
290
     0
176
     1
 90
       50
176
     1
 40
0.0
176
     1
 40
1.0
176
     1
 90
        0
176
     1
 62
    18
420
        0
176
     1
 90
       50
176
     1
 90
        3
176
     1
 62
     5
420
      255
176
     1
290
     0
176
     1
 90
       50
176
     1
 90
       50
176
     1
 90
       50
176
     1
290
     0
176
     1
 90
       50
176
     1
 62
   256
176
     0
 40
1.0
176
     0
 90
        2
176
     1
  1
strokes_ogs.tif
176
     1
290
     0
176
     1
 40
1.0
176
     1
 40
1.0
176
     1
  0
VISUALSTYLE
  5
3E
102
{ACAD_REACTORS
330
29
102
}
330
29
100
AcDbVisualStyle
  2
Shaded
 70
    27
177
     3
291
     0
 70
    58
 90
        2
176
     1
 90
        2
176
     1
 90
        1
176
     1
 90
        2
176
     1
 40
0.6
176
     1
 40
30.0
176
     1
 62
     7
420
 16777215
176
     1
 90
        0
176
     1
 90
        4
176
     1
 62
     7
176
     1
 62
   257
176
     1
 90
        1
176
     1
 90
        1
176
     1
 40
1.0
176
     1
 90
        8
176
     1
 62
   257
176
     1
 40
1.0
176
     1
 90
        1
176
     1
 90
        6
176
     1
 90
        2
176
     1
 62
     8
420
  7895160
176
     1
 90
        3
176
     1
 90
        0
176
     1
 90
        0
176
     1
290
     0
176
     1
 90
        5
176
     1
 40
0.0
176
     1
 90
        0
176
     1
290
     0
176
     1
290
     1
176
     1
290
     1
176
     1
290
     0
176
     1
290
     0
176
     1
290
     0
176
     1
290
     0
176
     1
290
     0
176
     1
290
     0
176
     1
 90
       50
176
     1
 40
0.0
176
     1
 40
1.0
176
     1
 90
        0
176
     1
 62
    18
420
        0
176
     1
 90
       50
176
     1
 90
        3
176
     1
 62
     5
420
      255
176
     1
290
     0
176
     1
 90
       50
176
     1
 90
       50
176
     1
 90
       50
176
     1
290
     0
176
     1
 90
       50
176
     1
 62
   256
176
     0
 40
1.0
176
     0
 90
        2
176
     1
  1
strokes_ogs.tif
176
     1
290
     0
176
     1
 40
1.0
176
     1
 40
1.0
176
     1
  0
VISUALSTYLE
  5
3D
102
{ACAD_REACTORS
330
29
102
}
330
29
100
AcDbVisualStyle
  2
Shaded with edges
 70
    26
177
     3
291
     0
 70
    58
 90
        2
176
     1
 90
        2
176
     1
 90
        1
176
     1
 90
        2
176
     1
 40
0.6
176
     1
 40
30.0
176
     1
 62
     7
420
 16777215
176
     1
 90
        1
176
     1
 90
        2
176
     1
 62
     7
176
     1
 62
   257
176
     1
 90
        2
176
     1
 90
        1
176
     1
 40
1.0
176
     1
 90
        8
176
     1
 62
   257
176
     1
 40
1.0
176
     1
 90
        1
176
     1
 90
        6
176
     1
 90
        2
176
     1
 62
     7
176
     1
 90
        3
176
     1
 90
        0
176
     1
 90
        0
176
     1
290
     0
176
     1
 90
        5
176
     1
 40
0.0
176
     1
 90
        0
176
     1
290
     0
176
     1
290
     1
176
     1
290
     1
176
     1
290
     0
176
     1
290
     0
176
     1
290
     0
176
     1
290
     0
176
     1
290
     0
176
     1
290
     0
176
     1
 90
       50
176
     1
 40
0.0
176
     1
 40
1.0
176
     1
 90
        0
176
     1
 62
    18
420
        0
176
     1
 90
       50
176
     1
 90
        3
176
     1
 62
     5
420
      255
176
     1
290
     0
176
     1
 90
       50
176
     1
 90
       50
176
     1
 90
       50
176
     1
290
     0
176
     1
 90
       50
176
     1
 62
   256
176
     0
 40
1.0
176
     0
 90
        2
176
     1
  1
strokes_ogs.tif
176
     1
290
     0
176
     1
 40
1.0
176
     1
 40
1.0
176
     1
  0
VISUALSTYLE
  5
3A
102
{ACAD_REACTORS
330
29
102
}
330
29
100
AcDbVisualStyle
  2
Shades of Gray
 70
    23
177
     3
291
     0
 70
    58
 90
        2
176
     1
 90
        2
176
     1
 90
        3
176
     1
 90
        0
176
     1
 40
0.6
176
     1
 40
30.0
176
     1
 62
     7
420
 16777215
176
     1
 90
        2
176
     1
 90
        2
176
     1
 62
     7
176
     1
 62
     7
176
     1
 90
        1
176
     1
 90
        1
176
     1
 40
40.0
176
     1
 90
        8
176
     1
 62
     7
176
     1
 40
1.0
176
     1
 90
        1
176
     1
 90
        6
176
     1
 90
        2
176
     1
 62
     7
176
     1
 90
        3
176
     1
 90
        0
176
     1
 90
        0
176
     1
290
     0
176
     1
 90
        1
176
     1
 40
0.0
176
     1
 90
        0
176
     1
290
     0
176
     1
290
     1
176
     1
290
     1
176
     1
290
     0
176
     1
290
     0
176
     1
290
     0
176
     1
290
     0
176
     1
290
     0
176
     1
290
     0
176
     1
 90
       50
176
     1
 40
0.0
176
     1
 40
1.0
176
     1
 90
        0
176
     1
 62
    18
420
        0
176
     1
 90
       50
176
     1
 90
        3
176
     1
 62
     5
420
      255
176
     1
290
     0
176
     1
 90
       50
176
     1
 90
       50
176
     1
 90
       50
176
     1
290
     0
176
     1
 90
       50
176
     1
 62
   256
176
     0
 40
1.0
176
     0
 90
        2
176
     1
  1
strokes_ogs.tif
176
     1
290
     0
176
     1
 40
1.0
176
     1
 40
1.0
176
     1
  0
VISUALSTYLE
  5
3B
102
{ACAD_REACTORS
330
29
102
}
330
29
100
AcDbVisualStyle
  2
Sketchy
 70
    24
177
     3
291
     0
 70
    58
 90
        1
176
     1
 90
        2
176
     1
 90
        2
176
     1
 90
        0
176
     1
 40
0.6
176
     1
 40
30.0
176
     1
 62
     7
420
 16777215
176
     1
 90
        2
176
     1
 90
        2
176
     1
 62
     7
176
     1
 62
     7
176
     1
 90
        1
176
     1
 90
        1
176
     1
 40
40.0
176
     1
 90
       11
176
     1
 62
     7
176
     1
 40
1.0
176
     1
 90
        1
176
     1
 90
        6
176
     1
 90
        2
176
     1
 62
     7
176
     1
 90
        6
176
     1
 90
        0
176
     1
 90
        0
176
     1
290
     0
176
     1
 90
        1
176
     1
 40
0.0
176
     1
 90
        0
176
     1
290
     0
176
     1
290
     1
176
     1
290
     1
176
     1
290
     0
176
     1
290
     0
176
     1
290
     0
176
     1
290
     0
176
     1
290
     0
176
     1
290
     0
176
     1
 90
       50
176
     1
 40
0.0
176
     1
 40
1.0
176
     1
 90
        0
176
     1
 62
    18
420
        0
176
     1
 90
       50
176
     1
 90
        3
176
     1
 62
     5
420
      255
176
     1
290
     0
176
     1
 90
       50
176
     1
 90
       50
176
     1
 90
       50
176
     1
290
     0
176
     1
 90
       50
176
     1
 62
   256
176
     0
 40
1.0
176
     0
 90
        2
176
     1
  1
strokes_ogs.tif
176
     1
290
     0
176
     1
 40
1.0
176
     1
 40
1.0
176
     1
  0
VISUALSTYLE
  5
36
102
{ACAD_REACTORS
330
29
102
}
330
29
100
AcDbVisualStyle
  2
Thicken
 70
    13
177
     3
291
     1
 70
    58
 90
        2
176
     1
 90
        2
176
     1
 90
        0
176
     1
 90
        0
176
     1
 40
0.6
176
     1
 40
30.0
176
     1
 62
     7
420
 16777215
176
     1
 90
        1
176
     1
 90
        4
176
     1
 62
     7
176
     1
 62
   257
176
     1
 90
        1
176
     1
 90
        1
176
     1
 40
1.0
176
     1
 90
       12
176
     1
 62
     7
176
     1
 40
1.0
176
     1
 90
        1
176
     1
 90
        6
176
     1
 90
        2
176
     1
 62
     7
176
     1
 90
        5
176
     1
 90
        0
176
     1
 90
        0
176
     1
290
     0
176
     1
 90
        1
176
     1
 40
0.0
176
     1
 90
        0
176
     1
290
     0
176
     1
290
     1
176
     1
290
     1
176
     1
290
     0
176
     1
290
     0
176
     1
290
     0
176
     1
290
     0
176
     1
290
     0
176
     1
290
     0
176
     1
 90
       50
176
     1
 40
0.0
176
     1
 40
1.0
176
     1
 90
        0
176
     1
 62
    18
420
        0
176
     1
 90
       50
176
     1
 90
        3
176
     1
 62
     5
420
      255
176
     1
290
     0
176
     1
 90
       50
176
     1
 90
       50
176
     1
 90
       50
176
     1
290
     0
176
     1
 90
       50
176
     1
 62
   256
176
     0
 40
1.0
176
     0
 90
        2
176
     1
  1
strokes_ogs.tif
176
     1
290
     0
176
     1
 40
1.0
176
     1
 40
1.0
176
     1
  0
VISUALSTYLE
  5
30
102
{ACAD_REACTORS
330
29
102
}
330
29
100
AcDbVisualStyle
  2
Wireframe
 70
     5
177
     3
291
     0
 70
    58
 90
        0
176
     1
 90
        2
176
     1
 90
        0
176
     1
 90
        0
176
     1
 40
0.6
176
     1
 40
30.0
176
     1
 62
     7
420
 16777215
176
     1
 90
        1
176
     1
 90
        4
176
     1
 62
     7
176
     1
 62
   257
176
     1
 90
        1
176
     1
 90
        1
176
     1
 40
1.0
176
     1
 90
        0
176
     1
 62
   257
176
     1
 40
1.0
176
     1
 90
        1
176
     1
 90
        6
176
     1
 90
        2
176
     1
 62
     7
176
     1
 90
        3
176
     1
 90
        0
176
     1
 90
        0
176
     1
290
     0
176
     1
 90
        1
176
     1
 40
0.0
176
     1
 90
        0
176
     1
290
     0
176
     1
290
     1
176
     1
290
     1
176
     1
290
     0
176
     1
290
     0
176
     1
290
     0
176
     1
290
     0
176
     1
290
     0
176
     1
290
     0
176
     1
 90
       50
176
     1
 40
0.0
176
     1
 40
1.0
176
     1
 90
        0
176
     1
 62
    18
420
        0
176
     1
 90
       50
176
     1
 90
        3
176
     1
 62
     5
420
      255
176
     1
290
     0
176
     1
 90
       50
176
     1
 90
       50
176
     1
 90
       50
176
     1
290
     0
176
     1
 90
       50
176
     1
 62
   256
176
     0
 40
1.0
176
     0
 90
        2
176
     1
  1
strokes_ogs.tif
176
     1
290
     0
176
     1
 40
1.0
176
     1
 40
1.0
176
     1
  0
VISUALSTYLE
  5
3C
102
{ACAD_REACTORS
330
29
102
}
330
29
100
AcDbVisualStyle
  2
X-Ray
 70
    25
177
     3
291
     0
 70
    58
 90
        2
176
     1
 90
        2
176
     1
 90
        1
176
     1
 90
        1
176
     1
 40
0.5
176
     1
 40
30.0
176
     1
 62
     7
420
 16777215
176
     1
 90
        1
176
     1
 90
        0
176
     1
 62
     7
176
     1
 62
   257
176
     1
 90
        1
176
     1
 90
        1
176
     1
 40
1.0
176
     1
 90
        8
176
     1
 62
     7
176
     1
 40
1.0
176
     1
 90
        1
176
     1
 90
        6
176
     1
 90
        2
176
     1
 62
     7
176
     1
 90
        3
176
     1
 90
        0
176
     1
 90
        0
176
     1
290
     0
176
     1
 90
       13
176
     1
 40
0.0
176
     1
 90
        0
176
     1
290
     0
176
     1
290
     1
176
     1
290
     1
176
     1
290
     0
176
     1
290
     0
176
     1
290
     0
176
     1
290
     0
176
     1
290
     0
176
     1
290
     0
176
     1
 90
       50
176
     1
 40
0.0
176
     1
 40
1.0
176
     1
 90
        0
176
     1
 62
    18
420
        0
176
     1
 90
       50
176
     1
 90
        3
176
     1
 62
     5
420
      255
176
     1
290
     0
176
     1
 90
       50
176
     1
 90
       50
176
     1
 90
       50
176
     1
290
     0
176
     1
 90
       50
176
     1
 62
   256
176
     0
 40
1.0
176
     0
 90
        2
176
     1
  1
strokes_ogs.tif
176
     1
290
     0
176
     1
 40
1.0
176
     1
 40
1.0
176
     1
  0
DICTIONARYVAR
  5
9B
102
{ACAD_REACTORS
330
96
102
}
330
96
100
DictionaryVariables
280
     0
  1
1:1
  0
DICTIONARYVAR
  5
98
102
{ACAD_REACTORS
330
96
102
}
330
96
100
DictionaryVariables
280
     0
  1
STANDARD
  0
DICTIONARYVAR
  5
97
102
{ACAD_REACTORS
330
96
102
}
330
96
100
DictionaryVariables
280
     0
  1
STANDARD
  0
DICTIONARYVAR
  5
99
102
{ACAD_REACTORS
330
96
102
}
330
96
100
DictionaryVariables
280
     0
  1
Imperial24
  0
DICTIONARYVAR
  5
9A
102
{ACAD_REACTORS
330
96
102
}
330
96
100
DictionaryVariables
280
     0
  1
Imperial24
  0
DICTIONARY
  5
1A
330
19
100
AcDbDictionary
280
     1
281
     1
  3
BUMPTILE
360
1C
  3
DIFFUSETILE
360
1B
  3
OPACITYTILE
360
1F
  3
REFLECTIONTILE
360
1E
  3
REFRACTIONTILE
360
20
  3
SPECULARTILE
360
1D
  0
DICTIONARY
  5
12
330
11
100
AcDbDictionary
280
     1
281
     1
  3
BUMPTILE
360
14
  3
DIFFUSETILE
360
13
  3
OPACITYTILE
360
17
  3
REFLECTIONTILE
360
16
  3
REFRACTIONTILE
360
18
  3
SPECULARTILE
360
15
  0
DICTIONARY
  5
22
330
21
100
AcDbDictionary
280
     1
281
     1
  3
BUMPTILE
360
24
  3
DIFFUSETILE
360
23
  3
OPACITYTILE
360
27
  3
REFLECTIONTILE
360
26
  3
REFRACTIONTILE
360
28
  3
SPECULARTILE
360
25
  0
DICTIONARY
  5
9C
330
65
100
AcDbDictionary
280
     1
281
     1
  3
ACAD_ROUNDTRIP_2008_TABLESTYLE_CELLSTYLEMAP
360
9D
  0
XRECORD
  5
1C
102
{ACAD_REACTORS
330
1A
102
}
330
1A
100
AcDbXrecord
280
     1
270
     1
271
     1
  0
XRECORD
  5
1B
102
{ACAD_REACTORS
330
1A
102
}
330
1A
100
AcDbXrecord
280
     1
270
     1
271
     1
  0
XRECORD
  5
1F
102
{ACAD_REACTORS
330
1A
102
}
330
1A
100
AcDbXrecord
280
     1
270
     1
271
     1
  0
XRECORD
  5
1E
102
{ACAD_REACTORS
330
1A
102
}
330
1A
100
AcDbXrecord
280
     1
270
     1
271
     1
  0
XRECORD
  5
20
102
{ACAD_REACTORS
330
1A
102
}
330
1A
100
AcDbXrecord
280
     1
270
     1
271
     1
  0
XRECORD
  5
1D
102
{ACAD_REACTORS
330
1A
102
}
330
1A
100
AcDbXrecord
280
     1
270
     1
271
     1
  0
XRECORD
  5
14
102
{ACAD_REACTORS
330
12
102
}
330
12
100
AcDbXrecord
280
     1
270
     1
271
     1
  0
XRECORD
  5
13
102
{ACAD_REACTORS
330
12
102
}
330
12
100
AcDbXrecord
280
     1
270
     1
271
     1
  0
XRECORD
  5
17
102
{ACAD_REACTORS
330
12
102
}
330
12
100
AcDbXrecord
280
     1
270
     1
271
     1
  0
XRECORD
  5
16
102
{ACAD_REACTORS
330
12
102
}
330
12
100
AcDbXrecord
280
     1
270
     1
271
     1
  0
XRECORD
  5
18
102
{ACAD_REACTORS
330
12
102
}
330
12
100
AcDbXrecord
280
     1
270
     1
271
     1
  0
XRECORD
  5
15
102
{ACAD_REACTORS
330
12
102
}
330
12
100
AcDbXrecord
280
     1
270
     1
271
     1
  0
XRECORD
  5
24
102
{ACAD_REACTORS
330
22
102
}
330
22
100
AcDbXrecord
280
     1
270
     1
271
     1
  0
XRECORD
  5
23
102
{ACAD_REACTORS
330
22
102
}
330
22
100
AcDbXrecord
280
     1
270
     1
271
     1
  0
XRECORD
  5
27
102
{ACAD_REACTORS
330
22
102
}
330
22
100
AcDbXrecord
280
     1
270
     1
271
     1
  0
XRECORD
  5
26
102
{ACAD_REACTORS
330
22
102
}
330
22
100
AcDbXrecord
280
     1
270
     1
271
     1
  0
XRECORD
  5
28
102
{ACAD_REACTORS
330
22
102
}
330
22
100
AcDbXrecord
280
     1
270
     1
271
     1
  0
XRECORD
  5
25
102
{ACAD_REACTORS
330
22
102
}
330
22
100
AcDbXrecord
280
     1
270
     1
271
     1
  0
CELLSTYLEMAP
  5
9D
102
{ACAD_REACTORS
330
9C
102
}
330
9C
100
AcDbCellStyleMap
 90
        3
300
CELLSTYLE
  1
TABLEFORMAT_BEGIN
 90
        5
170
     1
 91
        0
 92
    32768
 62
   257
 93
        1
300
CONTENTFORMAT
  1
CONTENTFORMAT_BEGIN
 90
        0
 91
        0
 92
      512
 93
        0
300

 40
0.0
140
1.0
 94
        5
 62
     0
340
55
144
0.25
309
CONTENTFORMAT_END
171
     0
 94
        0
309
TABLEFORMAT_END
  1
CELLSTYLE_BEGIN
 90
        1
 91
        1
300
_TITLE
309
CELLSTYLE_END
300
CELLSTYLE
  1
TABLEFORMAT_BEGIN
 90
        5
170
     1
 91
        0
 92
        0
 62
   257
 93
        1
300
CONTENTFORMAT
  1
CONTENTFORMAT_BEGIN
 90
        0
 91
        0
 92
      512
 93
        0
300

 40
0.0
140
1.0
 94
        5
 62
     0
340
55
144
0.18
309
CONTENTFORMAT_END
171
     0
 94
        0
309
TABLEFORMAT_END
  1
CELLSTYLE_BEGIN
 90
        2
 91
        1
300
_HEADER
309
CELLSTYLE_END
300
CELLSTYLE
  1
TABLEFORMAT_BEGIN
 90
        5
170
     1
 91
        0
 92
        0
 62
   257
 93
        1
300
CONTENTFORMAT
  1
CONTENTFORMAT_BEGIN
 90
        0
 91
        0
 92
      512
 93
        0
300

 40
0.0
140
1.0
 94
        2
 62
     0
340
55
144
0.18
309
CONTENTFORMAT_END
171
     0
 94
        0
309
TABLEFORMAT_END
  1
CELLSTYLE_BEGIN
 90
        3
 91
        2
300
_DATA
309
CELLSTYLE_END
  0
ENDSEC
  0
EOF
