  0
SECTION
  2
HEADER
  9
$ACADVER
  1
AC1032
  9
$ACADMAINTVER
 90
      251
  9
$DWGCODEPAGE
  3
ANSI_1252
  9
$REQUIREDVERSIONS
160
                 0
  9
$INSBASE
 10
0.0
 20
0.0
 30
0.0
  9
$EXTMIN
 10
1.000000000000000E+20
 20
1.000000000000000E+20
 30
1.000000000000000E+20
  9
$EXTMAX
 10
-1.000000000000000E+20
 20
-1.000000000000000E+20
 30
-1.000000000000000E+20
  9
$LIMMIN
 10
0.0
 20
0.0
  9
$LIMMAX
 10
12.0
 20
9.0
  9
$ORTHOMODE
 70
     0
  9
$REGENMODE
 70
     1
  9
$FILLMODE
 70
     1
  9
$QTEXTMODE
 70
     0
  9
$MIRRTEXT
 70
     0
  9
$LTSCALE
 40
1.0
  9
$ATTMODE
 70
     1
  9
$TEXTSIZE
 40
0.2
  9
$TRACEWID
 40
0.05
  9
$TEXTSTYLE
  7
Standard
  9
$CLAYER
  8
0
  9
$CELTYPE
  6
ByLayer
  9
$CECOLOR
 62
   256
  9
$CELTSCALE
 40
1.0
  9
$DISPSILH
 70
     0
  9
$DIMSCALE
 40
1.0
  9
$DIMASZ
 40
0.18
  9
$DIMEXO
 40
0.0625
  9
$DIMDLI
 40
0.38
  9
$DIMRND
 40
0.0
  9
$DIMDLE
 40
0.0
  9
$DIMEXE
 40
0.18
  9
$DIMTP
 40
0.0
  9
$DIMTM
 40
0.0
  9
$DIMTXT
 40
0.18
  9
$DIMCEN
 40
0.09
  9
$DIMTSZ
 40
0.0
  9
$DIMTOL
 70
     0
  9
$DIMLIM
 70
     0
  9
$DIMTIH
 70
     1
  9
$DIMTOH
 70
     1
  9
$DIMSE1
 70
     0
  9
$DIMSE2
 70
     0
  9
$DIMTAD
 70
     0
  9
$DIMZIN
 70
     0
  9
$DIMBLK
  1

  9
$DIMASO
 70
     1
  9
$DIMSHO
 70
     1
  9
$DIMPOST
  1

  9
$DIMAPOST
  1

  9
$DIMALT
 70
     0
  9
$DIMALTD
 70
     2
  9
$DIMALTF
 40
25.4
  9
$DIMLFAC
 40
1.0
  9
$DIMTOFL
 70
     0
  9
$DIMTVP
 40
0.0
  9
$DIMTIX
 70
     0
  9
$DIMSOXD
 70
     0
  9
$DIMSAH
 70
     0
  9
$DIMBLK1
  1

  9
$DIMBLK2
  1

  9
$DIMSTYLE
  2
Standard
  9
$DIMCLRD
 70
     0
  9
$DIMCLRE
 70
     0
  9
$DIMCLRT
 70
     0
  9
$DIMTFAC
 40
1.0
  9
$DIMGAP
 40
0.09
  9
$DIMJUST
 70
     0
  9
$DIMSD1
 70
     0
  9
$DIMSD2
 70
     0
  9
$DIMTOLJ
 70
     1
  9
$DIMTZIN
 70
     0
  9
$DIMALTZ
 70
     0
  9
$DIMALTTZ
 70
     0
  9
$DIMUPT
 70
     0
  9
$DIMDEC
 70
     4
  9
$DIMTDEC
 70
     4
  9
$DIMALTU
 70
     2
  9
$DIMALTTD
 70
     2
  9
$DIMTXSTY
  7
Standard
  9
$DIMAUNIT
 70
     0
  9
$DIMADEC
 70
     0
  9
$DIMALTRND
 40
0.0
  9
$DIMAZIN
 70
     0
  9
$DIMDSEP
 70
    46
  9
$DIMATFIT
 70
     3
  9
$DIMFRAC
 70
     0
  9
$DIMLDRBLK
  1

  9
$DIMLUNIT
 70
     2
  9
$DIMLWD
 70
    -2
  9
$DIMLWE
 70
    -2
  9
$DIMTMOVE
 70
     0
  9
$DIMFXL
 40
1.0
  9
$DIMFXLON
 70
     0
  9
$DIMJOGANG
 40
0.7853981633974483
  9
$DIMTFILL
 70
     0
  9
$DIMTFILLCLR
 70
     0
  9
$DIMARCSYM
 70
     0
  9
$DIMLTYPE
  6

  9
$DIMLTEX1
  6

  9
$DIMLTEX2
  6

  9
$DIMTXTDIRECTION
 70
     0
  9
$LUNITS
 70
     2
  9
$LUPREC
 70
     4
  9
$SKETCHINC
 40
0.1
  9
$FILLETRAD
 40
0.0
  9
$AUNITS
 70
     0
  9
$AUPREC
 70
     0
  9
$MENU
  1
.
  9
$ELEVATION
 40
0.0
  9
$PELEVATION
 40
0.0
  9
$THICKNESS
 40
0.0
  9
$LIMCHECK
 70
     0
  9
$CHAMFERA
 40
0.0
  9
$CHAMFERB
 40
0.0
  9
$CHAMFERC
 40
0.0
  9
$CHAMFERD
 40
0.0
  9
$SKPOLY
 70
     0
  9
$TDCREATE
 40
2460024.639027778
  9
$TDUCREATE
 40
2460024.597361111
  9
$TDUPDATE
 40
2460024.639027778
  9
$TDUUPDATE
 40
2460024.597361111
  9
$TDINDWG
 40
0.0000000000
  9
$TDUSRTIMER
 40
0.0000000000
  9
$USRTIMER
 70
     1
  9
$ANGBASE
 50
0.0
  9
$ANGDIR
 70
     0
  9
$PDMODE
 70
     0
  9
$PDSIZE
 40
0.0
  9
$PLINEWID
 40
0.0
  9
$SPLFRAME
 70
     0
  9
$SPLINETYPE
 70
     6
  9
$SPLINESEGS
 70
     8
  9
$HANDSEED
  5
AD
  9
$SURFTAB1
 70
     6
  9
$SURFTAB2
 70
     6
  9
$SURFTYPE
 70
     6
  9
$SURFU
 70
     6
  9
$SURFV
 70
     6
  9
$UCSBASE
  2

  9
$UCSNAME
  2

  9
$UCSORG
 10
0.0
 20
0.0
 30
0.0
  9
$UCSXDIR
 10
1.0
 20
0.0
 30
0.0
  9
$UCSYDIR
 10
0.0
 20
1.0
 30
0.0
  9
$UCSORTHOREF
  2

  9
$UCSORTHOVIEW
 70
     0
  9
$UCSORGTOP
 10
0.0
 20
0.0
 30
0.0
  9
$UCSORGBOTTOM
 10
0.0
 20
0.0
 30
0.0
  9
$UCSORGLEFT
 10
0.0
 20
0.0
 30
0.0
  9
$UCSORGRIGHT
 10
0.0
 20
0.0
 30
0.0
  9
$UCSORGFRONT
 10
0.0
 20
0.0
 30
0.0
  9
$UCSORGBACK
 10
0.0
 20
0.0
 30
0.0
  9
$PUCSBASE
  2

  9
$PUCSNAME
  2

  9
$PUCSORG
 10
0.0
 20
0.0
 30
0.0
  9
$PUCSXDIR
 10
1.0
 20
0.0
 30
0.0
  9
$PUCSYDIR
 10
0.0
 20
1.0
 30
0.0
  9
$PUCSORTHOREF
  2

  9
$PUCSORTHOVIEW
 70
     0
  9
$PUCSORGTOP
 10
0.0
 20
0.0
 30
0.0
  9
$PUCSORGBOTTOM
 10
0.0
 20
0.0
 30
0.0
  9
$PUCSORGLEFT
 10
0.0
 20
0.0
 30
0.0
  9
$PUCSORGRIGHT
 10
0.0
 20
0.0
 30
0.0
  9
$PUCSORGFRONT
 10
0.0
 20
0.0
 30
0.0
  9
$PUCSORGBACK
 10
0.0
 20
0.0
 30
0.0
  9
$USERI1
 70
     0
  9
$USERI2
 70
     0
  9
$USERI3
 70
     0
  9
$USERI4
 70
     0
  9
$USERI5
 70
     0
  9
$USERR1
 40
0.0
  9
$USERR2
 40
0.0
  9
$USERR3
 40
0.0
  9
$USERR4
 40
0.0
  9
$USERR5
 40
0.0
  9
$WORLDVIEW
 70
     1
  9
$SHADEDGE
 70
     3
  9
$SHADEDIF
 70
    70
  9
$TILEMODE
 70
     1
  9
$MAXACTVP
 70
    64
  9
$PINSBASE
 10
0.0
 20
0.0
 30
0.0
  9
$PLIMCHECK
 70
     0
  9
$PEXTMIN
 10
1.000000000000000E+20
 20
1.000000000000000E+20
 30
1.000000000000000E+20
  9
$PEXTMAX
 10
-1.000000000000000E+20
 20
-1.000000000000000E+20
 30
-1.000000000000000E+20
  9
$PLIMMIN
 10
0.0
 20
0.0
  9
$PLIMMAX
 10
12.0
 20
9.0
  9
$UNITMODE
 70
     0
  9
$VISRETAIN
 70
     1
  9
$PLINEGEN
 70
     0
  9
$PSLTSCALE
 70
     1
  9
$TREEDEPTH
 70
  3020
  9
$CMLSTYLE
  2
Standard
  9
$CMLJUST
 70
     0
  9
$CMLSCALE
 40
1.0
  9
$PROXYGRAPHICS
 70
     1
  9
$MEASUREMENT
 70
     0
  9
$CELWEIGHT
370
    -1
  9
$ENDCAPS
280
     0
  9
$JOINSTYLE
280
     0
  9
$LWDISPLAY
290
     1
  9
$INSUNITS
 70
     4
  9
$HYPERLINKBASE
  1

  9
$STYLESHEET
  1

  9
$XEDIT
290
     1
  9
$CEPSNTYPE
380
     0
  9
$PSTYLEMODE
290
     1
  9
$FINGERPRINTGUID
  2
{1B47B129-DC88-5A4B-A6D7-D312C1EA9BB3}
  9
$VERSIONGUID
  2
{E5125277-71E3-6B49-8EF1-A1E6B14A2F8C}
  9
$EXTNAMES
290
     1
  9
$PSVPSCALE
 40
0.0
  9
$OLESTARTUP
290
     0
  9
$SORTENTS
280
   127
  9
$INDEXCTL
280
     0
  9
$HIDETEXT
280
     1
  9
$XCLIPFRAME
280
     2
  9
$HALOGAP
280
     0
  9
$OBSCOLOR
 70
   257
  9
$OBSLTYPE
280
     0
  9
$INTERSECTIONDISPLAY
280
     0
  9
$INTERSECTIONCOLOR
 70
   257
  9
$DIMASSOC
280
     2
  9
$PROJECTNAME
  1

  9
$CAMERADISPLAY
290
     0
  9
$LENSLENGTH
 40
50.0
  9
$CAMERAHEIGHT
 40
0.0
  9
$STEPSPERSEC
 40
2.0
  9
$STEPSIZE
 40
6.0
  9
$3DDWFPREC
 40
2.0
  9
$PSOLWIDTH
 40
0.25
  9
$PSOLHEIGHT
 40
4.0
  9
$LOFTANG1
 40
1.570796326794896
  9
$LOFTANG2
 40
1.570796326794896
  9
$LOFTMAG1
 40
0.0
  9
$LOFTMAG2
 40
0.0
  9
$LOFTPARAM
 70
     7
  9
$LOFTNORMALS
280
     1
  9
$LATITUDE
 40
37.795
  9
$LONGITUDE
 40
-122.394
  9
$NORTHDIRECTION
 40
0.0
  9
$TIMEZONE
 70
 -8000
  9
$LIGHTGLYPHDISPLAY
280
     1
  9
$TILEMODELIGHTSYNCH
280
     1
  9
$CMATERIAL
347
11
  9
$SOLIDHIST
280
     0
  9
$SHOWHIST
280
     1
  9
$DWFFRAME
280
     2
  9
$DGNFRAME
280
     0
  9
$REALWORLDSCALE
290
     1
  9
$INTERFERECOLOR
 62
     1
  9
$INTERFEREOBJVS
345
33
  9
$INTERFEREVPVS
346
30
  9
$CSHADOW
280
     0
  9
$SHADOWPLANELOCATION
 40
0.0
  0
ENDSEC
  0
SECTION
  2
CLASSES
  0
CLASS
  1
ACDBDICTIONARYWDFLT
  2
AcDbDictionaryWithDefault
  3
ObjectDBX Classes
 90
        0
 91
        1
280
     0
281
     0
  0
CLASS
  1
MATERIAL
  2
AcDbMaterial
  3
ObjectDBX Classes
 90
     1153
 91
        3
280
     0
281
     0
  0
CLASS
  1
VISUALSTYLE
  2
AcDbVisualStyle
  3
ObjectDBX Classes
 90
     4095
 91
       24
280
     0
281
     0
  0
CLASS
  1
SCALE
  2
AcDbScale
  3
ObjectDBX Classes
 90
     1153
 91
       17
280
     0
281
     0
  0
CLASS
  1
TABLESTYLE
  2
AcDbTableStyle
  3
ObjectDBX Classes
 90
     4095
 91
        1
280
     0
281
     0
  0
CLASS
  1
MLEADERSTYLE
  2
AcDbMLeaderStyle
  3
ACDB_MLEADERSTYLE_CLASS
 90
     4095
 91
        1
280
     0
281
     0
  0
CLASS
  1
ACDBSECTIONVIEWSTYLE
  2
AcDbSectionViewStyle
  3
ObjectDBX Classes
 90
     1025
 91
        1
280
     0
281
     0
  0
CLASS
  1
ACDBDETAILVIEWSTYLE
  2
AcDbDetailViewStyle
  3
ObjectDBX Classes
 90
     1025
 91
        1
280
     0
281
     0
  0
CLASS
  1
DICTIONARYVAR
  2
AcDbDictionaryVar
  3
ObjectDBX Classes
 90
        0
 91
        5
280
     0
281
     0
  0
CLASS
  1
CELLSTYLEMAP
  2
AcDbCellStyleMap
  3
ObjectDBX Classes
 90
     1152
 91
        1
280
     0
281
     0
  0
ENDSEC
  0
SECTION
  2
TABLES
  0
TABLE
  2
VPORT
  5
8
330
0
100
AcDbSymbolTable
 70
     1
  0
VPORT
  5
57
330
8
100
AcDbSymbolTableRecord
100
AcDbViewportTableRecord
  2
*Active
 70
     0
 10
0.0
 20
0.0
 11
1.0
 21
1.0
 12
0.0
 22
0.0
 13
0.0
 23
0.0
 14
1.0
 24
1.0
 15
0.0
 25
0.0
 16
0.0
 26
0.0
 36
1.0
 17
600.1763475651845
 27
-999.8195651465769
 37
0.0
 40
2040.449791156557
 41
0.6000881750030807
 42
50.0
 43
0.0
 44
0.0
 50
0.0
 51
0.0
 71
     0
 72
   100
 73
     1
 74
     1
 75
     0
 76
     0
 77
     0
 78
     0
281
     0
 65
     1
110
0.0
120
0.0
130
0.0
111
1.0
121
0.0
131
0.0
112
0.0
122
1.0
132
0.0
 79
     0
146
0.0
 60
     3
 61
     5
292
     1
282
     1
141
0.0
142
0.0
 63
   250
421
  3355443
  0
ENDTAB
  0
TABLE
  2
LTYPE
  5
5
330
0
100
AcDbSymbolTable
 70
     1
  0
LTYPE
  5
5B
330
5
100
AcDbSymbolTableRecord
100
AcDbLinetypeTableRecord
  2
ByBlock
 70
     0
  3

 72
    65
 73
     0
 40
0.0
  0
LTYPE
  5
5C
330
5
100
AcDbSymbolTableRecord
100
AcDbLinetypeTableRecord
  2
ByLayer
 70
     0
  3

 72
    65
 73
     0
 40
0.0
  0
LTYPE
  5
5D
330
5
100
AcDbSymbolTableRecord
100
AcDbLinetypeTableRecord
  2
Continuous
 70
     0
  3
Solid line
 72
    65
 73
     0
 40
0.0
  0
ENDTAB
  0
TABLE
  2
LAYER
  5
2
330
0
100
AcDbSymbolTable
 70
    22
  0
LAYER
  5
54
330
2
100
AcDbSymbolTableRecord
100
AcDbLayerTableRecord
  2
0
 70
     0
 62
     7
  6
Continuous
370
    -3
390
F
347
21
348
0
  0
LAYER
  5
78
330
2
100
AcDbSymbolTableRecord
100
AcDbLayerTableRecord
  2
Bounding Box
 70
     0
 62
     7
  6
Continuous
370
     0
390
F
347
21
348
0
  0
LAYER
  5
7A
330
2
100
AcDbSymbolTableRecord
100
AcDbLayerTableRecord
  2
Screws
 70
     0
 62
     7
  6
Continuous
370
     0
390
F
347
21
348
0
  0
LAYER
  5
83
330
2
100
AcDbSymbolTableRecord
100
AcDbLayerTableRecord
  2
2023-018
 70
     1
 62
     7
  6
Continuous
370
     0
390
F
347
21
348
0
  0
LAYER
  5
84
330
2
100
AcDbSymbolTableRecord
100
AcDbLayerTableRecord
  2
2023-017
 70
     1
 62
     7
  6
Continuous
370
     0
390
F
347
21
348
0
  0
LAYER
  5
85
330
2
100
AcDbSymbolTableRecord
100
AcDbLayerTableRecord
  2
2023-016
 70
     1
 62
     7
  6
Continuous
370
     0
390
F
347
21
348
0
  0
LAYER
  5
86
330
2
100
AcDbSymbolTableRecord
100
AcDbLayerTableRecord
  2
2023-015
 70
     1
 62
     7
  6
Continuous
370
     0
390
F
347
21
348
0
  0
LAYER
  5
87
330
2
100
AcDbSymbolTableRecord
100
AcDbLayerTableRecord
  2
2023-014
 70
     1
 62
     7
  6
Continuous
370
     0
390
F
347
21
348
0
  0
LAYER
  5
88
330
2
100
AcDbSymbolTableRecord
100
AcDbLayerTableRecord
  2
2023-013
 70
     1
 62
     7
  6
Continuous
370
     0
390
F
347
21
348
0
  0
LAYER
  5
89
330
2
100
AcDbSymbolTableRecord
100
AcDbLayerTableRecord
  2
2023-012
 70
     0
 62
     7
  6
Continuous
370
     0
390
F
347
21
348
0
  0
LAYER
  5
98
330
2
100
AcDbSymbolTableRecord
100
AcDbLayerTableRecord
  2
2023-011
 70
     1
 62
     7
  6
Continuous
370
     0
390
F
347
21
348
0
  0
LAYER
  5
99
330
2
100
AcDbSymbolTableRecord
100
AcDbLayerTableRecord
  2
2023-010
 70
     1
 62
     7
  6
Continuous
370
     0
390
F
347
21
348
0
  0
LAYER
  5
9A
330
2
100
AcDbSymbolTableRecord
100
AcDbLayerTableRecord
  2
2023-009
 70
     1
 62
     7
  6
Continuous
370
     0
390
F
347
21
348
0
  0
LAYER
  5
9B
330
2
100
AcDbSymbolTableRecord
100
AcDbLayerTableRecord
  2
2023-008
 70
     1
 62
     7
  6
Continuous
370
     0
390
F
347
21
348
0
  0
LAYER
  5
9C
330
2
100
AcDbSymbolTableRecord
100
AcDbLayerTableRecord
  2
2023-007
 70
     1
 62
     7
  6
Continuous
370
     0
390
F
347
21
348
0
  0
LAYER
  5
9D
330
2
100
AcDbSymbolTableRecord
100
AcDbLayerTableRecord
  2
2023-006
 70
     1
 62
     7
  6
Continuous
370
     0
390
F
347
21
348
0
  0
LAYER
  5
9E
330
2
100
AcDbSymbolTableRecord
100
AcDbLayerTableRecord
  2
2023-005
 70
     1
 62
     7
  6
Continuous
370
     0
390
F
347
21
348
0
  0
LAYER
  5
9F
330
2
100
AcDbSymbolTableRecord
100
AcDbLayerTableRecord
  2
2023-004
 70
     1
 62
     7
  6
Continuous
370
     0
390
F
347
21
348
0
  0
LAYER
  5
A0
330
2
100
AcDbSymbolTableRecord
100
AcDbLayerTableRecord
  2
2023-003
 70
     1
 62
     7
  6
Continuous
370
     0
390
F
347
21
348
0
  0
LAYER
  5
A1
330
2
100
AcDbSymbolTableRecord
100
AcDbLayerTableRecord
  2
2023-002
 70
     1
 62
     7
  6
Continuous
370
     0
390
F
347
21
348
0
  0
LAYER
  5
A2
330
2
100
AcDbSymbolTableRecord
100
AcDbLayerTableRecord
  2
2023-001
 70
     1
 62
     7
  6
Continuous
370
     0
390
F
347
21
348
0
  0
LAYER
  5
A3
330
2
100
AcDbSymbolTableRecord
100
AcDbLayerTableRecord
  2
10-2022-057
 70
     5
 62
     7
  6
Continuous
370
     0
390
F
347
21
348
0
  0
ENDTAB
  0
TABLE
  2
STYLE
  5
3
330
0
100
AcDbSymbolTable
 70
     2
  0
STYLE
  5
55
330
3
100
AcDbSymbolTableRecord
100
AcDbTextStyleTableRecord
  2
Standard
 70
     0
 40
0.0
 41
1.0
 50
0.0
 71
     0
 42
0.2
  3
txt
  4

  0
STYLE
  5
5A
330
3
100
AcDbSymbolTableRecord
100
AcDbTextStyleTableRecord
  2
Annotative
 70
     0
 40
0.0
 41
1.0
 50
0.0
 71
     0
 42
0.2
  3
txt
  4

1001
AcadAnnotative
1000
AnnotativeData
1002
{
1070
     1
1070
     1
1002
}
  0
ENDTAB
  0
TABLE
  2
VIEW
  5
6
330
0
100
AcDbSymbolTable
 70
     0
  0
ENDTAB
  0
TABLE
  2
UCS
  5
7
330
0
100
AcDbSymbolTable
 70
     0
  0
ENDTAB
  0
TABLE
  2
APPID
  5
9
330
0
100
AcDbSymbolTable
 70
     2
  0
APPID
  5
56
330
9
100
AcDbSymbolTableRecord
100
AcDbRegAppTableRecord
  2
ACAD
 70
     0
  0
APPID
  5
5E
330
9
100
AcDbSymbolTableRecord
100
AcDbRegAppTableRecord
  2
AcadAnnotative
 70
     0
  0
ENDTAB
  0
TABLE
  2
DIMSTYLE
  5
A
330
0
100
AcDbSymbolTable
 70
     2
100
AcDbDimStyleTable
 71
     0
  0
DIMSTYLE
105
58
330
A
100
AcDbSymbolTableRecord
100
AcDbDimStyleTableRecord
  2
Standard
 70
     0
340
55
  0
DIMSTYLE
105
59
330
A
100
AcDbSymbolTableRecord
100
AcDbDimStyleTableRecord
  2
Annotative
 70
     0
340
55
1001
AcadAnnotative
1000
AnnotativeData
1002
{
1070
     1
1070
     1
1002
}
  0
ENDTAB
  0
TABLE
  2
BLOCK_RECORD
  5
1
330
0
100
AcDbSymbolTable
 70
     1
  0
BLOCK_RECORD
  5
70
330
1
100
AcDbSymbolTableRecord
100
AcDbBlockTableRecord
  2
*Model_Space
340
73
 70
     0
280
     1
281
     0
  0
BLOCK_RECORD
  5
6C
330
1
100
AcDbSymbolTableRecord
100
AcDbBlockTableRecord
  2
*Paper_Space
340
6F
 70
     0
280
     1
281
     0
  0
BLOCK_RECORD
  5
74
330
1
100
AcDbSymbolTableRecord
100
AcDbBlockTableRecord
  2
*Paper_Space0
340
77
 70
     0
280
     1
281
     0
  0
ENDTAB
  0
ENDSEC
  0
SECTION
  2
BLOCKS
  0
BLOCK
  5
71
330
70
100
AcDbEntity
  8
0
100
AcDbBlockBegin
  2
*Model_Space
 70
     0
 10
0.0
 20
0.0
 30
0.0
  3
*Model_Space
  1

  0
ENDBLK
  5
72
330
70
100
AcDbEntity
  8
0
100
AcDbBlockEnd
  0
BLOCK
  5
6D
330
6C
100
AcDbEntity
 67
     1
  8
0
100
AcDbBlockBegin
  2
*Paper_Space
 70
     0
 10
0.0
 20
0.0
 30
0.0
  3
*Paper_Space
  1

  0
ENDBLK
  5
6E
330
6C
100
AcDbEntity
 67
     1
  8
0
100
AcDbBlockEnd
  0
BLOCK
  5
75
330
74
100
AcDbEntity
 67
     1
  8
0
100
AcDbBlockBegin
  2
*Paper_Space0
 70
     0
 10
0.0
 20
0.0
 30
0.0
  3
*Paper_Space0
  1

  0
ENDBLK
  5
76
330
74
100
AcDbEntity
 67
     1
  8
0
100
AcDbBlockEnd
  0
ENDSEC
  0
SECTION
  2
ENTITIES
  0
LWPOLYLINE
  5
79
330
70
100
AcDbEntity
  8
Bounding Box
 62
    18
420
        0
370
    40
100
AcDbPolyline
 90
        4
 70
     1
 43
0.0
 10
1200.176347415185
 20
-1999.819564896579
 10
0.1763477151839837
 20
-1999.819564896579
 10
0.1763477151839837
 20
0.180434603424631
 10
1200.176347415185
 20
0.180434603424631
  0
ELLIPSE
  5
7B
330
70
100
AcDbEntity
  8
Screws
100
AcDbEllipse
 10
17.342316281568
 20
-1982.358092505099
 30
0.0
 11
2.557638888249479
 21
0.0
 31
0.0
210
0.0
220
0.0
230
1.0
 40
0.9655172413793103
 41
0.0
 42
6.283185307179586
  0
HATCH
  5
7C
330
70
100
AcDbEntity
  8
Screws
 62
    18
420
        0
440
 33554687
100
AcDbHatch
 10
0.0
 20
0.0
 30
0.0
210
0.0
220
0.0
230
1.0
  2
SOLID
 70
     1
 71
     1
 91
        1
 92
        1
 93
        1
 72
     3
 10
17.342316281568
 20
-1982.358092505099
 11
2.557638888249479
 21
0.0
 40
0.9655172413793103
 50
0.0
 51
360.0
 73
     1
 97
        1
330
7B
 75
     2
 76
     1
 98
        1
 10
0.0
 20
0.0
450
        0
451
        0
460
0.0
461
0.0
452
        0
462
0.0
453
        0
470

  0
ELLIPSE
  5
7D
330
70
100
AcDbEntity
  8
Screws
100
AcDbEllipse
 10
1182.38037163908
 20
-1982.387911349827
 30
0.0
 11
2.557638888249479
 21
0.0
 31
0.0
210
0.0
220
0.0
230
1.0
 40
0.9655172413793103
 41
0.0
 42
6.283185307179586
  0
HATCH
  5
7E
330
70
100
AcDbEntity
  8
Screws
 62
    18
420
        0
440
 33554687
100
AcDbHatch
 10
0.0
 20
0.0
 30
0.0
210
0.0
220
0.0
230
1.0
  2
SOLID
 70
     1
 71
     1
 91
        1
 92
        1
 93
        1
 72
     3
 10
1182.38037163908
 20
-1982.387911349827
 11
2.557638888249479
 21
0.0
 40
0.9655172413793103
 50
0.0
 51
360.0
 73
     1
 97
        1
330
7D
 75
     2
 76
     1
 98
        1
 10
0.0
 20
0.0
450
        0
451
        0
460
0.0
461
0.0
452
        0
462
0.0
453
        0
470

  0
ELLIPSE
  5
7F
330
70
100
AcDbEntity
  8
Screws
100
AcDbEllipse
 10
1182.644954972347
 20
-17.53202921959431
 30
0.0
 11
2.557638888249479
 21
0.0
 31
0.0
210
0.0
220
0.0
230
1.0
 40
0.9655172413793103
 41
0.0
 42
6.283185307179586
  0
HATCH
  5
80
330
70
100
AcDbEntity
  8
Screws
 62
    18
420
        0
440
 33554687
100
AcDbHatch
 10
0.0
 20
0.0
 30
0.0
210
0.0
220
0.0
230
1.0
  2
SOLID
 70
     1
 71
     1
 91
        1
 92
        1
 93
        1
 72
     3
 10
1182.644954972347
 20
-17.53202921959431
 11
2.557638888249479
 21
0.0
 40
0.9655172413793103
 50
0.0
 51
360.0
 73
     1
 97
        1
330
7F
 75
     2
 76
     1
 98
        1
 10
0.0
 20
0.0
450
        0
451
        0
460
0.0
461
0.0
452
        0
462
0.0
453
        0
470

  0
ELLIPSE
  5
81
330
70
100
AcDbEntity
  8
Screws
100
AcDbEllipse
 10
17.43471861274107
 20
-17.53202921959431
 30
0.0
 11
2.557638888249479
 21
0.0
 31
0.0
210
0.0
220
0.0
230
1.0
 40
0.9655172413793103
 41
0.0
 42
6.283185307179586
  0
HATCH
  5
82
330
70
100
AcDbEntity
  8
Screws
 62
    18
420
        0
440
 33554687
100
AcDbHatch
 10
0.0
 20
0.0
 30
0.0
210
0.0
220
0.0
230
1.0
  2
SOLID
 70
     1
 71
     1
 91
        1
 92
        1
 93
        1
 72
     3
 10
17.43471861274107
 20
-17.53202921959431
 11
2.557638888249479
 21
0.0
 40
0.9655172413793103
 50
0.0
 51
360.0
 73
     1
 97
        1
330
81
 75
     2
 76
     1
 98
        1
 10
0.0
 20
0.0
450
        0
451
        0
460
0.0
461
0.0
452
        0
462
0.0
453
        0
470

  0
SPLINE
  5
8A
330
70
100
AcDbEntity
  8
2023-012
100
AcDbSpline
210
0.0
220
0.0
230
1.0
 70
     9
 71
     3
 72
   155
 73
   151
 74
     0
 42
0.0000000001
 43
0.0000000001
 40
0.0
 40
0.0
 40
0.0
 40
0.0
 40
1.0
 40
1.0
 40
1.0
 40
2.0
 40
2.0
 40
2.0
 40
3.0
 40
3.0
 40
3.0
 40
4.0
 40
4.0
 40
4.0
 40
5.0
 40
5.0
 40
5.0
 40
6.0
 40
6.0
 40
6.0
 40
7.0
 40
7.0
 40
7.0
 40
8.0
 40
8.0
 40
8.0
 40
9.0
 40
9.0
 40
9.0
 40
10.0
 40
10.0
 40
10.0
 40
11.0
 40
11.0
 40
11.0
 40
12.0
 40
12.0
 40
12.0
 40
13.0
 40
13.0
 40
13.0
 40
14.0
 40
14.0
 40
14.0
 40
15.0
 40
15.0
 40
15.0
 40
16.0
 40
16.0
 40
16.0
 40
17.0
 40
17.0
 40
17.0
 40
18.0
 40
18.0
 40
18.0
 40
19.0
 40
19.0
 40
19.0
 40
20.0
 40
20.0
 40
20.0
 40
21.0
 40
21.0
 40
21.0
 40
22.0
 40
22.0
 40
22.0
 40
23.0
 40
23.0
 40
23.0
 40
24.0
 40
24.0
 40
24.0
 40
25.0
 40
25.0
 40
25.0
 40
26.0
 40
26.0
 40
26.0
 40
27.0
 40
27.0
 40
27.0
 40
28.0
 40
28.0
 40
28.0
 40
29.0
 40
29.0
 40
29.0
 40
30.0
 40
30.0
 40
30.0
 40
31.0
 40
31.0
 40
31.0
 40
32.0
 40
32.0
 40
32.0
 40
33.0
 40
33.0
 40
33.0
 40
34.0
 40
34.0
 40
34.0
 40
35.0
 40
35.0
 40
35.0
 40
36.0
 40
36.0
 40
36.0
 40
37.0
 40
37.0
 40
37.0
 40
38.0
 40
38.0
 40
38.0
 40
39.0
 40
39.0
 40
39.0
 40
40.0
 40
40.0
 40
40.0
 40
41.0
 40
41.0
 40
41.0
 40
42.0
 40
42.0
 40
42.0
 40
43.0
 40
43.0
 40
43.0
 40
44.0
 40
44.0
 40
44.0
 40
45.0
 40
45.0
 40
45.0
 40
46.0
 40
46.0
 40
46.0
 40
47.0
 40
47.0
 40
47.0
 40
48.0
 40
48.0
 40
48.0
 40
49.0
 40
49.0
 40
49.0
 40
50.0
 40
50.0
 40
50.0
 40
50.0
 10
1130.22858078728
 20
-1912.930760814596
 30
0.0
 10
1130.943749173314
 20
-1914.367109736724
 30
0.0
 10
1132.976568824138
 20
-1914.154235219642
 30
0.0
 10
1133.894808959089
 20
-1913.068597878982
 30
0.0
 10
1135.103806684568
 20
-1911.639197196526
 30
0.0
 10
1134.028805795657
 20
-1909.744018747634
 30
0.0
 10
1132.512936723784
 20
-1909.121570242399
 30
0.0
 10
1130.781425937024
 20
-1908.410574602327
 30
0.0
 10
1129.09064440127
 20
-1909.345829308321
 30
0.0
 10
1127.652808173629
 20
-1910.272712401215
 30
0.0
 10
1126.087682879938
 20
-1911.28165079427
 30
0.0
 10
1124.52345779981
 20
-1912.293989678304
 30
0.0
 10
1123.010611604614
 20
-1913.380543818409
 30
0.0
 10
1117.471278451617
 20
-1917.358995421703
 30
0.0
 10
1112.851031363243
 20
-1922.53192568305
 30
0.0
 10
1109.724498087657
 20
-1928.610893101313
 30
0.0
 10
1108.872825591136
 20
-1930.26681322147
 30
0.0
 10
1108.124235818419
 20
-1932.035905367248
 30
0.0
 10
1108.067876373088
 20
-1933.924332967461
 30
0.0
 10
1108.024017784815
 20
-1935.393896198927
 30
0.0
 10
1108.466614589089
 20
-1936.886366897525
 30
0.0
 10
1109.311653942678
 20
-1938.090340153488
 30
0.0
 10
1110.962128063512
 20
-1940.441859869936
 30
0.0
 10
1113.709345899906
 20
-1941.844912337481
 30
0.0
 10
1116.463499139541
 20
-1942.4554582636
 30
0.0
 10
1120.105637314426
 20
-1943.262854378321
 30
0.0
 10
1123.932970834514
 20
-1942.902725396681
 30
0.0
 10
1127.595208471153
 20
-1942.442464448571
 30
0.0
 10
1131.449665383723
 20
-1941.958045858338
 30
0.0
 10
1135.294592957624
 20
-1941.388734915902
 30
0.0
 10
1139.127310244945
 20
-1940.755527287913
 30
0.0
 10
1146.744899778736
 20
-1939.497016566123
 30
0.0
 10
1154.31599140918
 20
-1937.956778959774
 30
0.0
 10
1161.819876958308
 20
-1936.139319243347
 30
0.0
 10
1162.740434245812
 20
-1935.916357982044
 30
0.0
 10
1163.659908882192
 20
-1935.688983321408
 30
0.0
 10
1164.578468127122
 20
-1935.457932305366
 30
0.0
 10
1165.95370781533
 20
-1935.112009569284
 30
0.0
 10
1165.37102608217
 20
-1932.985038493979
 30
0.0
 10
1163.992328704515
 20
-1933.331830964559
 30
0.0
 10
1157.144747679025
 20
-1935.054246325464
 30
0.0
 10
1150.240340488626
 20
-1936.548710071432
 30
0.0
 10
1143.292385651495
 20
-1937.806788052413
 30
0.0
 10
1139.790274771781
 20
-1938.440921216488
 30
0.0
 10
1136.277367087996
 20
-1939.015441998777
 30
0.0
 10
1132.755694777584
 20
-1939.529962215503
 30
0.0
 10
1129.324166128329
 20
-1940.031312343709
 30
0.0
 10
1125.863676594835
 20
-1940.582819910215
 30
0.0
 10
1122.392828728897
 20
-1940.69588413688
 30
0.0
 10
1120.796061777196
 20
-1940.747899444822
 30
0.0
 10
1119.142019050882
 20
-1940.720793349439
 30
0.0
 10
1117.583761064825
 20
-1940.43718509718
 30
0.0
 10
1116.963194820155
 20
-1940.324239930439
 30
0.0
 10
1116.350087081049
 20
-1940.170317250424
 30
0.0
 10
1115.750050081148
 20
-1939.975825956875
 30
0.0
 10
1115.114222969229
 20
-1939.769733936735
 30
0.0
 10
1114.708492007193
 20
-1939.60633216778
 30
0.0
 10
1114.141268028776
 20
-1939.31906970666
 30
0.0
 10
1113.01737370337
 20
-1938.749889519916
 30
0.0
 10
1112.186788451137
 20
-1938.158584529748
 30
0.0
 10
1111.38828179154
 20
-1937.204935364225
 30
0.0
 10
1111.310497718633
 20
-1937.112038560763
 30
0.0
 10
1111.166498625713
 20
-1936.91614310692
 30
0.0
 10
1111.027983945584
 20
-1936.695240931939
 30
0.0
 10
1110.868951281297
 20
-1936.441616829425
 30
0.0
 10
1110.72173286089
 20
-1936.175350791568
 30
0.0
 10
1110.605798693394
 20
-1935.899024853769
 30
0.0
 10
1110.660181657911
 20
-1936.028645171878
 30
0.0
 10
1110.529433889072
 20
-1935.677189937428
 30
0.0
 10
1110.514942904356
 20
-1935.632778683048
 30
0.0
 10
1110.47347082692
 20
-1935.50567710806
 30
0.0
 10
1110.436707734297
 20
-1935.377074763612
 30
0.0
 10
1110.404211640519
 20
-1935.247399036473
 30
0.0
 10
1110.303235626215
 20
-1934.844454049684
 30
0.0
 10
1110.294276462758
 20
-1934.779079823384
 30
0.0
 10
1110.276461794027
 20
-1934.397724751002
 30
0.0
 10
1110.204140708472
 20
-1932.849561648377
 30
0.0
 10
1110.801308606578
 20
-1931.368730612938
 30
0.0
 10
1111.483259250515
 20
-1930.0089032621
 30
0.0
 10
1112.171354944987
 20
-1928.6368225204
 30
0.0
 10
1112.94599171773
 20
-1927.306262285551
 30
0.0
 10
1113.787083853683
 20
-1926.022526444375
 30
0.0
 10
1115.424845849975
 20
-1923.522855262016
 30
0.0
 10
1117.343189580866
 20
-1921.218620930622
 30
0.0
 10
1119.491479344048
 20
-1919.141557113503
 30
0.0
 10
1121.807458917607
 20
-1916.902363194759
 30
0.0
 10
1124.396466498858
 20
-1915.027483160927
 30
0.0
 10
1127.086152536334
 20
-1913.265635115305
 30
0.0
 10
1127.794112591412
 20
-1912.801893986397
 30
0.0
 10
1128.502247841015
 20
-1912.337087778005
 30
0.0
 10
1129.218623518942
 20
-1911.886422361251
 30
0.0
 10
1129.769528656261
 20
-1911.539852955068
 30
0.0
 10
1130.381771986416
 20
-1911.154770055137
 30
0.0
 10
1131.029869433307
 20
-1911.074295363321
 30
0.0
 10
1131.343744423295
 20
-1911.035321296676
 30
0.0
 10
1131.453796582022
 20
-1911.062349098062
 30
0.0
 10
1131.662325719271
 20
-1911.139154593371
 30
0.0
 10
1131.663101478866
 20
-1911.139440321305
 30
0.0
 10
1131.867721034061
 20
-1911.242392474249
 30
0.0
 10
1131.945816272363
 20
-1911.29425842795
 30
0.0
 10
1132.025908702705
 20
-1911.347450791206
 30
0.0
 10
1132.076905888679
 20
-1911.393132330091
 30
0.0
 10
1132.133634202683
 20
-1911.467470053715
 30
0.0
 10
1132.077880241825
 20
-1911.394409138617
 30
0.0
 10
1132.29857890659
 20
-1911.757349408192
 30
0.0
 10
1132.192780636092
 20
-1911.572964915403
 30
0.0
 10
1132.209805168862
 20
-1911.602635153162
 30
0.0
 10
1132.297135246039
 20
-1911.74445044353
 30
0.0
 10
1132.212780080051
 20
-1911.605447873945
 30
0.0
 10
1132.291079095282
 20
-1911.734470965604
 30
0.0
 10
1132.087900402663
 20
-1911.734905633648
 30
0.0
 10
1132.233225267806
 20
-1911.603299423176
 30
0.0
 10
1132.229380773132
 20
-1911.606780997888
 30
0.0
 10
1132.172974993615
 20
-1911.778605763506
 30
0.0
 10
1132.233169111602
 20
-1911.636486938591
 30
0.0
 10
1132.297022433538
 20
-1911.485728702022
 30
0.0
 10
1132.125151311567
 20
-1911.720583067015
 30
0.0
 10
1132.246779229917
 20
-1911.619318827245
 30
0.0
 10
1132.353322006157
 20
-1911.530614084247
 30
0.0
 10
1132.233353417967
 20
-1911.634904367064
 30
0.0
 10
1132.221425408856
 20
-1911.643004899233
 30
0.0
 10
1132.028787700104
 20
-1911.7738287393
 30
0.0
 10
1132.395190206235
 20
-1911.628403576635
 30
0.0
 10
1132.163986387865
 20
-1911.690053818497
 30
0.0
 10
1131.980956367944
 20
-1911.738858570411
 30
0.0
 10
1132.313222902868
 20
-1911.649446964918
 30
0.0
 10
1132.059129556009
 20
-1911.738610579075
 30
0.0
 10
1131.814170667514
 20
-1911.824568830594
 30
0.0
 10
1132.156158402281
 20
-1911.739613904305
 30
0.0
 10
1131.968332102139
 20
-1911.754511680911
 30
0.0
 10
1131.774898343728
 20
-1911.769854223029
 30
0.0
 10
1131.970417789039
 20
-1911.747279516078
 30
0.0
 10
1132.016978741823
 20
-1911.764343173046
 30
0.0
 10
1131.940696626923
 20
-1911.736387305229
 30
0.0
 10
1131.87788076672
 20
-1911.684078913298
 30
0.0
 10
1132.059401220894
 20
-1911.788089398947
 30
0.0
 10
1132.080492733139
 20
-1911.800174750106
 30
0.0
 10
1132.220451607643
 20
-1911.870924108489
 30
0.0
 10
1132.125816570086
 20
-1911.839416958791
 30
0.0
 10
1132.035421941977
 20
-1911.809321582348
 30
0.0
 10
1132.230025079995
 20
-1912.013968492869
 30
0.0
 10
1132.13241372107
 20
-1911.817925193253
 30
0.0
 10
1131.867093545392
 20
-1911.285054395557
 30
0.0
 10
1131.113376109395
 20
-1911.136233405324
 30
0.0
 10
1130.624079443506
 20
-1911.422426537032
 30
0.0
 10
1130.08131440544
 20
-1911.739893703382
 30
0.0
 10
1129.962265319345
 20
-1912.395891065334
 30
0.0
 10
1130.22858078728
 20
-1912.930760814596
 30
0.0
 10
1130.22858078728
 20
-1912.930760814596
 30
0.0
 10
1130.22858078728
 20
-1912.930760814596
 30
0.0
 10
1130.22858078728
 20
-1912.930760814596
 30
0.0
  0
HATCH
  5
8B
330
70
100
AcDbEntity
  8
2023-012
 62
   250
420
  2301728
440
 33554687
100
AcDbHatch
 10
0.0
 20
0.0
 30
0.0
210
0.0
220
0.0
230
1.0
  2
SOLID
 70
     1
 71
     1
 91
        1
 92
        1
 93
        1
 72
     4
 94
        3
 73
     0
 74
     0
 95
      155
 96
      151
 40
0.0
 40
0.0
 40
0.0
 40
0.0
 40
1.0
 40
1.0
 40
1.0
 40
2.0
 40
2.0
 40
2.0
 40
3.0
 40
3.0
 40
3.0
 40
4.0
 40
4.0
 40
4.0
 40
5.0
 40
5.0
 40
5.0
 40
6.0
 40
6.0
 40
6.0
 40
7.0
 40
7.0
 40
7.0
 40
8.0
 40
8.0
 40
8.0
 40
9.0
 40
9.0
 40
9.0
 40
10.0
 40
10.0
 40
10.0
 40
11.0
 40
11.0
 40
11.0
 40
12.0
 40
12.0
 40
12.0
 40
13.0
 40
13.0
 40
13.0
 40
14.0
 40
14.0
 40
14.0
 40
15.0
 40
15.0
 40
15.0
 40
16.0
 40
16.0
 40
16.0
 40
17.0
 40
17.0
 40
17.0
 40
18.0
 40
18.0
 40
18.0
 40
19.0
 40
19.0
 40
19.0
 40
20.0
 40
20.0
 40
20.0
 40
21.0
 40
21.0
 40
21.0
 40
22.0
 40
22.0
 40
22.0
 40
23.0
 40
23.0
 40
23.0
 40
24.0
 40
24.0
 40
24.0
 40
25.0
 40
25.0
 40
25.0
 40
26.0
 40
26.0
 40
26.0
 40
27.0
 40
27.0
 40
27.0
 40
28.0
 40
28.0
 40
28.0
 40
29.0
 40
29.0
 40
29.0
 40
30.0
 40
30.0
 40
30.0
 40
31.0
 40
31.0
 40
31.0
 40
32.0
 40
32.0
 40
32.0
 40
33.0
 40
33.0
 40
33.0
 40
34.0
 40
34.0
 40
34.0
 40
35.0
 40
35.0
 40
35.0
 40
36.0
 40
36.0
 40
36.0
 40
37.0
 40
37.0
 40
37.0
 40
38.0
 40
38.0
 40
38.0
 40
39.0
 40
39.0
 40
39.0
 40
40.0
 40
40.0
 40
40.0
 40
41.0
 40
41.0
 40
41.0
 40
42.0
 40
42.0
 40
42.0
 40
43.0
 40
43.0
 40
43.0
 40
44.0
 40
44.0
 40
44.0
 40
45.0
 40
45.0
 40
45.0
 40
46.0
 40
46.0
 40
46.0
 40
47.0
 40
47.0
 40
47.0
 40
48.0
 40
48.0
 40
48.0
 40
49.0
 40
49.0
 40
49.0
 40
50.0
 40
50.0
 40
50.0
 40
50.0
 10
1130.22858078728
 20
-1912.930760814596
 10
1130.943749173314
 20
-1914.367109736724
 10
1132.976568824138
 20
-1914.154235219642
 10
1133.894808959089
 20
-1913.068597878982
 10
1135.103806684568
 20
-1911.639197196526
 10
1134.028805795657
 20
-1909.744018747634
 10
1132.512936723784
 20
-1909.121570242399
 10
1130.781425937024
 20
-1908.410574602327
 10
1129.09064440127
 20
-1909.345829308321
 10
1127.652808173629
 20
-1910.272712401215
 10
1126.087682879938
 20
-1911.28165079427
 10
1124.52345779981
 20
-1912.293989678304
 10
1123.010611604614
 20
-1913.380543818409
 10
1117.471278451617
 20
-1917.358995421703
 10
1112.851031363243
 20
-1922.53192568305
 10
1109.724498087657
 20
-1928.610893101313
 10
1108.872825591136
 20
-1930.26681322147
 10
1108.124235818419
 20
-1932.035905367248
 10
1108.067876373088
 20
-1933.924332967461
 10
1108.024017784815
 20
-1935.393896198927
 10
1108.466614589089
 20
-1936.886366897525
 10
1109.311653942678
 20
-1938.090340153488
 10
1110.962128063512
 20
-1940.441859869936
 10
1113.709345899906
 20
-1941.844912337481
 10
1116.463499139541
 20
-1942.4554582636
 10
1120.105637314426
 20
-1943.262854378321
 10
1123.932970834514
 20
-1942.902725396681
 10
1127.595208471153
 20
-1942.442464448571
 10
1131.449665383723
 20
-1941.958045858338
 10
1135.294592957624
 20
-1941.388734915902
 10
1139.127310244945
 20
-1940.755527287913
 10
1146.744899778736
 20
-1939.497016566123
 10
1154.31599140918
 20
-1937.956778959774
 10
1161.819876958308
 20
-1936.139319243347
 10
1162.740434245812
 20
-1935.916357982044
 10
1163.659908882192
 20
-1935.688983321408
 10
1164.578468127122
 20
-1935.457932305366
 10
1165.95370781533
 20
-1935.112009569284
 10
1165.37102608217
 20
-1932.985038493979
 10
1163.992328704515
 20
-1933.331830964559
 10
1157.144747679025
 20
-1935.054246325464
 10
1150.240340488626
 20
-1936.548710071432
 10
1143.292385651495
 20
-1937.806788052413
 10
1139.790274771781
 20
-1938.440921216488
 10
1136.277367087996
 20
-1939.015441998777
 10
1132.755694777584
 20
-1939.529962215503
 10
1129.324166128329
 20
-1940.031312343709
 10
1125.863676594835
 20
-1940.582819910215
 10
1122.392828728897
 20
-1940.69588413688
 10
1120.796061777196
 20
-1940.747899444822
 10
1119.142019050882
 20
-1940.720793349439
 10
1117.583761064825
 20
-1940.43718509718
 10
1116.963194820155
 20
-1940.324239930439
 10
1116.350087081049
 20
-1940.170317250424
 10
1115.750050081148
 20
-1939.975825956875
 10
1115.114222969229
 20
-1939.769733936735
 10
1114.708492007193
 20
-1939.60633216778
 10
1114.141268028776
 20
-1939.31906970666
 10
1113.01737370337
 20
-1938.749889519916
 10
1112.186788451137
 20
-1938.158584529748
 10
1111.38828179154
 20
-1937.204935364225
 10
1111.310497718633
 20
-1937.112038560763
 10
1111.166498625713
 20
-1936.91614310692
 10
1111.027983945584
 20
-1936.695240931939
 10
1110.868951281297
 20
-1936.441616829425
 10
1110.72173286089
 20
-1936.175350791568
 10
1110.605798693394
 20
-1935.899024853769
 10
1110.660181657911
 20
-1936.028645171878
 10
1110.529433889072
 20
-1935.677189937428
 10
1110.514942904356
 20
-1935.632778683048
 10
1110.47347082692
 20
-1935.50567710806
 10
1110.436707734297
 20
-1935.377074763612
 10
1110.404211640519
 20
-1935.247399036473
 10
1110.303235626215
 20
-1934.844454049684
 10
1110.294276462758
 20
-1934.779079823384
 10
1110.276461794027
 20
-1934.397724751002
 10
1110.204140708472
 20
-1932.849561648377
 10
1110.801308606578
 20
-1931.368730612938
 10
1111.483259250515
 20
-1930.0089032621
 10
1112.171354944987
 20
-1928.6368225204
 10
1112.94599171773
 20
-1927.306262285551
 10
1113.787083853683
 20
-1926.022526444375
 10
1115.424845849975
 20
-1923.522855262016
 10
1117.343189580866
 20
-1921.218620930622
 10
1119.491479344048
 20
-1919.141557113503
 10
1121.807458917607
 20
-1916.902363194759
 10
1124.396466498858
 20
-1915.027483160927
 10
1127.086152536334
 20
-1913.265635115305
 10
1127.794112591412
 20
-1912.801893986397
 10
1128.502247841015
 20
-1912.337087778005
 10
1129.218623518942
 20
-1911.886422361251
 10
1129.769528656261
 20
-1911.539852955068
 10
1130.381771986416
 20
-1911.154770055137
 10
1131.029869433307
 20
-1911.074295363321
 10
1131.343744423295
 20
-1911.035321296676
 10
1131.453796582022
 20
-1911.062349098062
 10
1131.662325719271
 20
-1911.139154593371
 10
1131.663101478866
 20
-1911.139440321305
 10
1131.867721034061
 20
-1911.242392474249
 10
1131.945816272363
 20
-1911.29425842795
 10
1132.025908702705
 20
-1911.347450791206
 10
1132.076905888679
 20
-1911.393132330091
 10
1132.133634202683
 20
-1911.467470053715
 10
1132.077880241825
 20
-1911.394409138617
 10
1132.29857890659
 20
-1911.757349408192
 10
1132.192780636092
 20
-1911.572964915403
 10
1132.209805168862
 20
-1911.602635153162
 10
1132.297135246039
 20
-1911.74445044353
 10
1132.212780080051
 20
-1911.605447873945
 10
1132.291079095282
 20
-1911.734470965604
 10
1132.087900402663
 20
-1911.734905633648
 10
1132.233225267806
 20
-1911.603299423176
 10
1132.229380773132
 20
-1911.606780997888
 10
1132.172974993615
 20
-1911.778605763506
 10
1132.233169111602
 20
-1911.636486938591
 10
1132.297022433538
 20
-1911.485728702022
 10
1132.125151311567
 20
-1911.720583067015
 10
1132.246779229917
 20
-1911.619318827245
 10
1132.353322006157
 20
-1911.530614084247
 10
1132.233353417967
 20
-1911.634904367064
 10
1132.221425408856
 20
-1911.643004899233
 10
1132.028787700104
 20
-1911.7738287393
 10
1132.395190206235
 20
-1911.628403576635
 10
1132.163986387865
 20
-1911.690053818497
 10
1131.980956367944
 20
-1911.738858570411
 10
1132.313222902868
 20
-1911.649446964918
 10
1132.059129556009
 20
-1911.738610579075
 10
1131.814170667514
 20
-1911.824568830594
 10
1132.156158402281
 20
-1911.739613904305
 10
1131.968332102139
 20
-1911.754511680911
 10
1131.774898343728
 20
-1911.769854223029
 10
1131.970417789039
 20
-1911.747279516078
 10
1132.016978741823
 20
-1911.764343173046
 10
1131.940696626923
 20
-1911.736387305229
 10
1131.87788076672
 20
-1911.684078913298
 10
1132.059401220894
 20
-1911.788089398947
 10
1132.080492733139
 20
-1911.800174750106
 10
1132.220451607643
 20
-1911.870924108489
 10
1132.125816570086
 20
-1911.839416958791
 10
1132.035421941977
 20
-1911.809321582348
 10
1132.230025079995
 20
-1912.013968492869
 10
1132.13241372107
 20
-1911.817925193253
 10
1131.867093545392
 20
-1911.285054395557
 10
1131.113376109395
 20
-1911.136233405324
 10
1130.624079443506
 20
-1911.422426537032
 10
1130.08131440544
 20
-1911.739893703382
 10
1129.962265319345
 20
-1912.395891065334
 10
1130.22858078728
 20
-1912.930760814596
 10
1130.22858078728
 20
-1912.930760814596
 10
1130.22858078728
 20
-1912.930760814596
 10
1130.22858078728
 20
-1912.930760814596
 97
        0
 97
        1
330
8A
 75
     2
 76
     1
 98
        1
 10
0.0
 20
0.0
450
        0
451
        0
460
0.0
461
0.0
452
        0
462
0.0
453
        0
470

  0
SPLINE
  5
8C
330
70
100
AcDbEntity
  8
2023-012
100
AcDbSpline
210
0.0
220
0.0
230
1.0
 70
     9
 71
     3
 72
    56
 73
    52
 74
     0
 42
0.0000000001
 43
0.0000000001
 40
0.0
 40
0.0
 40
0.0
 40
0.0
 40
1.0
 40
1.0
 40
1.0
 40
2.0
 40
2.0
 40
2.0
 40
3.0
 40
3.0
 40
3.0
 40
4.0
 40
4.0
 40
4.0
 40
5.0
 40
5.0
 40
5.0
 40
6.0
 40
6.0
 40
6.0
 40
7.0
 40
7.0
 40
7.0
 40
8.0
 40
8.0
 40
8.0
 40
9.0
 40
9.0
 40
9.0
 40
10.0
 40
10.0
 40
10.0
 40
11.0
 40
11.0
 40
11.0
 40
12.0
 40
12.0
 40
12.0
 40
13.0
 40
13.0
 40
13.0
 40
14.0
 40
14.0
 40
14.0
 40
15.0
 40
15.0
 40
15.0
 40
16.0
 40
16.0
 40
16.0
 40
17.0
 40
17.0
 40
17.0
 40
17.0
 10
1130.521182761467
 20
-1934.466946704112
 30
0.0
 10
1136.434656415721
 20
-1927.080985419303
 30
0.0
 10
1142.810638451786
 20
-1920.067485837551
 30
0.0
 10
1149.607729219998
 20
-1913.485361893371
 30
0.0
 10
1151.521747170104
 20
-1911.631877246986
 30
0.0
 10
1153.46937263082
 20
-1909.813377056622
 30
0.0
 10
1155.447706691609
 20
-1908.028723836764
 30
0.0
 10
1154.820384466041
 20
-1907.768878462954
 30
0.0
 10
1154.19306224047
 20
-1907.509033089144
 30
0.0
 10
1153.565740014903
 20
-1907.249187715338
 30
0.0
 10
1153.530544282182
 20
-1913.948677289095
 30
0.0
 10
1153.011693920292
 20
-1920.630801114694
 30
0.0
 10
1152.60798765162
 20
-1927.314667416895
 30
0.0
 10
1152.204924615661
 20
-1933.987884190488
 30
0.0
 10
1151.912657067632
 20
-1940.689270385399
 30
0.0
 10
1152.367385797559
 20
-1947.367894354238
 30
0.0
 10
1152.623973014878
 20
-1951.13640385649
 30
0.0
 10
1153.119533440294
 20
-1954.894393903595
 30
0.0
 10
1153.936055795746
 20
-1958.583668516246
 30
0.0
 10
1154.064760396177
 20
-1959.165191620567
 30
0.0
 10
1154.739119031233
 20
-1959.505637768307
 30
0.0
 10
1155.292176177455
 20
-1959.353649475347
 30
0.0
 10
1155.891518545642
 20
-1959.188941318042
 30
0.0
 10
1156.191243878646
 20
-1958.580778820038
 30
0.0
 10
1156.062157136556
 20
-1957.997529093638
 30
0.0
 10
1154.64116897024
 20
-1951.577110189187
 30
0.0
 10
1154.270675622625
 20
-1944.992551481121
 30
0.0
 10
1154.353865641895
 20
-1938.431946786961
 30
0.0
 10
1154.438394455551
 20
-1931.765760908788
 30
0.0
 10
1154.976343570204
 20
-1925.117422591173
 30
0.0
 10
1155.363989095212
 20
-1918.464913488514
 30
0.0
 10
1155.58163327668
 20
-1914.729851931116
 30
0.0
 10
1155.750943007677
 20
-1910.991100298684
 30
0.0
 10
1155.770601125463
 20
-1907.249187715338
 30
0.0
 10
1155.775821121445
 20
-1906.255564172128
 30
0.0
 10
1154.580566444359
 20
-1905.845460417936
 30
0.0
 10
1153.888634448756
 20
-1906.469651593912
 30
0.0
 10
1146.863230763744
 20
-1912.807261381748
 30
0.0
 10
1140.236844417676
 20
-1919.584674405905
 30
0.0
 10
1134.065852645093
 20
-1926.757097920355
 30
0.0
 10
1132.328140228789
 20
-1928.776807207837
 30
0.0
 10
1130.627328187565
 20
-1930.828008387147
 30
0.0
 10
1128.962110518614
 20
-1932.907874461262
 30
0.0
 10
1128.590322326508
 20
-1933.372239968511
 30
0.0
 10
1128.50848399718
 20
-1934.013320182681
 30
0.0
 10
1128.962110518614
 20
-1934.466946704112
 30
0.0
 10
1129.347344565594
 20
-1934.852180751092
 30
0.0
 10
1130.147097462812
 20
-1934.934181310135
 30
0.0
 10
1130.521182761467
 20
-1934.466946704112
 30
0.0
 10
1130.521182761467
 20
-1934.466946704112
 30
0.0
 10
1130.521182761467
 20
-1934.466946704112
 30
0.0
 10
1130.521182761467
 20
-1934.466946704112
 30
0.0
  0
HATCH
  5
8D
330
70
100
AcDbEntity
  8
2023-012
 62
   250
420
  2301728
440
 33554687
100
AcDbHatch
 10
0.0
 20
0.0
 30
0.0
210
0.0
220
0.0
230
1.0
  2
SOLID
 70
     1
 71
     1
 91
        1
 92
        1
 93
        1
 72
     4
 94
        3
 73
     0
 74
     0
 95
       56
 96
       52
 40
0.0
 40
0.0
 40
0.0
 40
0.0
 40
1.0
 40
1.0
 40
1.0
 40
2.0
 40
2.0
 40
2.0
 40
3.0
 40
3.0
 40
3.0
 40
4.0
 40
4.0
 40
4.0
 40
5.0
 40
5.0
 40
5.0
 40
6.0
 40
6.0
 40
6.0
 40
7.0
 40
7.0
 40
7.0
 40
8.0
 40
8.0
 40
8.0
 40
9.0
 40
9.0
 40
9.0
 40
10.0
 40
10.0
 40
10.0
 40
11.0
 40
11.0
 40
11.0
 40
12.0
 40
12.0
 40
12.0
 40
13.0
 40
13.0
 40
13.0
 40
14.0
 40
14.0
 40
14.0
 40
15.0
 40
15.0
 40
15.0
 40
16.0
 40
16.0
 40
16.0
 40
17.0
 40
17.0
 40
17.0
 40
17.0
 10
1130.521182761467
 20
-1934.466946704112
 10
1136.434656415721
 20
-1927.080985419303
 10
1142.810638451786
 20
-1920.067485837551
 10
1149.607729219998
 20
-1913.485361893371
 10
1151.521747170104
 20
-1911.631877246986
 10
1153.46937263082
 20
-1909.813377056622
 10
1155.447706691609
 20
-1908.028723836764
 10
1154.820384466041
 20
-1907.768878462954
 10
1154.19306224047
 20
-1907.509033089144
 10
1153.565740014903
 20
-1907.249187715338
 10
1153.530544282182
 20
-1913.948677289095
 10
1153.011693920292
 20
-1920.630801114694
 10
1152.60798765162
 20
-1927.314667416895
 10
1152.204924615661
 20
-1933.987884190488
 10
1151.912657067632
 20
-1940.689270385399
 10
1152.367385797559
 20
-1947.367894354238
 10
1152.623973014878
 20
-1951.13640385649
 10
1153.119533440294
 20
-1954.894393903595
 10
1153.936055795746
 20
-1958.583668516246
 10
1154.064760396177
 20
-1959.165191620567
 10
1154.739119031233
 20
-1959.505637768307
 10
1155.292176177455
 20
-1959.353649475347
 10
1155.891518545642
 20
-1959.188941318042
 10
1156.191243878646
 20
-1958.580778820038
 10
1156.062157136556
 20
-1957.997529093638
 10
1154.64116897024
 20
-1951.577110189187
 10
1154.270675622625
 20
-1944.992551481121
 10
1154.353865641895
 20
-1938.431946786961
 10
1154.438394455551
 20
-1931.765760908788
 10
1154.976343570204
 20
-1925.117422591173
 10
1155.363989095212
 20
-1918.464913488514
 10
1155.58163327668
 20
-1914.729851931116
 10
1155.750943007677
 20
-1910.991100298684
 10
1155.770601125463
 20
-1907.249187715338
 10
1155.775821121445
 20
-1906.255564172128
 10
1154.580566444359
 20
-1905.845460417936
 10
1153.888634448756
 20
-1906.469651593912
 10
1146.863230763744
 20
-1912.807261381748
 10
1140.236844417676
 20
-1919.584674405905
 10
1134.065852645093
 20
-1926.757097920355
 10
1132.328140228789
 20
-1928.776807207837
 10
1130.627328187565
 20
-1930.828008387147
 10
1128.962110518614
 20
-1932.907874461262
 10
1128.590322326508
 20
-1933.372239968511
 10
1128.50848399718
 20
-1934.013320182681
 10
1128.962110518614
 20
-1934.466946704112
 10
1129.347344565594
 20
-1934.852180751092
 10
1130.147097462812
 20
-1934.934181310135
 10
1130.521182761467
 20
-1934.466946704112
 10
1130.521182761467
 20
-1934.466946704112
 10
1130.521182761467
 20
-1934.466946704112
 10
1130.521182761467
 20
-1934.466946704112
 97
        0
 97
        1
330
8C
 75
     2
 76
     1
 98
        1
 10
0.0
 20
0.0
450
        0
451
        0
460
0.0
461
0.0
452
        0
462
0.0
453
        0
470

  0
SPLINE
  5
8E
330
70
100
AcDbEntity
  8
2023-012
100
AcDbSpline
210
0.0
220
0.0
230
1.0
 70
     9
 71
     3
 72
   128
 73
   124
 74
     0
 42
0.0000000001
 43
0.0000000001
 40
0.0
 40
0.0
 40
0.0
 40
0.0
 40
1.0
 40
1.0
 40
1.0
 40
2.0
 40
2.0
 40
2.0
 40
3.0
 40
3.0
 40
3.0
 40
4.0
 40
4.0
 40
4.0
 40
5.0
 40
5.0
 40
5.0
 40
6.0
 40
6.0
 40
6.0
 40
7.0
 40
7.0
 40
7.0
 40
8.0
 40
8.0
 40
8.0
 40
9.0
 40
9.0
 40
9.0
 40
10.0
 40
10.0
 40
10.0
 40
11.0
 40
11.0
 40
11.0
 40
12.0
 40
12.0
 40
12.0
 40
13.0
 40
13.0
 40
13.0
 40
14.0
 40
14.0
 40
14.0
 40
15.0
 40
15.0
 40
15.0
 40
16.0
 40
16.0
 40
16.0
 40
17.0
 40
17.0
 40
17.0
 40
18.0
 40
18.0
 40
18.0
 40
19.0
 40
19.0
 40
19.0
 40
20.0
 40
20.0
 40
20.0
 40
21.0
 40
21.0
 40
21.0
 40
22.0
 40
22.0
 40
22.0
 40
23.0
 40
23.0
 40
23.0
 40
24.0
 40
24.0
 40
24.0
 40
25.0
 40
25.0
 40
25.0
 40
26.0
 40
26.0
 40
26.0
 40
27.0
 40
27.0
 40
27.0
 40
28.0
 40
28.0
 40
28.0
 40
29.0
 40
29.0
 40
29.0
 40
30.0
 40
30.0
 40
30.0
 40
31.0
 40
31.0
 40
31.0
 40
32.0
 40
32.0
 40
32.0
 40
33.0
 40
33.0
 40
33.0
 40
34.0
 40
34.0
 40
34.0
 40
35.0
 40
35.0
 40
35.0
 40
36.0
 40
36.0
 40
36.0
 40
37.0
 40
37.0
 40
37.0
 40
38.0
 40
38.0
 40
38.0
 40
39.0
 40
39.0
 40
39.0
 40
40.0
 40
40.0
 40
40.0
 40
41.0
 40
41.0
 40
41.0
 40
41.0
 10
1124.356712099971
 20
-1951.904955318264
 30
0.0
 10
1124.555753403504
 20
-1951.779004506863
 30
0.0
 10
1124.757576986347
 20
-1951.662442481293
 30
0.0
 10
1124.964175029696
 20
-1951.549693312078
 30
0.0
 10
1125.081033020586
 20
-1951.495086442564
 30
0.0
 10
1125.084538751614
 20
-1951.492372579113
 30
0.0
 10
1124.974692222774
 20
-1951.541551721718
 30
0.0
 10
1125.036512978975
 20
-1951.518600746799
 30
0.0
 10
1125.099268705785
 20
-1951.498580823285
 30
0.0
 10
1125.162959403205
 20
-1951.481491951176
 30
0.0
 10
1125.399664273616
 20
-1951.400729400426
 30
0.0
 10
1125.037208012894
 20
-1951.456374262883
 30
0.0
 10
1125.241009045931
 20
-1951.463995081128
 30
0.0
 10
1125.294311062084
 20
-1951.462777952339
 30
0.0
 10
1125.347479922028
 20
-1951.464901447655
 30
0.0
 10
1125.40051562576
 20
-1951.470365567073
 30
0.0
 10
1125.2405393115
 20
-1951.447545349028
 30
0.0
 10
1125.221600828082
 20
-1951.449896446709
 30
0.0
 10
1125.343700175507
 20
-1951.477418860121
 30
0.0
 10
1125.439331776356
 20
-1951.510647253419
 30
0.0
 10
1125.44510104882
 20
-1951.51107317117
 30
0.0
 10
1125.361007992897
 20
-1951.478696613369
 30
0.0
 10
1125.279010640977
 20
-1951.442725875544
 30
0.0
 10
1125.282273545419
 20
-1951.447684099978
 30
0.0
 10
1125.370796706225
 20
-1951.493571286668
 30
0.0
 10
1125.471209969389
 20
-1951.560661951685
 30
0.0
 10
1125.458044043339
 20
-1951.550405709292
 30
0.0
 10
1125.331298928063
 20
-1951.462802559496
 30
0.0
 10
1125.412319325882
 20
-1951.551000101283
 30
0.0
 10
1125.401778885941
 20
-1951.536191631475
 30
0.0
 10
1125.299677608242
 20
-1951.418377150073
 30
0.0
 10
1125.283969988545
 20
-1951.376804520069
 30
0.0
 10
1125.268262368852
 20
-1951.335231890062
 30
0.0
 10
1125.252554749154
 20
-1951.293659260059
 30
0.0
 10
1125.280378651537
 20
-1951.3986828992
 30
0.0
 10
1125.281936586808
 20
-1951.393444633223
 30
0.0
 10
1125.257228554975
 20
-1951.277944462124
 30
0.0
 10
1125.284315921393
 20
-1951.15437522635
 30
0.0
 10
1125.283692063717
 20
-1951.158205085333
 30
0.0
 10
1125.255356981936
 20
-1951.289434039077
 30
0.0
 10
1125.238317597709
 20
-1951.357165382437
 30
0.0
 10
1125.218423207311
 20
-1951.424047642674
 30
0.0
 10
1125.195673810745
 20
-1951.490080819787
 30
0.0
 10
1125.161701754802
 20
-1951.593024463562
 30
0.0
 10
1125.121392417275
 20
-1951.69400957646
 30
0.0
 10
1125.083223671073
 20
-1951.795416017738
 30
0.0
 10
1124.987457585765
 20
-1952.04984664153
 30
0.0
 10
1124.891161040106
 20
-1952.304079083831
 30
0.0
 10
1124.795130045728
 20
-1952.5584099141
 30
0.0
 10
1124.603067719546
 20
-1953.06707246826
 30
0.0
 10
1124.411005510149
 20
-1953.575735066517
 30
0.0
 10
1124.218943313046
 20
-1954.084397669416
 30
0.0
 10
1124.025568008258
 20
-1954.596537941438
 30
0.0
 10
1123.828281498961
 20
-1955.127074651281
 30
0.0
 10
1123.840910856696
 20
-1955.68467391371
 30
0.0
 10
1123.856289630837
 20
-1956.363662766429
 30
0.0
 10
1124.126784534354
 20
-1956.961972455612
 30
0.0
 10
1124.683927419765
 20
-1957.356025632392
 30
0.0
 10
1125.106087142182
 20
-1957.6546086065
 30
0.0
 10
1125.666438693027
 20
-1957.766558136982
 30
0.0
 10
1126.171426396717
 20
-1957.656474449197
 30
0.0
 10
1126.774855062629
 20
-1957.524931339581
 30
0.0
 10
1127.146554598317
 20
-1957.122262444258
 30
0.0
 10
1127.365211010753
 20
-1956.563334256821
 30
0.0
 10
1127.575804395132
 20
-1956.025016732504
 30
0.0
 10
1127.134232773156
 20
-1955.329981475374
 30
0.0
 10
1126.595230051652
 20
-1955.207213875112
 30
0.0
 10
1125.961932571347
 20
-1955.062968941257
 30
0.0
 10
1125.464605615989
 20
-1955.400783472683
 30
0.0
 10
1125.239109669943
 20
-1955.977194834214
 30
0.0
 10
1125.330629654527
 20
-1955.743252007984
 30
0.0
 10
1125.450561459944
 20
-1955.588456957596
 30
0.0
 10
1125.697649145535
 20
-1955.506882811745
 30
0.0
 10
1125.51528389326
 20
-1955.567089331758
 30
0.0
 10
1125.970636507617
 20
-1955.507806841248
 30
0.0
 10
1125.759439935207
 20
-1955.495485296065
 30
0.0
 10
1125.940219768773
 20
-1955.526574274188
 30
0.0
 10
1125.987145047275
 20
-1955.532886992507
 30
0.0
 10
1125.900215770704
 20
-1955.51442345102
 30
0.0
 10
1125.869445567166
 20
-1955.508357355919
 30
0.0
 10
1125.839208541137
 20
-1955.500216124123
 30
0.0
 10
1125.809504692612
 20
-1955.48999975562
 30
0.0
 10
1125.973384726391
 20
-1955.565757554474
 30
0.0
 10
1126.003663127423
 20
-1955.576911794478
 30
0.0
 10
1125.900339895713
 20
-1955.52346247564
 30
0.0
 10
1125.825925748469
 20
-1955.474415487678
 30
0.0
 10
1125.829143694983
 20
-1955.47877754837
 30
0.0
 10
1125.909993735252
 20
-1955.536548657706
 30
0.0
 10
1125.986701922784
 20
-1955.598965161815
 30
0.0
 10
1125.99326294684
 20
-1955.599658795238
 30
0.0
 10
1125.929676807419
 20
-1955.538629557975
 30
0.0
 10
1126.002926187205
 20
-1955.603678912408
 30
0.0
 10
1126.050643393743
 20
-1955.683356183283
 30
0.0
 10
1126.072828427039
 20
-1955.777661370597
 30
0.0
 10
1126.005223211884
 20
-1955.564315081874
 30
0.0
 10
1126.031576477617
 20
-1955.927450291856
 30
0.0
 10
1126.045771967256
 20
-1955.68467391371
 30
0.0
 10
1126.050304694523
 20
-1955.60715357892
 30
0.0
 10
1126.090902395479
 20
-1955.392912144251
 30
0.0
 10
1126.047898637988
 20
-1955.578074063655
 30
0.0
 10
1126.079260220237
 20
-1955.443040031656
 30
0.0
 10
1126.114698257426
 20
-1955.310659155372
 30
0.0
 10
1126.158269718515
 20
-1955.178967803517
 30
0.0
 10
1126.470457817227
 20
-1954.235403559296
 30
0.0
 10
1126.858981256247
 20
-1953.311617694701
 30
0.0
 10
1127.209325011881
 20
-1952.381555440345
 30
0.0
 10
1127.412455788426
 20
-1951.842301450735
 30
0.0
 10
1127.549875240477
 20
-1951.280220006859
 30
0.0
 10
1127.378656089965
 20
-1950.707519837451
 30
0.0
 10
1127.223881629431
 20
-1950.189824477431
 30
0.0
 10
1126.826646589466
 20
-1949.750148654445
 30
0.0
 10
1126.343422748565
 20
-1949.51703042448
 30
0.0
 10
1125.261007198712
 20
-1948.99484841335
 30
0.0
 10
1124.193414555414
 20
-1949.400266737401
 30
0.0
 10
1123.243876478629
 20
-1950.001122384474
 30
0.0
 10
1122.756968992907
 20
-1950.309231263464
 30
0.0
 10
1122.517883580878
 20
-1950.996834560786
 30
0.0
 10
1122.848377822403
 20
-1951.509456662039
 30
0.0
 10
1123.162612714018
 20
-1951.99685925545
 30
0.0
 10
1123.835411834348
 20
-1952.234827511997
 30
0.0
 10
1124.356712099971
 20
-1951.904955318264
 30
0.0
 10
1124.356712099971
 20
-1951.904955318264
 30
0.0
 10
1124.356712099971
 20
-1951.904955318264
 30
0.0
 10
1124.356712099971
 20
-1951.904955318264
 30
0.0
  0
HATCH
  5
8F
330
70
100
AcDbEntity
  8
2023-012
 62
   250
420
  2301728
440
 33554687
100
AcDbHatch
 10
0.0
 20
0.0
 30
0.0
210
0.0
220
0.0
230
1.0
  2
SOLID
 70
     1
 71
     1
 91
        1
 92
        1
 93
        1
 72
     4
 94
        3
 73
     0
 74
     0
 95
      128
 96
      124
 40
0.0
 40
0.0
 40
0.0
 40
0.0
 40
1.0
 40
1.0
 40
1.0
 40
2.0
 40
2.0
 40
2.0
 40
3.0
 40
3.0
 40
3.0
 40
4.0
 40
4.0
 40
4.0
 40
5.0
 40
5.0
 40
5.0
 40
6.0
 40
6.0
 40
6.0
 40
7.0
 40
7.0
 40
7.0
 40
8.0
 40
8.0
 40
8.0
 40
9.0
 40
9.0
 40
9.0
 40
10.0
 40
10.0
 40
10.0
 40
11.0
 40
11.0
 40
11.0
 40
12.0
 40
12.0
 40
12.0
 40
13.0
 40
13.0
 40
13.0
 40
14.0
 40
14.0
 40
14.0
 40
15.0
 40
15.0
 40
15.0
 40
16.0
 40
16.0
 40
16.0
 40
17.0
 40
17.0
 40
17.0
 40
18.0
 40
18.0
 40
18.0
 40
19.0
 40
19.0
 40
19.0
 40
20.0
 40
20.0
 40
20.0
 40
21.0
 40
21.0
 40
21.0
 40
22.0
 40
22.0
 40
22.0
 40
23.0
 40
23.0
 40
23.0
 40
24.0
 40
24.0
 40
24.0
 40
25.0
 40
25.0
 40
25.0
 40
26.0
 40
26.0
 40
26.0
 40
27.0
 40
27.0
 40
27.0
 40
28.0
 40
28.0
 40
28.0
 40
29.0
 40
29.0
 40
29.0
 40
30.0
 40
30.0
 40
30.0
 40
31.0
 40
31.0
 40
31.0
 40
32.0
 40
32.0
 40
32.0
 40
33.0
 40
33.0
 40
33.0
 40
34.0
 40
34.0
 40
34.0
 40
35.0
 40
35.0
 40
35.0
 40
36.0
 40
36.0
 40
36.0
 40
37.0
 40
37.0
 40
37.0
 40
38.0
 40
38.0
 40
38.0
 40
39.0
 40
39.0
 40
39.0
 40
40.0
 40
40.0
 40
40.0
 40
41.0
 40
41.0
 40
41.0
 40
41.0
 10
1124.356712099971
 20
-1951.904955318264
 10
1124.555753403504
 20
-1951.779004506863
 10
1124.757576986347
 20
-1951.662442481293
 10
1124.964175029696
 20
-1951.549693312078
 10
1125.081033020586
 20
-1951.495086442564
 10
1125.084538751614
 20
-1951.492372579113
 10
1124.974692222774
 20
-1951.541551721718
 10
1125.036512978975
 20
-1951.518600746799
 10
1125.099268705785
 20
-1951.498580823285
 10
1125.162959403205
 20
-1951.481491951176
 10
1125.399664273616
 20
-1951.400729400426
 10
1125.037208012894
 20
-1951.456374262883
 10
1125.241009045931
 20
-1951.463995081128
 10
1125.294311062084
 20
-1951.462777952339
 10
1125.347479922028
 20
-1951.464901447655
 10
1125.40051562576
 20
-1951.470365567073
 10
1125.2405393115
 20
-1951.447545349028
 10
1125.221600828082
 20
-1951.449896446709
 10
1125.343700175507
 20
-1951.477418860121
 10
1125.439331776356
 20
-1951.510647253419
 10
1125.44510104882
 20
-1951.51107317117
 10
1125.361007992897
 20
-1951.478696613369
 10
1125.279010640977
 20
-1951.442725875544
 10
1125.282273545419
 20
-1951.447684099978
 10
1125.370796706225
 20
-1951.493571286668
 10
1125.471209969389
 20
-1951.560661951685
 10
1125.458044043339
 20
-1951.550405709292
 10
1125.331298928063
 20
-1951.462802559496
 10
1125.412319325882
 20
-1951.551000101283
 10
1125.401778885941
 20
-1951.536191631475
 10
1125.299677608242
 20
-1951.418377150073
 10
1125.283969988545
 20
-1951.376804520069
 10
1125.268262368852
 20
-1951.335231890062
 10
1125.252554749154
 20
-1951.293659260059
 10
1125.280378651537
 20
-1951.3986828992
 10
1125.281936586808
 20
-1951.393444633223
 10
1125.257228554975
 20
-1951.277944462124
 10
1125.284315921393
 20
-1951.15437522635
 10
1125.283692063717
 20
-1951.158205085333
 10
1125.255356981936
 20
-1951.289434039077
 10
1125.238317597709
 20
-1951.357165382437
 10
1125.218423207311
 20
-1951.424047642674
 10
1125.195673810745
 20
-1951.490080819787
 10
1125.161701754802
 20
-1951.593024463562
 10
1125.121392417275
 20
-1951.69400957646
 10
1125.083223671073
 20
-1951.795416017738
 10
1124.987457585765
 20
-1952.04984664153
 10
1124.891161040106
 20
-1952.304079083831
 10
1124.795130045728
 20
-1952.5584099141
 10
1124.603067719546
 20
-1953.06707246826
 10
1124.411005510149
 20
-1953.575735066517
 10
1124.218943313046
 20
-1954.084397669416
 10
1124.025568008258
 20
-1954.596537941438
 10
1123.828281498961
 20
-1955.127074651281
 10
1123.840910856696
 20
-1955.68467391371
 10
1123.856289630837
 20
-1956.363662766429
 10
1124.126784534354
 20
-1956.961972455612
 10
1124.683927419765
 20
-1957.356025632392
 10
1125.106087142182
 20
-1957.6546086065
 10
1125.666438693027
 20
-1957.766558136982
 10
1126.171426396717
 20
-1957.656474449197
 10
1126.774855062629
 20
-1957.524931339581
 10
1127.146554598317
 20
-1957.122262444258
 10
1127.365211010753
 20
-1956.563334256821
 10
1127.575804395132
 20
-1956.025016732504
 10
1127.134232773156
 20
-1955.329981475374
 10
1126.595230051652
 20
-1955.207213875112
 10
1125.961932571347
 20
-1955.062968941257
 10
1125.464605615989
 20
-1955.400783472683
 10
1125.239109669943
 20
-1955.977194834214
 10
1125.330629654527
 20
-1955.743252007984
 10
1125.450561459944
 20
-1955.588456957596
 10
1125.697649145535
 20
-1955.506882811745
 10
1125.51528389326
 20
-1955.567089331758
 10
1125.970636507617
 20
-1955.507806841248
 10
1125.759439935207
 20
-1955.495485296065
 10
1125.940219768773
 20
-1955.526574274188
 10
1125.987145047275
 20
-1955.532886992507
 10
1125.900215770704
 20
-1955.51442345102
 10
1125.869445567166
 20
-1955.508357355919
 10
1125.839208541137
 20
-1955.500216124123
 10
1125.809504692612
 20
-1955.48999975562
 10
1125.973384726391
 20
-1955.565757554474
 10
1126.003663127423
 20
-1955.576911794478
 10
1125.900339895713
 20
-1955.52346247564
 10
1125.825925748469
 20
-1955.474415487678
 10
1125.829143694983
 20
-1955.47877754837
 10
1125.909993735252
 20
-1955.536548657706
 10
1125.986701922784
 20
-1955.598965161815
 10
1125.99326294684
 20
-1955.599658795238
 10
1125.929676807419
 20
-1955.538629557975
 10
1126.002926187205
 20
-1955.603678912408
 10
1126.050643393743
 20
-1955.683356183283
 10
1126.072828427039
 20
-1955.777661370597
 10
1126.005223211884
 20
-1955.564315081874
 10
1126.031576477617
 20
-1955.927450291856
 10
1126.045771967256
 20
-1955.68467391371
 10
1126.050304694523
 20
-1955.60715357892
 10
1126.090902395479
 20
-1955.392912144251
 10
1126.047898637988
 20
-1955.578074063655
 10
1126.079260220237
 20
-1955.443040031656
 10
1126.114698257426
 20
-1955.310659155372
 10
1126.158269718515
 20
-1955.178967803517
 10
1126.470457817227
 20
-1954.235403559296
 10
1126.858981256247
 20
-1953.311617694701
 10
1127.209325011881
 20
-1952.381555440345
 10
1127.412455788426
 20
-1951.842301450735
 10
1127.549875240477
 20
-1951.280220006859
 10
1127.378656089965
 20
-1950.707519837451
 10
1127.223881629431
 20
-1950.189824477431
 10
1126.826646589466
 20
-1949.750148654445
 10
1126.343422748565
 20
-1949.51703042448
 10
1125.261007198712
 20
-1948.99484841335
 10
1124.193414555414
 20
-1949.400266737401
 10
1123.243876478629
 20
-1950.001122384474
 10
1122.756968992907
 20
-1950.309231263464
 10
1122.517883580878
 20
-1950.996834560786
 10
1122.848377822403
 20
-1951.509456662039
 10
1123.162612714018
 20
-1951.99685925545
 10
1123.835411834348
 20
-1952.234827511997
 10
1124.356712099971
 20
-1951.904955318264
 10
1124.356712099971
 20
-1951.904955318264
 10
1124.356712099971
 20
-1951.904955318264
 10
1124.356712099971
 20
-1951.904955318264
 97
        0
 97
        1
330
8E
 75
     2
 76
     1
 98
        1
 10
0.0
 20
0.0
450
        0
451
        0
460
0.0
461
0.0
452
        0
462
0.0
453
        0
470

  0
SPLINE
  5
90
330
70
100
AcDbEntity
  8
2023-012
100
AcDbSpline
210
0.0
220
0.0
230
1.0
 70
     9
 71
     3
 72
    77
 73
    73
 74
     0
 42
0.0000000001
 43
0.0000000001
 40
0.0
 40
0.0
 40
0.0
 40
0.0
 40
1.0
 40
1.0
 40
1.0
 40
2.0
 40
2.0
 40
2.0
 40
3.0
 40
3.0
 40
3.0
 40
4.0
 40
4.0
 40
4.0
 40
5.0
 40
5.0
 40
5.0
 40
6.0
 40
6.0
 40
6.0
 40
7.0
 40
7.0
 40
7.0
 40
8.0
 40
8.0
 40
8.0
 40
9.0
 40
9.0
 40
9.0
 40
10.0
 40
10.0
 40
10.0
 40
11.0
 40
11.0
 40
11.0
 40
12.0
 40
12.0
 40
12.0
 40
13.0
 40
13.0
 40
13.0
 40
14.0
 40
14.0
 40
14.0
 40
15.0
 40
15.0
 40
15.0
 40
16.0
 40
16.0
 40
16.0
 40
17.0
 40
17.0
 40
17.0
 40
18.0
 40
18.0
 40
18.0
 40
19.0
 40
19.0
 40
19.0
 40
20.0
 40
20.0
 40
20.0
 40
21.0
 40
21.0
 40
21.0
 40
22.0
 40
22.0
 40
22.0
 40
23.0
 40
23.0
 40
23.0
 40
24.0
 40
24.0
 40
24.0
 40
24.0
 10
1135.652125924282
 20
-1953.374420549377
 30
0.0
 10
1136.293022928096
 20
-1953.384442441263
 30
0.0
 10
1136.933919931911
 20
-1953.394464333149
 30
0.0
 10
1137.574816935727
 20
-1953.404486225035
 30
0.0
 10
1137.220466712261
 20
-1952.939319469509
 30
0.0
 10
1136.866116488792
 20
-1952.474152713979
 30
0.0
 10
1136.511766265323
 20
-1952.00898595845
 30
0.0
 10
1136.329785741627
 20
-1952.816872707582
 30
0.0
 10
1135.970798671229
 20
-1953.516903792787
 30
0.0
 10
1135.391305791048
 20
-1954.112051572407
 30
0.0
 10
1134.848051618158
 20
-1954.669981662357
 30
0.0
 10
1135.038101968339
 20
-1955.789387849872
 30
0.0
 10
1135.877772201169
 20
-1955.954638364237
 30
0.0
 10
1136.9907859888
 20
-1956.173684001098
 30
0.0
 10
1138.103799776432
 20
-1956.392729637959
 30
0.0
 10
1139.216813564064
 20
-1956.611775274819
 30
0.0
 10
1139.722094833605
 20
-1956.711216682204
 30
0.0
 10
1140.230267417204
 20
-1956.801412720211
 30
0.0
 10
1140.733224996738
 20
-1956.912032067338
 30
0.0
 10
1140.834469564423
 20
-1956.934299567487
 30
0.0
 10
1140.935529723456
 20
-1956.957887027044
 30
0.0
 10
1141.034960694431
 20
-1956.987389580074
 30
0.0
 10
1141.174856932771
 20
-1957.028898741154
 30
0.0
 10
1141.093493391112
 20
-1956.995785184559
 30
0.0
 10
1141.168216412769
 20
-1957.03451343397
 30
0.0
 10
1141.200366746197
 20
-1957.051176653737
 30
0.0
 10
1141.266001181022
 20
-1957.163593016122
 30
0.0
 10
1141.232319781364
 20
-1957.061181222717
 30
0.0
 10
1141.32235032896
 20
-1957.334928452165
 30
0.0
 10
1141.179565762761
 20
-1957.894516169702
 30
0.0
 10
1141.120073982287
 20
-1958.210981096325
 30
0.0
 10
1141.022985820249
 20
-1958.727438963773
 30
0.0
 10
1140.896993326541
 20
-1959.238343726092
 30
0.0
 10
1140.743128229268
 20
-1959.740813995341
 30
0.0
 10
1140.446113421996
 20
-1960.710761779651
 30
0.0
 10
1140.032625377989
 20
-1961.623886000119
 30
0.0
 10
1139.52195982537
 20
-1962.499666634038
 30
0.0
 10
1138.805771418009
 20
-1963.727914621766
 30
0.0
 10
1140.710604331327
 20
-1964.83903529934
 30
0.0
 10
1141.425792759164
 20
-1963.612502255377
 30
0.0
 10
1142.054748019082
 20
-1962.533857272546
 30
0.0
 10
1142.561700259228
 20
-1961.374249241755
 30
0.0
 10
1142.914612602273
 20
-1960.175983144464
 30
0.0
 10
1143.092765985986
 20
-1959.571087441517
 30
0.0
 10
1143.230048359691
 20
-1958.954234700992
 30
0.0
 10
1143.325438680327
 20
-1958.330912820088
 30
0.0
 10
1143.422064157377
 20
-1957.699519889461
 30
0.0
 10
1143.523948991364
 20
-1957.054243394996
 30
0.0
 10
1143.336255203674
 20
-1956.427796423696
 30
0.0
 10
1142.931731981013
 20
-1955.077659315939
 30
0.0
 10
1141.586305668204
 20
-1954.836644989552
 30
0.0
 10
1140.387285225183
 20
-1954.600672893363
 30
0.0
 10
1139.079494024715
 20
-1954.343294270052
 30
0.0
 10
1137.771702824247
 20
-1954.085915646738
 30
0.0
 10
1136.463911623776
 20
-1953.82853702343
 30
0.0
 10
1136.626067093818
 20
-1954.442732620705
 30
0.0
 10
1136.788222563859
 20
-1955.056928217981
 30
0.0
 10
1136.950378033901
 20
-1955.67112381526
 30
0.0
 10
1137.781420736236
 20
-1954.817630638753
 30
0.0
 10
1138.375579301317
 20
-1953.75953155821
 30
0.0
 10
1138.637867606134
 20
-1952.59512538106
 30
0.0
 10
1138.796095580659
 20
-1951.892686013571
 30
0.0
 10
1138.316027583176
 20
-1951.211215639833
 30
0.0
 10
1137.574816935727
 20
-1951.199625114475
 30
0.0
 10
1136.933919931911
 20
-1951.189603222589
 30
0.0
 10
1136.293022928096
 20
-1951.179581330703
 30
0.0
 10
1135.652125924282
 20
-1951.169559438817
 30
0.0
 10
1134.232794211532
 20
-1951.147364938155
 30
0.0
 10
1134.232359673129
 20
-1953.35221925371
 30
0.0
 10
1135.652125924282
 20
-1953.374420549377
 30
0.0
 10
1135.652125924282
 20
-1953.374420549377
 30
0.0
 10
1135.652125924282
 20
-1953.374420549377
 30
0.0
 10
1135.652125924282
 20
-1953.374420549377
 30
0.0
  0
HATCH
  5
91
330
70
100
AcDbEntity
  8
2023-012
 62
   250
420
  2301728
440
 33554687
100
AcDbHatch
 10
0.0
 20
0.0
 30
0.0
210
0.0
220
0.0
230
1.0
  2
SOLID
 70
     1
 71
     1
 91
        1
 92
        1
 93
        1
 72
     4
 94
        3
 73
     0
 74
     0
 95
       77
 96
       73
 40
0.0
 40
0.0
 40
0.0
 40
0.0
 40
1.0
 40
1.0
 40
1.0
 40
2.0
 40
2.0
 40
2.0
 40
3.0
 40
3.0
 40
3.0
 40
4.0
 40
4.0
 40
4.0
 40
5.0
 40
5.0
 40
5.0
 40
6.0
 40
6.0
 40
6.0
 40
7.0
 40
7.0
 40
7.0
 40
8.0
 40
8.0
 40
8.0
 40
9.0
 40
9.0
 40
9.0
 40
10.0
 40
10.0
 40
10.0
 40
11.0
 40
11.0
 40
11.0
 40
12.0
 40
12.0
 40
12.0
 40
13.0
 40
13.0
 40
13.0
 40
14.0
 40
14.0
 40
14.0
 40
15.0
 40
15.0
 40
15.0
 40
16.0
 40
16.0
 40
16.0
 40
17.0
 40
17.0
 40
17.0
 40
18.0
 40
18.0
 40
18.0
 40
19.0
 40
19.0
 40
19.0
 40
20.0
 40
20.0
 40
20.0
 40
21.0
 40
21.0
 40
21.0
 40
22.0
 40
22.0
 40
22.0
 40
23.0
 40
23.0
 40
23.0
 40
24.0
 40
24.0
 40
24.0
 40
24.0
 10
1135.652125924282
 20
-1953.374420549377
 10
1136.293022928096
 20
-1953.384442441263
 10
1136.933919931911
 20
-1953.394464333149
 10
1137.574816935727
 20
-1953.404486225035
 10
1137.220466712261
 20
-1952.939319469509
 10
1136.866116488792
 20
-1952.474152713979
 10
1136.511766265323
 20
-1952.00898595845
 10
1136.329785741627
 20
-1952.816872707582
 10
1135.970798671229
 20
-1953.516903792787
 10
1135.391305791048
 20
-1954.112051572407
 10
1134.848051618158
 20
-1954.669981662357
 10
1135.038101968339
 20
-1955.789387849872
 10
1135.877772201169
 20
-1955.954638364237
 10
1136.9907859888
 20
-1956.173684001098
 10
1138.103799776432
 20
-1956.392729637959
 10
1139.216813564064
 20
-1956.611775274819
 10
1139.722094833605
 20
-1956.711216682204
 10
1140.230267417204
 20
-1956.801412720211
 10
1140.733224996738
 20
-1956.912032067338
 10
1140.834469564423
 20
-1956.934299567487
 10
1140.935529723456
 20
-1956.957887027044
 10
1141.034960694431
 20
-1956.987389580074
 10
1141.174856932771
 20
-1957.028898741154
 10
1141.093493391112
 20
-1956.995785184559
 10
1141.168216412769
 20
-1957.03451343397
 10
1141.200366746197
 20
-1957.051176653737
 10
1141.266001181022
 20
-1957.163593016122
 10
1141.232319781364
 20
-1957.061181222717
 10
1141.32235032896
 20
-1957.334928452165
 10
1141.179565762761
 20
-1957.894516169702
 10
1141.120073982287
 20
-1958.210981096325
 10
1141.022985820249
 20
-1958.727438963773
 10
1140.896993326541
 20
-1959.238343726092
 10
1140.743128229268
 20
-1959.740813995341
 10
1140.446113421996
 20
-1960.710761779651
 10
1140.032625377989
 20
-1961.623886000119
 10
1139.52195982537
 20
-1962.499666634038
 10
1138.805771418009
 20
-1963.727914621766
 10
1140.710604331327
 20
-1964.83903529934
 10
1141.425792759164
 20
-1963.612502255377
 10
1142.054748019082
 20
-1962.533857272546
 10
1142.561700259228
 20
-1961.374249241755
 10
1142.914612602273
 20
-1960.175983144464
 10
1143.092765985986
 20
-1959.571087441517
 10
1143.230048359691
 20
-1958.954234700992
 10
1143.325438680327
 20
-1958.330912820088
 10
1143.422064157377
 20
-1957.699519889461
 10
1143.523948991364
 20
-1957.054243394996
 10
1143.336255203674
 20
-1956.427796423696
 10
1142.931731981013
 20
-1955.077659315939
 10
1141.586305668204
 20
-1954.836644989552
 10
1140.387285225183
 20
-1954.600672893363
 10
1139.079494024715
 20
-1954.343294270052
 10
1137.771702824247
 20
-1954.085915646738
 10
1136.463911623776
 20
-1953.82853702343
 10
1136.626067093818
 20
-1954.442732620705
 10
1136.788222563859
 20
-1955.056928217981
 10
1136.950378033901
 20
-1955.67112381526
 10
1137.781420736236
 20
-1954.817630638753
 10
1138.375579301317
 20
-1953.75953155821
 10
1138.637867606134
 20
-1952.59512538106
 10
1138.796095580659
 20
-1951.892686013571
 10
1138.316027583176
 20
-1951.211215639833
 10
1137.574816935727
 20
-1951.199625114475
 10
1136.933919931911
 20
-1951.189603222589
 10
1136.293022928096
 20
-1951.179581330703
 10
1135.652125924282
 20
-1951.169559438817
 10
1134.232794211532
 20
-1951.147364938155
 10
1134.232359673129
 20
-1953.35221925371
 10
1135.652125924282
 20
-1953.374420549377
 10
1135.652125924282
 20
-1953.374420549377
 10
1135.652125924282
 20
-1953.374420549377
 10
1135.652125924282
 20
-1953.374420549377
 97
        0
 97
        1
330
90
 75
     2
 76
     1
 98
        1
 10
0.0
 20
0.0
450
        0
451
        0
460
0.0
461
0.0
452
        0
462
0.0
453
        0
470

  0
SPLINE
  5
92
330
70
100
AcDbEntity
  8
2023-012
100
AcDbSpline
210
0.0
220
0.0
230
1.0
 70
     9
 71
     3
 72
   125
 73
   121
 74
     0
 42
0.0000000001
 43
0.0000000001
 40
0.0
 40
0.0
 40
0.0
 40
0.0
 40
1.0
 40
1.0
 40
1.0
 40
2.0
 40
2.0
 40
2.0
 40
3.0
 40
3.0
 40
3.0
 40
4.0
 40
4.0
 40
4.0
 40
5.0
 40
5.0
 40
5.0
 40
6.0
 40
6.0
 40
6.0
 40
7.0
 40
7.0
 40
7.0
 40
8.0
 40
8.0
 40
8.0
 40
9.0
 40
9.0
 40
9.0
 40
10.0
 40
10.0
 40
10.0
 40
11.0
 40
11.0
 40
11.0
 40
12.0
 40
12.0
 40
12.0
 40
13.0
 40
13.0
 40
13.0
 40
14.0
 40
14.0
 40
14.0
 40
15.0
 40
15.0
 40
15.0
 40
16.0
 40
16.0
 40
16.0
 40
17.0
 40
17.0
 40
17.0
 40
18.0
 40
18.0
 40
18.0
 40
19.0
 40
19.0
 40
19.0
 40
20.0
 40
20.0
 40
20.0
 40
21.0
 40
21.0
 40
21.0
 40
22.0
 40
22.0
 40
22.0
 40
23.0
 40
23.0
 40
23.0
 40
24.0
 40
24.0
 40
24.0
 40
25.0
 40
25.0
 40
25.0
 40
26.0
 40
26.0
 40
26.0
 40
27.0
 40
27.0
 40
27.0
 40
28.0
 40
28.0
 40
28.0
 40
29.0
 40
29.0
 40
29.0
 40
30.0
 40
30.0
 40
30.0
 40
31.0
 40
31.0
 40
31.0
 40
32.0
 40
32.0
 40
32.0
 40
33.0
 40
33.0
 40
33.0
 40
34.0
 40
34.0
 40
34.0
 40
35.0
 40
35.0
 40
35.0
 40
36.0
 40
36.0
 40
36.0
 40
37.0
 40
37.0
 40
37.0
 40
38.0
 40
38.0
 40
38.0
 40
39.0
 40
39.0
 40
39.0
 40
40.0
 40
40.0
 40
40.0
 40
40.0
 10
474.1795836216915
 20
-1949.963490994714
 30
0.0
 10
470.2399446795339
 20
-1920.021304858536
 30
0.0
 10
465.7741535293898
 20
-1890.146814848644
 30
0.0
 10
462.015080654352
 20
-1860.182924610909
 30
0.0
 10
459.187346280059
 20
-1837.642181615242
 30
0.0
 10
457.4156628630766
 20
-1814.969835972039
 30
0.0
 10
454.6257814754287
 20
-1792.423925333144
 30
0.0
 10
451.2361520274914
 20
-1765.0314543656
 30
0.0
 10
447.199748965891
 20
-1737.71959863241
 30
0.0
 10
443.57275243902
 20
-1710.355894212168
 30
0.0
 10
439.2070843764188
 20
-1677.418542061114
 30
0.0
 10
434.3186230739309
 20
-1644.532177323242
 30
0.0
 10
430.8689628371612
 20
-1611.496812205633
 30
0.0
 10
427.1941656104343
 20
-1576.305850842903
 30
0.0
 10
425.0452011741207
 20
-1540.957793126045
 30
0.0
 10
422.0270822105748
 20
-1505.695173777222
 30
0.0
 10
419.4507967430125
 20
-1475.594513248723
 30
0.0
 10
416.5001585872812
 20
-1445.526236617785
 30
0.0
 10
413.8746513179723
 20
-1415.429624076483
 30
0.0
 10
411.3101222387523
 20
-1386.031935281749
 30
0.0
 10
408.7383584590133
 20
-1356.632093302335
 30
0.0
 10
406.5475361125577
 20
-1327.205121195976
 30
0.0
 10
403.573040670593
 20
-1287.252348853534
 30
0.0
 10
400.931685962052
 20
-1247.274427314049
 30
0.0
 10
398.197442866487
 20
-1207.303998857247
 30
0.0
 10
396.2758977958963
 20
-1179.214671200422
 30
0.0
 10
394.5291482574895
 20
-1151.113199582013
 30
0.0
 10
392.5402085064657
 20
-1123.028695058871
 30
0.0
 10
389.7735815133432
 20
-1083.96329318604
 30
0.0
 10
386.3720234222892
 20
-1044.936218000485
 30
0.0
 10
384.1410657134265
 20
-1005.841360561258
 30
0.0
 10
382.1088900140667
 20
-970.2279443646478
 30
0.0
 10
381.1539956729407
 20
-934.5497603729183
 30
0.0
 10
379.9484706352666
 20
-898.892591463645
 30
0.0
 10
378.7342897951829
 20
-862.9781600490124
 30
0.0
 10
377.7944677468067
 20
-827.0543407491846
 30
0.0
 10
376.7376416430137
 20
-791.1345694365499
 30
0.0
 10
375.8825689435747
 20
-762.068901719205
 30
0.0
 10
375.4126579193866
 20
-732.9859223970487
 30
0.0
 10
374.0917221829528
 20
-703.9415281443271
 30
0.0
 10
372.0671687573531
 20
-659.4252961947375
 30
0.0
 10
369.624294612455
 20
-614.9258590856368
 30
0.0
 10
367.0351331005156
 20
-570.4381783648784
 30
0.0
 10
365.4695955846329
 20
-543.5398632810006
 30
0.0
 10
362.7431470176061
 20
-516.7020096228851
 30
0.0
 10
361.5293537507635
 20
-489.7921534691318
 30
0.0
 10
360.0170644919724
 20
-456.2667665824384
 30
0.0
 10
359.1337635414025
 20
-422.6998662951516
 30
0.0
 10
358.7012318032293
 20
-389.1417079376557
 30
0.0
 10
358.2475342596664
 20
-353.9405620113959
 30
0.0
 10
358.9036311629877
 20
-318.7259802127447
 30
0.0
 10
358.5803520153897
 20
-283.5218844234772
 30
0.0
 10
358.3887185790246
 20
-262.6494935120829
 30
0.0
 10
356.7055310523167
 20
-241.7864258903455
 30
0.0
 10
356.6825996354917
 20
-220.9181690935335
 30
0.0
 10
356.661756807806
 20
-201.9202976993572
 30
0.0
 10
357.74228947491
 20
-182.9082798818445
 30
0.0
 10
358.7510349648357
 20
-163.9246841020852
 30
0.0
 10
361.07989798102
 20
-120.0965669119789
 30
0.0
 10
363.4424152737228
 20
-76.26773917092904
 30
0.0
 10
366.2042191331659
 20
-32.46543866511498
 30
0.0
 10
366.2563262023822
 20
-31.6388956626632
 30
0.0
 10
366.312567386177
 20
-30.81258951052602
 30
0.0
 10
366.3660094298948
 20
-29.98611110361459
 30
0.0
 10
366.3660094298948
 20
-29.98611110361459
 30
0.0
 10
316.4735121889481
 20
-29.98611110361459
 30
0.0
 10
316.4735121889481
 20
-29.98611110361459
 30
0.0
 10
315.6830565617042
 20
-52.54567293336998
 30
0.0
 10
314.983852901126
 20
-75.10760326627117
 30
0.0
 10
314.5578883762216
 20
-97.67396915960929
 30
0.0
 10
313.8483709610345
 20
-135.2600470310721
 30
0.0
 10
313.7277495553572
 20
-172.870412825706
 30
0.0
 10
314.1312348322202
 20
-210.4616583403967
 30
0.0
 10
314.9735176146702
 20
-288.9338710486433
 30
0.0
 10
316.3890427540191
 20
-367.3998825850183
 30
0.0
 10
317.4506058641052
 20
-445.8698559811994
 30
0.0
 10
317.8668810579574
 20
-476.6409320911281
 30
0.0
 10
317.489987611871
 20
-507.4287599778529
 30
0.0
 10
318.3011568757199
 20
-538.1871322981789
 30
0.0
 10
320.4253812200781
 20
-618.7351011636775
 30
0.0
 10
323.2223465853186
 20
-699.2654139148124
 30
0.0
 10
325.3339102037685
 20
-779.8137272898555
 30
0.0
 10
326.9904197723106
 20
-843.0038409350824
 30
0.0
 10
327.4138220074478
 20
-906.2310754841647
 30
0.0
 10
329.5679110232938
 20
-969.4014659577364
 30
0.0
 10
330.8157461398981
 20
-1005.994322800804
 30
0.0
 10
334.409346772409
 20
-1042.506650536901
 30
0.0
 10
336.9365826930011
 20
-1079.05609917685
 30
0.0
 10
339.0592782762378
 20
-1109.755000536363
 30
0.0
 10
341.1437117677414
 20
-1140.456657972264
 30
0.0
 10
343.286345841099
 20
-1171.154439675746
 30
0.0
 10
345.9023790978235
 20
-1208.634236351487
 30
0.0
 10
348.5456070770346
 20
-1246.112396606875
 30
0.0
 10
351.2072663170919
 20
-1283.589006569294
 30
0.0
 10
353.2701464299663
 20
-1312.635209497147
 30
0.0
 10
355.2411286207706
 20
-1341.689250017227
 30
0.0
 10
357.5022309151288
 20
-1370.720466779715
 30
0.0
 10
360.4934996657379
 20
-1409.12647737667
 30
0.0
 10
363.7702591728368
 20
-1447.509405833869
 30
0.0
 10
366.8431551546019
 20
-1485.908784622012
 30
0.0
 10
368.885321630869
 20
-1511.429018448098
 30
0.0
 10
370.3158114037337
 20
-1537.007646642658
 30
0.0
 10
372.8605311839136
 20
-1562.475859526916
 30
0.0
 10
376.5733967157525
 20
-1599.634314921272
 30
0.0
 10
380.8518607988843
 20
-1636.739371335607
 30
0.0
 10
385.2432809502396
 20
-1673.825651979547
 30
0.0
 10
389.3014311770897
 20
-1708.097289612038
 30
0.0
 10
393.7749737920718
 20
-1742.320179143413
 30
0.0
 10
398.1559725295862
 20
-1776.552887196921
 30
0.0
 10
406.0847736614996
 20
-1838.50810636546
 30
0.0
 10
414.3763433480136
 20
-1900.418711547465
 30
0.0
 10
421.9642522816617
 20
-1962.415616371375
 30
0.0
 10
422.2700045059776
 20
-1964.913482852956
 30
0.0
 10
422.5684359023893
 20
-1967.412382863182
 30
0.0
 10
422.8682884006838
 20
-1969.911110618633
 30
0.0
 10
422.8682884006838
 20
-1969.911110618633
 30
0.0
 10
476.7514335288156
 20
-1969.911110618633
 30
0.0
 10
476.7514335288156
 20
-1969.911110618633
 30
0.0
 10
475.908418663575
 20
-1963.26000927481
 30
0.0
 10
475.054121110622
 20
-1956.610458223955
 30
0.0
 10
474.1795836216915
 20
-1949.963490994714
 30
0.0
  0
HATCH
  5
93
330
70
100
AcDbEntity
  8
2023-012
 62
    18
420
        0
440
 33554687
100
AcDbHatch
 10
0.0
 20
0.0
 30
0.0
210
0.0
220
0.0
230
1.0
  2
SOLID
 70
     1
 71
     1
 91
        1
 92
        1
 93
        1
 72
     4
 94
        3
 73
     0
 74
     0
 95
      125
 96
      121
 40
0.0
 40
0.0
 40
0.0
 40
0.0
 40
1.0
 40
1.0
 40
1.0
 40
2.0
 40
2.0
 40
2.0
 40
3.0
 40
3.0
 40
3.0
 40
4.0
 40
4.0
 40
4.0
 40
5.0
 40
5.0
 40
5.0
 40
6.0
 40
6.0
 40
6.0
 40
7.0
 40
7.0
 40
7.0
 40
8.0
 40
8.0
 40
8.0
 40
9.0
 40
9.0
 40
9.0
 40
10.0
 40
10.0
 40
10.0
 40
11.0
 40
11.0
 40
11.0
 40
12.0
 40
12.0
 40
12.0
 40
13.0
 40
13.0
 40
13.0
 40
14.0
 40
14.0
 40
14.0
 40
15.0
 40
15.0
 40
15.0
 40
16.0
 40
16.0
 40
16.0
 40
17.0
 40
17.0
 40
17.0
 40
18.0
 40
18.0
 40
18.0
 40
19.0
 40
19.0
 40
19.0
 40
20.0
 40
20.0
 40
20.0
 40
21.0
 40
21.0
 40
21.0
 40
22.0
 40
22.0
 40
22.0
 40
23.0
 40
23.0
 40
23.0
 40
24.0
 40
24.0
 40
24.0
 40
25.0
 40
25.0
 40
25.0
 40
26.0
 40
26.0
 40
26.0
 40
27.0
 40
27.0
 40
27.0
 40
28.0
 40
28.0
 40
28.0
 40
29.0
 40
29.0
 40
29.0
 40
30.0
 40
30.0
 40
30.0
 40
31.0
 40
31.0
 40
31.0
 40
32.0
 40
32.0
 40
32.0
 40
33.0
 40
33.0
 40
33.0
 40
34.0
 40
34.0
 40
34.0
 40
35.0
 40
35.0
 40
35.0
 40
36.0
 40
36.0
 40
36.0
 40
37.0
 40
37.0
 40
37.0
 40
38.0
 40
38.0
 40
38.0
 40
39.0
 40
39.0
 40
39.0
 40
40.0
 40
40.0
 40
40.0
 40
40.0
 10
474.1795836216915
 20
-1949.963490994714
 10
470.2399446795339
 20
-1920.021304858536
 10
465.7741535293898
 20
-1890.146814848644
 10
462.015080654352
 20
-1860.182924610909
 10
459.187346280059
 20
-1837.642181615242
 10
457.4156628630766
 20
-1814.969835972039
 10
454.6257814754287
 20
-1792.423925333144
 10
451.2361520274914
 20
-1765.0314543656
 10
447.199748965891
 20
-1737.71959863241
 10
443.57275243902
 20
-1710.355894212168
 10
439.2070843764188
 20
-1677.418542061114
 10
434.3186230739309
 20
-1644.532177323242
 10
430.8689628371612
 20
-1611.496812205633
 10
427.1941656104343
 20
-1576.305850842903
 10
425.0452011741207
 20
-1540.957793126045
 10
422.0270822105748
 20
-1505.695173777222
 10
419.4507967430125
 20
-1475.594513248723
 10
416.5001585872812
 20
-1445.526236617785
 10
413.8746513179723
 20
-1415.429624076483
 10
411.3101222387523
 20
-1386.031935281749
 10
408.7383584590133
 20
-1356.632093302335
 10
406.5475361125577
 20
-1327.205121195976
 10
403.573040670593
 20
-1287.252348853534
 10
400.931685962052
 20
-1247.274427314049
 10
398.197442866487
 20
-1207.303998857247
 10
396.2758977958963
 20
-1179.214671200422
 10
394.5291482574895
 20
-1151.113199582013
 10
392.5402085064657
 20
-1123.028695058871
 10
389.7735815133432
 20
-1083.96329318604
 10
386.3720234222892
 20
-1044.936218000485
 10
384.1410657134265
 20
-1005.841360561258
 10
382.1088900140667
 20
-970.2279443646478
 10
381.1539956729407
 20
-934.5497603729183
 10
379.9484706352666
 20
-898.892591463645
 10
378.7342897951829
 20
-862.9781600490124
 10
377.7944677468067
 20
-827.0543407491846
 10
376.7376416430137
 20
-791.1345694365499
 10
375.8825689435747
 20
-762.068901719205
 10
375.4126579193866
 20
-732.9859223970487
 10
374.0917221829528
 20
-703.9415281443271
 10
372.0671687573531
 20
-659.4252961947375
 10
369.624294612455
 20
-614.9258590856368
 10
367.0351331005156
 20
-570.4381783648784
 10
365.4695955846329
 20
-543.5398632810006
 10
362.7431470176061
 20
-516.7020096228851
 10
361.5293537507635
 20
-489.7921534691318
 10
360.0170644919724
 20
-456.2667665824384
 10
359.1337635414025
 20
-422.6998662951516
 10
358.7012318032293
 20
-389.1417079376557
 10
358.2475342596664
 20
-353.9405620113959
 10
358.9036311629877
 20
-318.7259802127447
 10
358.5803520153897
 20
-283.5218844234772
 10
358.3887185790246
 20
-262.6494935120829
 10
356.7055310523167
 20
-241.7864258903455
 10
356.6825996354917
 20
-220.9181690935335
 10
356.661756807806
 20
-201.9202976993572
 10
357.74228947491
 20
-182.9082798818445
 10
358.7510349648357
 20
-163.9246841020852
 10
361.07989798102
 20
-120.0965669119789
 10
363.4424152737228
 20
-76.26773917092904
 10
366.2042191331659
 20
-32.46543866511498
 10
366.2563262023822
 20
-31.6388956626632
 10
366.312567386177
 20
-30.81258951052602
 10
366.3660094298948
 20
-29.98611110361459
 10
366.3660094298948
 20
-29.98611110361459
 10
316.4735121889481
 20
-29.98611110361459
 10
316.4735121889481
 20
-29.98611110361459
 10
315.6830565617042
 20
-52.54567293336998
 10
314.983852901126
 20
-75.10760326627117
 10
314.5578883762216
 20
-97.67396915960929
 10
313.8483709610345
 20
-135.2600470310721
 10
313.7277495553572
 20
-172.870412825706
 10
314.1312348322202
 20
-210.4616583403967
 10
314.9735176146702
 20
-288.9338710486433
 10
316.3890427540191
 20
-367.3998825850183
 10
317.4506058641052
 20
-445.8698559811994
 10
317.8668810579574
 20
-476.6409320911281
 10
317.489987611871
 20
-507.4287599778529
 10
318.3011568757199
 20
-538.1871322981789
 10
320.4253812200781
 20
-618.7351011636775
 10
323.2223465853186
 20
-699.2654139148124
 10
325.3339102037685
 20
-779.8137272898555
 10
326.9904197723106
 20
-843.0038409350824
 10
327.4138220074478
 20
-906.2310754841647
 10
329.5679110232938
 20
-969.4014659577364
 10
330.8157461398981
 20
-1005.994322800804
 10
334.409346772409
 20
-1042.506650536901
 10
336.9365826930011
 20
-1079.05609917685
 10
339.0592782762378
 20
-1109.755000536363
 10
341.1437117677414
 20
-1140.456657972264
 10
343.286345841099
 20
-1171.154439675746
 10
345.9023790978235
 20
-1208.634236351487
 10
348.5456070770346
 20
-1246.112396606875
 10
351.2072663170919
 20
-1283.589006569294
 10
353.2701464299663
 20
-1312.635209497147
 10
355.2411286207706
 20
-1341.689250017227
 10
357.5022309151288
 20
-1370.720466779715
 10
360.4934996657379
 20
-1409.12647737667
 10
363.7702591728368
 20
-1447.509405833869
 10
366.8431551546019
 20
-1485.908784622012
 10
368.885321630869
 20
-1511.429018448098
 10
370.3158114037337
 20
-1537.007646642658
 10
372.8605311839136
 20
-1562.475859526916
 10
376.5733967157525
 20
-1599.634314921272
 10
380.8518607988843
 20
-1636.739371335607
 10
385.2432809502396
 20
-1673.825651979547
 10
389.3014311770897
 20
-1708.097289612038
 10
393.7749737920718
 20
-1742.320179143413
 10
398.1559725295862
 20
-1776.552887196921
 10
406.0847736614996
 20
-1838.50810636546
 10
414.3763433480136
 20
-1900.418711547465
 10
421.9642522816617
 20
-1962.415616371375
 10
422.2700045059776
 20
-1964.913482852956
 10
422.5684359023893
 20
-1967.412382863182
 10
422.8682884006838
 20
-1969.911110618633
 10
422.8682884006838
 20
-1969.911110618633
 10
476.7514335288156
 20
-1969.911110618633
 10
476.7514335288156
 20
-1969.911110618633
 10
475.908418663575
 20
-1963.26000927481
 10
475.054121110622
 20
-1956.610458223955
 10
474.1795836216915
 20
-1949.963490994714
 97
        0
 97
        1
330
92
 75
     2
 76
     1
 98
        1
 10
0.0
 20
0.0
450
        0
451
        0
460
0.0
461
0.0
452
        0
462
0.0
453
        0
470

  0
SPLINE
  5
94
330
70
100
AcDbEntity
  8
2023-012
100
AcDbSpline
210
0.0
220
0.0
230
1.0
 70
     9
 71
     3
 72
   131
 73
   127
 74
     0
 42
0.0000000001
 43
0.0000000001
 40
0.0
 40
0.0
 40
0.0
 40
0.0
 40
1.0
 40
1.0
 40
1.0
 40
2.0
 40
2.0
 40
2.0
 40
3.0
 40
3.0
 40
3.0
 40
4.0
 40
4.0
 40
4.0
 40
5.0
 40
5.0
 40
5.0
 40
6.0
 40
6.0
 40
6.0
 40
7.0
 40
7.0
 40
7.0
 40
8.0
 40
8.0
 40
8.0
 40
9.0
 40
9.0
 40
9.0
 40
10.0
 40
10.0
 40
10.0
 40
11.0
 40
11.0
 40
11.0
 40
12.0
 40
12.0
 40
12.0
 40
13.0
 40
13.0
 40
13.0
 40
14.0
 40
14.0
 40
14.0
 40
15.0
 40
15.0
 40
15.0
 40
16.0
 40
16.0
 40
16.0
 40
17.0
 40
17.0
 40
17.0
 40
18.0
 40
18.0
 40
18.0
 40
19.0
 40
19.0
 40
19.0
 40
20.0
 40
20.0
 40
20.0
 40
21.0
 40
21.0
 40
21.0
 40
22.0
 40
22.0
 40
22.0
 40
23.0
 40
23.0
 40
23.0
 40
24.0
 40
24.0
 40
24.0
 40
25.0
 40
25.0
 40
25.0
 40
26.0
 40
26.0
 40
26.0
 40
27.0
 40
27.0
 40
27.0
 40
28.0
 40
28.0
 40
28.0
 40
29.0
 40
29.0
 40
29.0
 40
30.0
 40
30.0
 40
30.0
 40
31.0
 40
31.0
 40
31.0
 40
32.0
 40
32.0
 40
32.0
 40
33.0
 40
33.0
 40
33.0
 40
34.0
 40
34.0
 40
34.0
 40
35.0
 40
35.0
 40
35.0
 40
36.0
 40
36.0
 40
36.0
 40
37.0
 40
37.0
 40
37.0
 40
38.0
 40
38.0
 40
38.0
 40
39.0
 40
39.0
 40
39.0
 40
40.0
 40
40.0
 40
40.0
 40
41.0
 40
41.0
 40
41.0
 40
42.0
 40
42.0
 40
42.0
 40
42.0
 10
371.4894693081693
 20
-1916.028094681583
 30
0.0
 10
368.5984313043367
 20
-1895.893923137138
 30
0.0
 10
366.7676214360859
 20
-1875.605928079275
 30
0.0
 10
364.546396121971
 20
-1855.376844154211
 30
0.0
 10
361.5049797002073
 20
-1827.6789654719
 30
0.0
 10
358.9769901649755
 20
-1799.915802230142
 30
0.0
 10
355.4016054748422
 20
-1772.288031240956
 30
0.0
 10
351.9803242121351
 20
-1745.85122976102
 30
0.0
 10
346.8122503473247
 20
-1719.632847334849
 30
0.0
 10
343.6770842646667
 20
-1693.168485091031
 30
0.0
 10
340.4492020497618
 20
-1665.921569407738
 30
0.0
 10
338.8539290534702
 20
-1638.48327867024
 30
0.0
 10
336.3492154446128
 20
-1611.146790504331
 30
0.0
 10
334.2131270526772
 20
-1587.833140336549
 30
0.0
 10
331.7407112139941
 20
-1564.551012792456
 30
0.0
 10
329.5299503774157
 20
-1541.244252815644
 30
0.0
 10
327.941416849167
 20
-1524.497643661844
 30
0.0
 10
326.8466731631885
 20
-1507.697980037572
 30
0.0
 10
324.9690099963402
 20
-1490.985821838625
 30
0.0
 10
322.9845273376024
 20
-1473.322817285749
 30
0.0
 10
320.0024096218766
 20
-1455.771261571821
 30
0.0
 10
318.0606892108494
 20
-1438.104381286526
 30
0.0
 10
315.8608880842835
 20
-1418.088893281547
 30
0.0
 10
313.9359194500534
 20
-1398.026293595806
 30
0.0
 10
312.5970692170981
 20
-1377.937080547443
 30
0.0
 10
310.0065942625048
 20
-1339.068565881597
 30
0.0
 10
307.7223452328567
 20
-1300.177141330772
 30
0.0
 10
305.665881610324
 20
-1261.276415022139
 30
0.0
 10
303.8066066406282
 20
-1226.105693595383
 30
0.0
 10
302.9324351930929
 20
-1190.877352946638
 30
0.0
 10
300.6810868253289
 20
-1155.734881302865
 30
0.0
 10
298.4307289225169
 20
-1120.607740333997
 30
0.0
 10
294.8910870980437
 20
-1085.565176459296
 30
0.0
 10
292.1525161012783
 20
-1050.466974292505
 30
0.0
 10
290.6739457145494
 20
-1031.516709811565
 30
0.0
 10
289.3448063444932
 20
-1012.54198515268
 30
0.0
 10
288.5608963986714
 20
-993.552963347532
 30
0.0
 10
287.3605820679168
 20
-964.4767019615718
 30
0.0
 10
286.4452632611795
 20
-935.3833873529596
 30
0.0
 10
285.8533958568136
 20
-906.2884363239941
 30
0.0
 10
285.0507532042907
 20
-866.8308103301672
 30
0.0
 10
285.0297165899839
 20
-827.3555282219806
 30
0.0
 10
284.0190762975391
 20
-787.9046201643538
 30
0.0
 10
282.5515086845162
 20
-730.6183666521998
 30
0.0
 10
280.8702590240208
 20
-673.3321562037382
 30
0.0
 10
278.5640905743477
 20
-616.0748414936602
 30
0.0
 10
277.081149222722
 20
-579.2562878326164
 30
0.0
 10
273.4694403070667
 20
-542.5146889919755
 30
0.0
 10
272.3760746592823
 20
-505.6920442800459
 30
0.0
 10
271.428824123766
 20
-473.7883069019522
 30
0.0
 10
272.7247613860832
 20
-441.8196725376581
 30
0.0
 10
272.9540324906265
 20
-409.8791157015686
 30
0.0
 10
273.1900861269064
 20
-376.9927509636965
 30
0.0
 10
273.3561612611423
 20
-344.1057402704189
 30
0.0
 10
273.5155184591819
 20
-311.2188803000707
 30
0.0
 10
273.8205386007072
 20
-248.2697295521904
 30
0.0
 10
273.5858199389278
 20
-185.3128273394682
 30
0.0
 10
274.5414248309957
 20
-122.3738396232694
 30
0.0
 10
275.0090534794249
 20
-91.57248973676432
 30
0.0
 10
276.0296199532366
 20
-60.77968799343138
 30
0.0
 10
277.0029886189003
 20
-29.98611110361459
 30
0.0
 10
277.0029886189003
 20
-29.98611110361459
 30
0.0
 10
226.0702663280311
 20
-29.98611110361459
 30
0.0
 10
226.0702663280311
 20
-29.98611110361459
 30
0.0
 10
225.5126776237434
 20
-68.31419794705991
 30
0.0
 10
225.8577039365912
 20
-106.6598763093268
 30
0.0
 10
226.0445788348192
 20
-144.9960375953156
 30
0.0
 10
226.2036776506973
 20
-177.6338817576206
 30
0.0
 10
227.0235242487997
 20
-210.2693143530859
 30
0.0
 10
227.1025676583394
 20
-242.9068140058423
 30
0.0
 10
227.2044132936221
 20
-284.9593074510041
 30
0.0
 10
227.0127152617147
 20
-327.0145354407073
 30
0.0
 10
226.6531549522885
 20
-369.0658446342961
 30
0.0
 10
226.4143237077736
 20
-397.0035880897701
 30
0.0
 10
224.7796689637161
 20
-424.9545951628586
 30
0.0
 10
225.3315947922999
 20
-452.8687397142586
 30
0.0
 10
226.3017336809463
 20
-501.9330575323933
 30
0.0
 10
228.7938296275889
 20
-550.9653359625191
 30
0.0
 10
230.0502344192127
 20
-600.0263809399466
 30
0.0
 10
231.5536310252822
 20
-658.7336932760737
 30
0.0
 10
232.2693065486493
 20
-717.4609441023188
 30
0.0
 10
233.6205160616578
 20
-776.1729503810436
 30
0.0
 10
235.0797723818225
 20
-839.5806218061638
 30
0.0
 10
236.7613450200197
 20
-902.9840729893166
 30
0.0
 10
238.5840373820315
 20
-966.3823565292377
 30
0.0
 10
239.3873259899579
 20
-994.3230283158744
 30
0.0
 10
240.4413960173636
 20
-1022.265250395475
 30
0.0
 10
241.979997192923
 20
-1050.173710539325
 30
0.0
 10
244.4477836845478
 20
-1094.936955835207
 30
0.0
 10
247.5877298371916
 20
-1139.663166354626
 30
0.0
 10
250.11117615275
 20
-1184.42365557412
 30
0.0
 10
252.0278980896623
 20
-1218.422269389405
 30
0.0
 10
253.2433493087052
 20
-1252.459985038447
 30
0.0
 10
255.1181056762378
 20
-1286.461354930121
 30
0.0
 10
256.5271927933986
 20
-1312.016987112319
 30
0.0
 10
258.3125919967825
 20
-1337.55591058141
 30
0.0
 10
260.2595877102715
 20
-1363.076833426592
 30
0.0
 10
261.7401174950576
 20
-1382.483056295004
 30
0.0
 10
263.3544461757521
 20
-1401.894102297096
 30
0.0
 10
265.5992703939409
 20
-1421.222379880156
 30
0.0
 10
268.6569648918744
 20
-1447.550746979692
 30
0.0
 10
272.473161756426
 20
-1473.790144488323
 30
0.0
 10
275.7697090307212
 20
-1500.091898225237
 30
0.0
 10
278.1055268334142
 20
-1518.727969997922
 30
0.0
 10
280.1880224587073
 20
-1537.396425668168
 30
0.0
 10
282.2619484089809
 20
-1556.064192319317
 30
0.0
 10
285.6835095856972
 20
-1586.862312428805
 30
0.0
 10
289.2517457026979
 20
-1617.646307646804
 30
0.0
 10
292.3030237102901
 20
-1648.481979297081
 30
0.0
 10
295.4014779941835
 20
-1679.794107652968
 30
0.0
 10
297.4567358332964
 20
-1711.214928771415
 30
0.0
 10
300.8871250671936
 20
-1742.486921764899
 30
0.0
 10
303.8560437608416
 20
-1769.552625425667
 30
0.0
 10
309.3919246323959
 20
-1796.376483383371
 30
0.0
 10
311.5031652731442
 20
-1823.485939756802
 30
0.0
 10
314.7860182928856
 20
-1865.63978360477
 30
0.0
 10
319.0318831599881
 20
-1907.574002615555
 30
0.0
 10
324.8218398235797
 20
-1949.499953397173
 30
0.0
 10
325.7603268974553
 20
-1956.295576496603
 30
0.0
 10
326.6354242144024
 20
-1963.09998458952
 30
0.0
 10
327.4615150480717
 20
-1969.911110618633
 30
0.0
 10
327.4615150480717
 20
-1969.911110618633
 30
0.0
 10
380.9093938934879
 20
-1969.911110618633
 30
0.0
 10
380.9093938934879
 20
-1969.911110618633
 30
0.0
 10
378.5427855498956
 20
-1951.860532823667
 30
0.0
 10
374.0799227309177
 20
-1934.068853954417
 30
0.0
 10
371.4894693081693
 20
-1916.028094681583
 30
0.0
  0
HATCH
  5
95
330
70
100
AcDbEntity
  8
2023-012
 62
    18
420
        0
440
 33554687
100
AcDbHatch
 10
0.0
 20
0.0
 30
0.0
210
0.0
220
0.0
230
1.0
  2
SOLID
 70
     1
 71
     1
 91
        1
 92
        1
 93
        1
 72
     4
 94
        3
 73
     0
 74
     0
 95
      131
 96
      127
 40
0.0
 40
0.0
 40
0.0
 40
0.0
 40
1.0
 40
1.0
 40
1.0
 40
2.0
 40
2.0
 40
2.0
 40
3.0
 40
3.0
 40
3.0
 40
4.0
 40
4.0
 40
4.0
 40
5.0
 40
5.0
 40
5.0
 40
6.0
 40
6.0
 40
6.0
 40
7.0
 40
7.0
 40
7.0
 40
8.0
 40
8.0
 40
8.0
 40
9.0
 40
9.0
 40
9.0
 40
10.0
 40
10.0
 40
10.0
 40
11.0
 40
11.0
 40
11.0
 40
12.0
 40
12.0
 40
12.0
 40
13.0
 40
13.0
 40
13.0
 40
14.0
 40
14.0
 40
14.0
 40
15.0
 40
15.0
 40
15.0
 40
16.0
 40
16.0
 40
16.0
 40
17.0
 40
17.0
 40
17.0
 40
18.0
 40
18.0
 40
18.0
 40
19.0
 40
19.0
 40
19.0
 40
20.0
 40
20.0
 40
20.0
 40
21.0
 40
21.0
 40
21.0
 40
22.0
 40
22.0
 40
22.0
 40
23.0
 40
23.0
 40
23.0
 40
24.0
 40
24.0
 40
24.0
 40
25.0
 40
25.0
 40
25.0
 40
26.0
 40
26.0
 40
26.0
 40
27.0
 40
27.0
 40
27.0
 40
28.0
 40
28.0
 40
28.0
 40
29.0
 40
29.0
 40
29.0
 40
30.0
 40
30.0
 40
30.0
 40
31.0
 40
31.0
 40
31.0
 40
32.0
 40
32.0
 40
32.0
 40
33.0
 40
33.0
 40
33.0
 40
34.0
 40
34.0
 40
34.0
 40
35.0
 40
35.0
 40
35.0
 40
36.0
 40
36.0
 40
36.0
 40
37.0
 40
37.0
 40
37.0
 40
38.0
 40
38.0
 40
38.0
 40
39.0
 40
39.0
 40
39.0
 40
40.0
 40
40.0
 40
40.0
 40
41.0
 40
41.0
 40
41.0
 40
42.0
 40
42.0
 40
42.0
 40
42.0
 10
371.4894693081693
 20
-1916.028094681583
 10
368.5984313043367
 20
-1895.893923137138
 10
366.7676214360859
 20
-1875.605928079275
 10
364.546396121971
 20
-1855.376844154211
 10
361.5049797002073
 20
-1827.6789654719
 10
358.9769901649755
 20
-1799.915802230142
 10
355.4016054748422
 20
-1772.288031240956
 10
351.9803242121351
 20
-1745.85122976102
 10
346.8122503473247
 20
-1719.632847334849
 10
343.6770842646667
 20
-1693.168485091031
 10
340.4492020497618
 20
-1665.921569407738
 10
338.8539290534702
 20
-1638.48327867024
 10
336.3492154446128
 20
-1611.146790504331
 10
334.2131270526772
 20
-1587.833140336549
 10
331.7407112139941
 20
-1564.551012792456
 10
329.5299503774157
 20
-1541.244252815644
 10
327.941416849167
 20
-1524.497643661844
 10
326.8466731631885
 20
-1507.697980037572
 10
324.9690099963402
 20
-1490.985821838625
 10
322.9845273376024
 20
-1473.322817285749
 10
320.0024096218766
 20
-1455.771261571821
 10
318.0606892108494
 20
-1438.104381286526
 10
315.8608880842835
 20
-1418.088893281547
 10
313.9359194500534
 20
-1398.026293595806
 10
312.5970692170981
 20
-1377.937080547443
 10
310.0065942625048
 20
-1339.068565881597
 10
307.7223452328567
 20
-1300.177141330772
 10
305.665881610324
 20
-1261.276415022139
 10
303.8066066406282
 20
-1226.105693595383
 10
302.9324351930929
 20
-1190.877352946638
 10
300.6810868253289
 20
-1155.734881302865
 10
298.4307289225169
 20
-1120.607740333997
 10
294.8910870980437
 20
-1085.565176459296
 10
292.1525161012783
 20
-1050.466974292505
 10
290.6739457145494
 20
-1031.516709811565
 10
289.3448063444932
 20
-1012.54198515268
 10
288.5608963986714
 20
-993.552963347532
 10
287.3605820679168
 20
-964.4767019615718
 10
286.4452632611795
 20
-935.3833873529596
 10
285.8533958568136
 20
-906.2884363239941
 10
285.0507532042907
 20
-866.8308103301672
 10
285.0297165899839
 20
-827.3555282219806
 10
284.0190762975391
 20
-787.9046201643538
 10
282.5515086845162
 20
-730.6183666521998
 10
280.8702590240208
 20
-673.3321562037382
 10
278.5640905743477
 20
-616.0748414936602
 10
277.081149222722
 20
-579.2562878326164
 10
273.4694403070667
 20
-542.5146889919755
 10
272.3760746592823
 20
-505.6920442800459
 10
271.428824123766
 20
-473.7883069019522
 10
272.7247613860832
 20
-441.8196725376581
 10
272.9540324906265
 20
-409.8791157015686
 10
273.1900861269064
 20
-376.9927509636965
 10
273.3561612611423
 20
-344.1057402704189
 10
273.5155184591819
 20
-311.2188803000707
 10
273.8205386007072
 20
-248.2697295521904
 10
273.5858199389278
 20
-185.3128273394682
 10
274.5414248309957
 20
-122.3738396232694
 10
275.0090534794249
 20
-91.57248973676432
 10
276.0296199532366
 20
-60.77968799343138
 10
277.0029886189003
 20
-29.98611110361459
 10
277.0029886189003
 20
-29.98611110361459
 10
226.0702663280311
 20
-29.98611110361459
 10
226.0702663280311
 20
-29.98611110361459
 10
225.5126776237434
 20
-68.31419794705991
 10
225.8577039365912
 20
-106.6598763093268
 10
226.0445788348192
 20
-144.9960375953156
 10
226.2036776506973
 20
-177.6338817576206
 10
227.0235242487997
 20
-210.2693143530859
 10
227.1025676583394
 20
-242.9068140058423
 10
227.2044132936221
 20
-284.9593074510041
 10
227.0127152617147
 20
-327.0145354407073
 10
226.6531549522885
 20
-369.0658446342961
 10
226.4143237077736
 20
-397.0035880897701
 10
224.7796689637161
 20
-424.9545951628586
 10
225.3315947922999
 20
-452.8687397142586
 10
226.3017336809463
 20
-501.9330575323933
 10
228.7938296275889
 20
-550.9653359625191
 10
230.0502344192127
 20
-600.0263809399466
 10
231.5536310252822
 20
-658.7336932760737
 10
232.2693065486493
 20
-717.4609441023188
 10
233.6205160616578
 20
-776.1729503810436
 10
235.0797723818225
 20
-839.5806218061638
 10
236.7613450200197
 20
-902.9840729893166
 10
238.5840373820315
 20
-966.3823565292377
 10
239.3873259899579
 20
-994.3230283158744
 10
240.4413960173636
 20
-1022.265250395475
 10
241.979997192923
 20
-1050.173710539325
 10
244.4477836845478
 20
-1094.936955835207
 10
247.5877298371916
 20
-1139.663166354626
 10
250.11117615275
 20
-1184.42365557412
 10
252.0278980896623
 20
-1218.422269389405
 10
253.2433493087052
 20
-1252.459985038447
 10
255.1181056762378
 20
-1286.461354930121
 10
256.5271927933986
 20
-1312.016987112319
 10
258.3125919967825
 20
-1337.55591058141
 10
260.2595877102715
 20
-1363.076833426592
 10
261.7401174950576
 20
-1382.483056295004
 10
263.3544461757521
 20
-1401.894102297096
 10
265.5992703939409
 20
-1421.222379880156
 10
268.6569648918744
 20
-1447.550746979692
 10
272.473161756426
 20
-1473.790144488323
 10
275.7697090307212
 20
-1500.091898225237
 10
278.1055268334142
 20
-1518.727969997922
 10
280.1880224587073
 20
-1537.396425668168
 10
282.2619484089809
 20
-1556.064192319317
 10
285.6835095856972
 20
-1586.862312428805
 10
289.2517457026979
 20
-1617.646307646804
 10
292.3030237102901
 20
-1648.481979297081
 10
295.4014779941835
 20
-1679.794107652968
 10
297.4567358332964
 20
-1711.214928771415
 10
300.8871250671936
 20
-1742.486921764899
 10
303.8560437608416
 20
-1769.552625425667
 10
309.3919246323959
 20
-1796.376483383371
 10
311.5031652731442
 20
-1823.485939756802
 10
314.7860182928856
 20
-1865.63978360477
 10
319.0318831599881
 20
-1907.574002615555
 10
324.8218398235797
 20
-1949.499953397173
 10
325.7603268974553
 20
-1956.295576496603
 10
326.6354242144024
 20
-1963.09998458952
 10
327.4615150480717
 20
-1969.911110618633
 10
327.4615150480717
 20
-1969.911110618633
 10
380.9093938934879
 20
-1969.911110618633
 10
380.9093938934879
 20
-1969.911110618633
 10
378.5427855498956
 20
-1951.860532823667
 10
374.0799227309177
 20
-1934.068853954417
 10
371.4894693081693
 20
-1916.028094681583
 97
        0
 97
        1
330
94
 75
     2
 76
     1
 98
        1
 10
0.0
 20
0.0
450
        0
451
        0
460
0.0
461
0.0
452
        0
462
0.0
453
        0
470

  0
SPLINE
  5
96
330
70
100
AcDbEntity
  8
2023-012
100
AcDbSpline
210
0.0
220
0.0
230
1.0
 70
     9
 71
     3
 72
   122
 73
   118
 74
     0
 42
0.0000000001
 43
0.0000000001
 40
0.0
 40
0.0
 40
0.0
 40
0.0
 40
1.0
 40
1.0
 40
1.0
 40
2.0
 40
2.0
 40
2.0
 40
3.0
 40
3.0
 40
3.0
 40
4.0
 40
4.0
 40
4.0
 40
5.0
 40
5.0
 40
5.0
 40
6.0
 40
6.0
 40
6.0
 40
7.0
 40
7.0
 40
7.0
 40
8.0
 40
8.0
 40
8.0
 40
9.0
 40
9.0
 40
9.0
 40
10.0
 40
10.0
 40
10.0
 40
11.0
 40
11.0
 40
11.0
 40
12.0
 40
12.0
 40
12.0
 40
13.0
 40
13.0
 40
13.0
 40
14.0
 40
14.0
 40
14.0
 40
15.0
 40
15.0
 40
15.0
 40
16.0
 40
16.0
 40
16.0
 40
17.0
 40
17.0
 40
17.0
 40
18.0
 40
18.0
 40
18.0
 40
19.0
 40
19.0
 40
19.0
 40
20.0
 40
20.0
 40
20.0
 40
21.0
 40
21.0
 40
21.0
 40
22.0
 40
22.0
 40
22.0
 40
23.0
 40
23.0
 40
23.0
 40
24.0
 40
24.0
 40
24.0
 40
25.0
 40
25.0
 40
25.0
 40
26.0
 40
26.0
 40
26.0
 40
27.0
 40
27.0
 40
27.0
 40
28.0
 40
28.0
 40
28.0
 40
29.0
 40
29.0
 40
29.0
 40
30.0
 40
30.0
 40
30.0
 40
31.0
 40
31.0
 40
31.0
 40
32.0
 40
32.0
 40
32.0
 40
33.0
 40
33.0
 40
33.0
 40
34.0
 40
34.0
 40
34.0
 40
35.0
 40
35.0
 40
35.0
 40
36.0
 40
36.0
 40
36.0
 40
37.0
 40
37.0
 40
37.0
 40
38.0
 40
38.0
 40
38.0
 40
39.0
 40
39.0
 40
39.0
 40
39.0
 10
574.7631943007536
 20
-1932.777115402222
 30
0.0
 10
571.0662623355321
 20
-1904.160946518317
 30
0.0
 10
568.2628589481029
 20
-1875.428850171334
 30
0.0
 10
564.6296181856655
 20
-1846.803724039167
 30
0.0
 10
560.2912955684794
 20
-1812.623381437035
 30
0.0
 10
555.4253565777234
 20
-1778.510562706414
 30
0.0
 10
550.9035826259479
 20
-1744.352957734484
 30
0.0
 10
546.4780129655959
 20
-1710.92175114562
 30
0.0
 10
542.0004223634167
 20
-1677.494678671338
 30
0.0
 10
537.9109217676509
 20
-1644.021441917554
 30
0.0
 10
534.0154231113969
 20
-1612.13639418247
 30
0.0
 10
530.6040464982102
 20
-1580.192263059813
 30
0.0
 10
526.956551653202
 20
-1548.27655397491
 30
0.0
 10
524.0036741854053
 20
-1522.437993325987
 30
0.0
 10
520.9596739420276
 20
-1496.609767963521
 30
0.0
 10
518.059334180381
 20
-1470.765178397499
 30
0.0
 10
514.7936851062197
 20
-1441.665318107466
 30
0.0
 10
511.3431635955794
 20
-1412.581649766212
 30
0.0
 10
508.5352815840226
 20
-1383.43674485271
 30
0.0
 10
506.128451750638
 20
-1358.454376559258
 30
0.0
 10
504.5494783623628
 20
-1333.392512687485
 30
0.0
 10
502.5412891403146
 20
-1308.37095643289
 30
0.0
 10
500.1202913517514
 20
-1278.205528109268
 30
0.0
 10
497.4900040124557
 20
-1248.055947224878
 30
0.0
 10
495.2166285654319
 20
-1217.879322340929
 30
0.0
 10
493.2064584134812
 20
-1191.196282661187
 30
0.0
 10
491.4277986781432
 20
-1164.493605937175
 30
0.0
 10
489.7873303354525
 20
-1137.784900296068
 30
0.0
 10
487.4121523168396
 20
-1099.114909257558
 30
0.0
 10
485.0009299867132
 20
-1060.444315327337
 30
0.0
 10
483.0838635402534
 20
-1021.75020862043
 30
0.0
 10
481.5843857302984
 20
-991.4853892920593
 30
0.0
 10
480.7331887632821
 20
-961.1873247922552
 30
0.0
 10
479.7342402636375
 20
-930.8994233241328
 30
0.0
 10
477.8759126952011
 20
-874.5531641151291
 30
0.0
 10
476.4220393367331
 20
-818.1914881038307
 30
0.0
 10
474.1958186341647
 20
-761.860301187573
 30
0.0
 10
473.0565686208851
 20
-733.0332924599709
 30
0.0
 10
470.7766044287468
 20
-704.2463329673865
 30
0.0
 10
468.7027430740155
 20
-675.4634214619954
 30
0.0
 10
467.0860458901729
 20
-653.0265050315124
 30
0.0
 10
465.2629874867677
 20
-630.5972108747933
 30
0.0
 10
463.0344413447448
 20
-608.2138656791097
 30
0.0
 10
460.7153322551563
 20
-584.9207568931568
 30
0.0
 10
457.7359275521232
 20
-561.6943107048474
 30
0.0
 10
455.173594721276
 20
-538.4244132497274
 30
0.0
 10
454.0191432241688
 20
-527.9409015607231
 30
0.0
 10
453.021788081189
 20
-517.4345661141309
 30
0.0
 10
452.2217507821288
 20
-506.9183260180206
 30
0.0
 10
450.0863944729819
 20
-478.8491521697842
 30
0.0
 10
446.9088106521617
 20
-450.7922514742169
 30
0.0
 10
446.354580915974
 20
-422.6869471870819
 30
0.0
 10
445.6877826848039
 20
-388.8763494579024
 30
0.0
 10
447.9926376918212
 20
-355.0160131626575
 30
0.0
 10
447.7508781161458
 20
-321.1861444306084
 30
0.0
 10
447.4555473056708
 20
-279.8479700024664
 30
0.0
 10
445.1611998398835
 20
-238.5204753703287
 30
0.0
 10
445.0881638155961
 20
-197.1859398242929
 30
0.0
 10
445.0481145805782
 20
-174.4812533472217
 30
0.0
 10
447.7380020717687
 20
-151.7672866441871
 30
0.0
 10
449.3047453710713
 20
-129.0650117339555
 30
0.0
 10
451.0828022147052
 20
-103.301058934136
 30
0.0
 10
453.120533130534
 20
-77.55465458944413
 30
0.0
 10
454.800146370675
 20
-51.78450061775048
 30
0.0
 10
455.2737608725116
 20
-44.51812675210831
 30
0.0
 10
455.7540071831554
 20
-37.2520543323211
 30
0.0
 10
456.2370956975726
 20
-29.98611110361459
 30
0.0
 10
456.2370956975726
 20
-29.98611110361459
 30
0.0
 10
408.2743040971502
 20
-29.98611110361459
 30
0.0
 10
408.2743040971502
 20
-29.98611110361459
 30
0.0
 10
404.3015491746417
 20
-72.22954896604635
 30
0.0
 10
399.7904550188666
 20
-114.4302461126142
 30
0.0
 10
396.4096105644166
 20
-156.7213770156699
 30
0.0
 10
394.4677394304629
 20
-181.0127883458601
 30
0.0
 10
395.3072230728331
 20
-205.5489091147369
 30
0.0
 10
395.3469277982987
 20
-229.9730858121899
 30
0.0
 10
395.4447254463872
 20
-290.1253788540637
 30
0.0
 10
394.761778330129
 20
-350.3064599750862
 30
0.0
 10
396.4215392075372
 20
-410.4198234379786
 30
0.0
 10
397.625513952243
 20
-454.0247845680268
 30
0.0
 10
401.8076876165619
 20
-497.5606715335959
 30
0.0
 10
405.1566218740807
 20
-541.0891946075682
 30
0.0
 10
408.2354175818594
 20
-581.1056150890985
 30
0.0
 10
413.0479145289013
 20
-621.013773445007
 30
0.0
 10
415.186586742448
 20
-661.0719226456053
 30
0.0
 10
418.906471656343
 20
-730.7437681278628
 30
0.0
 10
421.3180384960179
 20
-800.4882620611626
 30
0.0
 10
423.9685227075948
 20
-870.214152478846
 30
0.0
 10
426.0031530374869
 20
-923.7377588293954
 30
0.0
 10
427.1579921078391
 20
-977.2971080456063
 30
0.0
 10
429.463191624405
 20
-1030.807881415475
 30
0.0
 10
431.2222573791736
 20
-1071.643114966464
 30
0.0
 10
434.0221726074251
 20
-1112.436318352533
 30
0.0
 10
436.6283442783202
 20
-1153.23115815896
 30
0.0
 10
439.7275952405474
 20
-1201.744217635762
 30
0.0
 10
442.6153604036691
 20
-1250.279497978448
 30
0.0
 10
446.5099547223588
 20
-1298.731234755612
 30
0.0
 10
450.8947861285957
 20
-1353.281221178607
 30
0.0
 10
456.0580799234213
 20
-1407.772554850967
 30
0.0
 10
461.3391098564534
 20
-1462.245285007703
 30
0.0
 10
465.3706467206818
 20
-1503.828448788539
 30
0.0
 10
469.7897568269969
 20
-1545.380778964783
 30
0.0
 10
474.6250775316268
 20
-1586.877815358489
 30
0.0
 10
480.1156553975511
 20
-1633.997247584122
 30
0.0
 10
486.2251877310932
 20
-1681.044677314114
 30
0.0
 10
492.1333111698259
 20
-1728.114672419534
 30
0.0
 10
497.3399270403805
 20
-1769.595000100136
 30
0.0
 10
502.6867582971805
 20
-1811.05724102944
 30
0.0
 10
507.8859672124382
 20
-1852.53825772914
 30
0.0
 10
512.788510342723
 20
-1891.651977066149
 30
0.0
 10
517.2449566713608
 20
-1930.827363612345
 30
0.0
 10
522.355712760036
 20
-1969.911110618633
 30
0.0
 10
522.355712760036
 20
-1969.911110618633
 30
0.0
 10
579.7750330853099
 20
-1969.911110618633
 30
0.0
 10
579.7750330853099
 20
-1969.911110618633
 30
0.0
 10
578.0410304001946
 20
-1957.54132302407
 30
0.0
 10
576.3634411536522
 20
-1945.163783964664
 30
0.0
 10
574.7631943007536
 20
-1932.777115402222
 30
0.0
  0
HATCH
  5
97
330
70
100
AcDbEntity
  8
2023-012
 62
    18
420
        0
440
 33554687
100
AcDbHatch
 10
0.0
 20
0.0
 30
0.0
210
0.0
220
0.0
230
1.0
  2
SOLID
 70
     1
 71
     1
 91
        1
 92
        1
 93
        1
 72
     4
 94
        3
 73
     0
 74
     0
 95
      122
 96
      118
 40
0.0
 40
0.0
 40
0.0
 40
0.0
 40
1.0
 40
1.0
 40
1.0
 40
2.0
 40
2.0
 40
2.0
 40
3.0
 40
3.0
 40
3.0
 40
4.0
 40
4.0
 40
4.0
 40
5.0
 40
5.0
 40
5.0
 40
6.0
 40
6.0
 40
6.0
 40
7.0
 40
7.0
 40
7.0
 40
8.0
 40
8.0
 40
8.0
 40
9.0
 40
9.0
 40
9.0
 40
10.0
 40
10.0
 40
10.0
 40
11.0
 40
11.0
 40
11.0
 40
12.0
 40
12.0
 40
12.0
 40
13.0
 40
13.0
 40
13.0
 40
14.0
 40
14.0
 40
14.0
 40
15.0
 40
15.0
 40
15.0
 40
16.0
 40
16.0
 40
16.0
 40
17.0
 40
17.0
 40
17.0
 40
18.0
 40
18.0
 40
18.0
 40
19.0
 40
19.0
 40
19.0
 40
20.0
 40
20.0
 40
20.0
 40
21.0
 40
21.0
 40
21.0
 40
22.0
 40
22.0
 40
22.0
 40
23.0
 40
23.0
 40
23.0
 40
24.0
 40
24.0
 40
24.0
 40
25.0
 40
25.0
 40
25.0
 40
26.0
 40
26.0
 40
26.0
 40
27.0
 40
27.0
 40
27.0
 40
28.0
 40
28.0
 40
28.0
 40
29.0
 40
29.0
 40
29.0
 40
30.0
 40
30.0
 40
30.0
 40
31.0
 40
31.0
 40
31.0
 40
32.0
 40
32.0
 40
32.0
 40
33.0
 40
33.0
 40
33.0
 40
34.0
 40
34.0
 40
34.0
 40
35.0
 40
35.0
 40
35.0
 40
36.0
 40
36.0
 40
36.0
 40
37.0
 40
37.0
 40
37.0
 40
38.0
 40
38.0
 40
38.0
 40
39.0
 40
39.0
 40
39.0
 40
39.0
 10
574.7631943007536
 20
-1932.777115402222
 10
571.0662623355321
 20
-1904.160946518317
 10
568.2628589481029
 20
-1875.428850171334
 10
564.6296181856655
 20
-1846.803724039167
 10
560.2912955684794
 20
-1812.623381437035
 10
555.4253565777234
 20
-1778.510562706414
 10
550.9035826259479
 20
-1744.352957734484
 10
546.4780129655959
 20
-1710.92175114562
 10
542.0004223634167
 20
-1677.494678671338
 10
537.9109217676509
 20
-1644.021441917554
 10
534.0154231113969
 20
-1612.13639418247
 10
530.6040464982102
 20
-1580.192263059813
 10
526.956551653202
 20
-1548.27655397491
 10
524.0036741854053
 20
-1522.437993325987
 10
520.9596739420276
 20
-1496.609767963521
 10
518.059334180381
 20
-1470.765178397499
 10
514.7936851062197
 20
-1441.665318107466
 10
511.3431635955794
 20
-1412.581649766212
 10
508.5352815840226
 20
-1383.43674485271
 10
506.128451750638
 20
-1358.454376559258
 10
504.5494783623628
 20
-1333.392512687485
 10
502.5412891403146
 20
-1308.37095643289
 10
500.1202913517514
 20
-1278.205528109268
 10
497.4900040124557
 20
-1248.055947224878
 10
495.2166285654319
 20
-1217.879322340929
 10
493.2064584134812
 20
-1191.196282661187
 10
491.4277986781432
 20
-1164.493605937175
 10
489.7873303354525
 20
-1137.784900296068
 10
487.4121523168396
 20
-1099.114909257558
 10
485.0009299867132
 20
-1060.444315327337
 10
483.0838635402534
 20
-1021.75020862043
 10
481.5843857302984
 20
-991.4853892920593
 10
480.7331887632821
 20
-961.1873247922552
 10
479.7342402636375
 20
-930.8994233241328
 10
477.8759126952011
 20
-874.5531641151291
 10
476.4220393367331
 20
-818.1914881038307
 10
474.1958186341647
 20
-761.860301187573
 10
473.0565686208851
 20
-733.0332924599709
 10
470.7766044287468
 20
-704.2463329673865
 10
468.7027430740155
 20
-675.4634214619954
 10
467.0860458901729
 20
-653.0265050315124
 10
465.2629874867677
 20
-630.5972108747933
 10
463.0344413447448
 20
-608.2138656791097
 10
460.7153322551563
 20
-584.9207568931568
 10
457.7359275521232
 20
-561.6943107048474
 10
455.173594721276
 20
-538.4244132497274
 10
454.0191432241688
 20
-527.9409015607231
 10
453.021788081189
 20
-517.4345661141309
 10
452.2217507821288
 20
-506.9183260180206
 10
450.0863944729819
 20
-478.8491521697842
 10
446.9088106521617
 20
-450.7922514742169
 10
446.354580915974
 20
-422.6869471870819
 10
445.6877826848039
 20
-388.8763494579024
 10
447.9926376918212
 20
-355.0160131626575
 10
447.7508781161458
 20
-321.1861444306084
 10
447.4555473056708
 20
-279.8479700024664
 10
445.1611998398835
 20
-238.5204753703287
 10
445.0881638155961
 20
-197.1859398242929
 10
445.0481145805782
 20
-174.4812533472217
 10
447.7380020717687
 20
-151.7672866441871
 10
449.3047453710713
 20
-129.0650117339555
 10
451.0828022147052
 20
-103.301058934136
 10
453.120533130534
 20
-77.55465458944413
 10
454.800146370675
 20
-51.78450061775048
 10
455.2737608725116
 20
-44.51812675210831
 10
455.7540071831554
 20
-37.2520543323211
 10
456.2370956975726
 20
-29.98611110361459
 10
456.2370956975726
 20
-29.98611110361459
 10
408.2743040971502
 20
-29.98611110361459
 10
408.2743040971502
 20
-29.98611110361459
 10
404.3015491746417
 20
-72.22954896604635
 10
399.7904550188666
 20
-114.4302461126142
 10
396.4096105644166
 20
-156.7213770156699
 10
394.4677394304629
 20
-181.0127883458601
 10
395.3072230728331
 20
-205.5489091147369
 10
395.3469277982987
 20
-229.9730858121899
 10
395.4447254463872
 20
-290.1253788540637
 10
394.761778330129
 20
-350.3064599750862
 10
396.4215392075372
 20
-410.4198234379786
 10
397.625513952243
 20
-454.0247845680268
 10
401.8076876165619
 20
-497.5606715335959
 10
405.1566218740807
 20
-541.0891946075682
 10
408.2354175818594
 20
-581.1056150890985
 10
413.0479145289013
 20
-621.013773445007
 10
415.186586742448
 20
-661.0719226456053
 10
418.906471656343
 20
-730.7437681278628
 10
421.3180384960179
 20
-800.4882620611626
 10
423.9685227075948
 20
-870.214152478846
 10
426.0031530374869
 20
-923.7377588293954
 10
427.1579921078391
 20
-977.2971080456063
 10
429.463191624405
 20
-1030.807881415475
 10
431.2222573791736
 20
-1071.643114966464
 10
434.0221726074251
 20
-1112.436318352533
 10
436.6283442783202
 20
-1153.23115815896
 10
439.7275952405474
 20
-1201.744217635762
 10
442.6153604036691
 20
-1250.279497978448
 10
446.5099547223588
 20
-1298.731234755612
 10
450.8947861285957
 20
-1353.281221178607
 10
456.0580799234213
 20
-1407.772554850967
 10
461.3391098564534
 20
-1462.245285007703
 10
465.3706467206818
 20
-1503.828448788539
 10
469.7897568269969
 20
-1545.380778964783
 10
474.6250775316268
 20
-1586.877815358489
 10
480.1156553975511
 20
-1633.997247584122
 10
486.2251877310932
 20
-1681.044677314114
 10
492.1333111698259
 20
-1728.114672419534
 10
497.3399270403805
 20
-1769.595000100136
 10
502.6867582971805
 20
-1811.05724102944
 10
507.8859672124382
 20
-1852.53825772914
 10
512.788510342723
 20
-1891.651977066149
 10
517.2449566713608
 20
-1930.827363612345
 10
522.355712760036
 20
-1969.911110618633
 10
522.355712760036
 20
-1969.911110618633
 10
579.7750330853099
 20
-1969.911110618633
 10
579.7750330853099
 20
-1969.911110618633
 10
578.0410304001946
 20
-1957.54132302407
 10
576.3634411536522
 20
-1945.163783964664
 10
574.7631943007536
 20
-1932.777115402222
 97
        0
 97
        1
330
96
 75
     2
 76
     1
 98
        1
 10
0.0
 20
0.0
450
        0
451
        0
460
0.0
461
0.0
452
        0
462
0.0
453
        0
470

  0
ENDSEC
  0
SECTION
  2
OBJECTS
  0
DICTIONARY
  5
C
330
0
100
AcDbDictionary
281
     1
  3
ACAD_COLOR
350
63
  3
ACAD_DETAILVIEWSTYLE
350
6A
  3
ACAD_GROUP
350
D
  3
ACAD_LAYOUT
350
62
  3
ACAD_MATERIAL
350
10
  3
ACAD_MLEADERSTYLE
350
66
  3
ACAD_MLINESTYLE
350
5F
  3
ACAD_PLOTSETTINGS
350
61
  3
ACAD_PLOTSTYLENAME
350
E
  3
ACAD_SCALELIST
350
42
  3
ACAD_SECTIONVIEWSTYLE
350
68
  3
ACAD_TABLESTYLE
350
64
  3
ACAD_VISUALSTYLE
350
29
  3
ACDB_RECOMPOSE_DATA
350
AC
  3
AcDbVariableDictionary
350
A4
  0
DICTIONARY
  5
63
102
{ACAD_REACTORS
330
C
102
}
330
C
100
AcDbDictionary
281
     1
  0
DICTIONARY
  5
6A
102
{ACAD_REACTORS
330
C
102
}
330
C
100
AcDbDictionary
281
     1
  3
Imperial24
350
6B
  0
DICTIONARY
  5
D
102
{ACAD_REACTORS
330
C
102
}
330
C
100
AcDbDictionary
281
     1
  0
DICTIONARY
  5
62
102
{ACAD_REACTORS
330
C
102
}
330
C
100
AcDbDictionary
281
     1
  3
Layout1
350
6F
  3
Layout2
350
77
  3
Model
350
73
  0
DICTIONARY
  5
10
102
{ACAD_REACTORS
330
C
102
}
330
C
100
AcDbDictionary
281
     1
  3
ByBlock
350
19
  3
ByLayer
350
11
  3
Global
350
21
  0
DICTIONARY
  5
66
102
{ACAD_REACTORS
330
C
102
}
330
C
100
AcDbDictionary
281
     1
  3
Standard
350
67
  0
DICTIONARY
  5
5F
102
{ACAD_REACTORS
330
C
102
}
330
C
100
AcDbDictionary
281
     1
  3
Standard
350
60
  0
DICTIONARY
  5
61
102
{ACAD_REACTORS
330
C
102
}
330
C
100
AcDbDictionary
281
     1
  0
ACDBDICTIONARYWDFLT
  5
E
102
{ACAD_REACTORS
330
C
102
}
330
C
100
AcDbDictionary
281
     1
  3
Normal
350
F
100
AcDbDictionaryWithDefault
340
F
  0
DICTIONARY
  5
42
102
{ACAD_REACTORS
330
C
102
}
330
C
100
AcDbDictionary
281
     1
  3
A0
350
43
  3
A1
350
44
  3
A2
350
45
  3
A3
350
46
  3
A4
350
47
  3
A5
350
48
  3
A6
350
49
  3
A7
350
4A
  3
A8
350
4B
  3
A9
350
4C
  3
B0
350
4D
  3
B1
350
4E
  3
B2
350
4F
  3
B3
350
50
  3
B4
350
51
  3
B5
350
52
  3
B6
350
53
  0
DICTIONARY
  5
68
102
{ACAD_REACTORS
330
C
102
}
330
C
100
AcDbDictionary
281
     1
  3
Imperial24
350
69
  0
DICTIONARY
  5
64
102
{ACAD_REACTORS
330
C
102
}
330
C
100
AcDbDictionary
281
     1
  3
Standard
350
65
  0
DICTIONARY
  5
29
102
{ACAD_REACTORS
330
C
102
}
330
C
100
AcDbDictionary
281
     1
  3
2dWireframe
350
2F
  3
Basic
350
2E
  3
Brighten
350
35
  3
ColorChange
350
39
  3
Conceptual
350
32
  3
Dim
350
34
  3
EdgeColorOff
350
41
  3
Facepattern
350
38
  3
Flat
350
2A
  3
FlatWithEdges
350
2B
  3
Gouraud
350
2C
  3
GouraudWithEdges
350
2D
  3
Hidden
350
31
  3
JitterOff
350
3F
  3
Linepattern
350
37
  3
OverhangOff
350
40
  3
Realistic
350
33
  3
Shaded
350
3E
  3
Shaded with edges
350
3D
  3
Shades of Gray
350
3A
  3
Sketchy
350
3B
  3
Thicken
350
36
  3
Wireframe
350
30
  3
X-Ray
350
3C
  0
XRECORD
  5
AC
102
{ACAD_REACTORS
330
C
102
}
330
C
100
AcDbXrecord
280
     1
 90
        1
330
65
  0
DICTIONARY
  5
A4
102
{ACAD_REACTORS
330
C
102
}
330
C
100
AcDbDictionary
281
     1
  3
CANNOSCALE
350
A9
  3
CMLEADERSTYLE
350
A6
  3
CTABLESTYLE
350
A5
  3
CVIEWDETAILSTYLE
350
A7
  3
CVIEWSECTIONSTYLE
350
A8
  0
ACDBDETAILVIEWSTYLE
  5
6B
102
{ACAD_REACTORS
330
6A
102
}
330
6A
100
AcDbModelDocViewStyle
 70
     0
  3
Imperial24
290
     1
300
Imperial24
 90
        0
100
AcDbDetailViewStyle
 70
     0
 71
     0
 90
        3
 71
     1
340
55
 62
   256
 40
0.24
340
0
 62
   256
 40
0.24
300

 40
0.36
280
     3
 71
     2
340
5D
 90
       25
 62
   256
 71
     3
340
55
 62
   256
 40
0.24
 90
        1
 40
0.75
 90
        1
300
%<\AcVar ViewType \f "%tc1">% %<\AcVar ViewDetailId>%\PSCALE %<\AcVar ViewScale \f "%sn">%
 71
     4
340
5D
 90
       25
 62
   256
340
5D
 90
       25
 62
   256
280
     0
  0
LAYOUT
  5
6F
102
{ACAD_REACTORS
330
62
102
}
330
62
100
AcDbPlotSettings
  1

  2

  4

  6

 40
0.0
 41
0.0
 42
0.0
 43
0.0
 44
0.0
 45
0.0
 46
0.0
 47
0.0
 48
0.0
 49
0.0
140
0.0
141
0.0
142
1.0
143
1.0
 70
   688
 72
     0
 73
     0
 74
     5
  7

 75
    16
147
1.0
 76
     0
 77
     2
 78
   300
148
0.0
149
0.0
100
AcDbLayout
  1
Layout1
 70
     1
 71
     1
 10
0.0
 20
0.0
 11
12.0
 21
9.0
 12
0.0
 22
0.0
 32
0.0
 14
0.0
 24
0.0
 34
0.0
 15
0.0
 25
0.0
 35
0.0
146
0.0
 13
0.0
 23
0.0
 33
0.0
 16
1.0
 26
0.0
 36
0.0
 17
0.0
 27
1.0
 37
0.0
 76
     0
330
6C
  0
LAYOUT
  5
77
102
{ACAD_REACTORS
330
62
102
}
330
62
100
AcDbPlotSettings
  1

  2

  4

  6

 40
0.0
 41
0.0
 42
0.0
 43
0.0
 44
0.0
 45
0.0
 46
0.0
 47
0.0
 48
0.0
 49
0.0
140
0.0
141
0.0
142
1.0
143
1.0
 70
   688
 72
     0
 73
     0
 74
     5
  7

 75
    16
147
1.0
 76
     0
 77
     2
 78
   300
148
0.0
149
0.0
100
AcDbLayout
  1
Layout2
 70
     1
 71
     2
 10
0.0
 20
0.0
 11
12.0
 21
9.0
 12
0.0
 22
0.0
 32
0.0
 14
0.0
 24
0.0
 34
0.0
 15
0.0
 25
0.0
 35
0.0
146
0.0
 13
0.0
 23
0.0
 33
0.0
 16
1.0
 26
0.0
 36
0.0
 17
0.0
 27
1.0
 37
0.0
 76
     0
330
74
  0
LAYOUT
  5
73
102
{ACAD_REACTORS
330
62
102
}
330
62
100
AcDbPlotSettings
  1

  2

  4

  6

 40
0.0
 41
0.0
 42
0.0
 43
0.0
 44
0.0
 45
0.0
 46
0.0
 47
0.0
 48
0.0
 49
0.0
140
0.0
141
0.0
142
1.0
143
1.0
 70
  1712
 72
     0
 73
     0
 74
     0
  7

 75
     0
147
1.0
 76
     0
 77
     2
 78
   300
148
0.0
149
0.0
100
AcDbLayout
  1
Model
 70
     1
 71
     0
 10
0.0
 20
0.0
 11
12.0
 21
9.0
 12
0.0
 22
0.0
 32
0.0
 14
0.0
 24
0.0
 34
0.0
 15
0.0
 25
0.0
 35
0.0
146
0.0
 13
0.0
 23
0.0
 33
0.0
 16
1.0
 26
0.0
 36
0.0
 17
0.0
 27
1.0
 37
0.0
 76
     0
330
70
  0
MATERIAL
  5
19
102
{ACAD_XDICTIONARY
360
1A
102
}
102
{ACAD_REACTORS
330
10
102
}
330
10
100
AcDbMaterial
  1
ByBlock
 72
     0
 43
0.0208333333333333
 43
0.0
 43
0.0
 43
0.0
 43
0.0
 43
0.0208333333333333
 43
0.0
 43
0.0
 43
0.0
 43
0.0
 43
1.0
 43
0.0
 43
0.0
 43
0.0
 43
0.0
 43
1.0
 77
     0
 47
0.0208333333333333
 47
0.0
 47
0.0
 47
0.0
 47
0.0
 47
0.0208333333333333
 47
0.0
 47
0.0
 47
0.0
 47
0.0
 47
1.0
 47
0.0
 47
0.0
 47
0.0
 47
0.0
 47
1.0
171
     0
 49
0.0208333333333333
 49
0.0
 49
0.0
 49
0.0
 49
0.0
 49
0.0208333333333333
 49
0.0
 49
0.0
 49
0.0
 49
0.0
 49
1.0
 49
0.0
 49
0.0
 49
0.0
 49
0.0
 49
1.0
175
     0
142
0.0208333333333333
142
0.0
142
0.0
142
0.0
142
0.0
142
0.0208333333333333
142
0.0
142
0.0
142
0.0
142
0.0
142
1.0
142
0.0
142
0.0
142
0.0
142
0.0
142
1.0
179
     0
144
0.0208333333333333
144
0.0
144
0.0
144
0.0
144
0.0
144
0.0208333333333333
144
0.0
144
0.0
144
0.0
144
0.0
144
1.0
144
0.0
144
0.0
144
0.0
144
0.0
144
1.0
147
0.0208333333333333
147
0.0
147
0.0
147
0.0
147
0.0
147
0.0208333333333333
147
0.0
147
0.0
147
0.0
147
0.0
147
1.0
147
0.0
147
0.0
147
0.0
147
0.0
147
1.0
  0
MATERIAL
  5
11
102
{ACAD_XDICTIONARY
360
12
102
}
102
{ACAD_REACTORS
330
10
102
}
330
10
100
AcDbMaterial
  1
ByLayer
 72
     0
 43
0.0208333333333333
 43
0.0
 43
0.0
 43
0.0
 43
0.0
 43
0.0208333333333333
 43
0.0
 43
0.0
 43
0.0
 43
0.0
 43
1.0
 43
0.0
 43
0.0
 43
0.0
 43
0.0
 43
1.0
 77
     0
 47
0.0208333333333333
 47
0.0
 47
0.0
 47
0.0
 47
0.0
 47
0.0208333333333333
 47
0.0
 47
0.0
 47
0.0
 47
0.0
 47
1.0
 47
0.0
 47
0.0
 47
0.0
 47
0.0
 47
1.0
171
     0
 49
0.0208333333333333
 49
0.0
 49
0.0
 49
0.0
 49
0.0
 49
0.0208333333333333
 49
0.0
 49
0.0
 49
0.0
 49
0.0
 49
1.0
 49
0.0
 49
0.0
 49
0.0
 49
0.0
 49
1.0
175
     0
142
0.0208333333333333
142
0.0
142
0.0
142
0.0
142
0.0
142
0.0208333333333333
142
0.0
142
0.0
142
0.0
142
0.0
142
1.0
142
0.0
142
0.0
142
0.0
142
0.0
142
1.0
179
     0
144
0.0208333333333333
144
0.0
144
0.0
144
0.0
144
0.0
144
0.0208333333333333
144
0.0
144
0.0
144
0.0
144
0.0
144
1.0
144
0.0
144
0.0
144
0.0
144
0.0
144
1.0
147
0.0208333333333333
147
0.0
147
0.0
147
0.0
147
0.0
147
0.0208333333333333
147
0.0
147
0.0
147
0.0
147
0.0
147
1.0
147
0.0
147
0.0
147
0.0
147
0.0
147
1.0
  0
MATERIAL
  5
21
102
{ACAD_XDICTIONARY
360
22
102
}
102
{ACAD_REACTORS
330
10
102
}
330
10
100
AcDbMaterial
  1
Global
 72
     0
 43
0.0208333333333333
 43
0.0
 43
0.0
 43
0.0
 43
0.0
 43
0.0208333333333333
 43
0.0
 43
0.0
 43
0.0
 43
0.0
 43
1.0
 43
0.0
 43
0.0
 43
0.0
 43
0.0
 43
1.0
 77
     0
 47
0.0208333333333333
 47
0.0
 47
0.0
 47
0.0
 47
0.0
 47
0.0208333333333333
 47
0.0
 47
0.0
 47
0.0
 47
0.0
 47
1.0
 47
0.0
 47
0.0
 47
0.0
 47
0.0
 47
1.0
171
     0
 49
0.0208333333333333
 49
0.0
 49
0.0
 49
0.0
 49
0.0
 49
0.0208333333333333
 49
0.0
 49
0.0
 49
0.0
 49
0.0
 49
1.0
 49
0.0
 49
0.0
 49
0.0
 49
0.0
 49
1.0
175
     0
142
0.0208333333333333
142
0.0
142
0.0
142
0.0
142
0.0
142
0.0208333333333333
142
0.0
142
0.0
142
0.0
142
0.0
142
1.0
142
0.0
142
0.0
142
0.0
142
0.0
142
1.0
179
     0
144
0.0208333333333333
144
0.0
144
0.0
144
0.0
144
0.0
144
0.0208333333333333
144
0.0
144
0.0
144
0.0
144
0.0
144
1.0
144
0.0
144
0.0
144
0.0
144
0.0
144
1.0
147
0.0208333333333333
147
0.0
147
0.0
147
0.0
147
0.0
147
0.0208333333333333
147
0.0
147
0.0
147
0.0
147
0.0
147
1.0
147
0.0
147
0.0
147
0.0
147
0.0
147
1.0
  0
MLEADERSTYLE
  5
67
102
{ACAD_REACTORS
330
66
102
}
330
66
100
AcDbMLeaderStyle
179
     2
170
     2
171
     1
172
     0
 90
        2
 40
0.0
 41
0.0
173
     1
 91
-1056964608
340
5B
 92
       -2
290
     1
 42
0.09
291
     1
 43
0.36
  3
Standard
 44
0.18
300

342
55
174
     1
178
     6
175
     1
176
     0
 93
-1056964608
 45
0.18
292
     0
297
     0
 46
0.18
 94
-1056964608
 47
1.0
 49
1.0
140
1.0
293
     1
141
0.0
294
     1
177
     0
142
1.0
295
     1
296
     0
143
0.125
271
     0
272
     9
273
     9
298
     1
  0
MLINESTYLE
  5
60
102
{ACAD_REACTORS
330
5F
102
}
330
5F
100
AcDbMlineStyle
  2
STANDARD
 70
     0
  3

 62
   256
 51
90.0
 52
90.0
 71
     2
 49
0.5
 62
   256
  6
BYLAYER
 49
-0.5
 62
   256
  6
BYLAYER
  0
ACDBPLACEHOLDER
  5
F
102
{ACAD_REACTORS
330
E
102
}
330
E
  0
SCALE
  5
43
102
{ACAD_REACTORS
330
42
102
}
330
42
100
AcDbScale
 70
     0
300
1:1
140
1.0
141
1.0
290
     1
  0
SCALE
  5
44
102
{ACAD_REACTORS
330
42
102
}
330
42
100
AcDbScale
 70
     0
300
1/128" = 1'-0"
140
0.0078125
141
12.0
290
     0
  0
SCALE
  5
45
102
{ACAD_REACTORS
330
42
102
}
330
42
100
AcDbScale
 70
     0
300
1/64" = 1'-0"
140
0.015625
141
12.0
290
     0
  0
SCALE
  5
46
102
{ACAD_REACTORS
330
42
102
}
330
42
100
AcDbScale
 70
     0
300
1/32" = 1'-0"
140
0.03125
141
12.0
290
     0
  0
SCALE
  5
47
102
{ACAD_REACTORS
330
42
102
}
330
42
100
AcDbScale
 70
     0
300
1/16" = 1'-0"
140
0.0625
141
12.0
290
     0
  0
SCALE
  5
48
102
{ACAD_REACTORS
330
42
102
}
330
42
100
AcDbScale
 70
     0
300
3/32" = 1'-0"
140
0.09375
141
12.0
290
     0
  0
SCALE
  5
49
102
{ACAD_REACTORS
330
42
102
}
330
42
100
AcDbScale
 70
     0
300
1/8" = 1'-0"
140
0.125
141
12.0
290
     0
  0
SCALE
  5
4A
102
{ACAD_REACTORS
330
42
102
}
330
42
100
AcDbScale
 70
     0
300
3/16" = 1'-0"
140
0.1875
141
12.0
290
     0
  0
SCALE
  5
4B
102
{ACAD_REACTORS
330
42
102
}
330
42
100
AcDbScale
 70
     0
300
1/4" = 1'-0"
140
0.25
141
12.0
290
     0
  0
SCALE
  5
4C
102
{ACAD_REACTORS
330
42
102
}
330
42
100
AcDbScale
 70
     0
300
3/8" = 1'-0"
140
0.375
141
12.0
290
     0
  0
SCALE
  5
4D
102
{ACAD_REACTORS
330
42
102
}
330
42
100
AcDbScale
 70
     0
300
1/2" = 1'-0"
140
0.5
141
12.0
290
     0
  0
SCALE
  5
4E
102
{ACAD_REACTORS
330
42
102
}
330
42
100
AcDbScale
 70
     0
300
3/4" = 1'-0"
140
0.75
141
12.0
290
     0
  0
SCALE
  5
4F
102
{ACAD_REACTORS
330
42
102
}
330
42
100
AcDbScale
 70
     0
300
1" = 1'-0"
140
1.0
141
12.0
290
     0
  0
SCALE
  5
50
102
{ACAD_REACTORS
330
42
102
}
330
42
100
AcDbScale
 70
     0
300
1-1/2" = 1'-0"
140
1.5
141
12.0
290
     0
  0
SCALE
  5
51
102
{ACAD_REACTORS
330
42
102
}
330
42
100
AcDbScale
 70
     0
300
3" = 1'-0"
140
3.0
141
12.0
290
     0
  0
SCALE
  5
52
102
{ACAD_REACTORS
330
42
102
}
330
42
100
AcDbScale
 70
     0
300
6" = 1'-0"
140
6.0
141
12.0
290
     0
  0
SCALE
  5
53
102
{ACAD_REACTORS
330
42
102
}
330
42
100
AcDbScale
 70
     0
300
1'-0" = 1'-0"
140
12.0
141
12.0
290
     0
  0
ACDBSECTIONVIEWSTYLE
  5
69
102
{ACAD_REACTORS
330
68
102
}
330
68
100
AcDbModelDocViewStyle
 70
     0
  3
Imperial24
290
     1
300
Imperial24
 90
        0
100
AcDbSectionViewStyle
 70
     0
 71
     0
 90
       78
 71
     1
340
55
 62
   256
 40
0.24
340
0
340
0
 62
   256
 40
0.24
300
I, O, Q, S, X, Z
 40
0.48
 90
        3
 40
0.18
 90
        1
 71
     2
340
5D
 90
       25
 62
   256
340
5D
 90
       50
 62
   256
 40
0.24
 40
0.0
 40
0.24
 71
     3
340
55
 62
   256
 40
0.24
 90
        1
 40
0.75
 90
        1
300
%<\AcVar ViewType \f "%tc1">% %<\AcVar ViewSectionStartId>%-%<\AcVar ViewSectionEndId>%\PSCALE %<\AcVar ViewScale \f "%sn">%
 71
     4
 62
   256
 62
   257
300
ANSI31
 40
1.0
 90
        0
290
     0
290
     0
 90
        6
 40
0.0
 40
1.570796326794896
 40
0.2617993877991494
 40
1.308996938995747
 40
-0.2617993877991494
 40
1.832595714594046
  0
TABLESTYLE
  5
65
102
{ACAD_XDICTIONARY
360
AA
102
}
102
{ACAD_REACTORS
330
64
102
}
330
64
100
AcDbTableStyle
280
     0
  3
Standard
 70
     0
 71
     0
 40
0.06
 41
0.06
280
     0
281
     0
  7
Standard
140
0.18
170
     2
 62
     0
 63
     7
283
     0
 90
      512
 91
        0
  1

274
    -2
284
     1
 64
     0
275
    -2
285
     1
 65
     0
276
    -2
286
     1
 66
     0
277
    -2
287
     1
 67
     0
278
    -2
288
     1
 68
     0
279
    -2
289
     1
 69
     0
  7
Standard
140
0.25
170
     5
 62
     0
 63
     7
283
     0
 90
      512
 91
        0
  1

274
    -2
284
     1
 64
     0
275
    -2
285
     1
 65
     0
276
    -2
286
     1
 66
     0
277
    -2
287
     1
 67
     0
278
    -2
288
     1
 68
     0
279
    -2
289
     1
 69
     0
  7
Standard
140
0.18
170
     5
 62
     0
 63
     7
283
     0
 90
      512
 91
        0
  1

274
    -2
284
     1
 64
     0
275
    -2
285
     1
 65
     0
276
    -2
286
     1
 66
     0
277
    -2
287
     1
 67
     0
278
    -2
288
     1
 68
     0
279
    -2
289
     1
 69
     0
  0
VISUALSTYLE
  5
2F
102
{ACAD_REACTORS
330
29
102
}
330
29
100
AcDbVisualStyle
  2
2dWireframe
 70
     4
177
     3
291
     0
 70
    58
 90
        0
176
     1
 90
        2
176
     1
 90
        0
176
     1
 90
        0
176
     1
 40
0.6
176
     1
 40
30.0
176
     1
 62
     7
420
 16777215
176
     1
 90
        1
176
     1
 90
        4
176
     1
 62
     7
176
     1
 62
   257
176
     1
 90
        1
176
     1
 90
        1
176
     1
 40
1.0
176
     1
 90
        0
176
     1
 62
   257
176
     1
 40
1.0
176
     1
 90
        1
176
     1
 90
        6
176
     1
 90
        2
176
     1
 62
     7
176
     1
 90
        5
176
     1
 90
        0
176
     1
 90
        0
176
     1
290
     0
176
     1
 90
        1
176
     1
 40
0.0
176
     1
 90
        0
176
     1
290
     1
176
     1
290
     1
176
     1
290
     0
176
     1
290
     0
176
     1
290
     0
176
     1
290
     0
176
     1
290
     0
176
     1
290
     0
176
     1
290
     0
176
     1
 90
       50
176
     1
 40
0.0
176
     1
 40
1.0
176
     1
 90
        0
176
     1
 62
    18
420
        0
176
     1
 90
       50
176
     1
 90
        3
176
     1
 62
     5
420
      255
176
     1
290
     0
176
     1
 90
       50
176
     1
 90
       50
176
     1
 90
       50
176
     1
290
     0
176
     1
 90
       50
176
     1
 62
   256
176
     0
 40
1.0
176
     0
 90
        2
176
     1
  1
strokes_ogs.tif
176
     1
290
     0
176
     1
 40
1.0
176
     1
 40
1.0
176
     1
  0
VISUALSTYLE
  5
2E
102
{ACAD_REACTORS
330
29
102
}
330
29
100
AcDbVisualStyle
  2
Basic
 70
     7
177
     3
291
     1
 70
    58
 90
        1
176
     1
 90
        0
176
     1
 90
        1
176
     1
 90
        0
176
     1
 40
0.6
176
     1
 40
30.0
176
     1
 62
     7
420
 16777215
176
     1
 90
        0
176
     1
 90
        4
176
     1
 62
     7
176
     1
 62
   257
176
     1
 90
        1
176
     1
 90
        1
176
     1
 40
1.0
176
     1
 90
        8
176
     1
 62
     7
176
     1
 40
1.0
176
     1
 90
        1
176
     1
 90
        6
176
     1
 90
        2
176
     1
 62
     7
176
     1
 90
        5
176
     1
 90
        0
176
     1
 90
        0
176
     1
290
     0
176
     1
 90
        1
176
     1
 40
0.0
176
     1
 90
        0
176
     1
290
     0
176
     1
290
     1
176
     1
290
     1
176
     1
290
     0
176
     1
290
     0
176
     1
290
     0
176
     1
290
     0
176
     1
290
     0
176
     1
290
     0
176
     1
 90
       50
176
     1
 40
0.0
176
     1
 40
1.0
176
     1
 90
        0
176
     1
 62
    18
420
        0
176
     1
 90
       50
176
     1
 90
        3
176
     1
 62
     5
420
      255
176
     1
290
     0
176
     1
 90
       50
176
     1
 90
       50
176
     1
 90
       50
176
     1
290
     0
176
     1
 90
       50
176
     1
 62
   256
176
     0
 40
1.0
176
     0
 90
        2
176
     1
  1
strokes_ogs.tif
176
     1
290
     0
176
     1
 40
1.0
176
     1
 40
1.0
176
     1
  0
VISUALSTYLE
  5
35
102
{ACAD_REACTORS
330
29
102
}
330
29
100
AcDbVisualStyle
  2
Brighten
 70
    12
177
     3
291
     1
 70
    58
 90
        2
176
     1
 90
        2
176
     1
 90
        0
176
     1
 90
        0
176
     1
 40
0.6
176
     1
 40
30.0
176
     1
 62
     7
420
 16777215
176
     1
 90
        1
176
     1
 90
        4
176
     1
 62
     7
176
     1
 62
   257
176
     1
 90
        1
176
     1
 90
        1
176
     1
 40
1.0
176
     1
 90
        8
176
     1
 62
     7
176
     1
 40
1.0
176
     1
 90
        1
176
     1
 90
        6
176
     1
 90
        2
176
     1
 62
     7
176
     1
 90
        5
176
     1
 90
        0
176
     1
 90
        0
176
     1
290
     0
176
     1
 90
        1
176
     1
 40
50.0
176
     1
 90
        0
176
     1
290
     0
176
     1
290
     1
176
     1
290
     1
176
     1
290
     0
176
     1
290
     0
176
     1
290
     0
176
     1
290
     0
176
     1
290
     0
176
     1
290
     0
176
     1
 90
       50
176
     1
 40
0.0
176
     1
 40
1.0
176
     1
 90
        0
176
     1
 62
    18
420
        0
176
     1
 90
       50
176
     1
 90
        3
176
     1
 62
     5
420
      255
176
     1
290
     0
176
     1
 90
       50
176
     1
 90
       50
176
     1
 90
       50
176
     1
290
     0
176
     1
 90
       50
176
     1
 62
   256
176
     0
 40
1.0
176
     0
 90
        2
176
     1
  1
strokes_ogs.tif
176
     1
290
     0
176
     1
 40
1.0
176
     1
 40
1.0
176
     1
  0
VISUALSTYLE
  5
39
102
{ACAD_REACTORS
330
29
102
}
330
29
100
AcDbVisualStyle
  2
ColorChange
 70
    16
177
     3
291
     1
 70
    58
 90
        2
176
     1
 90
        2
176
     1
 90
        3
176
     1
 90
        0
176
     1
 40
0.6
176
     1
 40
30.0
176
     1
 62
     8
420
  8421504
176
     1
 90
        1
176
     1
 90
        4
176
     1
 62
     7
176
     1
 62
   257
176
     1
 90
        1
176
     1
 90
        1
176
     1
 40
1.0
176
     1
 90
        8
176
     1
 62
     8
420
  8421504
176
     1
 40
1.0
176
     1
 90
        1
176
     1
 90
        6
176
     1
 90
        2
176
     1
 62
     7
176
     1
 90
        5
176
     1
 90
        0
176
     1
 90
        0
176
     1
290
     0
176
     1
 90
        1
176
     1
 40
0.0
176
     1
 90
        0
176
     1
290
     0
176
     1
290
     1
176
     1
290
     1
176
     1
290
     0
176
     1
290
     0
176
     1
290
     0
176
     1
290
     0
176
     1
290
     0
176
     1
290
     0
176
     1
 90
       50
176
     1
 40
0.0
176
     1
 40
1.0
176
     1
 90
        0
176
     1
 62
    18
420
        0
176
     1
 90
       50
176
     1
 90
        3
176
     1
 62
     5
420
      255
176
     1
290
     0
176
     1
 90
       50
176
     1
 90
       50
176
     1
 90
       50
176
     1
290
     0
176
     1
 90
       50
176
     1
 62
   256
176
     0
 40
1.0
176
     0
 90
        2
176
     1
  1
strokes_ogs.tif
176
     1
290
     0
176
     1
 40
1.0
176
     1
 40
1.0
176
     1
  0
VISUALSTYLE
  5
32
102
{ACAD_REACTORS
330
29
102
}
330
29
100
AcDbVisualStyle
  2
Conceptual
 70
     9
177
     3
291
     0
 70
    58
 90
        3
176
     1
 90
        2
176
     1
 90
        0
176
     1
 90
        0
176
     1
 40
0.6
176
     1
 40
30.0
176
     1
 62
     7
420
 16777215
176
     1
 90
        2
176
     1
 90
        2
176
     1
 62
     7
176
     1
 62
   257
176
     1
 90
        1
176
     1
 90
        1
176
     1
 40
179.0
176
     1
 90
        8
176
     1
 62
     7
176
     1
 40
1.0
176
     1
 90
        1
176
     1
 90
        6
176
     1
 90
        2
176
     1
 62
     7
176
     1
 90
        3
176
     1
 90
        0
176
     1
 90
        0
176
     1
290
     0
176
     1
 90
        1
176
     1
 40
0.0
176
     1
 90
        0
176
     1
290
     0
176
     1
290
     1
176
     1
290
     1
176
     1
290
     0
176
     1
290
     0
176
     1
290
     0
176
     1
290
     0
176
     1
290
     0
176
     1
290
     0
176
     1
 90
       50
176
     1
 40
0.0
176
     1
 40
1.0
176
     1
 90
        0
176
     1
 62
    18
420
        0
176
     1
 90
       50
176
     1
 90
        3
176
     1
 62
     5
420
      255
176
     1
290
     0
176
     1
 90
       50
176
     1
 90
       50
176
     1
 90
       50
176
     1
290
     0
176
     1
 90
       50
176
     1
 62
   256
176
     0
 40
1.0
176
     0
 90
        2
176
     1
  1
strokes_ogs.tif
176
     1
290
     0
176
     1
 40
1.0
176
     1
 40
1.0
176
     1
  0
VISUALSTYLE
  5
34
102
{ACAD_REACTORS
330
29
102
}
330
29
100
AcDbVisualStyle
  2
Dim
 70
    11
177
     3
291
     1
 70
    58
 90
        2
176
     1
 90
        2
176
     1
 90
        0
176
     1
 90
        0
176
     1
 40
0.6
176
     1
 40
30.0
176
     1
 62
     7
420
 16777215
176
     1
 90
        1
176
     1
 90
        4
176
     1
 62
     7
176
     1
 62
   257
176
     1
 90
        1
176
     1
 90
        1
176
     1
 40
1.0
176
     1
 90
        8
176
     1
 62
     7
176
     1
 40
1.0
176
     1
 90
        1
176
     1
 90
        6
176
     1
 90
        2
176
     1
 62
     7
176
     1
 90
        5
176
     1
 90
        0
176
     1
 90
        0
176
     1
290
     0
176
     1
 90
        1
176
     1
 40
-50.0
176
     1
 90
        0
176
     1
290
     0
176
     1
290
     1
176
     1
290
     1
176
     1
290
     0
176
     1
290
     0
176
     1
290
     0
176
     1
290
     0
176
     1
290
     0
176
     1
290
     0
176
     1
 90
       50
176
     1
 40
0.0
176
     1
 40
1.0
176
     1
 90
        0
176
     1
 62
    18
420
        0
176
     1
 90
       50
176
     1
 90
        3
176
     1
 62
     5
420
      255
176
     1
290
     0
176
     1
 90
       50
176
     1
 90
       50
176
     1
 90
       50
176
     1
290
     0
176
     1
 90
       50
176
     1
 62
   256
176
     0
 40
1.0
176
     0
 90
        2
176
     1
  1
strokes_ogs.tif
176
     1
290
     0
176
     1
 40
1.0
176
     1
 40
1.0
176
     1
  0
VISUALSTYLE
  5
41
102
{ACAD_REACTORS
330
29
102
}
330
29
100
AcDbVisualStyle
  2
EdgeColorOff
 70
    22
177
     3
291
     1
 70
    58
 90
        2
176
     0
 90
        2
176
     0
 90
        0
176
     0
 90
        0
176
     0
 40
0.6
176
     0
 40
30.0
176
     0
 62
     7
420
 16777215
176
     0
 90
        1
176
     0
 90
        4
176
     0
 62
     7
176
     0
 62
   257
176
     0
 90
        1
176
     0
 90
        1
176
     0
 40
1.0
176
     0
 90
        8
176
     2
 62
     7
176
     0
 40
1.0
176
     0
 90
        1
176
     0
 90
        6
176
     0
 90
        2
176
     0
 62
     7
176
     0
 90
        5
176
     0
 90
        0
176
     0
 90
        0
176
     0
290
     0
176
     0
 90
        1
176
     0
 40
0.0
176
     0
 90
        0
176
     0
290
     0
176
     0
290
     1
176
     0
290
     1
176
     0
290
     0
176
     0
290
     0
176
     0
290
     0
176
     0
290
     0
176
     0
290
     0
176
     0
290
     0
176
     0
 90
       50
176
     0
 40
0.0
176
     0
 40
1.0
176
     0
 90
        0
176
     0
 62
    18
420
        0
176
     0
 90
       50
176
     0
 90
        3
176
     0
 62
     5
420
      255
176
     0
290
     0
176
     0
 90
       50
176
     0
 90
       50
176
     0
 90
       50
176
     0
290
     0
176
     0
 90
       50
176
     0
 62
   256
176
     0
 40
1.0
176
     0
 90
        2
176
     0
  1
strokes_ogs.tif
176
     0
290
     0
176
     0
 40
1.0
176
     0
 40
1.0
176
     0
  0
VISUALSTYLE
  5
38
102
{ACAD_REACTORS
330
29
102
}
330
29
100
AcDbVisualStyle
  2
Facepattern
 70
    15
177
     3
291
     1
 70
    58
 90
        2
176
     1
 90
        2
176
     1
 90
        0
176
     1
 90
        0
176
     1
 40
0.6
176
     1
 40
30.0
176
     1
 62
     7
420
 16777215
176
     1
 90
        1
176
     1
 90
        4
176
     1
 62
     7
176
     1
 62
   257
176
     1
 90
        1
176
     1
 90
        1
176
     1
 40
1.0
176
     1
 90
        8
176
     1
 62
     7
176
     1
 40
1.0
176
     1
 90
        1
176
     1
 90
        6
176
     1
 90
        2
176
     1
 62
     7
176
     1
 90
        5
176
     1
 90
        0
176
     1
 90
        0
176
     1
290
     0
176
     1
 90
        1
176
     1
 40
0.0
176
     1
 90
        0
176
     1
290
     0
176
     1
290
     1
176
     1
290
     1
176
     1
290
     0
176
     1
290
     0
176
     1
290
     0
176
     1
290
     0
176
     1
290
     0
176
     1
290
     0
176
     1
 90
       50
176
     1
 40
0.0
176
     1
 40
1.0
176
     1
 90
        0
176
     1
 62
    18
420
        0
176
     1
 90
       50
176
     1
 90
        3
176
     1
 62
     5
420
      255
176
     1
290
     0
176
     1
 90
       50
176
     1
 90
       50
176
     1
 90
       50
176
     1
290
     0
176
     1
 90
       50
176
     1
 62
   256
176
     0
 40
1.0
176
     0
 90
        2
176
     1
  1
strokes_ogs.tif
176
     1
290
     0
176
     1
 40
1.0
176
     1
 40
1.0
176
     1
  0
VISUALSTYLE
  5
2A
102
{ACAD_REACTORS
330
29
102
}
330
29
100
AcDbVisualStyle
  2
Flat
 70
     0
177
     3
291
     1
 70
    58
 90
        2
176
     1
 90
        1
176
     1
 90
        1
176
     1
 90
        2
176
     1
 40
0.6
176
     1
 40
30.0
176
     1
 62
     7
420
 16777215
176
     1
 90
        0
176
     1
 90
        0
176
     1
 62
     7
176
     1
 62
   257
176
     1
 90
        1
176
     1
 90
        1
176
     1
 40
1.0
176
     1
 90
        8
176
     1
 62
     7
176
     1
 40
1.0
176
     1
 90
        1
176
     1
 90
        6
176
     1
 90
        2
176
     1
 62
     7
176
     1
 90
        5
176
     1
 90
        0
176
     1
 90
        0
176
     1
290
     0
176
     1
 90
       13
176
     1
 40
0.0
176
     1
 90
        0
176
     1
290
     0
176
     1
290
     1
176
     1
290
     1
176
     1
290
     0
176
     1
290
     0
176
     1
290
     0
176
     1
290
     0
176
     1
290
     0
176
     1
290
     0
176
     1
 90
       50
176
     1
 40
0.0
176
     1
 40
1.0
176
     1
 90
        0
176
     1
 62
    18
420
        0
176
     1
 90
       50
176
     1
 90
        3
176
     1
 62
     5
420
      255
176
     1
290
     0
176
     1
 90
       50
176
     1
 90
       50
176
     1
 90
       50
176
     1
290
     0
176
     1
 90
       50
176
     1
 62
   256
176
     0
 40
1.0
176
     0
 90
        2
176
     1
  1
strokes_ogs.tif
176
     1
290
     0
176
     1
 40
1.0
176
     1
 40
1.0
176
     1
  0
VISUALSTYLE
  5
2B
102
{ACAD_REACTORS
330
29
102
}
330
29
100
AcDbVisualStyle
  2
FlatWithEdges
 70
     1
177
     3
291
     1
 70
    58
 90
        2
176
     1
 90
        1
176
     1
 90
        1
176
     1
 90
        2
176
     1
 40
0.6
176
     1
 40
30.0
176
     1
 62
     7
420
 16777215
176
     1
 90
        1
176
     1
 90
        0
176
     1
 62
     7
176
     1
 62
   257
176
     1
 90
        1
176
     1
 90
        1
176
     1
 40
1.0
176
     1
 90
        0
176
     1
 62
   257
176
     1
 40
1.0
176
     1
 90
        1
176
     1
 90
        6
176
     1
 90
        2
176
     1
 62
     7
176
     1
 90
        5
176
     1
 90
        0
176
     1
 90
        0
176
     1
290
     0
176
     1
 90
       13
176
     1
 40
0.0
176
     1
 90
        0
176
     1
290
     0
176
     1
290
     1
176
     1
290
     1
176
     1
290
     0
176
     1
290
     0
176
     1
290
     0
176
     1
290
     0
176
     1
290
     0
176
     1
290
     0
176
     1
 90
       50
176
     1
 40
0.0
176
     1
 40
1.0
176
     1
 90
        0
176
     1
 62
    18
420
        0
176
     1
 90
       50
176
     1
 90
        3
176
     1
 62
     5
420
      255
176
     1
290
     0
176
     1
 90
       50
176
     1
 90
       50
176
     1
 90
       50
176
     1
290
     0
176
     1
 90
       50
176
     1
 62
   256
176
     0
 40
1.0
176
     0
 90
        2
176
     1
  1
strokes_ogs.tif
176
     1
290
     0
176
     1
 40
1.0
176
     1
 40
1.0
176
     1
  0
VISUALSTYLE
  5
2C
102
{ACAD_REACTORS
330
29
102
}
330
29
100
AcDbVisualStyle
  2
Gouraud
 70
     2
177
     3
291
     1
 70
    58
 90
        2
176
     1
 90
        2
176
     1
 90
        1
176
     1
 90
        2
176
     1
 40
0.6
176
     1
 40
30.0
176
     1
 62
     7
420
 16777215
176
     1
 90
        0
176
     1
 90
        0
176
     1
 62
     7
176
     1
 62
   257
176
     1
 90
        1
176
     1
 90
        1
176
     1
 40
1.0
176
     1
 90
        0
176
     1
 62
     7
176
     1
 40
1.0
176
     1
 90
        1
176
     1
 90
        6
176
     1
 90
        2
176
     1
 62
     7
176
     1
 90
        5
176
     1
 90
        0
176
     1
 90
        0
176
     1
290
     0
176
     1
 90
       13
176
     1
 40
0.0
176
     1
 90
        0
176
     1
290
     0
176
     1
290
     1
176
     1
290
     1
176
     1
290
     0
176
     1
290
     0
176
     1
290
     0
176
     1
290
     0
176
     1
290
     0
176
     1
290
     0
176
     1
 90
       50
176
     1
 40
0.0
176
     1
 40
1.0
176
     1
 90
        0
176
     1
 62
    18
420
        0
176
     1
 90
       50
176
     1
 90
        3
176
     1
 62
     5
420
      255
176
     1
290
     0
176
     1
 90
       50
176
     1
 90
       50
176
     1
 90
       50
176
     1
290
     0
176
     1
 90
       50
176
     1
 62
   256
176
     0
 40
1.0
176
     0
 90
        2
176
     1
  1
strokes_ogs.tif
176
     1
290
     0
176
     1
 40
1.0
176
     1
 40
1.0
176
     1
  0
VISUALSTYLE
  5
2D
102
{ACAD_REACTORS
330
29
102
}
330
29
100
AcDbVisualStyle
  2
GouraudWithEdges
 70
     3
177
     3
291
     1
 70
    58
 90
        2
176
     1
 90
        2
176
     1
 90
        1
176
     1
 90
        2
176
     1
 40
0.6
176
     1
 40
30.0
176
     1
 62
     7
420
 16777215
176
     1
 90
        1
176
     1
 90
        0
176
     1
 62
     7
176
     1
 62
   257
176
     1
 90
        1
176
     1
 90
        1
176
     1
 40
1.0
176
     1
 90
        0
176
     1
 62
   257
176
     1
 40
1.0
176
     1
 90
        1
176
     1
 90
        6
176
     1
 90
        2
176
     1
 62
     7
176
     1
 90
        5
176
     1
 90
        0
176
     1
 90
        0
176
     1
290
     0
176
     1
 90
       13
176
     1
 40
0.0
176
     1
 90
        0
176
     1
290
     0
176
     1
290
     1
176
     1
290
     1
176
     1
290
     0
176
     1
290
     0
176
     1
290
     0
176
     1
290
     0
176
     1
290
     0
176
     1
290
     0
176
     1
 90
       50
176
     1
 40
0.0
176
     1
 40
1.0
176
     1
 90
        0
176
     1
 62
    18
420
        0
176
     1
 90
       50
176
     1
 90
        3
176
     1
 62
     5
420
      255
176
     1
290
     0
176
     1
 90
       50
176
     1
 90
       50
176
     1
 90
       50
176
     1
290
     0
176
     1
 90
       50
176
     1
 62
   256
176
     0
 40
1.0
176
     0
 90
        2
176
     1
  1
strokes_ogs.tif
176
     1
290
     0
176
     1
 40
1.0
176
     1
 40
1.0
176
     1
  0
VISUALSTYLE
  5
31
102
{ACAD_REACTORS
330
29
102
}
330
29
100
AcDbVisualStyle
  2
Hidden
 70
     6
177
     3
291
     0
 70
    58
 90
        1
176
     1
 90
        2
176
     1
 90
        2
176
     1
 90
        0
176
     1
 40
0.6
176
     1
 40
30.0
176
     1
 62
     7
420
 16777215
176
     1
 90
        2
176
     1
 90
        2
176
     1
 62
     7
176
     1
 62
   257
176
     1
 90
        2
176
     1
 90
        1
176
     1
 40
40.0
176
     1
 90
        0
176
     1
 62
   257
176
     1
 40
1.0
176
     1
 90
        1
176
     1
 90
        6
176
     1
 90
        2
176
     1
 62
     7
176
     1
 90
        3
176
     1
 90
        0
176
     1
 90
        0
176
     1
290
     0
176
     1
 90
        1
176
     1
 40
0.0
176
     1
 90
        0
176
     1
290
     0
176
     1
290
     1
176
     1
290
     1
176
     1
290
     0
176
     1
290
     0
176
     1
290
     0
176
     1
290
     0
176
     1
290
     0
176
     1
290
     0
176
     1
 90
       50
176
     1
 40
0.0
176
     1
 40
1.0
176
     1
 90
        0
176
     1
 62
    18
420
        0
176
     1
 90
       50
176
     1
 90
        3
176
     1
 62
     5
420
      255
176
     1
290
     0
176
     1
 90
       50
176
     1
 90
       50
176
     1
 90
       50
176
     1
290
     0
176
     1
 90
       50
176
     1
 62
   256
176
     0
 40
1.0
176
     0
 90
        2
176
     1
  1
strokes_ogs.tif
176
     1
290
     0
176
     1
 40
1.0
176
     1
 40
1.0
176
     1
  0
VISUALSTYLE
  5
3F
102
{ACAD_REACTORS
330
29
102
}
330
29
100
AcDbVisualStyle
  2
JitterOff
 70
    20
177
     3
291
     1
 70
    58
 90
        2
176
     0
 90
        2
176
     0
 90
        0
176
     0
 90
        0
176
     0
 40
0.6
176
     0
 40
30.0
176
     0
 62
     7
420
 16777215
176
     0
 90
        1
176
     0
 90
        4
176
     0
 62
     7
176
     0
 62
   257
176
     0
 90
        1
176
     0
 90
        1
176
     0
 40
1.0
176
     0
 90
       10
176
     2
 62
     7
176
     0
 40
1.0
176
     0
 90
        1
176
     0
 90
        6
176
     0
 90
        2
176
     0
 62
     7
176
     0
 90
        5
176
     0
 90
        0
176
     0
 90
        0
176
     0
290
     0
176
     0
 90
        1
176
     0
 40
0.0
176
     0
 90
        0
176
     0
290
     0
176
     0
290
     1
176
     0
290
     1
176
     0
290
     0
176
     0
290
     0
176
     0
290
     0
176
     0
290
     0
176
     0
290
     0
176
     0
290
     0
176
     0
 90
       50
176
     0
 40
0.0
176
     0
 40
1.0
176
     0
 90
        0
176
     0
 62
    18
420
        0
176
     0
 90
       50
176
     0
 90
        3
176
     0
 62
     5
420
      255
176
     0
290
     0
176
     0
 90
       50
176
     0
 90
       50
176
     0
 90
       50
176
     0
290
     0
176
     0
 90
       50
176
     0
 62
   256
176
     0
 40
1.0
176
     0
 90
        2
176
     0
  1
strokes_ogs.tif
176
     0
290
     0
176
     0
 40
1.0
176
     0
 40
1.0
176
     0
  0
VISUALSTYLE
  5
37
102
{ACAD_REACTORS
330
29
102
}
330
29
100
AcDbVisualStyle
  2
Linepattern
 70
    14
177
     3
291
     1
 70
    58
 90
        2
176
     1
 90
        2
176
     1
 90
        0
176
     1
 90
        0
176
     1
 40
0.6
176
     1
 40
30.0
176
     1
 62
     7
420
 16777215
176
     1
 90
        1
176
     1
 90
        4
176
     1
 62
     7
176
     1
 62
   257
176
     1
 90
        7
176
     1
 90
        7
176
     1
 40
1.0
176
     1
 90
        8
176
     1
 62
     7
176
     1
 40
1.0
176
     1
 90
        1
176
     1
 90
        6
176
     1
 90
        2
176
     1
 62
     7
176
     1
 90
        5
176
     1
 90
        0
176
     1
 90
        0
176
     1
290
     0
176
     1
 90
        1
176
     1
 40
0.0
176
     1
 90
        0
176
     1
290
     0
176
     1
290
     1
176
     1
290
     1
176
     1
290
     0
176
     1
290
     0
176
     1
290
     0
176
     1
290
     0
176
     1
290
     0
176
     1
290
     0
176
     1
 90
       50
176
     1
 40
0.0
176
     1
 40
1.0
176
     1
 90
        0
176
     1
 62
    18
420
        0
176
     1
 90
       50
176
     1
 90
        3
176
     1
 62
     5
420
      255
176
     1
290
     0
176
     1
 90
       50
176
     1
 90
       50
176
     1
 90
       50
176
     1
290
     0
176
     1
 90
       50
176
     1
 62
   256
176
     0
 40
1.0
176
     0
 90
        2
176
     1
  1
strokes_ogs.tif
176
     1
290
     0
176
     1
 40
1.0
176
     1
 40
1.0
176
     1
  0
VISUALSTYLE
  5
40
102
{ACAD_REACTORS
330
29
102
}
330
29
100
AcDbVisualStyle
  2
OverhangOff
 70
    21
177
     3
291
     1
 70
    58
 90
        2
176
     0
 90
        2
176
     0
 90
        0
176
     0
 90
        0
176
     0
 40
0.6
176
     0
 40
30.0
176
     0
 62
     7
420
 16777215
176
     0
 90
        1
176
     0
 90
        4
176
     0
 62
     7
176
     0
 62
   257
176
     0
 90
        1
176
     0
 90
        1
176
     0
 40
1.0
176
     0
 90
        9
176
     2
 62
     7
176
     0
 40
1.0
176
     0
 90
        1
176
     0
 90
        6
176
     0
 90
        2
176
     0
 62
     7
176
     0
 90
        5
176
     0
 90
        0
176
     0
 90
        0
176
     0
290
     0
176
     0
 90
        1
176
     0
 40
0.0
176
     0
 90
        0
176
     0
290
     0
176
     0
290
     1
176
     0
290
     1
176
     0
290
     0
176
     0
290
     0
176
     0
290
     0
176
     0
290
     0
176
     0
290
     0
176
     0
290
     0
176
     0
 90
       50
176
     0
 40
0.0
176
     0
 40
1.0
176
     0
 90
        0
176
     0
 62
    18
420
        0
176
     0
 90
       50
176
     0
 90
        3
176
     0
 62
     5
420
      255
176
     0
290
     0
176
     0
 90
       50
176
     0
 90
       50
176
     0
 90
       50
176
     0
290
     0
176
     0
 90
       50
176
     0
 62
   256
176
     0
 40
1.0
176
     0
 90
        2
176
     0
  1
strokes_ogs.tif
176
     0
290
     0
176
     0
 40
1.0
176
     0
 40
1.0
176
     0
  0
VISUALSTYLE
  5
33
102
{ACAD_REACTORS
330
29
102
}
330
29
100
AcDbVisualStyle
  2
Realistic
 70
     8
177
     3
291
     0
 70
    58
 90
        2
176
     1
 90
        3
176
     1
 90
        0
176
     1
 90
        2
176
     1
 40
0.6
176
     1
 40
30.0
176
     1
 62
     7
420
 16777215
176
     1
 90
        0
176
     1
 90
        0
176
     1
 62
     7
176
     1
 62
   257
176
     1
 90
        1
176
     1
 90
        1
176
     1
 40
1.0
176
     1
 90
        8
176
     1
 62
   257
176
     1
 40
1.0
176
     1
 90
        1
176
     1
 90
        6
176
     1
 90
        2
176
     1
 62
     7
176
     1
 90
        3
176
     1
 90
        0
176
     1
 90
        0
176
     1
290
     0
176
     1
 90
       13
176
     1
 40
0.0
176
     1
 90
        0
176
     1
290
     0
176
     1
290
     1
176
     1
290
     1
176
     1
290
     0
176
     1
290
     0
176
     1
290
     0
176
     1
290
     0
176
     1
290
     0
176
     1
290
     0
176
     1
 90
       50
176
     1
 40
0.0
176
     1
 40
1.0
176
     1
 90
        0
176
     1
 62
    18
420
        0
176
     1
 90
       50
176
     1
 90
        3
176
     1
 62
     5
420
      255
176
     1
290
     0
176
     1
 90
       50
176
     1
 90
       50
176
     1
 90
       50
176
     1
290
     0
176
     1
 90
       50
176
     1
 62
   256
176
     0
 40
1.0
176
     0
 90
        2
176
     1
  1
strokes_ogs.tif
176
     1
290
     0
176
     1
 40
1.0
176
     1
 40
1.0
176
     1
  0
VISUALSTYLE
  5
3E
102
{ACAD_REACTORS
330
29
102
}
330
29
100
AcDbVisualStyle
  2
Shaded
 70
    27
177
     3
291
     0
 70
    58
 90
        2
176
     1
 90
        2
176
     1
 90
        1
176
     1
 90
        2
176
     1
 40
0.6
176
     1
 40
30.0
176
     1
 62
     7
420
 16777215
176
     1
 90
        0
176
     1
 90
        4
176
     1
 62
     7
176
     1
 62
   257
176
     1
 90
        1
176
     1
 90
        1
176
     1
 40
1.0
176
     1
 90
        8
176
     1
 62
   257
176
     1
 40
1.0
176
     1
 90
        1
176
     1
 90
        6
176
     1
 90
        2
176
     1
 62
     8
420
  7895160
176
     1
 90
        3
176
     1
 90
        0
176
     1
 90
        0
176
     1
290
     0
176
     1
 90
        5
176
     1
 40
0.0
176
     1
 90
        0
176
     1
290
     0
176
     1
290
     1
176
     1
290
     1
176
     1
290
     0
176
     1
290
     0
176
     1
290
     0
176
     1
290
     0
176
     1
290
     0
176
     1
290
     0
176
     1
 90
       50
176
     1
 40
0.0
176
     1
 40
1.0
176
     1
 90
        0
176
     1
 62
    18
420
        0
176
     1
 90
       50
176
     1
 90
        3
176
     1
 62
     5
420
      255
176
     1
290
     0
176
     1
 90
       50
176
     1
 90
       50
176
     1
 90
       50
176
     1
290
     0
176
     1
 90
       50
176
     1
 62
   256
176
     0
 40
1.0
176
     0
 90
        2
176
     1
  1
strokes_ogs.tif
176
     1
290
     0
176
     1
 40
1.0
176
     1
 40
1.0
176
     1
  0
VISUALSTYLE
  5
3D
102
{ACAD_REACTORS
330
29
102
}
330
29
100
AcDbVisualStyle
  2
Shaded with edges
 70
    26
177
     3
291
     0
 70
    58
 90
        2
176
     1
 90
        2
176
     1
 90
        1
176
     1
 90
        2
176
     1
 40
0.6
176
     1
 40
30.0
176
     1
 62
     7
420
 16777215
176
     1
 90
        1
176
     1
 90
        2
176
     1
 62
     7
176
     1
 62
   257
176
     1
 90
        2
176
     1
 90
        1
176
     1
 40
1.0
176
     1
 90
        8
176
     1
 62
   257
176
     1
 40
1.0
176
     1
 90
        1
176
     1
 90
        6
176
     1
 90
        2
176
     1
 62
     7
176
     1
 90
        3
176
     1
 90
        0
176
     1
 90
        0
176
     1
290
     0
176
     1
 90
        5
176
     1
 40
0.0
176
     1
 90
        0
176
     1
290
     0
176
     1
290
     1
176
     1
290
     1
176
     1
290
     0
176
     1
290
     0
176
     1
290
     0
176
     1
290
     0
176
     1
290
     0
176
     1
290
     0
176
     1
 90
       50
176
     1
 40
0.0
176
     1
 40
1.0
176
     1
 90
        0
176
     1
 62
    18
420
        0
176
     1
 90
       50
176
     1
 90
        3
176
     1
 62
     5
420
      255
176
     1
290
     0
176
     1
 90
       50
176
     1
 90
       50
176
     1
 90
       50
176
     1
290
     0
176
     1
 90
       50
176
     1
 62
   256
176
     0
 40
1.0
176
     0
 90
        2
176
     1
  1
strokes_ogs.tif
176
     1
290
     0
176
     1
 40
1.0
176
     1
 40
1.0
176
     1
  0
VISUALSTYLE
  5
3A
102
{ACAD_REACTORS
330
29
102
}
330
29
100
AcDbVisualStyle
  2
Shades of Gray
 70
    23
177
     3
291
     0
 70
    58
 90
        2
176
     1
 90
        2
176
     1
 90
        3
176
     1
 90
        0
176
     1
 40
0.6
176
     1
 40
30.0
176
     1
 62
     7
420
 16777215
176
     1
 90
        2
176
     1
 90
        2
176
     1
 62
     7
176
     1
 62
     7
176
     1
 90
        1
176
     1
 90
        1
176
     1
 40
40.0
176
     1
 90
        8
176
     1
 62
     7
176
     1
 40
1.0
176
     1
 90
        1
176
     1
 90
        6
176
     1
 90
        2
176
     1
 62
     7
176
     1
 90
        3
176
     1
 90
        0
176
     1
 90
        0
176
     1
290
     0
176
     1
 90
        1
176
     1
 40
0.0
176
     1
 90
        0
176
     1
290
     0
176
     1
290
     1
176
     1
290
     1
176
     1
290
     0
176
     1
290
     0
176
     1
290
     0
176
     1
290
     0
176
     1
290
     0
176
     1
290
     0
176
     1
 90
       50
176
     1
 40
0.0
176
     1
 40
1.0
176
     1
 90
        0
176
     1
 62
    18
420
        0
176
     1
 90
       50
176
     1
 90
        3
176
     1
 62
     5
420
      255
176
     1
290
     0
176
     1
 90
       50
176
     1
 90
       50
176
     1
 90
       50
176
     1
290
     0
176
     1
 90
       50
176
     1
 62
   256
176
     0
 40
1.0
176
     0
 90
        2
176
     1
  1
strokes_ogs.tif
176
     1
290
     0
176
     1
 40
1.0
176
     1
 40
1.0
176
     1
  0
VISUALSTYLE
  5
3B
102
{ACAD_REACTORS
330
29
102
}
330
29
100
AcDbVisualStyle
  2
Sketchy
 70
    24
177
     3
291
     0
 70
    58
 90
        1
176
     1
 90
        2
176
     1
 90
        2
176
     1
 90
        0
176
     1
 40
0.6
176
     1
 40
30.0
176
     1
 62
     7
420
 16777215
176
     1
 90
        2
176
     1
 90
        2
176
     1
 62
     7
176
     1
 62
     7
176
     1
 90
        1
176
     1
 90
        1
176
     1
 40
40.0
176
     1
 90
       11
176
     1
 62
     7
176
     1
 40
1.0
176
     1
 90
        1
176
     1
 90
        6
176
     1
 90
        2
176
     1
 62
     7
176
     1
 90
        6
176
     1
 90
        0
176
     1
 90
        0
176
     1
290
     0
176
     1
 90
        1
176
     1
 40
0.0
176
     1
 90
        0
176
     1
290
     0
176
     1
290
     1
176
     1
290
     1
176
     1
290
     0
176
     1
290
     0
176
     1
290
     0
176
     1
290
     0
176
     1
290
     0
176
     1
290
     0
176
     1
 90
       50
176
     1
 40
0.0
176
     1
 40
1.0
176
     1
 90
        0
176
     1
 62
    18
420
        0
176
     1
 90
       50
176
     1
 90
        3
176
     1
 62
     5
420
      255
176
     1
290
     0
176
     1
 90
       50
176
     1
 90
       50
176
     1
 90
       50
176
     1
290
     0
176
     1
 90
       50
176
     1
 62
   256
176
     0
 40
1.0
176
     0
 90
        2
176
     1
  1
strokes_ogs.tif
176
     1
290
     0
176
     1
 40
1.0
176
     1
 40
1.0
176
     1
  0
VISUALSTYLE
  5
36
102
{ACAD_REACTORS
330
29
102
}
330
29
100
AcDbVisualStyle
  2
Thicken
 70
    13
177
     3
291
     1
 70
    58
 90
        2
176
     1
 90
        2
176
     1
 90
        0
176
     1
 90
        0
176
     1
 40
0.6
176
     1
 40
30.0
176
     1
 62
     7
420
 16777215
176
     1
 90
        1
176
     1
 90
        4
176
     1
 62
     7
176
     1
 62
   257
176
     1
 90
        1
176
     1
 90
        1
176
     1
 40
1.0
176
     1
 90
       12
176
     1
 62
     7
176
     1
 40
1.0
176
     1
 90
        1
176
     1
 90
        6
176
     1
 90
        2
176
     1
 62
     7
176
     1
 90
        5
176
     1
 90
        0
176
     1
 90
        0
176
     1
290
     0
176
     1
 90
        1
176
     1
 40
0.0
176
     1
 90
        0
176
     1
290
     0
176
     1
290
     1
176
     1
290
     1
176
     1
290
     0
176
     1
290
     0
176
     1
290
     0
176
     1
290
     0
176
     1
290
     0
176
     1
290
     0
176
     1
 90
       50
176
     1
 40
0.0
176
     1
 40
1.0
176
     1
 90
        0
176
     1
 62
    18
420
        0
176
     1
 90
       50
176
     1
 90
        3
176
     1
 62
     5
420
      255
176
     1
290
     0
176
     1
 90
       50
176
     1
 90
       50
176
     1
 90
       50
176
     1
290
     0
176
     1
 90
       50
176
     1
 62
   256
176
     0
 40
1.0
176
     0
 90
        2
176
     1
  1
strokes_ogs.tif
176
     1
290
     0
176
     1
 40
1.0
176
     1
 40
1.0
176
     1
  0
VISUALSTYLE
  5
30
102
{ACAD_REACTORS
330
29
102
}
330
29
100
AcDbVisualStyle
  2
Wireframe
 70
     5
177
     3
291
     0
 70
    58
 90
        0
176
     1
 90
        2
176
     1
 90
        0
176
     1
 90
        0
176
     1
 40
0.6
176
     1
 40
30.0
176
     1
 62
     7
420
 16777215
176
     1
 90
        1
176
     1
 90
        4
176
     1
 62
     7
176
     1
 62
   257
176
     1
 90
        1
176
     1
 90
        1
176
     1
 40
1.0
176
     1
 90
        0
176
     1
 62
   257
176
     1
 40
1.0
176
     1
 90
        1
176
     1
 90
        6
176
     1
 90
        2
176
     1
 62
     7
176
     1
 90
        3
176
     1
 90
        0
176
     1
 90
        0
176
     1
290
     0
176
     1
 90
        1
176
     1
 40
0.0
176
     1
 90
        0
176
     1
290
     0
176
     1
290
     1
176
     1
290
     1
176
     1
290
     0
176
     1
290
     0
176
     1
290
     0
176
     1
290
     0
176
     1
290
     0
176
     1
290
     0
176
     1
 90
       50
176
     1
 40
0.0
176
     1
 40
1.0
176
     1
 90
        0
176
     1
 62
    18
420
        0
176
     1
 90
       50
176
     1
 90
        3
176
     1
 62
     5
420
      255
176
     1
290
     0
176
     1
 90
       50
176
     1
 90
       50
176
     1
 90
       50
176
     1
290
     0
176
     1
 90
       50
176
     1
 62
   256
176
     0
 40
1.0
176
     0
 90
        2
176
     1
  1
strokes_ogs.tif
176
     1
290
     0
176
     1
 40
1.0
176
     1
 40
1.0
176
     1
  0
VISUALSTYLE
  5
3C
102
{ACAD_REACTORS
330
29
102
}
330
29
100
AcDbVisualStyle
  2
X-Ray
 70
    25
177
     3
291
     0
 70
    58
 90
        2
176
     1
 90
        2
176
     1
 90
        1
176
     1
 90
        1
176
     1
 40
0.5
176
     1
 40
30.0
176
     1
 62
     7
420
 16777215
176
     1
 90
        1
176
     1
 90
        0
176
     1
 62
     7
176
     1
 62
   257
176
     1
 90
        1
176
     1
 90
        1
176
     1
 40
1.0
176
     1
 90
        8
176
     1
 62
     7
176
     1
 40
1.0
176
     1
 90
        1
176
     1
 90
        6
176
     1
 90
        2
176
     1
 62
     7
176
     1
 90
        3
176
     1
 90
        0
176
     1
 90
        0
176
     1
290
     0
176
     1
 90
       13
176
     1
 40
0.0
176
     1
 90
        0
176
     1
290
     0
176
     1
290
     1
176
     1
290
     1
176
     1
290
     0
176
     1
290
     0
176
     1
290
     0
176
     1
290
     0
176
     1
290
     0
176
     1
290
     0
176
     1
 90
       50
176
     1
 40
0.0
176
     1
 40
1.0
176
     1
 90
        0
176
     1
 62
    18
420
        0
176
     1
 90
       50
176
     1
 90
        3
176
     1
 62
     5
420
      255
176
     1
290
     0
176
     1
 90
       50
176
     1
 90
       50
176
     1
 90
       50
176
     1
290
     0
176
     1
 90
       50
176
     1
 62
   256
176
     0
 40
1.0
176
     0
 90
        2
176
     1
  1
strokes_ogs.tif
176
     1
290
     0
176
     1
 40
1.0
176
     1
 40
1.0
176
     1
  0
DICTIONARYVAR
  5
A9
102
{ACAD_REACTORS
330
A4
102
}
330
A4
100
DictionaryVariables
280
     0
  1
1:1
  0
DICTIONARYVAR
  5
A6
102
{ACAD_REACTORS
330
A4
102
}
330
A4
100
DictionaryVariables
280
     0
  1
STANDARD
  0
DICTIONARYVAR
  5
A5
102
{ACAD_REACTORS
330
A4
102
}
330
A4
100
DictionaryVariables
280
     0
  1
STANDARD
  0
DICTIONARYVAR
  5
A7
102
{ACAD_REACTORS
330
A4
102
}
330
A4
100
DictionaryVariables
280
     0
  1
Imperial24
  0
DICTIONARYVAR
  5
A8
102
{ACAD_REACTORS
330
A4
102
}
330
A4
100
DictionaryVariables
280
     0
  1
Imperial24
  0
DICTIONARY
  5
1A
330
19
100
AcDbDictionary
280
     1
281
     1
  3
BUMPTILE
360
1C
  3
DIFFUSETILE
360
1B
  3
OPACITYTILE
360
1F
  3
REFLECTIONTILE
360
1E
  3
REFRACTIONTILE
360
20
  3
SPECULARTILE
360
1D
  0
DICTIONARY
  5
12
330
11
100
AcDbDictionary
280
     1
281
     1
  3
BUMPTILE
360
14
  3
DIFFUSETILE
360
13
  3
OPACITYTILE
360
17
  3
REFLECTIONTILE
360
16
  3
REFRACTIONTILE
360
18
  3
SPECULARTILE
360
15
  0
DICTIONARY
  5
22
330
21
100
AcDbDictionary
280
     1
281
     1
  3
BUMPTILE
360
24
  3
DIFFUSETILE
360
23
  3
OPACITYTILE
360
27
  3
REFLECTIONTILE
360
26
  3
REFRACTIONTILE
360
28
  3
SPECULARTILE
360
25
  0
DICTIONARY
  5
AA
330
65
100
AcDbDictionary
280
     1
281
     1
  3
ACAD_ROUNDTRIP_2008_TABLESTYLE_CELLSTYLEMAP
360
AB
  0
XRECORD
  5
1C
102
{ACAD_REACTORS
330
1A
102
}
330
1A
100
AcDbXrecord
280
     1
270
     1
271
     1
  0
XRECORD
  5
1B
102
{ACAD_REACTORS
330
1A
102
}
330
1A
100
AcDbXrecord
280
     1
270
     1
271
     1
  0
XRECORD
  5
1F
102
{ACAD_REACTORS
330
1A
102
}
330
1A
100
AcDbXrecord
280
     1
270
     1
271
     1
  0
XRECORD
  5
1E
102
{ACAD_REACTORS
330
1A
102
}
330
1A
100
AcDbXrecord
280
     1
270
     1
271
     1
  0
XRECORD
  5
20
102
{ACAD_REACTORS
330
1A
102
}
330
1A
100
AcDbXrecord
280
     1
270
     1
271
     1
  0
XRECORD
  5
1D
102
{ACAD_REACTORS
330
1A
102
}
330
1A
100
AcDbXrecord
280
     1
270
     1
271
     1
  0
XRECORD
  5
14
102
{ACAD_REACTORS
330
12
102
}
330
12
100
AcDbXrecord
280
     1
270
     1
271
     1
  0
XRECORD
  5
13
102
{ACAD_REACTORS
330
12
102
}
330
12
100
AcDbXrecord
280
     1
270
     1
271
     1
  0
XRECORD
  5
17
102
{ACAD_REACTORS
330
12
102
}
330
12
100
AcDbXrecord
280
     1
270
     1
271
     1
  0
XRECORD
  5
16
102
{ACAD_REACTORS
330
12
102
}
330
12
100
AcDbXrecord
280
     1
270
     1
271
     1
  0
XRECORD
  5
18
102
{ACAD_REACTORS
330
12
102
}
330
12
100
AcDbXrecord
280
     1
270
     1
271
     1
  0
XRECORD
  5
15
102
{ACAD_REACTORS
330
12
102
}
330
12
100
AcDbXrecord
280
     1
270
     1
271
     1
  0
XRECORD
  5
24
102
{ACAD_REACTORS
330
22
102
}
330
22
100
AcDbXrecord
280
     1
270
     1
271
     1
  0
XRECORD
  5
23
102
{ACAD_REACTORS
330
22
102
}
330
22
100
AcDbXrecord
280
     1
270
     1
271
     1
  0
XRECORD
  5
27
102
{ACAD_REACTORS
330
22
102
}
330
22
100
AcDbXrecord
280
     1
270
     1
271
     1
  0
XRECORD
  5
26
102
{ACAD_REACTORS
330
22
102
}
330
22
100
AcDbXrecord
280
     1
270
     1
271
     1
  0
XRECORD
  5
28
102
{ACAD_REACTORS
330
22
102
}
330
22
100
AcDbXrecord
280
     1
270
     1
271
     1
  0
XRECORD
  5
25
102
{ACAD_REACTORS
330
22
102
}
330
22
100
AcDbXrecord
280
     1
270
     1
271
     1
  0
CELLSTYLEMAP
  5
AB
102
{ACAD_REACTORS
330
AA
102
}
330
AA
100
AcDbCellStyleMap
 90
        3
300
CELLSTYLE
  1
TABLEFORMAT_BEGIN
 90
        5
170
     1
 91
        0
 92
    32768
 62
   257
 93
        1
300
CONTENTFORMAT
  1
CONTENTFORMAT_BEGIN
 90
        0
 91
        0
 92
      512
 93
        0
300

 40
0.0
140
1.0
 94
        5
 62
     0
340
55
144
0.25
309
CONTENTFORMAT_END
171
     0
 94
        0
309
TABLEFORMAT_END
  1
CELLSTYLE_BEGIN
 90
        1
 91
        1
300
_TITLE
309
CELLSTYLE_END
300
CELLSTYLE
  1
TABLEFORMAT_BEGIN
 90
        5
170
     1
 91
        0
 92
        0
 62
   257
 93
        1
300
CONTENTFORMAT
  1
CONTENTFORMAT_BEGIN
 90
        0
 91
        0
 92
      512
 93
        0
300

 40
0.0
140
1.0
 94
        5
 62
     0
340
55
144
0.18
309
CONTENTFORMAT_END
171
     0
 94
        0
309
TABLEFORMAT_END
  1
CELLSTYLE_BEGIN
 90
        2
 91
        1
300
_HEADER
309
CELLSTYLE_END
300
CELLSTYLE
  1
TABLEFORMAT_BEGIN
 90
        5
170
     1
 91
        0
 92
        0
 62
   257
 93
        1
300
CONTENTFORMAT
  1
CONTENTFORMAT_BEGIN
 90
        0
 91
        0
 92
      512
 93
        0
300

 40
0.0
140
1.0
 94
        2
 62
     0
340
55
144
0.18
309
CONTENTFORMAT_END
171
     0
 94
        0
309
TABLEFORMAT_END
  1
CELLSTYLE_BEGIN
 90
        3
 91
        2
300
_DATA
309
CELLSTYLE_END
  0
ENDSEC
  0
EOF
