  0
SECTION
  2
HEADER
  9
$ACADVER
  1
AC1032
  9
$ACADMAINTVER
 90
      251
  9
$DWGCODEPAGE
  3
ANSI_1252
  9
$REQUIREDVERSIONS
160
                 0
  9
$INSBASE
 10
0.0
 20
0.0
 30
0.0
  9
$EXTMIN
 10
1.000000000000000E+20
 20
1.000000000000000E+20
 30
1.000000000000000E+20
  9
$EXTMAX
 10
-1.000000000000000E+20
 20
-1.000000000000000E+20
 30
-1.000000000000000E+20
  9
$LIMMIN
 10
0.0
 20
0.0
  9
$LIMMAX
 10
12.0
 20
9.0
  9
$ORTHOMODE
 70
     0
  9
$REGENMODE
 70
     1
  9
$FILLMODE
 70
     1
  9
$QTEXTMODE
 70
     0
  9
$MIRRTEXT
 70
     0
  9
$LTSCALE
 40
1.0
  9
$ATTMODE
 70
     1
  9
$TEXTSIZE
 40
0.2
  9
$TRACEWID
 40
0.05
  9
$TEXTSTYLE
  7
Standard
  9
$CLAYER
  8
0
  9
$CELTYPE
  6
ByLayer
  9
$CECOLOR
 62
   256
  9
$CELTSCALE
 40
1.0
  9
$DISPSILH
 70
     0
  9
$DIMSCALE
 40
1.0
  9
$DIMASZ
 40
0.18
  9
$DIMEXO
 40
0.0625
  9
$DIMDLI
 40
0.38
  9
$DIMRND
 40
0.0
  9
$DIMDLE
 40
0.0
  9
$DIMEXE
 40
0.18
  9
$DIMTP
 40
0.0
  9
$DIMTM
 40
0.0
  9
$DIMTXT
 40
0.18
  9
$DIMCEN
 40
0.09
  9
$DIMTSZ
 40
0.0
  9
$DIMTOL
 70
     0
  9
$DIMLIM
 70
     0
  9
$DIMTIH
 70
     1
  9
$DIMTOH
 70
     1
  9
$DIMSE1
 70
     0
  9
$DIMSE2
 70
     0
  9
$DIMTAD
 70
     0
  9
$DIMZIN
 70
     0
  9
$DIMBLK
  1

  9
$DIMASO
 70
     1
  9
$DIMSHO
 70
     1
  9
$DIMPOST
  1

  9
$DIMAPOST
  1

  9
$DIMALT
 70
     0
  9
$DIMALTD
 70
     2
  9
$DIMALTF
 40
25.4
  9
$DIMLFAC
 40
1.0
  9
$DIMTOFL
 70
     0
  9
$DIMTVP
 40
0.0
  9
$DIMTIX
 70
     0
  9
$DIMSOXD
 70
     0
  9
$DIMSAH
 70
     0
  9
$DIMBLK1
  1

  9
$DIMBLK2
  1

  9
$DIMSTYLE
  2
Standard
  9
$DIMCLRD
 70
     0
  9
$DIMCLRE
 70
     0
  9
$DIMCLRT
 70
     0
  9
$DIMTFAC
 40
1.0
  9
$DIMGAP
 40
0.09
  9
$DIMJUST
 70
     0
  9
$DIMSD1
 70
     0
  9
$DIMSD2
 70
     0
  9
$DIMTOLJ
 70
     1
  9
$DIMTZIN
 70
     0
  9
$DIMALTZ
 70
     0
  9
$DIMALTTZ
 70
     0
  9
$DIMUPT
 70
     0
  9
$DIMDEC
 70
     4
  9
$DIMTDEC
 70
     4
  9
$DIMALTU
 70
     2
  9
$DIMALTTD
 70
     2
  9
$DIMTXSTY
  7
Standard
  9
$DIMAUNIT
 70
     0
  9
$DIMADEC
 70
     0
  9
$DIMALTRND
 40
0.0
  9
$DIMAZIN
 70
     0
  9
$DIMDSEP
 70
    46
  9
$DIMATFIT
 70
     3
  9
$DIMFRAC
 70
     0
  9
$DIMLDRBLK
  1

  9
$DIMLUNIT
 70
     2
  9
$DIMLWD
 70
    -2
  9
$DIMLWE
 70
    -2
  9
$DIMTMOVE
 70
     0
  9
$DIMFXL
 40
1.0
  9
$DIMFXLON
 70
     0
  9
$DIMJOGANG
 40
0.7853981633974483
  9
$DIMTFILL
 70
     0
  9
$DIMTFILLCLR
 70
     0
  9
$DIMARCSYM
 70
     0
  9
$DIMLTYPE
  6

  9
$DIMLTEX1
  6

  9
$DIMLTEX2
  6

  9
$DIMTXTDIRECTION
 70
     0
  9
$LUNITS
 70
     2
  9
$LUPREC
 70
     4
  9
$SKETCHINC
 40
0.1
  9
$FILLETRAD
 40
0.0
  9
$AUNITS
 70
     0
  9
$AUPREC
 70
     0
  9
$MENU
  1
.
  9
$ELEVATION
 40
0.0
  9
$PELEVATION
 40
0.0
  9
$THICKNESS
 40
0.0
  9
$LIMCHECK
 70
     0
  9
$CHAMFERA
 40
0.0
  9
$CHAMFERB
 40
0.0
  9
$CHAMFERC
 40
0.0
  9
$CHAMFERD
 40
0.0
  9
$SKPOLY
 70
     0
  9
$TDCREATE
 40
2459989.480914352
  9
$TDUCREATE
 40
2459989.439247685
  9
$TDUPDATE
 40
2459989.480914352
  9
$TDUUPDATE
 40
2459989.439247685
  9
$TDINDWG
 40
0.0000000000
  9
$TDUSRTIMER
 40
0.0000000000
  9
$USRTIMER
 70
     1
  9
$ANGBASE
 50
0.0
  9
$ANGDIR
 70
     0
  9
$PDMODE
 70
     0
  9
$PDSIZE
 40
0.0
  9
$PLINEWID
 40
0.0
  9
$SPLFRAME
 70
     0
  9
$SPLINETYPE
 70
     6
  9
$SPLINESEGS
 70
     8
  9
$HANDSEED
  5
A3
  9
$SURFTAB1
 70
     6
  9
$SURFTAB2
 70
     6
  9
$SURFTYPE
 70
     6
  9
$SURFU
 70
     6
  9
$SURFV
 70
     6
  9
$UCSBASE
  2

  9
$UCSNAME
  2

  9
$UCSORG
 10
0.0
 20
0.0
 30
0.0
  9
$UCSXDIR
 10
1.0
 20
0.0
 30
0.0
  9
$UCSYDIR
 10
0.0
 20
1.0
 30
0.0
  9
$UCSORTHOREF
  2

  9
$UCSORTHOVIEW
 70
     0
  9
$UCSORGTOP
 10
0.0
 20
0.0
 30
0.0
  9
$UCSORGBOTTOM
 10
0.0
 20
0.0
 30
0.0
  9
$UCSORGLEFT
 10
0.0
 20
0.0
 30
0.0
  9
$UCSORGRIGHT
 10
0.0
 20
0.0
 30
0.0
  9
$UCSORGFRONT
 10
0.0
 20
0.0
 30
0.0
  9
$UCSORGBACK
 10
0.0
 20
0.0
 30
0.0
  9
$PUCSBASE
  2

  9
$PUCSNAME
  2

  9
$PUCSORG
 10
0.0
 20
0.0
 30
0.0
  9
$PUCSXDIR
 10
1.0
 20
0.0
 30
0.0
  9
$PUCSYDIR
 10
0.0
 20
1.0
 30
0.0
  9
$PUCSORTHOREF
  2

  9
$PUCSORTHOVIEW
 70
     0
  9
$PUCSORGTOP
 10
0.0
 20
0.0
 30
0.0
  9
$PUCSORGBOTTOM
 10
0.0
 20
0.0
 30
0.0
  9
$PUCSORGLEFT
 10
0.0
 20
0.0
 30
0.0
  9
$PUCSORGRIGHT
 10
0.0
 20
0.0
 30
0.0
  9
$PUCSORGFRONT
 10
0.0
 20
0.0
 30
0.0
  9
$PUCSORGBACK
 10
0.0
 20
0.0
 30
0.0
  9
$USERI1
 70
     0
  9
$USERI2
 70
     0
  9
$USERI3
 70
     0
  9
$USERI4
 70
     0
  9
$USERI5
 70
     0
  9
$USERR1
 40
0.0
  9
$USERR2
 40
0.0
  9
$USERR3
 40
0.0
  9
$USERR4
 40
0.0
  9
$USERR5
 40
0.0
  9
$WORLDVIEW
 70
     1
  9
$SHADEDGE
 70
     3
  9
$SHADEDIF
 70
    70
  9
$TILEMODE
 70
     1
  9
$MAXACTVP
 70
    64
  9
$PINSBASE
 10
0.0
 20
0.0
 30
0.0
  9
$PLIMCHECK
 70
     0
  9
$PEXTMIN
 10
1.000000000000000E+20
 20
1.000000000000000E+20
 30
1.000000000000000E+20
  9
$PEXTMAX
 10
-1.000000000000000E+20
 20
-1.000000000000000E+20
 30
-1.000000000000000E+20
  9
$PLIMMIN
 10
0.0
 20
0.0
  9
$PLIMMAX
 10
12.0
 20
9.0
  9
$UNITMODE
 70
     0
  9
$VISRETAIN
 70
     1
  9
$PLINEGEN
 70
     0
  9
$PSLTSCALE
 70
     1
  9
$TREEDEPTH
 70
  3020
  9
$CMLSTYLE
  2
Standard
  9
$CMLJUST
 70
     0
  9
$CMLSCALE
 40
1.0
  9
$PROXYGRAPHICS
 70
     1
  9
$MEASUREMENT
 70
     0
  9
$CELWEIGHT
370
    -1
  9
$ENDCAPS
280
     0
  9
$JOINSTYLE
280
     0
  9
$LWDISPLAY
290
     1
  9
$INSUNITS
 70
     4
  9
$HYPERLINKBASE
  1

  9
$STYLESHEET
  1

  9
$XEDIT
290
     1
  9
$CEPSNTYPE
380
     0
  9
$PSTYLEMODE
290
     1
  9
$FINGERPRINTGUID
  2
{7C338A2D-1D8F-F04A-B581-EAF5B67C6591}
  9
$VERSIONGUID
  2
{2C499501-FF0F-F044-94E2-9CA20A8384BE}
  9
$EXTNAMES
290
     1
  9
$PSVPSCALE
 40
0.0
  9
$OLESTARTUP
290
     0
  9
$SORTENTS
280
   127
  9
$INDEXCTL
280
     0
  9
$HIDETEXT
280
     1
  9
$XCLIPFRAME
280
     2
  9
$HALOGAP
280
     0
  9
$OBSCOLOR
 70
   257
  9
$OBSLTYPE
280
     0
  9
$INTERSECTIONDISPLAY
280
     0
  9
$INTERSECTIONCOLOR
 70
   257
  9
$DIMASSOC
280
     2
  9
$PROJECTNAME
  1

  9
$CAMERADISPLAY
290
     0
  9
$LENSLENGTH
 40
50.0
  9
$CAMERAHEIGHT
 40
0.0
  9
$STEPSPERSEC
 40
2.0
  9
$STEPSIZE
 40
6.0
  9
$3DDWFPREC
 40
2.0
  9
$PSOLWIDTH
 40
0.25
  9
$PSOLHEIGHT
 40
4.0
  9
$LOFTANG1
 40
1.570796326794896
  9
$LOFTANG2
 40
1.570796326794896
  9
$LOFTMAG1
 40
0.0
  9
$LOFTMAG2
 40
0.0
  9
$LOFTPARAM
 70
     7
  9
$LOFTNORMALS
280
     1
  9
$LATITUDE
 40
37.795
  9
$LONGITUDE
 40
-122.394
  9
$NORTHDIRECTION
 40
0.0
  9
$TIMEZONE
 70
 -8000
  9
$LIGHTGLYPHDISPLAY
280
     1
  9
$TILEMODELIGHTSYNCH
280
     1
  9
$CMATERIAL
347
11
  9
$SOLIDHIST
280
     0
  9
$SHOWHIST
280
     1
  9
$DWFFRAME
280
     2
  9
$DGNFRAME
280
     0
  9
$REALWORLDSCALE
290
     1
  9
$INTERFERECOLOR
 62
     1
  9
$INTERFEREOBJVS
345
33
  9
$INTERFEREVPVS
346
30
  9
$CSHADOW
280
     0
  9
$SHADOWPLANELOCATION
 40
0.0
  0
ENDSEC
  0
SECTION
  2
CLASSES
  0
CLASS
  1
ACDBDICTIONARYWDFLT
  2
AcDbDictionaryWithDefault
  3
ObjectDBX Classes
 90
        0
 91
        1
280
     0
281
     0
  0
CLASS
  1
MATERIAL
  2
AcDbMaterial
  3
ObjectDBX Classes
 90
     1153
 91
        3
280
     0
281
     0
  0
CLASS
  1
VISUALSTYLE
  2
AcDbVisualStyle
  3
ObjectDBX Classes
 90
     4095
 91
       24
280
     0
281
     0
  0
CLASS
  1
SCALE
  2
AcDbScale
  3
ObjectDBX Classes
 90
     1153
 91
       17
280
     0
281
     0
  0
CLASS
  1
TABLESTYLE
  2
AcDbTableStyle
  3
ObjectDBX Classes
 90
     4095
 91
        1
280
     0
281
     0
  0
CLASS
  1
MLEADERSTYLE
  2
AcDbMLeaderStyle
  3
ACDB_MLEADERSTYLE_CLASS
 90
     4095
 91
        1
280
     0
281
     0
  0
CLASS
  1
ACDBSECTIONVIEWSTYLE
  2
AcDbSectionViewStyle
  3
ObjectDBX Classes
 90
     1025
 91
        1
280
     0
281
     0
  0
CLASS
  1
ACDBDETAILVIEWSTYLE
  2
AcDbDetailViewStyle
  3
ObjectDBX Classes
 90
     1025
 91
        1
280
     0
281
     0
  0
CLASS
  1
DICTIONARYVAR
  2
AcDbDictionaryVar
  3
ObjectDBX Classes
 90
        0
 91
        5
280
     0
281
     0
  0
CLASS
  1
CELLSTYLEMAP
  2
AcDbCellStyleMap
  3
ObjectDBX Classes
 90
     1152
 91
        1
280
     0
281
     0
  0
ENDSEC
  0
SECTION
  2
TABLES
  0
TABLE
  2
VPORT
  5
8
330
0
100
AcDbSymbolTable
 70
     1
  0
VPORT
  5
57
330
8
100
AcDbSymbolTableRecord
100
AcDbViewportTableRecord
  2
*Active
 70
     0
 10
0.0
 20
0.0
 11
1.0
 21
1.0
 12
0.0
 22
0.0
 13
0.0
 23
0.0
 14
1.0
 24
1.0
 15
0.0
 25
0.0
 16
0.0
 26
0.0
 36
1.0
 17
600.1529968850094
 27
-1000.168184874562
 37
0.0
 40
2040.449791156555
 41
0.6000881750030808
 42
50.0
 43
0.0
 44
0.0
 50
0.0
 51
0.0
 71
     0
 72
   100
 73
     1
 74
     1
 75
     0
 76
     0
 77
     0
 78
     0
281
     0
 65
     1
110
0.0
120
0.0
130
0.0
111
1.0
121
0.0
131
0.0
112
0.0
122
1.0
132
0.0
 79
     0
146
0.0
 60
     3
 61
     5
292
     1
282
     1
141
0.0
142
0.0
 63
   250
421
  3355443
  0
ENDTAB
  0
TABLE
  2
LTYPE
  5
5
330
0
100
AcDbSymbolTable
 70
     1
  0
LTYPE
  5
5B
330
5
100
AcDbSymbolTableRecord
100
AcDbLinetypeTableRecord
  2
ByBlock
 70
     0
  3

 72
    65
 73
     0
 40
0.0
  0
LTYPE
  5
5C
330
5
100
AcDbSymbolTableRecord
100
AcDbLinetypeTableRecord
  2
ByLayer
 70
     0
  3

 72
    65
 73
     0
 40
0.0
  0
LTYPE
  5
5D
330
5
100
AcDbSymbolTableRecord
100
AcDbLinetypeTableRecord
  2
Continuous
 70
     0
  3
Solid line
 72
    65
 73
     0
 40
0.0
  0
ENDTAB
  0
TABLE
  2
LAYER
  5
2
330
0
100
AcDbSymbolTable
 70
     8
  0
LAYER
  5
54
330
2
100
AcDbSymbolTableRecord
100
AcDbLayerTableRecord
  2
0
 70
     0
 62
     7
  6
Continuous
370
    -3
390
F
347
21
348
0
  0
LAYER
  5
78
330
2
100
AcDbSymbolTableRecord
100
AcDbLayerTableRecord
  2
Bounding Box
 70
     0
 62
     7
  6
Continuous
370
     0
390
F
347
21
348
0
  0
LAYER
  5
7A
330
2
100
AcDbSymbolTableRecord
100
AcDbLayerTableRecord
  2
Screws
 70
     0
 62
     7
  6
Continuous
370
     0
390
F
347
21
348
0
  0
LAYER
  5
83
330
2
100
AcDbSymbolTableRecord
100
AcDbLayerTableRecord
  2
2023-004
 70
     0
 62
     7
  6
Continuous
370
     0
390
F
347
21
348
0
  0
LAYER
  5
96
330
2
100
AcDbSymbolTableRecord
100
AcDbLayerTableRecord
  2
2023-003
 70
     5
 62
     7
  6
Continuous
370
     0
390
F
347
21
348
0
  0
LAYER
  5
97
330
2
100
AcDbSymbolTableRecord
100
AcDbLayerTableRecord
  2
2023-002
 70
     5
 62
     7
  6
Continuous
370
     0
390
F
347
21
348
0
  0
LAYER
  5
98
330
2
100
AcDbSymbolTableRecord
100
AcDbLayerTableRecord
  2
2023-001
 70
     5
 62
     7
  6
Continuous
370
     0
390
F
347
21
348
0
  0
LAYER
  5
99
330
2
100
AcDbSymbolTableRecord
100
AcDbLayerTableRecord
  2
10-2022-057
 70
     5
 62
     7
  6
Continuous
370
     0
390
F
347
21
348
0
  0
ENDTAB
  0
TABLE
  2
STYLE
  5
3
330
0
100
AcDbSymbolTable
 70
     2
  0
STYLE
  5
55
330
3
100
AcDbSymbolTableRecord
100
AcDbTextStyleTableRecord
  2
Standard
 70
     0
 40
0.0
 41
1.0
 50
0.0
 71
     0
 42
0.2
  3
txt
  4

  0
STYLE
  5
5A
330
3
100
AcDbSymbolTableRecord
100
AcDbTextStyleTableRecord
  2
Annotative
 70
     0
 40
0.0
 41
1.0
 50
0.0
 71
     0
 42
0.2
  3
txt
  4

1001
AcadAnnotative
1000
AnnotativeData
1002
{
1070
     1
1070
     1
1002
}
  0
ENDTAB
  0
TABLE
  2
VIEW
  5
6
330
0
100
AcDbSymbolTable
 70
     0
  0
ENDTAB
  0
TABLE
  2
UCS
  5
7
330
0
100
AcDbSymbolTable
 70
     0
  0
ENDTAB
  0
TABLE
  2
APPID
  5
9
330
0
100
AcDbSymbolTable
 70
     2
  0
APPID
  5
56
330
9
100
AcDbSymbolTableRecord
100
AcDbRegAppTableRecord
  2
ACAD
 70
     0
  0
APPID
  5
5E
330
9
100
AcDbSymbolTableRecord
100
AcDbRegAppTableRecord
  2
AcadAnnotative
 70
     0
  0
ENDTAB
  0
TABLE
  2
DIMSTYLE
  5
A
330
0
100
AcDbSymbolTable
 70
     2
100
AcDbDimStyleTable
 71
     0
  0
DIMSTYLE
105
58
330
A
100
AcDbSymbolTableRecord
100
AcDbDimStyleTableRecord
  2
Standard
 70
     0
340
55
  0
DIMSTYLE
105
59
330
A
100
AcDbSymbolTableRecord
100
AcDbDimStyleTableRecord
  2
Annotative
 70
     0
340
55
1001
AcadAnnotative
1000
AnnotativeData
1002
{
1070
     1
1070
     1
1002
}
  0
ENDTAB
  0
TABLE
  2
BLOCK_RECORD
  5
1
330
0
100
AcDbSymbolTable
 70
     2
  0
BLOCK_RECORD
  5
70
330
1
100
AcDbSymbolTableRecord
100
AcDbBlockTableRecord
  2
*Model_Space
340
73
 70
     0
280
     1
281
     0
  0
BLOCK_RECORD
  5
6C
330
1
100
AcDbSymbolTableRecord
100
AcDbBlockTableRecord
  2
*Paper_Space
340
6F
 70
     0
280
     1
281
     0
  0
BLOCK_RECORD
  5
74
330
1
100
AcDbSymbolTableRecord
100
AcDbBlockTableRecord
  2
*Paper_Space0
340
77
 70
     0
280
     1
281
     0
  0
BLOCK_RECORD
  5
8C
330
1
100
AcDbSymbolTableRecord
100
AcDbBlockTableRecord
  2
Block_0
340
0
102
{BLKREFS
331
8D
102
}
 70
     0
280
     1
281
     0
  0
ENDTAB
  0
ENDSEC
  0
SECTION
  2
BLOCKS
  0
BLOCK
  5
71
330
70
100
AcDbEntity
  8
0
100
AcDbBlockBegin
  2
*Model_Space
 70
     0
 10
0.0
 20
0.0
 30
0.0
  3
*Model_Space
  1

  0
ENDBLK
  5
72
330
70
100
AcDbEntity
  8
0
100
AcDbBlockEnd
  0
BLOCK
  5
6D
330
6C
100
AcDbEntity
 67
     1
  8
0
100
AcDbBlockBegin
  2
*Paper_Space
 70
     0
 10
0.0
 20
0.0
 30
0.0
  3
*Paper_Space
  1

  0
ENDBLK
  5
6E
330
6C
100
AcDbEntity
 67
     1
  8
0
100
AcDbBlockEnd
  0
BLOCK
  5
75
330
74
100
AcDbEntity
 67
     1
  8
0
100
AcDbBlockBegin
  2
*Paper_Space0
 70
     0
 10
0.0
 20
0.0
 30
0.0
  3
*Paper_Space0
  1

  0
ENDBLK
  5
76
330
74
100
AcDbEntity
 67
     1
  8
0
100
AcDbBlockEnd
  0
BLOCK
  5
8E
330
8C
100
AcDbEntity
  8
0
100
AcDbBlockBegin
  2
Block_0
 70
     0
 10
0.0
 20
0.0
 30
0.0
  3
Block_0
  1

  0
SPLINE
  5
90
330
8C
100
AcDbEntity
  8
2023-004
100
AcDbSpline
210
0.0
220
0.0
230
1.0
 70
     9
 71
     3
 72
   128
 73
   124
 74
     0
 42
0.0000000001
 43
0.0000000001
 40
0.0
 40
0.0
 40
0.0
 40
0.0
 40
1.0
 40
1.0
 40
1.0
 40
2.0
 40
2.0
 40
2.0
 40
3.0
 40
3.0
 40
3.0
 40
4.0
 40
4.0
 40
4.0
 40
5.0
 40
5.0
 40
5.0
 40
6.0
 40
6.0
 40
6.0
 40
7.0
 40
7.0
 40
7.0
 40
8.0
 40
8.0
 40
8.0
 40
9.0
 40
9.0
 40
9.0
 40
10.0
 40
10.0
 40
10.0
 40
11.0
 40
11.0
 40
11.0
 40
12.0
 40
12.0
 40
12.0
 40
13.0
 40
13.0
 40
13.0
 40
14.0
 40
14.0
 40
14.0
 40
15.0
 40
15.0
 40
15.0
 40
16.0
 40
16.0
 40
16.0
 40
17.0
 40
17.0
 40
17.0
 40
18.0
 40
18.0
 40
18.0
 40
19.0
 40
19.0
 40
19.0
 40
20.0
 40
20.0
 40
20.0
 40
21.0
 40
21.0
 40
21.0
 40
22.0
 40
22.0
 40
22.0
 40
23.0
 40
23.0
 40
23.0
 40
24.0
 40
24.0
 40
24.0
 40
25.0
 40
25.0
 40
25.0
 40
26.0
 40
26.0
 40
26.0
 40
27.0
 40
27.0
 40
27.0
 40
28.0
 40
28.0
 40
28.0
 40
29.0
 40
29.0
 40
29.0
 40
30.0
 40
30.0
 40
30.0
 40
31.0
 40
31.0
 40
31.0
 40
32.0
 40
32.0
 40
32.0
 40
33.0
 40
33.0
 40
33.0
 40
34.0
 40
34.0
 40
34.0
 40
35.0
 40
35.0
 40
35.0
 40
36.0
 40
36.0
 40
36.0
 40
37.0
 40
37.0
 40
37.0
 40
38.0
 40
38.0
 40
38.0
 40
39.0
 40
39.0
 40
39.0
 40
40.0
 40
40.0
 40
40.0
 40
41.0
 40
41.0
 40
41.0
 40
41.0
 10
358.5497767929581
 20
-1920.082972067723
 30
0.0
 10
358.4052981010454
 20
-1872.879307257474
 30
0.0
 10
357.6353623237856
 20
-1825.666340689417
 30
0.0
 10
356.2904831737312
 20
-1778.481451649563
 30
0.0
 10
355.6228236686898
 20
-1755.053596566445
 30
0.0
 10
352.0068945110651
 20
-1731.696882705097
 30
0.0
 10
351.6414129437737
 20
-1708.277640360691
 30
0.0
 10
351.1322708947473
 20
-1675.649657784212
 30
0.0
 10
352.4489433255163
 20
-1642.993942189078
 30
0.0
 10
352.9295341457086
 20
-1610.349595409045
 30
0.0
 10
353.3542282916528
 20
-1581.502432872853
 30
0.0
 10
354.0187010833703
 20
-1552.654925827114
 30
0.0
 10
353.9764125362889
 20
-1523.807763290923
 30
0.0
 10
353.948248880697
 20
-1504.609968699368
 30
0.0
 10
352.9160982733162
 20
-1485.411485088716
 30
0.0
 10
352.2380604181254
 20
-1466.216791083098
 30
0.0
 10
351.5677740277765
 20
-1447.241205150342
 30
0.0
 10
350.2014491583264
 20
-1428.27001171433
 30
0.0
 10
350.1832332159481
 20
-1409.296062201929
 30
0.0
 10
350.1593328660192
 20
-1384.415754862229
 30
0.0
 10
351.0906283030694
 20
-1359.533294337851
 30
0.0
 10
351.7358946874566
 20
-1334.655054055442
 30
0.0
 10
352.3144984742044
 20
-1312.344357310803
 30
0.0
 10
353.2308938732808
 20
-1290.042359432264
 30
0.0
 10
353.7000728146783
 20
-1267.730370776817
 30
0.0
 10
354.6873941170574
 20
-1220.775958624927
 30
0.0
 10
355.7275545714414
 20
-1173.820082307456
 30
0.0
 10
356.2301509390457
 20
-1126.859296728919
 30
0.0
 10
356.4332823815949
 20
-1107.877595751676
 30
0.0
 10
354.6528570348177
 20
-1088.873243271618
 30
0.0
 10
354.8970281773348
 20
-1069.893781606441
 30
0.0
 10
355.3037647630621
 20
-1038.275987153625
 30
0.0
 10
356.4244973881074
 20
-1006.662929707101
 30
0.0
 10
357.6205484131991
 20
-975.0621884769376
 30
0.0
 10
358.2591829887773
 20
-958.1889720640551
 30
0.0
 10
359.7702879959949
 20
-941.3504649881868
 30
0.0
 10
360.7368525980754
 20
-924.48758386176
 30
0.0
 10
362.630147885688
 20
-891.4584199160243
 30
0.0
 10
364.9178635426681
 20
-858.4407970401642
 30
0.0
 10
366.1111584913716
 20
-825.3849336044178
 30
0.0
 10
367.347474069947
 20
-791.135861347355
 30
0.0
 10
367.5605101620162
 20
-756.8480317660831
 30
0.0
 10
368.0687478734776
 20
-722.5748438406236
 30
0.0
 10
368.4303106446546
 20
-698.1930848813329
 30
0.0
 10
369.2509323892411
 20
-673.7876839542744
 30
0.0
 10
368.5799139161016
 20
-649.4284473067184
 30
0.0
 10
367.7530048722545
 20
-619.4112872800429
 30
0.0
 10
365.0706535274389
 20
-589.4467080232113
 30
0.0
 10
364.1781584782914
 20
-559.4298494423908
 30
0.0
 10
363.5295761894996
 20
-537.6160215941117
 30
0.0
 10
364.3680693669158
 20
-515.7522829249899
 30
0.0
 10
364.7469437429062
 20
-493.9143824720075
 30
0.0
 10
365.6965412497217
 20
-439.1792652303744
 30
0.0
 10
367.5675295440673
 20
-384.4455260269355
 30
0.0
 10
367.523647640324
 20
-329.7124973744404
 30
0.0
 10
367.4890674943908
 20
-286.5320796674078
 30
0.0
 10
364.9657503699131
 20
-243.3580353870229
 30
0.0
 10
363.9385951509859
 20
-200.1719332724397
 30
0.0
 10
363.5486964694427
 20
-183.7812886096536
 30
0.0
 10
364.3241013357853
 20
-167.3653440268978
 30
0.0
 10
364.4418374739937
 20
-150.959906985372
 30
0.0
 10
364.697980323322
 20
-115.2726150224514
 30
0.0
 10
364.4469189898345
 20
-79.57535381447032
 30
0.0
 10
365.2159934932229
 20
-43.8999474309738
 30
0.0
 10
365.3159873896823
 20
-39.26108329639133
 30
0.0
 10
365.4614996102405
 20
-34.623295754148
 30
0.0
 10
365.6333237475674
 20
-29.98611110361459
 30
0.0
 10
365.6333237475674
 20
-29.98611110361459
 30
0.0
 10
314.9445142170538
 20
-29.98611110361459
 30
0.0
 10
314.9445142170538
 20
-29.98611110361459
 30
0.0
 10
313.4265190188656
 20
-67.59746736320046
 30
0.0
 10
312.6640332605927
 20
-105.2305277243434
 30
0.0
 10
313.7393336889263
 20
-142.9182789763147
 30
0.0
 10
315.0516136229515
 20
-188.9110357871906
 30
0.0
 10
316.1885381967775
 20
-234.9113718081341
 30
0.0
 10
316.9729003113818
 20
-280.9156696888857
 30
0.0
 10
317.7136819680977
 20
-324.3640512291304
 30
0.0
 10
318.3875426450125
 20
-367.8246628583476
 30
0.0
 10
318.1622334002772
 20
-411.2751114558835
 30
0.0
 10
317.978351428752
 20
-446.7159714323748
 30
0.0
 10
315.3671413057069
 20
-482.1604056954321
 30
0.0
 10
315.7305988794007
 20
-517.5839110034165
 30
0.0
 10
316.2438319793158
 20
-567.5920557934318
 30
0.0
 10
319.2053652495172
 20
-617.5736733482108
 30
0.0
 10
319.8079985772746
 20
-667.5825071573231
 30
0.0
 10
320.3142984225256
 20
-709.5991500775916
 30
0.0
 10
319.5016865249423
 20
-751.6554115959403
 30
0.0
 10
318.2354416793387
 20
-793.6624943762372
 30
0.0
 10
317.153509442196
 20
-829.5547049249897
 30
0.0
 10
314.5686542996131
 20
-865.4008373216273
 30
0.0
 10
312.7006374001235
 20
-901.2699657306287
 30
0.0
 10
310.222407962809
 20
-948.8583615791917
 30
0.0
 10
306.9684291496034
 20
-996.4258284726819
 30
0.0
 10
305.5986161209745
 20
-1044.047038855741
 30
0.0
 10
304.4372744328968
 20
-1084.419423828287
 30
0.0
 10
306.0188747064814
 20
-1124.863811296475
 30
0.0
 10
305.396518207071
 20
-1165.261000956514
 30
0.0
 10
304.7453090329717
 20
-1207.535423146467
 30
0.0
 10
302.2850802195677
 20
-1249.783834865505
 30
0.0
 10
301.7489372346756
 20
-1292.057912545909
 30
0.0
 10
301.0103948900252
 20
-1350.294323392895
 30
0.0
 10
300.9900688266622
 20
-1408.546237169565
 30
0.0
 10
301.3313055344762
 20
-1466.787815659779
 30
0.0
 10
301.5444708176261
 20
-1503.168713003114
 30
0.0
 10
303.8445457546595
 20
-1539.547026524835
 30
0.0
 10
303.6390458089644
 20
-1575.917760836489
 30
0.0
 10
303.4387565701907
 20
-1611.36210897216
 30
0.0
 10
300.1386134774827
 20
-1646.799222407311
 30
0.0
 10
300.2504068259791
 20
-1682.232718492202
 30
0.0
 10
300.3496255759543
 20
-1713.65801823478
 30
0.0
 10
303.551841829494
 20
-1745.062647404446
 30
0.0
 10
304.8484896427549
 20
-1776.498626943028
 30
0.0
 10
305.9231871793786
 20
-1802.553195078876
 30
0.0
 10
306.620388378206
 20
-1828.637907800219
 30
0.0
 10
306.7671063821841
 20
-1854.713318763752
 30
0.0
 10
306.9831569328028
 20
-1893.110975004153
 30
0.0
 10
307.2482139666993
 20
-1931.520172314429
 30
0.0
 10
306.7376938794788
 20
-1969.911110618633
 30
0.0
 10
306.7376938794788
 20
-1969.911110618633
 30
0.0
 10
358.0212991455208
 20
-1969.911110618633
 30
0.0
 10
358.0212991455208
 20
-1969.911110618633
 30
0.0
 10
358.397202126655
 20
-1953.301616265147
 30
0.0
 10
358.6005919513655
 20
-1936.689538090046
 30
0.0
 10
358.5497767929581
 20
-1920.082972067723
 30
0.0
  0
HATCH
  5
91
330
8C
100
AcDbEntity
  8
2023-004
 62
    18
420
        0
440
 33554687
100
AcDbHatch
 10
0.0
 20
0.0
 30
0.0
210
0.0
220
0.0
230
1.0
  2
SOLID
 70
     1
 71
     1
 91
        1
 92
        1
 93
        1
 72
     4
 94
        3
 73
     0
 74
     0
 95
      128
 96
      124
 40
0.0
 40
0.0
 40
0.0
 40
0.0
 40
1.0
 40
1.0
 40
1.0
 40
2.0
 40
2.0
 40
2.0
 40
3.0
 40
3.0
 40
3.0
 40
4.0
 40
4.0
 40
4.0
 40
5.0
 40
5.0
 40
5.0
 40
6.0
 40
6.0
 40
6.0
 40
7.0
 40
7.0
 40
7.0
 40
8.0
 40
8.0
 40
8.0
 40
9.0
 40
9.0
 40
9.0
 40
10.0
 40
10.0
 40
10.0
 40
11.0
 40
11.0
 40
11.0
 40
12.0
 40
12.0
 40
12.0
 40
13.0
 40
13.0
 40
13.0
 40
14.0
 40
14.0
 40
14.0
 40
15.0
 40
15.0
 40
15.0
 40
16.0
 40
16.0
 40
16.0
 40
17.0
 40
17.0
 40
17.0
 40
18.0
 40
18.0
 40
18.0
 40
19.0
 40
19.0
 40
19.0
 40
20.0
 40
20.0
 40
20.0
 40
21.0
 40
21.0
 40
21.0
 40
22.0
 40
22.0
 40
22.0
 40
23.0
 40
23.0
 40
23.0
 40
24.0
 40
24.0
 40
24.0
 40
25.0
 40
25.0
 40
25.0
 40
26.0
 40
26.0
 40
26.0
 40
27.0
 40
27.0
 40
27.0
 40
28.0
 40
28.0
 40
28.0
 40
29.0
 40
29.0
 40
29.0
 40
30.0
 40
30.0
 40
30.0
 40
31.0
 40
31.0
 40
31.0
 40
32.0
 40
32.0
 40
32.0
 40
33.0
 40
33.0
 40
33.0
 40
34.0
 40
34.0
 40
34.0
 40
35.0
 40
35.0
 40
35.0
 40
36.0
 40
36.0
 40
36.0
 40
37.0
 40
37.0
 40
37.0
 40
38.0
 40
38.0
 40
38.0
 40
39.0
 40
39.0
 40
39.0
 40
40.0
 40
40.0
 40
40.0
 40
41.0
 40
41.0
 40
41.0
 40
41.0
 10
358.5497767929581
 20
-1920.082972067723
 10
358.4052981010454
 20
-1872.879307257474
 10
357.6353623237856
 20
-1825.666340689417
 10
356.2904831737312
 20
-1778.481451649563
 10
355.6228236686898
 20
-1755.053596566445
 10
352.0068945110651
 20
-1731.696882705097
 10
351.6414129437737
 20
-1708.277640360691
 10
351.1322708947473
 20
-1675.649657784212
 10
352.4489433255163
 20
-1642.993942189078
 10
352.9295341457086
 20
-1610.349595409045
 10
353.3542282916528
 20
-1581.502432872853
 10
354.0187010833703
 20
-1552.654925827114
 10
353.9764125362889
 20
-1523.807763290923
 10
353.948248880697
 20
-1504.609968699368
 10
352.9160982733162
 20
-1485.411485088716
 10
352.2380604181254
 20
-1466.216791083098
 10
351.5677740277765
 20
-1447.241205150342
 10
350.2014491583264
 20
-1428.27001171433
 10
350.1832332159481
 20
-1409.296062201929
 10
350.1593328660192
 20
-1384.415754862229
 10
351.0906283030694
 20
-1359.533294337851
 10
351.7358946874566
 20
-1334.655054055442
 10
352.3144984742044
 20
-1312.344357310803
 10
353.2308938732808
 20
-1290.042359432264
 10
353.7000728146783
 20
-1267.730370776817
 10
354.6873941170574
 20
-1220.775958624927
 10
355.7275545714414
 20
-1173.820082307456
 10
356.2301509390457
 20
-1126.859296728919
 10
356.4332823815949
 20
-1107.877595751676
 10
354.6528570348177
 20
-1088.873243271618
 10
354.8970281773348
 20
-1069.893781606441
 10
355.3037647630621
 20
-1038.275987153625
 10
356.4244973881074
 20
-1006.662929707101
 10
357.6205484131991
 20
-975.0621884769376
 10
358.2591829887773
 20
-958.1889720640551
 10
359.7702879959949
 20
-941.3504649881868
 10
360.7368525980754
 20
-924.48758386176
 10
362.630147885688
 20
-891.4584199160243
 10
364.9178635426681
 20
-858.4407970401642
 10
366.1111584913716
 20
-825.3849336044178
 10
367.347474069947
 20
-791.135861347355
 10
367.5605101620162
 20
-756.8480317660831
 10
368.0687478734776
 20
-722.5748438406236
 10
368.4303106446546
 20
-698.1930848813329
 10
369.2509323892411
 20
-673.7876839542744
 10
368.5799139161016
 20
-649.4284473067184
 10
367.7530048722545
 20
-619.4112872800429
 10
365.0706535274389
 20
-589.4467080232113
 10
364.1781584782914
 20
-559.4298494423908
 10
363.5295761894996
 20
-537.6160215941117
 10
364.3680693669158
 20
-515.7522829249899
 10
364.7469437429062
 20
-493.9143824720075
 10
365.6965412497217
 20
-439.1792652303744
 10
367.5675295440673
 20
-384.4455260269355
 10
367.523647640324
 20
-329.7124973744404
 10
367.4890674943908
 20
-286.5320796674078
 10
364.9657503699131
 20
-243.3580353870229
 10
363.9385951509859
 20
-200.1719332724397
 10
363.5486964694427
 20
-183.7812886096536
 10
364.3241013357853
 20
-167.3653440268978
 10
364.4418374739937
 20
-150.959906985372
 10
364.697980323322
 20
-115.2726150224514
 10
364.4469189898345
 20
-79.57535381447032
 10
365.2159934932229
 20
-43.8999474309738
 10
365.3159873896823
 20
-39.26108329639133
 10
365.4614996102405
 20
-34.623295754148
 10
365.6333237475674
 20
-29.98611110361459
 10
365.6333237475674
 20
-29.98611110361459
 10
314.9445142170538
 20
-29.98611110361459
 10
314.9445142170538
 20
-29.98611110361459
 10
313.4265190188656
 20
-67.59746736320046
 10
312.6640332605927
 20
-105.2305277243434
 10
313.7393336889263
 20
-142.9182789763147
 10
315.0516136229515
 20
-188.9110357871906
 10
316.1885381967775
 20
-234.9113718081341
 10
316.9729003113818
 20
-280.9156696888857
 10
317.7136819680977
 20
-324.3640512291304
 10
318.3875426450125
 20
-367.8246628583476
 10
318.1622334002772
 20
-411.2751114558835
 10
317.978351428752
 20
-446.7159714323748
 10
315.3671413057069
 20
-482.1604056954321
 10
315.7305988794007
 20
-517.5839110034165
 10
316.2438319793158
 20
-567.5920557934318
 10
319.2053652495172
 20
-617.5736733482108
 10
319.8079985772746
 20
-667.5825071573231
 10
320.3142984225256
 20
-709.5991500775916
 10
319.5016865249423
 20
-751.6554115959403
 10
318.2354416793387
 20
-793.6624943762372
 10
317.153509442196
 20
-829.5547049249897
 10
314.5686542996131
 20
-865.4008373216273
 10
312.7006374001235
 20
-901.2699657306287
 10
310.222407962809
 20
-948.8583615791917
 10
306.9684291496034
 20
-996.4258284726819
 10
305.5986161209745
 20
-1044.047038855741
 10
304.4372744328968
 20
-1084.419423828287
 10
306.0188747064814
 20
-1124.863811296475
 10
305.396518207071
 20
-1165.261000956514
 10
304.7453090329717
 20
-1207.535423146467
 10
302.2850802195677
 20
-1249.783834865505
 10
301.7489372346756
 20
-1292.057912545909
 10
301.0103948900252
 20
-1350.294323392895
 10
300.9900688266622
 20
-1408.546237169565
 10
301.3313055344762
 20
-1466.787815659779
 10
301.5444708176261
 20
-1503.168713003114
 10
303.8445457546595
 20
-1539.547026524835
 10
303.6390458089644
 20
-1575.917760836489
 10
303.4387565701907
 20
-1611.36210897216
 10
300.1386134774827
 20
-1646.799222407311
 10
300.2504068259791
 20
-1682.232718492202
 10
300.3496255759543
 20
-1713.65801823478
 10
303.551841829494
 20
-1745.062647404446
 10
304.8484896427549
 20
-1776.498626943028
 10
305.9231871793786
 20
-1802.553195078876
 10
306.620388378206
 20
-1828.637907800219
 10
306.7671063821841
 20
-1854.713318763752
 10
306.9831569328028
 20
-1893.110975004153
 10
307.2482139666993
 20
-1931.520172314429
 10
306.7376938794788
 20
-1969.911110618633
 10
306.7376938794788
 20
-1969.911110618633
 10
358.0212991455208
 20
-1969.911110618633
 10
358.0212991455208
 20
-1969.911110618633
 10
358.397202126655
 20
-1953.301616265147
 10
358.6005919513655
 20
-1936.689538090046
 10
358.5497767929581
 20
-1920.082972067723
 97
        0
 97
        1
330
90
 75
     2
 76
     1
 98
        1
 10
0.0
 20
0.0
450
        0
451
        0
460
0.0
461
0.0
452
        0
462
0.0
453
        0
470

  0
SPLINE
  5
92
330
8C
100
AcDbEntity
  8
2023-004
100
AcDbSpline
210
0.0
220
0.0
230
1.0
 70
     9
 71
     3
 72
   104
 73
   100
 74
     0
 42
0.0000000001
 43
0.0000000001
 40
0.0
 40
0.0
 40
0.0
 40
0.0
 40
1.0
 40
1.0
 40
1.0
 40
2.0
 40
2.0
 40
2.0
 40
3.0
 40
3.0
 40
3.0
 40
4.0
 40
4.0
 40
4.0
 40
5.0
 40
5.0
 40
5.0
 40
6.0
 40
6.0
 40
6.0
 40
7.0
 40
7.0
 40
7.0
 40
8.0
 40
8.0
 40
8.0
 40
9.0
 40
9.0
 40
9.0
 40
10.0
 40
10.0
 40
10.0
 40
11.0
 40
11.0
 40
11.0
 40
12.0
 40
12.0
 40
12.0
 40
13.0
 40
13.0
 40
13.0
 40
14.0
 40
14.0
 40
14.0
 40
15.0
 40
15.0
 40
15.0
 40
16.0
 40
16.0
 40
16.0
 40
17.0
 40
17.0
 40
17.0
 40
18.0
 40
18.0
 40
18.0
 40
19.0
 40
19.0
 40
19.0
 40
20.0
 40
20.0
 40
20.0
 40
21.0
 40
21.0
 40
21.0
 40
22.0
 40
22.0
 40
22.0
 40
23.0
 40
23.0
 40
23.0
 40
24.0
 40
24.0
 40
24.0
 40
25.0
 40
25.0
 40
25.0
 40
26.0
 40
26.0
 40
26.0
 40
27.0
 40
27.0
 40
27.0
 40
28.0
 40
28.0
 40
28.0
 40
29.0
 40
29.0
 40
29.0
 40
30.0
 40
30.0
 40
30.0
 40
31.0
 40
31.0
 40
31.0
 40
32.0
 40
32.0
 40
32.0
 40
33.0
 40
33.0
 40
33.0
 40
33.0
 10
553.894700653627
 20
-1912.102236121367
 30
0.0
 10
553.5510523789733
 20
-1857.667488142354
 30
0.0
 10
552.967453203772
 20
-1803.233773691987
 30
0.0
 10
552.233131101091
 20
-1748.802470808459
 30
0.0
 10
551.447261757212
 20
-1690.557274967985
 30
0.0
 10
550.4661846903998
 20
-1632.314318439578
 30
0.0
 10
549.3943724212451
 20
-1574.073773478009
 30
0.0
 10
548.6252548541631
 20
-1532.279080834378
 30
0.0
 10
547.3317076268389
 20
-1490.49300092946
 30
0.0
 10
546.7056476497819
 20
-1448.697102502409
 30
0.0
 10
546.1110241690278
 20
-1408.992635417066
 30
0.0
 10
545.9900151901084
 20
-1369.279986229946
 30
0.0
 10
545.8222390399767
 20
-1329.570437628762
 30
0.0
 10
545.5928818080463
 20
-1275.287532233261
 30
0.0
 10
545.0982522237515
 20
-1221.001095614889
 30
0.0
 10
545.5037399623654
 20
-1166.722152079196
 30
0.0
 10
545.8423928485655
 20
-1121.386504168438
 30
0.0
 10
547.2450634753849
 20
-1076.058004830812
 30
0.0
 10
548.3020187702595
 20
-1030.729247111024
 30
0.0
 10
549.1125636105517
 20
-995.9724539068229
 30
0.0
 10
550.4025365513099
 20
-961.2247040782703
 30
0.0
 10
550.9746377203292
 20
-926.4647241607448
 30
0.0
 10
551.9409008765546
 20
-867.7480670031151
 30
0.0
 10
553.4163491455001
 20
-809.017543336157
 30
0.0
 10
552.9510890002171
 20
-750.3064844586908
 30
0.0
 10
552.5886649551688
 20
-704.5721959365956
 30
0.0
 10
549.6120163285259
 20
-658.8582334778635
 30
0.0
 10
547.778622638663
 20
-613.1360458536605
 30
0.0
 10
546.3024853506206
 20
-576.322315326297
 30
0.0
 10
544.2285378685002
 20
-539.521331652229
 30
0.0
 10
543.5007183835475
 20
-502.6931747875211
 30
0.0
 10
542.9866670734547
 20
-476.6797324790288
 30
0.0
 10
544.7995624451802
 20
-450.6275328463275
 30
0.0
 10
544.6490117724749
 20
-424.5980277801352
 30
0.0
 10
544.4057449675227
 20
-382.5655374206347
 30
0.0
 10
543.661776597483
 20
-340.5313245133915
 30
0.0
 10
542.6277311875852
 20
-298.5100522460648
 30
0.0
 10
541.9285921225473
 20
-270.0982205881287
 30
0.0
 10
539.9902952751586
 20
-241.7170502800113
 30
0.0
 10
539.2967114265908
 20
-213.3050678991477
 30
0.0
 10
538.5573508717626
 20
-183.0170372399445
 30
0.0
 10
538.5614849863449
 20
-152.7091972817012
 30
0.0
 10
538.3694639767358
 20
-122.4091087882996
 30
0.0
 10
538.1896730560993
 20
-94.01829221282355
 30
0.0
 10
538.9144780825023
 20
-65.599764150538
 30
0.0
 10
537.9008879270481
 20
-37.24167598217178
 30
0.0
 10
537.814459094062
 20
-34.82289597382466
 30
0.0
 10
537.7192022038948
 20
-32.40443894317927
 30
0.0
 10
537.6194666895969
 20
-29.98611110361459
 30
0.0
 10
537.6194666895969
 20
-29.98611110361459
 30
0.0
 10
492.4161965728595
 20
-29.98611110361459
 30
0.0
 10
492.4161965728595
 20
-29.98611110361459
 30
0.0
 10
493.3055910360703
 20
-65.84949050952504
 30
0.0
 10
493.5600544013495
 20
-101.7423254818344
 30
0.0
 10
493.2303587634112
 20
-137.6099681934078
 30
0.0
 10
492.7877501209437
 20
-185.7782166758319
 30
0.0
 10
493.4347390530736
 20
-233.8645149494007
 30
0.0
 10
495.4328513708249
 20
-282.010930139187
 30
0.0
 10
497.3123662764965
 20
-327.2998754742731
 30
0.0
 10
496.7267000440041
 20
-372.7073105622051
 30
0.0
 10
496.573737804459
 20
-418.0602700777766
 30
0.0
 10
496.4676719272069
 20
-449.5224323420464
 30
0.0
 10
494.4101317123349
 20
-480.9902790138671
 30
0.0
 10
494.7574834646353
 20
-512.4384886414215
 30
0.0
 10
495.1749429100604
 20
-550.2265352357072
 30
0.0
 10
497.5656669220495
 20
-587.9882268495307
 30
0.0
 10
498.4687125761206
 20
-625.7766179533648
 30
0.0
 10
499.5119305527479
 20
-669.4309731399339
 30
0.0
 10
500.1352775171103
 20
-713.0999699823153
 30
0.0
 10
500.4285843339857
 20
-756.7662107483084
 30
0.0
 10
500.6464435597342
 20
-789.1916217102542
 30
0.0
 10
500.3017186927414
 20
-821.6269373217199
 30
0.0
 10
499.7496421412301
 20
-854.0500228442132
 30
0.0
 10
499.0136836181936
 20
-897.2649561016385
 30
0.0
 10
497.8532462676808
 20
-940.4728269133192
 30
0.0
 10
496.8385795198876
 20
-983.6827647822913
 30
0.0
 10
495.845659937345
 20
-1025.967522258699
 30
0.0
 10
494.5704147797862
 20
-1068.246939837105
 30
0.0
 10
493.8447054158183
 20
-1110.536175937643
 30
0.0
 10
492.8167319867133
 20
-1170.445266770105
 30
0.0
 10
491.564439777825
 20
-1230.361075538764
 30
0.0
 10
491.5340798738612
 20
-1290.274558867969
 30
0.0
 10
491.4982508808146
 20
-1361.00262756231
 30
0.0
 10
492.6500754926144
 20
-1431.731040766199
 30
0.0
 10
493.311964462718
 20
-1502.459540097475
 30
0.0
 10
493.8090056138524
 20
-1555.563103180988
 30
0.0
 10
494.1254806978662
 20
-1608.670111359985
 30
0.0
 10
494.9170775129895
 20
-1661.769540328915
 30
0.0
 10
496.0380254565026
 20
-1736.961333116107
 30
0.0
 10
498.1169683270766
 20
-1812.14347963594
 30
0.0
 10
498.6392017389469
 20
-1887.337683989971
 30
0.0
 10
498.8303614746848
 20
-1914.858657019115
 30
0.0
 10
498.3786233291814
 20
-1942.384453181938
 30
0.0
 10
497.8029909372897
 20
-1969.911110618633
 30
0.0
 10
497.8029909372897
 20
-1969.911110618633
 30
0.0
 10
553.6570751925319
 20
-1969.911110618633
 30
0.0
 10
553.6570751925319
 20
-1969.911110618633
 30
0.0
 10
553.898662513435
 20
-1950.641658040985
 30
0.0
 10
554.0163125242563
 20
-1931.369793896498
 30
0.0
 10
553.894700653627
 20
-1912.102236121367
 30
0.0
  0
HATCH
  5
93
330
8C
100
AcDbEntity
  8
2023-004
 62
    18
420
        0
440
 33554687
100
AcDbHatch
 10
0.0
 20
0.0
 30
0.0
210
0.0
220
0.0
230
1.0
  2
SOLID
 70
     1
 71
     1
 91
        1
 92
        1
 93
        1
 72
     4
 94
        3
 73
     0
 74
     0
 95
      104
 96
      100
 40
0.0
 40
0.0
 40
0.0
 40
0.0
 40
1.0
 40
1.0
 40
1.0
 40
2.0
 40
2.0
 40
2.0
 40
3.0
 40
3.0
 40
3.0
 40
4.0
 40
4.0
 40
4.0
 40
5.0
 40
5.0
 40
5.0
 40
6.0
 40
6.0
 40
6.0
 40
7.0
 40
7.0
 40
7.0
 40
8.0
 40
8.0
 40
8.0
 40
9.0
 40
9.0
 40
9.0
 40
10.0
 40
10.0
 40
10.0
 40
11.0
 40
11.0
 40
11.0
 40
12.0
 40
12.0
 40
12.0
 40
13.0
 40
13.0
 40
13.0
 40
14.0
 40
14.0
 40
14.0
 40
15.0
 40
15.0
 40
15.0
 40
16.0
 40
16.0
 40
16.0
 40
17.0
 40
17.0
 40
17.0
 40
18.0
 40
18.0
 40
18.0
 40
19.0
 40
19.0
 40
19.0
 40
20.0
 40
20.0
 40
20.0
 40
21.0
 40
21.0
 40
21.0
 40
22.0
 40
22.0
 40
22.0
 40
23.0
 40
23.0
 40
23.0
 40
24.0
 40
24.0
 40
24.0
 40
25.0
 40
25.0
 40
25.0
 40
26.0
 40
26.0
 40
26.0
 40
27.0
 40
27.0
 40
27.0
 40
28.0
 40
28.0
 40
28.0
 40
29.0
 40
29.0
 40
29.0
 40
30.0
 40
30.0
 40
30.0
 40
31.0
 40
31.0
 40
31.0
 40
32.0
 40
32.0
 40
32.0
 40
33.0
 40
33.0
 40
33.0
 40
33.0
 10
553.894700653627
 20
-1912.102236121367
 10
553.5510523789733
 20
-1857.667488142354
 10
552.967453203772
 20
-1803.233773691987
 10
552.233131101091
 20
-1748.802470808459
 10
551.447261757212
 20
-1690.557274967985
 10
550.4661846903998
 20
-1632.314318439578
 10
549.3943724212451
 20
-1574.073773478009
 10
548.6252548541631
 20
-1532.279080834378
 10
547.3317076268389
 20
-1490.49300092946
 10
546.7056476497819
 20
-1448.697102502409
 10
546.1110241690278
 20
-1408.992635417066
 10
545.9900151901084
 20
-1369.279986229946
 10
545.8222390399767
 20
-1329.570437628762
 10
545.5928818080463
 20
-1275.287532233261
 10
545.0982522237515
 20
-1221.001095614889
 10
545.5037399623654
 20
-1166.722152079196
 10
545.8423928485655
 20
-1121.386504168438
 10
547.2450634753849
 20
-1076.058004830812
 10
548.3020187702595
 20
-1030.729247111024
 10
549.1125636105517
 20
-995.9724539068229
 10
550.4025365513099
 20
-961.2247040782703
 10
550.9746377203292
 20
-926.4647241607448
 10
551.9409008765546
 20
-867.7480670031151
 10
553.4163491455001
 20
-809.017543336157
 10
552.9510890002171
 20
-750.3064844586908
 10
552.5886649551688
 20
-704.5721959365956
 10
549.6120163285259
 20
-658.8582334778635
 10
547.778622638663
 20
-613.1360458536605
 10
546.3024853506206
 20
-576.322315326297
 10
544.2285378685002
 20
-539.521331652229
 10
543.5007183835475
 20
-502.6931747875211
 10
542.9866670734547
 20
-476.6797324790288
 10
544.7995624451802
 20
-450.6275328463275
 10
544.6490117724749
 20
-424.5980277801352
 10
544.4057449675227
 20
-382.5655374206347
 10
543.661776597483
 20
-340.5313245133915
 10
542.6277311875852
 20
-298.5100522460648
 10
541.9285921225473
 20
-270.0982205881287
 10
539.9902952751586
 20
-241.7170502800113
 10
539.2967114265908
 20
-213.3050678991477
 10
538.5573508717626
 20
-183.0170372399445
 10
538.5614849863449
 20
-152.7091972817012
 10
538.3694639767358
 20
-122.4091087882996
 10
538.1896730560993
 20
-94.01829221282355
 10
538.9144780825023
 20
-65.599764150538
 10
537.9008879270481
 20
-37.24167598217178
 10
537.814459094062
 20
-34.82289597382466
 10
537.7192022038948
 20
-32.40443894317927
 10
537.6194666895969
 20
-29.98611110361459
 10
537.6194666895969
 20
-29.98611110361459
 10
492.4161965728595
 20
-29.98611110361459
 10
492.4161965728595
 20
-29.98611110361459
 10
493.3055910360703
 20
-65.84949050952504
 10
493.5600544013495
 20
-101.7423254818344
 10
493.2303587634112
 20
-137.6099681934078
 10
492.7877501209437
 20
-185.7782166758319
 10
493.4347390530736
 20
-233.8645149494007
 10
495.4328513708249
 20
-282.010930139187
 10
497.3123662764965
 20
-327.2998754742731
 10
496.7267000440041
 20
-372.7073105622051
 10
496.573737804459
 20
-418.0602700777766
 10
496.4676719272069
 20
-449.5224323420464
 10
494.4101317123349
 20
-480.9902790138671
 10
494.7574834646353
 20
-512.4384886414215
 10
495.1749429100604
 20
-550.2265352357072
 10
497.5656669220495
 20
-587.9882268495307
 10
498.4687125761206
 20
-625.7766179533648
 10
499.5119305527479
 20
-669.4309731399339
 10
500.1352775171103
 20
-713.0999699823153
 10
500.4285843339857
 20
-756.7662107483084
 10
500.6464435597342
 20
-789.1916217102542
 10
500.3017186927414
 20
-821.6269373217199
 10
499.7496421412301
 20
-854.0500228442132
 10
499.0136836181936
 20
-897.2649561016385
 10
497.8532462676808
 20
-940.4728269133192
 10
496.8385795198876
 20
-983.6827647822913
 10
495.845659937345
 20
-1025.967522258699
 10
494.5704147797862
 20
-1068.246939837105
 10
493.8447054158183
 20
-1110.536175937643
 10
492.8167319867133
 20
-1170.445266770105
 10
491.564439777825
 20
-1230.361075538764
 10
491.5340798738612
 20
-1290.274558867969
 10
491.4982508808146
 20
-1361.00262756231
 10
492.6500754926144
 20
-1431.731040766199
 10
493.311964462718
 20
-1502.459540097475
 10
493.8090056138524
 20
-1555.563103180988
 10
494.1254806978662
 20
-1608.670111359985
 10
494.9170775129895
 20
-1661.769540328915
 10
496.0380254565026
 20
-1736.961333116107
 10
498.1169683270766
 20
-1812.14347963594
 10
498.6392017389469
 20
-1887.337683989971
 10
498.8303614746848
 20
-1914.858657019115
 10
498.3786233291814
 20
-1942.384453181938
 10
497.8029909372897
 20
-1969.911110618633
 10
497.8029909372897
 20
-1969.911110618633
 10
553.6570751925319
 20
-1969.911110618633
 10
553.6570751925319
 20
-1969.911110618633
 10
553.898662513435
 20
-1950.641658040985
 10
554.0163125242563
 20
-1931.369793896498
 10
553.894700653627
 20
-1912.102236121367
 97
        0
 97
        1
330
92
 75
     2
 76
     1
 98
        1
 10
0.0
 20
0.0
450
        0
451
        0
460
0.0
461
0.0
452
        0
462
0.0
453
        0
470

  0
SPLINE
  5
94
330
8C
100
AcDbEntity
  8
2023-004
100
AcDbSpline
210
0.0
220
0.0
230
1.0
 70
     9
 71
     3
 72
   122
 73
   118
 74
     0
 42
0.0000000001
 43
0.0000000001
 40
0.0
 40
0.0
 40
0.0
 40
0.0
 40
1.0
 40
1.0
 40
1.0
 40
2.0
 40
2.0
 40
2.0
 40
3.0
 40
3.0
 40
3.0
 40
4.0
 40
4.0
 40
4.0
 40
5.0
 40
5.0
 40
5.0
 40
6.0
 40
6.0
 40
6.0
 40
7.0
 40
7.0
 40
7.0
 40
8.0
 40
8.0
 40
8.0
 40
9.0
 40
9.0
 40
9.0
 40
10.0
 40
10.0
 40
10.0
 40
11.0
 40
11.0
 40
11.0
 40
12.0
 40
12.0
 40
12.0
 40
13.0
 40
13.0
 40
13.0
 40
14.0
 40
14.0
 40
14.0
 40
15.0
 40
15.0
 40
15.0
 40
16.0
 40
16.0
 40
16.0
 40
17.0
 40
17.0
 40
17.0
 40
18.0
 40
18.0
 40
18.0
 40
19.0
 40
19.0
 40
19.0
 40
20.0
 40
20.0
 40
20.0
 40
21.0
 40
21.0
 40
21.0
 40
22.0
 40
22.0
 40
22.0
 40
23.0
 40
23.0
 40
23.0
 40
24.0
 40
24.0
 40
24.0
 40
25.0
 40
25.0
 40
25.0
 40
26.0
 40
26.0
 40
26.0
 40
27.0
 40
27.0
 40
27.0
 40
28.0
 40
28.0
 40
28.0
 40
29.0
 40
29.0
 40
29.0
 40
30.0
 40
30.0
 40
30.0
 40
31.0
 40
31.0
 40
31.0
 40
32.0
 40
32.0
 40
32.0
 40
33.0
 40
33.0
 40
33.0
 40
34.0
 40
34.0
 40
34.0
 40
35.0
 40
35.0
 40
35.0
 40
36.0
 40
36.0
 40
36.0
 40
37.0
 40
37.0
 40
37.0
 40
38.0
 40
38.0
 40
38.0
 40
39.0
 40
39.0
 40
39.0
 40
39.0
 10
453.9175990347411
 20
-1914.495888464518
 30
0.0
 10
454.1598753747413
 20
-1900.436798298762
 30
0.0
 10
454.788346918638
 20
-1886.37460754707
 30
0.0
 10
454.6405953860143
 20
-1872.319996005444
 30
0.0
 10
454.3646001739523
 20
-1846.070607719906
 30
0.0
 10
453.7996475780649
 20
-1819.822252963013
 30
0.0
 10
453.07264630329
 20
-1793.58113290664
 30
0.0
 10
452.436466358245
 20
-1770.616815421061
 30
0.0
 10
451.2196586328548
 20
-1747.668517629489
 30
0.0
 10
450.6053981078347
 20
-1724.703855634362
 30
0.0
 10
449.6638965754096
 20
-1689.504798297242
 30
0.0
 10
448.4002786151135
 20
-1654.297128221408
 30
0.0
 10
448.4215520797349
 20
-1619.093592260157
 30
0.0
 10
448.4432561812919
 20
-1583.193974756111
 30
0.0
 10
450.4175973401951
 20
-1547.295735290259
 30
0.0
 10
450.4672497788762
 20
-1511.395428767116
 30
0.0
 10
450.5041984279555
 20
-1484.652186043767
 30
0.0
 10
448.5041482439937
 20
-1457.911871651581
 30
0.0
 10
448.0210597295746
 20
-1431.159671679971
 30
0.0
 10
447.5345261196702
 20
-1404.217991456671
 30
0.0
 10
447.7141878492259
 20
-1377.263219870528
 30
0.0
 10
447.7616440395353
 20
-1350.313960437161
 30
0.0
 10
447.8094878030867
 20
-1323.140166905543
 30
0.0
 10
447.9300230813769
 20
-1295.964995335731
 30
0.0
 10
448.2425363055826
 20
-1268.792838224469
 30
0.0
 10
448.650048037794
 20
-1233.350987783025
 30
0.0
 10
449.3959973377378
 20
-1197.912754691841
 30
0.0
 10
449.7818480320858
 20
-1162.470645868236
 30
0.0
 10
450.2974926988406
 20
-1115.10213323902
 30
0.0
 10
450.2645059095693
 20
-1067.725180125864
 30
0.0
 10
451.1111811887629
 20
-1020.363385432843
 30
0.0
 10
451.8201387759338
 20
-980.7109392893275
 30
0.0
 10
453.5013023090422
 20
-941.0764937697221
 30
0.0
 10
454.6486482967111
 20
-901.4311100719512
 30
0.0
 10
454.9953110299143
 20
-889.4542356174802
 30
0.0
 10
454.8707708281225
 20
-877.4638391632295
 30
0.0
 10
455.182810351699
 20
-865.485328288403
 30
0.0
 10
455.817310812695
 20
-841.1290199720095
 30
0.0
 10
456.8352504011992
 20
-816.780635375232
 30
0.0
 10
457.2624853050637
 20
-792.4213987276759
 30
0.0
 10
457.7273578771046
 20
-765.9140589176795
 30
0.0
 10
457.6153061464468
 20
-739.3972450950985
 30
0.0
 10
457.9164936192448
 20
-712.8864171259233
 30
0.0
 10
458.1559708191632
 20
-691.805145768889
 30
0.0
 10
459.1587089238388
 20
-670.7197833609659
 30
0.0
 10
458.8892593931986
 20
-649.648373589758
 30
0.0
 10
458.5026766160601
 20
-619.4252399167583
 30
0.0
 10
456.7690184404952
 20
-589.2170924091193
 30
0.0
 10
456.5271727374307
 20
-558.995207583233
 30
0.0
 10
456.2603500920981
 20
-525.6520662477103
 30
0.0
 10
457.0860102888318
 20
-492.3009581288779
 30
0.0
 10
457.334229418544
 20
-458.9526060864336
 30
0.0
 10
457.6974716737701
 20
-410.1519672639985
 30
0.0
 10
458.1380563226399
 20
-361.3509839320147
 30
0.0
 10
458.2269397861594
 20
-312.5493546446274
 30
0.0
 10
458.2940760844282
 20
-275.6784785959025
 30
0.0
 10
457.918948249778
 20
-238.8060522542091
 30
0.0
 10
457.632445496486
 20
-201.9353484602584
 30
0.0
 10
457.4486496523479
 20
-178.2883637724309
 30
0.0
 10
457.0441093149924
 20
-154.6431016323461
 30
0.0
 10
456.783617032614
 20
-130.9966337088415
 30
0.0
 10
456.5822081378075
 20
-112.7111865291681
 30
0.0
 10
456.7758225040786
 20
-94.41505955349041
 30
0.0
 10
456.2153054686285
 20
-76.14151948508788
 30
0.0
 10
455.7434565782299
 20
-60.75591683458316
 30
0.0
 10
455.2480087837574
 20
-45.3688500184972
 30
0.0
 10
454.6595434111832
 20
-29.98611110361459
 30
0.0
 10
454.6595434111832
 20
-29.98611110361459
 30
0.0
 10
403.1343938879317
 20
-29.98611110361459
 30
0.0
 10
403.1343938879317
 20
-29.98611110361459
 30
0.0
 10
403.6645079557245
 20
-47.41127487692756
 30
0.0
 10
404.0900633755399
 20
-64.84511598449401
 30
0.0
 10
404.7743454662977
 20
-82.25731758604373
 30
0.0
 10
405.7145120242224
 20
-106.1808788457963
 30
0.0
 10
406.8831745402063
 20
-130.098389656603
 30
0.0
 10
407.5147036063461
 20
-154.0300468907459
 30
0.0
 10
408.3763650509007
 20
-186.6831786642667
 30
0.0
 10
409.1830341587719
 20
-219.3452892178959
 30
0.0
 10
409.370791862718
 20
-252.007205984904
 30
0.0
 10
409.7072054368527
 20
-310.5324450246347
 30
0.0
 10
409.6727975456937
 20
-369.0609353732296
 30
0.0
 10
409.5878759419823
 20
-427.5877247059286
 30
0.0
 10
409.5197061150679
 20
-474.5872245449816
 30
0.0
 10
408.9795151429808
 20
-521.5865090655669
 30
0.0
 10
408.9635815763615
 20
-568.5858797135392
 30
0.0
 10
408.9507485956789
 20
-606.3954581546077
 30
0.0
 10
410.0741081060318
 20
-644.2151996273577
 30
0.0
 10
409.5018777459318
 20
-682.012203469905
 30
0.0
 10
408.6517143075592
 20
-738.1642454209277
 30
0.0
 10
406.6413288371418
 20
-794.2975977289429
 30
0.0
 10
405.3206945465648
 20
-850.4435246354795
 30
0.0
 10
403.292782152866
 20
-936.6589339563734
 30
0.0
 10
401.3321783122103
 20
-1022.876238079784
 30
0.0
 10
399.5315130294574
 20
-1109.096642789132
 30
0.0
 10
398.1475320456454
 20
-1175.364776995655
 30
0.0
 10
396.6657103500523
 20
-1241.634892132082
 30
0.0
 10
395.953824431719
 20
-1307.912069714254
 30
0.0
 10
395.3834458104424
 20
-1361.017096963348
 30
0.0
 10
395.6572878378262
 20
-1414.135473957447
 30
0.0
 10
396.0207023478265
 20
-1467.244635321123
 30
0.0
 10
396.3052672349081
 20
-1508.830555178348
 30
0.0
 10
397.6513091046888
 20
-1550.409929354151
 30
0.0
 10
397.8805371455385
 20
-1591.995849211376
 30
0.0
 10
398.101970657853
 20
-1632.164629040743
 30
0.0
 10
396.9097092377952
 20
-1672.345983468632
 30
0.0
 10
397.4259567962599
 20
-1712.507700852255
 30
0.0
 10
397.9180025589407
 20
-1750.795803056224
 30
0.0
 10
400.7300617487758
 20
-1789.062028903863
 30
0.0
 10
400.8853494277734
 20
-1827.344618955056
 30
0.0
 10
401.0781025201731
 20
-1874.864199021301
 30
0.0
 10
400.7710583850503
 20
-1922.390841533291
 30
0.0
 10
400.1575730065144
 20
-1969.911110618633
 30
0.0
 10
400.1575730065144
 20
-1969.911110618633
 30
0.0
 10
453.0518034756042
 20
-1969.911110618633
 30
0.0
 10
453.0518034756042
 20
-1969.911110618633
 30
0.0
 10
453.3400287766389
 20
-1951.439369900595
 30
0.0
 10
453.599272211904
 20
-1932.96694016346
 30
0.0
 10
453.9175990347411
 20
-1914.495888464518
 30
0.0
  0
HATCH
  5
95
330
8C
100
AcDbEntity
  8
2023-004
 62
    18
420
        0
440
 33554687
100
AcDbHatch
 10
0.0
 20
0.0
 30
0.0
210
0.0
220
0.0
230
1.0
  2
SOLID
 70
     1
 71
     1
 91
        1
 92
        1
 93
        1
 72
     4
 94
        3
 73
     0
 74
     0
 95
      122
 96
      118
 40
0.0
 40
0.0
 40
0.0
 40
0.0
 40
1.0
 40
1.0
 40
1.0
 40
2.0
 40
2.0
 40
2.0
 40
3.0
 40
3.0
 40
3.0
 40
4.0
 40
4.0
 40
4.0
 40
5.0
 40
5.0
 40
5.0
 40
6.0
 40
6.0
 40
6.0
 40
7.0
 40
7.0
 40
7.0
 40
8.0
 40
8.0
 40
8.0
 40
9.0
 40
9.0
 40
9.0
 40
10.0
 40
10.0
 40
10.0
 40
11.0
 40
11.0
 40
11.0
 40
12.0
 40
12.0
 40
12.0
 40
13.0
 40
13.0
 40
13.0
 40
14.0
 40
14.0
 40
14.0
 40
15.0
 40
15.0
 40
15.0
 40
16.0
 40
16.0
 40
16.0
 40
17.0
 40
17.0
 40
17.0
 40
18.0
 40
18.0
 40
18.0
 40
19.0
 40
19.0
 40
19.0
 40
20.0
 40
20.0
 40
20.0
 40
21.0
 40
21.0
 40
21.0
 40
22.0
 40
22.0
 40
22.0
 40
23.0
 40
23.0
 40
23.0
 40
24.0
 40
24.0
 40
24.0
 40
25.0
 40
25.0
 40
25.0
 40
26.0
 40
26.0
 40
26.0
 40
27.0
 40
27.0
 40
27.0
 40
28.0
 40
28.0
 40
28.0
 40
29.0
 40
29.0
 40
29.0
 40
30.0
 40
30.0
 40
30.0
 40
31.0
 40
31.0
 40
31.0
 40
32.0
 40
32.0
 40
32.0
 40
33.0
 40
33.0
 40
33.0
 40
34.0
 40
34.0
 40
34.0
 40
35.0
 40
35.0
 40
35.0
 40
36.0
 40
36.0
 40
36.0
 40
37.0
 40
37.0
 40
37.0
 40
38.0
 40
38.0
 40
38.0
 40
39.0
 40
39.0
 40
39.0
 40
39.0
 10
453.9175990347411
 20
-1914.495888464518
 10
454.1598753747413
 20
-1900.436798298762
 10
454.788346918638
 20
-1886.37460754707
 10
454.6405953860143
 20
-1872.319996005444
 10
454.3646001739523
 20
-1846.070607719906
 10
453.7996475780649
 20
-1819.822252963013
 10
453.07264630329
 20
-1793.58113290664
 10
452.436466358245
 20
-1770.616815421061
 10
451.2196586328548
 20
-1747.668517629489
 10
450.6053981078347
 20
-1724.703855634362
 10
449.6638965754096
 20
-1689.504798297242
 10
448.4002786151135
 20
-1654.297128221408
 10
448.4215520797349
 20
-1619.093592260157
 10
448.4432561812919
 20
-1583.193974756111
 10
450.4175973401951
 20
-1547.295735290259
 10
450.4672497788762
 20
-1511.395428767116
 10
450.5041984279555
 20
-1484.652186043767
 10
448.5041482439937
 20
-1457.911871651581
 10
448.0210597295746
 20
-1431.159671679971
 10
447.5345261196702
 20
-1404.217991456671
 10
447.7141878492259
 20
-1377.263219870528
 10
447.7616440395353
 20
-1350.313960437161
 10
447.8094878030867
 20
-1323.140166905543
 10
447.9300230813769
 20
-1295.964995335731
 10
448.2425363055826
 20
-1268.792838224469
 10
448.650048037794
 20
-1233.350987783025
 10
449.3959973377378
 20
-1197.912754691841
 10
449.7818480320858
 20
-1162.470645868236
 10
450.2974926988406
 20
-1115.10213323902
 10
450.2645059095693
 20
-1067.725180125864
 10
451.1111811887629
 20
-1020.363385432843
 10
451.8201387759338
 20
-980.7109392893275
 10
453.5013023090422
 20
-941.0764937697221
 10
454.6486482967111
 20
-901.4311100719512
 10
454.9953110299143
 20
-889.4542356174802
 10
454.8707708281225
 20
-877.4638391632295
 10
455.182810351699
 20
-865.485328288403
 10
455.817310812695
 20
-841.1290199720095
 10
456.8352504011992
 20
-816.780635375232
 10
457.2624853050637
 20
-792.4213987276759
 10
457.7273578771046
 20
-765.9140589176795
 10
457.6153061464468
 20
-739.3972450950985
 10
457.9164936192448
 20
-712.8864171259233
 10
458.1559708191632
 20
-691.805145768889
 10
459.1587089238388
 20
-670.7197833609659
 10
458.8892593931986
 20
-649.648373589758
 10
458.5026766160601
 20
-619.4252399167583
 10
456.7690184404952
 20
-589.2170924091193
 10
456.5271727374307
 20
-558.995207583233
 10
456.2603500920981
 20
-525.6520662477103
 10
457.0860102888318
 20
-492.3009581288779
 10
457.334229418544
 20
-458.9526060864336
 10
457.6974716737701
 20
-410.1519672639985
 10
458.1380563226399
 20
-361.3509839320147
 10
458.2269397861594
 20
-312.5493546446274
 10
458.2940760844282
 20
-275.6784785959025
 10
457.918948249778
 20
-238.8060522542091
 10
457.632445496486
 20
-201.9353484602584
 10
457.4486496523479
 20
-178.2883637724309
 10
457.0441093149924
 20
-154.6431016323461
 10
456.783617032614
 20
-130.9966337088415
 10
456.5822081378075
 20
-112.7111865291681
 10
456.7758225040786
 20
-94.41505955349041
 10
456.2153054686285
 20
-76.14151948508788
 10
455.7434565782299
 20
-60.75591683458316
 10
455.2480087837574
 20
-45.3688500184972
 10
454.6595434111832
 20
-29.98611110361459
 10
454.6595434111832
 20
-29.98611110361459
 10
403.1343938879317
 20
-29.98611110361459
 10
403.1343938879317
 20
-29.98611110361459
 10
403.6645079557245
 20
-47.41127487692756
 10
404.0900633755399
 20
-64.84511598449401
 10
404.7743454662977
 20
-82.25731758604373
 10
405.7145120242224
 20
-106.1808788457963
 10
406.8831745402063
 20
-130.098389656603
 10
407.5147036063461
 20
-154.0300468907459
 10
408.3763650509007
 20
-186.6831786642667
 10
409.1830341587719
 20
-219.3452892178959
 10
409.370791862718
 20
-252.007205984904
 10
409.7072054368527
 20
-310.5324450246347
 10
409.6727975456937
 20
-369.0609353732296
 10
409.5878759419823
 20
-427.5877247059286
 10
409.5197061150679
 20
-474.5872245449816
 10
408.9795151429808
 20
-521.5865090655669
 10
408.9635815763615
 20
-568.5858797135392
 10
408.9507485956789
 20
-606.3954581546077
 10
410.0741081060318
 20
-644.2151996273577
 10
409.5018777459318
 20
-682.012203469905
 10
408.6517143075592
 20
-738.1642454209277
 10
406.6413288371418
 20
-794.2975977289429
 10
405.3206945465648
 20
-850.4435246354795
 10
403.292782152866
 20
-936.6589339563734
 10
401.3321783122103
 20
-1022.876238079784
 10
399.5315130294574
 20
-1109.096642789132
 10
398.1475320456454
 20
-1175.364776995655
 10
396.6657103500523
 20
-1241.634892132082
 10
395.953824431719
 20
-1307.912069714254
 10
395.3834458104424
 20
-1361.017096963348
 10
395.6572878378262
 20
-1414.135473957447
 10
396.0207023478265
 20
-1467.244635321123
 10
396.3052672349081
 20
-1508.830555178348
 10
397.6513091046888
 20
-1550.409929354151
 10
397.8805371455385
 20
-1591.995849211376
 10
398.101970657853
 20
-1632.164629040743
 10
396.9097092377952
 20
-1672.345983468632
 10
397.4259567962599
 20
-1712.507700852255
 10
397.9180025589407
 20
-1750.795803056224
 10
400.7300617487758
 20
-1789.062028903863
 10
400.8853494277734
 20
-1827.344618955056
 10
401.0781025201731
 20
-1874.864199021301
 10
400.7710583850503
 20
-1922.390841533291
 10
400.1575730065144
 20
-1969.911110618633
 10
400.1575730065144
 20
-1969.911110618633
 10
453.0518034756042
 20
-1969.911110618633
 10
453.0518034756042
 20
-1969.911110618633
 10
453.3400287766389
 20
-1951.439369900595
 10
453.599272211904
 20
-1932.96694016346
 10
453.9175990347411
 20
-1914.495888464518
 97
        0
 97
        1
330
94
 75
     2
 76
     1
 98
        1
 10
0.0
 20
0.0
450
        0
451
        0
460
0.0
461
0.0
452
        0
462
0.0
453
        0
470

  0
ENDBLK
  5
8F
330
8C
100
AcDbEntity
  8
0
100
AcDbBlockEnd
  0
ENDSEC
  0
SECTION
  2
ENTITIES
  0
LWPOLYLINE
  5
79
330
70
100
AcDbEntity
  8
Bounding Box
 62
    18
420
        0
370
    40
100
AcDbPolyline
 90
        4
 70
     1
 43
0.0
 10
1200.152996735009
 20
-2000.168184624562
 10
0.1529970350094219
 20
-2000.168184624562
 10
0.1529970350094219
 20
-0.1681851245616323
 10
1200.152996735009
 20
-0.1681851245616323
  0
ELLIPSE
  5
7B
330
70
100
AcDbEntity
  8
Screws
100
AcDbEllipse
 10
17.342316281568
 20
-1982.358092505099
 30
0.0
 11
2.557638888249479
 21
0.0
 31
0.0
210
0.0
220
0.0
230
1.0
 40
0.9655172413793103
 41
0.0
 42
6.283185307179586
  0
HATCH
  5
7C
330
70
100
AcDbEntity
  8
Screws
 62
    18
420
        0
440
 33554687
100
AcDbHatch
 10
0.0
 20
0.0
 30
0.0
210
0.0
220
0.0
230
1.0
  2
SOLID
 70
     1
 71
     1
 91
        1
 92
        1
 93
        1
 72
     3
 10
17.342316281568
 20
-1982.358092505099
 11
2.557638888249479
 21
0.0
 40
0.9655172413793103
 50
0.0
 51
360.0
 73
     1
 97
        1
330
7B
 75
     2
 76
     1
 98
        1
 10
0.0
 20
0.0
450
        0
451
        0
460
0.0
461
0.0
452
        0
462
0.0
453
        0
470

  0
ELLIPSE
  5
7D
330
70
100
AcDbEntity
  8
Screws
100
AcDbEllipse
 10
1182.38037163908
 20
-1982.387911349826
 30
0.0
 11
2.557638888249479
 21
0.0
 31
0.0
210
0.0
220
0.0
230
1.0
 40
0.9655172413793103
 41
0.0
 42
6.283185307179586
  0
HATCH
  5
7E
330
70
100
AcDbEntity
  8
Screws
 62
    18
420
        0
440
 33554687
100
AcDbHatch
 10
0.0
 20
0.0
 30
0.0
210
0.0
220
0.0
230
1.0
  2
SOLID
 70
     1
 71
     1
 91
        1
 92
        1
 93
        1
 72
     3
 10
1182.38037163908
 20
-1982.387911349826
 11
2.557638888249479
 21
0.0
 40
0.9655172413793103
 50
0.0
 51
360.0
 73
     1
 97
        1
330
7D
 75
     2
 76
     1
 98
        1
 10
0.0
 20
0.0
450
        0
451
        0
460
0.0
461
0.0
452
        0
462
0.0
453
        0
470

  0
ELLIPSE
  5
7F
330
70
100
AcDbEntity
  8
Screws
100
AcDbEllipse
 10
1182.644954972347
 20
-17.53202921959431
 30
0.0
 11
2.557638888249479
 21
0.0
 31
0.0
210
0.0
220
0.0
230
1.0
 40
0.9655172413793103
 41
0.0
 42
6.283185307179586
  0
HATCH
  5
80
330
70
100
AcDbEntity
  8
Screws
 62
    18
420
        0
440
 33554687
100
AcDbHatch
 10
0.0
 20
0.0
 30
0.0
210
0.0
220
0.0
230
1.0
  2
SOLID
 70
     1
 71
     1
 91
        1
 92
        1
 93
        1
 72
     3
 10
1182.644954972347
 20
-17.53202921959431
 11
2.557638888249479
 21
0.0
 40
0.9655172413793103
 50
0.0
 51
360.0
 73
     1
 97
        1
330
7F
 75
     2
 76
     1
 98
        1
 10
0.0
 20
0.0
450
        0
451
        0
460
0.0
461
0.0
452
        0
462
0.0
453
        0
470

  0
ELLIPSE
  5
81
330
70
100
AcDbEntity
  8
Screws
100
AcDbEllipse
 10
17.43471861274107
 20
-17.53202921959431
 30
0.0
 11
2.557638888249479
 21
0.0
 31
0.0
210
0.0
220
0.0
230
1.0
 40
0.9655172413793103
 41
0.0
 42
6.283185307179586
  0
HATCH
  5
82
330
70
100
AcDbEntity
  8
Screws
 62
    18
420
        0
440
 33554687
100
AcDbHatch
 10
0.0
 20
0.0
 30
0.0
210
0.0
220
0.0
230
1.0
  2
SOLID
 70
     1
 71
     1
 91
        1
 92
        1
 93
        1
 72
     3
 10
17.43471861274107
 20
-17.53202921959431
 11
2.557638888249479
 21
0.0
 40
0.9655172413793103
 50
0.0
 51
360.0
 73
     1
 97
        1
330
81
 75
     2
 76
     1
 98
        1
 10
0.0
 20
0.0
450
        0
451
        0
460
0.0
461
0.0
452
        0
462
0.0
453
        0
470

  0
SPLINE
  5
84
330
70
100
AcDbEntity
  8
2023-004
100
AcDbSpline
210
0.0
220
0.0
230
1.0
 70
     9
 71
     3
 72
    53
 73
    49
 74
     0
 42
0.0000000001
 43
0.0000000001
 40
0.0
 40
0.0
 40
0.0
 40
0.0
 40
1.0
 40
1.0
 40
1.0
 40
2.0
 40
2.0
 40
2.0
 40
3.0
 40
3.0
 40
3.0
 40
4.0
 40
4.0
 40
4.0
 40
5.0
 40
5.0
 40
5.0
 40
6.0
 40
6.0
 40
6.0
 40
7.0
 40
7.0
 40
7.0
 40
8.0
 40
8.0
 40
8.0
 40
9.0
 40
9.0
 40
9.0
 40
10.0
 40
10.0
 40
10.0
 40
11.0
 40
11.0
 40
11.0
 40
12.0
 40
12.0
 40
12.0
 40
13.0
 40
13.0
 40
13.0
 40
14.0
 40
14.0
 40
14.0
 40
15.0
 40
15.0
 40
15.0
 40
16.0
 40
16.0
 40
16.0
 40
16.0
 10
1133.195804226455
 20
-1927.49215466288
 30
0.0
 10
1135.985121650899
 20
-1922.264136017866
 30
0.0
 10
1138.769601889258
 20
-1916.880010584204
 30
0.0
 10
1139.31248523376
 20
-1910.883513082847
 30
0.0
 10
1138.590658158532
 20
-1910.981202986616
 30
0.0
 10
1137.868831083304
 20
-1911.078892890383
 30
0.0
 10
1137.147004008075
 20
-1911.176582794151
 30
0.0
 10
1139.645243404572
 20
-1918.316825619832
 30
0.0
 10
1142.366982019686
 20
-1925.37597448837
 30
0.0
 10
1145.15013982959
 20
-1932.40926641331
 30
0.0
 10
1146.528013729112
 20
-1935.891278585462
 30
0.0
 10
1147.907673519729
 20
-1939.373108545147
 30
0.0
 10
1149.312847440792
 20
-1942.844207654643
 30
0.0
 10
1150.693087834134
 20
-1946.253715280995
 30
0.0
 10
1152.128035982745
 20
-1949.649267004131
 30
0.0
 10
1153.836217398797
 20
-1952.909757007413
 30
0.0
 10
1155.535282463005
 20
-1956.152846180911
 30
0.0
 10
1157.549002126153
 20
-1959.399724955856
 30
0.0
 10
1160.727477037321
 20
-1961.377738710783
 30
0.0
 10
1161.935616737212
 20
-1962.129582601658
 30
0.0
 10
1163.043839696222
 20
-1960.222879137254
 30
0.0
 10
1161.840312658662
 20
-1959.473905776994
 30
0.0
 10
1159.259305480325
 20
-1957.867705368623
 30
0.0
 10
1157.589464090202
 20
-1955.222419363898
 30
0.0
 10
1156.171176108573
 20
-1952.606058737273
 30
0.0
 10
1154.481185125695
 20
-1949.488479004364
 30
0.0
 10
1153.060285652461
 20
-1946.234673840634
 30
0.0
 10
1151.721571204686
 20
-1942.953652535634
 30
0.0
 10
1148.936686103885
 20
-1936.128248236092
 30
0.0
 10
1146.225940378586
 20
-1929.267316433397
 30
0.0
 10
1143.598085337133
 20
-1922.379965319317
 30
0.0
 10
1142.105827317441
 20
-1918.468902961503
 30
0.0
 10
1140.655586716156
 20
-1914.541727094849
 30
0.0
 10
1139.273105348885
 20
-1910.590443371544
 30
0.0
 10
1138.853195201428
 20
-1909.39029400955
 30
0.0
 10
1137.22021269214
 20
-1909.639899553051
 30
0.0
 10
1137.1076241232
 20
-1910.883513082847
 30
0.0
 10
1136.602845758467
 20
-1916.459116448681
 30
0.0
 10
1133.881106173083
 20
-1921.526502610301
 30
0.0
 10
1131.291971292664
 20
-1926.379319041538
 30
0.0
 10
1131.011780438917
 20
-1926.904480858806
 30
0.0
 10
1131.159768591901
 20
-1927.579001532784
 30
0.0
 10
1131.687469948889
 20
-1927.887653319105
 30
0.0
 10
1132.187194887979
 20
-1928.17994173769
 30
0.0
 10
1132.914578640918
 20
-1928.01925587831
 30
0.0
 10
1133.195804226455
 20
-1927.49215466288
 30
0.0
 10
1133.195804226455
 20
-1927.49215466288
 30
0.0
 10
1133.195804226455
 20
-1927.49215466288
 30
0.0
 10
1133.195804226455
 20
-1927.49215466288
 30
0.0
  0
HATCH
  5
85
330
70
100
AcDbEntity
  8
2023-004
 62
    18
420
        0
440
 33554687
100
AcDbHatch
 10
0.0
 20
0.0
 30
0.0
210
0.0
220
0.0
230
1.0
  2
SOLID
 70
     1
 71
     1
 91
        1
 92
        1
 93
        1
 72
     4
 94
        3
 73
     0
 74
     0
 95
       53
 96
       49
 40
0.0
 40
0.0
 40
0.0
 40
0.0
 40
1.0
 40
1.0
 40
1.0
 40
2.0
 40
2.0
 40
2.0
 40
3.0
 40
3.0
 40
3.0
 40
4.0
 40
4.0
 40
4.0
 40
5.0
 40
5.0
 40
5.0
 40
6.0
 40
6.0
 40
6.0
 40
7.0
 40
7.0
 40
7.0
 40
8.0
 40
8.0
 40
8.0
 40
9.0
 40
9.0
 40
9.0
 40
10.0
 40
10.0
 40
10.0
 40
11.0
 40
11.0
 40
11.0
 40
12.0
 40
12.0
 40
12.0
 40
13.0
 40
13.0
 40
13.0
 40
14.0
 40
14.0
 40
14.0
 40
15.0
 40
15.0
 40
15.0
 40
16.0
 40
16.0
 40
16.0
 40
16.0
 10
1133.195804226455
 20
-1927.49215466288
 10
1135.985121650899
 20
-1922.264136017866
 10
1138.769601889258
 20
-1916.880010584204
 10
1139.31248523376
 20
-1910.883513082847
 10
1138.590658158532
 20
-1910.981202986616
 10
1137.868831083304
 20
-1911.078892890383
 10
1137.147004008075
 20
-1911.176582794151
 10
1139.645243404572
 20
-1918.316825619832
 10
1142.366982019686
 20
-1925.37597448837
 10
1145.15013982959
 20
-1932.40926641331
 10
1146.528013729112
 20
-1935.891278585462
 10
1147.907673519729
 20
-1939.373108545147
 10
1149.312847440792
 20
-1942.844207654643
 10
1150.693087834134
 20
-1946.253715280995
 10
1152.128035982745
 20
-1949.649267004131
 10
1153.836217398797
 20
-1952.909757007413
 10
1155.535282463005
 20
-1956.152846180911
 10
1157.549002126153
 20
-1959.399724955856
 10
1160.727477037321
 20
-1961.377738710783
 10
1161.935616737212
 20
-1962.129582601658
 10
1163.043839696222
 20
-1960.222879137254
 10
1161.840312658662
 20
-1959.473905776994
 10
1159.259305480325
 20
-1957.867705368623
 10
1157.589464090202
 20
-1955.222419363898
 10
1156.171176108573
 20
-1952.606058737273
 10
1154.481185125695
 20
-1949.488479004364
 10
1153.060285652461
 20
-1946.234673840634
 10
1151.721571204686
 20
-1942.953652535634
 10
1148.936686103885
 20
-1936.128248236092
 10
1146.225940378586
 20
-1929.267316433397
 10
1143.598085337133
 20
-1922.379965319317
 10
1142.105827317441
 20
-1918.468902961503
 10
1140.655586716156
 20
-1914.541727094849
 10
1139.273105348885
 20
-1910.590443371544
 10
1138.853195201428
 20
-1909.39029400955
 10
1137.22021269214
 20
-1909.639899553051
 10
1137.1076241232
 20
-1910.883513082847
 10
1136.602845758467
 20
-1916.459116448681
 10
1133.881106173083
 20
-1921.526502610301
 10
1131.291971292664
 20
-1926.379319041538
 10
1131.011780438917
 20
-1926.904480858806
 10
1131.159768591901
 20
-1927.579001532784
 10
1131.687469948889
 20
-1927.887653319105
 10
1132.187194887979
 20
-1928.17994173769
 10
1132.914578640918
 20
-1928.01925587831
 10
1133.195804226455
 20
-1927.49215466288
 10
1133.195804226455
 20
-1927.49215466288
 10
1133.195804226455
 20
-1927.49215466288
 10
1133.195804226455
 20
-1927.49215466288
 97
        0
 97
        1
330
84
 75
     2
 76
     1
 98
        1
 10
0.0
 20
0.0
450
        0
451
        0
460
0.0
461
0.0
452
        0
462
0.0
453
        0
470

  0
SPLINE
  5
86
330
70
100
AcDbEntity
  8
2023-004
100
AcDbSpline
210
0.0
220
0.0
230
1.0
 70
     9
 71
     3
 72
   110
 73
   106
 74
     0
 42
0.0000000001
 43
0.0000000001
 40
0.0
 40
0.0
 40
0.0
 40
0.0
 40
1.0
 40
1.0
 40
1.0
 40
2.0
 40
2.0
 40
2.0
 40
3.0
 40
3.0
 40
3.0
 40
4.0
 40
4.0
 40
4.0
 40
5.0
 40
5.0
 40
5.0
 40
6.0
 40
6.0
 40
6.0
 40
7.0
 40
7.0
 40
7.0
 40
8.0
 40
8.0
 40
8.0
 40
9.0
 40
9.0
 40
9.0
 40
10.0
 40
10.0
 40
10.0
 40
11.0
 40
11.0
 40
11.0
 40
12.0
 40
12.0
 40
12.0
 40
13.0
 40
13.0
 40
13.0
 40
14.0
 40
14.0
 40
14.0
 40
15.0
 40
15.0
 40
15.0
 40
16.0
 40
16.0
 40
16.0
 40
17.0
 40
17.0
 40
17.0
 40
18.0
 40
18.0
 40
18.0
 40
19.0
 40
19.0
 40
19.0
 40
20.0
 40
20.0
 40
20.0
 40
21.0
 40
21.0
 40
21.0
 40
22.0
 40
22.0
 40
22.0
 40
23.0
 40
23.0
 40
23.0
 40
24.0
 40
24.0
 40
24.0
 40
25.0
 40
25.0
 40
25.0
 40
26.0
 40
26.0
 40
26.0
 40
27.0
 40
27.0
 40
27.0
 40
28.0
 40
28.0
 40
28.0
 40
29.0
 40
29.0
 40
29.0
 40
30.0
 40
30.0
 40
30.0
 40
31.0
 40
31.0
 40
31.0
 40
32.0
 40
32.0
 40
32.0
 40
33.0
 40
33.0
 40
33.0
 40
34.0
 40
34.0
 40
34.0
 40
35.0
 40
35.0
 40
35.0
 40
35.0
 10
1125.843465775541
 20
-1947.215446637551
 30
0.0
 10
1126.042763045248
 20
-1947.090194092173
 30
0.0
 10
1126.233573510109
 20
-1946.985389376768
 30
0.0
 10
1126.392710063415
 20
-1946.930859082006
 30
0.0
 10
1126.535864971035
 20
-1946.881805114535
 30
0.0
 10
1126.681970040942
 20
-1946.844618461121
 30
0.0
 10
1126.829699624395
 20
-1946.812324092543
 30
0.0
 10
1126.94814703197
 20
-1946.786430942722
 30
0.0
 10
1126.887337234341
 20
-1946.795114082038
 30
0.0
 10
1126.855956635646
 20
-1946.799944473148
 30
0.0
 10
1126.908979644616
 20
-1946.791782682685
 30
0.0
 10
1127.078913990604
 20
-1946.812396755343
 30
0.0
 10
1127.117150288883
 20
-1946.782552206681
 30
0.0
 10
1127.017252063785
 20
-1946.707724472038
 30
0.0
 10
1126.917353838687
 20
-1946.632896737394
 30
0.0
 10
1126.817455613589
 20
-1946.55806900275
 30
0.0
 10
1126.576317689691
 20
-1946.276881642751
 30
0.0
 10
1126.480144489054
 20
-1946.218176587826
 30
0.0
 10
1126.528936011676
 20
-1946.381953837973
 30
0.0
 10
1126.564508353443
 20
-1946.390557594916
 30
0.0
 10
1126.528104535092
 20
-1946.446355123716
 30
0.0
 10
1126.522253958491
 20
-1946.334386416997
 30
0.0
 10
1126.529034578304
 20
-1946.464154349813
 30
0.0
 10
1126.53057807285
 20
-1946.594429260908
 30
0.0
 10
1126.527400359258
 20
-1946.724330447844
 30
0.0
 10
1126.524256595081
 20
-1946.852843822622
 30
0.0
 10
1126.515738299638
 20
-1946.981187184537
 30
0.0
 10
1126.503928294275
 20
-1947.109176012369
 30
0.0
 10
1126.490449910101
 20
-1947.255245598151
 30
0.0
 10
1126.494883541516
 20
-1947.203008962103
 30
0.0
 10
1126.459322360426
 20
-1947.384705661276
 30
0.0
 10
1126.241174107371
 20
-1948.499314802331
 30
0.0
 10
1125.788959852898
 20
-1949.388154207692
 30
0.0
 10
1125.277770202836
 20
-1950.394654140539
 30
0.0
 10
1125.02632565362
 20
-1950.889732477647
 30
0.0
 10
1124.771230487899
 20
-1951.383232053378
 30
0.0
 10
1124.538597159578
 20
-1951.887552435833
 30
0.0
 10
1124.205453833174
 20
-1952.609766105721
 30
0.0
 10
1123.776536513882
 20
-1953.464105983385
 30
0.0
 10
1124.424691776304
 20
-1954.157025160804
 30
0.0
 10
1124.910593481051
 20
-1954.676484970945
 30
0.0
 10
1125.613732876762
 20
-1954.711836633839
 30
0.0
 10
1126.283138376987
 20
-1954.652306102488
 30
0.0
 10
1126.95286283546
 20
-1954.592747206038
 30
0.0
 10
1127.610648245723
 20
-1954.4584446729
 30
0.0
 10
1128.261783494541
 20
-1954.295100232218
 30
0.0
 10
1129.74064495718
 20
-1953.924111564504
 30
0.0
 10
1131.215340066261
 20
-1953.535680336445
 30
0.0
 10
1132.691894938633
 20
-1953.155614088788
 30
0.0
 10
1133.268547765401
 20
-1953.007183251459
 30
0.0
 10
1133.617729750488
 20
-1952.366616906856
 30
0.0
 10
1133.461875897734
 20
-1951.79949370708
 30
0.0
 10
1133.301447931774
 20
-1951.215726159589
 30
0.0
 10
1132.684300796837
 20
-1950.880594791667
 30
0.0
 10
1132.105755516025
 20
-1951.02951274798
 30
0.0
 10
1130.925520859784
 20
-1951.333305966602
 30
0.0
 10
1129.745286203495
 20
-1951.637099185036
 30
0.0
 10
1128.565051587786
 20
-1951.940892561126
 30
0.0
 10
1128.003364922823
 20
-1952.08547117794
 30
0.0
 10
1127.442710237575
 20
-1952.23993684864
 30
0.0
 10
1126.873778230514
 20
-1952.353990002267
 30
0.0
 10
1126.627901406608
 20
-1952.403280650047
 30
0.0
 10
1126.385327527434
 20
-1952.442835732295
 30
0.0
 10
1126.13491054547
 20
-1952.458976364632
 30
0.0
 10
1126.014584508587
 20
-1952.46673198211
 30
0.0
 10
1125.879616517183
 20
-1952.447953380761
 30
0.0
 10
1125.763090260785
 20
-1952.470568285384
 30
0.0
 10
1125.653379629631
 20
-1952.465841433895
 30
0.0
 10
1125.663530723207
 20
-1952.472328150574
 30
0.0
 10
1125.793543541511
 20
-1952.490028435422
 30
0.0
 10
1125.85709882534
 20
-1952.525741511714
 30
0.0
 10
1125.920505651221
 20
-1952.561716339224
 30
0.0
 10
1125.983764019155
 20
-1952.597952917952
 30
0.0
 10
1126.078268868815
 20
-1952.760108387993
 30
0.0
 10
1126.172773718475
 20
-1952.922263858033
 30
0.0
 10
1126.267278568134
 20
-1953.084419328074
 30
0.0
 10
1126.37322148771
 20
-1953.38973809827
 30
0.0
 10
1126.207818578904
 20
-1953.424332451363
 30
0.0
 10
1126.333551484373
 20
-1953.241144556592
 30
0.0
 10
1126.404705764884
 20
-1953.137475570324
 30
0.0
 10
1126.445225386818
 20
-1952.993527894028
 30
0.0
 10
1126.498346920758
 20
-1952.880297778691
 30
0.0
 10
1126.5925200724
 20
-1952.67956493023
 30
0.0
 10
1126.690170430069
 20
-1952.480466490737
 30
0.0
 10
1126.789186699459
 20
-1952.282085131987
 30
0.0
 10
1127.007805002113
 20
-1951.844078366075
 30
0.0
 10
1127.234478585291
 20
-1951.410124104387
 30
0.0
 10
1127.451189791186
 20
-1950.971160567869
 30
0.0
 10
1127.904056413213
 20
-1950.053847902129
 30
0.0
 10
1128.342411732019
 20
-1949.100531373605
 30
0.0
 10
1128.55962913779
 20
-1948.095936120729
 30
0.0
 10
1128.774920950536
 20
-1947.100246423117
 30
0.0
 10
1128.991580807663
 20
-1945.667699216734
 30
0.0
 10
1128.111995379967
 20
-1944.929466692016
 30
0.0
 10
1127.199849989576
 20
-1944.163906721085
 30
0.0
 10
1125.61040659916
 20
-1944.758699761406
 30
0.0
 10
1124.7306301542
 20
-1945.31161370376
 30
0.0
 10
1124.227004541568
 20
-1945.628127773381
 30
0.0
 10
1124.027711161262
 20
-1946.294359736481
 30
0.0
 10
1124.335131497975
 20
-1946.819947981326
 30
0.0
 10
1124.628937508425
 20
-1947.322260180344
 30
0.0
 10
1125.337330107209
 20
-1947.533538204274
 30
0.0
 10
1125.843465775541
 20
-1947.215446637551
 30
0.0
 10
1125.843465775541
 20
-1947.215446637551
 30
0.0
 10
1125.843465775541
 20
-1947.215446637551
 30
0.0
 10
1125.843465775541
 20
-1947.215446637551
 30
0.0
  0
HATCH
  5
87
330
70
100
AcDbEntity
  8
2023-004
 62
    18
420
        0
440
 33554687
100
AcDbHatch
 10
0.0
 20
0.0
 30
0.0
210
0.0
220
0.0
230
1.0
  2
SOLID
 70
     1
 71
     1
 91
        1
 92
        1
 93
        1
 72
     4
 94
        3
 73
     0
 74
     0
 95
      110
 96
      106
 40
0.0
 40
0.0
 40
0.0
 40
0.0
 40
1.0
 40
1.0
 40
1.0
 40
2.0
 40
2.0
 40
2.0
 40
3.0
 40
3.0
 40
3.0
 40
4.0
 40
4.0
 40
4.0
 40
5.0
 40
5.0
 40
5.0
 40
6.0
 40
6.0
 40
6.0
 40
7.0
 40
7.0
 40
7.0
 40
8.0
 40
8.0
 40
8.0
 40
9.0
 40
9.0
 40
9.0
 40
10.0
 40
10.0
 40
10.0
 40
11.0
 40
11.0
 40
11.0
 40
12.0
 40
12.0
 40
12.0
 40
13.0
 40
13.0
 40
13.0
 40
14.0
 40
14.0
 40
14.0
 40
15.0
 40
15.0
 40
15.0
 40
16.0
 40
16.0
 40
16.0
 40
17.0
 40
17.0
 40
17.0
 40
18.0
 40
18.0
 40
18.0
 40
19.0
 40
19.0
 40
19.0
 40
20.0
 40
20.0
 40
20.0
 40
21.0
 40
21.0
 40
21.0
 40
22.0
 40
22.0
 40
22.0
 40
23.0
 40
23.0
 40
23.0
 40
24.0
 40
24.0
 40
24.0
 40
25.0
 40
25.0
 40
25.0
 40
26.0
 40
26.0
 40
26.0
 40
27.0
 40
27.0
 40
27.0
 40
28.0
 40
28.0
 40
28.0
 40
29.0
 40
29.0
 40
29.0
 40
30.0
 40
30.0
 40
30.0
 40
31.0
 40
31.0
 40
31.0
 40
32.0
 40
32.0
 40
32.0
 40
33.0
 40
33.0
 40
33.0
 40
34.0
 40
34.0
 40
34.0
 40
35.0
 40
35.0
 40
35.0
 40
35.0
 10
1125.843465775541
 20
-1947.215446637551
 10
1126.042763045248
 20
-1947.090194092173
 10
1126.233573510109
 20
-1946.985389376768
 10
1126.392710063415
 20
-1946.930859082006
 10
1126.535864971035
 20
-1946.881805114535
 10
1126.681970040942
 20
-1946.844618461121
 10
1126.829699624395
 20
-1946.812324092543
 10
1126.94814703197
 20
-1946.786430942722
 10
1126.887337234341
 20
-1946.795114082038
 10
1126.855956635646
 20
-1946.799944473148
 10
1126.908979644616
 20
-1946.791782682685
 10
1127.078913990604
 20
-1946.812396755343
 10
1127.117150288883
 20
-1946.782552206681
 10
1127.017252063785
 20
-1946.707724472038
 10
1126.917353838687
 20
-1946.632896737394
 10
1126.817455613589
 20
-1946.55806900275
 10
1126.576317689691
 20
-1946.276881642751
 10
1126.480144489054
 20
-1946.218176587826
 10
1126.528936011676
 20
-1946.381953837973
 10
1126.564508353443
 20
-1946.390557594916
 10
1126.528104535092
 20
-1946.446355123716
 10
1126.522253958491
 20
-1946.334386416997
 10
1126.529034578304
 20
-1946.464154349813
 10
1126.53057807285
 20
-1946.594429260908
 10
1126.527400359258
 20
-1946.724330447844
 10
1126.524256595081
 20
-1946.852843822622
 10
1126.515738299638
 20
-1946.981187184537
 10
1126.503928294275
 20
-1947.109176012369
 10
1126.490449910101
 20
-1947.255245598151
 10
1126.494883541516
 20
-1947.203008962103
 10
1126.459322360426
 20
-1947.384705661276
 10
1126.241174107371
 20
-1948.499314802331
 10
1125.788959852898
 20
-1949.388154207692
 10
1125.277770202836
 20
-1950.394654140539
 10
1125.02632565362
 20
-1950.889732477647
 10
1124.771230487899
 20
-1951.383232053378
 10
1124.538597159578
 20
-1951.887552435833
 10
1124.205453833174
 20
-1952.609766105721
 10
1123.776536513882
 20
-1953.464105983385
 10
1124.424691776304
 20
-1954.157025160804
 10
1124.910593481051
 20
-1954.676484970945
 10
1125.613732876762
 20
-1954.711836633839
 10
1126.283138376987
 20
-1954.652306102488
 10
1126.95286283546
 20
-1954.592747206038
 10
1127.610648245723
 20
-1954.4584446729
 10
1128.261783494541
 20
-1954.295100232218
 10
1129.74064495718
 20
-1953.924111564504
 10
1131.215340066261
 20
-1953.535680336445
 10
1132.691894938633
 20
-1953.155614088788
 10
1133.268547765401
 20
-1953.007183251459
 10
1133.617729750488
 20
-1952.366616906856
 10
1133.461875897734
 20
-1951.79949370708
 10
1133.301447931774
 20
-1951.215726159589
 10
1132.684300796837
 20
-1950.880594791667
 10
1132.105755516025
 20
-1951.02951274798
 10
1130.925520859784
 20
-1951.333305966602
 10
1129.745286203495
 20
-1951.637099185036
 10
1128.565051587786
 20
-1951.940892561126
 10
1128.003364922823
 20
-1952.08547117794
 10
1127.442710237575
 20
-1952.23993684864
 10
1126.873778230514
 20
-1952.353990002267
 10
1126.627901406608
 20
-1952.403280650047
 10
1126.385327527434
 20
-1952.442835732295
 10
1126.13491054547
 20
-1952.458976364632
 10
1126.014584508587
 20
-1952.46673198211
 10
1125.879616517183
 20
-1952.447953380761
 10
1125.763090260785
 20
-1952.470568285384
 10
1125.653379629631
 20
-1952.465841433895
 10
1125.663530723207
 20
-1952.472328150574
 10
1125.793543541511
 20
-1952.490028435422
 10
1125.85709882534
 20
-1952.525741511714
 10
1125.920505651221
 20
-1952.561716339224
 10
1125.983764019155
 20
-1952.597952917952
 10
1126.078268868815
 20
-1952.760108387993
 10
1126.172773718475
 20
-1952.922263858033
 10
1126.267278568134
 20
-1953.084419328074
 10
1126.37322148771
 20
-1953.38973809827
 10
1126.207818578904
 20
-1953.424332451363
 10
1126.333551484373
 20
-1953.241144556592
 10
1126.404705764884
 20
-1953.137475570324
 10
1126.445225386818
 20
-1952.993527894028
 10
1126.498346920758
 20
-1952.880297778691
 10
1126.5925200724
 20
-1952.67956493023
 10
1126.690170430069
 20
-1952.480466490737
 10
1126.789186699459
 20
-1952.282085131987
 10
1127.007805002113
 20
-1951.844078366075
 10
1127.234478585291
 20
-1951.410124104387
 10
1127.451189791186
 20
-1950.971160567869
 10
1127.904056413213
 20
-1950.053847902129
 10
1128.342411732019
 20
-1949.100531373605
 10
1128.55962913779
 20
-1948.095936120729
 10
1128.774920950536
 20
-1947.100246423117
 10
1128.991580807663
 20
-1945.667699216734
 10
1128.111995379967
 20
-1944.929466692016
 10
1127.199849989576
 20
-1944.163906721085
 10
1125.61040659916
 20
-1944.758699761406
 10
1124.7306301542
 20
-1945.31161370376
 10
1124.227004541568
 20
-1945.628127773381
 10
1124.027711161262
 20
-1946.294359736481
 10
1124.335131497975
 20
-1946.819947981326
 10
1124.628937508425
 20
-1947.322260180344
 10
1125.337330107209
 20
-1947.533538204274
 10
1125.843465775541
 20
-1947.215446637551
 10
1125.843465775541
 20
-1947.215446637551
 10
1125.843465775541
 20
-1947.215446637551
 10
1125.843465775541
 20
-1947.215446637551
 97
        0
 97
        1
330
86
 75
     2
 76
     1
 98
        1
 10
0.0
 20
0.0
450
        0
451
        0
460
0.0
461
0.0
452
        0
462
0.0
453
        0
470

  0
SPLINE
  5
88
330
70
100
AcDbEntity
  8
2023-004
100
AcDbSpline
210
0.0
220
0.0
230
1.0
 70
     9
 71
     3
 72
    95
 73
    91
 74
     0
 42
0.0000000001
 43
0.0000000001
 40
0.0
 40
0.0
 40
0.0
 40
0.0
 40
1.0
 40
1.0
 40
1.0
 40
2.0
 40
2.0
 40
2.0
 40
3.0
 40
3.0
 40
3.0
 40
4.0
 40
4.0
 40
4.0
 40
5.0
 40
5.0
 40
5.0
 40
6.0
 40
6.0
 40
6.0
 40
7.0
 40
7.0
 40
7.0
 40
8.0
 40
8.0
 40
8.0
 40
9.0
 40
9.0
 40
9.0
 40
10.0
 40
10.0
 40
10.0
 40
11.0
 40
11.0
 40
11.0
 40
12.0
 40
12.0
 40
12.0
 40
13.0
 40
13.0
 40
13.0
 40
14.0
 40
14.0
 40
14.0
 40
15.0
 40
15.0
 40
15.0
 40
16.0
 40
16.0
 40
16.0
 40
17.0
 40
17.0
 40
17.0
 40
18.0
 40
18.0
 40
18.0
 40
19.0
 40
19.0
 40
19.0
 40
20.0
 40
20.0
 40
20.0
 40
21.0
 40
21.0
 40
21.0
 40
22.0
 40
22.0
 40
22.0
 40
23.0
 40
23.0
 40
23.0
 40
24.0
 40
24.0
 40
24.0
 40
25.0
 40
25.0
 40
25.0
 40
26.0
 40
26.0
 40
26.0
 40
27.0
 40
27.0
 40
27.0
 40
28.0
 40
28.0
 40
28.0
 40
29.0
 40
29.0
 40
29.0
 40
30.0
 40
30.0
 40
30.0
 40
30.0
 10
1138.363331051203
 20
-1950.353904822086
 30
0.0
 10
1138.855399470179
 20
-1950.228303813652
 30
0.0
 10
1139.345963380699
 20
-1950.140194078059
 30
0.0
 10
1139.853371593755
 20
-1950.113707111147
 30
0.0
 10
1140.099615222305
 20
-1950.100853068438
 30
0.0
 10
1140.346357328544
 20
-1950.098777296982
 30
0.0
 10
1140.592787577026
 20
-1950.106788277913
 30
0.0
 10
1140.729342380227
 20
-1950.111227416092
 30
0.0
 10
1140.867025043038
 20
-1950.115392172627
 30
0.0
 10
1141.003047645129
 20
-1950.12944929531
 30
0.0
 10
1141.05762054986
 20
-1950.134336906992
 30
0.0
 10
1141.11219345459
 20
-1950.139224518675
 30
0.0
 10
1141.166766359319
 20
-1950.144112130358
 30
0.0
 10
1141.007945147262
 20
-1950.163099972639
 30
0.0
 10
1140.878397495484
 20
-1950.084769348137
 30
0.0
 10
1140.778123403985
 20
-1949.909120256849
 30
0.0
 10
1140.72795204119
 20
-1949.723647653291
 30
0.0
 10
1140.677780678395
 20
-1949.538175049735
 30
0.0
 10
1140.6276093156
 20
-1949.352702446178
 30
0.0
 10
1140.612799070493
 20
-1949.18664845797
 30
0.0
 10
1140.839429405818
 20
-1948.988896596906
 30
0.0
 10
1140.58353629311
 20
-1949.240667854082
 30
0.0
 10
1140.501015517656
 20
-1949.321859407694
 30
0.0
 10
1140.421748226995
 20
-1949.406702085446
 30
0.0
 10
1140.340954055631
 20
-1949.489616721573
 30
0.0
 10
1140.118587009796
 20
-1949.71781985035
 30
0.0
 10
1139.896219971894
 20
-1949.946022986856
 30
0.0
 10
1139.673852938623
 20
-1950.174226127875
 30
0.0
 10
1139.249334062702
 20
-1950.609886663891
 30
0.0
 10
1138.824815205071
 20
-1951.045547217729
 30
0.0
 10
1138.400296347332
 20
-1951.481207771461
 30
0.0
 10
1137.936111891509
 20
-1951.957574965451
 30
0.0
 10
1137.970795283318
 20
-1952.893566261604
 30
0.0
 10
1138.623414658087
 20
-1953.212660359783
 30
0.0
 10
1139.172473701168
 20
-1953.481119291545
 30
0.0
 10
1139.721532744087
 20
-1953.749578223637
 30
0.0
 10
1140.270591786952
 20
-1954.018037155841
 30
0.0
 10
1140.626298442138
 20
-1954.191957665975
 30
0.0
 10
1141.164406833762
 20
-1954.408577661384
 30
0.0
 10
1141.383778753346
 20
-1954.625162420196
 30
0.0
 10
1141.45551295974
 20
-1954.695985230243
 30
0.0
 10
1141.43582122404
 20
-1954.752438631119
 30
0.0
 10
1141.425825319772
 20
-1954.803936701369
 30
0.0
 10
1141.387877171169
 20
-1954.999442417542
 30
0.0
 10
1141.312483512969
 20
-1955.165759234652
 30
0.0
 10
1141.216458618593
 20
-1955.338533388575
 30
0.0
 10
1140.966873024113
 20
-1955.787603811388
 30
0.0
 10
1140.654409192138
 20
-1956.210370787782
 30
0.0
 10
1140.341344238449
 20
-1956.616819792564
 30
0.0
 10
1138.977240972236
 20
-1958.387821012721
 30
0.0
 10
1137.29370803846
 20
-1959.89707136362
 30
0.0
 10
1135.64676535651
 20
-1961.396691447063
 30
0.0
 10
1135.206370041954
 20
-1961.797692444609
 30
0.0
 10
1135.239631070171
 20
-1962.548629403575
 30
0.0
 10
1135.64676535651
 20
-1962.955763689914
 30
0.0
 10
1136.084995854288
 20
-1963.393994187691
 30
0.0
 10
1136.764294593639
 20
-1963.357809715161
 30
0.0
 10
1137.205837599363
 20
-1962.955763689914
 30
0.0
 10
1139.159052046567
 20
-1961.177268515553
 30
0.0
 10
1141.100416367764
 20
-1959.373735052486
 30
0.0
 10
1142.630293962535
 20
-1957.204487354767
 30
0.0
 10
1143.405371584199
 20
-1956.105487439941
 30
0.0
 10
1144.094179136326
 20
-1954.644616204804
 30
0.0
 10
1143.206222791455
 20
-1953.396765685388
 30
0.0
 10
1142.822961439028
 20
-1952.858166146727
 30
0.0
 10
1142.263753640681
 20
-1952.545095101517
 30
0.0
 10
1141.68291415932
 20
-1952.260636367082
 30
0.0
 10
1141.034229944452
 20
-1951.942951538948
 30
0.0
 10
1140.385137781899
 20
-1951.626096848913
 30
0.0
 10
1139.736250279427
 20
-1951.308827425991
 30
0.0
 10
1139.81062304968
 20
-1951.885978288765
 30
0.0
 10
1139.884995819931
 20
-1952.463129151539
 30
0.0
 10
1139.959368590182
 20
-1953.040280014312
 30
0.0
 10
1140.565824103471
 20
-1952.417907792407
 30
0.0
 10
1141.172279616289
 20
-1951.795535570042
 30
0.0
 10
1141.778735182619
 20
-1951.173163399821
 30
0.0
 10
1142.415780145116
 20
-1950.519399005773
 30
0.0
 10
1143.218991008408
 20
-1949.733344932477
 30
0.0
 10
1142.658009806353
 20
-1948.747433360414
 30
0.0
 10
1142.193947854532
 20
-1947.93185514357
 30
0.0
 10
1141.178390533913
 20
-1947.900536754569
 30
0.0
 10
1140.346290259925
 20
-1947.897018453822
 30
0.0
 10
1139.482859342531
 20
-1947.893367680308
 30
0.0
 10
1138.612803948905
 20
-1948.014512511884
 30
0.0
 10
1137.777191628595
 20
-1948.227803481278
 30
0.0
 10
1136.403271319355
 20
-1948.578498160503
 30
0.0
 10
1136.985547686534
 20
-1950.705585550485
 30
0.0
 10
1138.363331051203
 20
-1950.353904822086
 30
0.0
 10
1138.363331051203
 20
-1950.353904822086
 30
0.0
 10
1138.363331051203
 20
-1950.353904822086
 30
0.0
 10
1138.363331051203
 20
-1950.353904822086
 30
0.0
  0
HATCH
  5
89
330
70
100
AcDbEntity
  8
2023-004
 62
    18
420
        0
440
 33554687
100
AcDbHatch
 10
0.0
 20
0.0
 30
0.0
210
0.0
220
0.0
230
1.0
  2
SOLID
 70
     1
 71
     1
 91
        1
 92
        1
 93
        1
 72
     4
 94
        3
 73
     0
 74
     0
 95
       95
 96
       91
 40
0.0
 40
0.0
 40
0.0
 40
0.0
 40
1.0
 40
1.0
 40
1.0
 40
2.0
 40
2.0
 40
2.0
 40
3.0
 40
3.0
 40
3.0
 40
4.0
 40
4.0
 40
4.0
 40
5.0
 40
5.0
 40
5.0
 40
6.0
 40
6.0
 40
6.0
 40
7.0
 40
7.0
 40
7.0
 40
8.0
 40
8.0
 40
8.0
 40
9.0
 40
9.0
 40
9.0
 40
10.0
 40
10.0
 40
10.0
 40
11.0
 40
11.0
 40
11.0
 40
12.0
 40
12.0
 40
12.0
 40
13.0
 40
13.0
 40
13.0
 40
14.0
 40
14.0
 40
14.0
 40
15.0
 40
15.0
 40
15.0
 40
16.0
 40
16.0
 40
16.0
 40
17.0
 40
17.0
 40
17.0
 40
18.0
 40
18.0
 40
18.0
 40
19.0
 40
19.0
 40
19.0
 40
20.0
 40
20.0
 40
20.0
 40
21.0
 40
21.0
 40
21.0
 40
22.0
 40
22.0
 40
22.0
 40
23.0
 40
23.0
 40
23.0
 40
24.0
 40
24.0
 40
24.0
 40
25.0
 40
25.0
 40
25.0
 40
26.0
 40
26.0
 40
26.0
 40
27.0
 40
27.0
 40
27.0
 40
28.0
 40
28.0
 40
28.0
 40
29.0
 40
29.0
 40
29.0
 40
30.0
 40
30.0
 40
30.0
 40
30.0
 10
1138.363331051203
 20
-1950.353904822086
 10
1138.855399470179
 20
-1950.228303813652
 10
1139.345963380699
 20
-1950.140194078059
 10
1139.853371593755
 20
-1950.113707111147
 10
1140.099615222305
 20
-1950.100853068438
 10
1140.346357328544
 20
-1950.098777296982
 10
1140.592787577026
 20
-1950.106788277913
 10
1140.729342380227
 20
-1950.111227416092
 10
1140.867025043038
 20
-1950.115392172627
 10
1141.003047645129
 20
-1950.12944929531
 10
1141.05762054986
 20
-1950.134336906992
 10
1141.11219345459
 20
-1950.139224518675
 10
1141.166766359319
 20
-1950.144112130358
 10
1141.007945147262
 20
-1950.163099972639
 10
1140.878397495484
 20
-1950.084769348137
 10
1140.778123403985
 20
-1949.909120256849
 10
1140.72795204119
 20
-1949.723647653291
 10
1140.677780678395
 20
-1949.538175049735
 10
1140.6276093156
 20
-1949.352702446178
 10
1140.612799070493
 20
-1949.18664845797
 10
1140.839429405818
 20
-1948.988896596906
 10
1140.58353629311
 20
-1949.240667854082
 10
1140.501015517656
 20
-1949.321859407694
 10
1140.421748226995
 20
-1949.406702085446
 10
1140.340954055631
 20
-1949.489616721573
 10
1140.118587009796
 20
-1949.71781985035
 10
1139.896219971894
 20
-1949.946022986856
 10
1139.673852938623
 20
-1950.174226127875
 10
1139.249334062702
 20
-1950.609886663891
 10
1138.824815205071
 20
-1951.045547217729
 10
1138.400296347332
 20
-1951.481207771461
 10
1137.936111891509
 20
-1951.957574965451
 10
1137.970795283318
 20
-1952.893566261604
 10
1138.623414658087
 20
-1953.212660359783
 10
1139.172473701168
 20
-1953.481119291545
 10
1139.721532744087
 20
-1953.749578223637
 10
1140.270591786952
 20
-1954.018037155841
 10
1140.626298442138
 20
-1954.191957665975
 10
1141.164406833762
 20
-1954.408577661384
 10
1141.383778753346
 20
-1954.625162420196
 10
1141.45551295974
 20
-1954.695985230243
 10
1141.43582122404
 20
-1954.752438631119
 10
1141.425825319772
 20
-1954.803936701369
 10
1141.387877171169
 20
-1954.999442417542
 10
1141.312483512969
 20
-1955.165759234652
 10
1141.216458618593
 20
-1955.338533388575
 10
1140.966873024113
 20
-1955.787603811388
 10
1140.654409192138
 20
-1956.210370787782
 10
1140.341344238449
 20
-1956.616819792564
 10
1138.977240972236
 20
-1958.387821012721
 10
1137.29370803846
 20
-1959.89707136362
 10
1135.64676535651
 20
-1961.396691447063
 10
1135.206370041954
 20
-1961.797692444609
 10
1135.239631070171
 20
-1962.548629403575
 10
1135.64676535651
 20
-1962.955763689914
 10
1136.084995854288
 20
-1963.393994187691
 10
1136.764294593639
 20
-1963.357809715161
 10
1137.205837599363
 20
-1962.955763689914
 10
1139.159052046567
 20
-1961.177268515553
 10
1141.100416367764
 20
-1959.373735052486
 10
1142.630293962535
 20
-1957.204487354767
 10
1143.405371584199
 20
-1956.105487439941
 10
1144.094179136326
 20
-1954.644616204804
 10
1143.206222791455
 20
-1953.396765685388
 10
1142.822961439028
 20
-1952.858166146727
 10
1142.263753640681
 20
-1952.545095101517
 10
1141.68291415932
 20
-1952.260636367082
 10
1141.034229944452
 20
-1951.942951538948
 10
1140.385137781899
 20
-1951.626096848913
 10
1139.736250279427
 20
-1951.308827425991
 10
1139.81062304968
 20
-1951.885978288765
 10
1139.884995819931
 20
-1952.463129151539
 10
1139.959368590182
 20
-1953.040280014312
 10
1140.565824103471
 20
-1952.417907792407
 10
1141.172279616289
 20
-1951.795535570042
 10
1141.778735182619
 20
-1951.173163399821
 10
1142.415780145116
 20
-1950.519399005773
 10
1143.218991008408
 20
-1949.733344932477
 10
1142.658009806353
 20
-1948.747433360414
 10
1142.193947854532
 20
-1947.93185514357
 10
1141.178390533913
 20
-1947.900536754569
 10
1140.346290259925
 20
-1947.897018453822
 10
1139.482859342531
 20
-1947.893367680308
 10
1138.612803948905
 20
-1948.014512511884
 10
1137.777191628595
 20
-1948.227803481278
 10
1136.403271319355
 20
-1948.578498160503
 10
1136.985547686534
 20
-1950.705585550485
 10
1138.363331051203
 20
-1950.353904822086
 10
1138.363331051203
 20
-1950.353904822086
 10
1138.363331051203
 20
-1950.353904822086
 10
1138.363331051203
 20
-1950.353904822086
 97
        0
 97
        1
330
88
 75
     2
 76
     1
 98
        1
 10
0.0
 20
0.0
450
        0
451
        0
460
0.0
461
0.0
452
        0
462
0.0
453
        0
470

  0
SPLINE
  5
8A
330
70
100
AcDbEntity
  8
2023-004
100
AcDbSpline
210
0.0
220
0.0
230
1.0
 70
     9
 71
     3
 72
    74
 73
    70
 74
     0
 42
0.0000000001
 43
0.0000000001
 40
0.0
 40
0.0
 40
0.0
 40
0.0
 40
1.0
 40
1.0
 40
1.0
 40
2.0
 40
2.0
 40
2.0
 40
3.0
 40
3.0
 40
3.0
 40
4.0
 40
4.0
 40
4.0
 40
5.0
 40
5.0
 40
5.0
 40
6.0
 40
6.0
 40
6.0
 40
7.0
 40
7.0
 40
7.0
 40
8.0
 40
8.0
 40
8.0
 40
9.0
 40
9.0
 40
9.0
 40
10.0
 40
10.0
 40
10.0
 40
11.0
 40
11.0
 40
11.0
 40
12.0
 40
12.0
 40
12.0
 40
13.0
 40
13.0
 40
13.0
 40
14.0
 40
14.0
 40
14.0
 40
15.0
 40
15.0
 40
15.0
 40
16.0
 40
16.0
 40
16.0
 40
17.0
 40
17.0
 40
17.0
 40
18.0
 40
18.0
 40
18.0
 40
19.0
 40
19.0
 40
19.0
 40
20.0
 40
20.0
 40
20.0
 40
21.0
 40
21.0
 40
21.0
 40
22.0
 40
22.0
 40
22.0
 40
23.0
 40
23.0
 40
23.0
 40
23.0
 10
1122.66677193993
 20
-1907.495916361721
 30
0.0
 10
1118.771431744119
 20
-1910.660283123388
 30
0.0
 10
1115.381698597929
 20
-1914.430917750079
 30
0.0
 10
1112.620481505502
 20
-1918.62119271631
 30
0.0
 10
1111.228431136851
 20
-1920.733693695494
 30
0.0
 10
1109.960178455389
 20
-1922.961135259354
 30
0.0
 10
1108.97519488483
 20
-1925.294016062132
 30
0.0
 10
1107.972706645348
 20
-1927.6683557352
 30
0.0
 10
1107.265507771878
 20
-1930.430673274929
 30
0.0
 10
1108.024350685527
 20
-1932.980193192743
 30
0.0
 10
1109.777792460262
 20
-1938.871313277042
 30
0.0
 10
1117.68265697476
 20
-1937.460874532576
 30
0.0
 10
1122.254260207307
 20
-1936.862870157794
 30
0.0
 10
1128.046529428493
 20
-1936.10519234588
 30
0.0
 10
1133.793386301625
 20
-1935.056650229046
 30
0.0
 10
1139.559061792662
 20
-1934.126433573636
 30
0.0
 10
1145.257778663714
 20
-1933.207019819572
 30
0.0
 10
1150.980212149383
 20
-1932.48190647145
 30
0.0
 10
1156.735899700777
 20
-1932.031601441235
 30
0.0
 10
1157.45550162207
 20
-1931.975302282878
 30
0.0
 10
1158.175413290531
 20
-1931.923200887896
 30
0.0
 10
1158.895561202721
 20
-1931.874399297173
 30
0.0
 10
1159.975753366857
 20
-1931.801198924022
 30
0.0
 10
1160.409249134284
 20
-1930.422624175436
 30
0.0
 10
1159.451979013391
 20
-1929.820052274998
 30
0.0
 10
1158.777999324531
 20
-1929.395802929792
 30
0.0
 10
1158.020333860436
 20
-1929.305170651866
 30
0.0
 10
1157.249020889703
 20
-1929.460286833928
 30
0.0
 10
1156.665030086437
 20
-1929.577731278919
 30
0.0
 10
1156.329242428766
 20
-1930.271321951084
 30
0.0
 10
1156.479039930601
 20
-1930.816407215637
 30
0.0
 10
1156.646173545093
 20
-1931.424575371675
 30
0.0
 10
1157.2494814468
 20
-1931.704172100304
 30
0.0
 10
1157.83516031231
 20
-1931.586388174738
 30
0.0
 10
1157.986128899224
 20
-1931.556027385147
 30
0.0
 10
1158.160743275253
 20
-1931.611587859199
 30
0.0
 10
1158.339143392051
 20
-1931.723885208789
 30
0.0
 10
1158.524615995608
 20
-1931.039102868064
 30
0.0
 10
1158.710088599164
 20
-1930.354320527338
 30
0.0
 10
1158.895561202721
 20
-1929.669538186613
 30
0.0
 10
1153.262743761455
 20
-1930.051252063353
 30
0.0
 10
1147.649707499905
 20
-1930.67442154954
 30
0.0
 10
1142.067237602366
 20
-1931.516144304763
 30
0.0
 10
1136.503898773779
 20
-1932.354982484455
 30
0.0
 10
1130.971202947043
 20
-1933.384454171698
 30
0.0
 10
1125.406344097407
 20
-1934.213646642967
 30
0.0
 10
1122.697169777841
 20
-1934.617327492713
 30
0.0
 10
1119.963209781188
 20
-1935.043659409199
 30
0.0
 10
1117.225257064714
 20
-1935.182724187308
 30
0.0
 10
1115.136068415271
 20
-1935.288837252817
 30
0.0
 10
1112.234073890626
 20
-1935.389365484733
 30
0.0
 10
1110.790654703489
 20
-1933.648803765822
 30
0.0
 10
1109.435912044992
 20
-1932.01517354158
 30
0.0
 10
1109.867597071844
 20
-1929.407127231048
 30
0.0
 10
1110.490810932168
 20
-1927.48809860808
 30
0.0
 10
1111.228375241384
 20
-1925.216956852778
 30
0.0
 10
1112.444200527264
 20
-1923.076981640848
 30
0.0
 10
1113.688116001532
 20
-1921.048854908034
 30
0.0
 10
1116.488668819993
 20
-1916.482727904012
 30
0.0
 10
1120.069379040309
 20
-1912.431479355499
 30
0.0
 10
1124.225844182782
 20
-1909.054988604571
 30
0.0
 10
1124.68831846036
 20
-1908.67929915037
 30
0.0
 10
1124.616283286019
 20
-1907.886355464958
 30
0.0
 10
1124.225844182782
 20
-1907.495916361721
 30
0.0
 10
1123.768634004594
 20
-1907.038706183533
 30
0.0
 10
1123.130402211384
 20
-1907.119287839706
 30
0.0
 10
1122.66677193993
 20
-1907.495916361721
 30
0.0
 10
1122.66677193993
 20
-1907.495916361721
 30
0.0
 10
1122.66677193993
 20
-1907.495916361721
 30
0.0
 10
1122.66677193993
 20
-1907.495916361721
 30
0.0
  0
HATCH
  5
8B
330
70
100
AcDbEntity
  8
2023-004
 62
    18
420
        0
440
 33554687
100
AcDbHatch
 10
0.0
 20
0.0
 30
0.0
210
0.0
220
0.0
230
1.0
  2
SOLID
 70
     1
 71
     1
 91
        1
 92
        1
 93
        1
 72
     4
 94
        3
 73
     0
 74
     0
 95
       74
 96
       70
 40
0.0
 40
0.0
 40
0.0
 40
0.0
 40
1.0
 40
1.0
 40
1.0
 40
2.0
 40
2.0
 40
2.0
 40
3.0
 40
3.0
 40
3.0
 40
4.0
 40
4.0
 40
4.0
 40
5.0
 40
5.0
 40
5.0
 40
6.0
 40
6.0
 40
6.0
 40
7.0
 40
7.0
 40
7.0
 40
8.0
 40
8.0
 40
8.0
 40
9.0
 40
9.0
 40
9.0
 40
10.0
 40
10.0
 40
10.0
 40
11.0
 40
11.0
 40
11.0
 40
12.0
 40
12.0
 40
12.0
 40
13.0
 40
13.0
 40
13.0
 40
14.0
 40
14.0
 40
14.0
 40
15.0
 40
15.0
 40
15.0
 40
16.0
 40
16.0
 40
16.0
 40
17.0
 40
17.0
 40
17.0
 40
18.0
 40
18.0
 40
18.0
 40
19.0
 40
19.0
 40
19.0
 40
20.0
 40
20.0
 40
20.0
 40
21.0
 40
21.0
 40
21.0
 40
22.0
 40
22.0
 40
22.0
 40
23.0
 40
23.0
 40
23.0
 40
23.0
 10
1122.66677193993
 20
-1907.495916361721
 10
1118.771431744119
 20
-1910.660283123388
 10
1115.381698597929
 20
-1914.430917750079
 10
1112.620481505502
 20
-1918.62119271631
 10
1111.228431136851
 20
-1920.733693695494
 10
1109.960178455389
 20
-1922.961135259354
 10
1108.97519488483
 20
-1925.294016062132
 10
1107.972706645348
 20
-1927.6683557352
 10
1107.265507771878
 20
-1930.430673274929
 10
1108.024350685527
 20
-1932.980193192743
 10
1109.777792460262
 20
-1938.871313277042
 10
1117.68265697476
 20
-1937.460874532576
 10
1122.254260207307
 20
-1936.862870157794
 10
1128.046529428493
 20
-1936.10519234588
 10
1133.793386301625
 20
-1935.056650229046
 10
1139.559061792662
 20
-1934.126433573636
 10
1145.257778663714
 20
-1933.207019819572
 10
1150.980212149383
 20
-1932.48190647145
 10
1156.735899700777
 20
-1932.031601441235
 10
1157.45550162207
 20
-1931.975302282878
 10
1158.175413290531
 20
-1931.923200887896
 10
1158.895561202721
 20
-1931.874399297173
 10
1159.975753366857
 20
-1931.801198924022
 10
1160.409249134284
 20
-1930.422624175436
 10
1159.451979013391
 20
-1929.820052274998
 10
1158.777999324531
 20
-1929.395802929792
 10
1158.020333860436
 20
-1929.305170651866
 10
1157.249020889703
 20
-1929.460286833928
 10
1156.665030086437
 20
-1929.577731278919
 10
1156.329242428766
 20
-1930.271321951084
 10
1156.479039930601
 20
-1930.816407215637
 10
1156.646173545093
 20
-1931.424575371675
 10
1157.2494814468
 20
-1931.704172100304
 10
1157.83516031231
 20
-1931.586388174738
 10
1157.986128899224
 20
-1931.556027385147
 10
1158.160743275253
 20
-1931.611587859199
 10
1158.339143392051
 20
-1931.723885208789
 10
1158.524615995608
 20
-1931.039102868064
 10
1158.710088599164
 20
-1930.354320527338
 10
1158.895561202721
 20
-1929.669538186613
 10
1153.262743761455
 20
-1930.051252063353
 10
1147.649707499905
 20
-1930.67442154954
 10
1142.067237602366
 20
-1931.516144304763
 10
1136.503898773779
 20
-1932.354982484455
 10
1130.971202947043
 20
-1933.384454171698
 10
1125.406344097407
 20
-1934.213646642967
 10
1122.697169777841
 20
-1934.617327492713
 10
1119.963209781188
 20
-1935.043659409199
 10
1117.225257064714
 20
-1935.182724187308
 10
1115.136068415271
 20
-1935.288837252817
 10
1112.234073890626
 20
-1935.389365484733
 10
1110.790654703489
 20
-1933.648803765822
 10
1109.435912044992
 20
-1932.01517354158
 10
1109.867597071844
 20
-1929.407127231048
 10
1110.490810932168
 20
-1927.48809860808
 10
1111.228375241384
 20
-1925.216956852778
 10
1112.444200527264
 20
-1923.076981640848
 10
1113.688116001532
 20
-1921.048854908034
 10
1116.488668819993
 20
-1916.482727904012
 10
1120.069379040309
 20
-1912.431479355499
 10
1124.225844182782
 20
-1909.054988604571
 10
1124.68831846036
 20
-1908.67929915037
 10
1124.616283286019
 20
-1907.886355464958
 10
1124.225844182782
 20
-1907.495916361721
 10
1123.768634004594
 20
-1907.038706183533
 10
1123.130402211384
 20
-1907.119287839706
 10
1122.66677193993
 20
-1907.495916361721
 10
1122.66677193993
 20
-1907.495916361721
 10
1122.66677193993
 20
-1907.495916361721
 10
1122.66677193993
 20
-1907.495916361721
 97
        0
 97
        1
330
8A
 75
     2
 76
     1
 98
        1
 10
0.0
 20
0.0
450
        0
451
        0
460
0.0
461
0.0
452
        0
462
0.0
453
        0
470

  0
INSERT
  5
8D
330
70
100
AcDbEntity
  8
2023-004
100
AcDbBlockReference
  2
Block_0
 10
0.0
 20
0.0
 30
0.0
  0
ENDSEC
  0
SECTION
  2
OBJECTS
  0
DICTIONARY
  5
C
330
0
100
AcDbDictionary
281
     1
  3
ACAD_COLOR
350
63
  3
ACAD_DETAILVIEWSTYLE
350
6A
  3
ACAD_GROUP
350
D
  3
ACAD_LAYOUT
350
62
  3
ACAD_MATERIAL
350
10
  3
ACAD_MLEADERSTYLE
350
66
  3
ACAD_MLINESTYLE
350
5F
  3
ACAD_PLOTSETTINGS
350
61
  3
ACAD_PLOTSTYLENAME
350
E
  3
ACAD_SCALELIST
350
42
  3
ACAD_SECTIONVIEWSTYLE
350
68
  3
ACAD_TABLESTYLE
350
64
  3
ACAD_VISUALSTYLE
350
29
  3
ACDB_RECOMPOSE_DATA
350
A2
  3
AcDbVariableDictionary
350
9A
  0
DICTIONARY
  5
63
102
{ACAD_REACTORS
330
C
102
}
330
C
100
AcDbDictionary
281
     1
  0
DICTIONARY
  5
6A
102
{ACAD_REACTORS
330
C
102
}
330
C
100
AcDbDictionary
281
     1
  3
Imperial24
350
6B
  0
DICTIONARY
  5
D
102
{ACAD_REACTORS
330
C
102
}
330
C
100
AcDbDictionary
281
     1
  0
DICTIONARY
  5
62
102
{ACAD_REACTORS
330
C
102
}
330
C
100
AcDbDictionary
281
     1
  3
Layout1
350
6F
  3
Layout2
350
77
  3
Model
350
73
  0
DICTIONARY
  5
10
102
{ACAD_REACTORS
330
C
102
}
330
C
100
AcDbDictionary
281
     1
  3
ByBlock
350
19
  3
ByLayer
350
11
  3
Global
350
21
  0
DICTIONARY
  5
66
102
{ACAD_REACTORS
330
C
102
}
330
C
100
AcDbDictionary
281
     1
  3
Standard
350
67
  0
DICTIONARY
  5
5F
102
{ACAD_REACTORS
330
C
102
}
330
C
100
AcDbDictionary
281
     1
  3
Standard
350
60
  0
DICTIONARY
  5
61
102
{ACAD_REACTORS
330
C
102
}
330
C
100
AcDbDictionary
281
     1
  0
ACDBDICTIONARYWDFLT
  5
E
102
{ACAD_REACTORS
330
C
102
}
330
C
100
AcDbDictionary
281
     1
  3
Normal
350
F
100
AcDbDictionaryWithDefault
340
F
  0
DICTIONARY
  5
42
102
{ACAD_REACTORS
330
C
102
}
330
C
100
AcDbDictionary
281
     1
  3
A0
350
43
  3
A1
350
44
  3
A2
350
45
  3
A3
350
46
  3
A4
350
47
  3
A5
350
48
  3
A6
350
49
  3
A7
350
4A
  3
A8
350
4B
  3
A9
350
4C
  3
B0
350
4D
  3
B1
350
4E
  3
B2
350
4F
  3
B3
350
50
  3
B4
350
51
  3
B5
350
52
  3
B6
350
53
  0
DICTIONARY
  5
68
102
{ACAD_REACTORS
330
C
102
}
330
C
100
AcDbDictionary
281
     1
  3
Imperial24
350
69
  0
DICTIONARY
  5
64
102
{ACAD_REACTORS
330
C
102
}
330
C
100
AcDbDictionary
281
     1
  3
Standard
350
65
  0
DICTIONARY
  5
29
102
{ACAD_REACTORS
330
C
102
}
330
C
100
AcDbDictionary
281
     1
  3
2dWireframe
350
2F
  3
Basic
350
2E
  3
Brighten
350
35
  3
ColorChange
350
39
  3
Conceptual
350
32
  3
Dim
350
34
  3
EdgeColorOff
350
41
  3
Facepattern
350
38
  3
Flat
350
2A
  3
FlatWithEdges
350
2B
  3
Gouraud
350
2C
  3
GouraudWithEdges
350
2D
  3
Hidden
350
31
  3
JitterOff
350
3F
  3
Linepattern
350
37
  3
OverhangOff
350
40
  3
Realistic
350
33
  3
Shaded
350
3E
  3
Shaded with edges
350
3D
  3
Shades of Gray
350
3A
  3
Sketchy
350
3B
  3
Thicken
350
36
  3
Wireframe
350
30
  3
X-Ray
350
3C
  0
XRECORD
  5
A2
102
{ACAD_REACTORS
330
C
102
}
330
C
100
AcDbXrecord
280
     1
 90
        1
330
65
  0
DICTIONARY
  5
9A
102
{ACAD_REACTORS
330
C
102
}
330
C
100
AcDbDictionary
281
     1
  3
CANNOSCALE
350
9F
  3
CMLEADERSTYLE
350
9C
  3
CTABLESTYLE
350
9B
  3
CVIEWDETAILSTYLE
350
9D
  3
CVIEWSECTIONSTYLE
350
9E
  0
ACDBDETAILVIEWSTYLE
  5
6B
102
{ACAD_REACTORS
330
6A
102
}
330
6A
100
AcDbModelDocViewStyle
 70
     0
  3
Imperial24
290
     1
300
Imperial24
 90
        0
100
AcDbDetailViewStyle
 70
     0
 71
     0
 90
        3
 71
     1
340
55
 62
   256
 40
0.24
340
0
 62
   256
 40
0.24
300

 40
0.36
280
     3
 71
     2
340
5D
 90
       25
 62
   256
 71
     3
340
55
 62
   256
 40
0.24
 90
        1
 40
0.75
 90
        1
300
%<\AcVar ViewType \f "%tc1">% %<\AcVar ViewDetailId>%\PSCALE %<\AcVar ViewScale \f "%sn">%
 71
     4
340
5D
 90
       25
 62
   256
340
5D
 90
       25
 62
   256
280
     0
  0
LAYOUT
  5
6F
102
{ACAD_REACTORS
330
62
102
}
330
62
100
AcDbPlotSettings
  1

  2

  4

  6

 40
0.0
 41
0.0
 42
0.0
 43
0.0
 44
0.0
 45
0.0
 46
0.0
 47
0.0
 48
0.0
 49
0.0
140
0.0
141
0.0
142
1.0
143
1.0
 70
   688
 72
     0
 73
     0
 74
     5
  7

 75
    16
147
1.0
 76
     0
 77
     2
 78
   300
148
0.0
149
0.0
100
AcDbLayout
  1
Layout1
 70
     1
 71
     1
 10
0.0
 20
0.0
 11
12.0
 21
9.0
 12
0.0
 22
0.0
 32
0.0
 14
0.0
 24
0.0
 34
0.0
 15
0.0
 25
0.0
 35
0.0
146
0.0
 13
0.0
 23
0.0
 33
0.0
 16
1.0
 26
0.0
 36
0.0
 17
0.0
 27
1.0
 37
0.0
 76
     0
330
6C
  0
LAYOUT
  5
77
102
{ACAD_REACTORS
330
62
102
}
330
62
100
AcDbPlotSettings
  1

  2

  4

  6

 40
0.0
 41
0.0
 42
0.0
 43
0.0
 44
0.0
 45
0.0
 46
0.0
 47
0.0
 48
0.0
 49
0.0
140
0.0
141
0.0
142
1.0
143
1.0
 70
   688
 72
     0
 73
     0
 74
     5
  7

 75
    16
147
1.0
 76
     0
 77
     2
 78
   300
148
0.0
149
0.0
100
AcDbLayout
  1
Layout2
 70
     1
 71
     2
 10
0.0
 20
0.0
 11
12.0
 21
9.0
 12
0.0
 22
0.0
 32
0.0
 14
0.0
 24
0.0
 34
0.0
 15
0.0
 25
0.0
 35
0.0
146
0.0
 13
0.0
 23
0.0
 33
0.0
 16
1.0
 26
0.0
 36
0.0
 17
0.0
 27
1.0
 37
0.0
 76
     0
330
74
  0
LAYOUT
  5
73
102
{ACAD_REACTORS
330
62
102
}
330
62
100
AcDbPlotSettings
  1

  2

  4

  6

 40
0.0
 41
0.0
 42
0.0
 43
0.0
 44
0.0
 45
0.0
 46
0.0
 47
0.0
 48
0.0
 49
0.0
140
0.0
141
0.0
142
1.0
143
1.0
 70
  1712
 72
     0
 73
     0
 74
     0
  7

 75
     0
147
1.0
 76
     0
 77
     2
 78
   300
148
0.0
149
0.0
100
AcDbLayout
  1
Model
 70
     1
 71
     0
 10
0.0
 20
0.0
 11
12.0
 21
9.0
 12
0.0
 22
0.0
 32
0.0
 14
0.0
 24
0.0
 34
0.0
 15
0.0
 25
0.0
 35
0.0
146
0.0
 13
0.0
 23
0.0
 33
0.0
 16
1.0
 26
0.0
 36
0.0
 17
0.0
 27
1.0
 37
0.0
 76
     0
330
70
  0
MATERIAL
  5
19
102
{ACAD_XDICTIONARY
360
1A
102
}
102
{ACAD_REACTORS
330
10
102
}
330
10
100
AcDbMaterial
  1
ByBlock
 72
     0
 43
0.0208333333333333
 43
0.0
 43
0.0
 43
0.0
 43
0.0
 43
0.0208333333333333
 43
0.0
 43
0.0
 43
0.0
 43
0.0
 43
1.0
 43
0.0
 43
0.0
 43
0.0
 43
0.0
 43
1.0
 77
     0
 47
0.0208333333333333
 47
0.0
 47
0.0
 47
0.0
 47
0.0
 47
0.0208333333333333
 47
0.0
 47
0.0
 47
0.0
 47
0.0
 47
1.0
 47
0.0
 47
0.0
 47
0.0
 47
0.0
 47
1.0
171
     0
 49
0.0208333333333333
 49
0.0
 49
0.0
 49
0.0
 49
0.0
 49
0.0208333333333333
 49
0.0
 49
0.0
 49
0.0
 49
0.0
 49
1.0
 49
0.0
 49
0.0
 49
0.0
 49
0.0
 49
1.0
175
     0
142
0.0208333333333333
142
0.0
142
0.0
142
0.0
142
0.0
142
0.0208333333333333
142
0.0
142
0.0
142
0.0
142
0.0
142
1.0
142
0.0
142
0.0
142
0.0
142
0.0
142
1.0
179
     0
144
0.0208333333333333
144
0.0
144
0.0
144
0.0
144
0.0
144
0.0208333333333333
144
0.0
144
0.0
144
0.0
144
0.0
144
1.0
144
0.0
144
0.0
144
0.0
144
0.0
144
1.0
147
0.0208333333333333
147
0.0
147
0.0
147
0.0
147
0.0
147
0.0208333333333333
147
0.0
147
0.0
147
0.0
147
0.0
147
1.0
147
0.0
147
0.0
147
0.0
147
0.0
147
1.0
  0
MATERIAL
  5
11
102
{ACAD_XDICTIONARY
360
12
102
}
102
{ACAD_REACTORS
330
10
102
}
330
10
100
AcDbMaterial
  1
ByLayer
 72
     0
 43
0.0208333333333333
 43
0.0
 43
0.0
 43
0.0
 43
0.0
 43
0.0208333333333333
 43
0.0
 43
0.0
 43
0.0
 43
0.0
 43
1.0
 43
0.0
 43
0.0
 43
0.0
 43
0.0
 43
1.0
 77
     0
 47
0.0208333333333333
 47
0.0
 47
0.0
 47
0.0
 47
0.0
 47
0.0208333333333333
 47
0.0
 47
0.0
 47
0.0
 47
0.0
 47
1.0
 47
0.0
 47
0.0
 47
0.0
 47
0.0
 47
1.0
171
     0
 49
0.0208333333333333
 49
0.0
 49
0.0
 49
0.0
 49
0.0
 49
0.0208333333333333
 49
0.0
 49
0.0
 49
0.0
 49
0.0
 49
1.0
 49
0.0
 49
0.0
 49
0.0
 49
0.0
 49
1.0
175
     0
142
0.0208333333333333
142
0.0
142
0.0
142
0.0
142
0.0
142
0.0208333333333333
142
0.0
142
0.0
142
0.0
142
0.0
142
1.0
142
0.0
142
0.0
142
0.0
142
0.0
142
1.0
179
     0
144
0.0208333333333333
144
0.0
144
0.0
144
0.0
144
0.0
144
0.0208333333333333
144
0.0
144
0.0
144
0.0
144
0.0
144
1.0
144
0.0
144
0.0
144
0.0
144
0.0
144
1.0
147
0.0208333333333333
147
0.0
147
0.0
147
0.0
147
0.0
147
0.0208333333333333
147
0.0
147
0.0
147
0.0
147
0.0
147
1.0
147
0.0
147
0.0
147
0.0
147
0.0
147
1.0
  0
MATERIAL
  5
21
102
{ACAD_XDICTIONARY
360
22
102
}
102
{ACAD_REACTORS
330
10
102
}
330
10
100
AcDbMaterial
  1
Global
 72
     0
 43
0.0208333333333333
 43
0.0
 43
0.0
 43
0.0
 43
0.0
 43
0.0208333333333333
 43
0.0
 43
0.0
 43
0.0
 43
0.0
 43
1.0
 43
0.0
 43
0.0
 43
0.0
 43
0.0
 43
1.0
 77
     0
 47
0.0208333333333333
 47
0.0
 47
0.0
 47
0.0
 47
0.0
 47
0.0208333333333333
 47
0.0
 47
0.0
 47
0.0
 47
0.0
 47
1.0
 47
0.0
 47
0.0
 47
0.0
 47
0.0
 47
1.0
171
     0
 49
0.0208333333333333
 49
0.0
 49
0.0
 49
0.0
 49
0.0
 49
0.0208333333333333
 49
0.0
 49
0.0
 49
0.0
 49
0.0
 49
1.0
 49
0.0
 49
0.0
 49
0.0
 49
0.0
 49
1.0
175
     0
142
0.0208333333333333
142
0.0
142
0.0
142
0.0
142
0.0
142
0.0208333333333333
142
0.0
142
0.0
142
0.0
142
0.0
142
1.0
142
0.0
142
0.0
142
0.0
142
0.0
142
1.0
179
     0
144
0.0208333333333333
144
0.0
144
0.0
144
0.0
144
0.0
144
0.0208333333333333
144
0.0
144
0.0
144
0.0
144
0.0
144
1.0
144
0.0
144
0.0
144
0.0
144
0.0
144
1.0
147
0.0208333333333333
147
0.0
147
0.0
147
0.0
147
0.0
147
0.0208333333333333
147
0.0
147
0.0
147
0.0
147
0.0
147
1.0
147
0.0
147
0.0
147
0.0
147
0.0
147
1.0
  0
MLEADERSTYLE
  5
67
102
{ACAD_REACTORS
330
66
102
}
330
66
100
AcDbMLeaderStyle
179
     2
170
     2
171
     1
172
     0
 90
        2
 40
0.0
 41
0.0
173
     1
 91
-1056964608
340
5B
 92
       -2
290
     1
 42
0.09
291
     1
 43
0.36
  3
Standard
 44
0.18
300

342
55
174
     1
178
     6
175
     1
176
     0
 93
-1056964608
 45
0.18
292
     0
297
     0
 46
0.18
 94
-1056964608
 47
1.0
 49
1.0
140
1.0
293
     1
141
0.0
294
     1
177
     0
142
1.0
295
     1
296
     0
143
0.125
271
     0
272
     9
273
     9
298
     1
  0
MLINESTYLE
  5
60
102
{ACAD_REACTORS
330
5F
102
}
330
5F
100
AcDbMlineStyle
  2
STANDARD
 70
     0
  3

 62
   256
 51
90.0
 52
90.0
 71
     2
 49
0.5
 62
   256
  6
BYLAYER
 49
-0.5
 62
   256
  6
BYLAYER
  0
ACDBPLACEHOLDER
  5
F
102
{ACAD_REACTORS
330
E
102
}
330
E
  0
SCALE
  5
43
102
{ACAD_REACTORS
330
42
102
}
330
42
100
AcDbScale
 70
     0
300
1:1
140
1.0
141
1.0
290
     1
  0
SCALE
  5
44
102
{ACAD_REACTORS
330
42
102
}
330
42
100
AcDbScale
 70
     0
300
1/128" = 1'-0"
140
0.0078125
141
12.0
290
     0
  0
SCALE
  5
45
102
{ACAD_REACTORS
330
42
102
}
330
42
100
AcDbScale
 70
     0
300
1/64" = 1'-0"
140
0.015625
141
12.0
290
     0
  0
SCALE
  5
46
102
{ACAD_REACTORS
330
42
102
}
330
42
100
AcDbScale
 70
     0
300
1/32" = 1'-0"
140
0.03125
141
12.0
290
     0
  0
SCALE
  5
47
102
{ACAD_REACTORS
330
42
102
}
330
42
100
AcDbScale
 70
     0
300
1/16" = 1'-0"
140
0.0625
141
12.0
290
     0
  0
SCALE
  5
48
102
{ACAD_REACTORS
330
42
102
}
330
42
100
AcDbScale
 70
     0
300
3/32" = 1'-0"
140
0.09375
141
12.0
290
     0
  0
SCALE
  5
49
102
{ACAD_REACTORS
330
42
102
}
330
42
100
AcDbScale
 70
     0
300
1/8" = 1'-0"
140
0.125
141
12.0
290
     0
  0
SCALE
  5
4A
102
{ACAD_REACTORS
330
42
102
}
330
42
100
AcDbScale
 70
     0
300
3/16" = 1'-0"
140
0.1875
141
12.0
290
     0
  0
SCALE
  5
4B
102
{ACAD_REACTORS
330
42
102
}
330
42
100
AcDbScale
 70
     0
300
1/4" = 1'-0"
140
0.25
141
12.0
290
     0
  0
SCALE
  5
4C
102
{ACAD_REACTORS
330
42
102
}
330
42
100
AcDbScale
 70
     0
300
3/8" = 1'-0"
140
0.375
141
12.0
290
     0
  0
SCALE
  5
4D
102
{ACAD_REACTORS
330
42
102
}
330
42
100
AcDbScale
 70
     0
300
1/2" = 1'-0"
140
0.5
141
12.0
290
     0
  0
SCALE
  5
4E
102
{ACAD_REACTORS
330
42
102
}
330
42
100
AcDbScale
 70
     0
300
3/4" = 1'-0"
140
0.75
141
12.0
290
     0
  0
SCALE
  5
4F
102
{ACAD_REACTORS
330
42
102
}
330
42
100
AcDbScale
 70
     0
300
1" = 1'-0"
140
1.0
141
12.0
290
     0
  0
SCALE
  5
50
102
{ACAD_REACTORS
330
42
102
}
330
42
100
AcDbScale
 70
     0
300
1-1/2" = 1'-0"
140
1.5
141
12.0
290
     0
  0
SCALE
  5
51
102
{ACAD_REACTORS
330
42
102
}
330
42
100
AcDbScale
 70
     0
300
3" = 1'-0"
140
3.0
141
12.0
290
     0
  0
SCALE
  5
52
102
{ACAD_REACTORS
330
42
102
}
330
42
100
AcDbScale
 70
     0
300
6" = 1'-0"
140
6.0
141
12.0
290
     0
  0
SCALE
  5
53
102
{ACAD_REACTORS
330
42
102
}
330
42
100
AcDbScale
 70
     0
300
1'-0" = 1'-0"
140
12.0
141
12.0
290
     0
  0
ACDBSECTIONVIEWSTYLE
  5
69
102
{ACAD_REACTORS
330
68
102
}
330
68
100
AcDbModelDocViewStyle
 70
     0
  3
Imperial24
290
     1
300
Imperial24
 90
        0
100
AcDbSectionViewStyle
 70
     0
 71
     0
 90
       78
 71
     1
340
55
 62
   256
 40
0.24
340
0
340
0
 62
   256
 40
0.24
300
I, O, Q, S, X, Z
 40
0.48
 90
        3
 40
0.18
 90
        1
 71
     2
340
5D
 90
       25
 62
   256
340
5D
 90
       50
 62
   256
 40
0.24
 40
0.0
 40
0.24
 71
     3
340
55
 62
   256
 40
0.24
 90
        1
 40
0.75
 90
        1
300
%<\AcVar ViewType \f "%tc1">% %<\AcVar ViewSectionStartId>%-%<\AcVar ViewSectionEndId>%\PSCALE %<\AcVar ViewScale \f "%sn">%
 71
     4
 62
   256
 62
   257
300
ANSI31
 40
1.0
 90
        0
290
     0
290
     0
 90
        6
 40
0.0
 40
1.570796326794896
 40
0.2617993877991494
 40
1.308996938995747
 40
-0.2617993877991494
 40
1.832595714594046
  0
TABLESTYLE
  5
65
102
{ACAD_XDICTIONARY
360
A0
102
}
102
{ACAD_REACTORS
330
64
102
}
330
64
100
AcDbTableStyle
280
     0
  3
Standard
 70
     0
 71
     0
 40
0.06
 41
0.06
280
     0
281
     0
  7
Standard
140
0.18
170
     2
 62
     0
 63
     7
283
     0
 90
      512
 91
        0
  1

274
    -2
284
     1
 64
     0
275
    -2
285
     1
 65
     0
276
    -2
286
     1
 66
     0
277
    -2
287
     1
 67
     0
278
    -2
288
     1
 68
     0
279
    -2
289
     1
 69
     0
  7
Standard
140
0.25
170
     5
 62
     0
 63
     7
283
     0
 90
      512
 91
        0
  1

274
    -2
284
     1
 64
     0
275
    -2
285
     1
 65
     0
276
    -2
286
     1
 66
     0
277
    -2
287
     1
 67
     0
278
    -2
288
     1
 68
     0
279
    -2
289
     1
 69
     0
  7
Standard
140
0.18
170
     5
 62
     0
 63
     7
283
     0
 90
      512
 91
        0
  1

274
    -2
284
     1
 64
     0
275
    -2
285
     1
 65
     0
276
    -2
286
     1
 66
     0
277
    -2
287
     1
 67
     0
278
    -2
288
     1
 68
     0
279
    -2
289
     1
 69
     0
  0
VISUALSTYLE
  5
2F
102
{ACAD_REACTORS
330
29
102
}
330
29
100
AcDbVisualStyle
  2
2dWireframe
 70
     4
177
     3
291
     0
 70
    58
 90
        0
176
     1
 90
        2
176
     1
 90
        0
176
     1
 90
        0
176
     1
 40
0.6
176
     1
 40
30.0
176
     1
 62
     7
420
 16777215
176
     1
 90
        1
176
     1
 90
        4
176
     1
 62
     7
176
     1
 62
   257
176
     1
 90
        1
176
     1
 90
        1
176
     1
 40
1.0
176
     1
 90
        0
176
     1
 62
   257
176
     1
 40
1.0
176
     1
 90
        1
176
     1
 90
        6
176
     1
 90
        2
176
     1
 62
     7
176
     1
 90
        5
176
     1
 90
        0
176
     1
 90
        0
176
     1
290
     0
176
     1
 90
        1
176
     1
 40
0.0
176
     1
 90
        0
176
     1
290
     1
176
     1
290
     1
176
     1
290
     0
176
     1
290
     0
176
     1
290
     0
176
     1
290
     0
176
     1
290
     0
176
     1
290
     0
176
     1
290
     0
176
     1
 90
       50
176
     1
 40
0.0
176
     1
 40
1.0
176
     1
 90
        0
176
     1
 62
    18
420
        0
176
     1
 90
       50
176
     1
 90
        3
176
     1
 62
     5
420
      255
176
     1
290
     0
176
     1
 90
       50
176
     1
 90
       50
176
     1
 90
       50
176
     1
290
     0
176
     1
 90
       50
176
     1
 62
   256
176
     0
 40
1.0
176
     0
 90
        2
176
     1
  1
strokes_ogs.tif
176
     1
290
     0
176
     1
 40
1.0
176
     1
 40
1.0
176
     1
  0
VISUALSTYLE
  5
2E
102
{ACAD_REACTORS
330
29
102
}
330
29
100
AcDbVisualStyle
  2
Basic
 70
     7
177
     3
291
     1
 70
    58
 90
        1
176
     1
 90
        0
176
     1
 90
        1
176
     1
 90
        0
176
     1
 40
0.6
176
     1
 40
30.0
176
     1
 62
     7
420
 16777215
176
     1
 90
        0
176
     1
 90
        4
176
     1
 62
     7
176
     1
 62
   257
176
     1
 90
        1
176
     1
 90
        1
176
     1
 40
1.0
176
     1
 90
        8
176
     1
 62
     7
176
     1
 40
1.0
176
     1
 90
        1
176
     1
 90
        6
176
     1
 90
        2
176
     1
 62
     7
176
     1
 90
        5
176
     1
 90
        0
176
     1
 90
        0
176
     1
290
     0
176
     1
 90
        1
176
     1
 40
0.0
176
     1
 90
        0
176
     1
290
     0
176
     1
290
     1
176
     1
290
     1
176
     1
290
     0
176
     1
290
     0
176
     1
290
     0
176
     1
290
     0
176
     1
290
     0
176
     1
290
     0
176
     1
 90
       50
176
     1
 40
0.0
176
     1
 40
1.0
176
     1
 90
        0
176
     1
 62
    18
420
        0
176
     1
 90
       50
176
     1
 90
        3
176
     1
 62
     5
420
      255
176
     1
290
     0
176
     1
 90
       50
176
     1
 90
       50
176
     1
 90
       50
176
     1
290
     0
176
     1
 90
       50
176
     1
 62
   256
176
     0
 40
1.0
176
     0
 90
        2
176
     1
  1
strokes_ogs.tif
176
     1
290
     0
176
     1
 40
1.0
176
     1
 40
1.0
176
     1
  0
VISUALSTYLE
  5
35
102
{ACAD_REACTORS
330
29
102
}
330
29
100
AcDbVisualStyle
  2
Brighten
 70
    12
177
     3
291
     1
 70
    58
 90
        2
176
     1
 90
        2
176
     1
 90
        0
176
     1
 90
        0
176
     1
 40
0.6
176
     1
 40
30.0
176
     1
 62
     7
420
 16777215
176
     1
 90
        1
176
     1
 90
        4
176
     1
 62
     7
176
     1
 62
   257
176
     1
 90
        1
176
     1
 90
        1
176
     1
 40
1.0
176
     1
 90
        8
176
     1
 62
     7
176
     1
 40
1.0
176
     1
 90
        1
176
     1
 90
        6
176
     1
 90
        2
176
     1
 62
     7
176
     1
 90
        5
176
     1
 90
        0
176
     1
 90
        0
176
     1
290
     0
176
     1
 90
        1
176
     1
 40
50.0
176
     1
 90
        0
176
     1
290
     0
176
     1
290
     1
176
     1
290
     1
176
     1
290
     0
176
     1
290
     0
176
     1
290
     0
176
     1
290
     0
176
     1
290
     0
176
     1
290
     0
176
     1
 90
       50
176
     1
 40
0.0
176
     1
 40
1.0
176
     1
 90
        0
176
     1
 62
    18
420
        0
176
     1
 90
       50
176
     1
 90
        3
176
     1
 62
     5
420
      255
176
     1
290
     0
176
     1
 90
       50
176
     1
 90
       50
176
     1
 90
       50
176
     1
290
     0
176
     1
 90
       50
176
     1
 62
   256
176
     0
 40
1.0
176
     0
 90
        2
176
     1
  1
strokes_ogs.tif
176
     1
290
     0
176
     1
 40
1.0
176
     1
 40
1.0
176
     1
  0
VISUALSTYLE
  5
39
102
{ACAD_REACTORS
330
29
102
}
330
29
100
AcDbVisualStyle
  2
ColorChange
 70
    16
177
     3
291
     1
 70
    58
 90
        2
176
     1
 90
        2
176
     1
 90
        3
176
     1
 90
        0
176
     1
 40
0.6
176
     1
 40
30.0
176
     1
 62
     8
420
  8421504
176
     1
 90
        1
176
     1
 90
        4
176
     1
 62
     7
176
     1
 62
   257
176
     1
 90
        1
176
     1
 90
        1
176
     1
 40
1.0
176
     1
 90
        8
176
     1
 62
     8
420
  8421504
176
     1
 40
1.0
176
     1
 90
        1
176
     1
 90
        6
176
     1
 90
        2
176
     1
 62
     7
176
     1
 90
        5
176
     1
 90
        0
176
     1
 90
        0
176
     1
290
     0
176
     1
 90
        1
176
     1
 40
0.0
176
     1
 90
        0
176
     1
290
     0
176
     1
290
     1
176
     1
290
     1
176
     1
290
     0
176
     1
290
     0
176
     1
290
     0
176
     1
290
     0
176
     1
290
     0
176
     1
290
     0
176
     1
 90
       50
176
     1
 40
0.0
176
     1
 40
1.0
176
     1
 90
        0
176
     1
 62
    18
420
        0
176
     1
 90
       50
176
     1
 90
        3
176
     1
 62
     5
420
      255
176
     1
290
     0
176
     1
 90
       50
176
     1
 90
       50
176
     1
 90
       50
176
     1
290
     0
176
     1
 90
       50
176
     1
 62
   256
176
     0
 40
1.0
176
     0
 90
        2
176
     1
  1
strokes_ogs.tif
176
     1
290
     0
176
     1
 40
1.0
176
     1
 40
1.0
176
     1
  0
VISUALSTYLE
  5
32
102
{ACAD_REACTORS
330
29
102
}
330
29
100
AcDbVisualStyle
  2
Conceptual
 70
     9
177
     3
291
     0
 70
    58
 90
        3
176
     1
 90
        2
176
     1
 90
        0
176
     1
 90
        0
176
     1
 40
0.6
176
     1
 40
30.0
176
     1
 62
     7
420
 16777215
176
     1
 90
        2
176
     1
 90
        2
176
     1
 62
     7
176
     1
 62
   257
176
     1
 90
        1
176
     1
 90
        1
176
     1
 40
179.0
176
     1
 90
        8
176
     1
 62
     7
176
     1
 40
1.0
176
     1
 90
        1
176
     1
 90
        6
176
     1
 90
        2
176
     1
 62
     7
176
     1
 90
        3
176
     1
 90
        0
176
     1
 90
        0
176
     1
290
     0
176
     1
 90
        1
176
     1
 40
0.0
176
     1
 90
        0
176
     1
290
     0
176
     1
290
     1
176
     1
290
     1
176
     1
290
     0
176
     1
290
     0
176
     1
290
     0
176
     1
290
     0
176
     1
290
     0
176
     1
290
     0
176
     1
 90
       50
176
     1
 40
0.0
176
     1
 40
1.0
176
     1
 90
        0
176
     1
 62
    18
420
        0
176
     1
 90
       50
176
     1
 90
        3
176
     1
 62
     5
420
      255
176
     1
290
     0
176
     1
 90
       50
176
     1
 90
       50
176
     1
 90
       50
176
     1
290
     0
176
     1
 90
       50
176
     1
 62
   256
176
     0
 40
1.0
176
     0
 90
        2
176
     1
  1
strokes_ogs.tif
176
     1
290
     0
176
     1
 40
1.0
176
     1
 40
1.0
176
     1
  0
VISUALSTYLE
  5
34
102
{ACAD_REACTORS
330
29
102
}
330
29
100
AcDbVisualStyle
  2
Dim
 70
    11
177
     3
291
     1
 70
    58
 90
        2
176
     1
 90
        2
176
     1
 90
        0
176
     1
 90
        0
176
     1
 40
0.6
176
     1
 40
30.0
176
     1
 62
     7
420
 16777215
176
     1
 90
        1
176
     1
 90
        4
176
     1
 62
     7
176
     1
 62
   257
176
     1
 90
        1
176
     1
 90
        1
176
     1
 40
1.0
176
     1
 90
        8
176
     1
 62
     7
176
     1
 40
1.0
176
     1
 90
        1
176
     1
 90
        6
176
     1
 90
        2
176
     1
 62
     7
176
     1
 90
        5
176
     1
 90
        0
176
     1
 90
        0
176
     1
290
     0
176
     1
 90
        1
176
     1
 40
-50.0
176
     1
 90
        0
176
     1
290
     0
176
     1
290
     1
176
     1
290
     1
176
     1
290
     0
176
     1
290
     0
176
     1
290
     0
176
     1
290
     0
176
     1
290
     0
176
     1
290
     0
176
     1
 90
       50
176
     1
 40
0.0
176
     1
 40
1.0
176
     1
 90
        0
176
     1
 62
    18
420
        0
176
     1
 90
       50
176
     1
 90
        3
176
     1
 62
     5
420
      255
176
     1
290
     0
176
     1
 90
       50
176
     1
 90
       50
176
     1
 90
       50
176
     1
290
     0
176
     1
 90
       50
176
     1
 62
   256
176
     0
 40
1.0
176
     0
 90
        2
176
     1
  1
strokes_ogs.tif
176
     1
290
     0
176
     1
 40
1.0
176
     1
 40
1.0
176
     1
  0
VISUALSTYLE
  5
41
102
{ACAD_REACTORS
330
29
102
}
330
29
100
AcDbVisualStyle
  2
EdgeColorOff
 70
    22
177
     3
291
     1
 70
    58
 90
        2
176
     0
 90
        2
176
     0
 90
        0
176
     0
 90
        0
176
     0
 40
0.6
176
     0
 40
30.0
176
     0
 62
     7
420
 16777215
176
     0
 90
        1
176
     0
 90
        4
176
     0
 62
     7
176
     0
 62
   257
176
     0
 90
        1
176
     0
 90
        1
176
     0
 40
1.0
176
     0
 90
        8
176
     2
 62
     7
176
     0
 40
1.0
176
     0
 90
        1
176
     0
 90
        6
176
     0
 90
        2
176
     0
 62
     7
176
     0
 90
        5
176
     0
 90
        0
176
     0
 90
        0
176
     0
290
     0
176
     0
 90
        1
176
     0
 40
0.0
176
     0
 90
        0
176
     0
290
     0
176
     0
290
     1
176
     0
290
     1
176
     0
290
     0
176
     0
290
     0
176
     0
290
     0
176
     0
290
     0
176
     0
290
     0
176
     0
290
     0
176
     0
 90
       50
176
     0
 40
0.0
176
     0
 40
1.0
176
     0
 90
        0
176
     0
 62
    18
420
        0
176
     0
 90
       50
176
     0
 90
        3
176
     0
 62
     5
420
      255
176
     0
290
     0
176
     0
 90
       50
176
     0
 90
       50
176
     0
 90
       50
176
     0
290
     0
176
     0
 90
       50
176
     0
 62
   256
176
     0
 40
1.0
176
     0
 90
        2
176
     0
  1
strokes_ogs.tif
176
     0
290
     0
176
     0
 40
1.0
176
     0
 40
1.0
176
     0
  0
VISUALSTYLE
  5
38
102
{ACAD_REACTORS
330
29
102
}
330
29
100
AcDbVisualStyle
  2
Facepattern
 70
    15
177
     3
291
     1
 70
    58
 90
        2
176
     1
 90
        2
176
     1
 90
        0
176
     1
 90
        0
176
     1
 40
0.6
176
     1
 40
30.0
176
     1
 62
     7
420
 16777215
176
     1
 90
        1
176
     1
 90
        4
176
     1
 62
     7
176
     1
 62
   257
176
     1
 90
        1
176
     1
 90
        1
176
     1
 40
1.0
176
     1
 90
        8
176
     1
 62
     7
176
     1
 40
1.0
176
     1
 90
        1
176
     1
 90
        6
176
     1
 90
        2
176
     1
 62
     7
176
     1
 90
        5
176
     1
 90
        0
176
     1
 90
        0
176
     1
290
     0
176
     1
 90
        1
176
     1
 40
0.0
176
     1
 90
        0
176
     1
290
     0
176
     1
290
     1
176
     1
290
     1
176
     1
290
     0
176
     1
290
     0
176
     1
290
     0
176
     1
290
     0
176
     1
290
     0
176
     1
290
     0
176
     1
 90
       50
176
     1
 40
0.0
176
     1
 40
1.0
176
     1
 90
        0
176
     1
 62
    18
420
        0
176
     1
 90
       50
176
     1
 90
        3
176
     1
 62
     5
420
      255
176
     1
290
     0
176
     1
 90
       50
176
     1
 90
       50
176
     1
 90
       50
176
     1
290
     0
176
     1
 90
       50
176
     1
 62
   256
176
     0
 40
1.0
176
     0
 90
        2
176
     1
  1
strokes_ogs.tif
176
     1
290
     0
176
     1
 40
1.0
176
     1
 40
1.0
176
     1
  0
VISUALSTYLE
  5
2A
102
{ACAD_REACTORS
330
29
102
}
330
29
100
AcDbVisualStyle
  2
Flat
 70
     0
177
     3
291
     1
 70
    58
 90
        2
176
     1
 90
        1
176
     1
 90
        1
176
     1
 90
        2
176
     1
 40
0.6
176
     1
 40
30.0
176
     1
 62
     7
420
 16777215
176
     1
 90
        0
176
     1
 90
        0
176
     1
 62
     7
176
     1
 62
   257
176
     1
 90
        1
176
     1
 90
        1
176
     1
 40
1.0
176
     1
 90
        8
176
     1
 62
     7
176
     1
 40
1.0
176
     1
 90
        1
176
     1
 90
        6
176
     1
 90
        2
176
     1
 62
     7
176
     1
 90
        5
176
     1
 90
        0
176
     1
 90
        0
176
     1
290
     0
176
     1
 90
       13
176
     1
 40
0.0
176
     1
 90
        0
176
     1
290
     0
176
     1
290
     1
176
     1
290
     1
176
     1
290
     0
176
     1
290
     0
176
     1
290
     0
176
     1
290
     0
176
     1
290
     0
176
     1
290
     0
176
     1
 90
       50
176
     1
 40
0.0
176
     1
 40
1.0
176
     1
 90
        0
176
     1
 62
    18
420
        0
176
     1
 90
       50
176
     1
 90
        3
176
     1
 62
     5
420
      255
176
     1
290
     0
176
     1
 90
       50
176
     1
 90
       50
176
     1
 90
       50
176
     1
290
     0
176
     1
 90
       50
176
     1
 62
   256
176
     0
 40
1.0
176
     0
 90
        2
176
     1
  1
strokes_ogs.tif
176
     1
290
     0
176
     1
 40
1.0
176
     1
 40
1.0
176
     1
  0
VISUALSTYLE
  5
2B
102
{ACAD_REACTORS
330
29
102
}
330
29
100
AcDbVisualStyle
  2
FlatWithEdges
 70
     1
177
     3
291
     1
 70
    58
 90
        2
176
     1
 90
        1
176
     1
 90
        1
176
     1
 90
        2
176
     1
 40
0.6
176
     1
 40
30.0
176
     1
 62
     7
420
 16777215
176
     1
 90
        1
176
     1
 90
        0
176
     1
 62
     7
176
     1
 62
   257
176
     1
 90
        1
176
     1
 90
        1
176
     1
 40
1.0
176
     1
 90
        0
176
     1
 62
   257
176
     1
 40
1.0
176
     1
 90
        1
176
     1
 90
        6
176
     1
 90
        2
176
     1
 62
     7
176
     1
 90
        5
176
     1
 90
        0
176
     1
 90
        0
176
     1
290
     0
176
     1
 90
       13
176
     1
 40
0.0
176
     1
 90
        0
176
     1
290
     0
176
     1
290
     1
176
     1
290
     1
176
     1
290
     0
176
     1
290
     0
176
     1
290
     0
176
     1
290
     0
176
     1
290
     0
176
     1
290
     0
176
     1
 90
       50
176
     1
 40
0.0
176
     1
 40
1.0
176
     1
 90
        0
176
     1
 62
    18
420
        0
176
     1
 90
       50
176
     1
 90
        3
176
     1
 62
     5
420
      255
176
     1
290
     0
176
     1
 90
       50
176
     1
 90
       50
176
     1
 90
       50
176
     1
290
     0
176
     1
 90
       50
176
     1
 62
   256
176
     0
 40
1.0
176
     0
 90
        2
176
     1
  1
strokes_ogs.tif
176
     1
290
     0
176
     1
 40
1.0
176
     1
 40
1.0
176
     1
  0
VISUALSTYLE
  5
2C
102
{ACAD_REACTORS
330
29
102
}
330
29
100
AcDbVisualStyle
  2
Gouraud
 70
     2
177
     3
291
     1
 70
    58
 90
        2
176
     1
 90
        2
176
     1
 90
        1
176
     1
 90
        2
176
     1
 40
0.6
176
     1
 40
30.0
176
     1
 62
     7
420
 16777215
176
     1
 90
        0
176
     1
 90
        0
176
     1
 62
     7
176
     1
 62
   257
176
     1
 90
        1
176
     1
 90
        1
176
     1
 40
1.0
176
     1
 90
        0
176
     1
 62
     7
176
     1
 40
1.0
176
     1
 90
        1
176
     1
 90
        6
176
     1
 90
        2
176
     1
 62
     7
176
     1
 90
        5
176
     1
 90
        0
176
     1
 90
        0
176
     1
290
     0
176
     1
 90
       13
176
     1
 40
0.0
176
     1
 90
        0
176
     1
290
     0
176
     1
290
     1
176
     1
290
     1
176
     1
290
     0
176
     1
290
     0
176
     1
290
     0
176
     1
290
     0
176
     1
290
     0
176
     1
290
     0
176
     1
 90
       50
176
     1
 40
0.0
176
     1
 40
1.0
176
     1
 90
        0
176
     1
 62
    18
420
        0
176
     1
 90
       50
176
     1
 90
        3
176
     1
 62
     5
420
      255
176
     1
290
     0
176
     1
 90
       50
176
     1
 90
       50
176
     1
 90
       50
176
     1
290
     0
176
     1
 90
       50
176
     1
 62
   256
176
     0
 40
1.0
176
     0
 90
        2
176
     1
  1
strokes_ogs.tif
176
     1
290
     0
176
     1
 40
1.0
176
     1
 40
1.0
176
     1
  0
VISUALSTYLE
  5
2D
102
{ACAD_REACTORS
330
29
102
}
330
29
100
AcDbVisualStyle
  2
GouraudWithEdges
 70
     3
177
     3
291
     1
 70
    58
 90
        2
176
     1
 90
        2
176
     1
 90
        1
176
     1
 90
        2
176
     1
 40
0.6
176
     1
 40
30.0
176
     1
 62
     7
420
 16777215
176
     1
 90
        1
176
     1
 90
        0
176
     1
 62
     7
176
     1
 62
   257
176
     1
 90
        1
176
     1
 90
        1
176
     1
 40
1.0
176
     1
 90
        0
176
     1
 62
   257
176
     1
 40
1.0
176
     1
 90
        1
176
     1
 90
        6
176
     1
 90
        2
176
     1
 62
     7
176
     1
 90
        5
176
     1
 90
        0
176
     1
 90
        0
176
     1
290
     0
176
     1
 90
       13
176
     1
 40
0.0
176
     1
 90
        0
176
     1
290
     0
176
     1
290
     1
176
     1
290
     1
176
     1
290
     0
176
     1
290
     0
176
     1
290
     0
176
     1
290
     0
176
     1
290
     0
176
     1
290
     0
176
     1
 90
       50
176
     1
 40
0.0
176
     1
 40
1.0
176
     1
 90
        0
176
     1
 62
    18
420
        0
176
     1
 90
       50
176
     1
 90
        3
176
     1
 62
     5
420
      255
176
     1
290
     0
176
     1
 90
       50
176
     1
 90
       50
176
     1
 90
       50
176
     1
290
     0
176
     1
 90
       50
176
     1
 62
   256
176
     0
 40
1.0
176
     0
 90
        2
176
     1
  1
strokes_ogs.tif
176
     1
290
     0
176
     1
 40
1.0
176
     1
 40
1.0
176
     1
  0
VISUALSTYLE
  5
31
102
{ACAD_REACTORS
330
29
102
}
330
29
100
AcDbVisualStyle
  2
Hidden
 70
     6
177
     3
291
     0
 70
    58
 90
        1
176
     1
 90
        2
176
     1
 90
        2
176
     1
 90
        0
176
     1
 40
0.6
176
     1
 40
30.0
176
     1
 62
     7
420
 16777215
176
     1
 90
        2
176
     1
 90
        2
176
     1
 62
     7
176
     1
 62
   257
176
     1
 90
        2
176
     1
 90
        1
176
     1
 40
40.0
176
     1
 90
        0
176
     1
 62
   257
176
     1
 40
1.0
176
     1
 90
        1
176
     1
 90
        6
176
     1
 90
        2
176
     1
 62
     7
176
     1
 90
        3
176
     1
 90
        0
176
     1
 90
        0
176
     1
290
     0
176
     1
 90
        1
176
     1
 40
0.0
176
     1
 90
        0
176
     1
290
     0
176
     1
290
     1
176
     1
290
     1
176
     1
290
     0
176
     1
290
     0
176
     1
290
     0
176
     1
290
     0
176
     1
290
     0
176
     1
290
     0
176
     1
 90
       50
176
     1
 40
0.0
176
     1
 40
1.0
176
     1
 90
        0
176
     1
 62
    18
420
        0
176
     1
 90
       50
176
     1
 90
        3
176
     1
 62
     5
420
      255
176
     1
290
     0
176
     1
 90
       50
176
     1
 90
       50
176
     1
 90
       50
176
     1
290
     0
176
     1
 90
       50
176
     1
 62
   256
176
     0
 40
1.0
176
     0
 90
        2
176
     1
  1
strokes_ogs.tif
176
     1
290
     0
176
     1
 40
1.0
176
     1
 40
1.0
176
     1
  0
VISUALSTYLE
  5
3F
102
{ACAD_REACTORS
330
29
102
}
330
29
100
AcDbVisualStyle
  2
JitterOff
 70
    20
177
     3
291
     1
 70
    58
 90
        2
176
     0
 90
        2
176
     0
 90
        0
176
     0
 90
        0
176
     0
 40
0.6
176
     0
 40
30.0
176
     0
 62
     7
420
 16777215
176
     0
 90
        1
176
     0
 90
        4
176
     0
 62
     7
176
     0
 62
   257
176
     0
 90
        1
176
     0
 90
        1
176
     0
 40
1.0
176
     0
 90
       10
176
     2
 62
     7
176
     0
 40
1.0
176
     0
 90
        1
176
     0
 90
        6
176
     0
 90
        2
176
     0
 62
     7
176
     0
 90
        5
176
     0
 90
        0
176
     0
 90
        0
176
     0
290
     0
176
     0
 90
        1
176
     0
 40
0.0
176
     0
 90
        0
176
     0
290
     0
176
     0
290
     1
176
     0
290
     1
176
     0
290
     0
176
     0
290
     0
176
     0
290
     0
176
     0
290
     0
176
     0
290
     0
176
     0
290
     0
176
     0
 90
       50
176
     0
 40
0.0
176
     0
 40
1.0
176
     0
 90
        0
176
     0
 62
    18
420
        0
176
     0
 90
       50
176
     0
 90
        3
176
     0
 62
     5
420
      255
176
     0
290
     0
176
     0
 90
       50
176
     0
 90
       50
176
     0
 90
       50
176
     0
290
     0
176
     0
 90
       50
176
     0
 62
   256
176
     0
 40
1.0
176
     0
 90
        2
176
     0
  1
strokes_ogs.tif
176
     0
290
     0
176
     0
 40
1.0
176
     0
 40
1.0
176
     0
  0
VISUALSTYLE
  5
37
102
{ACAD_REACTORS
330
29
102
}
330
29
100
AcDbVisualStyle
  2
Linepattern
 70
    14
177
     3
291
     1
 70
    58
 90
        2
176
     1
 90
        2
176
     1
 90
        0
176
     1
 90
        0
176
     1
 40
0.6
176
     1
 40
30.0
176
     1
 62
     7
420
 16777215
176
     1
 90
        1
176
     1
 90
        4
176
     1
 62
     7
176
     1
 62
   257
176
     1
 90
        7
176
     1
 90
        7
176
     1
 40
1.0
176
     1
 90
        8
176
     1
 62
     7
176
     1
 40
1.0
176
     1
 90
        1
176
     1
 90
        6
176
     1
 90
        2
176
     1
 62
     7
176
     1
 90
        5
176
     1
 90
        0
176
     1
 90
        0
176
     1
290
     0
176
     1
 90
        1
176
     1
 40
0.0
176
     1
 90
        0
176
     1
290
     0
176
     1
290
     1
176
     1
290
     1
176
     1
290
     0
176
     1
290
     0
176
     1
290
     0
176
     1
290
     0
176
     1
290
     0
176
     1
290
     0
176
     1
 90
       50
176
     1
 40
0.0
176
     1
 40
1.0
176
     1
 90
        0
176
     1
 62
    18
420
        0
176
     1
 90
       50
176
     1
 90
        3
176
     1
 62
     5
420
      255
176
     1
290
     0
176
     1
 90
       50
176
     1
 90
       50
176
     1
 90
       50
176
     1
290
     0
176
     1
 90
       50
176
     1
 62
   256
176
     0
 40
1.0
176
     0
 90
        2
176
     1
  1
strokes_ogs.tif
176
     1
290
     0
176
     1
 40
1.0
176
     1
 40
1.0
176
     1
  0
VISUALSTYLE
  5
40
102
{ACAD_REACTORS
330
29
102
}
330
29
100
AcDbVisualStyle
  2
OverhangOff
 70
    21
177
     3
291
     1
 70
    58
 90
        2
176
     0
 90
        2
176
     0
 90
        0
176
     0
 90
        0
176
     0
 40
0.6
176
     0
 40
30.0
176
     0
 62
     7
420
 16777215
176
     0
 90
        1
176
     0
 90
        4
176
     0
 62
     7
176
     0
 62
   257
176
     0
 90
        1
176
     0
 90
        1
176
     0
 40
1.0
176
     0
 90
        9
176
     2
 62
     7
176
     0
 40
1.0
176
     0
 90
        1
176
     0
 90
        6
176
     0
 90
        2
176
     0
 62
     7
176
     0
 90
        5
176
     0
 90
        0
176
     0
 90
        0
176
     0
290
     0
176
     0
 90
        1
176
     0
 40
0.0
176
     0
 90
        0
176
     0
290
     0
176
     0
290
     1
176
     0
290
     1
176
     0
290
     0
176
     0
290
     0
176
     0
290
     0
176
     0
290
     0
176
     0
290
     0
176
     0
290
     0
176
     0
 90
       50
176
     0
 40
0.0
176
     0
 40
1.0
176
     0
 90
        0
176
     0
 62
    18
420
        0
176
     0
 90
       50
176
     0
 90
        3
176
     0
 62
     5
420
      255
176
     0
290
     0
176
     0
 90
       50
176
     0
 90
       50
176
     0
 90
       50
176
     0
290
     0
176
     0
 90
       50
176
     0
 62
   256
176
     0
 40
1.0
176
     0
 90
        2
176
     0
  1
strokes_ogs.tif
176
     0
290
     0
176
     0
 40
1.0
176
     0
 40
1.0
176
     0
  0
VISUALSTYLE
  5
33
102
{ACAD_REACTORS
330
29
102
}
330
29
100
AcDbVisualStyle
  2
Realistic
 70
     8
177
     3
291
     0
 70
    58
 90
        2
176
     1
 90
        3
176
     1
 90
        0
176
     1
 90
        2
176
     1
 40
0.6
176
     1
 40
30.0
176
     1
 62
     7
420
 16777215
176
     1
 90
        0
176
     1
 90
        0
176
     1
 62
     7
176
     1
 62
   257
176
     1
 90
        1
176
     1
 90
        1
176
     1
 40
1.0
176
     1
 90
        8
176
     1
 62
   257
176
     1
 40
1.0
176
     1
 90
        1
176
     1
 90
        6
176
     1
 90
        2
176
     1
 62
     7
176
     1
 90
        3
176
     1
 90
        0
176
     1
 90
        0
176
     1
290
     0
176
     1
 90
       13
176
     1
 40
0.0
176
     1
 90
        0
176
     1
290
     0
176
     1
290
     1
176
     1
290
     1
176
     1
290
     0
176
     1
290
     0
176
     1
290
     0
176
     1
290
     0
176
     1
290
     0
176
     1
290
     0
176
     1
 90
       50
176
     1
 40
0.0
176
     1
 40
1.0
176
     1
 90
        0
176
     1
 62
    18
420
        0
176
     1
 90
       50
176
     1
 90
        3
176
     1
 62
     5
420
      255
176
     1
290
     0
176
     1
 90
       50
176
     1
 90
       50
176
     1
 90
       50
176
     1
290
     0
176
     1
 90
       50
176
     1
 62
   256
176
     0
 40
1.0
176
     0
 90
        2
176
     1
  1
strokes_ogs.tif
176
     1
290
     0
176
     1
 40
1.0
176
     1
 40
1.0
176
     1
  0
VISUALSTYLE
  5
3E
102
{ACAD_REACTORS
330
29
102
}
330
29
100
AcDbVisualStyle
  2
Shaded
 70
    27
177
     3
291
     0
 70
    58
 90
        2
176
     1
 90
        2
176
     1
 90
        1
176
     1
 90
        2
176
     1
 40
0.6
176
     1
 40
30.0
176
     1
 62
     7
420
 16777215
176
     1
 90
        0
176
     1
 90
        4
176
     1
 62
     7
176
     1
 62
   257
176
     1
 90
        1
176
     1
 90
        1
176
     1
 40
1.0
176
     1
 90
        8
176
     1
 62
   257
176
     1
 40
1.0
176
     1
 90
        1
176
     1
 90
        6
176
     1
 90
        2
176
     1
 62
     8
420
  7895160
176
     1
 90
        3
176
     1
 90
        0
176
     1
 90
        0
176
     1
290
     0
176
     1
 90
        5
176
     1
 40
0.0
176
     1
 90
        0
176
     1
290
     0
176
     1
290
     1
176
     1
290
     1
176
     1
290
     0
176
     1
290
     0
176
     1
290
     0
176
     1
290
     0
176
     1
290
     0
176
     1
290
     0
176
     1
 90
       50
176
     1
 40
0.0
176
     1
 40
1.0
176
     1
 90
        0
176
     1
 62
    18
420
        0
176
     1
 90
       50
176
     1
 90
        3
176
     1
 62
     5
420
      255
176
     1
290
     0
176
     1
 90
       50
176
     1
 90
       50
176
     1
 90
       50
176
     1
290
     0
176
     1
 90
       50
176
     1
 62
   256
176
     0
 40
1.0
176
     0
 90
        2
176
     1
  1
strokes_ogs.tif
176
     1
290
     0
176
     1
 40
1.0
176
     1
 40
1.0
176
     1
  0
VISUALSTYLE
  5
3D
102
{ACAD_REACTORS
330
29
102
}
330
29
100
AcDbVisualStyle
  2
Shaded with edges
 70
    26
177
     3
291
     0
 70
    58
 90
        2
176
     1
 90
        2
176
     1
 90
        1
176
     1
 90
        2
176
     1
 40
0.6
176
     1
 40
30.0
176
     1
 62
     7
420
 16777215
176
     1
 90
        1
176
     1
 90
        2
176
     1
 62
     7
176
     1
 62
   257
176
     1
 90
        2
176
     1
 90
        1
176
     1
 40
1.0
176
     1
 90
        8
176
     1
 62
   257
176
     1
 40
1.0
176
     1
 90
        1
176
     1
 90
        6
176
     1
 90
        2
176
     1
 62
     7
176
     1
 90
        3
176
     1
 90
        0
176
     1
 90
        0
176
     1
290
     0
176
     1
 90
        5
176
     1
 40
0.0
176
     1
 90
        0
176
     1
290
     0
176
     1
290
     1
176
     1
290
     1
176
     1
290
     0
176
     1
290
     0
176
     1
290
     0
176
     1
290
     0
176
     1
290
     0
176
     1
290
     0
176
     1
 90
       50
176
     1
 40
0.0
176
     1
 40
1.0
176
     1
 90
        0
176
     1
 62
    18
420
        0
176
     1
 90
       50
176
     1
 90
        3
176
     1
 62
     5
420
      255
176
     1
290
     0
176
     1
 90
       50
176
     1
 90
       50
176
     1
 90
       50
176
     1
290
     0
176
     1
 90
       50
176
     1
 62
   256
176
     0
 40
1.0
176
     0
 90
        2
176
     1
  1
strokes_ogs.tif
176
     1
290
     0
176
     1
 40
1.0
176
     1
 40
1.0
176
     1
  0
VISUALSTYLE
  5
3A
102
{ACAD_REACTORS
330
29
102
}
330
29
100
AcDbVisualStyle
  2
Shades of Gray
 70
    23
177
     3
291
     0
 70
    58
 90
        2
176
     1
 90
        2
176
     1
 90
        3
176
     1
 90
        0
176
     1
 40
0.6
176
     1
 40
30.0
176
     1
 62
     7
420
 16777215
176
     1
 90
        2
176
     1
 90
        2
176
     1
 62
     7
176
     1
 62
     7
176
     1
 90
        1
176
     1
 90
        1
176
     1
 40
40.0
176
     1
 90
        8
176
     1
 62
     7
176
     1
 40
1.0
176
     1
 90
        1
176
     1
 90
        6
176
     1
 90
        2
176
     1
 62
     7
176
     1
 90
        3
176
     1
 90
        0
176
     1
 90
        0
176
     1
290
     0
176
     1
 90
        1
176
     1
 40
0.0
176
     1
 90
        0
176
     1
290
     0
176
     1
290
     1
176
     1
290
     1
176
     1
290
     0
176
     1
290
     0
176
     1
290
     0
176
     1
290
     0
176
     1
290
     0
176
     1
290
     0
176
     1
 90
       50
176
     1
 40
0.0
176
     1
 40
1.0
176
     1
 90
        0
176
     1
 62
    18
420
        0
176
     1
 90
       50
176
     1
 90
        3
176
     1
 62
     5
420
      255
176
     1
290
     0
176
     1
 90
       50
176
     1
 90
       50
176
     1
 90
       50
176
     1
290
     0
176
     1
 90
       50
176
     1
 62
   256
176
     0
 40
1.0
176
     0
 90
        2
176
     1
  1
strokes_ogs.tif
176
     1
290
     0
176
     1
 40
1.0
176
     1
 40
1.0
176
     1
  0
VISUALSTYLE
  5
3B
102
{ACAD_REACTORS
330
29
102
}
330
29
100
AcDbVisualStyle
  2
Sketchy
 70
    24
177
     3
291
     0
 70
    58
 90
        1
176
     1
 90
        2
176
     1
 90
        2
176
     1
 90
        0
176
     1
 40
0.6
176
     1
 40
30.0
176
     1
 62
     7
420
 16777215
176
     1
 90
        2
176
     1
 90
        2
176
     1
 62
     7
176
     1
 62
     7
176
     1
 90
        1
176
     1
 90
        1
176
     1
 40
40.0
176
     1
 90
       11
176
     1
 62
     7
176
     1
 40
1.0
176
     1
 90
        1
176
     1
 90
        6
176
     1
 90
        2
176
     1
 62
     7
176
     1
 90
        6
176
     1
 90
        0
176
     1
 90
        0
176
     1
290
     0
176
     1
 90
        1
176
     1
 40
0.0
176
     1
 90
        0
176
     1
290
     0
176
     1
290
     1
176
     1
290
     1
176
     1
290
     0
176
     1
290
     0
176
     1
290
     0
176
     1
290
     0
176
     1
290
     0
176
     1
290
     0
176
     1
 90
       50
176
     1
 40
0.0
176
     1
 40
1.0
176
     1
 90
        0
176
     1
 62
    18
420
        0
176
     1
 90
       50
176
     1
 90
        3
176
     1
 62
     5
420
      255
176
     1
290
     0
176
     1
 90
       50
176
     1
 90
       50
176
     1
 90
       50
176
     1
290
     0
176
     1
 90
       50
176
     1
 62
   256
176
     0
 40
1.0
176
     0
 90
        2
176
     1
  1
strokes_ogs.tif
176
     1
290
     0
176
     1
 40
1.0
176
     1
 40
1.0
176
     1
  0
VISUALSTYLE
  5
36
102
{ACAD_REACTORS
330
29
102
}
330
29
100
AcDbVisualStyle
  2
Thicken
 70
    13
177
     3
291
     1
 70
    58
 90
        2
176
     1
 90
        2
176
     1
 90
        0
176
     1
 90
        0
176
     1
 40
0.6
176
     1
 40
30.0
176
     1
 62
     7
420
 16777215
176
     1
 90
        1
176
     1
 90
        4
176
     1
 62
     7
176
     1
 62
   257
176
     1
 90
        1
176
     1
 90
        1
176
     1
 40
1.0
176
     1
 90
       12
176
     1
 62
     7
176
     1
 40
1.0
176
     1
 90
        1
176
     1
 90
        6
176
     1
 90
        2
176
     1
 62
     7
176
     1
 90
        5
176
     1
 90
        0
176
     1
 90
        0
176
     1
290
     0
176
     1
 90
        1
176
     1
 40
0.0
176
     1
 90
        0
176
     1
290
     0
176
     1
290
     1
176
     1
290
     1
176
     1
290
     0
176
     1
290
     0
176
     1
290
     0
176
     1
290
     0
176
     1
290
     0
176
     1
290
     0
176
     1
 90
       50
176
     1
 40
0.0
176
     1
 40
1.0
176
     1
 90
        0
176
     1
 62
    18
420
        0
176
     1
 90
       50
176
     1
 90
        3
176
     1
 62
     5
420
      255
176
     1
290
     0
176
     1
 90
       50
176
     1
 90
       50
176
     1
 90
       50
176
     1
290
     0
176
     1
 90
       50
176
     1
 62
   256
176
     0
 40
1.0
176
     0
 90
        2
176
     1
  1
strokes_ogs.tif
176
     1
290
     0
176
     1
 40
1.0
176
     1
 40
1.0
176
     1
  0
VISUALSTYLE
  5
30
102
{ACAD_REACTORS
330
29
102
}
330
29
100
AcDbVisualStyle
  2
Wireframe
 70
     5
177
     3
291
     0
 70
    58
 90
        0
176
     1
 90
        2
176
     1
 90
        0
176
     1
 90
        0
176
     1
 40
0.6
176
     1
 40
30.0
176
     1
 62
     7
420
 16777215
176
     1
 90
        1
176
     1
 90
        4
176
     1
 62
     7
176
     1
 62
   257
176
     1
 90
        1
176
     1
 90
        1
176
     1
 40
1.0
176
     1
 90
        0
176
     1
 62
   257
176
     1
 40
1.0
176
     1
 90
        1
176
     1
 90
        6
176
     1
 90
        2
176
     1
 62
     7
176
     1
 90
        3
176
     1
 90
        0
176
     1
 90
        0
176
     1
290
     0
176
     1
 90
        1
176
     1
 40
0.0
176
     1
 90
        0
176
     1
290
     0
176
     1
290
     1
176
     1
290
     1
176
     1
290
     0
176
     1
290
     0
176
     1
290
     0
176
     1
290
     0
176
     1
290
     0
176
     1
290
     0
176
     1
 90
       50
176
     1
 40
0.0
176
     1
 40
1.0
176
     1
 90
        0
176
     1
 62
    18
420
        0
176
     1
 90
       50
176
     1
 90
        3
176
     1
 62
     5
420
      255
176
     1
290
     0
176
     1
 90
       50
176
     1
 90
       50
176
     1
 90
       50
176
     1
290
     0
176
     1
 90
       50
176
     1
 62
   256
176
     0
 40
1.0
176
     0
 90
        2
176
     1
  1
strokes_ogs.tif
176
     1
290
     0
176
     1
 40
1.0
176
     1
 40
1.0
176
     1
  0
VISUALSTYLE
  5
3C
102
{ACAD_REACTORS
330
29
102
}
330
29
100
AcDbVisualStyle
  2
X-Ray
 70
    25
177
     3
291
     0
 70
    58
 90
        2
176
     1
 90
        2
176
     1
 90
        1
176
     1
 90
        1
176
     1
 40
0.5
176
     1
 40
30.0
176
     1
 62
     7
420
 16777215
176
     1
 90
        1
176
     1
 90
        0
176
     1
 62
     7
176
     1
 62
   257
176
     1
 90
        1
176
     1
 90
        1
176
     1
 40
1.0
176
     1
 90
        8
176
     1
 62
     7
176
     1
 40
1.0
176
     1
 90
        1
176
     1
 90
        6
176
     1
 90
        2
176
     1
 62
     7
176
     1
 90
        3
176
     1
 90
        0
176
     1
 90
        0
176
     1
290
     0
176
     1
 90
       13
176
     1
 40
0.0
176
     1
 90
        0
176
     1
290
     0
176
     1
290
     1
176
     1
290
     1
176
     1
290
     0
176
     1
290
     0
176
     1
290
     0
176
     1
290
     0
176
     1
290
     0
176
     1
290
     0
176
     1
 90
       50
176
     1
 40
0.0
176
     1
 40
1.0
176
     1
 90
        0
176
     1
 62
    18
420
        0
176
     1
 90
       50
176
     1
 90
        3
176
     1
 62
     5
420
      255
176
     1
290
     0
176
     1
 90
       50
176
     1
 90
       50
176
     1
 90
       50
176
     1
290
     0
176
     1
 90
       50
176
     1
 62
   256
176
     0
 40
1.0
176
     0
 90
        2
176
     1
  1
strokes_ogs.tif
176
     1
290
     0
176
     1
 40
1.0
176
     1
 40
1.0
176
     1
  0
DICTIONARYVAR
  5
9F
102
{ACAD_REACTORS
330
9A
102
}
330
9A
100
DictionaryVariables
280
     0
  1
1:1
  0
DICTIONARYVAR
  5
9C
102
{ACAD_REACTORS
330
9A
102
}
330
9A
100
DictionaryVariables
280
     0
  1
STANDARD
  0
DICTIONARYVAR
  5
9B
102
{ACAD_REACTORS
330
9A
102
}
330
9A
100
DictionaryVariables
280
     0
  1
STANDARD
  0
DICTIONARYVAR
  5
9D
102
{ACAD_REACTORS
330
9A
102
}
330
9A
100
DictionaryVariables
280
     0
  1
Imperial24
  0
DICTIONARYVAR
  5
9E
102
{ACAD_REACTORS
330
9A
102
}
330
9A
100
DictionaryVariables
280
     0
  1
Imperial24
  0
DICTIONARY
  5
1A
330
19
100
AcDbDictionary
280
     1
281
     1
  3
BUMPTILE
360
1C
  3
DIFFUSETILE
360
1B
  3
OPACITYTILE
360
1F
  3
REFLECTIONTILE
360
1E
  3
REFRACTIONTILE
360
20
  3
SPECULARTILE
360
1D
  0
DICTIONARY
  5
12
330
11
100
AcDbDictionary
280
     1
281
     1
  3
BUMPTILE
360
14
  3
DIFFUSETILE
360
13
  3
OPACITYTILE
360
17
  3
REFLECTIONTILE
360
16
  3
REFRACTIONTILE
360
18
  3
SPECULARTILE
360
15
  0
DICTIONARY
  5
22
330
21
100
AcDbDictionary
280
     1
281
     1
  3
BUMPTILE
360
24
  3
DIFFUSETILE
360
23
  3
OPACITYTILE
360
27
  3
REFLECTIONTILE
360
26
  3
REFRACTIONTILE
360
28
  3
SPECULARTILE
360
25
  0
DICTIONARY
  5
A0
330
65
100
AcDbDictionary
280
     1
281
     1
  3
ACAD_ROUNDTRIP_2008_TABLESTYLE_CELLSTYLEMAP
360
A1
  0
XRECORD
  5
1C
102
{ACAD_REACTORS
330
1A
102
}
330
1A
100
AcDbXrecord
280
     1
270
     1
271
     1
  0
XRECORD
  5
1B
102
{ACAD_REACTORS
330
1A
102
}
330
1A
100
AcDbXrecord
280
     1
270
     1
271
     1
  0
XRECORD
  5
1F
102
{ACAD_REACTORS
330
1A
102
}
330
1A
100
AcDbXrecord
280
     1
270
     1
271
     1
  0
XRECORD
  5
1E
102
{ACAD_REACTORS
330
1A
102
}
330
1A
100
AcDbXrecord
280
     1
270
     1
271
     1
  0
XRECORD
  5
20
102
{ACAD_REACTORS
330
1A
102
}
330
1A
100
AcDbXrecord
280
     1
270
     1
271
     1
  0
XRECORD
  5
1D
102
{ACAD_REACTORS
330
1A
102
}
330
1A
100
AcDbXrecord
280
     1
270
     1
271
     1
  0
XRECORD
  5
14
102
{ACAD_REACTORS
330
12
102
}
330
12
100
AcDbXrecord
280
     1
270
     1
271
     1
  0
XRECORD
  5
13
102
{ACAD_REACTORS
330
12
102
}
330
12
100
AcDbXrecord
280
     1
270
     1
271
     1
  0
XRECORD
  5
17
102
{ACAD_REACTORS
330
12
102
}
330
12
100
AcDbXrecord
280
     1
270
     1
271
     1
  0
XRECORD
  5
16
102
{ACAD_REACTORS
330
12
102
}
330
12
100
AcDbXrecord
280
     1
270
     1
271
     1
  0
XRECORD
  5
18
102
{ACAD_REACTORS
330
12
102
}
330
12
100
AcDbXrecord
280
     1
270
     1
271
     1
  0
XRECORD
  5
15
102
{ACAD_REACTORS
330
12
102
}
330
12
100
AcDbXrecord
280
     1
270
     1
271
     1
  0
XRECORD
  5
24
102
{ACAD_REACTORS
330
22
102
}
330
22
100
AcDbXrecord
280
     1
270
     1
271
     1
  0
XRECORD
  5
23
102
{ACAD_REACTORS
330
22
102
}
330
22
100
AcDbXrecord
280
     1
270
     1
271
     1
  0
XRECORD
  5
27
102
{ACAD_REACTORS
330
22
102
}
330
22
100
AcDbXrecord
280
     1
270
     1
271
     1
  0
XRECORD
  5
26
102
{ACAD_REACTORS
330
22
102
}
330
22
100
AcDbXrecord
280
     1
270
     1
271
     1
  0
XRECORD
  5
28
102
{ACAD_REACTORS
330
22
102
}
330
22
100
AcDbXrecord
280
     1
270
     1
271
     1
  0
XRECORD
  5
25
102
{ACAD_REACTORS
330
22
102
}
330
22
100
AcDbXrecord
280
     1
270
     1
271
     1
  0
CELLSTYLEMAP
  5
A1
102
{ACAD_REACTORS
330
A0
102
}
330
A0
100
AcDbCellStyleMap
 90
        3
300
CELLSTYLE
  1
TABLEFORMAT_BEGIN
 90
        5
170
     1
 91
        0
 92
    32768
 62
   257
 93
        1
300
CONTENTFORMAT
  1
CONTENTFORMAT_BEGIN
 90
        0
 91
        0
 92
      512
 93
        0
300

 40
0.0
140
1.0
 94
        5
 62
     0
340
55
144
0.25
309
CONTENTFORMAT_END
171
     0
 94
        0
309
TABLEFORMAT_END
  1
CELLSTYLE_BEGIN
 90
        1
 91
        1
300
_TITLE
309
CELLSTYLE_END
300
CELLSTYLE
  1
TABLEFORMAT_BEGIN
 90
        5
170
     1
 91
        0
 92
        0
 62
   257
 93
        1
300
CONTENTFORMAT
  1
CONTENTFORMAT_BEGIN
 90
        0
 91
        0
 92
      512
 93
        0
300

 40
0.0
140
1.0
 94
        5
 62
     0
340
55
144
0.18
309
CONTENTFORMAT_END
171
     0
 94
        0
309
TABLEFORMAT_END
  1
CELLSTYLE_BEGIN
 90
        2
 91
        1
300
_HEADER
309
CELLSTYLE_END
300
CELLSTYLE
  1
TABLEFORMAT_BEGIN
 90
        5
170
     1
 91
        0
 92
        0
 62
   257
 93
        1
300
CONTENTFORMAT
  1
CONTENTFORMAT_BEGIN
 90
        0
 91
        0
 92
      512
 93
        0
300

 40
0.0
140
1.0
 94
        2
 62
     0
340
55
144
0.18
309
CONTENTFORMAT_END
171
     0
 94
        0
309
TABLEFORMAT_END
  1
CELLSTYLE_BEGIN
 90
        3
 91
        2
300
_DATA
309
CELLSTYLE_END
  0
ENDSEC
  0
EOF
