  0
SECTION
  2
HEADER
  9
$ACADVER
  1
AC1032
  9
$ACADMAINTVER
 90
      251
  9
$DWGCODEPAGE
  3
ANSI_1252
  9
$REQUIREDVERSIONS
160
                 0
  9
$INSBASE
 10
0.0
 20
0.0
 30
0.0
  9
$EXTMIN
 10
1.000000000000000E+20
 20
1.000000000000000E+20
 30
1.000000000000000E+20
  9
$EXTMAX
 10
-1.000000000000000E+20
 20
-1.000000000000000E+20
 30
-1.000000000000000E+20
  9
$LIMMIN
 10
0.0
 20
0.0
  9
$LIMMAX
 10
12.0
 20
9.0
  9
$ORTHOMODE
 70
     0
  9
$REGENMODE
 70
     1
  9
$FILLMODE
 70
     1
  9
$QTEXTMODE
 70
     0
  9
$MIRRTEXT
 70
     0
  9
$LTSCALE
 40
1.0
  9
$ATTMODE
 70
     1
  9
$TEXTSIZE
 40
0.2
  9
$TRACEWID
 40
0.05
  9
$TEXTSTYLE
  7
Standard
  9
$CLAYER
  8
0
  9
$CELTYPE
  6
ByLayer
  9
$CECOLOR
 62
   256
  9
$CELTSCALE
 40
1.0
  9
$DISPSILH
 70
     0
  9
$DIMSCALE
 40
1.0
  9
$DIMASZ
 40
0.18
  9
$DIMEXO
 40
0.0625
  9
$DIMDLI
 40
0.38
  9
$DIMRND
 40
0.0
  9
$DIMDLE
 40
0.0
  9
$DIMEXE
 40
0.18
  9
$DIMTP
 40
0.0
  9
$DIMTM
 40
0.0
  9
$DIMTXT
 40
0.18
  9
$DIMCEN
 40
0.09
  9
$DIMTSZ
 40
0.0
  9
$DIMTOL
 70
     0
  9
$DIMLIM
 70
     0
  9
$DIMTIH
 70
     1
  9
$DIMTOH
 70
     1
  9
$DIMSE1
 70
     0
  9
$DIMSE2
 70
     0
  9
$DIMTAD
 70
     0
  9
$DIMZIN
 70
     0
  9
$DIMBLK
  1

  9
$DIMASO
 70
     1
  9
$DIMSHO
 70
     1
  9
$DIMPOST
  1

  9
$DIMAPOST
  1

  9
$DIMALT
 70
     0
  9
$DIMALTD
 70
     2
  9
$DIMALTF
 40
25.4
  9
$DIMLFAC
 40
1.0
  9
$DIMTOFL
 70
     0
  9
$DIMTVP
 40
0.0
  9
$DIMTIX
 70
     0
  9
$DIMSOXD
 70
     0
  9
$DIMSAH
 70
     0
  9
$DIMBLK1
  1

  9
$DIMBLK2
  1

  9
$DIMSTYLE
  2
Standard
  9
$DIMCLRD
 70
     0
  9
$DIMCLRE
 70
     0
  9
$DIMCLRT
 70
     0
  9
$DIMTFAC
 40
1.0
  9
$DIMGAP
 40
0.09
  9
$DIMJUST
 70
     0
  9
$DIMSD1
 70
     0
  9
$DIMSD2
 70
     0
  9
$DIMTOLJ
 70
     1
  9
$DIMTZIN
 70
     0
  9
$DIMALTZ
 70
     0
  9
$DIMALTTZ
 70
     0
  9
$DIMUPT
 70
     0
  9
$DIMDEC
 70
     4
  9
$DIMTDEC
 70
     4
  9
$DIMALTU
 70
     2
  9
$DIMALTTD
 70
     2
  9
$DIMTXSTY
  7
Standard
  9
$DIMAUNIT
 70
     0
  9
$DIMADEC
 70
     0
  9
$DIMALTRND
 40
0.0
  9
$DIMAZIN
 70
     0
  9
$DIMDSEP
 70
    46
  9
$DIMATFIT
 70
     3
  9
$DIMFRAC
 70
     0
  9
$DIMLDRBLK
  1

  9
$DIMLUNIT
 70
     2
  9
$DIMLWD
 70
    -2
  9
$DIMLWE
 70
    -2
  9
$DIMTMOVE
 70
     0
  9
$DIMFXL
 40
1.0
  9
$DIMFXLON
 70
     0
  9
$DIMJOGANG
 40
0.7853981633974483
  9
$DIMTFILL
 70
     0
  9
$DIMTFILLCLR
 70
     0
  9
$DIMARCSYM
 70
     0
  9
$DIMLTYPE
  6

  9
$DIMLTEX1
  6

  9
$DIMLTEX2
  6

  9
$DIMTXTDIRECTION
 70
     0
  9
$LUNITS
 70
     2
  9
$LUPREC
 70
     4
  9
$SKETCHINC
 40
0.1
  9
$FILLETRAD
 40
0.0
  9
$AUNITS
 70
     0
  9
$AUPREC
 70
     0
  9
$MENU
  1
.
  9
$ELEVATION
 40
0.0
  9
$PELEVATION
 40
0.0
  9
$THICKNESS
 40
0.0
  9
$LIMCHECK
 70
     0
  9
$CHAMFERA
 40
0.0
  9
$CHAMFERB
 40
0.0
  9
$CHAMFERC
 40
0.0
  9
$CHAMFERD
 40
0.0
  9
$SKPOLY
 70
     0
  9
$TDCREATE
 40
2459989.480208333
  9
$TDUCREATE
 40
2459989.438541667
  9
$TDUPDATE
 40
2459989.480208333
  9
$TDUUPDATE
 40
2459989.438541667
  9
$TDINDWG
 40
0.0000000000
  9
$TDUSRTIMER
 40
0.0000000000
  9
$USRTIMER
 70
     1
  9
$ANGBASE
 50
0.0
  9
$ANGDIR
 70
     0
  9
$PDMODE
 70
     0
  9
$PDSIZE
 40
0.0
  9
$PLINEWID
 40
0.0
  9
$SPLFRAME
 70
     0
  9
$SPLINETYPE
 70
     6
  9
$SPLINESEGS
 70
     8
  9
$HANDSEED
  5
9F
  9
$SURFTAB1
 70
     6
  9
$SURFTAB2
 70
     6
  9
$SURFTYPE
 70
     6
  9
$SURFU
 70
     6
  9
$SURFV
 70
     6
  9
$UCSBASE
  2

  9
$UCSNAME
  2

  9
$UCSORG
 10
0.0
 20
0.0
 30
0.0
  9
$UCSXDIR
 10
1.0
 20
0.0
 30
0.0
  9
$UCSYDIR
 10
0.0
 20
1.0
 30
0.0
  9
$UCSORTHOREF
  2

  9
$UCSORTHOVIEW
 70
     0
  9
$UCSORGTOP
 10
0.0
 20
0.0
 30
0.0
  9
$UCSORGBOTTOM
 10
0.0
 20
0.0
 30
0.0
  9
$UCSORGLEFT
 10
0.0
 20
0.0
 30
0.0
  9
$UCSORGRIGHT
 10
0.0
 20
0.0
 30
0.0
  9
$UCSORGFRONT
 10
0.0
 20
0.0
 30
0.0
  9
$UCSORGBACK
 10
0.0
 20
0.0
 30
0.0
  9
$PUCSBASE
  2

  9
$PUCSNAME
  2

  9
$PUCSORG
 10
0.0
 20
0.0
 30
0.0
  9
$PUCSXDIR
 10
1.0
 20
0.0
 30
0.0
  9
$PUCSYDIR
 10
0.0
 20
1.0
 30
0.0
  9
$PUCSORTHOREF
  2

  9
$PUCSORTHOVIEW
 70
     0
  9
$PUCSORGTOP
 10
0.0
 20
0.0
 30
0.0
  9
$PUCSORGBOTTOM
 10
0.0
 20
0.0
 30
0.0
  9
$PUCSORGLEFT
 10
0.0
 20
0.0
 30
0.0
  9
$PUCSORGRIGHT
 10
0.0
 20
0.0
 30
0.0
  9
$PUCSORGFRONT
 10
0.0
 20
0.0
 30
0.0
  9
$PUCSORGBACK
 10
0.0
 20
0.0
 30
0.0
  9
$USERI1
 70
     0
  9
$USERI2
 70
     0
  9
$USERI3
 70
     0
  9
$USERI4
 70
     0
  9
$USERI5
 70
     0
  9
$USERR1
 40
0.0
  9
$USERR2
 40
0.0
  9
$USERR3
 40
0.0
  9
$USERR4
 40
0.0
  9
$USERR5
 40
0.0
  9
$WORLDVIEW
 70
     1
  9
$SHADEDGE
 70
     3
  9
$SHADEDIF
 70
    70
  9
$TILEMODE
 70
     1
  9
$MAXACTVP
 70
    64
  9
$PINSBASE
 10
0.0
 20
0.0
 30
0.0
  9
$PLIMCHECK
 70
     0
  9
$PEXTMIN
 10
1.000000000000000E+20
 20
1.000000000000000E+20
 30
1.000000000000000E+20
  9
$PEXTMAX
 10
-1.000000000000000E+20
 20
-1.000000000000000E+20
 30
-1.000000000000000E+20
  9
$PLIMMIN
 10
0.0
 20
0.0
  9
$PLIMMAX
 10
12.0
 20
9.0
  9
$UNITMODE
 70
     0
  9
$VISRETAIN
 70
     1
  9
$PLINEGEN
 70
     0
  9
$PSLTSCALE
 70
     1
  9
$TREEDEPTH
 70
  3020
  9
$CMLSTYLE
  2
Standard
  9
$CMLJUST
 70
     0
  9
$CMLSCALE
 40
1.0
  9
$PROXYGRAPHICS
 70
     1
  9
$MEASUREMENT
 70
     0
  9
$CELWEIGHT
370
    -1
  9
$ENDCAPS
280
     0
  9
$JOINSTYLE
280
     0
  9
$LWDISPLAY
290
     1
  9
$INSUNITS
 70
     4
  9
$HYPERLINKBASE
  1

  9
$STYLESHEET
  1

  9
$XEDIT
290
     1
  9
$CEPSNTYPE
380
     0
  9
$PSTYLEMODE
290
     1
  9
$FINGERPRINTGUID
  2
{63DEEA19-46FE-3E43-9ADC-829907626627}
  9
$VERSIONGUID
  2
{59EEAFF1-421C-2843-B02D-76F68AF4047D}
  9
$EXTNAMES
290
     1
  9
$PSVPSCALE
 40
0.0
  9
$OLESTARTUP
290
     0
  9
$SORTENTS
280
   127
  9
$INDEXCTL
280
     0
  9
$HIDETEXT
280
     1
  9
$XCLIPFRAME
280
     2
  9
$HALOGAP
280
     0
  9
$OBSCOLOR
 70
   257
  9
$OBSLTYPE
280
     0
  9
$INTERSECTIONDISPLAY
280
     0
  9
$INTERSECTIONCOLOR
 70
   257
  9
$DIMASSOC
280
     2
  9
$PROJECTNAME
  1

  9
$CAMERADISPLAY
290
     0
  9
$LENSLENGTH
 40
50.0
  9
$CAMERAHEIGHT
 40
0.0
  9
$STEPSPERSEC
 40
2.0
  9
$STEPSIZE
 40
6.0
  9
$3DDWFPREC
 40
2.0
  9
$PSOLWIDTH
 40
0.25
  9
$PSOLHEIGHT
 40
4.0
  9
$LOFTANG1
 40
1.570796326794896
  9
$LOFTANG2
 40
1.570796326794896
  9
$LOFTMAG1
 40
0.0
  9
$LOFTMAG2
 40
0.0
  9
$LOFTPARAM
 70
     7
  9
$LOFTNORMALS
280
     1
  9
$LATITUDE
 40
37.795
  9
$LONGITUDE
 40
-122.394
  9
$NORTHDIRECTION
 40
0.0
  9
$TIMEZONE
 70
 -8000
  9
$LIGHTGLYPHDISPLAY
280
     1
  9
$TILEMODELIGHTSYNCH
280
     1
  9
$CMATERIAL
347
11
  9
$SOLIDHIST
280
     0
  9
$SHOWHIST
280
     1
  9
$DWFFRAME
280
     2
  9
$DGNFRAME
280
     0
  9
$REALWORLDSCALE
290
     1
  9
$INTERFERECOLOR
 62
     1
  9
$INTERFEREOBJVS
345
33
  9
$INTERFEREVPVS
346
30
  9
$CSHADOW
280
     0
  9
$SHADOWPLANELOCATION
 40
0.0
  0
ENDSEC
  0
SECTION
  2
CLASSES
  0
CLASS
  1
ACDBDICTIONARYWDFLT
  2
AcDbDictionaryWithDefault
  3
ObjectDBX Classes
 90
        0
 91
        1
280
     0
281
     0
  0
CLASS
  1
MATERIAL
  2
AcDbMaterial
  3
ObjectDBX Classes
 90
     1153
 91
        3
280
     0
281
     0
  0
CLASS
  1
VISUALSTYLE
  2
AcDbVisualStyle
  3
ObjectDBX Classes
 90
     4095
 91
       24
280
     0
281
     0
  0
CLASS
  1
SCALE
  2
AcDbScale
  3
ObjectDBX Classes
 90
     1153
 91
       17
280
     0
281
     0
  0
CLASS
  1
TABLESTYLE
  2
AcDbTableStyle
  3
ObjectDBX Classes
 90
     4095
 91
        1
280
     0
281
     0
  0
CLASS
  1
MLEADERSTYLE
  2
AcDbMLeaderStyle
  3
ACDB_MLEADERSTYLE_CLASS
 90
     4095
 91
        1
280
     0
281
     0
  0
CLASS
  1
ACDBSECTIONVIEWSTYLE
  2
AcDbSectionViewStyle
  3
ObjectDBX Classes
 90
     1025
 91
        1
280
     0
281
     0
  0
CLASS
  1
ACDBDETAILVIEWSTYLE
  2
AcDbDetailViewStyle
  3
ObjectDBX Classes
 90
     1025
 91
        1
280
     0
281
     0
  0
CLASS
  1
DICTIONARYVAR
  2
AcDbDictionaryVar
  3
ObjectDBX Classes
 90
        0
 91
        5
280
     0
281
     0
  0
CLASS
  1
CELLSTYLEMAP
  2
AcDbCellStyleMap
  3
ObjectDBX Classes
 90
     1152
 91
        1
280
     0
281
     0
  0
ENDSEC
  0
SECTION
  2
TABLES
  0
TABLE
  2
VPORT
  5
8
330
0
100
AcDbSymbolTable
 70
     1
  0
VPORT
  5
57
330
8
100
AcDbSymbolTableRecord
100
AcDbViewportTableRecord
  2
*Active
 70
     0
 10
0.0
 20
0.0
 11
1.0
 21
1.0
 12
0.0
 22
0.0
 13
0.0
 23
0.0
 14
1.0
 24
1.0
 15
0.0
 25
0.0
 16
0.0
 26
0.0
 36
1.0
 17
600.1529968850094
 27
-1000.168184874562
 37
0.0
 40
2040.449791156555
 41
0.6000881750030808
 42
50.0
 43
0.0
 44
0.0
 50
0.0
 51
0.0
 71
     0
 72
   100
 73
     1
 74
     1
 75
     0
 76
     0
 77
     0
 78
     0
281
     0
 65
     1
110
0.0
120
0.0
130
0.0
111
1.0
121
0.0
131
0.0
112
0.0
122
1.0
132
0.0
 79
     0
146
0.0
 60
     3
 61
     5
292
     1
282
     1
141
0.0
142
0.0
 63
   250
421
  3355443
  0
ENDTAB
  0
TABLE
  2
LTYPE
  5
5
330
0
100
AcDbSymbolTable
 70
     1
  0
LTYPE
  5
5B
330
5
100
AcDbSymbolTableRecord
100
AcDbLinetypeTableRecord
  2
ByBlock
 70
     0
  3

 72
    65
 73
     0
 40
0.0
  0
LTYPE
  5
5C
330
5
100
AcDbSymbolTableRecord
100
AcDbLinetypeTableRecord
  2
ByLayer
 70
     0
  3

 72
    65
 73
     0
 40
0.0
  0
LTYPE
  5
5D
330
5
100
AcDbSymbolTableRecord
100
AcDbLinetypeTableRecord
  2
Continuous
 70
     0
  3
Solid line
 72
    65
 73
     0
 40
0.0
  0
ENDTAB
  0
TABLE
  2
LAYER
  5
2
330
0
100
AcDbSymbolTable
 70
     8
  0
LAYER
  5
54
330
2
100
AcDbSymbolTableRecord
100
AcDbLayerTableRecord
  2
0
 70
     0
 62
     7
  6
Continuous
370
    -3
390
F
347
21
348
0
  0
LAYER
  5
78
330
2
100
AcDbSymbolTableRecord
100
AcDbLayerTableRecord
  2
Bounding Box
 70
     0
 62
     7
  6
Continuous
370
     0
390
F
347
21
348
0
  0
LAYER
  5
7A
330
2
100
AcDbSymbolTableRecord
100
AcDbLayerTableRecord
  2
Screws
 70
     0
 62
     7
  6
Continuous
370
     0
390
F
347
21
348
0
  0
LAYER
  5
83
330
2
100
AcDbSymbolTableRecord
100
AcDbLayerTableRecord
  2
2023-004
 70
     5
 62
     7
  6
Continuous
370
     0
390
F
347
21
348
0
  0
LAYER
  5
84
330
2
100
AcDbSymbolTableRecord
100
AcDbLayerTableRecord
  2
2023-003
 70
     0
 62
     7
  6
Continuous
370
     0
390
F
347
21
348
0
  0
LAYER
  5
93
330
2
100
AcDbSymbolTableRecord
100
AcDbLayerTableRecord
  2
2023-002
 70
     5
 62
     7
  6
Continuous
370
     0
390
F
347
21
348
0
  0
LAYER
  5
94
330
2
100
AcDbSymbolTableRecord
100
AcDbLayerTableRecord
  2
2023-001
 70
     5
 62
     7
  6
Continuous
370
     0
390
F
347
21
348
0
  0
LAYER
  5
95
330
2
100
AcDbSymbolTableRecord
100
AcDbLayerTableRecord
  2
10-2022-057
 70
     5
 62
     7
  6
Continuous
370
     0
390
F
347
21
348
0
  0
ENDTAB
  0
TABLE
  2
STYLE
  5
3
330
0
100
AcDbSymbolTable
 70
     2
  0
STYLE
  5
55
330
3
100
AcDbSymbolTableRecord
100
AcDbTextStyleTableRecord
  2
Standard
 70
     0
 40
0.0
 41
1.0
 50
0.0
 71
     0
 42
0.2
  3
txt
  4

  0
STYLE
  5
5A
330
3
100
AcDbSymbolTableRecord
100
AcDbTextStyleTableRecord
  2
Annotative
 70
     0
 40
0.0
 41
1.0
 50
0.0
 71
     0
 42
0.2
  3
txt
  4

1001
AcadAnnotative
1000
AnnotativeData
1002
{
1070
     1
1070
     1
1002
}
  0
ENDTAB
  0
TABLE
  2
VIEW
  5
6
330
0
100
AcDbSymbolTable
 70
     0
  0
ENDTAB
  0
TABLE
  2
UCS
  5
7
330
0
100
AcDbSymbolTable
 70
     0
  0
ENDTAB
  0
TABLE
  2
APPID
  5
9
330
0
100
AcDbSymbolTable
 70
     2
  0
APPID
  5
56
330
9
100
AcDbSymbolTableRecord
100
AcDbRegAppTableRecord
  2
ACAD
 70
     0
  0
APPID
  5
5E
330
9
100
AcDbSymbolTableRecord
100
AcDbRegAppTableRecord
  2
AcadAnnotative
 70
     0
  0
ENDTAB
  0
TABLE
  2
DIMSTYLE
  5
A
330
0
100
AcDbSymbolTable
 70
     2
100
AcDbDimStyleTable
 71
     0
  0
DIMSTYLE
105
58
330
A
100
AcDbSymbolTableRecord
100
AcDbDimStyleTableRecord
  2
Standard
 70
     0
340
55
  0
DIMSTYLE
105
59
330
A
100
AcDbSymbolTableRecord
100
AcDbDimStyleTableRecord
  2
Annotative
 70
     0
340
55
1001
AcadAnnotative
1000
AnnotativeData
1002
{
1070
     1
1070
     1
1002
}
  0
ENDTAB
  0
TABLE
  2
BLOCK_RECORD
  5
1
330
0
100
AcDbSymbolTable
 70
     1
  0
BLOCK_RECORD
  5
70
330
1
100
AcDbSymbolTableRecord
100
AcDbBlockTableRecord
  2
*Model_Space
340
73
 70
     0
280
     1
281
     0
  0
BLOCK_RECORD
  5
6C
330
1
100
AcDbSymbolTableRecord
100
AcDbBlockTableRecord
  2
*Paper_Space
340
6F
 70
     0
280
     1
281
     0
  0
BLOCK_RECORD
  5
74
330
1
100
AcDbSymbolTableRecord
100
AcDbBlockTableRecord
  2
*Paper_Space0
340
77
 70
     0
280
     1
281
     0
  0
ENDTAB
  0
ENDSEC
  0
SECTION
  2
BLOCKS
  0
BLOCK
  5
71
330
70
100
AcDbEntity
  8
0
100
AcDbBlockBegin
  2
*Model_Space
 70
     0
 10
0.0
 20
0.0
 30
0.0
  3
*Model_Space
  1

  0
ENDBLK
  5
72
330
70
100
AcDbEntity
  8
0
100
AcDbBlockEnd
  0
BLOCK
  5
6D
330
6C
100
AcDbEntity
 67
     1
  8
0
100
AcDbBlockBegin
  2
*Paper_Space
 70
     0
 10
0.0
 20
0.0
 30
0.0
  3
*Paper_Space
  1

  0
ENDBLK
  5
6E
330
6C
100
AcDbEntity
 67
     1
  8
0
100
AcDbBlockEnd
  0
BLOCK
  5
75
330
74
100
AcDbEntity
 67
     1
  8
0
100
AcDbBlockBegin
  2
*Paper_Space0
 70
     0
 10
0.0
 20
0.0
 30
0.0
  3
*Paper_Space0
  1

  0
ENDBLK
  5
76
330
74
100
AcDbEntity
 67
     1
  8
0
100
AcDbBlockEnd
  0
ENDSEC
  0
SECTION
  2
ENTITIES
  0
LWPOLYLINE
  5
79
330
70
100
AcDbEntity
  8
Bounding Box
 62
    18
420
        0
370
    40
100
AcDbPolyline
 90
        4
 70
     1
 43
0.0
 10
1200.152996735009
 20
-2000.168184624562
 10
0.1529970350094219
 20
-2000.168184624562
 10
0.1529970350094219
 20
-0.1681851245616323
 10
1200.152996735009
 20
-0.1681851245616323
  0
ELLIPSE
  5
7B
330
70
100
AcDbEntity
  8
Screws
100
AcDbEllipse
 10
17.342316281568
 20
-1982.358092505099
 30
0.0
 11
2.557638888249479
 21
0.0
 31
0.0
210
0.0
220
0.0
230
1.0
 40
0.9655172413793103
 41
0.0
 42
6.283185307179586
  0
HATCH
  5
7C
330
70
100
AcDbEntity
  8
Screws
 62
    18
420
        0
440
 33554687
100
AcDbHatch
 10
0.0
 20
0.0
 30
0.0
210
0.0
220
0.0
230
1.0
  2
SOLID
 70
     1
 71
     1
 91
        1
 92
        1
 93
        1
 72
     3
 10
17.342316281568
 20
-1982.358092505099
 11
2.557638888249479
 21
0.0
 40
0.9655172413793103
 50
0.0
 51
360.0
 73
     1
 97
        1
330
7B
 75
     2
 76
     1
 98
        1
 10
0.0
 20
0.0
450
        0
451
        0
460
0.0
461
0.0
452
        0
462
0.0
453
        0
470

  0
ELLIPSE
  5
7D
330
70
100
AcDbEntity
  8
Screws
100
AcDbEllipse
 10
1182.38037163908
 20
-1982.387911349826
 30
0.0
 11
2.557638888249479
 21
0.0
 31
0.0
210
0.0
220
0.0
230
1.0
 40
0.9655172413793103
 41
0.0
 42
6.283185307179586
  0
HATCH
  5
7E
330
70
100
AcDbEntity
  8
Screws
 62
    18
420
        0
440
 33554687
100
AcDbHatch
 10
0.0
 20
0.0
 30
0.0
210
0.0
220
0.0
230
1.0
  2
SOLID
 70
     1
 71
     1
 91
        1
 92
        1
 93
        1
 72
     3
 10
1182.38037163908
 20
-1982.387911349826
 11
2.557638888249479
 21
0.0
 40
0.9655172413793103
 50
0.0
 51
360.0
 73
     1
 97
        1
330
7D
 75
     2
 76
     1
 98
        1
 10
0.0
 20
0.0
450
        0
451
        0
460
0.0
461
0.0
452
        0
462
0.0
453
        0
470

  0
ELLIPSE
  5
7F
330
70
100
AcDbEntity
  8
Screws
100
AcDbEllipse
 10
1182.644954972347
 20
-17.53202921959431
 30
0.0
 11
2.557638888249479
 21
0.0
 31
0.0
210
0.0
220
0.0
230
1.0
 40
0.9655172413793103
 41
0.0
 42
6.283185307179586
  0
HATCH
  5
80
330
70
100
AcDbEntity
  8
Screws
 62
    18
420
        0
440
 33554687
100
AcDbHatch
 10
0.0
 20
0.0
 30
0.0
210
0.0
220
0.0
230
1.0
  2
SOLID
 70
     1
 71
     1
 91
        1
 92
        1
 93
        1
 72
     3
 10
1182.644954972347
 20
-17.53202921959431
 11
2.557638888249479
 21
0.0
 40
0.9655172413793103
 50
0.0
 51
360.0
 73
     1
 97
        1
330
7F
 75
     2
 76
     1
 98
        1
 10
0.0
 20
0.0
450
        0
451
        0
460
0.0
461
0.0
452
        0
462
0.0
453
        0
470

  0
ELLIPSE
  5
81
330
70
100
AcDbEntity
  8
Screws
100
AcDbEllipse
 10
17.43471861274107
 20
-17.53202921959431
 30
0.0
 11
2.557638888249479
 21
0.0
 31
0.0
210
0.0
220
0.0
230
1.0
 40
0.9655172413793103
 41
0.0
 42
6.283185307179586
  0
HATCH
  5
82
330
70
100
AcDbEntity
  8
Screws
 62
    18
420
        0
440
 33554687
100
AcDbHatch
 10
0.0
 20
0.0
 30
0.0
210
0.0
220
0.0
230
1.0
  2
SOLID
 70
     1
 71
     1
 91
        1
 92
        1
 93
        1
 72
     3
 10
17.43471861274107
 20
-17.53202921959431
 11
2.557638888249479
 21
0.0
 40
0.9655172413793103
 50
0.0
 51
360.0
 73
     1
 97
        1
330
81
 75
     2
 76
     1
 98
        1
 10
0.0
 20
0.0
450
        0
451
        0
460
0.0
461
0.0
452
        0
462
0.0
453
        0
470

  0
SPLINE
  5
85
330
70
100
AcDbEntity
  8
2023-003
100
AcDbSpline
210
0.0
220
0.0
230
1.0
 70
     9
 71
     3
 72
    92
 73
    88
 74
     0
 42
0.0000000001
 43
0.0000000001
 40
0.0
 40
0.0
 40
0.0
 40
0.0
 40
1.0
 40
1.0
 40
1.0
 40
2.0
 40
2.0
 40
2.0
 40
3.0
 40
3.0
 40
3.0
 40
4.0
 40
4.0
 40
4.0
 40
5.0
 40
5.0
 40
5.0
 40
6.0
 40
6.0
 40
6.0
 40
7.0
 40
7.0
 40
7.0
 40
8.0
 40
8.0
 40
8.0
 40
9.0
 40
9.0
 40
9.0
 40
10.0
 40
10.0
 40
10.0
 40
11.0
 40
11.0
 40
11.0
 40
12.0
 40
12.0
 40
12.0
 40
13.0
 40
13.0
 40
13.0
 40
14.0
 40
14.0
 40
14.0
 40
15.0
 40
15.0
 40
15.0
 40
16.0
 40
16.0
 40
16.0
 40
17.0
 40
17.0
 40
17.0
 40
18.0
 40
18.0
 40
18.0
 40
19.0
 40
19.0
 40
19.0
 40
20.0
 40
20.0
 40
20.0
 40
21.0
 40
21.0
 40
21.0
 40
22.0
 40
22.0
 40
22.0
 40
23.0
 40
23.0
 40
23.0
 40
24.0
 40
24.0
 40
24.0
 40
25.0
 40
25.0
 40
25.0
 40
26.0
 40
26.0
 40
26.0
 40
27.0
 40
27.0
 40
27.0
 40
28.0
 40
28.0
 40
28.0
 40
29.0
 40
29.0
 40
29.0
 40
29.0
 10
1125.804013674692
 20
-1905.730283761101
 30
0.0
 10
1120.915511043825
 20
-1909.60523795641
 30
0.0
 10
1116.650864088109
 20
-1914.215380816625
 30
0.0
 10
1113.051405622917
 20
-1919.305205320328
 30
0.0
 10
1111.27034113973
 20
-1921.823724630069
 30
0.0
 10
1109.659965476092
 20
-1924.462565470364
 30
0.0
 10
1108.227556148925
 20
-1927.194348539538
 30
0.0
 10
1107.505722756269
 20
-1928.570974761822
 30
0.0
 10
1106.829054677493
 20
-1929.971287428684
 30
0.0
 10
1106.198541505254
 20
-1931.392056651301
 30
0.0
 10
1105.597840960609
 20
-1932.745647477659
 30
0.0
 10
1104.961595229886
 20
-1934.098630684676
 30
0.0
 10
1104.86501667722
 20
-1935.598772106569
 30
0.0
 10
1104.763371541646
 20
-1937.177612066366
 30
0.0
 10
1105.564989708284
 20
-1938.661629856528
 30
0.0
 10
1107.123828644938
 20
-1939.150667587011
 30
0.0
 10
1108.669717031357
 20
-1939.635642481017
 30
0.0
 10
1110.48190694266
 20
-1939.017346370068
 30
0.0
 10
1111.971066051905
 20
-1938.586700722765
 30
0.0
 10
1115.400296333537
 20
-1937.595011463225
 30
0.0
 10
1118.747247332244
 20
-1936.266994149202
 30
0.0
 10
1122.076760738365
 20
-1934.98679597036
 30
0.0
 10
1128.71502864738
 20
-1932.434381412675
 30
0.0
 10
1135.271733888103
 20
-1929.677424989719
 30
0.0
 10
1141.86101928686
 20
-1927.002723055071
 30
0.0
 10
1148.444061890107
 20
-1924.330555176275
 30
0.0
 10
1155.065188808033
 20
-1921.737919297568
 30
0.0
 10
1161.817227842273
 20
-1919.520035482562
 30
0.0
 10
1162.667859340085
 20
-1919.240623319515
 30
0.0
 10
1163.520558800694
 20
-1918.967606294767
 30
0.0
 10
1164.375085383865
 20
-1918.700349271768
 30
0.0
 10
1165.724819276524
 20
-1918.278213940819
 30
0.0
 10
1165.14860797736
 20
-1916.149007534857
 30
0.0
 10
1163.788945961258
 20
-1916.574247930959
 30
0.0
 10
1157.192991735915
 20
-1918.63716220983
 30
0.0
 10
1150.726146609059
 20
-1921.084137081718
 30
0.0
 10
1144.312194214925
 20
-1923.651654876662
 30
0.0
 10
1137.891779144951
 20
-1926.221759693493
 30
0.0
 10
1131.519504401879
 20
-1928.910685043445
 30
0.0
 10
1125.089015943504
 20
-1931.455802547944
 30
0.0
 10
1121.888021210369
 20
-1932.722721504388
 30
0.0
 10
1118.672591381673
 20
-1933.954046307788
 30
0.0
 10
1115.431977082184
 20
-1935.116248389842
 30
0.0
 10
1113.83199434204
 20
-1935.690060358806
 30
0.0
 10
1112.224194754202
 20
-1936.249599481056
 30
0.0
 10
1110.579639040585
 20
-1936.683489855492
 30
0.0
 10
1109.880400473142
 20
-1936.867973045289
 30
0.0
 10
1109.121979839911
 20
-1937.081986441503
 30
0.0
 10
1108.459711279663
 20
-1937.105475172482
 30
0.0
 10
1108.126881276636
 20
-1937.117279680309
 30
0.0
 10
1107.952636767685
 20
-1937.128117421523
 30
0.0
 10
1107.648421750091
 20
-1937.005333757696
 30
0.0
 10
1107.759469288466
 20
-1937.050153450454
 30
0.0
 10
1107.384026173242
 20
-1936.846004922747
 30
0.0
 10
1107.471410838447
 20
-1936.912935321793
 30
0.0
 10
1107.415012407858
 20
-1936.869738160644
 30
0.0
 10
1107.198043293935
 20
-1936.600112312958
 30
0.0
 10
1107.276650668626
 20
-1936.718772090306
 30
0.0
 10
1107.173926996916
 20
-1936.563708165815
 30
0.0
 10
1107.107014649325
 20
-1936.387766011216
 30
0.0
 10
1107.07678145158
 20
-1936.206408953278
 30
0.0
 10
1107.058029533509
 20
-1936.09392357476
 30
0.0
 10
1107.063501070594
 20
-1935.58715255685
 30
0.0
 10
1107.080568608519
 20
-1935.44402731864
 30
0.0
 10
1107.14066945108
 20
-1934.940032691766
 30
0.0
 10
1107.368235646528
 20
-1934.236439452373
 30
0.0
 10
1107.5908279043
 20
-1933.688646349741
 30
0.0
 10
1108.135924834773
 20
-1932.347178583663
 30
0.0
 10
1108.759751527752
 20
-1931.032141878095
 30
0.0
 10
1109.40292380356
 20
-1929.735353601842
 30
0.0
 10
1110.730441953836
 20
-1927.058761281954
 30
0.0
 10
1112.226098770685
 20
-1924.465270702992
 30
0.0
 10
1113.883281499198
 20
-1921.979167584224
 30
0.0
 10
1117.181175492836
 20
-1917.031671812102
 30
0.0
 10
1121.144663333902
 20
-1912.528425323994
 30
0.0
 10
1125.675074368915
 20
-1908.674144394722
 30
0.0
 10
1126.229460949238
 20
-1908.202495882596
 30
0.0
 10
1126.792689289193
 20
-1907.741490527531
 30
0.0
 10
1127.363085917544
 20
-1907.289356003953
 30
0.0
 10
1127.830059206455
 20
-1906.919201737586
 30
0.0
 10
1127.749990076649
 20
-1906.117187920207
 30
0.0
 10
1127.363085917544
 20
-1905.730283761101
 30
0.0
 10
1126.901854537835
 20
-1905.269052381393
 30
0.0
 10
1126.272180713188
 20
-1905.359183248959
 30
0.0
 10
1125.804013674692
 20
-1905.730283761101
 30
0.0
 10
1125.804013674692
 20
-1905.730283761101
 30
0.0
 10
1125.804013674692
 20
-1905.730283761101
 30
0.0
 10
1125.804013674692
 20
-1905.730283761101
 30
0.0
  0
HATCH
  5
86
330
70
100
AcDbEntity
  8
2023-003
 62
    18
420
        0
440
 33554687
100
AcDbHatch
 10
0.0
 20
0.0
 30
0.0
210
0.0
220
0.0
230
1.0
  2
SOLID
 70
     1
 71
     1
 91
        1
 92
        1
 93
        1
 72
     4
 94
        3
 73
     0
 74
     0
 95
       92
 96
       88
 40
0.0
 40
0.0
 40
0.0
 40
0.0
 40
1.0
 40
1.0
 40
1.0
 40
2.0
 40
2.0
 40
2.0
 40
3.0
 40
3.0
 40
3.0
 40
4.0
 40
4.0
 40
4.0
 40
5.0
 40
5.0
 40
5.0
 40
6.0
 40
6.0
 40
6.0
 40
7.0
 40
7.0
 40
7.0
 40
8.0
 40
8.0
 40
8.0
 40
9.0
 40
9.0
 40
9.0
 40
10.0
 40
10.0
 40
10.0
 40
11.0
 40
11.0
 40
11.0
 40
12.0
 40
12.0
 40
12.0
 40
13.0
 40
13.0
 40
13.0
 40
14.0
 40
14.0
 40
14.0
 40
15.0
 40
15.0
 40
15.0
 40
16.0
 40
16.0
 40
16.0
 40
17.0
 40
17.0
 40
17.0
 40
18.0
 40
18.0
 40
18.0
 40
19.0
 40
19.0
 40
19.0
 40
20.0
 40
20.0
 40
20.0
 40
21.0
 40
21.0
 40
21.0
 40
22.0
 40
22.0
 40
22.0
 40
23.0
 40
23.0
 40
23.0
 40
24.0
 40
24.0
 40
24.0
 40
25.0
 40
25.0
 40
25.0
 40
26.0
 40
26.0
 40
26.0
 40
27.0
 40
27.0
 40
27.0
 40
28.0
 40
28.0
 40
28.0
 40
29.0
 40
29.0
 40
29.0
 40
29.0
 10
1125.804013674692
 20
-1905.730283761101
 10
1120.915511043825
 20
-1909.60523795641
 10
1116.650864088109
 20
-1914.215380816625
 10
1113.051405622917
 20
-1919.305205320328
 10
1111.27034113973
 20
-1921.823724630069
 10
1109.659965476092
 20
-1924.462565470364
 10
1108.227556148925
 20
-1927.194348539538
 10
1107.505722756269
 20
-1928.570974761822
 10
1106.829054677493
 20
-1929.971287428684
 10
1106.198541505254
 20
-1931.392056651301
 10
1105.597840960609
 20
-1932.745647477659
 10
1104.961595229886
 20
-1934.098630684676
 10
1104.86501667722
 20
-1935.598772106569
 10
1104.763371541646
 20
-1937.177612066366
 10
1105.564989708284
 20
-1938.661629856528
 10
1107.123828644938
 20
-1939.150667587011
 10
1108.669717031357
 20
-1939.635642481017
 10
1110.48190694266
 20
-1939.017346370068
 10
1111.971066051905
 20
-1938.586700722765
 10
1115.400296333537
 20
-1937.595011463225
 10
1118.747247332244
 20
-1936.266994149202
 10
1122.076760738365
 20
-1934.98679597036
 10
1128.71502864738
 20
-1932.434381412675
 10
1135.271733888103
 20
-1929.677424989719
 10
1141.86101928686
 20
-1927.002723055071
 10
1148.444061890107
 20
-1924.330555176275
 10
1155.065188808033
 20
-1921.737919297568
 10
1161.817227842273
 20
-1919.520035482562
 10
1162.667859340085
 20
-1919.240623319515
 10
1163.520558800694
 20
-1918.967606294767
 10
1164.375085383865
 20
-1918.700349271768
 10
1165.724819276524
 20
-1918.278213940819
 10
1165.14860797736
 20
-1916.149007534857
 10
1163.788945961258
 20
-1916.574247930959
 10
1157.192991735915
 20
-1918.63716220983
 10
1150.726146609059
 20
-1921.084137081718
 10
1144.312194214925
 20
-1923.651654876662
 10
1137.891779144951
 20
-1926.221759693493
 10
1131.519504401879
 20
-1928.910685043445
 10
1125.089015943504
 20
-1931.455802547944
 10
1121.888021210369
 20
-1932.722721504388
 10
1118.672591381673
 20
-1933.954046307788
 10
1115.431977082184
 20
-1935.116248389842
 10
1113.83199434204
 20
-1935.690060358806
 10
1112.224194754202
 20
-1936.249599481056
 10
1110.579639040585
 20
-1936.683489855492
 10
1109.880400473142
 20
-1936.867973045289
 10
1109.121979839911
 20
-1937.081986441503
 10
1108.459711279663
 20
-1937.105475172482
 10
1108.126881276636
 20
-1937.117279680309
 10
1107.952636767685
 20
-1937.128117421523
 10
1107.648421750091
 20
-1937.005333757696
 10
1107.759469288466
 20
-1937.050153450454
 10
1107.384026173242
 20
-1936.846004922747
 10
1107.471410838447
 20
-1936.912935321793
 10
1107.415012407858
 20
-1936.869738160644
 10
1107.198043293935
 20
-1936.600112312958
 10
1107.276650668626
 20
-1936.718772090306
 10
1107.173926996916
 20
-1936.563708165815
 10
1107.107014649325
 20
-1936.387766011216
 10
1107.07678145158
 20
-1936.206408953278
 10
1107.058029533509
 20
-1936.09392357476
 10
1107.063501070594
 20
-1935.58715255685
 10
1107.080568608519
 20
-1935.44402731864
 10
1107.14066945108
 20
-1934.940032691766
 10
1107.368235646528
 20
-1934.236439452373
 10
1107.5908279043
 20
-1933.688646349741
 10
1108.135924834773
 20
-1932.347178583663
 10
1108.759751527752
 20
-1931.032141878095
 10
1109.40292380356
 20
-1929.735353601842
 10
1110.730441953836
 20
-1927.058761281954
 10
1112.226098770685
 20
-1924.465270702992
 10
1113.883281499198
 20
-1921.979167584224
 10
1117.181175492836
 20
-1917.031671812102
 10
1121.144663333902
 20
-1912.528425323994
 10
1125.675074368915
 20
-1908.674144394722
 10
1126.229460949238
 20
-1908.202495882596
 10
1126.792689289193
 20
-1907.741490527531
 10
1127.363085917544
 20
-1907.289356003953
 10
1127.830059206455
 20
-1906.919201737586
 10
1127.749990076649
 20
-1906.117187920207
 10
1127.363085917544
 20
-1905.730283761101
 10
1126.901854537835
 20
-1905.269052381393
 10
1126.272180713188
 20
-1905.359183248959
 10
1125.804013674692
 20
-1905.730283761101
 10
1125.804013674692
 20
-1905.730283761101
 10
1125.804013674692
 20
-1905.730283761101
 10
1125.804013674692
 20
-1905.730283761101
 97
        0
 97
        1
330
85
 75
     2
 76
     1
 98
        1
 10
0.0
 20
0.0
450
        0
451
        0
460
0.0
461
0.0
452
        0
462
0.0
453
        0
470

  0
SPLINE
  5
87
330
70
100
AcDbEntity
  8
2023-003
100
AcDbSpline
210
0.0
220
0.0
230
1.0
 70
     9
 71
     3
 72
    50
 73
    46
 74
     0
 42
0.0000000001
 43
0.0000000001
 40
0.0
 40
0.0
 40
0.0
 40
0.0
 40
1.0
 40
1.0
 40
1.0
 40
2.0
 40
2.0
 40
2.0
 40
3.0
 40
3.0
 40
3.0
 40
4.0
 40
4.0
 40
4.0
 40
5.0
 40
5.0
 40
5.0
 40
6.0
 40
6.0
 40
6.0
 40
7.0
 40
7.0
 40
7.0
 40
8.0
 40
8.0
 40
8.0
 40
9.0
 40
9.0
 40
9.0
 40
10.0
 40
10.0
 40
10.0
 40
11.0
 40
11.0
 40
11.0
 40
12.0
 40
12.0
 40
12.0
 40
13.0
 40
13.0
 40
13.0
 40
14.0
 40
14.0
 40
14.0
 40
15.0
 40
15.0
 40
15.0
 40
15.0
 10
1134.784998711333
 20
-1922.452583104655
 30
0.0
 10
1137.174423117601
 20
-1917.074230273756
 30
0.0
 10
1139.899196528821
 20
-1911.849329305274
 30
0.0
 10
1142.941745034035
 20
-1906.811579130041
 30
0.0
 10
1142.25696269331
 20
-1906.626106526483
 30
0.0
 10
1141.572180352585
 20
-1906.440633922927
 30
0.0
 10
1140.88739801186
 20
-1906.25516131937
 30
0.0
 10
1141.157783796703
 20
-1912.040421259242
 30
0.0
 10
1141.779862701028
 20
-1917.808317055992
 30
0.0
 10
1142.739591742568
 20
-1923.519809159346
 30
0.0
 10
1143.696766719119
 20
-1929.216101637201
 30
0.0
 10
1145.000207711008
 20
-1934.854207828091
 30
0.0
 10
1146.641391715544
 20
-1940.392313560156
 30
0.0
 10
1147.564611539225
 20
-1943.507679651558
 30
0.0
 10
1148.596286478601
 20
-1946.590146553425
 30
0.0
 10
1149.729857251792
 20
-1949.635231030069
 30
0.0
 10
1149.937463607452
 20
-1950.192919094921
 30
0.0
 10
1150.475859418583
 20
-1950.572881508716
 30
0.0
 10
1151.0859776335
 20
-1950.40521198917
 30
0.0
 10
1151.62202229319
 20
-1950.257898979415
 30
0.0
 10
1152.064734236064
 20
-1949.609920702606
 30
0.0
 10
1151.855958592601
 20
-1949.049091607461
 30
0.0
 10
1149.860016681483
 20
-1943.687439848639
 30
0.0
 10
1148.184695668241
 20
-1938.208186534055
 30
0.0
 10
1146.846941178218
 20
-1932.645549532729
 30
0.0
 10
1145.519586131442
 20
-1927.126155389663
 30
0.0
 10
1144.515198621941
 20
-1921.52599741547
 30
0.0
 10
1143.867237890986
 20
-1915.88603445978
 30
0.0
 10
1143.499545961738
 20
-1912.685579924502
 30
0.0
 10
1143.242656270893
 20
-1909.473106370133
 30
0.0
 10
1143.09225912242
 20
-1906.25516131937
 30
0.0
 10
1143.041859004511
 20
-1905.176784424413
 30
0.0
 10
1141.618608998533
 20
-1904.737244983335
 30
0.0
 10
1141.037912100244
 20
-1905.698743508699
 30
0.0
 10
1137.995363598006
 20
-1910.736493679006
 30
0.0
 10
1135.270590186148
 20
-1915.961394647155
 30
0.0
 10
1132.881165777542
 20
-1921.339747483313
 30
0.0
 10
1132.639615495976
 20
-1921.883452752775
 30
0.0
 10
1132.723045227459
 20
-1922.524270660707
 30
0.0
 10
1133.276664433767
 20
-1922.84808176088
 30
0.0
 10
1133.746356147407
 20
-1923.122803787865
 30
0.0
 10
1134.542041215601
 20
-1922.999455870969
 30
0.0
 10
1134.784998711333
 20
-1922.452583104655
 30
0.0
 10
1134.784998711333
 20
-1922.452583104655
 30
0.0
 10
1134.784998711333
 20
-1922.452583104655
 30
0.0
 10
1134.784998711333
 20
-1922.452583104655
 30
0.0
  0
HATCH
  5
88
330
70
100
AcDbEntity
  8
2023-003
 62
    18
420
        0
440
 33554687
100
AcDbHatch
 10
0.0
 20
0.0
 30
0.0
210
0.0
220
0.0
230
1.0
  2
SOLID
 70
     1
 71
     1
 91
        1
 92
        1
 93
        1
 72
     4
 94
        3
 73
     0
 74
     0
 95
       50
 96
       46
 40
0.0
 40
0.0
 40
0.0
 40
0.0
 40
1.0
 40
1.0
 40
1.0
 40
2.0
 40
2.0
 40
2.0
 40
3.0
 40
3.0
 40
3.0
 40
4.0
 40
4.0
 40
4.0
 40
5.0
 40
5.0
 40
5.0
 40
6.0
 40
6.0
 40
6.0
 40
7.0
 40
7.0
 40
7.0
 40
8.0
 40
8.0
 40
8.0
 40
9.0
 40
9.0
 40
9.0
 40
10.0
 40
10.0
 40
10.0
 40
11.0
 40
11.0
 40
11.0
 40
12.0
 40
12.0
 40
12.0
 40
13.0
 40
13.0
 40
13.0
 40
14.0
 40
14.0
 40
14.0
 40
15.0
 40
15.0
 40
15.0
 40
15.0
 10
1134.784998711333
 20
-1922.452583104655
 10
1137.174423117601
 20
-1917.074230273756
 10
1139.899196528821
 20
-1911.849329305274
 10
1142.941745034035
 20
-1906.811579130041
 10
1142.25696269331
 20
-1906.626106526483
 10
1141.572180352585
 20
-1906.440633922927
 10
1140.88739801186
 20
-1906.25516131937
 10
1141.157783796703
 20
-1912.040421259242
 10
1141.779862701028
 20
-1917.808317055992
 10
1142.739591742568
 20
-1923.519809159346
 10
1143.696766719119
 20
-1929.216101637201
 10
1145.000207711008
 20
-1934.854207828091
 10
1146.641391715544
 20
-1940.392313560156
 10
1147.564611539225
 20
-1943.507679651558
 10
1148.596286478601
 20
-1946.590146553425
 10
1149.729857251792
 20
-1949.635231030069
 10
1149.937463607452
 20
-1950.192919094921
 10
1150.475859418583
 20
-1950.572881508716
 10
1151.0859776335
 20
-1950.40521198917
 10
1151.62202229319
 20
-1950.257898979415
 10
1152.064734236064
 20
-1949.609920702606
 10
1151.855958592601
 20
-1949.049091607461
 10
1149.860016681483
 20
-1943.687439848639
 10
1148.184695668241
 20
-1938.208186534055
 10
1146.846941178218
 20
-1932.645549532729
 10
1145.519586131442
 20
-1927.126155389663
 10
1144.515198621941
 20
-1921.52599741547
 10
1143.867237890986
 20
-1915.88603445978
 10
1143.499545961738
 20
-1912.685579924502
 10
1143.242656270893
 20
-1909.473106370133
 10
1143.09225912242
 20
-1906.25516131937
 10
1143.041859004511
 20
-1905.176784424413
 10
1141.618608998533
 20
-1904.737244983335
 10
1141.037912100244
 20
-1905.698743508699
 10
1137.995363598006
 20
-1910.736493679006
 10
1135.270590186148
 20
-1915.961394647155
 10
1132.881165777542
 20
-1921.339747483313
 10
1132.639615495976
 20
-1921.883452752775
 10
1132.723045227459
 20
-1922.524270660707
 10
1133.276664433767
 20
-1922.84808176088
 10
1133.746356147407
 20
-1923.122803787865
 10
1134.542041215601
 20
-1922.999455870969
 10
1134.784998711333
 20
-1922.452583104655
 10
1134.784998711333
 20
-1922.452583104655
 10
1134.784998711333
 20
-1922.452583104655
 10
1134.784998711333
 20
-1922.452583104655
 97
        0
 97
        1
330
87
 75
     2
 76
     1
 98
        1
 10
0.0
 20
0.0
450
        0
451
        0
460
0.0
461
0.0
452
        0
462
0.0
453
        0
470

  0
SPLINE
  5
89
330
70
100
AcDbEntity
  8
2023-003
100
AcDbSpline
210
0.0
220
0.0
230
1.0
 70
     9
 71
     3
 72
    80
 73
    76
 74
     0
 42
0.0000000001
 43
0.0000000001
 40
0.0
 40
0.0
 40
0.0
 40
0.0
 40
1.0
 40
1.0
 40
1.0
 40
2.0
 40
2.0
 40
2.0
 40
3.0
 40
3.0
 40
3.0
 40
4.0
 40
4.0
 40
4.0
 40
5.0
 40
5.0
 40
5.0
 40
6.0
 40
6.0
 40
6.0
 40
7.0
 40
7.0
 40
7.0
 40
8.0
 40
8.0
 40
8.0
 40
9.0
 40
9.0
 40
9.0
 40
10.0
 40
10.0
 40
10.0
 40
11.0
 40
11.0
 40
11.0
 40
12.0
 40
12.0
 40
12.0
 40
13.0
 40
13.0
 40
13.0
 40
14.0
 40
14.0
 40
14.0
 40
15.0
 40
15.0
 40
15.0
 40
16.0
 40
16.0
 40
16.0
 40
17.0
 40
17.0
 40
17.0
 40
18.0
 40
18.0
 40
18.0
 40
19.0
 40
19.0
 40
19.0
 40
20.0
 40
20.0
 40
20.0
 40
21.0
 40
21.0
 40
21.0
 40
22.0
 40
22.0
 40
22.0
 40
23.0
 40
23.0
 40
23.0
 40
24.0
 40
24.0
 40
24.0
 40
25.0
 40
25.0
 40
25.0
 40
25.0
 10
1120.399512373348
 20
-1946.218039959634
 30
0.0
 10
1121.043554095008
 20
-1946.178544298215
 30
0.0
 10
1121.702181262118
 20
-1946.180834558077
 30
0.0
 10
1122.339243299191
 20
-1946.294053440281
 30
0.0
 10
1122.654565995828
 20
-1946.350092697323
 30
0.0
 10
1122.967123470173
 20
-1946.420187382942
 30
0.0
 10
1123.275308338671
 20
-1946.507539620233
 30
0.0
 10
1123.429454005293
 20
-1946.551230827117
 30
0.0
 10
1123.581573931462
 20
-1946.600543571965
 30
0.0
 10
1123.733737689052
 20
-1946.65050758812
 30
0.0
 10
1124.086501128633
 20
-1946.766339889278
 30
0.0
 10
1123.784398374324
 20
-1946.682974372053
 30
0.0
 10
1123.7571609111
 20
-1946.62099366706
 30
0.0
 10
1123.706989548305
 20
-1946.435521063504
 30
0.0
 10
1123.65681818551
 20
-1946.250048459946
 30
0.0
 10
1123.606646822716
 20
-1946.064575856389
 30
0.0
 10
1123.69258770004
 20
-1945.919510415231
 30
0.0
 10
1123.704691166327
 20
-1945.90116458988
 30
0.0
 10
1123.642957221576
 20
-1946.00953838034
 30
0.0
 10
1123.620211651883
 20
-1946.052146928602
 30
0.0
 10
1123.595854103196
 20
-1946.093810359606
 30
0.0
 10
1123.569884575515
 20
-1946.13452867335
 30
0.0
 10
1123.511784512388
 20
-1946.231045463416
 30
0.0
 10
1123.450593714053
 20
-1946.325772747579
 30
0.0
 10
1123.388438449759
 20
-1946.419725068389
 30
0.0
 10
1123.264690758357
 20
-1946.606778939596
 30
0.0
 10
1123.135583037901
 20
-1946.791607280913
 30
0.0
 10
1122.998541282149
 20
-1946.969241296113
 30
0.0
 10
1122.798962210469
 20
-1947.22793640446
 30
0.0
 10
1122.507634600959
 20
-1947.556377695604
 30
0.0
 10
1122.256526486339
 20
-1947.826239281002
 30
0.0
 10
1121.653897121053
 20
-1948.47387472747
 30
0.0
 10
1121.004326288341
 20
-1949.075346713807
 30
0.0
 10
1120.355167484326
 20
-1949.675565741931
 30
0.0
 10
1119.023704660122
 20
-1950.906650212148
 30
0.0
 10
1117.705765083892
 20
-1952.158203371947
 30
0.0
 10
1116.731920432477
 20
-1953.703221014339
 30
0.0
 10
1116.279342780827
 20
-1954.421241548041
 30
0.0
 10
1116.871087082312
 20
-1955.357314295639
 30
0.0
 10
1117.683836899373
 20
-1955.362069380289
 30
0.0
 10
1121.182823761181
 20
-1955.38254059833
 30
0.0
 10
1124.653069432954
 20
-1955.79552916727
 30
0.0
 10
1128.057292878641
 20
-1956.604877834051
 30
0.0
 10
1128.636108337984
 20
-1956.74249028159
 30
0.0
 10
1129.251778194368
 20
-1956.423149826624
 30
0.0
 10
1129.41341326035
 20
-1955.83489687495
 30
0.0
 10
1129.567225375838
 20
-1955.275114686662
 30
0.0
 10
1129.225085520875
 20
-1954.617063613738
 30
0.0
 10
1128.643432301249
 20
-1954.478776493241
 30
0.0
 10
1125.055880986189
 20
-1953.625841919417
 30
0.0
 10
1121.371418598359
 20
-1953.178782883177
 30
0.0
 10
1117.683836899373
 20
-1953.157208269729
 30
0.0
 10
1118.001142388338
 20
-1953.710157725046
 30
0.0
 10
1118.318447877303
 20
-1954.263107180362
 30
0.0
 10
1118.635753366269
 20
-1954.816056635679
 30
0.0
 10
1120.023301570501
 20
-1952.614692740427
 30
0.0
 10
1122.303881986464
 20
-1951.083382797875
 30
0.0
 10
1124.043351266875
 20
-1949.135892331707
 30
0.0
 10
1124.938068289677
 20
-1948.134177100833
 30
0.0
 10
1126.675132760321
 20
-1946.27699462602
 30
0.0
 10
1125.282369436622
 20
-1945.017799780408
 30
0.0
 10
1124.695695971274
 20
-1944.487389343076
 30
0.0
 10
1123.684069192774
 20
-1944.30010779387
 30
0.0
 10
1122.925382721799
 20
-1944.167952099472
 30
0.0
 10
1122.089191716127
 20
-1944.022295880162
 30
0.0
 10
1121.247128484596
 20
-1943.961199050534
 30
0.0
 10
1120.399512373348
 20
-1944.013178849074
 30
0.0
 10
1119.805129641086
 20
-1944.04962918817
 30
0.0
 10
1119.297081818068
 20
-1944.493771233618
 30
0.0
 10
1119.297081818068
 20
-1945.115609404354
 30
0.0
 10
1119.297081818068
 20
-1945.68419869716
 30
0.0
 10
1119.802173251219
 20
-1946.254671598434
 30
0.0
 10
1120.399512373348
 20
-1946.218039959634
 30
0.0
 10
1120.399512373348
 20
-1946.218039959634
 30
0.0
 10
1120.399512373348
 20
-1946.218039959634
 30
0.0
 10
1120.399512373348
 20
-1946.218039959634
 30
0.0
  0
HATCH
  5
8A
330
70
100
AcDbEntity
  8
2023-003
 62
    18
420
        0
440
 33554687
100
AcDbHatch
 10
0.0
 20
0.0
 30
0.0
210
0.0
220
0.0
230
1.0
  2
SOLID
 70
     1
 71
     1
 91
        1
 92
        1
 93
        1
 72
     4
 94
        3
 73
     0
 74
     0
 95
       80
 96
       76
 40
0.0
 40
0.0
 40
0.0
 40
0.0
 40
1.0
 40
1.0
 40
1.0
 40
2.0
 40
2.0
 40
2.0
 40
3.0
 40
3.0
 40
3.0
 40
4.0
 40
4.0
 40
4.0
 40
5.0
 40
5.0
 40
5.0
 40
6.0
 40
6.0
 40
6.0
 40
7.0
 40
7.0
 40
7.0
 40
8.0
 40
8.0
 40
8.0
 40
9.0
 40
9.0
 40
9.0
 40
10.0
 40
10.0
 40
10.0
 40
11.0
 40
11.0
 40
11.0
 40
12.0
 40
12.0
 40
12.0
 40
13.0
 40
13.0
 40
13.0
 40
14.0
 40
14.0
 40
14.0
 40
15.0
 40
15.0
 40
15.0
 40
16.0
 40
16.0
 40
16.0
 40
17.0
 40
17.0
 40
17.0
 40
18.0
 40
18.0
 40
18.0
 40
19.0
 40
19.0
 40
19.0
 40
20.0
 40
20.0
 40
20.0
 40
21.0
 40
21.0
 40
21.0
 40
22.0
 40
22.0
 40
22.0
 40
23.0
 40
23.0
 40
23.0
 40
24.0
 40
24.0
 40
24.0
 40
25.0
 40
25.0
 40
25.0
 40
25.0
 10
1120.399512373348
 20
-1946.218039959634
 10
1121.043554095008
 20
-1946.178544298215
 10
1121.702181262118
 20
-1946.180834558077
 10
1122.339243299191
 20
-1946.294053440281
 10
1122.654565995828
 20
-1946.350092697323
 10
1122.967123470173
 20
-1946.420187382942
 10
1123.275308338671
 20
-1946.507539620233
 10
1123.429454005293
 20
-1946.551230827117
 10
1123.581573931462
 20
-1946.600543571965
 10
1123.733737689052
 20
-1946.65050758812
 10
1124.086501128633
 20
-1946.766339889278
 10
1123.784398374324
 20
-1946.682974372053
 10
1123.7571609111
 20
-1946.62099366706
 10
1123.706989548305
 20
-1946.435521063504
 10
1123.65681818551
 20
-1946.250048459946
 10
1123.606646822716
 20
-1946.064575856389
 10
1123.69258770004
 20
-1945.919510415231
 10
1123.704691166327
 20
-1945.90116458988
 10
1123.642957221576
 20
-1946.00953838034
 10
1123.620211651883
 20
-1946.052146928602
 10
1123.595854103196
 20
-1946.093810359606
 10
1123.569884575515
 20
-1946.13452867335
 10
1123.511784512388
 20
-1946.231045463416
 10
1123.450593714053
 20
-1946.325772747579
 10
1123.388438449759
 20
-1946.419725068389
 10
1123.264690758357
 20
-1946.606778939596
 10
1123.135583037901
 20
-1946.791607280913
 10
1122.998541282149
 20
-1946.969241296113
 10
1122.798962210469
 20
-1947.22793640446
 10
1122.507634600959
 20
-1947.556377695604
 10
1122.256526486339
 20
-1947.826239281002
 10
1121.653897121053
 20
-1948.47387472747
 10
1121.004326288341
 20
-1949.075346713807
 10
1120.355167484326
 20
-1949.675565741931
 10
1119.023704660122
 20
-1950.906650212148
 10
1117.705765083892
 20
-1952.158203371947
 10
1116.731920432477
 20
-1953.703221014339
 10
1116.279342780827
 20
-1954.421241548041
 10
1116.871087082312
 20
-1955.357314295639
 10
1117.683836899373
 20
-1955.362069380289
 10
1121.182823761181
 20
-1955.38254059833
 10
1124.653069432954
 20
-1955.79552916727
 10
1128.057292878641
 20
-1956.604877834051
 10
1128.636108337984
 20
-1956.74249028159
 10
1129.251778194368
 20
-1956.423149826624
 10
1129.41341326035
 20
-1955.83489687495
 10
1129.567225375838
 20
-1955.275114686662
 10
1129.225085520875
 20
-1954.617063613738
 10
1128.643432301249
 20
-1954.478776493241
 10
1125.055880986189
 20
-1953.625841919417
 10
1121.371418598359
 20
-1953.178782883177
 10
1117.683836899373
 20
-1953.157208269729
 10
1118.001142388338
 20
-1953.710157725046
 10
1118.318447877303
 20
-1954.263107180362
 10
1118.635753366269
 20
-1954.816056635679
 10
1120.023301570501
 20
-1952.614692740427
 10
1122.303881986464
 20
-1951.083382797875
 10
1124.043351266875
 20
-1949.135892331707
 10
1124.938068289677
 20
-1948.134177100833
 10
1126.675132760321
 20
-1946.27699462602
 10
1125.282369436622
 20
-1945.017799780408
 10
1124.695695971274
 20
-1944.487389343076
 10
1123.684069192774
 20
-1944.30010779387
 10
1122.925382721799
 20
-1944.167952099472
 10
1122.089191716127
 20
-1944.022295880162
 10
1121.247128484596
 20
-1943.961199050534
 10
1120.399512373348
 20
-1944.013178849074
 10
1119.805129641086
 20
-1944.04962918817
 10
1119.297081818068
 20
-1944.493771233618
 10
1119.297081818068
 20
-1945.115609404354
 10
1119.297081818068
 20
-1945.68419869716
 10
1119.802173251219
 20
-1946.254671598434
 10
1120.399512373348
 20
-1946.218039959634
 10
1120.399512373348
 20
-1946.218039959634
 10
1120.399512373348
 20
-1946.218039959634
 10
1120.399512373348
 20
-1946.218039959634
 97
        0
 97
        1
330
89
 75
     2
 76
     1
 98
        1
 10
0.0
 20
0.0
450
        0
451
        0
460
0.0
461
0.0
452
        0
462
0.0
453
        0
470

  0
SPLINE
  5
8B
330
70
100
AcDbEntity
  8
2023-003
100
AcDbSpline
210
0.0
220
0.0
230
1.0
 70
     9
 71
     3
 72
   119
 73
   115
 74
     0
 42
0.0000000001
 43
0.0000000001
 40
0.0
 40
0.0
 40
0.0
 40
0.0
 40
1.0
 40
1.0
 40
1.0
 40
2.0
 40
2.0
 40
2.0
 40
3.0
 40
3.0
 40
3.0
 40
4.0
 40
4.0
 40
4.0
 40
5.0
 40
5.0
 40
5.0
 40
6.0
 40
6.0
 40
6.0
 40
7.0
 40
7.0
 40
7.0
 40
8.0
 40
8.0
 40
8.0
 40
9.0
 40
9.0
 40
9.0
 40
10.0
 40
10.0
 40
10.0
 40
11.0
 40
11.0
 40
11.0
 40
12.0
 40
12.0
 40
12.0
 40
13.0
 40
13.0
 40
13.0
 40
14.0
 40
14.0
 40
14.0
 40
15.0
 40
15.0
 40
15.0
 40
16.0
 40
16.0
 40
16.0
 40
17.0
 40
17.0
 40
17.0
 40
18.0
 40
18.0
 40
18.0
 40
19.0
 40
19.0
 40
19.0
 40
20.0
 40
20.0
 40
20.0
 40
21.0
 40
21.0
 40
21.0
 40
22.0
 40
22.0
 40
22.0
 40
23.0
 40
23.0
 40
23.0
 40
24.0
 40
24.0
 40
24.0
 40
25.0
 40
25.0
 40
25.0
 40
26.0
 40
26.0
 40
26.0
 40
27.0
 40
27.0
 40
27.0
 40
28.0
 40
28.0
 40
28.0
 40
29.0
 40
29.0
 40
29.0
 40
30.0
 40
30.0
 40
30.0
 40
31.0
 40
31.0
 40
31.0
 40
32.0
 40
32.0
 40
32.0
 40
33.0
 40
33.0
 40
33.0
 40
34.0
 40
34.0
 40
34.0
 40
35.0
 40
35.0
 40
35.0
 40
36.0
 40
36.0
 40
36.0
 40
37.0
 40
37.0
 40
37.0
 40
38.0
 40
38.0
 40
38.0
 40
38.0
 10
1133.74847820984
 20
-1948.82908632283
 30
0.0
 10
1134.652213984937
 20
-1948.941668000129
 30
0.0
 10
1135.549745894439
 20
-1949.118952121635
 30
0.0
 10
1136.433269872646
 20
-1949.33878071166
 30
0.0
 10
1136.883590819294
 20
-1949.450824551105
 30
0.0
 10
1137.33077842311
 20
-1949.575460615232
 30
0.0
 10
1137.774050462215
 20
-1949.712782925087
 30
0.0
 10
1137.982638641836
 20
-1949.777401958339
 30
0.0
 10
1138.190390620324
 20
-1949.84480726975
 30
0.0
 10
1138.397181102373
 20
-1949.914966772104
 30
0.0
 10
1138.526433874079
 20
-1949.958819419725
 30
0.0
 10
1138.655266398176
 20
-1950.003875880135
 30
0.0
 10
1138.783766754221
 20
-1950.049880441192
 30
0.0
 10
1138.835228490406
 20
-1950.068110287229
 30
0.0
 10
1138.886565988856
 20
-1950.086683533365
 30
0.0
 10
1138.937779249572
 20
-1950.105600179598
 30
0.0
 10
1139.16517403147
 20
-1950.201564569317
 30
0.0
 10
1139.075107291269
 20
-1950.089913008274
 30
0.0
 10
1138.667579028969
 20
-1949.770645496472
 30
0.0
 10
1138.667579028969
 20
-1949.575265688935
 30
0.0
 10
1138.667579028969
 20
-1949.3798858814
 30
0.0
 10
1138.667579028969
 20
-1949.184506073864
 30
0.0
 10
1138.705874666495
 20
-1948.939338262155
 30
0.0
 10
1138.950723650759
 20
-1949.008174351326
 30
0.0
 10
1138.704782183871
 20
-1949.08142995049
 30
0.0
 10
1138.591427071467
 20
-1949.115193661761
 30
0.0
 10
1138.479100578436
 20
-1949.196423038427
 30
0.0
 10
1138.372348770351
 20
-1949.247087847499
 30
0.0
 10
1138.166435206668
 20
-1949.344815198226
 30
0.0
 10
1137.958460079881
 20
-1949.431023368296
 30
0.0
 10
1137.745675030295
 20
-1949.512308653788
 30
0.0
 10
1137.25756894685
 20
-1949.698768381199
 30
0.0
 10
1136.760833332803
 20
-1949.861505307465
 30
0.0
 10
1136.26616852955
 20
-1950.029405569202
 30
0.0
 10
1135.21870517828
 20
-1950.38493798162
 30
0.0
 10
1134.166400121377
 20
-1950.769741592959
 30
0.0
 10
1133.227323014542
 20
-1951.363506404025
 30
0.0
 10
1132.39188227979
 20
-1951.891743442727
 30
0.0
 10
1132.599544857827
 20
-1953.062139531564
 30
0.0
 10
1133.490671113909
 20
-1953.378473541325
 30
0.0
 10
1135.18240369881
 20
-1953.979008592755
 30
0.0
 10
1136.874136285893
 20
-1954.579543638039
 30
0.0
 10
1138.565868873423
 20
-1955.180078682067
 30
0.0
 10
1138.961886490309
 20
-1955.320657907616
 30
0.0
 10
1139.377213505897
 20
-1955.438349209888
 30
0.0
 10
1139.761296760764
 20
-1955.609263238867
 30
0.0
 10
1139.636027319467
 20
-1955.553519322285
 30
0.0
 10
1139.978208738138
 20
-1955.742434445372
 30
0.0
 10
1140.015712267903
 20
-1955.76053525773
 30
0.0
 10
1139.944875228218
 20
-1955.698005748969
 30
0.0
 10
1139.956691423307
 20
-1955.710001179118
 30
0.0
 10
1140.05116085317
 20
-1955.796521548177
 30
0.0
 10
1139.994218972291
 20
-1955.707592929515
 30
0.0
 10
1139.998440784813
 20
-1955.717871684505
 30
0.0
 10
1140.063826290737
 20
-1955.827357813148
 30
0.0
 10
1139.996457615483
 20
-1955.74778648589
 30
0.0
 10
1139.979457328759
 20
-1955.652283934255
 30
0.0
 10
1140.012825430568
 20
-1955.540850158239
 30
0.0
 10
1140.062057283246
 20
-1955.489609487526
 30
0.0
 10
1140.046966526075
 20
-1955.521960858161
 30
0.0
 10
1139.967553159055
 20
-1955.637904270144
 30
0.0
 10
1139.875841367778
 20
-1955.70767897567
 30
0.0
 10
1139.792242340069
 20
-1955.852931545895
 30
0.0
 10
1139.697546486984
 20
-1955.9444295099
 30
0.0
 10
1139.472246449924
 20
-1956.162121140626
 30
0.0
 10
1139.217836772516
 20
-1956.331035084536
 30
0.0
 10
1138.951103324133
 20
-1956.495870050614
 30
0.0
 10
1137.445641599083
 20
-1957.426209810707
 30
0.0
 10
1135.880829785439
 20
-1958.270706323412
 30
0.0
 10
1134.346921303956
 20
-1959.153349443267
 30
0.0
 10
1132.742761680463
 20
-1960.076416544023
 30
0.0
 10
1131.138602048932
 20
-1960.999483630811
 30
0.0
 10
1129.534442417409
 20
-1961.92255071761
 30
0.0
 10
1128.304879143573
 20
-1962.630067205939
 30
0.0
 10
1129.41404443269
 20
-1964.536012125849
 30
0.0
 10
1130.647278038749
 20
-1963.826383651401
 30
0.0
 10
1133.473654554074
 20
-1962.200027343132
 30
0.0
 10
1136.300031069408
 20
-1960.573671034881
 30
0.0
 10
1139.126407540824
 20
-1958.947314650306
 30
0.0
 10
1140.331391341335
 20
-1958.253941662987
 30
0.0
 10
1141.99332071405
 20
-1957.397578789317
 30
0.0
 10
1142.180111408773
 20
-1955.853076386389
 30
0.0
 10
1142.391730745713
 20
-1954.103275225829
 30
0.0
 10
1140.528321036195
 20
-1953.542543937449
 30
0.0
 10
1139.233866324361
 20
-1953.083035488512
 30
0.0
 10
1137.514847727375
 20
-1952.472814395435
 30
0.0
 10
1135.795829130819
 20
-1951.86259330115
 30
0.0
 10
1134.076810536517
 20
-1951.252372200515
 30
0.0
 10
1134.164593236305
 20
-1951.924027912949
 30
0.0
 10
1134.252375936094
 20
-1952.595683625382
 30
0.0
 10
1134.340158635883
 20
-1953.267339337816
 30
0.0
 10
1135.317567876586
 20
-1952.649337675422
 30
0.0
 10
1136.402817419934
 20
-1952.311725686686
 30
0.0
 10
1137.488965221187
 20
-1951.939977889737
 30
0.0
 10
1138.096356756082
 20
-1951.732090468962
 30
0.0
 10
1138.696762277133
 20
-1951.507031708827
 30
0.0
 10
1139.282911097177
 20
-1951.244384836887
 30
0.0
 10
1139.912576552664
 20
-1950.962238636815
 30
0.0
 10
1140.566681297557
 20
-1950.593932979037
 30
0.0
 10
1140.776089420963
 20
-1949.883262355876
 30
0.0
 10
1141.27935863354
 20
-1948.175312162239
 30
0.0
 10
1138.884777538386
 20
-1947.724949030839
 30
0.0
 10
1137.73189174651
 20
-1947.401173984128
 30
0.0
 10
1136.424993667374
 20
-1947.034146313563
 30
0.0
 10
1135.094629564195
 20
-1946.791920219536
 30
0.0
 10
1133.74847820984
 20
-1946.62422521227
 30
0.0
 10
1133.156656145732
 20
-1946.550499768976
 30
0.0
 10
1132.64604765456
 20
-1947.183685796937
 30
0.0
 10
1132.64604765456
 20
-1947.72665576755
 30
0.0
 10
1132.64604765456
 20
-1948.383707488914
 30
0.0
 10
1133.154915049393
 20
-1948.755143984784
 30
0.0
 10
1133.74847820984
 20
-1948.82908632283
 30
0.0
 10
1133.74847820984
 20
-1948.82908632283
 30
0.0
 10
1133.74847820984
 20
-1948.82908632283
 30
0.0
 10
1133.74847820984
 20
-1948.82908632283
 30
0.0
  0
HATCH
  5
8C
330
70
100
AcDbEntity
  8
2023-003
 62
    18
420
        0
440
 33554687
100
AcDbHatch
 10
0.0
 20
0.0
 30
0.0
210
0.0
220
0.0
230
1.0
  2
SOLID
 70
     1
 71
     1
 91
        1
 92
        1
 93
        1
 72
     4
 94
        3
 73
     0
 74
     0
 95
      119
 96
      115
 40
0.0
 40
0.0
 40
0.0
 40
0.0
 40
1.0
 40
1.0
 40
1.0
 40
2.0
 40
2.0
 40
2.0
 40
3.0
 40
3.0
 40
3.0
 40
4.0
 40
4.0
 40
4.0
 40
5.0
 40
5.0
 40
5.0
 40
6.0
 40
6.0
 40
6.0
 40
7.0
 40
7.0
 40
7.0
 40
8.0
 40
8.0
 40
8.0
 40
9.0
 40
9.0
 40
9.0
 40
10.0
 40
10.0
 40
10.0
 40
11.0
 40
11.0
 40
11.0
 40
12.0
 40
12.0
 40
12.0
 40
13.0
 40
13.0
 40
13.0
 40
14.0
 40
14.0
 40
14.0
 40
15.0
 40
15.0
 40
15.0
 40
16.0
 40
16.0
 40
16.0
 40
17.0
 40
17.0
 40
17.0
 40
18.0
 40
18.0
 40
18.0
 40
19.0
 40
19.0
 40
19.0
 40
20.0
 40
20.0
 40
20.0
 40
21.0
 40
21.0
 40
21.0
 40
22.0
 40
22.0
 40
22.0
 40
23.0
 40
23.0
 40
23.0
 40
24.0
 40
24.0
 40
24.0
 40
25.0
 40
25.0
 40
25.0
 40
26.0
 40
26.0
 40
26.0
 40
27.0
 40
27.0
 40
27.0
 40
28.0
 40
28.0
 40
28.0
 40
29.0
 40
29.0
 40
29.0
 40
30.0
 40
30.0
 40
30.0
 40
31.0
 40
31.0
 40
31.0
 40
32.0
 40
32.0
 40
32.0
 40
33.0
 40
33.0
 40
33.0
 40
34.0
 40
34.0
 40
34.0
 40
35.0
 40
35.0
 40
35.0
 40
36.0
 40
36.0
 40
36.0
 40
37.0
 40
37.0
 40
37.0
 40
38.0
 40
38.0
 40
38.0
 40
38.0
 10
1133.74847820984
 20
-1948.82908632283
 10
1134.652213984937
 20
-1948.941668000129
 10
1135.549745894439
 20
-1949.118952121635
 10
1136.433269872646
 20
-1949.33878071166
 10
1136.883590819294
 20
-1949.450824551105
 10
1137.33077842311
 20
-1949.575460615232
 10
1137.774050462215
 20
-1949.712782925087
 10
1137.982638641836
 20
-1949.777401958339
 10
1138.190390620324
 20
-1949.84480726975
 10
1138.397181102373
 20
-1949.914966772104
 10
1138.526433874079
 20
-1949.958819419725
 10
1138.655266398176
 20
-1950.003875880135
 10
1138.783766754221
 20
-1950.049880441192
 10
1138.835228490406
 20
-1950.068110287229
 10
1138.886565988856
 20
-1950.086683533365
 10
1138.937779249572
 20
-1950.105600179598
 10
1139.16517403147
 20
-1950.201564569317
 10
1139.075107291269
 20
-1950.089913008274
 10
1138.667579028969
 20
-1949.770645496472
 10
1138.667579028969
 20
-1949.575265688935
 10
1138.667579028969
 20
-1949.3798858814
 10
1138.667579028969
 20
-1949.184506073864
 10
1138.705874666495
 20
-1948.939338262155
 10
1138.950723650759
 20
-1949.008174351326
 10
1138.704782183871
 20
-1949.08142995049
 10
1138.591427071467
 20
-1949.115193661761
 10
1138.479100578436
 20
-1949.196423038427
 10
1138.372348770351
 20
-1949.247087847499
 10
1138.166435206668
 20
-1949.344815198226
 10
1137.958460079881
 20
-1949.431023368296
 10
1137.745675030295
 20
-1949.512308653788
 10
1137.25756894685
 20
-1949.698768381199
 10
1136.760833332803
 20
-1949.861505307465
 10
1136.26616852955
 20
-1950.029405569202
 10
1135.21870517828
 20
-1950.38493798162
 10
1134.166400121377
 20
-1950.769741592959
 10
1133.227323014542
 20
-1951.363506404025
 10
1132.39188227979
 20
-1951.891743442727
 10
1132.599544857827
 20
-1953.062139531564
 10
1133.490671113909
 20
-1953.378473541325
 10
1135.18240369881
 20
-1953.979008592755
 10
1136.874136285893
 20
-1954.579543638039
 10
1138.565868873423
 20
-1955.180078682067
 10
1138.961886490309
 20
-1955.320657907616
 10
1139.377213505897
 20
-1955.438349209888
 10
1139.761296760764
 20
-1955.609263238867
 10
1139.636027319467
 20
-1955.553519322285
 10
1139.978208738138
 20
-1955.742434445372
 10
1140.015712267903
 20
-1955.76053525773
 10
1139.944875228218
 20
-1955.698005748969
 10
1139.956691423307
 20
-1955.710001179118
 10
1140.05116085317
 20
-1955.796521548177
 10
1139.994218972291
 20
-1955.707592929515
 10
1139.998440784813
 20
-1955.717871684505
 10
1140.063826290737
 20
-1955.827357813148
 10
1139.996457615483
 20
-1955.74778648589
 10
1139.979457328759
 20
-1955.652283934255
 10
1140.012825430568
 20
-1955.540850158239
 10
1140.062057283246
 20
-1955.489609487526
 10
1140.046966526075
 20
-1955.521960858161
 10
1139.967553159055
 20
-1955.637904270144
 10
1139.875841367778
 20
-1955.70767897567
 10
1139.792242340069
 20
-1955.852931545895
 10
1139.697546486984
 20
-1955.9444295099
 10
1139.472246449924
 20
-1956.162121140626
 10
1139.217836772516
 20
-1956.331035084536
 10
1138.951103324133
 20
-1956.495870050614
 10
1137.445641599083
 20
-1957.426209810707
 10
1135.880829785439
 20
-1958.270706323412
 10
1134.346921303956
 20
-1959.153349443267
 10
1132.742761680463
 20
-1960.076416544023
 10
1131.138602048932
 20
-1960.999483630811
 10
1129.534442417409
 20
-1961.92255071761
 10
1128.304879143573
 20
-1962.630067205939
 10
1129.41404443269
 20
-1964.536012125849
 10
1130.647278038749
 20
-1963.826383651401
 10
1133.473654554074
 20
-1962.200027343132
 10
1136.300031069408
 20
-1960.573671034881
 10
1139.126407540824
 20
-1958.947314650306
 10
1140.331391341335
 20
-1958.253941662987
 10
1141.99332071405
 20
-1957.397578789317
 10
1142.180111408773
 20
-1955.853076386389
 10
1142.391730745713
 20
-1954.103275225829
 10
1140.528321036195
 20
-1953.542543937449
 10
1139.233866324361
 20
-1953.083035488512
 10
1137.514847727375
 20
-1952.472814395435
 10
1135.795829130819
 20
-1951.86259330115
 10
1134.076810536517
 20
-1951.252372200515
 10
1134.164593236305
 20
-1951.924027912949
 10
1134.252375936094
 20
-1952.595683625382
 10
1134.340158635883
 20
-1953.267339337816
 10
1135.317567876586
 20
-1952.649337675422
 10
1136.402817419934
 20
-1952.311725686686
 10
1137.488965221187
 20
-1951.939977889737
 10
1138.096356756082
 20
-1951.732090468962
 10
1138.696762277133
 20
-1951.507031708827
 10
1139.282911097177
 20
-1951.244384836887
 10
1139.912576552664
 20
-1950.962238636815
 10
1140.566681297557
 20
-1950.593932979037
 10
1140.776089420963
 20
-1949.883262355876
 10
1141.27935863354
 20
-1948.175312162239
 10
1138.884777538386
 20
-1947.724949030839
 10
1137.73189174651
 20
-1947.401173984128
 10
1136.424993667374
 20
-1947.034146313563
 10
1135.094629564195
 20
-1946.791920219536
 10
1133.74847820984
 20
-1946.62422521227
 10
1133.156656145732
 20
-1946.550499768976
 10
1132.64604765456
 20
-1947.183685796937
 10
1132.64604765456
 20
-1947.72665576755
 10
1132.64604765456
 20
-1948.383707488914
 10
1133.154915049393
 20
-1948.755143984784
 10
1133.74847820984
 20
-1948.82908632283
 10
1133.74847820984
 20
-1948.82908632283
 10
1133.74847820984
 20
-1948.82908632283
 10
1133.74847820984
 20
-1948.82908632283
 97
        0
 97
        1
330
8B
 75
     2
 76
     1
 98
        1
 10
0.0
 20
0.0
450
        0
451
        0
460
0.0
461
0.0
452
        0
462
0.0
453
        0
470

  0
SPLINE
  5
8D
330
70
100
AcDbEntity
  8
2023-003
100
AcDbSpline
210
0.0
220
0.0
230
1.0
 70
     9
 71
     3
 72
   137
 73
   133
 74
     0
 42
0.0000000001
 43
0.0000000001
 40
0.0
 40
0.0
 40
0.0
 40
0.0
 40
1.0
 40
1.0
 40
1.0
 40
2.0
 40
2.0
 40
2.0
 40
3.0
 40
3.0
 40
3.0
 40
4.0
 40
4.0
 40
4.0
 40
5.0
 40
5.0
 40
5.0
 40
6.0
 40
6.0
 40
6.0
 40
7.0
 40
7.0
 40
7.0
 40
8.0
 40
8.0
 40
8.0
 40
9.0
 40
9.0
 40
9.0
 40
10.0
 40
10.0
 40
10.0
 40
11.0
 40
11.0
 40
11.0
 40
12.0
 40
12.0
 40
12.0
 40
13.0
 40
13.0
 40
13.0
 40
14.0
 40
14.0
 40
14.0
 40
15.0
 40
15.0
 40
15.0
 40
16.0
 40
16.0
 40
16.0
 40
17.0
 40
17.0
 40
17.0
 40
18.0
 40
18.0
 40
18.0
 40
19.0
 40
19.0
 40
19.0
 40
20.0
 40
20.0
 40
20.0
 40
21.0
 40
21.0
 40
21.0
 40
22.0
 40
22.0
 40
22.0
 40
23.0
 40
23.0
 40
23.0
 40
24.0
 40
24.0
 40
24.0
 40
25.0
 40
25.0
 40
25.0
 40
26.0
 40
26.0
 40
26.0
 40
27.0
 40
27.0
 40
27.0
 40
28.0
 40
28.0
 40
28.0
 40
29.0
 40
29.0
 40
29.0
 40
30.0
 40
30.0
 40
30.0
 40
31.0
 40
31.0
 40
31.0
 40
32.0
 40
32.0
 40
32.0
 40
33.0
 40
33.0
 40
33.0
 40
34.0
 40
34.0
 40
34.0
 40
35.0
 40
35.0
 40
35.0
 40
36.0
 40
36.0
 40
36.0
 40
37.0
 40
37.0
 40
37.0
 40
38.0
 40
38.0
 40
38.0
 40
39.0
 40
39.0
 40
39.0
 40
40.0
 40
40.0
 40
40.0
 40
41.0
 40
41.0
 40
41.0
 40
42.0
 40
42.0
 40
42.0
 40
43.0
 40
43.0
 40
43.0
 40
44.0
 40
44.0
 40
44.0
 40
44.0
 10
727.8027762394903
 20
-1940.361665367774
 30
0.0
 10
723.3660961461984
 20
-1894.847992147816
 30
0.0
 10
718.7163368971438
 20
-1849.355506265091
 30
0.0
 10
714.2609671608445
 20
-1803.843900102424
 30
0.0
 10
712.2262076398688
 20
-1783.058777766041
 30
0.0
 10
710.6443059204292
 20
-1762.227663404929
 30
0.0
 10
708.4805275735309
 20
-1741.457182724358
 30
0.0
 10
706.0034177922491
 20
-1717.678444666066
 30
0.0
 10
702.9584270839174
 20
-1693.959651269218
 30
0.0
 10
700.4450576726535
 20
-1670.184358306412
 30
0.0
 10
698.6449522179169
 20
-1653.156629361016
 30
0.0
 10
697.5516081019793
 20
-1636.053280569719
 30
0.0
 10
695.7184297305842
 20
-1619.029685738906
 30
0.0
 10
692.7614181482072
 20
-1591.570552173722
 30
0.0
 10
689.3969378973122
 20
-1564.155515830749
 30
0.0
 10
686.3122855272067
 20
-1536.709818137958
 30
0.0
 10
683.2992911431943
 20
-1509.901635364712
 30
0.0
 10
680.5473488695767
 20
-1483.064686044165
 30
0.0
 10
677.4505525378856
 20
-1456.266494047826
 30
0.0
 10
673.9494742510005
 20
-1425.970065968377
 30
0.0
 10
669.9767623921847
 20
-1395.72703686895
 30
0.0
 10
666.6174497845176
 20
-1365.415881006302
 30
0.0
 10
664.1598047927274
 20
-1343.239715240362
 30
0.0
 10
662.4661958521786
 20
-1320.979575271969
 30
0.0
 10
660.2419130158206
 20
-1298.775848742146
 30
0.0
 10
657.7677315657012
 20
-1274.077614698841
 30
0.0
 10
654.8482715241134
 20
-1249.422444349103
 30
0.0
 10
652.5625798607308
 20
-1224.707587720082
 30
0.0
 10
651.0311487901502
 20
-1208.14778886897
 30
0.0
 10
650.4249411758268
 20
-1191.504877089276
 30
0.0
 10
649.1211878531276
 20
-1174.921565461478
 30
0.0
 10
647.1007254784158
 20
-1149.22218667016
 30
0.0
 10
644.6918285877419
 20
-1123.553383101273
 30
0.0
 10
642.714688288757
 20
-1097.850989851405
 30
0.0
 10
640.0341456190714
 20
-1063.004365782426
 30
0.0
 10
637.5110438130615
 20
-1028.144994860151
 30
0.0
 10
635.0944385212394
 20
-993.2790782564545
 30
0.0
 10
632.3514104321899
 20
-953.7030271053243
 30
0.0
 10
629.783005620549
 20
-914.1144874830599
 30
0.0
 10
627.1726998350687
 20
-874.5293068288937
 30
0.0
 10
625.581797803674
 20
-850.4037337826249
 30
0.0
 10
624.0818032293962
 20
-826.2725624561923
 30
0.0
 10
622.4929682552925
 20
-802.1469032825361
 30
0.0
 10
620.3334532140573
 20
-769.3540728870885
 30
0.0
 10
618.1577892877348
 20
-736.562017638125
 30
0.0
 10
615.9320853494892
 20
-703.7736658668083
 30
0.0
 10
614.3898022281299
 20
-681.05283050465
 30
0.0
 10
613.0316163967639
 20
-658.3145974102912
 30
0.0
 10
611.0899175175834
 20
-635.6270072195655
 30
0.0
 10
608.2298423094226
 20
-602.2090642483192
 30
0.0
 10
604.8105419766185
 20
-568.8394387412537
 30
0.0
 10
601.8431089803986
 20
-535.4302807634949
 30
0.0
 10
599.5369620625723
 20
-509.4674813586357
 30
0.0
 10
597.3453645696306
 20
-483.4907293170614
 30
0.0
 10
595.4790702178837
 20
-457.4931775114947
 30
0.0
 10
592.2014925006042
 20
-411.834896408543
 30
0.0
 10
589.261835586734
 20
-366.1526718919688
 30
0.0
 10
586.0827445366391
 20
-320.4871776203448
 30
0.0
 10
584.1752812938433
 20
-293.0873212293541
 30
0.0
 10
582.0316567555336
 20
-265.7043242743942
 30
0.0
 10
580.0841442777221
 20
-238.3072239597917
 30
0.0
 10
576.8557022348009
 20
-192.8908962191384
 30
0.0
 10
573.5342426137779
 20
-147.4799083764872
 30
0.0
 10
570.585240878404
 20
-102.0449986520604
 30
0.0
 10
569.1704693536926
 20
-80.24721202963439
 30
0.0
 10
568.9743142295013
 20
-58.36743213465944
 30
0.0
 10
567.4281123120275
 20
-36.58153109165757
 30
0.0
 10
567.2720925502393
 20
-34.38334485360035
 30
0.0
 10
567.1193025654685
 20
-32.18470644676069
 30
0.0
 10
566.9661680711491
 20
-29.98611110361459
 30
0.0
 10
566.9661680711491
 20
-29.98611110361459
 30
0.0
 10
516.9992782995696
 20
-29.98611110361459
 30
0.0
 10
516.9992782995696
 20
-29.98611110361459
 30
0.0
 10
517.3749659622361
 20
-35.55039248107551
 30
0.0
 10
517.7528068095808
 20
-41.11428628529434
 30
0.0
 10
518.137451720509
 20
-46.67716809271438
 30
0.0
 10
521.2317503579733
 20
-91.42669760219758
 30
0.0
 10
523.5788077846868
 20
-136.227559034411
 30
0.0
 10
526.3719189493532
 20
-180.9984696677495
 30
0.0
 10
528.287994930862
 20
-211.7120988104618
 30
0.0
 10
530.1972668487875
 20
-242.4284840295622
 30
0.0
 10
532.4853270153162
 20
-273.1156074688847
 30
0.0
 10
534.860806479783
 20
-304.9764964718787
 30
0.0
 10
537.8721213797464
 20
-336.789670902402
 30
0.0
 10
540.2740419520625
 20
-368.6486435710323
 30
0.0
 10
543.4881007213329
 20
-411.2797192710949
 30
0.0
 10
546.1129189715446
 20
-453.9565286137245
 30
0.0
 10
549.514347871519
 20
-496.5717568745549
 30
0.0
 10
551.6437613909519
 20
-523.2502318027811
 30
0.0
 10
555.1522466331304
 20
-549.8181622296244
 30
0.0
 10
557.3001344771029
 20
-576.4954744381244
 30
0.0
 10
560.6167709644465
 20
-617.6899453208379
 30
0.0
 10
563.326381627289
 20
-658.9335088142163
 30
0.0
 10
566.2421812549238
 20
-700.1600621486362
 30
0.0
 10
569.9513433091181
 20
-752.6055689307723
 30
0.0
 10
573.7727724124379
 20
-805.0439702034699
 30
0.0
 10
577.2309161968381
 20
-857.5063148897902
 30
0.0
 10
579.454811459954
 20
-891.243704339906
 30
0.0
 10
580.8011978392832
 20
-925.0398326680455
 30
0.0
 10
583.1129861009666
 20
-958.7704180545783
 30
0.0
 10
585.3125934409113
 20
-990.8642385760687
 30
0.0
 10
588.323391576552
 20
-1022.901817913762
 30
0.0
 10
590.8502829875955
 20
-1054.974192715857
 30
0.0
 10
592.971815851106
 20
-1081.900628391634
 30
0.0
 10
594.8536561962302
 20
-1108.846184347354
 30
0.0
 10
596.9427190347921
 20
-1135.775289972132
 30
0.0
 10
600.1939417716094
 20
-1177.684704295422
 30
0.0
 10
603.1787294363364
 20
-1219.619612325303
 30
0.0
 10
606.9303092286927
 20
-1261.484671044221
 30
0.0
 10
610.6797789000644
 20
-1303.326647623387
 30
0.0
 10
615.0544042109283
 20
-1345.115397477306
 30
0.0
 10
619.4856152151372
 20
-1386.892520133963
 30
0.0
 10
623.5945806003948
 20
-1425.630810190467
 30
0.0
 10
628.1896489586209
 20
-1464.317165432532
 30
0.0
 10
632.481376659371
 20
-1503.03642133648
 30
0.0
 10
638.1963163687712
 20
-1554.596581642601
 30
0.0
 10
643.8975618236177
 20
-1606.158119986915
 30
0.0
 10
649.4666448029111
 20
-1657.734127732268
 30
0.0
 10
653.6748289381438
 20
-1696.707459428253
 30
0.0
 10
657.8359875200028
 20
-1735.687164550887
 30
0.0
 10
661.7141315077486
 20
-1774.694085927854
 30
0.0
 10
667.1264195787696
 20
-1829.130728709384
 30
0.0
 10
672.452321880498
 20
-1883.578223541692
 30
0.0
 10
677.4406478883655
 20
-1938.054829430851
 30
0.0
 10
678.4125954521416
 20
-1948.66934087568
 30
0.0
 10
679.3269668576205
 20
-1959.289019963737
 30
0.0
 10
680.2155000469601
 20
-1969.911110618633
 30
0.0
 10
680.2155000469601
 20
-1969.911110618633
 30
0.0
 10
730.6499754032749
 20
-1969.911110618633
 30
0.0
 10
730.6499754032749
 20
-1969.911110618633
 30
0.0
 10
729.7101533548989
 20
-1960.060376842884
 30
0.0
 10
728.7629243512294
 20
-1950.210332086232
 30
0.0
 10
727.8027762394903
 20
-1940.361665367774
 30
0.0
  0
HATCH
  5
8E
330
70
100
AcDbEntity
  8
2023-003
 62
    18
420
        0
440
 33554687
100
AcDbHatch
 10
0.0
 20
0.0
 30
0.0
210
0.0
220
0.0
230
1.0
  2
SOLID
 70
     1
 71
     1
 91
        1
 92
        1
 93
        1
 72
     4
 94
        3
 73
     0
 74
     0
 95
      137
 96
      133
 40
0.0
 40
0.0
 40
0.0
 40
0.0
 40
1.0
 40
1.0
 40
1.0
 40
2.0
 40
2.0
 40
2.0
 40
3.0
 40
3.0
 40
3.0
 40
4.0
 40
4.0
 40
4.0
 40
5.0
 40
5.0
 40
5.0
 40
6.0
 40
6.0
 40
6.0
 40
7.0
 40
7.0
 40
7.0
 40
8.0
 40
8.0
 40
8.0
 40
9.0
 40
9.0
 40
9.0
 40
10.0
 40
10.0
 40
10.0
 40
11.0
 40
11.0
 40
11.0
 40
12.0
 40
12.0
 40
12.0
 40
13.0
 40
13.0
 40
13.0
 40
14.0
 40
14.0
 40
14.0
 40
15.0
 40
15.0
 40
15.0
 40
16.0
 40
16.0
 40
16.0
 40
17.0
 40
17.0
 40
17.0
 40
18.0
 40
18.0
 40
18.0
 40
19.0
 40
19.0
 40
19.0
 40
20.0
 40
20.0
 40
20.0
 40
21.0
 40
21.0
 40
21.0
 40
22.0
 40
22.0
 40
22.0
 40
23.0
 40
23.0
 40
23.0
 40
24.0
 40
24.0
 40
24.0
 40
25.0
 40
25.0
 40
25.0
 40
26.0
 40
26.0
 40
26.0
 40
27.0
 40
27.0
 40
27.0
 40
28.0
 40
28.0
 40
28.0
 40
29.0
 40
29.0
 40
29.0
 40
30.0
 40
30.0
 40
30.0
 40
31.0
 40
31.0
 40
31.0
 40
32.0
 40
32.0
 40
32.0
 40
33.0
 40
33.0
 40
33.0
 40
34.0
 40
34.0
 40
34.0
 40
35.0
 40
35.0
 40
35.0
 40
36.0
 40
36.0
 40
36.0
 40
37.0
 40
37.0
 40
37.0
 40
38.0
 40
38.0
 40
38.0
 40
39.0
 40
39.0
 40
39.0
 40
40.0
 40
40.0
 40
40.0
 40
41.0
 40
41.0
 40
41.0
 40
42.0
 40
42.0
 40
42.0
 40
43.0
 40
43.0
 40
43.0
 40
44.0
 40
44.0
 40
44.0
 40
44.0
 10
727.8027762394903
 20
-1940.361665367774
 10
723.3660961461984
 20
-1894.847992147816
 10
718.7163368971438
 20
-1849.355506265091
 10
714.2609671608445
 20
-1803.843900102424
 10
712.2262076398688
 20
-1783.058777766041
 10
710.6443059204292
 20
-1762.227663404929
 10
708.4805275735309
 20
-1741.457182724358
 10
706.0034177922491
 20
-1717.678444666066
 10
702.9584270839174
 20
-1693.959651269218
 10
700.4450576726535
 20
-1670.184358306412
 10
698.6449522179169
 20
-1653.156629361016
 10
697.5516081019793
 20
-1636.053280569719
 10
695.7184297305842
 20
-1619.029685738906
 10
692.7614181482072
 20
-1591.570552173722
 10
689.3969378973122
 20
-1564.155515830749
 10
686.3122855272067
 20
-1536.709818137958
 10
683.2992911431943
 20
-1509.901635364712
 10
680.5473488695767
 20
-1483.064686044165
 10
677.4505525378856
 20
-1456.266494047826
 10
673.9494742510005
 20
-1425.970065968377
 10
669.9767623921847
 20
-1395.72703686895
 10
666.6174497845176
 20
-1365.415881006302
 10
664.1598047927274
 20
-1343.239715240362
 10
662.4661958521786
 20
-1320.979575271969
 10
660.2419130158206
 20
-1298.775848742146
 10
657.7677315657012
 20
-1274.077614698841
 10
654.8482715241134
 20
-1249.422444349103
 10
652.5625798607308
 20
-1224.707587720082
 10
651.0311487901502
 20
-1208.14778886897
 10
650.4249411758268
 20
-1191.504877089276
 10
649.1211878531276
 20
-1174.921565461478
 10
647.1007254784158
 20
-1149.22218667016
 10
644.6918285877419
 20
-1123.553383101273
 10
642.714688288757
 20
-1097.850989851405
 10
640.0341456190714
 20
-1063.004365782426
 10
637.5110438130615
 20
-1028.144994860151
 10
635.0944385212394
 20
-993.2790782564545
 10
632.3514104321899
 20
-953.7030271053243
 10
629.783005620549
 20
-914.1144874830599
 10
627.1726998350687
 20
-874.5293068288937
 10
625.581797803674
 20
-850.4037337826249
 10
624.0818032293962
 20
-826.2725624561923
 10
622.4929682552925
 20
-802.1469032825361
 10
620.3334532140573
 20
-769.3540728870885
 10
618.1577892877348
 20
-736.562017638125
 10
615.9320853494892
 20
-703.7736658668083
 10
614.3898022281299
 20
-681.05283050465
 10
613.0316163967639
 20
-658.3145974102912
 10
611.0899175175834
 20
-635.6270072195655
 10
608.2298423094226
 20
-602.2090642483192
 10
604.8105419766185
 20
-568.8394387412537
 10
601.8431089803986
 20
-535.4302807634949
 10
599.5369620625723
 20
-509.4674813586357
 10
597.3453645696306
 20
-483.4907293170614
 10
595.4790702178837
 20
-457.4931775114947
 10
592.2014925006042
 20
-411.834896408543
 10
589.261835586734
 20
-366.1526718919688
 10
586.0827445366391
 20
-320.4871776203448
 10
584.1752812938433
 20
-293.0873212293541
 10
582.0316567555336
 20
-265.7043242743942
 10
580.0841442777221
 20
-238.3072239597917
 10
576.8557022348009
 20
-192.8908962191384
 10
573.5342426137779
 20
-147.4799083764872
 10
570.585240878404
 20
-102.0449986520604
 10
569.1704693536926
 20
-80.24721202963439
 10
568.9743142295013
 20
-58.36743213465944
 10
567.4281123120275
 20
-36.58153109165757
 10
567.2720925502393
 20
-34.38334485360035
 10
567.1193025654685
 20
-32.18470644676069
 10
566.9661680711491
 20
-29.98611110361459
 10
566.9661680711491
 20
-29.98611110361459
 10
516.9992782995696
 20
-29.98611110361459
 10
516.9992782995696
 20
-29.98611110361459
 10
517.3749659622361
 20
-35.55039248107551
 10
517.7528068095808
 20
-41.11428628529434
 10
518.137451720509
 20
-46.67716809271438
 10
521.2317503579733
 20
-91.42669760219758
 10
523.5788077846868
 20
-136.227559034411
 10
526.3719189493532
 20
-180.9984696677495
 10
528.287994930862
 20
-211.7120988104618
 10
530.1972668487875
 20
-242.4284840295622
 10
532.4853270153162
 20
-273.1156074688847
 10
534.860806479783
 20
-304.9764964718787
 10
537.8721213797464
 20
-336.789670902402
 10
540.2740419520625
 20
-368.6486435710323
 10
543.4881007213329
 20
-411.2797192710949
 10
546.1129189715446
 20
-453.9565286137245
 10
549.514347871519
 20
-496.5717568745549
 10
551.6437613909519
 20
-523.2502318027811
 10
555.1522466331304
 20
-549.8181622296244
 10
557.3001344771029
 20
-576.4954744381244
 10
560.6167709644465
 20
-617.6899453208379
 10
563.326381627289
 20
-658.9335088142163
 10
566.2421812549238
 20
-700.1600621486362
 10
569.9513433091181
 20
-752.6055689307723
 10
573.7727724124379
 20
-805.0439702034699
 10
577.2309161968381
 20
-857.5063148897902
 10
579.454811459954
 20
-891.243704339906
 10
580.8011978392832
 20
-925.0398326680455
 10
583.1129861009666
 20
-958.7704180545783
 10
585.3125934409113
 20
-990.8642385760687
 10
588.323391576552
 20
-1022.901817913762
 10
590.8502829875955
 20
-1054.974192715857
 10
592.971815851106
 20
-1081.900628391634
 10
594.8536561962302
 20
-1108.846184347354
 10
596.9427190347921
 20
-1135.775289972132
 10
600.1939417716094
 20
-1177.684704295422
 10
603.1787294363364
 20
-1219.619612325303
 10
606.9303092286927
 20
-1261.484671044221
 10
610.6797789000644
 20
-1303.326647623387
 10
615.0544042109283
 20
-1345.115397477306
 10
619.4856152151372
 20
-1386.892520133963
 10
623.5945806003948
 20
-1425.630810190467
 10
628.1896489586209
 20
-1464.317165432532
 10
632.481376659371
 20
-1503.03642133648
 10
638.1963163687712
 20
-1554.596581642601
 10
643.8975618236177
 20
-1606.158119986915
 10
649.4666448029111
 20
-1657.734127732268
 10
653.6748289381438
 20
-1696.707459428253
 10
657.8359875200028
 20
-1735.687164550887
 10
661.7141315077486
 20
-1774.694085927854
 10
667.1264195787696
 20
-1829.130728709384
 10
672.452321880498
 20
-1883.578223541692
 10
677.4406478883655
 20
-1938.054829430851
 10
678.4125954521416
 20
-1948.66934087568
 10
679.3269668576205
 20
-1959.289019963737
 10
680.2155000469601
 20
-1969.911110618633
 10
680.2155000469601
 20
-1969.911110618633
 10
730.6499754032749
 20
-1969.911110618633
 10
730.6499754032749
 20
-1969.911110618633
 10
729.7101533548989
 20
-1960.060376842884
 10
728.7629243512294
 20
-1950.210332086232
 10
727.8027762394903
 20
-1940.361665367774
 97
        0
 97
        1
330
8D
 75
     2
 76
     1
 98
        1
 10
0.0
 20
0.0
450
        0
451
        0
460
0.0
461
0.0
452
        0
462
0.0
453
        0
470

  0
SPLINE
  5
8F
330
70
100
AcDbEntity
  8
2023-003
100
AcDbSpline
210
0.0
220
0.0
230
1.0
 70
     9
 71
     3
 72
   125
 73
   121
 74
     0
 42
0.0000000001
 43
0.0000000001
 40
0.0
 40
0.0
 40
0.0
 40
0.0
 40
1.0
 40
1.0
 40
1.0
 40
2.0
 40
2.0
 40
2.0
 40
3.0
 40
3.0
 40
3.0
 40
4.0
 40
4.0
 40
4.0
 40
5.0
 40
5.0
 40
5.0
 40
6.0
 40
6.0
 40
6.0
 40
7.0
 40
7.0
 40
7.0
 40
8.0
 40
8.0
 40
8.0
 40
9.0
 40
9.0
 40
9.0
 40
10.0
 40
10.0
 40
10.0
 40
11.0
 40
11.0
 40
11.0
 40
12.0
 40
12.0
 40
12.0
 40
13.0
 40
13.0
 40
13.0
 40
14.0
 40
14.0
 40
14.0
 40
15.0
 40
15.0
 40
15.0
 40
16.0
 40
16.0
 40
16.0
 40
17.0
 40
17.0
 40
17.0
 40
18.0
 40
18.0
 40
18.0
 40
19.0
 40
19.0
 40
19.0
 40
20.0
 40
20.0
 40
20.0
 40
21.0
 40
21.0
 40
21.0
 40
22.0
 40
22.0
 40
22.0
 40
23.0
 40
23.0
 40
23.0
 40
24.0
 40
24.0
 40
24.0
 40
25.0
 40
25.0
 40
25.0
 40
26.0
 40
26.0
 40
26.0
 40
27.0
 40
27.0
 40
27.0
 40
28.0
 40
28.0
 40
28.0
 40
29.0
 40
29.0
 40
29.0
 40
30.0
 40
30.0
 40
30.0
 40
31.0
 40
31.0
 40
31.0
 40
32.0
 40
32.0
 40
32.0
 40
33.0
 40
33.0
 40
33.0
 40
34.0
 40
34.0
 40
34.0
 40
35.0
 40
35.0
 40
35.0
 40
36.0
 40
36.0
 40
36.0
 40
37.0
 40
37.0
 40
37.0
 40
38.0
 40
38.0
 40
38.0
 40
39.0
 40
39.0
 40
39.0
 40
40.0
 40
40.0
 40
40.0
 40
40.0
 10
635.5474255138561
 20
-1937.786111983001
 30
0.0
 10
631.1122095861455
 20
-1890.121321142053
 30
0.0
 10
626.976975347813
 20
-1842.426902479931
 30
0.0
 10
622.1818330692809
 20
-1794.798629651127
 30
0.0
 10
618.5872204399712
 20
-1759.09417680632
 30
0.0
 10
613.9984824446992
 20
-1723.49100976878
 30
0.0
 10
610.148243730384
 20
-1687.810844847145
 30
0.0
 10
607.4329917236842
 20
-1662.649245461073
 30
0.0
 10
605.3634798020011
 20
-1637.417882891426
 30
0.0
 10
602.7337092270292
 20
-1612.246464983223
 30
0.0
 10
599.6908286396823
 20
-1583.120594222275
 30
0.0
 10
596.3409469809061
 20
-1554.026935104115
 30
0.0
 10
593.1407977846574
 20
-1524.917428546722
 30
0.0
 10
590.1935185970264
 20
-1498.108901263927
 30
0.0
 10
587.4456673742975
 20
-1471.276947331833
 30
0.0
 10
584.2784188399329
 20
-1444.494688902114
 30
0.0
 10
581.6057568261697
 20
-1421.894259627165
 30
0.0
 10
577.9567116881931
 20
-1399.400886694421
 30
0.0
 10
575.6361814967159
 20
-1376.768418031459
 30
0.0
 10
572.0696463956111
 20
-1341.982686025181
 30
0.0
 10
568.9764674141795
 20
-1307.141401854204
 30
0.0
 10
566.2210800450767
 20
-1272.28082514851
 30
0.0
 10
562.7063075036377
 20
-1227.81316904526
 30
0.0
 10
559.8616060340797
 20
-1183.293147490635
 30
0.0
 10
556.469737274077
 20
-1138.815242228317
 30
0.0
 10
554.2935565834318
 20
-1110.278655050121
 30
0.0
 10
551.7209315298215
 20
-1081.77135118355
 30
0.0
 10
549.1998106537156
 20
-1053.262238641849
 30
0.0
 10
546.5152630605283
 20
-1022.904573990151
 30
0.0
 10
543.389829372616
 20
-992.5829105862728
 30
0.0
 10
541.0183117679572
 20
-962.2013886483385
 30
0.0
 10
539.4846413853112
 20
-942.5545258602815
 30
0.0
 10
539.0900056974758
 20
-922.8209327933834
 30
0.0
 10
537.950971002665
 20
-903.1397913052481
 30
0.0
 10
536.2566730430192
 20
-873.8642311454663
 30
0.0
 10
534.3325872145071
 20
-844.6019346033025
 30
0.0
 10
532.5493196639548
 20
-815.3316282141359
 30
0.0
 10
531.0376978924142
 20
-790.5200505293666
 30
0.0
 10
529.9631726105648
 20
-765.675572182713
 30
0.0
 10
528.0335746292763
 20
-740.8969812872149
 30
0.0
 10
523.5867315043029
 20
-683.7953848930702
 30
0.0
 10
518.5649880702285
 20
-626.7385747402338
 30
0.0
 10
514.1026850792651
 20
-569.6380118747346
 30
0.0
 10
510.0068541205452
 20
-517.2267837926768
 30
0.0
 10
506.2909741301547
 20
-464.7854541888166
 30
0.0
 10
502.4949956697321
 20
-412.3509717122334
 30
0.0
 10
498.8319978950403
 20
-361.754146231176
 30
0.0
 10
495.1253765987664
 20
-311.1595815940308
 30
0.0
 10
491.7224404695173
 20
-260.5446693616759
 30
0.0
 10
488.1166312798805
 20
-206.9113151880725
 30
0.0
 10
484.5134059118577
 20
-153.2739991546611
 30
0.0
 10
481.5240965593065
 20
-99.60395471413981
 30
0.0
 10
480.2325733255798
 20
-76.41512466215707
 30
0.0
 10
479.3509303272109
 20
-53.1972696807111
 30
0.0
 10
478.4021079668796
 20
-29.98611110361459
 30
0.0
 10
478.4021079668796
 20
-29.98611110361459
 30
0.0
 10
430.1624598805235
 20
-29.98611110361459
 30
0.0
 10
430.1624598805235
 20
-29.98611110361459
 30
0.0
 10
430.8798148879398
 20
-49.33434870864081
 30
0.0
 10
431.4861947570372
 20
-68.6902731829685
 30
0.0
 10
432.2733560117233
 20
-88.03284791229083
 30
0.0
 10
433.0280041777673
 20
-106.5754068743978
 30
0.0
 10
433.049449897163
 20
-125.1672307019439
 30
0.0
 10
434.4228372123579
 20
-143.6607185852328
 30
0.0
 10
436.906751057223
 20
-177.1098612024673
 30
0.0
 10
440.3713113319644
 20
-210.4846112890672
 30
0.0
 10
443.026790931995
 20
-243.9223850912004
 30
0.0
 10
445.9235994707674
 20
-280.3987546431707
 30
0.0
 10
448.5541451922235
 20
-316.898723099215
 30
0.0
 10
450.9491755735691
 20
-353.411610663329
 30
0.0
 10
452.9154207580819
 20
-383.3888721779158
 30
0.0
 10
454.1818809221533
 20
-413.411802739529
 30
0.0
 10
456.0999378335662
 20
-443.3924878177543
 30
0.0
 10
457.911713549259
 20
-471.7126368720892
 30
0.0
 10
459.798032518514
 20
-500.0372645505549
 30
0.0
 10
462.3332352224158
 20
-528.2988469816406
 30
0.0
 10
464.8895391361647
 20
-556.7952987974331
 30
0.0
 10
468.843173778731
 20
-585.1702248699835
 30
0.0
 10
471.1847621163617
 20
-613.6808015772656
 30
0.0
 10
474.9879752773033
 20
-659.9855548480244
 30
0.0
 10
478.152123225731
 20
-706.345558837628
 30
0.0
 10
481.2579629330709
 20
-752.7041847890375
 30
0.0
 10
484.3171215965856
 20
-798.3660832422487
 30
0.0
 10
486.9277288279208
 20
-844.0579540261817
 30
0.0
 10
489.8135991885275
 20
-889.7317380588171
 30
0.0
 10
491.6334708786108
 20
-918.5347172454097
 30
0.0
 10
493.4393899319787
 20
-947.3399357440678
 30
0.0
 10
495.5350845793497
 20
-976.1237085233302
 30
0.0
 10
498.4478697484349
 20
-1016.130482737504
 30
0.0
 10
501.7059826762228
 20
-1056.111935499861
 30
0.0
 10
504.6691954304733
 20
-1096.115092363775
 30
0.0
 10
507.7376558517982
 20
-1137.540040134452
 30
0.0
 10
510.4453286484303
 20
-1178.991945777301
 30
0.0
 10
513.6516790165524
 20
-1220.405869242424
 30
0.0
 10
516.8931693586239
 20
-1262.272995018633
 30
0.0
 10
519.7309375735178
 20
-1304.1966203608
 30
0.0
 10
524.2400077356934
 20
-1345.934124419376
 30
0.0
 10
529.6808470355485
 20
-1396.296338897888
 30
0.0
 10
536.7780882447117
 20
-1446.478116500359
 30
0.0
 10
542.9913610160533
 20
-1496.758940598032
 30
0.0
 10
545.9856657570583
 20
-1520.989675183989
 30
0.0
 10
548.8972451427236
 20
-1545.238152011694
 30
0.0
 10
551.3110082307703
 20
-1569.532104099805
 30
0.0
 10
554.7678601043636
 20
-1604.325501443536
 30
0.0
 10
557.5260035498546
 20
-1639.188489716071
 30
0.0
 10
560.965500754941
 20
-1673.983609607545
 30
0.0
 10
564.9132356714886
 20
-1713.91950098211
 30
0.0
 10
569.3171873576707
 20
-1753.810606115367
 30
0.0
 10
573.4516033858255
 20
-1793.728066229085
 30
0.0
 10
576.6650592633858
 20
-1824.753218131051
 30
0.0
 10
579.9609821141244
 20
-1855.772513370692
 30
0.0
 10
582.8693317227722
 20
-1886.826948584283
 30
0.0
 10
585.4615938206485
 20
-1914.505706986651
 30
0.0
 10
587.7687742671203
 20
-1942.210992624256
 30
0.0
 10
590.1308178591947
 20
-1969.911110618633
 30
0.0
 10
590.1308178591947
 20
-1969.911110618633
 30
0.0
 10
638.5766118466492
 20
-1969.911110618633
 30
0.0
 10
638.5766118466492
 20
-1969.911110618633
 30
0.0
 10
637.5600072326456
 20
-1959.203409340928
 30
0.0
 10
636.5439193829647
 20
-1948.495535808449
 30
0.0
 10
635.5474255138561
 20
-1937.786111983001
 30
0.0
  0
HATCH
  5
90
330
70
100
AcDbEntity
  8
2023-003
 62
    18
420
        0
440
 33554687
100
AcDbHatch
 10
0.0
 20
0.0
 30
0.0
210
0.0
220
0.0
230
1.0
  2
SOLID
 70
     1
 71
     1
 91
        1
 92
        1
 93
        1
 72
     4
 94
        3
 73
     0
 74
     0
 95
      125
 96
      121
 40
0.0
 40
0.0
 40
0.0
 40
0.0
 40
1.0
 40
1.0
 40
1.0
 40
2.0
 40
2.0
 40
2.0
 40
3.0
 40
3.0
 40
3.0
 40
4.0
 40
4.0
 40
4.0
 40
5.0
 40
5.0
 40
5.0
 40
6.0
 40
6.0
 40
6.0
 40
7.0
 40
7.0
 40
7.0
 40
8.0
 40
8.0
 40
8.0
 40
9.0
 40
9.0
 40
9.0
 40
10.0
 40
10.0
 40
10.0
 40
11.0
 40
11.0
 40
11.0
 40
12.0
 40
12.0
 40
12.0
 40
13.0
 40
13.0
 40
13.0
 40
14.0
 40
14.0
 40
14.0
 40
15.0
 40
15.0
 40
15.0
 40
16.0
 40
16.0
 40
16.0
 40
17.0
 40
17.0
 40
17.0
 40
18.0
 40
18.0
 40
18.0
 40
19.0
 40
19.0
 40
19.0
 40
20.0
 40
20.0
 40
20.0
 40
21.0
 40
21.0
 40
21.0
 40
22.0
 40
22.0
 40
22.0
 40
23.0
 40
23.0
 40
23.0
 40
24.0
 40
24.0
 40
24.0
 40
25.0
 40
25.0
 40
25.0
 40
26.0
 40
26.0
 40
26.0
 40
27.0
 40
27.0
 40
27.0
 40
28.0
 40
28.0
 40
28.0
 40
29.0
 40
29.0
 40
29.0
 40
30.0
 40
30.0
 40
30.0
 40
31.0
 40
31.0
 40
31.0
 40
32.0
 40
32.0
 40
32.0
 40
33.0
 40
33.0
 40
33.0
 40
34.0
 40
34.0
 40
34.0
 40
35.0
 40
35.0
 40
35.0
 40
36.0
 40
36.0
 40
36.0
 40
37.0
 40
37.0
 40
37.0
 40
38.0
 40
38.0
 40
38.0
 40
39.0
 40
39.0
 40
39.0
 40
40.0
 40
40.0
 40
40.0
 40
40.0
 10
635.5474255138561
 20
-1937.786111983001
 10
631.1122095861455
 20
-1890.121321142053
 10
626.976975347813
 20
-1842.426902479931
 10
622.1818330692809
 20
-1794.798629651127
 10
618.5872204399712
 20
-1759.09417680632
 10
613.9984824446992
 20
-1723.49100976878
 10
610.148243730384
 20
-1687.810844847145
 10
607.4329917236842
 20
-1662.649245461073
 10
605.3634798020011
 20
-1637.417882891426
 10
602.7337092270292
 20
-1612.246464983223
 10
599.6908286396823
 20
-1583.120594222275
 10
596.3409469809061
 20
-1554.026935104115
 10
593.1407977846574
 20
-1524.917428546722
 10
590.1935185970264
 20
-1498.108901263927
 10
587.4456673742975
 20
-1471.276947331833
 10
584.2784188399329
 20
-1444.494688902114
 10
581.6057568261697
 20
-1421.894259627165
 10
577.9567116881931
 20
-1399.400886694421
 10
575.6361814967159
 20
-1376.768418031459
 10
572.0696463956111
 20
-1341.982686025181
 10
568.9764674141795
 20
-1307.141401854204
 10
566.2210800450767
 20
-1272.28082514851
 10
562.7063075036377
 20
-1227.81316904526
 10
559.8616060340797
 20
-1183.293147490635
 10
556.469737274077
 20
-1138.815242228317
 10
554.2935565834318
 20
-1110.278655050121
 10
551.7209315298215
 20
-1081.77135118355
 10
549.1998106537156
 20
-1053.262238641849
 10
546.5152630605283
 20
-1022.904573990151
 10
543.389829372616
 20
-992.5829105862728
 10
541.0183117679572
 20
-962.2013886483385
 10
539.4846413853112
 20
-942.5545258602815
 10
539.0900056974758
 20
-922.8209327933834
 10
537.950971002665
 20
-903.1397913052481
 10
536.2566730430192
 20
-873.8642311454663
 10
534.3325872145071
 20
-844.6019346033025
 10
532.5493196639548
 20
-815.3316282141359
 10
531.0376978924142
 20
-790.5200505293666
 10
529.9631726105648
 20
-765.675572182713
 10
528.0335746292763
 20
-740.8969812872149
 10
523.5867315043029
 20
-683.7953848930702
 10
518.5649880702285
 20
-626.7385747402338
 10
514.1026850792651
 20
-569.6380118747346
 10
510.0068541205452
 20
-517.2267837926768
 10
506.2909741301547
 20
-464.7854541888166
 10
502.4949956697321
 20
-412.3509717122334
 10
498.8319978950403
 20
-361.754146231176
 10
495.1253765987664
 20
-311.1595815940308
 10
491.7224404695173
 20
-260.5446693616759
 10
488.1166312798805
 20
-206.9113151880725
 10
484.5134059118577
 20
-153.2739991546611
 10
481.5240965593065
 20
-99.60395471413981
 10
480.2325733255798
 20
-76.41512466215707
 10
479.3509303272109
 20
-53.1972696807111
 10
478.4021079668796
 20
-29.98611110361459
 10
478.4021079668796
 20
-29.98611110361459
 10
430.1624598805235
 20
-29.98611110361459
 10
430.1624598805235
 20
-29.98611110361459
 10
430.8798148879398
 20
-49.33434870864081
 10
431.4861947570372
 20
-68.6902731829685
 10
432.2733560117233
 20
-88.03284791229083
 10
433.0280041777673
 20
-106.5754068743978
 10
433.049449897163
 20
-125.1672307019439
 10
434.4228372123579
 20
-143.6607185852328
 10
436.906751057223
 20
-177.1098612024673
 10
440.3713113319644
 20
-210.4846112890672
 10
443.026790931995
 20
-243.9223850912004
 10
445.9235994707674
 20
-280.3987546431707
 10
448.5541451922235
 20
-316.898723099215
 10
450.9491755735691
 20
-353.411610663329
 10
452.9154207580819
 20
-383.3888721779158
 10
454.1818809221533
 20
-413.411802739529
 10
456.0999378335662
 20
-443.3924878177543
 10
457.911713549259
 20
-471.7126368720892
 10
459.798032518514
 20
-500.0372645505549
 10
462.3332352224158
 20
-528.2988469816406
 10
464.8895391361647
 20
-556.7952987974331
 10
468.843173778731
 20
-585.1702248699835
 10
471.1847621163617
 20
-613.6808015772656
 10
474.9879752773033
 20
-659.9855548480244
 10
478.152123225731
 20
-706.345558837628
 10
481.2579629330709
 20
-752.7041847890375
 10
484.3171215965856
 20
-798.3660832422487
 10
486.9277288279208
 20
-844.0579540261817
 10
489.8135991885275
 20
-889.7317380588171
 10
491.6334708786108
 20
-918.5347172454097
 10
493.4393899319787
 20
-947.3399357440678
 10
495.5350845793497
 20
-976.1237085233302
 10
498.4478697484349
 20
-1016.130482737504
 10
501.7059826762228
 20
-1056.111935499861
 10
504.6691954304733
 20
-1096.115092363775
 10
507.7376558517982
 20
-1137.540040134452
 10
510.4453286484303
 20
-1178.991945777301
 10
513.6516790165524
 20
-1220.405869242424
 10
516.8931693586239
 20
-1262.272995018633
 10
519.7309375735178
 20
-1304.1966203608
 10
524.2400077356934
 20
-1345.934124419376
 10
529.6808470355485
 20
-1396.296338897888
 10
536.7780882447117
 20
-1446.478116500359
 10
542.9913610160533
 20
-1496.758940598032
 10
545.9856657570583
 20
-1520.989675183989
 10
548.8972451427236
 20
-1545.238152011694
 10
551.3110082307703
 20
-1569.532104099805
 10
554.7678601043636
 20
-1604.325501443536
 10
557.5260035498546
 20
-1639.188489716071
 10
560.965500754941
 20
-1673.983609607545
 10
564.9132356714886
 20
-1713.91950098211
 10
569.3171873576707
 20
-1753.810606115367
 10
573.4516033858255
 20
-1793.728066229085
 10
576.6650592633858
 20
-1824.753218131051
 10
579.9609821141244
 20
-1855.772513370692
 10
582.8693317227722
 20
-1886.826948584283
 10
585.4615938206485
 20
-1914.505706986651
 10
587.7687742671203
 20
-1942.210992624256
 10
590.1308178591947
 20
-1969.911110618633
 10
590.1308178591947
 20
-1969.911110618633
 10
638.5766118466492
 20
-1969.911110618633
 10
638.5766118466492
 20
-1969.911110618633
 10
637.5600072326456
 20
-1959.203409340928
 10
636.5439193829647
 20
-1948.495535808449
 10
635.5474255138561
 20
-1937.786111983001
 97
        0
 97
        1
330
8F
 75
     2
 76
     1
 98
        1
 10
0.0
 20
0.0
450
        0
451
        0
460
0.0
461
0.0
452
        0
462
0.0
453
        0
470

  0
SPLINE
  5
91
330
70
100
AcDbEntity
  8
2023-003
100
AcDbSpline
210
0.0
220
0.0
230
1.0
 70
     9
 71
     3
 72
   128
 73
   124
 74
     0
 42
0.0000000001
 43
0.0000000001
 40
0.0
 40
0.0
 40
0.0
 40
0.0
 40
1.0
 40
1.0
 40
1.0
 40
2.0
 40
2.0
 40
2.0
 40
3.0
 40
3.0
 40
3.0
 40
4.0
 40
4.0
 40
4.0
 40
5.0
 40
5.0
 40
5.0
 40
6.0
 40
6.0
 40
6.0
 40
7.0
 40
7.0
 40
7.0
 40
8.0
 40
8.0
 40
8.0
 40
9.0
 40
9.0
 40
9.0
 40
10.0
 40
10.0
 40
10.0
 40
11.0
 40
11.0
 40
11.0
 40
12.0
 40
12.0
 40
12.0
 40
13.0
 40
13.0
 40
13.0
 40
14.0
 40
14.0
 40
14.0
 40
15.0
 40
15.0
 40
15.0
 40
16.0
 40
16.0
 40
16.0
 40
17.0
 40
17.0
 40
17.0
 40
18.0
 40
18.0
 40
18.0
 40
19.0
 40
19.0
 40
19.0
 40
20.0
 40
20.0
 40
20.0
 40
21.0
 40
21.0
 40
21.0
 40
22.0
 40
22.0
 40
22.0
 40
23.0
 40
23.0
 40
23.0
 40
24.0
 40
24.0
 40
24.0
 40
25.0
 40
25.0
 40
25.0
 40
26.0
 40
26.0
 40
26.0
 40
27.0
 40
27.0
 40
27.0
 40
28.0
 40
28.0
 40
28.0
 40
29.0
 40
29.0
 40
29.0
 40
30.0
 40
30.0
 40
30.0
 40
31.0
 40
31.0
 40
31.0
 40
32.0
 40
32.0
 40
32.0
 40
33.0
 40
33.0
 40
33.0
 40
34.0
 40
34.0
 40
34.0
 40
35.0
 40
35.0
 40
35.0
 40
36.0
 40
36.0
 40
36.0
 40
37.0
 40
37.0
 40
37.0
 40
38.0
 40
38.0
 40
38.0
 40
39.0
 40
39.0
 40
39.0
 40
40.0
 40
40.0
 40
40.0
 40
41.0
 40
41.0
 40
41.0
 40
41.0
 10
825.1446381943214
 20
-1948.680709690781
 30
0.0
 10
820.2787853309546
 20
-1897.501749200104
 30
0.0
 10
816.1491493727856
 20
-1846.252681016301
 30
0.0
 10
811.2467784972752
 20
-1795.077165621109
 30
0.0
 10
807.9839285631949
 20
-1761.016367832315
 30
0.0
 10
803.9394725908987
 20
-1727.029984106003
 30
0.0
 10
800.2195446133132
 20
-1693.012939029872
 30
0.0
 10
796.9092384889237
 20
-1662.74122951053
 30
0.0
 10
793.6878158280538
 20
-1632.459012449958
 30
0.0
 10
790.202757235175
 20
-1602.207456739205
 30
0.0
 10
785.9094792414566
 20
-1564.939447308418
 30
0.0
 10
781.4043278753954
 20
-1527.695898055576
 30
0.0
 10
776.9524032345814
 20
-1490.446492140409
 30
0.0
 10
772.473434594208
 20
-1452.97108796141
 30
0.0
 10
767.7241982130168
 20
-1415.526000622681
 30
0.0
 10
763.5033533518759
 20
-1378.021743768993
 30
0.0
 10
759.0698599719079
 20
-1338.627679786871
 30
0.0
 10
754.9732969303972
 20
-1299.19365269712
 30
0.0
 10
751.014709963071
 20
-1259.748084537493
 30
0.0
 10
748.3222817139611
 20
-1232.919489573498
 30
0.0
 10
746.1744369336821
 20
-1206.036548228222
 30
0.0
 10
743.6834606430721
 20
-1179.187282691314
 30
0.0
 10
741.4951359908415
 20
-1155.598713903808
 30
0.0
 10
738.8884044919271
 20
-1132.045974109349
 30
0.0
 10
736.9756874785165
 20
-1108.436045729835
 30
0.0
 10
734.7190638082907
 20
-1080.579778782589
 30
0.0
 10
733.0002195433125
 20
-1052.679845250068
 30
0.0
 10
731.0658845557318
 20
-1024.797653959295
 30
0.0
 10
728.8393193436148
 20
-992.7021970174495
 30
0.0
 10
726.4992382352589
 20
-960.6142331582841
 30
0.0
 10
724.4633590582505
 20
-928.5067183822397
 30
0.0
 10
723.1273510290706
 20
-907.435480865806
 30
0.0
 10
722.2820107243774
 20
-886.3334097447795
 30
0.0
 10
721.1467656346004
 20
-865.2489086107278
 30
0.0
 10
719.6453930221285
 20
-837.3630138423086
 30
0.0
 10
718.1680499506663
 20
-809.4753103987596
 30
0.0
 10
716.5085474554215
 20
-781.5986312607635
 30
0.0
 10
714.8749693037032
 20
-754.1577567016515
 30
0.0
 10
713.3290688320844
 20
-726.7061162191481
 30
0.0
 10
711.1679604341872
 20
-699.3046880033422
 30
0.0
 10
709.6936318212745
 20
-680.6119874736187
 30
0.0
 10
707.2109237598292
 20
-661.9992992865401
 30
0.0
 10
705.2096677924476
 20
-643.347595393091
 30
0.0
 10
700.7781553423836
 20
-602.0461542955605
 30
0.0
 10
696.2271411426749
 20
-560.7567710322284
 30
0.0
 10
692.007975765583
 20
-519.4336258331406
 30
0.0
 10
690.0762245996163
 20
-500.51341981031
 30
0.0
 10
688.8278942505361
 20
-481.523450603903
 30
0.0
 10
687.2426335629984
 20
-462.5674155880257
 30
0.0
 10
685.0348441212759
 20
-436.16588327312
 30
0.0
 10
682.5758210912917
 20
-409.7830406012217
 30
0.0
 10
680.6391176005651
 20
-383.3618712420502
 30
0.0
 10
678.4250839232757
 20
-353.1560491738638
 30
0.0
 10
677.0165566341313
 20
-322.8891197245078
 30
0.0
 10
674.6174782655904
 20
-292.6996833917231
 30
0.0
 10
671.8100699546603
 20
-257.3719302063819
 30
0.0
 10
668.2195914399329
 20
-222.1072007365739
 30
0.0
 10
665.1575905726429
 20
-186.7989123407243
 30
0.0
 10
663.8994417014297
 20
-172.2909908287805
 30
0.0
 10
663.1073281219836
 20
-157.7420726805623
 30
0.0
 10
662.1503236598747
 20
-143.208829716802
 30
0.0
 10
660.3320453264534
 20
-115.5952697464918
 30
0.0
 10
658.6859787036011
 20
-87.96999645153182
 30
0.0
 10
656.7130586465856
 20
-60.36763304154872
 30
0.0
 10
655.9894594036024
 20
-50.24359553458538
 30
0.0
 10
655.3088377267978
 20
-40.11423966146667
 30
0.0
 10
654.6116365279703
 20
-29.98611110361459
 30
0.0
 10
654.6116365279703
 20
-29.98611110361459
 30
0.0
 10
607.488543888384
 20
-29.98611110361459
 30
0.0
 10
607.488543888384
 20
-29.98611110361459
 30
0.0
 10
608.7392427406103
 20
-59.82100404727348
 30
0.0
 10
609.6540878467184
 20
-89.67682594600528
 30
0.0
 10
611.5898008724932
 20
-119.466824989122
 30
0.0
 10
615.3956409187422
 20
-178.0384005631293
 30
0.0
 10
620.579045458462
 20
-236.5193701258745
 30
0.0
 10
624.901606763805
 20
-295.0590785666432
 30
0.0
 10
627.2540471522143
 20
-326.9170392384747
 30
0.0
 10
628.8066224963356
 20
-358.8342340208058
 30
0.0
 10
631.1580293560994
 20
-390.6921731607905
 30
0.0
 10
633.9751700617753
 20
-428.8628837361002
 30
0.0
 10
636.9354544848634
 20
-467.0287711777306
 30
0.0
 10
640.4394611029109
 20
-505.141130448259
 30
0.0
 10
643.4917726391487
 20
-538.3383289262878
 30
0.0
 10
647.7086125767881
 20
-571.4277389793219
 30
0.0
 10
650.8274575195848
 20
-604.6195975593485
 30
0.0
 10
654.7815658627803
 20
-646.7006207014976
 30
0.0
 10
658.5028718785601
 20
-688.8104103909484
 30
0.0
 10
661.652722680724
 20
-730.9580530670435
 30
0.0
 10
664.2073901741174
 20
-765.1421852742092
 30
0.0
 10
665.714059620898
 20
-799.4041766393417
 30
0.0
 10
667.7871027654535
 20
-833.6252574955867
 30
0.0
 10
670.3434928065895
 20
-875.8253517504448
 30
0.0
 10
672.9292953504309
 20
-918.0236373301729
 30
0.0
 10
675.6436860832592
 20
-960.2138269355108
 30
0.0
 10
678.1469785902288
 20
-999.1228214733096
 30
0.0
 10
680.5618182706147
 20
-1038.040687131983
 30
0.0
 10
683.5257200439623
 20
-1076.915747479252
 30
0.0
 10
686.2556137064744
 20
-1112.722778042132
 30
0.0
 10
689.7179346691504
 20
-1148.472878402118
 30
0.0
 10
692.756681141915
 20
-1184.256826825246
 30
0.0
 10
695.3004104571427
 20
-1214.211587559945
 30
0.0
 10
697.2554590813285
 20
-1244.223106242763
 30
0.0
 10
700.2551898477227
 20
-1274.130841424089
 30
0.0
 10
706.0890284150576
 20
-1332.293527227691
 30
0.0
 10
712.169966456072
 20
-1390.435456330993
 30
0.0
 10
718.7159923875952
 20
-1448.521919396984
 30
0.0
 10
724.8890867328403
 20
-1503.299971141102
 30
0.0
 10
731.9837441203894
 20
-1557.973291982468
 30
0.0
 10
738.3118677624707
 20
-1612.734807268257
 30
0.0
 10
743.2939064710775
 20
-1655.847076680222
 30
0.0
 10
747.9349668540319
 20
-1699.00189302143
 30
0.0
 10
752.3535601960262
 20
-1742.176174152129
 30
0.0
 10
758.6844399144955
 20
-1804.037169959147
 30
0.0
 10
764.8949996731426
 20
-1865.91211840288
 30
0.0
 10
770.746838864388
 20
-1927.820139763271
 30
0.0
 10
772.0725977344992
 20
-1941.845295738497
 30
0.0
 10
773.3326414082293
 20
-1955.876825140371
 30
0.0
 10
774.566157846723
 20
-1969.911110618633
 30
0.0
 10
774.566157846723
 20
-1969.911110618633
 30
0.0
 10
827.2215140076044
 20
-1969.911110618633
 30
0.0
 10
827.2215140076044
 20
-1969.911110618633
 30
0.0
 10
826.5150971783539
 20
-1962.835573511027
 30
0.0
 10
825.8176375973651
 20
-1955.759347384324
 30
0.0
 10
825.1446381943214
 20
-1948.680709690781
 30
0.0
  0
HATCH
  5
92
330
70
100
AcDbEntity
  8
2023-003
 62
    18
420
        0
440
 33554687
100
AcDbHatch
 10
0.0
 20
0.0
 30
0.0
210
0.0
220
0.0
230
1.0
  2
SOLID
 70
     1
 71
     1
 91
        1
 92
        1
 93
        1
 72
     4
 94
        3
 73
     0
 74
     0
 95
      128
 96
      124
 40
0.0
 40
0.0
 40
0.0
 40
0.0
 40
1.0
 40
1.0
 40
1.0
 40
2.0
 40
2.0
 40
2.0
 40
3.0
 40
3.0
 40
3.0
 40
4.0
 40
4.0
 40
4.0
 40
5.0
 40
5.0
 40
5.0
 40
6.0
 40
6.0
 40
6.0
 40
7.0
 40
7.0
 40
7.0
 40
8.0
 40
8.0
 40
8.0
 40
9.0
 40
9.0
 40
9.0
 40
10.0
 40
10.0
 40
10.0
 40
11.0
 40
11.0
 40
11.0
 40
12.0
 40
12.0
 40
12.0
 40
13.0
 40
13.0
 40
13.0
 40
14.0
 40
14.0
 40
14.0
 40
15.0
 40
15.0
 40
15.0
 40
16.0
 40
16.0
 40
16.0
 40
17.0
 40
17.0
 40
17.0
 40
18.0
 40
18.0
 40
18.0
 40
19.0
 40
19.0
 40
19.0
 40
20.0
 40
20.0
 40
20.0
 40
21.0
 40
21.0
 40
21.0
 40
22.0
 40
22.0
 40
22.0
 40
23.0
 40
23.0
 40
23.0
 40
24.0
 40
24.0
 40
24.0
 40
25.0
 40
25.0
 40
25.0
 40
26.0
 40
26.0
 40
26.0
 40
27.0
 40
27.0
 40
27.0
 40
28.0
 40
28.0
 40
28.0
 40
29.0
 40
29.0
 40
29.0
 40
30.0
 40
30.0
 40
30.0
 40
31.0
 40
31.0
 40
31.0
 40
32.0
 40
32.0
 40
32.0
 40
33.0
 40
33.0
 40
33.0
 40
34.0
 40
34.0
 40
34.0
 40
35.0
 40
35.0
 40
35.0
 40
36.0
 40
36.0
 40
36.0
 40
37.0
 40
37.0
 40
37.0
 40
38.0
 40
38.0
 40
38.0
 40
39.0
 40
39.0
 40
39.0
 40
40.0
 40
40.0
 40
40.0
 40
41.0
 40
41.0
 40
41.0
 40
41.0
 10
825.1446381943214
 20
-1948.680709690781
 10
820.2787853309546
 20
-1897.501749200104
 10
816.1491493727856
 20
-1846.252681016301
 10
811.2467784972752
 20
-1795.077165621109
 10
807.9839285631949
 20
-1761.016367832315
 10
803.9394725908987
 20
-1727.029984106003
 10
800.2195446133132
 20
-1693.012939029872
 10
796.9092384889237
 20
-1662.74122951053
 10
793.6878158280538
 20
-1632.459012449958
 10
790.202757235175
 20
-1602.207456739205
 10
785.9094792414566
 20
-1564.939447308418
 10
781.4043278753954
 20
-1527.695898055576
 10
776.9524032345814
 20
-1490.446492140409
 10
772.473434594208
 20
-1452.97108796141
 10
767.7241982130168
 20
-1415.526000622681
 10
763.5033533518759
 20
-1378.021743768993
 10
759.0698599719079
 20
-1338.627679786871
 10
754.9732969303972
 20
-1299.19365269712
 10
751.014709963071
 20
-1259.748084537493
 10
748.3222817139611
 20
-1232.919489573498
 10
746.1744369336821
 20
-1206.036548228222
 10
743.6834606430721
 20
-1179.187282691314
 10
741.4951359908415
 20
-1155.598713903808
 10
738.8884044919271
 20
-1132.045974109349
 10
736.9756874785165
 20
-1108.436045729835
 10
734.7190638082907
 20
-1080.579778782589
 10
733.0002195433125
 20
-1052.679845250068
 10
731.0658845557318
 20
-1024.797653959295
 10
728.8393193436148
 20
-992.7021970174495
 10
726.4992382352589
 20
-960.6142331582841
 10
724.4633590582505
 20
-928.5067183822397
 10
723.1273510290706
 20
-907.435480865806
 10
722.2820107243774
 20
-886.3334097447795
 10
721.1467656346004
 20
-865.2489086107278
 10
719.6453930221285
 20
-837.3630138423086
 10
718.1680499506663
 20
-809.4753103987596
 10
716.5085474554215
 20
-781.5986312607635
 10
714.8749693037032
 20
-754.1577567016515
 10
713.3290688320844
 20
-726.7061162191481
 10
711.1679604341872
 20
-699.3046880033422
 10
709.6936318212745
 20
-680.6119874736187
 10
707.2109237598292
 20
-661.9992992865401
 10
705.2096677924476
 20
-643.347595393091
 10
700.7781553423836
 20
-602.0461542955605
 10
696.2271411426749
 20
-560.7567710322284
 10
692.007975765583
 20
-519.4336258331406
 10
690.0762245996163
 20
-500.51341981031
 10
688.8278942505361
 20
-481.523450603903
 10
687.2426335629984
 20
-462.5674155880257
 10
685.0348441212759
 20
-436.16588327312
 10
682.5758210912917
 20
-409.7830406012217
 10
680.6391176005651
 20
-383.3618712420502
 10
678.4250839232757
 20
-353.1560491738638
 10
677.0165566341313
 20
-322.8891197245078
 10
674.6174782655904
 20
-292.6996833917231
 10
671.8100699546603
 20
-257.3719302063819
 10
668.2195914399329
 20
-222.1072007365739
 10
665.1575905726429
 20
-186.7989123407243
 10
663.8994417014297
 20
-172.2909908287805
 10
663.1073281219836
 20
-157.7420726805623
 10
662.1503236598747
 20
-143.208829716802
 10
660.3320453264534
 20
-115.5952697464918
 10
658.6859787036011
 20
-87.96999645153182
 10
656.7130586465856
 20
-60.36763304154872
 10
655.9894594036024
 20
-50.24359553458538
 10
655.3088377267978
 20
-40.11423966146667
 10
654.6116365279703
 20
-29.98611110361459
 10
654.6116365279703
 20
-29.98611110361459
 10
607.488543888384
 20
-29.98611110361459
 10
607.488543888384
 20
-29.98611110361459
 10
608.7392427406103
 20
-59.82100404727348
 10
609.6540878467184
 20
-89.67682594600528
 10
611.5898008724932
 20
-119.466824989122
 10
615.3956409187422
 20
-178.0384005631293
 10
620.579045458462
 20
-236.5193701258745
 10
624.901606763805
 20
-295.0590785666432
 10
627.2540471522143
 20
-326.9170392384747
 10
628.8066224963356
 20
-358.8342340208058
 10
631.1580293560994
 20
-390.6921731607905
 10
633.9751700617753
 20
-428.8628837361002
 10
636.9354544848634
 20
-467.0287711777306
 10
640.4394611029109
 20
-505.141130448259
 10
643.4917726391487
 20
-538.3383289262878
 10
647.7086125767881
 20
-571.4277389793219
 10
650.8274575195848
 20
-604.6195975593485
 10
654.7815658627803
 20
-646.7006207014976
 10
658.5028718785601
 20
-688.8104103909484
 10
661.652722680724
 20
-730.9580530670435
 10
664.2073901741174
 20
-765.1421852742092
 10
665.714059620898
 20
-799.4041766393417
 10
667.7871027654535
 20
-833.6252574955867
 10
670.3434928065895
 20
-875.8253517504448
 10
672.9292953504309
 20
-918.0236373301729
 10
675.6436860832592
 20
-960.2138269355108
 10
678.1469785902288
 20
-999.1228214733096
 10
680.5618182706147
 20
-1038.040687131983
 10
683.5257200439623
 20
-1076.915747479252
 10
686.2556137064744
 20
-1112.722778042132
 10
689.7179346691504
 20
-1148.472878402118
 10
692.756681141915
 20
-1184.256826825246
 10
695.3004104571427
 20
-1214.211587559945
 10
697.2554590813285
 20
-1244.223106242763
 10
700.2551898477227
 20
-1274.130841424089
 10
706.0890284150576
 20
-1332.293527227691
 10
712.169966456072
 20
-1390.435456330993
 10
718.7159923875952
 20
-1448.521919396984
 10
724.8890867328403
 20
-1503.299971141102
 10
731.9837441203894
 20
-1557.973291982468
 10
738.3118677624707
 20
-1612.734807268257
 10
743.2939064710775
 20
-1655.847076680222
 10
747.9349668540319
 20
-1699.00189302143
 10
752.3535601960262
 20
-1742.176174152129
 10
758.6844399144955
 20
-1804.037169959147
 10
764.8949996731426
 20
-1865.91211840288
 10
770.746838864388
 20
-1927.820139763271
 10
772.0725977344992
 20
-1941.845295738497
 10
773.3326414082293
 20
-1955.876825140371
 10
774.566157846723
 20
-1969.911110618633
 10
774.566157846723
 20
-1969.911110618633
 10
827.2215140076044
 20
-1969.911110618633
 10
827.2215140076044
 20
-1969.911110618633
 10
826.5150971783539
 20
-1962.835573511027
 10
825.8176375973651
 20
-1955.759347384324
 10
825.1446381943214
 20
-1948.680709690781
 97
        0
 97
        1
330
91
 75
     2
 76
     1
 98
        1
 10
0.0
 20
0.0
450
        0
451
        0
460
0.0
461
0.0
452
        0
462
0.0
453
        0
470

  0
ENDSEC
  0
SECTION
  2
OBJECTS
  0
DICTIONARY
  5
C
330
0
100
AcDbDictionary
281
     1
  3
ACAD_COLOR
350
63
  3
ACAD_DETAILVIEWSTYLE
350
6A
  3
ACAD_GROUP
350
D
  3
ACAD_LAYOUT
350
62
  3
ACAD_MATERIAL
350
10
  3
ACAD_MLEADERSTYLE
350
66
  3
ACAD_MLINESTYLE
350
5F
  3
ACAD_PLOTSETTINGS
350
61
  3
ACAD_PLOTSTYLENAME
350
E
  3
ACAD_SCALELIST
350
42
  3
ACAD_SECTIONVIEWSTYLE
350
68
  3
ACAD_TABLESTYLE
350
64
  3
ACAD_VISUALSTYLE
350
29
  3
ACDB_RECOMPOSE_DATA
350
9E
  3
AcDbVariableDictionary
350
96
  0
DICTIONARY
  5
63
102
{ACAD_REACTORS
330
C
102
}
330
C
100
AcDbDictionary
281
     1
  0
DICTIONARY
  5
6A
102
{ACAD_REACTORS
330
C
102
}
330
C
100
AcDbDictionary
281
     1
  3
Imperial24
350
6B
  0
DICTIONARY
  5
D
102
{ACAD_REACTORS
330
C
102
}
330
C
100
AcDbDictionary
281
     1
  0
DICTIONARY
  5
62
102
{ACAD_REACTORS
330
C
102
}
330
C
100
AcDbDictionary
281
     1
  3
Layout1
350
6F
  3
Layout2
350
77
  3
Model
350
73
  0
DICTIONARY
  5
10
102
{ACAD_REACTORS
330
C
102
}
330
C
100
AcDbDictionary
281
     1
  3
ByBlock
350
19
  3
ByLayer
350
11
  3
Global
350
21
  0
DICTIONARY
  5
66
102
{ACAD_REACTORS
330
C
102
}
330
C
100
AcDbDictionary
281
     1
  3
Standard
350
67
  0
DICTIONARY
  5
5F
102
{ACAD_REACTORS
330
C
102
}
330
C
100
AcDbDictionary
281
     1
  3
Standard
350
60
  0
DICTIONARY
  5
61
102
{ACAD_REACTORS
330
C
102
}
330
C
100
AcDbDictionary
281
     1
  0
ACDBDICTIONARYWDFLT
  5
E
102
{ACAD_REACTORS
330
C
102
}
330
C
100
AcDbDictionary
281
     1
  3
Normal
350
F
100
AcDbDictionaryWithDefault
340
F
  0
DICTIONARY
  5
42
102
{ACAD_REACTORS
330
C
102
}
330
C
100
AcDbDictionary
281
     1
  3
A0
350
43
  3
A1
350
44
  3
A2
350
45
  3
A3
350
46
  3
A4
350
47
  3
A5
350
48
  3
A6
350
49
  3
A7
350
4A
  3
A8
350
4B
  3
A9
350
4C
  3
B0
350
4D
  3
B1
350
4E
  3
B2
350
4F
  3
B3
350
50
  3
B4
350
51
  3
B5
350
52
  3
B6
350
53
  0
DICTIONARY
  5
68
102
{ACAD_REACTORS
330
C
102
}
330
C
100
AcDbDictionary
281
     1
  3
Imperial24
350
69
  0
DICTIONARY
  5
64
102
{ACAD_REACTORS
330
C
102
}
330
C
100
AcDbDictionary
281
     1
  3
Standard
350
65
  0
DICTIONARY
  5
29
102
{ACAD_REACTORS
330
C
102
}
330
C
100
AcDbDictionary
281
     1
  3
2dWireframe
350
2F
  3
Basic
350
2E
  3
Brighten
350
35
  3
ColorChange
350
39
  3
Conceptual
350
32
  3
Dim
350
34
  3
EdgeColorOff
350
41
  3
Facepattern
350
38
  3
Flat
350
2A
  3
FlatWithEdges
350
2B
  3
Gouraud
350
2C
  3
GouraudWithEdges
350
2D
  3
Hidden
350
31
  3
JitterOff
350
3F
  3
Linepattern
350
37
  3
OverhangOff
350
40
  3
Realistic
350
33
  3
Shaded
350
3E
  3
Shaded with edges
350
3D
  3
Shades of Gray
350
3A
  3
Sketchy
350
3B
  3
Thicken
350
36
  3
Wireframe
350
30
  3
X-Ray
350
3C
  0
XRECORD
  5
9E
102
{ACAD_REACTORS
330
C
102
}
330
C
100
AcDbXrecord
280
     1
 90
        1
330
65
  0
DICTIONARY
  5
96
102
{ACAD_REACTORS
330
C
102
}
330
C
100
AcDbDictionary
281
     1
  3
CANNOSCALE
350
9B
  3
CMLEADERSTYLE
350
98
  3
CTABLESTYLE
350
97
  3
CVIEWDETAILSTYLE
350
99
  3
CVIEWSECTIONSTYLE
350
9A
  0
ACDBDETAILVIEWSTYLE
  5
6B
102
{ACAD_REACTORS
330
6A
102
}
330
6A
100
AcDbModelDocViewStyle
 70
     0
  3
Imperial24
290
     1
300
Imperial24
 90
        0
100
AcDbDetailViewStyle
 70
     0
 71
     0
 90
        3
 71
     1
340
55
 62
   256
 40
0.24
340
0
 62
   256
 40
0.24
300

 40
0.36
280
     3
 71
     2
340
5D
 90
       25
 62
   256
 71
     3
340
55
 62
   256
 40
0.24
 90
        1
 40
0.75
 90
        1
300
%<\AcVar ViewType \f "%tc1">% %<\AcVar ViewDetailId>%\PSCALE %<\AcVar ViewScale \f "%sn">%
 71
     4
340
5D
 90
       25
 62
   256
340
5D
 90
       25
 62
   256
280
     0
  0
LAYOUT
  5
6F
102
{ACAD_REACTORS
330
62
102
}
330
62
100
AcDbPlotSettings
  1

  2

  4

  6

 40
0.0
 41
0.0
 42
0.0
 43
0.0
 44
0.0
 45
0.0
 46
0.0
 47
0.0
 48
0.0
 49
0.0
140
0.0
141
0.0
142
1.0
143
1.0
 70
   688
 72
     0
 73
     0
 74
     5
  7

 75
    16
147
1.0
 76
     0
 77
     2
 78
   300
148
0.0
149
0.0
100
AcDbLayout
  1
Layout1
 70
     1
 71
     1
 10
0.0
 20
0.0
 11
12.0
 21
9.0
 12
0.0
 22
0.0
 32
0.0
 14
0.0
 24
0.0
 34
0.0
 15
0.0
 25
0.0
 35
0.0
146
0.0
 13
0.0
 23
0.0
 33
0.0
 16
1.0
 26
0.0
 36
0.0
 17
0.0
 27
1.0
 37
0.0
 76
     0
330
6C
  0
LAYOUT
  5
77
102
{ACAD_REACTORS
330
62
102
}
330
62
100
AcDbPlotSettings
  1

  2

  4

  6

 40
0.0
 41
0.0
 42
0.0
 43
0.0
 44
0.0
 45
0.0
 46
0.0
 47
0.0
 48
0.0
 49
0.0
140
0.0
141
0.0
142
1.0
143
1.0
 70
   688
 72
     0
 73
     0
 74
     5
  7

 75
    16
147
1.0
 76
     0
 77
     2
 78
   300
148
0.0
149
0.0
100
AcDbLayout
  1
Layout2
 70
     1
 71
     2
 10
0.0
 20
0.0
 11
12.0
 21
9.0
 12
0.0
 22
0.0
 32
0.0
 14
0.0
 24
0.0
 34
0.0
 15
0.0
 25
0.0
 35
0.0
146
0.0
 13
0.0
 23
0.0
 33
0.0
 16
1.0
 26
0.0
 36
0.0
 17
0.0
 27
1.0
 37
0.0
 76
     0
330
74
  0
LAYOUT
  5
73
102
{ACAD_REACTORS
330
62
102
}
330
62
100
AcDbPlotSettings
  1

  2

  4

  6

 40
0.0
 41
0.0
 42
0.0
 43
0.0
 44
0.0
 45
0.0
 46
0.0
 47
0.0
 48
0.0
 49
0.0
140
0.0
141
0.0
142
1.0
143
1.0
 70
  1712
 72
     0
 73
     0
 74
     0
  7

 75
     0
147
1.0
 76
     0
 77
     2
 78
   300
148
0.0
149
0.0
100
AcDbLayout
  1
Model
 70
     1
 71
     0
 10
0.0
 20
0.0
 11
12.0
 21
9.0
 12
0.0
 22
0.0
 32
0.0
 14
0.0
 24
0.0
 34
0.0
 15
0.0
 25
0.0
 35
0.0
146
0.0
 13
0.0
 23
0.0
 33
0.0
 16
1.0
 26
0.0
 36
0.0
 17
0.0
 27
1.0
 37
0.0
 76
     0
330
70
  0
MATERIAL
  5
19
102
{ACAD_XDICTIONARY
360
1A
102
}
102
{ACAD_REACTORS
330
10
102
}
330
10
100
AcDbMaterial
  1
ByBlock
 72
     0
 43
0.0208333333333333
 43
0.0
 43
0.0
 43
0.0
 43
0.0
 43
0.0208333333333333
 43
0.0
 43
0.0
 43
0.0
 43
0.0
 43
1.0
 43
0.0
 43
0.0
 43
0.0
 43
0.0
 43
1.0
 77
     0
 47
0.0208333333333333
 47
0.0
 47
0.0
 47
0.0
 47
0.0
 47
0.0208333333333333
 47
0.0
 47
0.0
 47
0.0
 47
0.0
 47
1.0
 47
0.0
 47
0.0
 47
0.0
 47
0.0
 47
1.0
171
     0
 49
0.0208333333333333
 49
0.0
 49
0.0
 49
0.0
 49
0.0
 49
0.0208333333333333
 49
0.0
 49
0.0
 49
0.0
 49
0.0
 49
1.0
 49
0.0
 49
0.0
 49
0.0
 49
0.0
 49
1.0
175
     0
142
0.0208333333333333
142
0.0
142
0.0
142
0.0
142
0.0
142
0.0208333333333333
142
0.0
142
0.0
142
0.0
142
0.0
142
1.0
142
0.0
142
0.0
142
0.0
142
0.0
142
1.0
179
     0
144
0.0208333333333333
144
0.0
144
0.0
144
0.0
144
0.0
144
0.0208333333333333
144
0.0
144
0.0
144
0.0
144
0.0
144
1.0
144
0.0
144
0.0
144
0.0
144
0.0
144
1.0
147
0.0208333333333333
147
0.0
147
0.0
147
0.0
147
0.0
147
0.0208333333333333
147
0.0
147
0.0
147
0.0
147
0.0
147
1.0
147
0.0
147
0.0
147
0.0
147
0.0
147
1.0
  0
MATERIAL
  5
11
102
{ACAD_XDICTIONARY
360
12
102
}
102
{ACAD_REACTORS
330
10
102
}
330
10
100
AcDbMaterial
  1
ByLayer
 72
     0
 43
0.0208333333333333
 43
0.0
 43
0.0
 43
0.0
 43
0.0
 43
0.0208333333333333
 43
0.0
 43
0.0
 43
0.0
 43
0.0
 43
1.0
 43
0.0
 43
0.0
 43
0.0
 43
0.0
 43
1.0
 77
     0
 47
0.0208333333333333
 47
0.0
 47
0.0
 47
0.0
 47
0.0
 47
0.0208333333333333
 47
0.0
 47
0.0
 47
0.0
 47
0.0
 47
1.0
 47
0.0
 47
0.0
 47
0.0
 47
0.0
 47
1.0
171
     0
 49
0.0208333333333333
 49
0.0
 49
0.0
 49
0.0
 49
0.0
 49
0.0208333333333333
 49
0.0
 49
0.0
 49
0.0
 49
0.0
 49
1.0
 49
0.0
 49
0.0
 49
0.0
 49
0.0
 49
1.0
175
     0
142
0.0208333333333333
142
0.0
142
0.0
142
0.0
142
0.0
142
0.0208333333333333
142
0.0
142
0.0
142
0.0
142
0.0
142
1.0
142
0.0
142
0.0
142
0.0
142
0.0
142
1.0
179
     0
144
0.0208333333333333
144
0.0
144
0.0
144
0.0
144
0.0
144
0.0208333333333333
144
0.0
144
0.0
144
0.0
144
0.0
144
1.0
144
0.0
144
0.0
144
0.0
144
0.0
144
1.0
147
0.0208333333333333
147
0.0
147
0.0
147
0.0
147
0.0
147
0.0208333333333333
147
0.0
147
0.0
147
0.0
147
0.0
147
1.0
147
0.0
147
0.0
147
0.0
147
0.0
147
1.0
  0
MATERIAL
  5
21
102
{ACAD_XDICTIONARY
360
22
102
}
102
{ACAD_REACTORS
330
10
102
}
330
10
100
AcDbMaterial
  1
Global
 72
     0
 43
0.0208333333333333
 43
0.0
 43
0.0
 43
0.0
 43
0.0
 43
0.0208333333333333
 43
0.0
 43
0.0
 43
0.0
 43
0.0
 43
1.0
 43
0.0
 43
0.0
 43
0.0
 43
0.0
 43
1.0
 77
     0
 47
0.0208333333333333
 47
0.0
 47
0.0
 47
0.0
 47
0.0
 47
0.0208333333333333
 47
0.0
 47
0.0
 47
0.0
 47
0.0
 47
1.0
 47
0.0
 47
0.0
 47
0.0
 47
0.0
 47
1.0
171
     0
 49
0.0208333333333333
 49
0.0
 49
0.0
 49
0.0
 49
0.0
 49
0.0208333333333333
 49
0.0
 49
0.0
 49
0.0
 49
0.0
 49
1.0
 49
0.0
 49
0.0
 49
0.0
 49
0.0
 49
1.0
175
     0
142
0.0208333333333333
142
0.0
142
0.0
142
0.0
142
0.0
142
0.0208333333333333
142
0.0
142
0.0
142
0.0
142
0.0
142
1.0
142
0.0
142
0.0
142
0.0
142
0.0
142
1.0
179
     0
144
0.0208333333333333
144
0.0
144
0.0
144
0.0
144
0.0
144
0.0208333333333333
144
0.0
144
0.0
144
0.0
144
0.0
144
1.0
144
0.0
144
0.0
144
0.0
144
0.0
144
1.0
147
0.0208333333333333
147
0.0
147
0.0
147
0.0
147
0.0
147
0.0208333333333333
147
0.0
147
0.0
147
0.0
147
0.0
147
1.0
147
0.0
147
0.0
147
0.0
147
0.0
147
1.0
  0
MLEADERSTYLE
  5
67
102
{ACAD_REACTORS
330
66
102
}
330
66
100
AcDbMLeaderStyle
179
     2
170
     2
171
     1
172
     0
 90
        2
 40
0.0
 41
0.0
173
     1
 91
-1056964608
340
5B
 92
       -2
290
     1
 42
0.09
291
     1
 43
0.36
  3
Standard
 44
0.18
300

342
55
174
     1
178
     6
175
     1
176
     0
 93
-1056964608
 45
0.18
292
     0
297
     0
 46
0.18
 94
-1056964608
 47
1.0
 49
1.0
140
1.0
293
     1
141
0.0
294
     1
177
     0
142
1.0
295
     1
296
     0
143
0.125
271
     0
272
     9
273
     9
298
     1
  0
MLINESTYLE
  5
60
102
{ACAD_REACTORS
330
5F
102
}
330
5F
100
AcDbMlineStyle
  2
STANDARD
 70
     0
  3

 62
   256
 51
90.0
 52
90.0
 71
     2
 49
0.5
 62
   256
  6
BYLAYER
 49
-0.5
 62
   256
  6
BYLAYER
  0
ACDBPLACEHOLDER
  5
F
102
{ACAD_REACTORS
330
E
102
}
330
E
  0
SCALE
  5
43
102
{ACAD_REACTORS
330
42
102
}
330
42
100
AcDbScale
 70
     0
300
1:1
140
1.0
141
1.0
290
     1
  0
SCALE
  5
44
102
{ACAD_REACTORS
330
42
102
}
330
42
100
AcDbScale
 70
     0
300
1/128" = 1'-0"
140
0.0078125
141
12.0
290
     0
  0
SCALE
  5
45
102
{ACAD_REACTORS
330
42
102
}
330
42
100
AcDbScale
 70
     0
300
1/64" = 1'-0"
140
0.015625
141
12.0
290
     0
  0
SCALE
  5
46
102
{ACAD_REACTORS
330
42
102
}
330
42
100
AcDbScale
 70
     0
300
1/32" = 1'-0"
140
0.03125
141
12.0
290
     0
  0
SCALE
  5
47
102
{ACAD_REACTORS
330
42
102
}
330
42
100
AcDbScale
 70
     0
300
1/16" = 1'-0"
140
0.0625
141
12.0
290
     0
  0
SCALE
  5
48
102
{ACAD_REACTORS
330
42
102
}
330
42
100
AcDbScale
 70
     0
300
3/32" = 1'-0"
140
0.09375
141
12.0
290
     0
  0
SCALE
  5
49
102
{ACAD_REACTORS
330
42
102
}
330
42
100
AcDbScale
 70
     0
300
1/8" = 1'-0"
140
0.125
141
12.0
290
     0
  0
SCALE
  5
4A
102
{ACAD_REACTORS
330
42
102
}
330
42
100
AcDbScale
 70
     0
300
3/16" = 1'-0"
140
0.1875
141
12.0
290
     0
  0
SCALE
  5
4B
102
{ACAD_REACTORS
330
42
102
}
330
42
100
AcDbScale
 70
     0
300
1/4" = 1'-0"
140
0.25
141
12.0
290
     0
  0
SCALE
  5
4C
102
{ACAD_REACTORS
330
42
102
}
330
42
100
AcDbScale
 70
     0
300
3/8" = 1'-0"
140
0.375
141
12.0
290
     0
  0
SCALE
  5
4D
102
{ACAD_REACTORS
330
42
102
}
330
42
100
AcDbScale
 70
     0
300
1/2" = 1'-0"
140
0.5
141
12.0
290
     0
  0
SCALE
  5
4E
102
{ACAD_REACTORS
330
42
102
}
330
42
100
AcDbScale
 70
     0
300
3/4" = 1'-0"
140
0.75
141
12.0
290
     0
  0
SCALE
  5
4F
102
{ACAD_REACTORS
330
42
102
}
330
42
100
AcDbScale
 70
     0
300
1" = 1'-0"
140
1.0
141
12.0
290
     0
  0
SCALE
  5
50
102
{ACAD_REACTORS
330
42
102
}
330
42
100
AcDbScale
 70
     0
300
1-1/2" = 1'-0"
140
1.5
141
12.0
290
     0
  0
SCALE
  5
51
102
{ACAD_REACTORS
330
42
102
}
330
42
100
AcDbScale
 70
     0
300
3" = 1'-0"
140
3.0
141
12.0
290
     0
  0
SCALE
  5
52
102
{ACAD_REACTORS
330
42
102
}
330
42
100
AcDbScale
 70
     0
300
6" = 1'-0"
140
6.0
141
12.0
290
     0
  0
SCALE
  5
53
102
{ACAD_REACTORS
330
42
102
}
330
42
100
AcDbScale
 70
     0
300
1'-0" = 1'-0"
140
12.0
141
12.0
290
     0
  0
ACDBSECTIONVIEWSTYLE
  5
69
102
{ACAD_REACTORS
330
68
102
}
330
68
100
AcDbModelDocViewStyle
 70
     0
  3
Imperial24
290
     1
300
Imperial24
 90
        0
100
AcDbSectionViewStyle
 70
     0
 71
     0
 90
       78
 71
     1
340
55
 62
   256
 40
0.24
340
0
340
0
 62
   256
 40
0.24
300
I, O, Q, S, X, Z
 40
0.48
 90
        3
 40
0.18
 90
        1
 71
     2
340
5D
 90
       25
 62
   256
340
5D
 90
       50
 62
   256
 40
0.24
 40
0.0
 40
0.24
 71
     3
340
55
 62
   256
 40
0.24
 90
        1
 40
0.75
 90
        1
300
%<\AcVar ViewType \f "%tc1">% %<\AcVar ViewSectionStartId>%-%<\AcVar ViewSectionEndId>%\PSCALE %<\AcVar ViewScale \f "%sn">%
 71
     4
 62
   256
 62
   257
300
ANSI31
 40
1.0
 90
        0
290
     0
290
     0
 90
        6
 40
0.0
 40
1.570796326794896
 40
0.2617993877991494
 40
1.308996938995747
 40
-0.2617993877991494
 40
1.832595714594046
  0
TABLESTYLE
  5
65
102
{ACAD_XDICTIONARY
360
9C
102
}
102
{ACAD_REACTORS
330
64
102
}
330
64
100
AcDbTableStyle
280
     0
  3
Standard
 70
     0
 71
     0
 40
0.06
 41
0.06
280
     0
281
     0
  7
Standard
140
0.18
170
     2
 62
     0
 63
     7
283
     0
 90
      512
 91
        0
  1

274
    -2
284
     1
 64
     0
275
    -2
285
     1
 65
     0
276
    -2
286
     1
 66
     0
277
    -2
287
     1
 67
     0
278
    -2
288
     1
 68
     0
279
    -2
289
     1
 69
     0
  7
Standard
140
0.25
170
     5
 62
     0
 63
     7
283
     0
 90
      512
 91
        0
  1

274
    -2
284
     1
 64
     0
275
    -2
285
     1
 65
     0
276
    -2
286
     1
 66
     0
277
    -2
287
     1
 67
     0
278
    -2
288
     1
 68
     0
279
    -2
289
     1
 69
     0
  7
Standard
140
0.18
170
     5
 62
     0
 63
     7
283
     0
 90
      512
 91
        0
  1

274
    -2
284
     1
 64
     0
275
    -2
285
     1
 65
     0
276
    -2
286
     1
 66
     0
277
    -2
287
     1
 67
     0
278
    -2
288
     1
 68
     0
279
    -2
289
     1
 69
     0
  0
VISUALSTYLE
  5
2F
102
{ACAD_REACTORS
330
29
102
}
330
29
100
AcDbVisualStyle
  2
2dWireframe
 70
     4
177
     3
291
     0
 70
    58
 90
        0
176
     1
 90
        2
176
     1
 90
        0
176
     1
 90
        0
176
     1
 40
0.6
176
     1
 40
30.0
176
     1
 62
     7
420
 16777215
176
     1
 90
        1
176
     1
 90
        4
176
     1
 62
     7
176
     1
 62
   257
176
     1
 90
        1
176
     1
 90
        1
176
     1
 40
1.0
176
     1
 90
        0
176
     1
 62
   257
176
     1
 40
1.0
176
     1
 90
        1
176
     1
 90
        6
176
     1
 90
        2
176
     1
 62
     7
176
     1
 90
        5
176
     1
 90
        0
176
     1
 90
        0
176
     1
290
     0
176
     1
 90
        1
176
     1
 40
0.0
176
     1
 90
        0
176
     1
290
     1
176
     1
290
     1
176
     1
290
     0
176
     1
290
     0
176
     1
290
     0
176
     1
290
     0
176
     1
290
     0
176
     1
290
     0
176
     1
290
     0
176
     1
 90
       50
176
     1
 40
0.0
176
     1
 40
1.0
176
     1
 90
        0
176
     1
 62
    18
420
        0
176
     1
 90
       50
176
     1
 90
        3
176
     1
 62
     5
420
      255
176
     1
290
     0
176
     1
 90
       50
176
     1
 90
       50
176
     1
 90
       50
176
     1
290
     0
176
     1
 90
       50
176
     1
 62
   256
176
     0
 40
1.0
176
     0
 90
        2
176
     1
  1
strokes_ogs.tif
176
     1
290
     0
176
     1
 40
1.0
176
     1
 40
1.0
176
     1
  0
VISUALSTYLE
  5
2E
102
{ACAD_REACTORS
330
29
102
}
330
29
100
AcDbVisualStyle
  2
Basic
 70
     7
177
     3
291
     1
 70
    58
 90
        1
176
     1
 90
        0
176
     1
 90
        1
176
     1
 90
        0
176
     1
 40
0.6
176
     1
 40
30.0
176
     1
 62
     7
420
 16777215
176
     1
 90
        0
176
     1
 90
        4
176
     1
 62
     7
176
     1
 62
   257
176
     1
 90
        1
176
     1
 90
        1
176
     1
 40
1.0
176
     1
 90
        8
176
     1
 62
     7
176
     1
 40
1.0
176
     1
 90
        1
176
     1
 90
        6
176
     1
 90
        2
176
     1
 62
     7
176
     1
 90
        5
176
     1
 90
        0
176
     1
 90
        0
176
     1
290
     0
176
     1
 90
        1
176
     1
 40
0.0
176
     1
 90
        0
176
     1
290
     0
176
     1
290
     1
176
     1
290
     1
176
     1
290
     0
176
     1
290
     0
176
     1
290
     0
176
     1
290
     0
176
     1
290
     0
176
     1
290
     0
176
     1
 90
       50
176
     1
 40
0.0
176
     1
 40
1.0
176
     1
 90
        0
176
     1
 62
    18
420
        0
176
     1
 90
       50
176
     1
 90
        3
176
     1
 62
     5
420
      255
176
     1
290
     0
176
     1
 90
       50
176
     1
 90
       50
176
     1
 90
       50
176
     1
290
     0
176
     1
 90
       50
176
     1
 62
   256
176
     0
 40
1.0
176
     0
 90
        2
176
     1
  1
strokes_ogs.tif
176
     1
290
     0
176
     1
 40
1.0
176
     1
 40
1.0
176
     1
  0
VISUALSTYLE
  5
35
102
{ACAD_REACTORS
330
29
102
}
330
29
100
AcDbVisualStyle
  2
Brighten
 70
    12
177
     3
291
     1
 70
    58
 90
        2
176
     1
 90
        2
176
     1
 90
        0
176
     1
 90
        0
176
     1
 40
0.6
176
     1
 40
30.0
176
     1
 62
     7
420
 16777215
176
     1
 90
        1
176
     1
 90
        4
176
     1
 62
     7
176
     1
 62
   257
176
     1
 90
        1
176
     1
 90
        1
176
     1
 40
1.0
176
     1
 90
        8
176
     1
 62
     7
176
     1
 40
1.0
176
     1
 90
        1
176
     1
 90
        6
176
     1
 90
        2
176
     1
 62
     7
176
     1
 90
        5
176
     1
 90
        0
176
     1
 90
        0
176
     1
290
     0
176
     1
 90
        1
176
     1
 40
50.0
176
     1
 90
        0
176
     1
290
     0
176
     1
290
     1
176
     1
290
     1
176
     1
290
     0
176
     1
290
     0
176
     1
290
     0
176
     1
290
     0
176
     1
290
     0
176
     1
290
     0
176
     1
 90
       50
176
     1
 40
0.0
176
     1
 40
1.0
176
     1
 90
        0
176
     1
 62
    18
420
        0
176
     1
 90
       50
176
     1
 90
        3
176
     1
 62
     5
420
      255
176
     1
290
     0
176
     1
 90
       50
176
     1
 90
       50
176
     1
 90
       50
176
     1
290
     0
176
     1
 90
       50
176
     1
 62
   256
176
     0
 40
1.0
176
     0
 90
        2
176
     1
  1
strokes_ogs.tif
176
     1
290
     0
176
     1
 40
1.0
176
     1
 40
1.0
176
     1
  0
VISUALSTYLE
  5
39
102
{ACAD_REACTORS
330
29
102
}
330
29
100
AcDbVisualStyle
  2
ColorChange
 70
    16
177
     3
291
     1
 70
    58
 90
        2
176
     1
 90
        2
176
     1
 90
        3
176
     1
 90
        0
176
     1
 40
0.6
176
     1
 40
30.0
176
     1
 62
     8
420
  8421504
176
     1
 90
        1
176
     1
 90
        4
176
     1
 62
     7
176
     1
 62
   257
176
     1
 90
        1
176
     1
 90
        1
176
     1
 40
1.0
176
     1
 90
        8
176
     1
 62
     8
420
  8421504
176
     1
 40
1.0
176
     1
 90
        1
176
     1
 90
        6
176
     1
 90
        2
176
     1
 62
     7
176
     1
 90
        5
176
     1
 90
        0
176
     1
 90
        0
176
     1
290
     0
176
     1
 90
        1
176
     1
 40
0.0
176
     1
 90
        0
176
     1
290
     0
176
     1
290
     1
176
     1
290
     1
176
     1
290
     0
176
     1
290
     0
176
     1
290
     0
176
     1
290
     0
176
     1
290
     0
176
     1
290
     0
176
     1
 90
       50
176
     1
 40
0.0
176
     1
 40
1.0
176
     1
 90
        0
176
     1
 62
    18
420
        0
176
     1
 90
       50
176
     1
 90
        3
176
     1
 62
     5
420
      255
176
     1
290
     0
176
     1
 90
       50
176
     1
 90
       50
176
     1
 90
       50
176
     1
290
     0
176
     1
 90
       50
176
     1
 62
   256
176
     0
 40
1.0
176
     0
 90
        2
176
     1
  1
strokes_ogs.tif
176
     1
290
     0
176
     1
 40
1.0
176
     1
 40
1.0
176
     1
  0
VISUALSTYLE
  5
32
102
{ACAD_REACTORS
330
29
102
}
330
29
100
AcDbVisualStyle
  2
Conceptual
 70
     9
177
     3
291
     0
 70
    58
 90
        3
176
     1
 90
        2
176
     1
 90
        0
176
     1
 90
        0
176
     1
 40
0.6
176
     1
 40
30.0
176
     1
 62
     7
420
 16777215
176
     1
 90
        2
176
     1
 90
        2
176
     1
 62
     7
176
     1
 62
   257
176
     1
 90
        1
176
     1
 90
        1
176
     1
 40
179.0
176
     1
 90
        8
176
     1
 62
     7
176
     1
 40
1.0
176
     1
 90
        1
176
     1
 90
        6
176
     1
 90
        2
176
     1
 62
     7
176
     1
 90
        3
176
     1
 90
        0
176
     1
 90
        0
176
     1
290
     0
176
     1
 90
        1
176
     1
 40
0.0
176
     1
 90
        0
176
     1
290
     0
176
     1
290
     1
176
     1
290
     1
176
     1
290
     0
176
     1
290
     0
176
     1
290
     0
176
     1
290
     0
176
     1
290
     0
176
     1
290
     0
176
     1
 90
       50
176
     1
 40
0.0
176
     1
 40
1.0
176
     1
 90
        0
176
     1
 62
    18
420
        0
176
     1
 90
       50
176
     1
 90
        3
176
     1
 62
     5
420
      255
176
     1
290
     0
176
     1
 90
       50
176
     1
 90
       50
176
     1
 90
       50
176
     1
290
     0
176
     1
 90
       50
176
     1
 62
   256
176
     0
 40
1.0
176
     0
 90
        2
176
     1
  1
strokes_ogs.tif
176
     1
290
     0
176
     1
 40
1.0
176
     1
 40
1.0
176
     1
  0
VISUALSTYLE
  5
34
102
{ACAD_REACTORS
330
29
102
}
330
29
100
AcDbVisualStyle
  2
Dim
 70
    11
177
     3
291
     1
 70
    58
 90
        2
176
     1
 90
        2
176
     1
 90
        0
176
     1
 90
        0
176
     1
 40
0.6
176
     1
 40
30.0
176
     1
 62
     7
420
 16777215
176
     1
 90
        1
176
     1
 90
        4
176
     1
 62
     7
176
     1
 62
   257
176
     1
 90
        1
176
     1
 90
        1
176
     1
 40
1.0
176
     1
 90
        8
176
     1
 62
     7
176
     1
 40
1.0
176
     1
 90
        1
176
     1
 90
        6
176
     1
 90
        2
176
     1
 62
     7
176
     1
 90
        5
176
     1
 90
        0
176
     1
 90
        0
176
     1
290
     0
176
     1
 90
        1
176
     1
 40
-50.0
176
     1
 90
        0
176
     1
290
     0
176
     1
290
     1
176
     1
290
     1
176
     1
290
     0
176
     1
290
     0
176
     1
290
     0
176
     1
290
     0
176
     1
290
     0
176
     1
290
     0
176
     1
 90
       50
176
     1
 40
0.0
176
     1
 40
1.0
176
     1
 90
        0
176
     1
 62
    18
420
        0
176
     1
 90
       50
176
     1
 90
        3
176
     1
 62
     5
420
      255
176
     1
290
     0
176
     1
 90
       50
176
     1
 90
       50
176
     1
 90
       50
176
     1
290
     0
176
     1
 90
       50
176
     1
 62
   256
176
     0
 40
1.0
176
     0
 90
        2
176
     1
  1
strokes_ogs.tif
176
     1
290
     0
176
     1
 40
1.0
176
     1
 40
1.0
176
     1
  0
VISUALSTYLE
  5
41
102
{ACAD_REACTORS
330
29
102
}
330
29
100
AcDbVisualStyle
  2
EdgeColorOff
 70
    22
177
     3
291
     1
 70
    58
 90
        2
176
     0
 90
        2
176
     0
 90
        0
176
     0
 90
        0
176
     0
 40
0.6
176
     0
 40
30.0
176
     0
 62
     7
420
 16777215
176
     0
 90
        1
176
     0
 90
        4
176
     0
 62
     7
176
     0
 62
   257
176
     0
 90
        1
176
     0
 90
        1
176
     0
 40
1.0
176
     0
 90
        8
176
     2
 62
     7
176
     0
 40
1.0
176
     0
 90
        1
176
     0
 90
        6
176
     0
 90
        2
176
     0
 62
     7
176
     0
 90
        5
176
     0
 90
        0
176
     0
 90
        0
176
     0
290
     0
176
     0
 90
        1
176
     0
 40
0.0
176
     0
 90
        0
176
     0
290
     0
176
     0
290
     1
176
     0
290
     1
176
     0
290
     0
176
     0
290
     0
176
     0
290
     0
176
     0
290
     0
176
     0
290
     0
176
     0
290
     0
176
     0
 90
       50
176
     0
 40
0.0
176
     0
 40
1.0
176
     0
 90
        0
176
     0
 62
    18
420
        0
176
     0
 90
       50
176
     0
 90
        3
176
     0
 62
     5
420
      255
176
     0
290
     0
176
     0
 90
       50
176
     0
 90
       50
176
     0
 90
       50
176
     0
290
     0
176
     0
 90
       50
176
     0
 62
   256
176
     0
 40
1.0
176
     0
 90
        2
176
     0
  1
strokes_ogs.tif
176
     0
290
     0
176
     0
 40
1.0
176
     0
 40
1.0
176
     0
  0
VISUALSTYLE
  5
38
102
{ACAD_REACTORS
330
29
102
}
330
29
100
AcDbVisualStyle
  2
Facepattern
 70
    15
177
     3
291
     1
 70
    58
 90
        2
176
     1
 90
        2
176
     1
 90
        0
176
     1
 90
        0
176
     1
 40
0.6
176
     1
 40
30.0
176
     1
 62
     7
420
 16777215
176
     1
 90
        1
176
     1
 90
        4
176
     1
 62
     7
176
     1
 62
   257
176
     1
 90
        1
176
     1
 90
        1
176
     1
 40
1.0
176
     1
 90
        8
176
     1
 62
     7
176
     1
 40
1.0
176
     1
 90
        1
176
     1
 90
        6
176
     1
 90
        2
176
     1
 62
     7
176
     1
 90
        5
176
     1
 90
        0
176
     1
 90
        0
176
     1
290
     0
176
     1
 90
        1
176
     1
 40
0.0
176
     1
 90
        0
176
     1
290
     0
176
     1
290
     1
176
     1
290
     1
176
     1
290
     0
176
     1
290
     0
176
     1
290
     0
176
     1
290
     0
176
     1
290
     0
176
     1
290
     0
176
     1
 90
       50
176
     1
 40
0.0
176
     1
 40
1.0
176
     1
 90
        0
176
     1
 62
    18
420
        0
176
     1
 90
       50
176
     1
 90
        3
176
     1
 62
     5
420
      255
176
     1
290
     0
176
     1
 90
       50
176
     1
 90
       50
176
     1
 90
       50
176
     1
290
     0
176
     1
 90
       50
176
     1
 62
   256
176
     0
 40
1.0
176
     0
 90
        2
176
     1
  1
strokes_ogs.tif
176
     1
290
     0
176
     1
 40
1.0
176
     1
 40
1.0
176
     1
  0
VISUALSTYLE
  5
2A
102
{ACAD_REACTORS
330
29
102
}
330
29
100
AcDbVisualStyle
  2
Flat
 70
     0
177
     3
291
     1
 70
    58
 90
        2
176
     1
 90
        1
176
     1
 90
        1
176
     1
 90
        2
176
     1
 40
0.6
176
     1
 40
30.0
176
     1
 62
     7
420
 16777215
176
     1
 90
        0
176
     1
 90
        0
176
     1
 62
     7
176
     1
 62
   257
176
     1
 90
        1
176
     1
 90
        1
176
     1
 40
1.0
176
     1
 90
        8
176
     1
 62
     7
176
     1
 40
1.0
176
     1
 90
        1
176
     1
 90
        6
176
     1
 90
        2
176
     1
 62
     7
176
     1
 90
        5
176
     1
 90
        0
176
     1
 90
        0
176
     1
290
     0
176
     1
 90
       13
176
     1
 40
0.0
176
     1
 90
        0
176
     1
290
     0
176
     1
290
     1
176
     1
290
     1
176
     1
290
     0
176
     1
290
     0
176
     1
290
     0
176
     1
290
     0
176
     1
290
     0
176
     1
290
     0
176
     1
 90
       50
176
     1
 40
0.0
176
     1
 40
1.0
176
     1
 90
        0
176
     1
 62
    18
420
        0
176
     1
 90
       50
176
     1
 90
        3
176
     1
 62
     5
420
      255
176
     1
290
     0
176
     1
 90
       50
176
     1
 90
       50
176
     1
 90
       50
176
     1
290
     0
176
     1
 90
       50
176
     1
 62
   256
176
     0
 40
1.0
176
     0
 90
        2
176
     1
  1
strokes_ogs.tif
176
     1
290
     0
176
     1
 40
1.0
176
     1
 40
1.0
176
     1
  0
VISUALSTYLE
  5
2B
102
{ACAD_REACTORS
330
29
102
}
330
29
100
AcDbVisualStyle
  2
FlatWithEdges
 70
     1
177
     3
291
     1
 70
    58
 90
        2
176
     1
 90
        1
176
     1
 90
        1
176
     1
 90
        2
176
     1
 40
0.6
176
     1
 40
30.0
176
     1
 62
     7
420
 16777215
176
     1
 90
        1
176
     1
 90
        0
176
     1
 62
     7
176
     1
 62
   257
176
     1
 90
        1
176
     1
 90
        1
176
     1
 40
1.0
176
     1
 90
        0
176
     1
 62
   257
176
     1
 40
1.0
176
     1
 90
        1
176
     1
 90
        6
176
     1
 90
        2
176
     1
 62
     7
176
     1
 90
        5
176
     1
 90
        0
176
     1
 90
        0
176
     1
290
     0
176
     1
 90
       13
176
     1
 40
0.0
176
     1
 90
        0
176
     1
290
     0
176
     1
290
     1
176
     1
290
     1
176
     1
290
     0
176
     1
290
     0
176
     1
290
     0
176
     1
290
     0
176
     1
290
     0
176
     1
290
     0
176
     1
 90
       50
176
     1
 40
0.0
176
     1
 40
1.0
176
     1
 90
        0
176
     1
 62
    18
420
        0
176
     1
 90
       50
176
     1
 90
        3
176
     1
 62
     5
420
      255
176
     1
290
     0
176
     1
 90
       50
176
     1
 90
       50
176
     1
 90
       50
176
     1
290
     0
176
     1
 90
       50
176
     1
 62
   256
176
     0
 40
1.0
176
     0
 90
        2
176
     1
  1
strokes_ogs.tif
176
     1
290
     0
176
     1
 40
1.0
176
     1
 40
1.0
176
     1
  0
VISUALSTYLE
  5
2C
102
{ACAD_REACTORS
330
29
102
}
330
29
100
AcDbVisualStyle
  2
Gouraud
 70
     2
177
     3
291
     1
 70
    58
 90
        2
176
     1
 90
        2
176
     1
 90
        1
176
     1
 90
        2
176
     1
 40
0.6
176
     1
 40
30.0
176
     1
 62
     7
420
 16777215
176
     1
 90
        0
176
     1
 90
        0
176
     1
 62
     7
176
     1
 62
   257
176
     1
 90
        1
176
     1
 90
        1
176
     1
 40
1.0
176
     1
 90
        0
176
     1
 62
     7
176
     1
 40
1.0
176
     1
 90
        1
176
     1
 90
        6
176
     1
 90
        2
176
     1
 62
     7
176
     1
 90
        5
176
     1
 90
        0
176
     1
 90
        0
176
     1
290
     0
176
     1
 90
       13
176
     1
 40
0.0
176
     1
 90
        0
176
     1
290
     0
176
     1
290
     1
176
     1
290
     1
176
     1
290
     0
176
     1
290
     0
176
     1
290
     0
176
     1
290
     0
176
     1
290
     0
176
     1
290
     0
176
     1
 90
       50
176
     1
 40
0.0
176
     1
 40
1.0
176
     1
 90
        0
176
     1
 62
    18
420
        0
176
     1
 90
       50
176
     1
 90
        3
176
     1
 62
     5
420
      255
176
     1
290
     0
176
     1
 90
       50
176
     1
 90
       50
176
     1
 90
       50
176
     1
290
     0
176
     1
 90
       50
176
     1
 62
   256
176
     0
 40
1.0
176
     0
 90
        2
176
     1
  1
strokes_ogs.tif
176
     1
290
     0
176
     1
 40
1.0
176
     1
 40
1.0
176
     1
  0
VISUALSTYLE
  5
2D
102
{ACAD_REACTORS
330
29
102
}
330
29
100
AcDbVisualStyle
  2
GouraudWithEdges
 70
     3
177
     3
291
     1
 70
    58
 90
        2
176
     1
 90
        2
176
     1
 90
        1
176
     1
 90
        2
176
     1
 40
0.6
176
     1
 40
30.0
176
     1
 62
     7
420
 16777215
176
     1
 90
        1
176
     1
 90
        0
176
     1
 62
     7
176
     1
 62
   257
176
     1
 90
        1
176
     1
 90
        1
176
     1
 40
1.0
176
     1
 90
        0
176
     1
 62
   257
176
     1
 40
1.0
176
     1
 90
        1
176
     1
 90
        6
176
     1
 90
        2
176
     1
 62
     7
176
     1
 90
        5
176
     1
 90
        0
176
     1
 90
        0
176
     1
290
     0
176
     1
 90
       13
176
     1
 40
0.0
176
     1
 90
        0
176
     1
290
     0
176
     1
290
     1
176
     1
290
     1
176
     1
290
     0
176
     1
290
     0
176
     1
290
     0
176
     1
290
     0
176
     1
290
     0
176
     1
290
     0
176
     1
 90
       50
176
     1
 40
0.0
176
     1
 40
1.0
176
     1
 90
        0
176
     1
 62
    18
420
        0
176
     1
 90
       50
176
     1
 90
        3
176
     1
 62
     5
420
      255
176
     1
290
     0
176
     1
 90
       50
176
     1
 90
       50
176
     1
 90
       50
176
     1
290
     0
176
     1
 90
       50
176
     1
 62
   256
176
     0
 40
1.0
176
     0
 90
        2
176
     1
  1
strokes_ogs.tif
176
     1
290
     0
176
     1
 40
1.0
176
     1
 40
1.0
176
     1
  0
VISUALSTYLE
  5
31
102
{ACAD_REACTORS
330
29
102
}
330
29
100
AcDbVisualStyle
  2
Hidden
 70
     6
177
     3
291
     0
 70
    58
 90
        1
176
     1
 90
        2
176
     1
 90
        2
176
     1
 90
        0
176
     1
 40
0.6
176
     1
 40
30.0
176
     1
 62
     7
420
 16777215
176
     1
 90
        2
176
     1
 90
        2
176
     1
 62
     7
176
     1
 62
   257
176
     1
 90
        2
176
     1
 90
        1
176
     1
 40
40.0
176
     1
 90
        0
176
     1
 62
   257
176
     1
 40
1.0
176
     1
 90
        1
176
     1
 90
        6
176
     1
 90
        2
176
     1
 62
     7
176
     1
 90
        3
176
     1
 90
        0
176
     1
 90
        0
176
     1
290
     0
176
     1
 90
        1
176
     1
 40
0.0
176
     1
 90
        0
176
     1
290
     0
176
     1
290
     1
176
     1
290
     1
176
     1
290
     0
176
     1
290
     0
176
     1
290
     0
176
     1
290
     0
176
     1
290
     0
176
     1
290
     0
176
     1
 90
       50
176
     1
 40
0.0
176
     1
 40
1.0
176
     1
 90
        0
176
     1
 62
    18
420
        0
176
     1
 90
       50
176
     1
 90
        3
176
     1
 62
     5
420
      255
176
     1
290
     0
176
     1
 90
       50
176
     1
 90
       50
176
     1
 90
       50
176
     1
290
     0
176
     1
 90
       50
176
     1
 62
   256
176
     0
 40
1.0
176
     0
 90
        2
176
     1
  1
strokes_ogs.tif
176
     1
290
     0
176
     1
 40
1.0
176
     1
 40
1.0
176
     1
  0
VISUALSTYLE
  5
3F
102
{ACAD_REACTORS
330
29
102
}
330
29
100
AcDbVisualStyle
  2
JitterOff
 70
    20
177
     3
291
     1
 70
    58
 90
        2
176
     0
 90
        2
176
     0
 90
        0
176
     0
 90
        0
176
     0
 40
0.6
176
     0
 40
30.0
176
     0
 62
     7
420
 16777215
176
     0
 90
        1
176
     0
 90
        4
176
     0
 62
     7
176
     0
 62
   257
176
     0
 90
        1
176
     0
 90
        1
176
     0
 40
1.0
176
     0
 90
       10
176
     2
 62
     7
176
     0
 40
1.0
176
     0
 90
        1
176
     0
 90
        6
176
     0
 90
        2
176
     0
 62
     7
176
     0
 90
        5
176
     0
 90
        0
176
     0
 90
        0
176
     0
290
     0
176
     0
 90
        1
176
     0
 40
0.0
176
     0
 90
        0
176
     0
290
     0
176
     0
290
     1
176
     0
290
     1
176
     0
290
     0
176
     0
290
     0
176
     0
290
     0
176
     0
290
     0
176
     0
290
     0
176
     0
290
     0
176
     0
 90
       50
176
     0
 40
0.0
176
     0
 40
1.0
176
     0
 90
        0
176
     0
 62
    18
420
        0
176
     0
 90
       50
176
     0
 90
        3
176
     0
 62
     5
420
      255
176
     0
290
     0
176
     0
 90
       50
176
     0
 90
       50
176
     0
 90
       50
176
     0
290
     0
176
     0
 90
       50
176
     0
 62
   256
176
     0
 40
1.0
176
     0
 90
        2
176
     0
  1
strokes_ogs.tif
176
     0
290
     0
176
     0
 40
1.0
176
     0
 40
1.0
176
     0
  0
VISUALSTYLE
  5
37
102
{ACAD_REACTORS
330
29
102
}
330
29
100
AcDbVisualStyle
  2
Linepattern
 70
    14
177
     3
291
     1
 70
    58
 90
        2
176
     1
 90
        2
176
     1
 90
        0
176
     1
 90
        0
176
     1
 40
0.6
176
     1
 40
30.0
176
     1
 62
     7
420
 16777215
176
     1
 90
        1
176
     1
 90
        4
176
     1
 62
     7
176
     1
 62
   257
176
     1
 90
        7
176
     1
 90
        7
176
     1
 40
1.0
176
     1
 90
        8
176
     1
 62
     7
176
     1
 40
1.0
176
     1
 90
        1
176
     1
 90
        6
176
     1
 90
        2
176
     1
 62
     7
176
     1
 90
        5
176
     1
 90
        0
176
     1
 90
        0
176
     1
290
     0
176
     1
 90
        1
176
     1
 40
0.0
176
     1
 90
        0
176
     1
290
     0
176
     1
290
     1
176
     1
290
     1
176
     1
290
     0
176
     1
290
     0
176
     1
290
     0
176
     1
290
     0
176
     1
290
     0
176
     1
290
     0
176
     1
 90
       50
176
     1
 40
0.0
176
     1
 40
1.0
176
     1
 90
        0
176
     1
 62
    18
420
        0
176
     1
 90
       50
176
     1
 90
        3
176
     1
 62
     5
420
      255
176
     1
290
     0
176
     1
 90
       50
176
     1
 90
       50
176
     1
 90
       50
176
     1
290
     0
176
     1
 90
       50
176
     1
 62
   256
176
     0
 40
1.0
176
     0
 90
        2
176
     1
  1
strokes_ogs.tif
176
     1
290
     0
176
     1
 40
1.0
176
     1
 40
1.0
176
     1
  0
VISUALSTYLE
  5
40
102
{ACAD_REACTORS
330
29
102
}
330
29
100
AcDbVisualStyle
  2
OverhangOff
 70
    21
177
     3
291
     1
 70
    58
 90
        2
176
     0
 90
        2
176
     0
 90
        0
176
     0
 90
        0
176
     0
 40
0.6
176
     0
 40
30.0
176
     0
 62
     7
420
 16777215
176
     0
 90
        1
176
     0
 90
        4
176
     0
 62
     7
176
     0
 62
   257
176
     0
 90
        1
176
     0
 90
        1
176
     0
 40
1.0
176
     0
 90
        9
176
     2
 62
     7
176
     0
 40
1.0
176
     0
 90
        1
176
     0
 90
        6
176
     0
 90
        2
176
     0
 62
     7
176
     0
 90
        5
176
     0
 90
        0
176
     0
 90
        0
176
     0
290
     0
176
     0
 90
        1
176
     0
 40
0.0
176
     0
 90
        0
176
     0
290
     0
176
     0
290
     1
176
     0
290
     1
176
     0
290
     0
176
     0
290
     0
176
     0
290
     0
176
     0
290
     0
176
     0
290
     0
176
     0
290
     0
176
     0
 90
       50
176
     0
 40
0.0
176
     0
 40
1.0
176
     0
 90
        0
176
     0
 62
    18
420
        0
176
     0
 90
       50
176
     0
 90
        3
176
     0
 62
     5
420
      255
176
     0
290
     0
176
     0
 90
       50
176
     0
 90
       50
176
     0
 90
       50
176
     0
290
     0
176
     0
 90
       50
176
     0
 62
   256
176
     0
 40
1.0
176
     0
 90
        2
176
     0
  1
strokes_ogs.tif
176
     0
290
     0
176
     0
 40
1.0
176
     0
 40
1.0
176
     0
  0
VISUALSTYLE
  5
33
102
{ACAD_REACTORS
330
29
102
}
330
29
100
AcDbVisualStyle
  2
Realistic
 70
     8
177
     3
291
     0
 70
    58
 90
        2
176
     1
 90
        3
176
     1
 90
        0
176
     1
 90
        2
176
     1
 40
0.6
176
     1
 40
30.0
176
     1
 62
     7
420
 16777215
176
     1
 90
        0
176
     1
 90
        0
176
     1
 62
     7
176
     1
 62
   257
176
     1
 90
        1
176
     1
 90
        1
176
     1
 40
1.0
176
     1
 90
        8
176
     1
 62
   257
176
     1
 40
1.0
176
     1
 90
        1
176
     1
 90
        6
176
     1
 90
        2
176
     1
 62
     7
176
     1
 90
        3
176
     1
 90
        0
176
     1
 90
        0
176
     1
290
     0
176
     1
 90
       13
176
     1
 40
0.0
176
     1
 90
        0
176
     1
290
     0
176
     1
290
     1
176
     1
290
     1
176
     1
290
     0
176
     1
290
     0
176
     1
290
     0
176
     1
290
     0
176
     1
290
     0
176
     1
290
     0
176
     1
 90
       50
176
     1
 40
0.0
176
     1
 40
1.0
176
     1
 90
        0
176
     1
 62
    18
420
        0
176
     1
 90
       50
176
     1
 90
        3
176
     1
 62
     5
420
      255
176
     1
290
     0
176
     1
 90
       50
176
     1
 90
       50
176
     1
 90
       50
176
     1
290
     0
176
     1
 90
       50
176
     1
 62
   256
176
     0
 40
1.0
176
     0
 90
        2
176
     1
  1
strokes_ogs.tif
176
     1
290
     0
176
     1
 40
1.0
176
     1
 40
1.0
176
     1
  0
VISUALSTYLE
  5
3E
102
{ACAD_REACTORS
330
29
102
}
330
29
100
AcDbVisualStyle
  2
Shaded
 70
    27
177
     3
291
     0
 70
    58
 90
        2
176
     1
 90
        2
176
     1
 90
        1
176
     1
 90
        2
176
     1
 40
0.6
176
     1
 40
30.0
176
     1
 62
     7
420
 16777215
176
     1
 90
        0
176
     1
 90
        4
176
     1
 62
     7
176
     1
 62
   257
176
     1
 90
        1
176
     1
 90
        1
176
     1
 40
1.0
176
     1
 90
        8
176
     1
 62
   257
176
     1
 40
1.0
176
     1
 90
        1
176
     1
 90
        6
176
     1
 90
        2
176
     1
 62
     8
420
  7895160
176
     1
 90
        3
176
     1
 90
        0
176
     1
 90
        0
176
     1
290
     0
176
     1
 90
        5
176
     1
 40
0.0
176
     1
 90
        0
176
     1
290
     0
176
     1
290
     1
176
     1
290
     1
176
     1
290
     0
176
     1
290
     0
176
     1
290
     0
176
     1
290
     0
176
     1
290
     0
176
     1
290
     0
176
     1
 90
       50
176
     1
 40
0.0
176
     1
 40
1.0
176
     1
 90
        0
176
     1
 62
    18
420
        0
176
     1
 90
       50
176
     1
 90
        3
176
     1
 62
     5
420
      255
176
     1
290
     0
176
     1
 90
       50
176
     1
 90
       50
176
     1
 90
       50
176
     1
290
     0
176
     1
 90
       50
176
     1
 62
   256
176
     0
 40
1.0
176
     0
 90
        2
176
     1
  1
strokes_ogs.tif
176
     1
290
     0
176
     1
 40
1.0
176
     1
 40
1.0
176
     1
  0
VISUALSTYLE
  5
3D
102
{ACAD_REACTORS
330
29
102
}
330
29
100
AcDbVisualStyle
  2
Shaded with edges
 70
    26
177
     3
291
     0
 70
    58
 90
        2
176
     1
 90
        2
176
     1
 90
        1
176
     1
 90
        2
176
     1
 40
0.6
176
     1
 40
30.0
176
     1
 62
     7
420
 16777215
176
     1
 90
        1
176
     1
 90
        2
176
     1
 62
     7
176
     1
 62
   257
176
     1
 90
        2
176
     1
 90
        1
176
     1
 40
1.0
176
     1
 90
        8
176
     1
 62
   257
176
     1
 40
1.0
176
     1
 90
        1
176
     1
 90
        6
176
     1
 90
        2
176
     1
 62
     7
176
     1
 90
        3
176
     1
 90
        0
176
     1
 90
        0
176
     1
290
     0
176
     1
 90
        5
176
     1
 40
0.0
176
     1
 90
        0
176
     1
290
     0
176
     1
290
     1
176
     1
290
     1
176
     1
290
     0
176
     1
290
     0
176
     1
290
     0
176
     1
290
     0
176
     1
290
     0
176
     1
290
     0
176
     1
 90
       50
176
     1
 40
0.0
176
     1
 40
1.0
176
     1
 90
        0
176
     1
 62
    18
420
        0
176
     1
 90
       50
176
     1
 90
        3
176
     1
 62
     5
420
      255
176
     1
290
     0
176
     1
 90
       50
176
     1
 90
       50
176
     1
 90
       50
176
     1
290
     0
176
     1
 90
       50
176
     1
 62
   256
176
     0
 40
1.0
176
     0
 90
        2
176
     1
  1
strokes_ogs.tif
176
     1
290
     0
176
     1
 40
1.0
176
     1
 40
1.0
176
     1
  0
VISUALSTYLE
  5
3A
102
{ACAD_REACTORS
330
29
102
}
330
29
100
AcDbVisualStyle
  2
Shades of Gray
 70
    23
177
     3
291
     0
 70
    58
 90
        2
176
     1
 90
        2
176
     1
 90
        3
176
     1
 90
        0
176
     1
 40
0.6
176
     1
 40
30.0
176
     1
 62
     7
420
 16777215
176
     1
 90
        2
176
     1
 90
        2
176
     1
 62
     7
176
     1
 62
     7
176
     1
 90
        1
176
     1
 90
        1
176
     1
 40
40.0
176
     1
 90
        8
176
     1
 62
     7
176
     1
 40
1.0
176
     1
 90
        1
176
     1
 90
        6
176
     1
 90
        2
176
     1
 62
     7
176
     1
 90
        3
176
     1
 90
        0
176
     1
 90
        0
176
     1
290
     0
176
     1
 90
        1
176
     1
 40
0.0
176
     1
 90
        0
176
     1
290
     0
176
     1
290
     1
176
     1
290
     1
176
     1
290
     0
176
     1
290
     0
176
     1
290
     0
176
     1
290
     0
176
     1
290
     0
176
     1
290
     0
176
     1
 90
       50
176
     1
 40
0.0
176
     1
 40
1.0
176
     1
 90
        0
176
     1
 62
    18
420
        0
176
     1
 90
       50
176
     1
 90
        3
176
     1
 62
     5
420
      255
176
     1
290
     0
176
     1
 90
       50
176
     1
 90
       50
176
     1
 90
       50
176
     1
290
     0
176
     1
 90
       50
176
     1
 62
   256
176
     0
 40
1.0
176
     0
 90
        2
176
     1
  1
strokes_ogs.tif
176
     1
290
     0
176
     1
 40
1.0
176
     1
 40
1.0
176
     1
  0
VISUALSTYLE
  5
3B
102
{ACAD_REACTORS
330
29
102
}
330
29
100
AcDbVisualStyle
  2
Sketchy
 70
    24
177
     3
291
     0
 70
    58
 90
        1
176
     1
 90
        2
176
     1
 90
        2
176
     1
 90
        0
176
     1
 40
0.6
176
     1
 40
30.0
176
     1
 62
     7
420
 16777215
176
     1
 90
        2
176
     1
 90
        2
176
     1
 62
     7
176
     1
 62
     7
176
     1
 90
        1
176
     1
 90
        1
176
     1
 40
40.0
176
     1
 90
       11
176
     1
 62
     7
176
     1
 40
1.0
176
     1
 90
        1
176
     1
 90
        6
176
     1
 90
        2
176
     1
 62
     7
176
     1
 90
        6
176
     1
 90
        0
176
     1
 90
        0
176
     1
290
     0
176
     1
 90
        1
176
     1
 40
0.0
176
     1
 90
        0
176
     1
290
     0
176
     1
290
     1
176
     1
290
     1
176
     1
290
     0
176
     1
290
     0
176
     1
290
     0
176
     1
290
     0
176
     1
290
     0
176
     1
290
     0
176
     1
 90
       50
176
     1
 40
0.0
176
     1
 40
1.0
176
     1
 90
        0
176
     1
 62
    18
420
        0
176
     1
 90
       50
176
     1
 90
        3
176
     1
 62
     5
420
      255
176
     1
290
     0
176
     1
 90
       50
176
     1
 90
       50
176
     1
 90
       50
176
     1
290
     0
176
     1
 90
       50
176
     1
 62
   256
176
     0
 40
1.0
176
     0
 90
        2
176
     1
  1
strokes_ogs.tif
176
     1
290
     0
176
     1
 40
1.0
176
     1
 40
1.0
176
     1
  0
VISUALSTYLE
  5
36
102
{ACAD_REACTORS
330
29
102
}
330
29
100
AcDbVisualStyle
  2
Thicken
 70
    13
177
     3
291
     1
 70
    58
 90
        2
176
     1
 90
        2
176
     1
 90
        0
176
     1
 90
        0
176
     1
 40
0.6
176
     1
 40
30.0
176
     1
 62
     7
420
 16777215
176
     1
 90
        1
176
     1
 90
        4
176
     1
 62
     7
176
     1
 62
   257
176
     1
 90
        1
176
     1
 90
        1
176
     1
 40
1.0
176
     1
 90
       12
176
     1
 62
     7
176
     1
 40
1.0
176
     1
 90
        1
176
     1
 90
        6
176
     1
 90
        2
176
     1
 62
     7
176
     1
 90
        5
176
     1
 90
        0
176
     1
 90
        0
176
     1
290
     0
176
     1
 90
        1
176
     1
 40
0.0
176
     1
 90
        0
176
     1
290
     0
176
     1
290
     1
176
     1
290
     1
176
     1
290
     0
176
     1
290
     0
176
     1
290
     0
176
     1
290
     0
176
     1
290
     0
176
     1
290
     0
176
     1
 90
       50
176
     1
 40
0.0
176
     1
 40
1.0
176
     1
 90
        0
176
     1
 62
    18
420
        0
176
     1
 90
       50
176
     1
 90
        3
176
     1
 62
     5
420
      255
176
     1
290
     0
176
     1
 90
       50
176
     1
 90
       50
176
     1
 90
       50
176
     1
290
     0
176
     1
 90
       50
176
     1
 62
   256
176
     0
 40
1.0
176
     0
 90
        2
176
     1
  1
strokes_ogs.tif
176
     1
290
     0
176
     1
 40
1.0
176
     1
 40
1.0
176
     1
  0
VISUALSTYLE
  5
30
102
{ACAD_REACTORS
330
29
102
}
330
29
100
AcDbVisualStyle
  2
Wireframe
 70
     5
177
     3
291
     0
 70
    58
 90
        0
176
     1
 90
        2
176
     1
 90
        0
176
     1
 90
        0
176
     1
 40
0.6
176
     1
 40
30.0
176
     1
 62
     7
420
 16777215
176
     1
 90
        1
176
     1
 90
        4
176
     1
 62
     7
176
     1
 62
   257
176
     1
 90
        1
176
     1
 90
        1
176
     1
 40
1.0
176
     1
 90
        0
176
     1
 62
   257
176
     1
 40
1.0
176
     1
 90
        1
176
     1
 90
        6
176
     1
 90
        2
176
     1
 62
     7
176
     1
 90
        3
176
     1
 90
        0
176
     1
 90
        0
176
     1
290
     0
176
     1
 90
        1
176
     1
 40
0.0
176
     1
 90
        0
176
     1
290
     0
176
     1
290
     1
176
     1
290
     1
176
     1
290
     0
176
     1
290
     0
176
     1
290
     0
176
     1
290
     0
176
     1
290
     0
176
     1
290
     0
176
     1
 90
       50
176
     1
 40
0.0
176
     1
 40
1.0
176
     1
 90
        0
176
     1
 62
    18
420
        0
176
     1
 90
       50
176
     1
 90
        3
176
     1
 62
     5
420
      255
176
     1
290
     0
176
     1
 90
       50
176
     1
 90
       50
176
     1
 90
       50
176
     1
290
     0
176
     1
 90
       50
176
     1
 62
   256
176
     0
 40
1.0
176
     0
 90
        2
176
     1
  1
strokes_ogs.tif
176
     1
290
     0
176
     1
 40
1.0
176
     1
 40
1.0
176
     1
  0
VISUALSTYLE
  5
3C
102
{ACAD_REACTORS
330
29
102
}
330
29
100
AcDbVisualStyle
  2
X-Ray
 70
    25
177
     3
291
     0
 70
    58
 90
        2
176
     1
 90
        2
176
     1
 90
        1
176
     1
 90
        1
176
     1
 40
0.5
176
     1
 40
30.0
176
     1
 62
     7
420
 16777215
176
     1
 90
        1
176
     1
 90
        0
176
     1
 62
     7
176
     1
 62
   257
176
     1
 90
        1
176
     1
 90
        1
176
     1
 40
1.0
176
     1
 90
        8
176
     1
 62
     7
176
     1
 40
1.0
176
     1
 90
        1
176
     1
 90
        6
176
     1
 90
        2
176
     1
 62
     7
176
     1
 90
        3
176
     1
 90
        0
176
     1
 90
        0
176
     1
290
     0
176
     1
 90
       13
176
     1
 40
0.0
176
     1
 90
        0
176
     1
290
     0
176
     1
290
     1
176
     1
290
     1
176
     1
290
     0
176
     1
290
     0
176
     1
290
     0
176
     1
290
     0
176
     1
290
     0
176
     1
290
     0
176
     1
 90
       50
176
     1
 40
0.0
176
     1
 40
1.0
176
     1
 90
        0
176
     1
 62
    18
420
        0
176
     1
 90
       50
176
     1
 90
        3
176
     1
 62
     5
420
      255
176
     1
290
     0
176
     1
 90
       50
176
     1
 90
       50
176
     1
 90
       50
176
     1
290
     0
176
     1
 90
       50
176
     1
 62
   256
176
     0
 40
1.0
176
     0
 90
        2
176
     1
  1
strokes_ogs.tif
176
     1
290
     0
176
     1
 40
1.0
176
     1
 40
1.0
176
     1
  0
DICTIONARYVAR
  5
9B
102
{ACAD_REACTORS
330
96
102
}
330
96
100
DictionaryVariables
280
     0
  1
1:1
  0
DICTIONARYVAR
  5
98
102
{ACAD_REACTORS
330
96
102
}
330
96
100
DictionaryVariables
280
     0
  1
STANDARD
  0
DICTIONARYVAR
  5
97
102
{ACAD_REACTORS
330
96
102
}
330
96
100
DictionaryVariables
280
     0
  1
STANDARD
  0
DICTIONARYVAR
  5
99
102
{ACAD_REACTORS
330
96
102
}
330
96
100
DictionaryVariables
280
     0
  1
Imperial24
  0
DICTIONARYVAR
  5
9A
102
{ACAD_REACTORS
330
96
102
}
330
96
100
DictionaryVariables
280
     0
  1
Imperial24
  0
DICTIONARY
  5
1A
330
19
100
AcDbDictionary
280
     1
281
     1
  3
BUMPTILE
360
1C
  3
DIFFUSETILE
360
1B
  3
OPACITYTILE
360
1F
  3
REFLECTIONTILE
360
1E
  3
REFRACTIONTILE
360
20
  3
SPECULARTILE
360
1D
  0
DICTIONARY
  5
12
330
11
100
AcDbDictionary
280
     1
281
     1
  3
BUMPTILE
360
14
  3
DIFFUSETILE
360
13
  3
OPACITYTILE
360
17
  3
REFLECTIONTILE
360
16
  3
REFRACTIONTILE
360
18
  3
SPECULARTILE
360
15
  0
DICTIONARY
  5
22
330
21
100
AcDbDictionary
280
     1
281
     1
  3
BUMPTILE
360
24
  3
DIFFUSETILE
360
23
  3
OPACITYTILE
360
27
  3
REFLECTIONTILE
360
26
  3
REFRACTIONTILE
360
28
  3
SPECULARTILE
360
25
  0
DICTIONARY
  5
9C
330
65
100
AcDbDictionary
280
     1
281
     1
  3
ACAD_ROUNDTRIP_2008_TABLESTYLE_CELLSTYLEMAP
360
9D
  0
XRECORD
  5
1C
102
{ACAD_REACTORS
330
1A
102
}
330
1A
100
AcDbXrecord
280
     1
270
     1
271
     1
  0
XRECORD
  5
1B
102
{ACAD_REACTORS
330
1A
102
}
330
1A
100
AcDbXrecord
280
     1
270
     1
271
     1
  0
XRECORD
  5
1F
102
{ACAD_REACTORS
330
1A
102
}
330
1A
100
AcDbXrecord
280
     1
270
     1
271
     1
  0
XRECORD
  5
1E
102
{ACAD_REACTORS
330
1A
102
}
330
1A
100
AcDbXrecord
280
     1
270
     1
271
     1
  0
XRECORD
  5
20
102
{ACAD_REACTORS
330
1A
102
}
330
1A
100
AcDbXrecord
280
     1
270
     1
271
     1
  0
XRECORD
  5
1D
102
{ACAD_REACTORS
330
1A
102
}
330
1A
100
AcDbXrecord
280
     1
270
     1
271
     1
  0
XRECORD
  5
14
102
{ACAD_REACTORS
330
12
102
}
330
12
100
AcDbXrecord
280
     1
270
     1
271
     1
  0
XRECORD
  5
13
102
{ACAD_REACTORS
330
12
102
}
330
12
100
AcDbXrecord
280
     1
270
     1
271
     1
  0
XRECORD
  5
17
102
{ACAD_REACTORS
330
12
102
}
330
12
100
AcDbXrecord
280
     1
270
     1
271
     1
  0
XRECORD
  5
16
102
{ACAD_REACTORS
330
12
102
}
330
12
100
AcDbXrecord
280
     1
270
     1
271
     1
  0
XRECORD
  5
18
102
{ACAD_REACTORS
330
12
102
}
330
12
100
AcDbXrecord
280
     1
270
     1
271
     1
  0
XRECORD
  5
15
102
{ACAD_REACTORS
330
12
102
}
330
12
100
AcDbXrecord
280
     1
270
     1
271
     1
  0
XRECORD
  5
24
102
{ACAD_REACTORS
330
22
102
}
330
22
100
AcDbXrecord
280
     1
270
     1
271
     1
  0
XRECORD
  5
23
102
{ACAD_REACTORS
330
22
102
}
330
22
100
AcDbXrecord
280
     1
270
     1
271
     1
  0
XRECORD
  5
27
102
{ACAD_REACTORS
330
22
102
}
330
22
100
AcDbXrecord
280
     1
270
     1
271
     1
  0
XRECORD
  5
26
102
{ACAD_REACTORS
330
22
102
}
330
22
100
AcDbXrecord
280
     1
270
     1
271
     1
  0
XRECORD
  5
28
102
{ACAD_REACTORS
330
22
102
}
330
22
100
AcDbXrecord
280
     1
270
     1
271
     1
  0
XRECORD
  5
25
102
{ACAD_REACTORS
330
22
102
}
330
22
100
AcDbXrecord
280
     1
270
     1
271
     1
  0
CELLSTYLEMAP
  5
9D
102
{ACAD_REACTORS
330
9C
102
}
330
9C
100
AcDbCellStyleMap
 90
        3
300
CELLSTYLE
  1
TABLEFORMAT_BEGIN
 90
        5
170
     1
 91
        0
 92
    32768
 62
   257
 93
        1
300
CONTENTFORMAT
  1
CONTENTFORMAT_BEGIN
 90
        0
 91
        0
 92
      512
 93
        0
300

 40
0.0
140
1.0
 94
        5
 62
     0
340
55
144
0.25
309
CONTENTFORMAT_END
171
     0
 94
        0
309
TABLEFORMAT_END
  1
CELLSTYLE_BEGIN
 90
        1
 91
        1
300
_TITLE
309
CELLSTYLE_END
300
CELLSTYLE
  1
TABLEFORMAT_BEGIN
 90
        5
170
     1
 91
        0
 92
        0
 62
   257
 93
        1
300
CONTENTFORMAT
  1
CONTENTFORMAT_BEGIN
 90
        0
 91
        0
 92
      512
 93
        0
300

 40
0.0
140
1.0
 94
        5
 62
     0
340
55
144
0.18
309
CONTENTFORMAT_END
171
     0
 94
        0
309
TABLEFORMAT_END
  1
CELLSTYLE_BEGIN
 90
        2
 91
        1
300
_HEADER
309
CELLSTYLE_END
300
CELLSTYLE
  1
TABLEFORMAT_BEGIN
 90
        5
170
     1
 91
        0
 92
        0
 62
   257
 93
        1
300
CONTENTFORMAT
  1
CONTENTFORMAT_BEGIN
 90
        0
 91
        0
 92
      512
 93
        0
300

 40
0.0
140
1.0
 94
        2
 62
     0
340
55
144
0.18
309
CONTENTFORMAT_END
171
     0
 94
        0
309
TABLEFORMAT_END
  1
CELLSTYLE_BEGIN
 90
        3
 91
        2
300
_DATA
309
CELLSTYLE_END
  0
ENDSEC
  0
EOF
