  0
SECTION
  2
HEADER
  9
$ACADVER
  1
AC1032
  9
$ACADMAINTVER
 90
      251
  9
$DWGCODEPAGE
  3
ANSI_1252
  9
$REQUIREDVERSIONS
160
                 0
  9
$INSBASE
 10
0.0
 20
0.0
 30
0.0
  9
$EXTMIN
 10
1.000000000000000E+20
 20
1.000000000000000E+20
 30
1.000000000000000E+20
  9
$EXTMAX
 10
-1.000000000000000E+20
 20
-1.000000000000000E+20
 30
-1.000000000000000E+20
  9
$LIMMIN
 10
0.0
 20
0.0
  9
$LIMMAX
 10
12.0
 20
9.0
  9
$ORTHOMODE
 70
     0
  9
$REGENMODE
 70
     1
  9
$FILLMODE
 70
     1
  9
$QTEXTMODE
 70
     0
  9
$MIRRTEXT
 70
     0
  9
$LTSCALE
 40
1.0
  9
$ATTMODE
 70
     1
  9
$TEXTSIZE
 40
0.2
  9
$TRACEWID
 40
0.05
  9
$TEXTSTYLE
  7
Standard
  9
$CLAYER
  8
0
  9
$CELTYPE
  6
ByLayer
  9
$CECOLOR
 62
   256
  9
$CELTSCALE
 40
1.0
  9
$DISPSILH
 70
     0
  9
$DIMSCALE
 40
1.0
  9
$DIMASZ
 40
0.18
  9
$DIMEXO
 40
0.0625
  9
$DIMDLI
 40
0.38
  9
$DIMRND
 40
0.0
  9
$DIMDLE
 40
0.0
  9
$DIMEXE
 40
0.18
  9
$DIMTP
 40
0.0
  9
$DIMTM
 40
0.0
  9
$DIMTXT
 40
0.18
  9
$DIMCEN
 40
0.09
  9
$DIMTSZ
 40
0.0
  9
$DIMTOL
 70
     0
  9
$DIMLIM
 70
     0
  9
$DIMTIH
 70
     1
  9
$DIMTOH
 70
     1
  9
$DIMSE1
 70
     0
  9
$DIMSE2
 70
     0
  9
$DIMTAD
 70
     0
  9
$DIMZIN
 70
     0
  9
$DIMBLK
  1

  9
$DIMASO
 70
     1
  9
$DIMSHO
 70
     1
  9
$DIMPOST
  1

  9
$DIMAPOST
  1

  9
$DIMALT
 70
     0
  9
$DIMALTD
 70
     2
  9
$DIMALTF
 40
25.4
  9
$DIMLFAC
 40
1.0
  9
$DIMTOFL
 70
     0
  9
$DIMTVP
 40
0.0
  9
$DIMTIX
 70
     0
  9
$DIMSOXD
 70
     0
  9
$DIMSAH
 70
     0
  9
$DIMBLK1
  1

  9
$DIMBLK2
  1

  9
$DIMSTYLE
  2
Standard
  9
$DIMCLRD
 70
     0
  9
$DIMCLRE
 70
     0
  9
$DIMCLRT
 70
     0
  9
$DIMTFAC
 40
1.0
  9
$DIMGAP
 40
0.09
  9
$DIMJUST
 70
     0
  9
$DIMSD1
 70
     0
  9
$DIMSD2
 70
     0
  9
$DIMTOLJ
 70
     1
  9
$DIMTZIN
 70
     0
  9
$DIMALTZ
 70
     0
  9
$DIMALTTZ
 70
     0
  9
$DIMUPT
 70
     0
  9
$DIMDEC
 70
     4
  9
$DIMTDEC
 70
     4
  9
$DIMALTU
 70
     2
  9
$DIMALTTD
 70
     2
  9
$DIMTXSTY
  7
Standard
  9
$DIMAUNIT
 70
     0
  9
$DIMADEC
 70
     0
  9
$DIMALTRND
 40
0.0
  9
$DIMAZIN
 70
     0
  9
$DIMDSEP
 70
    46
  9
$DIMATFIT
 70
     3
  9
$DIMFRAC
 70
     0
  9
$DIMLDRBLK
  1

  9
$DIMLUNIT
 70
     2
  9
$DIMLWD
 70
    -2
  9
$DIMLWE
 70
    -2
  9
$DIMTMOVE
 70
     0
  9
$DIMFXL
 40
1.0
  9
$DIMFXLON
 70
     0
  9
$DIMJOGANG
 40
0.7853981633974483
  9
$DIMTFILL
 70
     0
  9
$DIMTFILLCLR
 70
     0
  9
$DIMARCSYM
 70
     0
  9
$DIMLTYPE
  6

  9
$DIMLTEX1
  6

  9
$DIMLTEX2
  6

  9
$DIMTXTDIRECTION
 70
     0
  9
$LUNITS
 70
     2
  9
$LUPREC
 70
     4
  9
$SKETCHINC
 40
0.1
  9
$FILLETRAD
 40
0.0
  9
$AUNITS
 70
     0
  9
$AUPREC
 70
     0
  9
$MENU
  1
.
  9
$ELEVATION
 40
0.0
  9
$PELEVATION
 40
0.0
  9
$THICKNESS
 40
0.0
  9
$LIMCHECK
 70
     0
  9
$CHAMFERA
 40
0.0
  9
$CHAMFERB
 40
0.0
  9
$CHAMFERC
 40
0.0
  9
$CHAMFERD
 40
0.0
  9
$SKPOLY
 70
     0
  9
$TDCREATE
 40
2460024.639189815
  9
$TDUCREATE
 40
2460024.597523148
  9
$TDUPDATE
 40
2460024.639189815
  9
$TDUUPDATE
 40
2460024.597523148
  9
$TDINDWG
 40
0.0000000000
  9
$TDUSRTIMER
 40
0.0000000000
  9
$USRTIMER
 70
     1
  9
$ANGBASE
 50
0.0
  9
$ANGDIR
 70
     0
  9
$PDMODE
 70
     0
  9
$PDSIZE
 40
0.0
  9
$PLINEWID
 40
0.0
  9
$SPLFRAME
 70
     0
  9
$SPLINETYPE
 70
     6
  9
$SPLINESEGS
 70
     8
  9
$HANDSEED
  5
AB
  9
$SURFTAB1
 70
     6
  9
$SURFTAB2
 70
     6
  9
$SURFTYPE
 70
     6
  9
$SURFU
 70
     6
  9
$SURFV
 70
     6
  9
$UCSBASE
  2

  9
$UCSNAME
  2

  9
$UCSORG
 10
0.0
 20
0.0
 30
0.0
  9
$UCSXDIR
 10
1.0
 20
0.0
 30
0.0
  9
$UCSYDIR
 10
0.0
 20
1.0
 30
0.0
  9
$UCSORTHOREF
  2

  9
$UCSORTHOVIEW
 70
     0
  9
$UCSORGTOP
 10
0.0
 20
0.0
 30
0.0
  9
$UCSORGBOTTOM
 10
0.0
 20
0.0
 30
0.0
  9
$UCSORGLEFT
 10
0.0
 20
0.0
 30
0.0
  9
$UCSORGRIGHT
 10
0.0
 20
0.0
 30
0.0
  9
$UCSORGFRONT
 10
0.0
 20
0.0
 30
0.0
  9
$UCSORGBACK
 10
0.0
 20
0.0
 30
0.0
  9
$PUCSBASE
  2

  9
$PUCSNAME
  2

  9
$PUCSORG
 10
0.0
 20
0.0
 30
0.0
  9
$PUCSXDIR
 10
1.0
 20
0.0
 30
0.0
  9
$PUCSYDIR
 10
0.0
 20
1.0
 30
0.0
  9
$PUCSORTHOREF
  2

  9
$PUCSORTHOVIEW
 70
     0
  9
$PUCSORGTOP
 10
0.0
 20
0.0
 30
0.0
  9
$PUCSORGBOTTOM
 10
0.0
 20
0.0
 30
0.0
  9
$PUCSORGLEFT
 10
0.0
 20
0.0
 30
0.0
  9
$PUCSORGRIGHT
 10
0.0
 20
0.0
 30
0.0
  9
$PUCSORGFRONT
 10
0.0
 20
0.0
 30
0.0
  9
$PUCSORGBACK
 10
0.0
 20
0.0
 30
0.0
  9
$USERI1
 70
     0
  9
$USERI2
 70
     0
  9
$USERI3
 70
     0
  9
$USERI4
 70
     0
  9
$USERI5
 70
     0
  9
$USERR1
 40
0.0
  9
$USERR2
 40
0.0
  9
$USERR3
 40
0.0
  9
$USERR4
 40
0.0
  9
$USERR5
 40
0.0
  9
$WORLDVIEW
 70
     1
  9
$SHADEDGE
 70
     3
  9
$SHADEDIF
 70
    70
  9
$TILEMODE
 70
     1
  9
$MAXACTVP
 70
    64
  9
$PINSBASE
 10
0.0
 20
0.0
 30
0.0
  9
$PLIMCHECK
 70
     0
  9
$PEXTMIN
 10
1.000000000000000E+20
 20
1.000000000000000E+20
 30
1.000000000000000E+20
  9
$PEXTMAX
 10
-1.000000000000000E+20
 20
-1.000000000000000E+20
 30
-1.000000000000000E+20
  9
$PLIMMIN
 10
0.0
 20
0.0
  9
$PLIMMAX
 10
12.0
 20
9.0
  9
$UNITMODE
 70
     0
  9
$VISRETAIN
 70
     1
  9
$PLINEGEN
 70
     0
  9
$PSLTSCALE
 70
     1
  9
$TREEDEPTH
 70
  3020
  9
$CMLSTYLE
  2
Standard
  9
$CMLJUST
 70
     0
  9
$CMLSCALE
 40
1.0
  9
$PROXYGRAPHICS
 70
     1
  9
$MEASUREMENT
 70
     0
  9
$CELWEIGHT
370
    -1
  9
$ENDCAPS
280
     0
  9
$JOINSTYLE
280
     0
  9
$LWDISPLAY
290
     1
  9
$INSUNITS
 70
     4
  9
$HYPERLINKBASE
  1

  9
$STYLESHEET
  1

  9
$XEDIT
290
     1
  9
$CEPSNTYPE
380
     0
  9
$PSTYLEMODE
290
     1
  9
$FINGERPRINTGUID
  2
{2142E882-894C-4640-A491-CD246CA79DC5}
  9
$VERSIONGUID
  2
{068A6321-9066-E543-AC70-B3483B82616D}
  9
$EXTNAMES
290
     1
  9
$PSVPSCALE
 40
0.0
  9
$OLESTARTUP
290
     0
  9
$SORTENTS
280
   127
  9
$INDEXCTL
280
     0
  9
$HIDETEXT
280
     1
  9
$XCLIPFRAME
280
     2
  9
$HALOGAP
280
     0
  9
$OBSCOLOR
 70
   257
  9
$OBSLTYPE
280
     0
  9
$INTERSECTIONDISPLAY
280
     0
  9
$INTERSECTIONCOLOR
 70
   257
  9
$DIMASSOC
280
     2
  9
$PROJECTNAME
  1

  9
$CAMERADISPLAY
290
     0
  9
$LENSLENGTH
 40
50.0
  9
$CAMERAHEIGHT
 40
0.0
  9
$STEPSPERSEC
 40
2.0
  9
$STEPSIZE
 40
6.0
  9
$3DDWFPREC
 40
2.0
  9
$PSOLWIDTH
 40
0.25
  9
$PSOLHEIGHT
 40
4.0
  9
$LOFTANG1
 40
1.570796326794896
  9
$LOFTANG2
 40
1.570796326794896
  9
$LOFTMAG1
 40
0.0
  9
$LOFTMAG2
 40
0.0
  9
$LOFTPARAM
 70
     7
  9
$LOFTNORMALS
280
     1
  9
$LATITUDE
 40
37.795
  9
$LONGITUDE
 40
-122.394
  9
$NORTHDIRECTION
 40
0.0
  9
$TIMEZONE
 70
 -8000
  9
$LIGHTGLYPHDISPLAY
280
     1
  9
$TILEMODELIGHTSYNCH
280
     1
  9
$CMATERIAL
347
11
  9
$SOLIDHIST
280
     0
  9
$SHOWHIST
280
     1
  9
$DWFFRAME
280
     2
  9
$DGNFRAME
280
     0
  9
$REALWORLDSCALE
290
     1
  9
$INTERFERECOLOR
 62
     1
  9
$INTERFEREOBJVS
345
33
  9
$INTERFEREVPVS
346
30
  9
$CSHADOW
280
     0
  9
$SHADOWPLANELOCATION
 40
0.0
  0
ENDSEC
  0
SECTION
  2
CLASSES
  0
CLASS
  1
ACDBDICTIONARYWDFLT
  2
AcDbDictionaryWithDefault
  3
ObjectDBX Classes
 90
        0
 91
        1
280
     0
281
     0
  0
CLASS
  1
MATERIAL
  2
AcDbMaterial
  3
ObjectDBX Classes
 90
     1153
 91
        3
280
     0
281
     0
  0
CLASS
  1
VISUALSTYLE
  2
AcDbVisualStyle
  3
ObjectDBX Classes
 90
     4095
 91
       24
280
     0
281
     0
  0
CLASS
  1
SCALE
  2
AcDbScale
  3
ObjectDBX Classes
 90
     1153
 91
       17
280
     0
281
     0
  0
CLASS
  1
TABLESTYLE
  2
AcDbTableStyle
  3
ObjectDBX Classes
 90
     4095
 91
        1
280
     0
281
     0
  0
CLASS
  1
MLEADERSTYLE
  2
AcDbMLeaderStyle
  3
ACDB_MLEADERSTYLE_CLASS
 90
     4095
 91
        1
280
     0
281
     0
  0
CLASS
  1
ACDBSECTIONVIEWSTYLE
  2
AcDbSectionViewStyle
  3
ObjectDBX Classes
 90
     1025
 91
        1
280
     0
281
     0
  0
CLASS
  1
ACDBDETAILVIEWSTYLE
  2
AcDbDetailViewStyle
  3
ObjectDBX Classes
 90
     1025
 91
        1
280
     0
281
     0
  0
CLASS
  1
DICTIONARYVAR
  2
AcDbDictionaryVar
  3
ObjectDBX Classes
 90
        0
 91
        5
280
     0
281
     0
  0
CLASS
  1
CELLSTYLEMAP
  2
AcDbCellStyleMap
  3
ObjectDBX Classes
 90
     1152
 91
        1
280
     0
281
     0
  0
ENDSEC
  0
SECTION
  2
TABLES
  0
TABLE
  2
VPORT
  5
8
330
0
100
AcDbSymbolTable
 70
     1
  0
VPORT
  5
57
330
8
100
AcDbSymbolTableRecord
100
AcDbViewportTableRecord
  2
*Active
 70
     0
 10
0.0
 20
0.0
 11
1.0
 21
1.0
 12
0.0
 22
0.0
 13
0.0
 23
0.0
 14
1.0
 24
1.0
 15
0.0
 25
0.0
 16
0.0
 26
0.0
 36
1.0
 17
600.1763475651845
 27
-999.8195651465769
 37
0.0
 40
2040.449791156557
 41
0.6000881750030807
 42
50.0
 43
0.0
 44
0.0
 50
0.0
 51
0.0
 71
     0
 72
   100
 73
     1
 74
     1
 75
     0
 76
     0
 77
     0
 78
     0
281
     0
 65
     1
110
0.0
120
0.0
130
0.0
111
1.0
121
0.0
131
0.0
112
0.0
122
1.0
132
0.0
 79
     0
146
0.0
 60
     3
 61
     5
292
     1
282
     1
141
0.0
142
0.0
 63
   250
421
  3355443
  0
ENDTAB
  0
TABLE
  2
LTYPE
  5
5
330
0
100
AcDbSymbolTable
 70
     1
  0
LTYPE
  5
5B
330
5
100
AcDbSymbolTableRecord
100
AcDbLinetypeTableRecord
  2
ByBlock
 70
     0
  3

 72
    65
 73
     0
 40
0.0
  0
LTYPE
  5
5C
330
5
100
AcDbSymbolTableRecord
100
AcDbLinetypeTableRecord
  2
ByLayer
 70
     0
  3

 72
    65
 73
     0
 40
0.0
  0
LTYPE
  5
5D
330
5
100
AcDbSymbolTableRecord
100
AcDbLinetypeTableRecord
  2
Continuous
 70
     0
  3
Solid line
 72
    65
 73
     0
 40
0.0
  0
ENDTAB
  0
TABLE
  2
LAYER
  5
2
330
0
100
AcDbSymbolTable
 70
    22
  0
LAYER
  5
54
330
2
100
AcDbSymbolTableRecord
100
AcDbLayerTableRecord
  2
0
 70
     0
 62
     7
  6
Continuous
370
    -3
390
F
347
21
348
0
  0
LAYER
  5
78
330
2
100
AcDbSymbolTableRecord
100
AcDbLayerTableRecord
  2
Bounding Box
 70
     0
 62
     7
  6
Continuous
370
     0
390
F
347
21
348
0
  0
LAYER
  5
7A
330
2
100
AcDbSymbolTableRecord
100
AcDbLayerTableRecord
  2
Screws
 70
     0
 62
     7
  6
Continuous
370
     0
390
F
347
21
348
0
  0
LAYER
  5
83
330
2
100
AcDbSymbolTableRecord
100
AcDbLayerTableRecord
  2
2023-018
 70
     1
 62
     7
  6
Continuous
370
     0
390
F
347
21
348
0
  0
LAYER
  5
84
330
2
100
AcDbSymbolTableRecord
100
AcDbLayerTableRecord
  2
2023-017
 70
     1
 62
     7
  6
Continuous
370
     0
390
F
347
21
348
0
  0
LAYER
  5
85
330
2
100
AcDbSymbolTableRecord
100
AcDbLayerTableRecord
  2
2023-016
 70
     1
 62
     7
  6
Continuous
370
     0
390
F
347
21
348
0
  0
LAYER
  5
86
330
2
100
AcDbSymbolTableRecord
100
AcDbLayerTableRecord
  2
2023-015
 70
     1
 62
     7
  6
Continuous
370
     0
390
F
347
21
348
0
  0
LAYER
  5
87
330
2
100
AcDbSymbolTableRecord
100
AcDbLayerTableRecord
  2
2023-014
 70
     1
 62
     7
  6
Continuous
370
     0
390
F
347
21
348
0
  0
LAYER
  5
88
330
2
100
AcDbSymbolTableRecord
100
AcDbLayerTableRecord
  2
2023-013
 70
     0
 62
     7
  6
Continuous
370
     0
390
F
347
21
348
0
  0
LAYER
  5
95
330
2
100
AcDbSymbolTableRecord
100
AcDbLayerTableRecord
  2
2023-012
 70
     1
 62
     7
  6
Continuous
370
     0
390
F
347
21
348
0
  0
LAYER
  5
96
330
2
100
AcDbSymbolTableRecord
100
AcDbLayerTableRecord
  2
2023-011
 70
     1
 62
     7
  6
Continuous
370
     0
390
F
347
21
348
0
  0
LAYER
  5
97
330
2
100
AcDbSymbolTableRecord
100
AcDbLayerTableRecord
  2
2023-010
 70
     1
 62
     7
  6
Continuous
370
     0
390
F
347
21
348
0
  0
LAYER
  5
98
330
2
100
AcDbSymbolTableRecord
100
AcDbLayerTableRecord
  2
2023-009
 70
     1
 62
     7
  6
Continuous
370
     0
390
F
347
21
348
0
  0
LAYER
  5
99
330
2
100
AcDbSymbolTableRecord
100
AcDbLayerTableRecord
  2
2023-008
 70
     1
 62
     7
  6
Continuous
370
     0
390
F
347
21
348
0
  0
LAYER
  5
9A
330
2
100
AcDbSymbolTableRecord
100
AcDbLayerTableRecord
  2
2023-007
 70
     1
 62
     7
  6
Continuous
370
     0
390
F
347
21
348
0
  0
LAYER
  5
9B
330
2
100
AcDbSymbolTableRecord
100
AcDbLayerTableRecord
  2
2023-006
 70
     1
 62
     7
  6
Continuous
370
     0
390
F
347
21
348
0
  0
LAYER
  5
9C
330
2
100
AcDbSymbolTableRecord
100
AcDbLayerTableRecord
  2
2023-005
 70
     1
 62
     7
  6
Continuous
370
     0
390
F
347
21
348
0
  0
LAYER
  5
9D
330
2
100
AcDbSymbolTableRecord
100
AcDbLayerTableRecord
  2
2023-004
 70
     1
 62
     7
  6
Continuous
370
     0
390
F
347
21
348
0
  0
LAYER
  5
9E
330
2
100
AcDbSymbolTableRecord
100
AcDbLayerTableRecord
  2
2023-003
 70
     1
 62
     7
  6
Continuous
370
     0
390
F
347
21
348
0
  0
LAYER
  5
9F
330
2
100
AcDbSymbolTableRecord
100
AcDbLayerTableRecord
  2
2023-002
 70
     1
 62
     7
  6
Continuous
370
     0
390
F
347
21
348
0
  0
LAYER
  5
A0
330
2
100
AcDbSymbolTableRecord
100
AcDbLayerTableRecord
  2
2023-001
 70
     1
 62
     7
  6
Continuous
370
     0
390
F
347
21
348
0
  0
LAYER
  5
A1
330
2
100
AcDbSymbolTableRecord
100
AcDbLayerTableRecord
  2
10-2022-057
 70
     5
 62
     7
  6
Continuous
370
     0
390
F
347
21
348
0
  0
ENDTAB
  0
TABLE
  2
STYLE
  5
3
330
0
100
AcDbSymbolTable
 70
     2
  0
STYLE
  5
55
330
3
100
AcDbSymbolTableRecord
100
AcDbTextStyleTableRecord
  2
Standard
 70
     0
 40
0.0
 41
1.0
 50
0.0
 71
     0
 42
0.2
  3
txt
  4

  0
STYLE
  5
5A
330
3
100
AcDbSymbolTableRecord
100
AcDbTextStyleTableRecord
  2
Annotative
 70
     0
 40
0.0
 41
1.0
 50
0.0
 71
     0
 42
0.2
  3
txt
  4

1001
AcadAnnotative
1000
AnnotativeData
1002
{
1070
     1
1070
     1
1002
}
  0
ENDTAB
  0
TABLE
  2
VIEW
  5
6
330
0
100
AcDbSymbolTable
 70
     0
  0
ENDTAB
  0
TABLE
  2
UCS
  5
7
330
0
100
AcDbSymbolTable
 70
     0
  0
ENDTAB
  0
TABLE
  2
APPID
  5
9
330
0
100
AcDbSymbolTable
 70
     2
  0
APPID
  5
56
330
9
100
AcDbSymbolTableRecord
100
AcDbRegAppTableRecord
  2
ACAD
 70
     0
  0
APPID
  5
5E
330
9
100
AcDbSymbolTableRecord
100
AcDbRegAppTableRecord
  2
AcadAnnotative
 70
     0
  0
ENDTAB
  0
TABLE
  2
DIMSTYLE
  5
A
330
0
100
AcDbSymbolTable
 70
     2
100
AcDbDimStyleTable
 71
     0
  0
DIMSTYLE
105
58
330
A
100
AcDbSymbolTableRecord
100
AcDbDimStyleTableRecord
  2
Standard
 70
     0
340
55
  0
DIMSTYLE
105
59
330
A
100
AcDbSymbolTableRecord
100
AcDbDimStyleTableRecord
  2
Annotative
 70
     0
340
55
1001
AcadAnnotative
1000
AnnotativeData
1002
{
1070
     1
1070
     1
1002
}
  0
ENDTAB
  0
TABLE
  2
BLOCK_RECORD
  5
1
330
0
100
AcDbSymbolTable
 70
     1
  0
BLOCK_RECORD
  5
70
330
1
100
AcDbSymbolTableRecord
100
AcDbBlockTableRecord
  2
*Model_Space
340
73
 70
     0
280
     1
281
     0
  0
BLOCK_RECORD
  5
6C
330
1
100
AcDbSymbolTableRecord
100
AcDbBlockTableRecord
  2
*Paper_Space
340
6F
 70
     0
280
     1
281
     0
  0
BLOCK_RECORD
  5
74
330
1
100
AcDbSymbolTableRecord
100
AcDbBlockTableRecord
  2
*Paper_Space0
340
77
 70
     0
280
     1
281
     0
  0
ENDTAB
  0
ENDSEC
  0
SECTION
  2
BLOCKS
  0
BLOCK
  5
71
330
70
100
AcDbEntity
  8
0
100
AcDbBlockBegin
  2
*Model_Space
 70
     0
 10
0.0
 20
0.0
 30
0.0
  3
*Model_Space
  1

  0
ENDBLK
  5
72
330
70
100
AcDbEntity
  8
0
100
AcDbBlockEnd
  0
BLOCK
  5
6D
330
6C
100
AcDbEntity
 67
     1
  8
0
100
AcDbBlockBegin
  2
*Paper_Space
 70
     0
 10
0.0
 20
0.0
 30
0.0
  3
*Paper_Space
  1

  0
ENDBLK
  5
6E
330
6C
100
AcDbEntity
 67
     1
  8
0
100
AcDbBlockEnd
  0
BLOCK
  5
75
330
74
100
AcDbEntity
 67
     1
  8
0
100
AcDbBlockBegin
  2
*Paper_Space0
 70
     0
 10
0.0
 20
0.0
 30
0.0
  3
*Paper_Space0
  1

  0
ENDBLK
  5
76
330
74
100
AcDbEntity
 67
     1
  8
0
100
AcDbBlockEnd
  0
ENDSEC
  0
SECTION
  2
ENTITIES
  0
LWPOLYLINE
  5
79
330
70
100
AcDbEntity
  8
Bounding Box
 62
    18
420
        0
370
    40
100
AcDbPolyline
 90
        4
 70
     1
 43
0.0
 10
1200.176347415185
 20
-1999.819564896579
 10
0.1763477151839837
 20
-1999.819564896579
 10
0.1763477151839837
 20
0.180434603424631
 10
1200.176347415185
 20
0.180434603424631
  0
ELLIPSE
  5
7B
330
70
100
AcDbEntity
  8
Screws
100
AcDbEllipse
 10
17.342316281568
 20
-1982.358092505099
 30
0.0
 11
2.557638888249479
 21
0.0
 31
0.0
210
0.0
220
0.0
230
1.0
 40
0.9655172413793103
 41
0.0
 42
6.283185307179586
  0
HATCH
  5
7C
330
70
100
AcDbEntity
  8
Screws
 62
    18
420
        0
440
 33554687
100
AcDbHatch
 10
0.0
 20
0.0
 30
0.0
210
0.0
220
0.0
230
1.0
  2
SOLID
 70
     1
 71
     1
 91
        1
 92
        1
 93
        1
 72
     3
 10
17.342316281568
 20
-1982.358092505099
 11
2.557638888249479
 21
0.0
 40
0.9655172413793103
 50
0.0
 51
360.0
 73
     1
 97
        1
330
7B
 75
     2
 76
     1
 98
        1
 10
0.0
 20
0.0
450
        0
451
        0
460
0.0
461
0.0
452
        0
462
0.0
453
        0
470

  0
ELLIPSE
  5
7D
330
70
100
AcDbEntity
  8
Screws
100
AcDbEllipse
 10
1182.38037163908
 20
-1982.387911349827
 30
0.0
 11
2.557638888249479
 21
0.0
 31
0.0
210
0.0
220
0.0
230
1.0
 40
0.9655172413793103
 41
0.0
 42
6.283185307179586
  0
HATCH
  5
7E
330
70
100
AcDbEntity
  8
Screws
 62
    18
420
        0
440
 33554687
100
AcDbHatch
 10
0.0
 20
0.0
 30
0.0
210
0.0
220
0.0
230
1.0
  2
SOLID
 70
     1
 71
     1
 91
        1
 92
        1
 93
        1
 72
     3
 10
1182.38037163908
 20
-1982.387911349827
 11
2.557638888249479
 21
0.0
 40
0.9655172413793103
 50
0.0
 51
360.0
 73
     1
 97
        1
330
7D
 75
     2
 76
     1
 98
        1
 10
0.0
 20
0.0
450
        0
451
        0
460
0.0
461
0.0
452
        0
462
0.0
453
        0
470

  0
ELLIPSE
  5
7F
330
70
100
AcDbEntity
  8
Screws
100
AcDbEllipse
 10
1182.644954972347
 20
-17.53202921959431
 30
0.0
 11
2.557638888249479
 21
0.0
 31
0.0
210
0.0
220
0.0
230
1.0
 40
0.9655172413793103
 41
0.0
 42
6.283185307179586
  0
HATCH
  5
80
330
70
100
AcDbEntity
  8
Screws
 62
    18
420
        0
440
 33554687
100
AcDbHatch
 10
0.0
 20
0.0
 30
0.0
210
0.0
220
0.0
230
1.0
  2
SOLID
 70
     1
 71
     1
 91
        1
 92
        1
 93
        1
 72
     3
 10
1182.644954972347
 20
-17.53202921959431
 11
2.557638888249479
 21
0.0
 40
0.9655172413793103
 50
0.0
 51
360.0
 73
     1
 97
        1
330
7F
 75
     2
 76
     1
 98
        1
 10
0.0
 20
0.0
450
        0
451
        0
460
0.0
461
0.0
452
        0
462
0.0
453
        0
470

  0
ELLIPSE
  5
81
330
70
100
AcDbEntity
  8
Screws
100
AcDbEllipse
 10
17.43471861274107
 20
-17.53202921959431
 30
0.0
 11
2.557638888249479
 21
0.0
 31
0.0
210
0.0
220
0.0
230
1.0
 40
0.9655172413793103
 41
0.0
 42
6.283185307179586
  0
HATCH
  5
82
330
70
100
AcDbEntity
  8
Screws
 62
    18
420
        0
440
 33554687
100
AcDbHatch
 10
0.0
 20
0.0
 30
0.0
210
0.0
220
0.0
230
1.0
  2
SOLID
 70
     1
 71
     1
 91
        1
 92
        1
 93
        1
 72
     3
 10
17.43471861274107
 20
-17.53202921959431
 11
2.557638888249479
 21
0.0
 40
0.9655172413793103
 50
0.0
 51
360.0
 73
     1
 97
        1
330
81
 75
     2
 76
     1
 98
        1
 10
0.0
 20
0.0
450
        0
451
        0
460
0.0
461
0.0
452
        0
462
0.0
453
        0
470

  0
SPLINE
  5
89
330
70
100
AcDbEntity
  8
2023-013
100
AcDbSpline
210
0.0
220
0.0
230
1.0
 70
     9
 71
     3
 72
   224
 73
   220
 74
     0
 42
0.0000000001
 43
0.0000000001
 40
0.0
 40
0.0
 40
0.0
 40
0.0
 40
1.0
 40
1.0
 40
1.0
 40
2.0
 40
2.0
 40
2.0
 40
3.0
 40
3.0
 40
3.0
 40
4.0
 40
4.0
 40
4.0
 40
5.0
 40
5.0
 40
5.0
 40
6.0
 40
6.0
 40
6.0
 40
7.0
 40
7.0
 40
7.0
 40
8.0
 40
8.0
 40
8.0
 40
9.0
 40
9.0
 40
9.0
 40
10.0
 40
10.0
 40
10.0
 40
11.0
 40
11.0
 40
11.0
 40
12.0
 40
12.0
 40
12.0
 40
13.0
 40
13.0
 40
13.0
 40
14.0
 40
14.0
 40
14.0
 40
15.0
 40
15.0
 40
15.0
 40
16.0
 40
16.0
 40
16.0
 40
17.0
 40
17.0
 40
17.0
 40
18.0
 40
18.0
 40
18.0
 40
19.0
 40
19.0
 40
19.0
 40
20.0
 40
20.0
 40
20.0
 40
21.0
 40
21.0
 40
21.0
 40
22.0
 40
22.0
 40
22.0
 40
23.0
 40
23.0
 40
23.0
 40
24.0
 40
24.0
 40
24.0
 40
25.0
 40
25.0
 40
25.0
 40
26.0
 40
26.0
 40
26.0
 40
27.0
 40
27.0
 40
27.0
 40
28.0
 40
28.0
 40
28.0
 40
29.0
 40
29.0
 40
29.0
 40
30.0
 40
30.0
 40
30.0
 40
31.0
 40
31.0
 40
31.0
 40
32.0
 40
32.0
 40
32.0
 40
33.0
 40
33.0
 40
33.0
 40
34.0
 40
34.0
 40
34.0
 40
35.0
 40
35.0
 40
35.0
 40
36.0
 40
36.0
 40
36.0
 40
37.0
 40
37.0
 40
37.0
 40
38.0
 40
38.0
 40
38.0
 40
39.0
 40
39.0
 40
39.0
 40
40.0
 40
40.0
 40
40.0
 40
41.0
 40
41.0
 40
41.0
 40
42.0
 40
42.0
 40
42.0
 40
43.0
 40
43.0
 40
43.0
 40
44.0
 40
44.0
 40
44.0
 40
45.0
 40
45.0
 40
45.0
 40
46.0
 40
46.0
 40
46.0
 40
47.0
 40
47.0
 40
47.0
 40
48.0
 40
48.0
 40
48.0
 40
49.0
 40
49.0
 40
49.0
 40
50.0
 40
50.0
 40
50.0
 40
51.0
 40
51.0
 40
51.0
 40
52.0
 40
52.0
 40
52.0
 40
53.0
 40
53.0
 40
53.0
 40
54.0
 40
54.0
 40
54.0
 40
55.0
 40
55.0
 40
55.0
 40
56.0
 40
56.0
 40
56.0
 40
57.0
 40
57.0
 40
57.0
 40
58.0
 40
58.0
 40
58.0
 40
59.0
 40
59.0
 40
59.0
 40
60.0
 40
60.0
 40
60.0
 40
61.0
 40
61.0
 40
61.0
 40
62.0
 40
62.0
 40
62.0
 40
63.0
 40
63.0
 40
63.0
 40
64.0
 40
64.0
 40
64.0
 40
65.0
 40
65.0
 40
65.0
 40
66.0
 40
66.0
 40
66.0
 40
67.0
 40
67.0
 40
67.0
 40
68.0
 40
68.0
 40
68.0
 40
69.0
 40
69.0
 40
69.0
 40
70.0
 40
70.0
 40
70.0
 40
71.0
 40
71.0
 40
71.0
 40
72.0
 40
72.0
 40
72.0
 40
73.0
 40
73.0
 40
73.0
 40
73.0
 10
1021.065840402285
 20
-1568.991740872943
 30
0.0
 10
1019.989592572693
 20
-1557.917309180833
 30
0.0
 10
1019.152778879326
 20
-1546.817556036907
 30
0.0
 10
1017.943205854455
 20
-1535.758282764932
 30
0.0
 10
1015.847554270778
 20
-1516.596661675972
 30
0.0
 10
1013.399986183282
 20
-1497.473108892125
 30
0.0
 10
1011.382710521894
 20
-1478.303736338323
 30
0.0
 10
1010.037056225355
 20
-1465.515369642302
 30
0.0
 10
1009.509439851789
 20
-1452.637602718438
 30
0.0
 10
1008.032527417263
 20
-1439.867322773714
 30
0.0
 10
1005.596758781805
 20
-1418.805042505542
 30
0.0
 10
1002.439328769574
 20
-1397.82561678379
 30
0.0
 10
1000.066949891042
 20
-1376.757135343744
 30
0.0
 10
998.4405203124559
 20
-1362.313055757512
 30
0.0
 10
997.7937036351002
 20
-1347.761575319529
 30
0.0
 10
996.414804167129
 20
-1333.286231491765
 30
0.0
 10
994.4411950910183
 20
-1312.566824351765
 30
0.0
 10
991.6927840402712
 20
-1291.908653784012
 30
0.0
 10
990.2370589429789
 20
-1271.156862746447
 30
0.0
 10
989.1360925532822
 20
-1255.460749333489
 30
0.0
 10
987.2685062907283
 20
-1239.569299006514
 30
0.0
 10
979.2401418992872
 20
-1226.378372903041
 30
0.0
 10
965.9586097845521
 20
-1204.556449080371
 30
0.0
 10
945.345742222431
 20
-1192.25504663119
 30
0.0
 10
919.3829858812653
 20
-1191.874191325295
 30
0.0
 10
897.1642731860841
 20
-1191.54837141978
 30
0.0
 10
874.9083534596582
 20
-1192.618934841821
 30
0.0
 10
852.6910188026713
 20
-1193.583992214625
 30
0.0
 10
814.8400992157798
 20
-1195.228077907575
 30
0.0
 10
777.0103669661226
 20
-1197.355338242328
 30
0.0
 10
739.1643566402957
 20
-1199.121466442841
 30
0.0
 10
715.3497895889577
 20
-1200.232854246383
 30
0.0
 10
691.5141213277744
 20
-1200.901375025295
 30
0.0
 10
667.7016643974199
 20
-1202.050831133949
 30
0.0
 10
642.3893851475623
 20
-1203.272548120408
 30
0.0
 10
617.0933409101817
 20
-1204.830764808386
 30
0.0
 10
591.7898466538109
 20
-1206.235330237722
 30
0.0
 10
583.6517129074725
 20
-1206.687068383224
 30
0.0
 10
575.5091436006993
 20
-1207.06490923057
 30
0.0
 10
567.3743688224569
 20
-1207.569443464385
 30
0.0
 10
554.6496072018343
 20
-1208.358714840056
 30
0.0
 10
543.0184911430003
 20
-1211.627593691235
 30
0.0
 10
532.6323464651511
 20
-1219.812365417703
 30
0.0
 10
522.0117199758338
 20
-1228.182052644343
 30
0.0
 10
516.0163494939349
 20
-1239.389637276958
 30
0.0
 10
510.9989554929099
 20
-1251.223712523566
 30
0.0
 10
500.3518448320524
 20
-1276.336047044197
 30
0.0
 10
490.8108682041201
 20
-1301.92811111115
 30
0.0
 10
479.7813950080929
 20
-1326.865090271582
 30
0.0
 10
468.9440720127572
 20
-1351.36747063655
 30
0.0
 10
456.7607502113307
 20
-1375.271782425279
 30
0.0
 10
445.2915967040001
 20
-1399.497004858459
 30
0.0
 10
437.3636568459542
 20
-1416.242580483613
 30
0.0
 10
429.804428332219
 20
-1433.163855978515
 30
0.0
 10
421.7913084883021
 20
-1449.867745948297
 30
0.0
 10
412.8902152830622
 20
-1468.422341212755
 30
0.0
 10
403.7070118212728
 20
-1486.842233243741
 30
0.0
 10
394.5624364926147
 20
-1505.279006242604
 30
0.0
 10
383.5384754493638
 20
-1527.504867510919
 30
0.0
 10
372.4438468849726
 20
-1549.695588805285
 30
0.0
 10
361.3382370787212
 20
-1571.880970201648
 30
0.0
 10
358.7029543509719
 20
-1577.145420612658
 30
0.0
 10
355.8995294316944
 20
-1577.373141424233
 30
0.0
 10
352.4163441094871
 20
-1572.327454576536
 30
0.0
 10
338.3411050586439
 20
-1551.938690475731
 30
0.0
 10
324.2888620201648
 20
-1531.532184133176
 30
0.0
 10
310.4445950897608
 20
-1510.986151423469
 30
0.0
 10
302.2290974179323
 20
-1498.793786246395
 30
0.0
 10
294.7292537376241
 20
-1486.112389765191
 30
0.0
 10
286.3539897626671
 20
-1474.035263032099
 30
0.0
 10
272.4749273678622
 20
-1454.021669829637
 30
0.0
 10
258.0493651698627
 20
-1434.388587423521
 30
0.0
 10
244.0421667548532
 20
-1414.462671901159
 30
0.0
 10
232.1545633371437
 20
-1397.552076202261
 30
0.0
 10
220.5327490361212
 20
-1380.45432569113
 30
0.0
 10
207.9642655594456
 20
-1362.237780421159
 30
0.0
 10
211.0400252768299
 20
-1361.106066554255
 30
0.0
 10
212.6671869382069
 20
-1360.086318290621
 30
0.0
 10
214.3666094773871
 20
-1359.946619668694
 30
0.0
 10
232.9844868395404
 20
-1358.416825018468
 30
0.0
 10
251.6076179723086
 20
-1356.938965182685
 30
0.0
 10
270.2420963883314
 20
-1355.628709242256
 30
0.0
 10
280.3069859121824
 20
-1354.921086629585
 30
0.0
 10
290.4227551899811
 20
-1354.86389804453
 30
0.0
 10
300.4691919211392
 20
-1353.983331638501
 30
0.0
 10
318.826275555059
 20
-1352.374127537341
 30
0.0
 10
337.1643465682697
 20
-1350.511364408466
 30
0.0
 10
355.4804550977618
 20
-1348.484097970171
 30
0.0
 10
367.9395137290862
 20
-1347.105112374814
 30
0.0
 10
380.6754719100395
 20
-1346.524355403386
 30
0.0
 10
392.7140135736965
 20
-1343.38449537813
 30
0.0
 10
422.7363843072953
 20
-1335.553965594931
 30
0.0
 10
436.926474228876
 20
-1311.523218801893
 30
0.0
 10
438.6055707046942
 20
-1283.016603954419
 30
0.0
 10
439.3002311456022
 20
-1271.222664070215
 30
0.0
 10
433.936648112002
 20
-1261.15600893493
 30
0.0
 10
427.5421633181371
 20
-1251.495616684741
 30
0.0
 10
417.8429706800463
 20
-1236.842592057328
 30
0.0
 10
404.8721000506916
 20
-1225.827760517113
 30
0.0
 10
387.6511012485734
 20
-1223.56174896169
 30
0.0
 10
371.5789556634006
 20
-1221.44689097068
 30
0.0
 10
354.966080809966
 20
-1222.480764125803
 30
0.0
 10
338.657644738198
 20
-1223.36081376751
 30
0.0
 10
315.223373164738
 20
-1224.625249937986
 30
0.0
 10
291.8522760297388
 20
-1227.044309860339
 30
0.0
 10
268.4484504876297
 20
-1228.89759897663
 30
0.0
 10
253.8464563370918
 20
-1230.053859148868
 30
0.0
 10
239.137879544979
 20
-1230.362367449573
 30
0.0
 10
224.6469897238404
 20
-1232.314358551515
 30
0.0
 10
198.6877430737004
 20
-1235.811216596429
 30
0.0
 10
172.9076198569467
 20
-1240.632799982811
 30
0.0
 10
146.9555002480922
 20
-1244.191583619074
 30
0.0
 10
127.1108674473347
 20
-1246.912950670261
 30
0.0
 10
109.8713943206767
 20
-1255.090315441436
 30
0.0
 10
94.7801320156933
 20
-1267.660779848015
 30
0.0
 10
79.7671810374587
 20
-1280.166045822538
 30
0.0
 10
69.74888643004542
 20
-1296.058099041222
 30
0.0
 10
63.8719195736045
 20
-1315.00991381513
 30
0.0
 10
58.07468514580034
 20
-1333.704638338449
 30
0.0
 10
58.69525450192806
 20
-1352.148646037831
 30
0.0
 10
65.63576539835885
 20
-1369.643529931027
 30
0.0
 10
70.55340235323838
 20
-1382.039327996504
 30
0.0
 10
78.68598088310628
 20
-1393.352504805742
 30
0.0
 10
86.48337315410616
 20
-1404.369575658022
 30
0.0
 10
102.9174475518534
 20
-1427.589346973832
 30
0.0
 10
120.5353859494126
 20
-1449.975232927437
 30
0.0
 10
136.7951600474527
 20
-1473.311792980196
 30
0.0
 10
151.1521648452957
 20
-1493.917425841798
 30
0.0
 10
164.3352533565399
 20
-1515.342646919341
 30
0.0
 10
178.0169333118868
 20
-1536.418879824229
 30
0.0
 10
186.7662915928484
 20
-1549.896954636397
 30
0.0
 10
195.63678804381
 20
-1563.299926366988
 30
0.0
 10
204.1728949142346
 20
-1576.912359903081
 30
0.0
 10
217.2596068792789
 20
-1597.781714824079
 30
0.0
 10
229.743168752243
 20
-1619.037437203748
 30
0.0
 10
243.1460328235993
 20
-1639.698363847888
 30
0.0
 10
259.2579477297819
 20
-1664.535435239248
 30
0.0
 10
275.9033141400085
 20
-1689.031786687117
 30
0.0
 10
292.616419740214
 20
-1713.471121804705
 30
0.0
 10
309.4844254461749
 20
-1738.136799695674
 30
0.0
 10
329.2703624326021
 20
-1758.820119460469
 30
0.0
 10
361.219273625243
 20
-1762.800066019804
 30
0.0
 10
379.2304266087514
 20
-1765.043684454572
 30
0.0
 10
395.4597546754407
 20
-1761.326598680762
 30
0.0
 10
410.0489589089914
 20
-1750.523812767664
 30
0.0
 10
427.9393397638938
 20
-1737.276731607781
 30
0.0
 10
436.0757940261827
 20
-1717.346854225611
 30
0.0
 10
444.9877392822012
 20
-1698.207970766854
 30
0.0
 10
454.9794635906822
 20
-1676.75036579175
 30
0.0
 10
463.5996092591001
 20
-1654.65765746394
 30
0.0
 10
473.1977744720878
 20
-1633.010572237147
 30
0.0
 10
479.7059474169659
 20
-1618.332570667465
 30
0.0
 10
487.1029980607349
 20
-1604.050066059491
 30
0.0
 10
493.6628043741991
 20
-1589.393768591367
 30
0.0
 10
498.1774297528446
 20
-1579.306873520104
 30
0.0
 10
501.3364531217368
 20
-1568.586769898652
 30
0.0
 10
506.1920568260338
 20
-1558.685220964495
 30
0.0
 10
512.0348526416316
 20
-1546.770530483533
 30
0.0
 10
518.9555757708688
 20
-1535.378805497232
 30
0.0
 10
525.5500052939598
 20
-1523.84118071713
 30
0.0
 10
537.122813111704
 20
-1503.593321021671
 30
0.0
 10
549.5187834319556
 20
-1483.776787280965
 30
0.0
 10
560.2065892832346
 20
-1463.075036255325
 30
0.0
 10
568.4810626834006
 20
-1447.047590784071
 30
0.0
 10
574.9133143365253
 20
-1430.041738195007
 30
0.0
 10
581.7292634993179
 20
-1413.293578748239
 30
0.0
 10
589.4083813359397
 20
-1394.424274011203
 30
0.0
 10
596.5470498183111
 20
-1375.335516691756
 30
0.0
 10
604.0208399640122
 20
-1356.381807115331
 30
0.0
 10
609.3506610618569
 20
-1342.864974978954
 30
0.0
 10
618.1221325494625
 20
-1332.89133742177
 30
0.0
 10
633.4849329742262
 20
-1331.903886928309
 30
0.0
 10
661.8500405246416
 20
-1330.080828524903
 30
0.0
 10
690.254508290978
 20
-1328.861264723125
 30
0.0
 10
718.6472627326645
 20
-1327.486843879285
 30
0.0
 10
724.1737987827171
 20
-1327.219332214855
 30
0.0
 10
729.7297042717795
 20
-1327.574177049836
 30
0.0
 10
735.2581351243452
 20
-1327.327249830928
 30
0.0
 10
753.4969873875807
 20
-1326.512657003441
 30
0.0
 10
771.7219731414899
 20
-1325.318931417802
 30
0.0
 10
789.9671127039839
 20
-1324.728872688568
 30
0.0
 10
803.110151980212
 20
-1324.303834033073
 30
0.0
 10
816.2773930522259
 20
-1324.680813606549
 30
0.0
 10
829.4328346722009
 20
-1324.570484423632
 30
0.0
 10
845.0026853356243
 20
-1324.439743049966
 30
0.0
 10
863.6822514388123
 20
-1338.713807174002
 30
0.0
 10
866.0872725970651
 20
-1354.147490438373
 30
0.0
 10
868.4158987629308
 20
-1369.091711761678
 30
0.0
 10
869.1474647892235
 20
-1384.283118686047
 30
0.0
 10
870.639363389111
 20
-1399.360234567694
 30
0.0
 10
873.5053383232903
 20
-1428.324616477773
 30
0.0
 10
876.3516762132038
 20
-1457.291237699913
 30
0.0
 10
879.3255687634605
 20
-1486.24450917705
 30
0.0
 10
881.2334626431917
 20
-1504.817880211903
 30
0.0
 10
883.3993080473794
 20
-1523.364379501971
 30
0.0
 10
885.3683523719739
 20
-1541.931549364951
 30
0.0
 10
887.5051728467001
 20
-1562.082257367726
 30
0.0
 10
889.5229652724109
 20
-1582.245539969022
 30
0.0
 10
891.6396319385485
 20
-1602.398487283862
 30
0.0
 10
893.3685531078211
 20
-1618.860014786257
 30
0.0
 10
895.2410486314434
 20
-1635.30690063284
 30
0.0
 10
896.9061494068498
 20
-1651.774629307108
 30
0.0
 10
897.9311514411007
 20
-1661.912684046327
 30
0.0
 10
898.3710901345672
 20
-1672.117745892735
 30
0.0
 10
899.6407800756561
 20
-1682.221349677101
 30
0.0
 10
901.2883969914767
 20
-1695.331832800993
 30
0.0
 10
904.2297333893939
 20
-1707.935370124231
 30
0.0
 10
914.7033404288762
 20
-1717.484830299795
 30
0.0
 10
924.4359074294813
 20
-1726.358534995928
 30
0.0
 10
935.3955313145471
 20
-1732.670811198777
 30
0.0
 10
948.3354822119197
 20
-1735.129920356148
 30
0.0
 10
965.0353241945051
 20
-1738.303370062386
 30
0.0
 10
981.3160703113135
 20
-1736.758244737251
 30
0.0
 10
996.2976709206305
 20
-1728.383389867383
 30
0.0
 10
1023.230652277831
 20
-1713.32746132297
 30
0.0
 10
1033.086898206357
 20
-1689.686699338863
 30
0.0
 10
1029.976149237951
 20
-1659.65580199394
 30
0.0
 10
1026.847485773021
 20
-1629.450755072238
 30
0.0
 10
1024.003128813009
 20
-1599.216424838911
 30
0.0
 10
1021.065840402285
 20
-1568.991740872943
 30
0.0
  0
HATCH
  5
8A
330
70
100
AcDbEntity
  8
2023-013
 62
    18
420
        0
440
 33554687
100
AcDbHatch
 10
0.0
 20
0.0
 30
0.0
210
0.0
220
0.0
230
1.0
  2
SOLID
 70
     1
 71
     1
 91
        1
 92
        1
 93
        1
 72
     4
 94
        3
 73
     0
 74
     0
 95
      224
 96
      220
 40
0.0
 40
0.0
 40
0.0
 40
0.0
 40
1.0
 40
1.0
 40
1.0
 40
2.0
 40
2.0
 40
2.0
 40
3.0
 40
3.0
 40
3.0
 40
4.0
 40
4.0
 40
4.0
 40
5.0
 40
5.0
 40
5.0
 40
6.0
 40
6.0
 40
6.0
 40
7.0
 40
7.0
 40
7.0
 40
8.0
 40
8.0
 40
8.0
 40
9.0
 40
9.0
 40
9.0
 40
10.0
 40
10.0
 40
10.0
 40
11.0
 40
11.0
 40
11.0
 40
12.0
 40
12.0
 40
12.0
 40
13.0
 40
13.0
 40
13.0
 40
14.0
 40
14.0
 40
14.0
 40
15.0
 40
15.0
 40
15.0
 40
16.0
 40
16.0
 40
16.0
 40
17.0
 40
17.0
 40
17.0
 40
18.0
 40
18.0
 40
18.0
 40
19.0
 40
19.0
 40
19.0
 40
20.0
 40
20.0
 40
20.0
 40
21.0
 40
21.0
 40
21.0
 40
22.0
 40
22.0
 40
22.0
 40
23.0
 40
23.0
 40
23.0
 40
24.0
 40
24.0
 40
24.0
 40
25.0
 40
25.0
 40
25.0
 40
26.0
 40
26.0
 40
26.0
 40
27.0
 40
27.0
 40
27.0
 40
28.0
 40
28.0
 40
28.0
 40
29.0
 40
29.0
 40
29.0
 40
30.0
 40
30.0
 40
30.0
 40
31.0
 40
31.0
 40
31.0
 40
32.0
 40
32.0
 40
32.0
 40
33.0
 40
33.0
 40
33.0
 40
34.0
 40
34.0
 40
34.0
 40
35.0
 40
35.0
 40
35.0
 40
36.0
 40
36.0
 40
36.0
 40
37.0
 40
37.0
 40
37.0
 40
38.0
 40
38.0
 40
38.0
 40
39.0
 40
39.0
 40
39.0
 40
40.0
 40
40.0
 40
40.0
 40
41.0
 40
41.0
 40
41.0
 40
42.0
 40
42.0
 40
42.0
 40
43.0
 40
43.0
 40
43.0
 40
44.0
 40
44.0
 40
44.0
 40
45.0
 40
45.0
 40
45.0
 40
46.0
 40
46.0
 40
46.0
 40
47.0
 40
47.0
 40
47.0
 40
48.0
 40
48.0
 40
48.0
 40
49.0
 40
49.0
 40
49.0
 40
50.0
 40
50.0
 40
50.0
 40
51.0
 40
51.0
 40
51.0
 40
52.0
 40
52.0
 40
52.0
 40
53.0
 40
53.0
 40
53.0
 40
54.0
 40
54.0
 40
54.0
 40
55.0
 40
55.0
 40
55.0
 40
56.0
 40
56.0
 40
56.0
 40
57.0
 40
57.0
 40
57.0
 40
58.0
 40
58.0
 40
58.0
 40
59.0
 40
59.0
 40
59.0
 40
60.0
 40
60.0
 40
60.0
 40
61.0
 40
61.0
 40
61.0
 40
62.0
 40
62.0
 40
62.0
 40
63.0
 40
63.0
 40
63.0
 40
64.0
 40
64.0
 40
64.0
 40
65.0
 40
65.0
 40
65.0
 40
66.0
 40
66.0
 40
66.0
 40
67.0
 40
67.0
 40
67.0
 40
68.0
 40
68.0
 40
68.0
 40
69.0
 40
69.0
 40
69.0
 40
70.0
 40
70.0
 40
70.0
 40
71.0
 40
71.0
 40
71.0
 40
72.0
 40
72.0
 40
72.0
 40
73.0
 40
73.0
 40
73.0
 40
73.0
 10
1021.065840402285
 20
-1568.991740872943
 10
1019.989592572693
 20
-1557.917309180833
 10
1019.152778879326
 20
-1546.817556036907
 10
1017.943205854455
 20
-1535.758282764932
 10
1015.847554270778
 20
-1516.596661675972
 10
1013.399986183282
 20
-1497.473108892125
 10
1011.382710521894
 20
-1478.303736338323
 10
1010.037056225355
 20
-1465.515369642302
 10
1009.509439851789
 20
-1452.637602718438
 10
1008.032527417263
 20
-1439.867322773714
 10
1005.596758781805
 20
-1418.805042505542
 10
1002.439328769574
 20
-1397.82561678379
 10
1000.066949891042
 20
-1376.757135343744
 10
998.4405203124559
 20
-1362.313055757512
 10
997.7937036351002
 20
-1347.761575319529
 10
996.414804167129
 20
-1333.286231491765
 10
994.4411950910183
 20
-1312.566824351765
 10
991.6927840402712
 20
-1291.908653784012
 10
990.2370589429789
 20
-1271.156862746447
 10
989.1360925532822
 20
-1255.460749333489
 10
987.2685062907283
 20
-1239.569299006514
 10
979.2401418992872
 20
-1226.378372903041
 10
965.9586097845521
 20
-1204.556449080371
 10
945.345742222431
 20
-1192.25504663119
 10
919.3829858812653
 20
-1191.874191325295
 10
897.1642731860841
 20
-1191.54837141978
 10
874.9083534596582
 20
-1192.618934841821
 10
852.6910188026713
 20
-1193.583992214625
 10
814.8400992157798
 20
-1195.228077907575
 10
777.0103669661226
 20
-1197.355338242328
 10
739.1643566402957
 20
-1199.121466442841
 10
715.3497895889577
 20
-1200.232854246383
 10
691.5141213277744
 20
-1200.901375025295
 10
667.7016643974199
 20
-1202.050831133949
 10
642.3893851475623
 20
-1203.272548120408
 10
617.0933409101817
 20
-1204.830764808386
 10
591.7898466538109
 20
-1206.235330237722
 10
583.6517129074725
 20
-1206.687068383224
 10
575.5091436006993
 20
-1207.06490923057
 10
567.3743688224569
 20
-1207.569443464385
 10
554.6496072018343
 20
-1208.358714840056
 10
543.0184911430003
 20
-1211.627593691235
 10
532.6323464651511
 20
-1219.812365417703
 10
522.0117199758338
 20
-1228.182052644343
 10
516.0163494939349
 20
-1239.389637276958
 10
510.9989554929099
 20
-1251.223712523566
 10
500.3518448320524
 20
-1276.336047044197
 10
490.8108682041201
 20
-1301.92811111115
 10
479.7813950080929
 20
-1326.865090271582
 10
468.9440720127572
 20
-1351.36747063655
 10
456.7607502113307
 20
-1375.271782425279
 10
445.2915967040001
 20
-1399.497004858459
 10
437.3636568459542
 20
-1416.242580483613
 10
429.804428332219
 20
-1433.163855978515
 10
421.7913084883021
 20
-1449.867745948297
 10
412.8902152830622
 20
-1468.422341212755
 10
403.7070118212728
 20
-1486.842233243741
 10
394.5624364926147
 20
-1505.279006242604
 10
383.5384754493638
 20
-1527.504867510919
 10
372.4438468849726
 20
-1549.695588805285
 10
361.3382370787212
 20
-1571.880970201648
 10
358.7029543509719
 20
-1577.145420612658
 10
355.8995294316944
 20
-1577.373141424233
 10
352.4163441094871
 20
-1572.327454576536
 10
338.3411050586439
 20
-1551.938690475731
 10
324.2888620201648
 20
-1531.532184133176
 10
310.4445950897608
 20
-1510.986151423469
 10
302.2290974179323
 20
-1498.793786246395
 10
294.7292537376241
 20
-1486.112389765191
 10
286.3539897626671
 20
-1474.035263032099
 10
272.4749273678622
 20
-1454.021669829637
 10
258.0493651698627
 20
-1434.388587423521
 10
244.0421667548532
 20
-1414.462671901159
 10
232.1545633371437
 20
-1397.552076202261
 10
220.5327490361212
 20
-1380.45432569113
 10
207.9642655594456
 20
-1362.237780421159
 10
211.0400252768299
 20
-1361.106066554255
 10
212.6671869382069
 20
-1360.086318290621
 10
214.3666094773871
 20
-1359.946619668694
 10
232.9844868395404
 20
-1358.416825018468
 10
251.6076179723086
 20
-1356.938965182685
 10
270.2420963883314
 20
-1355.628709242256
 10
280.3069859121824
 20
-1354.921086629585
 10
290.4227551899811
 20
-1354.86389804453
 10
300.4691919211392
 20
-1353.983331638501
 10
318.826275555059
 20
-1352.374127537341
 10
337.1643465682697
 20
-1350.511364408466
 10
355.4804550977618
 20
-1348.484097970171
 10
367.9395137290862
 20
-1347.105112374814
 10
380.6754719100395
 20
-1346.524355403386
 10
392.7140135736965
 20
-1343.38449537813
 10
422.7363843072953
 20
-1335.553965594931
 10
436.926474228876
 20
-1311.523218801893
 10
438.6055707046942
 20
-1283.016603954419
 10
439.3002311456022
 20
-1271.222664070215
 10
433.936648112002
 20
-1261.15600893493
 10
427.5421633181371
 20
-1251.495616684741
 10
417.8429706800463
 20
-1236.842592057328
 10
404.8721000506916
 20
-1225.827760517113
 10
387.6511012485734
 20
-1223.56174896169
 10
371.5789556634006
 20
-1221.44689097068
 10
354.966080809966
 20
-1222.480764125803
 10
338.657644738198
 20
-1223.36081376751
 10
315.223373164738
 20
-1224.625249937986
 10
291.8522760297388
 20
-1227.044309860339
 10
268.4484504876297
 20
-1228.89759897663
 10
253.8464563370918
 20
-1230.053859148868
 10
239.137879544979
 20
-1230.362367449573
 10
224.6469897238404
 20
-1232.314358551515
 10
198.6877430737004
 20
-1235.811216596429
 10
172.9076198569467
 20
-1240.632799982811
 10
146.9555002480922
 20
-1244.191583619074
 10
127.1108674473347
 20
-1246.912950670261
 10
109.8713943206767
 20
-1255.090315441436
 10
94.7801320156933
 20
-1267.660779848015
 10
79.7671810374587
 20
-1280.166045822538
 10
69.74888643004542
 20
-1296.058099041222
 10
63.8719195736045
 20
-1315.00991381513
 10
58.07468514580034
 20
-1333.704638338449
 10
58.69525450192806
 20
-1352.148646037831
 10
65.63576539835885
 20
-1369.643529931027
 10
70.55340235323838
 20
-1382.039327996504
 10
78.68598088310628
 20
-1393.352504805742
 10
86.48337315410616
 20
-1404.369575658022
 10
102.9174475518534
 20
-1427.589346973832
 10
120.5353859494126
 20
-1449.975232927437
 10
136.7951600474527
 20
-1473.311792980196
 10
151.1521648452957
 20
-1493.917425841798
 10
164.3352533565399
 20
-1515.342646919341
 10
178.0169333118868
 20
-1536.418879824229
 10
186.7662915928484
 20
-1549.896954636397
 10
195.63678804381
 20
-1563.299926366988
 10
204.1728949142346
 20
-1576.912359903081
 10
217.2596068792789
 20
-1597.781714824079
 10
229.743168752243
 20
-1619.037437203748
 10
243.1460328235993
 20
-1639.698363847888
 10
259.2579477297819
 20
-1664.535435239248
 10
275.9033141400085
 20
-1689.031786687117
 10
292.616419740214
 20
-1713.471121804705
 10
309.4844254461749
 20
-1738.136799695674
 10
329.2703624326021
 20
-1758.820119460469
 10
361.219273625243
 20
-1762.800066019804
 10
379.2304266087514
 20
-1765.043684454572
 10
395.4597546754407
 20
-1761.326598680762
 10
410.0489589089914
 20
-1750.523812767664
 10
427.9393397638938
 20
-1737.276731607781
 10
436.0757940261827
 20
-1717.346854225611
 10
444.9877392822012
 20
-1698.207970766854
 10
454.9794635906822
 20
-1676.75036579175
 10
463.5996092591001
 20
-1654.65765746394
 10
473.1977744720878
 20
-1633.010572237147
 10
479.7059474169659
 20
-1618.332570667465
 10
487.1029980607349
 20
-1604.050066059491
 10
493.6628043741991
 20
-1589.393768591367
 10
498.1774297528446
 20
-1579.306873520104
 10
501.3364531217368
 20
-1568.586769898652
 10
506.1920568260338
 20
-1558.685220964495
 10
512.0348526416316
 20
-1546.770530483533
 10
518.9555757708688
 20
-1535.378805497232
 10
525.5500052939598
 20
-1523.84118071713
 10
537.122813111704
 20
-1503.593321021671
 10
549.5187834319556
 20
-1483.776787280965
 10
560.2065892832346
 20
-1463.075036255325
 10
568.4810626834006
 20
-1447.047590784071
 10
574.9133143365253
 20
-1430.041738195007
 10
581.7292634993179
 20
-1413.293578748239
 10
589.4083813359397
 20
-1394.424274011203
 10
596.5470498183111
 20
-1375.335516691756
 10
604.0208399640122
 20
-1356.381807115331
 10
609.3506610618569
 20
-1342.864974978954
 10
618.1221325494625
 20
-1332.89133742177
 10
633.4849329742262
 20
-1331.903886928309
 10
661.8500405246416
 20
-1330.080828524903
 10
690.254508290978
 20
-1328.861264723125
 10
718.6472627326645
 20
-1327.486843879285
 10
724.1737987827171
 20
-1327.219332214855
 10
729.7297042717795
 20
-1327.574177049836
 10
735.2581351243452
 20
-1327.327249830928
 10
753.4969873875807
 20
-1326.512657003441
 10
771.7219731414899
 20
-1325.318931417802
 10
789.9671127039839
 20
-1324.728872688568
 10
803.110151980212
 20
-1324.303834033073
 10
816.2773930522259
 20
-1324.680813606549
 10
829.4328346722009
 20
-1324.570484423632
 10
845.0026853356243
 20
-1324.439743049966
 10
863.6822514388123
 20
-1338.713807174002
 10
866.0872725970651
 20
-1354.147490438373
 10
868.4158987629308
 20
-1369.091711761678
 10
869.1474647892235
 20
-1384.283118686047
 10
870.639363389111
 20
-1399.360234567694
 10
873.5053383232903
 20
-1428.324616477773
 10
876.3516762132038
 20
-1457.291237699913
 10
879.3255687634605
 20
-1486.24450917705
 10
881.2334626431917
 20
-1504.817880211903
 10
883.3993080473794
 20
-1523.364379501971
 10
885.3683523719739
 20
-1541.931549364951
 10
887.5051728467001
 20
-1562.082257367726
 10
889.5229652724109
 20
-1582.245539969022
 10
891.6396319385485
 20
-1602.398487283862
 10
893.3685531078211
 20
-1618.860014786257
 10
895.2410486314434
 20
-1635.30690063284
 10
896.9061494068498
 20
-1651.774629307108
 10
897.9311514411007
 20
-1661.912684046327
 10
898.3710901345672
 20
-1672.117745892735
 10
899.6407800756561
 20
-1682.221349677101
 10
901.2883969914767
 20
-1695.331832800993
 10
904.2297333893939
 20
-1707.935370124231
 10
914.7033404288762
 20
-1717.484830299795
 10
924.4359074294813
 20
-1726.358534995928
 10
935.3955313145471
 20
-1732.670811198777
 10
948.3354822119197
 20
-1735.129920356148
 10
965.0353241945051
 20
-1738.303370062386
 10
981.3160703113135
 20
-1736.758244737251
 10
996.2976709206305
 20
-1728.383389867383
 10
1023.230652277831
 20
-1713.32746132297
 10
1033.086898206357
 20
-1689.686699338863
 10
1029.976149237951
 20
-1659.65580199394
 10
1026.847485773021
 20
-1629.450755072238
 10
1024.003128813009
 20
-1599.216424838911
 10
1021.065840402285
 20
-1568.991740872943
 97
        0
 97
        1
330
89
 75
     2
 76
     1
 98
        1
 10
0.0
 20
0.0
450
        0
451
        0
460
0.0
461
0.0
452
        0
462
0.0
453
        0
470

  0
SPLINE
  5
8B
330
70
100
AcDbEntity
  8
2023-013
100
AcDbSpline
210
0.0
220
0.0
230
1.0
 70
     9
 71
     3
 72
    50
 73
    46
 74
     0
 42
0.0000000001
 43
0.0000000001
 40
0.0
 40
0.0
 40
0.0
 40
0.0
 40
1.0
 40
1.0
 40
1.0
 40
2.0
 40
2.0
 40
2.0
 40
3.0
 40
3.0
 40
3.0
 40
4.0
 40
4.0
 40
4.0
 40
5.0
 40
5.0
 40
5.0
 40
6.0
 40
6.0
 40
6.0
 40
7.0
 40
7.0
 40
7.0
 40
8.0
 40
8.0
 40
8.0
 40
9.0
 40
9.0
 40
9.0
 40
10.0
 40
10.0
 40
10.0
 40
11.0
 40
11.0
 40
11.0
 40
12.0
 40
12.0
 40
12.0
 40
13.0
 40
13.0
 40
13.0
 40
14.0
 40
14.0
 40
14.0
 40
15.0
 40
15.0
 40
15.0
 40
15.0
 10
1167.070365105368
 20
-1184.354064645318
 30
0.0
 10
1145.125192991715
 20
-1174.972725129434
 30
0.0
 10
1122.886412615331
 20
-1178.557433109225
 30
0.0
 10
1103.218104107876
 20
-1192.278645535263
 30
0.0
 10
1093.534285208387
 20
-1199.034391654453
 30
0.0
 10
1085.583177083205
 20
-1207.566773515382
 30
0.0
 10
1081.679367134094
 20
-1219.661728617613
 30
0.0
 10
1077.891398520677
 20
-1231.397790897664
 30
0.0
 10
1077.326833498029
 20
-1242.820091106396
 30
0.0
 10
1078.842503256765
 20
-1254.904452540006
 30
0.0
 10
1080.964079183971
 20
-1271.819785245198
 30
0.0
 10
1081.904762506218
 20
-1288.879811960766
 30
0.0
 10
1083.611376682222
 20
-1305.85181648669
 30
0.0
 10
1085.595665554341
 20
-1325.584289897556
 30
0.0
 10
1088.022821451084
 20
-1345.272407704046
 30
0.0
 10
1089.963443737926
 20
-1365.00884297472
 30
0.0
 10
1092.264164630365
 20
-1388.408534402248
 30
0.0
 10
1094.048637964335
 20
-1411.859902262052
 30
0.0
 10
1096.442118052712
 20
-1435.24934453051
 30
0.0
 10
1098.165699323983
 20
-1452.09052155538
 30
0.0
 10
1100.815322261688
 20
-1468.83713070918
 30
0.0
 10
1102.507208654495
 20
-1485.680891555663
 30
0.0
 10
1104.084459495031
 20
-1501.385014815626
 30
0.0
 10
1104.934795188176
 20
-1517.162174099876
 30
0.0
 10
1106.11904676123
 20
-1532.906260467468
 30
0.0
 10
1107.035786669856
 20
-1545.092079963119
 30
0.0
 10
1107.808004822874
 20
-1557.291852095486
 30
0.0
 10
1108.944283441299
 20
-1569.457517782549
 30
0.0
 10
1110.388036831778
 20
-1584.913766422348
 30
0.0
 10
1112.256915005141
 20
-1600.330396464067
 30
0.0
 10
1113.70635280317
 20
-1615.786300594317
 30
0.0
 10
1114.641523972642
 20
-1625.757784966824
 30
0.0
 10
1115.278866637413
 20
-1635.76234225599
 30
0.0
 10
1115.826809074342
 20
-1645.764315723542
 30
0.0
 10
1116.849657923912
 20
-1664.438455801338
 30
0.0
 10
1117.27306015905
 20
-1683.177191419483
 30
0.0
 10
1126.787983252376
 20
-1700.165301766799
 30
0.0
 10
1136.290590129341
 20
-1717.131708012557
 30
0.0
 10
1149.840409054988
 20
-1727.782565214756
 30
0.0
 10
1170.163888596348
 20
-1730.808564834225
 30
0.0
 10
1170.163888596348
 20
-1730.808564834225
 30
0.0
 10
1170.163888596348
 20
-1185.75845781988
 30
0.0
 10
1170.163888596348
 20
-1185.75845781988
 30
0.0
 10
1169.14732704604
 20
-1185.274077394653
 30
0.0
 10
1168.119224425852
 20
-1184.802443822723
 30
0.0
 10
1167.070365105368
 20
-1184.354064645318
 30
0.0
  0
HATCH
  5
8C
330
70
100
AcDbEntity
  8
2023-013
 62
    18
420
        0
440
 33554687
100
AcDbHatch
 10
0.0
 20
0.0
 30
0.0
210
0.0
220
0.0
230
1.0
  2
SOLID
 70
     1
 71
     1
 91
        1
 92
        1
 93
        1
 72
     4
 94
        3
 73
     0
 74
     0
 95
       50
 96
       46
 40
0.0
 40
0.0
 40
0.0
 40
0.0
 40
1.0
 40
1.0
 40
1.0
 40
2.0
 40
2.0
 40
2.0
 40
3.0
 40
3.0
 40
3.0
 40
4.0
 40
4.0
 40
4.0
 40
5.0
 40
5.0
 40
5.0
 40
6.0
 40
6.0
 40
6.0
 40
7.0
 40
7.0
 40
7.0
 40
8.0
 40
8.0
 40
8.0
 40
9.0
 40
9.0
 40
9.0
 40
10.0
 40
10.0
 40
10.0
 40
11.0
 40
11.0
 40
11.0
 40
12.0
 40
12.0
 40
12.0
 40
13.0
 40
13.0
 40
13.0
 40
14.0
 40
14.0
 40
14.0
 40
15.0
 40
15.0
 40
15.0
 40
15.0
 10
1167.070365105368
 20
-1184.354064645318
 10
1145.125192991715
 20
-1174.972725129434
 10
1122.886412615331
 20
-1178.557433109225
 10
1103.218104107876
 20
-1192.278645535263
 10
1093.534285208387
 20
-1199.034391654453
 10
1085.583177083205
 20
-1207.566773515382
 10
1081.679367134094
 20
-1219.661728617613
 10
1077.891398520677
 20
-1231.397790897664
 10
1077.326833498029
 20
-1242.820091106396
 10
1078.842503256765
 20
-1254.904452540006
 10
1080.964079183971
 20
-1271.819785245198
 10
1081.904762506218
 20
-1288.879811960766
 10
1083.611376682222
 20
-1305.85181648669
 10
1085.595665554341
 20
-1325.584289897556
 10
1088.022821451084
 20
-1345.272407704046
 10
1089.963443737926
 20
-1365.00884297472
 10
1092.264164630365
 20
-1388.408534402248
 10
1094.048637964335
 20
-1411.859902262052
 10
1096.442118052712
 20
-1435.24934453051
 10
1098.165699323983
 20
-1452.09052155538
 10
1100.815322261688
 20
-1468.83713070918
 10
1102.507208654495
 20
-1485.680891555663
 10
1104.084459495031
 20
-1501.385014815626
 10
1104.934795188176
 20
-1517.162174099876
 10
1106.11904676123
 20
-1532.906260467468
 10
1107.035786669856
 20
-1545.092079963119
 10
1107.808004822874
 20
-1557.291852095486
 10
1108.944283441299
 20
-1569.457517782549
 10
1110.388036831778
 20
-1584.913766422348
 10
1112.256915005141
 20
-1600.330396464067
 10
1113.70635280317
 20
-1615.786300594317
 10
1114.641523972642
 20
-1625.757784966824
 10
1115.278866637413
 20
-1635.76234225599
 10
1115.826809074342
 20
-1645.764315723542
 10
1116.849657923912
 20
-1664.438455801338
 10
1117.27306015905
 20
-1683.177191419483
 10
1126.787983252376
 20
-1700.165301766799
 10
1136.290590129341
 20
-1717.131708012557
 10
1149.840409054988
 20
-1727.782565214756
 10
1170.163888596348
 20
-1730.808564834225
 10
1170.163888596348
 20
-1730.808564834225
 10
1170.163888596348
 20
-1185.75845781988
 10
1170.163888596348
 20
-1185.75845781988
 10
1169.14732704604
 20
-1185.274077394653
 10
1168.119224425852
 20
-1184.802443822723
 10
1167.070365105368
 20
-1184.354064645318
 97
        0
 97
        1
330
8B
 75
     2
 76
     1
 98
        1
 10
0.0
 20
0.0
450
        0
451
        0
460
0.0
461
0.0
452
        0
462
0.0
453
        0
470

  0
SPLINE
  5
8D
330
70
100
AcDbEntity
  8
2023-013
100
AcDbSpline
210
0.0
220
0.0
230
1.0
 70
     9
 71
     3
 72
    68
 73
    64
 74
     0
 42
0.0000000001
 43
0.0000000001
 40
0.0
 40
0.0
 40
0.0
 40
0.0
 40
1.0
 40
1.0
 40
1.0
 40
2.0
 40
2.0
 40
2.0
 40
3.0
 40
3.0
 40
3.0
 40
4.0
 40
4.0
 40
4.0
 40
5.0
 40
5.0
 40
5.0
 40
6.0
 40
6.0
 40
6.0
 40
7.0
 40
7.0
 40
7.0
 40
8.0
 40
8.0
 40
8.0
 40
9.0
 40
9.0
 40
9.0
 40
10.0
 40
10.0
 40
10.0
 40
11.0
 40
11.0
 40
11.0
 40
12.0
 40
12.0
 40
12.0
 40
13.0
 40
13.0
 40
13.0
 40
14.0
 40
14.0
 40
14.0
 40
15.0
 40
15.0
 40
15.0
 40
16.0
 40
16.0
 40
16.0
 40
17.0
 40
17.0
 40
17.0
 40
18.0
 40
18.0
 40
18.0
 40
19.0
 40
19.0
 40
19.0
 40
20.0
 40
20.0
 40
20.0
 40
21.0
 40
21.0
 40
21.0
 40
21.0
 10
1121.343369418415
 20
-1910.332937311054
 30
0.0
 10
1118.674357307554
 20
-1915.143612793108
 30
0.0
 10
1116.580727988736
 20
-1920.282851025131
 30
0.0
 10
1115.140894643696
 20
-1925.592999407897
 30
0.0
 10
1114.426229703496
 20
-1928.22870505363
 30
0.0
 10
1113.872296572075
 20
-1930.908048452955
 30
0.0
 10
1113.485039097045
 20
-1933.611350350529
 30
0.0
 10
1113.285926587611
 20
-1935.001281492695
 30
0.0
 10
1113.108118670274
 20
-1936.399411572307
 30
0.0
 10
1113.005791759081
 20
-1937.800260864371
 30
0.0
 10
1112.924054691202
 20
-1938.919236433311
 30
0.0
 10
1112.979394781108
 20
-1940.157545191922
 30
0.0
 10
1113.57658557378
 20
-1941.142952803096
 30
0.0
 10
1115.11864793779
 20
-1943.687466230035
 30
0.0
 10
1118.58688300114
 20
-1942.557632989685
 30
0.0
 10
1120.902516144608
 20
-1942.035565653216
 30
0.0
 10
1123.513125658015
 20
-1941.446994894907
 30
0.0
 10
1126.08774652803
 20
-1940.708101079169
 30
0.0
 10
1128.63441663469
 20
-1939.887958400959
 30
0.0
 10
1133.749623725508
 20
-1938.240630923367
 30
0.0
 10
1138.75107998363
 20
-1936.267984035415
 30
0.0
 10
1143.817204607851
 20
-1934.480183970996
 30
0.0
 10
1148.849964492754
 20
-1932.704158090503
 30
0.0
 10
1153.9701520655
 20
-1931.102560053966
 30
0.0
 10
1159.245511442317
 20
-1930.228481141281
 30
0.0
 10
1159.865119312094
 20
-1930.125817770995
 30
0.0
 10
1160.486292429127
 20
-1930.032428668091
 30
0.0
 10
1161.109351210562
 20
-1929.953289434234
 30
0.0
 10
1161.699886140478
 20
-1929.87828129164
 30
0.0
 10
1162.211781765842
 20
-1929.500298256565
 30
0.0
 10
1162.211781765842
 20
-1928.850858878955
 30
0.0
 10
1162.211781765842
 20
-1928.313402423972
 30
0.0
 10
1161.704122690251
 20
-1927.672882066039
 30
0.0
 10
1161.109351210562
 20
-1927.748428323674
 30
0.0
 10
1150.674564937741
 20
-1929.073826529624
 30
0.0
 10
1141.017641442682
 20
-1933.303920653773
 30
0.0
 10
1131.160032172875
 20
-1936.719371961081
 30
0.0
 10
1128.702069313161
 20
-1937.571003653183
 30
0.0
 10
1126.225094206282
 20
-1938.371333233561
 30
0.0
 10
1123.71569537932
 20
-1939.058435550522
 30
0.0
 10
1122.463812190735
 20
-1939.401215594173
 30
0.0
 10
1121.204083667082
 20
-1939.715781318697
 30
0.0
 10
1119.936262905765
 20
-1939.994085094914
 30
0.0
 10
1118.795708614816
 20
-1940.244452162428
 30
0.0
 10
1117.584401932023
 20
-1940.621791308932
 30
0.0
 10
1116.441841965797
 20
-1940.538146385707
 30
0.0
 10
1115.589361809453
 20
-1940.475737725036
 30
0.0
 10
1115.27175662736
 20
-1939.858385234449
 30
0.0
 10
1115.204152025124
 20
-1939.109239214262
 30
0.0
 10
1115.098426671803
 20
-1937.937666199215
 30
0.0
 10
1115.297845161159
 20
-1936.72206374977
 30
0.0
 10
1115.434453013017
 20
-1935.560668610616
 30
0.0
 10
1115.738769229052
 20
-1932.9734719799
 30
0.0
 10
1116.215196871086
 20
-1930.404663176403
 30
0.0
 10
1116.831096267615
 20
-1927.87385755802
 30
0.0
 10
1118.227282381526
 20
-1922.136758802457
 30
0.0
 10
1120.382730639971
 20
-1916.608748319055
 30
0.0
 10
1123.247202352205
 20
-1911.445772932396
 30
0.0
 10
1123.936187772001
 20
-1910.203933207126
 30
0.0
 10
1122.032634817973
 20
-1909.09059294522
 30
0.0
 10
1121.343369418415
 20
-1910.332937311054
 30
0.0
 10
1121.343369418415
 20
-1910.332937311054
 30
0.0
 10
1121.343369418415
 20
-1910.332937311054
 30
0.0
 10
1121.343369418415
 20
-1910.332937311054
 30
0.0
  0
HATCH
  5
8E
330
70
100
AcDbEntity
  8
2023-013
 62
   250
420
  2301728
440
 33554687
100
AcDbHatch
 10
0.0
 20
0.0
 30
0.0
210
0.0
220
0.0
230
1.0
  2
SOLID
 70
     1
 71
     1
 91
        1
 92
        1
 93
        1
 72
     4
 94
        3
 73
     0
 74
     0
 95
       68
 96
       64
 40
0.0
 40
0.0
 40
0.0
 40
0.0
 40
1.0
 40
1.0
 40
1.0
 40
2.0
 40
2.0
 40
2.0
 40
3.0
 40
3.0
 40
3.0
 40
4.0
 40
4.0
 40
4.0
 40
5.0
 40
5.0
 40
5.0
 40
6.0
 40
6.0
 40
6.0
 40
7.0
 40
7.0
 40
7.0
 40
8.0
 40
8.0
 40
8.0
 40
9.0
 40
9.0
 40
9.0
 40
10.0
 40
10.0
 40
10.0
 40
11.0
 40
11.0
 40
11.0
 40
12.0
 40
12.0
 40
12.0
 40
13.0
 40
13.0
 40
13.0
 40
14.0
 40
14.0
 40
14.0
 40
15.0
 40
15.0
 40
15.0
 40
16.0
 40
16.0
 40
16.0
 40
17.0
 40
17.0
 40
17.0
 40
18.0
 40
18.0
 40
18.0
 40
19.0
 40
19.0
 40
19.0
 40
20.0
 40
20.0
 40
20.0
 40
21.0
 40
21.0
 40
21.0
 40
21.0
 10
1121.343369418415
 20
-1910.332937311054
 10
1118.674357307554
 20
-1915.143612793108
 10
1116.580727988736
 20
-1920.282851025131
 10
1115.140894643696
 20
-1925.592999407897
 10
1114.426229703496
 20
-1928.22870505363
 10
1113.872296572075
 20
-1930.908048452955
 10
1113.485039097045
 20
-1933.611350350529
 10
1113.285926587611
 20
-1935.001281492695
 10
1113.108118670274
 20
-1936.399411572307
 10
1113.005791759081
 20
-1937.800260864371
 10
1112.924054691202
 20
-1938.919236433311
 10
1112.979394781108
 20
-1940.157545191922
 10
1113.57658557378
 20
-1941.142952803096
 10
1115.11864793779
 20
-1943.687466230035
 10
1118.58688300114
 20
-1942.557632989685
 10
1120.902516144608
 20
-1942.035565653216
 10
1123.513125658015
 20
-1941.446994894907
 10
1126.08774652803
 20
-1940.708101079169
 10
1128.63441663469
 20
-1939.887958400959
 10
1133.749623725508
 20
-1938.240630923367
 10
1138.75107998363
 20
-1936.267984035415
 10
1143.817204607851
 20
-1934.480183970996
 10
1148.849964492754
 20
-1932.704158090503
 10
1153.9701520655
 20
-1931.102560053966
 10
1159.245511442317
 20
-1930.228481141281
 10
1159.865119312094
 20
-1930.125817770995
 10
1160.486292429127
 20
-1930.032428668091
 10
1161.109351210562
 20
-1929.953289434234
 10
1161.699886140478
 20
-1929.87828129164
 10
1162.211781765842
 20
-1929.500298256565
 10
1162.211781765842
 20
-1928.850858878955
 10
1162.211781765842
 20
-1928.313402423972
 10
1161.704122690251
 20
-1927.672882066039
 10
1161.109351210562
 20
-1927.748428323674
 10
1150.674564937741
 20
-1929.073826529624
 10
1141.017641442682
 20
-1933.303920653773
 10
1131.160032172875
 20
-1936.719371961081
 10
1128.702069313161
 20
-1937.571003653183
 10
1126.225094206282
 20
-1938.371333233561
 10
1123.71569537932
 20
-1939.058435550522
 10
1122.463812190735
 20
-1939.401215594173
 10
1121.204083667082
 20
-1939.715781318697
 10
1119.936262905765
 20
-1939.994085094914
 10
1118.795708614816
 20
-1940.244452162428
 10
1117.584401932023
 20
-1940.621791308932
 10
1116.441841965797
 20
-1940.538146385707
 10
1115.589361809453
 20
-1940.475737725036
 10
1115.27175662736
 20
-1939.858385234449
 10
1115.204152025124
 20
-1939.109239214262
 10
1115.098426671803
 20
-1937.937666199215
 10
1115.297845161159
 20
-1936.72206374977
 10
1115.434453013017
 20
-1935.560668610616
 10
1115.738769229052
 20
-1932.9734719799
 10
1116.215196871086
 20
-1930.404663176403
 10
1116.831096267615
 20
-1927.87385755802
 10
1118.227282381526
 20
-1922.136758802457
 10
1120.382730639971
 20
-1916.608748319055
 10
1123.247202352205
 20
-1911.445772932396
 10
1123.936187772001
 20
-1910.203933207126
 10
1122.032634817973
 20
-1909.09059294522
 10
1121.343369418415
 20
-1910.332937311054
 10
1121.343369418415
 20
-1910.332937311054
 10
1121.343369418415
 20
-1910.332937311054
 10
1121.343369418415
 20
-1910.332937311054
 97
        0
 97
        1
330
8D
 75
     2
 76
     1
 98
        1
 10
0.0
 20
0.0
450
        0
451
        0
460
0.0
461
0.0
452
        0
462
0.0
453
        0
470

  0
SPLINE
  5
8F
330
70
100
AcDbEntity
  8
2023-013
100
AcDbSpline
210
0.0
220
0.0
230
1.0
 70
     9
 71
     3
 72
    50
 73
    46
 74
     0
 42
0.0000000001
 43
0.0000000001
 40
0.0
 40
0.0
 40
0.0
 40
0.0
 40
1.0
 40
1.0
 40
1.0
 40
2.0
 40
2.0
 40
2.0
 40
3.0
 40
3.0
 40
3.0
 40
4.0
 40
4.0
 40
4.0
 40
5.0
 40
5.0
 40
5.0
 40
6.0
 40
6.0
 40
6.0
 40
7.0
 40
7.0
 40
7.0
 40
8.0
 40
8.0
 40
8.0
 40
9.0
 40
9.0
 40
9.0
 40
10.0
 40
10.0
 40
10.0
 40
11.0
 40
11.0
 40
11.0
 40
12.0
 40
12.0
 40
12.0
 40
13.0
 40
13.0
 40
13.0
 40
14.0
 40
14.0
 40
14.0
 40
15.0
 40
15.0
 40
15.0
 40
15.0
 10
1129.501363172396
 20
-1929.03915690705
 30
0.0
 10
1132.857186652401
 20
-1923.019056238137
 30
0.0
 10
1136.683450748492
 20
-1917.257760687472
 30
0.0
 10
1140.961620037844
 20
-1911.853062218012
 30
0.0
 10
1140.347424440565
 20
-1911.690906747971
 30
0.0
 10
1139.733228843289
 20
-1911.52875127793
 30
0.0
 10
1139.119033246014
 20
-1911.366595807888
 30
0.0
 10
1141.121649774297
 20
-1916.942286592532
 30
0.0
 10
1143.147615115761
 20
-1922.50958265224
 30
0.0
 10
1145.197561095818
 20
-1928.068047622749
 30
0.0
 10
1147.237407546411
 20
-1933.599127539552
 30
0.0
 10
1149.300764862689
 20
-1939.121536598544
 30
0.0
 10
1151.387558963999
 20
-1944.635075296243
 30
0.0
 10
1152.575585700261
 20
-1947.773972123768
 30
0.0
 10
1153.771337552915
 20
-1950.909941002919
 30
0.0
 10
1154.974410825004
 20
-1954.043101332157
 30
0.0
 10
1155.18771217749
 20
-1954.598601442825
 30
0.0
 10
1155.716208613815
 20
-1954.981907236128
 30
0.0
 10
1156.330531206713
 20
-1954.813082291259
 30
0.0
 10
1156.861892003218
 20
-1954.667056476462
 30
0.0
 10
1157.315088618052
 20
-1954.015782758908
 30
0.0
 10
1157.100512165812
 20
-1953.456961909549
 30
0.0
 10
1154.976825870836
 20
-1947.926251681375
 30
0.0
 10
1152.876305698056
 20
-1942.386654727721
 30
0.0
 10
1150.799715052058
 20
-1936.838089051803
 30
0.0
 10
1148.733355147188
 20
-1931.316859499728
 30
0.0
 10
1146.690464333922
 20
-1925.786846589383
 30
0.0
 10
1144.671116693375
 20
-1920.248249823662
 30
0.0
 10
1143.521487681513
 20
-1917.09508718884
 30
0.0
 10
1142.379621558891
 20
-1913.939098325026
 30
0.0
 10
1141.245134586821
 20
-1910.780456385281
 30
0.0
 10
1140.996640832916
 20
-1910.088599350186
 30
0.0
 10
1139.962830981154
 20
-1909.586172805266
 30
0.0
 10
1139.402547794991
 20
-1910.29398997516
 30
0.0
 10
1135.97231068361
 20
-1914.627478439942
 30
0.0
 10
1132.801760681719
 20
-1919.161055095034
 30
0.0
 10
1129.940639308027
 20
-1923.890337130591
 30
0.0
 10
1129.13534075007
 20
-1925.221452978534
 30
0.0
 10
1128.355017149833
 20
-1926.567445442519
 30
0.0
 10
1127.597530238603
 20
-1927.926321285708
 30
0.0
 10
1126.905967040434
 20
-1929.166934833087
 30
0.0
 10
1128.809636087847
 20
-1930.280064454546
 30
0.0
 10
1129.501363172396
 20
-1929.03915690705
 30
0.0
 10
1129.501363172396
 20
-1929.03915690705
 30
0.0
 10
1129.501363172396
 20
-1929.03915690705
 30
0.0
 10
1129.501363172396
 20
-1929.03915690705
 30
0.0
  0
HATCH
  5
90
330
70
100
AcDbEntity
  8
2023-013
 62
   250
420
  2301728
440
 33554687
100
AcDbHatch
 10
0.0
 20
0.0
 30
0.0
210
0.0
220
0.0
230
1.0
  2
SOLID
 70
     1
 71
     1
 91
        1
 92
        1
 93
        1
 72
     4
 94
        3
 73
     0
 74
     0
 95
       50
 96
       46
 40
0.0
 40
0.0
 40
0.0
 40
0.0
 40
1.0
 40
1.0
 40
1.0
 40
2.0
 40
2.0
 40
2.0
 40
3.0
 40
3.0
 40
3.0
 40
4.0
 40
4.0
 40
4.0
 40
5.0
 40
5.0
 40
5.0
 40
6.0
 40
6.0
 40
6.0
 40
7.0
 40
7.0
 40
7.0
 40
8.0
 40
8.0
 40
8.0
 40
9.0
 40
9.0
 40
9.0
 40
10.0
 40
10.0
 40
10.0
 40
11.0
 40
11.0
 40
11.0
 40
12.0
 40
12.0
 40
12.0
 40
13.0
 40
13.0
 40
13.0
 40
14.0
 40
14.0
 40
14.0
 40
15.0
 40
15.0
 40
15.0
 40
15.0
 10
1129.501363172396
 20
-1929.03915690705
 10
1132.857186652401
 20
-1923.019056238137
 10
1136.683450748492
 20
-1917.257760687472
 10
1140.961620037844
 20
-1911.853062218012
 10
1140.347424440565
 20
-1911.690906747971
 10
1139.733228843289
 20
-1911.52875127793
 10
1139.119033246014
 20
-1911.366595807888
 10
1141.121649774297
 20
-1916.942286592532
 10
1143.147615115761
 20
-1922.50958265224
 10
1145.197561095818
 20
-1928.068047622749
 10
1147.237407546411
 20
-1933.599127539552
 10
1149.300764862689
 20
-1939.121536598544
 10
1151.387558963999
 20
-1944.635075296243
 10
1152.575585700261
 20
-1947.773972123768
 10
1153.771337552915
 20
-1950.909941002919
 10
1154.974410825004
 20
-1954.043101332157
 10
1155.18771217749
 20
-1954.598601442825
 10
1155.716208613815
 20
-1954.981907236128
 10
1156.330531206713
 20
-1954.813082291259
 10
1156.861892003218
 20
-1954.667056476462
 10
1157.315088618052
 20
-1954.015782758908
 10
1157.100512165812
 20
-1953.456961909549
 10
1154.976825870836
 20
-1947.926251681375
 10
1152.876305698056
 20
-1942.386654727721
 10
1150.799715052058
 20
-1936.838089051803
 10
1148.733355147188
 20
-1931.316859499728
 10
1146.690464333922
 20
-1925.786846589383
 10
1144.671116693375
 20
-1920.248249823662
 10
1143.521487681513
 20
-1917.09508718884
 10
1142.379621558891
 20
-1913.939098325026
 10
1141.245134586821
 20
-1910.780456385281
 10
1140.996640832916
 20
-1910.088599350186
 10
1139.962830981154
 20
-1909.586172805266
 10
1139.402547794991
 20
-1910.29398997516
 10
1135.97231068361
 20
-1914.627478439942
 10
1132.801760681719
 20
-1919.161055095034
 10
1129.940639308027
 20
-1923.890337130591
 10
1129.13534075007
 20
-1925.221452978534
 10
1128.355017149833
 20
-1926.567445442519
 10
1127.597530238603
 20
-1927.926321285708
 10
1126.905967040434
 20
-1929.166934833087
 10
1128.809636087847
 20
-1930.280064454546
 10
1129.501363172396
 20
-1929.03915690705
 10
1129.501363172396
 20
-1929.03915690705
 10
1129.501363172396
 20
-1929.03915690705
 10
1129.501363172396
 20
-1929.03915690705
 97
        0
 97
        1
330
8F
 75
     2
 76
     1
 98
        1
 10
0.0
 20
0.0
450
        0
451
        0
460
0.0
461
0.0
452
        0
462
0.0
453
        0
470

  0
SPLINE
  5
91
330
70
100
AcDbEntity
  8
2023-013
100
AcDbSpline
210
0.0
220
0.0
230
1.0
 70
     9
 71
     3
 72
   146
 73
   142
 74
     0
 42
0.0000000001
 43
0.0000000001
 40
0.0
 40
0.0
 40
0.0
 40
0.0
 40
1.0
 40
1.0
 40
1.0
 40
2.0
 40
2.0
 40
2.0
 40
3.0
 40
3.0
 40
3.0
 40
4.0
 40
4.0
 40
4.0
 40
5.0
 40
5.0
 40
5.0
 40
6.0
 40
6.0
 40
6.0
 40
7.0
 40
7.0
 40
7.0
 40
8.0
 40
8.0
 40
8.0
 40
9.0
 40
9.0
 40
9.0
 40
10.0
 40
10.0
 40
10.0
 40
11.0
 40
11.0
 40
11.0
 40
12.0
 40
12.0
 40
12.0
 40
13.0
 40
13.0
 40
13.0
 40
14.0
 40
14.0
 40
14.0
 40
15.0
 40
15.0
 40
15.0
 40
16.0
 40
16.0
 40
16.0
 40
17.0
 40
17.0
 40
17.0
 40
18.0
 40
18.0
 40
18.0
 40
19.0
 40
19.0
 40
19.0
 40
20.0
 40
20.0
 40
20.0
 40
21.0
 40
21.0
 40
21.0
 40
22.0
 40
22.0
 40
22.0
 40
23.0
 40
23.0
 40
23.0
 40
24.0
 40
24.0
 40
24.0
 40
25.0
 40
25.0
 40
25.0
 40
26.0
 40
26.0
 40
26.0
 40
27.0
 40
27.0
 40
27.0
 40
28.0
 40
28.0
 40
28.0
 40
29.0
 40
29.0
 40
29.0
 40
30.0
 40
30.0
 40
30.0
 40
31.0
 40
31.0
 40
31.0
 40
32.0
 40
32.0
 40
32.0
 40
33.0
 40
33.0
 40
33.0
 40
34.0
 40
34.0
 40
34.0
 40
35.0
 40
35.0
 40
35.0
 40
36.0
 40
36.0
 40
36.0
 40
37.0
 40
37.0
 40
37.0
 40
38.0
 40
38.0
 40
38.0
 40
39.0
 40
39.0
 40
39.0
 40
40.0
 40
40.0
 40
40.0
 40
41.0
 40
41.0
 40
41.0
 40
42.0
 40
42.0
 40
42.0
 40
43.0
 40
43.0
 40
43.0
 40
44.0
 40
44.0
 40
44.0
 40
45.0
 40
45.0
 40
45.0
 40
46.0
 40
46.0
 40
46.0
 40
47.0
 40
47.0
 40
47.0
 40
47.0
 10
1124.960201255951
 20
-1953.44452493769
 30
0.0
 10
1125.368277560588
 20
-1953.177454513943
 30
0.0
 10
1125.789339964307
 20
-1952.931680625766
 30
0.0
 10
1126.225672249026
 20
-1952.713571984688
 30
0.0
 10
1126.326280434373
 20
-1952.663281150487
 30
0.0
 10
1126.427622465036
 20
-1952.614415208159
 30
0.0
 10
1126.529572556146
 20
-1952.566904604937
 30
0.0
 10
1126.59754884932
 20
-1952.535226411634
 30
0.0
 10
1126.665967364884
 20
-1952.50455163484
 30
0.0
 10
1126.734387534146
 20
-1952.4738460117
 30
0.0
 10
1126.733503598868
 20
-1952.474242704426
 30
0.0
 10
1126.902874679807
 20
-1952.401431525419
 30
0.0
 10
1126.809422920064
 20
-1952.440653348953
 30
0.0
 10
1126.768254888364
 20
-1952.457931624706
 30
0.0
 10
1126.981612956881
 20
-1952.371576133035
 30
0.0
 10
1127.036564015685
 20
-1952.352266895534
 30
0.0
 10
1127.06983581961
 20
-1952.340575525465
 30
0.0
 10
1127.153394579305
 20
-1952.32903894697
 30
0.0
 10
1127.178789012769
 20
-1952.306595011129
 30
0.0
 10
1127.145687221299
 20
-1952.309946939417
 30
0.0
 10
1127.112585429836
 20
-1952.313298867703
 30
0.0
 10
1127.079483638366
 20
-1952.316650795988
 30
0.0
 10
1126.856398321099
 20
-1952.140370051006
 30
0.0
 10
1126.633313003833
 20
-1951.964089306022
 30
0.0
 10
1126.410227686563
 20
-1951.787808561039
 30
0.0
 10
1126.403715857831
 20
-1951.778700927175
 30
0.0
 10
1126.395714496595
 20
-1951.576349821556
 30
0.0
 10
1126.394395703876
 20
-1951.707034721761
 30
0.0
 10
1126.393103343198
 20
-1951.835100356353
 30
0.0
 10
1126.408618710355
 20
-1951.642279416129
 30
0.0
 10
1126.410927267506
 20
-1951.631149322014
 30
0.0
 10
1126.38767153308
 20
-1951.743270658427
 30
0.0
 10
1126.364046277522
 20
-1951.854596145281
 30
0.0
 10
1126.33419740009
 20
-1951.965184868534
 30
0.0
 10
1126.278780148988
 20
-1952.1705032447
 30
0.0
 10
1126.208128201826
 20
-1952.370535330471
 30
0.0
 10
1126.131085257411
 20
-1952.568620288634
 30
0.0
 10
1126.055272594109
 20
-1952.763542073521
 30
0.0
 10
1126.176254234132
 20
-1952.47805192294
 30
0.0
 10
1126.087153834723
 20
-1952.668049160303
 30
0.0
 10
1126.038028735408
 20
-1952.772803271582
 30
0.0
 10
1125.989542783098
 20
-1952.877737941663
 30
0.0
 10
1125.938760559672
 20
-1952.98170968315
 30
0.0
 10
1125.844146155889
 20
-1953.175423618219
 30
0.0
 10
1125.745435850555
 20
-1953.367087157359
 30
0.0
 10
1125.647115439638
 20
-1953.558935101899
 30
0.0
 10
1125.235170994313
 20
-1954.362742717854
 30
0.0
 10
1124.809932483505
 20
-1955.194457561272
 30
0.0
 10
1124.671686653768
 20
-1956.096126806293
 30
0.0
 10
1124.574392664672
 20
-1956.730699276668
 30
0.0
 10
1124.540855663614
 20
-1957.417138327895
 30
0.0
 10
1124.956421118855
 20
-1957.955020196789
 30
0.0
 10
1125.374272964148
 20
-1958.495861425604
 30
0.0
 10
1125.958897401025
 20
-1958.661873905126
 30
0.0
 10
1126.618699459654
 20
-1958.698960676056
 30
0.0
 10
1127.790189551786
 20
-1958.764808886325
 30
0.0
 10
1129.000914439123
 20
-1958.561092499826
 30
0.0
 10
1130.09103631639
 20
-1958.130972389784
 30
0.0
 10
1130.62560820035
 20
-1957.920050911781
 30
0.0
 10
1131.057991231207
 20
-1957.38352194521
 30
0.0
 10
1130.861017275492
 20
-1956.774852008075
 30
0.0
 10
1130.693201435794
 20
-1956.256283671303
 30
0.0
 10
1130.079258633397
 20
-1955.778250026318
 30
0.0
 10
1129.504896893783
 20
-1956.004871048973
 30
0.0
 10
1129.04470046427
 20
-1956.186446836994
 30
0.0
 10
1128.57115312887
 20
-1956.327926138243
 30
0.0
 10
1128.084502815415
 20
-1956.418410947379
 30
0.0
 10
1128.009824992987
 20
-1956.432296088975
 30
0.0
 10
1127.934842377866
 20
-1956.44507975134
 30
0.0
 10
1127.859762162906
 20
-1956.456666283494
 30
0.0
 10
1127.88410549153
 20
-1956.45290957129
 30
0.0
 10
1128.001390116448
 20
-1956.439851649038
 30
0.0
 10
1127.870415150674
 20
-1956.455236870145
 30
0.0
 10
1127.757195352751
 20
-1956.468536447012
 30
0.0
 10
1127.643668136829
 20
-1956.47887326114
 30
0.0
 10
1127.52994894782
 20
-1956.486788707783
 30
0.0
 10
1127.264578891886
 20
-1956.505259843009
 30
0.0
 10
1126.998380828754
 20
-1956.509530373001
 30
0.0
 10
1126.732563419088
 20
-1956.499346974654
 30
0.0
 10
1126.675603501992
 20
-1956.497164854505
 30
0.0
 10
1126.618735660954
 20
-1956.493249273631
 30
0.0
 10
1126.561786989568
 20
-1956.491033092002
 30
0.0
 10
1126.537611332953
 20
-1956.490092286102
 30
0.0
 10
1126.391586925839
 20
-1956.464112495323
 30
0.0
 10
1126.520829030384
 20
-1956.490468220072
 30
0.0
 10
1126.659604299951
 20
-1956.518767997603
 30
0.0
 10
1126.494182386735
 20
-1956.481812949242
 30
0.0
 10
1126.482314127504
 20
-1956.4748334464
 30
0.0
 10
1126.54202518277
 20
-1956.509948409072
 30
0.0
 10
1126.606844964718
 20
-1956.525219974195
 30
0.0
 10
1126.655987271383
 20
-1956.577311892971
 30
0.0
 10
1126.638399102802
 20
-1956.558668049989
 30
0.0
 10
1126.868315153029
 20
-1956.962590107129
 30
0.0
 10
1126.79997648789
 20
-1956.792164704557
 30
0.0
 10
1126.755861134869
 20
-1956.682148262435
 30
0.0
 10
1126.809257852266
 20
-1956.83771197223
 30
0.0
 10
1126.807053796286
 20
-1956.861949000419
 30
0.0
 10
1126.816765526698
 20
-1956.755153399067
 30
0.0
 10
1126.815770110396
 20
-1956.641633669174
 30
0.0
 10
1126.820298570473
 20
-1956.534077335665
 30
0.0
 10
1126.827419253846
 20
-1956.364952603932
 30
0.0
 10
1126.778532862095
 20
-1956.701737789588
 30
0.0
 10
1126.820955429967
 20
-1956.538944008427
 30
0.0
 10
1126.833014968227
 20
-1956.492666332865
 30
0.0
 10
1126.838705984198
 20
-1956.443618047722
 30
0.0
 10
1126.848864325088
 20
-1956.396791137176
 30
0.0
 10
1126.86931289511
 20
-1956.302529350799
 30
0.0
 10
1126.893292349396
 20
-1956.208922935236
 30
0.0
 10
1126.91994053817
 20
-1956.116229237102
 30
0.0
 10
1126.946658064011
 20
-1956.023294355266
 30
0.0
 10
1126.97641970114
 20
-1955.931154538373
 30
0.0
 10
1127.008343261329
 20
-1955.839882768978
 30
0.0
 10
1127.029750979882
 20
-1955.778676552019
 30
0.0
 10
1127.0532338278
 20
-1955.718472748091
 30
0.0
 10
1127.07558406508
 20
-1955.657649124178
 30
0.0
 10
1127.109210797224
 20
-1955.566137804475
 30
0.0
 10
1127.11885757773
 20
-1955.550711461211
 30
0.0
 10
1127.075789273754
 20
-1955.650125898233
 30
0.0
 10
1127.448797843749
 20
-1954.789111333707
 30
0.0
 10
1127.934101109723
 20
-1953.985569891344
 30
0.0
 10
1128.275015709385
 20
-1953.108964348447
 30
0.0
 10
1128.44561549655
 20
-1952.670295194373
 30
0.0
 10
1128.59410157981
 20
-1952.181173058413
 30
0.0
 10
1128.599256814436
 20
-1951.707034721761
 30
0.0
 10
1128.608385691856
 20
-1950.8674316644
 30
0.0
 10
1128.021428581453
 20
-1950.179641286941
 30
0.0
 10
1127.172881745841
 20
-1950.118162463335
 30
0.0
 10
1126.550166273501
 20
-1950.073045549252
 30
0.0
 10
1125.911848886517
 20
-1950.429754889795
 30
0.0
 10
1125.365861108972
 20
-1950.687046491702
 30
0.0
 10
1124.839593130798
 20
-1950.935045323731
 30
0.0
 10
1124.334039915144
 20
-1951.22218219372
 30
0.0
 10
1123.847365634612
 20
-1951.5406920039
 30
0.0
 10
1123.365457724905
 20
-1951.856082405626
 30
0.0
 10
1123.117961001475
 20
-1952.531112315053
 30
0.0
 10
1123.451866978387
 20
-1953.049026281468
 30
0.0
 10
1123.762046546315
 20
-1953.530138754542
 30
0.0
 10
1124.444086465015
 20
-1953.782302442418
 30
0.0
 10
1124.960201255951
 20
-1953.44452493769
 30
0.0
 10
1124.960201255951
 20
-1953.44452493769
 30
0.0
 10
1124.960201255951
 20
-1953.44452493769
 30
0.0
 10
1124.960201255951
 20
-1953.44452493769
 30
0.0
  0
HATCH
  5
92
330
70
100
AcDbEntity
  8
2023-013
 62
   250
420
  2301728
440
 33554687
100
AcDbHatch
 10
0.0
 20
0.0
 30
0.0
210
0.0
220
0.0
230
1.0
  2
SOLID
 70
     1
 71
     1
 91
        1
 92
        1
 93
        1
 72
     4
 94
        3
 73
     0
 74
     0
 95
      146
 96
      142
 40
0.0
 40
0.0
 40
0.0
 40
0.0
 40
1.0
 40
1.0
 40
1.0
 40
2.0
 40
2.0
 40
2.0
 40
3.0
 40
3.0
 40
3.0
 40
4.0
 40
4.0
 40
4.0
 40
5.0
 40
5.0
 40
5.0
 40
6.0
 40
6.0
 40
6.0
 40
7.0
 40
7.0
 40
7.0
 40
8.0
 40
8.0
 40
8.0
 40
9.0
 40
9.0
 40
9.0
 40
10.0
 40
10.0
 40
10.0
 40
11.0
 40
11.0
 40
11.0
 40
12.0
 40
12.0
 40
12.0
 40
13.0
 40
13.0
 40
13.0
 40
14.0
 40
14.0
 40
14.0
 40
15.0
 40
15.0
 40
15.0
 40
16.0
 40
16.0
 40
16.0
 40
17.0
 40
17.0
 40
17.0
 40
18.0
 40
18.0
 40
18.0
 40
19.0
 40
19.0
 40
19.0
 40
20.0
 40
20.0
 40
20.0
 40
21.0
 40
21.0
 40
21.0
 40
22.0
 40
22.0
 40
22.0
 40
23.0
 40
23.0
 40
23.0
 40
24.0
 40
24.0
 40
24.0
 40
25.0
 40
25.0
 40
25.0
 40
26.0
 40
26.0
 40
26.0
 40
27.0
 40
27.0
 40
27.0
 40
28.0
 40
28.0
 40
28.0
 40
29.0
 40
29.0
 40
29.0
 40
30.0
 40
30.0
 40
30.0
 40
31.0
 40
31.0
 40
31.0
 40
32.0
 40
32.0
 40
32.0
 40
33.0
 40
33.0
 40
33.0
 40
34.0
 40
34.0
 40
34.0
 40
35.0
 40
35.0
 40
35.0
 40
36.0
 40
36.0
 40
36.0
 40
37.0
 40
37.0
 40
37.0
 40
38.0
 40
38.0
 40
38.0
 40
39.0
 40
39.0
 40
39.0
 40
40.0
 40
40.0
 40
40.0
 40
41.0
 40
41.0
 40
41.0
 40
42.0
 40
42.0
 40
42.0
 40
43.0
 40
43.0
 40
43.0
 40
44.0
 40
44.0
 40
44.0
 40
45.0
 40
45.0
 40
45.0
 40
46.0
 40
46.0
 40
46.0
 40
47.0
 40
47.0
 40
47.0
 40
47.0
 10
1124.960201255951
 20
-1953.44452493769
 10
1125.368277560588
 20
-1953.177454513943
 10
1125.789339964307
 20
-1952.931680625766
 10
1126.225672249026
 20
-1952.713571984688
 10
1126.326280434373
 20
-1952.663281150487
 10
1126.427622465036
 20
-1952.614415208159
 10
1126.529572556146
 20
-1952.566904604937
 10
1126.59754884932
 20
-1952.535226411634
 10
1126.665967364884
 20
-1952.50455163484
 10
1126.734387534146
 20
-1952.4738460117
 10
1126.733503598868
 20
-1952.474242704426
 10
1126.902874679807
 20
-1952.401431525419
 10
1126.809422920064
 20
-1952.440653348953
 10
1126.768254888364
 20
-1952.457931624706
 10
1126.981612956881
 20
-1952.371576133035
 10
1127.036564015685
 20
-1952.352266895534
 10
1127.06983581961
 20
-1952.340575525465
 10
1127.153394579305
 20
-1952.32903894697
 10
1127.178789012769
 20
-1952.306595011129
 10
1127.145687221299
 20
-1952.309946939417
 10
1127.112585429836
 20
-1952.313298867703
 10
1127.079483638366
 20
-1952.316650795988
 10
1126.856398321099
 20
-1952.140370051006
 10
1126.633313003833
 20
-1951.964089306022
 10
1126.410227686563
 20
-1951.787808561039
 10
1126.403715857831
 20
-1951.778700927175
 10
1126.395714496595
 20
-1951.576349821556
 10
1126.394395703876
 20
-1951.707034721761
 10
1126.393103343198
 20
-1951.835100356353
 10
1126.408618710355
 20
-1951.642279416129
 10
1126.410927267506
 20
-1951.631149322014
 10
1126.38767153308
 20
-1951.743270658427
 10
1126.364046277522
 20
-1951.854596145281
 10
1126.33419740009
 20
-1951.965184868534
 10
1126.278780148988
 20
-1952.1705032447
 10
1126.208128201826
 20
-1952.370535330471
 10
1126.131085257411
 20
-1952.568620288634
 10
1126.055272594109
 20
-1952.763542073521
 10
1126.176254234132
 20
-1952.47805192294
 10
1126.087153834723
 20
-1952.668049160303
 10
1126.038028735408
 20
-1952.772803271582
 10
1125.989542783098
 20
-1952.877737941663
 10
1125.938760559672
 20
-1952.98170968315
 10
1125.844146155889
 20
-1953.175423618219
 10
1125.745435850555
 20
-1953.367087157359
 10
1125.647115439638
 20
-1953.558935101899
 10
1125.235170994313
 20
-1954.362742717854
 10
1124.809932483505
 20
-1955.194457561272
 10
1124.671686653768
 20
-1956.096126806293
 10
1124.574392664672
 20
-1956.730699276668
 10
1124.540855663614
 20
-1957.417138327895
 10
1124.956421118855
 20
-1957.955020196789
 10
1125.374272964148
 20
-1958.495861425604
 10
1125.958897401025
 20
-1958.661873905126
 10
1126.618699459654
 20
-1958.698960676056
 10
1127.790189551786
 20
-1958.764808886325
 10
1129.000914439123
 20
-1958.561092499826
 10
1130.09103631639
 20
-1958.130972389784
 10
1130.62560820035
 20
-1957.920050911781
 10
1131.057991231207
 20
-1957.38352194521
 10
1130.861017275492
 20
-1956.774852008075
 10
1130.693201435794
 20
-1956.256283671303
 10
1130.079258633397
 20
-1955.778250026318
 10
1129.504896893783
 20
-1956.004871048973
 10
1129.04470046427
 20
-1956.186446836994
 10
1128.57115312887
 20
-1956.327926138243
 10
1128.084502815415
 20
-1956.418410947379
 10
1128.009824992987
 20
-1956.432296088975
 10
1127.934842377866
 20
-1956.44507975134
 10
1127.859762162906
 20
-1956.456666283494
 10
1127.88410549153
 20
-1956.45290957129
 10
1128.001390116448
 20
-1956.439851649038
 10
1127.870415150674
 20
-1956.455236870145
 10
1127.757195352751
 20
-1956.468536447012
 10
1127.643668136829
 20
-1956.47887326114
 10
1127.52994894782
 20
-1956.486788707783
 10
1127.264578891886
 20
-1956.505259843009
 10
1126.998380828754
 20
-1956.509530373001
 10
1126.732563419088
 20
-1956.499346974654
 10
1126.675603501992
 20
-1956.497164854505
 10
1126.618735660954
 20
-1956.493249273631
 10
1126.561786989568
 20
-1956.491033092002
 10
1126.537611332953
 20
-1956.490092286102
 10
1126.391586925839
 20
-1956.464112495323
 10
1126.520829030384
 20
-1956.490468220072
 10
1126.659604299951
 20
-1956.518767997603
 10
1126.494182386735
 20
-1956.481812949242
 10
1126.482314127504
 20
-1956.4748334464
 10
1126.54202518277
 20
-1956.509948409072
 10
1126.606844964718
 20
-1956.525219974195
 10
1126.655987271383
 20
-1956.577311892971
 10
1126.638399102802
 20
-1956.558668049989
 10
1126.868315153029
 20
-1956.962590107129
 10
1126.79997648789
 20
-1956.792164704557
 10
1126.755861134869
 20
-1956.682148262435
 10
1126.809257852266
 20
-1956.83771197223
 10
1126.807053796286
 20
-1956.861949000419
 10
1126.816765526698
 20
-1956.755153399067
 10
1126.815770110396
 20
-1956.641633669174
 10
1126.820298570473
 20
-1956.534077335665
 10
1126.827419253846
 20
-1956.364952603932
 10
1126.778532862095
 20
-1956.701737789588
 10
1126.820955429967
 20
-1956.538944008427
 10
1126.833014968227
 20
-1956.492666332865
 10
1126.838705984198
 20
-1956.443618047722
 10
1126.848864325088
 20
-1956.396791137176
 10
1126.86931289511
 20
-1956.302529350799
 10
1126.893292349396
 20
-1956.208922935236
 10
1126.91994053817
 20
-1956.116229237102
 10
1126.946658064011
 20
-1956.023294355266
 10
1126.97641970114
 20
-1955.931154538373
 10
1127.008343261329
 20
-1955.839882768978
 10
1127.029750979882
 20
-1955.778676552019
 10
1127.0532338278
 20
-1955.718472748091
 10
1127.07558406508
 20
-1955.657649124178
 10
1127.109210797224
 20
-1955.566137804475
 10
1127.11885757773
 20
-1955.550711461211
 10
1127.075789273754
 20
-1955.650125898233
 10
1127.448797843749
 20
-1954.789111333707
 10
1127.934101109723
 20
-1953.985569891344
 10
1128.275015709385
 20
-1953.108964348447
 10
1128.44561549655
 20
-1952.670295194373
 10
1128.59410157981
 20
-1952.181173058413
 10
1128.599256814436
 20
-1951.707034721761
 10
1128.608385691856
 20
-1950.8674316644
 10
1128.021428581453
 20
-1950.179641286941
 10
1127.172881745841
 20
-1950.118162463335
 10
1126.550166273501
 20
-1950.073045549252
 10
1125.911848886517
 20
-1950.429754889795
 10
1125.365861108972
 20
-1950.687046491702
 10
1124.839593130798
 20
-1950.935045323731
 10
1124.334039915144
 20
-1951.22218219372
 10
1123.847365634612
 20
-1951.5406920039
 10
1123.365457724905
 20
-1951.856082405626
 10
1123.117961001475
 20
-1952.531112315053
 10
1123.451866978387
 20
-1953.049026281468
 10
1123.762046546315
 20
-1953.530138754542
 10
1124.444086465015
 20
-1953.782302442418
 10
1124.960201255951
 20
-1953.44452493769
 10
1124.960201255951
 20
-1953.44452493769
 10
1124.960201255951
 20
-1953.44452493769
 10
1124.960201255951
 20
-1953.44452493769
 97
        0
 97
        1
330
91
 75
     2
 76
     1
 98
        1
 10
0.0
 20
0.0
450
        0
451
        0
460
0.0
461
0.0
452
        0
462
0.0
453
        0
470

  0
SPLINE
  5
93
330
70
100
AcDbEntity
  8
2023-013
100
AcDbSpline
210
0.0
220
0.0
230
1.0
 70
     9
 71
     3
 72
   104
 73
   100
 74
     0
 42
0.0000000001
 43
0.0000000001
 40
0.0
 40
0.0
 40
0.0
 40
0.0
 40
1.0
 40
1.0
 40
1.0
 40
2.0
 40
2.0
 40
2.0
 40
3.0
 40
3.0
 40
3.0
 40
4.0
 40
4.0
 40
4.0
 40
5.0
 40
5.0
 40
5.0
 40
6.0
 40
6.0
 40
6.0
 40
7.0
 40
7.0
 40
7.0
 40
8.0
 40
8.0
 40
8.0
 40
9.0
 40
9.0
 40
9.0
 40
10.0
 40
10.0
 40
10.0
 40
11.0
 40
11.0
 40
11.0
 40
12.0
 40
12.0
 40
12.0
 40
13.0
 40
13.0
 40
13.0
 40
14.0
 40
14.0
 40
14.0
 40
15.0
 40
15.0
 40
15.0
 40
16.0
 40
16.0
 40
16.0
 40
17.0
 40
17.0
 40
17.0
 40
18.0
 40
18.0
 40
18.0
 40
19.0
 40
19.0
 40
19.0
 40
20.0
 40
20.0
 40
20.0
 40
21.0
 40
21.0
 40
21.0
 40
22.0
 40
22.0
 40
22.0
 40
23.0
 40
23.0
 40
23.0
 40
24.0
 40
24.0
 40
24.0
 40
25.0
 40
25.0
 40
25.0
 40
26.0
 40
26.0
 40
26.0
 40
27.0
 40
27.0
 40
27.0
 40
28.0
 40
28.0
 40
28.0
 40
29.0
 40
29.0
 40
29.0
 40
30.0
 40
30.0
 40
30.0
 40
31.0
 40
31.0
 40
31.0
 40
32.0
 40
32.0
 40
32.0
 40
33.0
 40
33.0
 40
33.0
 40
33.0
 10
1137.104368172851
 20
-1955.310465646523
 30
0.0
 10
1138.441577671882
 20
-1954.46820644049
 30
0.0
 10
1139.910901265286
 20
-1954.028288123259
 30
0.0
 10
1141.446082364707
 20
-1954.002789557201
 30
0.0
 10
1141.091732141238
 20
-1953.537622801671
 30
0.0
 10
1140.737381917769
 20
-1953.072456046141
 30
0.0
 10
1140.3830316943
 20
-1952.607289290615
 30
0.0
 10
1140.25379845621
 20
-1953.46300539871
 30
0.0
 10
1140.011846339094
 20
-1954.058546707198
 30
0.0
 10
1139.508834831963
 20
-1954.753656063246
 30
0.0
 10
1139.043570347782
 20
-1955.396602976798
 30
0.0
 10
1139.65943191836
 20
-1956.502347270846
 30
0.0
 10
1140.46075129886
 20
-1956.412504429198
 30
0.0
 10
1141.118863701162
 20
-1956.338717759628
 30
0.0
 10
1141.776976101539
 20
-1956.264931072874
 30
0.0
 10
1142.435088501392
 20
-1956.191144381446
 30
0.0
 10
1142.5760400056
 20
-1956.175341085307
 30
0.0
 10
1142.716957402245
 20
-1956.157178012894
 30
0.0
 10
1142.858160765525
 20
-1956.143710078621
 30
0.0
 10
1142.932752819208
 20
-1956.134580868391
 30
0.0
 10
1143.007591402325
 20
-1956.128465828263
 30
0.0
 10
1143.082676514885
 20
-1956.125364958235
 30
0.0
 10
1143.33271349212
 20
-1956.142784552801
 30
0.0
 10
1143.240917446659
 20
-1956.086569672163
 30
0.0
 10
1142.807288378501
 20
-1955.956720316321
 30
0.0
 10
1142.760729432095
 20
-1955.897985231036
 30
0.0
 10
1142.708330581557
 20
-1955.707013768726
 30
0.0
 10
1142.764743074488
 20
-1955.920222070803
 30
0.0
 10
1142.797474081841
 20
-1956.043927337846
 30
0.0
 10
1142.830188183939
 20
-1956.165866179165
 30
0.0
 10
1142.854596681588
 20
-1956.29161568493
 30
0.0
 10
1142.868196483749
 20
-1956.370840344381
 30
0.0
 10
1142.868265154072
 20
-1956.363090168515
 30
0.0
 10
1142.854802692553
 20
-1956.268365157329
 30
0.0
 10
1142.862466368882
 20
-1956.340728921206
 30
0.0
 10
1142.867935542522
 20
-1956.413258166944
 30
0.0
 10
1142.871210213473
 20
-1956.485952894539
 30
0.0
 10
1142.875985995548
 20
-1956.594983677879
 30
0.0
 10
1142.875976819389
 20
-1956.704329263181
 30
0.0
 10
1142.871362903442
 20
-1956.813364866819
 30
0.0
 10
1142.868166414725
 20
-1956.886142386367
 30
0.0
 10
1142.86285125313
 20
-1956.95876484619
 30
0.0
 10
1142.855417418654
 20
-1957.03123224629
 30
0.0
 10
1142.872184593138
 20
-1956.918888969757
 30
0.0
 10
1142.86946252541
 20
-1956.929303875824
 30
0.0
 10
1142.847251215475
 20
-1957.062476964505
 30
0.0
 10
1142.822878278575
 20
-1957.169209494582
 30
0.0
 10
1142.801680654979
 20
-1957.275993538043
 30
0.0
 10
1142.771883361933
 20
-1957.381556542455
 30
0.0
 10
1142.742196156329
 20
-1957.48672953958
 30
0.0
 10
1142.707882782182
 20
-1957.590626851126
 30
0.0
 10
1142.669291868888
 20
-1957.692869024409
 30
0.0
 10
1142.733845293648
 20
-1957.521842171791
 30
0.0
 10
1142.571292836808
 20
-1957.887239487621
 30
0.0
 10
1142.550567813708
 20
-1957.924237147375
 30
0.0
 10
1142.496972809678
 20
-1958.01991326383
 30
0.0
 10
1142.438007121511
 20
-1958.110587329424
 30
0.0
 10
1142.378304120165
 20
-1958.202457511669
 30
0.0
 10
1142.302276675035
 20
-1958.308313279857
 30
0.0
 10
1142.293972055385
 20
-1958.320996633622
 30
0.0
 10
1142.353390261221
 20
-1958.240507572962
 30
0.0
 10
1142.306764941344
 20
-1958.296529046655
 30
0.0
 10
1142.258384961973
 20
-1958.350991855963
 30
0.0
 10
1142.208250323099
 20
-1958.403896000889
 30
0.0
 10
1141.805849679346
 20
-1958.842461516751
 30
0.0
 10
1141.774497319339
 20
-1959.529215239981
 30
0.0
 10
1142.208250323099
 20
-1959.962968243742
 30
0.0
 10
1142.616192945399
 20
-1960.370910866041
 30
0.0
 10
1143.363291710184
 20
-1960.403310483331
 30
0.0
 10
1143.767322565949
 20
-1959.962968243742
 30
0.0
 10
1144.849321255422
 20
-1958.783727303713
 30
0.0
 10
1145.300885102613
 20
-1957.166677386617
 30
0.0
 10
1144.95915430899
 20
-1955.598482413574
 30
0.0
 10
1144.748943849433
 20
-1954.633831313608
 30
0.0
 10
1144.081700509683
 20
-1953.870403667005
 30
0.0
 10
1143.026232445909
 20
-1953.923978027268
 30
0.0
 10
1142.171907928972
 20
-1953.967342569525
 30
0.0
 10
1141.310939680866
 20
-1954.112321350848
 30
0.0
 10
1140.46075129886
 20
-1954.207643318637
 30
0.0
 10
1140.778056787824
 20
-1954.760592773953
 30
0.0
 10
1141.095362276788
 20
-1955.313542229269
 30
0.0
 10
1141.412667765753
 20
-1955.866491684585
 30
0.0
 10
1141.980399652659
 20
-1955.081945524669
 30
0.0
 10
1142.364492768434
 20
-1954.151162249135
 30
0.0
 10
1142.50913303511
 20
-1953.193428713223
 30
0.0
 10
1142.612450866319
 20
-1952.509311115266
 30
0.0
 10
1142.231125596099
 20
-1951.78488928357
 30
0.0
 10
1141.446082364707
 20
-1951.797928446641
 30
0.0
 10
1139.520009228571
 20
-1951.829919527769
 30
0.0
 10
1137.6231251937
 20
-1952.378952364681
 30
0.0
 10
1135.991532551513
 20
-1953.40663271273
 30
0.0
 10
1135.488226632692
 20
-1953.723646646514
 30
0.0
 10
1135.288400087091
 20
-1954.389013779024
 30
0.0
 10
1135.596033895287
 20
-1954.914966990297
 30
0.0
 10
1135.889601584772
 20
-1955.416871738403
 30
0.0
 10
1136.598542562132
 20
-1955.629066641794
 30
0.0
 10
1137.104368172851
 20
-1955.310465646523
 30
0.0
 10
1137.104368172851
 20
-1955.310465646523
 30
0.0
 10
1137.104368172851
 20
-1955.310465646523
 30
0.0
 10
1137.104368172851
 20
-1955.310465646523
 30
0.0
  0
HATCH
  5
94
330
70
100
AcDbEntity
  8
2023-013
 62
   250
420
  2301728
440
 33554687
100
AcDbHatch
 10
0.0
 20
0.0
 30
0.0
210
0.0
220
0.0
230
1.0
  2
SOLID
 70
     1
 71
     1
 91
        1
 92
        1
 93
        1
 72
     4
 94
        3
 73
     0
 74
     0
 95
      104
 96
      100
 40
0.0
 40
0.0
 40
0.0
 40
0.0
 40
1.0
 40
1.0
 40
1.0
 40
2.0
 40
2.0
 40
2.0
 40
3.0
 40
3.0
 40
3.0
 40
4.0
 40
4.0
 40
4.0
 40
5.0
 40
5.0
 40
5.0
 40
6.0
 40
6.0
 40
6.0
 40
7.0
 40
7.0
 40
7.0
 40
8.0
 40
8.0
 40
8.0
 40
9.0
 40
9.0
 40
9.0
 40
10.0
 40
10.0
 40
10.0
 40
11.0
 40
11.0
 40
11.0
 40
12.0
 40
12.0
 40
12.0
 40
13.0
 40
13.0
 40
13.0
 40
14.0
 40
14.0
 40
14.0
 40
15.0
 40
15.0
 40
15.0
 40
16.0
 40
16.0
 40
16.0
 40
17.0
 40
17.0
 40
17.0
 40
18.0
 40
18.0
 40
18.0
 40
19.0
 40
19.0
 40
19.0
 40
20.0
 40
20.0
 40
20.0
 40
21.0
 40
21.0
 40
21.0
 40
22.0
 40
22.0
 40
22.0
 40
23.0
 40
23.0
 40
23.0
 40
24.0
 40
24.0
 40
24.0
 40
25.0
 40
25.0
 40
25.0
 40
26.0
 40
26.0
 40
26.0
 40
27.0
 40
27.0
 40
27.0
 40
28.0
 40
28.0
 40
28.0
 40
29.0
 40
29.0
 40
29.0
 40
30.0
 40
30.0
 40
30.0
 40
31.0
 40
31.0
 40
31.0
 40
32.0
 40
32.0
 40
32.0
 40
33.0
 40
33.0
 40
33.0
 40
33.0
 10
1137.104368172851
 20
-1955.310465646523
 10
1138.441577671882
 20
-1954.46820644049
 10
1139.910901265286
 20
-1954.028288123259
 10
1141.446082364707
 20
-1954.002789557201
 10
1141.091732141238
 20
-1953.537622801671
 10
1140.737381917769
 20
-1953.072456046141
 10
1140.3830316943
 20
-1952.607289290615
 10
1140.25379845621
 20
-1953.46300539871
 10
1140.011846339094
 20
-1954.058546707198
 10
1139.508834831963
 20
-1954.753656063246
 10
1139.043570347782
 20
-1955.396602976798
 10
1139.65943191836
 20
-1956.502347270846
 10
1140.46075129886
 20
-1956.412504429198
 10
1141.118863701162
 20
-1956.338717759628
 10
1141.776976101539
 20
-1956.264931072874
 10
1142.435088501392
 20
-1956.191144381446
 10
1142.5760400056
 20
-1956.175341085307
 10
1142.716957402245
 20
-1956.157178012894
 10
1142.858160765525
 20
-1956.143710078621
 10
1142.932752819208
 20
-1956.134580868391
 10
1143.007591402325
 20
-1956.128465828263
 10
1143.082676514885
 20
-1956.125364958235
 10
1143.33271349212
 20
-1956.142784552801
 10
1143.240917446659
 20
-1956.086569672163
 10
1142.807288378501
 20
-1955.956720316321
 10
1142.760729432095
 20
-1955.897985231036
 10
1142.708330581557
 20
-1955.707013768726
 10
1142.764743074488
 20
-1955.920222070803
 10
1142.797474081841
 20
-1956.043927337846
 10
1142.830188183939
 20
-1956.165866179165
 10
1142.854596681588
 20
-1956.29161568493
 10
1142.868196483749
 20
-1956.370840344381
 10
1142.868265154072
 20
-1956.363090168515
 10
1142.854802692553
 20
-1956.268365157329
 10
1142.862466368882
 20
-1956.340728921206
 10
1142.867935542522
 20
-1956.413258166944
 10
1142.871210213473
 20
-1956.485952894539
 10
1142.875985995548
 20
-1956.594983677879
 10
1142.875976819389
 20
-1956.704329263181
 10
1142.871362903442
 20
-1956.813364866819
 10
1142.868166414725
 20
-1956.886142386367
 10
1142.86285125313
 20
-1956.95876484619
 10
1142.855417418654
 20
-1957.03123224629
 10
1142.872184593138
 20
-1956.918888969757
 10
1142.86946252541
 20
-1956.929303875824
 10
1142.847251215475
 20
-1957.062476964505
 10
1142.822878278575
 20
-1957.169209494582
 10
1142.801680654979
 20
-1957.275993538043
 10
1142.771883361933
 20
-1957.381556542455
 10
1142.742196156329
 20
-1957.48672953958
 10
1142.707882782182
 20
-1957.590626851126
 10
1142.669291868888
 20
-1957.692869024409
 10
1142.733845293648
 20
-1957.521842171791
 10
1142.571292836808
 20
-1957.887239487621
 10
1142.550567813708
 20
-1957.924237147375
 10
1142.496972809678
 20
-1958.01991326383
 10
1142.438007121511
 20
-1958.110587329424
 10
1142.378304120165
 20
-1958.202457511669
 10
1142.302276675035
 20
-1958.308313279857
 10
1142.293972055385
 20
-1958.320996633622
 10
1142.353390261221
 20
-1958.240507572962
 10
1142.306764941344
 20
-1958.296529046655
 10
1142.258384961973
 20
-1958.350991855963
 10
1142.208250323099
 20
-1958.403896000889
 10
1141.805849679346
 20
-1958.842461516751
 10
1141.774497319339
 20
-1959.529215239981
 10
1142.208250323099
 20
-1959.962968243742
 10
1142.616192945399
 20
-1960.370910866041
 10
1143.363291710184
 20
-1960.403310483331
 10
1143.767322565949
 20
-1959.962968243742
 10
1144.849321255422
 20
-1958.783727303713
 10
1145.300885102613
 20
-1957.166677386617
 10
1144.95915430899
 20
-1955.598482413574
 10
1144.748943849433
 20
-1954.633831313608
 10
1144.081700509683
 20
-1953.870403667005
 10
1143.026232445909
 20
-1953.923978027268
 10
1142.171907928972
 20
-1953.967342569525
 10
1141.310939680866
 20
-1954.112321350848
 10
1140.46075129886
 20
-1954.207643318637
 10
1140.778056787824
 20
-1954.760592773953
 10
1141.095362276788
 20
-1955.313542229269
 10
1141.412667765753
 20
-1955.866491684585
 10
1141.980399652659
 20
-1955.081945524669
 10
1142.364492768434
 20
-1954.151162249135
 10
1142.50913303511
 20
-1953.193428713223
 10
1142.612450866319
 20
-1952.509311115266
 10
1142.231125596099
 20
-1951.78488928357
 10
1141.446082364707
 20
-1951.797928446641
 10
1139.520009228571
 20
-1951.829919527769
 10
1137.6231251937
 20
-1952.378952364681
 10
1135.991532551513
 20
-1953.40663271273
 10
1135.488226632692
 20
-1953.723646646514
 10
1135.288400087091
 20
-1954.389013779024
 10
1135.596033895287
 20
-1954.914966990297
 10
1135.889601584772
 20
-1955.416871738403
 10
1136.598542562132
 20
-1955.629066641794
 10
1137.104368172851
 20
-1955.310465646523
 10
1137.104368172851
 20
-1955.310465646523
 10
1137.104368172851
 20
-1955.310465646523
 10
1137.104368172851
 20
-1955.310465646523
 97
        0
 97
        1
330
93
 75
     2
 76
     1
 98
        1
 10
0.0
 20
0.0
450
        0
451
        0
460
0.0
461
0.0
452
        0
462
0.0
453
        0
470

  0
ENDSEC
  0
SECTION
  2
OBJECTS
  0
DICTIONARY
  5
C
330
0
100
AcDbDictionary
281
     1
  3
ACAD_COLOR
350
63
  3
ACAD_DETAILVIEWSTYLE
350
6A
  3
ACAD_GROUP
350
D
  3
ACAD_LAYOUT
350
62
  3
ACAD_MATERIAL
350
10
  3
ACAD_MLEADERSTYLE
350
66
  3
ACAD_MLINESTYLE
350
5F
  3
ACAD_PLOTSETTINGS
350
61
  3
ACAD_PLOTSTYLENAME
350
E
  3
ACAD_SCALELIST
350
42
  3
ACAD_SECTIONVIEWSTYLE
350
68
  3
ACAD_TABLESTYLE
350
64
  3
ACAD_VISUALSTYLE
350
29
  3
ACDB_RECOMPOSE_DATA
350
AA
  3
AcDbVariableDictionary
350
A2
  0
DICTIONARY
  5
63
102
{ACAD_REACTORS
330
C
102
}
330
C
100
AcDbDictionary
281
     1
  0
DICTIONARY
  5
6A
102
{ACAD_REACTORS
330
C
102
}
330
C
100
AcDbDictionary
281
     1
  3
Imperial24
350
6B
  0
DICTIONARY
  5
D
102
{ACAD_REACTORS
330
C
102
}
330
C
100
AcDbDictionary
281
     1
  0
DICTIONARY
  5
62
102
{ACAD_REACTORS
330
C
102
}
330
C
100
AcDbDictionary
281
     1
  3
Layout1
350
6F
  3
Layout2
350
77
  3
Model
350
73
  0
DICTIONARY
  5
10
102
{ACAD_REACTORS
330
C
102
}
330
C
100
AcDbDictionary
281
     1
  3
ByBlock
350
19
  3
ByLayer
350
11
  3
Global
350
21
  0
DICTIONARY
  5
66
102
{ACAD_REACTORS
330
C
102
}
330
C
100
AcDbDictionary
281
     1
  3
Standard
350
67
  0
DICTIONARY
  5
5F
102
{ACAD_REACTORS
330
C
102
}
330
C
100
AcDbDictionary
281
     1
  3
Standard
350
60
  0
DICTIONARY
  5
61
102
{ACAD_REACTORS
330
C
102
}
330
C
100
AcDbDictionary
281
     1
  0
ACDBDICTIONARYWDFLT
  5
E
102
{ACAD_REACTORS
330
C
102
}
330
C
100
AcDbDictionary
281
     1
  3
Normal
350
F
100
AcDbDictionaryWithDefault
340
F
  0
DICTIONARY
  5
42
102
{ACAD_REACTORS
330
C
102
}
330
C
100
AcDbDictionary
281
     1
  3
A0
350
43
  3
A1
350
44
  3
A2
350
45
  3
A3
350
46
  3
A4
350
47
  3
A5
350
48
  3
A6
350
49
  3
A7
350
4A
  3
A8
350
4B
  3
A9
350
4C
  3
B0
350
4D
  3
B1
350
4E
  3
B2
350
4F
  3
B3
350
50
  3
B4
350
51
  3
B5
350
52
  3
B6
350
53
  0
DICTIONARY
  5
68
102
{ACAD_REACTORS
330
C
102
}
330
C
100
AcDbDictionary
281
     1
  3
Imperial24
350
69
  0
DICTIONARY
  5
64
102
{ACAD_REACTORS
330
C
102
}
330
C
100
AcDbDictionary
281
     1
  3
Standard
350
65
  0
DICTIONARY
  5
29
102
{ACAD_REACTORS
330
C
102
}
330
C
100
AcDbDictionary
281
     1
  3
2dWireframe
350
2F
  3
Basic
350
2E
  3
Brighten
350
35
  3
ColorChange
350
39
  3
Conceptual
350
32
  3
Dim
350
34
  3
EdgeColorOff
350
41
  3
Facepattern
350
38
  3
Flat
350
2A
  3
FlatWithEdges
350
2B
  3
Gouraud
350
2C
  3
GouraudWithEdges
350
2D
  3
Hidden
350
31
  3
JitterOff
350
3F
  3
Linepattern
350
37
  3
OverhangOff
350
40
  3
Realistic
350
33
  3
Shaded
350
3E
  3
Shaded with edges
350
3D
  3
Shades of Gray
350
3A
  3
Sketchy
350
3B
  3
Thicken
350
36
  3
Wireframe
350
30
  3
X-Ray
350
3C
  0
XRECORD
  5
AA
102
{ACAD_REACTORS
330
C
102
}
330
C
100
AcDbXrecord
280
     1
 90
        1
330
65
  0
DICTIONARY
  5
A2
102
{ACAD_REACTORS
330
C
102
}
330
C
100
AcDbDictionary
281
     1
  3
CANNOSCALE
350
A7
  3
CMLEADERSTYLE
350
A4
  3
CTABLESTYLE
350
A3
  3
CVIEWDETAILSTYLE
350
A5
  3
CVIEWSECTIONSTYLE
350
A6
  0
ACDBDETAILVIEWSTYLE
  5
6B
102
{ACAD_REACTORS
330
6A
102
}
330
6A
100
AcDbModelDocViewStyle
 70
     0
  3
Imperial24
290
     1
300
Imperial24
 90
        0
100
AcDbDetailViewStyle
 70
     0
 71
     0
 90
        3
 71
     1
340
55
 62
   256
 40
0.24
340
0
 62
   256
 40
0.24
300

 40
0.36
280
     3
 71
     2
340
5D
 90
       25
 62
   256
 71
     3
340
55
 62
   256
 40
0.24
 90
        1
 40
0.75
 90
        1
300
%<\AcVar ViewType \f "%tc1">% %<\AcVar ViewDetailId>%\PSCALE %<\AcVar ViewScale \f "%sn">%
 71
     4
340
5D
 90
       25
 62
   256
340
5D
 90
       25
 62
   256
280
     0
  0
LAYOUT
  5
6F
102
{ACAD_REACTORS
330
62
102
}
330
62
100
AcDbPlotSettings
  1

  2

  4

  6

 40
0.0
 41
0.0
 42
0.0
 43
0.0
 44
0.0
 45
0.0
 46
0.0
 47
0.0
 48
0.0
 49
0.0
140
0.0
141
0.0
142
1.0
143
1.0
 70
   688
 72
     0
 73
     0
 74
     5
  7

 75
    16
147
1.0
 76
     0
 77
     2
 78
   300
148
0.0
149
0.0
100
AcDbLayout
  1
Layout1
 70
     1
 71
     1
 10
0.0
 20
0.0
 11
12.0
 21
9.0
 12
0.0
 22
0.0
 32
0.0
 14
0.0
 24
0.0
 34
0.0
 15
0.0
 25
0.0
 35
0.0
146
0.0
 13
0.0
 23
0.0
 33
0.0
 16
1.0
 26
0.0
 36
0.0
 17
0.0
 27
1.0
 37
0.0
 76
     0
330
6C
  0
LAYOUT
  5
77
102
{ACAD_REACTORS
330
62
102
}
330
62
100
AcDbPlotSettings
  1

  2

  4

  6

 40
0.0
 41
0.0
 42
0.0
 43
0.0
 44
0.0
 45
0.0
 46
0.0
 47
0.0
 48
0.0
 49
0.0
140
0.0
141
0.0
142
1.0
143
1.0
 70
   688
 72
     0
 73
     0
 74
     5
  7

 75
    16
147
1.0
 76
     0
 77
     2
 78
   300
148
0.0
149
0.0
100
AcDbLayout
  1
Layout2
 70
     1
 71
     2
 10
0.0
 20
0.0
 11
12.0
 21
9.0
 12
0.0
 22
0.0
 32
0.0
 14
0.0
 24
0.0
 34
0.0
 15
0.0
 25
0.0
 35
0.0
146
0.0
 13
0.0
 23
0.0
 33
0.0
 16
1.0
 26
0.0
 36
0.0
 17
0.0
 27
1.0
 37
0.0
 76
     0
330
74
  0
LAYOUT
  5
73
102
{ACAD_REACTORS
330
62
102
}
330
62
100
AcDbPlotSettings
  1

  2

  4

  6

 40
0.0
 41
0.0
 42
0.0
 43
0.0
 44
0.0
 45
0.0
 46
0.0
 47
0.0
 48
0.0
 49
0.0
140
0.0
141
0.0
142
1.0
143
1.0
 70
  1712
 72
     0
 73
     0
 74
     0
  7

 75
     0
147
1.0
 76
     0
 77
     2
 78
   300
148
0.0
149
0.0
100
AcDbLayout
  1
Model
 70
     1
 71
     0
 10
0.0
 20
0.0
 11
12.0
 21
9.0
 12
0.0
 22
0.0
 32
0.0
 14
0.0
 24
0.0
 34
0.0
 15
0.0
 25
0.0
 35
0.0
146
0.0
 13
0.0
 23
0.0
 33
0.0
 16
1.0
 26
0.0
 36
0.0
 17
0.0
 27
1.0
 37
0.0
 76
     0
330
70
  0
MATERIAL
  5
19
102
{ACAD_XDICTIONARY
360
1A
102
}
102
{ACAD_REACTORS
330
10
102
}
330
10
100
AcDbMaterial
  1
ByBlock
 72
     0
 43
0.0208333333333333
 43
0.0
 43
0.0
 43
0.0
 43
0.0
 43
0.0208333333333333
 43
0.0
 43
0.0
 43
0.0
 43
0.0
 43
1.0
 43
0.0
 43
0.0
 43
0.0
 43
0.0
 43
1.0
 77
     0
 47
0.0208333333333333
 47
0.0
 47
0.0
 47
0.0
 47
0.0
 47
0.0208333333333333
 47
0.0
 47
0.0
 47
0.0
 47
0.0
 47
1.0
 47
0.0
 47
0.0
 47
0.0
 47
0.0
 47
1.0
171
     0
 49
0.0208333333333333
 49
0.0
 49
0.0
 49
0.0
 49
0.0
 49
0.0208333333333333
 49
0.0
 49
0.0
 49
0.0
 49
0.0
 49
1.0
 49
0.0
 49
0.0
 49
0.0
 49
0.0
 49
1.0
175
     0
142
0.0208333333333333
142
0.0
142
0.0
142
0.0
142
0.0
142
0.0208333333333333
142
0.0
142
0.0
142
0.0
142
0.0
142
1.0
142
0.0
142
0.0
142
0.0
142
0.0
142
1.0
179
     0
144
0.0208333333333333
144
0.0
144
0.0
144
0.0
144
0.0
144
0.0208333333333333
144
0.0
144
0.0
144
0.0
144
0.0
144
1.0
144
0.0
144
0.0
144
0.0
144
0.0
144
1.0
147
0.0208333333333333
147
0.0
147
0.0
147
0.0
147
0.0
147
0.0208333333333333
147
0.0
147
0.0
147
0.0
147
0.0
147
1.0
147
0.0
147
0.0
147
0.0
147
0.0
147
1.0
  0
MATERIAL
  5
11
102
{ACAD_XDICTIONARY
360
12
102
}
102
{ACAD_REACTORS
330
10
102
}
330
10
100
AcDbMaterial
  1
ByLayer
 72
     0
 43
0.0208333333333333
 43
0.0
 43
0.0
 43
0.0
 43
0.0
 43
0.0208333333333333
 43
0.0
 43
0.0
 43
0.0
 43
0.0
 43
1.0
 43
0.0
 43
0.0
 43
0.0
 43
0.0
 43
1.0
 77
     0
 47
0.0208333333333333
 47
0.0
 47
0.0
 47
0.0
 47
0.0
 47
0.0208333333333333
 47
0.0
 47
0.0
 47
0.0
 47
0.0
 47
1.0
 47
0.0
 47
0.0
 47
0.0
 47
0.0
 47
1.0
171
     0
 49
0.0208333333333333
 49
0.0
 49
0.0
 49
0.0
 49
0.0
 49
0.0208333333333333
 49
0.0
 49
0.0
 49
0.0
 49
0.0
 49
1.0
 49
0.0
 49
0.0
 49
0.0
 49
0.0
 49
1.0
175
     0
142
0.0208333333333333
142
0.0
142
0.0
142
0.0
142
0.0
142
0.0208333333333333
142
0.0
142
0.0
142
0.0
142
0.0
142
1.0
142
0.0
142
0.0
142
0.0
142
0.0
142
1.0
179
     0
144
0.0208333333333333
144
0.0
144
0.0
144
0.0
144
0.0
144
0.0208333333333333
144
0.0
144
0.0
144
0.0
144
0.0
144
1.0
144
0.0
144
0.0
144
0.0
144
0.0
144
1.0
147
0.0208333333333333
147
0.0
147
0.0
147
0.0
147
0.0
147
0.0208333333333333
147
0.0
147
0.0
147
0.0
147
0.0
147
1.0
147
0.0
147
0.0
147
0.0
147
0.0
147
1.0
  0
MATERIAL
  5
21
102
{ACAD_XDICTIONARY
360
22
102
}
102
{ACAD_REACTORS
330
10
102
}
330
10
100
AcDbMaterial
  1
Global
 72
     0
 43
0.0208333333333333
 43
0.0
 43
0.0
 43
0.0
 43
0.0
 43
0.0208333333333333
 43
0.0
 43
0.0
 43
0.0
 43
0.0
 43
1.0
 43
0.0
 43
0.0
 43
0.0
 43
0.0
 43
1.0
 77
     0
 47
0.0208333333333333
 47
0.0
 47
0.0
 47
0.0
 47
0.0
 47
0.0208333333333333
 47
0.0
 47
0.0
 47
0.0
 47
0.0
 47
1.0
 47
0.0
 47
0.0
 47
0.0
 47
0.0
 47
1.0
171
     0
 49
0.0208333333333333
 49
0.0
 49
0.0
 49
0.0
 49
0.0
 49
0.0208333333333333
 49
0.0
 49
0.0
 49
0.0
 49
0.0
 49
1.0
 49
0.0
 49
0.0
 49
0.0
 49
0.0
 49
1.0
175
     0
142
0.0208333333333333
142
0.0
142
0.0
142
0.0
142
0.0
142
0.0208333333333333
142
0.0
142
0.0
142
0.0
142
0.0
142
1.0
142
0.0
142
0.0
142
0.0
142
0.0
142
1.0
179
     0
144
0.0208333333333333
144
0.0
144
0.0
144
0.0
144
0.0
144
0.0208333333333333
144
0.0
144
0.0
144
0.0
144
0.0
144
1.0
144
0.0
144
0.0
144
0.0
144
0.0
144
1.0
147
0.0208333333333333
147
0.0
147
0.0
147
0.0
147
0.0
147
0.0208333333333333
147
0.0
147
0.0
147
0.0
147
0.0
147
1.0
147
0.0
147
0.0
147
0.0
147
0.0
147
1.0
  0
MLEADERSTYLE
  5
67
102
{ACAD_REACTORS
330
66
102
}
330
66
100
AcDbMLeaderStyle
179
     2
170
     2
171
     1
172
     0
 90
        2
 40
0.0
 41
0.0
173
     1
 91
-1056964608
340
5B
 92
       -2
290
     1
 42
0.09
291
     1
 43
0.36
  3
Standard
 44
0.18
300

342
55
174
     1
178
     6
175
     1
176
     0
 93
-1056964608
 45
0.18
292
     0
297
     0
 46
0.18
 94
-1056964608
 47
1.0
 49
1.0
140
1.0
293
     1
141
0.0
294
     1
177
     0
142
1.0
295
     1
296
     0
143
0.125
271
     0
272
     9
273
     9
298
     1
  0
MLINESTYLE
  5
60
102
{ACAD_REACTORS
330
5F
102
}
330
5F
100
AcDbMlineStyle
  2
STANDARD
 70
     0
  3

 62
   256
 51
90.0
 52
90.0
 71
     2
 49
0.5
 62
   256
  6
BYLAYER
 49
-0.5
 62
   256
  6
BYLAYER
  0
ACDBPLACEHOLDER
  5
F
102
{ACAD_REACTORS
330
E
102
}
330
E
  0
SCALE
  5
43
102
{ACAD_REACTORS
330
42
102
}
330
42
100
AcDbScale
 70
     0
300
1:1
140
1.0
141
1.0
290
     1
  0
SCALE
  5
44
102
{ACAD_REACTORS
330
42
102
}
330
42
100
AcDbScale
 70
     0
300
1/128" = 1'-0"
140
0.0078125
141
12.0
290
     0
  0
SCALE
  5
45
102
{ACAD_REACTORS
330
42
102
}
330
42
100
AcDbScale
 70
     0
300
1/64" = 1'-0"
140
0.015625
141
12.0
290
     0
  0
SCALE
  5
46
102
{ACAD_REACTORS
330
42
102
}
330
42
100
AcDbScale
 70
     0
300
1/32" = 1'-0"
140
0.03125
141
12.0
290
     0
  0
SCALE
  5
47
102
{ACAD_REACTORS
330
42
102
}
330
42
100
AcDbScale
 70
     0
300
1/16" = 1'-0"
140
0.0625
141
12.0
290
     0
  0
SCALE
  5
48
102
{ACAD_REACTORS
330
42
102
}
330
42
100
AcDbScale
 70
     0
300
3/32" = 1'-0"
140
0.09375
141
12.0
290
     0
  0
SCALE
  5
49
102
{ACAD_REACTORS
330
42
102
}
330
42
100
AcDbScale
 70
     0
300
1/8" = 1'-0"
140
0.125
141
12.0
290
     0
  0
SCALE
  5
4A
102
{ACAD_REACTORS
330
42
102
}
330
42
100
AcDbScale
 70
     0
300
3/16" = 1'-0"
140
0.1875
141
12.0
290
     0
  0
SCALE
  5
4B
102
{ACAD_REACTORS
330
42
102
}
330
42
100
AcDbScale
 70
     0
300
1/4" = 1'-0"
140
0.25
141
12.0
290
     0
  0
SCALE
  5
4C
102
{ACAD_REACTORS
330
42
102
}
330
42
100
AcDbScale
 70
     0
300
3/8" = 1'-0"
140
0.375
141
12.0
290
     0
  0
SCALE
  5
4D
102
{ACAD_REACTORS
330
42
102
}
330
42
100
AcDbScale
 70
     0
300
1/2" = 1'-0"
140
0.5
141
12.0
290
     0
  0
SCALE
  5
4E
102
{ACAD_REACTORS
330
42
102
}
330
42
100
AcDbScale
 70
     0
300
3/4" = 1'-0"
140
0.75
141
12.0
290
     0
  0
SCALE
  5
4F
102
{ACAD_REACTORS
330
42
102
}
330
42
100
AcDbScale
 70
     0
300
1" = 1'-0"
140
1.0
141
12.0
290
     0
  0
SCALE
  5
50
102
{ACAD_REACTORS
330
42
102
}
330
42
100
AcDbScale
 70
     0
300
1-1/2" = 1'-0"
140
1.5
141
12.0
290
     0
  0
SCALE
  5
51
102
{ACAD_REACTORS
330
42
102
}
330
42
100
AcDbScale
 70
     0
300
3" = 1'-0"
140
3.0
141
12.0
290
     0
  0
SCALE
  5
52
102
{ACAD_REACTORS
330
42
102
}
330
42
100
AcDbScale
 70
     0
300
6" = 1'-0"
140
6.0
141
12.0
290
     0
  0
SCALE
  5
53
102
{ACAD_REACTORS
330
42
102
}
330
42
100
AcDbScale
 70
     0
300
1'-0" = 1'-0"
140
12.0
141
12.0
290
     0
  0
ACDBSECTIONVIEWSTYLE
  5
69
102
{ACAD_REACTORS
330
68
102
}
330
68
100
AcDbModelDocViewStyle
 70
     0
  3
Imperial24
290
     1
300
Imperial24
 90
        0
100
AcDbSectionViewStyle
 70
     0
 71
     0
 90
       78
 71
     1
340
55
 62
   256
 40
0.24
340
0
340
0
 62
   256
 40
0.24
300
I, O, Q, S, X, Z
 40
0.48
 90
        3
 40
0.18
 90
        1
 71
     2
340
5D
 90
       25
 62
   256
340
5D
 90
       50
 62
   256
 40
0.24
 40
0.0
 40
0.24
 71
     3
340
55
 62
   256
 40
0.24
 90
        1
 40
0.75
 90
        1
300
%<\AcVar ViewType \f "%tc1">% %<\AcVar ViewSectionStartId>%-%<\AcVar ViewSectionEndId>%\PSCALE %<\AcVar ViewScale \f "%sn">%
 71
     4
 62
   256
 62
   257
300
ANSI31
 40
1.0
 90
        0
290
     0
290
     0
 90
        6
 40
0.0
 40
1.570796326794896
 40
0.2617993877991494
 40
1.308996938995747
 40
-0.2617993877991494
 40
1.832595714594046
  0
TABLESTYLE
  5
65
102
{ACAD_XDICTIONARY
360
A8
102
}
102
{ACAD_REACTORS
330
64
102
}
330
64
100
AcDbTableStyle
280
     0
  3
Standard
 70
     0
 71
     0
 40
0.06
 41
0.06
280
     0
281
     0
  7
Standard
140
0.18
170
     2
 62
     0
 63
     7
283
     0
 90
      512
 91
        0
  1

274
    -2
284
     1
 64
     0
275
    -2
285
     1
 65
     0
276
    -2
286
     1
 66
     0
277
    -2
287
     1
 67
     0
278
    -2
288
     1
 68
     0
279
    -2
289
     1
 69
     0
  7
Standard
140
0.25
170
     5
 62
     0
 63
     7
283
     0
 90
      512
 91
        0
  1

274
    -2
284
     1
 64
     0
275
    -2
285
     1
 65
     0
276
    -2
286
     1
 66
     0
277
    -2
287
     1
 67
     0
278
    -2
288
     1
 68
     0
279
    -2
289
     1
 69
     0
  7
Standard
140
0.18
170
     5
 62
     0
 63
     7
283
     0
 90
      512
 91
        0
  1

274
    -2
284
     1
 64
     0
275
    -2
285
     1
 65
     0
276
    -2
286
     1
 66
     0
277
    -2
287
     1
 67
     0
278
    -2
288
     1
 68
     0
279
    -2
289
     1
 69
     0
  0
VISUALSTYLE
  5
2F
102
{ACAD_REACTORS
330
29
102
}
330
29
100
AcDbVisualStyle
  2
2dWireframe
 70
     4
177
     3
291
     0
 70
    58
 90
        0
176
     1
 90
        2
176
     1
 90
        0
176
     1
 90
        0
176
     1
 40
0.6
176
     1
 40
30.0
176
     1
 62
     7
420
 16777215
176
     1
 90
        1
176
     1
 90
        4
176
     1
 62
     7
176
     1
 62
   257
176
     1
 90
        1
176
     1
 90
        1
176
     1
 40
1.0
176
     1
 90
        0
176
     1
 62
   257
176
     1
 40
1.0
176
     1
 90
        1
176
     1
 90
        6
176
     1
 90
        2
176
     1
 62
     7
176
     1
 90
        5
176
     1
 90
        0
176
     1
 90
        0
176
     1
290
     0
176
     1
 90
        1
176
     1
 40
0.0
176
     1
 90
        0
176
     1
290
     1
176
     1
290
     1
176
     1
290
     0
176
     1
290
     0
176
     1
290
     0
176
     1
290
     0
176
     1
290
     0
176
     1
290
     0
176
     1
290
     0
176
     1
 90
       50
176
     1
 40
0.0
176
     1
 40
1.0
176
     1
 90
        0
176
     1
 62
    18
420
        0
176
     1
 90
       50
176
     1
 90
        3
176
     1
 62
     5
420
      255
176
     1
290
     0
176
     1
 90
       50
176
     1
 90
       50
176
     1
 90
       50
176
     1
290
     0
176
     1
 90
       50
176
     1
 62
   256
176
     0
 40
1.0
176
     0
 90
        2
176
     1
  1
strokes_ogs.tif
176
     1
290
     0
176
     1
 40
1.0
176
     1
 40
1.0
176
     1
  0
VISUALSTYLE
  5
2E
102
{ACAD_REACTORS
330
29
102
}
330
29
100
AcDbVisualStyle
  2
Basic
 70
     7
177
     3
291
     1
 70
    58
 90
        1
176
     1
 90
        0
176
     1
 90
        1
176
     1
 90
        0
176
     1
 40
0.6
176
     1
 40
30.0
176
     1
 62
     7
420
 16777215
176
     1
 90
        0
176
     1
 90
        4
176
     1
 62
     7
176
     1
 62
   257
176
     1
 90
        1
176
     1
 90
        1
176
     1
 40
1.0
176
     1
 90
        8
176
     1
 62
     7
176
     1
 40
1.0
176
     1
 90
        1
176
     1
 90
        6
176
     1
 90
        2
176
     1
 62
     7
176
     1
 90
        5
176
     1
 90
        0
176
     1
 90
        0
176
     1
290
     0
176
     1
 90
        1
176
     1
 40
0.0
176
     1
 90
        0
176
     1
290
     0
176
     1
290
     1
176
     1
290
     1
176
     1
290
     0
176
     1
290
     0
176
     1
290
     0
176
     1
290
     0
176
     1
290
     0
176
     1
290
     0
176
     1
 90
       50
176
     1
 40
0.0
176
     1
 40
1.0
176
     1
 90
        0
176
     1
 62
    18
420
        0
176
     1
 90
       50
176
     1
 90
        3
176
     1
 62
     5
420
      255
176
     1
290
     0
176
     1
 90
       50
176
     1
 90
       50
176
     1
 90
       50
176
     1
290
     0
176
     1
 90
       50
176
     1
 62
   256
176
     0
 40
1.0
176
     0
 90
        2
176
     1
  1
strokes_ogs.tif
176
     1
290
     0
176
     1
 40
1.0
176
     1
 40
1.0
176
     1
  0
VISUALSTYLE
  5
35
102
{ACAD_REACTORS
330
29
102
}
330
29
100
AcDbVisualStyle
  2
Brighten
 70
    12
177
     3
291
     1
 70
    58
 90
        2
176
     1
 90
        2
176
     1
 90
        0
176
     1
 90
        0
176
     1
 40
0.6
176
     1
 40
30.0
176
     1
 62
     7
420
 16777215
176
     1
 90
        1
176
     1
 90
        4
176
     1
 62
     7
176
     1
 62
   257
176
     1
 90
        1
176
     1
 90
        1
176
     1
 40
1.0
176
     1
 90
        8
176
     1
 62
     7
176
     1
 40
1.0
176
     1
 90
        1
176
     1
 90
        6
176
     1
 90
        2
176
     1
 62
     7
176
     1
 90
        5
176
     1
 90
        0
176
     1
 90
        0
176
     1
290
     0
176
     1
 90
        1
176
     1
 40
50.0
176
     1
 90
        0
176
     1
290
     0
176
     1
290
     1
176
     1
290
     1
176
     1
290
     0
176
     1
290
     0
176
     1
290
     0
176
     1
290
     0
176
     1
290
     0
176
     1
290
     0
176
     1
 90
       50
176
     1
 40
0.0
176
     1
 40
1.0
176
     1
 90
        0
176
     1
 62
    18
420
        0
176
     1
 90
       50
176
     1
 90
        3
176
     1
 62
     5
420
      255
176
     1
290
     0
176
     1
 90
       50
176
     1
 90
       50
176
     1
 90
       50
176
     1
290
     0
176
     1
 90
       50
176
     1
 62
   256
176
     0
 40
1.0
176
     0
 90
        2
176
     1
  1
strokes_ogs.tif
176
     1
290
     0
176
     1
 40
1.0
176
     1
 40
1.0
176
     1
  0
VISUALSTYLE
  5
39
102
{ACAD_REACTORS
330
29
102
}
330
29
100
AcDbVisualStyle
  2
ColorChange
 70
    16
177
     3
291
     1
 70
    58
 90
        2
176
     1
 90
        2
176
     1
 90
        3
176
     1
 90
        0
176
     1
 40
0.6
176
     1
 40
30.0
176
     1
 62
     8
420
  8421504
176
     1
 90
        1
176
     1
 90
        4
176
     1
 62
     7
176
     1
 62
   257
176
     1
 90
        1
176
     1
 90
        1
176
     1
 40
1.0
176
     1
 90
        8
176
     1
 62
     8
420
  8421504
176
     1
 40
1.0
176
     1
 90
        1
176
     1
 90
        6
176
     1
 90
        2
176
     1
 62
     7
176
     1
 90
        5
176
     1
 90
        0
176
     1
 90
        0
176
     1
290
     0
176
     1
 90
        1
176
     1
 40
0.0
176
     1
 90
        0
176
     1
290
     0
176
     1
290
     1
176
     1
290
     1
176
     1
290
     0
176
     1
290
     0
176
     1
290
     0
176
     1
290
     0
176
     1
290
     0
176
     1
290
     0
176
     1
 90
       50
176
     1
 40
0.0
176
     1
 40
1.0
176
     1
 90
        0
176
     1
 62
    18
420
        0
176
     1
 90
       50
176
     1
 90
        3
176
     1
 62
     5
420
      255
176
     1
290
     0
176
     1
 90
       50
176
     1
 90
       50
176
     1
 90
       50
176
     1
290
     0
176
     1
 90
       50
176
     1
 62
   256
176
     0
 40
1.0
176
     0
 90
        2
176
     1
  1
strokes_ogs.tif
176
     1
290
     0
176
     1
 40
1.0
176
     1
 40
1.0
176
     1
  0
VISUALSTYLE
  5
32
102
{ACAD_REACTORS
330
29
102
}
330
29
100
AcDbVisualStyle
  2
Conceptual
 70
     9
177
     3
291
     0
 70
    58
 90
        3
176
     1
 90
        2
176
     1
 90
        0
176
     1
 90
        0
176
     1
 40
0.6
176
     1
 40
30.0
176
     1
 62
     7
420
 16777215
176
     1
 90
        2
176
     1
 90
        2
176
     1
 62
     7
176
     1
 62
   257
176
     1
 90
        1
176
     1
 90
        1
176
     1
 40
179.0
176
     1
 90
        8
176
     1
 62
     7
176
     1
 40
1.0
176
     1
 90
        1
176
     1
 90
        6
176
     1
 90
        2
176
     1
 62
     7
176
     1
 90
        3
176
     1
 90
        0
176
     1
 90
        0
176
     1
290
     0
176
     1
 90
        1
176
     1
 40
0.0
176
     1
 90
        0
176
     1
290
     0
176
     1
290
     1
176
     1
290
     1
176
     1
290
     0
176
     1
290
     0
176
     1
290
     0
176
     1
290
     0
176
     1
290
     0
176
     1
290
     0
176
     1
 90
       50
176
     1
 40
0.0
176
     1
 40
1.0
176
     1
 90
        0
176
     1
 62
    18
420
        0
176
     1
 90
       50
176
     1
 90
        3
176
     1
 62
     5
420
      255
176
     1
290
     0
176
     1
 90
       50
176
     1
 90
       50
176
     1
 90
       50
176
     1
290
     0
176
     1
 90
       50
176
     1
 62
   256
176
     0
 40
1.0
176
     0
 90
        2
176
     1
  1
strokes_ogs.tif
176
     1
290
     0
176
     1
 40
1.0
176
     1
 40
1.0
176
     1
  0
VISUALSTYLE
  5
34
102
{ACAD_REACTORS
330
29
102
}
330
29
100
AcDbVisualStyle
  2
Dim
 70
    11
177
     3
291
     1
 70
    58
 90
        2
176
     1
 90
        2
176
     1
 90
        0
176
     1
 90
        0
176
     1
 40
0.6
176
     1
 40
30.0
176
     1
 62
     7
420
 16777215
176
     1
 90
        1
176
     1
 90
        4
176
     1
 62
     7
176
     1
 62
   257
176
     1
 90
        1
176
     1
 90
        1
176
     1
 40
1.0
176
     1
 90
        8
176
     1
 62
     7
176
     1
 40
1.0
176
     1
 90
        1
176
     1
 90
        6
176
     1
 90
        2
176
     1
 62
     7
176
     1
 90
        5
176
     1
 90
        0
176
     1
 90
        0
176
     1
290
     0
176
     1
 90
        1
176
     1
 40
-50.0
176
     1
 90
        0
176
     1
290
     0
176
     1
290
     1
176
     1
290
     1
176
     1
290
     0
176
     1
290
     0
176
     1
290
     0
176
     1
290
     0
176
     1
290
     0
176
     1
290
     0
176
     1
 90
       50
176
     1
 40
0.0
176
     1
 40
1.0
176
     1
 90
        0
176
     1
 62
    18
420
        0
176
     1
 90
       50
176
     1
 90
        3
176
     1
 62
     5
420
      255
176
     1
290
     0
176
     1
 90
       50
176
     1
 90
       50
176
     1
 90
       50
176
     1
290
     0
176
     1
 90
       50
176
     1
 62
   256
176
     0
 40
1.0
176
     0
 90
        2
176
     1
  1
strokes_ogs.tif
176
     1
290
     0
176
     1
 40
1.0
176
     1
 40
1.0
176
     1
  0
VISUALSTYLE
  5
41
102
{ACAD_REACTORS
330
29
102
}
330
29
100
AcDbVisualStyle
  2
EdgeColorOff
 70
    22
177
     3
291
     1
 70
    58
 90
        2
176
     0
 90
        2
176
     0
 90
        0
176
     0
 90
        0
176
     0
 40
0.6
176
     0
 40
30.0
176
     0
 62
     7
420
 16777215
176
     0
 90
        1
176
     0
 90
        4
176
     0
 62
     7
176
     0
 62
   257
176
     0
 90
        1
176
     0
 90
        1
176
     0
 40
1.0
176
     0
 90
        8
176
     2
 62
     7
176
     0
 40
1.0
176
     0
 90
        1
176
     0
 90
        6
176
     0
 90
        2
176
     0
 62
     7
176
     0
 90
        5
176
     0
 90
        0
176
     0
 90
        0
176
     0
290
     0
176
     0
 90
        1
176
     0
 40
0.0
176
     0
 90
        0
176
     0
290
     0
176
     0
290
     1
176
     0
290
     1
176
     0
290
     0
176
     0
290
     0
176
     0
290
     0
176
     0
290
     0
176
     0
290
     0
176
     0
290
     0
176
     0
 90
       50
176
     0
 40
0.0
176
     0
 40
1.0
176
     0
 90
        0
176
     0
 62
    18
420
        0
176
     0
 90
       50
176
     0
 90
        3
176
     0
 62
     5
420
      255
176
     0
290
     0
176
     0
 90
       50
176
     0
 90
       50
176
     0
 90
       50
176
     0
290
     0
176
     0
 90
       50
176
     0
 62
   256
176
     0
 40
1.0
176
     0
 90
        2
176
     0
  1
strokes_ogs.tif
176
     0
290
     0
176
     0
 40
1.0
176
     0
 40
1.0
176
     0
  0
VISUALSTYLE
  5
38
102
{ACAD_REACTORS
330
29
102
}
330
29
100
AcDbVisualStyle
  2
Facepattern
 70
    15
177
     3
291
     1
 70
    58
 90
        2
176
     1
 90
        2
176
     1
 90
        0
176
     1
 90
        0
176
     1
 40
0.6
176
     1
 40
30.0
176
     1
 62
     7
420
 16777215
176
     1
 90
        1
176
     1
 90
        4
176
     1
 62
     7
176
     1
 62
   257
176
     1
 90
        1
176
     1
 90
        1
176
     1
 40
1.0
176
     1
 90
        8
176
     1
 62
     7
176
     1
 40
1.0
176
     1
 90
        1
176
     1
 90
        6
176
     1
 90
        2
176
     1
 62
     7
176
     1
 90
        5
176
     1
 90
        0
176
     1
 90
        0
176
     1
290
     0
176
     1
 90
        1
176
     1
 40
0.0
176
     1
 90
        0
176
     1
290
     0
176
     1
290
     1
176
     1
290
     1
176
     1
290
     0
176
     1
290
     0
176
     1
290
     0
176
     1
290
     0
176
     1
290
     0
176
     1
290
     0
176
     1
 90
       50
176
     1
 40
0.0
176
     1
 40
1.0
176
     1
 90
        0
176
     1
 62
    18
420
        0
176
     1
 90
       50
176
     1
 90
        3
176
     1
 62
     5
420
      255
176
     1
290
     0
176
     1
 90
       50
176
     1
 90
       50
176
     1
 90
       50
176
     1
290
     0
176
     1
 90
       50
176
     1
 62
   256
176
     0
 40
1.0
176
     0
 90
        2
176
     1
  1
strokes_ogs.tif
176
     1
290
     0
176
     1
 40
1.0
176
     1
 40
1.0
176
     1
  0
VISUALSTYLE
  5
2A
102
{ACAD_REACTORS
330
29
102
}
330
29
100
AcDbVisualStyle
  2
Flat
 70
     0
177
     3
291
     1
 70
    58
 90
        2
176
     1
 90
        1
176
     1
 90
        1
176
     1
 90
        2
176
     1
 40
0.6
176
     1
 40
30.0
176
     1
 62
     7
420
 16777215
176
     1
 90
        0
176
     1
 90
        0
176
     1
 62
     7
176
     1
 62
   257
176
     1
 90
        1
176
     1
 90
        1
176
     1
 40
1.0
176
     1
 90
        8
176
     1
 62
     7
176
     1
 40
1.0
176
     1
 90
        1
176
     1
 90
        6
176
     1
 90
        2
176
     1
 62
     7
176
     1
 90
        5
176
     1
 90
        0
176
     1
 90
        0
176
     1
290
     0
176
     1
 90
       13
176
     1
 40
0.0
176
     1
 90
        0
176
     1
290
     0
176
     1
290
     1
176
     1
290
     1
176
     1
290
     0
176
     1
290
     0
176
     1
290
     0
176
     1
290
     0
176
     1
290
     0
176
     1
290
     0
176
     1
 90
       50
176
     1
 40
0.0
176
     1
 40
1.0
176
     1
 90
        0
176
     1
 62
    18
420
        0
176
     1
 90
       50
176
     1
 90
        3
176
     1
 62
     5
420
      255
176
     1
290
     0
176
     1
 90
       50
176
     1
 90
       50
176
     1
 90
       50
176
     1
290
     0
176
     1
 90
       50
176
     1
 62
   256
176
     0
 40
1.0
176
     0
 90
        2
176
     1
  1
strokes_ogs.tif
176
     1
290
     0
176
     1
 40
1.0
176
     1
 40
1.0
176
     1
  0
VISUALSTYLE
  5
2B
102
{ACAD_REACTORS
330
29
102
}
330
29
100
AcDbVisualStyle
  2
FlatWithEdges
 70
     1
177
     3
291
     1
 70
    58
 90
        2
176
     1
 90
        1
176
     1
 90
        1
176
     1
 90
        2
176
     1
 40
0.6
176
     1
 40
30.0
176
     1
 62
     7
420
 16777215
176
     1
 90
        1
176
     1
 90
        0
176
     1
 62
     7
176
     1
 62
   257
176
     1
 90
        1
176
     1
 90
        1
176
     1
 40
1.0
176
     1
 90
        0
176
     1
 62
   257
176
     1
 40
1.0
176
     1
 90
        1
176
     1
 90
        6
176
     1
 90
        2
176
     1
 62
     7
176
     1
 90
        5
176
     1
 90
        0
176
     1
 90
        0
176
     1
290
     0
176
     1
 90
       13
176
     1
 40
0.0
176
     1
 90
        0
176
     1
290
     0
176
     1
290
     1
176
     1
290
     1
176
     1
290
     0
176
     1
290
     0
176
     1
290
     0
176
     1
290
     0
176
     1
290
     0
176
     1
290
     0
176
     1
 90
       50
176
     1
 40
0.0
176
     1
 40
1.0
176
     1
 90
        0
176
     1
 62
    18
420
        0
176
     1
 90
       50
176
     1
 90
        3
176
     1
 62
     5
420
      255
176
     1
290
     0
176
     1
 90
       50
176
     1
 90
       50
176
     1
 90
       50
176
     1
290
     0
176
     1
 90
       50
176
     1
 62
   256
176
     0
 40
1.0
176
     0
 90
        2
176
     1
  1
strokes_ogs.tif
176
     1
290
     0
176
     1
 40
1.0
176
     1
 40
1.0
176
     1
  0
VISUALSTYLE
  5
2C
102
{ACAD_REACTORS
330
29
102
}
330
29
100
AcDbVisualStyle
  2
Gouraud
 70
     2
177
     3
291
     1
 70
    58
 90
        2
176
     1
 90
        2
176
     1
 90
        1
176
     1
 90
        2
176
     1
 40
0.6
176
     1
 40
30.0
176
     1
 62
     7
420
 16777215
176
     1
 90
        0
176
     1
 90
        0
176
     1
 62
     7
176
     1
 62
   257
176
     1
 90
        1
176
     1
 90
        1
176
     1
 40
1.0
176
     1
 90
        0
176
     1
 62
     7
176
     1
 40
1.0
176
     1
 90
        1
176
     1
 90
        6
176
     1
 90
        2
176
     1
 62
     7
176
     1
 90
        5
176
     1
 90
        0
176
     1
 90
        0
176
     1
290
     0
176
     1
 90
       13
176
     1
 40
0.0
176
     1
 90
        0
176
     1
290
     0
176
     1
290
     1
176
     1
290
     1
176
     1
290
     0
176
     1
290
     0
176
     1
290
     0
176
     1
290
     0
176
     1
290
     0
176
     1
290
     0
176
     1
 90
       50
176
     1
 40
0.0
176
     1
 40
1.0
176
     1
 90
        0
176
     1
 62
    18
420
        0
176
     1
 90
       50
176
     1
 90
        3
176
     1
 62
     5
420
      255
176
     1
290
     0
176
     1
 90
       50
176
     1
 90
       50
176
     1
 90
       50
176
     1
290
     0
176
     1
 90
       50
176
     1
 62
   256
176
     0
 40
1.0
176
     0
 90
        2
176
     1
  1
strokes_ogs.tif
176
     1
290
     0
176
     1
 40
1.0
176
     1
 40
1.0
176
     1
  0
VISUALSTYLE
  5
2D
102
{ACAD_REACTORS
330
29
102
}
330
29
100
AcDbVisualStyle
  2
GouraudWithEdges
 70
     3
177
     3
291
     1
 70
    58
 90
        2
176
     1
 90
        2
176
     1
 90
        1
176
     1
 90
        2
176
     1
 40
0.6
176
     1
 40
30.0
176
     1
 62
     7
420
 16777215
176
     1
 90
        1
176
     1
 90
        0
176
     1
 62
     7
176
     1
 62
   257
176
     1
 90
        1
176
     1
 90
        1
176
     1
 40
1.0
176
     1
 90
        0
176
     1
 62
   257
176
     1
 40
1.0
176
     1
 90
        1
176
     1
 90
        6
176
     1
 90
        2
176
     1
 62
     7
176
     1
 90
        5
176
     1
 90
        0
176
     1
 90
        0
176
     1
290
     0
176
     1
 90
       13
176
     1
 40
0.0
176
     1
 90
        0
176
     1
290
     0
176
     1
290
     1
176
     1
290
     1
176
     1
290
     0
176
     1
290
     0
176
     1
290
     0
176
     1
290
     0
176
     1
290
     0
176
     1
290
     0
176
     1
 90
       50
176
     1
 40
0.0
176
     1
 40
1.0
176
     1
 90
        0
176
     1
 62
    18
420
        0
176
     1
 90
       50
176
     1
 90
        3
176
     1
 62
     5
420
      255
176
     1
290
     0
176
     1
 90
       50
176
     1
 90
       50
176
     1
 90
       50
176
     1
290
     0
176
     1
 90
       50
176
     1
 62
   256
176
     0
 40
1.0
176
     0
 90
        2
176
     1
  1
strokes_ogs.tif
176
     1
290
     0
176
     1
 40
1.0
176
     1
 40
1.0
176
     1
  0
VISUALSTYLE
  5
31
102
{ACAD_REACTORS
330
29
102
}
330
29
100
AcDbVisualStyle
  2
Hidden
 70
     6
177
     3
291
     0
 70
    58
 90
        1
176
     1
 90
        2
176
     1
 90
        2
176
     1
 90
        0
176
     1
 40
0.6
176
     1
 40
30.0
176
     1
 62
     7
420
 16777215
176
     1
 90
        2
176
     1
 90
        2
176
     1
 62
     7
176
     1
 62
   257
176
     1
 90
        2
176
     1
 90
        1
176
     1
 40
40.0
176
     1
 90
        0
176
     1
 62
   257
176
     1
 40
1.0
176
     1
 90
        1
176
     1
 90
        6
176
     1
 90
        2
176
     1
 62
     7
176
     1
 90
        3
176
     1
 90
        0
176
     1
 90
        0
176
     1
290
     0
176
     1
 90
        1
176
     1
 40
0.0
176
     1
 90
        0
176
     1
290
     0
176
     1
290
     1
176
     1
290
     1
176
     1
290
     0
176
     1
290
     0
176
     1
290
     0
176
     1
290
     0
176
     1
290
     0
176
     1
290
     0
176
     1
 90
       50
176
     1
 40
0.0
176
     1
 40
1.0
176
     1
 90
        0
176
     1
 62
    18
420
        0
176
     1
 90
       50
176
     1
 90
        3
176
     1
 62
     5
420
      255
176
     1
290
     0
176
     1
 90
       50
176
     1
 90
       50
176
     1
 90
       50
176
     1
290
     0
176
     1
 90
       50
176
     1
 62
   256
176
     0
 40
1.0
176
     0
 90
        2
176
     1
  1
strokes_ogs.tif
176
     1
290
     0
176
     1
 40
1.0
176
     1
 40
1.0
176
     1
  0
VISUALSTYLE
  5
3F
102
{ACAD_REACTORS
330
29
102
}
330
29
100
AcDbVisualStyle
  2
JitterOff
 70
    20
177
     3
291
     1
 70
    58
 90
        2
176
     0
 90
        2
176
     0
 90
        0
176
     0
 90
        0
176
     0
 40
0.6
176
     0
 40
30.0
176
     0
 62
     7
420
 16777215
176
     0
 90
        1
176
     0
 90
        4
176
     0
 62
     7
176
     0
 62
   257
176
     0
 90
        1
176
     0
 90
        1
176
     0
 40
1.0
176
     0
 90
       10
176
     2
 62
     7
176
     0
 40
1.0
176
     0
 90
        1
176
     0
 90
        6
176
     0
 90
        2
176
     0
 62
     7
176
     0
 90
        5
176
     0
 90
        0
176
     0
 90
        0
176
     0
290
     0
176
     0
 90
        1
176
     0
 40
0.0
176
     0
 90
        0
176
     0
290
     0
176
     0
290
     1
176
     0
290
     1
176
     0
290
     0
176
     0
290
     0
176
     0
290
     0
176
     0
290
     0
176
     0
290
     0
176
     0
290
     0
176
     0
 90
       50
176
     0
 40
0.0
176
     0
 40
1.0
176
     0
 90
        0
176
     0
 62
    18
420
        0
176
     0
 90
       50
176
     0
 90
        3
176
     0
 62
     5
420
      255
176
     0
290
     0
176
     0
 90
       50
176
     0
 90
       50
176
     0
 90
       50
176
     0
290
     0
176
     0
 90
       50
176
     0
 62
   256
176
     0
 40
1.0
176
     0
 90
        2
176
     0
  1
strokes_ogs.tif
176
     0
290
     0
176
     0
 40
1.0
176
     0
 40
1.0
176
     0
  0
VISUALSTYLE
  5
37
102
{ACAD_REACTORS
330
29
102
}
330
29
100
AcDbVisualStyle
  2
Linepattern
 70
    14
177
     3
291
     1
 70
    58
 90
        2
176
     1
 90
        2
176
     1
 90
        0
176
     1
 90
        0
176
     1
 40
0.6
176
     1
 40
30.0
176
     1
 62
     7
420
 16777215
176
     1
 90
        1
176
     1
 90
        4
176
     1
 62
     7
176
     1
 62
   257
176
     1
 90
        7
176
     1
 90
        7
176
     1
 40
1.0
176
     1
 90
        8
176
     1
 62
     7
176
     1
 40
1.0
176
     1
 90
        1
176
     1
 90
        6
176
     1
 90
        2
176
     1
 62
     7
176
     1
 90
        5
176
     1
 90
        0
176
     1
 90
        0
176
     1
290
     0
176
     1
 90
        1
176
     1
 40
0.0
176
     1
 90
        0
176
     1
290
     0
176
     1
290
     1
176
     1
290
     1
176
     1
290
     0
176
     1
290
     0
176
     1
290
     0
176
     1
290
     0
176
     1
290
     0
176
     1
290
     0
176
     1
 90
       50
176
     1
 40
0.0
176
     1
 40
1.0
176
     1
 90
        0
176
     1
 62
    18
420
        0
176
     1
 90
       50
176
     1
 90
        3
176
     1
 62
     5
420
      255
176
     1
290
     0
176
     1
 90
       50
176
     1
 90
       50
176
     1
 90
       50
176
     1
290
     0
176
     1
 90
       50
176
     1
 62
   256
176
     0
 40
1.0
176
     0
 90
        2
176
     1
  1
strokes_ogs.tif
176
     1
290
     0
176
     1
 40
1.0
176
     1
 40
1.0
176
     1
  0
VISUALSTYLE
  5
40
102
{ACAD_REACTORS
330
29
102
}
330
29
100
AcDbVisualStyle
  2
OverhangOff
 70
    21
177
     3
291
     1
 70
    58
 90
        2
176
     0
 90
        2
176
     0
 90
        0
176
     0
 90
        0
176
     0
 40
0.6
176
     0
 40
30.0
176
     0
 62
     7
420
 16777215
176
     0
 90
        1
176
     0
 90
        4
176
     0
 62
     7
176
     0
 62
   257
176
     0
 90
        1
176
     0
 90
        1
176
     0
 40
1.0
176
     0
 90
        9
176
     2
 62
     7
176
     0
 40
1.0
176
     0
 90
        1
176
     0
 90
        6
176
     0
 90
        2
176
     0
 62
     7
176
     0
 90
        5
176
     0
 90
        0
176
     0
 90
        0
176
     0
290
     0
176
     0
 90
        1
176
     0
 40
0.0
176
     0
 90
        0
176
     0
290
     0
176
     0
290
     1
176
     0
290
     1
176
     0
290
     0
176
     0
290
     0
176
     0
290
     0
176
     0
290
     0
176
     0
290
     0
176
     0
290
     0
176
     0
 90
       50
176
     0
 40
0.0
176
     0
 40
1.0
176
     0
 90
        0
176
     0
 62
    18
420
        0
176
     0
 90
       50
176
     0
 90
        3
176
     0
 62
     5
420
      255
176
     0
290
     0
176
     0
 90
       50
176
     0
 90
       50
176
     0
 90
       50
176
     0
290
     0
176
     0
 90
       50
176
     0
 62
   256
176
     0
 40
1.0
176
     0
 90
        2
176
     0
  1
strokes_ogs.tif
176
     0
290
     0
176
     0
 40
1.0
176
     0
 40
1.0
176
     0
  0
VISUALSTYLE
  5
33
102
{ACAD_REACTORS
330
29
102
}
330
29
100
AcDbVisualStyle
  2
Realistic
 70
     8
177
     3
291
     0
 70
    58
 90
        2
176
     1
 90
        3
176
     1
 90
        0
176
     1
 90
        2
176
     1
 40
0.6
176
     1
 40
30.0
176
     1
 62
     7
420
 16777215
176
     1
 90
        0
176
     1
 90
        0
176
     1
 62
     7
176
     1
 62
   257
176
     1
 90
        1
176
     1
 90
        1
176
     1
 40
1.0
176
     1
 90
        8
176
     1
 62
   257
176
     1
 40
1.0
176
     1
 90
        1
176
     1
 90
        6
176
     1
 90
        2
176
     1
 62
     7
176
     1
 90
        3
176
     1
 90
        0
176
     1
 90
        0
176
     1
290
     0
176
     1
 90
       13
176
     1
 40
0.0
176
     1
 90
        0
176
     1
290
     0
176
     1
290
     1
176
     1
290
     1
176
     1
290
     0
176
     1
290
     0
176
     1
290
     0
176
     1
290
     0
176
     1
290
     0
176
     1
290
     0
176
     1
 90
       50
176
     1
 40
0.0
176
     1
 40
1.0
176
     1
 90
        0
176
     1
 62
    18
420
        0
176
     1
 90
       50
176
     1
 90
        3
176
     1
 62
     5
420
      255
176
     1
290
     0
176
     1
 90
       50
176
     1
 90
       50
176
     1
 90
       50
176
     1
290
     0
176
     1
 90
       50
176
     1
 62
   256
176
     0
 40
1.0
176
     0
 90
        2
176
     1
  1
strokes_ogs.tif
176
     1
290
     0
176
     1
 40
1.0
176
     1
 40
1.0
176
     1
  0
VISUALSTYLE
  5
3E
102
{ACAD_REACTORS
330
29
102
}
330
29
100
AcDbVisualStyle
  2
Shaded
 70
    27
177
     3
291
     0
 70
    58
 90
        2
176
     1
 90
        2
176
     1
 90
        1
176
     1
 90
        2
176
     1
 40
0.6
176
     1
 40
30.0
176
     1
 62
     7
420
 16777215
176
     1
 90
        0
176
     1
 90
        4
176
     1
 62
     7
176
     1
 62
   257
176
     1
 90
        1
176
     1
 90
        1
176
     1
 40
1.0
176
     1
 90
        8
176
     1
 62
   257
176
     1
 40
1.0
176
     1
 90
        1
176
     1
 90
        6
176
     1
 90
        2
176
     1
 62
     8
420
  7895160
176
     1
 90
        3
176
     1
 90
        0
176
     1
 90
        0
176
     1
290
     0
176
     1
 90
        5
176
     1
 40
0.0
176
     1
 90
        0
176
     1
290
     0
176
     1
290
     1
176
     1
290
     1
176
     1
290
     0
176
     1
290
     0
176
     1
290
     0
176
     1
290
     0
176
     1
290
     0
176
     1
290
     0
176
     1
 90
       50
176
     1
 40
0.0
176
     1
 40
1.0
176
     1
 90
        0
176
     1
 62
    18
420
        0
176
     1
 90
       50
176
     1
 90
        3
176
     1
 62
     5
420
      255
176
     1
290
     0
176
     1
 90
       50
176
     1
 90
       50
176
     1
 90
       50
176
     1
290
     0
176
     1
 90
       50
176
     1
 62
   256
176
     0
 40
1.0
176
     0
 90
        2
176
     1
  1
strokes_ogs.tif
176
     1
290
     0
176
     1
 40
1.0
176
     1
 40
1.0
176
     1
  0
VISUALSTYLE
  5
3D
102
{ACAD_REACTORS
330
29
102
}
330
29
100
AcDbVisualStyle
  2
Shaded with edges
 70
    26
177
     3
291
     0
 70
    58
 90
        2
176
     1
 90
        2
176
     1
 90
        1
176
     1
 90
        2
176
     1
 40
0.6
176
     1
 40
30.0
176
     1
 62
     7
420
 16777215
176
     1
 90
        1
176
     1
 90
        2
176
     1
 62
     7
176
     1
 62
   257
176
     1
 90
        2
176
     1
 90
        1
176
     1
 40
1.0
176
     1
 90
        8
176
     1
 62
   257
176
     1
 40
1.0
176
     1
 90
        1
176
     1
 90
        6
176
     1
 90
        2
176
     1
 62
     7
176
     1
 90
        3
176
     1
 90
        0
176
     1
 90
        0
176
     1
290
     0
176
     1
 90
        5
176
     1
 40
0.0
176
     1
 90
        0
176
     1
290
     0
176
     1
290
     1
176
     1
290
     1
176
     1
290
     0
176
     1
290
     0
176
     1
290
     0
176
     1
290
     0
176
     1
290
     0
176
     1
290
     0
176
     1
 90
       50
176
     1
 40
0.0
176
     1
 40
1.0
176
     1
 90
        0
176
     1
 62
    18
420
        0
176
     1
 90
       50
176
     1
 90
        3
176
     1
 62
     5
420
      255
176
     1
290
     0
176
     1
 90
       50
176
     1
 90
       50
176
     1
 90
       50
176
     1
290
     0
176
     1
 90
       50
176
     1
 62
   256
176
     0
 40
1.0
176
     0
 90
        2
176
     1
  1
strokes_ogs.tif
176
     1
290
     0
176
     1
 40
1.0
176
     1
 40
1.0
176
     1
  0
VISUALSTYLE
  5
3A
102
{ACAD_REACTORS
330
29
102
}
330
29
100
AcDbVisualStyle
  2
Shades of Gray
 70
    23
177
     3
291
     0
 70
    58
 90
        2
176
     1
 90
        2
176
     1
 90
        3
176
     1
 90
        0
176
     1
 40
0.6
176
     1
 40
30.0
176
     1
 62
     7
420
 16777215
176
     1
 90
        2
176
     1
 90
        2
176
     1
 62
     7
176
     1
 62
     7
176
     1
 90
        1
176
     1
 90
        1
176
     1
 40
40.0
176
     1
 90
        8
176
     1
 62
     7
176
     1
 40
1.0
176
     1
 90
        1
176
     1
 90
        6
176
     1
 90
        2
176
     1
 62
     7
176
     1
 90
        3
176
     1
 90
        0
176
     1
 90
        0
176
     1
290
     0
176
     1
 90
        1
176
     1
 40
0.0
176
     1
 90
        0
176
     1
290
     0
176
     1
290
     1
176
     1
290
     1
176
     1
290
     0
176
     1
290
     0
176
     1
290
     0
176
     1
290
     0
176
     1
290
     0
176
     1
290
     0
176
     1
 90
       50
176
     1
 40
0.0
176
     1
 40
1.0
176
     1
 90
        0
176
     1
 62
    18
420
        0
176
     1
 90
       50
176
     1
 90
        3
176
     1
 62
     5
420
      255
176
     1
290
     0
176
     1
 90
       50
176
     1
 90
       50
176
     1
 90
       50
176
     1
290
     0
176
     1
 90
       50
176
     1
 62
   256
176
     0
 40
1.0
176
     0
 90
        2
176
     1
  1
strokes_ogs.tif
176
     1
290
     0
176
     1
 40
1.0
176
     1
 40
1.0
176
     1
  0
VISUALSTYLE
  5
3B
102
{ACAD_REACTORS
330
29
102
}
330
29
100
AcDbVisualStyle
  2
Sketchy
 70
    24
177
     3
291
     0
 70
    58
 90
        1
176
     1
 90
        2
176
     1
 90
        2
176
     1
 90
        0
176
     1
 40
0.6
176
     1
 40
30.0
176
     1
 62
     7
420
 16777215
176
     1
 90
        2
176
     1
 90
        2
176
     1
 62
     7
176
     1
 62
     7
176
     1
 90
        1
176
     1
 90
        1
176
     1
 40
40.0
176
     1
 90
       11
176
     1
 62
     7
176
     1
 40
1.0
176
     1
 90
        1
176
     1
 90
        6
176
     1
 90
        2
176
     1
 62
     7
176
     1
 90
        6
176
     1
 90
        0
176
     1
 90
        0
176
     1
290
     0
176
     1
 90
        1
176
     1
 40
0.0
176
     1
 90
        0
176
     1
290
     0
176
     1
290
     1
176
     1
290
     1
176
     1
290
     0
176
     1
290
     0
176
     1
290
     0
176
     1
290
     0
176
     1
290
     0
176
     1
290
     0
176
     1
 90
       50
176
     1
 40
0.0
176
     1
 40
1.0
176
     1
 90
        0
176
     1
 62
    18
420
        0
176
     1
 90
       50
176
     1
 90
        3
176
     1
 62
     5
420
      255
176
     1
290
     0
176
     1
 90
       50
176
     1
 90
       50
176
     1
 90
       50
176
     1
290
     0
176
     1
 90
       50
176
     1
 62
   256
176
     0
 40
1.0
176
     0
 90
        2
176
     1
  1
strokes_ogs.tif
176
     1
290
     0
176
     1
 40
1.0
176
     1
 40
1.0
176
     1
  0
VISUALSTYLE
  5
36
102
{ACAD_REACTORS
330
29
102
}
330
29
100
AcDbVisualStyle
  2
Thicken
 70
    13
177
     3
291
     1
 70
    58
 90
        2
176
     1
 90
        2
176
     1
 90
        0
176
     1
 90
        0
176
     1
 40
0.6
176
     1
 40
30.0
176
     1
 62
     7
420
 16777215
176
     1
 90
        1
176
     1
 90
        4
176
     1
 62
     7
176
     1
 62
   257
176
     1
 90
        1
176
     1
 90
        1
176
     1
 40
1.0
176
     1
 90
       12
176
     1
 62
     7
176
     1
 40
1.0
176
     1
 90
        1
176
     1
 90
        6
176
     1
 90
        2
176
     1
 62
     7
176
     1
 90
        5
176
     1
 90
        0
176
     1
 90
        0
176
     1
290
     0
176
     1
 90
        1
176
     1
 40
0.0
176
     1
 90
        0
176
     1
290
     0
176
     1
290
     1
176
     1
290
     1
176
     1
290
     0
176
     1
290
     0
176
     1
290
     0
176
     1
290
     0
176
     1
290
     0
176
     1
290
     0
176
     1
 90
       50
176
     1
 40
0.0
176
     1
 40
1.0
176
     1
 90
        0
176
     1
 62
    18
420
        0
176
     1
 90
       50
176
     1
 90
        3
176
     1
 62
     5
420
      255
176
     1
290
     0
176
     1
 90
       50
176
     1
 90
       50
176
     1
 90
       50
176
     1
290
     0
176
     1
 90
       50
176
     1
 62
   256
176
     0
 40
1.0
176
     0
 90
        2
176
     1
  1
strokes_ogs.tif
176
     1
290
     0
176
     1
 40
1.0
176
     1
 40
1.0
176
     1
  0
VISUALSTYLE
  5
30
102
{ACAD_REACTORS
330
29
102
}
330
29
100
AcDbVisualStyle
  2
Wireframe
 70
     5
177
     3
291
     0
 70
    58
 90
        0
176
     1
 90
        2
176
     1
 90
        0
176
     1
 90
        0
176
     1
 40
0.6
176
     1
 40
30.0
176
     1
 62
     7
420
 16777215
176
     1
 90
        1
176
     1
 90
        4
176
     1
 62
     7
176
     1
 62
   257
176
     1
 90
        1
176
     1
 90
        1
176
     1
 40
1.0
176
     1
 90
        0
176
     1
 62
   257
176
     1
 40
1.0
176
     1
 90
        1
176
     1
 90
        6
176
     1
 90
        2
176
     1
 62
     7
176
     1
 90
        3
176
     1
 90
        0
176
     1
 90
        0
176
     1
290
     0
176
     1
 90
        1
176
     1
 40
0.0
176
     1
 90
        0
176
     1
290
     0
176
     1
290
     1
176
     1
290
     1
176
     1
290
     0
176
     1
290
     0
176
     1
290
     0
176
     1
290
     0
176
     1
290
     0
176
     1
290
     0
176
     1
 90
       50
176
     1
 40
0.0
176
     1
 40
1.0
176
     1
 90
        0
176
     1
 62
    18
420
        0
176
     1
 90
       50
176
     1
 90
        3
176
     1
 62
     5
420
      255
176
     1
290
     0
176
     1
 90
       50
176
     1
 90
       50
176
     1
 90
       50
176
     1
290
     0
176
     1
 90
       50
176
     1
 62
   256
176
     0
 40
1.0
176
     0
 90
        2
176
     1
  1
strokes_ogs.tif
176
     1
290
     0
176
     1
 40
1.0
176
     1
 40
1.0
176
     1
  0
VISUALSTYLE
  5
3C
102
{ACAD_REACTORS
330
29
102
}
330
29
100
AcDbVisualStyle
  2
X-Ray
 70
    25
177
     3
291
     0
 70
    58
 90
        2
176
     1
 90
        2
176
     1
 90
        1
176
     1
 90
        1
176
     1
 40
0.5
176
     1
 40
30.0
176
     1
 62
     7
420
 16777215
176
     1
 90
        1
176
     1
 90
        0
176
     1
 62
     7
176
     1
 62
   257
176
     1
 90
        1
176
     1
 90
        1
176
     1
 40
1.0
176
     1
 90
        8
176
     1
 62
     7
176
     1
 40
1.0
176
     1
 90
        1
176
     1
 90
        6
176
     1
 90
        2
176
     1
 62
     7
176
     1
 90
        3
176
     1
 90
        0
176
     1
 90
        0
176
     1
290
     0
176
     1
 90
       13
176
     1
 40
0.0
176
     1
 90
        0
176
     1
290
     0
176
     1
290
     1
176
     1
290
     1
176
     1
290
     0
176
     1
290
     0
176
     1
290
     0
176
     1
290
     0
176
     1
290
     0
176
     1
290
     0
176
     1
 90
       50
176
     1
 40
0.0
176
     1
 40
1.0
176
     1
 90
        0
176
     1
 62
    18
420
        0
176
     1
 90
       50
176
     1
 90
        3
176
     1
 62
     5
420
      255
176
     1
290
     0
176
     1
 90
       50
176
     1
 90
       50
176
     1
 90
       50
176
     1
290
     0
176
     1
 90
       50
176
     1
 62
   256
176
     0
 40
1.0
176
     0
 90
        2
176
     1
  1
strokes_ogs.tif
176
     1
290
     0
176
     1
 40
1.0
176
     1
 40
1.0
176
     1
  0
DICTIONARYVAR
  5
A7
102
{ACAD_REACTORS
330
A2
102
}
330
A2
100
DictionaryVariables
280
     0
  1
1:1
  0
DICTIONARYVAR
  5
A4
102
{ACAD_REACTORS
330
A2
102
}
330
A2
100
DictionaryVariables
280
     0
  1
STANDARD
  0
DICTIONARYVAR
  5
A3
102
{ACAD_REACTORS
330
A2
102
}
330
A2
100
DictionaryVariables
280
     0
  1
STANDARD
  0
DICTIONARYVAR
  5
A5
102
{ACAD_REACTORS
330
A2
102
}
330
A2
100
DictionaryVariables
280
     0
  1
Imperial24
  0
DICTIONARYVAR
  5
A6
102
{ACAD_REACTORS
330
A2
102
}
330
A2
100
DictionaryVariables
280
     0
  1
Imperial24
  0
DICTIONARY
  5
1A
330
19
100
AcDbDictionary
280
     1
281
     1
  3
BUMPTILE
360
1C
  3
DIFFUSETILE
360
1B
  3
OPACITYTILE
360
1F
  3
REFLECTIONTILE
360
1E
  3
REFRACTIONTILE
360
20
  3
SPECULARTILE
360
1D
  0
DICTIONARY
  5
12
330
11
100
AcDbDictionary
280
     1
281
     1
  3
BUMPTILE
360
14
  3
DIFFUSETILE
360
13
  3
OPACITYTILE
360
17
  3
REFLECTIONTILE
360
16
  3
REFRACTIONTILE
360
18
  3
SPECULARTILE
360
15
  0
DICTIONARY
  5
22
330
21
100
AcDbDictionary
280
     1
281
     1
  3
BUMPTILE
360
24
  3
DIFFUSETILE
360
23
  3
OPACITYTILE
360
27
  3
REFLECTIONTILE
360
26
  3
REFRACTIONTILE
360
28
  3
SPECULARTILE
360
25
  0
DICTIONARY
  5
A8
330
65
100
AcDbDictionary
280
     1
281
     1
  3
ACAD_ROUNDTRIP_2008_TABLESTYLE_CELLSTYLEMAP
360
A9
  0
XRECORD
  5
1C
102
{ACAD_REACTORS
330
1A
102
}
330
1A
100
AcDbXrecord
280
     1
270
     1
271
     1
  0
XRECORD
  5
1B
102
{ACAD_REACTORS
330
1A
102
}
330
1A
100
AcDbXrecord
280
     1
270
     1
271
     1
  0
XRECORD
  5
1F
102
{ACAD_REACTORS
330
1A
102
}
330
1A
100
AcDbXrecord
280
     1
270
     1
271
     1
  0
XRECORD
  5
1E
102
{ACAD_REACTORS
330
1A
102
}
330
1A
100
AcDbXrecord
280
     1
270
     1
271
     1
  0
XRECORD
  5
20
102
{ACAD_REACTORS
330
1A
102
}
330
1A
100
AcDbXrecord
280
     1
270
     1
271
     1
  0
XRECORD
  5
1D
102
{ACAD_REACTORS
330
1A
102
}
330
1A
100
AcDbXrecord
280
     1
270
     1
271
     1
  0
XRECORD
  5
14
102
{ACAD_REACTORS
330
12
102
}
330
12
100
AcDbXrecord
280
     1
270
     1
271
     1
  0
XRECORD
  5
13
102
{ACAD_REACTORS
330
12
102
}
330
12
100
AcDbXrecord
280
     1
270
     1
271
     1
  0
XRECORD
  5
17
102
{ACAD_REACTORS
330
12
102
}
330
12
100
AcDbXrecord
280
     1
270
     1
271
     1
  0
XRECORD
  5
16
102
{ACAD_REACTORS
330
12
102
}
330
12
100
AcDbXrecord
280
     1
270
     1
271
     1
  0
XRECORD
  5
18
102
{ACAD_REACTORS
330
12
102
}
330
12
100
AcDbXrecord
280
     1
270
     1
271
     1
  0
XRECORD
  5
15
102
{ACAD_REACTORS
330
12
102
}
330
12
100
AcDbXrecord
280
     1
270
     1
271
     1
  0
XRECORD
  5
24
102
{ACAD_REACTORS
330
22
102
}
330
22
100
AcDbXrecord
280
     1
270
     1
271
     1
  0
XRECORD
  5
23
102
{ACAD_REACTORS
330
22
102
}
330
22
100
AcDbXrecord
280
     1
270
     1
271
     1
  0
XRECORD
  5
27
102
{ACAD_REACTORS
330
22
102
}
330
22
100
AcDbXrecord
280
     1
270
     1
271
     1
  0
XRECORD
  5
26
102
{ACAD_REACTORS
330
22
102
}
330
22
100
AcDbXrecord
280
     1
270
     1
271
     1
  0
XRECORD
  5
28
102
{ACAD_REACTORS
330
22
102
}
330
22
100
AcDbXrecord
280
     1
270
     1
271
     1
  0
XRECORD
  5
25
102
{ACAD_REACTORS
330
22
102
}
330
22
100
AcDbXrecord
280
     1
270
     1
271
     1
  0
CELLSTYLEMAP
  5
A9
102
{ACAD_REACTORS
330
A8
102
}
330
A8
100
AcDbCellStyleMap
 90
        3
300
CELLSTYLE
  1
TABLEFORMAT_BEGIN
 90
        5
170
     1
 91
        0
 92
    32768
 62
   257
 93
        1
300
CONTENTFORMAT
  1
CONTENTFORMAT_BEGIN
 90
        0
 91
        0
 92
      512
 93
        0
300

 40
0.0
140
1.0
 94
        5
 62
     0
340
55
144
0.25
309
CONTENTFORMAT_END
171
     0
 94
        0
309
TABLEFORMAT_END
  1
CELLSTYLE_BEGIN
 90
        1
 91
        1
300
_TITLE
309
CELLSTYLE_END
300
CELLSTYLE
  1
TABLEFORMAT_BEGIN
 90
        5
170
     1
 91
        0
 92
        0
 62
   257
 93
        1
300
CONTENTFORMAT
  1
CONTENTFORMAT_BEGIN
 90
        0
 91
        0
 92
      512
 93
        0
300

 40
0.0
140
1.0
 94
        5
 62
     0
340
55
144
0.18
309
CONTENTFORMAT_END
171
     0
 94
        0
309
TABLEFORMAT_END
  1
CELLSTYLE_BEGIN
 90
        2
 91
        1
300
_HEADER
309
CELLSTYLE_END
300
CELLSTYLE
  1
TABLEFORMAT_BEGIN
 90
        5
170
     1
 91
        0
 92
        0
 62
   257
 93
        1
300
CONTENTFORMAT
  1
CONTENTFORMAT_BEGIN
 90
        0
 91
        0
 92
      512
 93
        0
300

 40
0.0
140
1.0
 94
        2
 62
     0
340
55
144
0.18
309
CONTENTFORMAT_END
171
     0
 94
        0
309
TABLEFORMAT_END
  1
CELLSTYLE_BEGIN
 90
        3
 91
        2
300
_DATA
309
CELLSTYLE_END
  0
ENDSEC
  0
EOF
