  0
SECTION
  2
HEADER
  9
$ACADVER
  1
AC1032
  9
$ACADMAINTVER
 90
      141
  9
$DWGCODEPAGE
  3
ANSI_1252
  9
$REQUIREDVERSIONS
160
                 0
  9
$INSBASE
 10
0.0
 20
0.0
 30
0.0
  9
$EXTMIN
 10
1.000000000000000E+20
 20
1.000000000000000E+20
 30
1.000000000000000E+20
  9
$EXTMAX
 10
-1.000000000000000E+20
 20
-1.000000000000000E+20
 30
-1.000000000000000E+20
  9
$LIMMIN
 10
0.0
 20
0.0
  9
$LIMMAX
 10
12.0
 20
9.0
  9
$ORTHOMODE
 70
     0
  9
$REGENMODE
 70
     1
  9
$FILLMODE
 70
     1
  9
$QTEXTMODE
 70
     0
  9
$MIRRTEXT
 70
     0
  9
$LTSCALE
 40
1.0
  9
$ATTMODE
 70
     1
  9
$TEXTSIZE
 40
0.2
  9
$TRACEWID
 40
0.05
  9
$TEXTSTYLE
  7
Standard
  9
$CLAYER
  8
0
  9
$CELTYPE
  6
ByLayer
  9
$CECOLOR
 62
   256
  9
$CELTSCALE
 40
1.0
  9
$DISPSILH
 70
     0
  9
$DIMSCALE
 40
1.0
  9
$DIMASZ
 40
0.18
  9
$DIMEXO
 40
0.0625
  9
$DIMDLI
 40
0.38
  9
$DIMRND
 40
0.0
  9
$DIMDLE
 40
0.0
  9
$DIMEXE
 40
0.18
  9
$DIMTP
 40
0.0
  9
$DIMTM
 40
0.0
  9
$DIMTXT
 40
0.18
  9
$DIMCEN
 40
0.09
  9
$DIMTSZ
 40
0.0
  9
$DIMTOL
 70
     0
  9
$DIMLIM
 70
     0
  9
$DIMTIH
 70
     1
  9
$DIMTOH
 70
     1
  9
$DIMSE1
 70
     0
  9
$DIMSE2
 70
     0
  9
$DIMTAD
 70
     0
  9
$DIMZIN
 70
     0
  9
$DIMBLK
  1

  9
$DIMASO
 70
     1
  9
$DIMSHO
 70
     1
  9
$DIMPOST
  1

  9
$DIMAPOST
  1

  9
$DIMALT
 70
     0
  9
$DIMALTD
 70
     2
  9
$DIMALTF
 40
25.4
  9
$DIMLFAC
 40
1.0
  9
$DIMTOFL
 70
     0
  9
$DIMTVP
 40
0.0
  9
$DIMTIX
 70
     0
  9
$DIMSOXD
 70
     0
  9
$DIMSAH
 70
     0
  9
$DIMBLK1
  1

  9
$DIMBLK2
  1

  9
$DIMSTYLE
  2
Standard
  9
$DIMCLRD
 70
     0
  9
$DIMCLRE
 70
     0
  9
$DIMCLRT
 70
     0
  9
$DIMTFAC
 40
1.0
  9
$DIMGAP
 40
0.09
  9
$DIMJUST
 70
     0
  9
$DIMSD1
 70
     0
  9
$DIMSD2
 70
     0
  9
$DIMTOLJ
 70
     1
  9
$DIMTZIN
 70
     0
  9
$DIMALTZ
 70
     0
  9
$DIMALTTZ
 70
     0
  9
$DIMUPT
 70
     0
  9
$DIMDEC
 70
     4
  9
$DIMTDEC
 70
     4
  9
$DIMALTU
 70
     2
  9
$DIMALTTD
 70
     2
  9
$DIMTXSTY
  7
Standard
  9
$DIMAUNIT
 70
     0
  9
$DIMADEC
 70
     0
  9
$DIMALTRND
 40
0.0
  9
$DIMAZIN
 70
     0
  9
$DIMDSEP
 70
    46
  9
$DIMATFIT
 70
     3
  9
$DIMFRAC
 70
     0
  9
$DIMLDRBLK
  1

  9
$DIMLUNIT
 70
     2
  9
$DIMLWD
 70
    -2
  9
$DIMLWE
 70
    -2
  9
$DIMTMOVE
 70
     0
  9
$DIMFXL
 40
1.0
  9
$DIMFXLON
 70
     0
  9
$DIMJOGANG
 40
0.7853981633974483
  9
$DIMTFILL
 70
     0
  9
$DIMTFILLCLR
 70
     0
  9
$DIMARCSYM
 70
     0
  9
$DIMLTYPE
  6

  9
$DIMLTEX1
  6

  9
$DIMLTEX2
  6

  9
$DIMTXTDIRECTION
 70
     0
  9
$LUNITS
 70
     2
  9
$LUPREC
 70
     4
  9
$SKETCHINC
 40
0.1
  9
$FILLETRAD
 40
0.0
  9
$AUNITS
 70
     0
  9
$AUPREC
 70
     0
  9
$MENU
  1
.
  9
$ELEVATION
 40
0.0
  9
$PELEVATION
 40
0.0
  9
$THICKNESS
 40
0.0
  9
$LIMCHECK
 70
     0
  9
$CHAMFERA
 40
0.0
  9
$CHAMFERB
 40
0.0
  9
$CHAMFERC
 40
0.0
  9
$CHAMFERD
 40
0.0
  9
$SKPOLY
 70
     0
  9
$TDCREATE
 40
2460089.837986111
  9
$TDUCREATE
 40
2460089.754652778
  9
$TDUPDATE
 40
2460089.837986111
  9
$TDUUPDATE
 40
2460089.754652778
  9
$TDINDWG
 40
0.0000000000
  9
$TDUSRTIMER
 40
0.0000000000
  9
$USRTIMER
 70
     1
  9
$ANGBASE
 50
0.0
  9
$ANGDIR
 70
     0
  9
$PDMODE
 70
     0
  9
$PDSIZE
 40
0.0
  9
$PLINEWID
 40
0.0
  9
$SPLFRAME
 70
     0
  9
$SPLINETYPE
 70
     6
  9
$SPLINESEGS
 70
     8
  9
$HANDSEED
  5
A3
  9
$SURFTAB1
 70
     6
  9
$SURFTAB2
 70
     6
  9
$SURFTYPE
 70
     6
  9
$SURFU
 70
     6
  9
$SURFV
 70
     6
  9
$UCSBASE
  2

  9
$UCSNAME
  2

  9
$UCSORG
 10
0.0
 20
0.0
 30
0.0
  9
$UCSXDIR
 10
1.0
 20
0.0
 30
0.0
  9
$UCSYDIR
 10
0.0
 20
1.0
 30
0.0
  9
$UCSORTHOREF
  2

  9
$UCSORTHOVIEW
 70
     0
  9
$UCSORGTOP
 10
0.0
 20
0.0
 30
0.0
  9
$UCSORGBOTTOM
 10
0.0
 20
0.0
 30
0.0
  9
$UCSORGLEFT
 10
0.0
 20
0.0
 30
0.0
  9
$UCSORGRIGHT
 10
0.0
 20
0.0
 30
0.0
  9
$UCSORGFRONT
 10
0.0
 20
0.0
 30
0.0
  9
$UCSORGBACK
 10
0.0
 20
0.0
 30
0.0
  9
$PUCSBASE
  2

  9
$PUCSNAME
  2

  9
$PUCSORG
 10
0.0
 20
0.0
 30
0.0
  9
$PUCSXDIR
 10
1.0
 20
0.0
 30
0.0
  9
$PUCSYDIR
 10
0.0
 20
1.0
 30
0.0
  9
$PUCSORTHOREF
  2

  9
$PUCSORTHOVIEW
 70
     0
  9
$PUCSORGTOP
 10
0.0
 20
0.0
 30
0.0
  9
$PUCSORGBOTTOM
 10
0.0
 20
0.0
 30
0.0
  9
$PUCSORGLEFT
 10
0.0
 20
0.0
 30
0.0
  9
$PUCSORGRIGHT
 10
0.0
 20
0.0
 30
0.0
  9
$PUCSORGFRONT
 10
0.0
 20
0.0
 30
0.0
  9
$PUCSORGBACK
 10
0.0
 20
0.0
 30
0.0
  9
$USERI1
 70
     0
  9
$USERI2
 70
     0
  9
$USERI3
 70
     0
  9
$USERI4
 70
     0
  9
$USERI5
 70
     0
  9
$USERR1
 40
0.0
  9
$USERR2
 40
0.0
  9
$USERR3
 40
0.0
  9
$USERR4
 40
0.0
  9
$USERR5
 40
0.0
  9
$WORLDVIEW
 70
     1
  9
$SHADEDGE
 70
     3
  9
$SHADEDIF
 70
    70
  9
$TILEMODE
 70
     1
  9
$MAXACTVP
 70
    64
  9
$PINSBASE
 10
0.0
 20
0.0
 30
0.0
  9
$PLIMCHECK
 70
     0
  9
$PEXTMIN
 10
1.000000000000000E+20
 20
1.000000000000000E+20
 30
1.000000000000000E+20
  9
$PEXTMAX
 10
-1.000000000000000E+20
 20
-1.000000000000000E+20
 30
-1.000000000000000E+20
  9
$PLIMMIN
 10
0.0
 20
0.0
  9
$PLIMMAX
 10
12.0
 20
9.0
  9
$UNITMODE
 70
     0
  9
$VISRETAIN
 70
     1
  9
$PLINEGEN
 70
     0
  9
$PSLTSCALE
 70
     1
  9
$TREEDEPTH
 70
  3020
  9
$CMLSTYLE
  2
Standard
  9
$CMLJUST
 70
     0
  9
$CMLSCALE
 40
1.0
  9
$PROXYGRAPHICS
 70
     1
  9
$MEASUREMENT
 70
     0
  9
$CELWEIGHT
370
    -1
  9
$ENDCAPS
280
     0
  9
$JOINSTYLE
280
     0
  9
$LWDISPLAY
290
     1
  9
$INSUNITS
 70
     4
  9
$HYPERLINKBASE
  1

  9
$STYLESHEET
  1

  9
$XEDIT
290
     1
  9
$CEPSNTYPE
380
     0
  9
$PSTYLEMODE
290
     1
  9
$FINGERPRINTGUID
  2
{B2A3AA06-57C8-D541-B559-D8D1FD167022}
  9
$VERSIONGUID
  2
{429CAF08-6E3A-A544-B42B-C5F659D4ABDA}
  9
$EXTNAMES
290
     1
  9
$PSVPSCALE
 40
0.0
  9
$OLESTARTUP
290
     0
  9
$SORTENTS
280
   127
  9
$INDEXCTL
280
     0
  9
$HIDETEXT
280
     1
  9
$XCLIPFRAME
280
     2
  9
$HALOGAP
280
     0
  9
$OBSCOLOR
 70
   257
  9
$OBSLTYPE
280
     0
  9
$INTERSECTIONDISPLAY
280
     0
  9
$INTERSECTIONCOLOR
 70
   257
  9
$DIMASSOC
280
     2
  9
$PROJECTNAME
  1

  9
$CAMERADISPLAY
290
     0
  9
$LENSLENGTH
 40
50.0
  9
$CAMERAHEIGHT
 40
0.0
  9
$STEPSPERSEC
 40
2.0
  9
$STEPSIZE
 40
6.0
  9
$3DDWFPREC
 40
2.0
  9
$PSOLWIDTH
 40
0.25
  9
$PSOLHEIGHT
 40
4.0
  9
$LOFTANG1
 40
1.570796326794896
  9
$LOFTANG2
 40
1.570796326794896
  9
$LOFTMAG1
 40
0.0
  9
$LOFTMAG2
 40
0.0
  9
$LOFTPARAM
 70
     7
  9
$LOFTNORMALS
280
     1
  9
$LATITUDE
 40
37.795
  9
$LONGITUDE
 40
-122.394
  9
$NORTHDIRECTION
 40
0.0
  9
$TIMEZONE
 70
 -8000
  9
$LIGHTGLYPHDISPLAY
280
     1
  9
$TILEMODELIGHTSYNCH
280
     1
  9
$CMATERIAL
347
11
  9
$SOLIDHIST
280
     0
  9
$SHOWHIST
280
     1
  9
$DWFFRAME
280
     2
  9
$DGNFRAME
280
     0
  9
$REALWORLDSCALE
290
     1
  9
$INTERFERECOLOR
 62
     1
  9
$INTERFEREOBJVS
345
33
  9
$INTERFEREVPVS
346
30
  9
$CSHADOW
280
     0
  9
$SHADOWPLANELOCATION
 40
0.0
  0
ENDSEC
  0
SECTION
  2
CLASSES
  0
CLASS
  1
ACDBDICTIONARYWDFLT
  2
AcDbDictionaryWithDefault
  3
ObjectDBX Classes
 90
        0
 91
        1
280
     0
281
     0
  0
CLASS
  1
MATERIAL
  2
AcDbMaterial
  3
ObjectDBX Classes
 90
     1153
 91
        3
280
     0
281
     0
  0
CLASS
  1
VISUALSTYLE
  2
AcDbVisualStyle
  3
ObjectDBX Classes
 90
     4095
 91
       24
280
     0
281
     0
  0
CLASS
  1
SCALE
  2
AcDbScale
  3
ObjectDBX Classes
 90
     1153
 91
       17
280
     0
281
     0
  0
CLASS
  1
TABLESTYLE
  2
AcDbTableStyle
  3
ObjectDBX Classes
 90
     4095
 91
        1
280
     0
281
     0
  0
CLASS
  1
MLEADERSTYLE
  2
AcDbMLeaderStyle
  3
ACDB_MLEADERSTYLE_CLASS
 90
     4095
 91
        1
280
     0
281
     0
  0
CLASS
  1
ACDBSECTIONVIEWSTYLE
  2
AcDbSectionViewStyle
  3
ObjectDBX Classes
 90
     1025
 91
        1
280
     0
281
     0
  0
CLASS
  1
ACDBDETAILVIEWSTYLE
  2
AcDbDetailViewStyle
  3
ObjectDBX Classes
 90
     1025
 91
        1
280
     0
281
     0
  0
CLASS
  1
DICTIONARYVAR
  2
AcDbDictionaryVar
  3
ObjectDBX Classes
 90
        0
 91
        5
280
     0
281
     0
  0
CLASS
  1
CELLSTYLEMAP
  2
AcDbCellStyleMap
  3
ObjectDBX Classes
 90
     1152
 91
        1
280
     0
281
     0
  0
ENDSEC
  0
SECTION
  2
TABLES
  0
TABLE
  2
VPORT
  5
8
330
0
100
AcDbSymbolTable
 70
     1
  0
VPORT
  5
57
330
8
100
AcDbSymbolTableRecord
100
AcDbViewportTableRecord
  2
*Active
 70
     0
 10
0.0
 20
0.0
 11
1.0
 21
1.0
 12
0.0
 22
0.0
 13
0.0
 23
0.0
 14
1.0
 24
1.0
 15
0.0
 25
0.0
 16
0.0
 26
0.0
 36
1.0
 17
625.1222220659417
 27
-625.1222220659417
 37
0.0
 40
1275.609166347764
 41
1.0
 42
50.0
 43
0.0
 44
0.0
 50
0.0
 51
0.0
 71
     0
 72
   100
 73
     1
 74
     1
 75
     0
 76
     0
 77
     0
 78
     0
281
     0
 65
     1
110
0.0
120
0.0
130
0.0
111
1.0
121
0.0
131
0.0
112
0.0
122
1.0
132
0.0
 79
     0
146
0.0
 60
     3
 61
     5
292
     1
282
     1
141
0.0
142
0.0
 63
   250
421
  3355443
  0
ENDTAB
  0
TABLE
  2
LTYPE
  5
5
330
0
100
AcDbSymbolTable
 70
     1
  0
LTYPE
  5
5B
330
5
100
AcDbSymbolTableRecord
100
AcDbLinetypeTableRecord
  2
ByBlock
 70
     0
  3

 72
    65
 73
     0
 40
0.0
  0
LTYPE
  5
5C
330
5
100
AcDbSymbolTableRecord
100
AcDbLinetypeTableRecord
  2
ByLayer
 70
     0
  3

 72
    65
 73
     0
 40
0.0
  0
LTYPE
  5
5D
330
5
100
AcDbSymbolTableRecord
100
AcDbLinetypeTableRecord
  2
Continuous
 70
     0
  3
Solid line
 72
    65
 73
     0
 40
0.0
  0
ENDTAB
  0
TABLE
  2
LAYER
  5
2
330
0
100
AcDbSymbolTable
 70
    11
  0
LAYER
  5
54
330
2
100
AcDbSymbolTableRecord
100
AcDbLayerTableRecord
  2
0
 70
     0
 62
     7
  6
Continuous
370
    -3
390
F
347
21
348
0
  0
LAYER
  5
78
330
2
100
AcDbSymbolTableRecord
100
AcDbLayerTableRecord
  2
Bounding Box (pattern cutoff)
 70
     5
 62
     7
  6
Continuous
370
     0
390
F
347
21
348
0
  0
LAYER
  5
79
330
2
100
AcDbSymbolTableRecord
100
AcDbLayerTableRecord
  2
Bounding Box
 70
     5
 62
     7
  6
Continuous
370
     0
390
F
347
21
348
0
  0
LAYER
  5
7A
330
2
100
AcDbSymbolTableRecord
100
AcDbLayerTableRecord
  2
Background
 70
     0
 62
     7
  6
Continuous
370
     0
390
F
347
21
348
0
  0
LAYER
  5
7D
330
2
100
AcDbSymbolTableRecord
100
AcDbLayerTableRecord
  2
Screws
 70
     0
 62
     7
  6
Continuous
370
     0
390
F
347
21
348
0
  0
LAYER
  5
86
330
2
100
AcDbSymbolTableRecord
100
AcDbLayerTableRecord
  2
2023-025
 70
     1
 62
     7
  6
Continuous
370
     0
390
F
347
21
348
0
  0
LAYER
  5
87
330
2
100
AcDbSymbolTableRecord
100
AcDbLayerTableRecord
  2
2023-026
 70
     1
 62
     7
  6
Continuous
370
     0
390
F
347
21
348
0
  0
LAYER
  5
88
330
2
100
AcDbSymbolTableRecord
100
AcDbLayerTableRecord
  2
2023-027
 70
     1
 62
     7
  6
Continuous
370
     0
390
F
347
21
348
0
  0
LAYER
  5
89
330
2
100
AcDbSymbolTableRecord
100
AcDbLayerTableRecord
  2
2023-028
 70
     1
 62
     7
  6
Continuous
370
     0
390
F
347
21
348
0
  0
LAYER
  5
8A
330
2
100
AcDbSymbolTableRecord
100
AcDbLayerTableRecord
  2
2023-029
 70
     1
 62
     7
  6
Continuous
370
     0
390
F
347
21
348
0
  0
LAYER
  5
8B
330
2
100
AcDbSymbolTableRecord
100
AcDbLayerTableRecord
  2
2023-030
 70
     0
 62
     7
  6
Continuous
370
     0
390
F
347
21
348
0
  0
ENDTAB
  0
TABLE
  2
STYLE
  5
3
330
0
100
AcDbSymbolTable
 70
     2
  0
STYLE
  5
55
330
3
100
AcDbSymbolTableRecord
100
AcDbTextStyleTableRecord
  2
Standard
 70
     0
 40
0.0
 41
1.0
 50
0.0
 71
     0
 42
0.2
  3
txt
  4

  0
STYLE
  5
5A
330
3
100
AcDbSymbolTableRecord
100
AcDbTextStyleTableRecord
  2
Annotative
 70
     0
 40
0.0
 41
1.0
 50
0.0
 71
     0
 42
0.2
  3
txt
  4

1001
AcadAnnotative
1000
AnnotativeData
1002
{
1070
     1
1070
     1
1002
}
  0
ENDTAB
  0
TABLE
  2
VIEW
  5
6
330
0
100
AcDbSymbolTable
 70
     0
  0
ENDTAB
  0
TABLE
  2
UCS
  5
7
330
0
100
AcDbSymbolTable
 70
     0
  0
ENDTAB
  0
TABLE
  2
APPID
  5
9
330
0
100
AcDbSymbolTable
 70
     2
  0
APPID
  5
56
330
9
100
AcDbSymbolTableRecord
100
AcDbRegAppTableRecord
  2
ACAD
 70
     0
  0
APPID
  5
5E
330
9
100
AcDbSymbolTableRecord
100
AcDbRegAppTableRecord
  2
AcadAnnotative
 70
     0
  0
ENDTAB
  0
TABLE
  2
DIMSTYLE
  5
A
330
0
100
AcDbSymbolTable
 70
     2
100
AcDbDimStyleTable
 71
     0
  0
DIMSTYLE
105
58
330
A
100
AcDbSymbolTableRecord
100
AcDbDimStyleTableRecord
  2
Standard
 70
     0
340
55
  0
DIMSTYLE
105
59
330
A
100
AcDbSymbolTableRecord
100
AcDbDimStyleTableRecord
  2
Annotative
 70
     0
340
55
1001
AcadAnnotative
1000
AnnotativeData
1002
{
1070
     1
1070
     1
1002
}
  0
ENDTAB
  0
TABLE
  2
BLOCK_RECORD
  5
1
330
0
100
AcDbSymbolTable
 70
     1
  0
BLOCK_RECORD
  5
70
330
1
100
AcDbSymbolTableRecord
100
AcDbBlockTableRecord
  2
*Model_Space
340
73
 70
     0
280
     1
281
     0
  0
BLOCK_RECORD
  5
6C
330
1
100
AcDbSymbolTableRecord
100
AcDbBlockTableRecord
  2
*Paper_Space
340
6F
 70
     0
280
     1
281
     0
  0
BLOCK_RECORD
  5
74
330
1
100
AcDbSymbolTableRecord
100
AcDbBlockTableRecord
  2
*Paper_Space0
340
77
 70
     0
280
     1
281
     0
  0
ENDTAB
  0
ENDSEC
  0
SECTION
  2
BLOCKS
  0
BLOCK
  5
71
330
70
100
AcDbEntity
  8
0
100
AcDbBlockBegin
  2
*Model_Space
 70
     0
 10
0.0
 20
0.0
 30
0.0
  3
*Model_Space
  1

  0
ENDBLK
  5
72
330
70
100
AcDbEntity
  8
0
100
AcDbBlockEnd
  0
BLOCK
  5
6D
330
6C
100
AcDbEntity
 67
     1
  8
0
100
AcDbBlockBegin
  2
*Paper_Space
 70
     0
 10
0.0
 20
0.0
 30
0.0
  3
*Paper_Space
  1

  0
ENDBLK
  5
6E
330
6C
100
AcDbEntity
 67
     1
  8
0
100
AcDbBlockEnd
  0
BLOCK
  5
75
330
74
100
AcDbEntity
 67
     1
  8
0
100
AcDbBlockBegin
  2
*Paper_Space0
 70
     0
 10
0.0
 20
0.0
 30
0.0
  3
*Paper_Space0
  1

  0
ENDBLK
  5
76
330
74
100
AcDbEntity
 67
     1
  8
0
100
AcDbBlockEnd
  0
ENDSEC
  0
SECTION
  2
ENTITIES
  0
LWPOLYLINE
  5
7B
330
70
100
AcDbEntity
  8
Background
 62
   233
420
 12799387
370
    35
100
AcDbPolyline
 90
        4
 70
     1
 43
0.0
 10
1250.244444131883
 20
-1250.244444131883
 10
0.0
 20
-1250.244444131883
 10
0.0
 20
0.0
 10
1250.244444131883
 20
0.0
  0
HATCH
  5
7C
330
70
100
AcDbEntity
  8
Background
 62
   230
420
 15401099
440
 33554687
100
AcDbHatch
 10
0.0
 20
0.0
 30
0.0
210
0.0
220
0.0
230
1.0
  2
SOLID
 70
     1
 71
     1
 91
        1
 92
        1
 93
        4
 72
     1
 10
1250.244444131883
 20
-1250.244444131883
 11
0.0
 21
-1250.244444131883
 72
     1
 10
0.0
 20
-1250.244444131883
 11
0.0
 21
0.0
 72
     1
 10
0.0
 20
0.0
 11
1250.244444131883
 21
0.0
 72
     1
 10
1250.244444131883
 20
0.0
 11
1250.244444131883
 21
-1250.244444131883
 97
        1
330
7B
 75
     2
 76
     1
 98
        1
 10
0.0
 20
0.0
450
        0
451
        0
460
0.0
461
0.0
452
        0
462
0.0
453
        0
470

  0
ELLIPSE
  5
7E
330
70
100
AcDbEntity
  8
Screws
100
AcDbEllipse
 10
1212.6745853038
 20
-37.51513670353807
 30
0.0
 11
2.557638888249479
 21
0.0
 31
0.0
210
0.0
220
0.0
230
1.0
 40
0.9655172413793103
 41
0.0
 42
6.283185307179586
  0
HATCH
  5
7F
330
70
100
AcDbEntity
  8
Screws
 62
    18
420
        0
440
 33554687
100
AcDbHatch
 10
0.0
 20
0.0
 30
0.0
210
0.0
220
0.0
230
1.0
  2
SOLID
 70
     1
 71
     1
 91
        1
 92
        1
 93
        1
 72
     3
 10
1212.6745853038
 20
-37.51513670353807
 11
2.557638888249479
 21
0.0
 40
0.9655172413793103
 50
0.0
 51
360.0
 73
     1
 97
        1
330
7E
 75
     2
 76
     1
 98
        1
 10
0.0
 20
0.0
450
        0
451
        0
460
0.0
461
0.0
452
        0
462
0.0
453
        0
470

  0
ELLIPSE
  5
80
330
70
100
AcDbEntity
  8
Screws
100
AcDbEllipse
 10
37.3219878356064
 20
-37.51513670353775
 30
0.0
 11
2.557638888249479
 21
0.0
 31
0.0
210
0.0
220
0.0
230
1.0
 40
0.9655172413793103
 41
0.0
 42
6.283185307179586
  0
HATCH
  5
81
330
70
100
AcDbEntity
  8
Screws
 62
    18
420
        0
440
 33554687
100
AcDbHatch
 10
0.0
 20
0.0
 30
0.0
210
0.0
220
0.0
230
1.0
  2
SOLID
 70
     1
 71
     1
 91
        1
 92
        1
 93
        1
 72
     3
 10
37.3219878356064
 20
-37.51513670353775
 11
2.557638888249479
 21
0.0
 40
0.9655172413793103
 50
0.0
 51
360.0
 73
     1
 97
        1
330
80
 75
     2
 76
     1
 98
        1
 10
0.0
 20
0.0
450
        0
451
        0
460
0.0
461
0.0
452
        0
462
0.0
453
        0
470

  0
ELLIPSE
  5
82
330
70
100
AcDbEntity
  8
Screws
100
AcDbEllipse
 10
37.33954805773364
 20
-1212.515764532182
 30
0.0
 11
2.557638888249479
 21
0.0
 31
0.0
210
0.0
220
0.0
230
1.0
 40
0.9655172413793103
 41
0.0
 42
6.283185307179586
  0
HATCH
  5
83
330
70
100
AcDbEntity
  8
Screws
 62
    18
420
        0
440
 33554687
100
AcDbHatch
 10
0.0
 20
0.0
 30
0.0
210
0.0
220
0.0
230
1.0
  2
SOLID
 70
     1
 71
     1
 91
        1
 92
        1
 93
        1
 72
     3
 10
37.33954805773364
 20
-1212.515764532182
 11
2.557638888249479
 21
0.0
 40
0.9655172413793103
 50
0.0
 51
360.0
 73
     1
 97
        1
330
82
 75
     2
 76
     1
 98
        1
 10
0.0
 20
0.0
450
        0
451
        0
460
0.0
461
0.0
452
        0
462
0.0
453
        0
470

  0
ELLIPSE
  5
84
330
70
100
AcDbEntity
  8
Screws
100
AcDbEllipse
 10
1212.643721369271
 20
-1212.474237178821
 30
0.0
 11
2.557638888249479
 21
0.0
 31
0.0
210
0.0
220
0.0
230
1.0
 40
0.9655172413793103
 41
0.0
 42
6.283185307179586
  0
HATCH
  5
85
330
70
100
AcDbEntity
  8
Screws
 62
    18
420
        0
440
 33554687
100
AcDbHatch
 10
0.0
 20
0.0
 30
0.0
210
0.0
220
0.0
230
1.0
  2
SOLID
 70
     1
 71
     1
 91
        1
 92
        1
 93
        1
 72
     3
 10
1212.643721369271
 20
-1212.474237178821
 11
2.557638888249479
 21
0.0
 40
0.9655172413793103
 50
0.0
 51
360.0
 73
     1
 97
        1
330
84
 75
     2
 76
     1
 98
        1
 10
0.0
 20
0.0
450
        0
451
        0
460
0.0
461
0.0
452
        0
462
0.0
453
        0
470

  0
SPLINE
  5
8C
330
70
100
AcDbEntity
  8
2023-030
100
AcDbSpline
210
0.0
220
0.0
230
1.0
 70
     9
 71
     3
 72
    71
 73
    67
 74
     0
 42
0.0000000001
 43
0.0000000001
 40
0.0
 40
0.0
 40
0.0
 40
0.0
 40
1.0
 40
1.0
 40
1.0
 40
2.0
 40
2.0
 40
2.0
 40
3.0
 40
3.0
 40
3.0
 40
4.0
 40
4.0
 40
4.0
 40
5.0
 40
5.0
 40
5.0
 40
6.0
 40
6.0
 40
6.0
 40
7.0
 40
7.0
 40
7.0
 40
8.0
 40
8.0
 40
8.0
 40
9.0
 40
9.0
 40
9.0
 40
10.0
 40
10.0
 40
10.0
 40
11.0
 40
11.0
 40
11.0
 40
12.0
 40
12.0
 40
12.0
 40
13.0
 40
13.0
 40
13.0
 40
14.0
 40
14.0
 40
14.0
 40
15.0
 40
15.0
 40
15.0
 40
16.0
 40
16.0
 40
16.0
 40
17.0
 40
17.0
 40
17.0
 40
18.0
 40
18.0
 40
18.0
 40
19.0
 40
19.0
 40
19.0
 40
20.0
 40
20.0
 40
20.0
 40
21.0
 40
21.0
 40
21.0
 40
22.0
 40
22.0
 40
22.0
 40
22.0
 10
1099.138335906858
 20
-944.3277165065396
 30
0.0
 10
1066.163001578077
 20
-958.2009437708665
 30
0.0
 10
1031.827629679109
 20
-967.8893274218751
 30
0.0
 10
996.6466590932864
 20
-974.2016036247241
 30
0.0
 10
957.8434289868866
 20
-981.1640554730249
 30
0.0
 10
919.0088485115673
 20
-988.1113489011946
 30
0.0
 10
879.987974497885
 20
-993.6596751801895
 30
0.0
 10
835.8358891410864
 20
-999.9371559186375
 30
0.0
 10
791.5553878500731
 20
-1005.667813876187
 30
0.0
 10
747.1578394399466
 20
-1009.761965350858
 30
0.0
 10
702.7439698899613
 20
-1013.857580991112
 30
0.0
 10
658.0704262677741
 20
-1015.053632016202
 30
0.0
 10
613.5937267888758
 20
-1018.571160634031
 30
0.0
 10
546.8789790163829
 20
-1023.847496624465
 30
0.0
 10
480.2116013068153
 20
-1029.770907674415
 30
0.0
 10
413.575875412016
 20
-1035.976127535062
 30
0.0
 10
386.4614236501314
 20
-1038.500951888812
 30
0.0
 10
359.4101463267047
 20
-1041.988852685468
 30
0.0
 10
332.4614467213551
 20
-1045.935381818596
 30
0.0
 10
302.042954602495
 20
-1050.389890281024
 30
0.0
 10
271.7736566499928
 20
-1055.86216607718
 30
0.0
 10
241.4370286126008
 20
-1060.877191575058
 30
0.0
 10
201.1263323810878
 20
-1067.541470409115
 30
0.0
 10
160.7091826990808
 20
-1073.6292986411
 30
0.0
 10
120.5421684811492
 20
-1081.068034940236
 30
0.0
 10
100.3840750549278
 20
-1084.801398790216
 30
0.0
 10
80.58573572475406
 20
-1090.542047524673
 30
0.0
 10
59.97222220722917
 20
-1090.765289712118
 30
0.0
 10
59.97222220722917
 20
-1090.765289712118
 30
0.0
 10
59.97222220722917
 20
-1137.048338881321
 30
0.0
 10
59.97222220722917
 20
-1137.048338881321
 30
0.0
 10
94.10185731018765
 20
-1136.977283786936
 30
0.0
 10
128.2190900693995
 20
-1135.652558445472
 30
0.0
 10
162.2470087281557
 20
-1130.235231922302
 30
0.0
 10
204.62809968707
 20
-1123.488012414441
 30
0.0
 10
247.5433957646658
 20
-1120.159964048304
 30
0.0
 10
290.1460494269752
 20
-1114.721450187899
 30
0.0
 10
330.1823653349349
 20
-1109.61073716292
 30
0.0
 10
370.0597977454833
 20
-1103.239119190336
 30
0.0
 10
410.1151908696934
 20
-1098.297904863231
 30
0.0
 10
450.8732112181203
 20
-1093.270477021606
 30
0.0
 10
491.6983678648131
 20
-1088.544322780166
 30
0.0
 10
532.6126232934962
 20
-1085.089839409717
 30
0.0
 10
578.2291756773822
 20
-1081.238481039371
 30
0.0
 10
623.9976137084747
 20
-1079.223014053111
 30
0.0
 10
669.6662731615766
 20
-1075.939751928282
 30
0.0
 10
716.0462156413009
 20
-1072.605502390269
 30
0.0
 10
762.4532882479736
 20
-1069.394415015856
 30
0.0
 10
808.7216957613613
 20
-1064.840257166515
 30
0.0
 10
851.0048168174156
 20
-1060.6781511834
 30
0.0
 10
893.2809615551105
 20
-1055.845457364076
 30
0.0
 10
935.258847151168
 20
-1049.358256437966
 30
0.0
 10
974.1479462625393
 20
-1043.348459618722
 30
0.0
 10
1012.684181468836
 20
-1034.98626547476
 30
0.0
 10
1051.290007603931
 20
-1027.23325033998
 30
0.0
 10
1085.865761040384
 20
-1020.289488134684
 30
0.0
 10
1119.126521530114
 20
-1009.121952737088
 30
0.0
 10
1150.959462195986
 20
-993.9266700802964
 30
0.0
 10
1163.952725945991
 20
-987.724378550812
 30
0.0
 10
1176.988622752628
 20
-981.5860796699681
 30
0.0
 10
1189.919444146964
 20
-975.2497739261114
 30
0.0
 10
1189.919444146964
 20
-975.2497739261114
 30
0.0
 10
1189.919444146964
 20
-904.9532895686855
 30
0.0
 10
1189.919444146964
 20
-904.9532895686855
 30
0.0
 10
1159.721373543622
 20
-918.2237112504788
 30
0.0
 10
1129.539322634282
 20
-931.5371104984524
 30
0.0
 10
1099.138335906858
 20
-944.3277165065396
 30
0.0
  0
HATCH
  5
8D
330
70
100
AcDbEntity
  8
2023-030
 62
    18
420
        0
440
 33554687
100
AcDbHatch
 10
0.0
 20
0.0
 30
0.0
210
0.0
220
0.0
230
1.0
  2
SOLID
 70
     1
 71
     1
 91
        1
 92
        1
 93
        1
 72
     4
 94
        3
 73
     0
 74
     0
 95
       71
 96
       67
 40
0.0
 40
0.0
 40
0.0
 40
0.0
 40
1.0
 40
1.0
 40
1.0
 40
2.0
 40
2.0
 40
2.0
 40
3.0
 40
3.0
 40
3.0
 40
4.0
 40
4.0
 40
4.0
 40
5.0
 40
5.0
 40
5.0
 40
6.0
 40
6.0
 40
6.0
 40
7.0
 40
7.0
 40
7.0
 40
8.0
 40
8.0
 40
8.0
 40
9.0
 40
9.0
 40
9.0
 40
10.0
 40
10.0
 40
10.0
 40
11.0
 40
11.0
 40
11.0
 40
12.0
 40
12.0
 40
12.0
 40
13.0
 40
13.0
 40
13.0
 40
14.0
 40
14.0
 40
14.0
 40
15.0
 40
15.0
 40
15.0
 40
16.0
 40
16.0
 40
16.0
 40
17.0
 40
17.0
 40
17.0
 40
18.0
 40
18.0
 40
18.0
 40
19.0
 40
19.0
 40
19.0
 40
20.0
 40
20.0
 40
20.0
 40
21.0
 40
21.0
 40
21.0
 40
22.0
 40
22.0
 40
22.0
 40
22.0
 10
1099.138335906858
 20
-944.3277165065396
 10
1066.163001578077
 20
-958.2009437708665
 10
1031.827629679109
 20
-967.8893274218751
 10
996.6466590932864
 20
-974.2016036247241
 10
957.8434289868866
 20
-981.1640554730249
 10
919.0088485115673
 20
-988.1113489011946
 10
879.987974497885
 20
-993.6596751801895
 10
835.8358891410864
 20
-999.9371559186375
 10
791.5553878500731
 20
-1005.667813876187
 10
747.1578394399466
 20
-1009.761965350858
 10
702.7439698899613
 20
-1013.857580991112
 10
658.0704262677741
 20
-1015.053632016202
 10
613.5937267888758
 20
-1018.571160634031
 10
546.8789790163829
 20
-1023.847496624465
 10
480.2116013068153
 20
-1029.770907674415
 10
413.575875412016
 20
-1035.976127535062
 10
386.4614236501314
 20
-1038.500951888812
 10
359.4101463267047
 20
-1041.988852685468
 10
332.4614467213551
 20
-1045.935381818596
 10
302.042954602495
 20
-1050.389890281024
 10
271.7736566499928
 20
-1055.86216607718
 10
241.4370286126008
 20
-1060.877191575058
 10
201.1263323810878
 20
-1067.541470409115
 10
160.7091826990808
 20
-1073.6292986411
 10
120.5421684811492
 20
-1081.068034940236
 10
100.3840750549278
 20
-1084.801398790216
 10
80.58573572475406
 20
-1090.542047524673
 10
59.97222220722917
 20
-1090.765289712118
 10
59.97222220722917
 20
-1090.765289712118
 10
59.97222220722917
 20
-1137.048338881321
 10
59.97222220722917
 20
-1137.048338881321
 10
94.10185731018765
 20
-1136.977283786936
 10
128.2190900693995
 20
-1135.652558445472
 10
162.2470087281557
 20
-1130.235231922302
 10
204.62809968707
 20
-1123.488012414441
 10
247.5433957646658
 20
-1120.159964048304
 10
290.1460494269752
 20
-1114.721450187899
 10
330.1823653349349
 20
-1109.61073716292
 10
370.0597977454833
 20
-1103.239119190336
 10
410.1151908696934
 20
-1098.297904863231
 10
450.8732112181203
 20
-1093.270477021606
 10
491.6983678648131
 20
-1088.544322780166
 10
532.6126232934962
 20
-1085.089839409717
 10
578.2291756773822
 20
-1081.238481039371
 10
623.9976137084747
 20
-1079.223014053111
 10
669.6662731615766
 20
-1075.939751928282
 10
716.0462156413009
 20
-1072.605502390269
 10
762.4532882479736
 20
-1069.394415015856
 10
808.7216957613613
 20
-1064.840257166515
 10
851.0048168174156
 20
-1060.6781511834
 10
893.2809615551105
 20
-1055.845457364076
 10
935.258847151168
 20
-1049.358256437966
 10
974.1479462625393
 20
-1043.348459618722
 10
1012.684181468836
 20
-1034.98626547476
 10
1051.290007603931
 20
-1027.23325033998
 10
1085.865761040384
 20
-1020.289488134684
 10
1119.126521530114
 20
-1009.121952737088
 10
1150.959462195986
 20
-993.9266700802964
 10
1163.952725945991
 20
-987.724378550812
 10
1176.988622752628
 20
-981.5860796699681
 10
1189.919444146964
 20
-975.2497739261114
 10
1189.919444146964
 20
-975.2497739261114
 10
1189.919444146964
 20
-904.9532895686855
 10
1189.919444146964
 20
-904.9532895686855
 10
1159.721373543622
 20
-918.2237112504788
 10
1129.539322634282
 20
-931.5371104984524
 10
1099.138335906858
 20
-944.3277165065396
 97
        0
 97
        1
330
8C
 75
     2
 76
     1
 98
        1
 10
0.0
 20
0.0
450
        0
451
        0
460
0.0
461
0.0
452
        0
462
0.0
453
        0
470

  0
SPLINE
  5
8E
330
70
100
AcDbEntity
  8
2023-030
100
AcDbSpline
210
0.0
220
0.0
230
1.0
 70
     9
 71
     3
 72
    77
 73
    73
 74
     0
 42
0.0000000001
 43
0.0000000001
 40
0.0
 40
0.0
 40
0.0
 40
0.0
 40
1.0
 40
1.0
 40
1.0
 40
2.0
 40
2.0
 40
2.0
 40
3.0
 40
3.0
 40
3.0
 40
4.0
 40
4.0
 40
4.0
 40
5.0
 40
5.0
 40
5.0
 40
6.0
 40
6.0
 40
6.0
 40
7.0
 40
7.0
 40
7.0
 40
8.0
 40
8.0
 40
8.0
 40
9.0
 40
9.0
 40
9.0
 40
10.0
 40
10.0
 40
10.0
 40
11.0
 40
11.0
 40
11.0
 40
12.0
 40
12.0
 40
12.0
 40
13.0
 40
13.0
 40
13.0
 40
14.0
 40
14.0
 40
14.0
 40
15.0
 40
15.0
 40
15.0
 40
16.0
 40
16.0
 40
16.0
 40
17.0
 40
17.0
 40
17.0
 40
18.0
 40
18.0
 40
18.0
 40
19.0
 40
19.0
 40
19.0
 40
20.0
 40
20.0
 40
20.0
 40
21.0
 40
21.0
 40
21.0
 40
22.0
 40
22.0
 40
22.0
 40
23.0
 40
23.0
 40
23.0
 40
24.0
 40
24.0
 40
24.0
 40
24.0
 10
297.2307806331576
 20
-936.8801090865265
 30
0.0
 10
364.3988599078172
 20
-938.3346284003989
 30
0.0
 10
431.6997045497366
 20
-941.5467493034608
 30
0.0
 10
498.5393370335702
 20
-932.0066770130921
 30
0.0
 10
534.2888775655374
 20
-926.9039738351143
 30
0.0
 10
569.9928136460211
 20
-920.8442231313341
 30
0.0
 10
605.2494902051336
 20
-913.0900883405228
 30
0.0
 10
647.8980067010917
 20
-903.7102991176073
 30
0.0
 10
688.8447752184138
 20
-888.5640229440916
 30
0.0
 10
729.4063820604889
 20
-872.3282353233695
 30
0.0
 10
769.2429685576893
 20
-856.3825247425016
 30
0.0
 10
802.5636737088662
 20
-831.8697229636924
 30
0.0
 10
831.4476987667495
 20
-800.4880898063884
 30
0.0
 10
858.2911076413301
 20
-771.3232033390721
 30
0.0
 10
873.0802996677995
 20
-735.6830876524508
 30
0.0
 10
887.7714787277099
 20
-699.8137008612898
 30
0.0
 10
897.0051097746656
 20
-677.2687806873442
 30
0.0
 10
901.7993907793245
 20
-653.6200519199283
 30
0.0
 10
906.00809167888
 20
-629.849323708642
 30
0.0
 10
911.5209334743767
 20
-598.7134981142105
 30
0.0
 10
917.5672483057644
 20
-567.592443366673
 30
0.0
 10
921.1015717640822
 20
-536.2080110692919
 30
0.0
 10
924.7235729024996
 20
-504.0460207208862
 30
0.0
 10
926.0007559262708
 20
-471.5937810778481
 30
0.0
 10
927.5709443210587
 20
-439.2330087199434
 30
0.0
 10
930.108773910268
 20
-386.9332294768364
 30
0.0
 10
933.3916915255516
 20
-334.6164185429192
 30
0.0
 10
933.8635834796418
 20
-282.2842984659415
 30
0.0
 10
934.3463274845143
 20
-228.7648262299724
 30
0.0
 10
931.2202478411986
 20
-175.2231331281234
 30
0.0
 10
930.7806536572806
 20
-121.6820644498312
 30
0.0
 10
930.6114994689549
 20
-101.0724697284211
 30
0.0
 10
929.7980262974984
 20
-80.51013741069928
 30
0.0
 10
928.6355649533899
 20
-59.97222220722917
 30
0.0
 10
928.6355649533899
 20
-59.97222220722917
 30
0.0
 10
875.190334525126
 20
-59.97222220722917
 30
0.0
 10
875.190334525126
 20
-59.97222220722917
 30
0.0
 10
879.9623085365199
 20
-141.2499699557357
 30
0.0
 10
879.7175345022928
 20
-222.6518918646387
 30
0.0
 10
876.7306367165812
 20
-303.9634446125942
 30
0.0
 10
874.2574026677203
 20
-371.2945630310932
 30
0.0
 10
869.4240198293039
 20
-438.5422240114581
 30
0.0
 10
865.3466631951216
 20
-505.8092636539296
 30
0.0
 10
864.0547523881529
 20
-527.1235526568476
 30
0.0
 10
863.096757461094
 20
-548.5829663070837
 30
0.0
 10
859.7510529805937
 20
-569.6204418877617
 30
0.0
 10
853.7821666702351
 20
-607.1499771295719
 30
0.0
 10
845.0738265573948
 20
-644.1406994374891
 30
0.0
 10
833.160169605078
 20
-680.327724032394
 30
0.0
 10
821.489822521409
 20
-715.7756033909346
 30
0.0
 10
803.0369437011506
 20
-747.1696388919856
 30
0.0
 10
775.895620194481
 20
-772.6952126160729
 30
0.0
 10
747.8751083199756
 20
-799.0475231292312
 30
0.0
 10
713.2494009989899
 20
-814.6842947724573
 30
0.0
 10
677.6113523696596
 20
-827.6258820901874
 30
0.0
 10
633.406643179322
 20
-843.678304503709
 30
0.0
 10
587.7384574268501
 20
-854.6744464009147
 30
0.0
 10
541.66581746441
 20
-863.9142786197439
 30
0.0
 10
489.2436081404948
 20
-874.427848766855
 30
0.0
 10
436.2980026849812
 20
-880.7322873774731
 30
0.0
 10
382.8106990281047
 20
-879.9792756317867
 30
0.0
 10
331.1336207939527
 20
-879.2520159748503
 30
0.0
 10
279.4872685051607
 20
-876.4655366189913
 30
0.0
 10
227.810362525784
 20
-875.5600793980823
 30
0.0
 10
171.870193947104
 20
-874.5793468408169
 30
0.0
 10
115.9210681201625
 20
-874.0889374984917
 30
0.0
 10
59.97222220722917
 20
-873.6143755953985
 30
0.0
 10
59.97222220722917
 20
-873.6143755953985
 30
0.0
 10
59.97222220722917
 20
-931.0671994742644
 30
0.0
 10
59.97222220722917
 20
-931.0671994742644
 30
0.0
 10
139.0627864913848
 20
-932.7354008356115
 30
0.0
 10
218.1397211165263
 20
-935.1679827577465
 30
0.0
 10
297.2307806331576
 20
-936.8801090865265
 30
0.0
  0
HATCH
  5
8F
330
70
100
AcDbEntity
  8
2023-030
 62
    18
420
        0
440
 33554687
100
AcDbHatch
 10
0.0
 20
0.0
 30
0.0
210
0.0
220
0.0
230
1.0
  2
SOLID
 70
     1
 71
     1
 91
        1
 92
        1
 93
        1
 72
     4
 94
        3
 73
     0
 74
     0
 95
       77
 96
       73
 40
0.0
 40
0.0
 40
0.0
 40
0.0
 40
1.0
 40
1.0
 40
1.0
 40
2.0
 40
2.0
 40
2.0
 40
3.0
 40
3.0
 40
3.0
 40
4.0
 40
4.0
 40
4.0
 40
5.0
 40
5.0
 40
5.0
 40
6.0
 40
6.0
 40
6.0
 40
7.0
 40
7.0
 40
7.0
 40
8.0
 40
8.0
 40
8.0
 40
9.0
 40
9.0
 40
9.0
 40
10.0
 40
10.0
 40
10.0
 40
11.0
 40
11.0
 40
11.0
 40
12.0
 40
12.0
 40
12.0
 40
13.0
 40
13.0
 40
13.0
 40
14.0
 40
14.0
 40
14.0
 40
15.0
 40
15.0
 40
15.0
 40
16.0
 40
16.0
 40
16.0
 40
17.0
 40
17.0
 40
17.0
 40
18.0
 40
18.0
 40
18.0
 40
19.0
 40
19.0
 40
19.0
 40
20.0
 40
20.0
 40
20.0
 40
21.0
 40
21.0
 40
21.0
 40
22.0
 40
22.0
 40
22.0
 40
23.0
 40
23.0
 40
23.0
 40
24.0
 40
24.0
 40
24.0
 40
24.0
 10
297.2307806331576
 20
-936.8801090865265
 10
364.3988599078172
 20
-938.3346284003989
 10
431.6997045497366
 20
-941.5467493034608
 10
498.5393370335702
 20
-932.0066770130921
 10
534.2888775655374
 20
-926.9039738351143
 10
569.9928136460211
 20
-920.8442231313341
 10
605.2494902051336
 20
-913.0900883405228
 10
647.8980067010917
 20
-903.7102991176073
 10
688.8447752184138
 20
-888.5640229440916
 10
729.4063820604889
 20
-872.3282353233695
 10
769.2429685576893
 20
-856.3825247425016
 10
802.5636737088662
 20
-831.8697229636924
 10
831.4476987667495
 20
-800.4880898063884
 10
858.2911076413301
 20
-771.3232033390721
 10
873.0802996677995
 20
-735.6830876524508
 10
887.7714787277099
 20
-699.8137008612898
 10
897.0051097746656
 20
-677.2687806873442
 10
901.7993907793245
 20
-653.6200519199283
 10
906.00809167888
 20
-629.849323708642
 10
911.5209334743767
 20
-598.7134981142105
 10
917.5672483057644
 20
-567.592443366673
 10
921.1015717640822
 20
-536.2080110692919
 10
924.7235729024996
 20
-504.0460207208862
 10
926.0007559262708
 20
-471.5937810778481
 10
927.5709443210587
 20
-439.2330087199434
 10
930.108773910268
 20
-386.9332294768364
 10
933.3916915255516
 20
-334.6164185429192
 10
933.8635834796418
 20
-282.2842984659415
 10
934.3463274845143
 20
-228.7648262299724
 10
931.2202478411986
 20
-175.2231331281234
 10
930.7806536572806
 20
-121.6820644498312
 10
930.6114994689549
 20
-101.0724697284211
 10
929.7980262974984
 20
-80.51013741069928
 10
928.6355649533899
 20
-59.97222220722917
 10
928.6355649533899
 20
-59.97222220722917
 10
875.190334525126
 20
-59.97222220722917
 10
875.190334525126
 20
-59.97222220722917
 10
879.9623085365199
 20
-141.2499699557357
 10
879.7175345022928
 20
-222.6518918646387
 10
876.7306367165812
 20
-303.9634446125942
 10
874.2574026677203
 20
-371.2945630310932
 10
869.4240198293039
 20
-438.5422240114581
 10
865.3466631951216
 20
-505.8092636539296
 10
864.0547523881529
 20
-527.1235526568476
 10
863.096757461094
 20
-548.5829663070837
 10
859.7510529805937
 20
-569.6204418877617
 10
853.7821666702351
 20
-607.1499771295719
 10
845.0738265573948
 20
-644.1406994374891
 10
833.160169605078
 20
-680.327724032394
 10
821.489822521409
 20
-715.7756033909346
 10
803.0369437011506
 20
-747.1696388919856
 10
775.895620194481
 20
-772.6952126160729
 10
747.8751083199756
 20
-799.0475231292312
 10
713.2494009989899
 20
-814.6842947724573
 10
677.6113523696596
 20
-827.6258820901874
 10
633.406643179322
 20
-843.678304503709
 10
587.7384574268501
 20
-854.6744464009147
 10
541.66581746441
 20
-863.9142786197439
 10
489.2436081404948
 20
-874.427848766855
 10
436.2980026849812
 20
-880.7322873774731
 10
382.8106990281047
 20
-879.9792756317867
 10
331.1336207939527
 20
-879.2520159748503
 10
279.4872685051607
 20
-876.4655366189913
 10
227.810362525784
 20
-875.5600793980823
 10
171.870193947104
 20
-874.5793468408169
 10
115.9210681201625
 20
-874.0889374984917
 10
59.97222220722917
 20
-873.6143755953985
 10
59.97222220722917
 20
-873.6143755953985
 10
59.97222220722917
 20
-931.0671994742644
 10
59.97222220722917
 20
-931.0671994742644
 10
139.0627864913848
 20
-932.7354008356115
 10
218.1397211165263
 20
-935.1679827577465
 10
297.2307806331576
 20
-936.8801090865265
 97
        0
 97
        1
330
8E
 75
     2
 76
     1
 98
        1
 10
0.0
 20
0.0
450
        0
451
        0
460
0.0
461
0.0
452
        0
462
0.0
453
        0
470

  0
SPLINE
  5
90
330
70
100
AcDbEntity
  8
2023-030
100
AcDbSpline
210
0.0
220
0.0
230
1.0
 70
     9
 71
     3
 72
    56
 73
    52
 74
     0
 42
0.0000000001
 43
0.0000000001
 40
0.0
 40
0.0
 40
0.0
 40
0.0
 40
1.0
 40
1.0
 40
1.0
 40
2.0
 40
2.0
 40
2.0
 40
3.0
 40
3.0
 40
3.0
 40
4.0
 40
4.0
 40
4.0
 40
5.0
 40
5.0
 40
5.0
 40
6.0
 40
6.0
 40
6.0
 40
7.0
 40
7.0
 40
7.0
 40
8.0
 40
8.0
 40
8.0
 40
9.0
 40
9.0
 40
9.0
 40
10.0
 40
10.0
 40
10.0
 40
11.0
 40
11.0
 40
11.0
 40
12.0
 40
12.0
 40
12.0
 40
13.0
 40
13.0
 40
13.0
 40
14.0
 40
14.0
 40
14.0
 40
15.0
 40
15.0
 40
15.0
 40
16.0
 40
16.0
 40
16.0
 40
17.0
 40
17.0
 40
17.0
 40
17.0
 10
1035.581750229386
 20
-234.0905562769266
 30
0.0
 10
1037.203873438616
 20
-267.8693730002527
 30
0.0
 10
1037.323332124568
 20
-301.7190510313411
 30
0.0
 10
1038.231459294481
 20
-335.5338474706413
 30
0.0
 10
1039.171195215467
 20
-370.5148517953921
 30
0.0
 10
1041.15686212578
 20
-405.4948871870396
 30
0.0
 10
1041.048255490606
 20
-440.4702716997782
 30
0.0
 10
1040.896068397547
 20
-489.428782022827
 30
0.0
 10
1044.89280979737
 20
-538.0049728743983
 30
0.0
 10
1051.835021709697
 20
-586.3537012965539
 30
0.0
 10
1057.696076531368
 20
-627.1723122618286
 30
0.0
 10
1068.060904680901
 20
-666.7049552098448
 30
0.0
 10
1087.126493733211
 20
-703.7328414853099
 30
0.0
 10
1103.901697179539
 20
-736.3128511071543
 30
0.0
 10
1120.0616065722
 20
-769.2323748890741
 30
0.0
 10
1142.85263575487
 20
-798.1632532455567
 30
0.0
 10
1158.173922779033
 20
-817.612195297986
 30
0.0
 10
1174.223072351843
 20
-836.4858925317639
 30
0.0
 10
1189.919444146964
 20
-855.6414847036243
 30
0.0
 10
1189.919444146964
 20
-855.6414847036243
 30
0.0
 10
1189.919444146964
 20
-765.608565075525
 30
0.0
 10
1189.919444146964
 20
-765.608565075525
 30
0.0
 10
1175.698262238627
 20
-746.2322284104491
 30
0.0
 10
1162.431630161868
 20
-726.1552454510585
 30
0.0
 10
1150.997013736775
 20
-704.654146145451
 30
0.0
 10
1128.975877267669
 20
-663.2471128712995
 30
0.0
 10
1113.728056904728
 20
-619.9807615637548
 30
0.0
 10
1108.171462396568
 20
-573.679367261094
 30
0.0
 10
1104.037692323817
 20
-539.2335800518235
 30
0.0
 10
1101.529921192718
 20
-504.5044337388913
 30
0.0
 10
1100.203817813056
 20
-469.8286864059803
 30
0.0
 10
1097.789667151768
 20
-406.7085943264932
 30
0.0
 10
1096.800407983178
 20
-343.5339836109481
 30
0.0
 10
1095.197491181281
 20
-280.3826488217772
 30
0.0
 10
1094.571689586385
 20
-255.7234735485366
 30
0.0
 10
1094.644036591575
 20
-231.017897145479
 30
0.0
 10
1093.08151353424
 20
-206.4170731770199
 30
0.0
 10
1090.001684297812
 20
-157.9259546520875
 30
0.0
 10
1086.356428764869
 20
-109.4631505056746
 30
0.0
 10
1082.245826959258
 20
-61.04803939988556
 30
0.0
 10
1082.215423991599
 20
-60.6893403643307
 30
0.0
 10
1082.182006565392
 20
-60.33087817909046
 30
0.0
 10
1082.151086833414
 20
-59.97222220722917
 30
0.0
 10
1082.151086833414
 20
-59.97222220722917
 30
0.0
 10
1025.238798436183
 20
-59.97222220722917
 30
0.0
 10
1025.238798436183
 20
-59.97222220722917
 30
0.0
 10
1025.582274456063
 20
-64.57052034247315
 30
0.0
 10
1025.913951023903
 20
-69.16963668789455
 30
0.0
 10
1026.228229859547
 20
-73.76993728488868
 30
0.0
 10
1029.876499851038
 20
-127.1749462233603
 30
0.0
 10
1033.014120564229
 20
-180.6229757917041
 30
0.0
 10
1035.581750229386
 20
-234.0905562769266
 30
0.0
  0
HATCH
  5
91
330
70
100
AcDbEntity
  8
2023-030
 62
    18
420
        0
440
 33554687
100
AcDbHatch
 10
0.0
 20
0.0
 30
0.0
210
0.0
220
0.0
230
1.0
  2
SOLID
 70
     1
 71
     1
 91
        1
 92
        1
 93
        1
 72
     4
 94
        3
 73
     0
 74
     0
 95
       56
 96
       52
 40
0.0
 40
0.0
 40
0.0
 40
0.0
 40
1.0
 40
1.0
 40
1.0
 40
2.0
 40
2.0
 40
2.0
 40
3.0
 40
3.0
 40
3.0
 40
4.0
 40
4.0
 40
4.0
 40
5.0
 40
5.0
 40
5.0
 40
6.0
 40
6.0
 40
6.0
 40
7.0
 40
7.0
 40
7.0
 40
8.0
 40
8.0
 40
8.0
 40
9.0
 40
9.0
 40
9.0
 40
10.0
 40
10.0
 40
10.0
 40
11.0
 40
11.0
 40
11.0
 40
12.0
 40
12.0
 40
12.0
 40
13.0
 40
13.0
 40
13.0
 40
14.0
 40
14.0
 40
14.0
 40
15.0
 40
15.0
 40
15.0
 40
16.0
 40
16.0
 40
16.0
 40
17.0
 40
17.0
 40
17.0
 40
17.0
 10
1035.581750229386
 20
-234.0905562769266
 10
1037.203873438616
 20
-267.8693730002527
 10
1037.323332124568
 20
-301.7190510313411
 10
1038.231459294481
 20
-335.5338474706413
 10
1039.171195215467
 20
-370.5148517953921
 10
1041.15686212578
 20
-405.4948871870396
 10
1041.048255490606
 20
-440.4702716997782
 10
1040.896068397547
 20
-489.428782022827
 10
1044.89280979737
 20
-538.0049728743983
 10
1051.835021709697
 20
-586.3537012965539
 10
1057.696076531368
 20
-627.1723122618286
 10
1068.060904680901
 20
-666.7049552098448
 10
1087.126493733211
 20
-703.7328414853099
 10
1103.901697179539
 20
-736.3128511071543
 10
1120.0616065722
 20
-769.2323748890741
 10
1142.85263575487
 20
-798.1632532455567
 10
1158.173922779033
 20
-817.612195297986
 10
1174.223072351843
 20
-836.4858925317639
 10
1189.919444146964
 20
-855.6414847036243
 10
1189.919444146964
 20
-855.6414847036243
 10
1189.919444146964
 20
-765.608565075525
 10
1189.919444146964
 20
-765.608565075525
 10
1175.698262238627
 20
-746.2322284104491
 10
1162.431630161868
 20
-726.1552454510585
 10
1150.997013736775
 20
-704.654146145451
 10
1128.975877267669
 20
-663.2471128712995
 10
1113.728056904728
 20
-619.9807615637548
 10
1108.171462396568
 20
-573.679367261094
 10
1104.037692323817
 20
-539.2335800518235
 10
1101.529921192718
 20
-504.5044337388913
 10
1100.203817813056
 20
-469.8286864059803
 10
1097.789667151768
 20
-406.7085943264932
 10
1096.800407983178
 20
-343.5339836109481
 10
1095.197491181281
 20
-280.3826488217772
 10
1094.571689586385
 20
-255.7234735485366
 10
1094.644036591575
 20
-231.017897145479
 10
1093.08151353424
 20
-206.4170731770199
 10
1090.001684297812
 20
-157.9259546520875
 10
1086.356428764869
 20
-109.4631505056746
 10
1082.245826959258
 20
-61.04803939988556
 10
1082.215423991599
 20
-60.6893403643307
 10
1082.182006565392
 20
-60.33087817909046
 10
1082.151086833414
 20
-59.97222220722917
 10
1082.151086833414
 20
-59.97222220722917
 10
1025.238798436183
 20
-59.97222220722917
 10
1025.238798436183
 20
-59.97222220722917
 10
1025.582274456063
 20
-64.57052034247315
 10
1025.913951023903
 20
-69.16963668789455
 10
1026.228229859547
 20
-73.76993728488868
 10
1029.876499851038
 20
-127.1749462233603
 10
1033.014120564229
 20
-180.6229757917041
 10
1035.581750229386
 20
-234.0905562769266
 97
        0
 97
        1
330
90
 75
     2
 76
     1
 98
        1
 10
0.0
 20
0.0
450
        0
451
        0
460
0.0
461
0.0
452
        0
462
0.0
453
        0
470

  0
SPLINE
  5
92
330
70
100
AcDbEntity
  8
2023-030
100
AcDbSpline
210
0.0
220
0.0
230
1.0
 70
     9
 71
     3
 72
   170
 73
   166
 74
     0
 42
0.0000000001
 43
0.0000000001
 40
0.0
 40
0.0
 40
0.0
 40
0.0
 40
1.0
 40
1.0
 40
1.0
 40
2.0
 40
2.0
 40
2.0
 40
3.0
 40
3.0
 40
3.0
 40
4.0
 40
4.0
 40
4.0
 40
5.0
 40
5.0
 40
5.0
 40
6.0
 40
6.0
 40
6.0
 40
7.0
 40
7.0
 40
7.0
 40
8.0
 40
8.0
 40
8.0
 40
9.0
 40
9.0
 40
9.0
 40
10.0
 40
10.0
 40
10.0
 40
11.0
 40
11.0
 40
11.0
 40
12.0
 40
12.0
 40
12.0
 40
13.0
 40
13.0
 40
13.0
 40
14.0
 40
14.0
 40
14.0
 40
15.0
 40
15.0
 40
15.0
 40
16.0
 40
16.0
 40
16.0
 40
17.0
 40
17.0
 40
17.0
 40
18.0
 40
18.0
 40
18.0
 40
19.0
 40
19.0
 40
19.0
 40
20.0
 40
20.0
 40
20.0
 40
21.0
 40
21.0
 40
21.0
 40
22.0
 40
22.0
 40
22.0
 40
23.0
 40
23.0
 40
23.0
 40
24.0
 40
24.0
 40
24.0
 40
25.0
 40
25.0
 40
25.0
 40
26.0
 40
26.0
 40
26.0
 40
27.0
 40
27.0
 40
27.0
 40
28.0
 40
28.0
 40
28.0
 40
29.0
 40
29.0
 40
29.0
 40
30.0
 40
30.0
 40
30.0
 40
31.0
 40
31.0
 40
31.0
 40
32.0
 40
32.0
 40
32.0
 40
33.0
 40
33.0
 40
33.0
 40
34.0
 40
34.0
 40
34.0
 40
35.0
 40
35.0
 40
35.0
 40
36.0
 40
36.0
 40
36.0
 40
37.0
 40
37.0
 40
37.0
 40
38.0
 40
38.0
 40
38.0
 40
39.0
 40
39.0
 40
39.0
 40
40.0
 40
40.0
 40
40.0
 40
41.0
 40
41.0
 40
41.0
 40
42.0
 40
42.0
 40
42.0
 40
43.0
 40
43.0
 40
43.0
 40
44.0
 40
44.0
 40
44.0
 40
45.0
 40
45.0
 40
45.0
 40
46.0
 40
46.0
 40
46.0
 40
47.0
 40
47.0
 40
47.0
 40
48.0
 40
48.0
 40
48.0
 40
49.0
 40
49.0
 40
49.0
 40
50.0
 40
50.0
 40
50.0
 40
51.0
 40
51.0
 40
51.0
 40
52.0
 40
52.0
 40
52.0
 40
53.0
 40
53.0
 40
53.0
 40
54.0
 40
54.0
 40
54.0
 40
55.0
 40
55.0
 40
55.0
 40
55.0
 10
1130.608334122723
 20
-1115.222011994292
 30
0.0
 10
1127.307126267672
 20
-1121.549853400094
 30
0.0
 10
1124.385602793066
 20
-1128.078324066492
 30
0.0
 10
1121.878628052389
 20
-1134.761071828974
 30
0.0
 10
1120.667339527862
 20
-1137.989957842727
 30
0.0
 10
1119.555988188626
 20
-1141.256441864789
 30
0.0
 10
1118.549680243607
 20
-1144.55498963103
 30
0.0
 10
1118.041267838656
 20
-1146.221499978068
 30
0.0
 10
1117.559457851606
 20
-1147.896123892649
 30
0.0
 10
1117.105023874261
 20
-1149.578157518049
 30
0.0
 10
1116.643670797048
 20
-1151.285801373348
 30
0.0
 10
1115.885408113433
 20
-1153.277734273219
 30
0.0
 10
1116.555914489467
 20
-1155.022738280107
 30
0.0
 10
1117.765563275177
 20
-1158.170869384359
 30
0.0
 10
1121.594508523421
 20
-1159.017546503248
 30
0.0
 10
1124.574785981589
 20
-1159.422312315485
 30
0.0
 10
1128.206162702344
 20
-1159.91550704938
 30
0.0
 10
1131.852908952146
 20
-1159.845229234895
 30
0.0
 10
1135.494295476285
 20
-1159.493065885446
 30
0.0
 10
1142.655931614754
 20
-1158.80045449873
 30
0.0
 10
1149.799129153162
 20
-1157.529457690121
 30
0.0
 10
1156.825909306782
 20
-1155.999640249044
 30
0.0
 10
1163.682779210718
 20
-1154.506814382729
 30
0.0
 10
1170.465460124948
 20
-1152.66987471624
 30
0.0
 10
1177.133042163281
 20
-1150.480950665747
 30
0.0
 10
1177.968675119994
 20
-1150.206617771781
 30
0.0
 10
1178.802351537861
 20
-1149.926407424656
 30
0.0
 10
1179.634376330972
 20
-1149.641324670251
 30
0.0
 10
1180.505358842117
 20
-1149.342893547319
 30
0.0
 10
1181.172223486615
 20
-1148.416725609203
 30
0.0
 10
1180.866345865533
 20
-1147.471532059518
 30
0.0
 10
1180.586825089138
 20
-1146.607783891488
 30
0.0
 10
1179.631141717779
 20
-1145.919337628454
 30
0.0
 10
1178.696553254799
 20
-1146.239562524956
 30
0.0
 10
1172.255052983352
 20
-1148.446660985348
 30
0.0
 10
1165.702826271562
 20
-1150.326046086259
 30
0.0
 10
1159.073085796745
 20
-1151.878380582718
 30
0.0
 10
1155.696715303399
 20
-1152.668947937437
 30
0.0
 10
1152.300616079441
 20
-1153.375205784461
 30
0.0
 10
1148.889243908754
 20
-1153.997592407681
 30
0.0
 10
1147.204284160475
 20
-1154.305004309848
 30
0.0
 10
1145.515588761825
 20
-1154.591931715303
 30
0.0
 10
1143.823674950084
 20
-1154.858422484445
 30
0.0
 10
1142.96236988486
 20
-1154.994085334234
 30
0.0
 10
1142.100232657506
 20
-1155.124463600487
 30
0.0
 10
1141.237324225227
 20
-1155.249523832514
 30
0.0
 10
1140.819457123674
 20
-1155.310084785127
 30
0.0
 10
1140.401407672053
 20
-1155.369385803906
 30
0.0
 10
1139.983187773286
 20
-1155.427459965649
 30
0.0
 10
1139.787948187002
 20
-1155.45457100304
 30
0.0
 10
1139.592648809487
 20
-1155.481240062787
 30
0.0
 10
1139.397360468045
 20
-1155.507996443548
 30
0.0
 10
1139.339445201321
 20
-1155.51593139203
 30
0.0
 10
1139.05051289878
 20
-1155.553914444912
 30
0.0
 10
1139.365001835756
 20
-1155.512467341313
 30
0.0
 10
1139.225498988144
 20
-1155.530852690677
 30
0.0
 10
1139.08601896284
 20
-1155.549404907553
 30
0.0
 10
1138.94649020612
 20
-1155.567594688198
 30
0.0
 10
1135.505118151347
 20
-1156.016231974645
 30
0.0
 10
1132.03349775775
 20
-1156.349821175255
 30
0.0
 10
1128.559140667935
 20
-1156.239259122377
 30
0.0
 10
1127.691000055314
 20
-1156.211632886548
 30
0.0
 10
1126.823627029093
 20
-1156.155490274715
 30
0.0
 10
1125.959662587556
 20
-1156.065707453478
 30
0.0
 10
1125.765007154971
 20
-1156.045478942829
 30
0.0
 10
1125.570800161623
 20
-1156.021605164165
 30
0.0
 10
1125.376314130503
 20
-1155.999934180986
 30
0.0
 10
1125.317092632502
 20
-1155.993335310724
 30
0.0
 10
1125.02901634829
 20
-1155.954891133753
 30
0.0
 10
1125.346505757912
 20
-1155.998031800946
 30
0.0
 10
1125.235809225241
 20
-1155.982990284188
 30
0.0
 10
1125.125201154739
 20
-1155.966818518501
 30
0.0
 10
1125.014723854938
 20
-1155.950307466936
 30
0.0
 10
1124.584481679971
 20
-1155.886006920584
 30
0.0
 10
1124.155056934172
 20
-1155.813718572314
 30
0.0
 10
1123.728357745413
 20
-1155.728904467961
 30
0.0
 10
1123.071303752713
 20
-1155.59830322153
 30
0.0
 10
1122.419682045572
 20
-1155.430762266658
 30
0.0
 10
1121.788312117678
 20
-1155.205688506643
 30
0.0
 10
1121.705313411992
 20
-1155.176100732598
 30
0.0
 10
1121.623303693858
 20
-1155.142791761041
 30
0.0
 10
1121.540059254214
 20
-1155.113895215731
 30
0.0
 10
1121.289928465036
 20
-1155.027067606417
 30
0.0
 10
1121.584151845643
 20
-1155.072056101601
 30
0.0
 10
1121.598157561426
 20
-1155.143531350732
 30
0.0
 10
1121.590785852082
 20
-1155.105911369713
 30
0.0
 10
1121.222139131805
 20
-1154.96947532224
 30
0.0
 10
1121.191326386368
 20
-1154.954066169573
 30
0.0
 10
1120.895893863654
 20
-1154.80632325408
 30
0.0
 10
1120.625365971828
 20
-1154.630530433207
 30
0.0
 10
1120.348856821301
 20
-1154.451659591875
 30
0.0
 10
1120.154439501462
 20
-1154.32589308649
 30
0.0
 10
1120.57680433767
 20
-1154.68445718099
 30
0.0
 10
1120.428645439429
 20
-1154.512818416175
 30
0.0
 10
1120.39300695539
 20
-1154.471532030728
 30
0.0
 10
1120.339404211594
 20
-1154.437050504019
 30
0.0
 10
1120.298875364569
 20
-1154.400119204629
 30
0.0
 10
1120.187780163901
 20
-1154.298885381865
 30
0.0
 10
1120.089852726613
 20
-1154.188969518252
 30
0.0
 10
1119.986528234044
 20
-1154.080351330016
 30
0.0
 10
1119.782423859733
 20
-1153.865789934187
 30
0.0
 10
1120.154299975922
 20
-1154.378324298293
 30
0.0
 10
1119.974171439352
 20
-1154.043912199407
 30
0.0
 10
1119.941405737718
 20
-1153.983082042988
 30
0.0
 10
1119.910125578947
 20
-1153.912503235968
 30
0.0
 10
1119.869306929093
 20
-1153.857429390877
 30
0.0
 10
1119.768779731629
 20
-1153.721794838527
 30
0.0
 10
1119.973719370513
 20
-1154.251043234572
 30
0.0
 10
1119.900625869266
 20
-1153.934826844045
 30
0.0
 10
1119.87840634411
 20
-1153.838700951529
 30
0.0
 10
1119.848143577232
 20
-1153.722989536449
 30
0.0
 10
1119.818265127388
 20
-1153.631663809226
 30
0.0
 10
1119.829359211917
 20
-1153.665573712276
 30
0.0
 10
1119.825884847113
 20
-1153.91786293004
 30
0.0
 10
1119.83095049143
 20
-1153.716968198463
 30
0.0
 10
1119.835446455196
 20
-1153.538666016595
 30
0.0
 10
1119.838222293878
 20
-1153.353325854243
 30
0.0
 10
1119.837591931933
 20
-1153.17456214443
 30
0.0
 10
1119.838704830267
 20
-1153.490167863673
 30
0.0
 10
1119.818563355942
 20
-1153.27330834841
 30
0.0
 10
1119.837094726341
 20
-1153.176529513451
 30
0.0
 10
1119.856980238572
 20
-1153.07267876389
 30
0.0
 10
1119.876553794525
 20
-1152.969093381567
 30
0.0
 10
1119.89887552151
 20
-1152.865759204491
 30
0.0
 10
1119.943525516915
 20
-1152.659060568018
 30
0.0
 10
1119.996266994804
 20
-1152.454170310906
 30
0.0
 10
1120.048830722284
 20
-1152.24937668847
 30
0.0
 10
1120.467934081934
 20
-1150.616507420762
 30
0.0
 10
1120.917667617052
 20
-1148.991181125541
 30
0.0
 10
1121.390136992819
 20
-1147.372982405305
 30
0.0
 10
1122.332265220583
 20
-1144.146210955842
 30
0.0
 10
1123.374757184656
 20
-1140.948799113921
 30
0.0
 10
1124.513297909143
 20
-1137.78600421103
 30
0.0
 10
1125.090435203938
 20
-1136.182752913127
 30
0.0
 10
1125.692252667469
 20
-1134.588394985424
 30
0.0
 10
1126.318173947277
 20
-1133.00355393234
 30
0.0
 10
1126.632097536217
 20
-1132.208695205961
 30
0.0
 10
1126.952065090863
 20
-1131.416223997116
 30
0.0
 10
1127.278039799251
 20
-1130.626230885497
 30
0.0
 10
1127.425482757251
 20
-1130.268905859413
 30
0.0
 10
1127.574442263759
 20
-1129.912216715401
 30
0.0
 10
1127.724034278529
 20
-1129.555787043854
 30
0.0
 10
1127.60861402005
 20
-1129.830796407709
 30
0.0
 10
1127.718863186523
 20
-1129.568052118443
 30
0.0
 10
1127.739735480015
 20
-1129.519001913306
 30
0.0
 10
1127.783024870264
 20
-1129.417271192012
 30
0.0
 10
1127.826174414366
 20
-1129.31548221228
 30
0.0
 10
1127.869537113843
 20
-1129.213782433029
 30
0.0
 10
1127.956298816849
 20
-1129.010297729599
 30
0.0
 10
1128.043474246247
 20
-1128.806988899034
 30
0.0
 10
1128.131037386112
 20
-1128.603847771882
 30
0.0
 10
1129.49488846762
 20
-1125.439796706644
 30
0.0
 10
1130.954829202638
 20
-1122.317213815296
 30
0.0
 10
1132.505884590429
 20
-1119.240621348961
 30
0.0
 10
1132.883376507413
 20
-1118.49184809622
 30
0.0
 10
1133.266609902053
 20
-1117.746003248924
 30
0.0
 10
1133.654466816788
 20
-1117.002548988437
 30
0.0
 10
1134.080932980487
 20
-1116.185087511513
 30
0.0
 10
1133.891392908943
 20
-1115.048728963327
 30
0.0
 10
1133.021668966828
 20
-1114.589214144332
 30
0.0
 10
1132.210049159413
 20
-1114.160398389311
 30
0.0
 10
1131.064025899306
 20
-1114.348530099557
 30
0.0
 10
1130.608334122723
 20
-1115.222011994292
 30
0.0
 10
1130.608334122723
 20
-1115.222011994292
 30
0.0
 10
1130.608334122723
 20
-1115.222011994292
 30
0.0
 10
1130.608334122723
 20
-1115.222011994292
 30
0.0
  0
HATCH
  5
93
330
70
100
AcDbEntity
  8
2023-030
 62
   250
420
  2301728
440
 33554687
100
AcDbHatch
 10
0.0
 20
0.0
 30
0.0
210
0.0
220
0.0
230
1.0
  2
SOLID
 70
     1
 71
     1
 91
        1
 92
        1
 93
        1
 72
     4
 94
        3
 73
     0
 74
     0
 95
      170
 96
      166
 40
0.0
 40
0.0
 40
0.0
 40
0.0
 40
1.0
 40
1.0
 40
1.0
 40
2.0
 40
2.0
 40
2.0
 40
3.0
 40
3.0
 40
3.0
 40
4.0
 40
4.0
 40
4.0
 40
5.0
 40
5.0
 40
5.0
 40
6.0
 40
6.0
 40
6.0
 40
7.0
 40
7.0
 40
7.0
 40
8.0
 40
8.0
 40
8.0
 40
9.0
 40
9.0
 40
9.0
 40
10.0
 40
10.0
 40
10.0
 40
11.0
 40
11.0
 40
11.0
 40
12.0
 40
12.0
 40
12.0
 40
13.0
 40
13.0
 40
13.0
 40
14.0
 40
14.0
 40
14.0
 40
15.0
 40
15.0
 40
15.0
 40
16.0
 40
16.0
 40
16.0
 40
17.0
 40
17.0
 40
17.0
 40
18.0
 40
18.0
 40
18.0
 40
19.0
 40
19.0
 40
19.0
 40
20.0
 40
20.0
 40
20.0
 40
21.0
 40
21.0
 40
21.0
 40
22.0
 40
22.0
 40
22.0
 40
23.0
 40
23.0
 40
23.0
 40
24.0
 40
24.0
 40
24.0
 40
25.0
 40
25.0
 40
25.0
 40
26.0
 40
26.0
 40
26.0
 40
27.0
 40
27.0
 40
27.0
 40
28.0
 40
28.0
 40
28.0
 40
29.0
 40
29.0
 40
29.0
 40
30.0
 40
30.0
 40
30.0
 40
31.0
 40
31.0
 40
31.0
 40
32.0
 40
32.0
 40
32.0
 40
33.0
 40
33.0
 40
33.0
 40
34.0
 40
34.0
 40
34.0
 40
35.0
 40
35.0
 40
35.0
 40
36.0
 40
36.0
 40
36.0
 40
37.0
 40
37.0
 40
37.0
 40
38.0
 40
38.0
 40
38.0
 40
39.0
 40
39.0
 40
39.0
 40
40.0
 40
40.0
 40
40.0
 40
41.0
 40
41.0
 40
41.0
 40
42.0
 40
42.0
 40
42.0
 40
43.0
 40
43.0
 40
43.0
 40
44.0
 40
44.0
 40
44.0
 40
45.0
 40
45.0
 40
45.0
 40
46.0
 40
46.0
 40
46.0
 40
47.0
 40
47.0
 40
47.0
 40
48.0
 40
48.0
 40
48.0
 40
49.0
 40
49.0
 40
49.0
 40
50.0
 40
50.0
 40
50.0
 40
51.0
 40
51.0
 40
51.0
 40
52.0
 40
52.0
 40
52.0
 40
53.0
 40
53.0
 40
53.0
 40
54.0
 40
54.0
 40
54.0
 40
55.0
 40
55.0
 40
55.0
 40
55.0
 10
1130.608334122723
 20
-1115.222011994292
 10
1127.307126267672
 20
-1121.549853400094
 10
1124.385602793066
 20
-1128.078324066492
 10
1121.878628052389
 20
-1134.761071828974
 10
1120.667339527862
 20
-1137.989957842727
 10
1119.555988188626
 20
-1141.256441864789
 10
1118.549680243607
 20
-1144.55498963103
 10
1118.041267838656
 20
-1146.221499978068
 10
1117.559457851606
 20
-1147.896123892649
 10
1117.105023874261
 20
-1149.578157518049
 10
1116.643670797048
 20
-1151.285801373348
 10
1115.885408113433
 20
-1153.277734273219
 10
1116.555914489467
 20
-1155.022738280107
 10
1117.765563275177
 20
-1158.170869384359
 10
1121.594508523421
 20
-1159.017546503248
 10
1124.574785981589
 20
-1159.422312315485
 10
1128.206162702344
 20
-1159.91550704938
 10
1131.852908952146
 20
-1159.845229234895
 10
1135.494295476285
 20
-1159.493065885446
 10
1142.655931614754
 20
-1158.80045449873
 10
1149.799129153162
 20
-1157.529457690121
 10
1156.825909306782
 20
-1155.999640249044
 10
1163.682779210718
 20
-1154.506814382729
 10
1170.465460124948
 20
-1152.66987471624
 10
1177.133042163281
 20
-1150.480950665747
 10
1177.968675119994
 20
-1150.206617771781
 10
1178.802351537861
 20
-1149.926407424656
 10
1179.634376330972
 20
-1149.641324670251
 10
1180.505358842117
 20
-1149.342893547319
 10
1181.172223486615
 20
-1148.416725609203
 10
1180.866345865533
 20
-1147.471532059518
 10
1180.586825089138
 20
-1146.607783891488
 10
1179.631141717779
 20
-1145.919337628454
 10
1178.696553254799
 20
-1146.239562524956
 10
1172.255052983352
 20
-1148.446660985348
 10
1165.702826271562
 20
-1150.326046086259
 10
1159.073085796745
 20
-1151.878380582718
 10
1155.696715303399
 20
-1152.668947937437
 10
1152.300616079441
 20
-1153.375205784461
 10
1148.889243908754
 20
-1153.997592407681
 10
1147.204284160475
 20
-1154.305004309848
 10
1145.515588761825
 20
-1154.591931715303
 10
1143.823674950084
 20
-1154.858422484445
 10
1142.96236988486
 20
-1154.994085334234
 10
1142.100232657506
 20
-1155.124463600487
 10
1141.237324225227
 20
-1155.249523832514
 10
1140.819457123674
 20
-1155.310084785127
 10
1140.401407672053
 20
-1155.369385803906
 10
1139.983187773286
 20
-1155.427459965649
 10
1139.787948187002
 20
-1155.45457100304
 10
1139.592648809487
 20
-1155.481240062787
 10
1139.397360468045
 20
-1155.507996443548
 10
1139.339445201321
 20
-1155.51593139203
 10
1139.05051289878
 20
-1155.553914444912
 10
1139.365001835756
 20
-1155.512467341313
 10
1139.225498988144
 20
-1155.530852690677
 10
1139.08601896284
 20
-1155.549404907553
 10
1138.94649020612
 20
-1155.567594688198
 10
1135.505118151347
 20
-1156.016231974645
 10
1132.03349775775
 20
-1156.349821175255
 10
1128.559140667935
 20
-1156.239259122377
 10
1127.691000055314
 20
-1156.211632886548
 10
1126.823627029093
 20
-1156.155490274715
 10
1125.959662587556
 20
-1156.065707453478
 10
1125.765007154971
 20
-1156.045478942829
 10
1125.570800161623
 20
-1156.021605164165
 10
1125.376314130503
 20
-1155.999934180986
 10
1125.317092632502
 20
-1155.993335310724
 10
1125.02901634829
 20
-1155.954891133753
 10
1125.346505757912
 20
-1155.998031800946
 10
1125.235809225241
 20
-1155.982990284188
 10
1125.125201154739
 20
-1155.966818518501
 10
1125.014723854938
 20
-1155.950307466936
 10
1124.584481679971
 20
-1155.886006920584
 10
1124.155056934172
 20
-1155.813718572314
 10
1123.728357745413
 20
-1155.728904467961
 10
1123.071303752713
 20
-1155.59830322153
 10
1122.419682045572
 20
-1155.430762266658
 10
1121.788312117678
 20
-1155.205688506643
 10
1121.705313411992
 20
-1155.176100732598
 10
1121.623303693858
 20
-1155.142791761041
 10
1121.540059254214
 20
-1155.113895215731
 10
1121.289928465036
 20
-1155.027067606417
 10
1121.584151845643
 20
-1155.072056101601
 10
1121.598157561426
 20
-1155.143531350732
 10
1121.590785852082
 20
-1155.105911369713
 10
1121.222139131805
 20
-1154.96947532224
 10
1121.191326386368
 20
-1154.954066169573
 10
1120.895893863654
 20
-1154.80632325408
 10
1120.625365971828
 20
-1154.630530433207
 10
1120.348856821301
 20
-1154.451659591875
 10
1120.154439501462
 20
-1154.32589308649
 10
1120.57680433767
 20
-1154.68445718099
 10
1120.428645439429
 20
-1154.512818416175
 10
1120.39300695539
 20
-1154.471532030728
 10
1120.339404211594
 20
-1154.437050504019
 10
1120.298875364569
 20
-1154.400119204629
 10
1120.187780163901
 20
-1154.298885381865
 10
1120.089852726613
 20
-1154.188969518252
 10
1119.986528234044
 20
-1154.080351330016
 10
1119.782423859733
 20
-1153.865789934187
 10
1120.154299975922
 20
-1154.378324298293
 10
1119.974171439352
 20
-1154.043912199407
 10
1119.941405737718
 20
-1153.983082042988
 10
1119.910125578947
 20
-1153.912503235968
 10
1119.869306929093
 20
-1153.857429390877
 10
1119.768779731629
 20
-1153.721794838527
 10
1119.973719370513
 20
-1154.251043234572
 10
1119.900625869266
 20
-1153.934826844045
 10
1119.87840634411
 20
-1153.838700951529
 10
1119.848143577232
 20
-1153.722989536449
 10
1119.818265127388
 20
-1153.631663809226
 10
1119.829359211917
 20
-1153.665573712276
 10
1119.825884847113
 20
-1153.91786293004
 10
1119.83095049143
 20
-1153.716968198463
 10
1119.835446455196
 20
-1153.538666016595
 10
1119.838222293878
 20
-1153.353325854243
 10
1119.837591931933
 20
-1153.17456214443
 10
1119.838704830267
 20
-1153.490167863673
 10
1119.818563355942
 20
-1153.27330834841
 10
1119.837094726341
 20
-1153.176529513451
 10
1119.856980238572
 20
-1153.07267876389
 10
1119.876553794525
 20
-1152.969093381567
 10
1119.89887552151
 20
-1152.865759204491
 10
1119.943525516915
 20
-1152.659060568018
 10
1119.996266994804
 20
-1152.454170310906
 10
1120.048830722284
 20
-1152.24937668847
 10
1120.467934081934
 20
-1150.616507420762
 10
1120.917667617052
 20
-1148.991181125541
 10
1121.390136992819
 20
-1147.372982405305
 10
1122.332265220583
 20
-1144.146210955842
 10
1123.374757184656
 20
-1140.948799113921
 10
1124.513297909143
 20
-1137.78600421103
 10
1125.090435203938
 20
-1136.182752913127
 10
1125.692252667469
 20
-1134.588394985424
 10
1126.318173947277
 20
-1133.00355393234
 10
1126.632097536217
 20
-1132.208695205961
 10
1126.952065090863
 20
-1131.416223997116
 10
1127.278039799251
 20
-1130.626230885497
 10
1127.425482757251
 20
-1130.268905859413
 10
1127.574442263759
 20
-1129.912216715401
 10
1127.724034278529
 20
-1129.555787043854
 10
1127.60861402005
 20
-1129.830796407709
 10
1127.718863186523
 20
-1129.568052118443
 10
1127.739735480015
 20
-1129.519001913306
 10
1127.783024870264
 20
-1129.417271192012
 10
1127.826174414366
 20
-1129.31548221228
 10
1127.869537113843
 20
-1129.213782433029
 10
1127.956298816849
 20
-1129.010297729599
 10
1128.043474246247
 20
-1128.806988899034
 10
1128.131037386112
 20
-1128.603847771882
 10
1129.49488846762
 20
-1125.439796706644
 10
1130.954829202638
 20
-1122.317213815296
 10
1132.505884590429
 20
-1119.240621348961
 10
1132.883376507413
 20
-1118.49184809622
 10
1133.266609902053
 20
-1117.746003248924
 10
1133.654466816788
 20
-1117.002548988437
 10
1134.080932980487
 20
-1116.185087511513
 10
1133.891392908943
 20
-1115.048728963327
 10
1133.021668966828
 20
-1114.589214144332
 10
1132.210049159413
 20
-1114.160398389311
 10
1131.064025899306
 20
-1114.348530099557
 10
1130.608334122723
 20
-1115.222011994292
 10
1130.608334122723
 20
-1115.222011994292
 10
1130.608334122723
 20
-1115.222011994292
 10
1130.608334122723
 20
-1115.222011994292
 97
        0
 97
        1
330
92
 75
     2
 76
     1
 98
        1
 10
0.0
 20
0.0
450
        0
451
        0
460
0.0
461
0.0
452
        0
462
0.0
453
        0
470

  0
SPLINE
  5
94
330
70
100
AcDbEntity
  8
2023-030
100
AcDbSpline
210
0.0
220
0.0
230
1.0
 70
     9
 71
     3
 72
    89
 73
    85
 74
     0
 42
0.0000000001
 43
0.0000000001
 40
0.0
 40
0.0
 40
0.0
 40
0.0
 40
1.0
 40
1.0
 40
1.0
 40
2.0
 40
2.0
 40
2.0
 40
3.0
 40
3.0
 40
3.0
 40
4.0
 40
4.0
 40
4.0
 40
5.0
 40
5.0
 40
5.0
 40
6.0
 40
6.0
 40
6.0
 40
7.0
 40
7.0
 40
7.0
 40
8.0
 40
8.0
 40
8.0
 40
9.0
 40
9.0
 40
9.0
 40
10.0
 40
10.0
 40
10.0
 40
11.0
 40
11.0
 40
11.0
 40
12.0
 40
12.0
 40
12.0
 40
13.0
 40
13.0
 40
13.0
 40
14.0
 40
14.0
 40
14.0
 40
15.0
 40
15.0
 40
15.0
 40
16.0
 40
16.0
 40
16.0
 40
17.0
 40
17.0
 40
17.0
 40
18.0
 40
18.0
 40
18.0
 40
19.0
 40
19.0
 40
19.0
 40
20.0
 40
20.0
 40
20.0
 40
21.0
 40
21.0
 40
21.0
 40
22.0
 40
22.0
 40
22.0
 40
23.0
 40
23.0
 40
23.0
 40
24.0
 40
24.0
 40
24.0
 40
25.0
 40
25.0
 40
25.0
 40
26.0
 40
26.0
 40
26.0
 40
27.0
 40
27.0
 40
27.0
 40
28.0
 40
28.0
 40
28.0
 40
28.0
 10
1159.315372475916
 20
-1141.436798705119
 30
0.0
 10
1159.334476242383
 20
-1134.954344435778
 30
0.0
 10
1159.353580008853
 20
-1128.471890166436
 30
0.0
 10
1159.372683775319
 20
-1121.989435897095
 30
0.0
 10
1158.277032030159
 20
-1122.286192062786
 30
0.0
 10
1157.181380284999
 20
-1122.582948228477
 30
0.0
 10
1156.085728539839
 20
-1122.879704394168
 30
0.0
 10
1158.340833780936
 20
-1126.278707479813
 30
0.0
 10
1160.341633022715
 20
-1129.838688426752
 30
0.0
 10
1162.14490453122
 20
-1133.4963196341
 30
0.0
 10
1163.034115753218
 20
-1135.299934175872
 30
0.0
 10
1163.876978914908
 20
-1137.126150776678
 30
0.0
 10
1164.684884996417
 20
-1138.967550457891
 30
0.0
 10
1164.870845439751
 20
-1139.391396136133
 30
0.0
 10
1165.054958249255
 20
-1139.816052385287
 30
0.0
 10
1165.237390319958
 20
-1140.241428480927
 30
0.0
 10
1165.338690579733
 20
-1140.477629872627
 30
0.0
 10
1165.439172042491
 20
-1140.714176822022
 30
0.0
 10
1165.539752395665
 20
-1140.950685225414
 30
0.0
 10
1165.565594622762
 20
-1141.011451604514
 30
0.0
 10
1165.670966303572
 20
-1141.263010956517
 30
0.0
 10
1165.541878067785
 20
-1140.955381601469
 30
0.0
 10
1165.601519764498
 20
-1141.097513350209
 30
0.0
 10
1165.661297563576
 20
-1141.239586087103
 30
0.0
 10
1165.720757060893
 20
-1141.381794349113
 30
0.0
 10
1166.107039139987
 20
-1142.305658586
 30
0.0
 10
1166.486295049537
 20
-1143.232451600662
 30
0.0
 10
1166.860200298932
 20
-1144.161390982624
 30
0.0
 10
1169.869890530338
 20
-1151.638739289407
 30
0.0
 10
1172.548032778591
 20
-1159.245717823603
 30
0.0
 10
1175.721474408224
 20
-1166.657559848423
 30
0.0
 10
1177.506984464079
 20
-1170.827769990039
 30
0.0
 10
1179.459352483982
 20
-1174.928291593
 30
0.0
 10
1181.69360002383
 20
-1178.878166071433
 30
0.0
 10
1182.148174359174
 20
-1179.681797510521
 30
0.0
 10
1183.314066550494
 20
-1180.022136601152
 30
0.0
 10
1184.106934867935
 20
-1179.510963921393
 30
0.0
 10
1184.91922858377
 20
-1178.987267430637
 30
0.0
 10
1185.226061172015
 20
-1177.957397887505
 30
0.0
 10
1184.739732717895
 20
-1177.097629077288
 30
0.0
 10
1182.746728355302
 20
-1173.574242824506
 30
0.0
 10
1180.976375046696
 20
-1169.930720675774
 30
0.0
 10
1179.35129452576
 20
-1166.224335473711
 30
0.0
 10
1179.165098445457
 20
-1165.799670733826
 30
0.0
 10
1178.980706269338
 20
-1165.37421587987
 30
0.0
 10
1178.798010671601
 20
-1164.948033575473
 30
0.0
 10
1178.69657707591
 20
-1164.711414827727
 30
0.0
 10
1178.595909573452
 20
-1164.474474742696
 30
0.0
 10
1178.495247291452
 20
-1164.237527410778
 30
0.0
 10
1178.46952553002
 20
-1164.176981368882
 30
0.0
 10
1178.364276499205
 20
-1163.925101591203
 30
0.0
 10
1178.492891538119
 20
-1164.232114700471
 30
0.0
 10
1178.433241370191
 20
-1164.089725570252
 30
0.0
 10
1178.373324373844
 20
-1163.947448624419
 30
0.0
 10
1178.313790489887
 20
-1163.805010606979
 30
0.0
 10
1177.917195844291
 20
-1162.856136599593
 30
0.0
 10
1177.527968911954
 20
-1161.90419180002
 30
0.0
 10
1177.144320849974
 20
-1160.950012889297
 30
0.0
 10
1176.406750541198
 20
-1159.11558674837
 30
0.0
 10
1175.689923115852
 20
-1157.272899777564
 30
0.0
 10
1174.980893961751
 20
-1155.427279411318
 30
0.0
 10
1172.090280699806
 20
-1147.902941834601
 30
0.0
 10
1169.314011657841
 20
-1140.319486587115
 30
0.0
 10
1165.834072582636
 20
-1133.040383954657
 30
0.0
 10
1163.863431404667
 20
-1128.918329207095
 30
0.0
 10
1161.6587508961
 20
-1124.907817037462
 30
0.0
 10
1159.131861233904
 20
-1121.099167400022
 30
0.0
 10
1158.713149019223
 20
-1120.468064210796
 30
0.0
 10
1157.907536129843
 20
-1120.040131835775
 30
0.0
 10
1157.139883348786
 20
-1120.288554824447
 30
0.0
 10
1156.396943430841
 20
-1120.528980391024
 30
0.0
 10
1155.847266894437
 20
-1121.188316365774
 30
0.0
 10
1155.844905998424
 20
-1121.989435897095
 30
0.0
 10
1155.825802231957
 20
-1128.471890166436
 30
0.0
 10
1155.806698465487
 20
-1134.954344435778
 30
0.0
 10
1155.78759469902
 20
-1141.436798705119
 30
0.0
 10
1155.784875413009
 20
-1142.359530211865
 30
0.0
 10
1156.600848713617
 20
-1143.243266646089
 30
0.0
 10
1157.551483587468
 20
-1143.200687593567
 30
0.0
 10
1158.509490678817
 20
-1143.157778338519
 30
0.0
 10
1159.312458155037
 20
-1142.425711119878
 30
0.0
 10
1159.315372475916
 20
-1141.436798705119
 30
0.0
 10
1159.315372475916
 20
-1141.436798705119
 30
0.0
 10
1159.315372475916
 20
-1141.436798705119
 30
0.0
 10
1159.315372475916
 20
-1141.436798705119
 30
0.0
  0
HATCH
  5
95
330
70
100
AcDbEntity
  8
2023-030
 62
   250
420
  2301728
440
 33554687
100
AcDbHatch
 10
0.0
 20
0.0
 30
0.0
210
0.0
220
0.0
230
1.0
  2
SOLID
 70
     1
 71
     1
 91
        1
 92
        1
 93
        1
 72
     4
 94
        3
 73
     0
 74
     0
 95
       89
 96
       85
 40
0.0
 40
0.0
 40
0.0
 40
0.0
 40
1.0
 40
1.0
 40
1.0
 40
2.0
 40
2.0
 40
2.0
 40
3.0
 40
3.0
 40
3.0
 40
4.0
 40
4.0
 40
4.0
 40
5.0
 40
5.0
 40
5.0
 40
6.0
 40
6.0
 40
6.0
 40
7.0
 40
7.0
 40
7.0
 40
8.0
 40
8.0
 40
8.0
 40
9.0
 40
9.0
 40
9.0
 40
10.0
 40
10.0
 40
10.0
 40
11.0
 40
11.0
 40
11.0
 40
12.0
 40
12.0
 40
12.0
 40
13.0
 40
13.0
 40
13.0
 40
14.0
 40
14.0
 40
14.0
 40
15.0
 40
15.0
 40
15.0
 40
16.0
 40
16.0
 40
16.0
 40
17.0
 40
17.0
 40
17.0
 40
18.0
 40
18.0
 40
18.0
 40
19.0
 40
19.0
 40
19.0
 40
20.0
 40
20.0
 40
20.0
 40
21.0
 40
21.0
 40
21.0
 40
22.0
 40
22.0
 40
22.0
 40
23.0
 40
23.0
 40
23.0
 40
24.0
 40
24.0
 40
24.0
 40
25.0
 40
25.0
 40
25.0
 40
26.0
 40
26.0
 40
26.0
 40
27.0
 40
27.0
 40
27.0
 40
28.0
 40
28.0
 40
28.0
 40
28.0
 10
1159.315372475916
 20
-1141.436798705119
 10
1159.334476242383
 20
-1134.954344435778
 10
1159.353580008853
 20
-1128.471890166436
 10
1159.372683775319
 20
-1121.989435897095
 10
1158.277032030159
 20
-1122.286192062786
 10
1157.181380284999
 20
-1122.582948228477
 10
1156.085728539839
 20
-1122.879704394168
 10
1158.340833780936
 20
-1126.278707479813
 10
1160.341633022715
 20
-1129.838688426752
 10
1162.14490453122
 20
-1133.4963196341
 10
1163.034115753218
 20
-1135.299934175872
 10
1163.876978914908
 20
-1137.126150776678
 10
1164.684884996417
 20
-1138.967550457891
 10
1164.870845439751
 20
-1139.391396136133
 10
1165.054958249255
 20
-1139.816052385287
 10
1165.237390319958
 20
-1140.241428480927
 10
1165.338690579733
 20
-1140.477629872627
 10
1165.439172042491
 20
-1140.714176822022
 10
1165.539752395665
 20
-1140.950685225414
 10
1165.565594622762
 20
-1141.011451604514
 10
1165.670966303572
 20
-1141.263010956517
 10
1165.541878067785
 20
-1140.955381601469
 10
1165.601519764498
 20
-1141.097513350209
 10
1165.661297563576
 20
-1141.239586087103
 10
1165.720757060893
 20
-1141.381794349113
 10
1166.107039139987
 20
-1142.305658586
 10
1166.486295049537
 20
-1143.232451600662
 10
1166.860200298932
 20
-1144.161390982624
 10
1169.869890530338
 20
-1151.638739289407
 10
1172.548032778591
 20
-1159.245717823603
 10
1175.721474408224
 20
-1166.657559848423
 10
1177.506984464079
 20
-1170.827769990039
 10
1179.459352483982
 20
-1174.928291593
 10
1181.69360002383
 20
-1178.878166071433
 10
1182.148174359174
 20
-1179.681797510521
 10
1183.314066550494
 20
-1180.022136601152
 10
1184.106934867935
 20
-1179.510963921393
 10
1184.91922858377
 20
-1178.987267430637
 10
1185.226061172015
 20
-1177.957397887505
 10
1184.739732717895
 20
-1177.097629077288
 10
1182.746728355302
 20
-1173.574242824506
 10
1180.976375046696
 20
-1169.930720675774
 10
1179.35129452576
 20
-1166.224335473711
 10
1179.165098445457
 20
-1165.799670733826
 10
1178.980706269338
 20
-1165.37421587987
 10
1178.798010671601
 20
-1164.948033575473
 10
1178.69657707591
 20
-1164.711414827727
 10
1178.595909573452
 20
-1164.474474742696
 10
1178.495247291452
 20
-1164.237527410778
 10
1178.46952553002
 20
-1164.176981368882
 10
1178.364276499205
 20
-1163.925101591203
 10
1178.492891538119
 20
-1164.232114700471
 10
1178.433241370191
 20
-1164.089725570252
 10
1178.373324373844
 20
-1163.947448624419
 10
1178.313790489887
 20
-1163.805010606979
 10
1177.917195844291
 20
-1162.856136599593
 10
1177.527968911954
 20
-1161.90419180002
 10
1177.144320849974
 20
-1160.950012889297
 10
1176.406750541198
 20
-1159.11558674837
 10
1175.689923115852
 20
-1157.272899777564
 10
1174.980893961751
 20
-1155.427279411318
 10
1172.090280699806
 20
-1147.902941834601
 10
1169.314011657841
 20
-1140.319486587115
 10
1165.834072582636
 20
-1133.040383954657
 10
1163.863431404667
 20
-1128.918329207095
 10
1161.6587508961
 20
-1124.907817037462
 10
1159.131861233904
 20
-1121.099167400022
 10
1158.713149019223
 20
-1120.468064210796
 10
1157.907536129843
 20
-1120.040131835775
 10
1157.139883348786
 20
-1120.288554824447
 10
1156.396943430841
 20
-1120.528980391024
 10
1155.847266894437
 20
-1121.188316365774
 10
1155.844905998424
 20
-1121.989435897095
 10
1155.825802231957
 20
-1128.471890166436
 10
1155.806698465487
 20
-1134.954344435778
 10
1155.78759469902
 20
-1141.436798705119
 10
1155.784875413009
 20
-1142.359530211865
 10
1156.600848713617
 20
-1143.243266646089
 10
1157.551483587468
 20
-1143.200687593567
 10
1158.509490678817
 20
-1143.157778338519
 10
1159.312458155037
 20
-1142.425711119878
 10
1159.315372475916
 20
-1141.436798705119
 10
1159.315372475916
 20
-1141.436798705119
 10
1159.315372475916
 20
-1141.436798705119
 10
1159.315372475916
 20
-1141.436798705119
 97
        0
 97
        1
330
94
 75
     2
 76
     1
 98
        1
 10
0.0
 20
0.0
450
        0
451
        0
460
0.0
461
0.0
452
        0
462
0.0
453
        0
470

  0
SPLINE
  5
96
330
70
100
AcDbEntity
  8
2023-030
100
AcDbSpline
210
0.0
220
0.0
230
1.0
 70
     9
 71
     3
 72
   128
 73
   124
 74
     0
 42
0.0000000001
 43
0.0000000001
 40
0.0
 40
0.0
 40
0.0
 40
0.0
 40
1.0
 40
1.0
 40
1.0
 40
2.0
 40
2.0
 40
2.0
 40
3.0
 40
3.0
 40
3.0
 40
4.0
 40
4.0
 40
4.0
 40
5.0
 40
5.0
 40
5.0
 40
6.0
 40
6.0
 40
6.0
 40
7.0
 40
7.0
 40
7.0
 40
8.0
 40
8.0
 40
8.0
 40
9.0
 40
9.0
 40
9.0
 40
10.0
 40
10.0
 40
10.0
 40
11.0
 40
11.0
 40
11.0
 40
12.0
 40
12.0
 40
12.0
 40
13.0
 40
13.0
 40
13.0
 40
14.0
 40
14.0
 40
14.0
 40
15.0
 40
15.0
 40
15.0
 40
16.0
 40
16.0
 40
16.0
 40
17.0
 40
17.0
 40
17.0
 40
18.0
 40
18.0
 40
18.0
 40
19.0
 40
19.0
 40
19.0
 40
20.0
 40
20.0
 40
20.0
 40
21.0
 40
21.0
 40
21.0
 40
22.0
 40
22.0
 40
22.0
 40
23.0
 40
23.0
 40
23.0
 40
24.0
 40
24.0
 40
24.0
 40
25.0
 40
25.0
 40
25.0
 40
26.0
 40
26.0
 40
26.0
 40
27.0
 40
27.0
 40
27.0
 40
28.0
 40
28.0
 40
28.0
 40
29.0
 40
29.0
 40
29.0
 40
30.0
 40
30.0
 40
30.0
 40
31.0
 40
31.0
 40
31.0
 40
32.0
 40
32.0
 40
32.0
 40
33.0
 40
33.0
 40
33.0
 40
34.0
 40
34.0
 40
34.0
 40
35.0
 40
35.0
 40
35.0
 40
36.0
 40
36.0
 40
36.0
 40
37.0
 40
37.0
 40
37.0
 40
38.0
 40
38.0
 40
38.0
 40
39.0
 40
39.0
 40
39.0
 40
40.0
 40
40.0
 40
40.0
 40
41.0
 40
41.0
 40
41.0
 40
41.0
 10
1128.530617313386
 20
-1169.943711818976
 30
0.0
 10
1128.58635899712
 20
-1169.956715061681
 30
0.0
 10
1128.644696228276
 20
-1169.97805496704
 30
0.0
 10
1128.700667155285
 20
-1169.987675812037
 30
0.0
 10
1128.926766090398
 20
-1170.026539967501
 30
0.0
 10
1128.391024473617
 20
-1169.825776888807
 30
0.0
 10
1128.575893055692
 20
-1169.940847000643
 30
0.0
 10
1128.737372049959
 20
-1170.041358432713
 30
0.0
 10
1128.414229862353
 20
-1169.805134564841
 30
0.0
 10
1128.423320598061
 20
-1169.813883760495
 30
0.0
 10
1128.478138291786
 20
-1169.866641946751
 30
0.0
 10
1128.548231033382
 20
-1169.979447426185
 30
0.0
 10
1128.41894341562
 20
-1169.779782619176
 30
0.0
 10
1128.234198921444
 20
-1169.49447321048
 30
0.0
 10
1128.455416988752
 20
-1169.904155446669
 30
0.0
 10
1128.491094511002
 20
-1169.932419555224
 30
0.0
 10
1128.451369307537
 20
-1169.900948831018
 30
0.0
 10
1128.408542000516
 20
-1169.601406794121
 30
0.0
 10
1128.401828350749
 20
-1169.744887244564
 30
0.0
 10
1128.400449683405
 20
-1169.774351368899
 30
0.0
 10
1128.454023586197
 20
-1169.981658870792
 30
0.0
 10
1128.463479779389
 20
-1169.991299007152
 30
0.0
 10
1128.456864345084
 20
-1169.984554888511
 30
0.0
 10
1128.438932517265
 20
-1169.599525689753
 30
0.0
 10
1128.435662726802
 20
-1169.776955550909
 30
0.0
 10
1128.434732090856
 20
-1169.827454996829
 30
0.0
 10
1128.444243173179
 20
-1169.880523891363
 30
0.0
 10
1128.446367507078
 20
-1169.931186609714
 30
0.0
 10
1128.451376506492
 20
-1170.050645008709
 30
0.0
 10
1128.445010298859
 20
-1170.168891375726
 30
0.0
 10
1128.441032741463
 20
-1170.288230003263
 30
0.0
 10
1128.429404431753
 20
-1170.637114100502
 30
0.0
 10
1128.481646093214
 20
-1170.099932003588
 30
0.0
 10
1128.444286816025
 20
-1170.303042071884
 30
0.0
 10
1128.405672029161
 20
-1170.512977932186
 30
0.0
 10
1128.374762281596
 20
-1170.724049936861
 30
0.0
 10
1128.333347024057
 20
-1170.933562476627
 30
0.0
 10
1128.192582805415
 20
-1171.645664023476
 30
0.0
 10
1128.001274209376
 20
-1172.347635002723
 30
0.0
 10
1127.763100484708
 20
-1173.033310642776
 30
0.0
 10
1127.700753762158
 20
-1173.212799916625
 30
0.0
 10
1127.635015572391
 20
-1173.391094828183
 30
0.0
 10
1127.566362175924
 20
-1173.568262229736
 30
0.0
 10
1127.536842199033
 20
-1173.644441674144
 30
0.0
 10
1127.50635765233
 20
-1173.720205905578
 30
0.0
 10
1127.476283154322
 20
-1173.796165990216
 30
0.0
 10
1127.503273640248
 20
-1173.727995289752
 30
0.0
 10
1127.604237852315
 20
-1173.509682445581
 30
0.0
 10
1127.462709530597
 20
-1173.827750285425
 30
0.0
 10
1127.305725975378
 20
-1174.18055189922
 30
0.0
 10
1127.129181035945
 20
-1174.521784134177
 30
0.0
 10
1126.960463494569
 20
-1174.868808965996
 30
0.0
 10
1126.690955830162
 20
-1175.423142861284
 30
0.0
 10
1126.521684266302
 20
-1175.926631192171
 30
0.0
 10
1126.605258299668
 20
-1176.548598927947
 30
0.0
 10
1126.683259985492
 20
-1177.129096601266
 30
0.0
 10
1126.997451612017
 20
-1177.614823688524
 30
0.0
 10
1127.455586326669
 20
-1177.968776800287
 30
0.0
 10
1128.095147203849
 20
-1178.462899064766
 30
0.0
 10
1128.925656928504
 20
-1178.596456122332
 30
0.0
 10
1129.718135901234
 20
-1178.578839387956
 30
0.0
 10
1131.197701776453
 20
-1178.545948775192
 30
0.0
 10
1132.65303206751
 20
-1178.526799193929
 30
0.0
 10
1134.124967129373
 20
-1178.726965267917
 30
0.0
 10
1133.794659511836
 20
-1178.682047267983
 30
0.0
 10
1134.275851330452
 20
-1178.753597042113
 30
0.0
 10
1134.379978926497
 20
-1178.770652510648
 30
0.0
 10
1134.593340453362
 20
-1178.805599834377
 30
0.0
 10
1134.806169695796
 20
-1178.843613780243
 30
0.0
 10
1135.018429389593
 20
-1178.884727410833
 30
0.0
 10
1135.414477782525
 20
-1178.96143998415
 30
0.0
 10
1135.808427289717
 20
-1179.048857466198
 30
0.0
 10
1136.19968747167
 20
-1179.147130806516
 30
0.0
 10
1137.024031017593
 20
-1179.354182271407
 30
0.0
 10
1137.833573898889
 20
-1179.612682281043
 30
0.0
 10
1138.627489652537
 20
-1179.915835154473
 30
0.0
 10
1139.491295092176
 20
-1180.245675064951
 30
0.0
 10
1140.599675049059
 20
-1179.55144652904
 30
0.0
 10
1140.79728226327
 20
-1178.683865619911
 30
0.0
 10
1141.026633994888
 20
-1177.67691258623
 30
0.0
 10
1140.49020395933
 20
-1176.867238232168
 30
0.0
 10
1139.565312728709
 20
-1176.514073009177
 30
0.0
 10
1136.711147318799
 20
-1175.424223813865
 30
0.0
 10
1133.590039351889
 20
-1174.92885799495
 30
0.0
 10
1130.538047130678
 20
-1175.016267664808
 30
0.0
 10
1130.226765483997
 20
-1175.025182833655
 30
0.0
 10
1129.915456091937
 20
-1175.05254504999
 30
0.0
 10
1129.604071031394
 20
-1175.052662857116
 30
0.0
 10
1129.542949551191
 20
-1175.052685981366
 30
0.0
 10
1129.23234451075
 20
-1175.004924386048
 30
0.0
 10
1129.199570576276
 20
-1175.033494685571
 30
0.0
 10
1129.161430463857
 20
-1175.066742888849
 30
0.0
 10
1129.59848584345
 20
-1175.018504579026
 30
0.0
 10
1129.394867475742
 20
-1175.050757598444
 30
0.0
 10
1129.323957173981
 20
-1175.061989744961
 30
0.0
 10
1129.103377005969
 20
-1174.921977763459
 30
0.0
 10
1129.366742855926
 20
-1175.059033658412
 30
0.0
 10
1129.797237047118
 20
-1175.283063336733
 30
0.0
 10
1129.720858028329
 20
-1175.329039473519
 30
0.0
 10
1129.883108402072
 20
-1175.890983895487
 30
0.0
 10
1129.837139442505
 20
-1175.731773165698
 30
0.0
 10
1130.180506698881
 20
-1176.496022995224
 30
0.0
 10
1130.006596188634
 20
-1176.649345960141
 30
0.0
 10
1130.105295545932
 20
-1176.562330643614
 30
0.0
 10
1130.173191588677
 20
-1176.325072516753
 30
0.0
 10
1130.231339472928
 20
-1176.206038137154
 30
0.0
 10
1130.454591646108
 20
-1175.74901920566
 30
0.0
 10
1130.654765468324
 20
-1175.280453671528
 30
0.0
 10
1130.846947822862
 20
-1174.809688884254
 30
0.0
 10
1131.424894557487
 20
-1173.393965925529
 30
0.0
 10
1131.841558170895
 20
-1171.866818329097
 30
0.0
 10
1131.965453685418
 20
-1170.338481172745
 30
0.0
 10
1132.101158861977
 20
-1168.664463639147
 30
0.0
 10
1131.18274946672
 20
-1166.94185824317
 30
0.0
 10
1129.468440389558
 20
-1166.54194967368
 30
0.0
 10
1128.571694208982
 20
-1166.332759576604
 30
0.0
 10
1127.515933598904
 20
-1166.819940730896
 30
0.0
 10
1127.298647778824
 20
-1167.773919208242
 30
0.0
 10
1127.093312135862
 20
-1168.675431253279
 30
0.0
 10
1127.569511066587
 20
-1169.719508010336
 30
0.0
 10
1128.530617313386
 20
-1169.943711818976
 30
0.0
 10
1128.530617313386
 20
-1169.943711818976
 30
0.0
 10
1128.530617313386
 20
-1169.943711818976
 30
0.0
 10
1128.530617313386
 20
-1169.943711818976
 30
0.0
  0
HATCH
  5
97
330
70
100
AcDbEntity
  8
2023-030
 62
   250
420
  2301728
440
 33554687
100
AcDbHatch
 10
0.0
 20
0.0
 30
0.0
210
0.0
220
0.0
230
1.0
  2
SOLID
 70
     1
 71
     1
 91
        1
 92
        1
 93
        1
 72
     4
 94
        3
 73
     0
 74
     0
 95
      128
 96
      124
 40
0.0
 40
0.0
 40
0.0
 40
0.0
 40
1.0
 40
1.0
 40
1.0
 40
2.0
 40
2.0
 40
2.0
 40
3.0
 40
3.0
 40
3.0
 40
4.0
 40
4.0
 40
4.0
 40
5.0
 40
5.0
 40
5.0
 40
6.0
 40
6.0
 40
6.0
 40
7.0
 40
7.0
 40
7.0
 40
8.0
 40
8.0
 40
8.0
 40
9.0
 40
9.0
 40
9.0
 40
10.0
 40
10.0
 40
10.0
 40
11.0
 40
11.0
 40
11.0
 40
12.0
 40
12.0
 40
12.0
 40
13.0
 40
13.0
 40
13.0
 40
14.0
 40
14.0
 40
14.0
 40
15.0
 40
15.0
 40
15.0
 40
16.0
 40
16.0
 40
16.0
 40
17.0
 40
17.0
 40
17.0
 40
18.0
 40
18.0
 40
18.0
 40
19.0
 40
19.0
 40
19.0
 40
20.0
 40
20.0
 40
20.0
 40
21.0
 40
21.0
 40
21.0
 40
22.0
 40
22.0
 40
22.0
 40
23.0
 40
23.0
 40
23.0
 40
24.0
 40
24.0
 40
24.0
 40
25.0
 40
25.0
 40
25.0
 40
26.0
 40
26.0
 40
26.0
 40
27.0
 40
27.0
 40
27.0
 40
28.0
 40
28.0
 40
28.0
 40
29.0
 40
29.0
 40
29.0
 40
30.0
 40
30.0
 40
30.0
 40
31.0
 40
31.0
 40
31.0
 40
32.0
 40
32.0
 40
32.0
 40
33.0
 40
33.0
 40
33.0
 40
34.0
 40
34.0
 40
34.0
 40
35.0
 40
35.0
 40
35.0
 40
36.0
 40
36.0
 40
36.0
 40
37.0
 40
37.0
 40
37.0
 40
38.0
 40
38.0
 40
38.0
 40
39.0
 40
39.0
 40
39.0
 40
40.0
 40
40.0
 40
40.0
 40
41.0
 40
41.0
 40
41.0
 40
41.0
 10
1128.530617313386
 20
-1169.943711818976
 10
1128.58635899712
 20
-1169.956715061681
 10
1128.644696228276
 20
-1169.97805496704
 10
1128.700667155285
 20
-1169.987675812037
 10
1128.926766090398
 20
-1170.026539967501
 10
1128.391024473617
 20
-1169.825776888807
 10
1128.575893055692
 20
-1169.940847000643
 10
1128.737372049959
 20
-1170.041358432713
 10
1128.414229862353
 20
-1169.805134564841
 10
1128.423320598061
 20
-1169.813883760495
 10
1128.478138291786
 20
-1169.866641946751
 10
1128.548231033382
 20
-1169.979447426185
 10
1128.41894341562
 20
-1169.779782619176
 10
1128.234198921444
 20
-1169.49447321048
 10
1128.455416988752
 20
-1169.904155446669
 10
1128.491094511002
 20
-1169.932419555224
 10
1128.451369307537
 20
-1169.900948831018
 10
1128.408542000516
 20
-1169.601406794121
 10
1128.401828350749
 20
-1169.744887244564
 10
1128.400449683405
 20
-1169.774351368899
 10
1128.454023586197
 20
-1169.981658870792
 10
1128.463479779389
 20
-1169.991299007152
 10
1128.456864345084
 20
-1169.984554888511
 10
1128.438932517265
 20
-1169.599525689753
 10
1128.435662726802
 20
-1169.776955550909
 10
1128.434732090856
 20
-1169.827454996829
 10
1128.444243173179
 20
-1169.880523891363
 10
1128.446367507078
 20
-1169.931186609714
 10
1128.451376506492
 20
-1170.050645008709
 10
1128.445010298859
 20
-1170.168891375726
 10
1128.441032741463
 20
-1170.288230003263
 10
1128.429404431753
 20
-1170.637114100502
 10
1128.481646093214
 20
-1170.099932003588
 10
1128.444286816025
 20
-1170.303042071884
 10
1128.405672029161
 20
-1170.512977932186
 10
1128.374762281596
 20
-1170.724049936861
 10
1128.333347024057
 20
-1170.933562476627
 10
1128.192582805415
 20
-1171.645664023476
 10
1128.001274209376
 20
-1172.347635002723
 10
1127.763100484708
 20
-1173.033310642776
 10
1127.700753762158
 20
-1173.212799916625
 10
1127.635015572391
 20
-1173.391094828183
 10
1127.566362175924
 20
-1173.568262229736
 10
1127.536842199033
 20
-1173.644441674144
 10
1127.50635765233
 20
-1173.720205905578
 10
1127.476283154322
 20
-1173.796165990216
 10
1127.503273640248
 20
-1173.727995289752
 10
1127.604237852315
 20
-1173.509682445581
 10
1127.462709530597
 20
-1173.827750285425
 10
1127.305725975378
 20
-1174.18055189922
 10
1127.129181035945
 20
-1174.521784134177
 10
1126.960463494569
 20
-1174.868808965996
 10
1126.690955830162
 20
-1175.423142861284
 10
1126.521684266302
 20
-1175.926631192171
 10
1126.605258299668
 20
-1176.548598927947
 10
1126.683259985492
 20
-1177.129096601266
 10
1126.997451612017
 20
-1177.614823688524
 10
1127.455586326669
 20
-1177.968776800287
 10
1128.095147203849
 20
-1178.462899064766
 10
1128.925656928504
 20
-1178.596456122332
 10
1129.718135901234
 20
-1178.578839387956
 10
1131.197701776453
 20
-1178.545948775192
 10
1132.65303206751
 20
-1178.526799193929
 10
1134.124967129373
 20
-1178.726965267917
 10
1133.794659511836
 20
-1178.682047267983
 10
1134.275851330452
 20
-1178.753597042113
 10
1134.379978926497
 20
-1178.770652510648
 10
1134.593340453362
 20
-1178.805599834377
 10
1134.806169695796
 20
-1178.843613780243
 10
1135.018429389593
 20
-1178.884727410833
 10
1135.414477782525
 20
-1178.96143998415
 10
1135.808427289717
 20
-1179.048857466198
 10
1136.19968747167
 20
-1179.147130806516
 10
1137.024031017593
 20
-1179.354182271407
 10
1137.833573898889
 20
-1179.612682281043
 10
1138.627489652537
 20
-1179.915835154473
 10
1139.491295092176
 20
-1180.245675064951
 10
1140.599675049059
 20
-1179.55144652904
 10
1140.79728226327
 20
-1178.683865619911
 10
1141.026633994888
 20
-1177.67691258623
 10
1140.49020395933
 20
-1176.867238232168
 10
1139.565312728709
 20
-1176.514073009177
 10
1136.711147318799
 20
-1175.424223813865
 10
1133.590039351889
 20
-1174.92885799495
 10
1130.538047130678
 20
-1175.016267664808
 10
1130.226765483997
 20
-1175.025182833655
 10
1129.915456091937
 20
-1175.05254504999
 10
1129.604071031394
 20
-1175.052662857116
 10
1129.542949551191
 20
-1175.052685981366
 10
1129.23234451075
 20
-1175.004924386048
 10
1129.199570576276
 20
-1175.033494685571
 10
1129.161430463857
 20
-1175.066742888849
 10
1129.59848584345
 20
-1175.018504579026
 10
1129.394867475742
 20
-1175.050757598444
 10
1129.323957173981
 20
-1175.061989744961
 10
1129.103377005969
 20
-1174.921977763459
 10
1129.366742855926
 20
-1175.059033658412
 10
1129.797237047118
 20
-1175.283063336733
 10
1129.720858028329
 20
-1175.329039473519
 10
1129.883108402072
 20
-1175.890983895487
 10
1129.837139442505
 20
-1175.731773165698
 10
1130.180506698881
 20
-1176.496022995224
 10
1130.006596188634
 20
-1176.649345960141
 10
1130.105295545932
 20
-1176.562330643614
 10
1130.173191588677
 20
-1176.325072516753
 10
1130.231339472928
 20
-1176.206038137154
 10
1130.454591646108
 20
-1175.74901920566
 10
1130.654765468324
 20
-1175.280453671528
 10
1130.846947822862
 20
-1174.809688884254
 10
1131.424894557487
 20
-1173.393965925529
 10
1131.841558170895
 20
-1171.866818329097
 10
1131.965453685418
 20
-1170.338481172745
 10
1132.101158861977
 20
-1168.664463639147
 10
1131.18274946672
 20
-1166.94185824317
 10
1129.468440389558
 20
-1166.54194967368
 10
1128.571694208982
 20
-1166.332759576604
 10
1127.515933598904
 20
-1166.819940730896
 10
1127.298647778824
 20
-1167.773919208242
 10
1127.093312135862
 20
-1168.675431253279
 10
1127.569511066587
 20
-1169.719508010336
 10
1128.530617313386
 20
-1169.943711818976
 10
1128.530617313386
 20
-1169.943711818976
 10
1128.530617313386
 20
-1169.943711818976
 10
1128.530617313386
 20
-1169.943711818976
 97
        0
 97
        1
330
96
 75
     2
 76
     1
 98
        1
 10
0.0
 20
0.0
450
        0
451
        0
460
0.0
461
0.0
452
        0
462
0.0
453
        0
470

  0
SPLINE
  5
98
330
70
100
AcDbEntity
  8
2023-030
100
AcDbSpline
210
0.0
220
0.0
230
1.0
 70
     9
 71
     3
 72
   185
 73
   181
 74
     0
 42
0.0000000001
 43
0.0000000001
 40
0.0
 40
0.0
 40
0.0
 40
0.0
 40
1.0
 40
1.0
 40
1.0
 40
2.0
 40
2.0
 40
2.0
 40
3.0
 40
3.0
 40
3.0
 40
4.0
 40
4.0
 40
4.0
 40
5.0
 40
5.0
 40
5.0
 40
6.0
 40
6.0
 40
6.0
 40
7.0
 40
7.0
 40
7.0
 40
8.0
 40
8.0
 40
8.0
 40
9.0
 40
9.0
 40
9.0
 40
10.0
 40
10.0
 40
10.0
 40
11.0
 40
11.0
 40
11.0
 40
12.0
 40
12.0
 40
12.0
 40
13.0
 40
13.0
 40
13.0
 40
14.0
 40
14.0
 40
14.0
 40
15.0
 40
15.0
 40
15.0
 40
16.0
 40
16.0
 40
16.0
 40
17.0
 40
17.0
 40
17.0
 40
18.0
 40
18.0
 40
18.0
 40
19.0
 40
19.0
 40
19.0
 40
20.0
 40
20.0
 40
20.0
 40
21.0
 40
21.0
 40
21.0
 40
22.0
 40
22.0
 40
22.0
 40
23.0
 40
23.0
 40
23.0
 40
24.0
 40
24.0
 40
24.0
 40
25.0
 40
25.0
 40
25.0
 40
26.0
 40
26.0
 40
26.0
 40
27.0
 40
27.0
 40
27.0
 40
28.0
 40
28.0
 40
28.0
 40
29.0
 40
29.0
 40
29.0
 40
30.0
 40
30.0
 40
30.0
 40
31.0
 40
31.0
 40
31.0
 40
32.0
 40
32.0
 40
32.0
 40
33.0
 40
33.0
 40
33.0
 40
34.0
 40
34.0
 40
34.0
 40
35.0
 40
35.0
 40
35.0
 40
36.0
 40
36.0
 40
36.0
 40
37.0
 40
37.0
 40
37.0
 40
38.0
 40
38.0
 40
38.0
 40
39.0
 40
39.0
 40
39.0
 40
40.0
 40
40.0
 40
40.0
 40
41.0
 40
41.0
 40
41.0
 40
42.0
 40
42.0
 40
42.0
 40
43.0
 40
43.0
 40
43.0
 40
44.0
 40
44.0
 40
44.0
 40
45.0
 40
45.0
 40
45.0
 40
46.0
 40
46.0
 40
46.0
 40
47.0
 40
47.0
 40
47.0
 40
48.0
 40
48.0
 40
48.0
 40
49.0
 40
49.0
 40
49.0
 40
50.0
 40
50.0
 40
50.0
 40
51.0
 40
51.0
 40
51.0
 40
52.0
 40
52.0
 40
52.0
 40
53.0
 40
53.0
 40
53.0
 40
54.0
 40
54.0
 40
54.0
 40
55.0
 40
55.0
 40
55.0
 40
56.0
 40
56.0
 40
56.0
 40
57.0
 40
57.0
 40
57.0
 40
58.0
 40
58.0
 40
58.0
 40
59.0
 40
59.0
 40
59.0
 40
60.0
 40
60.0
 40
60.0
 40
60.0
 10
1146.621391134053
 20
-1169.958533584491
 30
0.0
 10
1147.87300409264
 20
-1169.959587361095
 30
0.0
 10
1149.124617051228
 20
-1169.960641137699
 30
0.0
 10
1150.376230009816
 20
-1169.961694914303
 30
0.0
 10
1150.688926839706
 20
-1169.96195818467
 30
0.0
 10
1151.001826741373
 20
-1169.958987186794
 30
0.0
 10
1151.314501665085
 20
-1169.962901462452
 30
0.0
 10
1151.441383614202
 20
-1169.9644898563
 30
0.0
 10
1151.570962867182
 20
-1169.979993796122
 30
0.0
 10
1151.697171131445
 20
-1169.975742886068
 30
0.0
 10
1151.901079559898
 20
-1169.968874901681
 30
0.0
 10
1151.429620131016
 20
-1169.896212056979
 30
0.0
 10
1151.746660254818
 20
-1169.989502328933
 30
0.0
 10
1152.186573841519
 20
-1170.118948588439
 30
0.0
 10
1151.479112217842
 20
-1169.833347617247
 30
0.0
 10
1151.80210265861
 20
-1170.022827667607
 30
0.0
 10
1151.738514974303
 20
-1169.976559329423
 30
0.0
 10
1151.674927289996
 20
-1169.930290991239
 30
0.0
 10
1151.611339605689
 20
-1169.884022653056
 30
0.0
 10
1151.461371446212
 20
-1169.667094962665
 30
0.0
 10
1151.422120670049
 20
-1169.614330531525
 30
0.0
 10
1151.493587277199
 20
-1169.725729359635
 30
0.0
 10
1151.588424798034
 20
-1169.905611092129
 30
0.0
 10
1151.402482721639
 20
-1169.327390404984
 30
0.0
 10
1151.456432739676
 20
-1169.621441079153
 30
0.0
 10
1151.518633456761
 20
-1169.960461592182
 30
0.0
 10
1151.484287006613
 20
-1169.201424572457
 30
0.0
 10
1151.448611647757
 20
-1169.554440677098
 30
0.0
 10
1151.441707599572
 20
-1169.622757865065
 30
0.0
 10
1151.431730443934
 20
-1169.944343131727
 30
0.0
 10
1151.456313537084
 20
-1169.635332325543
 30
0.0
 10
1151.480430281434
 20
-1169.332183548917
 30
0.0
 10
1151.444023453906
 20
-1169.643560231415
 30
0.0
 10
1151.423818654989
 20
-1169.717043780991
 30
0.0
 10
1151.409685039882
 20
-1169.769395015699
 30
0.0
 10
1151.393588243701
 20
-1169.821121633886
 30
0.0
 10
1151.375528266446
 20
-1169.872223635555
 30
0.0
 10
1151.330703660655
 20
-1169.999428744502
 30
0.0
 10
1151.357472987633
 20
-1169.942586530335
 30
0.0
 10
1151.455836247379
 20
-1169.701696993052
 30
0.0
 10
1151.47835656873
 20
-1169.749254939485
 30
0.0
 10
1151.334304834856
 20
-1169.950526396359
 30
0.0
 10
1151.311336036515
 20
-1169.994264956081
 30
0.0
 10
1151.185107525792
 20
-1170.234636836807
 30
0.0
 10
1151.045542447034
 20
-1170.46765508627
 30
0.0
 10
1150.896067718208
 20
-1170.694270081261
 30
0.0
 10
1150.827274898785
 20
-1170.798565198913
 30
0.0
 10
1150.755878314421
 20
-1170.901117977203
 30
0.0
 10
1150.683030506098
 20
-1171.002609920671
 30
0.0
 10
1150.598705467944
 20
-1171.120092000122
 30
0.0
 10
1150.484886410094
 20
-1171.262401936173
 30
0.0
 10
1150.639615488991
 20
-1171.068548124775
 30
0.0
 10
1149.924447246816
 20
-1171.964553520303
 30
0.0
 10
1149.10159255953
 20
-1172.764254699734
 30
0.0
 10
1148.279305152191
 20
-1173.560332634419
 30
0.0
 10
1147.769614194373
 20
-1174.053777774653
 30
0.0
 10
1147.645297198099
 20
-1174.849055150169
 30
0.0
 10
1147.914589236632
 20
-1175.487180446279
 30
0.0
 10
1148.166303408791
 20
-1176.083652519937
 30
0.0
 10
1148.836153409439
 20
-1176.634180474162
 30
0.0
 10
1149.526562946472
 20
-1176.571479317148
 30
0.0
 10
1151.296254344517
 20
-1176.410760653423
 30
0.0
 10
1153.073380840051
 20
-1176.346544685692
 30
0.0
 10
1154.850021160858
 20
-1176.388301982283
 30
0.0
 10
1155.232323384202
 20
-1176.397287429219
 30
0.0
 10
1155.615232256089
 20
-1176.406979539379
 30
0.0
 10
1155.996438231003
 20
-1176.438907619585
 30
0.0
 10
1156.455021706982
 20
-1176.477316487666
 30
0.0
 10
1155.838384260746
 20
-1176.39223620477
 30
0.0
 10
1156.15615491835
 20
-1176.453067906749
 30
0.0
 10
1156.357275795565
 20
-1176.49156902374
 30
0.0
 10
1156.555554784521
 20
-1176.532559118727
 30
0.0
 10
1156.750955858822
 20
-1176.595049995835
 30
0.0
 10
1157.178653506977
 20
-1176.731831235479
 30
0.0
 10
1156.586466388914
 20
-1176.507111740905
 30
0.0
 10
1156.860413581297
 20
-1176.644101885069
 30
0.0
 10
1157.161998037484
 20
-1176.794912330585
 30
0.0
 10
1156.797481584434
 20
-1176.627832722194
 30
0.0
 10
1156.8055498434
 20
-1176.57846465777
 30
0.0
 10
1156.801321785888
 20
-1176.604335296842
 30
0.0
 10
1156.971721918636
 20
-1176.718005058213
 30
0.0
 10
1156.988156108564
 20
-1176.759908156305
 30
0.0
 10
1156.953000458926
 20
-1176.670269990884
 30
0.0
 10
1156.719325882015
 20
-1176.552214649839
 30
0.0
 10
1156.793453707776
 20
-1176.423885376302
 30
0.0
 10
1156.78653333896
 20
-1176.435865842391
 30
0.0
 10
1156.838487268205
 20
-1176.585711153866
 30
0.0
 10
1156.845014691184
 20
-1176.603435883237
 30
0.0
 10
1156.928603480032
 20
-1176.83041499363
 30
0.0
 10
1156.81599394142
 20
-1176.262743987384
 30
0.0
 10
1156.820400442861
 20
-1176.504881435513
 30
0.0
 10
1156.824119126407
 20
-1176.709223260024
 30
0.0
 10
1156.928038643564
 20
-1176.160374191987
 30
0.0
 10
1156.823808544265
 20
-1176.472507671854
 30
0.0
 10
1156.76772412987
 20
-1176.64046130088
 30
0.0
 10
1156.867793809442
 20
-1176.64164485561
 30
0.0
 10
1156.86737407922
 20
-1176.412891367233
 30
0.0
 10
1156.867463995046
 20
-1176.461895603307
 30
0.0
 10
1156.7495192458
 20
-1176.623428856732
 30
0.0
 10
1156.735729960014
 20
-1176.647601955046
 30
0.0
 10
1156.71914744958
 20
-1176.676671673467
 30
0.0
 10
1156.580332377522
 20
-1176.864311902478
 30
0.0
 10
1156.708926820357
 20
-1176.697359226458
 30
0.0
 10
1156.848627297731
 20
-1176.515987714405
 30
0.0
 10
1156.652837289583
 20
-1176.751609243372
 30
0.0
 10
1156.615145576427
 20
-1176.791523414179
 30
0.0
 10
1156.496918924298
 20
-1176.916721193521
 30
0.0
 10
1156.371171477462
 20
-1177.034518097459
 30
0.0
 10
1156.24068274439
 20
-1177.14686125083
 30
0.0
 10
1156.164551411928
 20
-1177.212405867272
 30
0.0
 10
1156.086582925337
 20
-1177.276454753108
 30
0.0
 10
1156.007505708243
 20
-1177.338487325631
 30
0.0
 10
1156.204759560275
 20
-1177.183750419966
 30
0.0
 10
1156.050542049272
 20
-1177.299973129363
 30
0.0
 10
1155.935163548825
 20
-1177.381996336685
 30
0.0
 10
1155.317978054889
 20
-1177.820756881582
 30
0.0
 10
1154.676061727239
 20
-1178.22593714954
 30
0.0
 10
1154.020588255662
 20
-1178.604857522144
 30
0.0
 10
1153.355690034324
 20
-1178.989226215462
 30
0.0
 10
1152.673782000816
 20
-1179.344144011103
 30
0.0
 10
1151.978782282688
 20
-1179.670878859232
 30
0.0
 10
1151.820099373548
 20
-1179.745479229371
 30
0.0
 10
1151.66077649366
 20
-1179.818718697392
 30
0.0
 10
1151.500720619226
 20
-1179.890329392174
 30
0.0
 10
1151.431196709563
 20
-1179.921435126297
 30
0.0
 10
1150.870240735547
 20
-1180.15972238206
 30
0.0
 10
1151.229020340206
 20
-1180.011886698552
 30
0.0
 10
1150.85419513692
 20
-1180.166333995456
 30
0.0
 10
1150.477458989712
 20
-1180.315644629518
 30
0.0
 10
1150.097104223918
 20
-1180.455988627143
 30
0.0
 10
1148.402079257693
 20
-1181.081422041492
 30
0.0
 10
1146.652480162214
 20
-1181.546942551666
 30
0.0
 10
1144.875128909315
 20
-1181.868563075905
 30
0.0
 10
1143.965006138667
 20
-1182.033254305137
 30
0.0
 10
1143.368083087506
 20
-1183.18834145069
 30
0.0
 10
1143.643159374753
 20
-1184.038355686638
 30
0.0
 10
1143.959125305132
 20
-1185.014723157582
 30
0.0
 10
1144.83780544901
 20
-1185.446782823353
 30
0.0
 10
1145.812951985487
 20
-1185.270325221199
 30
0.0
 10
1149.422832355911
 20
-1184.617099464456
 30
0.0
 10
1152.963359769566
 20
-1183.34702807519
 30
0.0
 10
1156.117956256068
 20
-1181.464845414877
 30
0.0
 10
1157.734849509
 20
-1180.50012981424
 30
0.0
 10
1159.826672414396
 20
-1179.278194447593
 30
0.0
 10
1160.253909153537
 20
-1177.286317541078
 30
0.0
 10
1160.504565687765
 20
-1176.117698561825
 30
0.0
 10
1160.187962415245
 20
-1174.836863284453
 30
0.0
 10
1159.252372318462
 20
-1174.046056641972
 30
0.0
 10
1158.371712536769
 20
-1173.301679796253
 30
0.0
 10
1157.328901131918
 20
-1173.04816130644
 30
0.0
 10
1156.207765630905
 20
-1172.930918766577
 30
0.0
 10
1154.010037754999
 20
-1172.701091776112
 30
0.0
 10
1151.721175971676
 20
-1172.84439262504
 30
0.0
 10
1149.526562946472
 20
-1173.043701540252
 30
0.0
 10
1149.942315544566
 20
-1174.047417101162
 30
0.0
 10
1150.35806814266
 20
-1175.051132662072
 30
0.0
 10
1150.773820740754
 20
-1176.054848222982
 30
0.0
 10
1151.817178792402
 20
-1175.044746018472
 30
0.0
 10
1152.826966887886
 20
-1174.020606092739
 30
0.0
 10
1153.685261522062
 20
-1172.844280131674
 30
0.0
 10
1154.523638760918
 20
-1171.695251730516
 30
0.0
 10
1155.171088803807
 20
-1170.332393839238
 30
0.0
 10
1154.898672154276
 20
-1168.880715239007
 30
0.0
 10
1154.751520087969
 20
-1168.096557934353
 30
0.0
 10
1154.256167843119
 20
-1167.400406866071
 30
0.0
 10
1153.582639652756
 20
-1166.976694973542
 30
0.0
 10
1152.855352709196
 20
-1166.519163823881
 30
0.0
 10
1152.000531173047
 20
-1166.439072337808
 30
0.0
 10
1151.162126518697
 20
-1166.434578811089
 30
0.0
 10
1149.648624111066
 20
-1166.426467019876
 30
0.0
 10
1148.134917139422
 20
-1166.432030097928
 30
0.0
 10
1146.621391134053
 20
-1166.430755807595
 30
0.0
 10
1145.698716503098
 20
-1166.429978975642
 30
0.0
 10
1144.814860956234
 20
-1167.242620300455
 30
0.0
 10
1144.857502245605
 20
-1168.194644696043
 30
0.0
 10
1144.900337000646
 20
-1169.150988474091
 30
0.0
 10
1145.632511924269
 20
-1169.957701012593
 30
0.0
 10
1146.621391134053
 20
-1169.958533584491
 30
0.0
 10
1146.621391134053
 20
-1169.958533584491
 30
0.0
 10
1146.621391134053
 20
-1169.958533584491
 30
0.0
 10
1146.621391134053
 20
-1169.958533584491
 30
0.0
  0
HATCH
  5
99
330
70
100
AcDbEntity
  8
2023-030
 62
   250
420
  2301728
440
 33554687
100
AcDbHatch
 10
0.0
 20
0.0
 30
0.0
210
0.0
220
0.0
230
1.0
  2
SOLID
 70
     1
 71
     1
 91
        1
 92
        1
 93
        1
 72
     4
 94
        3
 73
     0
 74
     0
 95
      185
 96
      181
 40
0.0
 40
0.0
 40
0.0
 40
0.0
 40
1.0
 40
1.0
 40
1.0
 40
2.0
 40
2.0
 40
2.0
 40
3.0
 40
3.0
 40
3.0
 40
4.0
 40
4.0
 40
4.0
 40
5.0
 40
5.0
 40
5.0
 40
6.0
 40
6.0
 40
6.0
 40
7.0
 40
7.0
 40
7.0
 40
8.0
 40
8.0
 40
8.0
 40
9.0
 40
9.0
 40
9.0
 40
10.0
 40
10.0
 40
10.0
 40
11.0
 40
11.0
 40
11.0
 40
12.0
 40
12.0
 40
12.0
 40
13.0
 40
13.0
 40
13.0
 40
14.0
 40
14.0
 40
14.0
 40
15.0
 40
15.0
 40
15.0
 40
16.0
 40
16.0
 40
16.0
 40
17.0
 40
17.0
 40
17.0
 40
18.0
 40
18.0
 40
18.0
 40
19.0
 40
19.0
 40
19.0
 40
20.0
 40
20.0
 40
20.0
 40
21.0
 40
21.0
 40
21.0
 40
22.0
 40
22.0
 40
22.0
 40
23.0
 40
23.0
 40
23.0
 40
24.0
 40
24.0
 40
24.0
 40
25.0
 40
25.0
 40
25.0
 40
26.0
 40
26.0
 40
26.0
 40
27.0
 40
27.0
 40
27.0
 40
28.0
 40
28.0
 40
28.0
 40
29.0
 40
29.0
 40
29.0
 40
30.0
 40
30.0
 40
30.0
 40
31.0
 40
31.0
 40
31.0
 40
32.0
 40
32.0
 40
32.0
 40
33.0
 40
33.0
 40
33.0
 40
34.0
 40
34.0
 40
34.0
 40
35.0
 40
35.0
 40
35.0
 40
36.0
 40
36.0
 40
36.0
 40
37.0
 40
37.0
 40
37.0
 40
38.0
 40
38.0
 40
38.0
 40
39.0
 40
39.0
 40
39.0
 40
40.0
 40
40.0
 40
40.0
 40
41.0
 40
41.0
 40
41.0
 40
42.0
 40
42.0
 40
42.0
 40
43.0
 40
43.0
 40
43.0
 40
44.0
 40
44.0
 40
44.0
 40
45.0
 40
45.0
 40
45.0
 40
46.0
 40
46.0
 40
46.0
 40
47.0
 40
47.0
 40
47.0
 40
48.0
 40
48.0
 40
48.0
 40
49.0
 40
49.0
 40
49.0
 40
50.0
 40
50.0
 40
50.0
 40
51.0
 40
51.0
 40
51.0
 40
52.0
 40
52.0
 40
52.0
 40
53.0
 40
53.0
 40
53.0
 40
54.0
 40
54.0
 40
54.0
 40
55.0
 40
55.0
 40
55.0
 40
56.0
 40
56.0
 40
56.0
 40
57.0
 40
57.0
 40
57.0
 40
58.0
 40
58.0
 40
58.0
 40
59.0
 40
59.0
 40
59.0
 40
60.0
 40
60.0
 40
60.0
 40
60.0
 10
1146.621391134053
 20
-1169.958533584491
 10
1147.87300409264
 20
-1169.959587361095
 10
1149.124617051228
 20
-1169.960641137699
 10
1150.376230009816
 20
-1169.961694914303
 10
1150.688926839706
 20
-1169.96195818467
 10
1151.001826741373
 20
-1169.958987186794
 10
1151.314501665085
 20
-1169.962901462452
 10
1151.441383614202
 20
-1169.9644898563
 10
1151.570962867182
 20
-1169.979993796122
 10
1151.697171131445
 20
-1169.975742886068
 10
1151.901079559898
 20
-1169.968874901681
 10
1151.429620131016
 20
-1169.896212056979
 10
1151.746660254818
 20
-1169.989502328933
 10
1152.186573841519
 20
-1170.118948588439
 10
1151.479112217842
 20
-1169.833347617247
 10
1151.80210265861
 20
-1170.022827667607
 10
1151.738514974303
 20
-1169.976559329423
 10
1151.674927289996
 20
-1169.930290991239
 10
1151.611339605689
 20
-1169.884022653056
 10
1151.461371446212
 20
-1169.667094962665
 10
1151.422120670049
 20
-1169.614330531525
 10
1151.493587277199
 20
-1169.725729359635
 10
1151.588424798034
 20
-1169.905611092129
 10
1151.402482721639
 20
-1169.327390404984
 10
1151.456432739676
 20
-1169.621441079153
 10
1151.518633456761
 20
-1169.960461592182
 10
1151.484287006613
 20
-1169.201424572457
 10
1151.448611647757
 20
-1169.554440677098
 10
1151.441707599572
 20
-1169.622757865065
 10
1151.431730443934
 20
-1169.944343131727
 10
1151.456313537084
 20
-1169.635332325543
 10
1151.480430281434
 20
-1169.332183548917
 10
1151.444023453906
 20
-1169.643560231415
 10
1151.423818654989
 20
-1169.717043780991
 10
1151.409685039882
 20
-1169.769395015699
 10
1151.393588243701
 20
-1169.821121633886
 10
1151.375528266446
 20
-1169.872223635555
 10
1151.330703660655
 20
-1169.999428744502
 10
1151.357472987633
 20
-1169.942586530335
 10
1151.455836247379
 20
-1169.701696993052
 10
1151.47835656873
 20
-1169.749254939485
 10
1151.334304834856
 20
-1169.950526396359
 10
1151.311336036515
 20
-1169.994264956081
 10
1151.185107525792
 20
-1170.234636836807
 10
1151.045542447034
 20
-1170.46765508627
 10
1150.896067718208
 20
-1170.694270081261
 10
1150.827274898785
 20
-1170.798565198913
 10
1150.755878314421
 20
-1170.901117977203
 10
1150.683030506098
 20
-1171.002609920671
 10
1150.598705467944
 20
-1171.120092000122
 10
1150.484886410094
 20
-1171.262401936173
 10
1150.639615488991
 20
-1171.068548124775
 10
1149.924447246816
 20
-1171.964553520303
 10
1149.10159255953
 20
-1172.764254699734
 10
1148.279305152191
 20
-1173.560332634419
 10
1147.769614194373
 20
-1174.053777774653
 10
1147.645297198099
 20
-1174.849055150169
 10
1147.914589236632
 20
-1175.487180446279
 10
1148.166303408791
 20
-1176.083652519937
 10
1148.836153409439
 20
-1176.634180474162
 10
1149.526562946472
 20
-1176.571479317148
 10
1151.296254344517
 20
-1176.410760653423
 10
1153.073380840051
 20
-1176.346544685692
 10
1154.850021160858
 20
-1176.388301982283
 10
1155.232323384202
 20
-1176.397287429219
 10
1155.615232256089
 20
-1176.406979539379
 10
1155.996438231003
 20
-1176.438907619585
 10
1156.455021706982
 20
-1176.477316487666
 10
1155.838384260746
 20
-1176.39223620477
 10
1156.15615491835
 20
-1176.453067906749
 10
1156.357275795565
 20
-1176.49156902374
 10
1156.555554784521
 20
-1176.532559118727
 10
1156.750955858822
 20
-1176.595049995835
 10
1157.178653506977
 20
-1176.731831235479
 10
1156.586466388914
 20
-1176.507111740905
 10
1156.860413581297
 20
-1176.644101885069
 10
1157.161998037484
 20
-1176.794912330585
 10
1156.797481584434
 20
-1176.627832722194
 10
1156.8055498434
 20
-1176.57846465777
 10
1156.801321785888
 20
-1176.604335296842
 10
1156.971721918636
 20
-1176.718005058213
 10
1156.988156108564
 20
-1176.759908156305
 10
1156.953000458926
 20
-1176.670269990884
 10
1156.719325882015
 20
-1176.552214649839
 10
1156.793453707776
 20
-1176.423885376302
 10
1156.78653333896
 20
-1176.435865842391
 10
1156.838487268205
 20
-1176.585711153866
 10
1156.845014691184
 20
-1176.603435883237
 10
1156.928603480032
 20
-1176.83041499363
 10
1156.81599394142
 20
-1176.262743987384
 10
1156.820400442861
 20
-1176.504881435513
 10
1156.824119126407
 20
-1176.709223260024
 10
1156.928038643564
 20
-1176.160374191987
 10
1156.823808544265
 20
-1176.472507671854
 10
1156.76772412987
 20
-1176.64046130088
 10
1156.867793809442
 20
-1176.64164485561
 10
1156.86737407922
 20
-1176.412891367233
 10
1156.867463995046
 20
-1176.461895603307
 10
1156.7495192458
 20
-1176.623428856732
 10
1156.735729960014
 20
-1176.647601955046
 10
1156.71914744958
 20
-1176.676671673467
 10
1156.580332377522
 20
-1176.864311902478
 10
1156.708926820357
 20
-1176.697359226458
 10
1156.848627297731
 20
-1176.515987714405
 10
1156.652837289583
 20
-1176.751609243372
 10
1156.615145576427
 20
-1176.791523414179
 10
1156.496918924298
 20
-1176.916721193521
 10
1156.371171477462
 20
-1177.034518097459
 10
1156.24068274439
 20
-1177.14686125083
 10
1156.164551411928
 20
-1177.212405867272
 10
1156.086582925337
 20
-1177.276454753108
 10
1156.007505708243
 20
-1177.338487325631
 10
1156.204759560275
 20
-1177.183750419966
 10
1156.050542049272
 20
-1177.299973129363
 10
1155.935163548825
 20
-1177.381996336685
 10
1155.317978054889
 20
-1177.820756881582
 10
1154.676061727239
 20
-1178.22593714954
 10
1154.020588255662
 20
-1178.604857522144
 10
1153.355690034324
 20
-1178.989226215462
 10
1152.673782000816
 20
-1179.344144011103
 10
1151.978782282688
 20
-1179.670878859232
 10
1151.820099373548
 20
-1179.745479229371
 10
1151.66077649366
 20
-1179.818718697392
 10
1151.500720619226
 20
-1179.890329392174
 10
1151.431196709563
 20
-1179.921435126297
 10
1150.870240735547
 20
-1180.15972238206
 10
1151.229020340206
 20
-1180.011886698552
 10
1150.85419513692
 20
-1180.166333995456
 10
1150.477458989712
 20
-1180.315644629518
 10
1150.097104223918
 20
-1180.455988627143
 10
1148.402079257693
 20
-1181.081422041492
 10
1146.652480162214
 20
-1181.546942551666
 10
1144.875128909315
 20
-1181.868563075905
 10
1143.965006138667
 20
-1182.033254305137
 10
1143.368083087506
 20
-1183.18834145069
 10
1143.643159374753
 20
-1184.038355686638
 10
1143.959125305132
 20
-1185.014723157582
 10
1144.83780544901
 20
-1185.446782823353
 10
1145.812951985487
 20
-1185.270325221199
 10
1149.422832355911
 20
-1184.617099464456
 10
1152.963359769566
 20
-1183.34702807519
 10
1156.117956256068
 20
-1181.464845414877
 10
1157.734849509
 20
-1180.50012981424
 10
1159.826672414396
 20
-1179.278194447593
 10
1160.253909153537
 20
-1177.286317541078
 10
1160.504565687765
 20
-1176.117698561825
 10
1160.187962415245
 20
-1174.836863284453
 10
1159.252372318462
 20
-1174.046056641972
 10
1158.371712536769
 20
-1173.301679796253
 10
1157.328901131918
 20
-1173.04816130644
 10
1156.207765630905
 20
-1172.930918766577
 10
1154.010037754999
 20
-1172.701091776112
 10
1151.721175971676
 20
-1172.84439262504
 10
1149.526562946472
 20
-1173.043701540252
 10
1149.942315544566
 20
-1174.047417101162
 10
1150.35806814266
 20
-1175.051132662072
 10
1150.773820740754
 20
-1176.054848222982
 10
1151.817178792402
 20
-1175.044746018472
 10
1152.826966887886
 20
-1174.020606092739
 10
1153.685261522062
 20
-1172.844280131674
 10
1154.523638760918
 20
-1171.695251730516
 10
1155.171088803807
 20
-1170.332393839238
 10
1154.898672154276
 20
-1168.880715239007
 10
1154.751520087969
 20
-1168.096557934353
 10
1154.256167843119
 20
-1167.400406866071
 10
1153.582639652756
 20
-1166.976694973542
 10
1152.855352709196
 20
-1166.519163823881
 10
1152.000531173047
 20
-1166.439072337808
 10
1151.162126518697
 20
-1166.434578811089
 10
1149.648624111066
 20
-1166.426467019876
 10
1148.134917139422
 20
-1166.432030097928
 10
1146.621391134053
 20
-1166.430755807595
 10
1145.698716503098
 20
-1166.429978975642
 10
1144.814860956234
 20
-1167.242620300455
 10
1144.857502245605
 20
-1168.194644696043
 10
1144.900337000646
 20
-1169.150988474091
 10
1145.632511924269
 20
-1169.957701012593
 10
1146.621391134053
 20
-1169.958533584491
 10
1146.621391134053
 20
-1169.958533584491
 10
1146.621391134053
 20
-1169.958533584491
 10
1146.621391134053
 20
-1169.958533584491
 97
        0
 97
        1
330
98
 75
     2
 76
     1
 98
        1
 10
0.0
 20
0.0
450
        0
451
        0
460
0.0
461
0.0
452
        0
462
0.0
453
        0
470

  0
ENDSEC
  0
SECTION
  2
OBJECTS
  0
DICTIONARY
  5
C
330
0
100
AcDbDictionary
281
     1
  3
ACAD_COLOR
350
63
  3
ACAD_DETAILVIEWSTYLE
350
6A
  3
ACAD_GROUP
350
D
  3
ACAD_LAYOUT
350
62
  3
ACAD_MATERIAL
350
10
  3
ACAD_MLEADERSTYLE
350
66
  3
ACAD_MLINESTYLE
350
5F
  3
ACAD_PLOTSETTINGS
350
61
  3
ACAD_PLOTSTYLENAME
350
E
  3
ACAD_SCALELIST
350
42
  3
ACAD_SECTIONVIEWSTYLE
350
68
  3
ACAD_TABLESTYLE
350
64
  3
ACAD_VISUALSTYLE
350
29
  3
ACDB_RECOMPOSE_DATA
350
A2
  3
AcDbVariableDictionary
350
9A
  0
DICTIONARY
  5
63
102
{ACAD_REACTORS
330
C
102
}
330
C
100
AcDbDictionary
281
     1
  0
DICTIONARY
  5
6A
102
{ACAD_REACTORS
330
C
102
}
330
C
100
AcDbDictionary
281
     1
  3
Imperial24
350
6B
  0
DICTIONARY
  5
D
102
{ACAD_REACTORS
330
C
102
}
330
C
100
AcDbDictionary
281
     1
  0
DICTIONARY
  5
62
102
{ACAD_REACTORS
330
C
102
}
330
C
100
AcDbDictionary
281
     1
  3
Layout1
350
6F
  3
Layout2
350
77
  3
Model
350
73
  0
DICTIONARY
  5
10
102
{ACAD_REACTORS
330
C
102
}
330
C
100
AcDbDictionary
281
     1
  3
ByBlock
350
19
  3
ByLayer
350
11
  3
Global
350
21
  0
DICTIONARY
  5
66
102
{ACAD_REACTORS
330
C
102
}
330
C
100
AcDbDictionary
281
     1
  3
Standard
350
67
  0
DICTIONARY
  5
5F
102
{ACAD_REACTORS
330
C
102
}
330
C
100
AcDbDictionary
281
     1
  3
Standard
350
60
  0
DICTIONARY
  5
61
102
{ACAD_REACTORS
330
C
102
}
330
C
100
AcDbDictionary
281
     1
  0
ACDBDICTIONARYWDFLT
  5
E
102
{ACAD_REACTORS
330
C
102
}
330
C
100
AcDbDictionary
281
     1
  3
Normal
350
F
100
AcDbDictionaryWithDefault
340
F
  0
DICTIONARY
  5
42
102
{ACAD_REACTORS
330
C
102
}
330
C
100
AcDbDictionary
281
     1
  3
A0
350
43
  3
A1
350
44
  3
A2
350
45
  3
A3
350
46
  3
A4
350
47
  3
A5
350
48
  3
A6
350
49
  3
A7
350
4A
  3
A8
350
4B
  3
A9
350
4C
  3
B0
350
4D
  3
B1
350
4E
  3
B2
350
4F
  3
B3
350
50
  3
B4
350
51
  3
B5
350
52
  3
B6
350
53
  0
DICTIONARY
  5
68
102
{ACAD_REACTORS
330
C
102
}
330
C
100
AcDbDictionary
281
     1
  3
Imperial24
350
69
  0
DICTIONARY
  5
64
102
{ACAD_REACTORS
330
C
102
}
330
C
100
AcDbDictionary
281
     1
  3
Standard
350
65
  0
DICTIONARY
  5
29
102
{ACAD_REACTORS
330
C
102
}
330
C
100
AcDbDictionary
281
     1
  3
2dWireframe
350
2F
  3
Basic
350
2E
  3
Brighten
350
35
  3
ColorChange
350
39
  3
Conceptual
350
32
  3
Dim
350
34
  3
EdgeColorOff
350
41
  3
Facepattern
350
38
  3
Flat
350
2A
  3
FlatWithEdges
350
2B
  3
Gouraud
350
2C
  3
GouraudWithEdges
350
2D
  3
Hidden
350
31
  3
JitterOff
350
3F
  3
Linepattern
350
37
  3
OverhangOff
350
40
  3
Realistic
350
33
  3
Shaded
350
3E
  3
Shaded with edges
350
3D
  3
Shades of Gray
350
3A
  3
Sketchy
350
3B
  3
Thicken
350
36
  3
Wireframe
350
30
  3
X-Ray
350
3C
  0
XRECORD
  5
A2
102
{ACAD_REACTORS
330
C
102
}
330
C
100
AcDbXrecord
280
     1
 90
        1
330
65
  0
DICTIONARY
  5
9A
102
{ACAD_REACTORS
330
C
102
}
330
C
100
AcDbDictionary
281
     1
  3
CANNOSCALE
350
9F
  3
CMLEADERSTYLE
350
9C
  3
CTABLESTYLE
350
9B
  3
CVIEWDETAILSTYLE
350
9D
  3
CVIEWSECTIONSTYLE
350
9E
  0
ACDBDETAILVIEWSTYLE
  5
6B
102
{ACAD_REACTORS
330
6A
102
}
330
6A
100
AcDbModelDocViewStyle
 70
     0
  3
Imperial24
290
     1
300
Imperial24
 90
        0
100
AcDbDetailViewStyle
 70
     0
 71
     0
 90
        3
 71
     1
340
55
 62
   256
 40
0.24
340
0
 62
   256
 40
0.24
300

 40
0.36
280
     3
 71
     2
340
5D
 90
       25
 62
   256
 71
     3
340
55
 62
   256
 40
0.24
 90
        1
 40
0.75
 90
        1
300
%<\AcVar ViewType \f "%tc1">% %<\AcVar ViewDetailId>%\PSCALE %<\AcVar ViewScale \f "%sn">%
 71
     4
340
5D
 90
       25
 62
   256
340
5D
 90
       25
 62
   256
280
     0
  0
LAYOUT
  5
6F
102
{ACAD_REACTORS
330
62
102
}
330
62
100
AcDbPlotSettings
  1

  2

  4

  6

 40
0.0
 41
0.0
 42
0.0
 43
0.0
 44
0.0
 45
0.0
 46
0.0
 47
0.0
 48
0.0
 49
0.0
140
0.0
141
0.0
142
1.0
143
1.0
 70
   688
 72
     0
 73
     0
 74
     5
  7

 75
    16
147
1.0
 76
     0
 77
     2
 78
   300
148
0.0
149
0.0
100
AcDbLayout
  1
Layout1
 70
     1
 71
     1
 10
0.0
 20
0.0
 11
12.0
 21
9.0
 12
0.0
 22
0.0
 32
0.0
 14
0.0
 24
0.0
 34
0.0
 15
0.0
 25
0.0
 35
0.0
146
0.0
 13
0.0
 23
0.0
 33
0.0
 16
1.0
 26
0.0
 36
0.0
 17
0.0
 27
1.0
 37
0.0
 76
     0
330
6C
  0
LAYOUT
  5
77
102
{ACAD_REACTORS
330
62
102
}
330
62
100
AcDbPlotSettings
  1

  2

  4

  6

 40
0.0
 41
0.0
 42
0.0
 43
0.0
 44
0.0
 45
0.0
 46
0.0
 47
0.0
 48
0.0
 49
0.0
140
0.0
141
0.0
142
1.0
143
1.0
 70
   688
 72
     0
 73
     0
 74
     5
  7

 75
    16
147
1.0
 76
     0
 77
     2
 78
   300
148
0.0
149
0.0
100
AcDbLayout
  1
Layout2
 70
     1
 71
     2
 10
0.0
 20
0.0
 11
12.0
 21
9.0
 12
0.0
 22
0.0
 32
0.0
 14
0.0
 24
0.0
 34
0.0
 15
0.0
 25
0.0
 35
0.0
146
0.0
 13
0.0
 23
0.0
 33
0.0
 16
1.0
 26
0.0
 36
0.0
 17
0.0
 27
1.0
 37
0.0
 76
     0
330
74
  0
LAYOUT
  5
73
102
{ACAD_REACTORS
330
62
102
}
330
62
100
AcDbPlotSettings
  1

  2

  4

  6

 40
0.0
 41
0.0
 42
0.0
 43
0.0
 44
0.0
 45
0.0
 46
0.0
 47
0.0
 48
0.0
 49
0.0
140
0.0
141
0.0
142
1.0
143
1.0
 70
  1712
 72
     0
 73
     0
 74
     0
  7

 75
     0
147
1.0
 76
     0
 77
     2
 78
   300
148
0.0
149
0.0
100
AcDbLayout
  1
Model
 70
     1
 71
     0
 10
0.0
 20
0.0
 11
12.0
 21
9.0
 12
0.0
 22
0.0
 32
0.0
 14
0.0
 24
0.0
 34
0.0
 15
0.0
 25
0.0
 35
0.0
146
0.0
 13
0.0
 23
0.0
 33
0.0
 16
1.0
 26
0.0
 36
0.0
 17
0.0
 27
1.0
 37
0.0
 76
     0
330
70
  0
MATERIAL
  5
19
102
{ACAD_XDICTIONARY
360
1A
102
}
102
{ACAD_REACTORS
330
10
102
}
330
10
100
AcDbMaterial
  1
ByBlock
 72
     0
 43
0.0208333333333333
 43
0.0
 43
0.0
 43
0.0
 43
0.0
 43
0.0208333333333333
 43
0.0
 43
0.0
 43
0.0
 43
0.0
 43
1.0
 43
0.0
 43
0.0
 43
0.0
 43
0.0
 43
1.0
 77
     0
 47
0.0208333333333333
 47
0.0
 47
0.0
 47
0.0
 47
0.0
 47
0.0208333333333333
 47
0.0
 47
0.0
 47
0.0
 47
0.0
 47
1.0
 47
0.0
 47
0.0
 47
0.0
 47
0.0
 47
1.0
171
     0
 49
0.0208333333333333
 49
0.0
 49
0.0
 49
0.0
 49
0.0
 49
0.0208333333333333
 49
0.0
 49
0.0
 49
0.0
 49
0.0
 49
1.0
 49
0.0
 49
0.0
 49
0.0
 49
0.0
 49
1.0
175
     0
142
0.0208333333333333
142
0.0
142
0.0
142
0.0
142
0.0
142
0.0208333333333333
142
0.0
142
0.0
142
0.0
142
0.0
142
1.0
142
0.0
142
0.0
142
0.0
142
0.0
142
1.0
179
     0
144
0.0208333333333333
144
0.0
144
0.0
144
0.0
144
0.0
144
0.0208333333333333
144
0.0
144
0.0
144
0.0
144
0.0
144
1.0
144
0.0
144
0.0
144
0.0
144
0.0
144
1.0
147
0.0208333333333333
147
0.0
147
0.0
147
0.0
147
0.0
147
0.0208333333333333
147
0.0
147
0.0
147
0.0
147
0.0
147
1.0
147
0.0
147
0.0
147
0.0
147
0.0
147
1.0
  0
MATERIAL
  5
11
102
{ACAD_XDICTIONARY
360
12
102
}
102
{ACAD_REACTORS
330
10
102
}
330
10
100
AcDbMaterial
  1
ByLayer
 72
     0
 43
0.0208333333333333
 43
0.0
 43
0.0
 43
0.0
 43
0.0
 43
0.0208333333333333
 43
0.0
 43
0.0
 43
0.0
 43
0.0
 43
1.0
 43
0.0
 43
0.0
 43
0.0
 43
0.0
 43
1.0
 77
     0
 47
0.0208333333333333
 47
0.0
 47
0.0
 47
0.0
 47
0.0
 47
0.0208333333333333
 47
0.0
 47
0.0
 47
0.0
 47
0.0
 47
1.0
 47
0.0
 47
0.0
 47
0.0
 47
0.0
 47
1.0
171
     0
 49
0.0208333333333333
 49
0.0
 49
0.0
 49
0.0
 49
0.0
 49
0.0208333333333333
 49
0.0
 49
0.0
 49
0.0
 49
0.0
 49
1.0
 49
0.0
 49
0.0
 49
0.0
 49
0.0
 49
1.0
175
     0
142
0.0208333333333333
142
0.0
142
0.0
142
0.0
142
0.0
142
0.0208333333333333
142
0.0
142
0.0
142
0.0
142
0.0
142
1.0
142
0.0
142
0.0
142
0.0
142
0.0
142
1.0
179
     0
144
0.0208333333333333
144
0.0
144
0.0
144
0.0
144
0.0
144
0.0208333333333333
144
0.0
144
0.0
144
0.0
144
0.0
144
1.0
144
0.0
144
0.0
144
0.0
144
0.0
144
1.0
147
0.0208333333333333
147
0.0
147
0.0
147
0.0
147
0.0
147
0.0208333333333333
147
0.0
147
0.0
147
0.0
147
0.0
147
1.0
147
0.0
147
0.0
147
0.0
147
0.0
147
1.0
  0
MATERIAL
  5
21
102
{ACAD_XDICTIONARY
360
22
102
}
102
{ACAD_REACTORS
330
10
102
}
330
10
100
AcDbMaterial
  1
Global
 72
     0
 43
0.0208333333333333
 43
0.0
 43
0.0
 43
0.0
 43
0.0
 43
0.0208333333333333
 43
0.0
 43
0.0
 43
0.0
 43
0.0
 43
1.0
 43
0.0
 43
0.0
 43
0.0
 43
0.0
 43
1.0
 77
     0
 47
0.0208333333333333
 47
0.0
 47
0.0
 47
0.0
 47
0.0
 47
0.0208333333333333
 47
0.0
 47
0.0
 47
0.0
 47
0.0
 47
1.0
 47
0.0
 47
0.0
 47
0.0
 47
0.0
 47
1.0
171
     0
 49
0.0208333333333333
 49
0.0
 49
0.0
 49
0.0
 49
0.0
 49
0.0208333333333333
 49
0.0
 49
0.0
 49
0.0
 49
0.0
 49
1.0
 49
0.0
 49
0.0
 49
0.0
 49
0.0
 49
1.0
175
     0
142
0.0208333333333333
142
0.0
142
0.0
142
0.0
142
0.0
142
0.0208333333333333
142
0.0
142
0.0
142
0.0
142
0.0
142
1.0
142
0.0
142
0.0
142
0.0
142
0.0
142
1.0
179
     0
144
0.0208333333333333
144
0.0
144
0.0
144
0.0
144
0.0
144
0.0208333333333333
144
0.0
144
0.0
144
0.0
144
0.0
144
1.0
144
0.0
144
0.0
144
0.0
144
0.0
144
1.0
147
0.0208333333333333
147
0.0
147
0.0
147
0.0
147
0.0
147
0.0208333333333333
147
0.0
147
0.0
147
0.0
147
0.0
147
1.0
147
0.0
147
0.0
147
0.0
147
0.0
147
1.0
  0
MLEADERSTYLE
  5
67
102
{ACAD_REACTORS
330
66
102
}
330
66
100
AcDbMLeaderStyle
179
     2
170
     2
171
     1
172
     0
 90
        2
 40
0.0
 41
0.0
173
     1
 91
-1056964608
340
5B
 92
       -2
290
     1
 42
0.09
291
     1
 43
0.36
  3
Standard
 44
0.18
300

342
55
174
     1
178
     6
175
     1
176
     0
 93
-1056964608
 45
0.18
292
     0
297
     0
 46
0.18
 94
-1056964608
 47
1.0
 49
1.0
140
1.0
293
     1
141
0.0
294
     1
177
     0
142
1.0
295
     1
296
     0
143
0.125
271
     0
272
     9
273
     9
298
     1
  0
MLINESTYLE
  5
60
102
{ACAD_REACTORS
330
5F
102
}
330
5F
100
AcDbMlineStyle
  2
STANDARD
 70
     0
  3

 62
   256
 51
90.0
 52
90.0
 71
     2
 49
0.5
 62
   256
  6
BYLAYER
 49
-0.5
 62
   256
  6
BYLAYER
  0
ACDBPLACEHOLDER
  5
F
102
{ACAD_REACTORS
330
E
102
}
330
E
  0
SCALE
  5
43
102
{ACAD_REACTORS
330
42
102
}
330
42
100
AcDbScale
 70
     0
300
1:1
140
1.0
141
1.0
290
     1
  0
SCALE
  5
44
102
{ACAD_REACTORS
330
42
102
}
330
42
100
AcDbScale
 70
     0
300
1/128" = 1'-0"
140
0.0078125
141
12.0
290
     0
  0
SCALE
  5
45
102
{ACAD_REACTORS
330
42
102
}
330
42
100
AcDbScale
 70
     0
300
1/64" = 1'-0"
140
0.015625
141
12.0
290
     0
  0
SCALE
  5
46
102
{ACAD_REACTORS
330
42
102
}
330
42
100
AcDbScale
 70
     0
300
1/32" = 1'-0"
140
0.03125
141
12.0
290
     0
  0
SCALE
  5
47
102
{ACAD_REACTORS
330
42
102
}
330
42
100
AcDbScale
 70
     0
300
1/16" = 1'-0"
140
0.0625
141
12.0
290
     0
  0
SCALE
  5
48
102
{ACAD_REACTORS
330
42
102
}
330
42
100
AcDbScale
 70
     0
300
3/32" = 1'-0"
140
0.09375
141
12.0
290
     0
  0
SCALE
  5
49
102
{ACAD_REACTORS
330
42
102
}
330
42
100
AcDbScale
 70
     0
300
1/8" = 1'-0"
140
0.125
141
12.0
290
     0
  0
SCALE
  5
4A
102
{ACAD_REACTORS
330
42
102
}
330
42
100
AcDbScale
 70
     0
300
3/16" = 1'-0"
140
0.1875
141
12.0
290
     0
  0
SCALE
  5
4B
102
{ACAD_REACTORS
330
42
102
}
330
42
100
AcDbScale
 70
     0
300
1/4" = 1'-0"
140
0.25
141
12.0
290
     0
  0
SCALE
  5
4C
102
{ACAD_REACTORS
330
42
102
}
330
42
100
AcDbScale
 70
     0
300
3/8" = 1'-0"
140
0.375
141
12.0
290
     0
  0
SCALE
  5
4D
102
{ACAD_REACTORS
330
42
102
}
330
42
100
AcDbScale
 70
     0
300
1/2" = 1'-0"
140
0.5
141
12.0
290
     0
  0
SCALE
  5
4E
102
{ACAD_REACTORS
330
42
102
}
330
42
100
AcDbScale
 70
     0
300
3/4" = 1'-0"
140
0.75
141
12.0
290
     0
  0
SCALE
  5
4F
102
{ACAD_REACTORS
330
42
102
}
330
42
100
AcDbScale
 70
     0
300
1" = 1'-0"
140
1.0
141
12.0
290
     0
  0
SCALE
  5
50
102
{ACAD_REACTORS
330
42
102
}
330
42
100
AcDbScale
 70
     0
300
1-1/2" = 1'-0"
140
1.5
141
12.0
290
     0
  0
SCALE
  5
51
102
{ACAD_REACTORS
330
42
102
}
330
42
100
AcDbScale
 70
     0
300
3" = 1'-0"
140
3.0
141
12.0
290
     0
  0
SCALE
  5
52
102
{ACAD_REACTORS
330
42
102
}
330
42
100
AcDbScale
 70
     0
300
6" = 1'-0"
140
6.0
141
12.0
290
     0
  0
SCALE
  5
53
102
{ACAD_REACTORS
330
42
102
}
330
42
100
AcDbScale
 70
     0
300
1'-0" = 1'-0"
140
12.0
141
12.0
290
     0
  0
ACDBSECTIONVIEWSTYLE
  5
69
102
{ACAD_REACTORS
330
68
102
}
330
68
100
AcDbModelDocViewStyle
 70
     0
  3
Imperial24
290
     1
300
Imperial24
 90
        0
100
AcDbSectionViewStyle
 70
     0
 71
     0
 90
       78
 71
     1
340
55
 62
   256
 40
0.24
340
0
340
0
 62
   256
 40
0.24
300
I, O, Q, S, X, Z
 40
0.48
 90
        3
 40
0.18
 90
        1
 71
     2
340
5D
 90
       25
 62
   256
340
5D
 90
       50
 62
   256
 40
0.24
 40
0.0
 40
0.24
 71
     3
340
55
 62
   256
 40
0.24
 90
        1
 40
0.75
 90
        1
300
%<\AcVar ViewType \f "%tc1">% %<\AcVar ViewSectionStartId>%-%<\AcVar ViewSectionEndId>%\PSCALE %<\AcVar ViewScale \f "%sn">%
 71
     4
 62
   256
 62
   257
300
ANSI31
 40
1.0
 90
        0
290
     0
290
     0
 90
        6
 40
0.0
 40
1.570796326794896
 40
0.2617993877991494
 40
1.308996938995747
 40
-0.2617993877991494
 40
1.832595714594046
  0
TABLESTYLE
  5
65
102
{ACAD_XDICTIONARY
360
A0
102
}
102
{ACAD_REACTORS
330
64
102
}
330
64
100
AcDbTableStyle
280
     0
  3
Standard
 70
     0
 71
     0
 40
0.06
 41
0.06
280
     0
281
     0
  7
Standard
140
0.18
170
     2
 62
     0
 63
     7
283
     0
 90
      512
 91
        0
  1

274
    -2
284
     1
 64
     0
275
    -2
285
     1
 65
     0
276
    -2
286
     1
 66
     0
277
    -2
287
     1
 67
     0
278
    -2
288
     1
 68
     0
279
    -2
289
     1
 69
     0
  7
Standard
140
0.25
170
     5
 62
     0
 63
     7
283
     0
 90
      512
 91
        0
  1

274
    -2
284
     1
 64
     0
275
    -2
285
     1
 65
     0
276
    -2
286
     1
 66
     0
277
    -2
287
     1
 67
     0
278
    -2
288
     1
 68
     0
279
    -2
289
     1
 69
     0
  7
Standard
140
0.18
170
     5
 62
     0
 63
     7
283
     0
 90
      512
 91
        0
  1

274
    -2
284
     1
 64
     0
275
    -2
285
     1
 65
     0
276
    -2
286
     1
 66
     0
277
    -2
287
     1
 67
     0
278
    -2
288
     1
 68
     0
279
    -2
289
     1
 69
     0
  0
VISUALSTYLE
  5
2F
102
{ACAD_REACTORS
330
29
102
}
330
29
100
AcDbVisualStyle
  2
2dWireframe
 70
     4
177
     3
291
     0
 70
    58
 90
        0
176
     1
 90
        2
176
     1
 90
        0
176
     1
 90
        0
176
     1
 40
0.6
176
     1
 40
30.0
176
     1
 62
     7
420
 16777215
176
     1
 90
        1
176
     1
 90
        4
176
     1
 62
     7
176
     1
 62
   257
176
     1
 90
        1
176
     1
 90
        1
176
     1
 40
1.0
176
     1
 90
        0
176
     1
 62
   257
176
     1
 40
1.0
176
     1
 90
        1
176
     1
 90
        6
176
     1
 90
        2
176
     1
 62
     7
176
     1
 90
        5
176
     1
 90
        0
176
     1
 90
        0
176
     1
290
     0
176
     1
 90
        1
176
     1
 40
0.0
176
     1
 90
        0
176
     1
290
     1
176
     1
290
     1
176
     1
290
     0
176
     1
290
     0
176
     1
290
     0
176
     1
290
     0
176
     1
290
     0
176
     1
290
     0
176
     1
290
     0
176
     1
 90
       50
176
     1
 40
0.0
176
     1
 40
1.0
176
     1
 90
        0
176
     1
 62
    18
420
        0
176
     1
 90
       50
176
     1
 90
        3
176
     1
 62
     5
420
      255
176
     1
290
     0
176
     1
 90
       50
176
     1
 90
       50
176
     1
 90
       50
176
     1
290
     0
176
     1
 90
       50
176
     1
 62
   256
176
     0
 40
1.0
176
     0
 90
        2
176
     1
  1
strokes_ogs.tif
176
     1
290
     0
176
     1
 40
1.0
176
     1
 40
1.0
176
     1
  0
VISUALSTYLE
  5
2E
102
{ACAD_REACTORS
330
29
102
}
330
29
100
AcDbVisualStyle
  2
Basic
 70
     7
177
     3
291
     1
 70
    58
 90
        1
176
     1
 90
        0
176
     1
 90
        1
176
     1
 90
        0
176
     1
 40
0.6
176
     1
 40
30.0
176
     1
 62
     7
420
 16777215
176
     1
 90
        0
176
     1
 90
        4
176
     1
 62
     7
176
     1
 62
   257
176
     1
 90
        1
176
     1
 90
        1
176
     1
 40
1.0
176
     1
 90
        8
176
     1
 62
     7
176
     1
 40
1.0
176
     1
 90
        1
176
     1
 90
        6
176
     1
 90
        2
176
     1
 62
     7
176
     1
 90
        5
176
     1
 90
        0
176
     1
 90
        0
176
     1
290
     0
176
     1
 90
        1
176
     1
 40
0.0
176
     1
 90
        0
176
     1
290
     0
176
     1
290
     1
176
     1
290
     1
176
     1
290
     0
176
     1
290
     0
176
     1
290
     0
176
     1
290
     0
176
     1
290
     0
176
     1
290
     0
176
     1
 90
       50
176
     1
 40
0.0
176
     1
 40
1.0
176
     1
 90
        0
176
     1
 62
    18
420
        0
176
     1
 90
       50
176
     1
 90
        3
176
     1
 62
     5
420
      255
176
     1
290
     0
176
     1
 90
       50
176
     1
 90
       50
176
     1
 90
       50
176
     1
290
     0
176
     1
 90
       50
176
     1
 62
   256
176
     0
 40
1.0
176
     0
 90
        2
176
     1
  1
strokes_ogs.tif
176
     1
290
     0
176
     1
 40
1.0
176
     1
 40
1.0
176
     1
  0
VISUALSTYLE
  5
35
102
{ACAD_REACTORS
330
29
102
}
330
29
100
AcDbVisualStyle
  2
Brighten
 70
    12
177
     3
291
     1
 70
    58
 90
        2
176
     1
 90
        2
176
     1
 90
        0
176
     1
 90
        0
176
     1
 40
0.6
176
     1
 40
30.0
176
     1
 62
     7
420
 16777215
176
     1
 90
        1
176
     1
 90
        4
176
     1
 62
     7
176
     1
 62
   257
176
     1
 90
        1
176
     1
 90
        1
176
     1
 40
1.0
176
     1
 90
        8
176
     1
 62
     7
176
     1
 40
1.0
176
     1
 90
        1
176
     1
 90
        6
176
     1
 90
        2
176
     1
 62
     7
176
     1
 90
        5
176
     1
 90
        0
176
     1
 90
        0
176
     1
290
     0
176
     1
 90
        1
176
     1
 40
50.0
176
     1
 90
        0
176
     1
290
     0
176
     1
290
     1
176
     1
290
     1
176
     1
290
     0
176
     1
290
     0
176
     1
290
     0
176
     1
290
     0
176
     1
290
     0
176
     1
290
     0
176
     1
 90
       50
176
     1
 40
0.0
176
     1
 40
1.0
176
     1
 90
        0
176
     1
 62
    18
420
        0
176
     1
 90
       50
176
     1
 90
        3
176
     1
 62
     5
420
      255
176
     1
290
     0
176
     1
 90
       50
176
     1
 90
       50
176
     1
 90
       50
176
     1
290
     0
176
     1
 90
       50
176
     1
 62
   256
176
     0
 40
1.0
176
     0
 90
        2
176
     1
  1
strokes_ogs.tif
176
     1
290
     0
176
     1
 40
1.0
176
     1
 40
1.0
176
     1
  0
VISUALSTYLE
  5
39
102
{ACAD_REACTORS
330
29
102
}
330
29
100
AcDbVisualStyle
  2
ColorChange
 70
    16
177
     3
291
     1
 70
    58
 90
        2
176
     1
 90
        2
176
     1
 90
        3
176
     1
 90
        0
176
     1
 40
0.6
176
     1
 40
30.0
176
     1
 62
     8
420
  8421504
176
     1
 90
        1
176
     1
 90
        4
176
     1
 62
     7
176
     1
 62
   257
176
     1
 90
        1
176
     1
 90
        1
176
     1
 40
1.0
176
     1
 90
        8
176
     1
 62
     8
420
  8421504
176
     1
 40
1.0
176
     1
 90
        1
176
     1
 90
        6
176
     1
 90
        2
176
     1
 62
     7
176
     1
 90
        5
176
     1
 90
        0
176
     1
 90
        0
176
     1
290
     0
176
     1
 90
        1
176
     1
 40
0.0
176
     1
 90
        0
176
     1
290
     0
176
     1
290
     1
176
     1
290
     1
176
     1
290
     0
176
     1
290
     0
176
     1
290
     0
176
     1
290
     0
176
     1
290
     0
176
     1
290
     0
176
     1
 90
       50
176
     1
 40
0.0
176
     1
 40
1.0
176
     1
 90
        0
176
     1
 62
    18
420
        0
176
     1
 90
       50
176
     1
 90
        3
176
     1
 62
     5
420
      255
176
     1
290
     0
176
     1
 90
       50
176
     1
 90
       50
176
     1
 90
       50
176
     1
290
     0
176
     1
 90
       50
176
     1
 62
   256
176
     0
 40
1.0
176
     0
 90
        2
176
     1
  1
strokes_ogs.tif
176
     1
290
     0
176
     1
 40
1.0
176
     1
 40
1.0
176
     1
  0
VISUALSTYLE
  5
32
102
{ACAD_REACTORS
330
29
102
}
330
29
100
AcDbVisualStyle
  2
Conceptual
 70
     9
177
     3
291
     0
 70
    58
 90
        3
176
     1
 90
        2
176
     1
 90
        0
176
     1
 90
        0
176
     1
 40
0.6
176
     1
 40
30.0
176
     1
 62
     7
420
 16777215
176
     1
 90
        2
176
     1
 90
        2
176
     1
 62
     7
176
     1
 62
   257
176
     1
 90
        1
176
     1
 90
        1
176
     1
 40
179.0
176
     1
 90
        8
176
     1
 62
     7
176
     1
 40
1.0
176
     1
 90
        1
176
     1
 90
        6
176
     1
 90
        2
176
     1
 62
     7
176
     1
 90
        3
176
     1
 90
        0
176
     1
 90
        0
176
     1
290
     0
176
     1
 90
        1
176
     1
 40
0.0
176
     1
 90
        0
176
     1
290
     0
176
     1
290
     1
176
     1
290
     1
176
     1
290
     0
176
     1
290
     0
176
     1
290
     0
176
     1
290
     0
176
     1
290
     0
176
     1
290
     0
176
     1
 90
       50
176
     1
 40
0.0
176
     1
 40
1.0
176
     1
 90
        0
176
     1
 62
    18
420
        0
176
     1
 90
       50
176
     1
 90
        3
176
     1
 62
     5
420
      255
176
     1
290
     0
176
     1
 90
       50
176
     1
 90
       50
176
     1
 90
       50
176
     1
290
     0
176
     1
 90
       50
176
     1
 62
   256
176
     0
 40
1.0
176
     0
 90
        2
176
     1
  1
strokes_ogs.tif
176
     1
290
     0
176
     1
 40
1.0
176
     1
 40
1.0
176
     1
  0
VISUALSTYLE
  5
34
102
{ACAD_REACTORS
330
29
102
}
330
29
100
AcDbVisualStyle
  2
Dim
 70
    11
177
     3
291
     1
 70
    58
 90
        2
176
     1
 90
        2
176
     1
 90
        0
176
     1
 90
        0
176
     1
 40
0.6
176
     1
 40
30.0
176
     1
 62
     7
420
 16777215
176
     1
 90
        1
176
     1
 90
        4
176
     1
 62
     7
176
     1
 62
   257
176
     1
 90
        1
176
     1
 90
        1
176
     1
 40
1.0
176
     1
 90
        8
176
     1
 62
     7
176
     1
 40
1.0
176
     1
 90
        1
176
     1
 90
        6
176
     1
 90
        2
176
     1
 62
     7
176
     1
 90
        5
176
     1
 90
        0
176
     1
 90
        0
176
     1
290
     0
176
     1
 90
        1
176
     1
 40
-50.0
176
     1
 90
        0
176
     1
290
     0
176
     1
290
     1
176
     1
290
     1
176
     1
290
     0
176
     1
290
     0
176
     1
290
     0
176
     1
290
     0
176
     1
290
     0
176
     1
290
     0
176
     1
 90
       50
176
     1
 40
0.0
176
     1
 40
1.0
176
     1
 90
        0
176
     1
 62
    18
420
        0
176
     1
 90
       50
176
     1
 90
        3
176
     1
 62
     5
420
      255
176
     1
290
     0
176
     1
 90
       50
176
     1
 90
       50
176
     1
 90
       50
176
     1
290
     0
176
     1
 90
       50
176
     1
 62
   256
176
     0
 40
1.0
176
     0
 90
        2
176
     1
  1
strokes_ogs.tif
176
     1
290
     0
176
     1
 40
1.0
176
     1
 40
1.0
176
     1
  0
VISUALSTYLE
  5
41
102
{ACAD_REACTORS
330
29
102
}
330
29
100
AcDbVisualStyle
  2
EdgeColorOff
 70
    22
177
     3
291
     1
 70
    58
 90
        2
176
     0
 90
        2
176
     0
 90
        0
176
     0
 90
        0
176
     0
 40
0.6
176
     0
 40
30.0
176
     0
 62
     7
420
 16777215
176
     0
 90
        1
176
     0
 90
        4
176
     0
 62
     7
176
     0
 62
   257
176
     0
 90
        1
176
     0
 90
        1
176
     0
 40
1.0
176
     0
 90
        8
176
     2
 62
     7
176
     0
 40
1.0
176
     0
 90
        1
176
     0
 90
        6
176
     0
 90
        2
176
     0
 62
     7
176
     0
 90
        5
176
     0
 90
        0
176
     0
 90
        0
176
     0
290
     0
176
     0
 90
        1
176
     0
 40
0.0
176
     0
 90
        0
176
     0
290
     0
176
     0
290
     1
176
     0
290
     1
176
     0
290
     0
176
     0
290
     0
176
     0
290
     0
176
     0
290
     0
176
     0
290
     0
176
     0
290
     0
176
     0
 90
       50
176
     0
 40
0.0
176
     0
 40
1.0
176
     0
 90
        0
176
     0
 62
    18
420
        0
176
     0
 90
       50
176
     0
 90
        3
176
     0
 62
     5
420
      255
176
     0
290
     0
176
     0
 90
       50
176
     0
 90
       50
176
     0
 90
       50
176
     0
290
     0
176
     0
 90
       50
176
     0
 62
   256
176
     0
 40
1.0
176
     0
 90
        2
176
     0
  1
strokes_ogs.tif
176
     0
290
     0
176
     0
 40
1.0
176
     0
 40
1.0
176
     0
  0
VISUALSTYLE
  5
38
102
{ACAD_REACTORS
330
29
102
}
330
29
100
AcDbVisualStyle
  2
Facepattern
 70
    15
177
     3
291
     1
 70
    58
 90
        2
176
     1
 90
        2
176
     1
 90
        0
176
     1
 90
        0
176
     1
 40
0.6
176
     1
 40
30.0
176
     1
 62
     7
420
 16777215
176
     1
 90
        1
176
     1
 90
        4
176
     1
 62
     7
176
     1
 62
   257
176
     1
 90
        1
176
     1
 90
        1
176
     1
 40
1.0
176
     1
 90
        8
176
     1
 62
     7
176
     1
 40
1.0
176
     1
 90
        1
176
     1
 90
        6
176
     1
 90
        2
176
     1
 62
     7
176
     1
 90
        5
176
     1
 90
        0
176
     1
 90
        0
176
     1
290
     0
176
     1
 90
        1
176
     1
 40
0.0
176
     1
 90
        0
176
     1
290
     0
176
     1
290
     1
176
     1
290
     1
176
     1
290
     0
176
     1
290
     0
176
     1
290
     0
176
     1
290
     0
176
     1
290
     0
176
     1
290
     0
176
     1
 90
       50
176
     1
 40
0.0
176
     1
 40
1.0
176
     1
 90
        0
176
     1
 62
    18
420
        0
176
     1
 90
       50
176
     1
 90
        3
176
     1
 62
     5
420
      255
176
     1
290
     0
176
     1
 90
       50
176
     1
 90
       50
176
     1
 90
       50
176
     1
290
     0
176
     1
 90
       50
176
     1
 62
   256
176
     0
 40
1.0
176
     0
 90
        2
176
     1
  1
strokes_ogs.tif
176
     1
290
     0
176
     1
 40
1.0
176
     1
 40
1.0
176
     1
  0
VISUALSTYLE
  5
2A
102
{ACAD_REACTORS
330
29
102
}
330
29
100
AcDbVisualStyle
  2
Flat
 70
     0
177
     3
291
     1
 70
    58
 90
        2
176
     1
 90
        1
176
     1
 90
        1
176
     1
 90
        2
176
     1
 40
0.6
176
     1
 40
30.0
176
     1
 62
     7
420
 16777215
176
     1
 90
        0
176
     1
 90
        0
176
     1
 62
     7
176
     1
 62
   257
176
     1
 90
        1
176
     1
 90
        1
176
     1
 40
1.0
176
     1
 90
        8
176
     1
 62
     7
176
     1
 40
1.0
176
     1
 90
        1
176
     1
 90
        6
176
     1
 90
        2
176
     1
 62
     7
176
     1
 90
        5
176
     1
 90
        0
176
     1
 90
        0
176
     1
290
     0
176
     1
 90
       13
176
     1
 40
0.0
176
     1
 90
        0
176
     1
290
     0
176
     1
290
     1
176
     1
290
     1
176
     1
290
     0
176
     1
290
     0
176
     1
290
     0
176
     1
290
     0
176
     1
290
     0
176
     1
290
     0
176
     1
 90
       50
176
     1
 40
0.0
176
     1
 40
1.0
176
     1
 90
        0
176
     1
 62
    18
420
        0
176
     1
 90
       50
176
     1
 90
        3
176
     1
 62
     5
420
      255
176
     1
290
     0
176
     1
 90
       50
176
     1
 90
       50
176
     1
 90
       50
176
     1
290
     0
176
     1
 90
       50
176
     1
 62
   256
176
     0
 40
1.0
176
     0
 90
        2
176
     1
  1
strokes_ogs.tif
176
     1
290
     0
176
     1
 40
1.0
176
     1
 40
1.0
176
     1
  0
VISUALSTYLE
  5
2B
102
{ACAD_REACTORS
330
29
102
}
330
29
100
AcDbVisualStyle
  2
FlatWithEdges
 70
     1
177
     3
291
     1
 70
    58
 90
        2
176
     1
 90
        1
176
     1
 90
        1
176
     1
 90
        2
176
     1
 40
0.6
176
     1
 40
30.0
176
     1
 62
     7
420
 16777215
176
     1
 90
        1
176
     1
 90
        0
176
     1
 62
     7
176
     1
 62
   257
176
     1
 90
        1
176
     1
 90
        1
176
     1
 40
1.0
176
     1
 90
        0
176
     1
 62
   257
176
     1
 40
1.0
176
     1
 90
        1
176
     1
 90
        6
176
     1
 90
        2
176
     1
 62
     7
176
     1
 90
        5
176
     1
 90
        0
176
     1
 90
        0
176
     1
290
     0
176
     1
 90
       13
176
     1
 40
0.0
176
     1
 90
        0
176
     1
290
     0
176
     1
290
     1
176
     1
290
     1
176
     1
290
     0
176
     1
290
     0
176
     1
290
     0
176
     1
290
     0
176
     1
290
     0
176
     1
290
     0
176
     1
 90
       50
176
     1
 40
0.0
176
     1
 40
1.0
176
     1
 90
        0
176
     1
 62
    18
420
        0
176
     1
 90
       50
176
     1
 90
        3
176
     1
 62
     5
420
      255
176
     1
290
     0
176
     1
 90
       50
176
     1
 90
       50
176
     1
 90
       50
176
     1
290
     0
176
     1
 90
       50
176
     1
 62
   256
176
     0
 40
1.0
176
     0
 90
        2
176
     1
  1
strokes_ogs.tif
176
     1
290
     0
176
     1
 40
1.0
176
     1
 40
1.0
176
     1
  0
VISUALSTYLE
  5
2C
102
{ACAD_REACTORS
330
29
102
}
330
29
100
AcDbVisualStyle
  2
Gouraud
 70
     2
177
     3
291
     1
 70
    58
 90
        2
176
     1
 90
        2
176
     1
 90
        1
176
     1
 90
        2
176
     1
 40
0.6
176
     1
 40
30.0
176
     1
 62
     7
420
 16777215
176
     1
 90
        0
176
     1
 90
        0
176
     1
 62
     7
176
     1
 62
   257
176
     1
 90
        1
176
     1
 90
        1
176
     1
 40
1.0
176
     1
 90
        0
176
     1
 62
     7
176
     1
 40
1.0
176
     1
 90
        1
176
     1
 90
        6
176
     1
 90
        2
176
     1
 62
     7
176
     1
 90
        5
176
     1
 90
        0
176
     1
 90
        0
176
     1
290
     0
176
     1
 90
       13
176
     1
 40
0.0
176
     1
 90
        0
176
     1
290
     0
176
     1
290
     1
176
     1
290
     1
176
     1
290
     0
176
     1
290
     0
176
     1
290
     0
176
     1
290
     0
176
     1
290
     0
176
     1
290
     0
176
     1
 90
       50
176
     1
 40
0.0
176
     1
 40
1.0
176
     1
 90
        0
176
     1
 62
    18
420
        0
176
     1
 90
       50
176
     1
 90
        3
176
     1
 62
     5
420
      255
176
     1
290
     0
176
     1
 90
       50
176
     1
 90
       50
176
     1
 90
       50
176
     1
290
     0
176
     1
 90
       50
176
     1
 62
   256
176
     0
 40
1.0
176
     0
 90
        2
176
     1
  1
strokes_ogs.tif
176
     1
290
     0
176
     1
 40
1.0
176
     1
 40
1.0
176
     1
  0
VISUALSTYLE
  5
2D
102
{ACAD_REACTORS
330
29
102
}
330
29
100
AcDbVisualStyle
  2
GouraudWithEdges
 70
     3
177
     3
291
     1
 70
    58
 90
        2
176
     1
 90
        2
176
     1
 90
        1
176
     1
 90
        2
176
     1
 40
0.6
176
     1
 40
30.0
176
     1
 62
     7
420
 16777215
176
     1
 90
        1
176
     1
 90
        0
176
     1
 62
     7
176
     1
 62
   257
176
     1
 90
        1
176
     1
 90
        1
176
     1
 40
1.0
176
     1
 90
        0
176
     1
 62
   257
176
     1
 40
1.0
176
     1
 90
        1
176
     1
 90
        6
176
     1
 90
        2
176
     1
 62
     7
176
     1
 90
        5
176
     1
 90
        0
176
     1
 90
        0
176
     1
290
     0
176
     1
 90
       13
176
     1
 40
0.0
176
     1
 90
        0
176
     1
290
     0
176
     1
290
     1
176
     1
290
     1
176
     1
290
     0
176
     1
290
     0
176
     1
290
     0
176
     1
290
     0
176
     1
290
     0
176
     1
290
     0
176
     1
 90
       50
176
     1
 40
0.0
176
     1
 40
1.0
176
     1
 90
        0
176
     1
 62
    18
420
        0
176
     1
 90
       50
176
     1
 90
        3
176
     1
 62
     5
420
      255
176
     1
290
     0
176
     1
 90
       50
176
     1
 90
       50
176
     1
 90
       50
176
     1
290
     0
176
     1
 90
       50
176
     1
 62
   256
176
     0
 40
1.0
176
     0
 90
        2
176
     1
  1
strokes_ogs.tif
176
     1
290
     0
176
     1
 40
1.0
176
     1
 40
1.0
176
     1
  0
VISUALSTYLE
  5
31
102
{ACAD_REACTORS
330
29
102
}
330
29
100
AcDbVisualStyle
  2
Hidden
 70
     6
177
     3
291
     0
 70
    58
 90
        1
176
     1
 90
        2
176
     1
 90
        2
176
     1
 90
        0
176
     1
 40
0.6
176
     1
 40
30.0
176
     1
 62
     7
420
 16777215
176
     1
 90
        2
176
     1
 90
        2
176
     1
 62
     7
176
     1
 62
   257
176
     1
 90
        2
176
     1
 90
        1
176
     1
 40
40.0
176
     1
 90
        0
176
     1
 62
   257
176
     1
 40
1.0
176
     1
 90
        1
176
     1
 90
        6
176
     1
 90
        2
176
     1
 62
     7
176
     1
 90
        3
176
     1
 90
        0
176
     1
 90
        0
176
     1
290
     0
176
     1
 90
        1
176
     1
 40
0.0
176
     1
 90
        0
176
     1
290
     0
176
     1
290
     1
176
     1
290
     1
176
     1
290
     0
176
     1
290
     0
176
     1
290
     0
176
     1
290
     0
176
     1
290
     0
176
     1
290
     0
176
     1
 90
       50
176
     1
 40
0.0
176
     1
 40
1.0
176
     1
 90
        0
176
     1
 62
    18
420
        0
176
     1
 90
       50
176
     1
 90
        3
176
     1
 62
     5
420
      255
176
     1
290
     0
176
     1
 90
       50
176
     1
 90
       50
176
     1
 90
       50
176
     1
290
     0
176
     1
 90
       50
176
     1
 62
   256
176
     0
 40
1.0
176
     0
 90
        2
176
     1
  1
strokes_ogs.tif
176
     1
290
     0
176
     1
 40
1.0
176
     1
 40
1.0
176
     1
  0
VISUALSTYLE
  5
3F
102
{ACAD_REACTORS
330
29
102
}
330
29
100
AcDbVisualStyle
  2
JitterOff
 70
    20
177
     3
291
     1
 70
    58
 90
        2
176
     0
 90
        2
176
     0
 90
        0
176
     0
 90
        0
176
     0
 40
0.6
176
     0
 40
30.0
176
     0
 62
     7
420
 16777215
176
     0
 90
        1
176
     0
 90
        4
176
     0
 62
     7
176
     0
 62
   257
176
     0
 90
        1
176
     0
 90
        1
176
     0
 40
1.0
176
     0
 90
       10
176
     2
 62
     7
176
     0
 40
1.0
176
     0
 90
        1
176
     0
 90
        6
176
     0
 90
        2
176
     0
 62
     7
176
     0
 90
        5
176
     0
 90
        0
176
     0
 90
        0
176
     0
290
     0
176
     0
 90
        1
176
     0
 40
0.0
176
     0
 90
        0
176
     0
290
     0
176
     0
290
     1
176
     0
290
     1
176
     0
290
     0
176
     0
290
     0
176
     0
290
     0
176
     0
290
     0
176
     0
290
     0
176
     0
290
     0
176
     0
 90
       50
176
     0
 40
0.0
176
     0
 40
1.0
176
     0
 90
        0
176
     0
 62
    18
420
        0
176
     0
 90
       50
176
     0
 90
        3
176
     0
 62
     5
420
      255
176
     0
290
     0
176
     0
 90
       50
176
     0
 90
       50
176
     0
 90
       50
176
     0
290
     0
176
     0
 90
       50
176
     0
 62
   256
176
     0
 40
1.0
176
     0
 90
        2
176
     0
  1
strokes_ogs.tif
176
     0
290
     0
176
     0
 40
1.0
176
     0
 40
1.0
176
     0
  0
VISUALSTYLE
  5
37
102
{ACAD_REACTORS
330
29
102
}
330
29
100
AcDbVisualStyle
  2
Linepattern
 70
    14
177
     3
291
     1
 70
    58
 90
        2
176
     1
 90
        2
176
     1
 90
        0
176
     1
 90
        0
176
     1
 40
0.6
176
     1
 40
30.0
176
     1
 62
     7
420
 16777215
176
     1
 90
        1
176
     1
 90
        4
176
     1
 62
     7
176
     1
 62
   257
176
     1
 90
        7
176
     1
 90
        7
176
     1
 40
1.0
176
     1
 90
        8
176
     1
 62
     7
176
     1
 40
1.0
176
     1
 90
        1
176
     1
 90
        6
176
     1
 90
        2
176
     1
 62
     7
176
     1
 90
        5
176
     1
 90
        0
176
     1
 90
        0
176
     1
290
     0
176
     1
 90
        1
176
     1
 40
0.0
176
     1
 90
        0
176
     1
290
     0
176
     1
290
     1
176
     1
290
     1
176
     1
290
     0
176
     1
290
     0
176
     1
290
     0
176
     1
290
     0
176
     1
290
     0
176
     1
290
     0
176
     1
 90
       50
176
     1
 40
0.0
176
     1
 40
1.0
176
     1
 90
        0
176
     1
 62
    18
420
        0
176
     1
 90
       50
176
     1
 90
        3
176
     1
 62
     5
420
      255
176
     1
290
     0
176
     1
 90
       50
176
     1
 90
       50
176
     1
 90
       50
176
     1
290
     0
176
     1
 90
       50
176
     1
 62
   256
176
     0
 40
1.0
176
     0
 90
        2
176
     1
  1
strokes_ogs.tif
176
     1
290
     0
176
     1
 40
1.0
176
     1
 40
1.0
176
     1
  0
VISUALSTYLE
  5
40
102
{ACAD_REACTORS
330
29
102
}
330
29
100
AcDbVisualStyle
  2
OverhangOff
 70
    21
177
     3
291
     1
 70
    58
 90
        2
176
     0
 90
        2
176
     0
 90
        0
176
     0
 90
        0
176
     0
 40
0.6
176
     0
 40
30.0
176
     0
 62
     7
420
 16777215
176
     0
 90
        1
176
     0
 90
        4
176
     0
 62
     7
176
     0
 62
   257
176
     0
 90
        1
176
     0
 90
        1
176
     0
 40
1.0
176
     0
 90
        9
176
     2
 62
     7
176
     0
 40
1.0
176
     0
 90
        1
176
     0
 90
        6
176
     0
 90
        2
176
     0
 62
     7
176
     0
 90
        5
176
     0
 90
        0
176
     0
 90
        0
176
     0
290
     0
176
     0
 90
        1
176
     0
 40
0.0
176
     0
 90
        0
176
     0
290
     0
176
     0
290
     1
176
     0
290
     1
176
     0
290
     0
176
     0
290
     0
176
     0
290
     0
176
     0
290
     0
176
     0
290
     0
176
     0
290
     0
176
     0
 90
       50
176
     0
 40
0.0
176
     0
 40
1.0
176
     0
 90
        0
176
     0
 62
    18
420
        0
176
     0
 90
       50
176
     0
 90
        3
176
     0
 62
     5
420
      255
176
     0
290
     0
176
     0
 90
       50
176
     0
 90
       50
176
     0
 90
       50
176
     0
290
     0
176
     0
 90
       50
176
     0
 62
   256
176
     0
 40
1.0
176
     0
 90
        2
176
     0
  1
strokes_ogs.tif
176
     0
290
     0
176
     0
 40
1.0
176
     0
 40
1.0
176
     0
  0
VISUALSTYLE
  5
33
102
{ACAD_REACTORS
330
29
102
}
330
29
100
AcDbVisualStyle
  2
Realistic
 70
     8
177
     3
291
     0
 70
    58
 90
        2
176
     1
 90
        3
176
     1
 90
        0
176
     1
 90
        2
176
     1
 40
0.6
176
     1
 40
30.0
176
     1
 62
     7
420
 16777215
176
     1
 90
        0
176
     1
 90
        0
176
     1
 62
     7
176
     1
 62
   257
176
     1
 90
        1
176
     1
 90
        1
176
     1
 40
1.0
176
     1
 90
        8
176
     1
 62
   257
176
     1
 40
1.0
176
     1
 90
        1
176
     1
 90
        6
176
     1
 90
        2
176
     1
 62
     7
176
     1
 90
        3
176
     1
 90
        0
176
     1
 90
        0
176
     1
290
     0
176
     1
 90
       13
176
     1
 40
0.0
176
     1
 90
        0
176
     1
290
     0
176
     1
290
     1
176
     1
290
     1
176
     1
290
     0
176
     1
290
     0
176
     1
290
     0
176
     1
290
     0
176
     1
290
     0
176
     1
290
     0
176
     1
 90
       50
176
     1
 40
0.0
176
     1
 40
1.0
176
     1
 90
        0
176
     1
 62
    18
420
        0
176
     1
 90
       50
176
     1
 90
        3
176
     1
 62
     5
420
      255
176
     1
290
     0
176
     1
 90
       50
176
     1
 90
       50
176
     1
 90
       50
176
     1
290
     0
176
     1
 90
       50
176
     1
 62
   256
176
     0
 40
1.0
176
     0
 90
        2
176
     1
  1
strokes_ogs.tif
176
     1
290
     0
176
     1
 40
1.0
176
     1
 40
1.0
176
     1
  0
VISUALSTYLE
  5
3E
102
{ACAD_REACTORS
330
29
102
}
330
29
100
AcDbVisualStyle
  2
Shaded
 70
    27
177
     3
291
     0
 70
    58
 90
        2
176
     1
 90
        2
176
     1
 90
        1
176
     1
 90
        2
176
     1
 40
0.6
176
     1
 40
30.0
176
     1
 62
     7
420
 16777215
176
     1
 90
        0
176
     1
 90
        4
176
     1
 62
     7
176
     1
 62
   257
176
     1
 90
        1
176
     1
 90
        1
176
     1
 40
1.0
176
     1
 90
        8
176
     1
 62
   257
176
     1
 40
1.0
176
     1
 90
        1
176
     1
 90
        6
176
     1
 90
        2
176
     1
 62
     8
420
  7895160
176
     1
 90
        3
176
     1
 90
        0
176
     1
 90
        0
176
     1
290
     0
176
     1
 90
        5
176
     1
 40
0.0
176
     1
 90
        0
176
     1
290
     0
176
     1
290
     1
176
     1
290
     1
176
     1
290
     0
176
     1
290
     0
176
     1
290
     0
176
     1
290
     0
176
     1
290
     0
176
     1
290
     0
176
     1
 90
       50
176
     1
 40
0.0
176
     1
 40
1.0
176
     1
 90
        0
176
     1
 62
    18
420
        0
176
     1
 90
       50
176
     1
 90
        3
176
     1
 62
     5
420
      255
176
     1
290
     0
176
     1
 90
       50
176
     1
 90
       50
176
     1
 90
       50
176
     1
290
     0
176
     1
 90
       50
176
     1
 62
   256
176
     0
 40
1.0
176
     0
 90
        2
176
     1
  1
strokes_ogs.tif
176
     1
290
     0
176
     1
 40
1.0
176
     1
 40
1.0
176
     1
  0
VISUALSTYLE
  5
3D
102
{ACAD_REACTORS
330
29
102
}
330
29
100
AcDbVisualStyle
  2
Shaded with edges
 70
    26
177
     3
291
     0
 70
    58
 90
        2
176
     1
 90
        2
176
     1
 90
        1
176
     1
 90
        2
176
     1
 40
0.6
176
     1
 40
30.0
176
     1
 62
     7
420
 16777215
176
     1
 90
        1
176
     1
 90
        2
176
     1
 62
     7
176
     1
 62
   257
176
     1
 90
        2
176
     1
 90
        1
176
     1
 40
1.0
176
     1
 90
        8
176
     1
 62
   257
176
     1
 40
1.0
176
     1
 90
        1
176
     1
 90
        6
176
     1
 90
        2
176
     1
 62
     7
176
     1
 90
        3
176
     1
 90
        0
176
     1
 90
        0
176
     1
290
     0
176
     1
 90
        5
176
     1
 40
0.0
176
     1
 90
        0
176
     1
290
     0
176
     1
290
     1
176
     1
290
     1
176
     1
290
     0
176
     1
290
     0
176
     1
290
     0
176
     1
290
     0
176
     1
290
     0
176
     1
290
     0
176
     1
 90
       50
176
     1
 40
0.0
176
     1
 40
1.0
176
     1
 90
        0
176
     1
 62
    18
420
        0
176
     1
 90
       50
176
     1
 90
        3
176
     1
 62
     5
420
      255
176
     1
290
     0
176
     1
 90
       50
176
     1
 90
       50
176
     1
 90
       50
176
     1
290
     0
176
     1
 90
       50
176
     1
 62
   256
176
     0
 40
1.0
176
     0
 90
        2
176
     1
  1
strokes_ogs.tif
176
     1
290
     0
176
     1
 40
1.0
176
     1
 40
1.0
176
     1
  0
VISUALSTYLE
  5
3A
102
{ACAD_REACTORS
330
29
102
}
330
29
100
AcDbVisualStyle
  2
Shades of Gray
 70
    23
177
     3
291
     0
 70
    58
 90
        2
176
     1
 90
        2
176
     1
 90
        3
176
     1
 90
        0
176
     1
 40
0.6
176
     1
 40
30.0
176
     1
 62
     7
420
 16777215
176
     1
 90
        2
176
     1
 90
        2
176
     1
 62
     7
176
     1
 62
     7
176
     1
 90
        1
176
     1
 90
        1
176
     1
 40
40.0
176
     1
 90
        8
176
     1
 62
     7
176
     1
 40
1.0
176
     1
 90
        1
176
     1
 90
        6
176
     1
 90
        2
176
     1
 62
     7
176
     1
 90
        3
176
     1
 90
        0
176
     1
 90
        0
176
     1
290
     0
176
     1
 90
        1
176
     1
 40
0.0
176
     1
 90
        0
176
     1
290
     0
176
     1
290
     1
176
     1
290
     1
176
     1
290
     0
176
     1
290
     0
176
     1
290
     0
176
     1
290
     0
176
     1
290
     0
176
     1
290
     0
176
     1
 90
       50
176
     1
 40
0.0
176
     1
 40
1.0
176
     1
 90
        0
176
     1
 62
    18
420
        0
176
     1
 90
       50
176
     1
 90
        3
176
     1
 62
     5
420
      255
176
     1
290
     0
176
     1
 90
       50
176
     1
 90
       50
176
     1
 90
       50
176
     1
290
     0
176
     1
 90
       50
176
     1
 62
   256
176
     0
 40
1.0
176
     0
 90
        2
176
     1
  1
strokes_ogs.tif
176
     1
290
     0
176
     1
 40
1.0
176
     1
 40
1.0
176
     1
  0
VISUALSTYLE
  5
3B
102
{ACAD_REACTORS
330
29
102
}
330
29
100
AcDbVisualStyle
  2
Sketchy
 70
    24
177
     3
291
     0
 70
    58
 90
        1
176
     1
 90
        2
176
     1
 90
        2
176
     1
 90
        0
176
     1
 40
0.6
176
     1
 40
30.0
176
     1
 62
     7
420
 16777215
176
     1
 90
        2
176
     1
 90
        2
176
     1
 62
     7
176
     1
 62
     7
176
     1
 90
        1
176
     1
 90
        1
176
     1
 40
40.0
176
     1
 90
       11
176
     1
 62
     7
176
     1
 40
1.0
176
     1
 90
        1
176
     1
 90
        6
176
     1
 90
        2
176
     1
 62
     7
176
     1
 90
        6
176
     1
 90
        0
176
     1
 90
        0
176
     1
290
     0
176
     1
 90
        1
176
     1
 40
0.0
176
     1
 90
        0
176
     1
290
     0
176
     1
290
     1
176
     1
290
     1
176
     1
290
     0
176
     1
290
     0
176
     1
290
     0
176
     1
290
     0
176
     1
290
     0
176
     1
290
     0
176
     1
 90
       50
176
     1
 40
0.0
176
     1
 40
1.0
176
     1
 90
        0
176
     1
 62
    18
420
        0
176
     1
 90
       50
176
     1
 90
        3
176
     1
 62
     5
420
      255
176
     1
290
     0
176
     1
 90
       50
176
     1
 90
       50
176
     1
 90
       50
176
     1
290
     0
176
     1
 90
       50
176
     1
 62
   256
176
     0
 40
1.0
176
     0
 90
        2
176
     1
  1
strokes_ogs.tif
176
     1
290
     0
176
     1
 40
1.0
176
     1
 40
1.0
176
     1
  0
VISUALSTYLE
  5
36
102
{ACAD_REACTORS
330
29
102
}
330
29
100
AcDbVisualStyle
  2
Thicken
 70
    13
177
     3
291
     1
 70
    58
 90
        2
176
     1
 90
        2
176
     1
 90
        0
176
     1
 90
        0
176
     1
 40
0.6
176
     1
 40
30.0
176
     1
 62
     7
420
 16777215
176
     1
 90
        1
176
     1
 90
        4
176
     1
 62
     7
176
     1
 62
   257
176
     1
 90
        1
176
     1
 90
        1
176
     1
 40
1.0
176
     1
 90
       12
176
     1
 62
     7
176
     1
 40
1.0
176
     1
 90
        1
176
     1
 90
        6
176
     1
 90
        2
176
     1
 62
     7
176
     1
 90
        5
176
     1
 90
        0
176
     1
 90
        0
176
     1
290
     0
176
     1
 90
        1
176
     1
 40
0.0
176
     1
 90
        0
176
     1
290
     0
176
     1
290
     1
176
     1
290
     1
176
     1
290
     0
176
     1
290
     0
176
     1
290
     0
176
     1
290
     0
176
     1
290
     0
176
     1
290
     0
176
     1
 90
       50
176
     1
 40
0.0
176
     1
 40
1.0
176
     1
 90
        0
176
     1
 62
    18
420
        0
176
     1
 90
       50
176
     1
 90
        3
176
     1
 62
     5
420
      255
176
     1
290
     0
176
     1
 90
       50
176
     1
 90
       50
176
     1
 90
       50
176
     1
290
     0
176
     1
 90
       50
176
     1
 62
   256
176
     0
 40
1.0
176
     0
 90
        2
176
     1
  1
strokes_ogs.tif
176
     1
290
     0
176
     1
 40
1.0
176
     1
 40
1.0
176
     1
  0
VISUALSTYLE
  5
30
102
{ACAD_REACTORS
330
29
102
}
330
29
100
AcDbVisualStyle
  2
Wireframe
 70
     5
177
     3
291
     0
 70
    58
 90
        0
176
     1
 90
        2
176
     1
 90
        0
176
     1
 90
        0
176
     1
 40
0.6
176
     1
 40
30.0
176
     1
 62
     7
420
 16777215
176
     1
 90
        1
176
     1
 90
        4
176
     1
 62
     7
176
     1
 62
   257
176
     1
 90
        1
176
     1
 90
        1
176
     1
 40
1.0
176
     1
 90
        0
176
     1
 62
   257
176
     1
 40
1.0
176
     1
 90
        1
176
     1
 90
        6
176
     1
 90
        2
176
     1
 62
     7
176
     1
 90
        3
176
     1
 90
        0
176
     1
 90
        0
176
     1
290
     0
176
     1
 90
        1
176
     1
 40
0.0
176
     1
 90
        0
176
     1
290
     0
176
     1
290
     1
176
     1
290
     1
176
     1
290
     0
176
     1
290
     0
176
     1
290
     0
176
     1
290
     0
176
     1
290
     0
176
     1
290
     0
176
     1
 90
       50
176
     1
 40
0.0
176
     1
 40
1.0
176
     1
 90
        0
176
     1
 62
    18
420
        0
176
     1
 90
       50
176
     1
 90
        3
176
     1
 62
     5
420
      255
176
     1
290
     0
176
     1
 90
       50
176
     1
 90
       50
176
     1
 90
       50
176
     1
290
     0
176
     1
 90
       50
176
     1
 62
   256
176
     0
 40
1.0
176
     0
 90
        2
176
     1
  1
strokes_ogs.tif
176
     1
290
     0
176
     1
 40
1.0
176
     1
 40
1.0
176
     1
  0
VISUALSTYLE
  5
3C
102
{ACAD_REACTORS
330
29
102
}
330
29
100
AcDbVisualStyle
  2
X-Ray
 70
    25
177
     3
291
     0
 70
    58
 90
        2
176
     1
 90
        2
176
     1
 90
        1
176
     1
 90
        1
176
     1
 40
0.5
176
     1
 40
30.0
176
     1
 62
     7
420
 16777215
176
     1
 90
        1
176
     1
 90
        0
176
     1
 62
     7
176
     1
 62
   257
176
     1
 90
        1
176
     1
 90
        1
176
     1
 40
1.0
176
     1
 90
        8
176
     1
 62
     7
176
     1
 40
1.0
176
     1
 90
        1
176
     1
 90
        6
176
     1
 90
        2
176
     1
 62
     7
176
     1
 90
        3
176
     1
 90
        0
176
     1
 90
        0
176
     1
290
     0
176
     1
 90
       13
176
     1
 40
0.0
176
     1
 90
        0
176
     1
290
     0
176
     1
290
     1
176
     1
290
     1
176
     1
290
     0
176
     1
290
     0
176
     1
290
     0
176
     1
290
     0
176
     1
290
     0
176
     1
290
     0
176
     1
 90
       50
176
     1
 40
0.0
176
     1
 40
1.0
176
     1
 90
        0
176
     1
 62
    18
420
        0
176
     1
 90
       50
176
     1
 90
        3
176
     1
 62
     5
420
      255
176
     1
290
     0
176
     1
 90
       50
176
     1
 90
       50
176
     1
 90
       50
176
     1
290
     0
176
     1
 90
       50
176
     1
 62
   256
176
     0
 40
1.0
176
     0
 90
        2
176
     1
  1
strokes_ogs.tif
176
     1
290
     0
176
     1
 40
1.0
176
     1
 40
1.0
176
     1
  0
DICTIONARYVAR
  5
9F
102
{ACAD_REACTORS
330
9A
102
}
330
9A
100
DictionaryVariables
280
     0
  1
1:1
  0
DICTIONARYVAR
  5
9C
102
{ACAD_REACTORS
330
9A
102
}
330
9A
100
DictionaryVariables
280
     0
  1
STANDARD
  0
DICTIONARYVAR
  5
9B
102
{ACAD_REACTORS
330
9A
102
}
330
9A
100
DictionaryVariables
280
     0
  1
STANDARD
  0
DICTIONARYVAR
  5
9D
102
{ACAD_REACTORS
330
9A
102
}
330
9A
100
DictionaryVariables
280
     0
  1
Imperial24
  0
DICTIONARYVAR
  5
9E
102
{ACAD_REACTORS
330
9A
102
}
330
9A
100
DictionaryVariables
280
     0
  1
Imperial24
  0
DICTIONARY
  5
1A
330
19
100
AcDbDictionary
280
     1
281
     1
  3
BUMPTILE
360
1C
  3
DIFFUSETILE
360
1B
  3
OPACITYTILE
360
1F
  3
REFLECTIONTILE
360
1E
  3
REFRACTIONTILE
360
20
  3
SPECULARTILE
360
1D
  0
DICTIONARY
  5
12
330
11
100
AcDbDictionary
280
     1
281
     1
  3
BUMPTILE
360
14
  3
DIFFUSETILE
360
13
  3
OPACITYTILE
360
17
  3
REFLECTIONTILE
360
16
  3
REFRACTIONTILE
360
18
  3
SPECULARTILE
360
15
  0
DICTIONARY
  5
22
330
21
100
AcDbDictionary
280
     1
281
     1
  3
BUMPTILE
360
24
  3
DIFFUSETILE
360
23
  3
OPACITYTILE
360
27
  3
REFLECTIONTILE
360
26
  3
REFRACTIONTILE
360
28
  3
SPECULARTILE
360
25
  0
DICTIONARY
  5
A0
330
65
100
AcDbDictionary
280
     1
281
     1
  3
ACAD_ROUNDTRIP_2008_TABLESTYLE_CELLSTYLEMAP
360
A1
  0
XRECORD
  5
1C
102
{ACAD_REACTORS
330
1A
102
}
330
1A
100
AcDbXrecord
280
     1
270
     1
271
     1
  0
XRECORD
  5
1B
102
{ACAD_REACTORS
330
1A
102
}
330
1A
100
AcDbXrecord
280
     1
270
     1
271
     1
  0
XRECORD
  5
1F
102
{ACAD_REACTORS
330
1A
102
}
330
1A
100
AcDbXrecord
280
     1
270
     1
271
     1
  0
XRECORD
  5
1E
102
{ACAD_REACTORS
330
1A
102
}
330
1A
100
AcDbXrecord
280
     1
270
     1
271
     1
  0
XRECORD
  5
20
102
{ACAD_REACTORS
330
1A
102
}
330
1A
100
AcDbXrecord
280
     1
270
     1
271
     1
  0
XRECORD
  5
1D
102
{ACAD_REACTORS
330
1A
102
}
330
1A
100
AcDbXrecord
280
     1
270
     1
271
     1
  0
XRECORD
  5
14
102
{ACAD_REACTORS
330
12
102
}
330
12
100
AcDbXrecord
280
     1
270
     1
271
     1
  0
XRECORD
  5
13
102
{ACAD_REACTORS
330
12
102
}
330
12
100
AcDbXrecord
280
     1
270
     1
271
     1
  0
XRECORD
  5
17
102
{ACAD_REACTORS
330
12
102
}
330
12
100
AcDbXrecord
280
     1
270
     1
271
     1
  0
XRECORD
  5
16
102
{ACAD_REACTORS
330
12
102
}
330
12
100
AcDbXrecord
280
     1
270
     1
271
     1
  0
XRECORD
  5
18
102
{ACAD_REACTORS
330
12
102
}
330
12
100
AcDbXrecord
280
     1
270
     1
271
     1
  0
XRECORD
  5
15
102
{ACAD_REACTORS
330
12
102
}
330
12
100
AcDbXrecord
280
     1
270
     1
271
     1
  0
XRECORD
  5
24
102
{ACAD_REACTORS
330
22
102
}
330
22
100
AcDbXrecord
280
     1
270
     1
271
     1
  0
XRECORD
  5
23
102
{ACAD_REACTORS
330
22
102
}
330
22
100
AcDbXrecord
280
     1
270
     1
271
     1
  0
XRECORD
  5
27
102
{ACAD_REACTORS
330
22
102
}
330
22
100
AcDbXrecord
280
     1
270
     1
271
     1
  0
XRECORD
  5
26
102
{ACAD_REACTORS
330
22
102
}
330
22
100
AcDbXrecord
280
     1
270
     1
271
     1
  0
XRECORD
  5
28
102
{ACAD_REACTORS
330
22
102
}
330
22
100
AcDbXrecord
280
     1
270
     1
271
     1
  0
XRECORD
  5
25
102
{ACAD_REACTORS
330
22
102
}
330
22
100
AcDbXrecord
280
     1
270
     1
271
     1
  0
CELLSTYLEMAP
  5
A1
102
{ACAD_REACTORS
330
A0
102
}
330
A0
100
AcDbCellStyleMap
 90
        3
300
CELLSTYLE
  1
TABLEFORMAT_BEGIN
 90
        5
170
     1
 91
        0
 92
    32768
 62
   257
 93
        1
300
CONTENTFORMAT
  1
CONTENTFORMAT_BEGIN
 90
        0
 91
        0
 92
      512
 93
        0
300

 40
0.0
140
1.0
 94
        5
 62
     0
340
55
144
0.25
309
CONTENTFORMAT_END
171
     0
 94
        0
309
TABLEFORMAT_END
  1
CELLSTYLE_BEGIN
 90
        1
 91
        1
300
_TITLE
309
CELLSTYLE_END
300
CELLSTYLE
  1
TABLEFORMAT_BEGIN
 90
        5
170
     1
 91
        0
 92
        0
 62
   257
 93
        1
300
CONTENTFORMAT
  1
CONTENTFORMAT_BEGIN
 90
        0
 91
        0
 92
      512
 93
        0
300

 40
0.0
140
1.0
 94
        5
 62
     0
340
55
144
0.18
309
CONTENTFORMAT_END
171
     0
 94
        0
309
TABLEFORMAT_END
  1
CELLSTYLE_BEGIN
 90
        2
 91
        1
300
_HEADER
309
CELLSTYLE_END
300
CELLSTYLE
  1
TABLEFORMAT_BEGIN
 90
        5
170
     1
 91
        0
 92
        0
 62
   257
 93
        1
300
CONTENTFORMAT
  1
CONTENTFORMAT_BEGIN
 90
        0
 91
        0
 92
      512
 93
        0
300

 40
0.0
140
1.0
 94
        2
 62
     0
340
55
144
0.18
309
CONTENTFORMAT_END
171
     0
 94
        0
309
TABLEFORMAT_END
  1
CELLSTYLE_BEGIN
 90
        3
 91
        2
300
_DATA
309
CELLSTYLE_END
  0
ENDSEC
  0
EOF
