  0
SECTION
  2
HEADER
  9
$ACADVER
  1
AC1032
  9
$ACADMAINTVER
 90
      251
  9
$DWGCODEPAGE
  3
ANSI_1252
  9
$REQUIREDVERSIONS
160
                 0
  9
$INSBASE
 10
0.0
 20
0.0
 30
0.0
  9
$EXTMIN
 10
1.000000000000000E+20
 20
1.000000000000000E+20
 30
1.000000000000000E+20
  9
$EXTMAX
 10
-1.000000000000000E+20
 20
-1.000000000000000E+20
 30
-1.000000000000000E+20
  9
$LIMMIN
 10
0.0
 20
0.0
  9
$LIMMAX
 10
12.0
 20
9.0
  9
$ORTHOMODE
 70
     0
  9
$REGENMODE
 70
     1
  9
$FILLMODE
 70
     1
  9
$QTEXTMODE
 70
     0
  9
$MIRRTEXT
 70
     0
  9
$LTSCALE
 40
1.0
  9
$ATTMODE
 70
     1
  9
$TEXTSIZE
 40
0.2
  9
$TRACEWID
 40
0.05
  9
$TEXTSTYLE
  7
Standard
  9
$CLAYER
  8
0
  9
$CELTYPE
  6
ByLayer
  9
$CECOLOR
 62
   256
  9
$CELTSCALE
 40
1.0
  9
$DISPSILH
 70
     0
  9
$DIMSCALE
 40
1.0
  9
$DIMASZ
 40
0.18
  9
$DIMEXO
 40
0.0625
  9
$DIMDLI
 40
0.38
  9
$DIMRND
 40
0.0
  9
$DIMDLE
 40
0.0
  9
$DIMEXE
 40
0.18
  9
$DIMTP
 40
0.0
  9
$DIMTM
 40
0.0
  9
$DIMTXT
 40
0.18
  9
$DIMCEN
 40
0.09
  9
$DIMTSZ
 40
0.0
  9
$DIMTOL
 70
     0
  9
$DIMLIM
 70
     0
  9
$DIMTIH
 70
     1
  9
$DIMTOH
 70
     1
  9
$DIMSE1
 70
     0
  9
$DIMSE2
 70
     0
  9
$DIMTAD
 70
     0
  9
$DIMZIN
 70
     0
  9
$DIMBLK
  1

  9
$DIMASO
 70
     1
  9
$DIMSHO
 70
     1
  9
$DIMPOST
  1

  9
$DIMAPOST
  1

  9
$DIMALT
 70
     0
  9
$DIMALTD
 70
     2
  9
$DIMALTF
 40
25.4
  9
$DIMLFAC
 40
1.0
  9
$DIMTOFL
 70
     0
  9
$DIMTVP
 40
0.0
  9
$DIMTIX
 70
     0
  9
$DIMSOXD
 70
     0
  9
$DIMSAH
 70
     0
  9
$DIMBLK1
  1

  9
$DIMBLK2
  1

  9
$DIMSTYLE
  2
Standard
  9
$DIMCLRD
 70
     0
  9
$DIMCLRE
 70
     0
  9
$DIMCLRT
 70
     0
  9
$DIMTFAC
 40
1.0
  9
$DIMGAP
 40
0.09
  9
$DIMJUST
 70
     0
  9
$DIMSD1
 70
     0
  9
$DIMSD2
 70
     0
  9
$DIMTOLJ
 70
     1
  9
$DIMTZIN
 70
     0
  9
$DIMALTZ
 70
     0
  9
$DIMALTTZ
 70
     0
  9
$DIMUPT
 70
     0
  9
$DIMDEC
 70
     4
  9
$DIMTDEC
 70
     4
  9
$DIMALTU
 70
     2
  9
$DIMALTTD
 70
     2
  9
$DIMTXSTY
  7
Standard
  9
$DIMAUNIT
 70
     0
  9
$DIMADEC
 70
     0
  9
$DIMALTRND
 40
0.0
  9
$DIMAZIN
 70
     0
  9
$DIMDSEP
 70
    46
  9
$DIMATFIT
 70
     3
  9
$DIMFRAC
 70
     0
  9
$DIMLDRBLK
  1

  9
$DIMLUNIT
 70
     2
  9
$DIMLWD
 70
    -2
  9
$DIMLWE
 70
    -2
  9
$DIMTMOVE
 70
     0
  9
$DIMFXL
 40
1.0
  9
$DIMFXLON
 70
     0
  9
$DIMJOGANG
 40
0.7853981633974483
  9
$DIMTFILL
 70
     0
  9
$DIMTFILLCLR
 70
     0
  9
$DIMARCSYM
 70
     0
  9
$DIMLTYPE
  6

  9
$DIMLTEX1
  6

  9
$DIMLTEX2
  6

  9
$DIMTXTDIRECTION
 70
     0
  9
$LUNITS
 70
     2
  9
$LUPREC
 70
     4
  9
$SKETCHINC
 40
0.1
  9
$FILLETRAD
 40
0.0
  9
$AUNITS
 70
     0
  9
$AUPREC
 70
     0
  9
$MENU
  1
.
  9
$ELEVATION
 40
0.0
  9
$PELEVATION
 40
0.0
  9
$THICKNESS
 40
0.0
  9
$LIMCHECK
 70
     0
  9
$CHAMFERA
 40
0.0
  9
$CHAMFERB
 40
0.0
  9
$CHAMFERC
 40
0.0
  9
$CHAMFERD
 40
0.0
  9
$SKPOLY
 70
     0
  9
$TDCREATE
 40
2459850.476527778
  9
$TDUCREATE
 40
2459850.393194445
  9
$TDUPDATE
 40
2459850.476527778
  9
$TDUUPDATE
 40
2459850.393194445
  9
$TDINDWG
 40
0.0000000000
  9
$TDUSRTIMER
 40
0.0000000000
  9
$USRTIMER
 70
     1
  9
$ANGBASE
 50
0.0
  9
$ANGDIR
 70
     0
  9
$PDMODE
 70
     0
  9
$PDSIZE
 40
0.0
  9
$PLINEWID
 40
0.0
  9
$SPLFRAME
 70
     0
  9
$SPLINETYPE
 70
     6
  9
$SPLINESEGS
 70
     8
  9
$HANDSEED
  5
A6
  9
$SURFTAB1
 70
     6
  9
$SURFTAB2
 70
     6
  9
$SURFTYPE
 70
     6
  9
$SURFU
 70
     6
  9
$SURFV
 70
     6
  9
$UCSBASE
  2

  9
$UCSNAME
  2

  9
$UCSORG
 10
0.0
 20
0.0
 30
0.0
  9
$UCSXDIR
 10
1.0
 20
0.0
 30
0.0
  9
$UCSYDIR
 10
0.0
 20
1.0
 30
0.0
  9
$UCSORTHOREF
  2

  9
$UCSORTHOVIEW
 70
     0
  9
$UCSORGTOP
 10
0.0
 20
0.0
 30
0.0
  9
$UCSORGBOTTOM
 10
0.0
 20
0.0
 30
0.0
  9
$UCSORGLEFT
 10
0.0
 20
0.0
 30
0.0
  9
$UCSORGRIGHT
 10
0.0
 20
0.0
 30
0.0
  9
$UCSORGFRONT
 10
0.0
 20
0.0
 30
0.0
  9
$UCSORGBACK
 10
0.0
 20
0.0
 30
0.0
  9
$PUCSBASE
  2

  9
$PUCSNAME
  2

  9
$PUCSORG
 10
0.0
 20
0.0
 30
0.0
  9
$PUCSXDIR
 10
1.0
 20
0.0
 30
0.0
  9
$PUCSYDIR
 10
0.0
 20
1.0
 30
0.0
  9
$PUCSORTHOREF
  2

  9
$PUCSORTHOVIEW
 70
     0
  9
$PUCSORGTOP
 10
0.0
 20
0.0
 30
0.0
  9
$PUCSORGBOTTOM
 10
0.0
 20
0.0
 30
0.0
  9
$PUCSORGLEFT
 10
0.0
 20
0.0
 30
0.0
  9
$PUCSORGRIGHT
 10
0.0
 20
0.0
 30
0.0
  9
$PUCSORGFRONT
 10
0.0
 20
0.0
 30
0.0
  9
$PUCSORGBACK
 10
0.0
 20
0.0
 30
0.0
  9
$USERI1
 70
     0
  9
$USERI2
 70
     0
  9
$USERI3
 70
     0
  9
$USERI4
 70
     0
  9
$USERI5
 70
     0
  9
$USERR1
 40
0.0
  9
$USERR2
 40
0.0
  9
$USERR3
 40
0.0
  9
$USERR4
 40
0.0
  9
$USERR5
 40
0.0
  9
$WORLDVIEW
 70
     1
  9
$SHADEDGE
 70
     3
  9
$SHADEDIF
 70
    70
  9
$TILEMODE
 70
     1
  9
$MAXACTVP
 70
    64
  9
$PINSBASE
 10
0.0
 20
0.0
 30
0.0
  9
$PLIMCHECK
 70
     0
  9
$PEXTMIN
 10
1.000000000000000E+20
 20
1.000000000000000E+20
 30
1.000000000000000E+20
  9
$PEXTMAX
 10
-1.000000000000000E+20
 20
-1.000000000000000E+20
 30
-1.000000000000000E+20
  9
$PLIMMIN
 10
0.0
 20
0.0
  9
$PLIMMAX
 10
12.0
 20
9.0
  9
$UNITMODE
 70
     0
  9
$VISRETAIN
 70
     1
  9
$PLINEGEN
 70
     0
  9
$PSLTSCALE
 70
     1
  9
$TREEDEPTH
 70
  3020
  9
$CMLSTYLE
  2
Standard
  9
$CMLJUST
 70
     0
  9
$CMLSCALE
 40
1.0
  9
$PROXYGRAPHICS
 70
     1
  9
$MEASUREMENT
 70
     0
  9
$CELWEIGHT
370
    -1
  9
$ENDCAPS
280
     0
  9
$JOINSTYLE
280
     0
  9
$LWDISPLAY
290
     1
  9
$INSUNITS
 70
     4
  9
$HYPERLINKBASE
  1

  9
$STYLESHEET
  1

  9
$XEDIT
290
     1
  9
$CEPSNTYPE
380
     0
  9
$PSTYLEMODE
290
     1
  9
$FINGERPRINTGUID
  2
{A735B0A8-F203-704F-BF63-7C772B6FE32B}
  9
$VERSIONGUID
  2
{5A68DC2E-EB3B-0943-A62F-9BBCD112015A}
  9
$EXTNAMES
290
     1
  9
$PSVPSCALE
 40
0.0
  9
$OLESTARTUP
290
     0
  9
$SORTENTS
280
   127
  9
$INDEXCTL
280
     0
  9
$HIDETEXT
280
     1
  9
$XCLIPFRAME
280
     2
  9
$HALOGAP
280
     0
  9
$OBSCOLOR
 70
   257
  9
$OBSLTYPE
280
     0
  9
$INTERSECTIONDISPLAY
280
     0
  9
$INTERSECTIONCOLOR
 70
   257
  9
$DIMASSOC
280
     2
  9
$PROJECTNAME
  1

  9
$CAMERADISPLAY
290
     0
  9
$LENSLENGTH
 40
50.0
  9
$CAMERAHEIGHT
 40
0.0
  9
$STEPSPERSEC
 40
2.0
  9
$STEPSIZE
 40
6.0
  9
$3DDWFPREC
 40
2.0
  9
$PSOLWIDTH
 40
0.25
  9
$PSOLHEIGHT
 40
4.0
  9
$LOFTANG1
 40
1.570796326794896
  9
$LOFTANG2
 40
1.570796326794896
  9
$LOFTMAG1
 40
0.0
  9
$LOFTMAG2
 40
0.0
  9
$LOFTPARAM
 70
     7
  9
$LOFTNORMALS
280
     1
  9
$LATITUDE
 40
37.795
  9
$LONGITUDE
 40
-122.394
  9
$NORTHDIRECTION
 40
0.0
  9
$TIMEZONE
 70
 -8000
  9
$LIGHTGLYPHDISPLAY
280
     1
  9
$TILEMODELIGHTSYNCH
280
     1
  9
$CMATERIAL
347
11
  9
$SOLIDHIST
280
     0
  9
$SHOWHIST
280
     1
  9
$DWFFRAME
280
     2
  9
$DGNFRAME
280
     0
  9
$REALWORLDSCALE
290
     1
  9
$INTERFERECOLOR
 62
     1
  9
$INTERFEREOBJVS
345
33
  9
$INTERFEREVPVS
346
30
  9
$CSHADOW
280
     0
  9
$SHADOWPLANELOCATION
 40
0.0
  0
ENDSEC
  0
SECTION
  2
CLASSES
  0
CLASS
  1
ACDBDICTIONARYWDFLT
  2
AcDbDictionaryWithDefault
  3
ObjectDBX Classes
 90
        0
 91
        1
280
     0
281
     0
  0
CLASS
  1
MATERIAL
  2
AcDbMaterial
  3
ObjectDBX Classes
 90
     1153
 91
        3
280
     0
281
     0
  0
CLASS
  1
VISUALSTYLE
  2
AcDbVisualStyle
  3
ObjectDBX Classes
 90
     4095
 91
       24
280
     0
281
     0
  0
CLASS
  1
SCALE
  2
AcDbScale
  3
ObjectDBX Classes
 90
     1153
 91
       17
280
     0
281
     0
  0
CLASS
  1
TABLESTYLE
  2
AcDbTableStyle
  3
ObjectDBX Classes
 90
     4095
 91
        1
280
     0
281
     0
  0
CLASS
  1
MLEADERSTYLE
  2
AcDbMLeaderStyle
  3
ACDB_MLEADERSTYLE_CLASS
 90
     4095
 91
        1
280
     0
281
     0
  0
CLASS
  1
ACDBSECTIONVIEWSTYLE
  2
AcDbSectionViewStyle
  3
ObjectDBX Classes
 90
     1025
 91
        1
280
     0
281
     0
  0
CLASS
  1
ACDBDETAILVIEWSTYLE
  2
AcDbDetailViewStyle
  3
ObjectDBX Classes
 90
     1025
 91
        1
280
     0
281
     0
  0
CLASS
  1
DICTIONARYVAR
  2
AcDbDictionaryVar
  3
ObjectDBX Classes
 90
        0
 91
        5
280
     0
281
     0
  0
CLASS
  1
CELLSTYLEMAP
  2
AcDbCellStyleMap
  3
ObjectDBX Classes
 90
     1152
 91
        1
280
     0
281
     0
  0
ENDSEC
  0
SECTION
  2
TABLES
  0
TABLE
  2
VPORT
  5
8
330
0
100
AcDbSymbolTable
 70
     1
  0
VPORT
  5
57
330
8
100
AcDbSymbolTableRecord
100
AcDbViewportTableRecord
  2
*Active
 70
     0
 10
0.0
 20
0.0
 11
1.0
 21
1.0
 12
0.0
 22
0.0
 13
0.0
 23
0.0
 14
1.0
 24
1.0
 15
0.0
 25
0.0
 16
0.0
 26
0.0
 36
1.0
 17
500.0624998749843
 27
-122.5266296080402
 37
0.0
 40
3830.195841246228
 41
0.2664321552670728
 42
50.0
 43
0.0
 44
0.0
 50
0.0
 51
0.0
 71
     0
 72
   100
 73
     1
 74
     1
 75
     0
 76
     0
 77
     0
 78
     0
281
     0
 65
     1
110
0.0
120
0.0
130
0.0
111
1.0
121
0.0
131
0.0
112
0.0
122
1.0
132
0.0
 79
     0
146
0.0
 60
     3
 61
     5
292
     1
282
     1
141
0.0
142
0.0
 63
   250
421
  3355443
  0
ENDTAB
  0
TABLE
  2
LTYPE
  5
5
330
0
100
AcDbSymbolTable
 70
     1
  0
LTYPE
  5
5B
330
5
100
AcDbSymbolTableRecord
100
AcDbLinetypeTableRecord
  2
ByBlock
 70
     0
  3

 72
    65
 73
     0
 40
0.0
  0
LTYPE
  5
5C
330
5
100
AcDbSymbolTableRecord
100
AcDbLinetypeTableRecord
  2
ByLayer
 70
     0
  3

 72
    65
 73
     0
 40
0.0
  0
LTYPE
  5
5D
330
5
100
AcDbSymbolTableRecord
100
AcDbLinetypeTableRecord
  2
Continuous
 70
     0
  3
Solid line
 72
    65
 73
     0
 40
0.0
  0
ENDTAB
  0
TABLE
  2
LAYER
  5
2
330
0
100
AcDbSymbolTable
 70
    15
  0
LAYER
  5
54
330
2
100
AcDbSymbolTableRecord
100
AcDbLayerTableRecord
  2
0
 70
     0
 62
     7
  6
Continuous
370
    -3
390
F
347
21
348
0
  0
LAYER
  5
78
330
2
100
AcDbSymbolTableRecord
100
AcDbLayerTableRecord
  2
Guides
 70
     1
 62
     7
  6
Continuous
370
     0
390
F
347
21
348
0
  0
LAYER
  5
79
330
2
100
AcDbSymbolTableRecord
100
AcDbLayerTableRecord
  2
Bounding Box
 70
     0
 62
     7
  6
Continuous
370
     0
390
F
347
21
348
0
  0
LAYER
  5
7B
330
2
100
AcDbSymbolTableRecord
100
AcDbLayerTableRecord
  2
2022-042
 70
     0
 62
     7
  6
Continuous
370
     0
390
F
347
21
348
0
  0
LAYER
  5
8A
330
2
100
AcDbSymbolTableRecord
100
AcDbLayerTableRecord
  2
2022-041
 70
     1
 62
     7
  6
Continuous
370
     0
390
F
347
21
348
0
  0
LAYER
  5
8B
330
2
100
AcDbSymbolTableRecord
100
AcDbLayerTableRecord
  2
2022-040
 70
     1
 62
     7
  6
Continuous
370
     0
390
F
347
21
348
0
  0
LAYER
  5
8C
330
2
100
AcDbSymbolTableRecord
100
AcDbLayerTableRecord
  2
2022-039
 70
     1
 62
     7
  6
Continuous
370
     0
390
F
347
21
348
0
  0
LAYER
  5
8D
330
2
100
AcDbSymbolTableRecord
100
AcDbLayerTableRecord
  2
2022-038
 70
     1
 62
     7
  6
Continuous
370
     0
390
F
347
21
348
0
  0
LAYER
  5
8E
330
2
100
AcDbSymbolTableRecord
100
AcDbLayerTableRecord
  2
2022-037
 70
     1
 62
     7
  6
Continuous
370
     0
390
F
347
21
348
0
  0
LAYER
  5
8F
330
2
100
AcDbSymbolTableRecord
100
AcDbLayerTableRecord
  2
2022-036
 70
     1
 62
     7
  6
Continuous
370
     0
390
F
347
21
348
0
  0
LAYER
  5
90
330
2
100
AcDbSymbolTableRecord
100
AcDbLayerTableRecord
  2
2022-035
 70
     1
 62
     7
  6
Continuous
370
     0
390
F
347
21
348
0
  0
LAYER
  5
91
330
2
100
AcDbSymbolTableRecord
100
AcDbLayerTableRecord
  2
2022-034
 70
     1
 62
     7
  6
Continuous
370
     0
390
F
347
21
348
0
  0
LAYER
  5
92
330
2
100
AcDbSymbolTableRecord
100
AcDbLayerTableRecord
  2
2022-033
 70
     1
 62
     7
  6
Continuous
370
     0
390
F
347
21
348
0
  0
LAYER
  5
93
330
2
100
AcDbSymbolTableRecord
100
AcDbLayerTableRecord
  2
2022-032
 70
     1
 62
     7
  6
Continuous
370
     0
390
F
347
21
348
0
  0
LAYER
  5
94
330
2
100
AcDbSymbolTableRecord
100
AcDbLayerTableRecord
  2
Screws
 70
     0
 62
     7
  6
Continuous
370
     0
390
F
347
21
348
0
  0
ENDTAB
  0
TABLE
  2
STYLE
  5
3
330
0
100
AcDbSymbolTable
 70
     2
  0
STYLE
  5
55
330
3
100
AcDbSymbolTableRecord
100
AcDbTextStyleTableRecord
  2
Standard
 70
     0
 40
0.0
 41
1.0
 50
0.0
 71
     0
 42
0.2
  3
txt
  4

  0
STYLE
  5
5A
330
3
100
AcDbSymbolTableRecord
100
AcDbTextStyleTableRecord
  2
Annotative
 70
     0
 40
0.0
 41
1.0
 50
0.0
 71
     0
 42
0.2
  3
txt
  4

1001
AcadAnnotative
1000
AnnotativeData
1002
{
1070
     1
1070
     1
1002
}
  0
ENDTAB
  0
TABLE
  2
VIEW
  5
6
330
0
100
AcDbSymbolTable
 70
     0
  0
ENDTAB
  0
TABLE
  2
UCS
  5
7
330
0
100
AcDbSymbolTable
 70
     0
  0
ENDTAB
  0
TABLE
  2
APPID
  5
9
330
0
100
AcDbSymbolTable
 70
     2
  0
APPID
  5
56
330
9
100
AcDbSymbolTableRecord
100
AcDbRegAppTableRecord
  2
ACAD
 70
     0
  0
APPID
  5
5E
330
9
100
AcDbSymbolTableRecord
100
AcDbRegAppTableRecord
  2
AcadAnnotative
 70
     0
  0
ENDTAB
  0
TABLE
  2
DIMSTYLE
  5
A
330
0
100
AcDbSymbolTable
 70
     2
100
AcDbDimStyleTable
 71
     0
  0
DIMSTYLE
105
58
330
A
100
AcDbSymbolTableRecord
100
AcDbDimStyleTableRecord
  2
Standard
 70
     0
340
55
  0
DIMSTYLE
105
59
330
A
100
AcDbSymbolTableRecord
100
AcDbDimStyleTableRecord
  2
Annotative
 70
     0
340
55
1001
AcadAnnotative
1000
AnnotativeData
1002
{
1070
     1
1070
     1
1002
}
  0
ENDTAB
  0
TABLE
  2
BLOCK_RECORD
  5
1
330
0
100
AcDbSymbolTable
 70
     1
  0
BLOCK_RECORD
  5
70
330
1
100
AcDbSymbolTableRecord
100
AcDbBlockTableRecord
  2
*Model_Space
340
73
 70
     0
280
     1
281
     0
  0
BLOCK_RECORD
  5
6C
330
1
100
AcDbSymbolTableRecord
100
AcDbBlockTableRecord
  2
*Paper_Space
340
6F
 70
     0
280
     1
281
     0
  0
BLOCK_RECORD
  5
74
330
1
100
AcDbSymbolTableRecord
100
AcDbBlockTableRecord
  2
*Paper_Space0
340
77
 70
     0
280
     1
281
     0
  0
ENDTAB
  0
ENDSEC
  0
SECTION
  2
BLOCKS
  0
BLOCK
  5
71
330
70
100
AcDbEntity
  8
0
100
AcDbBlockBegin
  2
*Model_Space
 70
     0
 10
0.0
 20
0.0
 30
0.0
  3
*Model_Space
  1

  0
ENDBLK
  5
72
330
70
100
AcDbEntity
  8
0
100
AcDbBlockEnd
  0
BLOCK
  5
6D
330
6C
100
AcDbEntity
 67
     1
  8
0
100
AcDbBlockBegin
  2
*Paper_Space
 70
     0
 10
0.0
 20
0.0
 30
0.0
  3
*Paper_Space
  1

  0
ENDBLK
  5
6E
330
6C
100
AcDbEntity
 67
     1
  8
0
100
AcDbBlockEnd
  0
BLOCK
  5
75
330
74
100
AcDbEntity
 67
     1
  8
0
100
AcDbBlockBegin
  2
*Paper_Space0
 70
     0
 10
0.0
 20
0.0
 30
0.0
  3
*Paper_Space0
  1

  0
ENDBLK
  5
76
330
74
100
AcDbEntity
 67
     1
  8
0
100
AcDbBlockEnd
  0
ENDSEC
  0
SECTION
  2
ENTITIES
  0
LWPOLYLINE
  5
7A
330
70
100
AcDbEntity
  8
Bounding Box
 62
   250
420
  2301728
370
    35
100
AcDbPolyline
 90
        4
 70
     1
 43
0.0
 10
1000.124999749969
 20
-1999.897221722248
 10
0.0
 20
-1999.897221722248
 10
0.0
 20
0.0
 10
1000.124999749969
 20
0.0
  0
SPLINE
  5
7C
330
70
100
AcDbEntity
  8
2022-042
100
AcDbSpline
210
0.0
220
0.0
230
1.0
 70
     9
 71
     3
 72
    59
 73
    55
 74
     0
 42
0.0000000001
 43
0.0000000001
 40
0.0
 40
0.0
 40
0.0
 40
0.0
 40
1.0
 40
1.0
 40
1.0
 40
2.0
 40
2.0
 40
2.0
 40
3.0
 40
3.0
 40
3.0
 40
4.0
 40
4.0
 40
4.0
 40
5.0
 40
5.0
 40
5.0
 40
6.0
 40
6.0
 40
6.0
 40
7.0
 40
7.0
 40
7.0
 40
8.0
 40
8.0
 40
8.0
 40
9.0
 40
9.0
 40
9.0
 40
10.0
 40
10.0
 40
10.0
 40
11.0
 40
11.0
 40
11.0
 40
12.0
 40
12.0
 40
12.0
 40
13.0
 40
13.0
 40
13.0
 40
14.0
 40
14.0
 40
14.0
 40
15.0
 40
15.0
 40
15.0
 40
16.0
 40
16.0
 40
16.0
 40
17.0
 40
17.0
 40
17.0
 40
18.0
 40
18.0
 40
18.0
 40
18.0
 10
917.7389276492485
 20
-1915.18953398693
 30
0.0
 10
912.8480777705599
 20
-1923.820588898616
 30
0.0
 10
909.3492225553239
 20
-1933.244560299567
 30
0.0
 10
907.4461850207489
 20
-1942.98161855031
 30
0.0
 10
906.9640372844217
 20
-1945.448569679118
 30
0.0
 10
906.5851608897515
 20
-1947.935910820563
 30
0.0
 10
906.3031584270399
 20
-1950.433623731524
 30
0.0
 10
906.1674173104604
 20
-1951.635891031493
 30
0.0
 10
906.0177400132142
 20
-1952.864333304365
 30
0.0
 10
906.2993430900505
 20
-1954.058418195043
 30
0.0
 10
906.5707634196137
 20
-1955.209325060818
 30
0.0
 10
907.2895935943536
 20
-1956.142767882719
 30
0.0
 10
908.2421204845969
 20
-1956.819031431341
 30
0.0
 10
910.1271796579668
 20
-1958.157362998676
 30
0.0
 10
912.6942002201321
 20
-1958.314460479791
 30
0.0
 10
914.9178756004063
 20
-1958.09523300225
 30
0.0
 10
917.5840018346116
 20
-1957.832385225855
 30
0.0
 10
920.1904003602541
 20
-1957.083198992916
 30
0.0
 10
922.7764629030394
 20
-1956.41527328715
 30
0.0
 10
928.6362075515402
 20
-1954.901824167031
 30
0.0
 10
934.4512678392312
 20
-1953.217548567316
 30
0.0
 10
940.2142728235945
 20
-1951.369735971248
 30
0.0
 10
941.2909948660738
 20
-1951.024502788567
 30
0.0
 10
940.8306642398603
 20
-1949.320870387909
 30
0.0
 10
939.7453612855086
 20
-1949.668854898601
 30
0.0
 10
934.8056459299616
 20
-1951.252693239837
 30
0.0
 10
929.8278046062046
 20
-1952.716625123258
 30
0.0
 10
924.8160961619921
 20
-1954.0554278339
 30
0.0
 10
922.3340620670432
 20
-1954.71846599967
 30
0.0
 10
919.8453560350991
 20
-1955.401813541342
 30
0.0
 10
917.3314813159494
 20
-1955.934564814436
 30
0.0
 10
915.0923108065446
 20
-1956.409099575644
 30
0.0
 10
912.6274589574805
 20
-1956.731443670759
 30
0.0
 10
910.4151246826715
 20
-1955.961700165117
 30
0.0
 10
909.6013805279421
 20
-1955.678571939201
 30
0.0
 10
908.788015425932
 20
-1955.18789358579
 30
0.0
 10
908.3342083969197
 20
-1954.434327388504
 30
0.0
 10
907.7829439786951
 20
-1953.518928981729
 30
0.0
 10
907.869348180727
 20
-1952.392900948455
 30
0.0
 10
907.9667970375247
 20
-1951.371974408598
 30
0.0
 10
908.1902569583487
 20
-1949.030888312147
 30
0.0
 10
908.5423740022378
 20
-1946.698632974163
 30
0.0
 10
908.9692035088313
 20
-1944.386544088782
 30
0.0
 10
909.8340611676748
 20
-1939.701704475866
 30
0.0
 10
911.0665577534707
 20
-1935.084918413803
 30
0.0
 10
912.6488664132679
 20
-1930.591420434218
 30
0.0
 10
914.417726677787
 20
-1925.56814638742
 30
0.0
 10
916.6365819113266
 20
-1920.712959590252
 30
0.0
 10
919.2619939962805
 20
-1916.079802484004
 30
0.0
 10
919.8224175726368
 20
-1915.090803275009
 30
0.0
 10
918.2991525923613
 20
-1914.200885313011
 30
0.0
 10
917.7389276492485
 20
-1915.18953398693
 30
0.0
 10
917.7389276492485
 20
-1915.18953398693
 30
0.0
 10
917.7389276492485
 20
-1915.18953398693
 30
0.0
 10
917.7389276492485
 20
-1915.18953398693
 30
0.0
  0
HATCH
  5
7D
330
70
100
AcDbEntity
  8
2022-042
 62
    18
420
        0
440
 33554687
100
AcDbHatch
 10
0.0
 20
0.0
 30
0.0
210
0.0
220
0.0
230
1.0
  2
SOLID
 70
     1
 71
     1
 91
        1
 92
        1
 93
        1
 72
     4
 94
        3
 73
     0
 74
     0
 95
       59
 96
       55
 40
0.0
 40
0.0
 40
0.0
 40
0.0
 40
1.0
 40
1.0
 40
1.0
 40
2.0
 40
2.0
 40
2.0
 40
3.0
 40
3.0
 40
3.0
 40
4.0
 40
4.0
 40
4.0
 40
5.0
 40
5.0
 40
5.0
 40
6.0
 40
6.0
 40
6.0
 40
7.0
 40
7.0
 40
7.0
 40
8.0
 40
8.0
 40
8.0
 40
9.0
 40
9.0
 40
9.0
 40
10.0
 40
10.0
 40
10.0
 40
11.0
 40
11.0
 40
11.0
 40
12.0
 40
12.0
 40
12.0
 40
13.0
 40
13.0
 40
13.0
 40
14.0
 40
14.0
 40
14.0
 40
15.0
 40
15.0
 40
15.0
 40
16.0
 40
16.0
 40
16.0
 40
17.0
 40
17.0
 40
17.0
 40
18.0
 40
18.0
 40
18.0
 40
18.0
 10
917.7389276492485
 20
-1915.18953398693
 10
912.8480777705599
 20
-1923.820588898616
 10
909.3492225553239
 20
-1933.244560299567
 10
907.4461850207489
 20
-1942.98161855031
 10
906.9640372844217
 20
-1945.448569679118
 10
906.5851608897515
 20
-1947.935910820563
 10
906.3031584270399
 20
-1950.433623731524
 10
906.1674173104604
 20
-1951.635891031493
 10
906.0177400132142
 20
-1952.864333304365
 10
906.2993430900505
 20
-1954.058418195043
 10
906.5707634196137
 20
-1955.209325060818
 10
907.2895935943536
 20
-1956.142767882719
 10
908.2421204845969
 20
-1956.819031431341
 10
910.1271796579668
 20
-1958.157362998676
 10
912.6942002201321
 20
-1958.314460479791
 10
914.9178756004063
 20
-1958.09523300225
 10
917.5840018346116
 20
-1957.832385225855
 10
920.1904003602541
 20
-1957.083198992916
 10
922.7764629030394
 20
-1956.41527328715
 10
928.6362075515402
 20
-1954.901824167031
 10
934.4512678392312
 20
-1953.217548567316
 10
940.2142728235945
 20
-1951.369735971248
 10
941.2909948660738
 20
-1951.024502788567
 10
940.8306642398603
 20
-1949.320870387909
 10
939.7453612855086
 20
-1949.668854898601
 10
934.8056459299616
 20
-1951.252693239837
 10
929.8278046062046
 20
-1952.716625123258
 10
924.8160961619921
 20
-1954.0554278339
 10
922.3340620670432
 20
-1954.71846599967
 10
919.8453560350991
 20
-1955.401813541342
 10
917.3314813159494
 20
-1955.934564814436
 10
915.0923108065446
 20
-1956.409099575644
 10
912.6274589574805
 20
-1956.731443670759
 10
910.4151246826715
 20
-1955.961700165117
 10
909.6013805279421
 20
-1955.678571939201
 10
908.788015425932
 20
-1955.18789358579
 10
908.3342083969197
 20
-1954.434327388504
 10
907.7829439786951
 20
-1953.518928981729
 10
907.869348180727
 20
-1952.392900948455
 10
907.9667970375247
 20
-1951.371974408598
 10
908.1902569583487
 20
-1949.030888312147
 10
908.5423740022378
 20
-1946.698632974163
 10
908.9692035088313
 20
-1944.386544088782
 10
909.8340611676748
 20
-1939.701704475866
 10
911.0665577534707
 20
-1935.084918413803
 10
912.6488664132679
 20
-1930.591420434218
 10
914.417726677787
 20
-1925.56814638742
 10
916.6365819113266
 20
-1920.712959590252
 10
919.2619939962805
 20
-1916.079802484004
 10
919.8224175726368
 20
-1915.090803275009
 10
918.2991525923613
 20
-1914.200885313011
 10
917.7389276492485
 20
-1915.18953398693
 10
917.7389276492485
 20
-1915.18953398693
 10
917.7389276492485
 20
-1915.18953398693
 10
917.7389276492485
 20
-1915.18953398693
 97
        0
 97
        1
330
7C
 75
     2
 76
     1
 98
        1
 10
0.0
 20
0.0
450
        0
451
        0
460
0.0
461
0.0
452
        0
462
0.0
453
        0
470

  0
SPLINE
  5
7E
330
70
100
AcDbEntity
  8
2022-042
100
AcDbSpline
210
0.0
220
0.0
230
1.0
 70
     9
 71
     3
 72
    41
 73
    37
 74
     0
 42
0.0000000001
 43
0.0000000001
 40
0.0
 40
0.0
 40
0.0
 40
0.0
 40
1.0
 40
1.0
 40
1.0
 40
2.0
 40
2.0
 40
2.0
 40
3.0
 40
3.0
 40
3.0
 40
4.0
 40
4.0
 40
4.0
 40
5.0
 40
5.0
 40
5.0
 40
6.0
 40
6.0
 40
6.0
 40
7.0
 40
7.0
 40
7.0
 40
8.0
 40
8.0
 40
8.0
 40
9.0
 40
9.0
 40
9.0
 40
10.0
 40
10.0
 40
10.0
 40
11.0
 40
11.0
 40
11.0
 40
12.0
 40
12.0
 40
12.0
 40
12.0
 10
925.0671903898137
 20
-1945.490113938583
 30
0.0
 10
927.199572822985
 20
-1939.806524179098
 30
0.0
 10
929.3810916216102
 20
-1934.065964853797
 30
0.0
 10
932.9415627156457
 20
-1929.094932724118
 30
0.0
 10
932.3937368430662
 20
-1928.946554641272
 30
0.0
 10
931.8459109704859
 20
-1928.798176558426
 30
0.0
 10
931.2980850979059
 20
-1928.649798475581
 30
0.0
 10
931.82033719472
 20
-1939.160224070696
 30
0.0
 10
932.3425888370739
 20
-1949.670649688394
 30
0.0
 10
932.8648403749912
 20
-1960.18107531128
 30
0.0
 10
933.0136382981052
 20
-1963.1756658298
 30
0.0
 10
933.1624362129341
 20
-1966.17025634873
 30
0.0
 10
933.3112341277713
 20
-1969.164846867661
 30
0.0
 10
933.3673706163253
 20
-1970.294605954498
 30
0.0
 10
935.1315940072113
 20
-1970.301337889084
 30
0.0
 10
935.0751230162194
 20
-1969.164846867661
 30
0.0
 10
934.5528715094486
 20
-1958.654421285526
 30
0.0
 10
934.0306200027029
 20
-1948.143995703389
 30
0.0
 10
933.5083681382482
 20
-1937.633570139026
 30
0.0
 10
933.3595701194049
 20
-1934.638979582965
 30
0.0
 10
933.2107720708028
 20
-1931.644389028382
 30
0.0
 10
933.0619739863537
 20
-1928.649798475581
 30
0.0
 10
933.0166732873118
 20
-1927.73811304705
 30
0.0
 10
931.9236401282049
 20
-1927.499396358632
 30
0.0
 10
931.4184963686139
 20
-1928.204664227044
 30
0.0
 10
927.7730480007049
 20
-1933.294339296817
 30
0.0
 10
925.5495253616929
 20
-1939.202122220325
 30
0.0
 10
923.3663093171665
 20
-1945.021202400497
 30
0.0
 10
923.1989625693115
 20
-1945.467243526889
 30
0.0
 10
923.5525271668429
 20
-1945.988011063659
 30
0.0
 10
923.9822940844472
 20
-1946.106098705864
 30
0.0
 10
924.4768515336664
 20
-1946.241988930824
 30
0.0
 10
924.8992369587012
 20
-1945.937772100785
 30
0.0
 10
925.0671903898137
 20
-1945.490113938583
 30
0.0
 10
925.0671903898137
 20
-1945.490113938583
 30
0.0
 10
925.0671903898137
 20
-1945.490113938583
 30
0.0
 10
925.0671903898137
 20
-1945.490113938583
 30
0.0
  0
HATCH
  5
7F
330
70
100
AcDbEntity
  8
2022-042
 62
    18
420
        0
440
 33554687
100
AcDbHatch
 10
0.0
 20
0.0
 30
0.0
210
0.0
220
0.0
230
1.0
  2
SOLID
 70
     1
 71
     1
 91
        1
 92
        1
 93
        1
 72
     4
 94
        3
 73
     0
 74
     0
 95
       41
 96
       37
 40
0.0
 40
0.0
 40
0.0
 40
0.0
 40
1.0
 40
1.0
 40
1.0
 40
2.0
 40
2.0
 40
2.0
 40
3.0
 40
3.0
 40
3.0
 40
4.0
 40
4.0
 40
4.0
 40
5.0
 40
5.0
 40
5.0
 40
6.0
 40
6.0
 40
6.0
 40
7.0
 40
7.0
 40
7.0
 40
8.0
 40
8.0
 40
8.0
 40
9.0
 40
9.0
 40
9.0
 40
10.0
 40
10.0
 40
10.0
 40
11.0
 40
11.0
 40
11.0
 40
12.0
 40
12.0
 40
12.0
 40
12.0
 10
925.0671903898137
 20
-1945.490113938583
 10
927.199572822985
 20
-1939.806524179098
 10
929.3810916216102
 20
-1934.065964853797
 10
932.9415627156457
 20
-1929.094932724118
 10
932.3937368430662
 20
-1928.946554641272
 10
931.8459109704859
 20
-1928.798176558426
 10
931.2980850979059
 20
-1928.649798475581
 10
931.82033719472
 20
-1939.160224070696
 10
932.3425888370739
 20
-1949.670649688394
 10
932.8648403749912
 20
-1960.18107531128
 10
933.0136382981052
 20
-1963.1756658298
 10
933.1624362129341
 20
-1966.17025634873
 10
933.3112341277713
 20
-1969.164846867661
 10
933.3673706163253
 20
-1970.294605954498
 10
935.1315940072113
 20
-1970.301337889084
 10
935.0751230162194
 20
-1969.164846867661
 10
934.5528715094486
 20
-1958.654421285526
 10
934.0306200027029
 20
-1948.143995703389
 10
933.5083681382482
 20
-1937.633570139026
 10
933.3595701194049
 20
-1934.638979582965
 10
933.2107720708028
 20
-1931.644389028382
 10
933.0619739863537
 20
-1928.649798475581
 10
933.0166732873118
 20
-1927.73811304705
 10
931.9236401282049
 20
-1927.499396358632
 10
931.4184963686139
 20
-1928.204664227044
 10
927.7730480007049
 20
-1933.294339296817
 10
925.5495253616929
 20
-1939.202122220325
 10
923.3663093171665
 20
-1945.021202400497
 10
923.1989625693115
 20
-1945.467243526889
 10
923.5525271668429
 20
-1945.988011063659
 10
923.9822940844472
 20
-1946.106098705864
 10
924.4768515336664
 20
-1946.241988930824
 10
924.8992369587012
 20
-1945.937772100785
 10
925.0671903898137
 20
-1945.490113938583
 10
925.0671903898137
 20
-1945.490113938583
 10
925.0671903898137
 20
-1945.490113938583
 10
925.0671903898137
 20
-1945.490113938583
 97
        0
 97
        1
330
7E
 75
     2
 76
     1
 98
        1
 10
0.0
 20
0.0
450
        0
451
        0
460
0.0
461
0.0
452
        0
462
0.0
453
        0
470

  0
SPLINE
  5
80
330
70
100
AcDbEntity
  8
2022-042
100
AcDbSpline
210
0.0
220
0.0
230
1.0
 70
     9
 71
     3
 72
    59
 73
    55
 74
     0
 42
0.0000000001
 43
0.0000000001
 40
0.0
 40
0.0
 40
0.0
 40
0.0
 40
1.0
 40
1.0
 40
1.0
 40
2.0
 40
2.0
 40
2.0
 40
3.0
 40
3.0
 40
3.0
 40
4.0
 40
4.0
 40
4.0
 40
5.0
 40
5.0
 40
5.0
 40
6.0
 40
6.0
 40
6.0
 40
7.0
 40
7.0
 40
7.0
 40
8.0
 40
8.0
 40
8.0
 40
9.0
 40
9.0
 40
9.0
 40
10.0
 40
10.0
 40
10.0
 40
11.0
 40
11.0
 40
11.0
 40
12.0
 40
12.0
 40
12.0
 40
13.0
 40
13.0
 40
13.0
 40
14.0
 40
14.0
 40
14.0
 40
15.0
 40
15.0
 40
15.0
 40
16.0
 40
16.0
 40
16.0
 40
17.0
 40
17.0
 40
17.0
 40
18.0
 40
18.0
 40
18.0
 40
18.0
 10
943.0322382844595
 20
-1946.037709680718
 30
0.0
 10
944.2189460422579
 20
-1945.778078414689
 30
0.0
 10
945.4056538000575
 20
-1945.518447148665
 30
0.0
 10
946.5923615578558
 20
-1945.258815882637
 30
0.0
 10
946.8675969170623
 20
-1945.198599115453
 30
0.0
 10
947.1839083107138
 20
-1945.171474313651
 30
0.0
 10
947.44774754953
 20
-1945.075629700849
 30
0.0
 10
947.6504390259496
 20
-1945.001998173699
 30
0.0
 10
947.4571192017489
 20
-1945.120167503675
 30
0.0
 10
947.4668121007313
 20
-1945.000182068808
 30
0.0
 10
947.4510375217271
 20
-1945.195450762427
 30
0.0
 10
947.407417158595
 20
-1945.560937648302
 30
0.0
 10
947.289237116594
 20
-1945.871141212351
 30
0.0
 10
946.4083686096827
 20
-1948.183279079927
 30
0.0
 10
945.4106430254956
 20
-1950.45776493164
 30
0.0
 10
944.4724362814536
 20
-1952.747359424309
 30
0.0
 10
944.3668817546218
 20
-1953.004954101437
 30
0.0
 10
944.4812754254241
 20
-1953.432766588946
 30
0.0
 10
944.6992479206368
 20
-1953.605444090493
 30
0.0
 10
946.2485459556434
 20
-1954.832795796385
 30
0.0
 10
948.3802406696842
 20
-1955.061039609015
 30
0.0
 10
950.1097459763142
 20
-1954.047686642434
 30
0.0
 10
951.0886191556879
 20
-1953.474144580191
 30
0.0
 10
950.2019251769079
 20
-1951.948983848884
 30
0.0
 10
949.2194774792418
 20
-1952.524620295402
 30
0.0
 10
948.2305117004532
 20
-1953.104075820597
 30
0.0
 10
946.8671426876149
 20
-1953.0875136002
 30
0.0
 10
945.9465057149175
 20
-1952.358186296212
 30
0.0
 10
946.0221095946453
 20
-1952.644214518272
 30
0.0
 10
946.097713474373
 20
-1952.930242740334
 30
0.0
 10
946.1733173541007
 20
-1953.216270962395
 30
0.0
 10
946.7282985084972
 20
-1951.861898056093
 30
0.0
 10
947.283279662103
 20
-1950.507525149467
 30
0.0
 10
947.8382610643159
 20
-1949.153152344712
 30
0.0
 10
948.1268514222678
 20
-1948.448878415953
 30
0.0
 10
948.4154418455796
 20
-1947.744604513975
 30
0.0
 10
948.7040323728459
 20
-1947.040330654595
 30
0.0
 10
948.9331635785102
 20
-1946.481160816118
 30
0.0
 10
949.1647101089732
 20
-1945.952825121056
 30
0.0
 10
949.2218569750818
 20
-1945.344545791642
 30
0.0
 10
949.2726810815376
 20
-1944.803566810676
 30
0.0
 10
949.163513825035
 20
-1944.208710182312
 30
0.0
 10
948.7687050150542
 20
-1943.806918107149
 30
0.0
 10
948.2494291721797
 20
-1943.278457461855
 30
0.0
 10
947.5595861143803
 20
-1943.258329043581
 30
0.0
 10
946.8746325251231
 20
-1943.394281743279
 30
0.0
 10
945.4326707466394
 20
-1943.680488866976
 30
0.0
 10
943.9994834716985
 20
-1944.022622194266
 30
0.0
 10
942.5633267463735
 20
-1944.336828608071
 30
0.0
 10
941.4549291243707
 20
-1944.579326962002
 30
0.0
 10
941.9239841488618
 20
-1946.280176642289
 30
0.0
 10
943.0322382844595
 20
-1946.037709680718
 30
0.0
 10
943.0322382844595
 20
-1946.037709680718
 30
0.0
 10
943.0322382844595
 20
-1946.037709680718
 30
0.0
 10
943.0322382844595
 20
-1946.037709680718
 30
0.0
  0
HATCH
  5
81
330
70
100
AcDbEntity
  8
2022-042
 62
    18
420
        0
440
 33554687
100
AcDbHatch
 10
0.0
 20
0.0
 30
0.0
210
0.0
220
0.0
230
1.0
  2
SOLID
 70
     1
 71
     1
 91
        1
 92
        1
 93
        1
 72
     4
 94
        3
 73
     0
 74
     0
 95
       59
 96
       55
 40
0.0
 40
0.0
 40
0.0
 40
0.0
 40
1.0
 40
1.0
 40
1.0
 40
2.0
 40
2.0
 40
2.0
 40
3.0
 40
3.0
 40
3.0
 40
4.0
 40
4.0
 40
4.0
 40
5.0
 40
5.0
 40
5.0
 40
6.0
 40
6.0
 40
6.0
 40
7.0
 40
7.0
 40
7.0
 40
8.0
 40
8.0
 40
8.0
 40
9.0
 40
9.0
 40
9.0
 40
10.0
 40
10.0
 40
10.0
 40
11.0
 40
11.0
 40
11.0
 40
12.0
 40
12.0
 40
12.0
 40
13.0
 40
13.0
 40
13.0
 40
14.0
 40
14.0
 40
14.0
 40
15.0
 40
15.0
 40
15.0
 40
16.0
 40
16.0
 40
16.0
 40
17.0
 40
17.0
 40
17.0
 40
18.0
 40
18.0
 40
18.0
 40
18.0
 10
943.0322382844595
 20
-1946.037709680718
 10
944.2189460422579
 20
-1945.778078414689
 10
945.4056538000575
 20
-1945.518447148665
 10
946.5923615578558
 20
-1945.258815882637
 10
946.8675969170623
 20
-1945.198599115453
 10
947.1839083107138
 20
-1945.171474313651
 10
947.44774754953
 20
-1945.075629700849
 10
947.6504390259496
 20
-1945.001998173699
 10
947.4571192017489
 20
-1945.120167503675
 10
947.4668121007313
 20
-1945.000182068808
 10
947.4510375217271
 20
-1945.195450762427
 10
947.407417158595
 20
-1945.560937648302
 10
947.289237116594
 20
-1945.871141212351
 10
946.4083686096827
 20
-1948.183279079927
 10
945.4106430254956
 20
-1950.45776493164
 10
944.4724362814536
 20
-1952.747359424309
 10
944.3668817546218
 20
-1953.004954101437
 10
944.4812754254241
 20
-1953.432766588946
 10
944.6992479206368
 20
-1953.605444090493
 10
946.2485459556434
 20
-1954.832795796385
 10
948.3802406696842
 20
-1955.061039609015
 10
950.1097459763142
 20
-1954.047686642434
 10
951.0886191556879
 20
-1953.474144580191
 10
950.2019251769079
 20
-1951.948983848884
 10
949.2194774792418
 20
-1952.524620295402
 10
948.2305117004532
 20
-1953.104075820597
 10
946.8671426876149
 20
-1953.0875136002
 10
945.9465057149175
 20
-1952.358186296212
 10
946.0221095946453
 20
-1952.644214518272
 10
946.097713474373
 20
-1952.930242740334
 10
946.1733173541007
 20
-1953.216270962395
 10
946.7282985084972
 20
-1951.861898056093
 10
947.283279662103
 20
-1950.507525149467
 10
947.8382610643159
 20
-1949.153152344712
 10
948.1268514222678
 20
-1948.448878415953
 10
948.4154418455796
 20
-1947.744604513975
 10
948.7040323728459
 20
-1947.040330654595
 10
948.9331635785102
 20
-1946.481160816118
 10
949.1647101089732
 20
-1945.952825121056
 10
949.2218569750818
 20
-1945.344545791642
 10
949.2726810815376
 20
-1944.803566810676
 10
949.163513825035
 20
-1944.208710182312
 10
948.7687050150542
 20
-1943.806918107149
 10
948.2494291721797
 20
-1943.278457461855
 10
947.5595861143803
 20
-1943.258329043581
 10
946.8746325251231
 20
-1943.394281743279
 10
945.4326707466394
 20
-1943.680488866976
 10
943.9994834716985
 20
-1944.022622194266
 10
942.5633267463735
 20
-1944.336828608071
 10
941.4549291243707
 20
-1944.579326962002
 10
941.9239841488618
 20
-1946.280176642289
 10
943.0322382844595
 20
-1946.037709680718
 10
943.0322382844595
 20
-1946.037709680718
 10
943.0322382844595
 20
-1946.037709680718
 10
943.0322382844595
 20
-1946.037709680718
 97
        0
 97
        1
330
80
 75
     2
 76
     1
 98
        1
 10
0.0
 20
0.0
450
        0
451
        0
460
0.0
461
0.0
452
        0
462
0.0
453
        0
470

  0
SPLINE
  5
82
330
70
100
AcDbEntity
  8
2022-042
100
AcDbSpline
210
0.0
220
0.0
230
1.0
 70
     9
 71
     3
 72
    59
 73
    55
 74
     0
 42
0.0000000001
 43
0.0000000001
 40
0.0
 40
0.0
 40
0.0
 40
0.0
 40
1.0
 40
1.0
 40
1.0
 40
2.0
 40
2.0
 40
2.0
 40
3.0
 40
3.0
 40
3.0
 40
4.0
 40
4.0
 40
4.0
 40
5.0
 40
5.0
 40
5.0
 40
6.0
 40
6.0
 40
6.0
 40
7.0
 40
7.0
 40
7.0
 40
8.0
 40
8.0
 40
8.0
 40
9.0
 40
9.0
 40
9.0
 40
10.0
 40
10.0
 40
10.0
 40
11.0
 40
11.0
 40
11.0
 40
12.0
 40
12.0
 40
12.0
 40
13.0
 40
13.0
 40
13.0
 40
14.0
 40
14.0
 40
14.0
 40
15.0
 40
15.0
 40
15.0
 40
16.0
 40
16.0
 40
16.0
 40
17.0
 40
17.0
 40
17.0
 40
18.0
 40
18.0
 40
18.0
 40
18.0
 10
954.4012019761819
 20
-1950.336402334388
 30
0.0
 10
954.3781327455858
 20
-1950.368820410355
 30
0.0
 10
954.3422891488642
 20
-1950.380537313307
 30
0.0
 10
954.3187095551713
 20
-1950.404919271376
 30
0.0
 10
954.3049937873382
 20
-1950.41910175817
 30
0.0
 10
954.423667912575
 20
-1950.417311794223
 30
0.0
 10
954.3222866123633
 20
-1950.399950087605
 30
0.0
 10
954.4012400275565
 20
-1950.413470983749
 30
0.0
 10
954.4477711096055
 20
-1950.401773367348
 30
0.0
 10
954.5386487819389
 20
-1950.441030026286
 30
0.0
 10
954.7223793828839
 20
-1950.520396600636
 30
0.0
 10
954.8457101942108
 20
-1950.663040058236
 30
0.0
 10
954.8612553304296
 20
-1950.859975445875
 30
0.0
 10
954.9339205046004
 20
-1951.780542756578
 30
0.0
 10
954.2430346722936
 20
-1952.720761039529
 30
0.0
 10
953.8363507831064
 20
-1953.498810637878
 30
0.0
 10
952.8025348319225
 20
-1955.47666151167
 30
0.0
 10
951.7687198650417
 20
-1957.454512899953
 30
0.0
 10
950.7349048970272
 20
-1959.432364287643
 30
0.0
 10
950.4380864922143
 20
-1960.000224796548
 30
0.0
 10
950.7977069792499
 20
-1960.784087646685
 30
0.0
 10
951.4964380705432
 20
-1960.759442980404
 30
0.0
 10
955.0871266564838
 20
-1960.632797232097
 30
0.0
 10
958.6762285110093
 20
-1960.46531810818
 30
0.0
 10
962.2631076815027
 20
-1960.25703524841
 30
0.0
 10
963.3914417559889
 20
-1960.191515157924
 30
0.0
 10
963.3989858796489
 20
-1958.427188197387
 30
0.0
 10
962.2631076815027
 20
-1958.493146359962
 30
0.0
 10
958.6762285479673
 20
-1958.701429217586
 30
0.0
 10
955.0871266934803
 20
-1958.868908342344
 30
0.0
 10
951.4964380705432
 20
-1958.995554091956
 30
0.0
 10
951.7502824617151
 20
-1959.437913656208
 30
0.0
 10
952.0041268528871
 20
-1959.880273220463
 30
0.0
 10
952.2579712440592
 20
-1960.322632784716
 30
0.0
 10
952.9381126338773
 20
-1959.021414836344
 30
0.0
 10
953.6182540239959
 20
-1957.720196888127
 30
0.0
 10
954.2983956928965
 20
-1956.41897908563
 30
0.0
 10
954.969649079997
 20
-1955.134765961777
 30
0.0
 10
955.7342755795247
 20
-1953.863291687016
 30
0.0
 10
956.287289925345
 20
-1952.522987549742
 30
0.0
 10
956.7805014419015
 20
-1951.327623557492
 30
0.0
 10
956.8046975216009
 20
-1949.897368496107
 30
0.0
 10
955.6677190320419
 20
-1949.074228443047
 30
0.0
 10
954.7546524517969
 20
-1948.413194236848
 30
0.0
 10
953.5438073422254
 20
-1948.510697517743
 30
0.0
 10
952.8781356291501
 20
-1949.446133837315
 30
0.0
 10
952.6018115454171
 20
-1949.834438731181
 30
0.0
 10
952.809446303827
 20
-1950.427563679868
 30
0.0
 10
953.1945345541297
 20
-1950.652801259368
 30
0.0
 10
953.6370927017458
 20
-1950.911652901502
 30
0.0
 10
954.1242364662638
 20
-1950.725608593504
 30
0.0
 10
954.4012019761819
 20
-1950.336402334388
 30
0.0
 10
954.4012019761819
 20
-1950.336402334388
 30
0.0
 10
954.4012019761819
 20
-1950.336402334388
 30
0.0
 10
954.4012019761819
 20
-1950.336402334388
 30
0.0
  0
HATCH
  5
83
330
70
100
AcDbEntity
  8
2022-042
 62
    18
420
        0
440
 33554687
100
AcDbHatch
 10
0.0
 20
0.0
 30
0.0
210
0.0
220
0.0
230
1.0
  2
SOLID
 70
     1
 71
     1
 91
        1
 92
        1
 93
        1
 72
     4
 94
        3
 73
     0
 74
     0
 95
       59
 96
       55
 40
0.0
 40
0.0
 40
0.0
 40
0.0
 40
1.0
 40
1.0
 40
1.0
 40
2.0
 40
2.0
 40
2.0
 40
3.0
 40
3.0
 40
3.0
 40
4.0
 40
4.0
 40
4.0
 40
5.0
 40
5.0
 40
5.0
 40
6.0
 40
6.0
 40
6.0
 40
7.0
 40
7.0
 40
7.0
 40
8.0
 40
8.0
 40
8.0
 40
9.0
 40
9.0
 40
9.0
 40
10.0
 40
10.0
 40
10.0
 40
11.0
 40
11.0
 40
11.0
 40
12.0
 40
12.0
 40
12.0
 40
13.0
 40
13.0
 40
13.0
 40
14.0
 40
14.0
 40
14.0
 40
15.0
 40
15.0
 40
15.0
 40
16.0
 40
16.0
 40
16.0
 40
17.0
 40
17.0
 40
17.0
 40
18.0
 40
18.0
 40
18.0
 40
18.0
 10
954.4012019761819
 20
-1950.336402334388
 10
954.3781327455858
 20
-1950.368820410355
 10
954.3422891488642
 20
-1950.380537313307
 10
954.3187095551713
 20
-1950.404919271376
 10
954.3049937873382
 20
-1950.41910175817
 10
954.423667912575
 20
-1950.417311794223
 10
954.3222866123633
 20
-1950.399950087605
 10
954.4012400275565
 20
-1950.413470983749
 10
954.4477711096055
 20
-1950.401773367348
 10
954.5386487819389
 20
-1950.441030026286
 10
954.7223793828839
 20
-1950.520396600636
 10
954.8457101942108
 20
-1950.663040058236
 10
954.8612553304296
 20
-1950.859975445875
 10
954.9339205046004
 20
-1951.780542756578
 10
954.2430346722936
 20
-1952.720761039529
 10
953.8363507831064
 20
-1953.498810637878
 10
952.8025348319225
 20
-1955.47666151167
 10
951.7687198650417
 20
-1957.454512899953
 10
950.7349048970272
 20
-1959.432364287643
 10
950.4380864922143
 20
-1960.000224796548
 10
950.7977069792499
 20
-1960.784087646685
 10
951.4964380705432
 20
-1960.759442980404
 10
955.0871266564838
 20
-1960.632797232097
 10
958.6762285110093
 20
-1960.46531810818
 10
962.2631076815027
 20
-1960.25703524841
 10
963.3914417559889
 20
-1960.191515157924
 10
963.3989858796489
 20
-1958.427188197387
 10
962.2631076815027
 20
-1958.493146359962
 10
958.6762285479673
 20
-1958.701429217586
 10
955.0871266934803
 20
-1958.868908342344
 10
951.4964380705432
 20
-1958.995554091956
 10
951.7502824617151
 20
-1959.437913656208
 10
952.0041268528871
 20
-1959.880273220463
 10
952.2579712440592
 20
-1960.322632784716
 10
952.9381126338773
 20
-1959.021414836344
 10
953.6182540239959
 20
-1957.720196888127
 10
954.2983956928965
 20
-1956.41897908563
 10
954.969649079997
 20
-1955.134765961777
 10
955.7342755795247
 20
-1953.863291687016
 10
956.287289925345
 20
-1952.522987549742
 10
956.7805014419015
 20
-1951.327623557492
 10
956.8046975216009
 20
-1949.897368496107
 10
955.6677190320419
 20
-1949.074228443047
 10
954.7546524517969
 20
-1948.413194236848
 10
953.5438073422254
 20
-1948.510697517743
 10
952.8781356291501
 20
-1949.446133837315
 10
952.6018115454171
 20
-1949.834438731181
 10
952.809446303827
 20
-1950.427563679868
 10
953.1945345541297
 20
-1950.652801259368
 10
953.6370927017458
 20
-1950.911652901502
 10
954.1242364662638
 20
-1950.725608593504
 10
954.4012019761819
 20
-1950.336402334388
 10
954.4012019761819
 20
-1950.336402334388
 10
954.4012019761819
 20
-1950.336402334388
 10
954.4012019761819
 20
-1950.336402334388
 97
        0
 97
        1
330
82
 75
     2
 76
     1
 98
        1
 10
0.0
 20
0.0
450
        0
451
        0
460
0.0
461
0.0
452
        0
462
0.0
453
        0
470

  0
SPLINE
  5
84
330
70
100
AcDbEntity
  8
2022-042
100
AcDbSpline
210
0.0
220
0.0
230
1.0
 70
     9
 71
     3
 72
    95
 73
    91
 74
     0
 42
0.0000000001
 43
0.0000000001
 40
0.0
 40
0.0
 40
0.0
 40
0.0
 40
1.0
 40
1.0
 40
1.0
 40
2.0
 40
2.0
 40
2.0
 40
3.0
 40
3.0
 40
3.0
 40
4.0
 40
4.0
 40
4.0
 40
5.0
 40
5.0
 40
5.0
 40
6.0
 40
6.0
 40
6.0
 40
7.0
 40
7.0
 40
7.0
 40
8.0
 40
8.0
 40
8.0
 40
9.0
 40
9.0
 40
9.0
 40
10.0
 40
10.0
 40
10.0
 40
11.0
 40
11.0
 40
11.0
 40
12.0
 40
12.0
 40
12.0
 40
13.0
 40
13.0
 40
13.0
 40
14.0
 40
14.0
 40
14.0
 40
15.0
 40
15.0
 40
15.0
 40
16.0
 40
16.0
 40
16.0
 40
17.0
 40
17.0
 40
17.0
 40
18.0
 40
18.0
 40
18.0
 40
19.0
 40
19.0
 40
19.0
 40
20.0
 40
20.0
 40
20.0
 40
21.0
 40
21.0
 40
21.0
 40
22.0
 40
22.0
 40
22.0
 40
23.0
 40
23.0
 40
23.0
 40
24.0
 40
24.0
 40
24.0
 40
25.0
 40
25.0
 40
25.0
 40
26.0
 40
26.0
 40
26.0
 40
27.0
 40
27.0
 40
27.0
 40
28.0
 40
28.0
 40
28.0
 40
29.0
 40
29.0
 40
29.0
 40
30.0
 40
30.0
 40
30.0
 40
30.0
 10
800.8702931771896
 20
-79.50410493346599
 30
0.0
 10
805.2078406478935
 20
-138.7935522792125
 30
0.0
 10
809.0164798342254
 20
-198.1071152933552
 30
0.0
 10
808.4310719838931
 20
-257.6352431606888
 30
0.0
 10
808.0083587678529
 20
-300.6383891731585
 30
0.0
 10
807.771250071082
 20
-343.6787637487157
 30
0.0
 10
809.0858123808649
 20
-386.6526264495627
 30
0.0
 10
810.2415557887804
 20
-424.435160891072
 30
0.0
 10
814.5122684070702
 20
-462.1171416081045
 30
0.0
 10
815.8980580660122
 20
-499.8986425209682
 30
0.0
 10
818.1630360927895
 20
-561.6544337246038
 30
0.0
 10
818.62803785591
 20
-623.475983188315
 30
0.0
 10
820.922988213409
 20
-685.2300949079044
 30
0.0
 10
823.1211313877727
 20
-744.3797144406412
 30
0.0
 10
827.5280114051184
 20
-803.4521638345122
 30
0.0
 10
829.390860661379
 20
-862.6076400295739
 30
0.0
 10
831.0319318957777
 20
-914.7181543394628
 30
0.0
 10
831.1929901097132
 20
-966.9026520748996
 30
0.0
 10
830.7425438750167
 20
-1019.043827734607
 30
0.0
 10
830.2349951826535
 20
-1077.775987821921
 30
0.0
 10
828.5426781529103
 20
-1136.502721883843
 30
0.0
 10
826.9326127778789
 20
-1195.219723551021
 30
0.0
 10
825.5998775894099
 20
-1243.824078058186
 30
0.0
 10
824.6028669559787
 20
-1292.472529787559
 30
0.0
 10
821.5095157197728
 20
-1340.9773210352
 30
0.0
 10
820.1487891304875
 20
-1362.312711247964
 30
0.0
 10
815.1531422947126
 20
-1383.656025180347
 30
0.0
 10
809.6820722819758
 20
-1404.434860217468
 30
0.0
 10
800.7181922115158
 20
-1438.478088019287
 30
0.0
 10
795.6693186504963
 20
-1472.756615842748
 30
0.0
 10
795.6509735170361
 20
-1508.000114911628
 30
0.0
 10
795.6228098614454
 20
-1562.504626074218
 30
0.0
 10
795.3191246944206
 20
-1617.024295656942
 30
0.0
 10
793.9487518377741
 20
-1671.507791737071
 30
0.0
 10
792.5612396310898
 20
-1726.678756621282
 30
0.0
 10
789.7706261606515
 20
-1781.814581531543
 30
0.0
 10
787.5300221844309
 20
-1836.963497804648
 30
0.0
 10
785.72479215016
 20
-1881.397822609078
 30
0.0
 10
783.920767899309
 20
-1925.832319668282
 30
0.0
 10
782.0463775731728
 20
-1970.263888396323
 30
0.0
 10
782.0463775731728
 20
-1970.263888396323
 30
0.0
 10
834.7072458868305
 20
-1970.263888396323
 30
0.0
 10
834.7072458868305
 20
-1970.263888396323
 30
0.0
 10
834.9379811569539
 20
-1963.54491867144
 30
0.0
 10
835.1650990768202
 20
-1956.825948946557
 30
0.0
 10
835.3879106273275
 20
-1950.1068069669
 30
0.0
 10
837.0618825236105
 20
-1899.622205471275
 30
0.0
 10
838.9578908239178
 20
-1849.142599364103
 30
0.0
 10
840.1550615050419
 20
-1798.646112289054
 30
0.0
 10
841.6853729195899
 20
-1734.105004449286
 30
0.0
 10
843.1690894177013
 20
-1669.553216813514
 30
0.0
 10
843.602224047583
 20
-1604.998673101355
 30
0.0
 10
843.8748172278547
 20
-1564.371006553352
 30
0.0
 10
842.3966128825199
 20
-1523.72439198018
 30
0.0
 10
841.3248436770587
 20
-1483.096208667854
 30
0.0
 10
839.8161502366818
 20
-1425.897718963189
 30
0.0
 10
845.2770572177373
 20
-1369.00851270571
 30
0.0
 10
849.2613101464286
 20
-1312.101305824318
 30
0.0
 10
852.5233849340258
 20
-1265.506647768477
 30
0.0
 10
858.1045257475166
 20
-1219.056942105177
 30
0.0
 10
863.3858571264045
 20
-1172.625839957496
 30
0.0
 10
870.9051225325108
 20
-1106.519022347068
 30
0.0
 10
875.1574038899546
 20
-1040.187670638391
 30
0.0
 10
877.0303300505107
 20
-973.7337596578273
 30
0.0
 10
878.0491309128874
 20
-937.587214934874
 30
0.0
 10
876.8457590598897
 20
-901.3748688881564
 30
0.0
 10
876.5245900332759
 20
-865.1935287008024
 30
0.0
 10
876.0262569713345
 20
-809.0909238699948
 30
0.0
 10
875.7394527721876
 20
-752.9831513959556
 30
0.0
 10
874.7778404948686
 20
-696.8877812656671
 30
0.0
 10
873.8558468156272
 20
-643.0934765373621
 30
0.0
 10
872.3224348151425
 20
-589.3077845477704
 30
0.0
 10
870.7984968272423
 20
-535.5254515262749
 30
0.0
 10
869.9067338608854
 20
-504.0529539755493
 30
0.0
 10
870.0228335787382
 20
-472.4464422104474
 30
0.0
 10
866.9691009406129
 20
-441.165750350865
 30
0.0
 10
862.7611751875427
 20
-398.0633855884182
 30
0.0
 10
861.0486182218251
 20
-354.9934262553811
 30
0.0
 10
861.9098920931376
 20
-311.7643465746197
 30
0.0
 10
863.1886254098739
 20
-247.5814640697778
 30
0.0
 10
861.2837459886934
 20
-183.4750411528617
 30
0.0
 10
856.9901234854265
 20
-119.4471448811625
 30
0.0
 10
854.9889536454308
 20
-89.60540481022668
 30
0.0
 10
852.5183034181839
 20
-59.79408923879496
 30
0.0
 10
850.0277577645109
 20
-29.98611110361459
 30
0.0
 10
850.0277577645109
 20
-29.98611110361459
 30
0.0
 10
796.6238684820706
 20
-29.98611110361459
 30
0.0
 10
796.6238684820706
 20
-29.98611110361459
 30
0.0
 10
798.1538353870701
 20
-46.48372598121761
 30
0.0
 10
799.6615814261897
 20
-62.98304187471648
 30
0.0
 10
800.8702931771896
 20
-79.50410493346599
 30
0.0
  0
HATCH
  5
85
330
70
100
AcDbEntity
  8
2022-042
 62
    18
420
        0
440
 33554687
100
AcDbHatch
 10
0.0
 20
0.0
 30
0.0
210
0.0
220
0.0
230
1.0
  2
SOLID
 70
     1
 71
     1
 91
        1
 92
        1
 93
        1
 72
     4
 94
        3
 73
     0
 74
     0
 95
       95
 96
       91
 40
0.0
 40
0.0
 40
0.0
 40
0.0
 40
1.0
 40
1.0
 40
1.0
 40
2.0
 40
2.0
 40
2.0
 40
3.0
 40
3.0
 40
3.0
 40
4.0
 40
4.0
 40
4.0
 40
5.0
 40
5.0
 40
5.0
 40
6.0
 40
6.0
 40
6.0
 40
7.0
 40
7.0
 40
7.0
 40
8.0
 40
8.0
 40
8.0
 40
9.0
 40
9.0
 40
9.0
 40
10.0
 40
10.0
 40
10.0
 40
11.0
 40
11.0
 40
11.0
 40
12.0
 40
12.0
 40
12.0
 40
13.0
 40
13.0
 40
13.0
 40
14.0
 40
14.0
 40
14.0
 40
15.0
 40
15.0
 40
15.0
 40
16.0
 40
16.0
 40
16.0
 40
17.0
 40
17.0
 40
17.0
 40
18.0
 40
18.0
 40
18.0
 40
19.0
 40
19.0
 40
19.0
 40
20.0
 40
20.0
 40
20.0
 40
21.0
 40
21.0
 40
21.0
 40
22.0
 40
22.0
 40
22.0
 40
23.0
 40
23.0
 40
23.0
 40
24.0
 40
24.0
 40
24.0
 40
25.0
 40
25.0
 40
25.0
 40
26.0
 40
26.0
 40
26.0
 40
27.0
 40
27.0
 40
27.0
 40
28.0
 40
28.0
 40
28.0
 40
29.0
 40
29.0
 40
29.0
 40
30.0
 40
30.0
 40
30.0
 40
30.0
 10
800.8702931771896
 20
-79.50410493346599
 10
805.2078406478935
 20
-138.7935522792125
 10
809.0164798342254
 20
-198.1071152933552
 10
808.4310719838931
 20
-257.6352431606888
 10
808.0083587678529
 20
-300.6383891731585
 10
807.771250071082
 20
-343.6787637487157
 10
809.0858123808649
 20
-386.6526264495627
 10
810.2415557887804
 20
-424.435160891072
 10
814.5122684070702
 20
-462.1171416081045
 10
815.8980580660122
 20
-499.8986425209682
 10
818.1630360927895
 20
-561.6544337246038
 10
818.62803785591
 20
-623.475983188315
 10
820.922988213409
 20
-685.2300949079044
 10
823.1211313877727
 20
-744.3797144406412
 10
827.5280114051184
 20
-803.4521638345122
 10
829.390860661379
 20
-862.6076400295739
 10
831.0319318957777
 20
-914.7181543394628
 10
831.1929901097132
 20
-966.9026520748996
 10
830.7425438750167
 20
-1019.043827734607
 10
830.2349951826535
 20
-1077.775987821921
 10
828.5426781529103
 20
-1136.502721883843
 10
826.9326127778789
 20
-1195.219723551021
 10
825.5998775894099
 20
-1243.824078058186
 10
824.6028669559787
 20
-1292.472529787559
 10
821.5095157197728
 20
-1340.9773210352
 10
820.1487891304875
 20
-1362.312711247964
 10
815.1531422947126
 20
-1383.656025180347
 10
809.6820722819758
 20
-1404.434860217468
 10
800.7181922115158
 20
-1438.478088019287
 10
795.6693186504963
 20
-1472.756615842748
 10
795.6509735170361
 20
-1508.000114911628
 10
795.6228098614454
 20
-1562.504626074218
 10
795.3191246944206
 20
-1617.024295656942
 10
793.9487518377741
 20
-1671.507791737071
 10
792.5612396310898
 20
-1726.678756621282
 10
789.7706261606515
 20
-1781.814581531543
 10
787.5300221844309
 20
-1836.963497804648
 10
785.72479215016
 20
-1881.397822609078
 10
783.920767899309
 20
-1925.832319668282
 10
782.0463775731728
 20
-1970.263888396323
 10
782.0463775731728
 20
-1970.263888396323
 10
834.7072458868305
 20
-1970.263888396323
 10
834.7072458868305
 20
-1970.263888396323
 10
834.9379811569539
 20
-1963.54491867144
 10
835.1650990768202
 20
-1956.825948946557
 10
835.3879106273275
 20
-1950.1068069669
 10
837.0618825236105
 20
-1899.622205471275
 10
838.9578908239178
 20
-1849.142599364103
 10
840.1550615050419
 20
-1798.646112289054
 10
841.6853729195899
 20
-1734.105004449286
 10
843.1690894177013
 20
-1669.553216813514
 10
843.602224047583
 20
-1604.998673101355
 10
843.8748172278547
 20
-1564.371006553352
 10
842.3966128825199
 20
-1523.72439198018
 10
841.3248436770587
 20
-1483.096208667854
 10
839.8161502366818
 20
-1425.897718963189
 10
845.2770572177373
 20
-1369.00851270571
 10
849.2613101464286
 20
-1312.101305824318
 10
852.5233849340258
 20
-1265.506647768477
 10
858.1045257475166
 20
-1219.056942105177
 10
863.3858571264045
 20
-1172.625839957496
 10
870.9051225325108
 20
-1106.519022347068
 10
875.1574038899546
 20
-1040.187670638391
 10
877.0303300505107
 20
-973.7337596578273
 10
878.0491309128874
 20
-937.587214934874
 10
876.8457590598897
 20
-901.3748688881564
 10
876.5245900332759
 20
-865.1935287008024
 10
876.0262569713345
 20
-809.0909238699948
 10
875.7394527721876
 20
-752.9831513959556
 10
874.7778404948686
 20
-696.8877812656671
 10
873.8558468156272
 20
-643.0934765373621
 10
872.3224348151425
 20
-589.3077845477704
 10
870.7984968272423
 20
-535.5254515262749
 10
869.9067338608854
 20
-504.0529539755493
 10
870.0228335787382
 20
-472.4464422104474
 10
866.9691009406129
 20
-441.165750350865
 10
862.7611751875427
 20
-398.0633855884182
 10
861.0486182218251
 20
-354.9934262553811
 10
861.9098920931376
 20
-311.7643465746197
 10
863.1886254098739
 20
-247.5814640697778
 10
861.2837459886934
 20
-183.4750411528617
 10
856.9901234854265
 20
-119.4471448811625
 10
854.9889536454308
 20
-89.60540481022668
 10
852.5183034181839
 20
-59.79408923879496
 10
850.0277577645109
 20
-29.98611110361459
 10
850.0277577645109
 20
-29.98611110361459
 10
796.6238684820706
 20
-29.98611110361459
 10
796.6238684820706
 20
-29.98611110361459
 10
798.1538353870701
 20
-46.48372598121761
 10
799.6615814261897
 20
-62.98304187471648
 10
800.8702931771896
 20
-79.50410493346599
 97
        0
 97
        1
330
84
 75
     2
 76
     1
 98
        1
 10
0.0
 20
0.0
450
        0
451
        0
460
0.0
461
0.0
452
        0
462
0.0
453
        0
470

  0
SPLINE
  5
86
330
70
100
AcDbEntity
  8
2022-042
100
AcDbSpline
210
0.0
220
0.0
230
1.0
 70
     9
 71
     3
 72
    95
 73
    91
 74
     0
 42
0.0000000001
 43
0.0000000001
 40
0.0
 40
0.0
 40
0.0
 40
0.0
 40
1.0
 40
1.0
 40
1.0
 40
2.0
 40
2.0
 40
2.0
 40
3.0
 40
3.0
 40
3.0
 40
4.0
 40
4.0
 40
4.0
 40
5.0
 40
5.0
 40
5.0
 40
6.0
 40
6.0
 40
6.0
 40
7.0
 40
7.0
 40
7.0
 40
8.0
 40
8.0
 40
8.0
 40
9.0
 40
9.0
 40
9.0
 40
10.0
 40
10.0
 40
10.0
 40
11.0
 40
11.0
 40
11.0
 40
12.0
 40
12.0
 40
12.0
 40
13.0
 40
13.0
 40
13.0
 40
14.0
 40
14.0
 40
14.0
 40
15.0
 40
15.0
 40
15.0
 40
16.0
 40
16.0
 40
16.0
 40
17.0
 40
17.0
 40
17.0
 40
18.0
 40
18.0
 40
18.0
 40
19.0
 40
19.0
 40
19.0
 40
20.0
 40
20.0
 40
20.0
 40
21.0
 40
21.0
 40
21.0
 40
22.0
 40
22.0
 40
22.0
 40
23.0
 40
23.0
 40
23.0
 40
24.0
 40
24.0
 40
24.0
 40
25.0
 40
25.0
 40
25.0
 40
26.0
 40
26.0
 40
26.0
 40
27.0
 40
27.0
 40
27.0
 40
28.0
 40
28.0
 40
28.0
 40
29.0
 40
29.0
 40
29.0
 40
30.0
 40
30.0
 40
30.0
 40
30.0
 10
745.5132931367753
 20
-1792.407044365266
 30
0.0
 10
747.3379879605379
 20
-1750.645769147842
 30
0.0
 10
748.9236792850126
 20
-1708.873125115317
 30
0.0
 10
750.4006778469251
 20
-1667.097897261177
 30
0.0
 10
752.0678456796258
 20
-1619.945908883208
 30
0.0
 10
751.5739051144269
 20
-1572.713305270884
 30
0.0
 10
757.4093801021173
 20
-1525.739083819954
 30
0.0
 10
760.9667857001863
 20
-1497.103105637009
 30
0.0
 10
762.716721951919
 20
-1468.239234387714
 30
0.0
 10
766.405385687976
 20
-1439.623237758584
 30
0.0
 10
768.677942924821
 20
-1421.993133867592
 30
0.0
 10
774.2056847582928
 20
-1404.766881294861
 30
0.0
 10
776.2316592857798
 20
-1387.124633442281
 30
0.0
 10
778.8264190778842
 20
-1364.529716320111
 30
0.0
 10
779.7592648079014
 20
-1341.715088233367
 30
0.0
 10
780.7201880661259
 20
-1318.966175343001
 30
0.0
 10
783.3080576672572
 20
-1257.697735959447
 30
0.0
 10
786.0239986930539
 20
-1196.427918537698
 30
0.0
 10
787.763082894008
 20
-1135.13226289981
 30
0.0
 10
789.5891557559647
 20
-1070.772711592116
 30
0.0
 10
791.6339921812348
 20
-1006.372508157695
 30
0.0
 10
791.1236874124835
 20
-942.009511754515
 30
0.0
 10
790.7608327304982
 20
-896.2527870480723
 30
0.0
 10
786.3211381786567
 20
-850.528704621354
 30
0.0
 10
783.7011430621243
 20
-804.7898944114347
 30
0.0
 10
781.6462297325612
 20
-768.9139619388479
 30
0.0
 10
779.5105289138663
 20
-733.0422497082325
 30
0.0
 10
777.5569875189554
 20
-697.1608912102584
 30
0.0
 10
774.9387149501655
 20
-649.071492350753
 30
0.0
 10
772.136732664626
 20
-600.9882085357357
 30
0.0
 10
770.0241139856824
 20
-552.8756414090901
 30
0.0
 10
768.2721968040469
 20
-512.9787657408979
 30
0.0
 10
768.9635413405482
 20
-472.9182911008449
 30
0.0
 10
765.7964650609581
 20
-433.1519414878511
 30
0.0
 10
760.3781911365314
 20
-365.1188848642344
 30
0.0
 10
762.1531043305321
 20
-296.9728075768527
 30
0.0
 10
759.8164683176613
 20
-228.910101600216
 30
0.0
 10
758.0114966655531
 20
-176.330860517712
 30
0.0
 10
754.9408830595499
 20
-123.7957166574191
 30
0.0
 10
752.7707312860027
 20
-71.22749988046788
 30
0.0
 10
752.2034101869705
 20
-57.48443262994313
 30
0.0
 10
751.7704478118604
 20
-43.73583169479521
 30
0.0
 10
751.3652184554091
 20
-29.98611110361459
 30
0.0
 10
751.3652184554091
 20
-29.98611110361459
 30
0.0
 10
701.625575794773
 20
-29.98611110361459
 30
0.0
 10
701.625575794773
 20
-29.98611110361459
 30
0.0
 10
702.5148410669049
 20
-53.7946707697002
 30
0.0
 10
703.3865794157545
 20
-77.60394098672965
 30
0.0
 10
704.2918213181969
 20
-101.4112302738551
 30
0.0
 10
706.7379683038056
 20
-165.7470319545488
 30
0.0
 10
708.786379015639
 20
-230.0976475458285
 30
0.0
 10
711.1844669192292
 20
-294.435516283813
 30
0.0
 10
714.4746192350311
 20
-382.7108343227251
 30
0.0
 10
717.2947743992566
 20
-471.0102680300358
 30
0.0
 10
721.5316389544027
 20
-559.2404553180891
 30
0.0
 10
724.4502377221206
 20
-620.0198203338198
 30
0.0
 10
729.9873243770922
 20
-680.668659294352
 30
0.0
 10
733.3104204184719
 20
-741.433210399496
 30
0.0
 10
735.9793789545873
 20
-790.2363469161562
 30
0.0
 10
736.8630028828615
 20
-839.1351709599211
 30
0.0
 10
738.9267012059146
 20
-887.9747393613397
 30
0.0
 10
742.6120921012607
 20
-975.1875038252135
 30
0.0
 10
739.8698822223876
 20
-1062.265995692551
 30
0.0
 10
735.4148139319439
 20
-1149.387895763
 30
0.0
 10
732.9206509280082
 20
-1198.164418917039
 30
0.0
 10
732.591945755023
 20
-1247.078745890487
 30
0.0
 10
732.3599185740914
 20
-1295.93597040627
 30
0.0
 10
732.1418440298751
 20
-1341.867619835974
 30
0.0
 10
728.0135861099003
 20
-1387.317214279907
 30
0.0
 10
721.1874739154263
 20
-1432.70918950185
 30
0.0
 10
717.2508494318196
 20
-1458.885972400035
 30
0.0
 10
715.760242742738
 20
-1485.456788094348
 30
0.0
 10
713.7620873612931
 20
-1511.895139867252
 30
0.0
 10
710.0275177278963
 20
-1561.306421864448
 30
0.0
 10
706.2991923300629
 20
-1610.725283071711
 30
0.0
 10
703.3408457731865
 20
-1660.18720797254
 30
0.0
 10
698.6699853142848
 20
-1738.281665960829
 30
0.0
 10
694.3551754737836
 20
-1816.400584127063
 30
0.0
 10
690.4287140218586
 20
-1894.536038751626
 30
0.0
 10
689.1606605011239
 20
-1919.769812888113
 30
0.0
 10
688.1440989508152
 20
-1945.016333877895
 30
0.0
 10
687.1516100052076
 20
-1970.263888396323
 30
0.0
 10
687.1516100052076
 20
-1970.263888396323
 30
0.0
 10
738.4070946793505
 20
-1970.263888396323
 30
0.0
 10
738.4070946793505
 20
-1970.263888396323
 30
0.0
 10
739.4847205471367
 20
-1935.135111007102
 30
0.0
 10
740.2708052094848
 20
-1899.99582607665
 30
0.0
 10
741.5535003860291
 20
-1864.874800152271
 30
0.0
 10
742.4363061041244
 20
-1840.703148953886
 30
0.0
 10
744.4573713705462
 20
-1816.574561449068
 30
0.0
 10
745.5132931367753
 20
-1792.407044365266
 30
0.0
  0
HATCH
  5
87
330
70
100
AcDbEntity
  8
2022-042
 62
    18
420
        0
440
 33554687
100
AcDbHatch
 10
0.0
 20
0.0
 30
0.0
210
0.0
220
0.0
230
1.0
  2
SOLID
 70
     1
 71
     1
 91
        1
 92
        1
 93
        1
 72
     4
 94
        3
 73
     0
 74
     0
 95
       95
 96
       91
 40
0.0
 40
0.0
 40
0.0
 40
0.0
 40
1.0
 40
1.0
 40
1.0
 40
2.0
 40
2.0
 40
2.0
 40
3.0
 40
3.0
 40
3.0
 40
4.0
 40
4.0
 40
4.0
 40
5.0
 40
5.0
 40
5.0
 40
6.0
 40
6.0
 40
6.0
 40
7.0
 40
7.0
 40
7.0
 40
8.0
 40
8.0
 40
8.0
 40
9.0
 40
9.0
 40
9.0
 40
10.0
 40
10.0
 40
10.0
 40
11.0
 40
11.0
 40
11.0
 40
12.0
 40
12.0
 40
12.0
 40
13.0
 40
13.0
 40
13.0
 40
14.0
 40
14.0
 40
14.0
 40
15.0
 40
15.0
 40
15.0
 40
16.0
 40
16.0
 40
16.0
 40
17.0
 40
17.0
 40
17.0
 40
18.0
 40
18.0
 40
18.0
 40
19.0
 40
19.0
 40
19.0
 40
20.0
 40
20.0
 40
20.0
 40
21.0
 40
21.0
 40
21.0
 40
22.0
 40
22.0
 40
22.0
 40
23.0
 40
23.0
 40
23.0
 40
24.0
 40
24.0
 40
24.0
 40
25.0
 40
25.0
 40
25.0
 40
26.0
 40
26.0
 40
26.0
 40
27.0
 40
27.0
 40
27.0
 40
28.0
 40
28.0
 40
28.0
 40
29.0
 40
29.0
 40
29.0
 40
30.0
 40
30.0
 40
30.0
 40
30.0
 10
745.5132931367753
 20
-1792.407044365266
 10
747.3379879605379
 20
-1750.645769147842
 10
748.9236792850126
 20
-1708.873125115317
 10
750.4006778469251
 20
-1667.097897261177
 10
752.0678456796258
 20
-1619.945908883208
 10
751.5739051144269
 20
-1572.713305270884
 10
757.4093801021173
 20
-1525.739083819954
 10
760.9667857001863
 20
-1497.103105637009
 10
762.716721951919
 20
-1468.239234387714
 10
766.405385687976
 20
-1439.623237758584
 10
768.677942924821
 20
-1421.993133867592
 10
774.2056847582928
 20
-1404.766881294861
 10
776.2316592857798
 20
-1387.124633442281
 10
778.8264190778842
 20
-1364.529716320111
 10
779.7592648079014
 20
-1341.715088233367
 10
780.7201880661259
 20
-1318.966175343001
 10
783.3080576672572
 20
-1257.697735959447
 10
786.0239986930539
 20
-1196.427918537698
 10
787.763082894008
 20
-1135.13226289981
 10
789.5891557559647
 20
-1070.772711592116
 10
791.6339921812348
 20
-1006.372508157695
 10
791.1236874124835
 20
-942.009511754515
 10
790.7608327304982
 20
-896.2527870480723
 10
786.3211381786567
 20
-850.528704621354
 10
783.7011430621243
 20
-804.7898944114347
 10
781.6462297325612
 20
-768.9139619388479
 10
779.5105289138663
 20
-733.0422497082325
 10
777.5569875189554
 20
-697.1608912102584
 10
774.9387149501655
 20
-649.071492350753
 10
772.136732664626
 20
-600.9882085357357
 10
770.0241139856824
 20
-552.8756414090901
 10
768.2721968040469
 20
-512.9787657408979
 10
768.9635413405482
 20
-472.9182911008449
 10
765.7964650609581
 20
-433.1519414878511
 10
760.3781911365314
 20
-365.1188848642344
 10
762.1531043305321
 20
-296.9728075768527
 10
759.8164683176613
 20
-228.910101600216
 10
758.0114966655531
 20
-176.330860517712
 10
754.9408830595499
 20
-123.7957166574191
 10
752.7707312860027
 20
-71.22749988046788
 10
752.2034101869705
 20
-57.48443262994313
 10
751.7704478118604
 20
-43.73583169479521
 10
751.3652184554091
 20
-29.98611110361459
 10
751.3652184554091
 20
-29.98611110361459
 10
701.625575794773
 20
-29.98611110361459
 10
701.625575794773
 20
-29.98611110361459
 10
702.5148410669049
 20
-53.7946707697002
 10
703.3865794157545
 20
-77.60394098672965
 10
704.2918213181969
 20
-101.4112302738551
 10
706.7379683038056
 20
-165.7470319545488
 10
708.786379015639
 20
-230.0976475458285
 10
711.1844669192292
 20
-294.435516283813
 10
714.4746192350311
 20
-382.7108343227251
 10
717.2947743992566
 20
-471.0102680300358
 10
721.5316389544027
 20
-559.2404553180891
 10
724.4502377221206
 20
-620.0198203338198
 10
729.9873243770922
 20
-680.668659294352
 10
733.3104204184719
 20
-741.433210399496
 10
735.9793789545873
 20
-790.2363469161562
 10
736.8630028828615
 20
-839.1351709599211
 10
738.9267012059146
 20
-887.9747393613397
 10
742.6120921012607
 20
-975.1875038252135
 10
739.8698822223876
 20
-1062.265995692551
 10
735.4148139319439
 20
-1149.387895763
 10
732.9206509280082
 20
-1198.164418917039
 10
732.591945755023
 20
-1247.078745890487
 10
732.3599185740914
 20
-1295.93597040627
 10
732.1418440298751
 20
-1341.867619835974
 10
728.0135861099003
 20
-1387.317214279907
 10
721.1874739154263
 20
-1432.70918950185
 10
717.2508494318196
 20
-1458.885972400035
 10
715.760242742738
 20
-1485.456788094348
 10
713.7620873612931
 20
-1511.895139867252
 10
710.0275177278963
 20
-1561.306421864448
 10
706.2991923300629
 20
-1610.725283071711
 10
703.3408457731865
 20
-1660.18720797254
 10
698.6699853142848
 20
-1738.281665960829
 10
694.3551754737836
 20
-1816.400584127063
 10
690.4287140218586
 20
-1894.536038751626
 10
689.1606605011239
 20
-1919.769812888113
 10
688.1440989508152
 20
-1945.016333877895
 10
687.1516100052076
 20
-1970.263888396323
 10
687.1516100052076
 20
-1970.263888396323
 10
738.4070946793505
 20
-1970.263888396323
 10
738.4070946793505
 20
-1970.263888396323
 10
739.4847205471367
 20
-1935.135111007102
 10
740.2708052094848
 20
-1899.99582607665
 10
741.5535003860291
 20
-1864.874800152271
 10
742.4363061041244
 20
-1840.703148953886
 10
744.4573713705462
 20
-1816.574561449068
 10
745.5132931367753
 20
-1792.407044365266
 97
        0
 97
        1
330
86
 75
     2
 76
     1
 98
        1
 10
0.0
 20
0.0
450
        0
451
        0
460
0.0
461
0.0
452
        0
462
0.0
453
        0
470

  0
SPLINE
  5
88
330
70
100
AcDbEntity
  8
2022-042
100
AcDbSpline
210
0.0
220
0.0
230
1.0
 70
     9
 71
     3
 72
   107
 73
   103
 74
     0
 42
0.0000000001
 43
0.0000000001
 40
0.0
 40
0.0
 40
0.0
 40
0.0
 40
1.0
 40
1.0
 40
1.0
 40
2.0
 40
2.0
 40
2.0
 40
3.0
 40
3.0
 40
3.0
 40
4.0
 40
4.0
 40
4.0
 40
5.0
 40
5.0
 40
5.0
 40
6.0
 40
6.0
 40
6.0
 40
7.0
 40
7.0
 40
7.0
 40
8.0
 40
8.0
 40
8.0
 40
9.0
 40
9.0
 40
9.0
 40
10.0
 40
10.0
 40
10.0
 40
11.0
 40
11.0
 40
11.0
 40
12.0
 40
12.0
 40
12.0
 40
13.0
 40
13.0
 40
13.0
 40
14.0
 40
14.0
 40
14.0
 40
15.0
 40
15.0
 40
15.0
 40
16.0
 40
16.0
 40
16.0
 40
17.0
 40
17.0
 40
17.0
 40
18.0
 40
18.0
 40
18.0
 40
19.0
 40
19.0
 40
19.0
 40
20.0
 40
20.0
 40
20.0
 40
21.0
 40
21.0
 40
21.0
 40
22.0
 40
22.0
 40
22.0
 40
23.0
 40
23.0
 40
23.0
 40
24.0
 40
24.0
 40
24.0
 40
25.0
 40
25.0
 40
25.0
 40
26.0
 40
26.0
 40
26.0
 40
27.0
 40
27.0
 40
27.0
 40
28.0
 40
28.0
 40
28.0
 40
29.0
 40
29.0
 40
29.0
 40
30.0
 40
30.0
 40
30.0
 40
31.0
 40
31.0
 40
31.0
 40
32.0
 40
32.0
 40
32.0
 40
33.0
 40
33.0
 40
33.0
 40
34.0
 40
34.0
 40
34.0
 40
34.0
 10
654.4728122703217
 20
-1743.232612682681
 30
0.0
 10
657.6686981609067
 20
-1698.984323034455
 30
0.0
 10
661.3490075404132
 20
-1654.771345614953
 30
0.0
 10
664.723823077764
 20
-1610.535802820022
 30
0.0
 10
666.7426490321204
 20
-1584.074885671689
 30
0.0
 10
668.4411672337343
 20
-1557.58985285496
 30
0.0
 10
670.520368486471
 20
-1531.134103349855
 30
0.0
 10
675.1377438379631
 20
-1472.380755925308
 30
0.0
 10
681.0621884165612
 20
-1413.703028346661
 30
0.0
 10
684.2786156889764
 20
-1354.875094604857
 30
0.0
 10
687.3812256192994
 20
-1298.129893338662
 30
0.0
 10
687.8729268724298
 20
-1241.237844877409
 30
0.0
 10
689.2763295820425
 20
-1184.404449166791
 30
0.0
 10
690.1000088488696
 20
-1151.04515894618
 30
0.0
 10
690.7770131754173
 20
-1117.67596407605
 30
0.0
 10
690.96907724872
 20
-1084.308491753662
 30
0.0
 10
691.3450232935466
 20
-1019.007998741561
 30
0.0
 10
692.3070231441097
 20
-953.6889022138348
 30
0.0
 10
691.2018795761345
 20
-888.4083907555474
 30
0.0
 10
690.1681356120923
 20
-827.3410588209426
 30
0.0
 10
687.2026404820822
 20
-766.2933639306075
 30
0.0
 10
684.3079420642933
 20
-705.2739188232475
 30
0.0
 10
680.7569529565681
 20
-630.4225014699985
 30
0.0
 10
675.9996206009866
 20
-555.6282296381121
 30
0.0
 10
672.4926856517766
 20
-480.7747021638794
 30
0.0
 10
668.6451168864611
 20
-398.6471570183938
 30
0.0
 10
665.4155982512021
 20
-316.4883260995346
 30
0.0
 10
662.3249600276883
 20
-234.3280740787878
 30
0.0
 10
660.3376997607181
 20
-181.500161697789
 30
0.0
 10
659.4933929846693
 20
-128.6281736264258
 30
0.0
 10
657.3980428468473
 20
-75.80545042050177
 30
0.0
 10
656.7920936146848
 20
-60.53073678092851
 30
0.0
 10
656.139678657167
 20
-45.25778875279145
 30
0.0
 10
655.4551812479407
 20
-29.98611110361459
 30
0.0
 10
655.4551812479407
 20
-29.98611110361459
 30
0.0
 10
603.2254235705691
 20
-29.98611110361459
 30
0.0
 10
603.2254235705691
 20
-29.98611110361459
 30
0.0
 10
603.6793149007507
 20
-39.35687848272806
 30
0.0
 10
604.1264882947362
 20
-48.72796883954327
 30
0.0
 10
604.5565223386812
 20
-58.09983434284266
 30
0.0
 10
606.0425642762437
 20
-90.48849044233046
 30
0.0
 10
606.9354899623276
 20
-122.9057408343452
 30
0.0
 10
608.0000675309626
 20
-155.3130219812998
 30
0.0
 10
610.2522125770589
 20
-223.8758050994672
 30
0.0
 10
612.0507246751336
 20
-292.455813695061
 30
0.0
 10
614.7583113443773
 20
-361.0000148294549
 30
0.0
 10
618.0786513093681
 20
-445.0593542045979
 30
0.0
 10
621.8896589988445
 20
-529.10112359277
 30
0.0
 10
625.9739058239965
 20
-613.1267440958502
 30
0.0
 10
628.3123505119958
 20
-661.2371580378158
 30
0.0
 10
632.3952192989537
 20
-709.2697989492036
 30
0.0
 10
634.2850694910804
 20
-757.3930458718497
 30
0.0
 10
636.6543908473682
 20
-817.7288117801618
 30
0.0
 10
638.1625675234221
 20
-878.1141870634575
 30
0.0
 10
638.9502024787386
 20
-938.4923276462382
 30
0.0
 10
639.6090769902927
 20
-988.996824568289
 30
0.0
 10
638.7329030810052
 20
-1039.522336572803
 30
0.0
 10
638.4672862190925
 20
-1090.037857800407
 30
0.0
 10
638.3081228076739
 20
-1120.305260950392
 30
0.0
 10
637.8397190127612
 20
-1150.571630571732
 30
0.0
 10
637.8342499236778
 20
-1180.838689212169
 30
0.0
 10
637.8288238982897
 20
-1210.413542042234
 30
0.0
 10
638.7273909282288
 20
-1239.996232464525
 30
0.0
 10
638.2677721268036
 20
-1269.560405498582
 30
0.0
 10
638.0092607743285
 20
-1286.193498756142
 30
0.0
 10
635.4616126629862
 20
-1302.778016167361
 30
0.0
 10
634.5793237092138
 20
-1319.417741233732
 30
0.0
 10
633.7216671881608
 20
-1335.592033900043
 30
0.0
 10
634.1537682893995
 20
-1351.839104208481
 30
0.0
 10
633.1645952481959
 20
-1368.001769677531
 30
0.0
 10
631.4289992064193
 20
-1396.363173750302
 30
0.0
 10
629.1410251672797
 20
-1424.6922800529
 30
0.0
 10
626.9010671464632
 20
-1453.020352826849
 30
0.0
 10
623.8885895267749
 20
-1491.118630269581
 30
0.0
 10
620.6322852741167
 20
-1529.198131941919
 30
0.0
 10
617.6111087883269
 20
-1567.295720365554
 30
0.0
 10
614.9406860866283
 20
-1600.972562262517
 30
0.0
 10
612.6210602327168
 20
-1634.677481687685
 30
0.0
 10
609.8175276542063
 20
-1668.342610259998
 30
0.0
 10
607.9880958241528
 20
-1690.310261621693
 30
0.0
 10
605.2512258432819
 20
-1712.202982156585
 30
0.0
 10
603.505639024598
 20
-1734.176317925831
 30
0.0
 10
601.722026964499
 20
-1756.626799419784
 30
0.0
 10
600.7664005405835
 20
-1779.142220963635
 30
0.0
 10
599.2356154254052
 20
-1801.614923323468
 30
0.0
 10
597.9763899618539
 20
-1820.099927659124
 30
0.0
 10
596.1712460549716
 20
-1838.549447511283
 30
0.0
 10
595.0259671245931
 20
-1857.040653018813
 30
0.0
 10
593.1262984103334
 20
-1887.711821359669
 30
0.0
 10
591.5969774607349
 20
-1918.405210566406
 30
0.0
 10
589.8463952536014
 20
-1949.085680665072
 30
0.0
 10
589.4435774639872
 20
-1956.145025823898
 30
0.0
 10
589.0425252858112
 20
-1963.204543237498
 30
0.0
 10
588.6390615407956
 20
-1970.263888396323
 30
0.0
 10
588.6390615407956
 20
-1970.263888396323
 30
0.0
 10
641.0943437813697
 20
-1970.263888396323
 30
0.0
 10
641.0943437813697
 20
-1970.263888396323
 30
0.0
 10
643.3302968786853
 20
-1928.809226677086
 30
0.0
 10
645.5775326637137
 20
-1887.355081722171
 30
0.0
 10
647.9474138480171
 20
-1845.907826958228
 30
0.0
 10
649.9050462938141
 20
-1811.669951261492
 30
0.0
 10
652.0022912341561
 20
-1777.436381934113
 30
0.0
 10
654.4728122703217
 20
-1743.232612682681
 30
0.0
  0
HATCH
  5
89
330
70
100
AcDbEntity
  8
2022-042
 62
    18
420
        0
440
 33554687
100
AcDbHatch
 10
0.0
 20
0.0
 30
0.0
210
0.0
220
0.0
230
1.0
  2
SOLID
 70
     1
 71
     1
 91
        1
 92
        1
 93
        1
 72
     4
 94
        3
 73
     0
 74
     0
 95
      107
 96
      103
 40
0.0
 40
0.0
 40
0.0
 40
0.0
 40
1.0
 40
1.0
 40
1.0
 40
2.0
 40
2.0
 40
2.0
 40
3.0
 40
3.0
 40
3.0
 40
4.0
 40
4.0
 40
4.0
 40
5.0
 40
5.0
 40
5.0
 40
6.0
 40
6.0
 40
6.0
 40
7.0
 40
7.0
 40
7.0
 40
8.0
 40
8.0
 40
8.0
 40
9.0
 40
9.0
 40
9.0
 40
10.0
 40
10.0
 40
10.0
 40
11.0
 40
11.0
 40
11.0
 40
12.0
 40
12.0
 40
12.0
 40
13.0
 40
13.0
 40
13.0
 40
14.0
 40
14.0
 40
14.0
 40
15.0
 40
15.0
 40
15.0
 40
16.0
 40
16.0
 40
16.0
 40
17.0
 40
17.0
 40
17.0
 40
18.0
 40
18.0
 40
18.0
 40
19.0
 40
19.0
 40
19.0
 40
20.0
 40
20.0
 40
20.0
 40
21.0
 40
21.0
 40
21.0
 40
22.0
 40
22.0
 40
22.0
 40
23.0
 40
23.0
 40
23.0
 40
24.0
 40
24.0
 40
24.0
 40
25.0
 40
25.0
 40
25.0
 40
26.0
 40
26.0
 40
26.0
 40
27.0
 40
27.0
 40
27.0
 40
28.0
 40
28.0
 40
28.0
 40
29.0
 40
29.0
 40
29.0
 40
30.0
 40
30.0
 40
30.0
 40
31.0
 40
31.0
 40
31.0
 40
32.0
 40
32.0
 40
32.0
 40
33.0
 40
33.0
 40
33.0
 40
34.0
 40
34.0
 40
34.0
 40
34.0
 10
654.4728122703217
 20
-1743.232612682681
 10
657.6686981609067
 20
-1698.984323034455
 10
661.3490075404132
 20
-1654.771345614953
 10
664.723823077764
 20
-1610.535802820022
 10
666.7426490321204
 20
-1584.074885671689
 10
668.4411672337343
 20
-1557.58985285496
 10
670.520368486471
 20
-1531.134103349855
 10
675.1377438379631
 20
-1472.380755925308
 10
681.0621884165612
 20
-1413.703028346661
 10
684.2786156889764
 20
-1354.875094604857
 10
687.3812256192994
 20
-1298.129893338662
 10
687.8729268724298
 20
-1241.237844877409
 10
689.2763295820425
 20
-1184.404449166791
 10
690.1000088488696
 20
-1151.04515894618
 10
690.7770131754173
 20
-1117.67596407605
 10
690.96907724872
 20
-1084.308491753662
 10
691.3450232935466
 20
-1019.007998741561
 10
692.3070231441097
 20
-953.6889022138348
 10
691.2018795761345
 20
-888.4083907555474
 10
690.1681356120923
 20
-827.3410588209426
 10
687.2026404820822
 20
-766.2933639306075
 10
684.3079420642933
 20
-705.2739188232475
 10
680.7569529565681
 20
-630.4225014699985
 10
675.9996206009866
 20
-555.6282296381121
 10
672.4926856517766
 20
-480.7747021638794
 10
668.6451168864611
 20
-398.6471570183938
 10
665.4155982512021
 20
-316.4883260995346
 10
662.3249600276883
 20
-234.3280740787878
 10
660.3376997607181
 20
-181.500161697789
 10
659.4933929846693
 20
-128.6281736264258
 10
657.3980428468473
 20
-75.80545042050177
 10
656.7920936146848
 20
-60.53073678092851
 10
656.139678657167
 20
-45.25778875279145
 10
655.4551812479407
 20
-29.98611110361459
 10
655.4551812479407
 20
-29.98611110361459
 10
603.2254235705691
 20
-29.98611110361459
 10
603.2254235705691
 20
-29.98611110361459
 10
603.6793149007507
 20
-39.35687848272806
 10
604.1264882947362
 20
-48.72796883954327
 10
604.5565223386812
 20
-58.09983434284266
 10
606.0425642762437
 20
-90.48849044233046
 10
606.9354899623276
 20
-122.9057408343452
 10
608.0000675309626
 20
-155.3130219812998
 10
610.2522125770589
 20
-223.8758050994672
 10
612.0507246751336
 20
-292.455813695061
 10
614.7583113443773
 20
-361.0000148294549
 10
618.0786513093681
 20
-445.0593542045979
 10
621.8896589988445
 20
-529.10112359277
 10
625.9739058239965
 20
-613.1267440958502
 10
628.3123505119958
 20
-661.2371580378158
 10
632.3952192989537
 20
-709.2697989492036
 10
634.2850694910804
 20
-757.3930458718497
 10
636.6543908473682
 20
-817.7288117801618
 10
638.1625675234221
 20
-878.1141870634575
 10
638.9502024787386
 20
-938.4923276462382
 10
639.6090769902927
 20
-988.996824568289
 10
638.7329030810052
 20
-1039.522336572803
 10
638.4672862190925
 20
-1090.037857800407
 10
638.3081228076739
 20
-1120.305260950392
 10
637.8397190127612
 20
-1150.571630571732
 10
637.8342499236778
 20
-1180.838689212169
 10
637.8288238982897
 20
-1210.413542042234
 10
638.7273909282288
 20
-1239.996232464525
 10
638.2677721268036
 20
-1269.560405498582
 10
638.0092607743285
 20
-1286.193498756142
 10
635.4616126629862
 20
-1302.778016167361
 10
634.5793237092138
 20
-1319.417741233732
 10
633.7216671881608
 20
-1335.592033900043
 10
634.1537682893995
 20
-1351.839104208481
 10
633.1645952481959
 20
-1368.001769677531
 10
631.4289992064193
 20
-1396.363173750302
 10
629.1410251672797
 20
-1424.6922800529
 10
626.9010671464632
 20
-1453.020352826849
 10
623.8885895267749
 20
-1491.118630269581
 10
620.6322852741167
 20
-1529.198131941919
 10
617.6111087883269
 20
-1567.295720365554
 10
614.9406860866283
 20
-1600.972562262517
 10
612.6210602327168
 20
-1634.677481687685
 10
609.8175276542063
 20
-1668.342610259998
 10
607.9880958241528
 20
-1690.310261621693
 10
605.2512258432819
 20
-1712.202982156585
 10
603.505639024598
 20
-1734.176317925831
 10
601.722026964499
 20
-1756.626799419784
 10
600.7664005405835
 20
-1779.142220963635
 10
599.2356154254052
 20
-1801.614923323468
 10
597.9763899618539
 20
-1820.099927659124
 10
596.1712460549716
 20
-1838.549447511283
 10
595.0259671245931
 20
-1857.040653018813
 10
593.1262984103334
 20
-1887.711821359669
 10
591.5969774607349
 20
-1918.405210566406
 10
589.8463952536014
 20
-1949.085680665072
 10
589.4435774639872
 20
-1956.145025823898
 10
589.0425252858112
 20
-1963.204543237498
 10
588.6390615407956
 20
-1970.263888396323
 10
588.6390615407956
 20
-1970.263888396323
 10
641.0943437813697
 20
-1970.263888396323
 10
641.0943437813697
 20
-1970.263888396323
 10
643.3302968786853
 20
-1928.809226677086
 10
645.5775326637137
 20
-1887.355081722171
 10
647.9474138480171
 20
-1845.907826958228
 10
649.9050462938141
 20
-1811.669951261492
 10
652.0022912341561
 20
-1777.436381934113
 10
654.4728122703217
 20
-1743.232612682681
 97
        0
 97
        1
330
88
 75
     2
 76
     1
 98
        1
 10
0.0
 20
0.0
450
        0
451
        0
460
0.0
461
0.0
452
        0
462
0.0
453
        0
470

  0
ELLIPSE
  5
95
330
70
100
AcDbEntity
  8
Screws
100
AcDbEllipse
 10
17.37430555121166
 20
-1982.258332837769
 30
0.0
 11
2.557638888249479
 21
0.0
 31
0.0
210
0.0
220
0.0
230
1.0
 40
0.9655172413793103
 41
0.0
 42
6.283185307179586
  0
HATCH
  5
96
330
70
100
AcDbEntity
  8
Screws
 62
    18
420
        0
440
 33554687
100
AcDbHatch
 10
0.0
 20
0.0
 30
0.0
210
0.0
220
0.0
230
1.0
  2
SOLID
 70
     1
 71
     1
 91
        1
 92
        1
 93
        1
 72
     3
 10
17.37430555121166
 20
-1982.258332837769
 11
2.557638888249479
 21
0.0
 40
0.9655172413793103
 50
0.0
 51
360.0
 73
     1
 97
        1
330
95
 75
     2
 76
     1
 98
        1
 10
0.0
 20
0.0
450
        0
451
        0
460
0.0
461
0.0
452
        0
462
0.0
453
        0
470

  0
ELLIPSE
  5
97
330
70
100
AcDbEntity
  8
Screws
100
AcDbEllipse
 10
982.6519442919968
 20
-1982.640929460185
 30
0.0
 11
2.557638888249479
 21
0.0
 31
0.0
210
0.0
220
0.0
230
1.0
 40
0.9655172413793103
 41
0.0
 42
6.283185307179586
  0
HATCH
  5
98
330
70
100
AcDbEntity
  8
Screws
 62
    18
420
        0
440
 33554687
100
AcDbHatch
 10
0.0
 20
0.0
 30
0.0
210
0.0
220
0.0
230
1.0
  2
SOLID
 70
     1
 71
     1
 91
        1
 92
        1
 93
        1
 72
     3
 10
982.6519442919968
 20
-1982.640929460185
 11
2.557638888249479
 21
0.0
 40
0.9655172413793103
 50
0.0
 51
360.0
 73
     1
 97
        1
330
97
 75
     2
 76
     1
 98
        1
 10
0.0
 20
0.0
450
        0
451
        0
460
0.0
461
0.0
452
        0
462
0.0
453
        0
470

  0
ELLIPSE
  5
99
330
70
100
AcDbEntity
  8
Screws
100
AcDbEllipse
 10
982.6519442919968
 20
-17.43226955226426
 30
0.0
 11
2.557638888249479
 21
0.0
 31
0.0
210
0.0
220
0.0
230
1.0
 40
0.9655172413793103
 41
0.0
 42
6.283185307179586
  0
HATCH
  5
9A
330
70
100
AcDbEntity
  8
Screws
 62
    18
420
        0
440
 33554687
100
AcDbHatch
 10
0.0
 20
0.0
 30
0.0
210
0.0
220
0.0
230
1.0
  2
SOLID
 70
     1
 71
     1
 91
        1
 92
        1
 93
        1
 72
     3
 10
982.6519442919968
 20
-17.43226955226426
 11
2.557638888249479
 21
0.0
 40
0.9655172413793103
 50
0.0
 51
360.0
 73
     1
 97
        1
330
99
 75
     2
 76
     1
 98
        1
 10
0.0
 20
0.0
450
        0
451
        0
460
0.0
461
0.0
452
        0
462
0.0
453
        0
470

  0
ELLIPSE
  5
9B
330
70
100
AcDbEntity
  8
Screws
100
AcDbEllipse
 10
17.46670788238472
 20
-17.43226955226426
 30
0.0
 11
2.557638888249479
 21
0.0
 31
0.0
210
0.0
220
0.0
230
1.0
 40
0.9655172413793103
 41
0.0
 42
6.283185307179586
  0
HATCH
  5
9C
330
70
100
AcDbEntity
  8
Screws
 62
    18
420
        0
440
 33554687
100
AcDbHatch
 10
0.0
 20
0.0
 30
0.0
210
0.0
220
0.0
230
1.0
  2
SOLID
 70
     1
 71
     1
 91
        1
 92
        1
 93
        1
 72
     3
 10
17.46670788238472
 20
-17.43226955226426
 11
2.557638888249479
 21
0.0
 40
0.9655172413793103
 50
0.0
 51
360.0
 73
     1
 97
        1
330
9B
 75
     2
 76
     1
 98
        1
 10
0.0
 20
0.0
450
        0
451
        0
460
0.0
461
0.0
452
        0
462
0.0
453
        0
470

  0
ENDSEC
  0
SECTION
  2
OBJECTS
  0
DICTIONARY
  5
C
330
0
100
AcDbDictionary
281
     1
  3
ACAD_COLOR
350
63
  3
ACAD_DETAILVIEWSTYLE
350
6A
  3
ACAD_GROUP
350
D
  3
ACAD_LAYOUT
350
62
  3
ACAD_MATERIAL
350
10
  3
ACAD_MLEADERSTYLE
350
66
  3
ACAD_MLINESTYLE
350
5F
  3
ACAD_PLOTSETTINGS
350
61
  3
ACAD_PLOTSTYLENAME
350
E
  3
ACAD_SCALELIST
350
42
  3
ACAD_SECTIONVIEWSTYLE
350
68
  3
ACAD_TABLESTYLE
350
64
  3
ACAD_VISUALSTYLE
350
29
  3
ACDB_RECOMPOSE_DATA
350
A5
  3
AcDbVariableDictionary
350
9D
  0
DICTIONARY
  5
63
102
{ACAD_REACTORS
330
C
102
}
330
C
100
AcDbDictionary
281
     1
  0
DICTIONARY
  5
6A
102
{ACAD_REACTORS
330
C
102
}
330
C
100
AcDbDictionary
281
     1
  3
Imperial24
350
6B
  0
DICTIONARY
  5
D
102
{ACAD_REACTORS
330
C
102
}
330
C
100
AcDbDictionary
281
     1
  0
DICTIONARY
  5
62
102
{ACAD_REACTORS
330
C
102
}
330
C
100
AcDbDictionary
281
     1
  3
Layout1
350
6F
  3
Layout2
350
77
  3
Model
350
73
  0
DICTIONARY
  5
10
102
{ACAD_REACTORS
330
C
102
}
330
C
100
AcDbDictionary
281
     1
  3
ByBlock
350
19
  3
ByLayer
350
11
  3
Global
350
21
  0
DICTIONARY
  5
66
102
{ACAD_REACTORS
330
C
102
}
330
C
100
AcDbDictionary
281
     1
  3
Standard
350
67
  0
DICTIONARY
  5
5F
102
{ACAD_REACTORS
330
C
102
}
330
C
100
AcDbDictionary
281
     1
  3
Standard
350
60
  0
DICTIONARY
  5
61
102
{ACAD_REACTORS
330
C
102
}
330
C
100
AcDbDictionary
281
     1
  0
ACDBDICTIONARYWDFLT
  5
E
102
{ACAD_REACTORS
330
C
102
}
330
C
100
AcDbDictionary
281
     1
  3
Normal
350
F
100
AcDbDictionaryWithDefault
340
F
  0
DICTIONARY
  5
42
102
{ACAD_REACTORS
330
C
102
}
330
C
100
AcDbDictionary
281
     1
  3
A0
350
43
  3
A1
350
44
  3
A2
350
45
  3
A3
350
46
  3
A4
350
47
  3
A5
350
48
  3
A6
350
49
  3
A7
350
4A
  3
A8
350
4B
  3
A9
350
4C
  3
B0
350
4D
  3
B1
350
4E
  3
B2
350
4F
  3
B3
350
50
  3
B4
350
51
  3
B5
350
52
  3
B6
350
53
  0
DICTIONARY
  5
68
102
{ACAD_REACTORS
330
C
102
}
330
C
100
AcDbDictionary
281
     1
  3
Imperial24
350
69
  0
DICTIONARY
  5
64
102
{ACAD_REACTORS
330
C
102
}
330
C
100
AcDbDictionary
281
     1
  3
Standard
350
65
  0
DICTIONARY
  5
29
102
{ACAD_REACTORS
330
C
102
}
330
C
100
AcDbDictionary
281
     1
  3
2dWireframe
350
2F
  3
Basic
350
2E
  3
Brighten
350
35
  3
ColorChange
350
39
  3
Conceptual
350
32
  3
Dim
350
34
  3
EdgeColorOff
350
41
  3
Facepattern
350
38
  3
Flat
350
2A
  3
FlatWithEdges
350
2B
  3
Gouraud
350
2C
  3
GouraudWithEdges
350
2D
  3
Hidden
350
31
  3
JitterOff
350
3F
  3
Linepattern
350
37
  3
OverhangOff
350
40
  3
Realistic
350
33
  3
Shaded
350
3E
  3
Shaded with edges
350
3D
  3
Shades of Gray
350
3A
  3
Sketchy
350
3B
  3
Thicken
350
36
  3
Wireframe
350
30
  3
X-Ray
350
3C
  0
XRECORD
  5
A5
102
{ACAD_REACTORS
330
C
102
}
330
C
100
AcDbXrecord
280
     1
 90
        1
330
65
  0
DICTIONARY
  5
9D
102
{ACAD_REACTORS
330
C
102
}
330
C
100
AcDbDictionary
281
     1
  3
CANNOSCALE
350
A2
  3
CMLEADERSTYLE
350
9F
  3
CTABLESTYLE
350
9E
  3
CVIEWDETAILSTYLE
350
A0
  3
CVIEWSECTIONSTYLE
350
A1
  0
ACDBDETAILVIEWSTYLE
  5
6B
102
{ACAD_REACTORS
330
6A
102
}
330
6A
100
AcDbModelDocViewStyle
 70
     0
  3
Imperial24
290
     1
300
Imperial24
 90
        0
100
AcDbDetailViewStyle
 70
     0
 71
     0
 90
        3
 71
     1
340
55
 62
   256
 40
0.24
340
0
 62
   256
 40
0.24
300

 40
0.36
280
     3
 71
     2
340
5D
 90
       25
 62
   256
 71
     3
340
55
 62
   256
 40
0.24
 90
        1
 40
0.75
 90
        1
300
%<\AcVar ViewType \f "%tc1">% %<\AcVar ViewDetailId>%\PSCALE %<\AcVar ViewScale \f "%sn">%
 71
     4
340
5D
 90
       25
 62
   256
340
5D
 90
       25
 62
   256
280
     0
  0
LAYOUT
  5
6F
102
{ACAD_REACTORS
330
62
102
}
330
62
100
AcDbPlotSettings
  1

  2

  4

  6

 40
0.0
 41
0.0
 42
0.0
 43
0.0
 44
0.0
 45
0.0
 46
0.0
 47
0.0
 48
0.0
 49
0.0
140
0.0
141
0.0
142
1.0
143
1.0
 70
   688
 72
     0
 73
     0
 74
     5
  7

 75
    16
147
1.0
 76
     0
 77
     2
 78
   300
148
0.0
149
0.0
100
AcDbLayout
  1
Layout1
 70
     1
 71
     1
 10
0.0
 20
0.0
 11
12.0
 21
9.0
 12
0.0
 22
0.0
 32
0.0
 14
0.0
 24
0.0
 34
0.0
 15
0.0
 25
0.0
 35
0.0
146
0.0
 13
0.0
 23
0.0
 33
0.0
 16
1.0
 26
0.0
 36
0.0
 17
0.0
 27
1.0
 37
0.0
 76
     0
330
6C
  0
LAYOUT
  5
77
102
{ACAD_REACTORS
330
62
102
}
330
62
100
AcDbPlotSettings
  1

  2

  4

  6

 40
0.0
 41
0.0
 42
0.0
 43
0.0
 44
0.0
 45
0.0
 46
0.0
 47
0.0
 48
0.0
 49
0.0
140
0.0
141
0.0
142
1.0
143
1.0
 70
   688
 72
     0
 73
     0
 74
     5
  7

 75
    16
147
1.0
 76
     0
 77
     2
 78
   300
148
0.0
149
0.0
100
AcDbLayout
  1
Layout2
 70
     1
 71
     2
 10
0.0
 20
0.0
 11
12.0
 21
9.0
 12
0.0
 22
0.0
 32
0.0
 14
0.0
 24
0.0
 34
0.0
 15
0.0
 25
0.0
 35
0.0
146
0.0
 13
0.0
 23
0.0
 33
0.0
 16
1.0
 26
0.0
 36
0.0
 17
0.0
 27
1.0
 37
0.0
 76
     0
330
74
  0
LAYOUT
  5
73
102
{ACAD_REACTORS
330
62
102
}
330
62
100
AcDbPlotSettings
  1

  2

  4

  6

 40
0.0
 41
0.0
 42
0.0
 43
0.0
 44
0.0
 45
0.0
 46
0.0
 47
0.0
 48
0.0
 49
0.0
140
0.0
141
0.0
142
1.0
143
1.0
 70
  1712
 72
     0
 73
     0
 74
     0
  7

 75
     0
147
1.0
 76
     0
 77
     2
 78
   300
148
0.0
149
0.0
100
AcDbLayout
  1
Model
 70
     1
 71
     0
 10
0.0
 20
0.0
 11
12.0
 21
9.0
 12
0.0
 22
0.0
 32
0.0
 14
0.0
 24
0.0
 34
0.0
 15
0.0
 25
0.0
 35
0.0
146
0.0
 13
0.0
 23
0.0
 33
0.0
 16
1.0
 26
0.0
 36
0.0
 17
0.0
 27
1.0
 37
0.0
 76
     0
330
70
  0
MATERIAL
  5
19
102
{ACAD_XDICTIONARY
360
1A
102
}
102
{ACAD_REACTORS
330
10
102
}
330
10
100
AcDbMaterial
  1
ByBlock
 72
     0
 43
0.0208333333333333
 43
0.0
 43
0.0
 43
0.0
 43
0.0
 43
0.0208333333333333
 43
0.0
 43
0.0
 43
0.0
 43
0.0
 43
1.0
 43
0.0
 43
0.0
 43
0.0
 43
0.0
 43
1.0
 77
     0
 47
0.0208333333333333
 47
0.0
 47
0.0
 47
0.0
 47
0.0
 47
0.0208333333333333
 47
0.0
 47
0.0
 47
0.0
 47
0.0
 47
1.0
 47
0.0
 47
0.0
 47
0.0
 47
0.0
 47
1.0
171
     0
 49
0.0208333333333333
 49
0.0
 49
0.0
 49
0.0
 49
0.0
 49
0.0208333333333333
 49
0.0
 49
0.0
 49
0.0
 49
0.0
 49
1.0
 49
0.0
 49
0.0
 49
0.0
 49
0.0
 49
1.0
175
     0
142
0.0208333333333333
142
0.0
142
0.0
142
0.0
142
0.0
142
0.0208333333333333
142
0.0
142
0.0
142
0.0
142
0.0
142
1.0
142
0.0
142
0.0
142
0.0
142
0.0
142
1.0
179
     0
144
0.0208333333333333
144
0.0
144
0.0
144
0.0
144
0.0
144
0.0208333333333333
144
0.0
144
0.0
144
0.0
144
0.0
144
1.0
144
0.0
144
0.0
144
0.0
144
0.0
144
1.0
147
0.0208333333333333
147
0.0
147
0.0
147
0.0
147
0.0
147
0.0208333333333333
147
0.0
147
0.0
147
0.0
147
0.0
147
1.0
147
0.0
147
0.0
147
0.0
147
0.0
147
1.0
  0
MATERIAL
  5
11
102
{ACAD_XDICTIONARY
360
12
102
}
102
{ACAD_REACTORS
330
10
102
}
330
10
100
AcDbMaterial
  1
ByLayer
 72
     0
 43
0.0208333333333333
 43
0.0
 43
0.0
 43
0.0
 43
0.0
 43
0.0208333333333333
 43
0.0
 43
0.0
 43
0.0
 43
0.0
 43
1.0
 43
0.0
 43
0.0
 43
0.0
 43
0.0
 43
1.0
 77
     0
 47
0.0208333333333333
 47
0.0
 47
0.0
 47
0.0
 47
0.0
 47
0.0208333333333333
 47
0.0
 47
0.0
 47
0.0
 47
0.0
 47
1.0
 47
0.0
 47
0.0
 47
0.0
 47
0.0
 47
1.0
171
     0
 49
0.0208333333333333
 49
0.0
 49
0.0
 49
0.0
 49
0.0
 49
0.0208333333333333
 49
0.0
 49
0.0
 49
0.0
 49
0.0
 49
1.0
 49
0.0
 49
0.0
 49
0.0
 49
0.0
 49
1.0
175
     0
142
0.0208333333333333
142
0.0
142
0.0
142
0.0
142
0.0
142
0.0208333333333333
142
0.0
142
0.0
142
0.0
142
0.0
142
1.0
142
0.0
142
0.0
142
0.0
142
0.0
142
1.0
179
     0
144
0.0208333333333333
144
0.0
144
0.0
144
0.0
144
0.0
144
0.0208333333333333
144
0.0
144
0.0
144
0.0
144
0.0
144
1.0
144
0.0
144
0.0
144
0.0
144
0.0
144
1.0
147
0.0208333333333333
147
0.0
147
0.0
147
0.0
147
0.0
147
0.0208333333333333
147
0.0
147
0.0
147
0.0
147
0.0
147
1.0
147
0.0
147
0.0
147
0.0
147
0.0
147
1.0
  0
MATERIAL
  5
21
102
{ACAD_XDICTIONARY
360
22
102
}
102
{ACAD_REACTORS
330
10
102
}
330
10
100
AcDbMaterial
  1
Global
 72
     0
 43
0.0208333333333333
 43
0.0
 43
0.0
 43
0.0
 43
0.0
 43
0.0208333333333333
 43
0.0
 43
0.0
 43
0.0
 43
0.0
 43
1.0
 43
0.0
 43
0.0
 43
0.0
 43
0.0
 43
1.0
 77
     0
 47
0.0208333333333333
 47
0.0
 47
0.0
 47
0.0
 47
0.0
 47
0.0208333333333333
 47
0.0
 47
0.0
 47
0.0
 47
0.0
 47
1.0
 47
0.0
 47
0.0
 47
0.0
 47
0.0
 47
1.0
171
     0
 49
0.0208333333333333
 49
0.0
 49
0.0
 49
0.0
 49
0.0
 49
0.0208333333333333
 49
0.0
 49
0.0
 49
0.0
 49
0.0
 49
1.0
 49
0.0
 49
0.0
 49
0.0
 49
0.0
 49
1.0
175
     0
142
0.0208333333333333
142
0.0
142
0.0
142
0.0
142
0.0
142
0.0208333333333333
142
0.0
142
0.0
142
0.0
142
0.0
142
1.0
142
0.0
142
0.0
142
0.0
142
0.0
142
1.0
179
     0
144
0.0208333333333333
144
0.0
144
0.0
144
0.0
144
0.0
144
0.0208333333333333
144
0.0
144
0.0
144
0.0
144
0.0
144
1.0
144
0.0
144
0.0
144
0.0
144
0.0
144
1.0
147
0.0208333333333333
147
0.0
147
0.0
147
0.0
147
0.0
147
0.0208333333333333
147
0.0
147
0.0
147
0.0
147
0.0
147
1.0
147
0.0
147
0.0
147
0.0
147
0.0
147
1.0
  0
MLEADERSTYLE
  5
67
102
{ACAD_REACTORS
330
66
102
}
330
66
100
AcDbMLeaderStyle
179
     2
170
     2
171
     1
172
     0
 90
        2
 40
0.0
 41
0.0
173
     1
 91
-1056964608
340
5B
 92
       -2
290
     1
 42
0.09
291
     1
 43
0.36
  3
Standard
 44
0.18
300

342
55
174
     1
178
     6
175
     1
176
     0
 93
-1056964608
 45
0.18
292
     0
297
     0
 46
0.18
 94
-1056964608
 47
1.0
 49
1.0
140
1.0
293
     1
141
0.0
294
     1
177
     0
142
1.0
295
     1
296
     0
143
0.125
271
     0
272
     9
273
     9
298
     1
  0
MLINESTYLE
  5
60
102
{ACAD_REACTORS
330
5F
102
}
330
5F
100
AcDbMlineStyle
  2
STANDARD
 70
     0
  3

 62
   256
 51
90.0
 52
90.0
 71
     2
 49
0.5
 62
   256
  6
BYLAYER
 49
-0.5
 62
   256
  6
BYLAYER
  0
ACDBPLACEHOLDER
  5
F
102
{ACAD_REACTORS
330
E
102
}
330
E
  0
SCALE
  5
43
102
{ACAD_REACTORS
330
42
102
}
330
42
100
AcDbScale
 70
     0
300
1:1
140
1.0
141
1.0
290
     1
  0
SCALE
  5
44
102
{ACAD_REACTORS
330
42
102
}
330
42
100
AcDbScale
 70
     0
300
1/128" = 1'-0"
140
0.0078125
141
12.0
290
     0
  0
SCALE
  5
45
102
{ACAD_REACTORS
330
42
102
}
330
42
100
AcDbScale
 70
     0
300
1/64" = 1'-0"
140
0.015625
141
12.0
290
     0
  0
SCALE
  5
46
102
{ACAD_REACTORS
330
42
102
}
330
42
100
AcDbScale
 70
     0
300
1/32" = 1'-0"
140
0.03125
141
12.0
290
     0
  0
SCALE
  5
47
102
{ACAD_REACTORS
330
42
102
}
330
42
100
AcDbScale
 70
     0
300
1/16" = 1'-0"
140
0.0625
141
12.0
290
     0
  0
SCALE
  5
48
102
{ACAD_REACTORS
330
42
102
}
330
42
100
AcDbScale
 70
     0
300
3/32" = 1'-0"
140
0.09375
141
12.0
290
     0
  0
SCALE
  5
49
102
{ACAD_REACTORS
330
42
102
}
330
42
100
AcDbScale
 70
     0
300
1/8" = 1'-0"
140
0.125
141
12.0
290
     0
  0
SCALE
  5
4A
102
{ACAD_REACTORS
330
42
102
}
330
42
100
AcDbScale
 70
     0
300
3/16" = 1'-0"
140
0.1875
141
12.0
290
     0
  0
SCALE
  5
4B
102
{ACAD_REACTORS
330
42
102
}
330
42
100
AcDbScale
 70
     0
300
1/4" = 1'-0"
140
0.25
141
12.0
290
     0
  0
SCALE
  5
4C
102
{ACAD_REACTORS
330
42
102
}
330
42
100
AcDbScale
 70
     0
300
3/8" = 1'-0"
140
0.375
141
12.0
290
     0
  0
SCALE
  5
4D
102
{ACAD_REACTORS
330
42
102
}
330
42
100
AcDbScale
 70
     0
300
1/2" = 1'-0"
140
0.5
141
12.0
290
     0
  0
SCALE
  5
4E
102
{ACAD_REACTORS
330
42
102
}
330
42
100
AcDbScale
 70
     0
300
3/4" = 1'-0"
140
0.75
141
12.0
290
     0
  0
SCALE
  5
4F
102
{ACAD_REACTORS
330
42
102
}
330
42
100
AcDbScale
 70
     0
300
1" = 1'-0"
140
1.0
141
12.0
290
     0
  0
SCALE
  5
50
102
{ACAD_REACTORS
330
42
102
}
330
42
100
AcDbScale
 70
     0
300
1-1/2" = 1'-0"
140
1.5
141
12.0
290
     0
  0
SCALE
  5
51
102
{ACAD_REACTORS
330
42
102
}
330
42
100
AcDbScale
 70
     0
300
3" = 1'-0"
140
3.0
141
12.0
290
     0
  0
SCALE
  5
52
102
{ACAD_REACTORS
330
42
102
}
330
42
100
AcDbScale
 70
     0
300
6" = 1'-0"
140
6.0
141
12.0
290
     0
  0
SCALE
  5
53
102
{ACAD_REACTORS
330
42
102
}
330
42
100
AcDbScale
 70
     0
300
1'-0" = 1'-0"
140
12.0
141
12.0
290
     0
  0
ACDBSECTIONVIEWSTYLE
  5
69
102
{ACAD_REACTORS
330
68
102
}
330
68
100
AcDbModelDocViewStyle
 70
     0
  3
Imperial24
290
     1
300
Imperial24
 90
        0
100
AcDbSectionViewStyle
 70
     0
 71
     0
 90
       78
 71
     1
340
55
 62
   256
 40
0.24
340
0
340
0
 62
   256
 40
0.24
300
I, O, Q, S, X, Z
 40
0.48
 90
        3
 40
0.18
 90
        1
 71
     2
340
5D
 90
       25
 62
   256
340
5D
 90
       50
 62
   256
 40
0.24
 40
0.0
 40
0.24
 71
     3
340
55
 62
   256
 40
0.24
 90
        1
 40
0.75
 90
        1
300
%<\AcVar ViewType \f "%tc1">% %<\AcVar ViewSectionStartId>%-%<\AcVar ViewSectionEndId>%\PSCALE %<\AcVar ViewScale \f "%sn">%
 71
     4
 62
   256
 62
   257
300
ANSI31
 40
1.0
 90
        0
290
     0
290
     0
 90
        6
 40
0.0
 40
1.570796326794896
 40
0.2617993877991494
 40
1.308996938995747
 40
-0.2617993877991494
 40
1.832595714594046
  0
TABLESTYLE
  5
65
102
{ACAD_XDICTIONARY
360
A3
102
}
102
{ACAD_REACTORS
330
64
102
}
330
64
100
AcDbTableStyle
280
     0
  3
Standard
 70
     0
 71
     0
 40
0.06
 41
0.06
280
     0
281
     0
  7
Standard
140
0.18
170
     2
 62
     0
 63
     7
283
     0
 90
      512
 91
        0
  1

274
    -2
284
     1
 64
     0
275
    -2
285
     1
 65
     0
276
    -2
286
     1
 66
     0
277
    -2
287
     1
 67
     0
278
    -2
288
     1
 68
     0
279
    -2
289
     1
 69
     0
  7
Standard
140
0.25
170
     5
 62
     0
 63
     7
283
     0
 90
      512
 91
        0
  1

274
    -2
284
     1
 64
     0
275
    -2
285
     1
 65
     0
276
    -2
286
     1
 66
     0
277
    -2
287
     1
 67
     0
278
    -2
288
     1
 68
     0
279
    -2
289
     1
 69
     0
  7
Standard
140
0.18
170
     5
 62
     0
 63
     7
283
     0
 90
      512
 91
        0
  1

274
    -2
284
     1
 64
     0
275
    -2
285
     1
 65
     0
276
    -2
286
     1
 66
     0
277
    -2
287
     1
 67
     0
278
    -2
288
     1
 68
     0
279
    -2
289
     1
 69
     0
  0
VISUALSTYLE
  5
2F
102
{ACAD_REACTORS
330
29
102
}
330
29
100
AcDbVisualStyle
  2
2dWireframe
 70
     4
177
     3
291
     0
 70
    58
 90
        0
176
     1
 90
        2
176
     1
 90
        0
176
     1
 90
        0
176
     1
 40
0.6
176
     1
 40
30.0
176
     1
 62
     7
420
 16777215
176
     1
 90
        1
176
     1
 90
        4
176
     1
 62
     7
176
     1
 62
   257
176
     1
 90
        1
176
     1
 90
        1
176
     1
 40
1.0
176
     1
 90
        0
176
     1
 62
   257
176
     1
 40
1.0
176
     1
 90
        1
176
     1
 90
        6
176
     1
 90
        2
176
     1
 62
     7
176
     1
 90
        5
176
     1
 90
        0
176
     1
 90
        0
176
     1
290
     0
176
     1
 90
        1
176
     1
 40
0.0
176
     1
 90
        0
176
     1
290
     1
176
     1
290
     1
176
     1
290
     0
176
     1
290
     0
176
     1
290
     0
176
     1
290
     0
176
     1
290
     0
176
     1
290
     0
176
     1
290
     0
176
     1
 90
       50
176
     1
 40
0.0
176
     1
 40
1.0
176
     1
 90
        0
176
     1
 62
    18
420
        0
176
     1
 90
       50
176
     1
 90
        3
176
     1
 62
     5
420
      255
176
     1
290
     0
176
     1
 90
       50
176
     1
 90
       50
176
     1
 90
       50
176
     1
290
     0
176
     1
 90
       50
176
     1
 62
   256
176
     0
 40
1.0
176
     0
 90
        2
176
     1
  1
strokes_ogs.tif
176
     1
290
     0
176
     1
 40
1.0
176
     1
 40
1.0
176
     1
  0
VISUALSTYLE
  5
2E
102
{ACAD_REACTORS
330
29
102
}
330
29
100
AcDbVisualStyle
  2
Basic
 70
     7
177
     3
291
     1
 70
    58
 90
        1
176
     1
 90
        0
176
     1
 90
        1
176
     1
 90
        0
176
     1
 40
0.6
176
     1
 40
30.0
176
     1
 62
     7
420
 16777215
176
     1
 90
        0
176
     1
 90
        4
176
     1
 62
     7
176
     1
 62
   257
176
     1
 90
        1
176
     1
 90
        1
176
     1
 40
1.0
176
     1
 90
        8
176
     1
 62
     7
176
     1
 40
1.0
176
     1
 90
        1
176
     1
 90
        6
176
     1
 90
        2
176
     1
 62
     7
176
     1
 90
        5
176
     1
 90
        0
176
     1
 90
        0
176
     1
290
     0
176
     1
 90
        1
176
     1
 40
0.0
176
     1
 90
        0
176
     1
290
     0
176
     1
290
     1
176
     1
290
     1
176
     1
290
     0
176
     1
290
     0
176
     1
290
     0
176
     1
290
     0
176
     1
290
     0
176
     1
290
     0
176
     1
 90
       50
176
     1
 40
0.0
176
     1
 40
1.0
176
     1
 90
        0
176
     1
 62
    18
420
        0
176
     1
 90
       50
176
     1
 90
        3
176
     1
 62
     5
420
      255
176
     1
290
     0
176
     1
 90
       50
176
     1
 90
       50
176
     1
 90
       50
176
     1
290
     0
176
     1
 90
       50
176
     1
 62
   256
176
     0
 40
1.0
176
     0
 90
        2
176
     1
  1
strokes_ogs.tif
176
     1
290
     0
176
     1
 40
1.0
176
     1
 40
1.0
176
     1
  0
VISUALSTYLE
  5
35
102
{ACAD_REACTORS
330
29
102
}
330
29
100
AcDbVisualStyle
  2
Brighten
 70
    12
177
     3
291
     1
 70
    58
 90
        2
176
     1
 90
        2
176
     1
 90
        0
176
     1
 90
        0
176
     1
 40
0.6
176
     1
 40
30.0
176
     1
 62
     7
420
 16777215
176
     1
 90
        1
176
     1
 90
        4
176
     1
 62
     7
176
     1
 62
   257
176
     1
 90
        1
176
     1
 90
        1
176
     1
 40
1.0
176
     1
 90
        8
176
     1
 62
     7
176
     1
 40
1.0
176
     1
 90
        1
176
     1
 90
        6
176
     1
 90
        2
176
     1
 62
     7
176
     1
 90
        5
176
     1
 90
        0
176
     1
 90
        0
176
     1
290
     0
176
     1
 90
        1
176
     1
 40
50.0
176
     1
 90
        0
176
     1
290
     0
176
     1
290
     1
176
     1
290
     1
176
     1
290
     0
176
     1
290
     0
176
     1
290
     0
176
     1
290
     0
176
     1
290
     0
176
     1
290
     0
176
     1
 90
       50
176
     1
 40
0.0
176
     1
 40
1.0
176
     1
 90
        0
176
     1
 62
    18
420
        0
176
     1
 90
       50
176
     1
 90
        3
176
     1
 62
     5
420
      255
176
     1
290
     0
176
     1
 90
       50
176
     1
 90
       50
176
     1
 90
       50
176
     1
290
     0
176
     1
 90
       50
176
     1
 62
   256
176
     0
 40
1.0
176
     0
 90
        2
176
     1
  1
strokes_ogs.tif
176
     1
290
     0
176
     1
 40
1.0
176
     1
 40
1.0
176
     1
  0
VISUALSTYLE
  5
39
102
{ACAD_REACTORS
330
29
102
}
330
29
100
AcDbVisualStyle
  2
ColorChange
 70
    16
177
     3
291
     1
 70
    58
 90
        2
176
     1
 90
        2
176
     1
 90
        3
176
     1
 90
        0
176
     1
 40
0.6
176
     1
 40
30.0
176
     1
 62
     8
420
  8421504
176
     1
 90
        1
176
     1
 90
        4
176
     1
 62
     7
176
     1
 62
   257
176
     1
 90
        1
176
     1
 90
        1
176
     1
 40
1.0
176
     1
 90
        8
176
     1
 62
     8
420
  8421504
176
     1
 40
1.0
176
     1
 90
        1
176
     1
 90
        6
176
     1
 90
        2
176
     1
 62
     7
176
     1
 90
        5
176
     1
 90
        0
176
     1
 90
        0
176
     1
290
     0
176
     1
 90
        1
176
     1
 40
0.0
176
     1
 90
        0
176
     1
290
     0
176
     1
290
     1
176
     1
290
     1
176
     1
290
     0
176
     1
290
     0
176
     1
290
     0
176
     1
290
     0
176
     1
290
     0
176
     1
290
     0
176
     1
 90
       50
176
     1
 40
0.0
176
     1
 40
1.0
176
     1
 90
        0
176
     1
 62
    18
420
        0
176
     1
 90
       50
176
     1
 90
        3
176
     1
 62
     5
420
      255
176
     1
290
     0
176
     1
 90
       50
176
     1
 90
       50
176
     1
 90
       50
176
     1
290
     0
176
     1
 90
       50
176
     1
 62
   256
176
     0
 40
1.0
176
     0
 90
        2
176
     1
  1
strokes_ogs.tif
176
     1
290
     0
176
     1
 40
1.0
176
     1
 40
1.0
176
     1
  0
VISUALSTYLE
  5
32
102
{ACAD_REACTORS
330
29
102
}
330
29
100
AcDbVisualStyle
  2
Conceptual
 70
     9
177
     3
291
     0
 70
    58
 90
        3
176
     1
 90
        2
176
     1
 90
        0
176
     1
 90
        0
176
     1
 40
0.6
176
     1
 40
30.0
176
     1
 62
     7
420
 16777215
176
     1
 90
        2
176
     1
 90
        2
176
     1
 62
     7
176
     1
 62
   257
176
     1
 90
        1
176
     1
 90
        1
176
     1
 40
179.0
176
     1
 90
        8
176
     1
 62
     7
176
     1
 40
1.0
176
     1
 90
        1
176
     1
 90
        6
176
     1
 90
        2
176
     1
 62
     7
176
     1
 90
        3
176
     1
 90
        0
176
     1
 90
        0
176
     1
290
     0
176
     1
 90
        1
176
     1
 40
0.0
176
     1
 90
        0
176
     1
290
     0
176
     1
290
     1
176
     1
290
     1
176
     1
290
     0
176
     1
290
     0
176
     1
290
     0
176
     1
290
     0
176
     1
290
     0
176
     1
290
     0
176
     1
 90
       50
176
     1
 40
0.0
176
     1
 40
1.0
176
     1
 90
        0
176
     1
 62
    18
420
        0
176
     1
 90
       50
176
     1
 90
        3
176
     1
 62
     5
420
      255
176
     1
290
     0
176
     1
 90
       50
176
     1
 90
       50
176
     1
 90
       50
176
     1
290
     0
176
     1
 90
       50
176
     1
 62
   256
176
     0
 40
1.0
176
     0
 90
        2
176
     1
  1
strokes_ogs.tif
176
     1
290
     0
176
     1
 40
1.0
176
     1
 40
1.0
176
     1
  0
VISUALSTYLE
  5
34
102
{ACAD_REACTORS
330
29
102
}
330
29
100
AcDbVisualStyle
  2
Dim
 70
    11
177
     3
291
     1
 70
    58
 90
        2
176
     1
 90
        2
176
     1
 90
        0
176
     1
 90
        0
176
     1
 40
0.6
176
     1
 40
30.0
176
     1
 62
     7
420
 16777215
176
     1
 90
        1
176
     1
 90
        4
176
     1
 62
     7
176
     1
 62
   257
176
     1
 90
        1
176
     1
 90
        1
176
     1
 40
1.0
176
     1
 90
        8
176
     1
 62
     7
176
     1
 40
1.0
176
     1
 90
        1
176
     1
 90
        6
176
     1
 90
        2
176
     1
 62
     7
176
     1
 90
        5
176
     1
 90
        0
176
     1
 90
        0
176
     1
290
     0
176
     1
 90
        1
176
     1
 40
-50.0
176
     1
 90
        0
176
     1
290
     0
176
     1
290
     1
176
     1
290
     1
176
     1
290
     0
176
     1
290
     0
176
     1
290
     0
176
     1
290
     0
176
     1
290
     0
176
     1
290
     0
176
     1
 90
       50
176
     1
 40
0.0
176
     1
 40
1.0
176
     1
 90
        0
176
     1
 62
    18
420
        0
176
     1
 90
       50
176
     1
 90
        3
176
     1
 62
     5
420
      255
176
     1
290
     0
176
     1
 90
       50
176
     1
 90
       50
176
     1
 90
       50
176
     1
290
     0
176
     1
 90
       50
176
     1
 62
   256
176
     0
 40
1.0
176
     0
 90
        2
176
     1
  1
strokes_ogs.tif
176
     1
290
     0
176
     1
 40
1.0
176
     1
 40
1.0
176
     1
  0
VISUALSTYLE
  5
41
102
{ACAD_REACTORS
330
29
102
}
330
29
100
AcDbVisualStyle
  2
EdgeColorOff
 70
    22
177
     3
291
     1
 70
    58
 90
        2
176
     0
 90
        2
176
     0
 90
        0
176
     0
 90
        0
176
     0
 40
0.6
176
     0
 40
30.0
176
     0
 62
     7
420
 16777215
176
     0
 90
        1
176
     0
 90
        4
176
     0
 62
     7
176
     0
 62
   257
176
     0
 90
        1
176
     0
 90
        1
176
     0
 40
1.0
176
     0
 90
        8
176
     2
 62
     7
176
     0
 40
1.0
176
     0
 90
        1
176
     0
 90
        6
176
     0
 90
        2
176
     0
 62
     7
176
     0
 90
        5
176
     0
 90
        0
176
     0
 90
        0
176
     0
290
     0
176
     0
 90
        1
176
     0
 40
0.0
176
     0
 90
        0
176
     0
290
     0
176
     0
290
     1
176
     0
290
     1
176
     0
290
     0
176
     0
290
     0
176
     0
290
     0
176
     0
290
     0
176
     0
290
     0
176
     0
290
     0
176
     0
 90
       50
176
     0
 40
0.0
176
     0
 40
1.0
176
     0
 90
        0
176
     0
 62
    18
420
        0
176
     0
 90
       50
176
     0
 90
        3
176
     0
 62
     5
420
      255
176
     0
290
     0
176
     0
 90
       50
176
     0
 90
       50
176
     0
 90
       50
176
     0
290
     0
176
     0
 90
       50
176
     0
 62
   256
176
     0
 40
1.0
176
     0
 90
        2
176
     0
  1
strokes_ogs.tif
176
     0
290
     0
176
     0
 40
1.0
176
     0
 40
1.0
176
     0
  0
VISUALSTYLE
  5
38
102
{ACAD_REACTORS
330
29
102
}
330
29
100
AcDbVisualStyle
  2
Facepattern
 70
    15
177
     3
291
     1
 70
    58
 90
        2
176
     1
 90
        2
176
     1
 90
        0
176
     1
 90
        0
176
     1
 40
0.6
176
     1
 40
30.0
176
     1
 62
     7
420
 16777215
176
     1
 90
        1
176
     1
 90
        4
176
     1
 62
     7
176
     1
 62
   257
176
     1
 90
        1
176
     1
 90
        1
176
     1
 40
1.0
176
     1
 90
        8
176
     1
 62
     7
176
     1
 40
1.0
176
     1
 90
        1
176
     1
 90
        6
176
     1
 90
        2
176
     1
 62
     7
176
     1
 90
        5
176
     1
 90
        0
176
     1
 90
        0
176
     1
290
     0
176
     1
 90
        1
176
     1
 40
0.0
176
     1
 90
        0
176
     1
290
     0
176
     1
290
     1
176
     1
290
     1
176
     1
290
     0
176
     1
290
     0
176
     1
290
     0
176
     1
290
     0
176
     1
290
     0
176
     1
290
     0
176
     1
 90
       50
176
     1
 40
0.0
176
     1
 40
1.0
176
     1
 90
        0
176
     1
 62
    18
420
        0
176
     1
 90
       50
176
     1
 90
        3
176
     1
 62
     5
420
      255
176
     1
290
     0
176
     1
 90
       50
176
     1
 90
       50
176
     1
 90
       50
176
     1
290
     0
176
     1
 90
       50
176
     1
 62
   256
176
     0
 40
1.0
176
     0
 90
        2
176
     1
  1
strokes_ogs.tif
176
     1
290
     0
176
     1
 40
1.0
176
     1
 40
1.0
176
     1
  0
VISUALSTYLE
  5
2A
102
{ACAD_REACTORS
330
29
102
}
330
29
100
AcDbVisualStyle
  2
Flat
 70
     0
177
     3
291
     1
 70
    58
 90
        2
176
     1
 90
        1
176
     1
 90
        1
176
     1
 90
        2
176
     1
 40
0.6
176
     1
 40
30.0
176
     1
 62
     7
420
 16777215
176
     1
 90
        0
176
     1
 90
        0
176
     1
 62
     7
176
     1
 62
   257
176
     1
 90
        1
176
     1
 90
        1
176
     1
 40
1.0
176
     1
 90
        8
176
     1
 62
     7
176
     1
 40
1.0
176
     1
 90
        1
176
     1
 90
        6
176
     1
 90
        2
176
     1
 62
     7
176
     1
 90
        5
176
     1
 90
        0
176
     1
 90
        0
176
     1
290
     0
176
     1
 90
       13
176
     1
 40
0.0
176
     1
 90
        0
176
     1
290
     0
176
     1
290
     1
176
     1
290
     1
176
     1
290
     0
176
     1
290
     0
176
     1
290
     0
176
     1
290
     0
176
     1
290
     0
176
     1
290
     0
176
     1
 90
       50
176
     1
 40
0.0
176
     1
 40
1.0
176
     1
 90
        0
176
     1
 62
    18
420
        0
176
     1
 90
       50
176
     1
 90
        3
176
     1
 62
     5
420
      255
176
     1
290
     0
176
     1
 90
       50
176
     1
 90
       50
176
     1
 90
       50
176
     1
290
     0
176
     1
 90
       50
176
     1
 62
   256
176
     0
 40
1.0
176
     0
 90
        2
176
     1
  1
strokes_ogs.tif
176
     1
290
     0
176
     1
 40
1.0
176
     1
 40
1.0
176
     1
  0
VISUALSTYLE
  5
2B
102
{ACAD_REACTORS
330
29
102
}
330
29
100
AcDbVisualStyle
  2
FlatWithEdges
 70
     1
177
     3
291
     1
 70
    58
 90
        2
176
     1
 90
        1
176
     1
 90
        1
176
     1
 90
        2
176
     1
 40
0.6
176
     1
 40
30.0
176
     1
 62
     7
420
 16777215
176
     1
 90
        1
176
     1
 90
        0
176
     1
 62
     7
176
     1
 62
   257
176
     1
 90
        1
176
     1
 90
        1
176
     1
 40
1.0
176
     1
 90
        0
176
     1
 62
   257
176
     1
 40
1.0
176
     1
 90
        1
176
     1
 90
        6
176
     1
 90
        2
176
     1
 62
     7
176
     1
 90
        5
176
     1
 90
        0
176
     1
 90
        0
176
     1
290
     0
176
     1
 90
       13
176
     1
 40
0.0
176
     1
 90
        0
176
     1
290
     0
176
     1
290
     1
176
     1
290
     1
176
     1
290
     0
176
     1
290
     0
176
     1
290
     0
176
     1
290
     0
176
     1
290
     0
176
     1
290
     0
176
     1
 90
       50
176
     1
 40
0.0
176
     1
 40
1.0
176
     1
 90
        0
176
     1
 62
    18
420
        0
176
     1
 90
       50
176
     1
 90
        3
176
     1
 62
     5
420
      255
176
     1
290
     0
176
     1
 90
       50
176
     1
 90
       50
176
     1
 90
       50
176
     1
290
     0
176
     1
 90
       50
176
     1
 62
   256
176
     0
 40
1.0
176
     0
 90
        2
176
     1
  1
strokes_ogs.tif
176
     1
290
     0
176
     1
 40
1.0
176
     1
 40
1.0
176
     1
  0
VISUALSTYLE
  5
2C
102
{ACAD_REACTORS
330
29
102
}
330
29
100
AcDbVisualStyle
  2
Gouraud
 70
     2
177
     3
291
     1
 70
    58
 90
        2
176
     1
 90
        2
176
     1
 90
        1
176
     1
 90
        2
176
     1
 40
0.6
176
     1
 40
30.0
176
     1
 62
     7
420
 16777215
176
     1
 90
        0
176
     1
 90
        0
176
     1
 62
     7
176
     1
 62
   257
176
     1
 90
        1
176
     1
 90
        1
176
     1
 40
1.0
176
     1
 90
        0
176
     1
 62
     7
176
     1
 40
1.0
176
     1
 90
        1
176
     1
 90
        6
176
     1
 90
        2
176
     1
 62
     7
176
     1
 90
        5
176
     1
 90
        0
176
     1
 90
        0
176
     1
290
     0
176
     1
 90
       13
176
     1
 40
0.0
176
     1
 90
        0
176
     1
290
     0
176
     1
290
     1
176
     1
290
     1
176
     1
290
     0
176
     1
290
     0
176
     1
290
     0
176
     1
290
     0
176
     1
290
     0
176
     1
290
     0
176
     1
 90
       50
176
     1
 40
0.0
176
     1
 40
1.0
176
     1
 90
        0
176
     1
 62
    18
420
        0
176
     1
 90
       50
176
     1
 90
        3
176
     1
 62
     5
420
      255
176
     1
290
     0
176
     1
 90
       50
176
     1
 90
       50
176
     1
 90
       50
176
     1
290
     0
176
     1
 90
       50
176
     1
 62
   256
176
     0
 40
1.0
176
     0
 90
        2
176
     1
  1
strokes_ogs.tif
176
     1
290
     0
176
     1
 40
1.0
176
     1
 40
1.0
176
     1
  0
VISUALSTYLE
  5
2D
102
{ACAD_REACTORS
330
29
102
}
330
29
100
AcDbVisualStyle
  2
GouraudWithEdges
 70
     3
177
     3
291
     1
 70
    58
 90
        2
176
     1
 90
        2
176
     1
 90
        1
176
     1
 90
        2
176
     1
 40
0.6
176
     1
 40
30.0
176
     1
 62
     7
420
 16777215
176
     1
 90
        1
176
     1
 90
        0
176
     1
 62
     7
176
     1
 62
   257
176
     1
 90
        1
176
     1
 90
        1
176
     1
 40
1.0
176
     1
 90
        0
176
     1
 62
   257
176
     1
 40
1.0
176
     1
 90
        1
176
     1
 90
        6
176
     1
 90
        2
176
     1
 62
     7
176
     1
 90
        5
176
     1
 90
        0
176
     1
 90
        0
176
     1
290
     0
176
     1
 90
       13
176
     1
 40
0.0
176
     1
 90
        0
176
     1
290
     0
176
     1
290
     1
176
     1
290
     1
176
     1
290
     0
176
     1
290
     0
176
     1
290
     0
176
     1
290
     0
176
     1
290
     0
176
     1
290
     0
176
     1
 90
       50
176
     1
 40
0.0
176
     1
 40
1.0
176
     1
 90
        0
176
     1
 62
    18
420
        0
176
     1
 90
       50
176
     1
 90
        3
176
     1
 62
     5
420
      255
176
     1
290
     0
176
     1
 90
       50
176
     1
 90
       50
176
     1
 90
       50
176
     1
290
     0
176
     1
 90
       50
176
     1
 62
   256
176
     0
 40
1.0
176
     0
 90
        2
176
     1
  1
strokes_ogs.tif
176
     1
290
     0
176
     1
 40
1.0
176
     1
 40
1.0
176
     1
  0
VISUALSTYLE
  5
31
102
{ACAD_REACTORS
330
29
102
}
330
29
100
AcDbVisualStyle
  2
Hidden
 70
     6
177
     3
291
     0
 70
    58
 90
        1
176
     1
 90
        2
176
     1
 90
        2
176
     1
 90
        0
176
     1
 40
0.6
176
     1
 40
30.0
176
     1
 62
     7
420
 16777215
176
     1
 90
        2
176
     1
 90
        2
176
     1
 62
     7
176
     1
 62
   257
176
     1
 90
        2
176
     1
 90
        1
176
     1
 40
40.0
176
     1
 90
        0
176
     1
 62
   257
176
     1
 40
1.0
176
     1
 90
        1
176
     1
 90
        6
176
     1
 90
        2
176
     1
 62
     7
176
     1
 90
        3
176
     1
 90
        0
176
     1
 90
        0
176
     1
290
     0
176
     1
 90
        1
176
     1
 40
0.0
176
     1
 90
        0
176
     1
290
     0
176
     1
290
     1
176
     1
290
     1
176
     1
290
     0
176
     1
290
     0
176
     1
290
     0
176
     1
290
     0
176
     1
290
     0
176
     1
290
     0
176
     1
 90
       50
176
     1
 40
0.0
176
     1
 40
1.0
176
     1
 90
        0
176
     1
 62
    18
420
        0
176
     1
 90
       50
176
     1
 90
        3
176
     1
 62
     5
420
      255
176
     1
290
     0
176
     1
 90
       50
176
     1
 90
       50
176
     1
 90
       50
176
     1
290
     0
176
     1
 90
       50
176
     1
 62
   256
176
     0
 40
1.0
176
     0
 90
        2
176
     1
  1
strokes_ogs.tif
176
     1
290
     0
176
     1
 40
1.0
176
     1
 40
1.0
176
     1
  0
VISUALSTYLE
  5
3F
102
{ACAD_REACTORS
330
29
102
}
330
29
100
AcDbVisualStyle
  2
JitterOff
 70
    20
177
     3
291
     1
 70
    58
 90
        2
176
     0
 90
        2
176
     0
 90
        0
176
     0
 90
        0
176
     0
 40
0.6
176
     0
 40
30.0
176
     0
 62
     7
420
 16777215
176
     0
 90
        1
176
     0
 90
        4
176
     0
 62
     7
176
     0
 62
   257
176
     0
 90
        1
176
     0
 90
        1
176
     0
 40
1.0
176
     0
 90
       10
176
     2
 62
     7
176
     0
 40
1.0
176
     0
 90
        1
176
     0
 90
        6
176
     0
 90
        2
176
     0
 62
     7
176
     0
 90
        5
176
     0
 90
        0
176
     0
 90
        0
176
     0
290
     0
176
     0
 90
        1
176
     0
 40
0.0
176
     0
 90
        0
176
     0
290
     0
176
     0
290
     1
176
     0
290
     1
176
     0
290
     0
176
     0
290
     0
176
     0
290
     0
176
     0
290
     0
176
     0
290
     0
176
     0
290
     0
176
     0
 90
       50
176
     0
 40
0.0
176
     0
 40
1.0
176
     0
 90
        0
176
     0
 62
    18
420
        0
176
     0
 90
       50
176
     0
 90
        3
176
     0
 62
     5
420
      255
176
     0
290
     0
176
     0
 90
       50
176
     0
 90
       50
176
     0
 90
       50
176
     0
290
     0
176
     0
 90
       50
176
     0
 62
   256
176
     0
 40
1.0
176
     0
 90
        2
176
     0
  1
strokes_ogs.tif
176
     0
290
     0
176
     0
 40
1.0
176
     0
 40
1.0
176
     0
  0
VISUALSTYLE
  5
37
102
{ACAD_REACTORS
330
29
102
}
330
29
100
AcDbVisualStyle
  2
Linepattern
 70
    14
177
     3
291
     1
 70
    58
 90
        2
176
     1
 90
        2
176
     1
 90
        0
176
     1
 90
        0
176
     1
 40
0.6
176
     1
 40
30.0
176
     1
 62
     7
420
 16777215
176
     1
 90
        1
176
     1
 90
        4
176
     1
 62
     7
176
     1
 62
   257
176
     1
 90
        7
176
     1
 90
        7
176
     1
 40
1.0
176
     1
 90
        8
176
     1
 62
     7
176
     1
 40
1.0
176
     1
 90
        1
176
     1
 90
        6
176
     1
 90
        2
176
     1
 62
     7
176
     1
 90
        5
176
     1
 90
        0
176
     1
 90
        0
176
     1
290
     0
176
     1
 90
        1
176
     1
 40
0.0
176
     1
 90
        0
176
     1
290
     0
176
     1
290
     1
176
     1
290
     1
176
     1
290
     0
176
     1
290
     0
176
     1
290
     0
176
     1
290
     0
176
     1
290
     0
176
     1
290
     0
176
     1
 90
       50
176
     1
 40
0.0
176
     1
 40
1.0
176
     1
 90
        0
176
     1
 62
    18
420
        0
176
     1
 90
       50
176
     1
 90
        3
176
     1
 62
     5
420
      255
176
     1
290
     0
176
     1
 90
       50
176
     1
 90
       50
176
     1
 90
       50
176
     1
290
     0
176
     1
 90
       50
176
     1
 62
   256
176
     0
 40
1.0
176
     0
 90
        2
176
     1
  1
strokes_ogs.tif
176
     1
290
     0
176
     1
 40
1.0
176
     1
 40
1.0
176
     1
  0
VISUALSTYLE
  5
40
102
{ACAD_REACTORS
330
29
102
}
330
29
100
AcDbVisualStyle
  2
OverhangOff
 70
    21
177
     3
291
     1
 70
    58
 90
        2
176
     0
 90
        2
176
     0
 90
        0
176
     0
 90
        0
176
     0
 40
0.6
176
     0
 40
30.0
176
     0
 62
     7
420
 16777215
176
     0
 90
        1
176
     0
 90
        4
176
     0
 62
     7
176
     0
 62
   257
176
     0
 90
        1
176
     0
 90
        1
176
     0
 40
1.0
176
     0
 90
        9
176
     2
 62
     7
176
     0
 40
1.0
176
     0
 90
        1
176
     0
 90
        6
176
     0
 90
        2
176
     0
 62
     7
176
     0
 90
        5
176
     0
 90
        0
176
     0
 90
        0
176
     0
290
     0
176
     0
 90
        1
176
     0
 40
0.0
176
     0
 90
        0
176
     0
290
     0
176
     0
290
     1
176
     0
290
     1
176
     0
290
     0
176
     0
290
     0
176
     0
290
     0
176
     0
290
     0
176
     0
290
     0
176
     0
290
     0
176
     0
 90
       50
176
     0
 40
0.0
176
     0
 40
1.0
176
     0
 90
        0
176
     0
 62
    18
420
        0
176
     0
 90
       50
176
     0
 90
        3
176
     0
 62
     5
420
      255
176
     0
290
     0
176
     0
 90
       50
176
     0
 90
       50
176
     0
 90
       50
176
     0
290
     0
176
     0
 90
       50
176
     0
 62
   256
176
     0
 40
1.0
176
     0
 90
        2
176
     0
  1
strokes_ogs.tif
176
     0
290
     0
176
     0
 40
1.0
176
     0
 40
1.0
176
     0
  0
VISUALSTYLE
  5
33
102
{ACAD_REACTORS
330
29
102
}
330
29
100
AcDbVisualStyle
  2
Realistic
 70
     8
177
     3
291
     0
 70
    58
 90
        2
176
     1
 90
        3
176
     1
 90
        0
176
     1
 90
        2
176
     1
 40
0.6
176
     1
 40
30.0
176
     1
 62
     7
420
 16777215
176
     1
 90
        0
176
     1
 90
        0
176
     1
 62
     7
176
     1
 62
   257
176
     1
 90
        1
176
     1
 90
        1
176
     1
 40
1.0
176
     1
 90
        8
176
     1
 62
   257
176
     1
 40
1.0
176
     1
 90
        1
176
     1
 90
        6
176
     1
 90
        2
176
     1
 62
     7
176
     1
 90
        3
176
     1
 90
        0
176
     1
 90
        0
176
     1
290
     0
176
     1
 90
       13
176
     1
 40
0.0
176
     1
 90
        0
176
     1
290
     0
176
     1
290
     1
176
     1
290
     1
176
     1
290
     0
176
     1
290
     0
176
     1
290
     0
176
     1
290
     0
176
     1
290
     0
176
     1
290
     0
176
     1
 90
       50
176
     1
 40
0.0
176
     1
 40
1.0
176
     1
 90
        0
176
     1
 62
    18
420
        0
176
     1
 90
       50
176
     1
 90
        3
176
     1
 62
     5
420
      255
176
     1
290
     0
176
     1
 90
       50
176
     1
 90
       50
176
     1
 90
       50
176
     1
290
     0
176
     1
 90
       50
176
     1
 62
   256
176
     0
 40
1.0
176
     0
 90
        2
176
     1
  1
strokes_ogs.tif
176
     1
290
     0
176
     1
 40
1.0
176
     1
 40
1.0
176
     1
  0
VISUALSTYLE
  5
3E
102
{ACAD_REACTORS
330
29
102
}
330
29
100
AcDbVisualStyle
  2
Shaded
 70
    27
177
     3
291
     0
 70
    58
 90
        2
176
     1
 90
        2
176
     1
 90
        1
176
     1
 90
        2
176
     1
 40
0.6
176
     1
 40
30.0
176
     1
 62
     7
420
 16777215
176
     1
 90
        0
176
     1
 90
        4
176
     1
 62
     7
176
     1
 62
   257
176
     1
 90
        1
176
     1
 90
        1
176
     1
 40
1.0
176
     1
 90
        8
176
     1
 62
   257
176
     1
 40
1.0
176
     1
 90
        1
176
     1
 90
        6
176
     1
 90
        2
176
     1
 62
     8
420
  7895160
176
     1
 90
        3
176
     1
 90
        0
176
     1
 90
        0
176
     1
290
     0
176
     1
 90
        5
176
     1
 40
0.0
176
     1
 90
        0
176
     1
290
     0
176
     1
290
     1
176
     1
290
     1
176
     1
290
     0
176
     1
290
     0
176
     1
290
     0
176
     1
290
     0
176
     1
290
     0
176
     1
290
     0
176
     1
 90
       50
176
     1
 40
0.0
176
     1
 40
1.0
176
     1
 90
        0
176
     1
 62
    18
420
        0
176
     1
 90
       50
176
     1
 90
        3
176
     1
 62
     5
420
      255
176
     1
290
     0
176
     1
 90
       50
176
     1
 90
       50
176
     1
 90
       50
176
     1
290
     0
176
     1
 90
       50
176
     1
 62
   256
176
     0
 40
1.0
176
     0
 90
        2
176
     1
  1
strokes_ogs.tif
176
     1
290
     0
176
     1
 40
1.0
176
     1
 40
1.0
176
     1
  0
VISUALSTYLE
  5
3D
102
{ACAD_REACTORS
330
29
102
}
330
29
100
AcDbVisualStyle
  2
Shaded with edges
 70
    26
177
     3
291
     0
 70
    58
 90
        2
176
     1
 90
        2
176
     1
 90
        1
176
     1
 90
        2
176
     1
 40
0.6
176
     1
 40
30.0
176
     1
 62
     7
420
 16777215
176
     1
 90
        1
176
     1
 90
        2
176
     1
 62
     7
176
     1
 62
   257
176
     1
 90
        2
176
     1
 90
        1
176
     1
 40
1.0
176
     1
 90
        8
176
     1
 62
   257
176
     1
 40
1.0
176
     1
 90
        1
176
     1
 90
        6
176
     1
 90
        2
176
     1
 62
     7
176
     1
 90
        3
176
     1
 90
        0
176
     1
 90
        0
176
     1
290
     0
176
     1
 90
        5
176
     1
 40
0.0
176
     1
 90
        0
176
     1
290
     0
176
     1
290
     1
176
     1
290
     1
176
     1
290
     0
176
     1
290
     0
176
     1
290
     0
176
     1
290
     0
176
     1
290
     0
176
     1
290
     0
176
     1
 90
       50
176
     1
 40
0.0
176
     1
 40
1.0
176
     1
 90
        0
176
     1
 62
    18
420
        0
176
     1
 90
       50
176
     1
 90
        3
176
     1
 62
     5
420
      255
176
     1
290
     0
176
     1
 90
       50
176
     1
 90
       50
176
     1
 90
       50
176
     1
290
     0
176
     1
 90
       50
176
     1
 62
   256
176
     0
 40
1.0
176
     0
 90
        2
176
     1
  1
strokes_ogs.tif
176
     1
290
     0
176
     1
 40
1.0
176
     1
 40
1.0
176
     1
  0
VISUALSTYLE
  5
3A
102
{ACAD_REACTORS
330
29
102
}
330
29
100
AcDbVisualStyle
  2
Shades of Gray
 70
    23
177
     3
291
     0
 70
    58
 90
        2
176
     1
 90
        2
176
     1
 90
        3
176
     1
 90
        0
176
     1
 40
0.6
176
     1
 40
30.0
176
     1
 62
     7
420
 16777215
176
     1
 90
        2
176
     1
 90
        2
176
     1
 62
     7
176
     1
 62
     7
176
     1
 90
        1
176
     1
 90
        1
176
     1
 40
40.0
176
     1
 90
        8
176
     1
 62
     7
176
     1
 40
1.0
176
     1
 90
        1
176
     1
 90
        6
176
     1
 90
        2
176
     1
 62
     7
176
     1
 90
        3
176
     1
 90
        0
176
     1
 90
        0
176
     1
290
     0
176
     1
 90
        1
176
     1
 40
0.0
176
     1
 90
        0
176
     1
290
     0
176
     1
290
     1
176
     1
290
     1
176
     1
290
     0
176
     1
290
     0
176
     1
290
     0
176
     1
290
     0
176
     1
290
     0
176
     1
290
     0
176
     1
 90
       50
176
     1
 40
0.0
176
     1
 40
1.0
176
     1
 90
        0
176
     1
 62
    18
420
        0
176
     1
 90
       50
176
     1
 90
        3
176
     1
 62
     5
420
      255
176
     1
290
     0
176
     1
 90
       50
176
     1
 90
       50
176
     1
 90
       50
176
     1
290
     0
176
     1
 90
       50
176
     1
 62
   256
176
     0
 40
1.0
176
     0
 90
        2
176
     1
  1
strokes_ogs.tif
176
     1
290
     0
176
     1
 40
1.0
176
     1
 40
1.0
176
     1
  0
VISUALSTYLE
  5
3B
102
{ACAD_REACTORS
330
29
102
}
330
29
100
AcDbVisualStyle
  2
Sketchy
 70
    24
177
     3
291
     0
 70
    58
 90
        1
176
     1
 90
        2
176
     1
 90
        2
176
     1
 90
        0
176
     1
 40
0.6
176
     1
 40
30.0
176
     1
 62
     7
420
 16777215
176
     1
 90
        2
176
     1
 90
        2
176
     1
 62
     7
176
     1
 62
     7
176
     1
 90
        1
176
     1
 90
        1
176
     1
 40
40.0
176
     1
 90
       11
176
     1
 62
     7
176
     1
 40
1.0
176
     1
 90
        1
176
     1
 90
        6
176
     1
 90
        2
176
     1
 62
     7
176
     1
 90
        6
176
     1
 90
        0
176
     1
 90
        0
176
     1
290
     0
176
     1
 90
        1
176
     1
 40
0.0
176
     1
 90
        0
176
     1
290
     0
176
     1
290
     1
176
     1
290
     1
176
     1
290
     0
176
     1
290
     0
176
     1
290
     0
176
     1
290
     0
176
     1
290
     0
176
     1
290
     0
176
     1
 90
       50
176
     1
 40
0.0
176
     1
 40
1.0
176
     1
 90
        0
176
     1
 62
    18
420
        0
176
     1
 90
       50
176
     1
 90
        3
176
     1
 62
     5
420
      255
176
     1
290
     0
176
     1
 90
       50
176
     1
 90
       50
176
     1
 90
       50
176
     1
290
     0
176
     1
 90
       50
176
     1
 62
   256
176
     0
 40
1.0
176
     0
 90
        2
176
     1
  1
strokes_ogs.tif
176
     1
290
     0
176
     1
 40
1.0
176
     1
 40
1.0
176
     1
  0
VISUALSTYLE
  5
36
102
{ACAD_REACTORS
330
29
102
}
330
29
100
AcDbVisualStyle
  2
Thicken
 70
    13
177
     3
291
     1
 70
    58
 90
        2
176
     1
 90
        2
176
     1
 90
        0
176
     1
 90
        0
176
     1
 40
0.6
176
     1
 40
30.0
176
     1
 62
     7
420
 16777215
176
     1
 90
        1
176
     1
 90
        4
176
     1
 62
     7
176
     1
 62
   257
176
     1
 90
        1
176
     1
 90
        1
176
     1
 40
1.0
176
     1
 90
       12
176
     1
 62
     7
176
     1
 40
1.0
176
     1
 90
        1
176
     1
 90
        6
176
     1
 90
        2
176
     1
 62
     7
176
     1
 90
        5
176
     1
 90
        0
176
     1
 90
        0
176
     1
290
     0
176
     1
 90
        1
176
     1
 40
0.0
176
     1
 90
        0
176
     1
290
     0
176
     1
290
     1
176
     1
290
     1
176
     1
290
     0
176
     1
290
     0
176
     1
290
     0
176
     1
290
     0
176
     1
290
     0
176
     1
290
     0
176
     1
 90
       50
176
     1
 40
0.0
176
     1
 40
1.0
176
     1
 90
        0
176
     1
 62
    18
420
        0
176
     1
 90
       50
176
     1
 90
        3
176
     1
 62
     5
420
      255
176
     1
290
     0
176
     1
 90
       50
176
     1
 90
       50
176
     1
 90
       50
176
     1
290
     0
176
     1
 90
       50
176
     1
 62
   256
176
     0
 40
1.0
176
     0
 90
        2
176
     1
  1
strokes_ogs.tif
176
     1
290
     0
176
     1
 40
1.0
176
     1
 40
1.0
176
     1
  0
VISUALSTYLE
  5
30
102
{ACAD_REACTORS
330
29
102
}
330
29
100
AcDbVisualStyle
  2
Wireframe
 70
     5
177
     3
291
     0
 70
    58
 90
        0
176
     1
 90
        2
176
     1
 90
        0
176
     1
 90
        0
176
     1
 40
0.6
176
     1
 40
30.0
176
     1
 62
     7
420
 16777215
176
     1
 90
        1
176
     1
 90
        4
176
     1
 62
     7
176
     1
 62
   257
176
     1
 90
        1
176
     1
 90
        1
176
     1
 40
1.0
176
     1
 90
        0
176
     1
 62
   257
176
     1
 40
1.0
176
     1
 90
        1
176
     1
 90
        6
176
     1
 90
        2
176
     1
 62
     7
176
     1
 90
        3
176
     1
 90
        0
176
     1
 90
        0
176
     1
290
     0
176
     1
 90
        1
176
     1
 40
0.0
176
     1
 90
        0
176
     1
290
     0
176
     1
290
     1
176
     1
290
     1
176
     1
290
     0
176
     1
290
     0
176
     1
290
     0
176
     1
290
     0
176
     1
290
     0
176
     1
290
     0
176
     1
 90
       50
176
     1
 40
0.0
176
     1
 40
1.0
176
     1
 90
        0
176
     1
 62
    18
420
        0
176
     1
 90
       50
176
     1
 90
        3
176
     1
 62
     5
420
      255
176
     1
290
     0
176
     1
 90
       50
176
     1
 90
       50
176
     1
 90
       50
176
     1
290
     0
176
     1
 90
       50
176
     1
 62
   256
176
     0
 40
1.0
176
     0
 90
        2
176
     1
  1
strokes_ogs.tif
176
     1
290
     0
176
     1
 40
1.0
176
     1
 40
1.0
176
     1
  0
VISUALSTYLE
  5
3C
102
{ACAD_REACTORS
330
29
102
}
330
29
100
AcDbVisualStyle
  2
X-Ray
 70
    25
177
     3
291
     0
 70
    58
 90
        2
176
     1
 90
        2
176
     1
 90
        1
176
     1
 90
        1
176
     1
 40
0.5
176
     1
 40
30.0
176
     1
 62
     7
420
 16777215
176
     1
 90
        1
176
     1
 90
        0
176
     1
 62
     7
176
     1
 62
   257
176
     1
 90
        1
176
     1
 90
        1
176
     1
 40
1.0
176
     1
 90
        8
176
     1
 62
     7
176
     1
 40
1.0
176
     1
 90
        1
176
     1
 90
        6
176
     1
 90
        2
176
     1
 62
     7
176
     1
 90
        3
176
     1
 90
        0
176
     1
 90
        0
176
     1
290
     0
176
     1
 90
       13
176
     1
 40
0.0
176
     1
 90
        0
176
     1
290
     0
176
     1
290
     1
176
     1
290
     1
176
     1
290
     0
176
     1
290
     0
176
     1
290
     0
176
     1
290
     0
176
     1
290
     0
176
     1
290
     0
176
     1
 90
       50
176
     1
 40
0.0
176
     1
 40
1.0
176
     1
 90
        0
176
     1
 62
    18
420
        0
176
     1
 90
       50
176
     1
 90
        3
176
     1
 62
     5
420
      255
176
     1
290
     0
176
     1
 90
       50
176
     1
 90
       50
176
     1
 90
       50
176
     1
290
     0
176
     1
 90
       50
176
     1
 62
   256
176
     0
 40
1.0
176
     0
 90
        2
176
     1
  1
strokes_ogs.tif
176
     1
290
     0
176
     1
 40
1.0
176
     1
 40
1.0
176
     1
  0
DICTIONARYVAR
  5
A2
102
{ACAD_REACTORS
330
9D
102
}
330
9D
100
DictionaryVariables
280
     0
  1
1:1
  0
DICTIONARYVAR
  5
9F
102
{ACAD_REACTORS
330
9D
102
}
330
9D
100
DictionaryVariables
280
     0
  1
STANDARD
  0
DICTIONARYVAR
  5
9E
102
{ACAD_REACTORS
330
9D
102
}
330
9D
100
DictionaryVariables
280
     0
  1
STANDARD
  0
DICTIONARYVAR
  5
A0
102
{ACAD_REACTORS
330
9D
102
}
330
9D
100
DictionaryVariables
280
     0
  1
Imperial24
  0
DICTIONARYVAR
  5
A1
102
{ACAD_REACTORS
330
9D
102
}
330
9D
100
DictionaryVariables
280
     0
  1
Imperial24
  0
DICTIONARY
  5
1A
330
19
100
AcDbDictionary
280
     1
281
     1
  3
BUMPTILE
360
1C
  3
DIFFUSETILE
360
1B
  3
OPACITYTILE
360
1F
  3
REFLECTIONTILE
360
1E
  3
REFRACTIONTILE
360
20
  3
SPECULARTILE
360
1D
  0
DICTIONARY
  5
12
330
11
100
AcDbDictionary
280
     1
281
     1
  3
BUMPTILE
360
14
  3
DIFFUSETILE
360
13
  3
OPACITYTILE
360
17
  3
REFLECTIONTILE
360
16
  3
REFRACTIONTILE
360
18
  3
SPECULARTILE
360
15
  0
DICTIONARY
  5
22
330
21
100
AcDbDictionary
280
     1
281
     1
  3
BUMPTILE
360
24
  3
DIFFUSETILE
360
23
  3
OPACITYTILE
360
27
  3
REFLECTIONTILE
360
26
  3
REFRACTIONTILE
360
28
  3
SPECULARTILE
360
25
  0
DICTIONARY
  5
A3
330
65
100
AcDbDictionary
280
     1
281
     1
  3
ACAD_ROUNDTRIP_2008_TABLESTYLE_CELLSTYLEMAP
360
A4
  0
XRECORD
  5
1C
102
{ACAD_REACTORS
330
1A
102
}
330
1A
100
AcDbXrecord
280
     1
270
     1
271
     1
  0
XRECORD
  5
1B
102
{ACAD_REACTORS
330
1A
102
}
330
1A
100
AcDbXrecord
280
     1
270
     1
271
     1
  0
XRECORD
  5
1F
102
{ACAD_REACTORS
330
1A
102
}
330
1A
100
AcDbXrecord
280
     1
270
     1
271
     1
  0
XRECORD
  5
1E
102
{ACAD_REACTORS
330
1A
102
}
330
1A
100
AcDbXrecord
280
     1
270
     1
271
     1
  0
XRECORD
  5
20
102
{ACAD_REACTORS
330
1A
102
}
330
1A
100
AcDbXrecord
280
     1
270
     1
271
     1
  0
XRECORD
  5
1D
102
{ACAD_REACTORS
330
1A
102
}
330
1A
100
AcDbXrecord
280
     1
270
     1
271
     1
  0
XRECORD
  5
14
102
{ACAD_REACTORS
330
12
102
}
330
12
100
AcDbXrecord
280
     1
270
     1
271
     1
  0
XRECORD
  5
13
102
{ACAD_REACTORS
330
12
102
}
330
12
100
AcDbXrecord
280
     1
270
     1
271
     1
  0
XRECORD
  5
17
102
{ACAD_REACTORS
330
12
102
}
330
12
100
AcDbXrecord
280
     1
270
     1
271
     1
  0
XRECORD
  5
16
102
{ACAD_REACTORS
330
12
102
}
330
12
100
AcDbXrecord
280
     1
270
     1
271
     1
  0
XRECORD
  5
18
102
{ACAD_REACTORS
330
12
102
}
330
12
100
AcDbXrecord
280
     1
270
     1
271
     1
  0
XRECORD
  5
15
102
{ACAD_REACTORS
330
12
102
}
330
12
100
AcDbXrecord
280
     1
270
     1
271
     1
  0
XRECORD
  5
24
102
{ACAD_REACTORS
330
22
102
}
330
22
100
AcDbXrecord
280
     1
270
     1
271
     1
  0
XRECORD
  5
23
102
{ACAD_REACTORS
330
22
102
}
330
22
100
AcDbXrecord
280
     1
270
     1
271
     1
  0
XRECORD
  5
27
102
{ACAD_REACTORS
330
22
102
}
330
22
100
AcDbXrecord
280
     1
270
     1
271
     1
  0
XRECORD
  5
26
102
{ACAD_REACTORS
330
22
102
}
330
22
100
AcDbXrecord
280
     1
270
     1
271
     1
  0
XRECORD
  5
28
102
{ACAD_REACTORS
330
22
102
}
330
22
100
AcDbXrecord
280
     1
270
     1
271
     1
  0
XRECORD
  5
25
102
{ACAD_REACTORS
330
22
102
}
330
22
100
AcDbXrecord
280
     1
270
     1
271
     1
  0
CELLSTYLEMAP
  5
A4
102
{ACAD_REACTORS
330
A3
102
}
330
A3
100
AcDbCellStyleMap
 90
        3
300
CELLSTYLE
  1
TABLEFORMAT_BEGIN
 90
        5
170
     1
 91
        0
 92
    32768
 62
   257
 93
        1
300
CONTENTFORMAT
  1
CONTENTFORMAT_BEGIN
 90
        0
 91
        0
 92
      512
 93
        0
300

 40
0.0
140
1.0
 94
        5
 62
     0
340
55
144
0.25
309
CONTENTFORMAT_END
171
     0
 94
        0
309
TABLEFORMAT_END
  1
CELLSTYLE_BEGIN
 90
        1
 91
        1
300
_TITLE
309
CELLSTYLE_END
300
CELLSTYLE
  1
TABLEFORMAT_BEGIN
 90
        5
170
     1
 91
        0
 92
        0
 62
   257
 93
        1
300
CONTENTFORMAT
  1
CONTENTFORMAT_BEGIN
 90
        0
 91
        0
 92
      512
 93
        0
300

 40
0.0
140
1.0
 94
        5
 62
     0
340
55
144
0.18
309
CONTENTFORMAT_END
171
     0
 94
        0
309
TABLEFORMAT_END
  1
CELLSTYLE_BEGIN
 90
        2
 91
        1
300
_HEADER
309
CELLSTYLE_END
300
CELLSTYLE
  1
TABLEFORMAT_BEGIN
 90
        5
170
     1
 91
        0
 92
        0
 62
   257
 93
        1
300
CONTENTFORMAT
  1
CONTENTFORMAT_BEGIN
 90
        0
 91
        0
 92
      512
 93
        0
300

 40
0.0
140
1.0
 94
        2
 62
     0
340
55
144
0.18
309
CONTENTFORMAT_END
171
     0
 94
        0
309
TABLEFORMAT_END
  1
CELLSTYLE_BEGIN
 90
        3
 91
        2
300
_DATA
309
CELLSTYLE_END
  0
ENDSEC
  0
EOF
